<svg width="273" height="56" viewBox="0 0 273 56" fill="none" xmlns="http://www.w3.org/2000/svg">
<path d="M270.049 0H2.95135C1.32136 0 0 1.2536 0 2.8V53.2C0 54.7464 1.32136 56 2.95135 56H270.049C271.679 56 273 54.7464 273 53.2V2.8C273 1.2536 271.679 0 270.049 0Z" fill="#4285F4"/>
<path d="M75.9893 22.7041C75.9893 22.1416 75.79 21.708 75.3916 21.4033C74.999 21.0986 74.2871 20.791 73.2559 20.4805C72.2246 20.1699 71.4043 19.8242 70.7949 19.4434C69.6289 18.7109 69.0459 17.7559 69.0459 16.5781C69.0459 15.5469 69.4648 14.6973 70.3027 14.0293C71.1465 13.3613 72.2393 13.0273 73.5811 13.0273C74.4717 13.0273 75.2656 13.1914 75.9629 13.5195C76.6602 13.8477 77.208 14.3164 77.6064 14.9258C78.0049 15.5293 78.2041 16.2002 78.2041 16.9385H75.9893C75.9893 16.2705 75.7783 15.749 75.3564 15.374C74.9404 14.9932 74.3428 14.8027 73.5635 14.8027C72.8369 14.8027 72.2715 14.958 71.8672 15.2686C71.4688 15.5791 71.2695 16.0127 71.2695 16.5693C71.2695 17.0381 71.4863 17.4307 71.9199 17.7471C72.3535 18.0576 73.0684 18.3623 74.0645 18.6611C75.0605 18.9541 75.8604 19.291 76.4639 19.6719C77.0674 20.0469 77.5098 20.4805 77.791 20.9727C78.0723 21.459 78.2129 22.0303 78.2129 22.6865C78.2129 23.7529 77.8027 24.6025 76.9824 25.2354C76.168 25.8623 75.0605 26.1758 73.6602 26.1758C72.7344 26.1758 71.8818 26.0059 71.1025 25.666C70.3291 25.3203 69.7256 24.8457 69.292 24.2422C68.8643 23.6387 68.6504 22.9355 68.6504 22.1328H70.874C70.874 22.8594 71.1143 23.4219 71.5947 23.8203C72.0752 24.2188 72.7637 24.418 73.6602 24.418C74.4336 24.418 75.0137 24.2627 75.4004 23.9521C75.793 23.6357 75.9893 23.2197 75.9893 22.7041ZM82.2295 26H80.0938V16.4902H82.2295V26ZM79.9619 14.0205C79.9619 13.6924 80.0645 13.4199 80.2695 13.2031C80.4805 12.9863 80.7793 12.8779 81.166 12.8779C81.5527 12.8779 81.8516 12.9863 82.0625 13.2031C82.2734 13.4199 82.3789 13.6924 82.3789 14.0205C82.3789 14.3428 82.2734 14.6123 82.0625 14.8291C81.8516 15.04 81.5527 15.1455 81.166 15.1455C80.7793 15.1455 80.4805 15.04 80.2695 14.8291C80.0645 14.6123 79.9619 14.3428 79.9619 14.0205ZM84.1895 21.1748C84.1895 19.6982 84.5352 18.5205 85.2266 17.6416C85.9238 16.7568 86.8467 16.3145 87.9951 16.3145C89.0791 16.3145 89.9316 16.6924 90.5527 17.4482L90.6494 16.4902H92.5742V25.71C92.5742 26.958 92.1846 27.9424 91.4053 28.6631C90.6318 29.3838 89.5859 29.7441 88.2676 29.7441C87.5703 29.7441 86.8877 29.5977 86.2197 29.3047C85.5576 29.0176 85.0537 28.6396 84.708 28.1709L85.7188 26.8877C86.375 27.667 87.1836 28.0566 88.1445 28.0566C88.8535 28.0566 89.4131 27.8633 89.8232 27.4766C90.2334 27.0957 90.4385 26.5332 90.4385 25.7891V25.1475C89.8232 25.833 89.0029 26.1758 87.9775 26.1758C86.8643 26.1758 85.9531 25.7334 85.2441 24.8486C84.541 23.9639 84.1895 22.7393 84.1895 21.1748ZM86.3164 21.3594C86.3164 22.3145 86.5098 23.0674 86.8965 23.6182C87.2891 24.1631 87.8311 24.4355 88.5225 24.4355C89.3838 24.4355 90.0225 24.0664 90.4385 23.3281V19.1445C90.0342 18.4238 89.4014 18.0635 88.54 18.0635C87.8369 18.0635 87.2891 18.3418 86.8965 18.8984C86.5098 19.4551 86.3164 20.2754 86.3164 21.3594ZM96.7578 16.4902L96.8193 17.5889C97.5225 16.7393 98.4453 16.3145 99.5879 16.3145C101.568 16.3145 102.576 17.4482 102.611 19.7158V26H100.476V19.8389C100.476 19.2354 100.344 18.79 100.08 18.5029C99.8223 18.21 99.3975 18.0635 98.8057 18.0635C97.9443 18.0635 97.3027 18.4531 96.8809 19.2324V26H94.7451V16.4902H96.7578ZM111.55 26H109.414V16.4902H111.55V26ZM109.282 14.0205C109.282 13.6924 109.385 13.4199 109.59 13.2031C109.801 12.9863 110.1 12.8779 110.486 12.8779C110.873 12.8779 111.172 12.9863 111.383 13.2031C111.594 13.4199 111.699 13.6924 111.699 14.0205C111.699 14.3428 111.594 14.6123 111.383 14.8291C111.172 15.04 110.873 15.1455 110.486 15.1455C110.1 15.1455 109.801 15.04 109.59 14.8291C109.385 14.6123 109.282 14.3428 109.282 14.0205ZM115.865 16.4902L115.927 17.5889C116.63 16.7393 117.553 16.3145 118.695 16.3145C120.676 16.3145 121.684 17.4482 121.719 19.7158V26H119.583V19.8389C119.583 19.2354 119.451 18.79 119.188 18.5029C118.93 18.21 118.505 18.0635 117.913 18.0635C117.052 18.0635 116.41 18.4531 115.988 19.2324V26H113.853V16.4902H115.865ZM136.739 23.0557L138.251 16.4902H140.334L137.741 26H135.983L133.944 19.4697L131.94 26H130.183L127.581 16.4902H129.664L131.202 22.9854L133.153 16.4902H134.762L136.739 23.0557ZM144.034 26H141.898V16.4902H144.034V26ZM141.767 14.0205C141.767 13.6924 141.869 13.4199 142.074 13.2031C142.285 12.9863 142.584 12.8779 142.971 12.8779C143.357 12.8779 143.656 12.9863 143.867 13.2031C144.078 13.4199 144.184 13.6924 144.184 14.0205C144.184 14.3428 144.078 14.6123 143.867 14.8291C143.656 15.04 143.357 15.1455 142.971 15.1455C142.584 15.1455 142.285 15.04 142.074 14.8291C141.869 14.6123 141.767 14.3428 141.767 14.0205ZM149.044 14.1787V16.4902H150.723V18.0723H149.044V23.3809C149.044 23.7441 149.114 24.0078 149.255 24.1719C149.401 24.3301 149.659 24.4092 150.028 24.4092C150.274 24.4092 150.523 24.3799 150.775 24.3213V25.9736C150.289 26.1084 149.82 26.1758 149.369 26.1758C147.729 26.1758 146.908 25.2705 146.908 23.46V18.0723H145.344V16.4902H146.908V14.1787H149.044ZM154.467 17.5273C155.164 16.7188 156.046 16.3145 157.112 16.3145C159.14 16.3145 160.168 17.4717 160.197 19.7861V26H158.062V19.8652C158.062 19.209 157.918 18.7461 157.631 18.4766C157.35 18.2012 156.934 18.0635 156.383 18.0635C155.527 18.0635 154.889 18.4443 154.467 19.2061V26H152.331V12.5H154.467V17.5273ZM176.861 24.3389C176.398 24.9424 175.757 25.3994 174.937 25.71C174.116 26.0205 173.185 26.1758 172.142 26.1758C171.069 26.1758 170.12 25.9326 169.294 25.4463C168.468 24.96 167.829 24.2656 167.378 23.3633C166.933 22.4551 166.701 21.3975 166.684 20.1904V19.1885C166.684 17.2549 167.146 15.7461 168.072 14.6621C168.998 13.5723 170.29 13.0273 171.948 13.0273C173.372 13.0273 174.503 13.3789 175.341 14.082C176.179 14.7852 176.683 15.7988 176.853 17.123H174.673C174.427 15.582 173.533 14.8115 171.992 14.8115C170.996 14.8115 170.237 15.1719 169.716 15.8926C169.2 16.6074 168.934 17.6592 168.916 19.0479V20.0322C168.916 21.415 169.206 22.4902 169.786 23.2578C170.372 24.0195 171.184 24.4004 172.221 24.4004C173.357 24.4004 174.166 24.1426 174.646 23.627V21.1221H172.01V19.4346H176.861V24.3389ZM178.698 21.1572C178.698 20.2256 178.883 19.3877 179.252 18.6436C179.621 17.8936 180.14 17.3193 180.808 16.9209C181.476 16.5166 182.243 16.3145 183.11 16.3145C184.394 16.3145 185.434 16.7275 186.23 17.5537C187.033 18.3799 187.467 19.4756 187.531 20.8408L187.54 21.3418C187.54 22.2793 187.358 23.1172 186.995 23.8555C186.638 24.5938 186.122 25.165 185.448 25.5693C184.78 25.9736 184.007 26.1758 183.128 26.1758C181.786 26.1758 180.711 25.7305 179.902 24.8398C179.1 23.9434 178.698 22.751 178.698 21.2627V21.1572ZM180.834 21.3418C180.834 22.3203 181.036 23.0879 181.44 23.6445C181.845 24.1953 182.407 24.4707 183.128 24.4707C183.849 24.4707 184.408 24.1895 184.807 23.627C185.211 23.0645 185.413 22.2412 185.413 21.1572C185.413 20.1963 185.205 19.4346 184.789 18.8721C184.379 18.3096 183.819 18.0283 183.11 18.0283C182.413 18.0283 181.859 18.3066 181.449 18.8633C181.039 19.4141 180.834 20.2402 180.834 21.3418ZM188.946 21.1572C188.946 20.2256 189.131 19.3877 189.5 18.6436C189.869 17.8936 190.388 17.3193 191.056 16.9209C191.724 16.5166 192.491 16.3145 193.358 16.3145C194.642 16.3145 195.682 16.7275 196.479 17.5537C197.281 18.3799 197.715 19.4756 197.779 20.8408L197.788 21.3418C197.788 22.2793 197.606 23.1172 197.243 23.8555C196.886 24.5938 196.37 25.165 195.696 25.5693C195.028 25.9736 194.255 26.1758 193.376 26.1758C192.034 26.1758 190.959 25.7305 190.15 24.8398C189.348 23.9434 188.946 22.751 188.946 21.2627V21.1572ZM191.082 21.3418C191.082 22.3203 191.284 23.0879 191.688 23.6445C192.093 24.1953 192.655 24.4707 193.376 24.4707C194.097 24.4707 194.656 24.1895 195.055 23.627C195.459 23.0645 195.661 22.2412 195.661 21.1572C195.661 20.1963 195.453 19.4346 195.037 18.8721C194.627 18.3096 194.067 18.0283 193.358 18.0283C192.661 18.0283 192.107 18.3066 191.697 18.8633C191.287 19.4141 191.082 20.2402 191.082 21.3418ZM199.221 21.1748C199.221 19.6982 199.566 18.5205 200.258 17.6416C200.955 16.7568 201.878 16.3145 203.026 16.3145C204.11 16.3145 204.963 16.6924 205.584 17.4482L205.681 16.4902H207.605V25.71C207.605 26.958 207.216 27.9424 206.437 28.6631C205.663 29.3838 204.617 29.7441 203.299 29.7441C202.602 29.7441 201.919 29.5977 201.251 29.3047C200.589 29.0176 200.085 28.6396 199.739 28.1709L200.75 26.8877C201.406 27.667 202.215 28.0566 203.176 28.0566C203.885 28.0566 204.444 27.8633 204.854 27.4766C205.265 27.0957 205.47 26.5332 205.47 25.7891V25.1475C204.854 25.833 204.034 26.1758 203.009 26.1758C201.896 26.1758 200.984 25.7334 200.275 24.8486C199.572 23.9639 199.221 22.7393 199.221 21.1748ZM201.348 21.3594C201.348 22.3145 201.541 23.0674 201.928 23.6182C202.32 24.1631 202.862 24.4355 203.554 24.4355C204.415 24.4355 205.054 24.0664 205.47 23.3281V19.1445C205.065 18.4238 204.433 18.0635 203.571 18.0635C202.868 18.0635 202.32 18.3418 201.928 18.8984C201.541 19.4551 201.348 20.2754 201.348 21.3594ZM212.079 26H209.943V12.5H212.079V26ZM218.601 26.1758C217.247 26.1758 216.148 25.751 215.305 24.9014C214.467 24.0459 214.048 22.9092 214.048 21.4912V21.2275C214.048 20.2783 214.229 19.4316 214.593 18.6875C214.962 17.9375 215.478 17.3545 216.14 16.9385C216.802 16.5225 217.54 16.3145 218.354 16.3145C219.649 16.3145 220.648 16.7275 221.352 17.5537C222.061 18.3799 222.415 19.5488 222.415 21.0605V21.9219H216.201C216.266 22.707 216.526 23.3281 216.983 23.7852C217.446 24.2422 218.026 24.4707 218.724 24.4707C219.702 24.4707 220.499 24.0752 221.114 23.2842L222.266 24.3828C221.885 24.9512 221.375 25.3936 220.736 25.71C220.104 26.0205 219.392 26.1758 218.601 26.1758ZM218.346 18.0283C217.76 18.0283 217.285 18.2334 216.922 18.6436C216.564 19.0537 216.336 19.625 216.236 20.3574H220.306V20.1992C220.259 19.4844 220.068 18.9453 219.734 18.582C219.4 18.2129 218.938 18.0283 218.346 18.0283Z" fill="white"/>
<path d="M69.2305 43.3257V38.0405H68.2637V36.9858H69.2305V36.4058C69.2305 35.7026 69.4258 35.1597 69.8164 34.7769C70.207 34.394 70.7539 34.2026 71.457 34.2026C71.707 34.2026 71.9727 34.2378 72.2539 34.3081L72.2188 35.4214C72.0625 35.3901 71.8809 35.3745 71.6738 35.3745C70.9941 35.3745 70.6543 35.7241 70.6543 36.4233V36.9858H71.9434V38.0405H70.6543V43.3257H69.2305ZM72.7168 40.0972C72.7168 39.4761 72.8398 38.9175 73.0859 38.4214C73.332 37.9214 73.6777 37.5386 74.123 37.2729C74.5684 37.0034 75.0801 36.8687 75.6582 36.8687C76.5137 36.8687 77.207 37.144 77.7383 37.6948C78.2734 38.2456 78.5625 38.9761 78.6055 39.8862L78.6113 40.2202C78.6113 40.8452 78.4902 41.4038 78.248 41.896C78.0098 42.3882 77.666 42.769 77.2168 43.0386C76.7715 43.3081 76.2559 43.4429 75.6699 43.4429C74.7754 43.4429 74.0586 43.146 73.5195 42.5522C72.9844 41.9546 72.7168 41.1597 72.7168 40.1675V40.0972ZM74.1406 40.2202C74.1406 40.8726 74.2754 41.3843 74.5449 41.7554C74.8145 42.1226 75.1895 42.3062 75.6699 42.3062C76.1504 42.3062 76.5234 42.1187 76.7891 41.7437C77.0586 41.3687 77.1934 40.8198 77.1934 40.0972C77.1934 39.4565 77.0547 38.9487 76.7773 38.5737C76.5039 38.1987 76.1309 38.0112 75.6582 38.0112C75.1934 38.0112 74.8242 38.1968 74.5508 38.5679C74.2773 38.9351 74.1406 39.4858 74.1406 40.2202ZM83.1348 38.2866C82.9473 38.2554 82.7539 38.2397 82.5547 38.2397C81.9023 38.2397 81.4629 38.4897 81.2363 38.9897V43.3257H79.8125V36.9858H81.1719L81.207 37.6948C81.5508 37.144 82.0273 36.8687 82.6367 36.8687C82.8398 36.8687 83.0078 36.896 83.1406 36.9507L83.1348 38.2866ZM86.7559 40.0972C86.7559 39.4761 86.8789 38.9175 87.125 38.4214C87.3711 37.9214 87.7168 37.5386 88.1621 37.2729C88.6074 37.0034 89.1191 36.8687 89.6973 36.8687C90.5527 36.8687 91.2461 37.144 91.7773 37.6948C92.3125 38.2456 92.6016 38.9761 92.6445 39.8862L92.6504 40.2202C92.6504 40.8452 92.5293 41.4038 92.2871 41.896C92.0488 42.3882 91.7051 42.769 91.2559 43.0386C90.8105 43.3081 90.2949 43.4429 89.709 43.4429C88.8145 43.4429 88.0977 43.146 87.5586 42.5522C87.0234 41.9546 86.7559 41.1597 86.7559 40.1675V40.0972ZM88.1797 40.2202C88.1797 40.8726 88.3145 41.3843 88.584 41.7554C88.8535 42.1226 89.2285 42.3062 89.709 42.3062C90.1895 42.3062 90.5625 42.1187 90.8281 41.7437C91.0977 41.3687 91.2324 40.8198 91.2324 40.0972C91.2324 39.4565 91.0938 38.9487 90.8164 38.5737C90.543 38.1987 90.1699 38.0112 89.6973 38.0112C89.2324 38.0112 88.8633 38.1968 88.5898 38.5679C88.3164 38.9351 88.1797 39.4858 88.1797 40.2202ZM99.4062 40.2202C99.4062 41.2007 99.1836 41.9839 98.7383 42.5698C98.293 43.1519 97.6953 43.4429 96.9453 43.4429C96.25 43.4429 95.6934 43.2144 95.2754 42.7573V45.7632H93.8516V36.9858H95.1641L95.2227 37.6304C95.6406 37.1226 96.209 36.8687 96.9277 36.8687C97.7012 36.8687 98.3066 37.1577 98.7441 37.7358C99.1855 38.3101 99.4062 39.1089 99.4062 40.1323V40.2202ZM97.9883 40.0972C97.9883 39.4644 97.8613 38.9624 97.6074 38.5913C97.3574 38.2202 96.998 38.0347 96.5293 38.0347C95.9473 38.0347 95.5293 38.2749 95.2754 38.7554V41.5679C95.5332 42.0601 95.9551 42.3062 96.541 42.3062C96.9941 42.3062 97.3477 42.1245 97.6016 41.7612C97.8594 41.394 97.9883 40.8394 97.9883 40.0972ZM102.4 35.4448V36.9858H103.52V38.0405H102.4V41.5796C102.4 41.8218 102.447 41.9976 102.541 42.1069C102.639 42.2124 102.811 42.2651 103.057 42.2651C103.221 42.2651 103.387 42.2456 103.555 42.2065V43.3081C103.23 43.3979 102.918 43.4429 102.617 43.4429C101.523 43.4429 100.977 42.8394 100.977 41.6323V38.0405H99.9336V36.9858H100.977V35.4448H102.4ZM106.127 43.3257H104.703V36.9858H106.127V43.3257ZM104.615 35.3394C104.615 35.1206 104.684 34.939 104.82 34.7944C104.961 34.6499 105.16 34.5776 105.418 34.5776C105.676 34.5776 105.875 34.6499 106.016 34.7944C106.156 34.939 106.227 35.1206 106.227 35.3394C106.227 35.5542 106.156 35.7339 106.016 35.8784C105.875 36.019 105.676 36.0894 105.418 36.0894C105.16 36.0894 104.961 36.019 104.82 35.8784C104.684 35.7339 104.615 35.5542 104.615 35.3394ZM107.416 40.0972C107.416 39.4761 107.539 38.9175 107.785 38.4214C108.031 37.9214 108.377 37.5386 108.822 37.2729C109.268 37.0034 109.779 36.8687 110.357 36.8687C111.213 36.8687 111.906 37.144 112.438 37.6948C112.973 38.2456 113.262 38.9761 113.305 39.8862L113.311 40.2202C113.311 40.8452 113.189 41.4038 112.947 41.896C112.709 42.3882 112.365 42.769 111.916 43.0386C111.471 43.3081 110.955 43.4429 110.369 43.4429C109.475 43.4429 108.758 43.146 108.219 42.5522C107.684 41.9546 107.416 41.1597 107.416 40.1675V40.0972ZM108.84 40.2202C108.84 40.8726 108.975 41.3843 109.244 41.7554C109.514 42.1226 109.889 42.3062 110.369 42.3062C110.85 42.3062 111.223 42.1187 111.488 41.7437C111.758 41.3687 111.893 40.8198 111.893 40.0972C111.893 39.4565 111.754 38.9487 111.477 38.5737C111.203 38.1987 110.83 38.0112 110.357 38.0112C109.893 38.0112 109.523 38.1968 109.25 38.5679C108.977 38.9351 108.84 39.4858 108.84 40.2202ZM115.836 36.9858L115.877 37.7183C116.346 37.1519 116.961 36.8687 117.723 36.8687C119.043 36.8687 119.715 37.6245 119.738 39.1362V43.3257H118.314V39.2183C118.314 38.8159 118.227 38.519 118.051 38.3276C117.879 38.1323 117.596 38.0347 117.201 38.0347C116.627 38.0347 116.199 38.2944 115.918 38.814V43.3257H114.494V36.9858H115.836ZM125.967 35.4448V36.9858H127.086V38.0405H125.967V41.5796C125.967 41.8218 126.014 41.9976 126.107 42.1069C126.205 42.2124 126.377 42.2651 126.623 42.2651C126.787 42.2651 126.953 42.2456 127.121 42.2065V43.3081C126.797 43.3979 126.484 43.4429 126.184 43.4429C125.09 43.4429 124.543 42.8394 124.543 41.6323V38.0405H123.5V36.9858H124.543V35.4448H125.967ZM127.736 40.0972C127.736 39.4761 127.859 38.9175 128.105 38.4214C128.352 37.9214 128.697 37.5386 129.143 37.2729C129.588 37.0034 130.1 36.8687 130.678 36.8687C131.533 36.8687 132.227 37.144 132.758 37.6948C133.293 38.2456 133.582 38.9761 133.625 39.8862L133.631 40.2202C133.631 40.8452 133.51 41.4038 133.268 41.896C133.029 42.3882 132.686 42.769 132.236 43.0386C131.791 43.3081 131.275 43.4429 130.689 43.4429C129.795 43.4429 129.078 43.146 128.539 42.5522C128.004 41.9546 127.736 41.1597 127.736 40.1675V40.0972ZM129.16 40.2202C129.16 40.8726 129.295 41.3843 129.564 41.7554C129.834 42.1226 130.209 42.3062 130.689 42.3062C131.17 42.3062 131.543 42.1187 131.809 41.7437C132.078 41.3687 132.213 40.8198 132.213 40.0972C132.213 39.4565 132.074 38.9487 131.797 38.5737C131.523 38.1987 131.15 38.0112 130.678 38.0112C130.213 38.0112 129.844 38.1968 129.57 38.5679C129.297 38.9351 129.16 39.4858 129.16 40.2202ZM139.338 43.3257H137.914V34.3257H139.338V43.3257ZM142.408 43.3257H140.984V36.9858H142.408V43.3257ZM140.896 35.3394C140.896 35.1206 140.965 34.939 141.102 34.7944C141.242 34.6499 141.441 34.5776 141.699 34.5776C141.957 34.5776 142.156 34.6499 142.297 34.7944C142.438 34.939 142.508 35.1206 142.508 35.3394C142.508 35.5542 142.438 35.7339 142.297 35.8784C142.156 36.019 141.957 36.0894 141.699 36.0894C141.441 36.0894 141.242 36.019 141.102 35.8784C140.965 35.7339 140.896 35.5542 140.896 35.3394ZM145.285 36.9858L145.326 37.7183C145.795 37.1519 146.41 36.8687 147.172 36.8687C148.492 36.8687 149.164 37.6245 149.188 39.1362V43.3257H147.764V39.2183C147.764 38.8159 147.676 38.519 147.5 38.3276C147.328 38.1323 147.045 38.0347 146.65 38.0347C146.076 38.0347 145.648 38.2944 145.367 38.814V43.3257H143.943V36.9858H145.285ZM152.703 40.6069L152.07 41.2573V43.3257H150.646V34.3257H152.07V39.5171L152.516 38.9604L154.268 36.9858H155.979L153.623 39.6284L156.23 43.3257H154.584L152.703 40.6069ZM166.578 42.2183C166.27 42.6206 165.842 42.9253 165.295 43.1323C164.748 43.3394 164.127 43.4429 163.432 43.4429C162.717 43.4429 162.084 43.2808 161.533 42.9565C160.982 42.6323 160.557 42.1694 160.256 41.5679C159.959 40.9624 159.805 40.2573 159.793 39.4526V38.7847C159.793 37.4956 160.102 36.4897 160.719 35.7671C161.336 35.0405 162.197 34.6772 163.303 34.6772C164.252 34.6772 165.006 34.9116 165.564 35.3804C166.123 35.8491 166.459 36.5249 166.572 37.4077H165.119C164.955 36.3804 164.359 35.8667 163.332 35.8667C162.668 35.8667 162.162 36.1069 161.814 36.5874C161.471 37.064 161.293 37.7651 161.281 38.6909V39.3472C161.281 40.269 161.475 40.9858 161.861 41.4976C162.252 42.0054 162.793 42.2593 163.484 42.2593C164.242 42.2593 164.781 42.0874 165.102 41.7437V40.0737H163.344V38.9487H166.578V42.2183ZM167.803 40.0972C167.803 39.4761 167.926 38.9175 168.172 38.4214C168.418 37.9214 168.764 37.5386 169.209 37.2729C169.654 37.0034 170.166 36.8687 170.744 36.8687C171.6 36.8687 172.293 37.144 172.824 37.6948C173.359 38.2456 173.648 38.9761 173.691 39.8862L173.697 40.2202C173.697 40.8452 173.576 41.4038 173.334 41.896C173.096 42.3882 172.752 42.769 172.303 43.0386C171.857 43.3081 171.342 43.4429 170.756 43.4429C169.861 43.4429 169.145 43.146 168.605 42.5522C168.07 41.9546 167.803 41.1597 167.803 40.1675V40.0972ZM169.227 40.2202C169.227 40.8726 169.361 41.3843 169.631 41.7554C169.9 42.1226 170.275 42.3062 170.756 42.3062C171.236 42.3062 171.609 42.1187 171.875 41.7437C172.145 41.3687 172.279 40.8198 172.279 40.0972C172.279 39.4565 172.141 38.9487 171.863 38.5737C171.59 38.1987 171.217 38.0112 170.744 38.0112C170.279 38.0112 169.91 38.1968 169.637 38.5679C169.363 38.9351 169.227 39.4858 169.227 40.2202ZM174.635 40.0972C174.635 39.4761 174.758 38.9175 175.004 38.4214C175.25 37.9214 175.596 37.5386 176.041 37.2729C176.486 37.0034 176.998 36.8687 177.576 36.8687C178.432 36.8687 179.125 37.144 179.656 37.6948C180.191 38.2456 180.48 38.9761 180.523 39.8862L180.529 40.2202C180.529 40.8452 180.408 41.4038 180.166 41.896C179.928 42.3882 179.584 42.769 179.135 43.0386C178.689 43.3081 178.174 43.4429 177.588 43.4429C176.693 43.4429 175.977 43.146 175.438 42.5522C174.902 41.9546 174.635 41.1597 174.635 40.1675V40.0972ZM176.059 40.2202C176.059 40.8726 176.193 41.3843 176.463 41.7554C176.732 42.1226 177.107 42.3062 177.588 42.3062C178.068 42.3062 178.441 42.1187 178.707 41.7437C178.977 41.3687 179.111 40.8198 179.111 40.0972C179.111 39.4565 178.973 38.9487 178.695 38.5737C178.422 38.1987 178.049 38.0112 177.576 38.0112C177.111 38.0112 176.742 38.1968 176.469 38.5679C176.195 38.9351 176.059 39.4858 176.059 40.2202ZM181.484 40.1089C181.484 39.1245 181.715 38.3394 182.176 37.7534C182.641 37.1636 183.256 36.8687 184.021 36.8687C184.744 36.8687 185.312 37.1206 185.727 37.6245L185.791 36.9858H187.074V43.1323C187.074 43.9644 186.814 44.6206 186.295 45.1011C185.779 45.5815 185.082 45.8218 184.203 45.8218C183.738 45.8218 183.283 45.7241 182.838 45.5288C182.396 45.3374 182.061 45.0854 181.83 44.7729L182.504 43.9175C182.941 44.437 183.48 44.6968 184.121 44.6968C184.594 44.6968 184.967 44.5679 185.24 44.3101C185.514 44.0562 185.65 43.6812 185.65 43.1851V42.7573C185.24 43.2144 184.693 43.4429 184.01 43.4429C183.268 43.4429 182.66 43.1479 182.188 42.5581C181.719 41.9683 181.484 41.1519 181.484 40.1089ZM182.902 40.2319C182.902 40.8687 183.031 41.3706 183.289 41.7378C183.551 42.1011 183.912 42.2827 184.373 42.2827C184.947 42.2827 185.373 42.0366 185.65 41.5444V38.7554C185.381 38.2749 184.959 38.0347 184.385 38.0347C183.916 38.0347 183.551 38.2202 183.289 38.5913C183.031 38.9624 182.902 39.5093 182.902 40.2319ZM190.057 43.3257H188.633V34.3257H190.057V43.3257ZM194.404 43.4429C193.502 43.4429 192.77 43.1597 192.207 42.5933C191.648 42.0229 191.369 41.2651 191.369 40.3198V40.144C191.369 39.5112 191.49 38.9468 191.732 38.4507C191.979 37.9507 192.322 37.562 192.764 37.2847C193.205 37.0073 193.697 36.8687 194.24 36.8687C195.104 36.8687 195.77 37.144 196.238 37.6948C196.711 38.2456 196.947 39.0249 196.947 40.0327V40.6069H192.805C192.848 41.1304 193.021 41.5444 193.326 41.8491C193.635 42.1538 194.021 42.3062 194.486 42.3062C195.139 42.3062 195.67 42.0425 196.08 41.5151L196.848 42.2476C196.594 42.6265 196.254 42.9214 195.828 43.1323C195.406 43.3394 194.932 43.4429 194.404 43.4429ZM194.234 38.0112C193.844 38.0112 193.527 38.1479 193.285 38.4214C193.047 38.6948 192.895 39.0757 192.828 39.564H195.541V39.4585C195.51 38.9819 195.383 38.6226 195.16 38.3804C194.938 38.1343 194.629 38.0112 194.234 38.0112ZM207.693 40.5483C207.607 41.4585 207.271 42.1694 206.686 42.6812C206.1 43.189 205.32 43.4429 204.348 43.4429C203.668 43.4429 203.068 43.2827 202.549 42.9624C202.033 42.6382 201.635 42.1792 201.354 41.5854C201.072 40.9917 200.926 40.3022 200.914 39.5171V38.7202C200.914 37.9155 201.057 37.2065 201.342 36.5933C201.627 35.98 202.035 35.5073 202.566 35.1753C203.102 34.8433 203.719 34.6772 204.418 34.6772C205.359 34.6772 206.117 34.9331 206.691 35.4448C207.266 35.9565 207.6 36.6792 207.693 37.6128H206.217C206.146 36.9995 205.967 36.5581 205.678 36.2886C205.393 36.0151 204.973 35.8784 204.418 35.8784C203.773 35.8784 203.277 36.1147 202.93 36.5874C202.586 37.0562 202.41 37.7456 202.402 38.6558V39.4116C202.402 40.3335 202.566 41.0366 202.895 41.521C203.227 42.0054 203.711 42.2476 204.348 42.2476C204.93 42.2476 205.367 42.1167 205.66 41.855C205.953 41.5933 206.139 41.1577 206.217 40.5483H207.693ZM210.4 43.3257H208.977V34.3257H210.4V43.3257ZM215.744 43.3257C215.682 43.2046 215.627 43.0073 215.58 42.7339C215.127 43.2065 214.572 43.4429 213.916 43.4429C213.279 43.4429 212.76 43.2612 212.357 42.8979C211.955 42.5347 211.754 42.0854 211.754 41.5503C211.754 40.8745 212.004 40.3569 212.504 39.9976C213.008 39.6343 213.727 39.4526 214.66 39.4526H215.533V39.0366C215.533 38.7085 215.441 38.4468 215.258 38.2515C215.074 38.0522 214.795 37.9526 214.42 37.9526C214.096 37.9526 213.83 38.0347 213.623 38.1987C213.416 38.3589 213.312 38.564 213.312 38.814H211.889C211.889 38.4663 212.004 38.1421 212.234 37.8413C212.465 37.5366 212.777 37.2983 213.172 37.1265C213.57 36.9546 214.014 36.8687 214.502 36.8687C215.244 36.8687 215.836 37.0562 216.277 37.4312C216.719 37.8022 216.945 38.3257 216.957 39.0015V41.8608C216.957 42.4312 217.037 42.8862 217.197 43.2261V43.3257H215.744ZM214.18 42.3003C214.461 42.3003 214.725 42.2319 214.971 42.0952C215.221 41.9585 215.408 41.7749 215.533 41.5444V40.3491H214.766C214.238 40.3491 213.842 40.4409 213.576 40.6245C213.311 40.8081 213.178 41.0679 213.178 41.4038C213.178 41.6772 213.268 41.896 213.447 42.0601C213.631 42.2202 213.875 42.3003 214.18 42.3003ZM222.002 41.603C222.002 41.3491 221.896 41.1558 221.686 41.0229C221.479 40.8901 221.133 40.7729 220.648 40.6714C220.164 40.5698 219.76 40.4409 219.436 40.2847C218.725 39.9409 218.369 39.4429 218.369 38.7905C218.369 38.2437 218.6 37.7866 219.061 37.4194C219.521 37.0522 220.107 36.8687 220.818 36.8687C221.576 36.8687 222.188 37.0562 222.652 37.4312C223.121 37.8062 223.355 38.2925 223.355 38.8901H221.932C221.932 38.6167 221.83 38.3901 221.627 38.2104C221.424 38.0269 221.154 37.9351 220.818 37.9351C220.506 37.9351 220.25 38.0073 220.051 38.1519C219.855 38.2964 219.758 38.4897 219.758 38.7319C219.758 38.9507 219.85 39.1206 220.033 39.2417C220.217 39.3628 220.588 39.4858 221.146 39.6108C221.705 39.7319 222.143 39.8784 222.459 40.0503C222.779 40.2183 223.016 40.4214 223.168 40.6597C223.324 40.8979 223.402 41.187 223.402 41.5269C223.402 42.0972 223.166 42.5601 222.693 42.9155C222.221 43.2671 221.602 43.4429 220.836 43.4429C220.316 43.4429 219.854 43.3491 219.447 43.1616C219.041 42.9741 218.725 42.7163 218.498 42.3882C218.271 42.0601 218.158 41.7065 218.158 41.3276H219.541C219.561 41.6636 219.688 41.9233 219.922 42.1069C220.156 42.2866 220.467 42.3765 220.854 42.3765C221.229 42.3765 221.514 42.3062 221.709 42.1655C221.904 42.021 222.002 41.8335 222.002 41.603ZM228.201 41.603C228.201 41.3491 228.096 41.1558 227.885 41.0229C227.678 40.8901 227.332 40.7729 226.848 40.6714C226.363 40.5698 225.959 40.4409 225.635 40.2847C224.924 39.9409 224.568 39.4429 224.568 38.7905C224.568 38.2437 224.799 37.7866 225.26 37.4194C225.721 37.0522 226.307 36.8687 227.018 36.8687C227.775 36.8687 228.387 37.0562 228.852 37.4312C229.32 37.8062 229.555 38.2925 229.555 38.8901H228.131C228.131 38.6167 228.029 38.3901 227.826 38.2104C227.623 38.0269 227.354 37.9351 227.018 37.9351C226.705 37.9351 226.449 38.0073 226.25 38.1519C226.055 38.2964 225.957 38.4897 225.957 38.7319C225.957 38.9507 226.049 39.1206 226.232 39.2417C226.416 39.3628 226.787 39.4858 227.346 39.6108C227.904 39.7319 228.342 39.8784 228.658 40.0503C228.979 40.2183 229.215 40.4214 229.367 40.6597C229.523 40.8979 229.602 41.187 229.602 41.5269C229.602 42.0972 229.365 42.5601 228.893 42.9155C228.42 43.2671 227.801 43.4429 227.035 43.4429C226.516 43.4429 226.053 43.3491 225.646 43.1616C225.24 42.9741 224.924 42.7163 224.697 42.3882C224.471 42.0601 224.357 41.7065 224.357 41.3276H225.74C225.76 41.6636 225.887 41.9233 226.121 42.1069C226.355 42.2866 226.666 42.3765 227.053 42.3765C227.428 42.3765 227.713 42.3062 227.908 42.1655C228.104 42.021 228.201 41.8335 228.201 41.603ZM234.166 38.2866C233.979 38.2554 233.785 38.2397 233.586 38.2397C232.934 38.2397 232.494 38.4897 232.268 38.9897V43.3257H230.844V36.9858H232.203L232.238 37.6948C232.582 37.144 233.059 36.8687 233.668 36.8687C233.871 36.8687 234.039 36.896 234.172 36.9507L234.166 38.2866ZM234.588 40.0972C234.588 39.4761 234.711 38.9175 234.957 38.4214C235.203 37.9214 235.549 37.5386 235.994 37.2729C236.439 37.0034 236.951 36.8687 237.529 36.8687C238.385 36.8687 239.078 37.144 239.609 37.6948C240.145 38.2456 240.434 38.9761 240.477 39.8862L240.482 40.2202C240.482 40.8452 240.361 41.4038 240.119 41.896C239.881 42.3882 239.537 42.769 239.088 43.0386C238.643 43.3081 238.127 43.4429 237.541 43.4429C236.646 43.4429 235.93 43.146 235.391 42.5522C234.855 41.9546 234.588 41.1597 234.588 40.1675V40.0972ZM236.012 40.2202C236.012 40.8726 236.146 41.3843 236.416 41.7554C236.686 42.1226 237.061 42.3062 237.541 42.3062C238.021 42.3062 238.395 42.1187 238.66 41.7437C238.93 41.3687 239.064 40.8198 239.064 40.0972C239.064 39.4565 238.926 38.9487 238.648 38.5737C238.375 38.1987 238.002 38.0112 237.529 38.0112C237.064 38.0112 236.695 38.1968 236.422 38.5679C236.148 38.9351 236.012 39.4858 236.012 40.2202ZM241.42 40.0972C241.42 39.4761 241.543 38.9175 241.789 38.4214C242.035 37.9214 242.381 37.5386 242.826 37.2729C243.271 37.0034 243.783 36.8687 244.361 36.8687C245.217 36.8687 245.91 37.144 246.441 37.6948C246.977 38.2456 247.266 38.9761 247.309 39.8862L247.314 40.2202C247.314 40.8452 247.193 41.4038 246.951 41.896C246.713 42.3882 246.369 42.769 245.92 43.0386C245.475 43.3081 244.959 43.4429 244.373 43.4429C243.479 43.4429 242.762 43.146 242.223 42.5522C241.688 41.9546 241.42 41.1597 241.42 40.1675V40.0972ZM242.844 40.2202C242.844 40.8726 242.979 41.3843 243.248 41.7554C243.518 42.1226 243.893 42.3062 244.373 42.3062C244.854 42.3062 245.227 42.1187 245.492 41.7437C245.762 41.3687 245.896 40.8198 245.896 40.0972C245.896 39.4565 245.758 38.9487 245.48 38.5737C245.207 38.1987 244.834 38.0112 244.361 38.0112C243.896 38.0112 243.527 38.1968 243.254 38.5679C242.98 38.9351 242.844 39.4858 242.844 40.2202ZM249.857 36.9858L249.898 37.6479C250.344 37.1284 250.953 36.8687 251.727 36.8687C252.574 36.8687 253.154 37.1929 253.467 37.8413C253.928 37.1929 254.576 36.8687 255.412 36.8687C256.111 36.8687 256.631 37.062 256.971 37.4487C257.314 37.8354 257.49 38.4058 257.498 39.1597V43.3257H256.074V39.2007C256.074 38.7983 255.986 38.5034 255.811 38.3159C255.635 38.1284 255.344 38.0347 254.938 38.0347C254.613 38.0347 254.348 38.1226 254.141 38.2983C253.938 38.4702 253.795 38.6968 253.713 38.978L253.719 43.3257H252.295V39.1538C252.275 38.4077 251.895 38.0347 251.152 38.0347C250.582 38.0347 250.178 38.2671 249.939 38.7319V43.3257H248.516V36.9858H249.857Z" fill="white"/>
<path d="M53.0963 1.79077H3.16125C2.39519 1.79077 1.77417 2.41549 1.77417 3.18612V53.4187C1.77417 54.1893 2.39519 54.814 3.16125 54.814H53.0963C53.8623 54.814 54.4833 54.1893 54.4833 53.4187V3.18612C54.4833 2.41549 53.8623 1.79077 53.0963 1.79077Z" fill="white"/>
<path fill-rule="evenodd" clip-rule="evenodd" d="M40.1132 28.5878C40.1132 27.6973 40.0337 26.841 39.8862 26.019H28.1288V30.8768H34.8473C34.5579 32.4465 33.6784 33.7765 32.3562 34.667V37.818H36.3908C38.7513 35.6317 40.1132 32.4123 40.1132 28.5878Z" fill="#4285F4"/>
<path fill-rule="evenodd" clip-rule="evenodd" d="M28.1288 40.8603C31.4994 40.8603 34.3253 39.7358 36.3907 37.8178L32.3562 34.6669C31.2384 35.4204 29.8084 35.8656 28.1288 35.8656C24.8773 35.8656 22.1252 33.6565 21.1435 30.6882H16.9728V33.9419C19.027 38.0462 23.2488 40.8603 28.1288 40.8603Z" fill="#34A853"/>
<path fill-rule="evenodd" clip-rule="evenodd" d="M21.1435 30.6884C20.8939 29.9349 20.752 29.13 20.752 28.3023C20.752 27.4746 20.8939 26.6698 21.1435 25.9163V22.6626H16.9728C16.1273 24.3579 15.645 26.2759 15.645 28.3023C15.645 30.3288 16.1273 32.2467 16.9728 33.9421L21.1435 30.6884Z" fill="#FBBC05"/>
<path fill-rule="evenodd" clip-rule="evenodd" d="M28.1288 20.7389C29.9616 20.7389 31.6072 21.3725 32.901 22.6169L36.4815 19.015C34.3196 16.9885 31.4937 15.7441 28.1288 15.7441C23.2488 15.7441 19.027 18.5583 16.9728 22.6625L21.1435 25.9162C22.1252 22.9479 24.8773 20.7389 28.1288 20.7389Z" fill="#EA4335"/>
</svg>
