<svg width="245" height="56" viewBox="0 0 245 56" fill="none" xmlns="http://www.w3.org/2000/svg">
<path d="M242.351 0H2.64865C1.18584 0 0 1.2536 0 2.8V53.2C0 54.7464 1.18584 56 2.64865 56H242.351C243.814 56 245 54.7464 245 53.2V2.8C245 1.2536 243.814 0 242.351 0Z" fill="#4285F4"/>
<path d="M75.9893 30.7041C75.9893 30.1416 75.79 29.708 75.3916 29.4033C74.999 29.0986 74.2871 28.791 73.2559 28.4805C72.2246 28.1699 71.4043 27.8242 70.7949 27.4434C69.6289 26.7109 69.0459 25.7559 69.0459 24.5781C69.0459 23.5469 69.4648 22.6973 70.3027 22.0293C71.1465 21.3613 72.2393 21.0273 73.5811 21.0273C74.4717 21.0273 75.2656 21.1914 75.9629 21.5195C76.6602 21.8477 77.208 22.3164 77.6064 22.9258C78.0049 23.5293 78.2041 24.2002 78.2041 24.9385H75.9893C75.9893 24.2705 75.7783 23.749 75.3564 23.374C74.9404 22.9932 74.3428 22.8027 73.5635 22.8027C72.8369 22.8027 72.2715 22.958 71.8672 23.2686C71.4688 23.5791 71.2695 24.0127 71.2695 24.5693C71.2695 25.0381 71.4863 25.4307 71.9199 25.7471C72.3535 26.0576 73.0684 26.3623 74.0645 26.6611C75.0605 26.9541 75.8604 27.291 76.4639 27.6719C77.0674 28.0469 77.5098 28.4805 77.791 28.9727C78.0723 29.459 78.2129 30.0303 78.2129 30.6865C78.2129 31.7529 77.8027 32.6025 76.9824 33.2354C76.168 33.8623 75.0605 34.1758 73.6602 34.1758C72.7344 34.1758 71.8818 34.0059 71.1025 33.666C70.3291 33.3203 69.7256 32.8457 69.292 32.2422C68.8643 31.6387 68.6504 30.9355 68.6504 30.1328H70.874C70.874 30.8594 71.1143 31.4219 71.5947 31.8203C72.0752 32.2188 72.7637 32.418 73.6602 32.418C74.4336 32.418 75.0137 32.2627 75.4004 31.9521C75.793 31.6357 75.9893 31.2197 75.9893 30.7041ZM82.2295 34H80.0938V24.4902H82.2295V34ZM79.9619 22.0205C79.9619 21.6924 80.0645 21.4199 80.2695 21.2031C80.4805 20.9863 80.7793 20.8779 81.166 20.8779C81.5527 20.8779 81.8516 20.9863 82.0625 21.2031C82.2734 21.4199 82.3789 21.6924 82.3789 22.0205C82.3789 22.3428 82.2734 22.6123 82.0625 22.8291C81.8516 23.04 81.5527 23.1455 81.166 23.1455C80.7793 23.1455 80.4805 23.04 80.2695 22.8291C80.0645 22.6123 79.9619 22.3428 79.9619 22.0205ZM84.1895 29.1748C84.1895 27.6982 84.5352 26.5205 85.2266 25.6416C85.9238 24.7568 86.8467 24.3145 87.9951 24.3145C89.0791 24.3145 89.9316 24.6924 90.5527 25.4482L90.6494 24.4902H92.5742V33.71C92.5742 34.958 92.1846 35.9424 91.4053 36.6631C90.6318 37.3838 89.5859 37.7441 88.2676 37.7441C87.5703 37.7441 86.8877 37.5977 86.2197 37.3047C85.5576 37.0176 85.0537 36.6396 84.708 36.1709L85.7188 34.8877C86.375 35.667 87.1836 36.0566 88.1445 36.0566C88.8535 36.0566 89.4131 35.8633 89.8232 35.4766C90.2334 35.0957 90.4385 34.5332 90.4385 33.7891V33.1475C89.8232 33.833 89.0029 34.1758 87.9775 34.1758C86.8643 34.1758 85.9531 33.7334 85.2441 32.8486C84.541 31.9639 84.1895 30.7393 84.1895 29.1748ZM86.3164 29.3594C86.3164 30.3145 86.5098 31.0674 86.8965 31.6182C87.2891 32.1631 87.8311 32.4355 88.5225 32.4355C89.3838 32.4355 90.0225 32.0664 90.4385 31.3281V27.1445C90.0342 26.4238 89.4014 26.0635 88.54 26.0635C87.8369 26.0635 87.2891 26.3418 86.8965 26.8984C86.5098 27.4551 86.3164 28.2754 86.3164 29.3594ZM96.7578 24.4902L96.8193 25.5889C97.5225 24.7393 98.4453 24.3145 99.5879 24.3145C101.568 24.3145 102.576 25.4482 102.611 27.7158V34H100.476V27.8389C100.476 27.2354 100.344 26.79 100.08 26.5029C99.8223 26.21 99.3975 26.0635 98.8057 26.0635C97.9443 26.0635 97.3027 26.4531 96.8809 27.2324V34H94.7451V24.4902H96.7578ZM111.55 34H109.414V24.4902H111.55V34ZM109.282 22.0205C109.282 21.6924 109.385 21.4199 109.59 21.2031C109.801 20.9863 110.1 20.8779 110.486 20.8779C110.873 20.8779 111.172 20.9863 111.383 21.2031C111.594 21.4199 111.699 21.6924 111.699 22.0205C111.699 22.3428 111.594 22.6123 111.383 22.8291C111.172 23.04 110.873 23.1455 110.486 23.1455C110.1 23.1455 109.801 23.04 109.59 22.8291C109.385 22.6123 109.282 22.3428 109.282 22.0205ZM115.865 24.4902L115.927 25.5889C116.63 24.7393 117.553 24.3145 118.695 24.3145C120.676 24.3145 121.684 25.4482 121.719 27.7158V34H119.583V27.8389C119.583 27.2354 119.451 26.79 119.188 26.5029C118.93 26.21 118.505 26.0635 117.913 26.0635C117.052 26.0635 116.41 26.4531 115.988 27.2324V34H113.853V24.4902H115.865ZM136.739 31.0557L138.251 24.4902H140.334L137.741 34H135.983L133.944 27.4697L131.94 34H130.183L127.581 24.4902H129.664L131.202 30.9854L133.153 24.4902H134.762L136.739 31.0557ZM144.034 34H141.898V24.4902H144.034V34ZM141.767 22.0205C141.767 21.6924 141.869 21.4199 142.074 21.2031C142.285 20.9863 142.584 20.8779 142.971 20.8779C143.357 20.8779 143.656 20.9863 143.867 21.2031C144.078 21.4199 144.184 21.6924 144.184 22.0205C144.184 22.3428 144.078 22.6123 143.867 22.8291C143.656 23.04 143.357 23.1455 142.971 23.1455C142.584 23.1455 142.285 23.04 142.074 22.8291C141.869 22.6123 141.767 22.3428 141.767 22.0205ZM149.044 22.1787V24.4902H150.723V26.0723H149.044V31.3809C149.044 31.7441 149.114 32.0078 149.255 32.1719C149.401 32.3301 149.659 32.4092 150.028 32.4092C150.274 32.4092 150.523 32.3799 150.775 32.3213V33.9736C150.289 34.1084 149.82 34.1758 149.369 34.1758C147.729 34.1758 146.908 33.2705 146.908 31.46V26.0723H145.344V24.4902H146.908V22.1787H149.044ZM154.467 25.5273C155.164 24.7188 156.046 24.3145 157.112 24.3145C159.14 24.3145 160.168 25.4717 160.197 27.7861V34H158.062V27.8652C158.062 27.209 157.918 26.7461 157.631 26.4766C157.35 26.2012 156.934 26.0635 156.383 26.0635C155.527 26.0635 154.889 26.4443 154.467 27.2061V34H152.331V20.5H154.467V25.5273ZM176.861 32.3389C176.398 32.9424 175.757 33.3994 174.937 33.71C174.116 34.0205 173.185 34.1758 172.142 34.1758C171.069 34.1758 170.12 33.9326 169.294 33.4463C168.468 32.96 167.829 32.2656 167.378 31.3633C166.933 30.4551 166.701 29.3975 166.684 28.1904V27.1885C166.684 25.2549 167.146 23.7461 168.072 22.6621C168.998 21.5723 170.29 21.0273 171.948 21.0273C173.372 21.0273 174.503 21.3789 175.341 22.082C176.179 22.7852 176.683 23.7988 176.853 25.123H174.673C174.427 23.582 173.533 22.8115 171.992 22.8115C170.996 22.8115 170.237 23.1719 169.716 23.8926C169.2 24.6074 168.934 25.6592 168.916 27.0479V28.0322C168.916 29.415 169.206 30.4902 169.786 31.2578C170.372 32.0195 171.184 32.4004 172.221 32.4004C173.357 32.4004 174.166 32.1426 174.646 31.627V29.1221H172.01V27.4346H176.861V32.3389ZM178.698 29.1572C178.698 28.2256 178.883 27.3877 179.252 26.6436C179.621 25.8936 180.14 25.3193 180.808 24.9209C181.476 24.5166 182.243 24.3145 183.11 24.3145C184.394 24.3145 185.434 24.7275 186.23 25.5537C187.033 26.3799 187.467 27.4756 187.531 28.8408L187.54 29.3418C187.54 30.2793 187.358 31.1172 186.995 31.8555C186.638 32.5938 186.122 33.165 185.448 33.5693C184.78 33.9736 184.007 34.1758 183.128 34.1758C181.786 34.1758 180.711 33.7305 179.902 32.8398C179.1 31.9434 178.698 30.751 178.698 29.2627V29.1572ZM180.834 29.3418C180.834 30.3203 181.036 31.0879 181.44 31.6445C181.845 32.1953 182.407 32.4707 183.128 32.4707C183.849 32.4707 184.408 32.1895 184.807 31.627C185.211 31.0645 185.413 30.2412 185.413 29.1572C185.413 28.1963 185.205 27.4346 184.789 26.8721C184.379 26.3096 183.819 26.0283 183.11 26.0283C182.413 26.0283 181.859 26.3066 181.449 26.8633C181.039 27.4141 180.834 28.2402 180.834 29.3418ZM188.946 29.1572C188.946 28.2256 189.131 27.3877 189.5 26.6436C189.869 25.8936 190.388 25.3193 191.056 24.9209C191.724 24.5166 192.491 24.3145 193.358 24.3145C194.642 24.3145 195.682 24.7275 196.479 25.5537C197.281 26.3799 197.715 27.4756 197.779 28.8408L197.788 29.3418C197.788 30.2793 197.606 31.1172 197.243 31.8555C196.886 32.5938 196.37 33.165 195.696 33.5693C195.028 33.9736 194.255 34.1758 193.376 34.1758C192.034 34.1758 190.959 33.7305 190.15 32.8398C189.348 31.9434 188.946 30.751 188.946 29.2627V29.1572ZM191.082 29.3418C191.082 30.3203 191.284 31.0879 191.688 31.6445C192.093 32.1953 192.655 32.4707 193.376 32.4707C194.097 32.4707 194.656 32.1895 195.055 31.627C195.459 31.0645 195.661 30.2412 195.661 29.1572C195.661 28.1963 195.453 27.4346 195.037 26.8721C194.627 26.3096 194.067 26.0283 193.358 26.0283C192.661 26.0283 192.107 26.3066 191.697 26.8633C191.287 27.4141 191.082 28.2402 191.082 29.3418ZM199.221 29.1748C199.221 27.6982 199.566 26.5205 200.258 25.6416C200.955 24.7568 201.878 24.3145 203.026 24.3145C204.11 24.3145 204.963 24.6924 205.584 25.4482L205.681 24.4902H207.605V33.71C207.605 34.958 207.216 35.9424 206.437 36.6631C205.663 37.3838 204.617 37.7441 203.299 37.7441C202.602 37.7441 201.919 37.5977 201.251 37.3047C200.589 37.0176 200.085 36.6396 199.739 36.1709L200.75 34.8877C201.406 35.667 202.215 36.0566 203.176 36.0566C203.885 36.0566 204.444 35.8633 204.854 35.4766C205.265 35.0957 205.47 34.5332 205.47 33.7891V33.1475C204.854 33.833 204.034 34.1758 203.009 34.1758C201.896 34.1758 200.984 33.7334 200.275 32.8486C199.572 31.9639 199.221 30.7393 199.221 29.1748ZM201.348 29.3594C201.348 30.3145 201.541 31.0674 201.928 31.6182C202.32 32.1631 202.862 32.4355 203.554 32.4355C204.415 32.4355 205.054 32.0664 205.47 31.3281V27.1445C205.065 26.4238 204.433 26.0635 203.571 26.0635C202.868 26.0635 202.32 26.3418 201.928 26.8984C201.541 27.4551 201.348 28.2754 201.348 29.3594ZM212.079 34H209.943V20.5H212.079V34ZM218.601 34.1758C217.247 34.1758 216.148 33.751 215.305 32.9014C214.467 32.0459 214.048 30.9092 214.048 29.4912V29.2275C214.048 28.2783 214.229 27.4316 214.593 26.6875C214.962 25.9375 215.478 25.3545 216.14 24.9385C216.802 24.5225 217.54 24.3145 218.354 24.3145C219.649 24.3145 220.648 24.7275 221.352 25.5537C222.061 26.3799 222.415 27.5488 222.415 29.0605V29.9219H216.201C216.266 30.707 216.526 31.3281 216.983 31.7852C217.446 32.2422 218.026 32.4707 218.724 32.4707C219.702 32.4707 220.499 32.0752 221.114 31.2842L222.266 32.3828C221.885 32.9512 221.375 33.3936 220.736 33.71C220.104 34.0205 219.392 34.1758 218.601 34.1758ZM218.346 26.0283C217.76 26.0283 217.285 26.2334 216.922 26.6436C216.564 27.0537 216.336 27.625 216.236 28.3574H220.306V28.1992C220.259 27.4844 220.068 26.9453 219.734 26.582C219.4 26.2129 218.938 26.0283 218.346 26.0283Z" fill="white"/>
<path d="M53.0963 1.79077H3.16125C2.39519 1.79077 1.77417 2.41549 1.77417 3.18612V53.4187C1.77417 54.1893 2.39519 54.814 3.16125 54.814H53.0963C53.8623 54.814 54.4833 54.1893 54.4833 53.4187V3.18612C54.4833 2.41549 53.8623 1.79077 53.0963 1.79077Z" fill="white"/>
<path fill-rule="evenodd" clip-rule="evenodd" d="M40.1132 28.5878C40.1132 27.6973 40.0337 26.841 39.8862 26.019H28.1288V30.8768H34.8473C34.5579 32.4465 33.6784 33.7765 32.3562 34.667V37.818H36.3907C38.7513 35.6317 40.1132 32.4123 40.1132 28.5878Z" fill="#4285F4"/>
<path fill-rule="evenodd" clip-rule="evenodd" d="M28.1288 40.8603C31.4994 40.8603 34.3252 39.7358 36.3907 37.8178L32.3562 34.6669C31.2383 35.4204 29.8084 35.8656 28.1288 35.8656C24.8773 35.8656 22.1252 33.6565 21.1435 30.6882H16.9728V33.9419C19.027 38.0462 23.2487 40.8603 28.1288 40.8603Z" fill="#34A853"/>
<path fill-rule="evenodd" clip-rule="evenodd" d="M21.1435 30.6884C20.8939 29.9349 20.752 29.13 20.752 28.3023C20.752 27.4746 20.8939 26.6698 21.1435 25.9163V22.6626H16.9728C16.1273 24.3579 15.645 26.2759 15.645 28.3023C15.645 30.3288 16.1273 32.2467 16.9728 33.9421L21.1435 30.6884Z" fill="#FBBC05"/>
<path fill-rule="evenodd" clip-rule="evenodd" d="M28.1288 20.7389C29.9616 20.7389 31.6072 21.3725 32.901 22.6169L36.4815 19.015C34.3196 16.9885 31.4937 15.7441 28.1288 15.7441C23.2487 15.7441 19.027 18.5583 16.9728 22.6625L21.1435 25.9162C22.1252 22.9479 24.8773 20.7389 28.1288 20.7389Z" fill="#EA4335"/>
</svg>
