<svg width="394" height="418" viewBox="0 0 394 418" fill="none" xmlns="http://www.w3.org/2000/svg">
    <g filter="url(#70e7p85t6a)">
        <mask id="a8rx1wsafb" fill="#fff">
            <path fill-rule="evenodd" clip-rule="evenodd" d="M197.659 408.252c-.377.33-.941.33-1.318 0L10.305 245.364c-.694-.608-.264-1.753.66-1.753h103.874a1 1 0 0 0 1-1V10a1 1 0 0 1 1-1h158.773a1 1 0 0 1 1 1v232.611a1 1 0 0 0 1 1h105.424c.923 0 1.353 1.145.659 1.753L197.659 408.252z"/>
        </mask>
        <path fill-rule="evenodd" clip-rule="evenodd" d="M197.659 408.252c-.377.33-.941.33-1.318 0L10.305 245.364c-.694-.608-.264-1.753.66-1.753h103.874a1 1 0 0 0 1-1V10a1 1 0 0 1 1-1h158.773a1 1 0 0 1 1 1v232.611a1 1 0 0 0 1 1h105.424c.923 0 1.353 1.145.659 1.753L197.659 408.252z" fill="#00999E" fill-opacity=".05"/>
        <path d="m383.695 245.364.659.752-.659-.752zm-107.083-2.753h-1 1zm0-232.611h1-1zm-160.773 0h-1 1zm0 232.611h1-1zm80.502 165.641-.658.752.658-.752zm1.318 0 .659.752-.659-.752zM10.305 245.364l.66-.753-.66.753zm-.658.752 186.036 162.888L197 407.5 10.964 244.611l-1.317 1.505zm105.192-3.505H10.964v2H114.84v-2zm2 0V10h-2v232.611h2zm0-232.611h158.773V8H116.839v2zm158.773 0v232.611h2V10h-2zm107.424 232.611H277.612v2h105.424v-2zM198.318 409.004l186.036-162.888-1.318-1.505L197 407.5l1.318 1.504zm184.718-164.393 1.318 1.505c1.389-1.216.528-3.505-1.318-3.505v2zm-107.424-2a2 2 0 0 0 2 2v-2h-2zm0-232.611h2a2 2 0 0 0-2-2v2zm-158.773 0V8a2 2 0 0 0-2 2h2zm-2 234.611a2 2 0 0 0 2-2h-2v2zm80.844 164.393c.754.661 1.88.661 2.635 0L197 407.5l-1.317 1.504zM10.964 244.611v-2c-1.846 0-2.707 2.289-1.317 3.505l1.317-1.505z" fill="#00999E" mask="url(#a8rx1wsafb)"/>
    </g>
    <mask id="fbgghx2jwc" fill="#fff">
        <path fill-rule="evenodd" clip-rule="evenodd" d="M197.33 408.54a.5.5 0 0 1-.659 0L9.305 244.488a.5.5 0 0 1 .33-.877h105.704c.277 0 .5-.223.5-.5V9.5a.5.5 0 0 1 .5-.5h159.773a.5.5 0 0 1 .5.5v233.611a.5.5 0 0 0 .5.5h107.254a.5.5 0 0 1 .33.877L197.33 408.54z"/>
    </mask>
    <path fill-rule="evenodd" clip-rule="evenodd" d="M197.33 408.54a.5.5 0 0 1-.659 0L9.305 244.488a.5.5 0 0 1 .33-.877h105.704c.277 0 .5-.223.5-.5V9.5a.5.5 0 0 1 .5-.5h159.773a.5.5 0 0 1 .5.5v233.611a.5.5 0 0 0 .5.5h107.254a.5.5 0 0 1 .33.877L197.33 408.54z" fill="#00999E" fill-opacity=".05"/>
    <path d="m384.696 244.488-.659-.753.659.753zm-108.084-1.377h-1 1zm0-233.611h1-1zm-160.773 0h-1 1zm0 233.611h1-1zm80.832 165.429.659-.752-.659.752zm.659 0 .658.753-.658-.753zM9.305 244.488l.658-.753-.658.753zm-.659.752 187.366 164.053 1.318-1.505L9.963 243.735l-1.317 1.505zm106.693-2.629H9.634v2H115.34v-2zm1.5.5V9.5h-2v233.611h2zM116.339 10h159.773V8H116.339v2zm159.273-.5v233.611h2V9.5h-2zm108.754 233.111H277.112v2h107.254v-2zM197.988 409.293 385.354 245.24l-1.317-1.505-187.366 164.053 1.317 1.505zm186.378-164.682a.5.5 0 0 1-.329-.876l1.317 1.505c1.042-.912.397-2.629-.988-2.629v2zm-108.754-1.5a1.5 1.5 0 0 0 1.5 1.5v-2a.5.5 0 0 1 .5.5h-2zm.5-233.111a.5.5 0 0 1-.5-.5h2a1.5 1.5 0 0 0-1.5-1.5v2zm-159.273-.5a.5.5 0 0 1-.5.5V8a1.5 1.5 0 0 0-1.5 1.5h2zm-1.5 235.111a1.5 1.5 0 0 0 1.5-1.5h-2a.5.5 0 0 1 .5-.5v2zm80.673 164.682a1.5 1.5 0 0 0 1.976 0l-1.317-1.505a.5.5 0 0 1 .659 0l-1.318 1.505zM9.963 243.735a.5.5 0 0 1-.329.876v-2c-1.385 0-2.03 1.717-.988 2.629l1.317-1.505z" fill="#00999E" mask="url(#fbgghx2jwc)"/>
    <defs>
        <filter id="70e7p85t6a" x=".962" y="0" width="392.076" height="417.5" filterUnits="userSpaceOnUse" color-interpolation-filters="sRGB">
            <feFlood flood-opacity="0" result="BackgroundImageFix"/>
            <feBlend in="SourceGraphic" in2="BackgroundImageFix" result="shape"/>
            <feGaussianBlur stdDeviation="4.5" result="effect1_foregroundBlur_495_2635"/>
        </filter>
    </defs>
</svg>
