<svg width="87" height="43" viewBox="0 0 87 43" fill="none" xmlns="http://www.w3.org/2000/svg">
<g clip-path="url(#clip0_509_2402)" filter="url(#filter0_d_509_2402)">
<path d="M30.2833 18.9046C29.7302 19.1332 29.2503 19.3568 28.7538 19.5285C28.2574 19.7003 27.7492 19.8151 27.2137 19.9638C27.2742 20.1425 27.3278 20.3102 27.3883 20.4749C27.4985 20.7814 27.6156 21.0849 27.7228 21.3924C27.7712 21.5306 27.8091 21.6724 27.836 21.8166C27.8706 21.9691 27.8624 22.1286 27.8121 22.2764C27.7619 22.4243 27.6718 22.5546 27.5522 22.6522C27.4556 22.7378 27.3533 22.8161 27.2459 22.8868C26.2374 23.5147 25.1978 24.0888 24.1314 24.6069C23.3931 24.9763 22.761 24.8604 22.1397 24.3403C21.7435 24.0097 21.4 23.618 21.1214 23.1793C20.7897 22.6592 20.6873 22.0972 20.9263 21.5012C20.9913 21.3355 21.0606 21.1707 21.1341 21.007C21.4608 20.2623 21.7876 19.5176 22.126 18.7489C22.0422 18.696 21.9671 18.649 21.889 18.6011C21.4277 18.3426 20.9575 18.102 20.5079 17.8225C20.3048 17.6928 20.1242 17.5295 19.9733 17.3393C19.6807 16.9779 19.7939 16.5556 20.2221 16.3939C20.8268 16.1749 21.4738 16.1064 22.1095 16.1942C22.7159 16.2572 23.2937 16.49 23.7793 16.8671C24.2358 17.2235 24.7069 17.5599 25.1654 17.9143C25.3108 18.0414 25.491 18.1195 25.6813 18.1379C26.0315 18.1629 26.3778 18.2328 26.727 18.2547C27.9872 18.3336 29.1362 18.0491 30.0735 17.1256C30.4637 16.7413 30.8461 16.345 31.2362 15.9596C31.3904 15.7947 31.5588 15.6443 31.7395 15.5104C32.0789 15.2788 32.4174 15.3457 32.6613 15.6851C32.7567 15.8157 32.8251 15.9648 32.8622 16.1234C32.9265 16.376 32.9592 16.636 32.9597 16.897C32.9334 17.5958 32.8758 18.2946 32.83 18.9994C32.8046 19.3738 32.7773 19.7482 32.7539 20.1235C32.7539 20.1495 32.7773 20.1774 32.791 20.2074C32.8934 20.2293 32.9246 20.1385 32.9646 20.0786C33.5606 19.1921 34.3487 18.5013 35.1505 17.8264C35.3494 17.6489 35.5839 17.518 35.8375 17.443C36.0911 17.368 36.3576 17.3507 36.6184 17.3922C37.3675 17.501 38.0913 17.6707 38.7643 18.0371C39.0452 18.1932 39.3019 18.391 39.5261 18.6241C39.6958 18.7958 39.7436 18.9735 39.6441 19.1971C39.5046 19.5086 39.369 19.822 39.2335 20.1355C39.2042 20.2044 39.1808 20.2763 39.1359 20.3861C39.2114 20.3842 39.2865 20.3749 39.3603 20.3581C40.0986 20.0957 40.8182 19.7812 41.5139 19.4167C41.8777 19.2171 42.2211 18.9755 42.5713 18.7489C42.7663 18.6211 42.8258 18.4404 42.7878 18.2018C42.6824 17.5409 42.5927 16.8791 42.4952 16.2162C42.3143 14.9056 42.2166 13.5844 42.2026 12.2609C42.192 11.8842 42.2918 11.5129 42.4893 11.1948C43.0486 10.3153 43.7986 9.57974 44.681 9.04543C44.8233 8.9525 44.9875 8.90082 45.1562 8.8959C45.3249 8.89097 45.4917 8.93299 45.6389 9.01747C46.2085 9.31554 46.721 9.71628 47.1517 10.2005C47.2882 10.3404 47.3803 10.5192 47.416 10.7136C47.4708 10.9849 47.507 11.2597 47.5243 11.5362C47.563 12.6466 47.5305 13.7584 47.4268 14.8645C47.3975 15.14 47.3565 15.4146 47.3087 15.6881C47.2296 16.1422 47.0193 16.5615 46.705 16.892C46.3636 17.2574 46.0076 17.6088 45.6584 17.9672L44.9688 18.676C45.0429 19.0274 45.0019 19.3918 45.1385 19.7741C45.2043 19.7299 45.2666 19.6805 45.3248 19.6264C45.5628 19.3628 45.7852 19.0823 46.0359 18.8277C46.2478 18.6069 46.4815 18.4092 46.7333 18.2377C46.9257 18.1016 47.1525 18.0253 47.3864 18.0183C47.6202 18.0112 47.851 18.0735 48.051 18.1978C48.4509 18.4334 48.843 18.687 49.2215 18.9575C49.8623 19.4157 50.4895 19.8969 51.1245 20.3611C51.3445 20.5226 51.5724 20.6725 51.8072 20.8104C51.9314 20.8835 52.066 20.9361 52.2062 20.9661C52.6588 21.0659 53.0509 20.9721 53.3659 20.5857C53.8965 19.9339 54.4457 19.2969 54.987 18.653C55.0305 18.605 55.0703 18.5536 55.106 18.4993C55.3138 18.1549 55.6366 18.062 56.0063 18.0421C56.1337 18.0311 56.262 18.0469 56.3833 18.0884C56.5045 18.1299 56.6162 18.1964 56.7115 18.2837C56.9505 18.4993 57.1895 18.7169 57.4216 18.9405C58.3174 19.8038 59.3179 20.5457 60.3985 21.1478C60.5647 21.2445 60.7394 21.3251 60.9203 21.3884C61.0567 21.4327 61.2 21.45 61.3427 21.4393C61.647 21.4153 61.7504 21.2925 61.7884 20.9741C61.8756 20.2287 61.9637 19.4833 62.0528 18.7379C62.0774 18.5262 62.1465 18.3225 62.2552 18.1407C62.364 17.9589 62.5099 17.8034 62.6829 17.6847C63.4132 17.127 64.2281 16.696 65.095 16.4089C65.3546 16.331 65.6219 16.2831 65.8919 16.2661C66.0821 16.2562 66.2726 16.2802 66.4547 16.337C67.2672 16.5746 68.0758 16.8272 68.8844 17.0747C68.9773 17.0992 69.0686 17.1298 69.1575 17.1666C69.378 17.2664 69.4609 17.5659 69.2951 17.7336C69.0271 18.0126 68.7417 18.2733 68.4406 18.5143C68.3144 18.6162 68.1642 18.6822 68.0051 18.7057C67.846 18.7291 67.6837 18.7093 67.5345 18.648C67.1309 18.4947 66.7193 18.3643 66.3016 18.2577C65.4862 18.0581 65.5398 18.0511 64.8882 18.6211C64.4718 18.9855 64.3635 19.4547 64.3625 19.9788C64.3571 20.069 64.3741 20.1592 64.412 20.2409C64.4498 20.3226 64.5073 20.3932 64.579 20.446C64.8658 20.6523 65.1558 20.852 65.4491 21.045C65.517 21.0901 65.5974 21.1115 65.6782 21.1057C65.759 21.0999 65.8357 21.0674 65.8968 21.013C66.2333 20.7624 66.5532 20.4939 66.7815 20.1295C66.879 19.9778 66.9678 19.825 67.0644 19.6753C67.1188 19.5739 67.2026 19.4922 67.3043 19.4416C67.406 19.391 67.5205 19.3739 67.632 19.3928C68.0095 19.4547 68.386 19.5246 68.7606 19.5994C68.838 19.6197 68.9106 19.6556 68.9742 19.7052C69.0285 19.7408 69.0713 19.792 69.0972 19.8524C69.123 19.9128 69.1308 19.9797 69.1195 20.0447C69.111 20.126 69.0913 20.2056 69.061 20.2813C68.9078 20.6077 69.0346 20.8643 69.2785 21.0569C69.5276 21.2599 69.797 21.4353 70.0822 21.58C70.9849 22.0351 71.9482 22.3513 72.9411 22.5184C73.5088 22.6063 74.0765 22.6971 74.6461 22.77C74.8992 22.8038 75.1549 22.8131 75.4098 22.798C76.9706 22.7026 78.523 22.4958 80.0556 22.179C80.8359 22.0143 81.6162 21.8626 82.4024 21.7098C82.5275 21.6858 82.6546 21.6741 82.7818 21.6749C82.8137 21.6746 82.8451 21.6815 82.874 21.6952C82.9029 21.7089 82.9284 21.729 82.9488 21.754C82.9691 21.7791 82.9838 21.8084 82.9917 21.84C82.9996 21.8715 83.0005 21.9045 82.9945 21.9364C82.9899 21.9856 82.9781 22.0337 82.9594 22.0792C82.7487 22.5174 82.5536 22.9657 82.3156 23.389C82.217 23.5682 82.0778 23.7206 81.9098 23.8335C81.7418 23.9464 81.5498 24.0165 81.35 24.0379C80.7169 24.1237 80.0819 24.2106 79.4518 24.2914C78.7691 24.3793 78.0921 24.4771 77.4094 24.543C76.8856 24.5929 76.3579 24.6179 75.8322 24.6229C75.1299 24.6288 74.4266 24.6229 73.7253 24.5919C72.5906 24.558 71.4696 24.3292 70.409 23.9151C69.6743 23.6384 68.9576 23.3143 68.2631 22.9447C67.9541 22.7746 67.6555 22.5855 67.3687 22.3787C67.2704 22.2938 67.1463 22.2464 67.0176 22.2448C66.889 22.2432 66.7638 22.2873 66.6635 22.3697C66.5205 22.4738 66.3837 22.5864 66.2538 22.7071C65.9553 22.9777 65.652 23.2442 65.3681 23.5317C65.2738 23.6312 65.1591 23.7081 65.0323 23.7568C64.9054 23.8055 64.7696 23.8247 64.6346 23.8132C64.2819 23.8059 63.9375 23.7026 63.6368 23.5137C63.2467 23.2582 62.8702 22.9846 62.4907 22.7151C62.3483 22.6153 62.2147 22.5005 62.0713 22.3877C61.6277 22.6257 61.202 22.897 60.7975 23.1993C60.6794 23.2831 60.5712 23.383 60.4473 23.4558C60.3408 23.5259 60.2228 23.5756 60.0991 23.6026C59.8775 23.6336 59.6545 23.6516 59.4309 23.6565C59.2242 23.6603 59.0208 23.6023 58.8457 23.4898C58.3353 23.1844 57.8674 22.81 57.4548 22.3767C56.81 21.7198 56.178 21.05 55.5391 20.3871C55.4738 20.3192 55.3986 20.2613 55.3089 20.1814C55.1958 20.3212 55.0904 20.443 54.9948 20.5718C54.3491 21.4433 53.6878 22.3038 53.0675 23.1943C52.7544 23.6435 52.3749 23.8472 51.8482 23.7933C51.6258 23.7693 51.4034 23.7464 51.181 23.7344C51.0533 23.7283 50.9281 23.6952 50.8134 23.6371C50.6987 23.579 50.5971 23.4973 50.5149 23.3969C50.0584 22.8728 49.5941 22.3557 49.1376 21.8316C48.7972 21.4423 48.4646 21.045 48.1251 20.6546C47.9846 20.4747 47.7993 20.3367 47.5887 20.2553C47.5079 20.2195 47.4198 20.2048 47.3321 20.2124C47.2444 20.2201 47.16 20.2499 47.0863 20.2992C46.5417 20.6646 46.0322 21.0821 45.5647 21.5461C45.5833 21.8785 45.6135 22.187 45.6164 22.4955C45.6223 23.2422 45.1863 23.7274 44.4664 23.7933C44.3707 23.8018 44.2743 23.7874 44.1849 23.7512C44.0955 23.7149 44.0156 23.6579 43.9514 23.5846C43.7718 23.3962 43.6498 23.1582 43.6003 22.8998C43.4949 22.4216 43.3935 21.9434 43.3077 21.4622C43.2296 21.029 43.1731 20.5907 43.1058 20.1555C43.0931 20.0806 43.0697 20.0067 43.0404 19.8899C42.9009 19.9688 42.7927 20.0257 42.6883 20.0896C41.4115 20.8623 40.1425 21.6489 38.854 22.4016C38.3471 22.6792 37.8262 22.9292 37.2934 23.1504C36.8956 23.3222 36.474 23.4293 36.0439 23.4678C35.9174 23.4831 35.7898 23.4874 35.6625 23.4808C35.4844 23.4796 35.3116 23.4186 35.1706 23.3071C35.0297 23.1957 34.9284 23.0399 34.8822 22.8639C34.7855 22.5685 34.7538 22.2548 34.7896 21.9454C34.8257 21.62 34.9154 21.5241 35.2295 21.4583C35.5435 21.3924 35.8527 21.3195 36.1678 21.2676C36.5823 21.1987 36.8028 20.9172 36.9481 20.5518C37.0603 20.2663 37.0066 20.0527 36.7745 19.853C36.6269 19.7285 36.4722 19.6132 36.3112 19.5076C36.2203 19.4394 36.1117 19.4001 35.9991 19.3948C35.8865 19.3895 35.7748 19.4183 35.6781 19.4776C35.566 19.5385 35.445 19.5854 35.3387 19.6563C34.7966 20.0259 34.2969 20.4569 33.8493 20.9411C33.6341 21.1642 33.497 21.4537 33.4591 21.7647C33.3275 22.784 33.1909 23.8033 33.1324 24.8315C33.0875 25.6301 32.987 26.4288 32.9266 27.2224C32.829 28.4933 32.7578 29.7651 32.6593 31.0349C32.6125 31.6339 32.5267 32.2329 32.4642 32.8319C32.4311 33.1403 32.4125 33.4498 32.3784 33.7573C32.3623 33.9357 32.3313 34.1124 32.2857 34.2854C32.2768 34.3259 32.2586 34.3638 32.2328 34.3958C32.2069 34.4279 32.1741 34.4533 32.1369 34.47C32.0997 34.4867 32.0592 34.4942 32.0186 34.492C31.9781 34.4898 31.9386 34.4778 31.9034 34.4571C31.6312 34.3083 31.3923 34.1157 31.325 33.7822C31.2843 33.5748 31.2553 33.3651 31.2382 33.1543C31.2109 32.8458 31.1894 32.5364 31.1767 32.2269C31.1523 31.6559 31.1435 31.0838 31.1143 30.5138C31.0509 29.2909 30.9777 28.068 30.9095 26.8451C30.8821 26.3559 30.8451 25.8667 30.8353 25.3776C30.8148 24.3633 30.7222 23.357 30.612 22.3497C30.5144 21.4573 30.4491 20.5608 30.3671 19.6673C30.3457 19.4327 30.3145 19.1921 30.2833 18.9046ZM23.9793 19.3708C23.6192 19.7671 23.2904 20.1921 22.9961 20.6416C22.9251 20.7505 22.8767 20.8731 22.8537 21.0019C22.8307 21.1306 22.8337 21.2628 22.8625 21.3904C22.95 21.7894 23.1307 22.1607 23.3892 22.4725C23.5374 22.6542 23.6438 22.6722 23.8457 22.5454C24.1285 22.3647 24.3997 22.1641 24.6816 21.9804C24.8175 21.8947 24.9322 21.778 25.0168 21.6395C25.1014 21.501 25.1536 21.3443 25.1693 21.1817C25.2165 20.6482 25.1906 20.1106 25.0922 19.5844L23.9793 19.3708ZM44.6762 16.8152C44.7347 16.7931 44.7912 16.7657 44.8449 16.7333C45.0634 16.5666 45.1473 16.322 45.2146 16.0665C45.4036 15.3235 45.5306 14.5653 45.594 13.8003C45.6398 13.2802 45.6623 12.7581 45.6993 12.237C45.7325 11.7718 45.5199 11.4663 45.1414 11.2666C44.7571 11.3665 44.6898 11.666 44.6537 11.9844C44.5524 12.8274 44.5113 13.6769 44.5308 14.5261C44.5513 15.2758 44.5298 16.0285 44.6762 16.8152Z" fill="#E7E7E7"/>
<path d="M13.897 10.6106C13.9176 11.6393 14.0614 12.6616 14.3252 13.6544C14.5249 14.4105 14.7453 15.1605 14.9866 15.9046C15.486 17.4539 16.0127 18.9993 16.5092 20.5447C16.7921 21.4649 16.9695 22.4157 17.0378 23.3778C17.1168 24.3492 16.9705 25.2996 16.7228 26.236C16.3443 27.6655 15.6323 28.9024 14.7017 30.0295C13.4747 31.5239 11.955 32.4893 10.0969 32.9216C8.91749 33.2081 7.72383 33.4294 6.52113 33.5844C6.02953 33.6485 5.53088 33.6269 5.04633 33.5205C4.4533 33.3858 4.13824 33.0084 4.03875 32.4224C4.0043 32.1966 3.9922 31.9678 4.00266 31.7396C4.02692 31.1835 4.13959 30.6353 4.33625 30.1163C4.38025 29.9939 4.43647 29.8765 4.50402 29.7659C4.73811 29.3836 5.09803 29.3746 5.34578 29.741C5.4004 29.8208 5.44332 29.9107 5.49697 29.9906C5.86957 30.5197 6.35434 30.8451 7.0059 30.909C7.86495 30.999 8.73257 30.9461 9.57508 30.7523C10.3476 30.5696 11.0255 30.1693 11.6566 29.6841C12.5822 28.9713 13.2484 28.0349 13.7771 27.0007C14.2784 26.0213 14.4189 24.9462 14.3213 23.857C14.1532 21.8848 13.6653 19.955 12.8778 18.1468C12.4876 17.2683 12.1257 16.3808 11.7863 15.4833C11.3705 14.3843 11.1342 13.2227 11.0869 12.0452C11.0177 10.408 11.3327 8.86659 12.1413 7.43802C12.9499 6.00946 13.9946 4.82847 15.2343 3.79823C15.8785 3.26448 16.5577 2.77651 17.267 2.33772C18.9592 1.27154 20.8808 0.645689 22.8638 0.514832C24.0176 0.440446 25.1686 0.69881 26.186 1.26056C26.711 1.54291 27.1819 1.91999 27.576 2.37366C28.0921 2.95499 28.525 3.60841 28.8615 4.31435C29.0969 4.8357 29.204 5.40805 29.1737 5.98151C29.1293 6.92938 28.9529 7.86591 28.6499 8.76276C28.4241 9.50177 27.9711 10.1464 27.3584 10.6006C27.1307 10.7808 26.8624 10.8996 26.5781 10.946C26.1193 11.0189 25.6511 11.0009 25.1989 10.8931C24.7268 10.7703 24.5162 10.4339 24.6244 9.94774C24.6626 9.80635 24.7146 9.66923 24.7795 9.53844C25.0263 8.98938 25.2838 8.44031 25.5237 7.89425C25.6671 7.5668 25.7988 7.23237 25.9139 6.89595C26.2124 5.9875 26.1763 5.09901 25.7305 4.24048C25.3452 3.49675 24.9092 2.80393 24.1952 2.34371C23.9584 2.17649 23.6894 2.06314 23.4062 2.01128C22.5283 1.87851 21.6504 1.84956 20.8048 2.16302C19.8577 2.51342 18.9428 2.94169 18.142 3.5826C17.5382 4.06478 16.9315 4.54496 16.3511 5.05509C16.0041 5.36852 15.6782 5.70572 15.3757 6.06437C14.5515 7.01375 14.1497 8.1538 14.0102 9.39668C13.9507 9.83993 13.9234 10.2961 13.897 10.6106Z" fill="#E7E7E7"/>
<path d="M55.1634 14.9163C55.1868 14.5839 55.2141 14.2105 55.2375 13.8362C55.2422 13.722 55.2707 13.6101 55.3211 13.5081C55.3716 13.4062 55.4429 13.3165 55.5302 13.2452C55.6774 13.1204 55.8228 12.9876 55.9603 12.8578C56.0283 12.7872 56.1191 12.7444 56.2157 12.7375C56.3123 12.7305 56.4081 12.7598 56.4851 12.8199C56.595 12.8857 56.7014 12.9574 56.804 13.0345C57.3678 13.4868 57.8902 13.9907 58.3647 14.54C58.4582 14.6399 58.5311 14.7582 58.5788 14.8878C58.6266 15.0173 58.6483 15.1554 58.6426 15.2937C58.6348 15.4394 58.6329 15.5862 58.6378 15.7329C58.6463 15.8807 58.616 16.0282 58.5502 16.16C58.4843 16.2918 58.3853 16.4032 58.2632 16.4827C57.9881 16.6733 57.6877 16.8261 57.3971 16.9918C57.3556 17.0168 57.3094 17.0321 57.2615 17.0367C56.6265 17.0756 56.0247 16.9818 55.5106 16.5575C55.4025 16.473 55.315 16.3641 55.2547 16.2392C55.1945 16.1144 55.1633 15.977 55.1634 15.8378C55.1605 15.5443 55.1634 15.2508 55.1634 14.9163Z" fill="#E7E7E7"/>
</g>
<defs>
<filter id="filter0_d_509_2402" x="0" y="0.5" width="87" height="42" filterUnits="userSpaceOnUse" color-interpolation-filters="sRGB">
<feFlood flood-opacity="0" result="BackgroundImageFix"/>
<feColorMatrix in="SourceAlpha" type="matrix" values="0 0 0 0 0 0 0 0 0 0 0 0 0 0 0 0 0 0 127 0" result="hardAlpha"/>
<feOffset dy="4"/>
<feGaussianBlur stdDeviation="2"/>
<feComposite in2="hardAlpha" operator="out"/>
<feColorMatrix type="matrix" values="0 0 0 0 0 0 0 0 0 0 0 0 0 0 0 0 0 0 0.25 0"/>
<feBlend mode="normal" in2="BackgroundImageFix" result="effect1_dropShadow_509_2402"/>
<feBlend mode="normal" in="SourceGraphic" in2="effect1_dropShadow_509_2402" result="shape"/>
</filter>
<clipPath id="clip0_509_2402">
<rect width="79" height="34" fill="white" transform="translate(4 0.5)"/>
</clipPath>
</defs>
</svg>
