<svg width="71" height="70" viewBox="0 0 71 70" fill="none" xmlns="http://www.w3.org/2000/svg">
<g id="Vector">
<path d="M1.90363 56.6389C1.90363 48.289 1.90363 39.939 1.90363 31.5891C1.90363 29.22 1.90363 26.8898 1.90363 24.5208C1.90363 23.7829 0.738525 23.7829 0.738525 24.5208C0.738525 32.8707 0.738525 41.2206 0.738525 49.5706C0.738525 51.9396 0.738525 54.2698 0.738525 56.6389C0.738525 57.3768 1.90363 57.3768 1.90363 56.6389Z" fill="#7A65FC"/>
<path d="M5.74849 22.6566C4.66105 22.6566 3.57362 22.6566 2.48619 22.6566C2.17549 22.6566 1.90363 22.9284 1.90363 23.2391C1.90363 23.5498 2.17549 23.8217 2.48619 23.8217C3.57362 23.8217 4.66105 23.8217 5.74849 23.8217C6.05918 23.8217 6.33104 23.5498 6.33104 23.2391C6.2922 22.9284 6.05918 22.6566 5.74849 22.6566Z" fill="#7A65FC"/>
<path d="M2.48619 22.6566C2.21433 22.6566 1.98131 22.7343 1.74828 22.8896C1.59294 22.9673 1.43759 23.1226 1.32108 23.2391C1.20457 23.3557 1.08806 23.511 1.01038 23.7052C0.93271 23.8605 0.855036 24.0547 0.816199 24.2489C0.777362 24.4043 0.777362 24.5596 0.893873 24.7149C0.971547 24.8315 1.08806 24.948 1.24341 24.9868C1.39875 25.0256 1.5541 25.0256 1.70945 24.9091C1.82596 24.8315 1.94247 24.7149 1.98131 24.5596C1.98131 24.4431 2.02014 24.3654 2.05898 24.2489C2.02014 24.2877 2.02014 24.3266 1.98131 24.4043C2.02014 24.2877 2.09782 24.1712 2.17549 24.0936C2.13665 24.1324 2.09782 24.1712 2.09782 24.2101C2.17549 24.0936 2.25316 24.0159 2.36968 23.9382C2.33084 23.977 2.292 24.0159 2.25316 24.0159C2.33084 23.9382 2.44735 23.8994 2.52502 23.8605C2.48619 23.8994 2.44735 23.8994 2.36968 23.9382C2.44735 23.8994 2.48619 23.8994 2.56386 23.8994C2.52502 23.8994 2.44735 23.8994 2.40851 23.9382C2.44735 23.9382 2.48619 23.9382 2.52502 23.9382C2.68037 23.9382 2.83572 23.8605 2.95223 23.7829C3.06874 23.6663 3.14641 23.511 3.10758 23.3557C3.10758 23.2003 3.06874 23.045 2.95223 22.9285C2.79688 22.7343 2.64153 22.6566 2.48619 22.6566Z" fill="#7A65FC"/>
<path d="M5.36012 22.2294C5.36012 32.9484 5.36012 43.6674 5.36012 54.3864C5.36012 57.4156 5.36012 60.4449 5.36012 63.4742C5.36012 64.2121 6.52523 64.2121 6.52523 63.4742C6.52523 52.7552 6.52523 42.0362 6.52523 31.3172C6.52523 28.2879 6.52523 25.2587 6.52523 22.2294C6.52523 21.4915 5.36012 21.4915 5.36012 22.2294Z" fill="#7A65FC"/>
<path d="M6.33104 22.6178C6.64174 22.2682 7.22429 22.1129 7.6515 21.9187C8.23405 21.6857 8.77777 21.4915 9.36032 21.2973C10.4866 20.9089 11.6517 20.6371 12.8556 20.4041C13.1663 20.3652 13.3217 19.9768 13.244 19.705C13.1663 19.3943 12.8556 19.2389 12.5449 19.3166C11.2633 19.5496 10.0205 19.8603 8.8166 20.2875C8.23405 20.4817 7.61266 20.7147 7.03011 20.9478C6.48639 21.1808 5.865 21.375 5.47663 21.8022C5.28244 22.0352 5.24361 22.3847 5.47663 22.6178C5.70965 22.8508 6.13686 22.8896 6.33104 22.6178Z" fill="#7A65FC"/>
<path d="M0.738525 62.4644C0.738525 64.4063 0.738525 66.3093 0.738525 68.2511C0.738525 68.989 1.90363 68.989 1.90363 68.2511C1.90363 66.3093 1.90363 64.4063 1.90363 62.4644C1.90363 61.7265 0.738525 61.7265 0.738525 62.4644Z" fill="#7A65FC"/>
<path d="M2.64153 69.96C9.39916 69.96 16.1956 69.96 22.9532 69.96C24.8951 69.96 26.8369 69.96 28.7399 69.96C29.4778 69.96 29.4778 68.7949 28.7399 68.7949C21.9823 68.7949 15.1859 68.7949 8.42823 68.7949C6.48639 68.7949 4.54454 68.7949 2.64153 68.7949C1.90363 68.7949 1.90363 69.96 2.64153 69.96Z" fill="#7A65FC"/>
<path d="M0.738525 68.4065C0.777362 68.8337 0.971547 69.2609 1.32108 69.5327C1.51526 69.6881 1.70945 69.8046 1.98131 69.8823C2.21433 69.9211 2.44735 69.9211 2.68037 69.96C2.64153 69.96 2.56386 69.96 2.52502 69.9211C2.56386 69.9211 2.6027 69.9211 2.64153 69.9211C2.79688 69.96 2.95223 69.96 3.10758 69.8434C3.22409 69.7658 3.3406 69.6493 3.37944 69.4939C3.41827 69.3386 3.41827 69.1832 3.30176 69.0279C3.22409 68.9114 3.10758 68.7948 2.95223 68.756C2.71921 68.7172 2.48619 68.7172 2.25316 68.6783C2.292 68.6783 2.36968 68.6783 2.40851 68.7172C2.292 68.7172 2.21433 68.6783 2.09782 68.6395C2.13665 68.6783 2.17549 68.6783 2.25316 68.7172C2.17549 68.6783 2.09782 68.6395 2.02014 68.6007C2.05898 68.6395 2.09782 68.6783 2.13665 68.6783C2.05898 68.6395 2.02014 68.5618 1.94247 68.4842C1.98131 68.523 2.02014 68.5618 2.02014 68.6007C1.98131 68.523 1.90363 68.4453 1.8648 68.3676C1.90363 68.4065 1.90363 68.4453 1.94247 68.523C1.90363 68.4453 1.90363 68.3676 1.8648 68.29C1.8648 68.3288 1.8648 68.4065 1.90363 68.4453C1.90363 68.4065 1.90363 68.4065 1.90363 68.3676C1.90363 68.2123 1.8648 68.0569 1.74828 67.9404C1.63177 67.8239 1.47643 67.7462 1.32108 67.7851C1.16573 67.7851 1.01038 67.8239 0.893873 67.9404C0.816199 68.0958 0.738525 68.2511 0.738525 68.4065Z" fill="#7A65FC"/>
<path d="M28.5069 69.96C29.7497 69.96 31.0313 69.96 32.2741 69.96C32.5848 69.96 32.8567 69.6881 32.8567 69.3774C32.8567 69.0667 32.5848 68.7949 32.2741 68.7949C31.0313 68.7949 29.7497 68.7949 28.5069 68.7949C28.1962 68.7949 27.9244 69.0667 27.9244 69.3774C27.9244 69.6881 28.1574 69.96 28.5069 69.96Z" fill="#7A65FC"/>
<path d="M32.7013 69.8046C33.478 69.1832 34.449 68.4065 35.4976 68.4065C36.585 68.4065 37.6336 69.0279 38.3715 69.8046C38.9152 70.3483 39.7308 69.5328 39.1871 68.989C38.255 68.0181 36.8569 67.2414 35.4976 67.2802C34.0994 67.2802 32.9343 68.1735 31.8857 69.0279C31.6527 69.2221 31.6915 69.6493 31.8857 69.8434C32.1188 70.0765 32.4683 70.0376 32.7013 69.8046Z" fill="#7A65FC"/>
<path d="M38.8764 69.8823C46.7214 69.8823 54.5276 69.8823 62.3727 69.8823C64.5864 69.8823 66.7613 69.8823 68.975 69.8823C69.7129 69.8823 69.7129 68.7172 68.975 68.7172C61.1299 68.7172 53.3237 68.7172 45.4786 68.7172C43.2649 68.7172 41.0901 68.7172 38.8764 68.7172C38.1385 68.7172 38.1385 69.8823 38.8764 69.8823Z" fill="#7A65FC"/>
<path d="M70.7615 68.0569C70.7615 59.8624 70.7615 51.7066 70.7615 43.512C70.7615 42.7741 69.5964 42.7741 69.5964 43.512C69.5964 44.5218 69.5964 45.5315 69.5964 46.5801C69.9847 46.5801 70.3731 46.5801 70.7615 46.5801C70.7615 46.3083 70.7615 46.0364 70.7615 45.7646C70.7615 45.0267 69.5964 45.0267 69.5964 45.7646C69.5964 46.2694 69.5964 46.7355 69.5964 47.2404C69.5964 47.9783 70.7615 47.9783 70.7615 47.2404C70.7615 46.7355 70.7615 46.2694 70.7615 45.7646C70.3731 45.7646 69.9847 45.7646 69.5964 45.7646C69.5964 46.0364 69.5964 46.3083 69.5964 46.5801C69.5964 47.318 70.7615 47.318 70.7615 46.5801C70.7615 45.5704 70.7615 44.5606 70.7615 43.512C70.7615 42.7741 69.5964 42.7741 69.5964 43.512C69.5964 51.7066 69.5964 59.8624 69.5964 68.0569C69.5964 68.7948 70.7615 68.7948 70.7615 68.0569Z" fill="#7A65FC"/>
<path d="M69.3633 69.8434C69.4799 69.8046 69.6352 69.7658 69.7517 69.7269C69.8682 69.6881 69.9459 69.6493 70.0624 69.6104C70.1401 69.5716 70.2566 69.4939 70.3343 69.4162C70.4119 69.3386 70.4896 69.2609 70.5285 69.1832C70.6061 69.1055 70.645 68.989 70.6838 68.8725C70.7226 68.756 70.7226 68.6007 70.7615 68.4842C70.7615 68.4065 70.7615 68.29 70.7615 68.2123C70.7615 68.0569 70.6838 67.9016 70.6061 67.7851C70.4896 67.6686 70.3343 67.5909 70.1789 67.6297C70.0236 67.6297 69.8682 67.6686 69.7517 67.7851C69.6352 67.9016 69.5964 68.0181 69.5964 68.2123C69.5964 68.3288 69.5964 68.4453 69.5575 68.5618C69.5575 68.523 69.5575 68.4453 69.5964 68.4065C69.5964 68.4842 69.5575 68.523 69.5575 68.6007C69.5964 68.5618 69.5964 68.523 69.6352 68.4453C69.5964 68.4842 69.5964 68.523 69.5575 68.6007C69.5964 68.5618 69.6352 68.523 69.6352 68.4842C69.5964 68.523 69.5575 68.5618 69.5187 68.6007C69.5575 68.5618 69.5964 68.523 69.6352 68.523C69.5575 68.5618 69.4799 68.6395 69.4022 68.6783C69.441 68.6395 69.4799 68.6395 69.5575 68.6007C69.4022 68.6783 69.2857 68.7172 69.1303 68.7172C68.975 68.756 68.8585 68.8725 68.7808 68.989C68.7031 69.1055 68.6643 69.2997 68.7031 69.4551C68.742 69.6104 68.8196 69.7269 68.975 69.8046C69.0527 69.8434 69.208 69.8823 69.3633 69.8434Z" fill="#7A65FC"/>
<path d="M70.7615 43.5897C70.7615 38.3855 70.7615 33.1814 70.7615 27.9384C70.7615 27.2005 69.5964 27.2005 69.5964 27.9384C69.5964 33.1426 69.5964 38.3467 69.5964 43.5897C69.5964 44.3276 70.7615 44.3276 70.7615 43.5897Z" fill="#7A65FC"/>
<path d="M70.7615 27.9772C70.7615 26.8121 70.7615 25.647 70.7615 24.5208C70.7615 24.2101 70.4896 23.9382 70.1789 23.9382C69.8682 23.9382 69.5964 24.2101 69.5964 24.5208C69.5964 25.6859 69.5964 26.851 69.5964 27.9772C69.5964 28.2879 69.8682 28.5598 70.1789 28.5598C70.4896 28.5598 70.7615 28.3268 70.7615 27.9772Z" fill="#7A65FC"/>
<path d="M65.7904 23.744C66.8778 23.744 67.9652 23.744 69.0138 23.744C69.3245 23.744 69.5964 23.4722 69.5964 23.1615C69.5964 22.8508 69.3245 22.5789 69.0138 22.5789C67.9264 22.5789 66.839 22.5789 65.7904 22.5789C65.4797 22.5789 65.2078 22.8508 65.2078 23.1615C65.2078 23.4722 65.4408 23.744 65.7904 23.744Z" fill="#7A65FC"/>
<path d="M68.8585 23.7052C69.0527 23.744 69.208 23.7829 69.4022 23.8605C69.3633 23.8217 69.3245 23.8217 69.2468 23.7829C69.3245 23.8217 69.4022 23.8605 69.4799 23.9382C69.441 23.8994 69.4022 23.8605 69.3633 23.8605C69.4022 23.8994 69.4799 23.9382 69.5187 24.0159C69.4799 23.977 69.441 23.9382 69.441 23.8994C69.4799 23.977 69.5187 24.0159 69.5575 24.0936C69.5187 24.0547 69.5187 24.0159 69.4799 23.9382C69.5575 24.0936 69.5575 24.2489 69.5964 24.4043C69.6352 24.5596 69.7517 24.6761 69.8682 24.7538C69.9847 24.8315 70.1789 24.8703 70.3343 24.8315C70.4896 24.7926 70.6061 24.7149 70.6838 24.5596C70.7615 24.4043 70.7615 24.2877 70.7615 24.0936C70.7226 23.9382 70.6838 23.7829 70.645 23.6275C70.5673 23.3945 70.4508 23.2003 70.2566 23.045C70.1789 22.9673 70.0624 22.8896 69.9847 22.8508C69.8682 22.8119 69.7906 22.7343 69.674 22.6954C69.5187 22.6566 69.4022 22.6178 69.2468 22.5789C69.0915 22.5401 68.9361 22.5401 68.7808 22.6566C68.6643 22.7343 68.5478 22.8508 68.5089 23.0061C68.4701 23.1615 68.4701 23.3168 68.5866 23.4722C68.5866 23.5887 68.7031 23.7052 68.8585 23.7052Z" fill="#7A65FC"/>
<path d="M62.1785 24.5984C62.1785 20.7147 62.1785 16.8311 62.1785 12.9474C62.1785 12.2095 61.0134 12.2095 61.0134 12.9474C61.0134 16.8311 61.0134 20.7147 61.0134 24.5984C61.0134 25.3363 62.1785 25.3363 62.1785 24.5984Z" fill="#7A65FC"/>
<path d="M61.4795 20.9478C62.295 21.142 63.0718 21.375 63.8485 21.7245C64.1592 21.8799 64.5087 22.074 64.7418 22.3071C65.0136 22.5401 65.169 22.7731 65.2466 23.0838C65.3243 23.3945 65.6738 23.5887 65.9457 23.4722C66.2564 23.3945 66.4506 23.045 66.3341 22.7731C66.0622 21.8799 65.3243 21.2196 64.5087 20.7924C63.6543 20.3652 62.6834 20.0545 61.7513 19.8215C61.4406 19.7438 61.1299 19.8992 61.0522 20.2099C60.9746 20.5206 61.1688 20.8701 61.4795 20.9478Z" fill="#7A65FC"/>
<path d="M65.2466 23.1615C65.2466 29.8803 65.2466 36.599 65.2466 43.3178C65.2466 45.2208 65.2466 47.1238 65.2466 49.0269C65.2466 49.7648 66.4117 49.7648 66.4117 49.0269C66.4117 42.3081 66.4117 35.5893 66.4117 28.8705C66.4117 26.9675 66.4117 25.0645 66.4117 23.1615C66.4117 22.4236 65.2466 22.4236 65.2466 23.1615Z" fill="#7A65FC"/>
<path d="M65.2466 49.0269C65.2466 53.765 65.2466 58.4642 65.2466 63.2023C65.2466 63.9402 66.4117 63.9402 66.4117 63.2023C66.4117 58.4642 66.4117 53.765 66.4117 49.0269C66.4117 48.289 65.2466 48.289 65.2466 49.0269Z" fill="#7A65FC"/>
<path d="M61.4018 12.3648C54.5276 11.7434 47.4593 13.8406 41.4784 17.2583C39.8085 18.1903 38.2161 19.2778 36.7403 20.4817C36.1578 20.9478 36.9734 21.7633 37.5559 21.2973C42.7601 17.1806 49.2847 14.3455 55.8869 13.6076C57.7123 13.4134 59.5376 13.3746 61.4018 13.5299C62.1397 13.6076 62.1397 12.4425 61.4018 12.3648Z" fill="#7A65FC"/>
<path d="M60.9357 30.9289C60.9357 38.6574 60.9357 46.3471 60.9357 54.0757C60.9357 54.8136 62.1008 54.8136 62.1008 54.0757C62.1008 46.3471 62.1008 38.6574 62.1008 30.9289C62.1008 30.191 60.9357 30.191 60.9357 30.9289Z" fill="#7A65FC"/>
<path d="M6.21453 65.8044C13.8654 65.8044 21.4774 65.8044 29.1283 65.8044C36.7792 65.8044 44.4689 65.8044 52.1198 65.8044C56.4307 65.8044 60.7416 65.8044 65.0136 65.8044C65.7515 65.8044 65.7515 64.6393 65.0136 64.6393C57.3627 64.6393 49.7507 64.6393 42.0998 64.6393C34.449 64.6393 26.7593 64.6393 19.1084 64.6393C14.7975 64.6393 10.4866 64.6393 6.21453 64.6393C5.47663 64.6393 5.47663 65.8044 6.21453 65.8044Z" fill="#7A65FC"/>
<path d="M5.36012 63.7849C5.39896 64.4451 5.36012 65.183 5.865 65.6879C5.98151 65.8044 6.13686 65.8432 6.2922 65.8432C6.44755 65.8432 6.6029 65.7656 6.71941 65.6879C6.91359 65.4549 6.95243 65.1053 6.71941 64.8723C6.68057 64.8335 6.64174 64.7946 6.64174 64.7946C6.68057 64.8335 6.71941 64.8723 6.71941 64.9112C6.68057 64.8723 6.64174 64.7946 6.6029 64.717C6.64174 64.7558 6.64174 64.7946 6.68057 64.8723C6.64174 64.7558 6.6029 64.6005 6.6029 64.4839C6.6029 64.5228 6.6029 64.6005 6.64174 64.6393C6.6029 64.3674 6.6029 64.0956 6.56406 63.8237C6.56406 63.6684 6.48639 63.513 6.40871 63.3965C6.2922 63.28 6.13686 63.2023 5.98151 63.2412C5.82616 63.2412 5.67081 63.28 5.5543 63.3965C5.43779 63.4742 5.36012 63.6295 5.36012 63.7849Z" fill="#7A65FC"/>
<path d="M35.4199 65.7267C42.061 60.8333 50.7216 59.2798 58.7609 60.7944C61.0522 61.2216 63.3048 61.9207 65.4797 62.814C65.7904 62.9305 66.1011 62.6974 66.1787 62.4256C66.2564 62.0761 66.0622 61.843 65.7904 61.7265C58.023 58.4642 48.8963 58.1535 41.0124 61.2993C38.7987 62.1926 36.7403 63.3188 34.7985 64.7558C34.2548 65.183 34.8373 66.1928 35.4199 65.7267Z" fill="#7A65FC"/>
<path d="M35.6917 65.2995C36.7792 63.9014 38.1773 62.7363 39.6143 61.7265C41.0124 60.7168 42.527 59.8624 44.0805 59.1245C47.4593 57.5321 51.11 56.6001 54.8383 56.1729C57.0521 55.9398 59.2658 55.8622 61.5183 55.9398C62.2562 55.9787 62.2562 54.8136 61.5183 54.7747C53.8286 54.5029 45.867 55.9787 39.4589 60.4061C37.7889 61.5323 36.1578 62.8528 34.915 64.4451C34.4101 65.0665 35.2257 65.8821 35.6917 65.2995Z" fill="#7A65FC"/>
<path d="M60.9357 54.2698C60.9357 54.5805 60.9357 54.8912 60.9357 55.2019C60.9357 55.3573 61.0134 55.5126 61.0911 55.6291C61.2076 55.7456 61.3629 55.8233 61.5183 55.7845C61.6736 55.7845 61.829 55.7456 61.9455 55.6291C62.062 55.5126 62.1008 55.3573 62.1008 55.2019C62.1008 54.8912 62.1008 54.5805 62.1008 54.2698C62.1008 54.1145 62.0232 53.9591 61.9455 53.8426C61.829 53.7261 61.6736 53.6484 61.5183 53.6873C61.3629 53.6873 61.2076 53.7261 61.0911 53.8426C61.0134 53.998 60.9357 54.1145 60.9357 54.2698Z" fill="#7A65FC"/>
<path d="M6.25337 62.3868C7.96219 61.5712 9.8652 61.2993 11.7294 61.0275C13.7101 60.7556 15.6907 60.6003 17.7103 60.6003C21.5551 60.5614 25.4 61.1828 29.0506 62.5033C31.0313 63.2412 32.8955 64.2121 34.449 65.6879C34.9927 66.1928 35.8083 65.3772 35.2645 64.8723C32.3129 62.1537 28.3904 60.8333 24.5456 60.0954C20.4677 59.3186 16.351 59.3575 12.2343 59.8624C9.98171 60.1342 7.72917 60.4837 5.67081 61.4158C4.97175 61.6877 5.5543 62.6975 6.25337 62.3868Z" fill="#7A65FC"/>
<path d="M35.8083 64.8335C35.8083 54.0368 35.8083 43.2402 35.8083 32.4435C35.8083 29.4142 35.8083 26.3849 35.8083 23.3168C35.8083 22.5789 34.6431 22.5789 34.6431 23.3168C34.6431 34.1135 34.6431 44.9101 34.6431 55.7068C34.6431 58.7361 34.6431 61.7654 34.6431 64.8335C34.6431 65.6102 35.8083 65.6102 35.8083 64.8335Z" fill="#7A65FC"/>
<path d="M35.8083 23.4333C35.8083 21.5303 35.8083 19.6273 35.8083 17.7631C35.8083 17.0252 34.6431 17.0252 34.6431 17.7631C34.6431 19.6661 34.6431 21.5692 34.6431 23.4333C34.6431 24.2101 35.8083 24.2101 35.8083 23.4333Z" fill="#7A65FC"/>
<path d="M36.818 20.4041C36.1966 20.8313 35.6529 21.3361 35.148 21.8799C35.0315 21.9964 34.9927 22.1517 34.9927 22.3071C34.9927 22.4624 35.0704 22.6178 35.148 22.7343C35.2645 22.8508 35.4199 22.9284 35.5752 22.8896C35.7306 22.8896 35.8859 22.8508 36.0024 22.7343C36.3908 22.3071 36.818 21.8799 37.2841 21.5303C37.2452 21.5692 37.2064 21.608 37.1675 21.608C37.2452 21.5303 37.3617 21.4915 37.4394 21.4138C37.5559 21.3361 37.6724 21.2196 37.7113 21.0643C37.7501 20.9089 37.7501 20.7536 37.6336 20.5982C37.5559 20.4817 37.4394 20.3652 37.2841 20.3264C37.1287 20.3264 36.9345 20.3264 36.818 20.4041Z" fill="#7A65FC"/>
<path d="M19.5744 1.14094C22.7202 1.76233 25.9048 2.50023 28.3904 4.6751C30.6818 6.73346 32.1964 9.45204 33.1673 12.326C33.7887 14.1125 34.2548 15.9378 34.6431 17.7631C34.7985 18.501 35.9248 18.1903 35.7694 17.4524C34.4101 11.355 32.0799 4.3644 25.866 1.68466C23.963 0.869081 21.9046 0.403038 19.8851 0.0146689C19.1472 -0.140679 18.8365 0.985592 19.5744 1.14094Z" fill="#7A65FC"/>
<path d="M19.0695 0.674897C19.0695 11.5104 19.0695 22.3847 19.0695 33.2202C19.0695 36.2495 19.0695 39.2788 19.0695 42.3081C19.0695 43.046 20.2347 43.046 20.2347 42.3081C20.2347 31.4726 20.2347 20.5982 20.2347 9.76274C20.2347 6.73346 20.2347 3.70418 20.2347 0.674897C20.2347 -0.0630049 19.0695 -0.0630049 19.0695 0.674897Z" fill="#7A65FC"/>
<path d="M19.6521 43.1625C21.4386 43.2013 23.1086 44.2887 24.5844 45.1432C26.1379 45.9976 27.6525 46.9685 28.8564 48.3278C30.0604 49.6871 30.9925 51.2794 31.8081 52.9105C32.5848 54.5417 33.2062 56.2505 33.7111 57.9982C34.2548 59.9789 34.6431 62.0372 34.8373 64.0956C34.915 64.8335 36.0801 64.8335 36.0024 64.0956C35.6141 60.2119 34.7208 56.4059 33.0897 52.8717C32.2741 51.1241 31.3032 49.4152 30.0604 47.9006C28.8565 46.4248 27.2641 45.3373 25.633 44.4053C23.8077 43.3567 21.827 42.0362 19.6521 42.0362C18.9142 41.9974 18.9142 43.1625 19.6521 43.1625Z" fill="#7A65FC"/>
<path d="M12.3119 4.63626C12.3119 15.4329 12.3119 26.2296 12.3119 37.0262C12.3119 40.0555 12.3119 43.0848 12.3119 46.1529C12.3119 46.8908 13.477 46.8908 13.477 46.1529C13.477 35.3563 13.477 24.5596 13.477 13.7629C13.477 10.7337 13.477 7.70438 13.477 4.63626C13.477 3.89836 12.3119 3.89836 12.3119 4.63626Z" fill="#7A65FC"/>
<path d="M12.8556 5.25765C15.1082 5.45184 17.5161 5.87904 19.0695 7.70438C19.2637 7.9374 19.6909 7.89856 19.8851 7.70438C20.1181 7.47136 20.0793 7.12182 19.8851 6.8888C18.1763 4.83045 15.4189 4.32557 12.8556 4.09255C12.5449 4.05371 12.2731 4.3644 12.2731 4.6751C12.2731 5.02463 12.5449 5.21882 12.8556 5.25765Z" fill="#7A65FC"/>
<path d="M12.8556 47.0073C14.8752 47.085 16.817 47.7064 18.6423 48.522C20.5065 49.3764 22.3319 50.3473 24.0407 51.4736C27.07 53.4931 29.5167 56.2894 31.4974 59.3186C32.6236 61.0663 33.5946 62.8916 34.4878 64.7946C34.7985 65.4549 35.8083 64.8723 35.4976 64.2121C33.8664 60.7556 31.8857 57.4156 29.3225 54.5805C26.6039 51.5513 23.1863 49.3764 19.5356 47.6676C17.4384 46.6966 15.1859 45.9587 12.8556 45.8422C12.1177 45.8422 12.1177 47.0073 12.8556 47.0073Z" fill="#7A65FC"/>
<path d="M65.2855 63.28C65.2855 63.4742 65.2466 63.6684 65.2466 63.8626C65.2466 63.8237 65.2466 63.746 65.2855 63.7072C65.2466 63.9402 65.2078 64.1344 65.1301 64.3286C65.169 64.2898 65.169 64.2509 65.2078 64.1733C65.169 64.3286 65.0913 64.4451 64.9748 64.5616C65.0136 64.5228 65.0524 64.4839 65.0524 64.4451C64.9748 64.5228 64.8971 64.6005 64.8194 64.6781C64.8583 64.6393 64.8971 64.6005 64.9359 64.6005C64.8971 64.6005 64.8971 64.6393 64.8583 64.6393C64.5864 64.7946 64.4699 65.1442 64.6641 65.4549C64.8194 65.6879 65.2078 65.8432 65.4797 65.6491C65.868 65.3772 66.1399 64.9888 66.2952 64.5616C66.4506 64.1344 66.4894 63.7072 66.4894 63.2412C66.4894 62.9305 66.2176 62.6586 65.9069 62.6586C65.5185 62.7363 65.2855 62.9693 65.2855 63.28Z" fill="#7A65FC"/>
</g>
</svg>
