<svg width="80" height="70" viewBox="0 0 80 70" fill="none" xmlns="http://www.w3.org/2000/svg">
<g id="Vector">
<path d="M76.3338 30.4716C75.7092 30.204 74.9953 30.0255 74.2815 30.0255H71.2924V24.6271C71.2924 19.9873 67.0094 18.2473 64.734 17.9796C64.6894 17.9796 64.6894 17.9796 64.6448 17.9796H57.685V7.45061C57.685 7.36138 57.6404 7.27215 57.6404 7.18292C59.3803 6.91523 60.7634 5.39834 60.7634 3.61377C60.7634 1.60612 59.1126 0 57.1496 0C55.1866 0 53.5358 1.65073 53.5358 3.61377C53.5358 5.39834 54.8296 6.87062 56.4804 7.18292C56.4358 7.27215 56.3911 7.36138 56.3911 7.49522V17.9796H39.3038V7.45061C39.3038 7.36138 39.2592 7.27215 39.2592 7.18292C40.9992 6.91523 42.3822 5.39834 42.3822 3.61377C42.3822 1.60612 40.7315 0 38.7685 0C36.8054 0 35.1547 1.65073 35.1547 3.61377C35.1547 5.39834 36.4485 6.87062 38.0992 7.18292C38.01 7.27215 37.9654 7.36138 37.9654 7.45061V17.9796H20.9227V7.45061C20.9227 7.36138 20.8781 7.27215 20.8781 7.18292C22.618 6.91523 24.0011 5.39834 24.0011 3.61377C24.0011 1.60612 22.3504 0 20.3873 0C18.4243 0 16.7736 1.65073 16.7736 3.61377C16.7736 5.39834 18.0674 6.87062 19.7181 7.18292C19.6735 7.27215 19.6289 7.36138 19.6289 7.49522V17.9796H16.8628C14.2752 17.9796 12.2229 18.738 10.7506 20.2549C8.38605 22.7087 8.51989 26.1887 8.51989 26.2779V48.942H5.21843C4.68306 48.942 4.1923 48.8528 3.70154 48.6297C2.67541 48.1836 1.51543 47.3359 1.51543 46.0421V34.2192C1.51543 33.55 1.64928 32.97 1.96158 32.4793C2.40772 31.7208 2.94309 31.3639 3.70154 31.3639C4.05845 31.3639 4.37076 31.0516 4.37076 30.6947C4.37076 30.3378 4.05845 30.0255 3.70154 30.0255C2.45234 30.0255 1.47082 30.6501 0.801603 31.7655C0.400074 32.4793 0.177002 33.2823 0.177002 34.1746V45.9975C0.177002 47.559 1.24775 48.942 3.16617 49.8343C3.79077 50.102 4.5046 50.2804 5.21843 50.2804H8.51989V69.3308C8.51989 69.5985 8.65374 69.8215 8.87681 69.9108C8.96604 69.9554 9.05527 70 9.18911 70C9.32295 70 9.4568 69.9554 9.59064 69.8662L19.4504 62.6832H28.2395C28.5964 62.6832 28.9087 62.3709 28.9087 62.014C28.9087 61.6571 28.5964 61.3448 28.2395 61.3448H19.2274C19.0935 61.3448 18.9597 61.3894 18.8258 61.4786L9.85833 68.037V26.2779C9.85833 26.2333 9.72448 23.2441 11.6875 21.2365C12.8921 19.9873 14.5875 19.3626 16.8182 19.3626H64.6002C65.091 19.4519 69.9539 20.2103 69.9539 24.6718V56.348C69.8647 56.928 68.8832 61.9694 64.3771 61.9694H42.2484C41.9807 60.2294 40.4638 58.9356 38.6792 58.9356C36.6716 58.9356 35.0655 60.5864 35.0655 62.5494C35.0655 64.5124 36.7162 66.1632 38.6792 66.1632C40.4192 66.1632 41.8915 64.914 42.2484 63.3078H64.3771C69.0616 63.3078 70.9354 58.8464 71.2924 56.4818C71.2924 56.4372 71.2924 56.4372 71.2924 56.3926V31.3639H74.2815C74.8169 31.3639 75.3076 31.4532 75.7984 31.6762C76.7799 32.1224 77.9845 32.97 77.9845 34.2639V46.0867C77.9845 46.7559 77.8507 47.3359 77.5384 47.8266C77.0922 48.5851 76.5569 48.942 75.7984 48.942C75.4415 48.942 75.1292 49.2543 75.1292 49.6112C75.1292 49.9681 75.4415 50.2804 75.7984 50.2804C77.0476 50.2804 78.0291 49.6558 78.6983 48.4959C79.0999 47.782 79.3229 46.979 79.3229 46.0867V34.2639C79.3229 32.7024 78.2522 31.3639 76.3338 30.4716ZM54.8296 3.61377C54.8296 2.36456 55.8558 1.33843 57.105 1.33843C58.3542 1.33843 59.3803 2.36456 59.3803 3.61377C59.3803 4.86297 58.3542 5.8891 57.105 5.8891C55.8558 5.8891 54.8296 4.86297 54.8296 3.61377ZM36.4039 3.61377C36.4039 2.36456 37.43 1.33843 38.6792 1.33843C39.9284 1.33843 40.9546 2.36456 40.9546 3.61377C40.9546 4.86297 39.9284 5.8891 38.6792 5.8891C37.43 5.8891 36.4039 4.86297 36.4039 3.61377ZM18.0228 3.61377C18.0228 2.36456 19.0489 1.33843 20.2981 1.33843C21.5473 1.33843 22.5734 2.36456 22.5734 3.61377C22.5734 4.86297 21.5473 5.8891 20.2981 5.8891C19.0489 5.8891 18.0228 4.86297 18.0228 3.61377ZM38.7238 64.8247C37.4746 64.8247 36.4485 63.7986 36.4485 62.5494C36.4485 61.3002 37.4746 60.2741 38.7238 60.2741C39.973 60.2741 40.9992 61.3002 40.9992 62.5494C40.9992 63.7986 39.973 64.8247 38.7238 64.8247Z" fill="#7A65FC"/>
<path d="M53.7589 30.5162C53.402 30.5162 53.0897 30.8285 53.0897 31.1855V50.905C53.0897 51.262 53.402 51.5742 53.7589 51.5742C54.1158 51.5742 54.4281 51.262 54.4281 50.905V31.1855C54.4281 30.7839 54.1158 30.5162 53.7589 30.5162Z" fill="#7A65FC"/>
<path d="M35.7347 30.8732C35.6008 30.6055 35.3331 30.4716 35.0655 30.4716C34.7978 30.427 34.5301 30.6055 34.3962 30.8732L25.1164 50.7712C24.9826 51.1281 25.1165 51.485 25.4288 51.6635C25.518 51.7081 25.6072 51.7081 25.6964 51.7081C25.9641 51.7081 26.1872 51.5742 26.321 51.3066L28.3733 46.9343C28.4179 46.9343 28.4625 46.9343 28.5071 46.9343H41.6238C41.6684 46.9343 41.713 46.9343 41.7576 46.9343L43.8099 51.3066C43.9437 51.5296 44.1668 51.7081 44.4345 51.7081C44.5237 51.7081 44.6129 51.7081 44.7022 51.6635C45.0591 51.5296 45.1929 51.1281 45.0145 50.7712L35.7347 30.8732ZM35.0655 32.6131L41.133 45.6405H28.9979L35.0655 32.6131Z" fill="#7A65FC"/>
</g>
</svg>
