<svg width="71" height="70" viewBox="0 0 71 70" fill="none" xmlns="http://www.w3.org/2000/svg">
<g id="Vector">
<path d="M36.4229 45.8537C29.8807 45.8537 24.5281 40.5011 24.5281 33.9589C24.5281 27.4168 29.8807 22.0641 36.4229 22.0641C42.965 22.0641 48.3177 27.4168 48.3177 33.9589C48.3177 40.5011 42.965 45.8537 36.4229 45.8537ZM36.4229 23.2536C30.5151 23.2536 25.7175 28.0511 25.7175 33.9589C25.7175 39.8667 30.5151 44.6642 36.4229 44.6642C42.3306 44.6642 47.1282 39.8667 47.1282 33.9589C47.1282 28.0511 42.3306 23.2536 36.4229 23.2536Z" fill="#7A65FC"/>
<path d="M36.4229 13.3412C25.0435 13.3412 15.8052 22.5795 15.8052 33.9589C15.8052 37.3688 16.6378 40.62 18.1445 43.4351C18.2635 43.2765 18.4221 43.1179 18.6203 43.0386C18.8186 42.9197 18.9771 42.88 19.1754 42.8007C17.7877 40.1442 17.0343 37.1309 17.0343 33.9193C17.0343 23.2139 25.7572 14.4911 36.4625 14.4911C47.1679 14.4911 55.8907 23.2139 55.8907 33.9193C55.8907 44.6246 47.1679 53.3475 36.4625 53.3475C33.1716 53.3475 30.0393 52.5148 27.3432 51.0478C27.1846 51.4443 26.907 51.7615 26.5898 51.9994C29.5239 53.625 32.8941 54.5369 36.5022 54.5369C47.8815 54.5369 57.1199 45.2986 57.1199 33.9193C57.1199 22.5399 47.8022 13.3412 36.4229 13.3412Z" fill="#7A65FC"/>
<path d="M52.6395 9.61418C49.2693 7.35417 45.4629 5.76819 41.2998 5.0545C41.3394 5.09415 41.3394 5.1338 41.3791 5.2131C41.5377 5.60959 41.6962 6.00609 41.8945 6.40258C45.3836 7.11627 48.6745 8.46435 51.5689 10.3675C51.6086 10.3675 51.6482 10.3279 51.6879 10.3279C51.9258 10.1693 52.243 10.09 52.5998 10.09C52.5998 9.89173 52.6395 9.77278 52.6395 9.61418Z" fill="#7A65FC"/>
<path d="M20.6821 10.5658C23.7747 8.504 27.3035 6.99732 31.1099 6.28363C30.9909 6.12504 30.872 5.96644 30.7927 5.76819C30.7134 5.56995 30.6341 5.3717 30.6341 5.17345C26.6691 5.96644 23.0214 7.55242 19.8098 9.73313C20.2063 9.93138 20.5235 10.2089 20.6821 10.5658Z" fill="#7A65FC"/>
<path d="M8.74761 28.289C9.4613 24.8395 10.8094 21.5883 12.6729 18.7335C12.5936 18.5749 12.4747 18.4163 12.3954 18.2974C12.2368 18.0595 12.1178 17.8216 12.0782 17.5441C9.77849 20.9143 8.15287 24.8395 7.43918 29.0027C7.71672 28.6062 8.23217 28.3683 8.74761 28.289Z" fill="#7A65FC"/>
<path d="M12.7522 49.3429C10.849 46.4485 9.50095 43.2369 8.74761 39.7477C8.35112 39.827 7.91497 39.7874 7.51848 39.6288C8.27182 43.4351 9.73884 46.9639 11.8006 50.0566C12.0385 49.779 12.3557 49.5015 12.7522 49.3429Z" fill="#7A65FC"/>
<path d="M30.6737 61.5549C27.1053 60.8412 23.7747 59.4138 20.8407 57.471C20.6424 57.8278 20.2856 58.1054 19.8891 58.264C23.18 60.4843 26.9467 62.0703 30.9909 62.8237C30.7927 62.4272 30.6341 61.991 30.6737 61.5549Z" fill="#7A65FC"/>
<path d="M64.8118 28.4476C64.9308 28.4476 65.0101 28.4476 65.129 28.4873C64.336 24.4034 62.7104 20.5971 60.4504 17.3062C60.4108 17.3855 60.3315 17.4648 60.2522 17.5441C60.2125 17.5837 60.1729 17.6234 60.1332 17.6234C60.1332 17.9802 60.0539 18.337 59.9746 18.6939C61.9174 21.6676 63.3052 25.0378 63.9792 28.6459C64.2171 28.5269 64.4946 28.4476 64.8118 28.4476Z" fill="#7A65FC"/>
<path d="M63.8206 39.7874C63.1069 43.1972 61.7588 46.3692 59.935 49.2239C60.0539 49.3429 60.1729 49.5015 60.2918 49.6601C60.4108 49.898 60.5297 50.1755 60.609 50.4134C62.7501 47.2414 64.336 43.6334 65.0894 39.7081C64.6929 39.8667 64.2567 39.8667 63.8206 39.7874Z" fill="#7A65FC"/>
<path d="M52.5602 58.3433C52.1637 58.1847 51.8465 57.8675 51.6086 57.5503C48.7935 59.3742 45.6215 60.7222 42.2117 61.4756C42.2513 61.9117 42.172 62.3479 41.9738 62.7444C45.8198 61.991 49.3882 60.4843 52.5602 58.3433Z" fill="#7A65FC"/>
<path d="M42.6082 5.64924C42.3306 4.45976 42.0531 3.27028 41.7755 2.04115C41.6962 1.72396 41.6169 1.40676 41.5376 1.08957C41.4584 0.81202 41.4583 0.455175 41.2601 0.256928C40.9033 -0.0999163 40.3085 0.0190316 39.8724 0.0190316C37.3745 0.0190316 34.8765 0.0190316 32.339 0.0190316C31.9821 0.0190316 31.6253 0.415525 31.7839 0.77237C31.8236 0.851669 31.7839 0.81202 31.7442 0.693072C31.7046 0.81202 31.6649 0.930968 31.6649 1.04992C31.5857 1.28781 31.546 1.52571 31.4667 1.7636C31.3478 2.19975 31.2288 2.59624 31.1495 2.99274C30.9116 3.86502 30.6341 4.73731 30.3169 5.6096C30.0393 6.32328 31.1892 6.64048 31.4667 5.92679C31.8235 4.9752 32.1011 4.02362 32.3786 3.03239C32.4976 2.55659 32.6165 2.0808 32.7751 1.60501C32.8544 1.24816 33.0923 0.812019 32.9734 0.455175C32.7751 0.693071 32.5769 0.970617 32.4183 1.20851C33.8457 1.20851 35.273 1.20851 36.7004 1.20851C37.4141 1.20851 38.1278 1.20851 38.8415 1.20851C39.1587 1.20851 39.4759 1.20851 39.8327 1.20851C40.031 1.20851 40.2292 1.24816 40.4275 1.20851C40.5068 1.20851 40.5464 1.20851 40.6257 1.20851C40.5464 1.12921 40.5464 1.12921 40.6257 1.16886C40.5464 1.04992 40.4275 0.930967 40.3482 0.812019C40.7447 2.51694 41.1412 4.22187 41.5376 5.92679C41.6566 6.71978 42.8064 6.40258 42.6082 5.64924Z" fill="#7A65FC"/>
<path d="M8.03392 27.9718C6.84444 28.2494 5.65496 28.5269 4.42583 28.8045C4.10863 28.8838 3.79144 28.9631 3.47424 29.0424C3.19669 29.1217 2.83985 29.1217 2.6416 29.3199C2.28476 29.6768 2.40371 30.2715 2.40371 30.7077C2.40371 33.2056 2.40371 35.7035 2.40371 38.241C2.40371 38.5979 2.8002 38.9547 3.15705 38.7961C3.23634 38.7565 3.19669 38.7961 3.07775 38.8358C3.19669 38.8754 3.31564 38.8754 3.43459 38.9151C3.67249 38.9944 3.91038 39.034 4.10863 39.1133C4.54477 39.2323 4.98092 39.3512 5.41706 39.4702C6.329 39.7477 7.20128 40.0253 8.07357 40.3425C8.78726 40.62 9.10445 39.4702 8.39076 39.1926C7.43918 38.8358 6.44794 38.5186 5.49636 38.241C5.02057 38.1221 4.54477 37.9635 4.10863 37.8445C3.75179 37.7652 3.23634 37.5273 2.8795 37.6463C3.1174 37.8445 3.39494 38.0428 3.63284 38.2014C3.63284 36.774 3.63284 35.3466 3.63284 33.9193C3.63284 33.2056 3.63284 32.4919 3.63284 31.7782C3.63284 31.461 3.63284 31.1438 3.63284 30.787C3.63284 30.5887 3.67249 30.3905 3.63284 30.1922C3.63284 30.1129 3.63284 30.0733 3.63284 29.994C3.55354 30.0733 3.55354 30.0733 3.59319 29.994C3.47424 30.0733 3.35529 30.1922 3.23634 30.2715C4.94127 29.875 6.64619 29.4785 8.35111 29.082C9.10445 28.9234 8.78726 27.7736 8.03392 27.9718Z" fill="#7A65FC"/>
<path d="M64.3757 29.1217C66.0806 29.5182 67.7855 29.9147 69.4905 30.3112C69.3715 30.2319 69.2526 30.1129 69.1336 30.0336C69.1733 30.0733 69.1336 29.9147 69.094 30.1922C69.094 30.3508 69.094 30.5094 69.094 30.668C69.094 31.0249 69.094 31.3817 69.094 31.7385C69.094 32.4522 69.094 33.1659 69.094 33.8796C69.094 35.307 69.094 36.7344 69.094 38.1617C69.3319 37.9635 69.6094 37.7652 69.8473 37.6066C69.4905 37.4877 69.0543 37.6859 68.7371 37.8049C68.2217 37.9635 67.7062 38.1221 67.1908 38.2807C66.1996 38.5979 65.2083 38.9547 64.2567 39.3116C63.5431 39.5891 63.8603 40.739 64.5739 40.4614C65.4462 40.1442 66.3582 39.827 67.2701 39.5098C67.7459 39.3512 68.182 39.2323 68.6578 39.0737C68.8957 38.9944 69.094 38.9547 69.3319 38.8754C69.4508 38.8358 69.5698 38.8358 69.6491 38.7961C69.5301 38.7565 69.4905 38.7565 69.5698 38.7565C69.9266 38.8754 70.3231 38.5582 70.3231 38.2014C70.3231 35.7035 70.3231 33.2056 70.3231 30.668C70.3231 30.2319 70.442 29.6371 70.0852 29.2803C69.887 29.082 69.6094 29.082 69.3319 29.0027C69.0147 28.9234 68.6975 28.8441 68.3803 28.7648C67.1512 28.4873 65.922 28.1701 64.6929 27.8925C63.9396 27.7736 63.6224 28.9234 64.3757 29.1217Z" fill="#7A65FC"/>
<path d="M20.6821 9.57453C19.6512 8.94014 18.5807 8.4247 17.5101 7.86961C17.2326 7.71101 16.955 7.55241 16.6775 7.39382C16.4396 7.23522 16.162 7.03697 15.8845 6.99732C15.4087 6.99732 15.0519 7.51276 14.7347 7.82996C12.9504 9.61418 11.2059 11.3588 9.42165 13.143C9.18375 13.3809 9.18375 13.8963 9.5406 14.0946C9.58025 14.1342 9.58025 14.0946 9.4613 14.0549C9.5406 14.1739 9.58025 14.2532 9.65954 14.3721C9.73884 14.5307 9.85779 14.6893 9.93709 14.8479C10.175 15.2444 10.3732 15.6805 10.6111 16.077C11.0473 16.87 11.4041 17.7027 11.8006 18.5353C12.1178 19.249 13.1487 18.6146 12.8315 17.9406C12.435 17.0286 11.9989 16.1167 11.5231 15.2444C11.2852 14.8083 11.0473 14.3721 10.8094 13.936C10.6508 13.6584 10.4922 13.2223 10.175 13.0637C10.2146 13.3809 10.2543 13.6981 10.2939 14.0153C11.3248 12.9844 12.3161 11.9931 13.3469 10.9623C13.8624 10.4468 14.3778 9.93138 14.8536 9.45559C15.0915 9.21769 15.3294 8.97979 15.5277 8.78155C15.6466 8.6626 15.8448 8.504 15.9241 8.38505C15.9638 8.3454 16.0034 8.30575 16.0431 8.2661C15.9638 8.2661 15.9241 8.2661 16.0034 8.2661C15.8448 8.22645 15.6863 8.22645 15.5277 8.1868C16.9947 9.05909 18.541 9.77278 20.008 10.6847C20.7217 11.0019 21.3165 9.97103 20.6821 9.57453Z" fill="#7A65FC"/>
<path d="M52.3223 10.4865C53.7497 9.61418 55.2563 8.8212 56.7234 7.94891C56.5648 7.98856 56.4062 7.98856 56.2476 8.02821C56.3269 8.02821 56.3269 8.02821 56.2476 8.02821C56.1683 8.02821 56.1683 8.06786 56.3665 8.14716C56.4855 8.2661 56.6044 8.38505 56.7234 8.504C56.9613 8.7419 57.2388 9.01944 57.4767 9.25734C57.9921 9.77278 58.5076 10.2882 58.9834 10.764C60.0143 11.7949 61.0055 12.7861 62.0364 13.817C62.076 13.4998 62.1157 13.1826 62.1553 12.8654C61.8381 13.024 61.6795 13.4602 61.5209 13.7377C61.283 14.1739 61.0451 14.6497 60.8469 15.1254C60.4504 16.0374 60.0539 16.9493 59.6574 17.8613C59.3402 18.5353 60.3711 19.1697 60.6883 18.456C61.0451 17.6234 61.402 16.7907 61.7588 15.9581C61.9174 15.5616 62.1157 15.2047 62.2743 14.8083C62.3932 14.61 62.4725 14.3721 62.5915 14.1739C62.6311 14.0549 62.7104 13.9756 62.7501 13.8567C62.6311 13.8963 62.6311 13.936 62.6708 13.8963C63.0276 13.7377 63.0276 13.2223 62.7897 12.9447C61.0055 11.1605 59.2609 9.41594 57.4767 7.63171C57.1595 7.31452 56.8423 6.79908 56.3269 6.79908C56.0493 6.79908 55.8511 6.99732 55.6132 7.11627C55.3356 7.27487 55.0581 7.43347 54.7805 7.59206C53.71 8.18681 52.6395 8.78155 51.6086 9.41594C51.0535 9.85208 51.6482 10.883 52.3223 10.4865Z" fill="#7A65FC"/>
<path d="M41.6566 61.9117C41.2601 63.6166 40.6654 65.3216 40.2689 67.0265C40.3482 66.9075 40.4671 66.7886 40.5464 66.6696C40.5068 66.7093 40.6654 66.6696 40.3878 66.63C40.2292 66.63 40.0706 66.63 39.912 66.63C39.5552 66.63 39.1983 66.63 38.8415 66.63C38.1278 66.63 37.4141 66.63 36.7004 66.63C35.273 66.63 33.8457 66.63 32.4183 66.63C32.6165 66.8679 32.8148 67.1454 32.9734 67.3833C33.0923 67.0661 32.8941 66.63 32.8148 66.3128C32.6562 65.7974 32.4976 65.3216 32.339 64.8061C32.0218 63.8545 31.6253 62.903 31.2685 61.9514C30.9909 61.2377 29.8411 61.5549 30.1186 62.2686C30.4358 63.1408 30.7927 63.9735 31.1099 64.8458C31.2685 65.2423 31.3874 65.6784 31.5064 66.0749C31.5857 66.3128 31.665 66.5507 31.7046 66.7886C31.7442 66.9075 31.7839 67.0265 31.7839 67.1454C31.8236 67.0265 31.8235 66.9868 31.8235 67.0661C31.7046 67.423 32.0218 67.8195 32.3786 67.8195C34.9162 67.8195 37.4538 67.8195 39.9913 67.8195C40.4275 67.8195 41.0222 67.9384 41.3394 67.5419C41.498 67.304 41.5376 66.9868 41.6169 66.7093C41.6962 66.4317 41.7755 66.1542 41.8548 65.8767C42.2117 64.6475 42.5685 63.458 42.8857 62.2289C43.0047 61.4756 41.8548 61.1584 41.6566 61.9117Z" fill="#7A65FC"/>
<path d="M51.7275 58.5019C52.7584 59.1363 53.7893 59.731 54.8202 60.3654C55.3356 60.6429 55.8114 60.9601 56.2872 61.2773C56.8423 61.6342 57.1595 61.4359 57.5956 60.9998C59.4988 59.0966 61.3623 57.2331 63.2655 55.3299C63.5034 55.092 63.5034 54.5766 63.1466 54.3783C63.0673 54.3387 63.2259 54.418 63.2259 54.418C63.1466 54.299 63.1069 54.1801 63.0276 54.0611C62.9087 53.8629 62.8294 53.6646 62.7104 53.4664C62.4725 53.0303 62.2346 52.5545 61.9967 52.0787C61.5606 51.2064 61.1244 50.3341 60.728 49.4222C60.4108 48.7085 59.3799 49.3429 59.6971 50.0169C60.1332 51.0081 60.609 51.9597 61.0848 52.9113C61.3227 53.3871 61.5606 53.8232 61.7985 54.2594C61.9967 54.5766 62.195 55.1713 62.5518 55.3299C62.5122 55.0127 62.4725 54.6955 62.4329 54.3783C61.402 55.4092 60.4108 56.4005 59.3799 57.4313C58.8644 57.9468 58.349 58.4622 57.8732 58.938C57.6353 59.1759 57.3974 59.4138 57.1992 59.6121C57.0802 59.731 56.882 59.8896 56.8027 60.0085C56.763 60.0482 56.7234 60.0878 56.6837 60.1275C56.763 60.1275 56.8027 60.1275 56.7234 60.1275C56.882 60.1671 57.0406 60.1671 57.1992 60.2068C55.6132 59.2156 53.9876 58.3036 52.4412 57.352C51.6879 57.0745 51.0932 58.1054 51.7275 58.5019Z" fill="#7A65FC"/>
<path d="M24.8453 36.2189C19.4133 41.6509 13.9417 47.1225 8.50971 52.5545C6.96339 54.1008 5.41706 55.6471 3.91038 57.1538C3.35529 57.7089 4.22758 58.5415 4.74302 57.9864C10.175 52.5545 15.6466 47.0829 21.0786 41.6509C22.6249 40.1046 24.1712 38.5582 25.6779 37.0516C26.233 36.5361 25.4003 35.7035 24.8453 36.2189Z" fill="#7A65FC"/>
<path d="M33.0527 44.5453C27.5811 50.0169 22.0698 55.5282 16.5982 60.9998C15.0519 62.5461 13.4659 64.1321 11.9196 65.6784C11.3645 66.2335 12.2368 67.0661 12.7522 66.511C18.2238 61.0394 23.7351 55.5282 29.2067 50.0566C30.753 48.5102 32.339 46.9243 33.8853 45.3779C34.4404 44.8228 33.5681 43.9902 33.0527 44.5453Z" fill="#7A65FC"/>
<path d="M4.02933 57.2727C3.31564 57.6692 2.8002 58.4226 2.32441 59.057C1.72967 59.7707 1.21423 60.524 0.817732 61.3566C0.104043 62.9426 -0.0942036 64.8854 0.540186 66.511C1.69002 69.4055 5.25846 70.6346 8.11322 69.683C9.89744 69.0883 11.3645 67.8591 12.6332 66.511C13.1487 65.956 12.3161 65.1233 11.8006 65.6784C9.97674 67.6212 7.59778 69.3658 4.78267 68.6521C3.63284 68.3746 2.5623 67.7005 1.92791 66.6696C1.17458 65.4009 1.21423 63.7356 1.69002 62.3875C1.96756 61.5549 2.44336 60.8015 2.9588 60.1275C3.23634 59.7707 3.51389 59.4535 3.79144 59.1363C4.02933 58.8191 4.26723 58.5019 4.62407 58.3036C5.29811 57.9071 4.70337 56.8762 4.02933 57.2727Z" fill="#7A65FC"/>
<path d="M3.95003 58.1054C6.60654 60.7619 9.2234 63.3787 11.8799 66.0352C12.435 66.5903 13.2676 65.7181 12.7125 65.2026C10.056 62.5461 7.43918 59.9292 4.78267 57.2727C4.26723 56.7176 3.43459 57.5503 3.95003 58.1054Z" fill="#7A65FC"/>
<path d="M25.3211 36.9326C25.0832 36.9326 24.8453 36.774 24.766 36.5361C24.647 36.2189 24.8056 35.9017 25.1228 35.7828L38.6036 31.0249C38.9208 30.9059 39.238 31.0645 39.3569 31.3817C39.4759 31.6989 39.3173 32.0161 39.0001 32.135L25.5193 36.893C25.44 36.9326 25.4004 36.9326 25.3211 36.9326Z" fill="#7A65FC"/>
<path d="M33.6474 45.259C33.5681 45.259 33.4888 45.259 33.4492 45.2193C33.132 45.1004 33.013 44.7435 33.132 44.466L38.2864 31.3817C38.4053 31.0645 38.7622 30.9456 39.0397 31.0645C39.3569 31.1834 39.4759 31.5403 39.3569 31.8178L34.2025 44.9021C34.1232 45.1004 33.8853 45.259 33.6474 45.259Z" fill="#7A65FC"/>
</g>
</svg>
