<svg width="74" height="70" viewBox="0 0 74 70" fill="none" xmlns="http://www.w3.org/2000/svg">
<g id="Vector">
<path d="M67.6559 51.934H6.8442C3.55948 51.934 0.851807 49.2264 0.851807 45.9417V5.99239C0.851807 2.70767 3.51509 0 6.8442 0H67.6559C70.9406 0 73.6482 2.70767 73.6482 5.99239V45.9417C73.6482 49.2708 70.985 51.934 67.6559 51.934ZM6.8442 1.33164C4.26969 1.33164 2.18345 3.41788 2.18345 5.99239V45.9417C2.18345 48.5162 4.26969 50.6024 6.8442 50.6024H67.6559C70.2304 50.6024 72.3166 48.5162 72.3166 45.9417V5.99239C72.3166 3.41788 70.2304 1.33164 67.6559 1.33164H6.8442Z" fill="#7A65FC"/>
<path d="M31.0801 66.1382V50.7356H43.4644V66.1382H31.0801ZM32.4117 64.8066H42.1327V52.0672H32.4117V64.8066Z" fill="#7A65FC"/>
<path d="M52.6527 66.1382H22.0249C21.6698 66.1382 21.3591 65.8275 21.3591 65.4724C21.3591 65.1173 21.6698 64.8066 22.0249 64.8066H52.6527C53.0078 64.8066 53.3185 65.1173 53.3185 65.4724C53.3185 65.8275 53.0078 66.1382 52.6527 66.1382Z" fill="#7A65FC"/>
<path d="M59.7548 70H14.9228C14.5677 70 14.257 69.6893 14.257 69.3342C14.257 68.9791 14.5677 68.6684 14.9228 68.6684H59.7104C60.0655 68.6684 60.3762 68.9791 60.3762 69.3342C60.3762 69.6893 60.1099 70 59.7548 70Z" fill="#7A65FC"/>
<path d="M73.2488 42.4794H1.2513V43.811H73.2488V42.4794Z" fill="#7A65FC"/>
<path d="M42.5766 47.8503H31.9235C31.5684 47.8503 31.2576 47.5396 31.2576 47.1845C31.2576 46.8294 31.5684 46.5187 31.9235 46.5187H42.5766C42.9317 46.5187 43.2424 46.8294 43.2424 47.1845C43.2424 47.5396 42.9317 47.8503 42.5766 47.8503Z" fill="#7A65FC"/>
<path d="M66.2798 39.1059H8.22023C6.88858 39.1059 5.77888 37.9962 5.77888 36.6646V6.48066C5.77888 5.14902 6.88858 4.03932 8.22023 4.03932H66.2354C67.5671 4.03932 68.6768 5.14902 68.6768 6.48066V36.6646C68.7212 37.9962 67.6115 39.1059 66.2798 39.1059ZM8.22023 5.37096C7.59879 5.37096 7.11052 5.85923 7.11052 6.48066V36.6646C7.11052 37.286 7.59879 37.7743 8.22023 37.7743H66.2354C66.8569 37.7743 67.3451 37.286 67.3451 36.6646V6.48066C67.3451 5.85923 66.8569 5.37096 66.2354 5.37096H8.22023Z" fill="#7A65FC"/>
<path d="M41.9108 33.0247H32.5893C30.9913 33.0247 29.7041 31.7375 29.7041 30.1395V21.2619C29.7041 19.6639 30.9913 18.3767 32.5893 18.3767H41.9108C43.5087 18.3767 44.796 19.6639 44.796 21.2619V30.1395C44.796 31.6931 43.5087 33.0247 41.9108 33.0247ZM32.5893 19.7083C31.7459 19.7083 31.0357 20.4185 31.0357 21.2619V30.1395C31.0357 30.9829 31.7459 31.6931 32.5893 31.6931H41.9108C42.7541 31.6931 43.4644 30.9829 43.4644 30.1395V21.2619C43.4644 20.4185 42.7541 19.7083 41.9108 19.7083H32.5893Z" fill="#7A65FC"/>
<path d="M32.6781 19.3532C32.323 19.3532 32.0122 19.0425 32.0122 18.6874V15.0476C32.0122 12.1623 34.3648 9.80976 37.25 9.80976C40.1353 9.80976 42.4878 12.1623 42.4878 15.0476V18.4211C42.4878 18.7762 42.1771 19.0869 41.822 19.0869C41.4669 19.0869 41.1562 18.7762 41.1562 18.4211V15.0476C41.1562 12.8725 39.3807 11.1414 37.25 11.1414C35.1194 11.1414 33.3439 12.9169 33.3439 15.0476V18.6874C33.3439 19.0869 33.0332 19.3532 32.6781 19.3532Z" fill="#7A65FC"/>
<path d="M37.25 26.1446C36.451 26.1446 35.8296 25.5231 35.8296 24.7242C35.8296 23.9252 36.451 23.3037 37.25 23.3037C38.049 23.3037 38.6704 23.9252 38.6704 24.7242C38.6704 25.5231 38.049 26.1446 37.25 26.1446ZM37.25 24.591C37.2056 24.591 37.1613 24.6354 37.1613 24.6798C37.1613 24.7685 37.3388 24.7685 37.3388 24.6798C37.3388 24.6354 37.2944 24.591 37.25 24.591Z" fill="#7A65FC"/>
<path d="M37.25 28.8966C36.8949 28.8966 36.5842 28.5859 36.5842 28.2308V24.6798C36.5842 24.3247 36.8949 24.0139 37.25 24.0139C37.6051 24.0139 37.9158 24.3247 37.9158 24.6798V28.2308C37.9158 28.6303 37.6051 28.8966 37.25 28.8966Z" fill="#7A65FC"/>
</g>
</svg>
