<svg width="81" height="70" viewBox="0 0 81 70" fill="none" xmlns="http://www.w3.org/2000/svg">
<g id="Vector">
<path d="M32.2383 31.2983C27.7608 31.2983 24.0812 27.6631 24.0812 23.1412C24.0812 18.6194 27.7164 14.9842 32.2383 14.9842C36.7601 14.9842 40.3954 18.6194 40.3954 23.1412C40.3954 27.6631 36.7158 31.2983 32.2383 31.2983ZM32.2383 16.3585C28.4701 16.3585 25.4112 19.4174 25.4112 23.1856C25.4112 26.9538 28.5144 29.9683 32.2383 29.9683C36.0065 29.9683 39.0654 26.9094 39.0654 23.1412C39.0654 19.373 36.0065 16.3585 32.2383 16.3585Z" fill="#7A65FC"/>
<path d="M32.2383 39.677C28.4701 39.677 24.7462 38.3471 21.8203 35.9975C21.5543 35.7758 21.51 35.3325 21.7316 35.0665C21.9533 34.8005 22.3966 34.7562 22.6626 34.9778C25.3669 37.1501 28.7361 38.3914 32.2383 38.3914C38.0458 38.3914 43.2769 35.1552 45.8482 29.9683C46.0255 29.658 46.4245 29.525 46.7348 29.658C47.0451 29.8353 47.1781 30.2343 47.0451 30.5447C44.2522 36.1305 38.5778 39.677 32.2383 39.677Z" fill="#7A65FC"/>
<path d="M16.4562 25.1805C16.1015 25.1805 15.8355 24.9145 15.7912 24.5599C15.7468 24.0722 15.7468 23.5845 15.7468 23.0969C15.7468 14.0089 23.1503 6.60545 32.2383 6.60545C39.7747 6.60545 46.3358 11.7036 48.2421 18.974C48.3308 19.3287 48.1091 19.6833 47.7544 19.772C47.3998 19.8607 47.0451 19.639 46.9565 19.2844C45.2275 12.6346 39.1541 7.97974 32.2383 7.97974C23.8596 7.97974 17.0768 14.8068 17.0768 23.1412C17.0768 23.5845 17.0768 24.0279 17.1211 24.4712C17.1655 24.8258 16.8995 25.1805 16.5005 25.1805C16.5005 25.1805 16.5005 25.1805 16.4562 25.1805Z" fill="#7A65FC"/>
<path d="M32.2383 46.3268C26.9628 46.3268 21.8203 44.5092 17.7418 41.2286C17.4758 41.007 17.3871 40.5637 17.6531 40.2977C17.8748 40.0317 18.3181 39.943 18.5841 40.209C22.4853 43.3566 27.2288 44.9968 32.2383 44.9968C40.4397 44.9968 47.8874 40.475 51.6556 33.1602C51.833 32.8499 52.232 32.7169 52.5423 32.8942C52.8526 33.0716 52.9856 33.4706 52.8083 33.7809C48.8627 41.5389 40.9717 46.3268 32.2383 46.3268Z" fill="#7A65FC"/>
<path d="M10.0724 27.7961C9.76204 27.7961 9.49605 27.5744 9.40739 27.2641C9.18573 25.9341 9.05273 24.5598 9.05273 23.1856C9.05273 10.418 19.4707 0 32.2383 0C43.1883 0 52.764 7.8024 54.9362 18.5307C55.0249 18.8854 54.7589 19.24 54.4042 19.3287C54.0496 19.4174 53.6949 19.1514 53.6063 18.7967C51.5227 8.68905 42.5233 1.32996 32.194 1.32996C20.1357 1.32996 10.3384 11.1273 10.3384 23.1856C10.3384 24.4712 10.4714 25.7568 10.693 27.0424C10.7373 27.3971 10.5157 27.7517 10.161 27.7961C10.161 27.7517 10.1167 27.7961 10.0724 27.7961Z" fill="#7A65FC"/>
<path d="M62.4726 31.7416C59.591 31.7416 57.2858 29.392 57.2858 26.5548C57.2858 23.6732 59.6354 21.368 62.4726 21.368C65.3099 21.368 67.6595 23.7175 67.6595 26.5548C67.6595 29.392 65.3542 31.7416 62.4726 31.7416ZM62.4726 22.6979C60.3447 22.6979 58.6157 24.4269 58.6157 26.5548C58.6157 28.6827 60.3447 30.4117 62.4726 30.4117C64.6006 30.4117 66.3295 28.6827 66.3295 26.5548C66.3295 24.4269 64.6006 22.6979 62.4726 22.6979Z" fill="#7A65FC"/>
<path d="M75.5062 19.0627C72.5803 19.0627 70.1864 16.6688 70.1864 13.7429C70.1864 10.817 72.5803 8.42305 75.5062 8.42305C78.4321 8.42305 80.826 10.817 80.826 13.7429C80.826 16.6688 78.4321 19.0627 75.5062 19.0627ZM75.5062 9.79734C73.3339 9.79734 71.5163 11.5706 71.5163 13.7872C71.5163 15.9595 73.2896 17.7771 75.5062 17.7771C77.7228 17.7771 79.4961 16.0038 79.4961 13.7872C79.4517 11.5706 77.6785 9.79734 75.5062 9.79734Z" fill="#7A65FC"/>
<path d="M6.21549 45.6618C3.1566 45.6618 0.674011 43.1792 0.674011 40.1203C0.674011 37.0614 3.1566 34.5788 6.21549 34.5788C9.27439 34.5788 11.757 37.0614 11.757 40.1203C11.757 43.1792 9.27439 45.6618 6.21549 45.6618ZM6.21549 35.9088C3.91024 35.9088 2.00397 37.8151 2.00397 40.1203C2.00397 42.4256 3.91024 44.3319 6.21549 44.3319C8.52075 44.3319 10.427 42.4256 10.427 40.1203C10.427 37.8151 8.52075 35.9088 6.21549 35.9088Z" fill="#7A65FC"/>
<path d="M69.2997 70C68.3244 70 67.4378 69.6453 66.7285 68.936L48.8184 51.026C47.3998 49.6073 47.3998 47.3464 48.8184 45.9278C49.4834 45.2628 50.4144 44.8638 51.3897 44.8638C52.365 44.8638 53.2516 45.2185 53.9609 45.9278L71.871 63.8379C73.2896 65.2565 73.2896 67.5174 71.871 68.936C71.1617 69.6453 70.2307 70 69.2997 70ZM51.3453 46.1938C50.769 46.1938 50.1927 46.4155 49.7494 46.8588C48.8627 47.7454 48.8627 49.2084 49.7494 50.095L67.6595 68.0051C68.5461 68.8917 70.009 68.8917 70.8957 68.0051C71.7823 67.1184 71.7823 65.6555 70.8957 64.7688L52.9856 46.8588C52.5423 46.4155 51.9216 46.1938 51.3453 46.1938Z" fill="#7A65FC"/>
<path d="M44.5626 42.5143C46.0255 43.9772 47.4885 45.4402 48.9514 46.9031C49.2174 47.1691 49.6164 47.1691 49.8824 46.9031C50.1484 46.6371 50.1484 46.2381 49.8824 45.9721C48.4194 44.5092 46.9565 43.0462 45.4935 41.5833C45.2275 41.3173 44.8285 41.3173 44.5626 41.5833C44.2966 41.8493 44.2966 42.2483 44.5626 42.5143Z" fill="#7A65FC"/>
<path d="M9.93937 37.2831C9.71771 37.2831 9.54038 37.1944 9.40739 37.0171C9.18573 36.7068 9.27439 36.3078 9.58471 36.0861L24.7462 25.2692C25.0565 25.0475 25.4555 25.1362 25.6772 25.4465C25.8988 25.7568 25.8102 26.1558 25.4999 26.3775L10.3384 37.1501C10.2054 37.2388 10.0724 37.2831 9.93937 37.2831Z" fill="#7A65FC"/>
<path d="M57.6404 28.0177C57.5961 28.0177 57.5075 28.0177 57.4631 28.0177L39.686 23.3186C39.3314 23.2299 39.1097 22.8752 39.1984 22.5206C39.2871 22.1659 39.6417 21.9443 39.9964 22.0329L57.8178 26.6878C58.1724 26.7764 58.3941 27.1311 58.3054 27.4858C58.2168 27.7961 57.9508 28.0177 57.6404 28.0177Z" fill="#7A65FC"/>
<path d="M66.2408 24.4712C66.0635 24.4712 65.9305 24.4269 65.7975 24.2939C65.5315 24.0722 65.4872 23.6289 65.7532 23.3629L71.6493 16.6688C71.871 16.4028 72.3143 16.3585 72.5803 16.6244C72.8463 16.8461 72.8906 17.2894 72.6246 17.5554L66.7285 24.2495C66.6398 24.4269 66.4625 24.4712 66.2408 24.4712Z" fill="#7A65FC"/>
</g>
</svg>
