<svg width="70" height="70" viewBox="0 0 70 70" fill="none" xmlns="http://www.w3.org/2000/svg">
<g id="Vector">
<path d="M35 64.3359C18.8281 64.3359 5.66406 51.1719 5.66406 35C5.66406 18.8281 18.8281 5.66406 35 5.66406C51.1719 5.66406 64.3359 18.8281 64.3359 35C64.3359 51.1719 51.1719 64.3359 35 64.3359ZM35 6.83594C19.4531 6.83594 6.83594 19.4531 6.83594 35C6.83594 50.5469 19.4531 63.1641 35 63.1641C50.5469 63.1641 63.1641 50.5469 63.1641 35C63.1641 19.4531 50.5469 6.83594 35 6.83594Z" fill="#7A65FC"/>
<path d="M35 70C15.7031 70 0 54.2969 0 35C0 15.7031 15.7031 0 35 0C54.2969 0 70 15.7031 70 35C70 54.2969 54.2969 70 35 70ZM35 1.17187C16.3672 1.17187 1.17187 16.3281 1.17187 35C1.17187 53.6328 16.3281 68.8281 35 68.8281C53.6328 68.8281 68.8281 53.6719 68.8281 35C68.8281 16.3672 53.6328 1.17187 35 1.17187Z" fill="#7A65FC"/>
<path d="M35.0781 25.625C31.875 25.625 29.2578 23.0078 29.2578 19.8047C29.2578 16.6016 31.875 13.9844 35.0781 13.9844C38.2812 13.9844 40.8984 16.6016 40.8984 19.8047C40.8984 23.0078 38.3203 25.625 35.0781 25.625ZM35.0781 15.1562C32.5 15.1562 30.4297 17.2266 30.4297 19.8047C30.4297 22.3828 32.5391 24.4531 35.0781 24.4531C37.6562 24.4531 39.7266 22.3828 39.7266 19.8047C39.7266 17.2266 37.6562 15.1562 35.0781 15.1562Z" fill="#7A65FC"/>
<path d="M42.6172 55.2734C41.2891 55.2734 40.0781 54.6094 39.3359 53.5156L35.8984 48.3984C35.7422 48.125 35.4688 48.0078 35.1562 48.0078C34.8438 48.0078 34.5703 48.1641 34.4141 48.3984L30.9766 53.5156C30.2344 54.6094 29.0234 55.2734 27.6953 55.2734C26.6797 55.2734 25.7031 54.8828 24.9609 54.1797C23.5938 52.8906 23.3984 50.7031 24.4922 49.0625L29.4922 41.6406C29.4531 41.4453 29.4531 41.25 29.4531 41.0937V36.5234C29.4531 35.7422 28.8672 35.1172 28.125 35.0391C25.625 34.7266 22.8906 34.2578 19.4531 33.5938C17.3047 33.1641 15.8594 31.0937 16.25 28.9844C16.4453 27.9297 17.0312 27.0312 17.9297 26.4453C18.8281 25.8594 19.8828 25.625 20.8984 25.8594C32.9297 28.2812 38.2422 28.2422 49.2578 25.6641C50.2734 25.4297 51.3672 25.5859 52.2656 26.1719C53.1641 26.7187 53.7891 27.6172 54.0234 28.6719C54.4922 30.7812 53.125 32.8516 50.9766 33.3594C46.875 34.3359 43.6719 34.8828 40.7031 35.2344V41.1719C40.7031 41.2891 40.7422 41.4453 40.8203 41.6016L45.9375 49.2187C47.1484 51.0156 46.6797 53.4766 44.8828 54.6875C44.1406 55.0391 43.3984 55.2734 42.6172 55.2734ZM35.1172 46.8359C35.8203 46.8359 36.4453 47.1875 36.8359 47.7734L40.2734 52.8906C40.7812 53.6719 41.6406 54.1016 42.5781 54.1016C43.125 54.1016 43.6719 53.9453 44.1016 53.6328C45.3516 52.7734 45.7031 51.0547 44.8438 49.8047L39.7266 42.1875C39.5312 41.875 39.4141 41.5234 39.4141 41.0937V34.1016L39.9609 34.0625C43.0078 33.75 46.2891 33.1641 50.5859 32.1875C52.1094 31.8359 53.0859 30.3516 52.7734 28.8672C52.6172 28.125 52.1875 27.5391 51.5625 27.1094C50.9375 26.7188 50.1953 26.6016 49.4531 26.7578C38.2031 29.375 32.8125 29.4141 20.5859 26.9922C19.8438 26.8359 19.1016 26.9922 18.5156 27.4219C17.8906 27.8516 17.5 28.4766 17.3438 29.2187C17.0703 30.7031 18.0859 32.1484 19.6484 32.4609C23.0469 33.125 25.7812 33.5937 28.2031 33.9062C29.5312 34.0625 30.5469 35.2344 30.5469 36.5625V41.1328C30.5469 41.3281 30.5469 41.5234 30.5859 41.7578L30.625 41.9922L30.5078 42.1875L25.3906 49.7656C24.6094 50.9375 24.7656 52.4609 25.7031 53.3594C26.2109 53.8672 26.9141 54.1406 27.6172 54.1406C28.5547 54.1406 29.4141 53.6719 29.9219 52.9297L33.3594 47.8125C33.7891 47.1484 34.4531 46.8359 35.1172 46.8359Z" fill="#7A65FC"/>
</g>
</svg>
