<svg width="80" height="70" viewBox="0 0 80 70" fill="none" xmlns="http://www.w3.org/2000/svg">
<g id="Vector">
<path d="M30.8467 48.5203C30.7989 48.5203 30.7512 48.5203 30.7035 48.5203C30.3216 48.4248 30.0829 48.043 30.1784 47.6611L32.1832 38.5442C32.2787 38.1623 32.6605 37.9236 33.0424 38.0191C33.4242 38.1146 33.6629 38.4964 33.5674 38.8783L31.5627 47.9952C31.4672 48.2816 31.1808 48.5203 30.8467 48.5203Z" fill="#7A65FC"/>
<path d="M32.8514 39.3556C32.5173 39.3556 32.1832 39.0692 32.1355 38.7351L30.8944 28.9499C30.8467 28.568 31.1331 28.1862 31.5149 28.1384C31.8968 28.0907 32.2787 28.3771 32.3264 28.7589L33.5674 38.5442C33.6152 38.926 33.3288 39.3079 32.9469 39.3556C32.8992 39.3556 32.8992 39.3556 32.8514 39.3556Z" fill="#7A65FC"/>
<path d="M31.6104 29.5704C31.5627 29.5704 31.5627 29.5704 31.5149 29.5704C31.1331 29.5227 30.8467 29.1885 30.8944 28.8067L31.6581 21.5036C31.7059 21.1217 32.04 20.8353 32.4218 20.8831C32.8037 20.9308 33.0901 21.2649 33.0424 21.6468L32.2787 28.9021C32.2787 29.284 31.9445 29.5704 31.6104 29.5704Z" fill="#7A65FC"/>
<path d="M30.6557 23.7947C30.4648 23.7947 30.2739 23.6993 30.1307 23.5561C29.892 23.2697 29.892 22.7924 30.1784 22.5537L31.8968 21.074C32.1832 20.8353 32.6605 20.8353 32.8992 21.1217C33.1378 21.4081 33.1378 21.8854 32.8514 22.1241L31.1331 23.6038C30.9899 23.747 30.7989 23.7947 30.6557 23.7947Z" fill="#7A65FC"/>
<path d="M28.6032 29.9045C28.5555 29.9045 28.46 29.9045 28.4123 29.8568C28.0304 29.7613 27.8395 29.3317 27.935 28.9499L29.8443 22.7924C29.9397 22.4105 30.3693 22.2196 30.7512 22.315C31.1331 22.4105 31.324 22.8401 31.2285 23.222L29.3192 29.3795C29.2238 29.7136 28.9374 29.9045 28.6032 29.9045Z" fill="#7A65FC"/>
<path d="M24.9278 28.9499C24.8801 28.9499 24.7846 28.9499 24.7369 28.9499C24.355 28.8544 24.1164 28.4726 24.2118 28.0907L26.0734 20.9308C26.1689 20.5489 26.5507 20.3103 26.9326 20.4057C27.3145 20.5012 27.5531 20.8831 27.4576 21.2649L25.5961 28.4248C25.5483 28.7589 25.2619 28.9499 24.9278 28.9499Z" fill="#7A65FC"/>
<path d="M26.7894 21.79C26.5985 21.79 26.4075 21.6945 26.2643 21.5513C25.9779 21.2649 26.0257 20.7876 26.3121 20.5489L33.0901 14.4869C33.3765 14.2005 33.8538 14.2482 34.0925 14.5346C34.3789 14.821 34.3312 15.2983 34.0448 15.537L27.2667 21.6468C27.1235 21.7422 26.9803 21.79 26.7894 21.79Z" fill="#7A65FC"/>
<path d="M41.9207 29.284C41.5388 29.284 41.2047 28.9499 41.2047 28.568V16.3484C41.2047 15.9666 41.5388 15.6325 41.9207 15.6325C42.3025 15.6325 42.6366 15.9666 42.6366 16.3484V28.568C42.6366 28.9499 42.3025 29.284 41.9207 29.284Z" fill="#7A65FC"/>
<path d="M48.651 32.864C48.5555 32.864 48.4123 32.8162 48.3168 32.7685L41.5865 29.1885C41.2524 28.9976 41.1092 28.568 41.3001 28.2339C41.4911 27.8998 41.9207 27.7566 42.2548 27.9475L48.9851 31.5274C49.3192 31.7184 49.4624 32.148 49.2715 32.4821C49.176 32.7208 48.8896 32.864 48.651 32.864Z" fill="#7A65FC"/>
<path d="M38.1498 39.4033C37.8156 39.4033 37.4815 39.1169 37.4338 38.7828L36.7655 33.2458C36.7178 32.864 37.0042 32.4821 37.3861 32.4344C37.7679 32.3866 38.1498 32.673 38.1975 33.0549L38.8658 38.5919C38.9135 38.9737 38.6271 39.3556 38.2452 39.4033C38.1975 39.4033 38.1498 39.4033 38.1498 39.4033Z" fill="#7A65FC"/>
<path d="M35.5722 50.4296C35.5245 50.4296 35.4767 50.4296 35.429 50.4296C35.0471 50.3341 34.8085 49.9523 34.9039 49.5704L37.4815 38.5442C37.577 38.1623 37.9588 37.9236 38.3407 38.0191C38.7226 38.1146 38.9612 38.4964 38.8658 38.8783L36.2882 49.9045C36.1927 50.1909 35.9063 50.4296 35.5722 50.4296Z" fill="#7A65FC"/>
<path d="M43.6868 36.3484C43.5913 36.3484 43.4958 36.3484 43.4004 36.3007L37.1474 33.8186C36.7655 33.6754 36.6223 33.2458 36.7655 32.9117C36.9087 32.5298 37.3383 32.3866 37.6724 32.5298L43.9254 35.0119C44.3073 35.1551 44.4505 35.5847 44.3073 35.9188C44.2596 36.2052 43.9732 36.3484 43.6868 36.3484Z" fill="#7A65FC"/>
<path d="M43.6868 45.1313C43.3049 45.1313 42.9708 44.7971 42.9708 44.4153V35.6325C42.9708 35.2506 43.3049 34.9165 43.6868 34.9165C44.0686 34.9165 44.4028 35.2506 44.4028 35.6325V44.4153C44.4028 44.7971 44.0686 45.1313 43.6868 45.1313Z" fill="#7A65FC"/>
<path d="M48.651 45.179C48.2691 45.179 47.935 44.8449 47.935 44.463V32.148C47.935 31.7661 48.2691 31.432 48.651 31.432C49.0328 31.432 49.367 31.7661 49.367 32.148V44.463C49.367 44.8449 49.0328 45.179 48.651 45.179Z" fill="#7A65FC"/>
<path d="M48.651 21.4081H41.9684C41.5865 21.4081 41.2524 21.074 41.2524 20.6921C41.2524 20.3103 41.5865 19.9761 41.9684 19.9761H48.651C49.0328 19.9761 49.367 20.3103 49.367 20.6921C49.367 21.074 49.0328 21.4081 48.651 21.4081Z" fill="#7A65FC"/>
<path d="M48.5555 25.0358H41.8729C41.4911 25.0358 41.1569 24.7017 41.1569 24.3198C41.1569 23.9379 41.4911 23.6038 41.8729 23.6038H48.5555C48.9374 23.6038 49.2715 23.9379 49.2715 24.3198C49.2715 24.7017 48.9851 25.0358 48.5555 25.0358Z" fill="#7A65FC"/>
<path d="M38.2452 11.0979C35.2381 11.0979 32.8037 8.66348 32.8037 5.65632C32.8037 2.64916 35.2381 0.214797 38.2452 0.214797C41.2524 0.214797 43.6868 2.64916 43.6868 5.65632C43.6868 8.66348 41.2524 11.0979 38.2452 11.0979ZM38.2452 1.64678C36.0495 1.64678 34.2357 3.46062 34.2357 5.65632C34.2357 7.85203 36.0495 9.66587 38.2452 9.66587C40.4409 9.66587 42.2548 7.85203 42.2548 5.65632C42.2548 3.46062 40.4409 1.64678 38.2452 1.64678Z" fill="#7A65FC"/>
<path d="M42.5412 17.1599C42.8276 16.3962 42.6844 15.2983 42.1116 14.7255C41.3956 14.0095 40.3932 13.5322 39.3908 13.2936C37.386 12.8162 35.1426 13.1981 33.3765 14.2482C32.6128 14.7255 33.3288 15.9666 34.0925 15.4893C35.429 14.6778 37.0996 14.2959 38.6271 14.5823C39.3908 14.7255 40.1545 15.0119 40.7751 15.4893C40.9183 15.5847 41.0615 15.6802 41.1569 15.8234C41.2047 15.8711 41.1569 15.7279 41.1569 15.8711C41.1569 15.9666 41.1569 15.9189 41.1569 15.9666C41.2047 16.253 41.2047 16.5394 41.1092 16.7303C40.966 17.1122 41.2524 17.494 41.5865 17.5895C42.0639 17.7327 42.398 17.494 42.5412 17.1599Z" fill="#7A65FC"/>
<path d="M48.5078 21.4081C48.5555 21.4081 48.6032 21.4558 48.651 21.4558C48.651 21.4558 48.7942 21.5036 48.6987 21.4558C48.6032 21.4081 48.7464 21.4558 48.7464 21.5036C48.7942 21.5036 48.8419 21.5513 48.8896 21.599C48.9851 21.6468 49.0328 21.6945 49.1283 21.7422C49.0806 21.6945 49.2238 21.8377 49.1283 21.7422C49.176 21.79 49.176 21.79 49.2238 21.8377C49.2715 21.8854 49.2715 21.9332 49.3192 21.9332C49.2715 21.8377 49.4147 22.0286 49.3192 21.9332C49.3192 21.9809 49.4147 22.1718 49.4624 22.1718C49.4147 22.0286 49.4147 22.1718 49.4624 22.1718C49.4624 22.2196 49.4624 22.2673 49.5102 22.315C49.5579 22.4582 49.5102 22.1718 49.5102 22.3628C49.5102 22.4105 49.5102 22.4582 49.5102 22.5537C49.5102 22.6014 49.5102 22.6492 49.5102 22.7446C49.5102 22.6492 49.5102 22.7446 49.5102 22.7924C49.5102 22.8878 49.4624 22.9833 49.4624 23.0788C49.4624 23.1265 49.4147 23.1742 49.4147 23.222C49.4147 23.3174 49.4624 23.1265 49.4147 23.222C49.367 23.2697 49.367 23.3174 49.3192 23.3652C49.3192 23.3652 49.2238 23.5084 49.2715 23.4129C49.367 23.3652 49.2238 23.4606 49.2238 23.4606C49.1283 23.5561 49.3192 23.4129 49.176 23.4606C49.1283 23.4606 49.1283 23.5084 49.0806 23.5084C48.9374 23.6038 49.2238 23.4606 49.0328 23.5084C48.8419 23.5561 48.651 23.6038 48.4123 23.6515C48.0304 23.6993 47.7918 24.1766 47.935 24.5107C48.0782 24.8926 48.4123 25.0835 48.7942 24.9881C49.367 24.8926 49.9397 24.7017 50.3216 24.2721C50.7512 23.7947 50.8944 23.1265 50.9421 22.506C50.9899 21.2649 49.9875 20.4057 48.8896 20.0239C48.5555 19.9284 48.0782 20.1671 48.0304 20.5012C47.935 20.9308 48.1259 21.3126 48.5078 21.4081Z" fill="#7A65FC"/>
<path d="M24.1641 28.3771C23.7822 29.6659 24.6891 31.0979 26.0257 31.3365C27.4576 31.5752 28.7464 30.7637 29.2238 29.4272C29.367 29.0931 29.0806 28.6158 28.7464 28.568C28.3646 28.4726 27.9827 28.7112 27.8872 29.0453C27.8872 29.0931 27.7918 29.2363 27.8872 29.0931C27.8395 29.1408 27.8395 29.1885 27.7918 29.2363C27.744 29.284 27.744 29.3317 27.6963 29.3795C27.6963 29.3795 27.6008 29.5227 27.6486 29.4272C27.6963 29.3317 27.6008 29.4749 27.5531 29.5227C27.5054 29.5704 27.5054 29.5704 27.4576 29.6181C27.4099 29.6659 27.3144 29.7136 27.4099 29.6659C27.3622 29.7136 27.3145 29.7136 27.2667 29.7613C27.219 29.8091 27.1713 29.8091 27.1235 29.8568C27.0758 29.8568 26.9326 29.9523 27.0758 29.8568C26.9803 29.9045 26.8849 29.9045 26.7894 29.9523C26.6939 29.9523 26.6939 30 26.7894 29.9523C26.7417 29.9523 26.6939 29.9523 26.5985 29.9523C26.5507 29.9523 26.503 29.9523 26.4075 29.9523C26.3598 29.9523 26.3598 29.9523 26.3121 29.9523C26.2643 29.9523 26.2643 29.9523 26.3598 29.9523C26.2643 29.9523 26.1211 29.9045 26.0734 29.8568C26.0257 29.8568 26.0257 29.8568 25.9779 29.8091C26.0734 29.8568 26.0734 29.8568 26.0257 29.8091C25.9779 29.7613 25.9302 29.7613 25.8825 29.7613C25.8347 29.7613 25.8347 29.7136 25.787 29.7136L25.8347 29.7613L25.6438 29.5704L25.6915 29.6181C25.6915 29.5704 25.6438 29.5704 25.6438 29.5227C25.5961 29.4749 25.5961 29.4272 25.5961 29.4272C25.5961 29.4272 25.5006 29.2363 25.5483 29.3317C25.5961 29.4272 25.5483 29.284 25.5483 29.284C25.5483 29.2363 25.5006 29.1885 25.5006 29.1408C25.4529 28.9976 25.5006 29.284 25.5006 29.1408C25.5006 29.0931 25.5006 29.0453 25.5006 28.9976V28.9499C25.5006 28.8544 25.5006 28.9021 25.5006 28.9976C25.5006 28.9499 25.5483 28.8544 25.5483 28.8544C25.6438 28.4726 25.4051 28.043 25.071 27.9952C24.6891 27.8043 24.3073 27.9952 24.1641 28.3771Z" fill="#7A65FC"/>
<path d="M30.1307 47.7566C29.892 48.7112 29.7011 49.7136 30.0829 50.6205C30.4648 51.432 31.2285 52.0048 32.0877 52.2912C33.8061 52.8162 35.6199 51.8138 36.2405 50.1909C36.3837 49.8568 36.0973 49.3795 35.7631 49.3317C35.3335 49.2363 35.0471 49.4749 34.9039 49.8091C34.8562 49.9045 34.8562 49.9045 34.9039 49.8091C34.9039 49.8568 34.8562 49.8568 34.8562 49.9045C34.8085 49.9523 34.7607 50.0477 34.7607 50.0955C34.713 50.1432 34.6653 50.1909 34.6653 50.2864C34.7608 50.1909 34.6176 50.3341 34.6176 50.3341C34.5698 50.3819 34.5221 50.4296 34.4266 50.5251C34.4266 50.5251 34.2357 50.6683 34.3312 50.6205C34.2357 50.716 34.0925 50.7637 33.997 50.8592C33.9493 50.8592 33.8061 50.9547 33.9016 50.9069C33.8061 50.9547 33.7584 50.9547 33.6629 51.0024C33.5674 51.0024 33.5197 51.0501 33.4242 51.0501C33.281 51.0978 33.472 51.0501 33.3288 51.0501C33.1856 51.0501 33.0424 51.0501 32.8514 51.0501C32.8037 51.0501 32.8037 51.0501 32.8514 51.0501C32.8037 51.0501 32.756 51.0501 32.7082 51.0024C32.6605 51.0024 32.565 50.9547 32.5173 50.9547C32.3264 50.9069 32.04 50.716 31.8968 50.6205C31.8013 50.5251 31.7059 50.4296 31.6104 50.3341C31.6581 50.3819 31.5627 50.2387 31.5149 50.1909C31.5149 50.1432 31.4195 50 31.4195 50.0477C31.3717 49.9523 31.3717 49.9045 31.3717 49.8091C31.324 49.6181 31.3717 49.9045 31.3717 49.6659C31.3717 49.4749 31.3717 49.284 31.3717 49.0931C31.3717 49.1885 31.4195 48.9499 31.3717 48.9499C31.3717 48.8544 31.4195 48.8067 31.4195 48.7112C31.4672 48.5203 31.5149 48.3294 31.5627 48.1384C31.6581 47.7566 31.4195 47.327 31.0853 47.2792C30.6557 47.1838 30.2261 47.3747 30.1307 47.7566Z" fill="#7A65FC"/>
<path d="M42.923 44.5585C42.9708 45.9905 43.4481 47.4224 44.8323 48.043C46.2643 48.6635 48.1259 48.3771 48.8419 46.8974C49.2238 46.0859 49.367 45.2745 49.367 44.3675C49.367 43.9857 49.0328 43.6516 48.651 43.6516C48.2691 43.6516 47.935 43.9857 47.935 44.3675C47.935 45.0835 47.8872 45.7041 47.5531 46.2768C47.4576 46.4678 47.4099 46.5155 47.3144 46.611C47.219 46.7064 47.3144 46.611 47.219 46.7064C47.219 46.7064 47.0281 46.8019 47.0758 46.7542C46.7417 46.8974 46.503 46.9451 46.1211 46.8974C46.0734 46.8974 45.8825 46.8496 45.9779 46.8974C45.8825 46.8974 45.8347 46.8496 45.7393 46.8496C45.6438 46.8496 45.5961 46.8019 45.5006 46.8019C45.4051 46.7542 45.4529 46.8019 45.3574 46.7542C45.2619 46.7064 45.2142 46.6587 45.1187 46.611C45.0233 46.5632 45.1187 46.611 45.0233 46.5155C44.9755 46.4678 44.9278 46.42 44.8801 46.3723C44.8323 46.3246 44.8323 46.2768 44.7846 46.2768C44.8323 46.3246 44.8323 46.3246 44.7846 46.2768C44.4505 45.7518 44.355 45.2267 44.355 44.6062C44.355 44.2243 44.0209 43.8902 43.639 43.8902C43.2572 43.8425 42.923 44.1289 42.923 44.5585Z" fill="#7A65FC"/>
<path d="M15.8586 70H3.5913C2.15932 70 0.966003 68.8067 0.966003 67.3747V62.0764C0.966003 60.6444 2.15932 59.4511 3.5913 59.4511H15.8586C17.2906 59.4511 18.4839 60.6444 18.4839 62.0764V67.3747C18.4839 68.8067 17.2906 70 15.8586 70ZM3.5913 60.8831C2.92304 60.8831 2.39798 61.4081 2.39798 62.0764V67.3747C2.39798 68.043 2.92304 68.568 3.5913 68.568H15.8586C16.5269 68.568 17.0519 68.043 17.0519 67.3747V62.0764C17.0519 61.4081 16.5269 60.8831 15.8586 60.8831H3.5913Z" fill="#7A65FC"/>
<path d="M36.2405 70H23.9732C22.5412 70 21.3479 68.8067 21.3479 67.3747V57.3508C21.3479 55.9189 22.5412 54.7255 23.9732 54.7255H36.2405C37.6724 54.7255 38.8658 55.9189 38.8658 57.3508V67.3747C38.8658 68.8067 37.6724 70 36.2405 70ZM23.9732 56.1575C23.3049 56.1575 22.7798 56.6826 22.7798 57.3508V67.3747C22.7798 68.043 23.3049 68.568 23.9732 68.568H36.2405C36.9087 68.568 37.4338 68.043 37.4338 67.3747V57.3508C37.4338 56.6826 36.9087 56.1575 36.2405 56.1575H23.9732Z" fill="#7A65FC"/>
<path d="M56.5746 70H44.3073C42.8753 70 41.682 68.8067 41.682 67.3747V52.5776C41.682 51.1456 42.8753 49.9523 44.3073 49.9523H56.5746C58.0066 49.9523 59.1999 51.1456 59.1999 52.5776V67.3747C59.1999 68.8067 58.0066 70 56.5746 70ZM44.3073 51.3842C43.639 51.3842 43.114 51.9093 43.114 52.5776V67.3747C43.114 68.043 43.639 68.568 44.3073 68.568H56.5746C57.2428 68.568 57.7679 68.043 57.7679 67.3747V52.5776C57.7679 51.9093 57.2428 51.3842 56.5746 51.3842H44.3073Z" fill="#7A65FC"/>
<path d="M76.9087 70H64.6414C63.2094 70 62.0161 68.7589 62.0161 67.2315V8.85441C62.0161 8.47255 62.3503 8.09069 62.7321 8.09069C63.114 8.09069 63.4481 8.42482 63.4481 8.85441V67.2315C63.4481 67.9475 63.9732 68.4725 64.6414 68.4725H76.9087C77.577 68.4725 78.102 67.8998 78.102 67.2315V8.85441C78.102 8.47255 78.4362 8.09069 78.818 8.09069C79.1999 8.09069 79.534 8.42482 79.534 8.85441V67.2315C79.534 68.7589 78.3884 70 76.9087 70Z" fill="#7A65FC"/>
<path d="M62.8276 9.14081C62.6366 9.14081 62.4457 9.09308 62.3025 8.94988C62.0161 8.66348 62.0161 8.23389 62.3025 7.94749L70.0352 0.214797C70.3216 -0.071599 70.7512 -0.071599 71.0376 0.214797C71.324 0.501193 71.324 0.930788 71.0376 1.21718L63.3049 8.94988C63.1617 9.09308 62.9708 9.14081 62.8276 9.14081Z" fill="#7A65FC"/>
<path d="M78.4362 9.18854C78.2452 9.18854 78.0543 9.14081 77.9111 8.99761L70.1784 1.26492C69.892 0.978521 69.892 0.548926 70.1784 0.26253C70.4648 -0.0238662 70.8944 -0.0238662 71.1808 0.26253L78.9135 7.99523C79.1999 8.28162 79.1999 8.71122 78.9135 8.99761C78.7703 9.14081 78.5794 9.18854 78.4362 9.18854Z" fill="#7A65FC"/>
</g>
</svg>
