<svg xmlns="http://www.w3.org/2000/svg" width="83" height="14" viewBox="0 0 83 14" fill="none">
    <g clip-path="url(#clip0_6284_29431)">
        <path
            d="M33.7636 0.385863C32.8791 0.40129 31.9921 0.419288 31.1076 0.442428C31.0922 4.71558 31.0768 8.98617 31.0614 13.2568C34.1287 13.2825 37.196 13.3107 40.2607 13.3416C40.2684 12.0432 40.2762 10.7422 40.2839 9.44382C38.3196 9.42582 36.3552 9.41554 34.3909 9.41297C34.3909 9.05302 34.3935 8.69563 34.3961 8.33568C36.3604 8.33568 38.3247 8.34339 40.2916 8.36139C40.2967 7.35095 40.3019 6.34051 40.3096 5.33007C38.3427 5.31465 36.3784 5.31208 34.4115 5.32236C34.4115 4.96241 34.4141 4.60503 34.4166 4.24507C36.3835 4.22965 38.3504 4.22965 40.3173 4.24507C40.325 2.94667 40.3327 1.6457 40.3404 0.347297C38.2681 0.331871 36.1958 0.344726 34.1235 0.37815M15.4086 2.98781C15.4086 2.49416 15.4086 2.00051 15.4111 1.50686C14.3081 1.6097 13.2051 1.72026 12.1047 1.83853C12.0944 5.61032 12.0816 9.38212 12.0713 13.1488C13.1743 13.1513 14.2798 13.1539 15.3828 13.159C15.3906 9.90662 15.3983 6.65162 15.4086 3.39404M20.9595 6.30709C20.9544 8.6005 20.9493 10.8939 20.9441 13.1848C24.0114 13.2028 27.0787 13.2259 30.1435 13.2516C30.1486 11.9738 30.1538 10.6959 30.1563 9.41811C28.192 9.42582 26.2277 9.43868 24.2634 9.46182C24.2711 6.54877 24.2788 3.63315 24.2865 0.717534C23.181 0.77667 22.0754 0.840947 20.9698 0.912937C20.9673 2.4376 20.9621 3.96225 20.9595 5.48948M1.22384 8.77534C0.817607 10.2537 0.408804 11.7115 0 13.1385C1.10557 13.1385 2.21114 13.1359 3.31671 13.1359C3.44269 12.6757 3.5661 12.2129 3.69209 11.7475C4.72824 11.7295 5.76696 11.7115 6.80311 11.6961C6.92395 12.1743 7.04479 12.6551 7.16563 13.1385C8.2712 13.1385 9.37677 13.1411 10.4849 13.1436C9.57732 9.38983 8.66972 5.73888 7.76727 2.19848C6.11663 2.39646 4.46856 2.60986 2.82049 2.83869C2.34227 4.66159 1.86147 6.45107 1.38068 8.20713M4.39657 9.10701C4.68967 7.99115 4.98535 6.86502 5.27845 5.72345C5.56641 6.81102 5.85695 7.90888 6.14748 9.01959C5.56384 9.04787 4.98021 9.07616 4.39657 9.10701ZM80.578 3.2372C78.3309 2.91839 76.0812 2.62271 73.8289 2.35532C73.8135 6.05512 73.8006 9.75492 73.7852 13.4599C76.8525 13.4702 79.9173 13.4779 82.9846 13.483C82.9846 13.0639 82.9846 12.6448 82.9846 12.2257V11.4981C82.9846 11.169 82.9846 10.8425 82.9846 10.5134C81.0254 10.4234 79.0637 10.3386 77.1045 10.2589C77.1045 9.96061 77.1045 9.66494 77.1071 9.36669C79.0662 9.46696 81.028 9.57495 82.9871 9.69065C82.9871 8.92189 82.9871 8.15313 82.9897 7.38181C81.0331 7.19926 79.0739 7.02957 77.1148 6.87016C77.1148 6.57191 77.1148 6.27624 77.1173 5.97799C79.0765 6.15797 81.0331 6.3508 82.9897 6.55906C82.9897 5.56919 82.9923 4.58189 82.9949 3.59459C82.3367 3.49431 81.6759 3.39918 81.0151 3.30405M71.281 2.27819C70.7307 2.21391 70.178 2.14706 69.6277 2.08536C69.5995 4.78243 69.5712 7.47951 69.5429 10.1766C68.3782 10.1303 67.2135 10.084 66.0488 10.0429C66.0668 8.25341 66.0848 6.46393 66.1028 4.67445L66.1079 4.14737C66.1156 3.33748 66.1234 2.53015 66.1336 1.72026C65.0306 1.61227 63.9251 1.50943 62.8221 1.41173C62.7912 4.52018 62.7604 7.62863 62.7295 10.7371C62.7218 11.5213 62.966 12.1975 63.4648 12.758C63.9611 13.3185 64.5653 13.5987 65.2775 13.6038C66.9332 13.6218 68.589 13.6373 70.2448 13.6527C70.957 13.6604 71.5664 13.4033 72.0729 12.8994C72.5819 12.3929 72.839 11.7835 72.8468 11.061C72.875 8.19427 72.9059 5.33007 72.9342 2.46845C72.5459 2.42217 72.1603 2.37846 71.772 2.33218M60.5312 1.22147C58.4718 1.05949 56.4098 0.91808 54.3477 0.799809C53.633 0.758672 53.0236 1.01578 52.5146 1.57371C52.0055 2.13164 51.7484 2.82583 51.7407 3.64858C51.7227 5.924 51.7047 8.19684 51.6841 10.4723C51.6764 11.2976 51.9232 12.0046 52.422 12.5934C52.9208 13.1822 53.525 13.4779 54.2372 13.4856C55.893 13.5036 57.5488 13.5216 59.2045 13.5396C59.9167 13.5473 60.5261 13.2696 61.0352 12.7194C61.5442 12.1666 61.8013 11.5007 61.8091 10.7114C61.8245 9.14815 61.8399 7.58492 61.8553 6.0217C60.2613 5.93171 58.6646 5.85201 57.068 5.78001C57.0603 6.75446 57.05 7.73147 57.0423 8.70592C57.5333 8.72134 58.0244 8.73934 58.5155 8.75477C58.5129 9.10187 58.5078 9.44639 58.5052 9.79349C57.3405 9.76007 56.1732 9.72664 55.0085 9.69836C55.0239 8.01172 55.0394 6.32509 55.0522 4.63845C57.3251 4.74129 59.5953 4.86213 61.8656 5.00355C61.8785 3.77971 61.8888 2.55844 61.9016 1.3346C61.5854 1.30889 61.2691 1.28317 60.9529 1.25746M45.8863 0.444999C45.1124 0.42443 44.3385 0.406432 43.5646 0.391006C42.6159 4.70016 41.6671 9.02473 40.7235 13.3467C41.8291 13.357 42.9372 13.3699 44.0428 13.3802C44.1688 12.8042 44.2948 12.2283 44.4233 11.655C45.4621 11.6678 46.5008 11.6807 47.5395 11.6935C47.6578 12.2695 47.776 12.8454 47.8943 13.4213C48.9999 13.4342 50.108 13.4444 51.2136 13.4573C50.3266 9.17643 49.4395 4.86214 48.5499 0.529845C47.8969 0.506705 47.2464 0.486136 46.5933 0.468138M45.1355 8.4231C45.4338 7.0707 45.732 5.71831 46.0303 4.36849C46.3157 5.73116 46.6036 7.09127 46.889 8.45138C46.3054 8.4411 45.7192 8.43081 45.1355 8.42053V8.4231Z"
            fill="#0b63bc" />
    </g>
    <defs>
        <clipPath id="clip0_6284_29431">
            <rect width="83" height="13.3105" fill="white" transform="translate(0 0.344727)" />
        </clipPath>
    </defs>
</svg>