<svg width="90" height="90" viewBox="0 0 90 90" fill="none" xmlns="http://www.w3.org/2000/svg">
<path d="M68.3264 54.3455L68.0704 53.5228C67.1314 50.5052 64.3127 48.3094 60.9933 48.3094H47.1637C46.5455 48.3094 46.1045 48.183 45.5793 47.859C45.2265 47.6412 44.8149 47.3197 44.2654 46.8904C44.0732 46.7403 43.8642 46.577 43.6349 46.4004L43.6229 46.3911L43.6115 46.3812C36.8503 40.487 26.6932 40.5058 19.9525 46.4376C19.9525 46.4376 19.9524 46.4376 19.9524 46.4376L14.8693 50.9126L14.6101 51.1407L14.305 50.9792C12.1623 49.8452 9.66451 49.8176 7.51179 50.8932C7.51177 50.8932 7.51174 50.8932 7.51171 50.8932L1.68178 53.8073L68.3264 54.3455ZM68.3264 54.3455L68.9137 53.7151M68.3264 54.3455L68.9137 53.7151M68.9137 53.7151L76.6633 45.3959C79.5819 42.2637 84.0342 42.4494 86.8663 44.7832C89.9473 47.3271 90.3187 51.8197 88.0153 54.8883L88.0151 54.8885L75.3578 71.766L75.7578 72.0659L75.3578 71.766C71.986 76.2627 66.6133 78.9482 60.9931 78.9482H29.836H29.3184L29.3363 79.4656C29.4336 82.2628 27.9344 85.0086 25.243 86.3534L25.2428 86.3534M68.9137 53.7151L25.2428 86.3534M25.2428 86.3534L19.4128 89.2693C18.357 89.7964 17.0735 89.369 16.545 88.3133L0.725797 56.6752C0.725774 56.6751 0.725751 56.6751 0.725727 56.675M25.2428 86.3534L0.725727 56.675M0.725727 56.675C0.19883 55.6193 0.626063 54.3361 1.68148 53.8074L0.725727 56.675ZM23.3312 82.5318L23.3313 82.5317C24.8805 81.7561 25.5081 79.8742 24.7343 78.3248L24.7342 78.3246L13.6308 56.1178C12.855 54.5663 10.9728 53.9411 9.42368 54.7146L9.42345 54.7147L5.95019 56.4513L5.50295 56.6749L5.72658 57.1221L19.1888 84.0448L19.4124 84.492L19.8597 84.2683L23.3312 82.5318ZM27.5486 74.3986L27.6868 74.675H27.9958H60.9933C65.2776 74.675 69.3684 72.6306 71.9394 69.2019L84.5962 52.3249L84.1966 52.0244L84.5966 52.3244L84.5963 52.3247C85.55 51.056 85.4222 49.1966 84.1728 48.1029L84.1727 48.1028C82.9971 47.0742 81.0585 46.9477 79.7899 48.3087L79.7899 48.3088L68.182 60.7692L68.1818 60.7694C66.7861 62.2688 64.8093 63.1288 62.7597 63.1288H47.5274C46.3482 63.1288 45.3908 62.1714 45.3908 60.9923C45.3908 59.8131 46.3481 58.8557 47.5274 58.8557H60.9931C62.7228 58.8557 64.1296 57.4488 64.1296 55.7192C64.1296 53.9895 62.723 52.5826 60.9931 52.5826H47.1635C46.2663 52.5826 45.4064 52.4685 44.4237 52.0562C43.4327 51.6404 42.2925 50.911 40.855 49.6454L40.8548 49.6453C35.7005 45.1112 27.9298 45.1112 22.7755 49.6453L22.7754 49.6454L17.7853 54.0378L17.4962 54.2923L17.6684 54.6367L27.5486 74.3986Z" fill="#FF76C1" stroke="#131B25"/>
<path d="M55.0769 17.6469L54.6331 18.1122L55.1935 18.4276C59.9511 21.1052 63.1296 26.2113 63.1298 31.9902V34.6268C63.1298 35.8059 62.1724 36.7633 60.9933 36.7633H34.4519C33.2727 36.7633 32.3154 35.8059 32.3154 34.6268V31.9902C32.3154 26.1013 35.67 21.0718 40.3474 18.4491L40.9177 18.1294L40.4598 17.6628C38.6053 15.7729 37.5884 13.3193 37.5884 10.7219C37.5884 5.18536 42.2738 0.5 47.8104 0.5C53.3787 0.5 57.8566 5.18172 57.8566 10.7219C57.8566 13.4053 56.7975 15.8425 55.0769 17.6469ZM36.5884 31.9902V32.4902H37.0884H58.3566H58.8566V31.9902C58.8566 25.809 53.9087 20.7683 47.8104 20.7683C41.7215 20.7683 36.5884 25.9014 36.5884 31.9902ZM53.5835 10.7221C53.5835 7.50864 50.9599 4.77326 47.8104 4.77326C44.6323 4.77326 41.8615 7.54401 41.8615 10.7221C41.8615 13.8716 44.5969 16.4952 47.8104 16.4952C50.9938 16.4952 53.5835 13.9055 53.5835 10.7221Z" fill="#FF76C1" stroke="#131B25"/>
</svg>
