<svg width="91" height="108" viewBox="0 0 91 108" fill="none" xmlns="http://www.w3.org/2000/svg">
<path d="M9.90909 56.4086C9.90909 54.2246 11.6796 52.4541 13.8636 52.4541H29.6818C31.8659 52.4541 33.6364 54.2246 33.6364 56.4086V93.9768H9.90909V56.4086Z" stroke="#30EFD3" stroke-width="3"/>
<path d="M33.6364 44.5454C33.6364 42.3613 35.4069 40.5908 37.5909 40.5908H53.4091C55.5931 40.5908 57.3637 42.3613 57.3637 44.5454V93.9772H33.6364V44.5454Z" stroke="#30EFD3" stroke-width="3"/>
<path d="M57.3636 64.3178C57.3636 62.1338 59.1341 60.3633 61.3182 60.3633H77.1363C79.3204 60.3633 81.0909 62.1338 81.0909 64.3178V93.9769H57.3636V64.3178Z" stroke="#30EFD3" stroke-width="3"/>
<path d="M45.5 5L48.6075 14.5638H58.6635L50.528 20.4746L53.6355 30.0384L45.5 24.1277L37.3645 30.0384L40.472 20.4746L32.3365 14.5638H42.3925L45.5 5Z" stroke="#30EFD3" stroke-width="3"/>
<rect x="2" y="93.9775" width="87" height="11.8636" rx="5.93182" stroke="#30EFD3" stroke-width="3"/>
<path d="M44.2962 74.5225V64.4905C44.2962 64.1225 44.2962 63.7465 44.2962 63.3625C44.3122 62.9625 44.3282 62.5545 44.3442 62.1385C43.8002 62.6345 43.1922 63.0665 42.5202 63.4345C41.8482 63.8025 41.1602 64.0585 40.4562 64.2025L40.0242 61.4185C40.3922 61.3865 40.8002 61.2825 41.2482 61.1065C41.7122 60.9145 42.1762 60.6905 42.6402 60.4345C43.1202 60.1625 43.5522 59.8825 43.9362 59.5945C44.3362 59.2905 44.6402 58.9865 44.8482 58.6825H47.5362V74.5225H44.2962Z" fill="#30EFD3"/>
<path d="M69.7335 70.8142C71.2705 70.8142 72.4667 71.1767 73.3222 71.9017C74.1922 72.6267 74.6272 73.5692 74.6272 74.7292C74.6272 75.4397 74.4822 76.056 74.1922 76.578C73.9022 77.0855 73.547 77.4697 73.1265 77.7307C72.706 77.9917 72.3072 78.1222 71.9302 78.1222V78.1875C72.4087 78.1875 72.8727 78.3107 73.3222 78.5572C73.7862 78.8037 74.1632 79.1807 74.4532 79.6882C74.7577 80.1812 74.91 80.783 74.91 81.4935C74.91 82.291 74.678 83.0015 74.214 83.625C73.7645 84.2485 73.1337 84.7342 72.3217 85.0822C71.5097 85.4302 70.5817 85.6042 69.5377 85.6042C68.1312 85.6042 66.9785 85.3215 66.0795 84.756C65.195 84.176 64.5497 83.2842 64.1437 82.0807L66.8625 80.8627C67.022 81.6602 67.312 82.2475 67.7325 82.6245C68.1675 83.0015 68.7765 83.19 69.5595 83.19C70.299 83.19 70.8862 83.0087 71.3212 82.6462C71.7562 82.2692 71.9737 81.769 71.9737 81.1455C71.9737 80.4785 71.7635 80 71.343 79.71C70.937 79.4055 70.2917 79.2532 69.4072 79.2532H68.6895V77.1652H69.2985C70.8645 77.1652 71.6475 76.5055 71.6475 75.186C71.6475 74.548 71.4662 74.0622 71.1037 73.7287C70.7557 73.3952 70.2555 73.2285 69.603 73.2285C68.936 73.2285 68.3995 73.4025 67.9935 73.7505C67.5875 74.0985 67.3337 74.606 67.2322 75.273L64.557 74.2942C64.8325 73.1487 65.427 72.286 66.3405 71.706C67.2685 71.1115 68.3995 70.8142 69.7335 70.8142Z" fill="#30EFD3"/>
<path d="M16.266 77.4096C18.0205 76.2351 19.4125 75.2056 20.442 74.3211C21.4715 73.4366 22.2183 72.6174 22.6823 71.8634C23.1463 71.1094 23.3783 70.3626 23.3783 69.6231C23.3783 68.9416 23.168 68.3906 22.7475 67.9701C22.3415 67.5496 21.776 67.3394 21.051 67.3394C20.2535 67.3394 19.6228 67.6149 19.1588 68.1659C18.6948 68.7169 18.441 69.4999 18.3975 70.5149L15.8093 69.5361C15.9108 68.0861 16.4473 66.9479 17.4188 66.1214C18.3903 65.2949 19.659 64.8816 21.225 64.8816C22.3415 64.8816 23.284 65.0919 24.0525 65.5124C24.8355 65.9329 25.4228 66.4911 25.8143 67.1871C26.2058 67.8686 26.4015 68.6226 26.4015 69.4491C26.4015 70.7976 25.894 72.0736 24.879 73.2771C23.864 74.4661 22.2473 75.7421 20.0288 77.1051V77.1269C20.8698 77.0689 21.747 77.0399 22.6605 77.0399H26.619V79.4541H16.266V77.4096Z" fill="#30EFD3"/>
</svg>
