<svg width="99" height="66" viewBox="0 0 99 66" fill="none" xmlns="http://www.w3.org/2000/svg">
<path d="M49.4999 30.9132C57.4841 30.9132 63.9565 24.4407 63.9565 16.4566C63.9565 8.47244 57.4841 2 49.4999 2C41.5158 2 35.0434 8.47244 35.0434 16.4566C35.0434 24.4407 41.5158 30.9132 49.4999 30.9132Z" stroke="#9B83FF" stroke-width="3"/>
<path d="M78.4132 39.1745C84.1161 39.1745 88.7392 34.5514 88.7392 28.8485C88.7392 23.1456 84.1161 18.5225 78.4132 18.5225C72.7103 18.5225 68.0872 23.1456 68.0872 28.8485C68.0872 34.5514 72.7103 39.1745 78.4132 39.1745Z" stroke="#9B83FF" stroke-width="3"/>
<path d="M20.8803 39.1745C26.5832 39.1745 31.2063 34.5514 31.2063 28.8485C31.2063 23.1456 26.5832 18.5225 20.8803 18.5225C15.1774 18.5225 10.5543 23.1456 10.5543 28.8485C10.5543 34.5514 15.1774 39.1745 20.8803 39.1745Z" stroke="#9B83FF" stroke-width="3"/>
<path d="M49.4999 35.043C34.6964 35.043 22.652 47.0873 22.652 61.8909C22.652 63.0309 23.5773 63.9561 24.7173 63.9561H74.2825C75.4225 63.9561 76.3478 63.0309 76.3478 61.8909C76.3478 47.0873 64.3035 35.043 49.4999 35.043Z" stroke="#9B83FF" stroke-width="3"/>
<path d="M24.4407 43.7508C23.1767 43.4822 21.8921 43.3047 20.587 43.3047C10.3393 43.3047 2 51.644 2 61.8916C2 63.0316 2.92528 63.9569 4.06528 63.9569H18.9017C18.6704 63.3085 18.5217 62.6187 18.5217 61.8916C18.5217 55.1136 20.7357 48.856 24.4407 43.7508Z" stroke="#9B83FF" stroke-width="3"/>
<path d="M78.413 43.3047C77.1079 43.3047 75.8232 43.4822 74.5593 43.7508C78.2643 48.856 80.4783 55.1136 80.4783 61.8916C80.4783 62.6187 80.3296 63.3083 80.0982 63.9569H94.9347C96.0747 63.9569 97 63.0316 97 61.8916C97 51.644 88.6606 43.3047 78.413 43.3047Z" stroke="#9B83FF" stroke-width="3"/>
</svg>
