<svg fill="none" height="108" viewBox="0 0 91 108" width="91" xmlns="http://www.w3.org/2000/svg"><g stroke="#30efd3" stroke-width="3"><path d="m9.90909 56.4086c0-2.184 1.77051-3.9545 3.95451-3.9545h15.8182c2.1841 0 3.9546 1.7705 3.9546 3.9545v37.5682h-23.72731z"/><path d="m33.6364 44.5454c0-2.1841 1.7705-3.9546 3.9545-3.9546h15.8182c2.184 0 3.9546 1.7705 3.9546 3.9546v49.4318h-23.7273z"/><path d="m57.3636 64.3178c0-2.184 1.7705-3.9545 3.9546-3.9545h15.8181c2.1841 0 3.9546 1.7705 3.9546 3.9545v29.6591h-23.7273z"/><path d="m45.5 5 3.1075 9.5638h10.056l-8.1355 5.9108 3.1075 9.5638-8.1355-5.9107-8.1355 5.9107 3.1075-9.5638-8.1355-5.9108h10.056z"/><rect height="11.8636" rx="5.93182" width="87" x="2" y="93.9775"/></g><path d="m44.2962 74.5225v-10.032c0-.368 0-.744 0-1.128.016-.4.032-.808.048-1.224-.544.496-1.152.928-1.824 1.296s-1.36.624-2.064.768l-.432-2.784c.368-.032.776-.136 1.224-.312.464-.192.928-.416 1.392-.672.48-.272.912-.552 1.296-.84.4-.304.704-.608.912-.912h2.688v15.84z" fill="#30efd3"/><path d="m69.7335 70.8142c1.537 0 2.7332.3625 3.5887 1.0875.87.725 1.305 1.6675 1.305 2.8275 0 .7105-.145 1.3268-.435 1.8488-.29.5075-.6452.8917-1.0657 1.1527s-.8193.3915-1.1963.3915v.0653c.4785 0 .9425.1232 1.392.3697.464.2465.841.6235 1.131 1.131.3045.493.4568 1.0948.4568 1.8053 0 .7975-.232 1.508-.696 2.1315-.4495.6235-1.0803 1.1092-1.8923 1.4572s-1.74.522-2.784.522c-1.4065 0-2.5592-.2827-3.4582-.8482-.8845-.58-1.5298-1.4718-1.9358-2.6753l2.7188-1.218c.1595.7975.4495 1.3848.87 1.7618.435.377 1.044.5655 1.827.5655.7395 0 1.3267-.1813 1.7617-.5438.435-.377.6525-.8772.6525-1.5007 0-.667-.2102-1.1455-.6307-1.4355-.406-.3045-1.0513-.4568-1.9358-.4568h-.7177v-2.088h.609c1.566 0 2.349-.6597 2.349-1.9792 0-.638-.1813-1.1238-.5438-1.4573-.348-.3335-.8482-.5002-1.5007-.5002-.667 0-1.2035.174-1.6095.522s-.6598.8555-.7613 1.5225l-2.6752-.9788c.2755-1.1455.87-2.0082 1.7835-2.5882.928-.5945 2.059-.8918 3.393-.8918z" fill="#30efd3"/><path d="m16.266 77.4096c1.7545-1.1745 3.1465-2.204 4.176-3.0885s1.7763-1.7037 2.2403-2.4577.696-1.5008.696-2.2403c0-.6815-.2103-1.2325-.6308-1.653-.406-.4205-.9715-.6307-1.6965-.6307-.7975 0-1.4282.2755-1.8922.8265s-.7178 1.334-.7613 2.349l-2.5882-.9788c.1015-1.45.638-2.5882 1.6095-3.4147s2.2402-1.2398 3.8062-1.2398c1.1165 0 2.059.2103 2.8275.6308.783.4205 1.3703.9787 1.7618 1.6747.3915.6815.5872 1.4355.5872 2.262 0 1.3485-.5075 2.6245-1.5225 3.828-1.015 1.189-2.6317 2.465-4.8502 3.828v.0218c.841-.058 1.7182-.087 2.6317-.087h3.9585v2.4142h-10.353z" fill="#30efd3"/></svg>