<svg fill="none" height="66" viewBox="0 0 99 66" width="99" xmlns="http://www.w3.org/2000/svg"><g stroke="#9b83ff" stroke-width="3"><path d="m49.4999 30.9132c7.9842 0 14.4566-6.4725 14.4566-14.4566 0-7.98416-6.4724-14.4566-14.4566-14.4566-7.9841 0-14.4565 6.47244-14.4565 14.4566 0 7.9841 6.4724 14.4566 14.4565 14.4566z"/><path d="m78.4132 39.1745c5.7029 0 10.326-4.6231 10.326-10.326s-4.6231-10.326-10.326-10.326-10.326 4.6231-10.326 10.326 4.6231 10.326 10.326 10.326z"/><path d="m20.8803 39.1745c5.7029 0 10.326-4.6231 10.326-10.326s-4.6231-10.326-10.326-10.326-10.326 4.6231-10.326 10.326 4.6231 10.326 10.326 10.326z"/><path d="m49.4999 35.043c-14.8035 0-26.8479 12.0443-26.8479 26.8479 0 1.14.9253 2.0652 2.0653 2.0652h49.5652c1.14 0 2.0653-.9252 2.0653-2.0652 0-14.8036-12.0443-26.8479-26.8479-26.8479z"/><path d="m24.4407 43.7508c-1.264-.2686-2.5486-.4461-3.8537-.4461-10.2477 0-18.587 8.3393-18.587 18.5869 0 1.14.92528 2.0653 2.06528 2.0653h14.83642c-.2313-.6484-.38-1.3382-.38-2.0653 0-6.778 2.214-13.0356 5.919-18.1408z"/><path d="m78.413 43.3047c-1.3051 0-2.5898.1775-3.8537.4461 3.705 5.1052 5.919 11.3628 5.919 18.1408 0 .7271-.1487 1.4167-.3801 2.0653h14.8365c1.14 0 2.0653-.9253 2.0653-2.0653 0-10.2476-8.3394-18.5869-18.587-18.5869z"/></g></svg>