<svg width="90" height="90" viewBox="0 0 90 90" fill="none" xmlns="http://www.w3.org/2000/svg">
<path d="M45 0H25.5C24.6716 0 24 0.671631 24 1.5V12H1.5C0.671631 12 0 12.6716 0 13.5V88.5C0 89.3284 0.671631 90 1.5 90H45C45.8284 90 46.5 89.3284 46.5 88.5V1.5C46.5 0.671631 45.8284 0 45 0ZM43.5 78H27V75H43.5V78ZM3 22.5H24V67.5H3V22.5ZM43.5 16.5H27V12H43.5V16.5ZM3 70.5H24V75H3V70.5ZM27 72V19.5H43.5V72H27ZM43.5 3V9H27V3H43.5ZM24 15V19.5H3V15H24ZM3 78H24V87H3V78ZM27 87V81H43.5V87H27Z" fill="#BCFF16"/>
<path d="M45 0H25.5C24.6716 0 24 0.671631 24 1.5V12H1.5C0.671631 12 0 12.6716 0 13.5V88.5C0 89.3284 0.671631 90 1.5 90H45C45.8284 90 46.5 89.3284 46.5 88.5V1.5C46.5 0.671631 45.8284 0 45 0ZM43.5 78H27V75H43.5V78ZM3 22.5H24V67.5H3V22.5ZM43.5 16.5H27V12H43.5V16.5ZM3 70.5H24V75H3V70.5ZM27 72V19.5H43.5V72H27ZM43.5 3V9H27V3H43.5ZM24 15V19.5H3V15H24ZM3 78H24V87H3V78ZM27 87V81H43.5V87H27Z" stroke="#131B25"/>
<path d="M89.9518 82.1237L71.9518 13.1238C71.8514 12.737 71.601 12.4067 71.2553 12.2053C70.9103 12.0046 70.4994 11.9497 70.1134 12.053L47.6134 18.053C46.8165 18.2654 46.3404 19.0813 46.5484 19.8796L64.5485 88.8796C64.6488 89.2663 64.9 89.5966 65.2457 89.7973C65.5907 89.9973 66.0016 90.0515 66.3868 89.9475L88.8869 83.9475C89.6823 83.7351 90.1576 82.9206 89.9518 82.1237ZM52.2181 29.7285L71.82 24.5027L72.5253 27.2024L52.9249 32.4363L52.2181 29.7285ZM73.2826 30.113L81.9823 63.4843L62.3878 68.7124L53.6881 35.3388L73.2826 30.113ZM82.7462 66.3884L84.2821 72.2749L64.6803 77.5007L63.1503 71.6164L82.7462 66.3884ZM69.4293 15.3393L71.0626 21.6015L51.4608 26.8259L49.829 20.5666L69.4293 15.3393ZM67.0709 86.664L65.4376 80.4018L85.0395 75.1745L86.6713 81.4338L67.0709 86.664Z" fill="#BCFF16"/>
<path d="M89.9518 82.1237L71.9518 13.1238C71.8514 12.737 71.601 12.4067 71.2553 12.2053C70.9103 12.0046 70.4994 11.9497 70.1134 12.053L47.6134 18.053C46.8165 18.2654 46.3404 19.0813 46.5484 19.8796L64.5485 88.8796C64.6488 89.2663 64.9 89.5966 65.2457 89.7973C65.5907 89.9973 66.0016 90.0515 66.3868 89.9475L88.8869 83.9475C89.6823 83.7351 90.1576 82.9206 89.9518 82.1237ZM52.2181 29.7285L71.82 24.5027L72.5253 27.2024L52.9249 32.4363L52.2181 29.7285ZM73.2826 30.113L81.9823 63.4843L62.3878 68.7124L53.6881 35.3388L73.2826 30.113ZM82.7462 66.3884L84.2821 72.2749L64.6803 77.5007L63.1503 71.6164L82.7462 66.3884ZM69.4293 15.3393L71.0626 21.6015L51.4608 26.8259L49.829 20.5666L69.4293 15.3393ZM67.0709 86.664L65.4376 80.4018L85.0395 75.1745L86.6713 81.4338L67.0709 86.664Z" stroke="#131B25"/>
<path d="M19.5 27H7.50002C6.67165 27 6.00002 27.6716 6.00002 28.5V40.5C6.00002 41.3284 6.67165 42 7.50002 42H19.5C20.3284 42 21 41.3284 21 40.5V28.5C21 27.6716 20.3284 27 19.5 27ZM18 39H9.00002V30H18V39Z" fill="#BCFF16"/>
<path d="M19.5 27H7.50002C6.67165 27 6.00002 27.6716 6.00002 28.5V40.5C6.00002 41.3284 6.67165 42 7.50002 42H19.5C20.3284 42 21 41.3284 21 40.5V28.5C21 27.6716 20.3284 27 19.5 27ZM18 39H9.00002V30H18V39Z" stroke="#131B25"/>
</svg>
