<svg fill="none" height="90" viewBox="0 0 90 90" width="90" xmlns="http://www.w3.org/2000/svg"><path d="m45 0h-19.5c-.8284 0-1.5.671631-1.5 1.5v10.5h-22.5c-.828369 0-1.5.6716-1.5 1.5v75c0 .8284.671631 1.5 1.5 1.5h43.5c.8284 0 1.5-.6716 1.5-1.5v-87c0-.828369-.6716-1.5-1.5-1.5zm-1.5 78h-16.5v-3h16.5zm-40.5-55.5h21v45h-21zm40.5-6h-16.5v-4.5h16.5zm-40.5 54h21v4.5h-21zm24 1.5v-52.5h16.5v52.5zm16.5-69v6h-16.5v-6zm-19.5 12v4.5h-21v-4.5zm-21 63h21v9h-21zm24 9v-6h16.5v6z" fill="#bcff16"/><path d="m45 0h-19.5c-.8284 0-1.5.671631-1.5 1.5v10.5h-22.5c-.828369 0-1.5.6716-1.5 1.5v75c0 .8284.671631 1.5 1.5 1.5h43.5c.8284 0 1.5-.6716 1.5-1.5v-87c0-.828369-.6716-1.5-1.5-1.5zm-1.5 78h-16.5v-3h16.5zm-40.5-55.5h21v45h-21zm40.5-6h-16.5v-4.5h16.5zm-40.5 54h21v4.5h-21zm24 1.5v-52.5h16.5v52.5zm16.5-69v6h-16.5v-6zm-19.5 12v4.5h-21v-4.5zm-21 63h21v9h-21zm24 9v-6h16.5v6z" stroke="#131b25"/><path d="m89.9518 82.1237-18-68.9999c-.1004-.3868-.3508-.7171-.6965-.9185-.345-.2007-.7559-.2556-1.1419-.1523l-22.5 6c-.7969.2124-1.273 1.0283-1.065 1.8266l18.0001 69c.1003.3867.3515.717.6972.9177.345.2.7559.2542 1.1411.1502l22.5001-6c.7954-.2124 1.2707-1.0269 1.0649-1.8238zm-37.7337-52.3952 19.6019-5.2258.7053 2.6997-19.6004 5.2339zm21.0645.3845 8.6997 33.3713-19.5945 5.2281-8.6997-33.3736zm9.4636 36.2754 1.5359 5.8865-19.6018 5.2258-1.53-5.8843zm-13.3169-51.0491 1.6333 6.2622-19.6018 5.2244-1.6318-6.2593zm-2.3584 71.3247-1.6333-6.2622 19.6019-5.2273 1.6318 6.2593z" fill="#bcff16"/><path d="m89.9518 82.1237-18-68.9999c-.1004-.3868-.3508-.7171-.6965-.9185-.345-.2007-.7559-.2556-1.1419-.1523l-22.5 6c-.7969.2124-1.273 1.0283-1.065 1.8266l18.0001 69c.1003.3867.3515.717.6972.9177.345.2.7559.2542 1.1411.1502l22.5001-6c.7954-.2124 1.2707-1.0269 1.0649-1.8238zm-37.7337-52.3952 19.6019-5.2258.7053 2.6997-19.6004 5.2339zm21.0645.3845 8.6997 33.3713-19.5945 5.2281-8.6997-33.3736zm9.4636 36.2754 1.5359 5.8865-19.6018 5.2258-1.53-5.8843zm-13.3169-51.0491 1.6333 6.2622-19.6018 5.2244-1.6318-6.2593zm-2.3584 71.3247-1.6333-6.2622 19.6019-5.2273 1.6318 6.2593z" stroke="#131b25"/><path d="m19.5 27h-11.99998c-.82837 0-1.5.6716-1.5 1.5v12c0 .8284.67163 1.5 1.5 1.5h11.99998c.8284 0 1.5-.6716 1.5-1.5v-12c0-.8284-.6716-1.5-1.5-1.5zm-1.5 12h-8.99998v-9h8.99998z" fill="#bcff16"/><path d="m19.5 27h-11.99998c-.82837 0-1.5.6716-1.5 1.5v12c0 .8284.67163 1.5 1.5 1.5h11.99998c.8284 0 1.5-.6716 1.5-1.5v-12c0-.8284-.6716-1.5-1.5-1.5zm-1.5 12h-8.99998v-9h8.99998z" stroke="#131b25"/></svg>