<svg fill="none" height="90" viewBox="0 0 90 90" width="90" xmlns="http://www.w3.org/2000/svg"><g fill="#ff76c1" stroke="#131b25"><path d="m68.3264 54.3455-.256-.8227c-.939-3.0176-3.7577-5.2134-7.0771-5.2134h-13.8296c-.6182 0-1.0592-.1264-1.5844-.4504-.3528-.2178-.7644-.5393-1.3139-.9686-.1922-.1501-.4012-.3134-.6305-.49l-.012-.0093-.0114-.0099c-6.7612-5.8942-16.9183-5.8754-23.659.0564h-.0001l-5.0831 4.475-.2592.2281-.3051-.1615c-2.1427-1.134-4.64049-1.1616-6.79321-.086-.00002 0-.00005 0-.00008 0l-5.82993 2.9141zm0 0 .5873-.6304m-.5873.6304.5873-.6304m0 0 7.7496-8.3192c2.9186-3.1322 7.3709-2.9465 10.203-.6127 3.081 2.5439 3.4524 7.0365 1.149 10.1051l-.0002.0002-12.6573 16.8775.4.2999-.4-.2999c-3.3718 4.4967-8.7445 7.1822-14.3647 7.1822h-31.1571-.5176l.0179.5174c.0973 2.7972-1.4019 5.543-4.0933 6.8878h-.0002m43.6709-32.6383-43.6709 32.6383m0 0-5.83 2.9159c-1.0558.5271-2.3393.0997-2.8678-.956l-15.819203-31.6381c-.000023-.0001-.000046-.0001-.00007-.0002m24.517073 29.6784-24.517073-29.6784m0 0c-.526897-1.0557-.099664-2.3389.955753-2.8676zm22.605473 25.8568.0001-.0001c1.5492-.7756 2.1768-2.6575 1.403-4.2069l-.0001-.0002-11.1034-22.2068c-.7758-1.5515-2.658-2.1767-4.20712-1.4032l-.00023.0001-3.47326 1.7366-.44724.2236.22363.4472 13.46222 26.9227.2236.4472.4473-.2237zm4.2174-8.1332.1382.2764h.309 32.9975c4.2843 0 8.3751-2.0444 10.9461-5.4731l12.6568-16.877-.3996-.3005.4.3-.0003.0003c.9537-1.2687.8259-3.1281-.4235-4.2218l-.0001-.0001c-1.1756-1.0286-3.1142-1.1551-4.3828.2059v.0001l-11.6079 12.4604-.0002.0002c-1.3957 1.4994-3.3725 2.3594-5.4221 2.3594h-15.2323c-1.1792 0-2.1366-.9574-2.1366-2.1365 0-1.1792.9573-2.1366 2.1366-2.1366h13.4657c1.7297 0 3.1365-1.4069 3.1365-3.1365 0-1.7297-1.4066-3.1366-3.1365-3.1366h-13.8296c-.8972 0-1.7571-.1141-2.7398-.5264-.991-.4158-2.1312-1.1452-3.5687-2.4108l-.0002-.0001c-5.1543-4.5341-12.925-4.5341-18.0793 0l-.0001.0001-4.9901 4.3924-.2891.2545.1722.3444z"/><path d="m55.0769 17.6469-.4438.4653.5604.3154c4.7576 2.6776 7.9361 7.7837 7.9363 13.5626v2.6366c0 1.1791-.9574 2.1365-2.1365 2.1365h-26.5414c-1.1792 0-2.1365-.9574-2.1365-2.1365v-2.6366c0-5.8889 3.3546-10.9184 8.032-13.5411l.5703-.3197-.4579-.4666c-1.8545-1.8899-2.8714-4.3435-2.8714-6.9409 0-5.53654 4.6854-10.2219 10.222-10.2219 5.5683 0 10.0462 4.68172 10.0462 10.2219 0 2.6834-1.0591 5.1206-2.7797 6.925zm-18.4885 14.3433v.5h.5 21.2682.5v-.5c0-6.1812-4.9479-11.2219-11.0462-11.2219-6.0889 0-11.222 5.1331-11.222 11.2219zm16.9951-21.2681c0-3.21346-2.6236-5.94884-5.7731-5.94884-3.1781 0-5.9489 2.77075-5.9489 5.94884 0 3.1495 2.7354 5.7731 5.9489 5.7731 3.1834 0 5.7731-2.5897 5.7731-5.7731z"/></g></svg>