<svg width="693" height="48" viewBox="0 0 693 48" fill="none" xmlns="http://www.w3.org/2000/svg">
<path d="M1.95543 3.72798L1.95335 2.72799L0.95335 2.73007L0.955435 3.73007L1.95543 3.72798ZM28.4754 3.67269L29.4754 3.67061L29.4733 2.67061L28.4733 2.67269L28.4754 3.67269ZM28.4911 11.2327L28.4932 12.2327L29.4932 12.2306L29.4911 11.2306L28.4911 11.2327ZM9.89118 11.2715L9.88909 10.2715L8.8891 10.2735L8.89118 11.2735L9.89118 11.2715ZM9.91119 20.8714L8.9112 20.8735L8.91328 21.8735L9.91328 21.8714L9.91119 20.8714ZM27.7912 20.8342L28.7912 20.8321L28.7891 19.8321L27.7891 19.8342L27.7912 20.8342ZM27.8069 28.3941L27.809 29.3941L28.809 29.3921L28.8069 28.3921L27.8069 28.3941ZM9.92696 28.4314L9.92487 27.4314L8.92487 27.4335L8.92696 28.4335L9.92696 28.4314ZM9.94722 38.1514L8.94722 38.1535L8.94931 39.1535L9.94931 39.1514L9.94722 38.1514ZM29.2672 38.1111L30.2672 38.109L30.2651 37.109L29.2651 37.1111L29.2672 38.1111ZM29.2829 45.6711L29.285 46.6711L30.285 46.669L30.2829 45.669L29.2829 45.6711ZM2.043 45.7279L1.043 45.73L1.04509 46.73L2.04508 46.7279L2.043 45.7279ZM1.95752 4.72798L28.4775 4.67269L28.4733 2.67269L1.95335 2.72799L1.95752 4.72798ZM27.4754 3.67478L27.4911 11.2348L29.4911 11.2306L29.4754 3.67061L27.4754 3.67478ZM28.4891 10.2327L9.88909 10.2715L9.89326 12.2715L28.4932 12.2327L28.4891 10.2327ZM8.89118 11.2735L8.9112 20.8735L10.9112 20.8693L10.8912 11.2694L8.89118 11.2735ZM9.91328 21.8714L27.7932 21.8342L27.7891 19.8342L9.90911 19.8714L9.91328 21.8714ZM26.7912 20.8362L26.8069 28.3962L28.8069 28.3921L28.7912 20.8321L26.7912 20.8362ZM27.8048 27.3941L9.92487 27.4314L9.92904 29.4314L27.809 29.3941L27.8048 27.3941ZM8.92696 28.4335L8.94722 38.1535L10.9472 38.1493L10.927 28.4293L8.92696 28.4335ZM9.94931 39.1514L29.2693 39.1111L29.2651 37.1111L9.94514 37.1514L9.94931 39.1514ZM28.2672 38.1132L28.2829 45.6732L30.2829 45.669L30.2672 38.109L28.2672 38.1132ZM29.2809 44.6711L2.04091 44.7279L2.04508 46.7279L29.285 46.6711L29.2809 44.6711ZM3.043 45.7258L2.95543 3.7259L0.955435 3.73007L1.043 45.73L3.043 45.7258ZM57.9129 41.6514L56.9214 41.7817L57.036 42.6532L57.915 42.6514L57.9129 41.6514ZM58.9929 41.6492L58.995 42.6492L59.995 42.6471L59.9929 41.6471L58.9929 41.6492ZM58.9136 3.60923L58.9115 2.60923L57.9115 2.61132L57.9136 3.61132L58.9136 3.60923ZM66.8336 3.59272L67.8336 3.59063L67.8315 2.59064L66.8315 2.59272L66.8336 3.59272ZM66.9211 45.5926L66.9232 46.5926L67.9232 46.5905L67.9211 45.5905L66.9211 45.5926ZM51.4412 45.6249L50.4497 45.7552L50.5643 46.6267L51.4433 46.6249L51.4412 45.6249ZM46.4419 7.59524L47.4333 7.46491L47.3188 6.59341L46.4398 6.59525L46.4419 7.59524ZM45.3619 7.5975L45.3598 6.5975L44.3598 6.59958L44.3619 7.59958L45.3619 7.5975ZM45.4412 45.6374L45.4433 46.6374L46.4433 46.6353L46.4412 45.6353L45.4412 45.6374ZM37.5212 45.6539L36.5212 45.656L36.5233 46.656L37.5233 46.6539L37.5212 45.6539ZM37.4336 3.65401L37.4316 2.65402L36.4316 2.6561L36.4336 3.6561L37.4336 3.65401ZM52.9136 3.62174L53.9051 3.49141L53.7905 2.61991L52.9115 2.62174L52.9136 3.62174ZM57.915 42.6514L58.995 42.6492L58.9908 40.6492L57.9108 40.6514L57.915 42.6514ZM59.9929 41.6471L59.9136 3.60715L57.9136 3.61132L57.9929 41.6512L59.9929 41.6471ZM58.9157 4.60923L66.8357 4.59272L66.8315 2.59272L58.9115 2.60923L58.9157 4.60923ZM65.8336 3.5948L65.9211 45.5947L67.9211 45.5905L67.8336 3.59063L65.8336 3.5948ZM66.9191 44.5926L51.4391 44.6249L51.4433 46.6249L66.9232 46.5926L66.9191 44.5926ZM52.4326 45.4946L47.4333 7.46491L45.4504 7.72558L50.4497 45.7552L52.4326 45.4946ZM46.4398 6.59525L45.3598 6.5975L45.364 8.59749L46.444 8.59524L46.4398 6.59525ZM44.3619 7.59958L44.4412 45.6395L46.4412 45.6353L46.3619 7.59541L44.3619 7.59958ZM45.4391 44.6374L37.5191 44.6539L37.5233 46.6539L45.4433 46.6374L45.4391 44.6374ZM38.5212 45.6518L38.4336 3.65193L36.4336 3.6561L36.5212 45.656L38.5212 45.6518ZM37.4357 4.65401L52.9157 4.62174L52.9115 2.62174L37.4316 2.65402L37.4357 4.65401ZM51.9221 3.75208L56.9214 41.7817L58.9044 41.5211L53.9051 3.49141L51.9221 3.75208ZM73.2718 3.57929L73.2698 2.5793L72.2698 2.58138L72.2718 3.58138L73.2718 3.57929ZM100.099 7.18337L99.4053 7.90326L99.4113 7.90894L100.099 7.18337ZM100.172 41.9233L100.863 42.646L100.869 42.6403L100.172 41.9233ZM73.3594 45.5792L72.3594 45.5813L72.3615 46.5813L73.3615 46.5792L73.3594 45.5792ZM73.3435 37.9592L73.3414 36.9592L72.3414 36.9613L72.3435 37.9613L73.3435 37.9592ZM77.3035 37.951L77.3056 38.951L78.3056 38.9489L78.3035 37.9489L77.3035 37.951ZM77.2476 11.131L78.2476 11.1289L78.2455 10.1289L77.2455 10.131L77.2476 11.131ZM73.2876 11.1393L72.2876 11.1414L72.2897 12.1414L73.2897 12.1393L73.2876 11.1393ZM94.3396 36.0554L93.5757 35.4101L93.574 35.4122L94.3396 36.0554ZM94.2914 12.9555L93.5387 13.6138L93.5447 13.6206L93.5507 13.6273L94.2914 12.9555ZM85.1676 11.1145L85.1655 10.1145L84.1655 10.1166L84.1676 11.1166L85.1676 11.1145ZM85.2236 37.9945L84.2236 37.9965L84.2257 38.9965L85.2257 38.9945L85.2236 37.9945ZM73.2739 4.57929L88.5139 4.54752L88.5097 2.54752L73.2698 2.5793L73.2739 4.57929ZM88.5139 4.54752C93.578 4.53696 97.1405 5.71942 99.4053 7.90324L100.794 6.4635C98.0082 3.77784 93.8456 2.5364 88.5097 2.54752L88.5139 4.54752ZM99.4113 7.90894C101.661 10.0431 102.893 13.4646 102.903 18.3976L104.903 18.3934C104.892 13.1664 103.587 9.11314 100.788 6.4578L99.4113 7.90894ZM102.903 18.3976L102.928 30.6375L104.928 30.6334L104.903 18.3934L102.903 18.3976ZM102.928 30.6375C102.939 35.5689 101.723 39.0208 99.4747 41.2063L100.869 42.6403C103.651 39.9353 104.939 35.8619 104.928 30.6334L102.928 30.6375ZM99.4807 41.2006C97.2252 43.3577 93.6652 44.5369 88.5973 44.5474L88.6015 46.5474C93.9335 46.5363 98.0886 45.2994 100.863 42.646L99.4807 41.2006ZM88.5973 44.5474L73.3573 44.5792L73.3615 46.5792L88.6015 46.5474L88.5973 44.5474ZM74.3594 45.5771L74.3435 37.9571L72.3435 37.9613L72.3594 45.5813L74.3594 45.5771ZM73.3456 38.9592L77.3056 38.951L77.3014 36.951L73.3414 36.9592L73.3456 38.9592ZM78.3035 37.9489L78.2476 11.1289L76.2476 11.1331L76.3035 37.9531L78.3035 37.9489ZM77.2455 10.131L73.2855 10.1393L73.2897 12.1393L77.2497 12.131L77.2455 10.131ZM74.2876 11.1372L74.2718 3.57721L72.2718 3.58138L72.2876 11.1414L74.2876 11.1372ZM88.5857 38.9874C91.454 38.9815 93.7445 38.3182 95.1052 36.6987L93.574 35.4122C92.78 36.3572 91.2332 36.9819 88.5815 36.9875L88.5857 38.9874ZM95.1035 36.7008C96.4417 35.117 97.0128 32.7942 97.0068 29.9299L95.0068 29.934C95.0124 32.5897 94.472 34.3493 93.5757 35.4101L95.1035 36.7008ZM97.0068 29.9299L96.9828 18.4099L94.9828 18.4141L95.0068 29.934L97.0068 29.9299ZM96.9828 18.4099C96.9775 15.8692 96.3812 13.771 95.0321 12.2837L93.5507 13.6273C94.4469 14.6153 94.9781 16.1547 94.9828 18.4141L96.9828 18.4099ZM95.0442 12.2971C93.6747 10.7314 91.3857 10.1015 88.5255 10.1075L88.5297 12.1075C91.1894 12.102 92.743 12.7041 93.5387 13.6138L95.0442 12.2971ZM88.5255 10.1075L85.1655 10.1145L85.1697 12.1145L88.5297 12.1075L88.5255 10.1075ZM84.1676 11.1166L84.2236 37.9965L86.2236 37.9924L86.1676 11.1124L84.1676 11.1166ZM85.2257 38.9945L88.5857 38.9874L88.5815 36.9875L85.2215 36.9945L85.2257 38.9945ZM147.228 3.4251L147.226 2.42511L146.226 2.42719L146.228 3.42719L147.228 3.4251ZM177.468 3.36205L178.468 3.35997L178.466 2.35997L177.466 2.36206L177.468 3.36205ZM177.484 10.922L177.486 11.922L178.486 11.92L178.484 10.92L177.484 10.922ZM166.324 10.9453L166.322 9.94531L165.322 9.9474L165.324 10.9474L166.324 10.9453ZM166.396 45.3852L166.398 46.3852L167.398 46.3831L167.396 45.3832L166.396 45.3852ZM158.476 45.4017L157.476 45.4038L157.478 46.4038L158.478 46.4017L158.476 45.4017ZM158.404 10.9618L159.404 10.9597L159.402 9.95974L158.402 9.96182L158.404 10.9618ZM147.244 10.9851L146.244 10.9872L146.246 11.9872L147.246 11.9851L147.244 10.9851ZM147.23 4.4251L177.47 4.36205L177.466 2.36206L147.226 2.42511L147.23 4.4251ZM176.468 3.36414L176.484 10.9241L178.484 10.92L178.468 3.35997L176.468 3.36414ZM177.482 9.92204L166.322 9.94531L166.326 11.9453L177.486 11.922L177.482 9.92204ZM165.324 10.9474L165.396 45.3873L167.396 45.3832L167.324 10.9432L165.324 10.9474ZM166.394 44.3852L158.474 44.4018L158.478 46.4017L166.398 46.3852L166.394 44.3852ZM159.476 45.3997L159.404 10.9597L157.404 10.9639L157.476 45.4038L159.476 45.3997ZM158.402 9.96182L147.242 9.98509L147.246 11.9851L158.406 11.9618L158.402 9.96182ZM148.244 10.983L148.228 3.42302L146.228 3.42719L146.244 10.9872L148.244 10.983ZM187.694 7.00074L186.957 6.3252L186.952 6.3306L187.694 7.00074ZM210.434 6.95333L209.695 7.62658L209.7 7.63192L210.434 6.95333ZM210.507 41.7533L209.778 41.0678L209.773 41.0732L210.507 41.7533ZM187.767 41.8007L187.036 42.4838L187.041 42.4891L187.767 41.8007ZM202.759 38.2894L203.178 39.1976L203.193 39.1905L203.208 39.1829L202.759 38.2894ZM205.095 36.3045L205.91 36.8841L205.095 36.3045ZM206.349 33.3019L207.329 33.5025L206.349 33.3019ZM206.252 15.4221L207.223 15.1854L207.223 15.1854L206.252 15.4221ZM204.925 12.4248L205.738 11.8419L205.738 11.8419L204.925 12.4248ZM202.581 10.4497L202.107 11.33L202.121 11.3378L202.136 11.3451L202.581 10.4497ZM195.621 10.4642L196.07 11.3577L196.085 11.3504L196.099 11.3425L195.621 10.4642ZM193.285 12.4491L192.471 11.8696L193.285 12.4491ZM191.972 15.4518L190.999 15.2192L190.999 15.2192L191.972 15.4518ZM191.949 33.3319L190.97 33.5366L191.949 33.3319ZM193.215 36.3293L194.028 35.7464L193.215 36.3293ZM195.559 38.3044L195.114 39.1998L195.129 39.2073L195.145 39.2143L195.559 38.3044ZM184.64 19.6671C184.629 14.3889 185.939 10.4368 188.436 7.67089L186.952 6.3306C184.022 9.57606 182.629 14.0696 182.64 19.6713L184.64 19.6671ZM188.431 7.67626C190.961 4.91532 194.469 3.48661 199.087 3.47698L199.083 1.47699C194.02 1.48754 189.935 3.07467 186.957 6.32522L188.431 7.67626ZM199.087 3.47698C203.705 3.46736 207.195 4.88149 209.695 7.62656L211.173 6.2801C208.22 3.03653 204.145 1.46643 199.083 1.47699L199.087 3.47698ZM209.7 7.63192C212.245 10.3875 213.589 14.332 213.6 19.6068L215.6 19.6026C215.589 13.9974 214.155 9.50767 211.169 6.27474L209.7 7.63192ZM213.6 19.6068L213.62 28.9667L215.62 28.9626L215.6 19.6026L213.6 19.6068ZM213.62 28.9667C213.631 34.4127 212.298 38.3908 209.778 41.0679L211.235 42.4387C214.223 39.2643 215.632 34.7166 215.62 28.9626L213.62 28.9667ZM209.773 41.0732C207.288 43.7529 203.8 45.1473 199.174 45.1569L199.178 47.1569C204.232 47.1464 208.298 45.6049 211.24 42.4333L209.773 41.0732ZM199.174 45.1569C194.548 45.1665 191.031 43.7869 188.492 41.1122L187.041 42.4891C190.035 45.6429 194.124 47.1674 199.178 47.1569L199.174 45.1569ZM188.497 41.1175C186.003 38.4511 184.671 34.4765 184.66 29.0271L182.66 29.0313C182.672 34.7819 184.078 39.3216 187.036 42.4838L188.497 41.1175ZM184.66 29.0271L184.64 19.6671L182.64 19.6713L182.66 29.0313L184.66 29.0271ZM199.163 39.9569C200.697 39.9537 202.05 39.7175 203.178 39.1976L202.341 37.3812C201.551 37.7453 200.504 37.9541 199.159 37.9569L199.163 39.9569ZM203.208 39.1829C204.307 38.6307 205.214 37.8636 205.91 36.8841L204.28 35.725C203.78 36.428 203.13 36.9841 202.31 37.3959L203.208 39.1829ZM205.91 36.8841C206.6 35.9138 207.067 34.7794 207.329 33.5025L205.369 33.1013C205.156 34.1455 204.787 35.0128 204.28 35.725L205.91 36.8841ZM207.329 33.5025C207.582 32.2646 207.704 30.9152 207.701 29.4591L205.701 29.4633C205.704 30.8071 205.591 32.0183 205.369 33.1013L207.329 33.5025ZM207.701 29.4591L207.679 19.1391L205.679 19.1433L205.701 29.4633L207.701 29.4591ZM207.679 19.1391C207.677 17.7483 207.526 16.4292 207.223 15.1854L205.28 15.6587C205.542 16.7337 205.677 17.8941 205.679 19.1433L207.679 19.1391ZM207.223 15.1854C206.915 13.9206 206.425 12.7997 205.738 11.8419L204.113 13.0078C204.629 13.7274 205.023 14.6047 205.28 15.6587L207.223 15.1854ZM205.738 11.8419C205.037 10.8653 204.128 10.102 203.027 9.55436L202.136 11.3451C202.957 11.7534 203.61 12.3069 204.113 13.0078L205.738 11.8419ZM203.056 9.56943C201.917 8.95542 200.584 8.67387 199.098 8.67697L199.102 10.677C200.336 10.6744 201.324 10.908 202.107 11.33L203.056 9.56943ZM199.098 8.67697C197.611 8.68007 196.28 8.96717 195.143 9.58593L196.099 11.3425C196.881 10.9173 197.868 10.6795 199.102 10.677L199.098 8.67697ZM195.172 9.57073C194.073 10.123 193.167 10.89 192.471 11.8696L194.1 13.0286C194.6 12.3257 195.251 11.7695 196.07 11.3577L195.172 9.57073ZM192.471 11.8696C191.787 12.8303 191.302 13.9532 190.999 15.2192L192.944 15.6845C193.197 14.6293 193.587 13.7504 194.1 13.0286L192.471 11.8696ZM190.999 15.2192C190.701 16.4643 190.557 17.784 190.559 19.1748L192.559 19.1706C192.557 17.9214 192.687 16.7605 192.944 15.6845L190.999 15.2192ZM190.559 19.1748L190.581 29.4948L192.581 29.4906L192.559 19.1706L190.559 19.1748ZM190.581 29.4948C190.584 30.9509 190.712 32.2997 190.97 33.5366L192.928 33.1273C192.702 32.0451 192.584 30.8344 192.581 29.4906L190.581 29.4948ZM190.97 33.5366C191.237 34.8124 191.709 35.9448 192.403 36.9122L194.028 35.7464C193.518 35.0363 193.146 34.1705 192.928 33.1273L190.97 33.5366ZM192.403 36.9122C193.103 37.8889 194.013 38.6521 195.114 39.1998L196.005 37.4091C195.184 37.0007 194.531 36.4472 194.028 35.7464L192.403 36.9122ZM195.145 39.2143C196.275 39.7295 197.628 39.9601 199.163 39.9569L199.159 37.9569C197.813 37.9597 196.766 37.7553 195.974 37.3945L195.145 39.2143ZM259.123 3.19181L259.121 2.19182L258.121 2.1939L258.123 3.1939L259.123 3.19181ZM285.643 3.13652L286.643 3.13444L286.641 2.13444L285.641 2.13652L285.643 3.13652ZM285.659 10.6965L285.661 11.6965L286.661 11.6944L286.659 10.6944L285.659 10.6965ZM267.059 10.7353L267.057 9.73529L266.057 9.73737L266.059 10.7374L267.059 10.7353ZM267.079 20.3353L266.079 20.3373L266.081 21.3373L267.081 21.3353L267.079 20.3353ZM284.959 20.298L285.959 20.2959L285.956 19.2959L284.956 19.298L284.959 20.298ZM284.974 27.858L284.976 28.858L285.976 28.8559L285.974 27.8559L284.974 27.858ZM267.094 27.8952L267.092 26.8952L266.092 26.8973L266.094 27.8973L267.094 27.8952ZM267.115 37.6152L266.115 37.6173L266.117 38.6173L267.117 38.6152L267.115 37.6152ZM286.435 37.5749L287.435 37.5729L287.433 36.5729L286.433 36.5749L286.435 37.5749ZM286.45 45.1349L286.452 46.1349L287.452 46.1328L287.45 45.1328L286.45 45.1349ZM259.21 45.1917L258.21 45.1938L258.213 46.1938L259.213 46.1917L259.21 45.1917ZM259.125 4.19181L285.645 4.13652L285.641 2.13652L259.121 2.19182L259.125 4.19181ZM284.643 3.13861L284.659 10.6986L286.659 10.6944L286.643 3.13444L284.643 3.13861ZM285.656 9.69651L267.057 9.73529L267.061 11.7353L285.661 11.6965L285.656 9.69651ZM266.059 10.7374L266.079 20.3373L268.079 20.3332L268.059 10.7332L266.059 10.7374ZM267.081 21.3353L284.961 21.298L284.956 19.298L267.077 19.3353L267.081 21.3353ZM283.959 20.3001L283.974 27.8601L285.974 27.8559L285.959 20.2959L283.959 20.3001ZM284.972 26.858L267.092 26.8952L267.096 28.8952L284.976 28.858L284.972 26.858ZM266.094 27.8973L266.115 37.6173L268.115 37.6131L268.094 27.8932L266.094 27.8973ZM267.117 38.6152L286.437 38.5749L286.433 36.5749L267.113 36.6152L267.117 38.6152ZM285.435 37.577L285.45 45.137L287.45 45.1328L287.435 37.5729L285.435 37.577ZM286.448 44.1349L259.208 44.1917L259.213 46.1917L286.452 46.1349L286.448 44.1349ZM260.21 45.1896L260.123 3.18973L258.123 3.1939L258.21 45.1938L260.21 45.1896ZM315.08 41.1152L314.089 41.2456L314.203 42.1171L315.082 42.1152L315.08 41.1152ZM316.16 41.113L316.162 42.113L317.162 42.1109L317.16 41.1109L316.16 41.113ZM316.081 3.07306L316.079 2.07306L315.079 2.07515L315.081 3.07514L316.081 3.07306ZM324.001 3.05655L325.001 3.05446L324.999 2.05446L323.999 2.05655L324.001 3.05655ZM324.089 45.0565L324.091 46.0565L325.091 46.0544L325.089 45.0544L324.089 45.0565ZM308.609 45.0887L307.617 45.2191L307.732 46.0906L308.611 46.0887L308.609 45.0887ZM303.609 7.05907L304.601 6.92874L304.486 6.05724L303.607 6.05908L303.609 7.05907ZM302.529 7.06132L302.527 6.06133L301.527 6.06341L301.529 7.06341L302.529 7.06132ZM302.609 45.1012L302.611 46.1012L303.611 46.0992L303.609 45.0992L302.609 45.1012ZM294.689 45.1178L293.689 45.1198L293.691 46.1198L294.691 46.1178L294.689 45.1178ZM294.601 3.11784L294.599 2.11785L293.599 2.11993L293.601 3.11993L294.601 3.11784ZM310.081 3.08557L311.072 2.95523L310.958 2.08374L310.079 2.08557L310.081 3.08557ZM315.082 42.1152L316.162 42.113L316.158 40.113L315.078 40.1152L315.082 42.1152ZM317.16 41.1109L317.081 3.07097L315.081 3.07514L315.16 41.1151L317.16 41.1109ZM316.083 4.07306L324.003 4.05654L323.999 2.05655L316.079 2.07306L316.083 4.07306ZM323.001 3.05863L323.089 45.0585L325.089 45.0544L325.001 3.05446L323.001 3.05863ZM324.086 44.0565L308.606 44.0887L308.611 46.0887L324.091 46.0565L324.086 44.0565ZM309.6 44.9584L304.601 6.92874L302.618 7.18941L307.617 45.2191L309.6 44.9584ZM303.607 6.05908L302.527 6.06133L302.531 8.06132L303.611 8.05907L303.607 6.05908ZM301.529 7.06341L301.609 45.1033L303.609 45.0992L303.529 7.05924L301.529 7.06341ZM302.607 44.1012L294.687 44.1178L294.691 46.1178L302.611 46.1012L302.607 44.1012ZM295.689 45.1157L295.601 3.11576L293.601 3.11993L293.689 45.1198L295.689 45.1157ZM294.603 4.11784L310.083 4.08557L310.079 2.08557L294.599 2.11785L294.603 4.11784ZM309.09 3.21591L314.089 41.2456L316.072 40.9849L311.072 2.95523L309.09 3.21591ZM330.439 3.04312L330.437 2.04313L329.437 2.04521L329.439 3.04521L330.439 3.04312ZM357.267 6.6472L356.573 7.36709L356.579 7.37277L357.267 6.6472ZM357.339 41.3871L358.03 42.1098L358.036 42.1041L357.339 41.3871ZM330.527 45.043L329.527 45.0451L329.529 46.0451L330.529 46.043L330.527 45.043ZM330.511 37.4231L330.509 36.4231L329.509 36.4251L329.511 37.4251L330.511 37.4231ZM334.471 37.4148L334.473 38.4148L335.473 38.4127L335.471 37.4127L334.471 37.4148ZM334.415 10.5949L335.415 10.5928L335.413 9.59277L334.413 9.59486L334.415 10.5949ZM330.455 10.6031L329.455 10.6052L329.457 11.6052L330.457 11.6031L330.455 10.6031ZM351.507 35.5193L350.743 34.8739L350.741 34.876L351.507 35.5193ZM351.459 12.4193L350.706 13.0777L350.712 13.0845L350.718 13.0912L351.459 12.4193ZM342.335 10.5783L342.333 9.57834L341.333 9.58043L341.335 10.5804L342.335 10.5783ZM342.391 37.4583L341.391 37.4604L341.393 38.4604L342.393 38.4583L342.391 37.4583ZM330.441 4.04312L345.681 4.01135L345.677 2.01135L330.437 2.04313L330.441 4.04312ZM345.681 4.01135C350.745 4.00079 354.308 5.18325 356.573 7.36707L357.961 5.92733C355.176 3.24167 351.013 2.00023 345.677 2.01135L345.681 4.01135ZM356.579 7.37277C358.829 9.50691 360.06 12.9284 360.07 17.8614L362.07 17.8572C362.059 12.6302 360.755 8.57697 357.955 5.92162L356.579 7.37277ZM360.07 17.8614L360.096 30.1014L362.096 30.0972L362.07 17.8572L360.07 17.8614ZM360.096 30.1014C360.106 35.0328 358.89 38.4846 356.642 40.6702L358.036 42.1041C360.818 39.3991 362.107 35.3258 362.096 30.0972L360.096 30.1014ZM356.648 40.6644C354.393 42.8215 350.833 44.0007 345.765 44.0113L345.769 46.0113C351.101 46.0001 355.256 44.7632 358.03 42.1098L356.648 40.6644ZM345.765 44.0113L330.525 44.043L330.529 46.043L345.769 46.0113L345.765 44.0113ZM331.527 45.041L331.511 37.421L329.511 37.4251L329.527 45.0451L331.527 45.041ZM330.513 38.4231L334.473 38.4148L334.469 36.4148L330.509 36.4231L330.513 38.4231ZM335.471 37.4127L335.415 10.5928L333.415 10.5969L333.471 37.4169L335.471 37.4127ZM334.413 9.59486L330.453 9.60311L330.457 11.6031L334.417 11.5949L334.413 9.59486ZM331.455 10.601L331.439 3.04104L329.439 3.04521L329.455 10.6052L331.455 10.601ZM345.753 38.4513C348.621 38.4453 350.912 37.7821 352.273 36.1626L350.741 34.876C349.947 35.821 348.401 36.4458 345.749 36.4513L345.753 38.4513ZM352.271 36.1647C353.609 34.5808 354.18 32.258 354.174 29.3937L352.174 29.3979C352.18 32.0535 351.639 33.8131 350.743 34.8739L352.271 36.1647ZM354.174 29.3937L354.15 17.8737L352.15 17.8779L352.174 29.3979L354.174 29.3937ZM354.15 17.8737C354.145 15.3331 353.549 13.2348 352.2 11.7475L350.718 13.0912C351.614 14.0791 352.146 15.6186 352.15 17.8779L354.15 17.8737ZM352.212 11.761C350.842 10.1952 348.553 9.56538 345.693 9.57134L345.697 11.5713C348.357 11.5658 349.91 12.1679 350.706 13.0777L352.212 11.761ZM345.693 9.57134L342.333 9.57834L342.337 11.5783L345.697 11.5713L345.693 9.57134ZM341.335 10.5804L341.391 37.4604L343.391 37.4562L343.335 10.5763L341.335 10.5804ZM342.393 38.4583L345.753 38.4513L345.749 36.4513L342.389 36.4583L342.393 38.4583ZM424.753 11.3065L424.059 12.0262L424.064 12.0315L424.07 12.0368L424.753 11.3065ZM414.552 10.7278L415.121 11.5498L415.131 11.5433L415.14 11.5365L414.552 10.7278ZM413.243 16.0105L412.338 16.4353L412.343 16.4475L412.35 16.4596L413.243 16.0105ZM414.686 17.5675L414.111 18.3857L414.138 18.4047L414.167 18.4219L414.686 17.5675ZM417.449 18.7618L417.145 19.7145L417.154 19.7174L417.449 18.7618ZM421.831 19.7726L421.654 20.7569L421.831 19.7726ZM431.919 23.7716L431.291 24.5498L431.291 24.5498L431.919 23.7716ZM434.349 38.1666L433.436 37.7581L433.432 37.7689L434.349 38.1666ZM431.358 42.1928L432.006 42.954L431.358 42.1928ZM426.563 44.7828L426.869 45.7348L426.563 44.7828ZM412.883 44.5713L412.526 45.5054L412.536 45.5095L412.547 45.5134L412.883 44.5713ZM407.656 41.3422L406.95 42.0508L406.955 42.0559L406.961 42.061L407.656 41.3422ZM404.466 36.4889L403.533 36.8485L403.535 36.8552L404.466 36.4889ZM403.369 28.5711L403.367 27.5711L402.367 27.5732L402.369 28.5732L403.369 28.5711ZM411.289 28.5546L412.289 28.5525L412.287 27.5525L411.287 27.5546L411.289 28.5546ZM413.465 36.0501L412.74 36.7394L412.75 36.7491L412.759 36.7587L413.465 36.0501ZM425.646 36.6847L424.977 35.9415L425.646 36.6847ZM427.014 31.0418L426.079 31.3949L426.083 31.4051L426.087 31.4152L427.014 31.0418ZM425.751 29.3645L425.098 30.1215L425.112 30.1344L425.128 30.1466L425.751 29.3645ZM423.288 27.9896L423.645 27.0555L423.288 27.9896ZM419.326 26.9779L419.496 25.9925L419.491 25.9916L419.326 26.9779ZM413.503 25.61L413.182 26.5572L413.192 26.5605L413.202 26.5636L413.503 25.61ZM408.878 23.2796L408.28 24.0809L408.286 24.0853L408.292 24.0896L408.878 23.2796ZM405.789 9.30604L404.889 8.87042L404.884 8.88092L405.789 9.30604ZM408.721 5.45992L408.075 4.69698L408.069 4.70205L408.063 4.70721L408.721 5.45992ZM413.276 2.93042L412.958 1.98237L412.951 1.98458L413.276 2.93042ZM425.876 3.08415L425.527 4.02121L425.536 4.02442L425.544 4.02747L425.876 3.08415ZM430.682 5.89413L430 6.6251L430.005 6.63033L430.011 6.63547L430.682 5.89413ZM433.631 10.028L432.706 10.4095L432.71 10.4195L432.715 10.4295L433.631 10.028ZM434.665 17.1059L434.667 18.1059L435.667 18.1038L435.665 17.1038L434.665 17.1059ZM426.745 17.1224L425.745 17.1245L425.747 18.1245L426.747 18.1224L426.745 17.1224ZM427.742 15.6803C427.738 13.7011 426.943 11.9856 425.436 10.5762L424.07 12.0368C425.209 13.1019 425.74 14.3037 425.742 15.6845L427.742 15.6803ZM425.448 10.5868C423.924 9.11676 421.82 8.45262 419.287 8.4579L419.291 10.4579C421.479 10.4533 423.018 11.0216 424.059 12.0262L425.448 10.5868ZM419.287 8.4579C417.158 8.46234 415.348 8.91226 413.964 9.91906L415.14 11.5365C416.072 10.8585 417.421 10.4618 419.291 10.4579L419.287 8.4579ZM413.983 9.90575C412.556 10.8939 411.815 12.3021 411.819 14.0335L413.819 14.0293C413.817 12.9607 414.231 12.1665 415.121 11.5498L413.983 9.90575ZM411.819 14.0335C411.821 14.8866 411.989 15.6923 412.338 16.4353L414.148 15.5857C413.934 15.1299 413.82 14.6161 413.819 14.0293L411.819 14.0335ZM412.35 16.4596C412.725 17.207 413.338 17.8423 414.111 18.3857L415.261 16.7493C414.672 16.3356 414.323 15.9329 414.137 15.5614L412.35 16.4596ZM414.167 18.4219C414.976 18.9142 415.976 19.3413 417.145 19.7144L417.753 17.8091C416.68 17.4668 415.838 17.0979 415.206 16.7131L414.167 18.4219ZM417.154 19.7174C418.367 20.091 419.87 20.4364 421.654 20.7569L422.008 18.7884C420.27 18.4762 418.852 18.1476 417.743 17.8061L417.154 19.7174ZM421.654 20.7569C425.966 21.5316 429.147 22.8198 431.291 24.5498L432.547 22.9934C430.043 20.9731 426.499 19.5953 422.008 18.7884L421.654 20.7569ZM431.291 24.5498C433.327 26.192 434.409 28.651 434.417 32.1064L436.417 32.1022C436.409 28.1977 435.16 25.1015 432.547 22.9934L431.291 24.5498ZM434.417 32.1064L434.418 32.8264L436.418 32.8222L436.417 32.1022L434.417 32.1064ZM434.418 32.8264C434.422 34.6616 434.089 36.3001 433.436 37.7581L435.262 38.575C436.043 36.83 436.423 34.9071 436.418 32.8222L434.418 32.8264ZM433.432 37.7689C432.817 39.1877 431.913 40.4062 430.709 41.4317L432.006 42.954C433.438 41.7339 434.528 40.2682 435.267 38.5642L433.432 37.7689ZM430.709 41.4317C429.505 42.4576 428.028 43.2616 426.257 43.8308L426.869 45.7348C428.856 45.0961 430.575 44.1735 432.006 42.954L430.709 41.4317ZM426.257 43.8308C424.494 44.3976 422.479 44.6913 420.203 44.6961L420.207 46.6961C422.651 46.691 424.875 46.3758 426.869 45.7348L426.257 43.8308ZM420.203 44.6961C417.533 44.7016 415.21 44.3387 413.218 43.6293L412.547 45.5134C414.798 46.3151 417.357 46.702 420.207 46.6961L420.203 44.6961ZM413.24 43.6372C411.266 42.883 409.644 41.8743 408.351 40.6235L406.961 42.061C408.473 43.5243 410.336 44.6683 412.526 45.5054L413.24 43.6372ZM408.361 40.6336C407.056 39.3337 406.069 37.8324 405.396 36.1225L403.535 36.8552C404.31 38.8223 405.45 40.5566 406.95 42.0508L408.361 40.6336ZM405.399 36.1293C404.723 34.375 404.377 32.4581 404.373 30.369L402.373 30.3732C402.378 32.6841 402.761 34.8457 403.533 36.8485L405.399 36.1293ZM404.373 30.369L404.369 28.569L402.369 28.5732L402.373 30.3732L404.373 30.369ZM403.371 29.5711L411.291 29.5546L411.287 27.5546L403.367 27.5711L403.371 29.5711ZM410.289 28.5567L410.292 29.9967L412.292 29.9925L412.289 28.5525L410.289 28.5567ZM410.292 29.9967C410.298 32.7173 411.086 35.0005 412.74 36.7394L414.189 35.3608C412.957 34.0657 412.297 32.3119 412.292 29.9925L410.292 29.9967ZM412.759 36.7587C414.503 38.4953 417.091 39.2625 420.312 39.2558L420.307 37.2558C417.368 37.262 415.393 36.5587 414.17 35.3415L412.759 36.7587ZM420.312 39.2558C422.83 39.2506 424.897 38.7044 426.315 37.4279L424.977 35.9415C424.079 36.7498 422.589 37.2511 420.307 37.2558L420.312 39.2558ZM426.315 37.4279C427.665 36.2128 428.382 34.7083 428.378 32.959L426.378 32.9632C426.381 34.0939 425.943 35.0717 424.977 35.9415L426.315 37.4279ZM428.378 32.959C428.377 32.1585 428.233 31.3921 427.942 30.6685L426.087 31.4152C426.278 31.8905 426.377 32.4036 426.378 32.9632L428.378 32.959ZM427.95 30.6888C427.637 29.8605 427.098 29.159 426.374 28.5823L425.128 30.1466C425.606 30.5274 425.909 30.9442 426.079 31.3949L427.95 30.6888ZM426.404 28.6074C425.688 27.9891 424.754 27.4793 423.645 27.0555L422.931 28.9237C423.904 29.2955 424.612 29.7023 425.098 30.1215L426.404 28.6074ZM423.645 27.0555C422.523 26.6267 421.134 26.2756 419.496 25.9925L419.156 27.9632C420.719 28.2334 421.971 28.5568 422.931 28.9237L423.645 27.0555ZM419.491 25.9916C417.409 25.6425 415.514 25.1967 413.804 24.6564L413.202 26.5636C415.014 27.136 417.001 27.602 419.161 27.9641L419.491 25.9916ZM413.824 24.6628C412.145 24.0942 410.695 23.3606 409.465 22.4697L408.292 24.0896C409.705 25.1132 411.339 25.9331 413.182 26.5572L413.824 24.6628ZM409.477 22.4784C408.32 21.6145 407.418 20.5375 406.764 19.2368L404.977 20.135C405.769 21.7113 406.873 23.0301 408.28 24.0809L409.477 22.4784ZM406.764 19.2368C406.128 17.9715 405.784 16.3746 405.78 14.4061L403.78 14.4102C403.784 16.6017 404.167 18.5233 404.977 20.135L406.764 19.2368ZM405.78 14.4061L405.779 14.0461L403.779 14.0502L403.78 14.4102L405.78 14.4061ZM405.779 14.0461C405.776 12.4617 406.085 11.0285 406.694 9.73116L404.884 8.88092C404.139 10.4665 403.775 12.1946 403.779 14.0502L405.779 14.0461ZM406.689 9.74163C407.348 8.38089 408.243 7.20673 409.379 6.21263L408.063 4.70721C406.724 5.87827 405.664 7.26819 404.889 8.87045L406.689 9.74163ZM409.367 6.22287C410.54 5.22907 411.946 4.44397 413.6 3.87625L412.951 1.98458C411.088 2.62421 409.457 3.52544 408.075 4.69698L409.367 6.22287ZM413.594 3.87844C415.276 3.31385 417.167 3.02231 419.276 3.01791L419.272 1.01791C416.981 1.02269 414.873 1.33948 412.958 1.98239L413.594 3.87844ZM419.276 3.01791C421.66 3.01294 423.739 3.35483 425.527 4.02121L426.225 2.14709C424.171 1.38148 421.847 1.01254 419.272 1.01791L419.276 3.01791ZM425.544 4.02747C427.356 4.66495 428.833 5.53595 430 6.6251L431.364 5.16317C429.966 3.85766 428.239 2.85534 426.208 2.14083L425.544 4.02747ZM430.011 6.63547C431.23 7.73897 432.123 8.996 432.706 10.4095L434.555 9.64651C433.852 7.94267 432.779 6.44379 431.353 5.15279L430.011 6.63547ZM432.715 10.4295C433.342 11.8608 433.658 13.3639 433.661 14.9479L435.661 14.9438C435.657 13.0878 435.286 11.3124 434.546 9.6265L432.715 10.4295ZM433.661 14.9479L433.665 17.1079L435.665 17.1038L435.661 14.9438L433.661 14.9479ZM434.663 16.1059L426.743 16.1224L426.747 18.1224L434.667 18.1059L434.663 16.1059ZM427.745 17.1203L427.742 15.6803L425.742 15.6845L425.745 17.1245L427.745 17.1203ZM444.861 6.46457L444.124 5.78903L444.119 5.79443L444.861 6.46457ZM467.601 6.41716L466.862 7.09041L466.867 7.09575L467.601 6.41716ZM467.674 41.2171L466.946 40.5317L466.941 40.537L467.674 41.2171ZM444.934 41.2645L444.204 41.9476L444.209 41.9529L444.934 41.2645ZM459.927 37.7532L460.345 38.6614L460.361 38.6543L460.376 38.6467L459.927 37.7532ZM462.263 35.7684L463.078 36.3479L462.263 35.7684ZM463.516 32.7657L464.496 32.9663L463.516 32.7657ZM463.419 14.8859L464.391 14.6492L464.391 14.6492L463.419 14.8859ZM462.093 11.8887L462.905 11.3057L462.905 11.3057L462.093 11.8887ZM459.749 9.91354L459.274 10.7938L459.289 10.8016L459.303 10.8089L459.749 9.91354ZM452.789 9.92805L453.238 10.8215L453.252 10.8142L453.267 10.8064L452.789 9.92805ZM450.453 11.9129L449.638 11.3334L450.453 11.9129ZM449.139 14.9157L448.167 14.6831L448.167 14.6831L449.139 14.9157ZM449.116 32.7958L448.138 33.0004L449.116 32.7958ZM450.383 35.7931L451.195 35.2102L450.383 35.7931ZM452.727 37.7682L452.281 38.6636L452.297 38.6711L452.312 38.6782L452.727 37.7682ZM441.808 19.131C441.797 13.8527 443.106 9.90058 445.604 7.13472L444.119 5.79443C441.189 9.03989 439.796 13.5334 439.808 19.1351L441.808 19.131ZM445.599 7.14009C448.128 4.37915 451.637 2.95044 456.254 2.94081L456.25 0.940816C451.187 0.951371 447.102 2.5385 444.124 5.78905L445.599 7.14009ZM456.254 2.94081C460.872 2.93119 464.363 4.34532 466.862 7.09039L468.341 5.74393C465.388 2.50036 461.312 0.930262 456.25 0.940816L456.254 2.94081ZM466.867 7.09575C469.413 9.85131 470.757 13.7958 470.768 19.0706L472.768 19.0664C472.756 13.4612 471.323 8.9715 468.336 5.73857L466.867 7.09575ZM470.768 19.0706L470.787 28.4306L472.787 28.4264L472.768 19.0664L470.768 19.0706ZM470.787 28.4306C470.799 33.8765 469.466 37.8546 466.946 40.5317L468.402 41.9025C471.39 38.7281 472.799 34.1805 472.787 28.4264L470.787 28.4306ZM466.941 40.537C464.455 43.2168 460.967 44.6111 456.341 44.6207L456.345 46.6207C461.399 46.6102 465.465 45.0687 468.407 41.8972L466.941 40.537ZM456.341 44.6207C451.715 44.6304 448.198 43.2507 445.659 40.5761L444.209 41.9529C447.202 45.1067 451.291 46.6313 456.345 46.6207L456.341 44.6207ZM445.664 40.5814C443.17 37.915 441.839 33.9403 441.827 28.4909L439.827 28.4951C439.839 34.2457 441.246 38.7854 444.204 41.9476L445.664 40.5814ZM441.827 28.4909L441.808 19.131L439.808 19.1351L439.827 28.4951L441.827 28.4909ZM456.33 39.4207C457.865 39.4175 459.217 39.1813 460.345 38.6614L459.508 36.845C458.718 37.2092 457.672 37.4179 456.326 37.4207L456.33 39.4207ZM460.376 38.6467C461.475 38.0945 462.381 37.3274 463.078 36.3479L461.448 35.1888C460.948 35.8918 460.297 36.448 459.478 36.8597L460.376 38.6467ZM463.078 36.3479C463.768 35.3776 464.235 34.2432 464.496 32.9663L462.537 32.5652C462.323 33.6093 461.954 34.4766 461.448 35.1888L463.078 36.3479ZM464.496 32.9663C464.749 31.7284 464.871 30.3791 464.868 28.9229L462.868 28.9271C462.871 30.2709 462.758 31.4821 462.537 32.5652L464.496 32.9663ZM464.868 28.9229L464.847 18.6029L462.847 18.6071L462.868 28.9271L464.868 28.9229ZM464.847 18.6029C464.844 17.2122 464.694 15.8931 464.391 14.6492L462.448 15.1226C462.709 16.1976 462.844 17.3579 462.847 18.6071L464.847 18.6029ZM464.391 14.6492C464.083 13.3845 463.593 12.2636 462.905 11.3057L461.28 12.4716C461.797 13.1912 462.191 14.0685 462.448 15.1226L464.391 14.6492ZM462.905 11.3057C462.205 10.3291 461.295 9.56583 460.194 9.01819L459.303 10.8089C460.124 11.2173 460.777 11.7707 461.28 12.4716L462.905 11.3057ZM460.223 9.03326C459.084 8.41925 457.751 8.1377 456.265 8.1408L456.269 10.1408C457.503 10.1382 458.491 10.3718 459.274 10.7938L460.223 9.03326ZM456.265 8.1408C454.779 8.1439 453.447 8.431 452.311 9.04976L453.267 10.8064C454.048 10.3811 455.035 10.1434 456.269 10.1408L456.265 8.1408ZM452.34 9.03456C451.241 9.58679 450.335 10.3538 449.638 11.3334L451.268 12.4925C451.768 11.7895 452.419 11.2333 453.238 10.8215L452.34 9.03456ZM449.638 11.3334C448.955 12.2941 448.469 13.417 448.167 14.6831L450.112 15.1483C450.364 14.0932 450.755 13.2143 451.268 12.4925L449.638 11.3334ZM448.167 14.6831C447.869 15.9281 447.724 17.2478 447.727 18.6386L449.727 18.6345C449.724 17.3852 449.854 16.2244 450.112 15.1483L448.167 14.6831ZM447.727 18.6386L447.748 28.9586L449.748 28.9544L449.727 18.6345L447.727 18.6386ZM447.748 28.9586C447.751 30.4148 447.879 31.7636 448.138 33.0004L450.095 32.5911C449.869 31.509 449.751 30.2983 449.748 28.9544L447.748 28.9586ZM448.138 33.0004C448.404 34.2762 448.876 35.4087 449.57 36.3761L451.195 35.2102C450.686 34.5001 450.313 33.6343 450.095 32.5911L448.138 33.0004ZM449.57 36.3761C450.271 37.3527 451.18 38.116 452.281 38.6636L453.172 36.8729C452.351 36.4645 451.698 35.9111 451.195 35.2102L449.57 36.3761ZM452.312 38.6782C453.442 39.1934 454.796 39.4239 456.33 39.4207L456.326 37.4207C454.981 37.4235 453.933 37.2191 453.142 36.8583L452.312 38.6782ZM479.552 2.73224L479.55 1.73224L478.55 1.73432L478.552 2.73432L479.552 2.73224ZM487.472 2.71572L488.472 2.71364L488.47 1.71364L487.47 1.71573L487.472 2.71572ZM487.544 37.1557L486.544 37.1577L486.546 38.1577L487.546 38.1557L487.544 37.1557ZM506.624 37.1159L507.624 37.1138L507.622 36.1138L506.622 36.1159L506.624 37.1159ZM506.64 44.6759L506.642 45.6759L507.642 45.6738L507.64 44.6738L506.64 44.6759ZM479.64 44.7322L478.64 44.7342L478.642 45.7342L479.642 45.7321L479.64 44.7322ZM479.554 3.73223L487.474 3.71572L487.47 1.71573L479.55 1.73224L479.554 3.73223ZM486.472 2.71781L486.544 37.1577L488.544 37.1536L488.472 2.71364L486.472 2.71781ZM487.546 38.1557L506.626 38.1159L506.622 36.1159L487.542 36.1557L487.546 38.1557ZM505.624 37.118L505.64 44.6779L507.64 44.6738L507.624 37.1138L505.624 37.118ZM506.638 43.6759L479.638 43.7322L479.642 45.7321L506.642 45.6759L506.638 43.6759ZM480.64 44.7301L480.552 2.73015L478.552 2.73432L478.64 44.7342L480.64 44.7301ZM544.85 2.5961L545.85 2.59401L545.848 1.59401L544.848 1.5961L544.85 2.5961ZM541.091 41.364L540.361 40.6802L540.356 40.6859L541.091 41.364ZM518.471 41.4112L517.739 42.0924L517.744 42.0981L518.471 41.4112ZM514.61 2.65914L514.608 1.65915L513.608 1.66123L513.61 2.66123L514.61 2.65914ZM522.53 2.64263L523.53 2.64055L523.528 1.64055L522.528 1.64263L522.53 2.64263ZM524.34 35.9389L523.571 36.5786L524.34 35.9389ZM535.26 35.9162L534.488 35.2798L534.488 35.2798L535.26 35.9162ZM536.93 2.61261L536.928 1.61261L535.928 1.6147L535.93 2.61469L536.93 2.61261ZM543.85 2.59818L543.907 30.0781L545.907 30.074L545.85 2.59401L543.85 2.59818ZM543.907 30.0781C543.917 34.6987 542.696 38.1892 540.361 40.6802L541.821 42.0479C544.595 39.0882 545.918 35.0534 545.907 30.074L543.907 30.0781ZM540.356 40.6859C538.09 43.1425 534.64 44.4575 529.817 44.4675L529.822 46.4675C534.999 46.4567 539.064 45.0361 541.826 42.0421L540.356 40.6859ZM529.817 44.4675C524.996 44.4776 521.516 43.1774 519.198 40.7243L517.744 42.0981C520.557 45.0743 524.643 46.4783 529.822 46.4675L529.817 44.4675ZM519.203 40.73C516.895 38.2491 515.677 34.7616 515.668 30.137L513.668 30.1412C513.678 35.1166 514.996 39.1438 517.739 42.0923L519.203 40.73ZM515.668 30.137L515.61 2.65706L513.61 2.66123L513.668 30.1412L515.668 30.137ZM514.612 3.65914L522.532 3.64263L522.528 1.64263L514.608 1.65915L514.612 3.65914ZM521.53 2.64472L521.588 30.1247L523.588 30.1205L523.53 2.64055L521.53 2.64472ZM521.588 30.1247C521.593 32.753 522.213 34.9462 523.571 36.5786L525.108 35.2993C524.141 34.1365 523.592 32.4521 523.588 30.1205L521.588 30.1247ZM523.571 36.5786C524.987 38.2805 527.143 39.0331 529.806 39.0275L529.802 37.0275C527.505 37.0323 526.018 36.3925 525.108 35.2993L523.571 36.5786ZM529.806 39.0275C532.469 39.022 534.622 38.2604 536.031 36.5526L534.488 35.2798C533.583 36.3767 532.099 37.0228 529.802 37.0275L529.806 39.0275ZM536.031 36.5526C537.383 34.9145 537.993 32.7188 537.988 30.0905L535.988 30.0946C535.992 32.4263 535.451 34.113 534.488 35.2798L536.031 36.5526ZM537.988 30.0905L537.93 2.61052L535.93 2.61469L535.988 30.0946L537.988 30.0905ZM536.932 3.61261L544.852 3.59609L544.848 1.5961L536.928 1.61261L536.932 3.61261ZM551.348 2.58255L551.346 1.58255L550.346 1.58464L550.348 2.58463L551.348 2.58255ZM581.588 2.5195L582.588 2.51741L582.586 1.51742L581.586 1.5195L581.588 2.5195ZM581.604 10.0795L581.606 11.0795L582.606 11.0774L582.604 10.0774L581.604 10.0795ZM570.444 10.1028L570.442 9.10276L569.442 9.10484L569.444 10.1048L570.444 10.1028ZM570.516 44.5427L570.518 45.5427L571.518 45.5406L571.516 44.5406L570.516 44.5427ZM562.596 44.5592L561.596 44.5613L561.598 45.5613L562.598 45.5592L562.596 44.5592ZM562.524 10.1193L563.524 10.1172L563.522 9.11718L562.522 9.11927L562.524 10.1193ZM551.364 10.1425L550.364 10.1446L550.366 11.1446L551.366 11.1425L551.364 10.1425ZM551.351 3.58255L581.59 3.5195L581.586 1.5195L551.346 1.58255L551.351 3.58255ZM580.588 2.52158L580.604 10.0816L582.604 10.0774L582.588 2.51741L580.588 2.52158ZM581.602 9.07949L570.442 9.10276L570.446 11.1028L581.606 11.0795L581.602 9.07949ZM569.444 10.1048L569.516 44.5448L571.516 44.5406L571.444 10.1007L569.444 10.1048ZM570.514 43.5427L562.594 43.5592L562.598 45.5592L570.518 45.5427L570.514 43.5427ZM563.596 44.5571L563.524 10.1172L561.524 10.1214L561.596 44.5613L563.596 44.5571ZM562.522 9.11927L551.362 9.14254L551.366 11.1425L562.526 11.1193L562.522 9.11927ZM552.364 10.1404L552.348 2.58046L550.348 2.58463L550.364 10.1446L552.364 10.1404ZM589.167 2.5037L589.165 1.5037L588.165 1.50579L588.167 2.50578L589.167 2.5037ZM617.247 2.44516L618.247 2.44307L618.245 1.44307L617.245 1.44516L617.247 2.44516ZM617.262 10.0051L617.264 11.0051L618.264 11.0031L618.262 10.0031L617.262 10.0051ZM607.182 10.0262L607.18 9.02616L606.18 9.02825L606.182 10.0282L607.182 10.0262ZM607.238 36.9061L606.238 36.9082L606.241 37.9082L607.241 37.9061L607.238 36.9061ZM617.318 36.8851L618.318 36.883L618.316 35.883L617.316 35.8851L617.318 36.8851ZM617.334 44.4451L617.336 45.4451L618.336 45.443L618.334 44.443L617.334 44.4451ZM589.254 44.5036L588.254 44.5057L588.256 45.5057L589.256 45.5036L589.254 44.5036ZM589.238 36.9436L589.236 35.9436L588.236 35.9457L588.238 36.9457L589.238 36.9436ZM599.318 36.9226L599.321 37.9226L600.321 37.9205L600.318 36.9205L599.318 36.9226ZM599.262 10.0427L600.262 10.0406L600.26 9.04059L599.26 9.04267L599.262 10.0427ZM589.182 10.0637L588.182 10.0658L588.185 11.0658L589.185 11.0637L589.182 10.0637ZM589.169 3.5037L617.249 3.44515L617.245 1.44516L589.165 1.5037L589.169 3.5037ZM616.247 2.44724L616.262 10.0072L618.262 10.0031L618.247 2.44307L616.247 2.44724ZM617.26 9.00514L607.18 9.02616L607.184 11.0262L617.264 11.0051L617.26 9.00514ZM606.182 10.0282L606.238 36.9082L608.238 36.904L608.182 10.0241L606.182 10.0282ZM607.241 37.9061L617.321 37.8851L617.316 35.8851L607.236 35.9061L607.241 37.9061ZM616.318 36.8872L616.334 44.4472L618.334 44.443L618.318 36.883L616.318 36.8872ZM617.332 43.4451L589.252 43.5036L589.256 45.5036L617.336 45.4451L617.332 43.4451ZM590.254 44.5015L590.238 36.9415L588.238 36.9457L588.254 44.5057L590.254 44.5015ZM589.241 37.9436L599.321 37.9226L599.316 35.9226L589.236 35.9436L589.241 37.9436ZM600.318 36.9205L600.262 10.0406L598.262 10.0448L598.318 36.9247L600.318 36.9205ZM599.26 9.04267L589.18 9.06369L589.185 11.0637L599.265 11.0427L599.26 9.04267ZM590.182 10.0616L590.167 2.50161L588.167 2.50578L588.182 10.0658L590.182 10.0616ZM628.553 6.08159L627.815 5.40605L627.81 5.41145L628.553 6.08159ZM651.292 6.03418L650.553 6.70743L650.558 6.71277L651.292 6.03418ZM651.365 40.8341L650.637 40.1487L650.632 40.154L651.365 40.8341ZM628.625 40.8815L627.895 41.5647L627.9 41.57L628.625 40.8815ZM643.618 37.3703L644.036 38.2784L644.052 38.2714L644.067 38.2637L643.618 37.3703ZM645.954 35.3854L646.769 35.9649L645.954 35.3854ZM647.207 32.3828L648.187 32.5833L647.207 32.3828ZM647.11 14.5029L648.082 14.2663L648.082 14.2663L647.11 14.5029ZM645.784 11.5057L646.596 10.9227L646.596 10.9227L645.784 11.5057ZM643.44 9.53056L642.965 10.4108L642.98 10.4186L642.994 10.4259L643.44 9.53056ZM636.48 9.54507L636.929 10.4386L636.943 10.4312L636.958 10.4234L636.48 9.54507ZM634.144 11.5299L633.329 10.9504L634.144 11.5299ZM632.83 14.5327L631.858 14.3001L631.858 14.3001L632.83 14.5327ZM632.807 32.4128L631.829 32.6174L632.807 32.4128ZM634.074 35.4101L634.886 34.8272L634.074 35.4101ZM636.418 37.3853L635.972 38.2806L635.988 38.2882L636.003 38.2952L636.418 37.3853ZM625.499 18.748C625.488 13.4697 626.797 9.5176 629.295 6.75174L627.81 5.41145C624.88 8.65691 623.487 13.1504 623.499 18.7522L625.499 18.748ZM629.29 6.75711C631.819 3.99617 635.328 2.56746 639.945 2.55783L639.941 0.557837C634.878 0.568392 630.793 2.15552 627.815 5.40607L629.29 6.75711ZM639.945 2.55783C644.563 2.54821 648.054 3.96234 650.553 6.70741L652.032 5.36095C649.079 2.11738 645.003 0.547282 639.941 0.557837L639.945 2.55783ZM650.558 6.71277C653.104 9.46833 654.448 13.4129 654.459 18.6876L656.459 18.6834C656.447 13.0782 655.014 8.58852 652.027 5.35559L650.558 6.71277ZM654.459 18.6876L654.478 28.0476L656.478 28.0434L656.459 18.6834L654.459 18.6876ZM654.478 28.0476C654.49 33.4935 653.157 37.4716 650.637 40.1487L652.093 41.5195C655.081 38.3451 656.49 33.7975 656.478 28.0434L654.478 28.0476ZM650.632 40.154C648.146 42.8338 644.658 44.2281 640.032 44.2377L640.036 46.2377C645.09 46.2272 649.156 44.6857 652.098 41.5142L650.632 40.154ZM640.032 44.2377C635.406 44.2474 631.889 42.8678 629.35 40.1931L627.9 41.57C630.893 44.7238 634.982 46.2483 640.036 46.2377L640.032 44.2377ZM629.355 40.1984C626.861 37.532 625.53 33.5574 625.518 28.108L623.518 28.1121C623.53 33.8627 624.937 38.4024 627.895 41.5646L629.355 40.1984ZM625.518 28.108L625.499 18.748L623.499 18.7522L623.518 28.1121L625.518 28.108ZM640.021 39.0378C641.556 39.0346 642.908 38.7983 644.036 38.2784L643.199 36.4621C642.409 36.8262 641.363 37.035 640.017 37.0378L640.021 39.0378ZM644.067 38.2637C645.166 37.7115 646.072 36.9445 646.769 35.9649L645.139 34.8058C644.639 35.5088 643.988 36.065 643.169 36.4768L644.067 38.2637ZM646.769 35.9649C647.459 34.9946 647.926 33.8602 648.187 32.5833L646.228 32.1822C646.014 33.2263 645.645 34.0936 645.139 34.8058L646.769 35.9649ZM648.187 32.5833C648.441 31.3454 648.562 29.9961 648.559 28.5399L646.559 28.5441C646.562 29.8879 646.449 31.0991 646.228 32.1822L648.187 32.5833ZM648.559 28.5399L648.538 18.22L646.538 18.2241L646.559 28.5441L648.559 28.5399ZM648.538 18.22C648.535 16.8292 648.385 15.5101 648.082 14.2663L646.138 14.7396C646.4 15.8146 646.535 16.9749 646.538 18.2241L648.538 18.22ZM648.082 14.2663C647.774 13.0015 647.284 11.8806 646.596 10.9227L644.971 12.0886C645.488 12.8083 645.882 13.6855 646.138 14.7396L648.082 14.2663ZM646.596 10.9227C645.896 9.94612 644.986 9.18285 643.885 8.63521L642.994 10.4259C643.815 10.8343 644.469 11.3877 644.971 12.0886L646.596 10.9227ZM643.914 8.65028C642.775 8.03627 641.442 7.75472 639.956 7.75782L639.96 9.75782C641.194 9.75524 642.182 9.98886 642.965 10.4108L643.914 8.65028ZM639.956 7.75782C638.47 7.76092 637.138 8.04802 636.002 8.66678L636.958 10.4234C637.739 9.99812 638.726 9.76039 639.96 9.75782L639.956 7.75782ZM636.031 8.65158C634.932 9.20382 634.026 9.97087 633.329 10.9504L634.959 12.1095C635.459 11.4065 636.11 10.8503 636.929 10.4386L636.031 8.65158ZM633.329 10.9504C632.646 11.9111 632.16 13.034 631.858 14.3001L633.803 14.7653C634.055 13.7102 634.446 12.8313 634.959 12.1095L633.329 10.9504ZM631.858 14.3001C631.56 15.5452 631.415 16.8649 631.418 18.2556L633.418 18.2515C633.415 17.0023 633.545 15.8414 633.803 14.7653L631.858 14.3001ZM631.418 18.2556L631.439 28.5756L633.439 28.5715L633.418 18.2515L631.418 18.2556ZM631.439 28.5756C631.442 30.0318 631.57 31.3806 631.829 32.6174L633.786 32.2081C633.56 31.126 633.442 29.9153 633.439 28.5715L631.439 28.5756ZM631.829 32.6174C632.095 33.8932 632.567 35.0257 633.261 35.9931L634.886 34.8272C634.377 34.1171 634.004 33.2513 633.786 32.2081L631.829 32.6174ZM633.261 35.9931C633.962 36.9697 634.871 37.733 635.972 38.2806L636.863 36.4899C636.042 36.0816 635.389 35.5281 634.886 34.8272L633.261 35.9931ZM636.003 38.2952C637.133 38.8104 638.487 39.041 640.021 39.0378L640.017 37.0378C638.672 37.0406 637.624 36.8362 636.833 36.4753L636.003 38.2952ZM682.462 40.3493L681.471 40.4796L681.585 41.3511L682.464 41.3493L682.462 40.3493ZM683.542 40.347L683.544 41.347L684.544 41.3449L684.542 40.3449L683.542 40.347ZM683.463 2.3071L683.461 1.3071L682.461 1.30919L682.463 2.30919L683.463 2.3071ZM691.383 2.29059L692.383 2.2885L692.381 1.28851L691.381 1.29059L691.383 2.29059ZM691.471 44.2905L691.473 45.2905L692.473 45.2884L692.471 44.2884L691.471 44.2905ZM675.991 44.3228L674.999 44.4531L675.114 45.3246L675.993 45.3228L675.991 44.3228ZM670.991 6.29311L671.983 6.16278L671.868 5.29128L670.989 5.29312L670.991 6.29311ZM669.911 6.29537L669.909 5.29537L668.909 5.29745L668.911 6.29745L669.911 6.29537ZM669.991 44.3353L669.993 45.3353L670.993 45.3332L670.991 44.3332L669.991 44.3353ZM662.071 44.3518L661.071 44.3539L661.073 45.3539L662.073 45.3518L662.071 44.3518ZM661.983 2.35188L661.981 1.35189L660.981 1.35397L660.983 2.35397L661.983 2.35188ZM677.463 2.31961L678.454 2.18928L678.34 1.31778L677.461 1.31961L677.463 2.31961ZM682.464 41.3493L683.544 41.347L683.54 39.347L682.46 39.3493L682.464 41.3493ZM684.542 40.3449L684.463 2.30502L682.463 2.30919L682.542 40.3491L684.542 40.3449ZM683.465 3.3071L691.385 3.29059L691.381 1.29059L683.461 1.3071L683.465 3.3071ZM690.383 2.29267L690.471 44.2926L692.471 44.2884L692.383 2.2885L690.383 2.29267ZM691.468 43.2905L675.989 43.3228L675.993 45.3228L691.473 45.2905L691.468 43.2905ZM676.982 44.1924L671.983 6.16278L670 6.42345L674.999 44.4531L676.982 44.1924ZM670.989 5.29312L669.909 5.29537L669.913 7.29536L670.993 7.29311L670.989 5.29312ZM668.911 6.29745L668.991 44.3374L670.991 44.3332L670.911 6.29328L668.911 6.29745ZM669.989 43.3353L662.069 43.3518L662.073 45.3518L669.993 45.3353L669.989 43.3353ZM663.071 44.3497L662.983 2.3498L660.983 2.35397L661.071 44.3539L663.071 44.3497ZM661.985 3.35188L677.465 3.31961L677.461 1.31961L661.981 1.35189L661.985 3.35188ZM676.472 2.44995L681.471 40.4796L683.454 40.2189L678.454 2.18928L676.472 2.44995Z" fill="#30EFD3"/>
</svg>
