<svg width="657" height="47" viewBox="0 0 657 47" fill="none" xmlns="http://www.w3.org/2000/svg">
<path d="M9.32787 29.8453L9.32579 28.8453L8.32579 28.8474L8.32788 29.8474L9.32787 29.8453ZM9.3609 45.6853L9.36298 46.6853L10.363 46.6832L10.3609 45.6832L9.3609 45.6853ZM1.44092 45.7018L0.440918 45.7039L0.443003 46.7039L1.443 46.7018L1.44092 45.7018ZM1.35335 3.70189L1.35126 2.7019L0.351267 2.70398L0.353352 3.70398L1.35335 3.70189ZM23.4356 4.73586L23.0271 5.64863L23.0367 5.65292L23.0463 5.657L23.4356 4.73586ZM27.4013 7.4876L26.6581 8.15669L26.6703 8.17019L26.6829 8.18323L27.4013 7.4876ZM29.8094 11.3826L28.8667 11.716L28.8722 11.7316L28.8782 11.747L29.8094 11.3826ZM29.8313 21.8826L28.8923 21.5388L28.8897 21.5459L28.8872 21.553L29.8313 21.8826ZM27.4397 25.9076L26.695 25.2401L26.6937 25.2416L27.4397 25.9076ZM23.4856 28.7358L23.8979 29.6469L23.4856 28.7358ZM9.31211 22.2853L8.31211 22.2874L8.3142 23.2874L9.3142 23.2853L9.31211 22.2853ZM21.1891 20.8206L20.5093 20.0872L20.5021 20.0938L20.4951 20.1006L21.1891 20.8206ZM21.1721 12.6606L20.481 13.3834L20.4881 13.3902L20.4953 13.3968L21.1721 12.6606ZM9.28909 11.2454L9.28701 10.2454L8.28701 10.2475L8.2891 11.2475L9.28909 11.2454ZM8.32788 29.8474L8.3609 45.6874L10.3609 45.6832L10.3279 29.8432L8.32788 29.8474ZM9.35881 44.6853L1.43883 44.7018L1.443 46.7018L9.36298 46.6853L9.35881 44.6853ZM2.44091 45.6997L2.35335 3.69981L0.353352 3.70398L0.440918 45.7039L2.44091 45.6997ZM1.35543 4.70189L17.7954 4.66761L17.7912 2.66762L1.35126 2.7019L1.35543 4.70189ZM17.7954 4.66761C19.8458 4.66334 21.581 5.0015 23.0271 5.64863L23.844 3.82308C22.0871 3.03689 20.0608 2.66289 17.7912 2.66762L17.7954 4.66761ZM23.0463 5.657C24.5285 6.28327 25.7246 7.11984 26.6581 8.15669L28.1445 6.8185C26.9931 5.53969 25.5455 4.54177 23.8248 3.81471L23.0463 5.657ZM26.6829 8.18323C27.6645 9.19689 28.3911 10.3714 28.8667 11.716L30.7522 11.0491C30.1816 9.43593 29.3028 8.01379 28.1197 6.79196L26.6829 8.18323ZM28.8782 11.747C29.3968 13.0723 29.6558 14.429 29.6587 15.8229L31.6587 15.8187C31.6552 14.1727 31.3481 12.5705 30.7407 11.0182L28.8782 11.747ZM29.6587 15.8229L29.6617 17.2629L31.6617 17.2587L31.6587 15.8187L29.6587 15.8229ZM29.6617 17.2629C29.6647 18.7004 29.4101 20.1241 28.8923 21.5388L30.7704 22.2263C31.3662 20.5987 31.6652 18.9412 31.6617 17.2587L29.6617 17.2629ZM28.8872 21.553C28.4151 22.9058 27.687 24.1333 26.695 25.2401L28.1844 26.575C29.3474 25.2773 30.2138 23.8215 30.7755 22.2121L28.8872 21.553ZM26.6937 25.2416C25.7601 26.2873 24.5608 27.1517 23.0733 27.8247L23.8979 29.6469C25.6074 28.8733 27.0441 27.8522 28.1857 26.5735L26.6937 25.2416ZM23.0733 27.8247C21.6299 28.4779 19.8962 28.8233 17.8458 28.8276L17.8499 30.8276C20.1195 30.8228 22.1443 30.4404 23.8979 29.6469L23.0733 27.8247ZM17.8458 28.8276L9.32579 28.8453L9.32996 30.8453L17.8499 30.8276L17.8458 28.8276ZM9.3142 23.2853L17.0542 23.2692L17.05 21.2692L9.31003 21.2853L9.3142 23.2853ZM17.0542 23.2692C18.9996 23.2651 20.6528 22.7266 21.8831 21.5405L20.4951 20.1006C19.7294 20.8388 18.6245 21.2659 17.05 21.2692L17.0542 23.2692ZM21.8689 21.554C23.1279 20.3869 23.745 18.8712 23.7413 17.0952L21.7413 17.0994C21.744 18.3634 21.3262 19.3299 20.5093 20.0872L21.8689 21.554ZM23.7413 17.0952L23.7398 16.3752L21.7398 16.3794L21.7413 17.0994L23.7413 17.0952ZM23.7398 16.3752C23.7361 14.5993 23.1127 13.0862 21.8488 11.9244L20.4953 13.3968C21.3154 14.1507 21.7372 15.1154 21.7398 16.3794L23.7398 16.3752ZM21.8631 11.9378C20.6278 10.7569 18.9725 10.2252 17.027 10.2292L17.0312 12.2292C18.6057 12.2259 19.7123 12.6485 20.481 13.3834L21.8631 11.9378ZM17.027 10.2292L9.28701 10.2454L9.29118 12.2454L17.0312 12.2292L17.027 10.2292ZM8.2891 11.2475L8.31211 22.2874L10.3121 22.2833L10.2891 11.2433L8.2891 11.2475ZM59.3403 36.5811L60.3151 36.358L60.1369 35.5794L59.3382 35.5811L59.3403 36.5811ZM45.0603 36.6108L45.0583 35.6108L44.2596 35.6125L44.0846 36.3918L45.0603 36.6108ZM43.0391 45.6151L43.0412 46.6151L43.8399 46.6134L44.0148 45.8341L43.0391 45.6151ZM34.7591 45.6323L33.7859 45.4023L33.4946 46.635L34.7612 46.6323L34.7591 45.6323ZM44.6915 3.61154L44.6895 2.61154L43.9 2.61319L43.7184 3.38151L44.6915 3.61154ZM59.5715 3.58051L60.5437 3.34643L60.3589 2.57887L59.5694 2.58052L59.5715 3.58051ZM69.679 45.5595L69.6811 46.5595L70.9478 46.5569L70.6513 45.3254L69.679 45.5595ZM61.3991 45.5768L60.4243 45.7999L60.6025 46.5785L61.4012 46.5768L61.3991 45.5768ZM46.7246 29.0474L45.7494 28.8261L45.4717 30.05L46.7267 30.0474L46.7246 29.0474ZM57.5846 29.0247L57.5866 30.0247L58.8382 30.0221L58.5594 28.802L57.5846 29.0247ZM52.6798 7.55489L53.6547 7.33218L53.4767 6.55323L52.6777 6.5549L52.6798 7.55489ZM51.5998 7.55714L51.5977 6.55715L50.8009 6.55881L50.6246 7.33591L51.5998 7.55714ZM59.3382 35.5811L45.0583 35.6108L45.0624 37.6108L59.3424 37.5811L59.3382 35.5811ZM44.0846 36.3918L42.0634 45.3961L44.0148 45.8341L46.0361 36.8299L44.0846 36.3918ZM43.037 44.6151L34.757 44.6323L34.7612 46.6323L43.0412 46.6151L43.037 44.6151ZM35.7323 45.8624L45.6647 3.84157L43.7184 3.38151L33.7859 45.4023L35.7323 45.8624ZM44.6936 4.61153L59.5736 4.58051L59.5694 2.58052L44.6895 2.61154L44.6936 4.61153ZM58.5993 3.8146L68.7068 45.7936L70.6513 45.3254L60.5437 3.34643L58.5993 3.8146ZM69.677 44.5595L61.397 44.5768L61.4012 46.5768L69.6811 46.5595L69.677 44.5595ZM62.3739 45.3537L60.3151 36.358L58.3655 36.8042L60.4243 45.7999L62.3739 45.3537ZM46.7267 30.0474L57.5866 30.0247L57.5825 28.0247L46.7225 28.0474L46.7267 30.0474ZM58.5594 28.802L53.6547 7.33218L51.7049 7.77761L56.6097 29.2474L58.5594 28.802ZM52.6777 6.5549L51.5977 6.55715L51.6019 8.55714L52.6819 8.55489L52.6777 6.5549ZM50.6246 7.33591L45.7494 28.8261L47.6998 29.2686L52.575 7.77838L50.6246 7.33591ZM73.7498 3.55095L73.7477 2.55096L72.7477 2.55304L72.7498 3.55304L73.7498 3.55095ZM103.99 3.48791L104.99 3.48582L104.988 2.48582L103.988 2.48791L103.99 3.48791ZM104.005 11.0479L104.008 12.0479L105.008 12.0458L105.005 11.0458L104.005 11.0479ZM92.8455 11.0712L92.8434 10.0712L91.8434 10.0732L91.8455 11.0732L92.8455 11.0712ZM92.9173 45.5111L92.9194 46.5111L93.9194 46.509L93.9173 45.509L92.9173 45.5111ZM84.9973 45.5276L83.9973 45.5297L83.9994 46.5297L84.9994 46.5276L84.9973 45.5276ZM84.9255 11.0877L85.9255 11.0856L85.9234 10.0856L84.9234 10.0877L84.9255 11.0877ZM73.7655 11.1109L72.7655 11.113L72.7676 12.113L73.7676 12.1109L73.7655 11.1109ZM73.7518 4.55095L103.992 4.4879L103.988 2.48791L73.7477 2.55096L73.7518 4.55095ZM102.99 3.48999L103.005 11.05L105.005 11.0458L104.99 3.48582L102.99 3.48999ZM104.003 10.0479L92.8434 10.0712L92.8476 12.0712L104.008 12.0479L104.003 10.0479ZM91.8455 11.0732L91.9173 45.5132L93.9173 45.509L93.8455 11.0691L91.8455 11.0732ZM92.9152 44.5111L84.9952 44.5276L84.9994 46.5276L92.9194 46.5111L92.9152 44.5111ZM85.9973 45.5255L85.9255 11.0856L83.9255 11.0898L83.9973 45.5297L85.9973 45.5255ZM84.9234 10.0877L73.7634 10.1109L73.7676 12.1109L84.9276 12.0877L84.9234 10.0877ZM74.7655 11.1089L74.7498 3.54887L72.7498 3.55304L72.7655 11.113L74.7655 11.1089ZM110.908 3.47348L110.906 2.47348L109.906 2.47557L109.908 3.47557L110.908 3.47348ZM118.828 3.45697L119.828 3.45488L119.826 2.45489L118.826 2.45697L118.828 3.45697ZM118.864 20.6169L117.864 20.619L117.866 21.619L118.866 21.6169L118.864 20.6169ZM132.424 20.5887L132.426 21.5887L133.426 21.5866L133.424 20.5866L132.424 20.5887ZM132.388 3.4287L132.386 2.4287L131.386 2.43079L131.388 3.43078L132.388 3.4287ZM140.308 3.41219L141.308 3.4101L141.306 2.4101L140.306 2.41219L140.308 3.41219ZM140.395 45.4121L140.398 46.4121L141.398 46.41L141.395 45.41L140.395 45.4121ZM132.475 45.4286L131.475 45.4307L131.478 46.4307L132.478 46.4286L132.475 45.4286ZM132.439 28.1486L133.439 28.1466L133.437 27.1466L132.437 27.1486L132.439 28.1486ZM118.879 28.1769L118.877 27.1769L117.877 27.179L117.879 28.179L118.879 28.1769ZM118.916 45.4569L118.918 46.4569L119.918 46.4548L119.916 45.4548L118.916 45.4569ZM110.996 45.4734L109.996 45.4755L109.998 46.4755L110.998 46.4734L110.996 45.4734ZM110.91 4.47348L118.83 4.45697L118.826 2.45697L110.906 2.47348L110.91 4.47348ZM117.828 3.45905L117.864 20.619L119.864 20.6148L119.828 3.45488L117.828 3.45905ZM118.866 21.6169L132.426 21.5887L132.422 19.5887L118.862 19.6169L118.866 21.6169ZM133.424 20.5866L133.388 3.42661L131.388 3.43078L131.424 20.5907L133.424 20.5866ZM132.39 4.42869L140.31 4.41218L140.306 2.41219L132.386 2.4287L132.39 4.42869ZM139.308 3.41427L139.395 45.4142L141.395 45.41L141.308 3.4101L139.308 3.41427ZM140.393 44.4121L132.473 44.4286L132.478 46.4286L140.398 46.4121L140.393 44.4121ZM133.475 45.4265L133.439 28.1466L131.439 28.1507L131.475 45.4307L133.475 45.4265ZM132.437 27.1486L118.877 27.1769L118.882 29.1769L132.442 29.1486L132.437 27.1486ZM117.879 28.179L117.916 45.459L119.916 45.4548L119.879 28.1748L117.879 28.179ZM118.913 44.4569L110.993 44.4734L110.998 46.4734L118.918 46.4569L118.913 44.4569ZM111.996 45.4713L111.908 3.4714L109.908 3.47557L109.996 45.4755L111.996 45.4713ZM178.874 45.3319L178.876 46.3319L179.842 46.3299L179.873 45.3641L178.874 45.3319ZM165.074 45.3606L164.076 45.4228L164.134 46.3626L165.076 46.3606L165.074 45.3606ZM163.087 13.4447L162.087 13.4468L162.087 13.4769L162.089 13.5068L163.087 13.4447ZM163.075 7.68473L164.075 7.68265L164.073 6.68265L163.073 6.68473L163.075 7.68473ZM161.635 7.68773L161.633 6.68773L160.633 6.68982L160.635 7.68982L161.635 7.68773ZM161.647 13.4477L162.645 13.5057L162.647 13.4757L162.647 13.4456L161.647 13.4477ZM159.794 45.3717L159.796 46.3717L160.737 46.3697L160.792 45.4296L159.794 45.3717ZM145.994 45.4004L144.994 45.4368L145.03 46.4024L145.996 46.4004L145.994 45.4004ZM144.466 3.40352L144.464 2.40352L143.429 2.40568L143.467 3.43987L144.466 3.40352ZM151.666 3.3885L152.666 3.35636L152.634 2.38648L151.664 2.38851L151.666 3.3885ZM152.693 35.3064L153.693 35.3044L153.693 35.2893L153.692 35.2743L152.693 35.3064ZM152.704 40.7064L151.704 40.7085L151.706 41.7085L152.706 41.7064L152.704 40.7064ZM154.144 40.7034L154.146 41.7034L155.146 41.7013L155.144 40.7013L154.144 40.7034ZM154.133 35.3034L153.134 35.2455L153.133 35.2755L153.133 35.3055L154.133 35.3034ZM155.986 3.3795L155.984 2.3795L155.042 2.38146L154.988 3.32154L155.986 3.3795ZM168.706 3.35298L169.704 3.29086L169.646 2.35102L168.704 2.35298L168.706 3.35298ZM170.693 35.2689L171.693 35.2668L171.693 35.2368L171.691 35.2068L170.693 35.2689ZM170.704 40.6689L169.704 40.671L169.706 41.671L170.706 41.6689L170.704 40.6689ZM172.144 40.6659L172.146 41.6659L173.146 41.6638L173.144 40.6638L172.144 40.6659ZM172.133 35.2659L171.133 35.2379L171.133 35.253L171.133 35.268L172.133 35.2659ZM173.026 3.34397L173.024 2.34397L172.054 2.346L172.026 3.31599L173.026 3.34397ZM180.226 3.32896L181.226 3.36114L181.259 2.3268L180.224 2.32896L180.226 3.32896ZM178.872 44.3319L165.072 44.3606L165.076 46.3606L178.876 46.3319L178.872 44.3319ZM166.072 45.2985L164.085 13.3826L162.089 13.5068L164.076 45.4228L166.072 45.2985ZM164.087 13.4426L164.075 7.68265L162.075 7.68681L162.087 13.4468L164.087 13.4426ZM163.073 6.68473L161.633 6.68773L161.637 8.68773L163.077 8.68473L163.073 6.68473ZM160.635 7.68982L160.647 13.4498L162.647 13.4456L162.635 7.68565L160.635 7.68982ZM160.649 13.3898L158.795 45.3137L160.792 45.4296L162.645 13.5057L160.649 13.3898ZM159.792 44.3717L145.992 44.4004L145.996 46.4004L159.796 46.3717L159.792 44.3717ZM146.993 45.3641L145.466 3.36717L143.467 3.43987L144.994 45.4368L146.993 45.3641ZM144.468 4.40351L151.668 4.3885L151.664 2.38851L144.464 2.40352L144.468 4.40351ZM150.667 3.42065L151.693 35.3386L153.692 35.2743L152.666 3.35636L150.667 3.42065ZM151.693 35.3085L151.704 40.7085L153.704 40.7043L153.693 35.3044L151.693 35.3085ZM152.706 41.7064L154.146 41.7034L154.142 39.7034L152.702 39.7064L152.706 41.7064ZM155.144 40.7013L155.133 35.3013L153.133 35.3055L153.144 40.7055L155.144 40.7013ZM155.131 35.3614L156.984 3.43746L154.988 3.32154L153.134 35.2455L155.131 35.3614ZM155.988 4.37949L168.708 4.35297L168.704 2.35298L155.984 2.3795L155.988 4.37949ZM167.708 3.4151L169.695 35.331L171.691 35.2068L169.704 3.29086L167.708 3.4151ZM169.693 35.271L169.704 40.671L171.704 40.6668L171.693 35.2668L169.693 35.271ZM170.706 41.6689L172.146 41.6659L172.142 39.6659L170.702 39.6689L170.706 41.6689ZM173.144 40.6638L173.133 35.2638L171.133 35.268L171.144 40.668L173.144 40.6638ZM173.132 35.2939L174.026 3.37195L172.026 3.31599L171.133 35.2379L173.132 35.2939ZM173.028 4.34397L180.228 4.32896L180.224 2.32896L173.024 2.34397L173.028 4.34397ZM179.227 3.29678L177.874 45.2997L179.873 45.3641L181.226 3.36114L179.227 3.29678ZM206.293 36.2747L207.268 36.0516L207.09 35.273L206.291 35.2747L206.293 36.2747ZM192.013 36.3045L192.011 35.3045L191.212 35.3061L191.037 36.0854L192.013 36.3045ZM189.992 45.3087L189.994 46.3087L190.793 46.307L190.968 45.5277L189.992 45.3087ZM181.712 45.326L180.739 45.0959L180.447 46.3286L181.714 46.326L181.712 45.326ZM191.644 3.30515L191.642 2.30516L190.853 2.3068L190.671 3.07512L191.644 3.30515ZM206.524 3.27413L207.497 3.04004L207.312 2.27249L206.522 2.27413L206.524 3.27413ZM216.632 45.2532L216.634 46.2532L217.901 46.2505L217.604 45.0191L216.632 45.2532ZM208.352 45.2704L207.377 45.4935L207.555 46.2721L208.354 46.2704L208.352 45.2704ZM193.677 28.741L192.702 28.5197L192.425 29.7436L193.679 29.741L193.677 28.741ZM204.537 28.7183L204.539 29.7183L205.791 29.7157L205.512 28.4956L204.537 28.7183ZM199.633 7.24851L200.607 7.0258L200.43 6.24685L199.631 6.24851L199.633 7.24851ZM198.553 7.25076L198.551 6.25076L197.754 6.25242L197.577 7.02953L198.553 7.25076ZM206.291 35.2747L192.011 35.3045L192.015 37.3045L206.295 37.2747L206.291 35.2747ZM191.037 36.0854L189.016 45.0897L190.968 45.5277L192.989 36.5235L191.037 36.0854ZM189.99 44.3087L181.71 44.326L181.714 46.326L189.994 46.3087L189.99 44.3087ZM182.685 45.556L192.618 3.53518L190.671 3.07512L180.739 45.0959L182.685 45.556ZM191.646 4.30515L206.526 4.27413L206.522 2.27413L191.642 2.30516L191.646 4.30515ZM205.552 3.50822L215.66 45.4872L217.604 45.0191L207.497 3.04004L205.552 3.50822ZM216.63 44.2532L208.35 44.2704L208.354 46.2704L216.634 46.2532L216.63 44.2532ZM209.327 45.0473L207.268 36.0516L205.318 36.4978L207.377 45.4935L209.327 45.0473ZM193.679 29.741L204.539 29.7183L204.535 27.7183L193.675 27.741L193.679 29.741ZM205.512 28.4956L200.607 7.0258L198.658 7.47122L203.562 28.941L205.512 28.4956ZM199.631 6.24851L198.551 6.25076L198.555 8.25076L199.635 8.24851L199.631 6.24851ZM197.577 7.02953L192.702 28.5197L194.653 28.9622L199.528 7.472L197.577 7.02953ZM231.919 30.4612L232.919 30.4592L232.917 29.4592L231.917 29.4612L231.919 30.4612ZM230.119 30.465L229.206 30.8717L229.471 31.4664L230.121 31.465L230.119 30.465ZM218.003 3.2502L218 2.2502L216.464 2.2534L217.089 3.65693L218.003 3.2502ZM226.643 3.23219L227.56 2.83436L227.298 2.23082L226.64 2.23219L226.643 3.23219ZM235.324 23.2541L234.407 23.652L234.669 24.2555L235.326 24.2541L235.324 23.2541ZM236.404 23.2519L236.406 24.2519L237.064 24.2505L237.323 23.6459L236.404 23.2519ZM245.003 3.19391L245 2.19391L244.343 2.19528L244.083 2.79991L245.003 3.19391ZM253.642 3.17589L254.558 3.57882L255.177 2.17269L253.64 2.1759L253.642 3.17589ZM241.639 30.441L241.641 31.441L242.292 31.4396L242.555 30.8439L241.639 30.441ZM239.839 30.4447L239.837 29.4447L238.837 29.4468L238.839 30.4468L239.839 30.4447ZM239.87 45.2047L239.872 46.2047L240.872 46.2026L240.87 45.2026L239.87 45.2047ZM231.95 45.2212L230.95 45.2233L230.952 46.2233L231.952 46.2212L231.95 45.2212ZM231.917 29.4612L230.117 29.465L230.121 31.465L231.921 31.4612L231.917 29.4612ZM231.033 30.0583L218.916 2.84346L217.089 3.65693L229.206 30.8717L231.033 30.0583ZM218.005 4.2502L226.645 4.23218L226.64 2.23219L218 2.2502L218.005 4.2502ZM225.725 3.63001L234.407 23.652L236.242 22.8563L227.56 2.83436L225.725 3.63001ZM235.326 24.2541L236.406 24.2519L236.402 22.2519L235.322 22.2541L235.326 24.2541ZM237.323 23.6459L245.922 3.5879L244.083 2.79991L235.485 22.8579L237.323 23.6459ZM245.005 4.1939L253.645 4.17589L253.64 2.1759L245 2.19391L245.005 4.1939ZM252.727 2.77297L240.724 30.0381L242.555 30.8439L254.558 3.57882L252.727 2.77297ZM241.637 29.441L239.837 29.4447L239.841 31.4447L241.641 31.441L241.637 29.441ZM238.839 30.4468L238.87 45.2068L240.87 45.2026L240.839 30.4426L238.839 30.4468ZM239.868 44.2047L231.948 44.2212L231.952 46.2212L239.872 46.2047L239.868 44.2047ZM232.95 45.2191L232.919 30.4592L230.919 30.4633L230.95 45.2233L232.95 45.2191ZM294.179 3.09138L294.177 2.09138L293.177 2.09347L293.179 3.09346L294.179 3.09138ZM324.419 3.02833L325.419 3.02625L325.417 2.02625L324.417 2.02833L324.419 3.02833ZM324.435 10.5883L324.437 11.5883L325.437 11.5862L325.435 10.5862L324.435 10.5883ZM313.275 10.6116L313.273 9.61159L312.273 9.61367L312.275 10.6137L313.275 10.6116ZM313.347 45.0515L313.349 46.0515L314.349 46.0494L314.347 45.0494L313.347 45.0515ZM305.427 45.068L304.427 45.0701L304.429 46.0701L305.429 46.068L305.427 45.068ZM305.355 10.6281L306.355 10.626L306.353 9.62601L305.353 9.6281L305.355 10.6281ZM294.195 10.6514L293.195 10.6534L293.197 11.6534L294.197 11.6514L294.195 10.6514ZM294.181 4.09137L324.421 4.02833L324.417 2.02833L294.177 2.09138L294.181 4.09137ZM323.419 3.03042L323.435 10.5904L325.435 10.5862L325.419 3.02625L323.419 3.03042ZM324.433 9.58832L313.273 9.61159L313.277 11.6116L324.437 11.5883L324.433 9.58832ZM312.275 10.6137L312.347 45.0536L314.347 45.0494L314.275 10.6095L312.275 10.6137ZM313.344 44.0515L305.424 44.068L305.429 46.068L313.349 46.0515L313.344 44.0515ZM306.427 45.0659L306.355 10.626L304.355 10.6302L304.427 45.0701L306.427 45.0659ZM305.353 9.6281L294.193 9.65137L294.197 11.6514L305.357 11.6281L305.353 9.6281ZM295.195 10.6493L295.179 3.08929L293.179 3.09346L293.195 10.6534L295.195 10.6493ZM334.645 6.66702L333.907 5.99148L333.903 5.99688L334.645 6.66702ZM357.385 6.61961L356.645 7.29286L356.65 7.2982L357.385 6.61961ZM357.457 41.4195L356.729 40.7341L356.724 40.7395L357.457 41.4195ZM334.717 41.4669L333.987 42.1501L333.992 42.1554L334.717 41.4669ZM349.71 37.9557L350.129 38.8639L350.144 38.8568L350.159 38.8492L349.71 37.9557ZM352.046 35.9708L352.861 36.5503L352.046 35.9708ZM353.3 32.9682L354.279 33.1687L353.3 32.9682ZM353.202 15.0883L354.174 14.8517L354.174 14.8517L353.202 15.0883ZM351.876 12.0911L352.689 11.5082L352.689 11.5082L351.876 12.0911ZM349.532 10.116L349.058 10.9963L349.072 11.004L349.087 11.0113L349.532 10.116ZM342.572 10.1305L343.021 11.024L343.036 11.0166L343.05 11.0088L342.572 10.1305ZM340.236 12.1154L339.421 11.5358L340.236 12.1154ZM338.922 15.1181L337.95 14.8855L337.95 14.8855L338.922 15.1181ZM338.9 32.9982L337.921 33.2029L338.9 32.9982ZM340.166 35.9956L340.978 35.4126L340.166 35.9956ZM342.51 37.9707L342.065 38.8661L342.08 38.8736L342.095 38.8806L342.51 37.9707ZM331.591 19.3334C331.58 14.0552 332.89 10.103 335.387 7.33716L333.903 5.99688C330.972 9.24234 329.58 13.7359 329.591 19.3376L331.591 19.3334ZM335.382 7.34254C337.912 4.5816 341.42 3.15289 346.037 3.14326L346.033 1.14326C340.971 1.15382 336.885 2.74094 333.907 5.9915L335.382 7.34254ZM346.037 3.14326C350.655 3.13363 354.146 4.54777 356.645 7.29284L358.124 5.94638C355.171 2.7028 351.096 1.13271 346.033 1.14326L346.037 3.14326ZM356.65 7.2982C359.196 10.0538 360.54 13.9983 360.551 19.273L362.551 19.2689C362.539 13.6636 361.106 9.17394 358.119 5.94102L356.65 7.2982ZM360.551 19.273L360.571 28.633L362.571 28.6288L362.551 19.2689L360.551 19.273ZM360.571 28.633C360.582 34.0789 359.249 38.057 356.729 40.7341L358.185 42.1049C361.173 38.9305 362.583 34.3829 362.571 28.6288L360.571 28.633ZM356.724 40.7395C354.238 43.4192 350.751 44.8135 346.124 44.8232L346.129 46.8232C351.182 46.8126 355.248 45.2712 358.19 42.0996L356.724 40.7395ZM346.124 44.8232C341.499 44.8328 337.981 43.4532 335.443 40.7785L333.992 42.1554C336.986 45.3092 341.074 46.8337 346.129 46.8232L346.124 44.8232ZM335.448 40.7838C332.953 38.1174 331.622 34.1428 331.611 28.6934L329.611 28.6976C329.623 34.4482 331.029 38.9878 333.987 42.1501L335.448 40.7838ZM331.611 28.6934L331.591 19.3334L329.591 19.3376L329.611 28.6976L331.611 28.6934ZM346.114 39.6232C347.648 39.62 349.001 39.3838 350.129 38.8639L349.292 37.0475C348.501 37.4116 347.455 37.6204 346.109 37.6232L346.114 39.6232ZM350.159 38.8492C351.258 38.2969 352.164 37.5299 352.861 36.5503L351.231 35.3913C350.731 36.0942 350.08 36.6504 349.261 37.0622L350.159 38.8492ZM352.861 36.5503C353.551 35.5801 354.018 34.4456 354.279 33.1687L352.32 32.7676C352.106 33.8117 351.737 34.679 351.231 35.3913L352.861 36.5503ZM354.279 33.1687C354.533 31.9308 354.655 30.5815 354.652 29.1254L352.652 29.1295C352.654 30.4734 352.542 31.6845 352.32 32.7676L354.279 33.1687ZM354.652 29.1254L354.63 18.8054L352.63 18.8095L352.652 29.1295L354.652 29.1254ZM354.63 18.8054C354.627 17.4146 354.477 16.0955 354.174 14.8517L352.231 15.325C352.493 16.4 352.628 17.5603 352.63 18.8095L354.63 18.8054ZM354.174 14.8517C353.866 13.5869 353.376 12.466 352.689 11.5082L351.064 12.674C351.58 13.3937 351.974 14.271 352.231 15.325L354.174 14.8517ZM352.689 11.5082C351.988 10.5315 351.078 9.76828 349.977 9.22063L349.087 11.0113C349.908 11.4197 350.561 11.9732 351.064 12.674L352.689 11.5082ZM350.006 9.23571C348.867 8.6217 347.534 8.34015 346.048 8.34325L346.053 10.3432C347.286 10.3407 348.275 10.5743 349.058 10.9963L350.006 9.23571ZM346.048 8.34325C344.562 8.34634 343.231 8.63345 342.094 9.2522L343.05 11.0088C343.831 10.5835 344.819 10.3458 346.053 10.3432L346.048 8.34325ZM342.123 9.23701C341.024 9.78924 340.118 10.5563 339.421 11.5358L341.051 12.6949C341.551 11.992 342.202 11.4358 343.021 11.024L342.123 9.23701ZM339.421 11.5358C338.738 12.4965 338.253 13.6195 337.95 14.8855L339.895 15.3507C340.147 14.2956 340.538 13.4167 341.051 12.6949L339.421 11.5358ZM337.95 14.8855C337.652 16.1306 337.507 17.4503 337.51 18.8411L339.51 18.8369C339.508 17.5877 339.638 16.4268 339.895 15.3507L337.95 14.8855ZM337.51 18.8411L337.532 29.1611L339.532 29.1569L339.51 18.8369L337.51 18.8411ZM337.532 29.1611C337.535 30.6172 337.662 31.966 337.921 33.2029L339.879 32.7936C339.652 31.7114 339.534 30.5007 339.532 29.1569L337.532 29.1611ZM337.921 33.2029C338.188 34.4786 338.659 35.6111 339.353 36.5785L340.978 35.4126C340.469 34.7025 340.097 33.8368 339.879 32.7936L337.921 33.2029ZM339.353 36.5785C340.054 37.5551 340.964 38.3184 342.065 38.8661L342.955 37.0753C342.134 36.667 341.481 36.1135 340.978 35.4126L339.353 36.5785ZM342.095 38.8806C343.226 39.3958 344.579 39.6264 346.114 39.6232L346.109 37.6232C344.764 37.626 343.716 37.4216 342.925 37.0608L342.095 38.8806ZM424.751 11.2792L424.057 11.9989L424.062 12.0042L424.068 12.0094L424.751 11.2792ZM414.55 10.7004L415.119 11.5225L415.129 11.5159L415.138 11.5092L414.55 10.7004ZM413.241 15.9832L412.336 16.4079L412.341 16.4202L412.347 16.4323L413.241 15.9832ZM414.684 17.5402L414.109 18.3583L414.136 18.3774L414.165 18.3945L414.684 17.5402ZM417.447 18.7344L417.143 19.6871L417.152 19.6901L417.447 18.7344ZM421.829 19.7453L421.652 20.7295L421.829 19.7453ZM431.917 23.7443L431.289 24.5225L431.289 24.5225L431.917 23.7443ZM434.347 38.1392L433.434 37.7307L433.43 37.7415L434.347 38.1392ZM431.356 42.1655L432.004 42.9266L431.356 42.1655ZM426.561 44.7555L426.867 45.7075L426.561 44.7555ZM412.881 44.544L412.523 45.4781L412.534 45.4822L412.545 45.486L412.881 44.544ZM407.654 41.3149L406.948 42.0235L406.953 42.0286L406.958 42.0336L407.654 41.3149ZM404.464 36.4615L403.531 36.8211L403.533 36.8279L404.464 36.4615ZM403.367 28.5438L403.365 27.5438L402.365 27.5459L402.367 28.5459L403.367 28.5438ZM411.287 28.5273L412.287 28.5252L412.285 27.5252L411.285 27.5273L411.287 28.5273ZM413.463 36.0228L412.738 36.712L412.748 36.7218L412.757 36.7313L413.463 36.0228ZM425.644 36.6574L424.975 35.9142L425.644 36.6574ZM427.012 31.0145L426.077 31.3676L426.081 31.3777L426.085 31.3878L427.012 31.0145ZM425.749 29.3371L425.095 30.0942L425.11 30.107L425.126 30.1193L425.749 29.3371ZM423.286 27.9623L423.643 27.0282L423.286 27.9623ZM419.324 26.9505L419.494 25.9651L419.489 25.9643L419.324 26.9505ZM413.501 25.5827L413.18 26.5298L413.19 26.5331L413.2 26.5362L413.501 25.5827ZM408.876 23.2523L408.278 24.0535L408.284 24.0579L408.29 24.0623L408.876 23.2523ZM405.787 9.2787L404.887 8.84308L404.882 8.85358L405.787 9.2787ZM408.719 5.43258L408.072 4.66964L408.067 4.67471L408.061 4.67987L408.719 5.43258ZM413.274 2.90307L412.955 1.95503L412.949 1.95724L413.274 2.90307ZM425.874 3.05681L425.525 3.99387L425.533 3.99708L425.542 4.00013L425.874 3.05681ZM430.68 5.86679L429.997 6.59776L430.003 6.60299L430.009 6.60813L430.68 5.86679ZM433.629 10.0007L432.704 10.3821L432.708 10.3922L432.713 10.4021L433.629 10.0007ZM434.663 17.0785L434.665 18.0785L435.665 18.0764L435.663 17.0764L434.663 17.0785ZM426.743 17.095L425.743 17.0971L425.745 18.0971L426.745 18.095L426.743 17.095ZM427.74 15.6529C427.736 13.6737 426.941 11.9583 425.434 10.5489L424.068 12.0094C425.207 13.0745 425.737 14.2763 425.74 15.6571L427.74 15.6529ZM425.445 10.5595C423.922 9.08942 421.818 8.42528 419.285 8.43056L419.289 10.4306C421.476 10.426 423.016 10.9943 424.057 11.9989L425.445 10.5595ZM419.285 8.43056C417.156 8.435 415.346 8.88492 413.962 9.89172L415.138 11.5092C416.07 10.8311 417.419 10.4345 419.289 10.4306L419.285 8.43056ZM413.98 9.87841C412.554 10.8666 411.813 12.2748 411.817 14.0061L413.817 14.002C413.815 12.9333 414.229 12.1391 415.119 11.5225L413.98 9.87841ZM411.817 14.0061C411.819 14.8593 411.987 15.665 412.336 16.4079L414.146 15.5584C413.932 15.1025 413.818 14.5888 413.817 14.002L411.817 14.0061ZM412.347 16.4323C412.723 17.1796 413.336 17.815 414.109 18.3583L415.259 16.722C414.67 16.3082 414.321 15.9055 414.134 15.5341L412.347 16.4323ZM414.165 18.3945C414.974 18.8868 415.974 19.314 417.143 19.6871L417.751 17.7817C416.678 17.4395 415.836 17.0705 415.204 16.6858L414.165 18.3945ZM417.152 19.6901C418.365 20.0637 419.868 20.409 421.652 20.7295L422.006 18.761C420.268 18.4488 418.85 18.1203 417.741 17.7787L417.152 19.6901ZM421.652 20.7295C425.964 21.5043 429.145 22.7924 431.289 24.5225L432.545 22.966C430.041 20.9458 426.497 19.5679 422.006 18.761L421.652 20.7295ZM431.289 24.5225C433.324 26.1647 434.407 28.6236 434.415 32.0791L436.415 32.0749C436.406 28.1703 435.158 25.0741 432.545 22.966L431.289 24.5225ZM434.415 32.0791L434.416 32.7991L436.416 32.7949L436.415 32.0749L434.415 32.0791ZM434.416 32.7991C434.42 34.6342 434.087 36.2728 433.434 37.7308L435.26 38.5477C436.041 36.8027 436.42 34.8797 436.416 32.7949L434.416 32.7991ZM433.43 37.7415C432.815 39.1604 431.911 40.3788 430.707 41.4043L432.004 42.9266C433.436 41.7066 434.526 40.2409 435.265 38.5369L433.43 37.7415ZM430.707 41.4043C429.503 42.4303 428.026 43.2343 426.255 43.8034L426.867 45.7075C428.854 45.0688 430.573 44.1461 432.004 42.9266L430.707 41.4043ZM426.255 43.8034C424.491 44.3703 422.477 44.664 420.201 44.6687L420.205 46.6687C422.649 46.6636 424.873 46.3485 426.867 45.7075L426.255 43.8034ZM420.201 44.6687C417.531 44.6743 415.208 44.3113 413.216 43.6019L412.545 45.486C414.796 46.2878 417.355 46.6747 420.205 46.6687L420.201 44.6687ZM413.238 43.6099C411.264 42.8556 409.642 41.8469 408.349 40.5962L406.958 42.0336C408.471 43.497 410.333 44.641 412.523 45.4781L413.238 43.6099ZM408.359 40.6063C407.054 39.3064 406.067 37.805 405.394 36.0952L403.533 36.8279C404.308 38.795 405.448 40.5292 406.948 42.0235L408.359 40.6063ZM405.397 36.1019C404.721 34.3477 404.375 32.4308 404.371 30.3417L402.371 30.3459C402.376 32.6568 402.759 34.8184 403.531 36.8211L405.397 36.1019ZM404.371 30.3417L404.367 28.5417L402.367 28.5459L402.371 30.3459L404.371 30.3417ZM403.369 29.5438L411.289 29.5273L411.285 27.5273L403.365 27.5438L403.369 29.5438ZM410.287 28.5294L410.29 29.9694L412.29 29.9652L412.287 28.5252L410.287 28.5294ZM410.29 29.9694C410.296 32.69 411.084 34.9732 412.738 36.712L414.187 35.3335C412.955 34.0384 412.295 32.2846 412.29 29.9652L410.29 29.9694ZM412.757 36.7313C414.501 38.468 417.089 39.2352 420.309 39.2285L420.305 37.2285C417.366 37.2346 415.391 36.5314 414.168 35.3142L412.757 36.7313ZM420.309 39.2285C422.828 39.2232 424.895 38.6771 426.313 37.4005L424.975 35.9142C424.077 36.7225 422.587 37.2237 420.305 37.2285L420.309 39.2285ZM426.313 37.4005C427.663 36.1855 428.38 34.6809 428.376 32.9317L426.376 32.9358C426.379 34.0665 425.941 35.0444 424.975 35.9142L426.313 37.4005ZM428.376 32.9317C428.375 32.1312 428.231 31.3648 427.94 30.6412L426.085 31.3878C426.276 31.8632 426.375 32.3763 426.376 32.9358L428.376 32.9317ZM427.948 30.6614C427.635 29.8331 427.096 29.1317 426.372 28.555L425.126 30.1193C425.604 30.5 425.907 30.9169 426.077 31.3676L427.948 30.6614ZM426.402 28.5801C425.686 27.9618 424.752 27.452 423.643 27.0282L422.929 28.8964C423.902 29.2682 424.61 29.675 425.095 30.0942L426.402 28.5801ZM423.643 27.0282C422.521 26.5994 421.132 26.2483 419.494 25.9651L419.154 27.9359C420.716 28.2061 421.969 28.5295 422.929 28.8964L423.643 27.0282ZM419.489 25.9643C417.407 25.6152 415.512 25.1693 413.802 24.6291L413.2 26.5362C415.012 27.1086 416.999 27.5747 419.158 27.9367L419.489 25.9643ZM413.822 24.6355C412.142 24.0669 410.693 23.3332 409.463 22.4423L408.29 24.0623C409.703 25.0858 411.337 25.9057 413.18 26.5298L413.822 24.6355ZM409.474 22.451C408.318 21.5872 407.416 20.5102 406.762 19.2095L404.975 20.1076C405.767 21.6839 406.871 23.0027 408.278 24.0535L409.474 22.451ZM406.762 19.2095C406.126 17.9441 405.782 16.3473 405.778 14.3787L403.778 14.3829C403.782 16.5743 404.165 18.496 404.975 20.1076L406.762 19.2095ZM405.778 14.3787L405.777 14.0187L403.777 14.0229L403.778 14.3829L405.778 14.3787ZM405.777 14.0187C405.774 12.4344 406.083 11.0011 406.692 9.70382L404.882 8.85358C404.137 10.4391 403.773 12.1673 403.777 14.0229L405.777 14.0187ZM406.687 9.71429C407.346 8.35355 408.241 7.17939 409.377 6.18529L408.061 4.67987C406.722 5.85093 405.662 7.24085 404.887 8.84311L406.687 9.71429ZM409.365 6.19553C410.538 5.20172 411.944 4.41662 413.598 3.84891L412.949 1.95724C411.086 2.59687 409.455 3.4981 408.072 4.66964L409.365 6.19553ZM413.592 3.8511C415.274 3.28651 417.165 2.99497 419.274 2.99057L419.27 0.990571C416.979 0.995347 414.871 1.31214 412.955 1.95505L413.592 3.8511ZM419.274 2.99057C421.658 2.9856 423.737 3.32749 425.525 3.99387L426.223 2.11975C424.169 1.35414 421.845 0.985201 419.27 0.990571L419.274 2.99057ZM425.542 4.00013C427.354 4.63761 428.831 5.50861 429.997 6.59776L431.362 5.13583C429.964 3.83032 428.237 2.828 426.206 2.11349L425.542 4.00013ZM430.009 6.60813C431.228 7.71163 432.121 8.96866 432.704 10.3821L434.553 9.61917C433.85 7.91533 432.777 6.41645 431.351 5.12545L430.009 6.60813ZM432.713 10.4021C433.34 11.8334 433.655 13.3366 433.659 14.9206L435.659 14.9164C435.655 13.0604 435.283 11.2851 434.544 9.59916L432.713 10.4021ZM433.659 14.9206L433.663 17.0806L435.663 17.0764L435.659 14.9164L433.659 14.9206ZM434.661 16.0785L426.741 16.095L426.745 18.095L434.665 18.0785L434.661 16.0785ZM427.743 17.0929L427.74 15.6529L425.74 15.6571L425.743 17.0971L427.743 17.0929ZM471.372 2.72195L472.372 2.71986L472.37 1.71986L471.37 1.72195L471.372 2.72195ZM467.613 41.4899L466.883 40.806L466.878 40.8118L467.613 41.4899ZM444.993 41.537L444.26 42.2182L444.266 42.2239L444.993 41.537ZM441.132 2.78499L441.13 1.785L440.13 1.78708L440.132 2.78708L441.132 2.78499ZM449.052 2.76848L450.052 2.7664L450.05 1.7664L449.05 1.76848L449.052 2.76848ZM450.861 36.0648L450.092 36.7044L450.861 36.0648ZM461.781 36.042L461.01 35.4056L461.01 35.4056L461.781 36.042ZM463.452 2.73846L463.45 1.73846L462.45 1.74055L462.452 2.74054L463.452 2.73846ZM470.372 2.72403L470.429 30.204L472.429 30.1998L472.372 2.71986L470.372 2.72403ZM470.429 30.204C470.439 34.8245 469.218 38.315 466.883 40.806L468.342 42.1737C471.116 39.214 472.439 35.1792 472.429 30.1998L470.429 30.204ZM466.878 40.8118C464.611 43.2683 461.162 44.5833 456.339 44.5934L456.343 46.5934C461.521 46.5826 465.585 45.1619 468.348 42.168L466.878 40.8118ZM456.339 44.5934C451.517 44.6034 448.038 43.3033 445.719 40.8502L444.266 42.2239C447.079 45.2001 451.165 46.6042 456.343 46.5934L456.339 44.5934ZM445.725 40.8559C443.417 38.375 442.199 34.8874 442.189 30.2629L440.189 30.267C440.199 35.2424 441.517 39.2696 444.26 42.2182L445.725 40.8559ZM442.189 30.2629L442.132 2.78291L440.132 2.78708L440.189 30.267L442.189 30.2629ZM441.134 3.78499L449.054 3.76848L449.05 1.76848L441.13 1.785L441.134 3.78499ZM448.052 2.77057L448.109 30.2505L450.109 30.2463L450.052 2.7664L448.052 2.77057ZM448.109 30.2505C448.115 32.8789 448.734 35.072 450.092 36.7044L451.63 35.4252C450.662 34.2624 450.114 32.578 450.109 30.2463L448.109 30.2505ZM450.092 36.7044C451.509 38.4064 453.664 39.1589 456.328 39.1534L456.323 37.1534C454.027 37.1582 452.54 36.5184 451.63 35.4252L450.092 36.7044ZM456.328 39.1534C458.991 39.1478 461.143 38.3863 462.553 36.6784L461.01 35.4056C460.105 36.5026 458.62 37.1486 456.323 37.1534L456.328 39.1534ZM462.553 36.6784C463.904 35.0404 464.515 32.8447 464.509 30.2163L462.509 30.2205C462.514 32.5521 461.972 34.2388 461.01 35.4056L462.553 36.6784ZM464.509 30.2163L464.452 2.73637L462.452 2.74054L462.509 30.2205L464.509 30.2163ZM463.454 3.73846L471.374 3.72194L471.37 1.72195L463.45 1.73846L463.454 3.73846ZM496.903 37.6488L497.321 38.557L497.329 38.5533L497.337 38.5494L496.903 37.6488ZM499.179 35.784L498.359 35.2123L498.353 35.2211L499.179 35.784ZM500.313 33.0817L501.294 33.2758L501.296 33.2685L500.313 33.0817ZM500.604 28.8211L500.602 27.8211L499.602 27.8231L499.604 28.8231L500.604 28.8211ZM508.524 28.8045L509.524 28.8025L509.522 27.8025L508.522 27.8045L508.524 28.8045ZM504.591 41.4728L503.872 40.7778L503.872 40.778L504.591 41.4728ZM481.79 41.1603L482.511 40.4667L481.79 41.1603ZM478.609 11.8269L479.557 12.1465L479.558 12.1411L478.609 11.8269ZM481.718 6.42039L482.446 7.10556L482.455 7.09548L481.718 6.42039ZM486.631 3.05014L487.001 3.97917L487.009 3.97587L487.017 3.97241L486.631 3.05014ZM504.517 6.01285L503.79 6.69973L503.795 6.70531L503.801 6.71082L504.517 6.01285ZM507.467 10.9267L506.519 11.2449L506.522 11.2537L506.525 11.2625L507.467 10.9267ZM508.503 18.4846L508.505 19.4846L509.505 19.4825L509.503 18.4825L508.503 18.4846ZM500.583 18.5011L499.583 18.5032L499.585 19.5032L500.585 19.5011L500.583 18.5011ZM500.214 14.4218L501.186 14.1864L500.214 14.4218ZM496.725 9.8091L496.25 10.6894L496.265 10.6972L496.279 10.7045L496.725 9.8091ZM489.705 9.82374L490.154 10.7172L490.169 10.7099L490.183 10.702L489.705 9.82374ZM487.309 11.8687L488.106 12.4731L488.113 12.4642L488.119 12.4552L487.309 11.8687ZM485.875 14.8717L484.911 14.6078L484.908 14.6195L484.905 14.6312L485.875 14.8717ZM485.913 32.7517L484.941 32.9884L484.943 32.9963L485.913 32.7517ZM489.583 37.6641L489.138 38.5594L489.16 38.5704L489.182 38.5802L489.583 37.6641ZM493.186 39.3165C494.792 39.3132 496.187 39.0796 497.321 38.557L496.484 36.7406C495.7 37.102 494.617 37.3136 493.182 37.3166L493.186 39.3165ZM497.337 38.5494C498.462 38.0067 499.37 37.2801 500.005 36.347L498.353 35.2211C497.951 35.8102 497.342 36.3267 496.468 36.7482L497.337 38.5494ZM499.999 36.3558C500.64 35.4362 501.071 34.4057 501.294 33.2757L499.332 32.8876C499.16 33.7585 498.834 34.5296 498.359 35.2123L499.999 36.3558ZM501.296 33.2685C501.506 32.1646 501.609 31.0411 501.607 29.899L499.607 29.9031C499.609 30.921 499.517 31.9179 499.331 32.8949L501.296 33.2685ZM501.607 29.899L501.604 28.819L499.604 28.8231L499.607 29.9031L501.607 29.899ZM500.607 29.8211L508.527 29.8045L508.522 27.8045L500.602 27.8211L500.607 29.8211ZM507.524 28.8066L507.527 29.8866L509.527 29.8825L509.524 28.8025L507.524 28.8066ZM507.527 29.8866C507.537 34.7122 506.274 38.2929 503.872 40.7778L505.31 42.1678C508.177 39.2016 509.538 35.0568 509.527 29.8825L507.527 29.8866ZM503.872 40.778C501.522 43.2097 498.022 44.5065 493.197 44.5165L493.201 46.5165C498.377 46.5057 502.471 45.1067 505.31 42.1676L503.872 40.778ZM493.197 44.5165C488.615 44.5261 485.093 43.1482 482.511 40.4667L481.07 41.8539C484.1 45.0007 488.184 46.527 493.201 46.5165L493.197 44.5165ZM482.511 40.4667C479.943 37.7999 478.575 33.8294 478.564 28.387L476.564 28.3912C476.576 34.1487 478.026 38.6924 481.07 41.8539L482.511 40.4667ZM478.564 28.387L478.544 19.027L476.544 19.0312L476.564 28.3912L478.564 28.387ZM478.544 19.027C478.539 16.4355 478.882 14.1462 479.557 12.1465L477.661 11.5073C476.905 13.7505 476.538 16.2627 476.544 19.0312L478.544 19.027ZM479.558 12.1411C480.235 10.0972 481.203 8.4275 482.446 7.10549L480.989 5.73528C479.519 7.29893 478.414 9.23353 477.66 11.5126L479.558 12.1411ZM482.455 7.09548C483.708 5.72705 485.219 4.68893 487.001 3.97917L486.261 2.1211C484.206 2.93935 482.442 4.14806 480.98 5.7453L482.455 7.09548ZM487.017 3.97241C488.797 3.22668 490.822 2.8414 493.11 2.83663L493.106 0.836628C490.594 0.841865 488.302 1.26559 486.244 2.12786L487.017 3.97241ZM493.11 2.83663C495.495 2.83165 497.573 3.17354 499.361 3.83992L500.06 1.9658C498.005 1.20019 495.682 0.831259 493.106 0.836628L493.11 2.83663ZM499.361 3.83992C501.154 4.50781 502.622 5.46413 503.79 6.69973L505.244 5.32597C503.846 3.84692 502.11 2.7299 500.06 1.9658L499.361 3.83992ZM503.801 6.71082C505.012 7.95329 505.92 9.45878 506.519 11.2449L508.415 10.6085C507.727 8.55731 506.668 6.7869 505.233 5.31488L503.801 6.71082ZM506.525 11.2625C507.165 13.0568 507.496 15.1006 507.501 17.4067L509.501 17.4025C509.496 14.9086 509.137 12.6338 508.409 10.5909L506.525 11.2625ZM507.501 17.4067L507.503 18.4867L509.503 18.4825L509.501 17.4025L507.501 17.4067ZM508.501 17.4846L500.581 17.5011L500.585 19.5011L508.505 19.4846L508.501 17.4846ZM501.583 18.499L501.581 17.419L499.581 17.4232L499.583 18.5032L501.583 18.499ZM501.581 17.419C501.578 16.3382 501.446 15.2602 501.186 14.1864L499.243 14.6572C499.467 15.5825 499.579 16.504 499.581 17.4232L501.581 17.419ZM501.186 14.1864C500.916 13.0716 500.464 12.056 499.827 11.1492L498.191 12.2995C498.677 12.9904 499.028 13.7731 499.243 14.6572L501.186 14.1864ZM499.827 11.1492C499.16 10.2011 498.265 9.45832 497.17 8.91375L496.279 10.7045C497.107 11.1159 497.734 11.6499 498.191 12.2995L499.827 11.1492ZM497.199 8.92882C496.053 8.31074 494.676 8.03337 493.121 8.03661L493.125 10.0366C494.45 10.0338 495.475 10.2715 496.25 10.6894L497.199 8.92882ZM493.121 8.03661C491.669 8.03964 490.359 8.3289 489.227 8.94544L490.183 10.702C490.968 10.2746 491.937 10.0391 493.125 10.0366L493.121 8.03661ZM489.256 8.93025C488.152 9.48522 487.23 10.273 486.499 11.2823L488.119 12.4552C488.665 11.7018 489.34 11.1263 490.154 10.7172L489.256 8.93025ZM486.512 11.2644C485.787 12.2206 485.257 13.341 484.911 14.6078L486.84 15.1357C487.128 14.0811 487.555 13.1995 488.106 12.4731L486.512 11.2644ZM484.905 14.6312C484.606 15.8368 484.46 17.0989 484.463 18.4147L486.463 18.4105C486.46 17.2463 486.589 16.1478 486.846 15.1122L484.905 14.6312ZM484.463 18.4147L484.485 28.9747L486.485 28.9705L486.463 18.4105L484.463 18.4147ZM484.485 28.9747C484.488 30.4029 484.638 31.7424 484.941 32.9884L486.884 32.515C486.623 31.4422 486.487 30.2622 486.485 28.9705L484.485 28.9747ZM484.943 32.9963C485.252 34.223 485.743 35.3198 486.426 36.2719L488.051 35.106C487.531 34.3806 487.138 33.5193 486.882 32.5071L484.943 32.9963ZM486.426 36.2719C487.127 37.2485 488.037 38.0118 489.138 38.5594L490.028 36.7687C489.207 36.3604 488.554 35.8069 488.051 35.106L486.426 36.2719ZM489.182 38.5802C490.34 39.087 491.685 39.3197 493.186 39.3165L493.182 37.3166C491.883 37.3193 490.827 37.1169 489.984 36.7479L489.182 38.5802ZM533.641 37.5722L534.06 38.4804L534.068 38.4767L534.076 38.4728L533.641 37.5722ZM535.917 35.7075L535.097 35.1357L535.091 35.1445L535.917 35.7075ZM537.052 33.0051L538.033 33.1992L538.034 33.1919L537.052 33.0051ZM537.343 28.7445L537.341 27.7445L536.341 27.7466L536.343 28.7465L537.343 28.7445ZM545.263 28.728L546.263 28.7259L546.261 27.7259L545.261 27.728L545.263 28.728ZM541.329 41.3962L540.61 40.7012L540.61 40.7014L541.329 41.3962ZM518.528 41.0837L519.249 40.3901L518.528 41.0837ZM515.347 11.7503L516.295 12.0699L516.297 12.0645L515.347 11.7503ZM518.456 6.34379L519.184 7.02896L519.194 7.01888L518.456 6.34379ZM523.369 2.97354L523.739 3.90258L523.747 3.89927L523.755 3.89581L523.369 2.97354ZM541.255 5.93625L540.528 6.62314L540.534 6.62872L540.539 6.63422L541.255 5.93625ZM544.205 10.8501L543.257 11.1683L543.26 11.1771L543.263 11.1859L544.205 10.8501ZM545.241 18.408L545.243 19.408L546.243 19.4059L546.241 18.4059L545.241 18.408ZM537.321 18.4245L536.321 18.4266L536.323 19.4266L537.323 19.4245L537.321 18.4245ZM536.953 14.3452L537.925 14.1098L536.953 14.3452ZM533.463 9.73251L532.989 10.6128L533.003 10.6206L533.018 10.6279L533.463 9.73251ZM526.443 9.74714L526.892 10.6406L526.907 10.6333L526.921 10.6254L526.443 9.74714ZM524.047 11.7921L524.844 12.3965L524.851 12.3877L524.857 12.3786L524.047 11.7921ZM522.614 14.7951L521.649 14.5312L521.646 14.5429L521.643 14.5546L522.614 14.7951ZM522.651 32.6751L521.679 32.9118L521.681 32.9197L522.651 32.6751ZM526.321 37.5875L525.876 38.4828L525.898 38.4938L525.92 38.5036L526.321 37.5875ZM529.925 39.24C531.53 39.2366 532.926 39.003 534.06 38.4804L533.223 36.664C532.438 37.0254 531.355 37.237 529.92 37.24L529.925 39.24ZM534.076 38.4728C535.2 37.9301 536.108 37.2035 536.744 36.2704L535.091 35.1445C534.689 35.7336 534.08 36.2501 533.206 36.6716L534.076 38.4728ZM536.738 36.2792C537.378 35.3596 537.809 34.3291 538.033 33.1992L536.071 32.811C535.898 33.6819 535.573 34.453 535.097 35.1357L536.738 36.2792ZM538.034 33.1919C538.244 32.088 538.347 30.9645 538.345 29.8224L536.345 29.8265C536.347 30.8444 536.255 31.8413 536.069 32.8183L538.034 33.1919ZM538.345 29.8224L538.343 28.7424L536.343 28.7465L536.345 29.8265L538.345 29.8224ZM537.345 29.7445L545.265 29.7279L545.261 27.728L537.341 27.7445L537.345 29.7445ZM544.263 28.73L544.265 29.81L546.265 29.8059L546.263 28.7259L544.263 28.73ZM544.265 29.81C544.275 34.6356 543.012 38.2164 540.61 40.7012L542.048 42.0912C544.915 39.125 546.276 34.9802 546.265 29.8059L544.265 29.81ZM540.61 40.7014C538.261 43.1331 534.76 44.4299 529.935 44.4399L529.94 46.4399C535.115 46.4291 539.209 45.0301 542.048 42.091L540.61 40.7014ZM529.935 44.4399C525.353 44.4495 521.831 43.0716 519.249 40.3901L517.808 41.7773C520.838 44.9241 524.922 46.4504 529.94 46.4399L529.935 44.4399ZM519.249 40.3901C516.681 37.7233 515.313 33.7528 515.302 28.3104L513.302 28.3146C513.314 34.0721 514.764 38.6158 517.808 41.7773L519.249 40.3901ZM515.302 28.3104L515.282 18.9504L513.282 18.9546L513.302 28.3146L515.302 28.3104ZM515.282 18.9504C515.277 16.3589 515.62 14.0696 516.295 12.0699L514.4 11.4307C513.643 13.6739 513.276 16.1861 513.282 18.9546L515.282 18.9504ZM516.297 12.0645C516.973 10.0206 517.941 8.35091 519.184 7.0289L517.727 5.65868C516.257 7.22234 515.152 9.15693 514.398 11.436L516.297 12.0645ZM519.194 7.01888C520.446 5.65046 521.957 4.61233 523.739 3.90258L522.999 2.0445C520.944 2.86275 519.18 4.07146 517.718 5.6687L519.194 7.01888ZM523.755 3.89581C525.535 3.15008 527.56 2.7648 529.848 2.76003L529.844 0.760033C527.332 0.76527 525.04 1.18899 522.982 2.05127L523.755 3.89581ZM529.848 2.76003C532.233 2.75506 534.311 3.09695 536.099 3.76333L536.798 1.88921C534.743 1.1236 532.42 0.754663 529.844 0.760033L529.848 2.76003ZM536.099 3.76333C537.892 4.43122 539.361 5.38753 540.528 6.62314L541.982 5.24937C540.584 3.77032 538.848 2.65331 536.798 1.88921L536.099 3.76333ZM540.539 6.63422C541.75 7.87669 542.658 9.38219 543.257 11.1683L545.153 10.5319C544.465 8.48072 543.406 6.71031 541.971 5.23828L540.539 6.63422ZM543.263 11.1859C543.903 12.9802 544.234 15.024 544.239 17.3301L546.239 17.3259C546.234 14.832 545.876 12.5572 545.147 10.5143L543.263 11.1859ZM544.239 17.3301L544.241 18.4101L546.241 18.4059L546.239 17.3259L544.239 17.3301ZM545.239 17.408L537.319 17.4245L537.323 19.4245L545.243 19.408L545.239 17.408ZM538.321 18.4224L538.319 17.3424L536.319 17.3466L536.321 18.4266L538.321 18.4224ZM538.319 17.3424C538.317 16.2616 538.185 15.1836 537.925 14.1098L535.981 14.5806C536.205 15.5059 536.317 16.4274 536.319 17.3466L538.319 17.3424ZM537.925 14.1098C537.655 12.995 537.203 11.9794 536.565 11.0726L534.929 12.2229C535.415 12.9138 535.767 13.6965 535.981 14.5806L537.925 14.1098ZM536.565 11.0726C535.899 10.1245 535.003 9.38172 533.908 8.83715L533.018 10.6279C533.845 11.0393 534.472 11.5733 534.929 12.2229L536.565 11.0726ZM533.937 8.85223C532.791 8.23414 531.414 7.95677 529.859 7.96002L529.863 9.96001C531.188 9.95725 532.213 10.1949 532.989 10.6128L533.937 8.85223ZM529.859 7.96002C528.408 7.96304 527.098 8.2523 525.965 8.86885L526.921 10.6254C527.706 10.198 528.675 9.96249 529.863 9.96001L529.859 7.96002ZM525.994 8.85365C524.89 9.40863 523.968 10.1964 523.237 11.2057L524.857 12.3786C525.403 11.6252 526.078 11.0497 526.892 10.6406L525.994 8.85365ZM523.251 11.1878C522.525 12.144 521.996 13.2644 521.649 14.5312L523.578 15.0591C523.867 14.0045 524.293 13.1229 524.844 12.3965L523.251 11.1878ZM521.643 14.5546C521.344 15.7602 521.198 17.0223 521.201 18.3381L523.201 18.3339C523.199 17.1697 523.328 16.0712 523.584 15.0357L521.643 14.5546ZM521.201 18.3381L521.223 28.8981L523.223 28.8939L523.201 18.3339L521.201 18.3381ZM521.223 28.8981C521.226 30.3263 521.376 31.6658 521.679 32.9118L523.622 32.4384C523.361 31.3656 523.226 30.1856 523.223 28.8939L521.223 28.8981ZM521.681 32.9197C521.991 34.1464 522.481 35.2432 523.164 36.1953L524.79 35.0294C524.269 34.304 523.876 33.4427 523.62 32.4305L521.681 32.9197ZM523.164 36.1953C523.865 37.1719 524.775 37.9352 525.876 38.4828L526.766 36.6921C525.945 36.2838 525.292 35.7303 524.79 35.0294L523.164 36.1953ZM525.92 38.5036C527.079 39.0104 528.423 39.2431 529.925 39.24L529.92 37.24C528.622 37.2427 527.565 37.0404 526.722 36.6713L525.92 38.5036ZM553.026 2.5517L553.024 1.55171L552.024 1.55379L552.026 2.55379L553.026 2.5517ZM579.546 2.49641L580.546 2.49433L580.544 1.49433L579.544 1.49641L579.546 2.49641ZM579.562 10.0564L579.564 11.0564L580.564 11.0543L580.562 10.0543L579.562 10.0564ZM560.962 10.0952L560.96 9.09518L559.96 9.09726L559.962 10.0973L560.962 10.0952ZM560.982 19.6952L559.982 19.6972L559.984 20.6972L560.984 20.6952L560.982 19.6952ZM578.862 19.6579L579.862 19.6558L579.86 18.6558L578.86 18.6579L578.862 19.6579ZM578.878 27.2179L578.88 28.2179L579.88 28.2158L579.878 27.2158L578.878 27.2179ZM560.998 27.2551L560.996 26.2551L559.996 26.2572L559.998 27.2572L560.998 27.2551ZM561.018 36.9751L560.018 36.9772L560.02 37.9772L561.02 37.9751L561.018 36.9751ZM580.338 36.9348L581.338 36.9328L581.336 35.9328L580.336 35.9348L580.338 36.9348ZM580.354 44.4948L580.356 45.4948L581.356 45.4927L581.354 44.4927L580.354 44.4948ZM553.114 44.5516L552.114 44.5537L552.116 45.5537L553.116 45.5516L553.114 44.5516ZM553.028 3.5517L579.548 3.49641L579.544 1.49641L553.024 1.55171L553.028 3.5517ZM578.546 2.4985L578.562 10.0585L580.562 10.0543L580.546 2.49433L578.546 2.4985ZM579.56 9.0564L560.96 9.09518L560.964 11.0952L579.564 11.0564L579.56 9.0564ZM559.962 10.0973L559.982 19.6972L561.982 19.6931L561.962 10.0931L559.962 10.0973ZM560.984 20.6952L578.864 20.6579L578.86 18.6579L560.98 18.6952L560.984 20.6952ZM577.862 19.66L577.878 27.2199L579.878 27.2158L579.862 19.6558L577.862 19.66ZM578.876 26.2179L560.996 26.2551L561 28.2551L578.88 28.2179L578.876 26.2179ZM559.998 27.2572L560.018 36.9772L562.018 36.973L561.998 27.2531L559.998 27.2572ZM561.02 37.9751L580.34 37.9348L580.336 35.9348L561.016 35.9751L561.02 37.9751ZM579.338 36.9369L579.354 44.4969L581.354 44.4927L581.338 36.9328L579.338 36.9369ZM580.352 43.4948L553.112 43.5516L553.116 45.5516L580.356 45.4948L580.352 43.4948ZM554.114 44.5495L554.026 2.54962L552.026 2.55379L552.114 44.5537L554.114 44.5495ZM608.442 10.8962L607.748 11.6159L607.753 11.6212L607.759 11.6265L608.442 10.8962ZM598.241 10.3175L598.81 11.1395L598.82 11.1329L598.829 11.1262L598.241 10.3175ZM596.932 15.6002L596.027 16.025L596.032 16.0372L596.038 16.0493L596.932 15.6002ZM598.375 17.1572L597.8 17.9754L597.827 17.9944L597.856 18.0116L598.375 17.1572ZM601.138 18.3514L600.834 19.3041L600.843 19.3071L601.138 18.3514ZM605.52 19.3623L605.343 20.3465L605.52 19.3623ZM615.608 23.3613L614.98 24.1395L614.98 24.1395L615.608 23.3613ZM618.038 37.7562L617.125 37.3478L617.121 37.3586L618.038 37.7562ZM615.047 41.7825L615.695 42.5436L615.047 41.7825ZM610.252 44.3725L610.558 45.3245L610.252 44.3725ZM596.572 44.161L596.214 45.0951L596.225 45.0992L596.236 45.1031L596.572 44.161ZM591.345 40.9319L590.639 41.6405L590.644 41.6456L590.649 41.6506L591.345 40.9319ZM588.155 36.0785L587.221 36.4381L587.224 36.4449L588.155 36.0785ZM587.058 28.1608L587.056 27.1608L586.056 27.1629L586.058 28.1629L587.058 28.1608ZM594.978 28.1443L595.978 28.1422L595.976 27.1422L594.976 27.1443L594.978 28.1443ZM597.154 35.6398L596.429 36.329L596.439 36.3388L596.448 36.3484L597.154 35.6398ZM609.335 36.2744L608.666 35.5312L609.335 36.2744ZM610.703 30.6315L609.768 30.9846L609.772 30.9948L609.776 31.0048L610.703 30.6315ZM609.44 28.9541L608.786 29.7112L608.801 29.7241L608.817 29.7363L609.44 28.9541ZM606.977 27.5793L607.334 26.6452L606.977 27.5793ZM603.015 26.5675L603.185 25.5821L603.18 25.5813L603.015 26.5675ZM597.192 25.1997L596.871 26.1469L596.881 26.1501L596.891 26.1532L597.192 25.1997ZM592.567 22.8693L591.969 23.6706L591.975 23.675L591.981 23.6793L592.567 22.8693ZM589.478 8.89572L588.578 8.4601L588.573 8.4706L589.478 8.89572ZM592.41 5.0496L591.763 4.28666L591.757 4.29173L591.752 4.29689L592.41 5.0496ZM596.965 2.5201L596.646 1.57205L596.64 1.57426L596.965 2.5201ZM609.565 2.67383L609.216 3.61089L609.225 3.6141L609.233 3.61715L609.565 2.67383ZM614.371 5.48381L613.688 6.21478L613.694 6.22001L613.7 6.22515L614.371 5.48381ZM617.32 9.61767L616.395 9.99916L616.399 10.0092L616.404 10.0192L617.32 9.61767ZM618.354 16.6955L618.356 17.6955L619.356 17.6934L619.354 16.6934L618.354 16.6955ZM610.434 16.712L609.434 16.7141L609.436 17.7141L610.436 17.712L610.434 16.712ZM611.431 15.27C611.427 13.2908 610.632 11.5753 609.125 10.1659L607.759 11.6265C608.898 12.6915 609.428 13.8934 609.431 15.2741L611.431 15.27ZM609.137 10.1765C607.613 8.70644 605.509 8.0423 602.976 8.04758L602.98 10.0476C605.167 10.043 606.707 10.6113 607.748 11.6159L609.137 10.1765ZM602.976 8.04758C600.847 8.05202 599.037 8.50194 597.653 9.50874L598.829 11.1262C599.761 10.4481 601.11 10.0515 602.98 10.0476L602.976 8.04758ZM597.671 9.49543C596.245 10.4836 595.504 11.8918 595.508 13.6232L597.508 13.619C597.506 12.5503 597.92 11.7561 598.81 11.1395L597.671 9.49543ZM595.508 13.6232C595.51 14.4763 595.678 15.282 596.027 16.025L597.837 15.1754C597.623 14.7195 597.509 14.2058 597.508 13.619L595.508 13.6232ZM596.038 16.0493C596.414 16.7967 597.027 17.432 597.8 17.9754L598.95 16.339C598.361 15.9252 598.012 15.5226 597.825 15.1511L596.038 16.0493ZM597.856 18.0116C598.665 18.5038 599.665 18.931 600.834 19.3041L601.442 17.3988C600.369 17.0565 599.527 16.6875 598.895 16.3028L597.856 18.0116ZM600.843 19.3071C602.056 19.6807 603.559 20.0261 605.343 20.3465L605.697 18.3781C603.959 18.0659 602.541 17.7373 601.432 17.3958L600.843 19.3071ZM605.343 20.3465C609.655 21.1213 612.836 22.4095 614.98 24.1395L616.236 22.583C613.732 20.5628 610.188 19.1849 605.697 18.3781L605.343 20.3465ZM614.98 24.1395C617.015 25.7817 618.098 28.2407 618.106 31.6961L620.106 31.6919C620.097 27.7874 618.849 24.6912 616.236 22.583L614.98 24.1395ZM618.106 31.6961L618.107 32.4161L620.107 32.4119L620.106 31.6919L618.106 31.6961ZM618.107 32.4161C618.111 34.2512 617.778 35.8898 617.125 37.3478L618.951 38.1647C619.732 36.4197 620.111 34.4968 620.107 32.4119L618.107 32.4161ZM617.121 37.3586C616.506 38.7774 615.602 39.9958 614.398 41.0213L615.695 42.5436C617.127 41.3236 618.217 39.8579 618.956 38.1539L617.121 37.3586ZM614.398 41.0213C613.194 42.0473 611.717 42.8513 609.946 43.4205L610.558 45.3245C612.545 44.6858 614.264 43.7632 615.695 42.5436L614.398 41.0213ZM609.946 43.4205C608.183 43.9873 606.168 44.281 603.892 44.2857L603.896 46.2857C606.34 46.2807 608.564 45.9655 610.558 45.3245L609.946 43.4205ZM603.892 44.2857C601.222 44.2913 598.899 43.9284 596.907 43.219L596.236 45.1031C598.487 45.9048 601.046 46.2917 603.896 46.2857L603.892 44.2857ZM596.929 43.2269C594.955 42.4727 593.333 41.464 592.04 40.2132L590.649 41.6506C592.162 43.114 594.024 44.258 596.214 45.0951L596.929 43.2269ZM592.05 40.2233C590.745 38.9234 589.758 37.4221 589.085 35.7122L587.224 36.4449C587.999 38.412 589.139 40.1463 590.639 41.6405L592.05 40.2233ZM589.088 35.7189C588.412 33.9647 588.066 32.0478 588.062 29.9587L586.062 29.9629C586.067 32.2738 586.45 34.4354 587.222 36.4381L589.088 35.7189ZM588.062 29.9587L588.058 28.1587L586.058 28.1629L586.062 29.9629L588.062 29.9587ZM587.06 29.1608L594.98 29.1443L594.976 27.1443L587.056 27.1608L587.06 29.1608ZM593.978 28.1464L593.981 29.5864L595.981 29.5822L595.978 28.1422L593.978 28.1464ZM593.981 29.5864C593.987 32.307 594.775 34.5902 596.429 36.329L597.878 34.9505C596.646 33.6554 595.986 31.9016 595.981 29.5822L593.981 29.5864ZM596.448 36.3484C598.192 38.085 600.78 38.8522 604 38.8455L603.996 36.8455C601.057 36.8516 599.082 36.1484 597.859 34.9312L596.448 36.3484ZM604 38.8455C606.519 38.8403 608.586 38.2941 610.004 37.0176L608.666 35.5312C607.768 36.3395 606.278 36.8408 603.996 36.8455L604 38.8455ZM610.004 37.0176C611.354 35.8025 612.071 34.298 612.067 32.5487L610.067 32.5528C610.07 33.6836 609.632 34.6614 608.666 35.5312L610.004 37.0176ZM612.067 32.5487C612.066 31.7482 611.922 30.9818 611.631 30.2582L609.776 31.0048C609.967 31.4802 610.066 31.9933 610.067 32.5528L612.067 32.5487ZM611.639 30.2784C611.326 29.4502 610.787 28.7487 610.063 28.172L608.817 29.7363C609.295 30.1171 609.598 30.5339 609.768 30.9846L611.639 30.2784ZM610.093 28.1971C609.377 27.5788 608.443 27.069 607.334 26.6452L606.62 28.5134C607.593 28.8852 608.301 29.292 608.786 29.7112L610.093 28.1971ZM607.334 26.6452C606.212 26.2164 604.823 25.8653 603.185 25.5821L602.845 27.5529C604.407 27.8231 605.66 28.1465 606.62 28.5134L607.334 26.6452ZM603.18 25.5813C601.098 25.2322 599.203 24.7863 597.493 24.2461L596.891 26.1532C598.703 26.7257 600.69 27.1917 602.849 27.5538L603.18 25.5813ZM597.513 24.2525C595.833 23.6839 594.384 22.9503 593.154 22.0594L591.981 23.6793C593.394 24.7029 595.028 25.5228 596.871 26.1469L597.513 24.2525ZM593.165 22.0681C592.009 21.2042 591.107 20.1272 590.453 18.8265L588.666 19.7247C589.458 21.301 590.562 22.6197 591.969 23.6706L593.165 22.0681ZM590.453 18.8265C589.817 17.5612 589.473 15.9643 589.469 13.9958L587.469 13.9999C587.473 16.1914 587.856 18.113 588.666 19.7247L590.453 18.8265ZM589.469 13.9958L589.468 13.6358L587.468 13.6399L587.469 13.9999L589.469 13.9958ZM589.468 13.6358C589.465 12.0514 589.774 10.6181 590.383 9.32084L588.573 8.4706C587.828 10.0561 587.464 11.7843 587.468 13.6399L589.468 13.6358ZM590.378 9.33131C591.037 7.97057 591.932 6.79641 593.068 5.80231L591.752 4.29689C590.413 5.46795 589.353 6.85787 588.578 8.46013L590.378 9.33131ZM593.056 5.81255C594.229 4.81875 595.635 4.03364 597.289 3.46593L596.64 1.57426C594.777 2.21389 593.146 3.11512 591.763 4.28666L593.056 5.81255ZM597.283 3.46812C598.965 2.90353 600.856 2.61199 602.965 2.60759L602.961 0.607591C600.67 0.612367 598.562 0.92916 596.646 1.57207L597.283 3.46812ZM602.965 2.60759C605.349 2.60262 607.428 2.94451 609.216 3.61089L609.914 1.73677C607.86 0.971157 605.536 0.602222 602.961 0.607591L602.965 2.60759ZM609.233 3.61715C611.045 4.25463 612.522 5.12563 613.688 6.21478L615.053 4.75285C613.655 3.44734 611.928 2.44502 609.897 1.73051L609.233 3.61715ZM613.7 6.22515C614.919 7.32865 615.812 8.58568 616.395 9.99916L618.244 9.23619C617.541 7.53235 616.468 6.03347 615.042 4.74247L613.7 6.22515ZM616.404 10.0192C617.031 11.4504 617.346 12.9536 617.35 14.5376L619.35 14.5335C619.346 12.6775 618.974 10.9021 618.235 9.21618L616.404 10.0192ZM617.35 14.5376L617.354 16.6976L619.354 16.6934L619.35 14.5335L617.35 14.5376ZM618.352 15.6955L610.432 15.712L610.436 17.712L618.356 17.6955L618.352 15.6955ZM611.434 16.71L611.431 15.27L609.431 15.2741L609.434 16.7141L611.434 16.71ZM645.18 10.8196L644.486 11.5393L644.492 11.5446L644.497 11.5499L645.18 10.8196ZM634.979 10.2409L635.549 11.0629L635.558 11.0563L635.567 11.0496L634.979 10.2409ZM633.67 15.5236L632.765 15.9484L632.771 15.9606L632.777 15.9727L633.67 15.5236ZM635.113 17.0806L634.538 17.8988L634.565 17.9178L634.594 17.935L635.113 17.0806ZM637.876 18.2748L637.572 19.2275L637.582 19.2305L637.876 18.2748ZM642.258 19.2857L642.081 20.2699L642.258 19.2857ZM652.346 23.2847L651.718 24.0629L651.718 24.0629L652.346 23.2847ZM654.776 37.6796L653.864 37.2712L653.859 37.282L654.776 37.6796ZM651.785 41.7059L652.433 42.467L651.785 41.7059ZM646.99 44.2959L647.296 45.2479L646.99 44.2959ZM633.31 44.0844L632.953 45.0185L632.963 45.0226L632.974 45.0265L633.31 44.0844ZM628.083 40.8553L627.377 41.5639L627.382 41.569L627.388 41.574L628.083 40.8553ZM624.893 36.0019L623.96 36.3615L623.962 36.3683L624.893 36.0019ZM623.796 28.0842L623.794 27.0842L622.794 27.0863L622.796 28.0863L623.796 28.0842ZM631.716 28.0677L632.716 28.0656L632.714 27.0656L631.714 27.0677L631.716 28.0677ZM633.892 35.5632L633.167 36.2524L633.177 36.2622L633.186 36.2718L633.892 35.5632ZM646.073 36.1978L645.404 35.4546L646.073 36.1978ZM647.442 30.5549L646.506 30.908L646.51 30.9182L646.514 30.9282L647.442 30.5549ZM646.178 28.8776L645.525 29.6346L645.54 29.6475L645.555 29.6597L646.178 28.8776ZM643.715 27.5027L644.072 26.5686L643.715 27.5027ZM639.753 26.4909L639.923 25.5055L639.918 25.5047L639.753 26.4909ZM633.93 25.1231L633.61 26.0703L633.619 26.0735L633.629 26.0766L633.93 25.1231ZM629.305 22.7927L628.707 23.594L628.713 23.5984L628.719 23.6027L629.305 22.7927ZM626.216 8.81912L625.316 8.3835L625.311 8.394L626.216 8.81912ZM629.148 4.97301L628.502 4.21006L628.496 4.21513L628.49 4.22029L629.148 4.97301ZM633.703 2.4435L633.385 1.49546L633.378 1.49766L633.703 2.4435ZM646.303 2.59723L645.954 3.53429L645.963 3.5375L645.971 3.54055L646.303 2.59723ZM651.109 5.40722L650.427 6.13818L650.432 6.14341L650.438 6.14856L651.109 5.40722ZM654.058 9.54108L653.133 9.92256L653.137 9.93262L653.142 9.94257L654.058 9.54108ZM655.092 16.6189L655.095 17.6189L656.095 17.6169L656.092 16.6169L655.092 16.6189ZM647.173 16.6355L646.173 16.6375L646.175 17.6375L647.175 17.6354L647.173 16.6355ZM648.17 15.1934C648.165 13.2142 647.37 11.4987 645.864 10.0893L644.497 11.5499C645.636 12.6149 646.167 13.8168 646.17 15.1975L648.17 15.1934ZM645.875 10.0999C644.351 8.62984 642.247 7.9657 639.714 7.97098L639.719 9.97098C641.906 9.96642 643.445 10.5347 644.486 11.5393L645.875 10.0999ZM639.714 7.97098C637.585 7.97542 635.775 8.42534 634.391 9.43214L635.567 11.0496C636.5 10.3715 637.848 9.97488 639.719 9.97098L639.714 7.97098ZM634.41 9.41883C632.983 10.407 632.242 11.8152 632.246 13.5466L634.246 13.5424C634.244 12.4737 634.658 11.6795 635.549 11.0629L634.41 9.41883ZM632.246 13.5466C632.248 14.3997 632.416 15.2054 632.765 15.9484L634.575 15.0988C634.362 14.6429 634.247 14.1292 634.246 13.5424L632.246 13.5466ZM632.777 15.9727C633.152 16.7201 633.765 17.3554 634.538 17.8988L635.688 16.2624C635.1 15.8487 634.75 15.446 634.564 15.0745L632.777 15.9727ZM634.594 17.935C635.403 18.4272 636.403 18.8544 637.572 19.2275L638.18 17.3222C637.108 16.9799 636.266 16.6109 635.633 16.2262L634.594 17.935ZM637.582 19.2305C638.794 19.6041 640.298 19.9495 642.081 20.2699L642.435 18.3015C640.697 17.9893 639.279 17.6607 638.17 17.3192L637.582 19.2305ZM642.081 20.2699C646.393 21.0447 649.574 22.3329 651.718 24.0629L652.974 22.5064C650.471 20.4862 646.926 19.1084 642.435 18.3015L642.081 20.2699ZM651.718 24.0629C653.754 25.7051 654.837 28.1641 654.844 31.6195L656.844 31.6153C656.836 27.7108 655.587 24.6146 652.974 22.5064L651.718 24.0629ZM654.844 31.6195L654.845 32.3395L656.845 32.3353L656.844 31.6153L654.844 31.6195ZM654.845 32.3395C654.849 34.1746 654.516 35.8132 653.864 37.2712L655.689 38.0881C656.47 36.3431 656.85 34.4202 656.845 32.3353L654.845 32.3395ZM653.859 37.282C653.244 38.7008 652.34 39.9193 651.136 40.9447L652.433 42.467C653.865 41.247 654.955 39.7813 655.694 38.0773L653.859 37.282ZM651.136 40.9447C649.932 41.9707 648.455 42.7747 646.684 43.3439L647.296 45.2479C649.283 44.6092 651.002 43.6866 652.433 42.467L651.136 40.9447ZM646.684 43.3439C644.921 43.9107 642.906 44.2044 640.63 44.2092L640.634 46.2091C643.078 46.2041 645.302 45.8889 647.296 45.2479L646.684 43.3439ZM640.63 44.2092C637.96 44.2147 635.637 43.8518 633.645 43.1424L632.974 45.0265C635.225 45.8282 637.784 46.2151 640.634 46.2091L640.63 44.2092ZM633.667 43.1503C631.693 42.3961 630.071 41.3874 628.778 40.1366L627.388 41.574C628.9 43.0374 630.763 44.1814 632.953 45.0185L633.667 43.1503ZM628.789 40.1467C627.483 38.8468 626.497 37.3455 625.823 35.6356L623.962 36.3683C624.737 38.3354 625.877 40.0697 627.377 41.5639L628.789 40.1467ZM625.826 35.6424C625.15 33.8881 624.804 31.9712 624.8 29.8821L622.8 29.8863C622.805 32.1972 623.188 34.3588 623.96 36.3615L625.826 35.6424ZM624.8 29.8821L624.796 28.0821L622.796 28.0863L622.8 29.8863L624.8 29.8821ZM623.798 29.0842L631.718 29.0677L631.714 27.0677L623.794 27.0842L623.798 29.0842ZM630.716 28.0698L630.719 29.5098L632.719 29.5056L632.716 28.0656L630.716 28.0698ZM630.719 29.5098C630.725 32.2304 631.513 34.5136 633.167 36.2524L634.616 34.8739C633.384 33.5788 632.724 31.825 632.719 29.5056L630.719 29.5098ZM633.186 36.2718C634.93 38.0084 637.518 38.7756 640.739 38.7689L640.734 36.7689C637.795 36.775 635.82 36.0718 634.598 34.8546L633.186 36.2718ZM640.739 38.7689C643.257 38.7637 645.325 38.2175 646.742 36.941L645.404 35.4546C644.506 36.2629 643.016 36.7642 640.734 36.7689L640.739 38.7689ZM646.742 36.941C648.092 35.7259 648.809 34.2214 648.806 32.4721L646.806 32.4763C646.808 33.607 646.37 34.5848 645.404 35.4546L646.742 36.941ZM648.806 32.4721C648.804 31.6716 648.66 30.9052 648.369 30.1816L646.514 30.9282C646.705 31.4036 646.804 31.9167 646.806 32.4763L648.806 32.4721ZM648.377 30.2018C648.065 29.3736 647.525 28.6721 646.801 28.0954L645.555 29.6597C646.033 30.0405 646.336 30.4573 646.506 30.908L648.377 30.2018ZM646.831 28.1205C646.115 27.5022 645.181 26.9924 644.072 26.5686L643.358 28.4368C644.331 28.8086 645.039 29.2154 645.525 29.6346L646.831 28.1205ZM644.072 26.5686C642.95 26.1398 641.562 25.7887 639.923 25.5056L639.583 27.4763C641.146 27.7465 642.398 28.0699 643.358 28.4368L644.072 26.5686ZM639.918 25.5047C637.836 25.1556 635.942 24.7097 634.231 24.1695L633.629 26.0766C635.441 26.6491 637.428 27.1151 639.588 27.4772L639.918 25.5047ZM634.251 24.1759C632.572 23.6073 631.122 22.8737 629.892 21.9828L628.719 23.6027C630.132 24.6263 631.766 25.4462 633.61 26.0703L634.251 24.1759ZM629.904 21.9915C628.747 21.1276 627.845 20.0506 627.191 18.7499L625.404 19.6481C626.197 21.2244 627.3 22.5431 628.707 23.594L629.904 21.9915ZM627.191 18.7499C626.555 17.4846 626.211 15.8877 626.207 13.9192L624.207 13.9233C624.211 16.1148 624.594 18.0364 625.404 19.6481L627.191 18.7499ZM626.207 13.9192L626.206 13.5592L624.206 13.5633L624.207 13.9233L626.207 13.9192ZM626.206 13.5592C626.203 11.9748 626.512 10.5415 627.121 9.24424L625.311 8.394C624.566 9.97954 624.202 11.7077 624.206 13.5633L626.206 13.5592ZM627.116 9.25471C627.775 7.89397 628.67 6.71982 629.807 5.72572L628.49 4.22029C627.151 5.39136 626.091 6.78128 625.316 8.38353L627.116 9.25471ZM629.795 5.73595C630.968 4.74215 632.374 3.95705 634.028 3.38933L633.378 1.49766C631.515 2.13729 629.884 3.03853 628.502 4.21006L629.795 5.73595ZM634.021 3.39152C635.703 2.82693 637.594 2.53539 639.703 2.53099L639.699 0.530995C637.408 0.535771 635.3 0.852564 633.385 1.49548L634.021 3.39152ZM639.703 2.53099C642.088 2.52602 644.166 2.86791 645.954 3.53429L646.652 1.66017C644.598 0.894561 642.274 0.525626 639.699 0.530995L639.703 2.53099ZM645.971 3.54055C647.783 4.17803 649.26 5.04903 650.427 6.13818L651.792 4.67626C650.393 3.37075 648.666 2.36842 646.635 1.65391L645.971 3.54055ZM650.438 6.14856C651.657 7.25205 652.55 8.50908 653.133 9.92256L654.982 9.1596C654.279 7.45575 653.206 5.95687 651.78 4.66588L650.438 6.14856ZM653.142 9.94257C653.769 11.3738 654.085 12.877 654.088 14.461L656.088 14.4569C656.084 12.6009 655.713 10.8255 654.974 9.13958L653.142 9.94257ZM654.088 14.461L654.092 16.621L656.092 16.6169L656.088 14.4569L654.088 14.461ZM655.09 15.6189L647.17 15.6355L647.175 17.6354L655.095 17.6189L655.09 15.6189ZM648.173 16.6334L648.17 15.1934L646.17 15.1975L646.173 16.6375L648.173 16.6334Z" fill="#BCFF16"/>
</svg>
