<svg fill="none" height="161" viewBox="0 0 335 161" width="335" xmlns="http://www.w3.org/2000/svg"><path d="m55.9944 139.16.5966.803.0071-.005.007-.006zm4.3014-5.351-.9206-.391-.0041.01zm1.292-6.715 1-.012-.0002-.008zm-1.3819-9.869-.2079-.978-.9782.208.2079.978zm18.0762-3.842.9781-.208-.2079-.978-.9781.208zm-2.8964 30.816-.8467-.532h-.0001zm-52.2121 10.239.5621-.827zm-21.35456-65.4504.99306.1177.00064-.0056zm4.50123-13.8383.85396.5205.00696-.0117zm9.59913-10.0555.5533.833.0074-.005.0074-.005zm42.2637-1.827-.5698.8218.0063.0043.0064.0043zm9.0969 9.8028-.8622.5066.0047.008.0049.008zm5.9956 16.7597.2079.9782.9781-.2079-.2079-.9782zm-18.0762 3.8422-.9782.208.2079.9781.9782-.2079zm-2.801-9.1373.9026-.4304zm-10.1838-8.8562-.2831.9591.0157.0047.0159.0041zm-16.0221 3.4056.6234.7819.0128-.0102.0125-.0106zm-4.488 5.8203.9041.4274.0048-.01.0045-.0102zm-1.8312 7.5456-.9982-.0597-.0007.0121-.0004.0121zm8.6741 40.8085-.9021.431.0036.008zm10.7402 9.453-.2514.968.0237.006.0241.005zm8.7446.738c3.5526-.755 6.4266-1.901 8.5588-3.486l-1.1932-1.605c-1.823 1.355-4.3958 2.416-7.7815 3.135zm8.5729-3.497c2.16-1.666 3.718-3.583 4.6154-5.762l-1.8494-.762c-.7389 1.795-2.0484 3.445-3.9874 4.94zm4.6113-5.752c.9464-2.231 1.4016-4.607 1.3714-7.118l-1.9999.024c.0271 2.247-.3791 4.348-1.2127 6.312zm1.3712-7.126c-.0493-2.535-.3428-5.066-.8796-7.592l-1.9563.416c.511 2.404.7895 4.809.8363 7.215zm-.8796-7.592-.524-2.465-1.9563.416.524 2.465zm-1.2942-1.279 18.0762-3.842-.4158-1.956-18.0762 3.842zm16.8901-4.612.524 2.465 1.9563-.416-.524-2.465zm.524 2.465c2.3893 11.241 1.2389 20.405-3.2889 27.611l1.6934 1.064c4.8839-7.772 6.0136-17.509 3.5518-29.091zm-3.289 27.611c-4.4464 7.079-12.1895 11.87-23.4296 14.259l.4158 1.956c11.5833-2.462 19.8859-7.475 24.7074-15.151zm-23.4296 14.259c-10.7425 2.283-19.8336.809-27.3736-4.315l-1.1242 1.654c8.0742 5.488 17.7455 6.991 28.9136 4.617zm-27.3736-4.315c-7.5231-5.113-12.6858-13.885-15.36974-26.512l-1.95629.416c2.74947 12.935 8.11063 22.251 16.20183 27.75zm-15.36974-26.512-4.54079-21.363-1.95629.416 4.54079 21.363zm-4.54079-21.363c-1.28175-6.0297-1.61278-11.5705-1.01308-16.6307l-1.9861-.2354c-.62994 5.3155-.275649 11.0792 1.04289 17.2821zm-1.01243-16.6363c.58152-5.1561 2.04233-9.6252 4.36141-13.4299l-1.70776-1.0409c-2.49174 4.0879-4.03176 8.8443-4.641056 14.2466zm4.36845-13.4416c2.30709-3.9042 5.40021-7.1464 9.29151-9.7313l-1.1067-1.6659c-4.1355 2.7471-7.44175 6.2085-9.90665 10.3797zm9.30631-9.7413c3.8699-2.6717 8.4791-4.5862 13.8472-5.7273l-.4158-1.9563c-5.5871 1.1876-10.4496 3.1947-14.5677 6.0377zm13.8472-5.7273c5.5668-1.1832 10.6399-1.4169 15.2308-.7262l.2975-1.9777c-4.8719-.733-10.1905-.4753-15.9441.7476zm15.2308-.7262c4.5951.6914 8.6042 2.2377 12.0478 4.6253l1.1396-1.6436c-3.7189-2.5785-8.0223-4.2271-12.8899-4.9594zm12.0605 4.6339c3.5393 2.3744 6.4705 5.5279 8.7918 9.479l1.7244-1.0131c-2.463-4.1922-5.5965-7.5739-9.402-10.1268zm8.8014 9.495c2.4144 3.9397 4.2013 8.5944 5.3461 13.9801l1.9563-.4158c-1.1839-5.5695-3.0448-10.4446-5.5972-14.6094zm5.3461 13.9801.5239 2.4649 1.9563-.4158-.5239-2.4649zm1.2941 1.2789-18.0761 3.8422.4158 1.9563 18.0762-3.8422zm-16.8901 4.6124-.5239-2.4649-1.9563.4158.5239 2.465zm-.5239-2.4649c-.5019-2.3614-1.2868-4.6601-2.3526-6.8949l-1.8052.8609c1 2.0969 1.7332 4.2465 2.2015 6.4498zm-2.3526-6.8949c-1.0839-2.2731-2.5064-4.2368-4.2691-5.881l-1.3642 1.4625c1.5696 1.4642 2.8463 3.2206 3.8281 5.2794zm-4.2691-5.881c-1.7996-1.6786-3.9973-2.8452-6.5658-3.5126l-.503 1.9357c2.2792.5922 4.1717 1.6096 5.7046 3.0394zm-6.5343-3.5039c-2.6456-.7808-5.6866-.7753-9.0858-.0528l.4158 1.9563c3.174-.6746 5.8629-.6467 8.1039.0147zm-9.0858-.0528c-3.1416.6678-5.7787 1.8757-7.868 3.6565l1.2974 1.5221c1.7883-1.5243 4.1027-2.6093 6.9864-3.2223zm-7.8427 3.6356c-2.0852 1.6626-3.6798 3.7319-4.7779 6.195l1.8267.8144c.9695-2.1747 2.3669-3.9856 4.198-5.4456zm-4.7686 6.1748c-1.1149 2.358-1.7512 5.0008-1.9254 7.9133l1.9965.1194c.161-2.6929.7455-5.0806 1.737-7.1779zm-1.9265 7.9375c-.0988 2.7796.1627 5.6225.78 8.527l1.9563-.416c-.5858-2.7561-.8302-5.4354-.7376-8.0399zm.78 8.527 5.1229 24.101 1.9563-.416-5.1229-24.101zm5.1229 24.101c.674 3.171 1.6282 6.055 2.8685 8.647l1.8041-.863c-1.1634-2.431-2.0707-5.162-2.7163-8.2zm2.872 8.655c1.231 2.52 2.7826 4.648 4.6624 6.368l1.3502-1.475c-1.674-1.532-3.0817-3.45-4.2156-5.771zm4.6624 6.368c1.9021 1.741 4.1496 2.945 6.7249 3.614l.5029-1.935c-2.2725-.591-4.2259-1.643-5.8776-3.154zm6.7727 3.625c2.664.555 5.6539.46 8.9482-.241l-.4159-1.956c-3.0963.658-5.7975.723-8.125.239zm50.7827-86.4421-.8607-.5093-.0036.0063zm51.9003-11.0318-.585.811.006.0042zm16.883 79.4259-.854-.521-.004.006zm-51.901 11.031-.574.819.006.004zm32.547-15.219.597.803.013-.011.013-.01zm4.38-5.654.917.399zm1.421-7.459 1-.005zm-8.811-40.7788.902-.4316zm-4.469-6.2066.676-.7378zm-6.301-3.3839-.283.9591.016.0047.016.0041zm-15.885 3.3765.624.7819.012-.0102.013-.0106zm-4.38 5.6542-.917-.3993zm-1.557 7.4874-1-.0274zm8.537 40.8372-.916.402zm4.331 6.236.675-.738zm6.301 3.384-.251.968.016.004.017.004zm-35.1884-37.0333c-2.6055-12.2577-1.5337-22.2755 3.0564-30.1629l-1.7286-1.0059c-4.9151 8.4458-5.9568 19.0105-3.2841 31.5847zm3.0527-30.1566c4.6748-7.9002 12.3547-13.0304 23.1827-15.3321l-.416-1.9563c-11.264 2.3943-19.475 7.7982-24.4879 16.2699zm23.1827-15.3321c10.829-2.3018 19.882-.7282 27.272 4.6021l1.17-1.6221c-7.937-5.7247-17.594-7.3305-28.858-4.9363zm27.278 4.6063c7.49 5.3199 12.587 14.0244 15.192 26.2787l1.956-.4158c-2.673-12.5776-7.97-21.7972-15.99-27.4934zm15.192 26.2787 4.54 21.3628 1.957-.4159-4.541-21.3627zm4.54 21.3628c2.685 12.6302 1.581 22.7362-3.124 30.4482l1.707 1.041c5.061-8.294 6.123-18.973 3.374-31.9051zm-3.128 30.4542c-4.619 7.696-12.27 12.731-23.107 15.035l.416 1.956c11.255-2.393 19.442-7.69 24.406-15.962zm-23.107 15.035c-10.837 2.303-19.924.826-27.368-4.312l-1.136 1.646c7.988 5.514 17.663 7.014 28.92 4.622zm-27.362-4.307c-7.3464-5.15-12.4222-13.945-15.1076-26.579l-1.9563.416c2.748 12.929 8.0135 22.261 15.9159 27.8zm-15.1076-26.579-4.5408-21.3623-1.9563.4159 4.5408 21.3624zm39.3926 16.409c3.379-.718 6.158-1.847 8.285-3.428l-1.194-1.606c-1.828 1.359-4.313 2.399-7.507 3.078zm8.311-3.449c2.081-1.659 3.644-3.673 4.674-6.037l-1.834-.799c-.894 2.053-2.25 3.808-4.086 5.272zm4.674-6.037c1.025-2.353 1.519-4.98 1.504-7.863l-2 .011c.014 2.645-.439 4.99-1.338 7.053zm1.504-7.863c-.016-2.843-.373-5.891-1.064-9.1413l-1.956.4158c.668 3.1405 1.005 6.0515 1.02 8.7365zm-1.064-9.1413-5.006-23.5538-1.956.4158 5.006 23.5538zm-5.006-23.5538c-.655-3.0819-1.6-5.9202-2.839-8.5103l-1.805.8632c1.165 2.4334 2.062 5.1195 2.688 8.0629zm-2.839-8.5103c-1.249-2.6095-2.81-4.7877-4.695-6.5128l-1.351 1.4755c1.669 1.5271 3.086 3.4867 4.241 5.9005zm-4.695-6.5128c-1.903-1.7406-4.15-2.9448-6.725-3.6139l-.503 1.9357c2.272.5905 4.226 1.6422 5.877 3.1537zm-6.694-3.6052c-2.637-.7784-5.584-.797-8.812-.111l.416 1.9563c2.981-.6336 5.581-.5909 7.83.0729zm-8.812-.111c-3.227.686-5.912 1.9017-8.005 3.6856l1.298 1.5221c1.785-1.5213 4.143-2.6179 7.123-3.2514zm-7.979 3.6647c-2.081 1.6587-3.644 3.673-4.674 6.0368l1.834.7987c.894-2.0527 2.251-3.8079 4.087-5.2717zm-4.674 6.0368c-1.02 2.3426-1.561 4.9676-1.64 7.8593l1.999.0549c.074-2.675.571-5.0416 1.475-7.1155zm-1.64 7.8593c-.079 2.8703.213 5.8475.868 8.9294l1.956-.4158c-.626-2.9434-.899-5.7622-.825-8.4587zm.868 8.9294 5.006 23.5542 1.956-.416-5.006-23.554zm5.006 23.5542c.691 3.25 1.605 6.18 2.747 8.783l1.832-.803c-1.079-2.459-1.955-5.256-2.623-8.396zm2.747 8.783c1.158 2.64 2.678 4.839 4.572 6.572l1.35-1.476c-1.66-1.519-3.028-3.477-4.09-5.899zm4.572 6.572c1.902 1.74 4.149 2.945 6.725 3.614l.503-1.936c-2.273-.59-4.226-1.642-5.878-3.154zm6.758 3.622c2.586.579 5.584.48 8.963-.238l-.416-1.956c-3.194.679-5.887.74-8.11.242zm39.71-92.8137-.208-.9782-.978.2079.208.9782zm62.988-4.6578-.531.8474.007.0043zm16.853 79.2885.825.565.005-.007zm-59.466 21.228-.978.208.208.978.978-.208zm-3.697-17.392-.208-.978-.978.208.208.978zm9.038-1.921.208.978.979-.208-.208-.978zm-13.011-61.2123.978-.2079-.207-.9782-.979.2079zm-9.038 1.9211-.978.2079.208.9782.978-.208zm60.038 46.7796-.88-.4743-.001.0025zm-11.206-52.7221-.601.7992.007.0054.007.0053zm-21.717.1792-.208-.9782-.979.2079.208.9782zm13.04 61.3495-.978.208.207.978.979-.208zm-43.614-71.8626 34.783-7.3933-.416-1.9563-34.783 7.3933zm34.783-7.3933c11.735-2.4944 20.837-1.5497 27.466 2.6048l1.062-1.6947c-7.242-4.5384-16.943-5.4173-28.944-2.8664zm27.473 2.6091c6.593 4.0567 11.182 11.6799 13.616 23.1304l1.956-.4159c-2.495-11.7381-7.286-19.9643-14.524-24.4179zm13.616 23.1304 5.938 27.9359 1.956-.4159-5.938-27.9359zm5.938 27.9359c2.433 11.449 1.353 20.3305-3.007 26.8125l1.66 1.116c4.776-7.1 5.799-16.6047 3.303-28.3444zm-3.002 26.8055c-4.384 6.404-12.327 10.926-24.066 13.421l.416 1.957c11.997-2.551 20.51-7.251 25.3-14.248zm-24.066 13.421-34.783 7.394.416 1.956 34.783-7.393zm-33.597 8.164-3.696-17.392-1.957.416 3.697 17.392zm-4.467-16.206 9.038-1.921-.415-1.956-9.039 1.921zm9.809-3.107-13.012-61.2122-1.956.4158 13.011 61.2124zm-14.198-61.9825-9.038 1.9211.416 1.9563 9.038-1.9211zm-7.852 2.6914-3.667-17.2545-1.956.4158 3.667 17.2545zm47.053 55.1421c6.405-1.361 10.837-3.849 12.889-7.6827l-1.763-.9437c-1.637 3.0569-5.348 5.3534-11.542 6.6704zm12.888-7.6803c2.078-3.8574 2.323-9.0638.963-15.4651l-1.957.4158c1.318 6.1972.986 10.8461-.767 14.1007zm.963-15.4651-5.589-26.2926-1.956.4158 5.588 26.2926zm-5.589-26.2926c-1.193-5.6153-3.444-9.7642-6.875-12.2487l-1.173 1.6199c2.885 2.0891 4.957 5.7045 6.092 11.0446zm-6.86-12.2379c-3.415-2.5681-8.46-2.9896-14.858-1.6298l.416 1.9563c6.201-1.3181 10.522-.7724 13.24 1.2719zm-14.858-1.6298-7.668 1.63.415 1.9563 7.669-1.63zm-8.439 2.8161 13.041 61.3496 1.956-.416-13.04-61.3494zm14.227 62.1196 7.668-1.63-.416-1.956-7.668 1.63zm44.749-92.6894-.208-.9781-.978.2079.208.9782zm60.528-12.86553.978-.20791-.208-.978151-.978.207912zm3.667 17.25453.208.9781.978-.2079-.208-.9781zm-42.451 9.0234-.208-.9782-.978.2079.208.9782zm4.657 21.9105-.978.2079.208.9781.978-.2079zm40.808-8.6741.978-.2079-.208-.9782-.978.2079zm3.668 17.2545.208.9782.978-.2079-.208-.9782zm-40.809 8.6741-.207-.9781-.979.2079.208.9781zm4.716 22.1844-.978.2079.208.9782.978-.208zm44.095-9.3727.978-.2079-.208-.9781-.978.2079zm3.667 17.2546.208.9781.978-.2079-.207-.9782zm-62.171 13.2147-.978.208.208.978.978-.208zm-20.167-94.8802 60.528-12.86558-.416-1.956299-60.528 12.865579zm59.342-13.63582 3.667 17.25452 1.956-.4158-3.667-17.25454zm4.437 16.06852-42.451 9.0233.416 1.9563 42.451-9.0234zm-43.221 10.2094 4.657 21.9105 1.956-.4158-4.657-21.9105zm5.843 22.6807 40.808-8.6741-.416-1.9563-40.808 8.6741zm39.622-9.4443 3.668 17.2545 1.956-.4158-3.668-17.2545zm4.438 16.0685-40.808 8.6741.415 1.9563 40.809-8.6741zm-41.579 9.8601 4.716 22.1844 1.956-.4158-4.715-22.1844zm5.902 22.9546 44.095-9.3726-.416-1.9563-44.095 9.3726zm42.909-10.1429 3.667 17.2546 1.957-.4159-3.668-17.2545zm4.437 16.0685-62.171 13.2149.416 1.956 62.171-13.2146zm-60.985 13.9849-20.375-95.8583-1.956.4159 20.375 95.8584z" fill="#bcff16"/></svg>