<svg fill="none" height="586" viewBox="0 0 527 586" width="527" xmlns="http://www.w3.org/2000/svg"><path d="m111.059 138.39-.007 1h.009.009zm5.705-1.444-.501-.866-.009.005zm4.348-3.93.806.592.004-.006zm4.145-7.469.422-.906-.906-.423-.423.907zm14.356 6.695.906.422.422-.906-.906-.423zm-17.879 19.6-.356-.934zm-41.0234-19.924.9466-.322zm19.1438-55.819.7226.6916.004-.0041zm10.2196-7.151.369.9296.012-.0052zm11.758-1.9318-.059.9982.009.0005.009.0004zm29.874 20.5506-.95.3134.003.0073.002.0073zm1.171 11.4031-.994-.1143-.001.0092-.001.0093zm-4.542 14.5651-.422.907.906.422.423-.906zm-14.356-6.694-.906-.422-.422.906.906.422zm2.797-7.6996.979.1994zm-2.403-11.3157-.804.5956.01.0132.01.0128zm-12.725-5.9336.027.9997.017-.0005.016-.001zm-6.075 1.6692.465.8854.01-.0052.01-.0054zm-5.145 4.2207-.762-.6484-.008.0092-.007.0094zm-15.1132 32.41-.9802-.199-.0016.008zm2.4756 12.011-.7833.622.0153.019.0162.019zm5.5446 5.146c2.833 1.321 5.413 2.026 7.717 2.041l.013-2c-1.919-.012-4.207-.605-6.884-1.854zm7.735 2.041c2.358-.026 4.439-.539 6.203-1.583l-1.019-1.722c-1.406.833-3.128 1.282-5.206 1.305zm6.194-1.578c1.816-1.049 3.368-2.454 4.654-4.204l-1.612-1.185c-1.129 1.538-2.476 2.753-4.042 3.657zm4.658-4.21c1.28-1.769 2.389-3.66 3.328-5.674l-1.813-.846c-.886 1.902-1.931 3.684-3.135 5.347zm3.328-5.674.913-1.958-1.813-.845-.913 1.957zm-.416-1.474 14.356 6.694.845-1.813-14.356-6.694zm13.872 5.365-.913 1.958 1.813.845.913-1.958zm-.913 1.958c-4.152 8.905-9.643 14.551-16.415 17.131l.712 1.869c7.397-2.818 13.216-8.934 17.516-18.155zm-16.415 17.131c-6.649 2.534-14.379 1.831-23.2831-2.321l-.8453 1.813c9.2224 4.3 17.5334 5.162 24.8404 2.377zm-23.2831-2.321c-8.5034-3.965-13.9345-9.637-16.4377-16.991l-1.8933.645c2.7113 7.965 8.588 14.009 17.4857 18.159zm-16.4377-16.991c-2.4966-7.334-1.5179-15.963 3.1488-25.97l-1.8126-.846c-4.7999 10.294-5.9474 19.476-3.2295 27.461zm3.1488-25.97 7.9114-16.9664-1.8126-.8453-7.9114 16.9657zm7.9114-16.9664c2.2279-4.7777 4.8512-8.7276 7.8596-11.869l-1.4448-1.3832c-3.1859 3.3269-5.9248 7.469-8.2274 12.4069zm7.8636-11.8731c3.045-3.2167 6.334-5.5095 9.862-6.909l-.738-1.859c-3.836 1.5218-7.361 3.9963-10.5767 7.393zm9.874-6.9141c3.573-1.474 7.342-2.0945 11.318-1.858l.119-1.9965c-4.269-.2539-8.34.4134-12.199 2.0057zm11.336-1.8571c4.005.1665 8.13 1.2279 12.379 3.2092l.845-1.8126c-4.452-2.0759-8.834-3.2158-13.141-3.3949zm12.379 3.2092c4.408 2.0558 7.986 4.5036 10.759 7.3301l1.428-1.4005c-2.972-3.0293-6.76-5.6057-11.342-7.7422zm10.759 7.3301c2.775 2.8295 4.709 5.9376 5.827 9.3256l1.9-.6268c-1.223-3.7061-3.331-7.073-6.299-10.0993zm5.832 9.3402c1.191 3.4295 1.569 7.0785 1.122 10.9608l1.987.2286c.479-4.16.076-8.113-1.219-11.8453zm1.12 10.9793c-.378 3.9239-1.55 8.0159-3.539 12.2809l1.813.845c2.068-4.435 3.314-8.748 3.717-12.9343zm-3.539 12.2809-.913 1.958 1.813.845.913-1.958zm.416 1.474-14.356-6.694-.845 1.812 14.356 6.695zm-13.872-5.365.913-1.958-1.813-.845-.913 1.958zm.913-1.958c.879-1.886 1.531-3.875 1.956-5.9652l-1.959-.3988c-.395 1.941-.999 3.78-1.81 5.519zm1.956-5.9652c.434-2.1317.474-4.2278.112-6.2813l-1.969.3471c.316 1.7934.284 3.6362-.102 5.5354zm.112-6.2813c-.37-2.103-1.284-4.0569-2.711-5.8554l-1.567 1.2432c1.242 1.5644 2.001 3.2155 2.309 4.9593zm-2.691-5.8294c-1.426-1.9235-3.532-3.5016-6.247-4.7674l-.845 1.8126c2.506 1.1685 4.31 2.5615 5.485 4.146zm-6.247-4.7674c-2.512-1.1714-4.964-1.7118-7.341-1.5688l.12 1.9964c1.982-.1192 4.103.325 6.376 1.385zm-7.308-1.5702c-2.309.0631-4.49.6633-6.532 1.7939l.969 1.7497c1.766-.9776 3.634-1.4902 5.617-1.5443zm-6.512 1.7834c-1.998 1.0487-3.811 2.5418-5.443 4.4577l1.523 1.2968c1.489-1.7484 3.107-3.0691 4.849-3.9837zm-5.458 4.4763c-1.509 1.8615-2.803 3.9525-3.883 6.2688l1.812.8453c1.017-2.179 2.225-4.129 3.624-5.8545zm-3.883 6.2688-8.9258 19.141 1.8126.846 8.9252-19.1417zm-8.9258 19.141c-1.1784 2.527-2.017 5.005-2.5076 7.431l1.9604.397c.4552-2.252 1.2391-4.579 2.3598-6.982zm-2.5092 7.439c-.4601 2.376-.4968 4.651-.0937 6.818l1.9663-.366c-.3521-1.892-.3272-3.913.0909-6.071zm-.0937 6.818c.4086 2.197 1.3362 4.202 2.7678 6.006l1.5666-1.243c-1.2372-1.559-2.0216-3.266-2.3681-5.129zm2.7993 6.044c1.554 1.772 3.6674 3.26 6.2964 4.486l.846-1.813c-2.446-1.141-4.3113-2.479-5.6388-3.992zm79.4614-33.0727-.381-.9246-.007.0028zm41.219 19.2207-.956.296.002.007zm-29.415 63.079-.368-.93-.007.003zm-41.219-19.221-.951.309.002.007zm30.131 6.371-.006 1h.016.017zm5.915-1.611.492.871zm4.82-4.373.802.598zm15.004-32.46.98.198zm.143-6.554.983-.183zm-2.568-5.567-.803.596.009.013.011.013zm-12.616-5.882.027.999h.017l.016-.001zm-5.915 1.611-.492-.871zm-4.928 4.322-.782-.624zm-15.222 32.359-.973-.231zm-.252 6.502.983-.182zm2.568 5.567-.783.622.01.013.011.013zm-4.855-43.442c4.53-9.714 10.409-15.986 17.577-19l-.775-1.8435c-7.764 3.2645-13.948 9.9915-18.615 19.9985zm17.571-18.997c7.231-2.9786 15.092-2.5363 23.663 1.461l.846-1.813c-8.975-4.1851-17.426-4.7287-25.271-1.4973zm23.663 1.461c8.572 3.997 13.924 9.716 16.219 17.131l1.911-.592c-2.494-8.059-8.31-14.167-17.284-18.352zm16.221 17.138c2.369 7.461 1.379 16.011-3.149 25.721l1.812.846c4.668-10.011 5.809-19.092 3.244-27.173zm-3.149 25.721-7.912 16.966 1.813.846 7.911-16.966zm-7.912 16.966c-4.668 10.011-10.615 16.325-17.768 19.159l.737 1.86c7.788-3.086 14.046-9.883 18.844-20.173zm-17.775 19.162c-7.087 2.868-14.88 2.376-23.459-1.625l-.846 1.813c8.967 4.181 17.346 4.786 25.055 1.666zm-23.459-1.625c-8.579-4-14.005-9.672-16.436-16.984l-1.898.631c2.639 7.939 8.521 13.984 17.488 18.166zm-16.433-16.977c-2.358-7.269-1.308-15.869 3.361-25.883l-1.812-.845c-4.797 10.287-6.019 19.43-3.452 27.345zm3.361-25.883 7.912-16.966-1.813-.845-7.911 16.966zm18.312 31.622c2.696 1.257 5.201 1.925 7.5 1.94l.013-2c-1.926-.013-4.143-.576-6.668-1.753zm7.533 1.94c2.303-.063 4.435-.642 6.38-1.74l-.984-1.742c-1.649.932-3.461 1.428-5.45 1.482zm6.38-1.74c1.935-1.094 3.643-2.651 5.13-4.646l-1.604-1.195c-1.345 1.804-2.85 3.162-4.51 4.099zm5.13-4.646c1.462-1.964 2.795-4.243 4.002-6.831l-1.812-.846c-1.16 2.487-2.426 4.645-3.794 6.482zm4.002-6.831 8.723-18.707-1.812-.845-8.723 18.706zm8.723-18.707c1.146-2.456 1.967-4.898 2.457-7.322l-1.96-.396c-.456 2.254-1.224 4.545-2.309 6.873zm2.457-7.322c.494-2.446.55-4.761.146-6.935l-1.966.366c.351 1.886.311 3.94-.14 6.173zm.146-6.935c-.409-2.196-1.336-4.201-2.768-6.005l-1.566 1.243c1.237 1.559 2.021 3.265 2.368 5.128zm-2.748-5.979c-1.421-1.917-3.45-3.463-6.029-4.666l-.845 1.812c2.351 1.097 4.088 2.454 5.268 4.045zm-6.029-4.666c-2.58-1.203-5.068-1.763-7.45-1.62l.12 1.997c1.978-.119 4.134.339 6.485 1.435zm-7.417-1.621c-2.302.063-4.434.641-6.38 1.74l.984 1.741c1.65-.932 3.461-1.427 5.45-1.482zm-6.38 1.74c-1.925 1.088-3.663 2.619-5.218 4.569l1.564 1.247c1.42-1.781 2.968-3.131 4.638-4.075zm-5.218 4.569c-1.542 1.934-2.885 4.132-4.03 6.589l1.812.845c1.086-2.328 2.348-4.389 3.782-6.187zm-4.03 6.589-8.723 18.706 1.813.846 8.722-18.707zm-8.723 18.706c-1.207 2.589-2.096 5.075-2.66 7.457l1.946.461c.528-2.229 1.367-4.586 2.527-7.072zm-2.66 7.457c-.573 2.422-.668 4.731-.262 6.916l1.966-.365c-.348-1.874-.276-3.9.242-6.09zm-.262 6.916c.409 2.197 1.336 4.202 2.768 6.006l1.567-1.243c-1.238-1.559-2.022-3.265-2.369-5.128zm2.789 6.032c1.489 1.751 3.611 3.241 6.307 4.498l.845-1.813c-2.524-1.177-4.38-2.513-5.628-3.98zm72.559-44.36.423-.907-.906-.422-.423.906zm25.232 11.765.936.353.327-.867-.84-.392zm-22.325 59.235.906.423.016-.035.013-.035zm-5.173 11.093-.906-.422-.423.906.906.422zm2.61 1.217-.423.907.907.422.422-.906zm5.173-11.093-.872-.49-.018.033-.016.035zm31.026-55.177.422-.907-.84-.391-.454.807zm25.231 11.765.907.423.422-.906-.906-.423zm-35.5 76.13-.422.906.906.423.423-.906zm-13.05-6.086-.907-.422-.422.906.906.423zm23.734-50.898-.872-.489-.019.033-.015.034zm9.419-16.792.872.489.528-.94-.977-.456zm-2.61-1.218.423-.906-.835-.389-.456.799zm-37.504 65.663-.422.906.834.389.457-.799zm-21.534-10.042-.939-.343-.315.862.832.388zm25.976-71.038.939.344.315-.862-.831-.388zm-2.61-1.217.422-.906-.976-.456-.382 1.009zm-6.809 18.01.906.423.016-.034.013-.035zm-23.735 50.898-.422.906.906.423.423-.906zm-13.05-6.086-.907-.422-.422.906.906.423zm35.077-75.223 25.231 11.766.846-1.813-25.232-11.766zm24.718 10.507-22.325 59.234 1.871.706 22.326-59.235zm-22.296 59.164-5.172 11.094 1.812.845 5.173-11.093zm-4.689 12.422 2.61 1.218.846-1.813-2.611-1.217zm3.939.734 5.173-11.093-1.812-.845-5.173 11.093zm5.138-11.026 31.026-55.177-1.743-.981-31.026 55.178zm29.732-54.761 25.232 11.766.845-1.813-25.232-11.766zm24.748 10.437-35.5 76.129 1.813.846 35.5-76.13zm-34.171 75.646-13.051-6.086-.845 1.813 13.051 6.085zm-12.567-4.757 23.734-50.898-1.812-.845-23.735 50.898zm23.7-50.832 9.419-16.792-1.744-.979-9.419 16.793zm8.97-18.188-2.61-1.217-.846 1.813 2.611 1.217zm-3.901-.807-37.504 65.663 1.737.992 37.503-65.663zm-36.213 65.252-21.534-10.041-.845 1.813 21.534 10.041zm-21.017-8.791 25.975-71.038-1.878-.687-25.976 71.038zm25.459-72.288-2.611-1.217-.845 1.813 2.61 1.217zm-3.969-.664-6.809 18.009 1.871.708 6.809-18.01zm-6.78 17.94-23.734 50.899 1.813.845 23.734-50.898zm-22.405 50.415-13.051-6.086-.845 1.813 13.051 6.085zm-12.567-4.757 35.5-76.13-1.813-.845-35.5 76.13zm106.624-42.964.422-.906-.906-.423-.423.906zm50.898 23.734.906.423.423-.907-.906-.422zm-6.39 13.703-.423.907.907.422.422-.906zm-18.271-8.52.422-.906-.906-.422-.423.906zm-22.72 48.724-.906-.423-.423.906.906.423zm18.271 8.52.906.422.423-.906-.906-.423zm-6.39 13.703-.423.906.907.423.422-.906zm-50.898-23.734-.907-.423-.422.906.906.423zm6.39-13.704.422-.906-.906-.423-.423.907zm18.271 8.52-.423.907.907.422.422-.906zm22.72-48.723.906.423.423-.907-.907-.422zm-18.271-8.52-.907-.422-.422.906.906.423zm5.967-12.797 50.898 23.734.846-1.812-50.899-23.734zm50.415 22.405-6.39 13.704 1.812.845 6.39-13.703zm-5.061 13.22-18.272-8.52-.845 1.813 18.271 8.52zm-19.601-8.036-22.719 48.723 1.812.845 22.72-48.723zm-22.236 50.052 18.271 8.52.846-1.813-18.272-8.52zm17.788 7.191-6.39 13.703 1.812.846 6.39-13.704zm-5.061 13.22-50.899-23.735-.845 1.813 50.898 23.734zm-50.415-22.406 6.39-13.703-1.813-.845-6.39 13.703zm5.061-13.219 18.271 8.52.846-1.813-18.272-8.52zm19.6 8.036 22.72-48.723-1.812-.845-22.72 48.723zm22.236-50.052-18.271-8.52-.845 1.813 18.271 8.519zm-17.787-7.191 6.39-13.704-1.813-.845-6.39 13.704zm75.704 102.563-.953-.303-.266.838.797.372zm1.958.913-.423.906.907.423.422-.906zm32.153-68.952.422-.906-.906-.423-.423.907zm14.356 6.694.906.423.423-.906-.907-.423zm-35.5 76.13-.423.907.906.422.423-.906zm-28.06-13.084-.953-.303-.266.838.797.371zm23.235-73.11.953.302.266-.837-.796-.372zm-1.957-.913.422-.907-.906-.422-.423.906zm-32.153 68.952-.423.906.906.423.423-.907zm-14.356-6.695-.907-.422-.422.906.906.423zm35.5-76.129.422-.907-.906-.422-.423.906zm28.059 13.084.953.303.266-.838-.796-.372zm-23.657 74.017 1.957.912.846-1.812-1.958-.913zm3.286.429 32.153-68.952-1.813-.845-32.152 68.951zm30.824-68.469 14.356 6.695.845-1.813-14.356-6.694zm13.872 5.366-35.5 76.13 1.813.845 35.5-76.13zm-34.171 75.646-28.059-13.084-.845 1.812 28.059 13.085zm-27.529-11.875 23.235-73.111-1.906-.605-23.235 73.11zm22.705-74.32-1.958-.913-.845 1.813 1.958.913zm-3.287-.429-32.153 68.952 1.813.845 32.153-68.952zm-30.824 68.468-14.356-6.694-.845 1.813 14.356 6.694zm-13.872-5.365 35.5-76.13-1.813-.845-35.5 76.13zm34.171-75.646 28.059 13.084.846-1.813-28.06-13.084zm27.529 11.875-23.235 73.11 1.906.606 23.235-73.11zm43.582 65.993.422-.906-.906-.423-.423.906zm32.627 15.214.906.423.423-.906-.907-.423zm-17.953 38.5-.423.907.907.422.422-.906zm-13.051-6.085-.906-.423-.423.906.906.423zm3.956-8.483.906.422.423-.906-.907-.423zm-1.958-.913.423-.907-.67-.312-.495.548zm-8.35 4.845.215.976.009-.002.009-.002zm-21.287-8.867.746-.667zm-5.251-9.467-.963.272.004.013zm-.867-12.055-.994-.109v.006zm20.75-44.214-.699-.715-.007.007zm10.386-6.94-.355-.935-.007.002-.006.003zm11.766-1.664-.078.997.009.001h.009zm23.114 10.911-.743.668.006.007.006.007zm5.962 9.93-.949.314.002.007.003.007zm1.33 11.345-.996-.089v.007zm-3.78 12.934-.423.906.907.423.422-.906zm-14.356-6.694-.906-.423-.423.907.906.422zm1.837-13.311-.944.328.005.014.005.015zm-20.156-8.737.355.935.013-.004zm-.52 53.647-.357-.935-.001.001zm7.682-7.673.906.423.423-.906-.907-.423zm-18.271-8.52-.907-.422-.422.906.906.423zm5.967-12.797 32.627 15.215.845-1.813-32.627-15.214zm32.143 13.886-17.952 38.5 1.812.845 17.953-38.5zm-16.623 38.016-13.051-6.086-.846 1.813 13.051 6.086zm-12.568-4.757 3.956-8.483-1.813-.845-3.955 8.483zm3.472-9.812-1.957-.913-.845 1.813 1.957.913zm-3.122-.677c-2.044 2.263-4.646 3.779-7.84 4.543l.465 1.945c3.561-.852 6.526-2.565 8.859-5.147zm-7.823 4.539c-3.036.668-6.934-.018-11.774-2.275l-.845 1.813c5.02 2.341 9.397 3.219 13.049 2.415zm-11.774-2.275c-3.364-1.568-6.211-3.663-8.552-6.282l-1.491 1.333c2.531 2.831 5.601 5.085 9.198 6.762zm-8.552-6.282c-2.336-2.612-4.015-5.636-5.039-9.084l-1.917.569c1.105 3.724 2.927 7.011 5.465 9.848zm-5.035-9.071c-.991-3.519-1.276-7.408-.834-11.681l-1.989-.206c-.464 4.485-.172 8.632.898 12.43zm-.834-11.675c.472-4.32 1.86-8.977 4.192-13.976l-1.813-.846c-2.401 5.151-3.866 10.021-4.368 14.604zm4.192-13.976 8.317-17.837-1.812-.845-8.318 17.836zm8.317-17.837c2.261-4.847 4.916-8.773 7.952-11.802l-1.412-1.416c-3.235 3.227-6.015 7.36-8.352 12.373zm7.945-11.794c3.16-3.087 6.513-5.321 10.056-6.727l-.737-1.859c-3.822 1.516-7.394 3.909-10.717 7.155zm10.043-6.722c3.614-1.373 7.387-1.908 11.332-1.601l.155-1.994c-4.232-.329-8.302.246-12.198 1.726zm11.35-1.6c3.983.237 8.024 1.303 12.129 3.218l.845-1.813c-4.305-2.008-8.592-3.148-12.855-3.401zm12.129 3.218c4.249 1.981 7.674 4.44 10.302 7.363l1.487-1.336c-2.836-3.156-6.493-5.764-10.944-7.84zm10.314 7.377c2.672 2.867 4.582 6.053 5.744 9.562l1.899-.628c-1.257-3.798-3.322-7.232-6.18-10.298zm5.749 9.576c1.194 3.44 1.623 7.079 1.278 10.928l1.992.178c.369-4.116-.089-8.04-1.381-11.762zm1.278 10.935c-.313 3.783-1.336 7.544-3.082 11.288l1.813.846c1.838-3.942 2.929-7.933 3.262-11.97zm-3.082 11.288-.608 1.306 1.812.845.609-1.305zm.72.822-14.355-6.694-.846 1.812 14.356 6.694zm-13.872-5.365.609-1.306-1.813-.845-.608 1.305zm.609-1.306c2.201-4.719 2.695-9.013 1.257-12.784l-1.869.713c1.183 3.101.858 6.81-1.201 11.226zm1.267-12.755c-1.316-3.798-4.295-6.708-8.745-8.783l-.846 1.813c4.106 1.914 6.609 4.473 7.702 7.625zm-8.745-8.783c-4.29-2-8.553-2.203-12.723-.557l.735 1.861c3.62-1.43 7.312-1.278 11.142.509zm-12.711-.562c-4.234 1.608-7.848 5.939-10.958 12.608l1.813.845c3.044-6.527 6.367-10.259 9.855-11.583zm-10.958 12.608-7.505 16.096 1.812.845 7.506-16.096zm-7.505 16.096c-2.785 5.973-3.74 11.186-2.636 15.555 1.115 4.418 4.28 7.765 9.26 10.087l.845-1.813c-4.591-2.141-7.235-5.077-8.166-8.764-.944-3.735-.183-8.447 2.509-14.22zm6.624 25.642c4.43 2.066 8.473 2.531 12.031 1.17l-.715-1.868c-2.888 1.105-6.346.809-10.471-1.115zm12.031 1.17c3.617-1.382 6.352-4.153 8.231-8.184l-1.812-.845c-1.705 3.655-4.091 5.998-7.133 7.16zm7.747-9.513-18.271-8.52-.845 1.813 18.271 8.52zm-17.787-7.191 6.39-13.703-1.813-.846-6.39 13.704z" fill="#30efd3"/><path d="m100.93 284.691.977.212.169-.78-.723-.338zm-25.8843-12.07.4227-.906-.7239-.337-.4892.631zm-11.3048 14.59-.4226.906.7238.337.4892-.631zm-15.0085-6.999-.7835-.621-.7871.992 1.148.535zm53.6626-67.661.422-.906-.715-.333-.491.618zm26.971 12.578.98.2.159-.773-.716-.334zm-17.337 84.599-.423.906 1.148.535.255-1.241zm-15.0085-6.999-.9773-.212-.1692.781.7239.337zm-12.5396-42.391-.789-.614-.771.99 1.1374.53zm19.6851 9.179-.423.907 1.135.528.265-1.223zm9.346-43.043.978.213.169-.781-.724-.338zm-1.957-.912.422-.907-.722-.337-.489.629zm-10.202 58.223-25.8846-12.07-.8453 1.813 25.8839 12.07zm-27.0977-11.776-11.3049 14.589 1.5809 1.225 11.3049-14.589zm-10.0918 14.295-15.0085-6.998-.8452 1.812 15.0085 6.999zm-14.6476-5.471 53.6621-67.66-1.567-1.243-53.6621 67.661zm52.4561-67.375 26.972 12.577.845-1.813-26.972-12.577zm26.415 11.47-17.338 84.599 1.96.401 17.337-84.599zm-15.935 83.893-15.0089-6.998-.8452 1.812 15.0081 6.999zm-14.4542-5.88 3.9092-18.038-1.9544-.423-3.9094 18.037zm-13.9395-41.697 19.6847 9.18.846-1.813-19.6855-9.179zm21.0847 8.485 9.347-43.042-1.955-.425-9.346 43.043zm8.792-44.161-1.958-.913-.845 1.813 1.958.913zm-3.169-.621-27.0741 34.777 1.5781 1.228 27.074-34.776zm38.502 67.191.423-.907-.906-.422-.423.906zm-13.388 28.712-.423.906.907.423.422-.907zm-14.356-6.695-.906-.422-.423.906.906.423zm35.5-76.13.422-.906-.906-.422-.422.906zm39.11 20.621-.758.653.007.008.007.008zm4.845 8.35-.957.29.005.018.006.017zm1.054 9.098-.996-.099-.001.017-.001.016zm-8.875 19.032-.705-.71-.005.006-.005.005zm-7.749 5.258-.391-.92-.001.001zm-9.561 1.765-.014 1zm-20.19-23.715-.906-.422-.423.906.907.423zm22.751 7.432-.304-.953-.009.003-.009.003zm6.898-14.791-.933.361.004.009.003.009zm-20.317-12.652.422-.906-.906-.423-.423.906zm-16.628 33.292-13.388 28.712 1.812.845 13.389-28.712zm-12.06 28.228-14.355-6.694-.846 1.813 14.356 6.694zm-13.872-5.365 35.5-76.13-1.812-.845-35.5 76.13zm34.171-75.646 29.8 13.895.845-1.812-29.8-13.896zm29.8 13.895c3.816 1.78 6.795 3.943 8.975 6.472l1.515-1.306c-2.403-2.787-5.631-5.106-9.645-6.978zm8.989 6.488c2.239 2.488 3.774 5.145 4.632 7.971l1.914-.58c-.952-3.138-2.647-6.048-5.059-8.729zm4.643 8.006c.964 2.806 1.299 5.694 1.004 8.674l1.991.197c.322-3.264-.046-6.441-1.104-9.521zm1.002 8.707c-.194 2.962-.908 5.76-2.139 8.401l1.813.845c1.338-2.869 2.111-5.91 2.321-9.115zm-2.139 8.401-1.217 2.61 1.812.845 1.218-2.61zm-1.217 2.61c-1.267 2.717-3.006 5.175-5.226 7.377l1.409 1.42c2.38-2.362 4.259-5.013 5.629-7.952zm-5.236 7.388c-2.099 2.146-4.571 3.825-7.425 5.037l.782 1.841c3.09-1.313 5.784-3.139 8.073-5.48zm-7.426 5.038c-2.722 1.162-5.769 1.729-9.156 1.684l-.027 2c3.631.049 6.959-.56 9.968-1.845zm-9.156 1.684c-3.338-.045-6.911-.937-10.726-2.716l-.846 1.812c4.015 1.873 7.866 2.854 11.545 2.904zm-10.726-2.716-15.444-7.202-.845 1.813 15.443 7.201zm-9.899-19.092 14.029 6.542.846-1.813-14.03-6.542zm14.029 6.542c3.359 1.566 6.538 1.928 9.467.929l-.645-1.893c-2.319.791-4.954.56-7.976-.849zm9.449.935c2.983-.953 5.181-2.967 6.574-5.954l-1.813-.845c-1.177 2.523-2.96 4.125-5.37 4.894zm6.574-5.954.608-1.305-1.812-.845-.609 1.305zm.608-1.305c1.393-2.987 1.524-5.966.336-8.864l-1.851.759c.96 2.34.879 4.736-.297 7.26zm.343-8.845c-1.118-2.887-3.439-5.089-6.797-6.655l-.845 1.813c3.022 1.409 4.892 3.279 5.777 5.564zm-6.797-6.655-14.03-6.542-.845 1.812 14.03 6.543zm-15.359-6.059-9.331 20.012 1.813.845 9.331-20.011zm75.258 111.094-.423.907.907.422.422-.906zm-14.356-6.694-.906-.423-.423.907.906.422zm11.214-27.74-.972.236.005.019.005.019zm-20.229-11.419.422-.906-.906-.423-.423.906zm-13.389 28.712-.423.906.907.423.422-.907zm-14.356-6.694-.906-.423-.423.906.906.423zm35.5-76.13.423-.907-.907-.422-.422.906zm38.718 20.04.708-.706zm5.266 8.017-.94.342.006.017.007.017zm1.474 8.764-.999-.056v.012l-.001.012zm-9.999 19.17.547.838.01-.007zm-10.612 2.599.041-.999-.666-.028-.282.604zm-.913 1.957-.906-.422-.378.808.761.467zm4.612 5.726-.961.276.003.012.004.011zm-29.911-25.864-.907-.423-.422.906.906.423zm22.758 7.699.281.96.011-.003.01-.004zm6.897-14.791-.946.324.003.009.003.009zm-20.324-12.92.423-.906-.907-.423-.422.907zm8.072 78.662-14.355-6.694-.846 1.812 14.356 6.695zm-13.872-5.365 10.65-22.839-1.812-.846-10.65 22.839zm10.65-22.839c.891-1.911 1.134-3.794.62-5.598l-1.924.548c.357 1.25.224 2.635-.508 4.204zm.63-5.56c-.466-1.914-2.013-3.339-4.248-4.381l-.845 1.813c1.971.919 2.889 1.968 3.149 3.04zm-4.248-4.381-16.531-7.708-.845 1.812 16.531 7.709zm-17.86-7.225-13.388 28.712 1.812.845 13.389-28.711zm-12.059 28.229-14.356-6.695-.846 1.813 14.356 6.694zm-13.873-5.366 35.5-76.13-1.812-.845-35.5 76.13zm34.171-75.646 29.147 13.591.845-1.812-29.146-13.592zm29.147 13.591c3.834 1.788 6.92 3.876 9.286 6.249l1.416-1.412c-2.565-2.573-5.859-4.785-9.857-6.649zm9.286 6.249c2.377 2.386 4.046 4.937 5.034 7.653l1.879-.684c-1.101-3.026-2.943-5.819-5.497-8.381zm5.047 7.687c1.096 2.697 1.562 5.471 1.402 8.332l1.997.112c.177-3.161-.34-6.23-1.546-9.197zm1.401 8.356c-.091 2.903-.781 5.743-2.079 8.527l1.813.845c1.407-3.017 2.165-6.122 2.265-9.309zm-2.079 8.527-1.217 2.61 1.813.845 1.217-2.61zm-1.217 2.61c-1.374 2.946-3.453 5.355-6.259 7.235l1.113 1.661c3.098-2.075 5.425-4.762 6.959-8.051zm-6.249 7.228c-2.713 1.771-6.035 2.602-10.025 2.437l-.083 1.998c4.323.18 8.076-.721 11.201-2.76zm-10.973 3.013-.912 1.958 1.812.845.913-1.958zm-.529 3.233c2.225 1.364 3.581 3.083 4.174 5.149l1.922-.552c-.752-2.621-2.47-4.72-5.05-6.302zm4.181 5.172c.661 2.11.482 4.31-.61 6.651l1.813.846c1.275-2.734 1.534-5.449.705-8.095zm-.61 6.651-12.272 26.32 1.812.845 12.273-26.319zm-28.77-31.908 13.703 6.39.846-1.813-13.704-6.39zm13.703 6.39c3.605 1.681 6.885 2.206 9.759 1.363l-.563-1.919c-2.238.656-4.995.308-8.35-1.257zm9.78 1.356c2.912-.924 5.091-3.054 6.569-6.223l-1.813-.845c-1.294 2.776-3.091 4.442-5.361 5.162zm6.569-6.223.608-1.305-1.812-.845-.609 1.305zm.608-1.305c1.297-2.781 1.415-5.654.358-8.558l-1.88.684c.878 2.412.78 4.734-.29 7.029zm.364-8.539c-1.048-3.065-3.502-5.415-7.144-7.113l-.845 1.813c3.318 1.547 5.277 3.551 6.097 5.947zm-7.144-7.113-13.703-6.39-.846 1.813 13.704 6.39zm-15.032-5.906-9.332 20.011 1.813.845 9.331-20.011zm59.424 11.027.422-.907-.906-.422-.423.906zm50.898 23.734.906.422.423-.906-.907-.423zm-6.39 13.703-.423.906.907.423.422-.906zm-18.271-8.52.422-.906-.906-.423-.423.907zm-22.72 48.723-.907-.422-.422.906.906.423zm18.271 8.52.906.423.423-.906-.906-.423zm-6.39 13.704-.423.906.907.423.422-.907zm-50.898-23.735-.907-.422-.422.906.906.423zm6.39-13.703.422-.906-.906-.423-.423.906zm18.271 8.52-.423.906.907.423.422-.906zm22.72-48.723.906.423.423-.907-.907-.422zm-18.271-8.52-.907-.423-.422.907.906.422zm5.967-12.797 50.898 23.734.845-1.813-50.898-23.734zm50.415 22.405-6.39 13.704 1.812.845 6.39-13.704zm-5.062 13.22-18.271-8.52-.845 1.812 18.271 8.52zm-19.6-8.036-22.72 48.723 1.813.845 22.72-48.723zm-22.236 50.052 18.271 8.52.846-1.813-18.272-8.52zm17.788 7.191-6.39 13.703 1.812.845 6.39-13.703zm-5.061 13.219-50.899-23.734-.845 1.813 50.898 23.734zm-50.415-22.405 6.39-13.703-1.813-.846-6.39 13.704zm5.061-13.22 18.271 8.52.845-1.812-18.271-8.52zm19.6 8.037 22.72-48.723-1.812-.846-22.72 48.723zm22.236-50.052-18.271-8.52-.845 1.812 18.271 8.52zm-17.787-7.191 6.39-13.704-1.813-.845-6.39 13.703zm73.164 17.433.422-.906-.906-.423-.423.907zm14.355 6.694.907.423.422-.906-.906-.423zm-29.109 62.427-.907-.423-.422.907.906.422zm34.584 16.127.907.423.422-.907-.906-.422zm-6.39 13.703-.422.907.906.422.423-.906zm-48.94-22.821-.907-.423-.422.907.906.422zm35.077-75.223 14.356 6.694.845-1.813-14.356-6.694zm13.872 5.365-29.11 62.426 1.813.846 29.11-62.427zm-28.626 63.755 34.585 16.127.845-1.812-34.585-16.127zm34.101 14.798-6.39 13.704 1.813.845 6.39-13.703zm-5.061 13.22-48.941-22.821-.845 1.812 48.941 22.822zm-48.457-21.492 35.5-76.13-1.813-.845-35.5 76.129z" fill="#fcbb00"/><path d="m89.8315 426.885.9063.423.4226-.907-.9063-.422zm-6.39 13.704-.4226.906.9063.422.4226-.906zm-53.5084-24.952-.9063-.422-.4227.906.9064.422zm13.5058-24.42-.662-.75-.0081.008-.008.007zm8.4587-4.794-.2766-.961-.0078.002-.0078.002zm10.2794-1.033-.0598.998.01.001h.0099zm12.0709 1.657-.216.976.0026.001zm8.0835 1.121-.0219 1h.009.0089zm5.7776-.748.3094.951.0164-.006.0162-.006zm3.798-2.466-.7262-.688-.0123.013-.0118.013zm2.8596-13.231-.9274.374.0031.007.0032.008zm-19.3875-8.114.3421.94.0068-.003.0067-.003zm-10.747 13.393-.4226.906.9063.423.4226-.907zm-14.3559-6.694-.9063-.423-.4226.906.9063.423zm9.4053-15.343-.6846-.729-.0085.008zm9.3935-5.947-.356-.935h-.0004zm11.3884-1.707-.0521.998.0091.001h.009zm23.5426 10.845-.732.682.006.007.007.006zm6.048 9.176-.934.357.003.008.003.007zm1.562 9.997-.997-.078-.001.015-.001.016zm-15.8184 24.268-.4105-.912-.0091.005zm-21.7699.971.2067-.979h-.0017zm-9.6495-1.454-.0847.996.0089.001h.0089zm-6.3794.335-.2499-.968zm-4.1823 2.154-.6771-.736-.0117.011-.0114.011zm-3.1375 5.025-.9063-.423-.4227.907.9064.422zm38.2462 17.835-6.39 13.703 1.8126.845 6.39-13.703zm-5.0611 13.219-53.5084-24.951-.8452 1.812 53.5084 24.952zm-53.0247-23.622 6.9985-15.009-1.8126-.845-6.9985 15.009zm6.9985-15.009c1.8205-3.904 3.9204-6.923 6.2791-9.099l-1.3562-1.47c-2.5986 2.397-4.8369 5.653-6.7355 9.724zm6.2629-9.084c2.45-2.164 5.1449-3.689 8.0889-4.588l-.5843-1.913c-3.2319.988-6.1762 2.659-8.8285 5.001zm8.0733-4.583c3.0386-.875 6.3501-1.211 9.9431-.996l.1196-1.996c-3.7918-.227-7.3334.125-10.6158 1.07zm9.963-.995c3.6573.146 7.6214.689 11.8948 1.634l.4319-1.953c-4.3685-.966-8.4516-1.528-12.2469-1.679zm11.8974 1.635c3.2395.707 6.0027 1.094 8.275 1.144l.0437-2c-2.0967-.046-4.7225-.406-7.892-1.098zm8.2929 1.144c2.3585.009 4.3977-.246 6.091-.797l-.6189-1.902c-1.4285.465-3.241.708-5.4642.699zm6.1236-.809c1.721-.626 3.1384-1.533 4.2062-2.744l-1.5005-1.323c-.8068.916-1.9214 1.653-3.3898 2.188zm4.1821-2.718c1.1282-1.191 2.0791-2.633 2.8613-4.311l-1.8126-.845c-.7055 1.513-1.542 2.768-2.501 3.781zm2.8613-4.311c1.5388-3.3 1.6051-6.656.1933-9.997l-1.8422.779c1.1902 2.816 1.1374 5.583-.1637 8.373zm.1995-9.982c-1.35-3.345-4.15-5.939-8.2203-7.837l-.8452 1.813c3.7602 1.753 6.104 4.03 7.2108 6.773zm-8.2203-7.837c-4.333-2.02-8.5064-2.337-12.4501-.837l.7112 1.869c3.3533-1.275 6.9612-1.053 10.8937.781zm-12.4365-.842c-3.9264 1.429-6.937 4.53-9.0799 9.125l1.8127.845c1.9819-4.25 4.6483-6.888 7.9513-8.09zm-9.0799 9.125-2.2314 4.785 1.8126.845 2.2315-4.785zm-.9025 4.301-14.3559-6.694-.8452 1.813 14.3559 6.694zm-13.8722-5.365 2.84-6.09-1.8126-.845-2.84 6.09zm2.84-6.09c1.6066-3.446 3.7242-6.428 6.3521-8.954l-1.3862-1.442c-2.8125 2.704-5.0718 5.89-6.7785 9.551zm6.3435-8.946c2.7368-2.57 5.7578-4.48 9.0655-5.742l-.7129-1.869c-3.5641 1.36-6.8054 3.415-9.7216 6.153zm9.065-5.742c3.4032-1.296 7.0594-1.848 10.9803-1.643l.1043-1.997c-4.1793-.218-8.1154.369-11.7966 1.771zm10.9984-1.642c3.9302.134 7.9794 1.161 12.154 3.107l.8452-1.812c-4.381-2.043-8.6935-3.15-12.9311-3.294zm12.154 3.107c4.4786 2.089 8.0316 4.568 10.6906 7.421l1.463-1.364c-2.871-3.08-6.6515-5.698-11.3084-7.869zm10.7036 7.434c2.721 2.813 4.656 5.76 5.833 8.838l1.868-.714c-1.289-3.369-3.386-6.539-6.264-9.514zm5.839 8.853c1.251 3.119 1.746 6.297 1.493 9.547l1.994.155c.277-3.565-.269-7.05-1.63-10.446zm1.491 9.578c-.152 3.239-.91 6.318-2.275 9.245l1.813.845c1.475-3.164 2.295-6.498 2.46-9.996zm-2.275 9.245-.609 1.305 1.813.845.609-1.305zm-.609 1.305c-2.89 6.197-7.011 10.452-12.3459 12.853l.821 1.824c5.8369-2.628 10.2779-7.269 13.3379-13.832zm-12.355 12.858c-5.2404 2.422-12.2522 2.778-21.1436.899l-.4134 1.957c9.1078 1.925 16.6092 1.634 22.3962-1.041zm-21.1453.899c-3.8068-.797-7.0722-1.291-9.7875-1.473l-.1339 1.995c2.5914.174 5.7589.65 9.5115 1.436zm-9.7697-1.472c-2.6133-.222-4.8617-.114-6.7141.364l.4998 1.936c1.5595-.402 3.564-.518 6.0448-.307zm-6.7141.364c-1.8339.473-3.3843 1.259-4.6095 2.386l1.3542 1.472c.9394-.864 2.1772-1.515 3.7551-1.922zm-4.6326 2.408c-1.0787 1.058-1.9856 2.404-2.7351 4.011l1.8127.846c.6705-1.438 1.4495-2.572 2.3228-3.429zm-2.7351 4.011-.6085 1.305 1.8126.846.6086-1.305zm-.1248 2.634 39.1525 18.257.8452-1.812-39.1525-18.257zm86.8046 1.904-.342-.94zm-5.984 12.833-.94.342zm3.401-44.491-.38-.924-.007.003zm41.219 19.221-.955.296.002.007zm-29.414 63.079-.368-.93-.007.003zm-41.219-19.221-.951.309.002.007zm30.131 6.371-.007 1h.017.017zm5.915-1.611.492.871zm4.82-4.373.801.598zm15.004-32.46.98.198zm.143-6.554.983-.183zm-2.568-5.567-.804.596.01.013.01.013zm-12.616-5.882.027.999h.017l.016-.001zm-5.915 1.611-.492-.871zm-4.929 4.322-.781-.624zm-15.221 32.359-.973-.23zm-.252 6.503.983-.183zm2.568 5.566-.783.622.01.013.011.013zm10.113-26.134c1.032-2.215 2.727-3.752 5.146-4.632l-.684-1.88c-2.896 1.054-5.009 2.95-6.275 5.666zm5.146-4.632c2.42-.881 4.706-.793 6.92.24l.845-1.813c-2.716-1.266-5.553-1.361-8.449-.307zm6.92.24c2.215 1.032 3.751 2.727 4.632 5.146l1.879-.684c-1.054-2.896-2.95-5.009-5.666-6.275zm4.632 5.146c.881 2.42.793 4.706-.24 6.92l1.813.846c1.266-2.717 1.36-5.554.306-8.45zm-.24 6.92c-1.032 2.215-2.727 3.751-5.147 4.632l.684 1.879c2.896-1.054 5.009-2.949 6.276-5.665zm-5.147 4.632c-2.419.881-4.705.793-6.92-.24l-.845 1.813c2.716 1.266 5.553 1.36 8.449.306zm-6.92-.24c-2.214-1.032-3.751-2.727-4.631-5.147l-1.88.684c1.054 2.896 2.95 5.009 5.666 6.276zm-4.631-5.147c-.881-2.419-.793-4.705.24-6.919l-1.813-.846c-1.267 2.716-1.361 5.553-.307 8.449zm-14.728-24.227c4.529-9.714 10.409-15.986 17.577-19l-.775-1.843c-7.764 3.264-13.949 9.991-18.615 19.998zm17.57-18.997c7.232-2.978 15.093-2.536 23.664 1.461l.845-1.813c-8.974-4.185-17.425-4.729-25.27-1.497zm23.664 1.461c8.572 3.997 13.924 9.716 16.219 17.131l1.911-.592c-2.495-8.058-8.31-14.167-17.285-18.352zm16.221 17.138c2.369 7.461 1.379 16.011-3.149 25.721l1.812.846c4.668-10.011 5.809-19.092 3.243-27.172zm-3.149 25.721-7.912 16.967 1.813.845 7.911-16.966zm-7.912 16.967c-4.668 10.011-10.615 16.324-17.768 19.158l.736 1.86c7.789-3.086 14.046-9.883 18.845-20.173zm-17.775 19.161c-7.088 2.868-14.88 2.376-23.46-1.625l-.845 1.813c8.967 4.181 17.346 4.786 25.055 1.666zm-23.46-1.625c-8.578-4-14.004-9.672-16.435-16.984l-1.898.631c2.639 7.939 8.521 13.984 17.488 18.166zm-16.433-16.977c-2.357-7.269-1.308-15.869 3.362-25.883l-1.812-.845c-4.797 10.287-6.019 19.43-3.452 27.345zm3.362-25.883 7.912-16.966-1.813-.845-7.911 16.966zm18.312 31.622c2.696 1.257 5.201 1.925 7.499 1.94l.013-2c-1.926-.013-4.142-.576-6.667-1.753zm7.533 1.94c2.302-.063 4.434-.641 6.38-1.74l-.984-1.742c-1.65.932-3.461 1.428-5.45 1.482zm6.38-1.74c1.935-1.094 3.643-2.651 5.129-4.646l-1.603-1.195c-1.345 1.804-2.85 3.162-4.51 4.099zm5.129-4.646c1.463-1.964 2.796-4.243 4.003-6.831l-1.813-.846c-1.159 2.487-2.425 4.645-3.793 6.482zm4.003-6.831 8.723-18.707-1.813-.845-8.723 18.706zm8.723-18.707c1.146-2.456 1.967-4.898 2.457-7.322l-1.961-.396c-.455 2.254-1.223 4.545-2.309 6.873zm2.457-7.322c.494-2.446.55-4.761.146-6.935l-1.966.366c.35 1.886.311 3.94-.141 6.173zm.146-6.935c-.409-2.196-1.336-4.201-2.768-6.005l-1.567 1.243c1.238 1.559 2.022 3.265 2.369 5.128zm-2.748-5.979c-1.421-1.917-3.45-3.463-6.029-4.666l-.846 1.813c2.351 1.096 4.088 2.453 5.268 4.044zm-6.029-4.666c-2.58-1.203-5.069-1.763-7.45-1.62l.12 1.997c1.978-.119 4.134.339 6.484 1.436zm-7.417-1.621c-2.303.063-4.435.641-6.38 1.74l.984 1.741c1.649-.932 3.461-1.427 5.45-1.482zm-6.38 1.74c-1.925 1.088-3.663 2.619-5.218 4.569l1.563 1.247c1.421-1.781 2.969-3.131 4.639-4.075zm-5.218 4.569c-1.543 1.934-2.885 4.132-4.03 6.589l1.812.845c1.086-2.328 2.347-4.389 3.781-6.187zm-4.03 6.589-8.723 18.706 1.812.846 8.723-18.707zm-8.723 18.706c-1.207 2.589-2.097 5.075-2.66 7.458l1.946.46c.527-2.229 1.367-4.586 2.526-7.072zm-2.66 7.458c-.573 2.421-.669 4.73-.262 6.915l1.966-.365c-.348-1.874-.276-3.9.242-6.09zm-.262 6.915c.409 2.197 1.336 4.202 2.768 6.006l1.566-1.243c-1.237-1.559-2.021-3.265-2.368-5.128zm2.789 6.032c1.489 1.751 3.611 3.241 6.307 4.498l.845-1.813c-2.524-1.177-4.381-2.513-5.628-3.98zm101.634 45.198.907.423.422-.906-.906-.423zm-6.39 13.704-.422.906.906.423.423-.907zm-53.508-24.952-.906-.422-.423.906.906.423zm13.506-24.42-.662-.75-.008.008-.008.007zm8.458-4.794-.276-.961-.008.002-.008.002zm10.28-1.033-.06.998.01.001h.01zm12.071 1.657-.216.976.002.001zm8.083 1.121-.022 1h.009.009zm5.778-.748.309.951.017-.006.016-.006zm3.798-2.466-.726-.688-.013.013-.012.014zm2.859-13.231-.927.374.003.007.003.008zm-19.387-8.114.342.94.007-.003.006-.002zm-10.747 13.393-.423.906.907.423.422-.907zm-14.356-6.694-.906-.423-.423.906.906.423zm9.405-15.343-.684-.729-.009.008zm9.394-5.947-.356-.935h-.001zm11.388-1.707-.052.998.009.001h.009zm23.542 10.845-.731.682.006.007.007.006zm6.049 9.176-.934.358.003.007.003.007zm1.562 9.997-.997-.078-.001.015-.001.016zm-15.819 24.268-.41-.912-.009.005zm-21.77.971.207-.978-.002-.001zm-9.649-1.454-.085.996.009.001h.009zm-6.379.335-.25-.968zm-4.183 2.154-.677-.736-.012.011-.011.011zm-3.137 5.025-.907-.422-.422.906.906.422zm38.246 17.835-6.39 13.703 1.813.845 6.39-13.703zm-5.061 13.219-53.509-24.951-.845 1.813 53.509 24.951zm-53.025-23.622 6.999-15.009-1.813-.845-6.998 15.009zm6.999-15.009c1.82-3.904 3.92-6.923 6.279-9.099l-1.356-1.47c-2.599 2.397-4.837 5.653-6.736 9.724zm6.263-9.084c2.45-2.164 5.144-3.689 8.088-4.588l-.584-1.913c-3.232.988-6.176 2.659-8.828 5.001zm8.073-4.583c3.038-.875 6.35-1.211 9.943-.996l.12-1.996c-3.792-.227-7.334.125-10.616 1.07zm9.963-.995c3.657.146 7.621.689 11.895 1.634l.432-1.953c-4.369-.966-8.452-1.528-12.247-1.679zm11.897 1.635c3.24.707 6.003 1.094 8.275 1.144l.044-2c-2.097-.045-4.723-.406-7.892-1.098zm8.293 1.144c2.359.009 4.398-.246 6.091-.797l-.619-1.902c-1.428.465-3.241.708-5.464.699zm6.124-.809c1.721-.626 3.138-1.532 4.206-2.744l-1.501-1.322c-.806.915-1.921 1.653-3.389 2.187zm4.182-2.718c1.128-1.191 2.079-2.633 2.861-4.311l-1.812-.845c-.706 1.513-1.542 2.768-2.501 3.781zm2.861-4.311c1.539-3.3 1.605-6.656.193-9.997l-1.842.779c1.19 2.816 1.138 5.583-.163 8.373zm.2-9.982c-1.35-3.345-4.15-5.939-8.221-7.837l-.845 1.813c3.76 1.753 6.104 4.03 7.211 6.773zm-8.221-7.837c-4.333-2.02-8.506-2.337-12.45-.837l.711 1.87c3.354-1.276 6.962-1.054 10.894.78zm-12.436-.842c-3.927 1.429-6.937 4.53-9.08 9.125l1.813.845c1.982-4.25 4.648-6.888 7.951-8.09zm-9.08 9.125-2.231 4.785 1.812.845 2.232-4.785zm-.903 4.302-14.355-6.695-.846 1.813 14.356 6.694zm-13.872-5.366 2.84-6.09-1.812-.845-2.84 6.09zm2.84-6.09c1.607-3.446 3.724-6.427 6.352-8.954l-1.386-1.442c-2.812 2.704-5.072 5.891-6.778 9.551zm6.344-8.946c2.737-2.57 5.758-4.48 9.065-5.742l-.713-1.869c-3.564 1.36-6.805 3.415-9.721 6.153zm9.065-5.742c3.403-1.296 7.059-1.847 10.98-1.643l.104-1.997c-4.179-.218-8.115.369-11.796 1.771zm10.998-1.642c3.93.134 7.98 1.161 12.154 3.107l.845-1.812c-4.381-2.043-8.693-3.15-12.931-3.294zm12.154 3.107c4.479 2.089 8.032 4.568 10.691 7.421l1.463-1.364c-2.871-3.08-6.652-5.698-11.309-7.869zm10.704 7.434c2.72 2.813 4.655 5.76 5.833 8.839l1.868-.715c-1.289-3.369-3.386-6.539-6.264-9.514zm5.839 8.853c1.25 3.119 1.745 6.297 1.493 9.547l1.994.155c.277-3.564-.269-7.05-1.631-10.446zm1.491 9.578c-.153 3.239-.911 6.318-2.275 9.245l1.812.845c1.476-3.164 2.296-6.498 2.461-9.996zm-2.275 9.245-.609 1.305 1.813.845.608-1.305zm-.609 1.305c-2.89 6.197-7.011 10.452-12.346 12.853l.821 1.824c5.837-2.628 10.277-7.269 13.338-13.832zm-12.355 12.858c-5.241 2.422-12.252 2.778-21.144.9l-.413 1.956c9.108 1.925 16.609 1.634 22.396-1.041zm-21.146.899c-3.806-.797-7.072-1.291-9.787-1.473l-.134 1.995c2.591.174 5.759.65 9.512 1.436zm-9.769-1.472c-2.614-.222-4.862-.114-6.714.364l.499 1.936c1.56-.402 3.564-.518 6.045-.307zm-6.714.364c-1.834.473-3.385 1.259-4.61 2.386l1.354 1.472c.94-.864 2.178-1.514 3.755-1.922zm-4.633 2.408c-1.079 1.058-1.986 2.404-2.735 4.011l1.813.846c.67-1.438 1.449-2.572 2.322-3.429zm-2.735 4.011-.609 1.306 1.813.845.609-1.305zm-.125 2.634 39.153 18.258.845-1.813-39.153-18.257zm74.302 33.545-.423.906.907.422.422-.906zm25.763-55.249.906.423.423-.907-.907-.422zm-1.958-.913.423-.906-.691-.322-.494.58zm-19.349 22.755-.423.906.691.322.493-.581zm-13.704-6.39-.906-.423-.423.906.907.423zm.609-1.305-.755-.656-.092.106-.059.127zm24.045-27.715.423-.906-.684-.319-.494.57zm28.06 13.084.906.423.423-.906-.907-.423zm-29.11 62.427-.907-.423-.422.906.906.423zm18.923 8.824.907.423.422-.907-.906-.422zm-6.39 13.703-.422.907.906.422.423-.906zm-54.813-25.56-.906-.422-.423.906.906.423zm6.39-13.703.423-.906-.907-.423-.422.906zm22.44 10.464 25.763-55.248-1.813-.846-25.762 55.249zm25.279-56.577-1.957-.913-.846 1.812 1.958.913zm-3.142-.655-19.349 22.755 1.523 1.295 19.35-22.754zm-18.165 22.496-13.703-6.39-.845 1.813 13.703 6.39zm-13.219-5.061.608-1.305-1.812-.845-.609 1.305zm.457-1.072 24.046-27.715-1.511-1.31-24.045 27.714zm22.868-27.464 28.059 13.085.845-1.813-28.059-13.084zm27.575 11.756-29.11 62.426 1.813.845 29.11-62.426zm-28.626 63.755 18.924 8.824.845-1.812-18.924-8.825zm18.44 7.495-6.39 13.704 1.813.845 6.39-13.703zm-5.061 13.22-54.813-25.56-.846 1.813 54.814 25.56zm-54.33-24.231 6.39-13.703-1.812-.846-6.39 13.704zm5.061-13.22 21.534 10.042.845-1.813-21.533-10.041z" fill="#ff39a6"/></svg>