<svg width="694" height="48" viewBox="0 0 694 48" fill="none" xmlns="http://www.w3.org/2000/svg">
<path d="M32.2189 3.6411L33.2189 3.63901L33.2168 2.63901L32.2168 2.6411L32.2189 3.6411ZM28.4597 42.409L27.7301 41.7252L27.7248 41.7309L28.4597 42.409ZM5.83978 42.4562L5.10762 43.1374L5.11301 43.1431L5.83978 42.4562ZM1.97898 3.70415L1.97689 2.70415L0.976896 2.70623L0.978981 3.70623L1.97898 3.70415ZM9.89896 3.68763L10.899 3.68555L10.8969 2.68555L9.89688 2.68763L9.89896 3.68763ZM11.7084 36.9839L10.9397 37.6236L11.7084 36.9839ZM22.6284 36.9612L21.857 36.3248L21.857 36.3248L22.6284 36.9612ZM24.2989 3.65761L24.2968 2.65761L23.2968 2.6597L23.2989 3.65969L24.2989 3.65761ZM31.2189 3.64318L31.2762 31.1231L33.2762 31.119L33.2189 3.63901L31.2189 3.64318ZM31.2762 31.1231C31.2858 35.7437 30.0648 39.2342 27.7301 41.7252L29.1894 43.0929C31.9633 40.1332 33.2866 36.0984 33.2762 31.119L31.2762 31.1231ZM27.7248 41.7309C25.4583 44.1875 22.0088 45.5025 17.1862 45.5125L17.1903 47.5125C22.3677 47.5017 26.4325 46.0811 29.1947 43.0871L27.7248 41.7309ZM17.1862 45.5125C12.3647 45.5226 8.88504 44.2224 6.56655 41.7693L5.11301 43.1431C7.92586 46.1193 12.0119 47.5233 17.1903 47.5125L17.1862 45.5125ZM6.57193 41.775C4.26381 39.2941 3.04591 35.8066 3.03627 31.182L1.03627 31.1862C1.04665 36.1616 2.36443 40.1888 5.10764 43.1373L6.57193 41.775ZM3.03627 31.182L2.97898 3.70206L0.978981 3.70623L1.03627 31.1862L3.03627 31.182ZM1.98106 4.70414L9.90105 4.68763L9.89688 2.68763L1.97689 2.70415L1.98106 4.70414ZM8.89896 3.68972L8.95626 31.1697L10.9563 31.1655L10.899 3.68555L8.89896 3.68972ZM8.95626 31.1697C8.96174 33.798 9.58139 35.9912 10.9397 37.6236L12.4771 36.3443C11.5095 35.1816 10.9611 33.4971 10.9563 31.1655L8.95626 31.1697ZM10.9397 37.6236C12.3559 39.3255 14.5116 40.0781 17.1748 40.0725L17.1707 38.0725C14.8739 38.0773 13.3867 37.4375 12.4771 36.3443L10.9397 37.6236ZM17.1748 40.0725C19.838 40.067 21.9906 39.3054 23.3997 37.5976L21.857 36.3248C20.9519 37.4217 19.4675 38.0678 17.1707 38.0725L17.1748 40.0725ZM23.3997 37.5976C24.7512 35.9595 25.3617 33.7638 25.3562 31.1355L23.3562 31.1396C23.3611 33.4713 22.8197 35.158 21.857 36.3248L23.3997 37.5976ZM25.3562 31.1355L25.2989 3.65553L23.2989 3.65969L23.3562 31.1396L25.3562 31.1355ZM24.301 4.65761L32.221 4.64109L32.2168 2.6411L24.2968 2.65761L24.301 4.65761ZM59.6164 41.6241L58.625 41.7544L58.7395 42.6259L59.6185 42.6241L59.6164 41.6241ZM60.6964 41.6218L60.6985 42.6218L61.6985 42.6197L61.6964 41.6197L60.6964 41.6218ZM60.6171 3.58189L60.6151 2.58189L59.6151 2.58398L59.6171 3.58397L60.6171 3.58189ZM68.5371 3.56538L69.5371 3.56329L69.535 2.56329L68.535 2.56538L68.5371 3.56538ZM68.6247 45.5653L68.6268 46.5653L69.6268 46.5632L69.6247 45.5632L68.6247 45.5653ZM53.1447 45.5976L52.1532 45.7279L52.2678 46.5994L53.1468 46.5976L53.1447 45.5976ZM48.1454 7.5679L49.1369 7.43757L49.0223 6.56607L48.1433 6.56791L48.1454 7.5679ZM47.0654 7.57015L47.0633 6.57016L46.0633 6.57224L46.0654 7.57224L47.0654 7.57015ZM47.1447 45.6101L47.1468 46.6101L48.1468 46.608L48.1447 45.608L47.1447 45.6101ZM39.2247 45.6266L38.2247 45.6287L38.2268 46.6287L39.2268 46.6266L39.2247 45.6266ZM39.1372 3.62667L39.1351 2.62668L38.1351 2.62876L38.1372 3.62876L39.1372 3.62667ZM54.6171 3.5944L55.6086 3.46406L55.4941 2.59257L54.6151 2.5944L54.6171 3.5944ZM59.6185 42.6241L60.6985 42.6218L60.6944 40.6218L59.6144 40.6241L59.6185 42.6241ZM61.6964 41.6197L61.6171 3.5798L59.6171 3.58397L59.6964 41.6239L61.6964 41.6197ZM60.6192 4.58189L68.5392 4.56537L68.535 2.56538L60.6151 2.58189L60.6192 4.58189ZM67.5371 3.56746L67.6247 45.5674L69.6247 45.5632L69.5371 3.56329L67.5371 3.56746ZM68.6226 44.5653L53.1426 44.5976L53.1468 46.5976L68.6268 46.5653L68.6226 44.5653ZM54.1362 45.4672L49.1369 7.43757L47.1539 7.69824L52.1532 45.7279L54.1362 45.4672ZM48.1433 6.56791L47.0633 6.57016L47.0675 8.57015L48.1475 8.5679L48.1433 6.56791ZM46.0654 7.57224L46.1447 45.6122L48.1447 45.608L48.0654 7.56807L46.0654 7.57224ZM47.1426 44.6101L39.2227 44.6266L39.2268 46.6266L47.1468 46.6101L47.1426 44.6101ZM40.2247 45.6245L40.1372 3.62459L38.1372 3.62876L38.2247 45.6287L40.2247 45.6245ZM39.1393 4.62667L54.6192 4.5944L54.6151 2.5944L39.1351 2.62668L39.1393 4.62667ZM53.6257 3.72473L58.625 41.7544L60.6079 41.4937L55.6086 3.46406L53.6257 3.72473ZM77.1354 3.54745L77.1333 2.54745L76.1333 2.54954L76.1354 3.54954L77.1354 3.54745ZM85.0554 3.53094L86.0554 3.52885L86.0533 2.52886L85.0533 2.53094L85.0554 3.53094ZM85.1272 37.9709L84.1272 37.973L84.1293 38.9729L85.1293 38.9709L85.1272 37.9709ZM104.207 37.9311L105.207 37.929L105.205 36.929L104.205 36.9311L104.207 37.9311ZM104.223 45.4911L104.225 46.4911L105.225 46.489L105.223 45.489L104.223 45.4911ZM77.2229 45.5474L76.2229 45.5494L76.225 46.5494L77.225 46.5474L77.2229 45.5474ZM77.1375 4.54745L85.0575 4.53094L85.0533 2.53094L77.1333 2.54745L77.1375 4.54745ZM84.0554 3.53302L84.1272 37.973L86.1272 37.9688L86.0554 3.52885L84.0554 3.53302ZM85.1293 38.9709L104.209 38.9311L104.205 36.9311L85.1251 36.9709L85.1293 38.9709ZM103.207 37.9332L103.223 45.4932L105.223 45.489L105.207 37.929L103.207 37.9332ZM104.221 44.4911L77.2209 44.5474L77.225 46.5474L104.225 46.4911L104.221 44.4911ZM78.2229 45.5453L78.1354 3.54537L76.1354 3.54954L76.2229 45.5494L78.2229 45.5453ZM113.274 3.47211L113.271 2.47211L112.272 2.47419L112.274 3.47419L113.274 3.47211ZM141.354 3.41356L142.354 3.41148L142.351 2.41148L141.351 2.41356L141.354 3.41356ZM141.369 10.9735L141.371 11.9735L142.371 11.9715L142.369 10.9715L141.369 10.9735ZM131.289 10.9946L131.287 9.99457L130.287 9.99665L130.289 10.9966L131.289 10.9946ZM131.345 37.8745L130.345 37.8766L130.347 38.8766L131.347 38.8745L131.345 37.8745ZM141.425 37.8535L142.425 37.8514L142.423 36.8514L141.423 36.8535L141.425 37.8535ZM141.441 45.4135L141.443 46.4135L142.443 46.4114L142.441 45.4114L141.441 45.4135ZM113.361 45.472L112.361 45.4741L112.363 46.4741L113.363 46.472L113.361 45.472ZM113.345 37.912L113.343 36.912L112.343 36.9141L112.345 37.9141L113.345 37.912ZM123.425 37.891L123.427 38.891L124.427 38.8889L124.425 37.8889L123.425 37.891ZM123.369 11.0111L124.369 11.009L124.367 10.009L123.367 10.0111L123.369 11.0111ZM113.289 11.0321L112.289 11.0342L112.291 12.0342L113.291 12.0321L113.289 11.0321ZM113.276 4.4721L141.356 4.41356L141.351 2.41356L113.271 2.47211L113.276 4.4721ZM140.354 3.41565L140.369 10.9756L142.369 10.9715L142.354 3.41148L140.354 3.41565ZM141.367 9.97355L131.287 9.99457L131.291 11.9946L141.371 11.9735L141.367 9.97355ZM130.289 10.9966L130.345 37.8766L132.345 37.8724L132.289 10.9925L130.289 10.9966ZM131.347 38.8745L141.427 38.8535L141.423 36.8535L131.343 36.8745L131.347 38.8745ZM140.425 37.8556L140.441 45.4156L142.441 45.4114L142.425 37.8514L140.425 37.8556ZM141.439 44.4135L113.359 44.472L113.363 46.472L141.443 46.4135L141.439 44.4135ZM114.361 45.4699L114.345 37.9099L112.345 37.9141L112.361 45.4741L114.361 45.4699ZM113.347 38.912L123.427 38.891L123.423 36.891L113.343 36.912L113.347 38.912ZM124.425 37.8889L124.369 11.009L122.369 11.0132L122.425 37.8931L124.425 37.8889ZM123.367 10.0111L113.287 10.0321L113.291 12.0321L123.371 12.0111L123.367 10.0111ZM114.289 11.03L114.274 3.47002L112.274 3.47419L112.289 11.0342L114.289 11.03ZM147.012 3.40176L147.01 2.40177L146.01 2.40385L146.012 3.40385L147.012 3.40176ZM160.932 3.37274L161.929 3.29484L161.857 2.37081L160.93 2.37274L160.932 3.37274ZM163.398 34.9277L164.398 34.9256L164.397 34.8876L164.395 34.8498L163.398 34.9277ZM163.41 41.0477L162.41 41.0497L162.412 42.0497L163.412 42.0477L163.41 41.0477ZM164.85 41.0447L164.852 42.0447L165.852 42.0426L165.85 41.0426L164.85 41.0447ZM164.838 34.9247L163.84 34.8509L163.837 34.8888L163.838 34.9268L164.838 34.9247ZM167.172 3.35973L167.17 2.35974L166.243 2.36167L166.174 3.28599L167.172 3.35973ZM181.092 3.33071L182.092 3.32863L182.09 2.32863L181.09 2.33071L181.092 3.33071ZM181.179 45.3306L181.181 46.3306L182.181 46.3285L182.179 45.3285L181.179 45.3306ZM173.979 45.3456L172.979 45.3477L172.981 46.3477L173.981 46.3456L173.979 45.3456ZM173.921 17.2657L172.923 17.193L172.921 17.2303L172.921 17.2678L173.921 17.2657ZM174.621 7.66421L175.618 7.73692L175.696 6.66197L174.619 6.66422L174.621 7.66421ZM173.181 7.66722L173.179 6.66722L172.258 6.66914L172.184 7.58677L173.181 7.66722ZM170.139 45.3536L170.141 46.3536L171.062 46.3517L171.136 45.4341L170.139 45.3536ZM158.259 45.3784L157.263 45.4662L157.344 46.3803L158.261 46.3784L158.259 45.3784ZM154.941 7.70525L155.937 7.6175L155.856 6.70333L154.939 6.70525L154.941 7.70525ZM153.501 7.70825L153.499 6.70825L152.421 6.7105L152.504 7.78512L153.501 7.70825ZM154.241 17.3067L155.241 17.3046L155.241 17.2672L155.238 17.2299L154.241 17.3067ZM154.299 45.3867L154.301 46.3867L155.301 46.3846L155.299 45.3846L154.299 45.3867ZM147.099 45.4017L146.099 45.4038L146.101 46.4038L147.101 46.4017L147.099 45.4017ZM147.014 4.40176L160.934 4.37274L160.93 2.37274L147.01 2.40177L147.014 4.40176ZM159.935 3.45065L162.401 35.0056L164.395 34.8498L161.929 3.29484L159.935 3.45065ZM162.398 34.9298L162.41 41.0497L164.41 41.0456L164.398 34.9256L162.398 34.9298ZM163.412 42.0477L164.852 42.0447L164.848 40.0447L163.408 40.0477L163.412 42.0477ZM165.85 41.0426L165.838 34.9226L163.838 34.9268L163.85 41.0467L165.85 41.0426ZM165.835 34.9984L168.169 3.43348L166.174 3.28599L163.84 34.8509L165.835 34.9984ZM167.174 4.35973L181.094 4.33071L181.09 2.33071L167.17 2.35974L167.174 4.35973ZM180.092 3.3328L180.179 45.3327L182.179 45.3285L182.092 3.32863L180.092 3.3328ZM181.177 44.3306L173.977 44.3456L173.981 46.3456L181.181 46.3306L181.177 44.3306ZM174.979 45.3436L174.921 17.2636L172.921 17.2678L172.979 45.3477L174.979 45.3436ZM174.918 17.3384L175.618 7.73692L173.623 7.5915L172.923 17.193L174.918 17.3384ZM174.619 6.66422L173.179 6.66722L173.183 8.66721L174.623 8.66421L174.619 6.66422ZM172.184 7.58677L169.143 45.2732L171.136 45.4341L174.178 7.74766L172.184 7.58677ZM170.137 44.3536L158.257 44.3784L158.261 46.3784L170.141 46.3536L170.137 44.3536ZM159.255 45.2907L155.937 7.6175L153.945 7.79299L157.263 45.4662L159.255 45.2907ZM154.939 6.70525L153.499 6.70825L153.503 8.70825L154.943 8.70524L154.939 6.70525ZM152.504 7.78512L153.244 17.3836L155.238 17.2299L154.498 7.63138L152.504 7.78512ZM153.241 17.3088L153.299 45.3888L155.299 45.3846L155.241 17.3046L153.241 17.3088ZM154.297 44.3867L147.097 44.4017L147.101 46.4017L154.301 46.3867L154.297 44.3867ZM148.099 45.3996L148.012 3.39968L146.012 3.40385L146.099 45.4038L148.099 45.3996ZM186.75 3.31891L186.748 2.31892L185.748 2.321L185.75 3.321L186.75 3.31891ZM214.83 3.26037L215.83 3.25828L215.828 2.25829L214.828 2.26037L214.83 3.26037ZM214.846 10.8204L214.848 11.8204L215.848 11.8183L215.846 10.8183L214.846 10.8204ZM204.766 10.8414L204.764 9.84137L203.764 9.84346L203.766 10.8435L204.766 10.8414ZM204.822 37.7213L203.822 37.7234L203.824 38.7234L204.824 38.7213L204.822 37.7213ZM214.902 37.7003L215.902 37.6982L215.9 36.6982L214.9 36.7003L214.902 37.7003ZM214.917 45.2603L214.92 46.2603L215.92 46.2582L215.917 45.2582L214.917 45.2603ZM186.838 45.3188L185.838 45.3209L185.84 46.3209L186.84 46.3188L186.838 45.3188ZM186.822 37.7588L186.82 36.7588L185.82 36.7609L185.822 37.7609L186.822 37.7588ZM196.902 37.7378L196.904 38.7378L197.904 38.7357L197.902 37.7357L196.902 37.7378ZM196.846 10.8579L197.846 10.8558L197.844 9.8558L196.844 9.85789L196.846 10.8579ZM186.766 10.8789L185.766 10.881L185.768 11.881L186.768 11.8789L186.766 10.8789ZM186.752 4.31891L214.832 4.26037L214.828 2.26037L186.748 2.31892L186.752 4.31891ZM213.83 3.26245L213.846 10.8224L215.846 10.8183L215.83 3.25828L213.83 3.26245ZM214.844 9.82036L204.764 9.84137L204.768 11.8414L214.848 11.8204L214.844 9.82036ZM203.766 10.8435L203.822 37.7234L205.822 37.7192L205.766 10.8393L203.766 10.8435ZM204.824 38.7213L214.904 38.7003L214.9 36.7003L204.82 36.7213L204.824 38.7213ZM213.902 37.7024L213.917 45.2624L215.917 45.2582L215.902 37.6982L213.902 37.7024ZM214.915 44.2603L186.835 44.3188L186.84 46.3188L214.92 46.2603L214.915 44.2603ZM187.838 45.3167L187.822 37.7568L185.822 37.7609L185.838 45.3209L187.838 45.3167ZM186.824 38.7588L196.904 38.7378L196.9 36.7378L186.82 36.7588L186.824 38.7588ZM197.902 37.7357L197.846 10.8558L195.846 10.86L195.902 37.7399L197.902 37.7357ZM196.844 9.85789L186.764 9.8789L186.768 11.8789L196.848 11.8579L196.844 9.85789ZM187.766 10.8768L187.75 3.31683L185.75 3.321L185.766 10.881L187.766 10.8768ZM222.408 3.24457L222.406 2.24457L221.406 2.24666L221.408 3.24665L222.408 3.24457ZM252.648 3.18152L253.648 3.17944L253.646 2.17944L252.646 2.18152L252.648 3.18152ZM252.664 10.7415L252.666 11.7415L253.666 11.7394L253.664 10.7394L252.664 10.7415ZM241.504 10.7648L241.502 9.76478L240.502 9.76686L240.504 10.7669L241.504 10.7648ZM241.576 45.2047L241.578 46.2047L242.578 46.2026L242.576 45.2026L241.576 45.2047ZM233.656 45.2212L232.656 45.2233L232.658 46.2233L233.658 46.2212L233.656 45.2212ZM233.584 10.7813L234.584 10.7792L234.582 9.77921L233.582 9.78129L233.584 10.7813ZM222.424 10.8046L221.424 10.8066L221.426 11.8066L222.426 11.8046L222.424 10.8046ZM222.41 4.24457L252.65 4.18152L252.646 2.18152L222.406 2.24457L222.41 4.24457ZM251.648 3.18361L251.664 10.7436L253.664 10.7394L253.648 3.17944L251.648 3.18361ZM252.662 9.74151L241.502 9.76478L241.506 11.7648L252.666 11.7415L252.662 9.74151ZM240.504 10.7669L240.576 45.2068L242.576 45.2026L242.504 10.7627L240.504 10.7669ZM241.574 44.2047L233.654 44.2212L233.658 46.2212L241.578 46.2047L241.574 44.2047ZM234.656 45.2191L234.584 10.7792L232.584 10.7834L232.656 45.2233L234.656 45.2191ZM233.582 9.78129L222.422 9.80456L222.426 11.8046L233.586 11.7813L233.582 9.78129ZM223.424 10.8025L223.408 3.24248L221.408 3.24665L221.424 10.8066L223.424 10.8025ZM260.826 3.16447L260.824 2.16447L259.824 2.16656L259.826 3.16656L260.826 3.16447ZM287.346 3.10918L288.346 3.10709L288.344 2.1071L287.344 2.10918L287.346 3.10918ZM287.362 10.6692L287.364 11.6692L288.364 11.6671L288.362 10.6671L287.362 10.6692ZM268.762 10.7079L268.76 9.70795L267.76 9.71003L267.762 10.71L268.762 10.7079ZM268.782 20.3079L267.782 20.31L267.784 21.31L268.784 21.3079L268.782 20.3079ZM286.662 20.2706L287.662 20.2686L287.66 19.2686L286.66 19.2706L286.662 20.2706ZM286.678 27.8306L286.68 28.8306L287.68 28.8285L287.678 27.8285L286.678 27.8306ZM268.798 27.8679L268.796 26.8679L267.796 26.87L267.798 27.87L268.798 27.8679ZM268.818 37.5879L267.818 37.59L267.82 38.59L268.82 38.5879L268.818 37.5879ZM288.138 37.5476L289.138 37.5455L289.136 36.5455L288.136 36.5476L288.138 37.5476ZM288.154 45.1076L288.156 46.1076L289.156 46.1055L289.154 45.1055L288.154 45.1076ZM260.914 45.1644L259.914 45.1665L259.916 46.1665L260.916 46.1644L260.914 45.1644ZM260.828 4.16447L287.348 4.10918L287.344 2.10918L260.824 2.16447L260.828 4.16447ZM286.346 3.11126L286.362 10.6713L288.362 10.6671L288.346 3.10709L286.346 3.11126ZM287.36 9.66917L268.76 9.70795L268.764 11.7079L287.364 11.6692L287.36 9.66917ZM267.762 10.71L267.782 20.31L269.782 20.3058L269.762 10.7059L267.762 10.71ZM268.784 21.3079L286.664 21.2706L286.66 19.2706L268.78 19.3079L268.784 21.3079ZM285.662 20.2727L285.678 27.8327L287.678 27.8285L287.662 20.2686L285.662 20.2727ZM286.676 26.8306L268.796 26.8679L268.8 28.8679L286.68 28.8306L286.676 26.8306ZM267.798 27.87L267.818 37.59L269.818 37.5858L269.798 27.8658L267.798 27.87ZM268.82 38.5879L288.14 38.5476L288.136 36.5476L268.816 36.5879L268.82 38.5879ZM287.138 37.5497L287.154 45.1097L289.154 45.1055L289.138 37.5455L287.138 37.5497ZM288.152 44.1076L260.912 44.1644L260.916 46.1644L288.156 46.1076L288.152 44.1076ZM261.914 45.1623L261.826 3.16239L259.826 3.16656L259.914 45.1665L261.914 45.1623ZM295.405 3.09238L295.403 2.09238L294.403 2.09447L294.405 3.09446L295.405 3.09238ZM322.232 6.69645L321.538 7.41634L321.544 7.42203L322.232 6.69645ZM322.305 41.4364L322.996 42.1591L323.002 42.1533L322.305 41.4364ZM295.492 45.0923L294.492 45.0944L294.494 46.0944L295.494 46.0923L295.492 45.0923ZM295.476 37.4723L295.474 36.4723L294.474 36.4744L294.476 37.4744L295.476 37.4723ZM299.436 37.4641L299.438 38.4641L300.438 38.462L300.436 37.462L299.436 37.4641ZM299.38 10.6441L300.38 10.642L300.378 9.64203L299.378 9.64411L299.38 10.6441ZM295.42 10.6524L294.42 10.6544L294.422 11.6544L295.422 11.6524L295.42 10.6524ZM316.472 35.5685L315.709 34.9231L315.707 34.9253L316.472 35.5685ZM316.424 12.4686L315.671 13.1269L315.677 13.1337L315.684 13.1404L316.424 12.4686ZM307.3 10.6276L307.298 9.6276L306.298 9.62968L306.3 10.6297L307.3 10.6276ZM307.356 37.5075L306.356 37.5096L306.358 38.5096L307.358 38.5075L307.356 37.5075ZM295.407 4.09238L310.647 4.0606L310.642 2.06061L295.403 2.09238L295.407 4.09238ZM310.647 4.0606C315.711 4.05004 319.273 5.2325 321.538 7.41632L322.926 5.97659C320.141 3.29092 315.978 2.04948 310.642 2.06061L310.647 4.0606ZM321.544 7.42203C323.794 9.55617 325.025 12.9777 325.036 17.9106L327.036 17.9065C327.025 12.6794 325.72 8.62622 322.92 5.97088L321.544 7.42203ZM325.036 17.9106L325.061 30.1506L327.061 30.1464L327.036 17.9065L325.036 17.9106ZM325.061 30.1506C325.071 35.082 323.855 38.5339 321.608 40.7194L323.002 42.1533C325.784 39.4484 327.072 35.375 327.061 30.1464L325.061 30.1506ZM321.613 40.7137C319.358 42.8708 315.798 44.05 310.73 44.0605L310.734 46.0605C316.066 46.0494 320.221 44.8125 322.996 42.1591L321.613 40.7137ZM310.73 44.0605L295.49 44.0923L295.494 46.0923L310.734 46.0605L310.73 44.0605ZM296.492 45.0902L296.476 37.4702L294.476 37.4744L294.492 45.0944L296.492 45.0902ZM295.478 38.4723L299.438 38.4641L299.434 36.4641L295.474 36.4723L295.478 38.4723ZM300.436 37.462L300.38 10.642L298.38 10.6462L298.436 37.4661L300.436 37.462ZM299.378 9.64411L295.418 9.65237L295.422 11.6524L299.382 11.6441L299.378 9.64411ZM296.42 10.6503L296.405 3.09029L294.405 3.09446L294.42 10.6544L296.42 10.6503ZM310.718 38.5005C313.587 38.4946 315.877 37.8313 317.238 36.2118L315.707 34.9253C314.913 35.8702 313.366 36.495 310.714 36.5005L310.718 38.5005ZM317.236 36.2139C318.574 34.63 319.146 32.3073 319.14 29.443L317.14 29.4471C317.145 32.1028 316.605 33.8624 315.709 34.9231L317.236 36.2139ZM319.14 29.443L319.116 17.923L317.116 17.9271L317.14 29.4471L319.14 29.443ZM319.116 17.923C319.11 15.3823 318.514 13.2841 317.165 11.7967L315.684 13.1404C316.58 14.1284 317.111 15.6678 317.116 17.9271L319.116 17.923ZM317.177 11.8102C315.807 10.2445 313.518 9.61463 310.658 9.62059L310.662 11.6206C313.322 11.615 314.876 12.2172 315.671 13.1269L317.177 11.8102ZM310.658 9.62059L307.298 9.6276L307.302 11.6276L310.662 11.6206L310.658 9.62059ZM306.3 10.6297L306.356 37.5096L308.356 37.5055L308.3 10.6255L306.3 10.6297ZM307.358 38.5075L310.718 38.5005L310.714 36.5005L307.354 36.5075L307.358 38.5075ZM378.416 29.0794L378.413 28.0794L377.413 28.0815L377.416 29.0815L378.416 29.0794ZM378.449 44.9193L378.451 45.9193L379.451 45.9172L379.449 44.9172L378.449 44.9193ZM370.529 44.9358L369.529 44.9379L369.531 45.9379L370.531 45.9358L370.529 44.9358ZM370.441 2.93593L370.439 1.93594L369.439 1.93802L369.441 2.93802L370.441 2.93593ZM392.523 3.9699L392.115 4.88267L392.124 4.88696L392.134 4.89104L392.523 3.9699ZM396.489 6.72164L395.746 7.39073L395.758 7.40423L395.771 7.41727L396.489 6.72164ZM398.897 10.6166L397.954 10.9501L397.96 10.9656L397.966 10.981L398.897 10.6166ZM398.919 21.1166L397.98 20.7729L397.977 20.7799L397.975 20.7871L398.919 21.1166ZM396.527 25.1416L395.783 24.4742L395.781 24.4756L396.527 25.1416ZM392.573 27.9698L392.986 28.8809L392.573 27.9698ZM378.4 21.5194L377.4 21.5215L377.402 22.5215L378.402 22.5194L378.4 21.5194ZM390.277 20.0546L389.597 19.3212L389.59 19.3279L389.583 19.3347L390.277 20.0546ZM390.26 11.8946L389.569 12.6175L389.576 12.6242L389.583 12.6309L390.26 11.8946ZM378.377 10.4794L378.375 9.47941L377.375 9.4815L377.377 10.4815L378.377 10.4794ZM377.416 29.0815L377.449 44.9214L379.449 44.9172L379.416 29.0773L377.416 29.0815ZM378.446 43.9193L370.526 43.9358L370.531 45.9358L378.451 45.9193L378.446 43.9193ZM371.529 44.9338L371.441 2.93385L369.441 2.93802L369.529 44.9379L371.529 44.9338ZM370.443 3.93593L386.883 3.90166L386.879 1.90166L370.439 1.93594L370.443 3.93593ZM386.883 3.90166C388.933 3.89738 390.669 4.23554 392.115 4.88267L392.932 3.05712C391.175 2.27093 389.148 1.89693 386.879 1.90166L386.883 3.90166ZM392.134 4.89104C393.616 5.51731 394.812 6.35388 395.746 7.39073L397.232 6.05254C396.081 4.77373 394.633 3.77582 392.912 3.04875L392.134 4.89104ZM395.771 7.41727C396.752 8.43093 397.479 9.60545 397.954 10.9501L399.84 10.2832C399.269 8.66997 398.39 7.24783 397.207 6.026L395.771 7.41727ZM397.966 10.981C398.484 12.3063 398.743 13.663 398.746 15.057L400.746 15.0528C400.743 13.4067 400.436 11.8046 399.828 10.2522L397.966 10.981ZM398.746 15.057L398.749 16.4969L400.749 16.4928L400.746 15.0528L398.746 15.057ZM398.749 16.4969C398.752 17.9345 398.498 19.3582 397.98 20.7729L399.858 21.4604C400.454 19.8327 400.753 18.1752 400.749 16.4928L398.749 16.4969ZM397.975 20.7871C397.503 22.1398 396.775 23.3674 395.783 24.4742L397.272 25.809C398.435 24.5113 399.301 23.0556 399.863 21.4461L397.975 20.7871ZM395.781 24.4756C394.848 25.5213 393.648 26.3857 392.161 27.0588L392.986 28.8809C394.695 28.1073 396.132 27.0862 397.273 25.8076L395.781 24.4756ZM392.161 27.0588C390.718 27.7119 388.984 28.0573 386.933 28.0616L386.938 30.0616C389.207 30.0569 391.232 29.6744 392.986 28.8809L392.161 27.0588ZM386.933 28.0616L378.413 28.0794L378.418 30.0794L386.938 30.0616L386.933 28.0616ZM378.402 22.5194L386.142 22.5032L386.138 20.5032L378.398 20.5194L378.402 22.5194ZM386.142 22.5032C388.087 22.4992 389.74 21.9606 390.971 20.7746L389.583 19.3347C388.817 20.0728 387.712 20.5 386.138 20.5032L386.142 22.5032ZM390.957 20.788C392.216 19.6209 392.833 18.1053 392.829 16.3293L390.829 16.3335C390.832 17.5975 390.414 18.564 389.597 19.3212L390.957 20.788ZM392.829 16.3293L392.827 15.6093L390.827 15.6135L390.829 16.3335L392.829 16.3293ZM392.827 15.6093C392.824 13.8333 392.2 12.3202 390.936 11.1584L389.583 12.6309C390.403 13.3847 390.825 14.3494 390.827 15.6135L392.827 15.6093ZM390.951 11.1718C389.715 9.9909 388.06 9.45922 386.115 9.46327L386.119 11.4633C387.693 11.46 388.8 11.8825 389.569 12.6175L390.951 11.1718ZM386.115 9.46327L378.375 9.47941L378.379 11.4794L386.119 11.4633L386.115 9.46327ZM377.377 10.4815L377.4 21.5215L379.4 21.5173L379.377 10.4773L377.377 10.4815ZM409.827 6.51383L409.089 5.83829L409.085 5.84368L409.827 6.51383ZM432.567 6.46641L431.827 7.13967L431.832 7.145L432.567 6.46641ZM432.639 41.2663L431.911 40.5809L431.906 40.5863L432.639 41.2663ZM409.899 41.3138L409.169 41.9969L409.174 42.0022L409.899 41.3138ZM424.892 37.8025L425.311 38.7107L425.326 38.7036L425.341 38.696L424.892 37.8025ZM427.228 35.8176L428.043 36.3972L427.228 35.8176ZM428.482 32.815L429.461 33.0156L428.482 32.815ZM428.384 14.9352L429.356 14.6985L429.356 14.6985L428.384 14.9352ZM427.058 11.9379L427.871 11.355L427.871 11.355L427.058 11.9379ZM424.714 9.9628L424.24 10.8431L424.254 10.8509L424.269 10.8582L424.714 9.9628ZM417.754 9.97731L418.203 10.8708L418.218 10.8634L418.232 10.8556L417.754 9.97731ZM415.418 11.9622L414.603 11.3826L415.418 11.9622ZM414.104 14.9649L413.132 14.7323L413.132 14.7323L414.104 14.9649ZM414.082 32.845L413.103 33.0497L414.082 32.845ZM415.348 35.8424L416.161 35.2594L415.348 35.8424ZM417.692 37.8175L417.247 38.7129L417.262 38.7204L417.277 38.7274L417.692 37.8175ZM406.773 19.1802C406.762 13.902 408.072 9.94984 410.569 7.18397L409.085 5.84368C406.154 9.08915 404.762 13.5827 404.773 19.1844L406.773 19.1802ZM410.564 7.18935C413.094 4.42841 416.602 2.99969 421.22 2.99007L421.215 0.99007C416.153 1.00063 412.068 2.58775 409.089 5.83831L410.564 7.18935ZM421.22 2.99007C425.837 2.98044 429.328 4.39458 431.827 7.13965L433.306 5.79318C430.353 2.54961 426.278 0.979516 421.215 0.99007L421.22 2.99007ZM431.832 7.145C434.378 9.90056 435.722 13.8451 435.733 19.1198L437.733 19.1157C437.721 13.5104 436.288 9.02075 433.301 5.78783L431.832 7.145ZM435.733 19.1198L435.753 28.4798L437.753 28.4757L437.733 19.1157L435.733 19.1198ZM435.753 28.4798C435.764 33.9257 434.431 37.9038 431.911 40.5809L433.367 41.9517C436.355 38.7773 437.765 34.2297 437.753 28.4757L435.753 28.4798ZM431.906 40.5863C429.42 43.266 425.933 44.6603 421.306 44.67L421.311 46.67C426.364 46.6594 430.43 45.118 433.372 41.9464L431.906 40.5863ZM421.306 44.67C416.681 44.6796 413.163 43.3 410.625 40.6253L409.174 42.0022C412.168 45.156 416.256 46.6805 421.311 46.67L421.306 44.67ZM410.63 40.6306C408.136 37.9642 406.804 33.9896 406.793 28.5402L404.793 28.5444C404.805 34.295 406.211 38.8346 409.169 41.9969L410.63 40.6306ZM406.793 28.5402L406.773 19.1802L404.773 19.1844L404.793 28.5444L406.793 28.5402ZM421.296 39.47C422.83 39.4668 424.183 39.2306 425.311 38.7107L424.474 36.8943C423.683 37.2584 422.637 37.4672 421.291 37.47L421.296 39.47ZM425.341 38.696C426.44 38.1437 427.346 37.3767 428.043 36.3972L426.413 35.2381C425.913 35.941 425.262 36.4972 424.443 36.909L425.341 38.696ZM428.043 36.3972C428.733 35.4269 429.2 34.2924 429.461 33.0156L427.502 32.6144C427.288 33.6585 426.92 34.5259 426.413 35.2381L428.043 36.3972ZM429.461 33.0156C429.715 31.7776 429.837 30.4283 429.834 28.9722L427.834 28.9763C427.837 30.3202 427.724 31.5314 427.502 32.6144L429.461 33.0156ZM429.834 28.9722L429.812 18.6522L427.812 18.6564L427.834 28.9763L429.834 28.9722ZM429.812 18.6522C429.809 17.2614 429.659 15.9423 429.356 14.6985L427.413 15.1718C427.675 16.2468 427.81 17.4071 427.812 18.6564L429.812 18.6522ZM429.356 14.6985C429.048 13.4337 428.558 12.3128 427.871 11.355L426.246 12.5208C426.762 13.2405 427.156 14.1178 427.413 15.1718L429.356 14.6985ZM427.871 11.355C427.17 10.3784 426.26 9.61509 425.159 9.06744L424.269 10.8582C425.09 11.2665 425.743 11.82 426.246 12.5208L427.871 11.355ZM425.189 9.08251C424.049 8.4685 422.716 8.18696 421.23 8.19005L421.235 10.1901C422.468 10.1875 423.457 10.4211 424.24 10.8431L425.189 9.08251ZM421.23 8.19005C419.744 8.19315 418.413 8.48026 417.276 9.09901L418.232 10.8556C419.013 10.4304 420.001 10.1926 421.235 10.1901L421.23 8.19005ZM417.305 9.08381C416.206 9.63605 415.3 10.4031 414.603 11.3826L416.233 12.5417C416.733 11.8388 417.384 11.2826 418.203 10.8708L417.305 9.08381ZM414.603 11.3826C413.92 12.3433 413.435 13.4663 413.132 14.7323L415.077 15.1975C415.329 14.1424 415.72 13.2635 416.233 12.5417L414.603 11.3826ZM413.132 14.7323C412.834 15.9774 412.689 17.2971 412.692 18.6879L414.692 18.6837C414.69 17.4345 414.82 16.2736 415.077 15.1975L413.132 14.7323ZM412.692 18.6879L412.714 29.0079L414.714 29.0037L414.692 18.6837L412.692 18.6879ZM412.714 29.0079C412.717 30.464 412.844 31.8128 413.103 33.0497L415.061 32.6404C414.834 31.5582 414.717 30.3475 414.714 29.0037L412.714 29.0079ZM413.103 33.0497C413.37 34.3254 413.841 35.4579 414.535 36.4253L416.161 35.2594C415.651 34.5494 415.279 33.6836 415.061 32.6404L413.103 33.0497ZM414.535 36.4253C415.236 37.4019 416.146 38.1652 417.247 38.7129L418.137 36.9221C417.316 36.5138 416.663 35.9603 416.161 35.2594L414.535 36.4253ZM417.277 38.7274C418.408 39.2426 419.761 39.4732 421.296 39.47L421.291 37.47C419.946 37.4728 418.898 37.2684 418.107 36.9076L417.277 38.7274ZM442.837 2.78499L442.835 1.785L441.835 1.78708L441.837 2.78708L442.837 2.78499ZM473.077 2.72195L474.077 2.71986L474.075 1.71986L473.075 1.72195L473.077 2.72195ZM473.093 10.2819L473.095 11.2819L474.095 11.2798L474.093 10.2798L473.093 10.2819ZM461.933 10.3052L461.931 9.3052L460.931 9.30729L460.933 10.3073L461.933 10.3052ZM462.005 44.7451L462.007 45.7451L463.007 45.743L463.005 44.743L462.005 44.7451ZM454.085 44.7616L453.085 44.7637L453.087 45.7637L454.087 45.7616L454.085 44.7616ZM454.013 10.3217L455.013 10.3196L455.011 9.31963L454.011 9.32172L454.013 10.3217ZM442.853 10.345L441.853 10.3471L441.855 11.3471L442.855 11.345L442.853 10.345ZM442.839 3.78499L473.079 3.72194L473.075 1.72195L442.835 1.785L442.839 3.78499ZM472.077 2.72403L472.093 10.284L474.093 10.2798L474.077 2.71986L472.077 2.72403ZM473.091 9.28194L461.931 9.3052L461.935 11.3052L473.095 11.2819L473.091 9.28194ZM460.933 10.3073L461.005 44.7472L463.005 44.743L462.933 10.3031L460.933 10.3073ZM462.003 43.7451L454.083 43.7616L454.087 45.7616L462.007 45.7451L462.003 43.7451ZM455.085 44.7596L455.013 10.3196L453.013 10.3238L453.085 44.7637L455.085 44.7596ZM454.011 9.32172L442.851 9.34498L442.855 11.345L454.015 11.3217L454.011 9.32172ZM443.853 10.3429L443.837 2.78291L441.837 2.78708L441.853 10.3471L443.853 10.3429ZM481.256 2.7049L481.254 1.7049L480.254 1.70698L480.256 2.70698L481.256 2.7049ZM507.776 2.6496L508.776 2.64752L508.773 1.64752L507.773 1.64961L507.776 2.6496ZM507.791 10.2096L507.793 11.2096L508.793 11.2075L508.791 10.2075L507.791 10.2096ZM489.191 10.2484L489.189 9.24837L488.189 9.25046L488.191 10.2505L489.191 10.2484ZM489.211 19.8483L488.211 19.8504L488.213 20.8504L489.213 20.8483L489.211 19.8483ZM507.091 19.8111L508.091 19.809L508.089 18.809L507.089 18.8111L507.091 19.8111ZM507.107 27.3711L507.109 28.3711L508.109 28.369L508.107 27.369L507.107 27.3711ZM489.227 27.4083L489.225 26.4083L488.225 26.4104L488.227 27.4104L489.227 27.4083ZM489.247 37.1283L488.247 37.1304L488.249 38.1304L489.249 38.1283L489.247 37.1283ZM508.567 37.088L509.567 37.0859L509.565 36.0859L508.565 36.088L508.567 37.088ZM508.583 44.648L508.585 45.648L509.585 45.6459L509.583 44.6459L508.583 44.648ZM481.343 44.7048L480.343 44.7069L480.345 45.7069L481.345 45.7048L481.343 44.7048ZM481.258 3.70489L507.778 3.6496L507.773 1.64961L481.254 1.7049L481.258 3.70489ZM506.776 2.65169L506.791 10.2117L508.791 10.2075L508.776 2.64752L506.776 2.65169ZM507.789 9.20959L489.189 9.24837L489.193 11.2484L507.793 11.2096L507.789 9.20959ZM488.191 10.2505L488.211 19.8504L490.211 19.8463L490.191 10.2463L488.191 10.2505ZM489.213 20.8483L507.093 20.8111L507.089 18.8111L489.209 18.8483L489.213 20.8483ZM506.091 19.8132L506.107 27.3731L508.107 27.369L508.091 19.809L506.091 19.8132ZM507.105 26.3711L489.225 26.4083L489.229 28.4083L507.109 28.3711L507.105 26.3711ZM488.227 27.4104L488.247 37.1304L490.247 37.1262L490.227 27.4062L488.227 27.4104ZM489.249 38.1283L508.569 38.088L508.565 36.088L489.245 36.1283L489.249 38.1283ZM507.567 37.0901L507.583 44.6501L509.583 44.6459L509.567 37.0859L507.567 37.0901ZM508.581 43.648L481.341 43.7048L481.345 45.7048L508.585 45.648L508.581 43.648ZM482.343 44.7027L482.256 2.70281L480.256 2.70698L480.343 44.7069L482.343 44.7027ZM537.213 40.6283L536.222 40.7587L536.336 41.6301L537.215 41.6283L537.213 40.6283ZM538.293 40.6261L538.295 41.6261L539.295 41.624L539.293 40.624L538.293 40.6261ZM538.214 2.58614L538.212 1.58615L537.212 1.58823L537.214 2.58823L538.214 2.58614ZM546.134 2.56963L547.134 2.56755L547.132 1.56755L546.132 1.56963L546.134 2.56963ZM546.221 44.5695L546.223 45.5695L547.223 45.5675L547.221 44.5675L546.221 44.5695ZM530.741 44.6018L529.75 44.7322L529.864 45.6036L530.743 45.6018L530.741 44.6018ZM525.742 6.57216L526.734 6.44182L526.619 5.57033L525.74 5.57216L525.742 6.57216ZM524.662 6.57441L524.66 5.57441L523.66 5.57649L523.662 6.57649L524.662 6.57441ZM524.741 44.6143L524.743 45.6143L525.743 45.6122L525.741 44.6122L524.741 44.6143ZM516.821 44.6308L515.821 44.6329L515.823 45.6329L516.823 45.6308L516.821 44.6308ZM516.734 2.63093L516.732 1.63093L515.732 1.63301L515.734 2.63301L516.734 2.63093ZM532.214 2.59865L533.205 2.46832L533.091 1.59682L532.212 1.59865L532.214 2.59865ZM537.215 41.6283L538.295 41.6261L538.291 39.6261L537.211 39.6283L537.215 41.6283ZM539.293 40.624L539.214 2.58406L537.214 2.58823L537.293 40.6282L539.293 40.624ZM538.216 3.58614L546.136 3.56963L546.132 1.56963L538.212 1.58615L538.216 3.58614ZM545.134 2.57172L545.221 44.5716L547.221 44.5675L547.134 2.56755L545.134 2.57172ZM546.219 43.5695L530.739 43.6018L530.743 45.6018L546.223 45.5695L546.219 43.5695ZM531.733 44.4715L526.734 6.44182L524.751 6.70249L529.75 44.7322L531.733 44.4715ZM525.74 5.57216L524.66 5.57441L524.664 7.57441L525.744 7.57215L525.74 5.57216ZM523.662 6.57649L523.741 44.6164L525.741 44.6122L525.662 6.57232L523.662 6.57649ZM524.739 43.6143L516.819 43.6308L516.823 45.6308L524.743 45.6143L524.739 43.6143ZM517.821 44.6288L517.734 2.62884L515.734 2.63301L515.821 44.6329L517.821 44.6288ZM516.736 3.63092L532.216 3.59865L532.212 1.59865L516.732 1.63093L516.736 3.63092ZM531.222 2.72899L536.222 40.7587L538.205 40.498L533.205 2.46832L531.222 2.72899ZM553.052 2.55521L553.05 1.55521L552.05 1.55729L552.052 2.55729L553.052 2.55521ZM583.292 2.49216L584.292 2.49007L584.29 1.49008L583.29 1.49216L583.292 2.49216ZM583.308 10.0521L583.31 11.0521L584.31 11.0501L584.308 10.0501L583.308 10.0521ZM572.148 10.0754L572.146 9.07541L571.146 9.0775L571.148 10.0775L572.148 10.0754ZM572.22 44.5153L572.222 45.5153L573.222 45.5133L573.22 44.5133L572.22 44.5153ZM564.3 44.5319L563.3 44.5339L563.302 45.5339L564.302 45.5318L564.3 44.5319ZM564.228 10.0919L565.228 10.0898L565.226 9.08984L564.226 9.09193L564.228 10.0919ZM553.068 10.1152L552.068 10.1173L552.07 11.1173L553.07 11.1152L553.068 10.1152ZM553.054 3.5552L583.294 3.49216L583.29 1.49216L553.05 1.55521L553.054 3.5552ZM582.292 2.49424L582.308 10.0542L584.308 10.0501L584.292 2.49007L582.292 2.49424ZM583.306 9.05215L572.146 9.07541L572.15 11.0754L583.31 11.0521L583.306 9.05215ZM571.148 10.0775L571.22 44.5174L573.22 44.5133L573.148 10.0733L571.148 10.0775ZM572.217 43.5153L564.297 43.5319L564.302 45.5318L572.222 45.5153L572.217 43.5153ZM565.3 44.5298L565.228 10.0898L563.228 10.094L563.3 44.5339L565.3 44.5298ZM564.226 9.09193L553.066 9.1152L553.07 11.1152L564.23 11.0919L564.226 9.09193ZM554.068 10.1131L554.052 2.55312L552.052 2.55729L552.068 10.1173L554.068 10.1131ZM590.87 2.47636L590.868 1.47636L589.868 1.47845L589.87 2.47844L590.87 2.47636ZM618.95 2.41781L619.95 2.41573L619.948 1.41573L618.948 1.41782L618.95 2.41781ZM618.966 9.9778L618.968 10.9778L619.968 10.9757L619.966 9.97572L618.966 9.9778ZM608.886 9.99882L608.884 8.99882L607.884 9.0009L607.886 10.0009L608.886 9.99882ZM608.942 36.8788L607.942 36.8808L607.944 37.8808L608.944 37.8788L608.942 36.8788ZM619.022 36.8577L620.022 36.8557L620.02 35.8557L619.02 35.8577L619.022 36.8577ZM619.038 44.4177L619.04 45.4177L620.04 45.4156L620.038 44.4156L619.038 44.4177ZM590.958 44.4763L589.958 44.4784L589.96 45.4784L590.96 45.4763L590.958 44.4763ZM590.942 36.9163L590.94 35.9163L589.94 35.9184L589.942 36.9184L590.942 36.9163ZM601.022 36.8953L601.024 37.8953L602.024 37.8932L602.022 36.8932L601.022 36.8953ZM600.966 10.0153L601.966 10.0132L601.964 9.01325L600.964 9.01533L600.966 10.0153ZM590.886 10.0363L589.886 10.0384L589.888 11.0384L590.888 11.0363L590.886 10.0363ZM590.872 3.47636L618.952 3.41781L618.948 1.41782L590.868 1.47636L590.872 3.47636ZM617.95 2.4199L617.966 9.97989L619.966 9.97572L619.95 2.41573L617.95 2.4199ZM618.964 8.9778L608.884 8.99882L608.888 10.9988L618.968 10.9778L618.964 8.9778ZM607.886 10.0009L607.942 36.8808L609.942 36.8767L609.886 9.99673L607.886 10.0009ZM608.944 37.8788L619.024 37.8577L619.02 35.8577L608.94 35.8788L608.944 37.8788ZM618.022 36.8598L618.038 44.4198L620.038 44.4156L620.022 36.8557L618.022 36.8598ZM619.036 43.4177L590.956 43.4763L590.96 45.4763L619.04 45.4177L619.036 43.4177ZM591.958 44.4742L591.942 36.9142L589.942 36.9184L589.958 44.4784L591.958 44.4742ZM590.944 37.9163L601.024 37.8953L601.02 35.8953L590.94 35.9163L590.944 37.9163ZM602.022 36.8932L601.966 10.0132L599.966 10.0174L600.022 36.8974L602.022 36.8932ZM600.964 9.01533L590.884 9.03635L590.888 11.0363L600.968 11.0153L600.964 9.01533ZM591.886 10.0343L591.87 2.47427L589.87 2.47844L589.886 10.0384L591.886 10.0343ZM648.857 35.3555L649.832 35.1324L649.654 34.3539L648.855 34.3555L648.857 35.3555ZM634.577 35.3853L634.575 34.3853L633.776 34.387L633.601 35.1663L634.577 35.3853ZM632.556 44.3895L632.558 45.3895L633.357 45.3879L633.532 44.6086L632.556 44.3895ZM624.276 44.4068L623.303 44.1768L623.011 45.4094L624.278 45.4068L624.276 44.4068ZM634.208 2.386L634.206 1.38601L633.417 1.38765L633.235 2.15597L634.208 2.386ZM649.088 2.35498L650.061 2.12089L649.876 1.35334L649.086 1.35498L649.088 2.35498ZM659.196 44.334L659.198 45.334L660.465 45.3314L660.168 44.0999L659.196 44.334ZM650.916 44.3513L649.941 44.5744L650.119 45.3529L650.918 45.3513L650.916 44.3513ZM636.241 27.8218L635.266 27.6006L634.989 28.8244L636.244 28.8218L636.241 27.8218ZM647.101 27.7992L647.104 28.7992L648.355 28.7966L648.076 27.5765L647.101 27.7992ZM642.197 6.32936L643.172 6.10665L642.994 5.3277L642.195 5.32936L642.197 6.32936ZM641.117 6.33161L641.115 5.33161L640.318 5.33327L640.141 6.11037L641.117 6.33161ZM648.855 34.3555L634.575 34.3853L634.579 36.3853L648.859 36.3555L648.855 34.3555ZM633.601 35.1663L631.58 44.1705L633.532 44.6086L635.553 35.6043L633.601 35.1663ZM632.554 43.3895L624.274 43.4068L624.278 45.4068L632.558 45.3895L632.554 43.3895ZM625.249 44.6368L635.182 2.61603L633.235 2.15597L623.303 44.1768L625.249 44.6368ZM634.21 3.386L649.09 3.35498L649.086 1.35498L634.206 1.38601L634.21 3.386ZM648.116 2.58907L658.224 44.5681L660.168 44.0999L650.061 2.12089L648.116 2.58907ZM659.194 43.334L650.914 43.3513L650.918 45.3513L659.198 45.334L659.194 43.334ZM651.891 44.1282L649.832 35.1324L647.882 35.5786L649.941 44.5744L651.891 44.1282ZM636.244 28.8218L647.104 28.7992L647.099 26.7992L636.239 26.8218L636.244 28.8218ZM648.076 27.5765L643.172 6.10665L641.222 6.55207L646.127 28.0219L648.076 27.5765ZM642.195 5.32936L641.115 5.33161L641.119 7.33161L642.199 7.32936L642.195 5.32936ZM640.141 6.11037L635.266 27.6006L637.217 28.0431L642.092 6.55285L640.141 6.11037ZM664.947 2.32192L664.945 1.32192L663.945 1.324L663.947 2.324L664.947 2.32192ZM672.867 2.3054L673.867 2.30332L673.865 1.30332L672.865 1.30541L672.867 2.3054ZM672.938 36.7453L671.938 36.7474L671.941 37.7474L672.941 37.7453L672.938 36.7453ZM692.018 36.7056L693.018 36.7035L693.016 35.7035L692.016 35.7056L692.018 36.7056ZM692.034 44.2655L692.036 45.2655L693.036 45.2634L693.034 44.2635L692.034 44.2655ZM665.034 44.3218L664.034 44.3239L664.036 45.3239L665.036 45.3218L665.034 44.3218ZM664.949 3.32191L672.869 3.3054L672.865 1.30541L664.945 1.32192L664.949 3.32191ZM671.867 2.30749L671.938 36.7474L673.938 36.7432L673.867 2.30332L671.867 2.30749ZM672.941 37.7453L692.02 37.7055L692.016 35.7056L672.936 35.7453L672.941 37.7453ZM691.018 36.7076L691.034 44.2676L693.034 44.2635L693.018 36.7035L691.018 36.7076ZM692.032 43.2655L665.032 43.3218L665.036 45.3218L692.036 45.2655L692.032 43.2655ZM666.034 44.3197L665.947 2.31983L663.947 2.324L664.034 44.3239L666.034 44.3197Z" fill="#FF39A6"/>
</svg>
