<svg width="335" height="161" viewBox="0 0 335 161" fill="none" xmlns="http://www.w3.org/2000/svg">
<path d="M55.9944 139.16L56.591 139.963L56.5981 139.958L56.6051 139.952L55.9944 139.16ZM60.2958 133.809L59.3752 133.418L59.3711 133.428L60.2958 133.809ZM61.5878 127.094L62.5878 127.082L62.5876 127.074L61.5878 127.094ZM60.2059 117.225L59.998 116.247L59.0198 116.455L59.2277 117.433L60.2059 117.225ZM78.2821 113.383L79.2602 113.175L79.0523 112.197L78.0742 112.405L78.2821 113.383ZM75.3857 144.199L74.539 143.667L74.5389 143.667L75.3857 144.199ZM23.1736 154.438L23.7357 153.611L23.1736 154.438ZM1.81904 88.9876L2.8121 89.1053L2.81274 89.0997L1.81904 88.9876ZM6.32027 75.1493L7.17423 75.6698L7.18119 75.6581L6.32027 75.1493ZM15.9194 65.0938L16.4727 65.9268L16.4801 65.9218L16.4875 65.9168L15.9194 65.0938ZM58.1831 63.2668L57.6133 64.0886L57.6196 64.0929L57.626 64.0972L58.1831 63.2668ZM67.28 73.0696L66.4178 73.5762L66.4225 73.5842L66.4274 73.5922L67.28 73.0696ZM73.2756 89.8293L73.4835 90.8075L74.4616 90.5996L74.2537 89.6214L73.2756 89.8293ZM55.1994 93.6715L54.2212 93.8795L54.4291 94.8576L55.4073 94.6497L55.1994 93.6715ZM52.3984 84.5342L53.301 84.1038L52.3984 84.5342ZM42.2146 75.678L41.9315 76.6371L41.9472 76.6418L41.9631 76.6459L42.2146 75.678ZM26.1925 79.0836L26.8159 79.8655L26.8287 79.8553L26.8412 79.8447L26.1925 79.0836ZM21.7045 84.9039L22.6086 85.3313L22.6134 85.3213L22.6179 85.3111L21.7045 84.9039ZM19.8733 92.4495L18.8751 92.3898L18.8744 92.4019L18.874 92.414L19.8733 92.4495ZM28.5474 133.258L27.6453 133.689L27.6489 133.697L28.5474 133.258ZM39.2876 142.711L39.0362 143.679L39.0599 143.685L39.084 143.69L39.2876 142.711ZM48.0322 143.449C51.5848 142.694 54.4588 141.548 56.591 139.963L55.3978 138.358C53.5748 139.713 51.002 140.774 47.6163 141.493L48.0322 143.449ZM56.6051 139.952C58.7651 138.286 60.3231 136.369 61.2205 134.19L59.3711 133.428C58.6322 135.223 57.3227 136.873 55.3837 138.368L56.6051 139.952ZM61.2164 134.2C62.1628 131.969 62.618 129.593 62.5878 127.082L60.5879 127.106C60.615 129.353 60.2088 131.454 59.3752 133.418L61.2164 134.2ZM62.5876 127.074C62.5383 124.539 62.2448 122.008 61.708 119.482L59.7517 119.898C60.2627 122.302 60.5412 124.707 60.588 127.113L62.5876 127.074ZM61.708 119.482L61.184 117.017L59.2277 117.433L59.7517 119.898L61.708 119.482ZM60.4138 118.203L78.49 114.361L78.0742 112.405L59.998 116.247L60.4138 118.203ZM77.3039 113.591L77.8279 116.056L79.7842 115.64L79.2602 113.175L77.3039 113.591ZM77.8279 116.056C80.2172 127.297 79.0668 136.461 74.539 143.667L76.2324 144.731C81.1163 136.959 82.246 127.222 79.7842 115.64L77.8279 116.056ZM74.5389 143.667C70.0925 150.746 62.3494 155.537 51.1093 157.926L51.5251 159.882C63.1084 157.42 71.411 152.407 76.2325 144.731L74.5389 143.667ZM51.1093 157.926C40.3668 160.209 31.2757 158.735 23.7357 153.611L22.6115 155.265C30.6857 160.753 40.357 162.256 51.5251 159.882L51.1093 157.926ZM23.7357 153.611C16.2126 148.498 11.0499 139.726 8.36596 127.099L6.40967 127.515C9.15914 140.45 14.5203 149.766 22.6115 155.265L23.7357 153.611ZM8.36596 127.099L3.82517 105.736L1.86888 106.152L6.40967 127.515L8.36596 127.099ZM3.82517 105.736C2.54342 99.7063 2.21239 94.1655 2.81209 89.1053L0.82599 88.8699C0.19605 94.1854 0.550341 99.9491 1.86888 106.152L3.82517 105.736ZM2.81274 89.0997C3.39426 83.9436 4.85507 79.4745 7.17415 75.6698L5.46639 74.6289C2.97465 78.7168 1.43463 83.4732 0.825334 88.8755L2.81274 89.0997ZM7.18119 75.6581C9.48828 71.7539 12.5814 68.5117 16.4727 65.9268L15.366 64.2609C11.2305 67.008 7.92425 70.4694 5.45935 74.6406L7.18119 75.6581ZM16.4875 65.9168C20.3574 63.2451 24.9666 61.3306 30.3347 60.1895L29.9189 58.2332C24.3318 59.4208 19.4693 61.4279 15.3512 64.2709L16.4875 65.9168ZM30.3347 60.1895C35.9015 59.0063 40.9746 58.7726 45.5655 59.4633L45.863 57.4856C40.9911 56.7526 35.6725 57.0103 29.9189 58.2332L30.3347 60.1895ZM45.5655 59.4633C50.1606 60.1547 54.1697 61.701 57.6133 64.0886L58.7529 62.445C55.034 59.8665 50.7306 58.2179 45.863 57.4856L45.5655 59.4633ZM57.626 64.0972C61.1653 66.4716 64.0965 69.6251 66.4178 73.5762L68.1422 72.5631C65.6792 68.3709 62.5457 64.9892 58.7402 62.4363L57.626 64.0972ZM66.4274 73.5922C68.8418 77.5319 70.6287 82.1866 71.7735 87.5723L73.7298 87.1565C72.5459 81.587 70.685 76.7119 68.1326 72.5471L66.4274 73.5922ZM71.7735 87.5723L72.2974 90.0372L74.2537 89.6214L73.7298 87.1565L71.7735 87.5723ZM73.0676 88.8512L54.9915 92.6934L55.4073 94.6497L73.4835 90.8075L73.0676 88.8512ZM56.1775 93.4636L55.6536 90.9987L53.6973 91.4145L54.2212 93.8795L56.1775 93.4636ZM55.6536 90.9987C55.1517 88.6373 54.3668 86.3386 53.301 84.1038L51.4958 84.9647C52.4958 87.0616 53.229 89.2112 53.6973 91.4145L55.6536 90.9987ZM53.301 84.1038C52.2171 81.8307 50.7946 79.867 49.0319 78.2228L47.6677 79.6853C49.2373 81.1495 50.514 82.9059 51.4958 84.9647L53.301 84.1038ZM49.0319 78.2228C47.2323 76.5442 45.0346 75.3776 42.4661 74.7102L41.9631 76.6459C44.2423 77.2381 46.1348 78.2555 47.6677 79.6853L49.0319 78.2228ZM42.4976 74.7189C39.852 73.9381 36.811 73.9436 33.4118 74.6661L33.8276 76.6224C37.0016 75.9478 39.6905 75.9757 41.9315 76.6371L42.4976 74.7189ZM33.4118 74.6661C30.2702 75.3339 27.6331 76.5418 25.5438 78.3226L26.8412 79.8447C28.6295 78.3204 30.9439 77.2354 33.8276 76.6224L33.4118 74.6661ZM25.5691 78.3017C23.4839 79.9643 21.8893 82.0336 20.7912 84.4967L22.6179 85.3111C23.5874 83.1364 24.9848 81.3255 26.8159 79.8655L25.5691 78.3017ZM20.8005 84.4765C19.6856 86.8345 19.0493 89.4773 18.8751 92.3898L20.8716 92.5092C21.0326 89.8163 21.6171 87.4286 22.6086 85.3313L20.8005 84.4765ZM18.874 92.414C18.7752 95.1936 19.0367 98.0365 19.654 100.941L21.6103 100.525C21.0245 97.7689 20.7801 95.0896 20.8727 92.4851L18.874 92.414ZM19.654 100.941L24.7769 125.042L26.7332 124.626L21.6103 100.525L19.654 100.941ZM24.7769 125.042C25.4509 128.213 26.4051 131.097 27.6454 133.689L29.4495 132.826C28.2861 130.395 27.3788 127.664 26.7332 124.626L24.7769 125.042ZM27.6489 133.697C28.8799 136.217 30.4315 138.345 32.3113 140.065L33.6615 138.59C31.9875 137.058 30.5798 135.14 29.4459 132.819L27.6489 133.697ZM32.3113 140.065C34.2134 141.806 36.4609 143.01 39.0362 143.679L39.5391 141.744C37.2666 141.153 35.3132 140.101 33.6615 138.59L32.3113 140.065ZM39.084 143.69C41.748 144.245 44.7379 144.15 48.0322 143.449L47.6163 141.493C44.52 142.151 41.8188 142.216 39.4913 141.732L39.084 143.69ZM89.8667 57.2479L89.006 56.7386L89.0024 56.7449L89.8667 57.2479ZM141.767 46.2161L141.182 47.0271L141.188 47.0313L141.767 46.2161ZM158.65 125.642L157.796 125.121L157.792 125.127L158.65 125.642ZM106.749 136.673L106.175 137.492L106.181 137.496L106.749 136.673ZM139.296 121.454L139.893 122.257L139.906 122.246L139.919 122.236L139.296 121.454ZM143.676 115.8L144.593 116.199L143.676 115.8ZM145.097 108.341L146.097 108.336L145.097 108.341ZM136.286 67.5622L137.188 67.1306L136.286 67.5622ZM131.817 61.3556L132.493 60.6178L131.817 61.3556ZM125.516 57.9717L125.233 58.9308L125.249 58.9355L125.265 58.9396L125.516 57.9717ZM109.631 61.3482L110.255 62.1301L110.267 62.1199L110.28 62.1093L109.631 61.3482ZM105.251 67.0024L104.334 66.6031L105.251 67.0024ZM103.694 74.4898L102.694 74.4624L103.694 74.4898ZM112.231 115.327L111.315 115.729L112.231 115.327ZM116.562 121.563L117.237 120.825L116.562 121.563ZM122.863 124.947L122.612 125.915L122.628 125.919L122.645 125.923L122.863 124.947ZM87.6746 87.9137C85.0691 75.656 86.1409 65.6382 90.731 57.7508L89.0024 56.7449C84.0873 65.1907 83.0456 75.7554 85.7183 88.3296L87.6746 87.9137ZM90.7273 57.7571C95.4021 49.8569 103.082 44.7267 113.91 42.425L113.494 40.4687C102.23 42.863 94.019 48.2669 89.0061 56.7386L90.7273 57.7571ZM113.91 42.425C124.739 40.1232 133.792 41.6968 141.182 47.0271L142.352 45.405C134.415 39.6803 124.758 38.0745 113.494 40.4687L113.91 42.425ZM141.188 47.0313C148.678 52.3512 153.775 61.0557 156.38 73.31L158.336 72.8942C155.663 60.3166 150.366 51.097 142.346 45.4008L141.188 47.0313ZM156.38 73.31L160.92 94.6728L162.877 94.2569L158.336 72.8942L156.38 73.31ZM160.92 94.6728C163.605 107.303 162.501 117.409 157.796 125.121L159.503 126.162C164.564 117.868 165.626 107.189 162.877 94.2569L160.92 94.6728ZM157.792 125.127C153.173 132.823 145.522 137.858 134.685 140.162L135.101 142.118C146.356 139.725 154.543 134.428 159.507 126.156L157.792 125.127ZM134.685 140.162C123.848 142.465 114.761 140.988 107.317 135.85L106.181 137.496C114.169 143.01 123.844 144.51 135.101 142.118L134.685 140.162ZM107.323 135.855C99.9766 130.705 94.9008 121.91 92.2154 109.276L90.2591 109.692C93.0071 122.621 98.2726 131.953 106.175 137.492L107.323 135.855ZM92.2154 109.276L87.6746 87.9137L85.7183 88.3296L90.2591 109.692L92.2154 109.276ZM131.608 125.685C134.987 124.967 137.766 123.838 139.893 122.257L138.699 120.651C136.871 122.01 134.386 123.05 131.192 123.729L131.608 125.685ZM139.919 122.236C142 120.577 143.563 118.563 144.593 116.199L142.759 115.4C141.865 117.453 140.509 119.208 138.673 120.672L139.919 122.236ZM144.593 116.199C145.618 113.846 146.112 111.219 146.097 108.336L144.097 108.347C144.111 110.992 143.658 113.337 142.759 115.4L144.593 116.199ZM146.097 108.336C146.081 105.493 145.724 102.445 145.033 99.1947L143.077 99.6105C143.745 102.751 144.082 105.662 144.097 108.347L146.097 108.336ZM145.033 99.1947L140.027 75.6409L138.071 76.0567L143.077 99.6105L145.033 99.1947ZM140.027 75.6409C139.372 72.559 138.427 69.7207 137.188 67.1306L135.383 67.9938C136.548 70.4272 137.445 73.1133 138.071 76.0567L140.027 75.6409ZM137.188 67.1306C135.939 64.5211 134.378 62.3429 132.493 60.6178L131.142 62.0933C132.811 63.6204 134.228 65.58 135.383 67.9938L137.188 67.1306ZM132.493 60.6178C130.59 58.8772 128.343 57.673 125.768 57.0039L125.265 58.9396C127.537 59.5301 129.491 60.5818 131.142 62.0933L132.493 60.6178ZM125.799 57.0126C123.162 56.2342 120.215 56.2156 116.987 56.9016L117.403 58.8579C120.384 58.2243 122.984 58.267 125.233 58.9308L125.799 57.0126ZM116.987 56.9016C113.76 57.5876 111.075 58.8033 108.982 60.5872L110.28 62.1093C112.065 60.588 114.423 59.4914 117.403 58.8579L116.987 56.9016ZM109.008 60.5663C106.927 62.225 105.364 64.2393 104.334 66.6031L106.168 67.4018C107.062 65.3491 108.419 63.5939 110.255 62.1301L109.008 60.5663ZM104.334 66.6031C103.314 68.9457 102.773 71.5707 102.694 74.4624L104.693 74.5173C104.767 71.8423 105.264 69.4757 106.168 67.4018L104.334 66.6031ZM102.694 74.4624C102.615 77.3327 102.907 80.3099 103.562 83.3918L105.518 82.976C104.892 80.0326 104.619 77.2138 104.693 74.5173L102.694 74.4624ZM103.562 83.3918L108.568 106.946L110.524 106.53L105.518 82.976L103.562 83.3918ZM108.568 106.946C109.259 110.196 110.173 113.126 111.315 115.729L113.147 114.926C112.068 112.467 111.192 109.67 110.524 106.53L108.568 106.946ZM111.315 115.729C112.473 118.369 113.993 120.568 115.887 122.301L117.237 120.825C115.577 119.306 114.209 117.348 113.147 114.926L111.315 115.729ZM115.887 122.301C117.789 124.041 120.036 125.246 122.612 125.915L123.115 123.979C120.842 123.389 118.889 122.337 117.237 120.825L115.887 122.301ZM122.645 125.923C125.231 126.502 128.229 126.403 131.608 125.685L131.192 123.729C127.998 124.408 125.305 124.469 123.082 123.971L122.645 125.923ZM162.355 33.1093L162.147 32.1311L161.169 32.339L161.377 33.3172L162.355 33.1093ZM225.343 28.4515L224.812 29.2989L224.819 29.3032L225.343 28.4515ZM242.196 107.74L243.021 108.305L243.026 108.298L242.196 107.74ZM182.73 128.968L181.752 129.176L181.96 130.154L182.938 129.946L182.73 128.968ZM179.033 111.576L178.825 110.598L177.847 110.806L178.055 111.784L179.033 111.576ZM188.071 109.655L188.279 110.633L189.258 110.425L189.05 109.447L188.071 109.655ZM175.06 48.4427L176.038 48.2348L175.831 47.2566L174.852 47.4645L175.06 48.4427ZM166.022 50.3638L165.044 50.5717L165.252 51.5499L166.23 51.3419L166.022 50.3638ZM226.06 97.1434L225.18 96.6691L225.179 96.6716L226.06 97.1434ZM214.854 44.4213L214.253 45.2205L214.26 45.2259L214.267 45.2312L214.854 44.4213ZM193.137 44.6005L192.929 43.6223L191.95 43.8302L192.158 44.8084L193.137 44.6005ZM206.177 105.95L205.199 106.158L205.406 107.136L206.385 106.928L206.177 105.95ZM162.563 34.0874L197.346 26.6941L196.93 24.7378L162.147 32.1311L162.563 34.0874ZM197.346 26.6941C209.081 24.1997 218.183 25.1444 224.812 29.2989L225.874 27.6042C218.632 23.0658 208.931 22.1869 196.93 24.7378L197.346 26.6941ZM224.819 29.3032C231.412 33.3599 236.001 40.9831 238.435 52.4336L240.391 52.0177C237.896 40.2796 233.105 32.0534 225.867 27.5998L224.819 29.3032ZM238.435 52.4336L244.373 80.3695L246.329 79.9536L240.391 52.0177L238.435 52.4336ZM244.373 80.3695C246.806 91.8185 245.726 100.7 241.366 107.182L243.026 108.298C247.802 101.198 248.825 91.6933 246.329 79.9536L244.373 80.3695ZM241.371 107.175C236.987 113.579 229.044 118.101 217.305 120.596L217.721 122.553C229.718 120.002 238.231 115.302 243.021 108.305L241.371 107.175ZM217.305 120.596L182.522 127.99L182.938 129.946L217.721 122.553L217.305 120.596ZM183.708 128.76L180.012 111.368L178.055 111.784L181.752 129.176L183.708 128.76ZM179.241 112.554L188.279 110.633L187.864 108.677L178.825 110.598L179.241 112.554ZM189.05 109.447L176.038 48.2348L174.082 48.6506L187.093 109.863L189.05 109.447ZM174.852 47.4645L165.814 49.3856L166.23 51.3419L175.268 49.4208L174.852 47.4645ZM167 50.1559L163.333 32.9014L161.377 33.3172L165.044 50.5717L167 50.1559ZM214.053 105.298C220.458 103.937 224.89 101.449 226.942 97.6153L225.179 96.6716C223.542 99.7285 219.831 102.025 213.637 103.342L214.053 105.298ZM226.941 97.6177C229.019 93.7603 229.264 88.5539 227.904 82.1526L225.947 82.5684C227.265 88.7656 226.933 93.4145 225.18 96.6691L226.941 97.6177ZM227.904 82.1526L222.315 55.86L220.359 56.2758L225.947 82.5684L227.904 82.1526ZM222.315 55.86C221.122 50.2447 218.871 46.0958 215.44 43.6113L214.267 45.2312C217.152 47.3203 219.224 50.9357 220.359 56.2758L222.315 55.86ZM215.455 43.6221C212.04 41.054 206.995 40.6325 200.597 41.9923L201.013 43.9486C207.214 42.6305 211.535 43.1762 214.253 45.2205L215.455 43.6221ZM200.597 41.9923L192.929 43.6223L193.344 45.5786L201.013 43.9486L200.597 41.9923ZM192.158 44.8084L205.199 106.158L207.155 105.742L194.115 44.3926L192.158 44.8084ZM206.385 106.928L214.053 105.298L213.637 103.342L205.969 104.972L206.385 106.928ZM251.134 14.2386L250.926 13.2605L249.948 13.4684L250.156 14.4466L251.134 14.2386ZM311.662 1.37307L312.64 1.16516L312.432 0.187009L311.454 0.394921L311.662 1.37307ZM315.329 18.6276L315.537 19.6057L316.515 19.3978L316.307 18.4197L315.329 18.6276ZM272.878 27.651L272.67 26.6728L271.692 26.8807L271.9 27.8589L272.878 27.651ZM277.535 49.5615L276.557 49.7694L276.765 50.7475L277.743 50.5396L277.535 49.5615ZM318.343 40.8874L319.321 40.6795L319.113 39.7013L318.135 39.9092L318.343 40.8874ZM322.011 58.1419L322.219 59.1201L323.197 58.9122L322.989 57.934L322.011 58.1419ZM281.202 66.816L280.995 65.8379L280.016 66.0458L280.224 67.0239L281.202 66.816ZM285.918 89.0004L284.94 89.2083L285.148 90.1865L286.126 89.9785L285.918 89.0004ZM330.013 79.6277L330.991 79.4198L330.783 78.4417L329.805 78.6496L330.013 79.6277ZM333.68 96.8823L333.888 97.8604L334.866 97.6525L334.659 96.6743L333.68 96.8823ZM271.509 110.097L270.531 110.305L270.739 111.283L271.717 111.075L271.509 110.097ZM251.342 15.2168L311.87 2.35122L311.454 0.394921L250.926 13.2605L251.342 15.2168ZM310.684 1.58098L314.351 18.8355L316.307 18.4197L312.64 1.16516L310.684 1.58098ZM315.121 17.6495L272.67 26.6728L273.086 28.6291L315.537 19.6057L315.121 17.6495ZM271.9 27.8589L276.557 49.7694L278.513 49.3536L273.856 27.4431L271.9 27.8589ZM277.743 50.5396L318.551 41.8655L318.135 39.9092L277.327 48.5833L277.743 50.5396ZM317.365 41.0953L321.033 58.3498L322.989 57.934L319.321 40.6795L317.365 41.0953ZM321.803 57.1638L280.995 65.8379L281.41 67.7942L322.219 59.1201L321.803 57.1638ZM280.224 67.0239L284.94 89.2083L286.896 88.7925L282.181 66.6081L280.224 67.0239ZM286.126 89.9785L330.221 80.6059L329.805 78.6496L285.71 88.0222L286.126 89.9785ZM329.035 79.8356L332.702 97.0902L334.659 96.6743L330.991 79.4198L329.035 79.8356ZM333.472 95.9041L271.301 109.119L271.717 111.075L333.888 97.8604L333.472 95.9041ZM272.487 109.889L252.112 14.0307L250.156 14.4466L270.531 110.305L272.487 109.889Z" fill="#BCFF16"/>
</svg>
