<svg width="63" height="50" viewBox="0 0 63 50" fill="none" xmlns="http://www.w3.org/2000/svg">
<path d="M32.7409 38.3697L35.3588 38.3643L35.3533 35.7464L32.7355 35.7519L32.7409 38.3697ZM32.7567 45.9297L32.7622 48.5475L35.38 48.5421L35.3745 45.9242L32.7567 45.9297ZM3.23677 45.9912L0.618934 45.9967L0.624392 48.6145L3.24222 48.6091L3.23677 45.9912ZM4.16774 32.0693L1.7658 31.0282L1.75448 31.0543L1.74373 31.0807L4.16774 32.0693ZM6.97948 28.1034L5.25602 26.1329L5.23999 26.147L5.22419 26.1612L6.97948 28.1034ZM11.414 25.4542L12.3815 27.8866L12.4058 27.877L12.4298 27.8668L11.414 25.4542ZM17.2302 23.642L17.8034 26.1963L17.8102 26.1948L17.2302 23.642ZM21.1277 22.4339L22.187 24.8278L22.2084 24.8184L22.2297 24.8085L21.1277 22.4339ZM23.5844 20.8688L25.3746 22.7788L25.4075 22.748L25.4394 22.716L23.5844 20.8688ZM24.7804 18.9463L22.2952 18.1236L22.2805 18.168L22.2674 18.2128L24.7804 18.9463ZM23.2667 12.3494L21.4845 14.2669L21.5001 14.2815L21.516 14.2958L23.2667 12.3494ZM12.7676 12.7913L14.6225 14.6385L14.6359 14.6251L14.6491 14.6115L12.7676 12.7913ZM10.745 21.1355L10.7504 23.7534L13.3683 23.7479L13.3628 21.1301L10.745 21.1355ZM2.82498 21.152L0.207145 21.1575L0.212603 23.7753L2.83044 23.7699L2.82498 21.152ZM3.82634 12.2099L1.39371 11.2428L1.388 11.2571L1.38246 11.2716L3.82634 12.2099ZM6.81657 7.5237L4.93427 5.70435L4.93343 5.70522L6.81657 7.5237ZM11.6099 4.3337L12.5961 6.75867L12.6181 6.74972L12.64 6.74037L11.6099 4.3337ZM24.5698 4.24667L23.5937 6.67574L23.6161 6.68473L23.6386 6.69331L24.5698 4.24667ZM29.2558 7.11691L27.4392 9.00189L27.4541 9.01629L27.4693 9.03045L29.2558 7.11691ZM32.0845 11.311L29.6353 12.2353L29.6494 12.2727L29.6647 12.3097L32.0845 11.311ZM30.0744 25.6552L28.0881 23.9501L28.0796 23.96L28.0712 23.97L30.0744 25.6552ZM20.425 30.7154L19.8277 28.1666L19.8231 28.1677L20.425 30.7154ZM15.7478 32.1051L16.6542 34.5611L16.6761 34.553L16.698 34.5445L15.7478 32.1051ZM12.931 33.611L11.2626 31.5937L11.2626 31.5937L12.931 33.611ZM11.4949 35.474L9.07213 34.4823L9.05634 34.5209L9.04179 34.5599L11.4949 35.474ZM11.141 38.4148L8.52315 38.4202L8.52861 41.038L11.1464 41.0326L11.141 38.4148ZM30.1231 38.3752L30.1389 45.9352L35.3745 45.9242L35.3588 38.3643L30.1231 38.3752ZM32.7512 43.3119L3.23131 43.3734L3.24222 48.6091L32.7622 48.5475L32.7512 43.3119ZM5.8546 45.9858L5.83734 37.7058L0.601671 37.7167L0.618934 45.9967L5.8546 45.9858ZM5.83734 37.7058C5.83325 35.7478 6.11639 34.2234 6.59175 33.0578L1.74373 31.0807C0.945598 33.0378 0.596579 35.2748 0.601671 37.7167L5.83734 37.7058ZM6.56968 33.1103C7.10593 31.8731 7.82939 30.8638 8.73477 30.0456L5.22419 26.1612C3.73408 27.508 2.58305 29.1427 1.7658 31.0282L6.56968 33.1103ZM8.70294 30.0739C9.69071 29.2099 10.9052 28.4739 12.3815 27.8866L10.4464 23.0217C8.4856 23.8016 6.74374 24.8317 5.25602 26.1329L8.70294 30.0739ZM12.4298 27.8668C13.9818 27.2134 15.7688 26.6529 17.8034 26.1963L16.657 21.0877C14.3737 21.6001 12.2832 22.2477 10.3981 23.0415L12.4298 27.8668ZM17.8102 26.1948C19.5009 25.8107 20.9776 25.363 22.187 24.8278L20.0684 20.0399C19.2796 20.389 18.158 20.7467 16.6502 21.0892L17.8102 26.1948ZM22.2297 24.8085C23.4293 24.2518 24.5098 23.5894 25.3746 22.7788L21.7943 18.9587C21.4614 19.2707 20.9041 19.6517 20.0257 20.0593L22.2297 24.8085ZM25.4394 22.716C26.2865 21.8654 26.9501 20.8561 27.2934 19.6797L22.2674 18.2128C22.2136 18.3972 22.0799 18.6697 21.7295 19.0215L25.4394 22.716ZM27.2656 19.7689C27.6054 18.7426 27.7556 17.6575 27.7533 16.5401L22.5176 16.551C22.5189 17.1936 22.4325 17.709 22.2952 18.1236L27.2656 19.7689ZM27.7533 16.5401C27.7482 14.1242 26.8136 12.0187 25.0173 10.4031L21.516 14.2958C22.2044 14.9149 22.5156 15.6069 22.5176 16.551L27.7533 16.5401ZM25.0489 10.4319C23.2234 8.73521 20.8256 8.05665 18.2177 8.06209L18.2286 13.2978C19.9407 13.2942 20.9053 13.7286 21.4845 14.2669L25.0489 10.4319ZM18.2177 8.06209C15.3593 8.06805 12.818 8.97407 10.886 10.9711L14.6491 14.6115C15.4313 13.8029 16.5271 13.3013 18.2286 13.2978L18.2177 8.06209ZM10.9126 10.9441C8.94267 12.9223 8.1155 15.5627 8.12162 18.501L13.3573 18.4901C13.3532 16.5483 13.8781 15.386 14.6225 14.6385L10.9126 10.9441ZM8.12162 18.501L8.12713 21.141L13.3628 21.1301L13.3573 18.4901L8.12162 18.501ZM10.7395 18.5177L2.81952 18.5342L2.83044 23.7699L10.7504 23.7534L10.7395 18.5177ZM5.44281 21.1466L5.43581 17.7866L0.20014 17.7975L0.207145 21.1575L5.44281 21.1466ZM5.43581 17.7866C5.43237 16.1365 5.71401 14.5969 6.27021 13.1483L1.38246 11.2716C0.586005 13.3458 0.195407 15.5276 0.20014 17.7975L5.43581 17.7866ZM6.25896 13.1771C6.85619 11.675 7.67205 10.4064 8.69972 9.34217L4.93343 5.70522C3.4066 7.28634 2.22898 9.14191 1.39371 11.2428L6.25896 13.1771ZM8.69888 9.34304C9.74537 8.26033 11.0314 7.39504 12.5961 6.75867L10.6237 1.90872C8.43169 2.80019 6.5221 4.06156 4.93427 5.70435L8.69888 9.34304ZM12.64 6.74037C14.1481 6.09488 15.911 5.74257 17.9729 5.73827L17.962 0.502603C15.3039 0.508145 12.8284 0.964672 10.5799 1.92702L12.64 6.74037ZM17.9729 5.73827C20.2355 5.73355 22.0898 6.07143 23.5937 6.67574L25.5459 1.81761C23.2866 0.909762 20.7393 0.496813 17.962 0.502603L17.9729 5.73827ZM23.6386 6.69331C25.2445 7.30448 26.4897 8.08686 27.4392 9.00189L31.0724 5.23194C29.5368 3.75214 27.6581 2.62102 25.5009 1.80004L23.6386 6.69331ZM27.4693 9.03045C28.466 9.96092 29.1778 11.0231 29.6353 12.2353L34.5338 10.3867C33.7845 8.40143 32.6106 6.66756 31.0422 5.20337L27.4693 9.03045ZM29.6647 12.3097C30.1784 13.5545 30.434 14.8366 30.4368 16.1745L35.6725 16.1636C35.6683 14.1415 35.2772 12.1849 34.5044 10.3124L29.6647 12.3097ZM30.4368 16.1745L30.4383 16.8945L35.674 16.8836L35.6725 16.1636L30.4368 16.1745ZM30.4383 16.8945C30.4446 19.8863 29.6142 22.1723 28.0881 23.9501L32.0608 27.3604C34.525 24.4898 35.6824 20.9317 35.674 16.8836L30.4383 16.8945ZM28.0712 23.97C26.6234 25.691 24.0235 27.1833 19.8277 28.1666L21.0222 33.2642C25.7821 32.1487 29.6151 30.2677 32.0777 27.3405L28.0712 23.97ZM19.8231 28.1677C17.8734 28.6283 16.1882 29.1242 14.7977 29.6658L16.698 34.5445C17.7854 34.1209 19.2183 33.6903 21.0268 33.2631L19.8231 28.1677ZM14.8415 29.6492C13.4791 30.152 12.2465 30.78 11.2626 31.5937L14.5994 35.6283C14.9731 35.3192 15.6184 34.9433 16.6542 34.5611L14.8415 29.6492ZM11.2626 31.5937C10.3171 32.3756 9.5433 33.3312 9.07213 34.4823L13.9176 36.4657C14.0036 36.2556 14.1872 35.9692 14.5994 35.6283L11.2626 31.5937ZM9.04179 34.5599C8.67163 35.5533 8.51939 36.6157 8.52165 37.7002L13.7573 37.6893C13.7561 37.0938 13.8408 36.6757 13.9479 36.3881L9.04179 34.5599ZM8.52165 37.7002L8.52315 38.4202L13.7588 38.4093L13.7573 37.6893L8.52165 37.7002ZM11.1464 41.0326L32.7464 40.9875L32.7355 35.7519L11.1355 35.7969L11.1464 41.0326ZM59.6495 43.2936L57.2551 42.2354L57.2405 42.2685L57.2268 42.3019L59.6495 43.2936ZM58.4533 45.0961L60.2329 47.016L60.2713 46.9804L60.3083 46.9434L58.4533 45.0961ZM56.5957 46.24L55.6418 43.8021L55.5577 43.835L55.4761 43.8737L56.5957 46.24ZM52.2157 46.2491L53.3254 43.8781L53.267 43.8508L53.2074 43.8264L52.2157 46.2491ZM50.4133 45.1129L48.5661 46.9678L48.6032 47.0048L48.6417 47.0402L50.4133 45.1129ZM49.1496 43.3155L46.7117 44.2694L46.7446 44.3535L46.7832 44.4351L49.1496 43.3155ZM49.1402 38.8155L46.7458 37.7573L46.7312 37.7904L46.7175 37.8238L49.1402 38.8155ZM50.3964 37.0129L52.1761 38.9328L52.2145 38.8972L52.2514 38.8601L50.3964 37.0129ZM52.1939 35.8092L53.1957 38.2277L53.2553 38.2031L53.3135 38.1755L52.1939 35.8092ZM56.5739 35.8L55.4642 38.171L55.546 38.2093L55.6302 38.2418L56.5739 35.8ZM58.4364 36.9961L56.5892 38.8511L56.6263 38.888L56.6648 38.9234L58.4364 36.9961ZM59.6402 38.7936L57.2023 39.7475L57.2352 39.8316L57.2738 39.9132L59.6402 38.7936ZM57.507 41.0181C57.5079 41.4576 57.4232 41.855 57.2551 42.2354L62.044 44.3518C62.5129 43.2909 62.745 42.1677 62.7426 41.0072L57.507 41.0181ZM57.2268 42.3019C57.0792 42.6627 56.8734 42.9727 56.5984 43.2489L60.3083 46.9434C61.0711 46.1774 61.6628 45.2858 62.0723 44.2853L57.2268 42.3019ZM56.6737 43.1762C56.4162 43.4149 56.084 43.6291 55.6418 43.8021L57.5496 48.6779C58.5462 48.2879 59.4524 47.7395 60.2329 47.016L56.6737 43.1762ZM55.4761 43.8737C55.1491 44.0283 54.8104 44.1059 54.4312 44.1067L54.4421 49.3423C55.583 49.34 56.6836 49.0945 57.7153 48.6063L55.4761 43.8737ZM54.4312 44.1067C53.9912 44.1076 53.6348 44.0229 53.3254 43.8781L51.106 48.6201C52.1579 49.1125 53.2822 49.3448 54.4421 49.3423L54.4312 44.1067ZM53.2074 43.8264C52.8027 43.6607 52.4685 43.4462 52.1849 43.1856L48.6417 47.0402C49.4002 47.7374 50.2675 48.2804 51.224 48.6719L53.2074 43.8264ZM52.2606 43.2579C51.9584 42.957 51.7109 42.6081 51.5159 42.1959L46.7832 44.4351C47.231 45.3816 47.8261 46.2309 48.5661 46.9678L52.2606 43.2579ZM51.5874 42.3616C51.4284 41.9552 51.3437 41.5181 51.3427 41.0309L46.107 41.0419C46.1093 42.1547 46.3077 43.237 46.7117 44.2694L51.5874 42.3616ZM51.3427 41.0309C51.3416 40.5426 51.4249 40.1445 51.5629 39.8072L46.7175 37.8238C46.2984 38.8477 46.1047 39.9302 46.107 41.0419L51.3427 41.0309ZM51.5346 39.8737C51.7254 39.4421 51.9467 39.1454 52.1761 38.9328L48.6168 35.093C47.8082 35.8426 47.192 36.7476 46.7458 37.7573L51.5346 39.8737ZM52.2514 38.8601C52.5264 38.5839 52.8356 38.3769 53.1957 38.2277L51.1921 33.3906C50.1934 33.8043 49.3043 34.3997 48.5415 35.1657L52.2514 38.8601ZM53.3135 38.1755C53.6223 38.0294 53.9784 37.9433 54.4184 37.9424L54.4075 32.7067C53.2475 32.7091 52.1242 32.9461 51.0743 33.4428L53.3135 38.1755ZM54.4184 37.9424C54.7975 37.9416 55.1366 38.0177 55.4642 38.171L57.6836 33.429C56.6499 32.9452 55.5483 32.7043 54.4075 32.7067L54.4184 37.9424ZM55.6302 38.2418C56.0296 38.3962 56.3382 38.6012 56.5892 38.8511L60.2836 35.1412C59.4924 34.3533 58.5594 33.7608 57.5177 33.3582L55.6302 38.2418ZM56.6648 38.9234C56.8664 39.1088 57.0524 39.3645 57.2023 39.7475L62.078 37.8397C61.6649 36.7839 61.0484 35.8413 60.208 35.0688L56.6648 38.9234ZM57.2738 39.9132C57.4199 40.222 57.506 40.5781 57.507 41.0181L62.7426 41.0072C62.7402 39.8472 62.5033 38.7239 62.0065 37.674L57.2738 39.9132Z" fill="#30EFD3"/>
</svg>
