<svg fill="none" height="357" viewBox="0 0 478 357" width="478" xmlns="http://www.w3.org/2000/svg"><path d="m71.0326 20.5855.3236-.9463-.9462-.3235-.3236.9462zm20.1612 10.1169-.8907.4547.0039.0074zm-9.3663 27.393.4183.9083.0075-.0035zm-22.1186-4.3924-.9462-.3235-.3235.9462.9462.3235zm2.0545-6.0084.3235-.9463-.9462-.3235-.3235.9462zm3.1225 1.0676-.3235.9462.9462.3236.3235-.9462zm7.231-21.1479.9462.3235.3235-.9462-.9462-.3235zm-3.1225-1.0677-.9462-.3235-.3236.9462.9462.3235zm9.8293 25.3432-.5122-.8589-.0024.0014zm6.228-18.2147-.926.3775.0034.0083.0035.0083zm-6.6898-3.9255.3236-.9462-.9463-.3235-.3235.9462zm-7.2471 21.1953-.9463-.3236-.3235.9462.9462.3236zm-.4057-29.4132 12.017 4.1089.647-1.8925-12.0169-4.1089zm12.017 4.1089c3.9717 1.358 6.4123 3.2351 7.5771 5.5165l1.7812-.9094c-1.4936-2.9254-4.4824-5.0536-8.7113-6.4996zm7.5809 5.5239c1.165 2.236 1.2182 5.2141-.1039 9.0806l1.8925.6471c1.4172-4.1448 1.5-7.7442-.015-10.6519zm-.1039 9.0806-3.3 9.6514 1.8924.6471 3.3001-9.6514zm-3.3 9.6514c-1.3216 3.8651-3.1936 6.2081-5.5014 7.294l.8516 1.8097c2.982-1.4032 5.1245-4.3104 6.5422-8.4566zm-5.4939 7.2906c-2.308 1.0628-5.3845 1.0378-9.3598-.3214l-.647 1.8924c4.2252 1.4447 7.8831 1.6088 10.8434.2456zm-9.3598-.3214-12.0169-4.1089-.6471 1.8924 12.017 4.1089zm-11.3942-2.8391 2.0544-6.0085-1.8924-.6471-2.0545 6.0085zm.7846-5.3858 3.1226 1.0676.647-1.8924-3.1225-1.0677zm4.3923.445 7.231-21.148-1.8924-.6471-7.231 21.148zm6.6083-22.4177-3.1225-1.0677-.6471 1.8924 3.1226 1.0677zm-2.4998.2021 2.0383-5.9612-1.8925-.6471-2.0382 5.9612zm3.5 25.9268c2.2788.7791 4.3232.895 5.8976-.0498l-1.0291-1.7149c-.819.4915-2.1476.5813-4.2214-.1278zm5.8952-.0483c1.5331-.9143 2.6309-2.6331 3.4088-4.9082l-1.8924-.647c-.7104 2.0775-1.5958 3.2739-2.5407 3.8374zm3.4088-4.9082 3.1059-9.0836-1.8924-.6471-3.1059 9.0837zm3.1059-9.0836c.6926-2.0256.8019-3.8864.1202-5.4759l-1.8381.7882c.416.97.4271 2.2813-.1745 4.0406zm.1272-5.4593c-.6818-1.6724-2.3717-2.8118-4.6428-3.5883l-.6471 1.8924c2.0815.7117 3.0851 1.5855 3.4379 2.4509zm-4.6428-3.5883-2.6494-.9059-.6471 1.8924 2.6494.9059zm-3.9192-.2832-7.2472 21.1952 1.8925.6471 7.2471-21.1953zm-6.6245 22.465 2.6494.9059.6471-1.8925-2.6494-.9059zm31.5348-17.3822-.477-.8788-.006.0035zm17.931 6.1309-.918.3959.003.0067zm-9.382 27.4403-.466-.8851-.006.0034zm-17.9312-6.131-.9129.4083.003.0066zm12.7662 1.3002.1.995.017-.0017.017-.0023zm2.379-.9304.582.8133zm1.802-2.0258.861.5085zm4.773-14.1148.996.0925zm-.232-2.7214.958-.2867zm-1.311-2.1922-.735.6779.011.0121.012.0116zm-5.488-1.8765.134.991.016-.0022.016-.0027zm-2.379.9304-.582-.8133zm-1.85 2.0096-.843-.5365zm-4.8676 14.0825-.9921-.1251zm.1847 2.7052.9581-.2867zm1.3109 2.1922-.7121.7016.0119.0121.0123.0117zm-3.3899-17.5931c1.4143-4.1365 3.4969-6.855 6.1679-8.3309l-.967-1.7505c-3.2368 1.7885-5.5744 4.9917-7.0934 9.4343zm6.1619-8.3274c2.693-1.4629 5.795-1.6401 9.401-.4073l.647-1.8924c-4.027-1.377-7.726-1.2377-11.003.5422zm9.401-.4073c3.606 1.2331 5.931 3.2661 7.134 6.0554l1.836-.7917c-1.469-3.4085-4.296-5.7793-8.323-7.1561zm7.137 6.0621c1.236 2.8122 1.233 6.2395-.18 10.3727l1.892.647c1.521-4.4458 1.617-8.4177.118-11.8248zm-.18 10.3727-2.524 7.3805 1.893.647 2.523-7.3805zm-2.524 7.3805c-1.46 4.2699-3.568 7-6.229 8.3994l.931 1.7702c3.266-1.7172 5.631-4.9611 7.191-9.5226zm-6.235 8.4028c-2.637 1.4109-5.713 1.5675-9.328.3318l-.647 1.8924c4.019 1.3741 7.691 1.2666 10.918-.4608zm-9.328.3318c-3.6132-1.2356-5.9693-3.2498-7.2213-5.9959l-1.8198.8297c1.526 3.3471 4.3753 5.6844 8.3941 7.0586zm-7.2183-5.9893c-1.219-2.7259-1.1993-6.1723.2618-10.4454l-1.8924-.6471c-1.5586 4.5582-1.6913 8.5632-.1952 11.9089zm.2618-10.4454 2.5236-7.3805-1.8925-.6471-2.5235 7.3805zm8.2515 12.6498c1.224.4188 2.379.6057 3.44.499l-.2-1.99c-.691.0695-1.547-.0437-2.593-.4014zm3.474.495c1.041-.1406 1.989-.5088 2.827-1.1081l-1.164-1.6265c-.562.4018-1.2.6538-1.931.7526zm2.827-1.1081c.828-.5927 1.519-1.3783 2.081-2.3306l-1.722-1.017c-.442.7476-.952 1.3126-1.523 1.7211zm2.081-2.3306c.542-.918 1.009-1.9588 1.404-3.1158l-1.892-.6471c-.359 1.0508-.772 1.9639-1.234 2.7459zm1.404-3.1158 2.783-8.1375-1.893-.647-2.782 8.1374zm2.783-8.1375c.379-1.1078.621-2.2008.721-3.2775l-1.991-.185c-.084.9037-.29 1.8416-.623 2.8155zm.721-3.2775c.102-1.0982.019-2.1361-.27-3.1006l-1.916.5734c.205.6837.277 1.46.195 2.3422zm-.27-3.1006c-.295-.9867-.819-1.8584-1.556-2.6071l-1.425 1.4032c.517.5259.867 1.1157 1.065 1.7773zm-1.534-2.5834c-.754-.8176-1.753-1.4141-2.945-1.8216l-.647 1.8924c.953.3259 1.642.7649 2.122 1.285zm-2.945-1.8216c-1.192-.4075-2.347-.5479-3.444-.3631l.332 1.9722c.698-.1176 1.512-.0425 2.465.2833zm-3.412-.368c-1.041.1406-1.989.5088-2.827 1.1081l1.164 1.6265c.562-.4018 1.199-.6538 1.931-.7526zm-2.827 1.1081c-.819.5859-1.52 1.3557-2.111 2.2864l1.687 1.0731c.476-.7477 1.008-1.3177 1.588-1.733zm-2.111 2.2864c-.581.9125-1.058 1.9252-1.437 3.033l1.892.6471c.333-.9739.745-1.8412 1.232-2.607zm-1.437 3.033-2.7823 8.1375 1.8923.6471 2.782-8.1375zm-2.7823 8.1375c-.3957 1.157-.664 2.2656-.7974 3.3234l1.9843.2502c.1136-.901.3462-1.8757.7054-2.9265zm-.7974 3.3234c-.1384 1.0972-.0732 2.1412.2188 3.117l1.9161-.5734c-.2013-.6724-.2593-1.4319-.1506-2.2934zm.2188 3.117c.2953.9867.8195 1.8584 1.5568 2.6071l1.4251-1.4032c-.518-.5259-.8679-1.1157-1.0658-1.7773zm1.581 2.6309c.7729.7338 1.8009 1.293 3.0259 1.7118l.647-1.8924c-1.046-.3577-1.793-.7925-2.296-1.2702zm36.1649 14.0999-.98-.1995-.175.8613.832.2844zm.852.2912-.324.9462.947.3235.323-.9462zm10.256-29.9951.323-.9462-.946-.3235-.323.9462zm6.245 2.1353.946.3236.324-.9462-.947-.3236zm-11.324 33.1176-.323.9462.946.3236.323-.9462zm-12.206-4.1736-.98-.1995-.175.8614.831.2844zm6.377-31.3215.979.1995.176-.8614-.832-.2843zm-.852-.2912.323-.9462-.946-.3236-.323.9463zm-10.256 29.9951-.324.9462.947.3235.323-.9462zm-6.245-2.1354-.946-.3235-.324.9462.946.3236zm11.324-33.1175.323-.9463-.946-.3235-.324.9462zm12.206 4.1735.98.1995.175-.8613-.832-.2844zm-6.7 32.2678.851.2912.647-1.8924-.851-.2912zm2.121-.3315 10.256-29.995-1.892-.6471-10.256 29.9951zm8.986-29.3724 6.245 2.1354.647-1.8925-6.245-2.1353zm5.623.8656-11.324 33.1176 1.892.6471 11.324-33.1176zm-10.054 32.4949-12.206-4.1736-.648 1.8925 12.207 4.1735zm-11.55-3.0279 6.376-31.3215-1.959-.399-6.377 31.3215zm5.72-32.4672-.852-.2912-.647 1.8924.852.2912zm-2.121.3315-10.256 29.995 1.892.6471 10.256-29.9951zm-8.987 29.3723-6.245-2.1353-.647 1.8925 6.245 2.1353zm-5.622-.8655 11.324-33.1176-1.893-.6471-11.323 33.1176zm10.054-32.4949 12.206 4.1736.647-1.8925-12.206-4.1736zm11.55 3.0279-6.377 31.3215 1.96.399 6.377-31.3216zm24.458 10.5524-.733-.68-.009.0101-.01.0104zm1.479-1.0797.404.9148.018-.0081.018-.0088zm1.743-.4609.061.9982.025-.0016.024-.0027zm3.454 1.1809-.696.7184.025.024.026.0222zm1.143 1.4477-.898.4403.009.018.009.0176zm.461 1.7429-.999.0414.001.0345.004.0342zm-4.443 10.2118-.44-.8978-.009.0043-.009.0045zm-6.429-.8244-.946-.3235-.324.9462.946.3236zm1.262-3.6902.323-.9462-.946-.3236-.324.9463zm4.227-.7738.946.3235.467-1.3654-1.442.0423zm-2.49-1.0628-.695.7184.017.0171.019.0163zm-1.588-3.2379-.998.0612.002.0245.002.0245zm1.214-1.5402c.164-.4799.404-.8948.719-1.254l-1.504-1.3189c-.493.5622-.862 1.2072-1.107 1.9259zm.701-1.2335c.364-.3929.748-.6675 1.149-.8448l-.808-1.8295c-.677.2993-1.279.7444-1.808 1.3144zm1.185-.8617c.432-.2117.884-.3313 1.364-.3606l-.122-1.9963c-.744.0455-1.453.2332-2.122.5612zm1.413-.3649c.467-.0517.946.0012 1.446.1724l.647-1.8924c-.761-.2602-1.535-.354-2.313-.2678zm1.446.1724c.462.1578.859.4009 1.202.733l1.391-1.4368c-.557-.5392-1.209-.9367-1.946-1.1886zm1.253.7792c.392.3302.684.704.89 1.1234l1.796-.8806c-.334-.681-.804-1.2723-1.397-1.772zm.908 1.159c.202.3729.321.803.342 1.3084l1.998-.0828c-.033-.7811-.221-1.5129-.581-2.1773zm.347 1.3771c.052.4745.001.9373-.156 1.3989l1.892.6471c.252-.7369.337-1.4958.252-2.2663zm-.156 1.3989-1.974 5.772 1.892.647 1.974-5.7719zm-1.974 5.772c-.327.9569-.906 1.6144-1.759 2.033l.88 1.7957c1.347-.6608 2.279-1.7416 2.771-3.1817zm-1.777 2.0418c-.813.4186-1.663.4808-2.62.1537l-.647 1.8925c1.441.4925 2.858.4141 4.183-.2682zm-2.62.1537-3.028-1.0353-.647 1.8925 3.028 1.0353zm-2.405.2345 1.262-3.6903-1.893-.647-1.261 3.6902zm-.008-3.0676 2.271.7765.647-1.8924-2.271-.7765zm2.271.7765c.599.2048 1.272.2441 1.89-.1.594-.331.939-.9095 1.142-1.5052l-1.892-.6471c-.058.1686-.115.2737-.159.3354-.022.0299-.039.0476-.049.0573-.01.0095-.016.0124-.016.0127 0 .0001 0 .0001-.002.0005-.001.0004-.009.0024-.027.0029-.035.0009-.112-.0053-.24-.0489zm3.032-1.6052.194-.5678-1.892-.647-.194.5677zm-.781-1.8909c-.159.0047-.323-.0193-.5-.0797l-.647 1.8924c.391.1338.795.1985 1.206.1865zm-.5-.0797c-.518-.1772-.947-.4246-1.301-.7353l-1.319 1.5036c.567.4975 1.229.8699 1.973 1.1241zm-1.265-.7019c-.369-.3571-.66-.7565-.878-1.2007l-1.795.8806c.322.6562.751 1.2427 1.282 1.7569zm-.878-1.2007c-.217-.4443-.355-.9187-.412-1.4289l-1.988.2203c.082.7347.283 1.433.605 2.0892zm-.408-1.3799c-.028-.4702.039-.9609.216-1.4791l-1.892-.647c-.255.7434-.366 1.4952-.32 2.2484zm22.105 1.7779.323-.9462-.946-.3236-.324.9462zm23.844 8.153.947.3236.323-.9462-.946-.3236zm-2.038 5.9612-.323.9462.946.3235.323-.9462zm-8.8-3.0089.324-.9462-.946-.3235-.324.9462zm-9.285 27.1565-.324.9462.947.3235.323-.9462zm-6.245-2.1354-.946-.3235-.324.9462.946.3235zm9.285-27.1564.946.3235.324-.9462-.946-.3235zm-8.8-3.0089-.946-.3235-.323.9462.946.3236zm1.715-5.0149 23.845 8.153.647-1.8924-23.845-8.153zm23.222 6.8833-2.038 5.9612 1.892.647 2.039-5.9611zm-.768 5.3385-8.8-3.0089-.647 1.8925 8.8 3.0088zm-10.07-2.3862-9.285 27.1564 1.892.6471 9.285-27.1564zm-8.016 26.5337-6.245-2.1353-.647 1.8924 6.245 2.1354zm-5.622-.8655 9.285-27.1565-1.892-.647-9.285 27.1564zm8.663-28.4262-8.8-3.0089-.647 1.8925 8.8 3.0088zm-8.177-1.7391 2.038-5.9612-1.893-.6471-2.038 5.9612zm67.514 51.1441.425.905.008-.003zm-12.901-2.139-.617.787.008.006.008.006zm-2.806-3.232-.882.47.004.008.004.008zm-1.138-4.088-.999.055.001.009zm1.832-7.987.324-.9459-.946-.3235-.324.9462zm6.245 2.136.946.323.324-.946-.946-.324zm-1.034 7.044-.906.423.004.009.004.008zm6.67 2.281-.457-.889-.009.004-.009.005zm8.301-20.4126.946.3235.324-.9462-.947-.3236zm-3.406-1.1648-.947-.3235-.323.9462.946.3236zm2.005-5.8665.324-.9462-.946-.3236-.324.9463zm12.491 4.2706.946.3236.323-.9462-.946-.3236zm-2.006 5.8666-.324.9462.946.3235.324-.9462zm-2.839-.9706.324-.9462-.947-.3236-.323.9463zm-6.867 16.9923c-1.117 3.268-2.804 5.325-4.979 6.368l.865 1.804c2.798-1.343 4.773-3.917 6.007-7.525zm-4.971 6.365c-2.185 1.025-4.769 1.084-7.838.035l-.648 1.892c3.429 1.172 6.569 1.181 9.335-.117zm-7.838.035c-1.589-.543-2.931-1.236-4.039-2.069l-1.201 1.599c1.302.979 2.838 1.762 4.592 2.362zm-4.022-2.056c-1.099-.862-1.943-1.839-2.548-2.93l-1.749.971c.746 1.344 1.773 2.521 3.063 3.533zm-2.54-2.915c-.595-1.117-.938-2.341-1.023-3.682l-1.996.128c.102 1.612.519 3.114 1.254 4.494zm-1.023-3.673c-.075-1.355.153-2.847.713-4.486l-1.893-.647c-.626 1.831-.908 3.582-.817 5.243zm.713-4.486 1.067-3.122-1.892-.6472-1.068 3.1222zm-.202-2.499 6.245 2.135.647-1.893-6.245-2.1349zm5.622.865-1.068 3.123 1.893.647 1.067-3.123zm-1.068 3.123c-.568 1.662-.591 3.246.074 4.668l1.812-.846c-.394-.842-.439-1.872.007-3.175zm.082 4.685c.686 1.4 1.947 2.349 3.607 2.917l.647-1.892c-1.304-.447-2.066-1.105-2.459-1.906zm3.607 2.917c1.583.541 3.097.528 4.437-.197l-.951-1.759c-.735.398-1.646.471-2.839.064zm4.419-.187c1.367-.704 2.296-1.987 2.868-3.662l-1.892-.647c-.462 1.352-1.12 2.133-1.891 2.531zm2.868-3.662 5.921-17.3161-1.892-.6471-5.921 17.3162zm5.298-18.5859-3.406-1.1647-.647 1.8925 3.406 1.1647zm-2.783.1051 2.006-5.8666-1.893-.647-2.006 5.8665zm.736-5.2439 12.49 4.2707.647-1.8925-12.49-4.2706zm11.867 3.0009-2.006 5.8666 1.893.647 2.006-5.8665zm-.736 5.2439-2.838-.9706-.648 1.8924 2.839.9706zm-4.108-.3479-5.921 17.3158 1.893.647 5.92-17.3158zm33.86 5.0253.946.3235.324-.9462-.946-.3236zm-13.478 29.5275-.467-.884-.007.004zm-17.836-6.099-.914.406.003.007zm7.47-31.5816.323-.9462-.946-.3235-.324.9462zm6.245 2.1353.946.3236.323-.9463-.946-.3235zm-7.606 26.7263-.935.355zm8.61 2.945-.522-.853zm10.35-25.7889.324-.9462-.946-.3235-.324.9462zm5.299 1.8118-7.409 21.6681 1.893.647 7.408-21.668zm-7.409 21.6681c-1.236 3.615-3.122 5.994-5.59 7.299l.935 1.768c3.035-1.605 5.195-4.465 6.548-8.42zm-5.597 7.303c-2.399 1.292-5.422 1.4-9.197.11l-.647 1.892c4.111 1.406 7.75 1.397 10.792-.242zm-9.197.11c-3.773-1.291-6.118-3.234-7.254-5.742l-1.822.826c1.434 3.163 4.318 5.402 8.429 6.808zm-7.251-5.734c-1.124-2.533-1.144-5.566.093-9.185l-1.893-.647c-1.35 3.951-1.411 7.527-.028 10.643zm.093-9.185 7.409-21.6681-1.893-.647-7.409 21.6681zm6.139-21.0454 6.245 2.1353.647-1.8924-6.245-2.1353zm5.622.8656-7.408 21.6688 1.892.647 7.409-21.6687zm-7.408 21.6688c-.717 2.095-.832 4.034-.186 5.736l1.87-.709c-.429-1.131-.413-2.565.208-4.38zm-.186 5.736c.677 1.787 2.221 2.992 4.35 3.72l.647-1.893c-1.782-.609-2.731-1.49-3.127-2.536zm4.35 3.72c2.129.727 4.088.72 5.717-.278l-1.044-1.705c-.954.584-2.244.699-4.026.09zm5.717-.278c1.553-.95 2.649-2.553 3.366-4.649l-1.893-.647c-.621 1.815-1.485 2.959-2.517 3.591zm3.366-4.649 7.408-21.6683-1.892-.6471-7.409 21.6684zm6.139-21.0456 6.245 2.1353.647-1.8925-6.245-2.1353zm25.45 15.0956-.891.455.003.007.004.006zm-7.881-3.223.271.963.011-.003.011-.004zm-2.465 3.808-.994.106.001.014.002.013zm.715 1.618-.81.586.02.027.021.026zm1.853 1.69-.598.802.008.006zm3.179 1.985-.488.873zm6.864 5.888-.847.531zm-1.99 12.002-.73-.684-.008.009zm-3.449 2.361.365.93zm-4.481.74-.02 1zm-10.722-3.878-.642.767.009.008.009.007zm-3.243-3.962-.897.44.003.007.003.006zm-1.197-4.689-.999.036v.007zm1.284-6.537.324-.946-.947-.323-.323.946zm6.245 2.136.946.323.324-.946-.946-.324zm-.319 6.496-.909.416.005.012.006.012zm9.426 3.804-.39-.92zm2.609-4.075-.999.029v.011.011zm-.54-1.664-.865.503.01.017.011.016zm-1.568-1.752.641-.767zm-2.848-1.872.482-.876-.004-.002zm-4.217-2.657-.611.791.008.006.008.007zm-3.012-3.091-.826.563.004.006.004.006zm1.357-11.848-.71-.705-.008.008zm3.353-2.235-.363-.932-.007.003-.007.003zm4.275-.758.008-1h-.007zm9.887 3.539-.635.772.007.006.007.006zm3.024 3.518-.883.469.004.007.004.006zm1.202 4.057-.998.06.001.011.001.01zm-1.104 5.858-.324.946.947.323.323-.946zm-6.245-2.136-.946-.323-.324.946.946.323zm1.334-.812c.55-1.608.382-3.223-.443-4.779l-1.767.936c.589 1.111.674 2.155.318 3.196zm-.436-4.765c-.827-1.622-2.346-2.738-4.371-3.431l-.647 1.893c1.698.58 2.714 1.422 3.237 2.447zm-4.371-3.431c-1.699-.581-3.285-.726-4.693-.294l.586 1.912c.874-.268 2.006-.223 3.46.275zm-4.671-.301c-1.445.407-2.453 1.355-2.937 2.772l1.892.648c.27-.791.77-1.265 1.587-1.494zm-2.937 2.772c-.238.694-.327 1.399-.251 2.105l1.989-.213c-.043-.391.003-.803.154-1.244zm-.248 2.132c.098.726.423 1.418.896 2.071l1.62-1.173c-.341-.47-.492-.857-.534-1.165zm.937 2.124c.515.62 1.198 1.237 2.024 1.853l1.195-1.604c-.745-.555-1.297-1.065-1.68-1.527zm2.032 1.859c.862.629 1.959 1.312 3.281 2.05l.975-1.746c-1.281-.715-2.303-1.355-3.077-1.92zm3.281 2.05c3.174 1.773 5.305 3.634 6.505 5.546l1.694-1.063c-1.445-2.303-3.891-4.367-7.224-6.229zm6.505 5.546c1.125 1.794 1.316 3.971.396 6.66l1.893.647c1.064-3.114.925-5.947-.595-8.37zm.396 6.66-.194.568 1.893.647.194-.568zm-.194.568c-.488 1.427-1.183 2.607-2.075 3.559l1.46 1.367c1.107-1.182 1.939-2.616 2.508-4.279zm-2.083 3.568c-.852.932-1.874 1.632-3.077 2.105l.731 1.861c1.482-.582 2.76-1.455 3.822-2.617zm-3.077 2.105c-1.204.472-2.564.702-4.094.671l-.041 2c1.757.036 3.384-.228 4.866-.81zm-4.094.671c-1.523-.031-3.173-.342-4.955-.952l-.647 1.893c1.94.663 3.795 1.022 5.561 1.059zm-4.955-.952c-2.091-.715-3.805-1.622-5.164-2.707l-1.248 1.563c1.574 1.257 3.504 2.264 5.765 3.037zm-5.146-2.693c-1.336-1.117-2.325-2.335-2.993-3.648l-1.783.906c.807 1.586 1.979 3.01 3.492 4.276zm-2.987-3.635c-.666-1.358-1.03-2.786-1.096-4.293l-1.998.087c.078 1.783.512 3.481 1.299 5.086zm-1.095-4.286c-.056-1.543.188-3.127.745-4.757l-1.892-.647c-.629 1.84-.918 3.667-.852 5.477zm.745-4.757.485-1.419-1.892-.647-.485 1.419zm-.784-.796 6.245 2.135.647-1.893-6.245-2.135zm5.622.865-.388 1.136 1.892.647.388-1.136zm-.388 1.136c-.745 2.176-.747 4.234.106 6.1l1.819-.832c-.599-1.308-.647-2.824-.033-4.621zm.117 6.124c.93 1.897 2.808 3.225 5.37 4.101l.647-1.893c-2.296-.785-3.615-1.853-4.221-3.088zm5.37 4.101c2.004.685 3.828.828 5.345.184l-.781-1.841c-.873.37-2.137.373-3.917-.236zm5.345.184c1.433-.608 2.442-1.633 2.93-3.061l-1.892-.648c-.288.843-.862 1.461-1.819 1.868zm2.93-3.061c.223-.651.321-1.315.287-1.986l-1.998.102c.021.404-.037.814-.181 1.236zm.288-1.964c-.023-.771-.269-1.499-.697-2.172l-1.687 1.073c.259.408.374.79.385 1.157zm-.676-2.139c-.41-.703-1.022-1.372-1.791-2.015l-1.283 1.534c.657.549 1.089 1.048 1.345 1.488zm-1.791-2.015c-.778-.651-1.787-1.31-3.007-1.981l-.963 1.753c1.152.633 2.041 1.222 2.687 1.762zm-3.011-1.983c-1.54-.837-2.906-1.698-4.1-2.583l-1.19 1.608c1.28.947 2.726 1.858 4.335 2.732zm-4.083-2.57c-1.158-.895-2.089-1.854-2.806-2.875l-1.636 1.15c.847 1.206 1.924 2.307 3.219 3.307zm-2.797-2.863c-.663-.973-1.072-2.041-1.231-3.218l-1.982.268c.2 1.482.721 2.845 1.56 4.076zm-1.231-3.218c-.153-1.138.003-2.463.527-3.997l-1.892-.647c-.597 1.745-.822 3.39-.617 4.912zm.527-3.997.097-.284-1.892-.647-.097.284zm.097-.284c.42-1.228 1.04-2.252 1.854-3.09l-1.435-1.393c-1.035 1.067-1.803 2.351-2.311 3.836zm1.846-3.081c.872-.878 1.877-1.548 3.022-2.014l-.755-1.852c-1.394.568-2.625 1.388-3.686 2.456zm3.007-2.009c1.172-.456 2.472-.69 3.911-.689l.002-2c-1.66-.002-3.21.269-4.639.826zm3.904-.689c1.458.011 3.009.29 4.658.854l.647-1.892c-1.82-.623-3.585-.949-5.289-.962zm4.658.854c1.865.638 3.392 1.462 4.602 2.457l1.27-1.544c-1.43-1.176-3.179-2.106-5.225-2.805zm4.616 2.469c1.24.982 2.151 2.051 2.762 3.203l1.767-.938c-.761-1.432-1.866-2.707-3.287-3.833zm2.77 3.216c.649 1.18 1.005 2.389 1.079 3.635l1.997-.12c-.094-1.559-.54-3.055-1.325-4.48zm1.081 3.656c.104 1.275-.052 2.522-.472 3.75l1.892.647c.508-1.485.7-3.008.573-4.56zm-.472 3.75-.582 1.703 1.892.647.582-1.703zm.687 1.08-6.245-2.135-.647 1.892 6.245 2.136zm-5.622-.865.388-1.136-1.892-.647-.388 1.136zm14.273-7.696.323-.947-.946-.323-.323.946zm23.845 8.153.946.323.323-.946-.946-.324zm-2.039 5.961-.323.946.946.324.324-.947zm-8.8-3.009.324-.946-.946-.324-.324.946zm-9.285 27.156-.323.947.946.323.323-.946zm-6.245-2.135-.946-.324-.324.947.946.323zm9.285-27.156.947.323.323-.946-.946-.324zm-8.799-3.009-.947-.324-.323.946.946.324zm1.714-5.015 23.845 8.153.647-1.893-23.845-8.153zm23.222 6.883-2.038 5.961 1.893.647 2.038-5.961zm-.768 5.339-8.8-3.009-.647 1.892 8.8 3.009zm-10.07-2.387-9.285 27.157 1.892.647 9.286-27.157zm-8.015 26.534-6.245-2.135-.648 1.892 6.246 2.136zm-5.623-.865 9.286-27.157-1.893-.647-9.285 27.156zm8.663-28.427-8.8-3.008-.647 1.892 8.8 3.009zm-8.177-1.739 2.038-5.961-1.892-.647-2.039 5.961z" fill="#30efd3"/><path d="m45.5719 119.466.3235-.946-.9462-.324-.3235.947zm-4.2707 12.49-.3235.946.9462.324.3236-.946zm-6.245-2.135-.9462-.324-.3235.947.9462.323zm11.3237-33.1177.3235-.9462-.9462-.3235-.3235.9462zm17.1192 6.8047-.6833.73.0076.007.0079.007zm2.3784 3.244-.9205.391.0071.016.0077.017zm.8409 3.722-.9999.009.0001.016.0007.017zm-2.8309 8.28-.776-.631-.0048.006-.0047.006zm-2.9762 2.522-.4869-.873-.0017.001zm-3.8829 1.156.0933.996zm-9.4182-8.927-.9463-.324-.3235.947.9462.323zm9.7557 2.068-.404-.915-.009.004-.0088.004zm2.2001-6.435-.8887.459.0045.008.0046.009zm-8.9793-4.338.3235-.946-.9462-.324-.3235.946zm-5.961 14.343-4.2707 12.49 1.8925.647 4.2706-12.49zm-3.0009 11.867-6.2451-2.135-.647 1.892 6.245 2.135zm-5.6224-.866 11.3237-33.1172-1.8924-.647-11.3237 33.1172zm10.054-32.4945 12.9631 4.4325.6471-1.892-12.9632-4.4329zm12.9631 4.4325c1.5995.547 2.8531 1.273 3.7963 2.156l1.3666-1.46c-1.1917-1.116-2.7089-1.971-4.5158-2.588zm3.8118 2.17c.9819.881 1.682 1.845 2.1257 2.891l1.841-.782c-.5709-1.345-1.4564-2.543-2.631-3.597zm2.1405 2.924c.4882 1.043.7369 2.142.7467 3.307l1.9999-.017c-.0122-1.45-.3241-2.832-.9352-4.138zm.7475 3.34c.0483 1.164-.1128 2.283-.4818 3.362l1.8924.647c.4506-1.318.6461-2.684.5877-4.092zm-.4818 3.362-.3882 1.136 1.8924.647.3882-1.136zm-.3882 1.136c-.381 1.114-.9579 2.149-1.7378 3.109l1.5521 1.261c.9228-1.135 1.6179-2.377 2.0781-3.723zm-1.7473 3.121c-.7249.92-1.6144 1.675-2.6776 2.268l.9737 1.747c1.2871-.718 2.3817-1.644 3.2749-2.778zm-2.6793 2.269c-.9966.558-2.1531.908-3.4875 1.033l.1865 1.991c1.5771-.148 3.0091-.569 4.2781-1.279zm-3.4875 1.033c-1.2863.12-2.7222-.073-4.3216-.62l-.6471 1.892c1.8069.618 3.53.871 5.1552.719zm-4.3216-.62-6.7182-2.297-.647 1.892 6.7181 2.297zm-5.327-6.366 6.1031 2.087.6471-1.892-6.1031-2.087zm6.1031 2.087c1.5633.535 3.0582.565 4.3981-.059l-.8437-1.813c-.7548.351-1.695.394-2.9073-.02zm4.3803-.051c1.3546-.598 2.2826-1.663 2.7752-3.104l-1.8924-.647c-.327.957-.8877 1.567-1.6909 1.922zm2.7752-3.104.1941-.567-1.8924-.647-.1941.567zm.1941-.567c.4926-1.441.4109-2.851-.2938-4.154l-1.7591.952c.4178.772.4875 1.598.1605 2.555zm-.2846-4.136c-.6777-1.314-1.8781-2.205-3.4414-2.74l-.6471 1.893c1.2123.414 1.9294 1.024 2.3111 1.764zm-3.4414-2.74-6.1031-2.086-.6471 1.892 6.1031 2.087zm-7.3728-1.464-2.9766 8.705 1.8925.648 2.9765-8.706zm26.1812 2.294.3235-.946-.9462-.324-.3236.947zm6.245 2.135.9462.324.3235-.946-.9462-.324zm-9.2854 27.157-.9463-.324-.3235.947.9462.323zm15.0448 5.144.9462.324.3235-.947-.9462-.323zm-2.0383 5.961-.3235.946.9462.324.3235-.946zm-21.2898-7.279-.9463-.324-.3235.946.9462.324zm11.0001-32.172 6.2451 2.136.647-1.893-6.245-2.135zm5.6224.866-9.2855 27.156 1.8925.647 9.2854-27.156zm-8.6628 28.426 15.0449 5.144.647-1.892-15.0448-5.144zm14.4222 3.875-2.0383 5.961 1.8924.647 2.0383-5.961zm-.7685 5.338-21.2899-7.279-.6471 1.892 21.2899 7.279zm-20.6672-6.01 11.3237-33.117-1.8925-.647-11.3237 33.117zm46.6768 8.034.994.106.085-.794-.756-.258zm-11.26-3.85.323-.946-.755-.259-.42.68zm-4.0353 6.546-.3236.947.7558.258.4191-.68zm-6.5289-2.232-.8453-.534-.6768 1.07 1.1985.41zm19.2242-30.416.324-.946-.747-.256-.422.668zm11.733 4.012.996.095.075-.786-.747-.255zm-3.422 35.819-.324.946 1.199.41.12-1.261zm-6.529-2.233-.995-.106-.084.794.755.259zm-7.079-17.004-.85-.527-.661 1.067 1.187.406zm8.563 2.928-.324.946 1.185.405.133-1.245zm1.959-18.248.994.107.086-.795-.756-.258zm-.852-.291.324-.946-.754-.258-.42.677zm-1.45 24.023-11.26-3.85-.647 1.892 11.26 3.85zm-12.435-3.429-4.0346 6.547 1.7026 1.049 4.035-6.547zm-2.8598 6.125-6.5289-2.232-.6471 1.892 6.5289 2.233zm-6.0071-.752 19.2249-30.416-1.691-1.068-19.2245 30.416zm18.0559-30.004 11.733 4.012.647-1.892-11.733-4.012zm11.061 2.971-3.423 35.819 1.991.19 3.423-35.819zm-2.104 34.968-6.529-2.233-.647 1.893 6.529 2.232zm-5.858-1.18.818-7.647-1.989-.213-.818 7.647zm-8.397-16.165 8.563 2.928.648-1.893-8.564-2.928zm9.881 2.088 1.959-18.247-1.988-.214-1.959 18.248zm1.289-19.3-.852-.291-.647 1.892.852.291zm-2.026.128-9.67 15.611 1.7 1.053 9.671-15.611zm20.846 27.866.946.324.324-.946-.947-.324zm-1.419-.485-.997.087.057.649.616.21zm-2.166-24.731.324-.946-1.454-.497.134 1.531zm6.813 2.33.997-.078-.051-.656-.622-.212zm1.41 18.131-.997.078.051.655.622.213zm.851.291-.323.947.622.212.442-.487zm12.216-13.472.324-.946-.623-.213-.442.487zm6.813 2.329.734.679 1.043-1.128-1.454-.497zm-16.854 18.228-.323.946.616.211.441-.478zm-1.419-.485.323-.947-.946-.323-.323.946zm-3.98 11.638-.323.946.946.324.324-.946zm-6.245-2.135-.946-.324-.323.946.946.324zm4.303-12.585-1.419-.485-.647 1.892 1.419.486zm-.746.374-2.166-24.731-1.992.175 2.165 24.73zm-3.485-23.697 6.812 2.329.648-1.892-6.813-2.33zm6.139 1.46 1.41 18.132 1.994-.155-1.41-18.132zm2.083 19 .852.292.647-1.893-.852-.291zm1.916.017 12.216-13.472-1.482-1.344-12.215 13.473zm11.152-13.198 6.812 2.33.647-1.893-6.812-2.329zm6.402.704-16.854 18.228 1.468 1.358 16.854-18.228zm-15.796 17.961-1.42-.486-.647 1.893 1.42.485zm-2.689.137-3.98 11.639 1.893.647 3.979-11.639zm-2.71 11.016-6.245-2.135-.647 1.892 6.245 2.135zm-5.622-.866 3.979-11.638-1.892-.647-3.98 11.638z" fill="#fcbb00"/><path d="m186.838 143.673.324-.947-.947-.323-.323.946zm23.845 8.153.946.323.324-.946-.947-.324zm-2.038 5.961-.324.946.946.324.324-.947zm-8.8-3.009.323-.946-.946-.324-.323.946zm-9.286 27.156-.323.947.946.323.324-.946zm-6.245-2.135-.946-.324-.323.947.946.323zm9.286-27.156.946.323.323-.946-.946-.324zm-8.8-3.009-.946-.324-.324.946.946.324zm1.715-5.015 23.844 8.153.647-1.893-23.844-8.153zm23.222 6.883-2.039 5.961 1.893.647 2.038-5.961zm-.769 5.339-8.8-3.009-.647 1.892 8.8 3.009zm-10.069-2.387-9.286 27.157 1.893.647 9.285-27.157zm-8.016 26.534-6.245-2.135-.647 1.892 6.245 2.136zm-5.622-.865 9.285-27.157-1.892-.647-9.286 27.156zm8.662-28.427-8.8-3.008-.647 1.892 8.8 3.009zm-8.177-1.739 2.038-5.961-1.892-.647-2.038 5.961zm30.392 3.734.324-.946-.947-.324-.323.946zm6.245 2.135.946.324.324-.946-.946-.324zm-4.627 13.531-.946-.323-.323.946.946.323zm10.693 3.656-.324.946.946.324.324-.946zm4.626-13.531.324-.946-.946-.324-.324.947zm6.245 2.135.947.324.323-.946-.946-.324zm-11.323 33.118-.324.946.946.324.324-.946zm-6.245-2.135-.947-.324-.323.946.946.324zm4.658-13.626.947.324.323-.946-.946-.324zm-10.692-3.656.324-.946-.946-.323-.324.946zm-4.659 13.626-.323.946.946.324.324-.947zm-6.245-2.136-.946-.323-.323.946.946.324zm11-32.171 6.245 2.135.648-1.892-6.245-2.135zm5.623.866-4.627 13.531 1.893.647 4.626-13.531zm-4.004 14.8 10.692 3.656.647-1.892-10.692-3.656zm11.962 3.034 4.626-13.531-1.892-.647-4.626 13.531zm3.357-12.909 6.245 2.136.647-1.893-6.245-2.135zm5.622.866-11.324 33.118 1.893.647 11.324-33.118zm-10.054 32.495-6.245-2.135-.647 1.892 6.245 2.135zm-5.622-.866 4.659-13.625-1.893-.647-4.659 13.625zm4.036-14.895-10.692-3.656-.647 1.893 10.692 3.655zm-11.962-3.033-4.659 13.625 1.893.647 4.658-13.625zm-3.389 13.003-6.245-2.136-.647 1.893 6.245 2.135zm-5.622-.866 11.323-33.118-1.892-.647-11.324 33.118zm40.339-23.196.324-.947-.947-.323-.323.946zm20.912 7.15.946.323.323-.946-.946-.323zm-2.039 5.961-.323.946.946.324.324-.947zm-14.666-5.015.323-.946-.946-.324-.323.947zm-2.588 7.57-.947-.324-.323.947.946.323zm14.098 4.821.947.323.323-.946-.946-.324zm-2.038 5.961-.324.946.947.323.323-.946zm-14.099-4.821.324-.946-.946-.324-.324.947zm-2.62 7.664-.946-.323-.324.946.946.324zm15.234 5.209.946.324.324-.946-.947-.324zm-2.038 5.961-.324.947.946.323.324-.946zm-21.48-7.344-.946-.323-.323.946.946.323zm11.001-32.171 20.911 7.15.647-1.892-20.911-7.151zm20.288 5.88-2.038 5.961 1.893.647 2.038-5.961zm-.768 5.339-14.667-5.015-.647 1.892 14.667 5.015zm-15.936-4.392-2.589 7.569 1.893.647 2.588-7.569zm-1.966 8.839 14.099 4.821.647-1.893-14.099-4.82zm13.476 3.551-2.038 5.961 1.892.647 2.039-5.961zm-.768 5.339-14.099-4.821-.647 1.892 14.098 4.821zm-15.369-4.198-2.62 7.664 1.892.647 2.621-7.664zm-1.998 8.934 15.234 5.209.647-1.893-15.234-5.209zm14.612 3.939-2.039 5.961 1.893.647 2.038-5.961zm-.769 5.338-21.479-7.344-.647 1.892 21.479 7.345zm-20.856-6.074 11.323-33.118-1.892-.647-11.324 33.118zm71.139 5.618.323-.946-.946-.324-.324.946zm14.193 4.853.946.323.324-.946-.947-.323zm-5.727 16.748-.323.946.946.324.324-.947zm-5.677-1.941-.946-.324-.324.946.946.324zm1.262-3.691.946.324.324-.946-.947-.324zm-.852-.291.324-.946-.699-.239-.434.598zm-3.244 2.379.318.948.009-.003.008-.003zm-9.213-2.728.67-.742zm-2.596-3.688-.928.372.005.013zm-.895-4.956-1-.002v.006zm6.631-19.24-.771-.636-.006.008zm3.995-3.337-.453-.891-.006.003-.007.003zm4.8-1.212.03 1h.009l.009-.001zm10.061 3.493-.668.744.007.006.007.006zm2.912 3.849-.911.414.003.006.003.007zm1.055 4.641-1 .018v.007zm-.992 5.527-.323.946.946.323.324-.946zm-6.245-2.136-.946-.323-.323.946.946.324zm.17-5.596-.904.427.006.014.007.013zm-8.739-2.724.453.892.012-.006zm2.169 22.249-.455-.891zm2.842-3.52.946.323.323-.946-.946-.324zm-7.949-2.718-.946-.324-.323.947.946.323zm1.715-5.015 14.193 4.853.647-1.892-14.193-4.853zm13.571 3.583-5.727 16.748 1.893.647 5.726-16.748zm-4.457 16.126-5.677-1.942-.648 1.893 5.678 1.941zm-5.055-.672 1.262-3.69-1.892-.647-1.262 3.69zm.639-4.96-.851-.291-.647 1.892.851.292zm-1.984.068c-.673.926-1.584 1.602-2.77 2.023l.67 1.885c1.541-.548 2.793-1.458 3.718-2.733zm-2.753 2.017c-1.053.354-2.554.284-4.605-.418l-.647 1.893c2.239.765 4.236.975 5.888.422zm-4.605-.418c-1.392-.476-2.595-1.178-3.62-2.103l-1.34 1.484c1.236 1.116 2.678 1.953 4.313 2.512zm-3.62-2.103c-1.018-.919-1.799-2.026-2.343-3.331l-1.846.77c.656 1.571 1.606 2.924 2.849 4.045zm-2.338-3.318c-.536-1.336-.816-2.86-.823-4.588l-2 .008c.008 1.94.323 3.72.967 5.324zm-.823-4.582c.004-1.733.357-3.66 1.085-5.789l-1.893-.647c-.782 2.286-1.188 4.433-1.192 6.432zm1.085-5.789 2.652-7.759-1.892-.647-2.653 7.759zm2.652-7.759c.704-2.058 1.6-3.739 2.672-5.065l-1.555-1.257c-1.249 1.544-2.246 3.444-3.009 5.675zm2.665-5.057c1.131-1.368 2.362-2.39 3.69-3.089l-.932-1.77c-1.593.839-3.025 2.042-4.3 3.586zm3.677-3.082c1.358-.69 2.813-1.058 4.377-1.104l-.059-1.999c-1.852.054-3.598.494-5.224 1.32zm4.395-1.105c1.578-.075 3.226.174 4.951.763l.647-1.892c-1.934-.661-3.834-.957-5.693-.869zm4.951.763c1.787.611 3.243 1.442 4.394 2.475l1.336-1.488c-1.382-1.242-3.085-2.196-5.083-2.879zm4.408 2.487c1.174 1.017 2.055 2.185 2.655 3.507l1.821-.828c-.726-1.598-1.787-2.996-3.167-4.191zm2.661 3.52c.611 1.293.933 2.7.96 4.232l2-.035c-.032-1.8-.413-3.487-1.151-5.051zm.96 4.239c.037 1.506-.207 3.042-.744 4.61l1.893.647c.607-1.774.894-3.545.851-5.306zm-.744 4.61-.194.568 1.893.647.194-.568zm1.076-.055-6.245-2.135-.647 1.893 6.245 2.135zm-5.622-.865.194-.568-1.893-.647-.194.568zm.194-.568c.733-2.145.779-4.121-.08-5.806l-1.782.908c.533 1.046.595 2.422-.031 4.251zm-.066-5.778c-.8-1.695-2.312-2.856-4.353-3.553l-.647 1.892c1.681.575 2.683 1.437 3.191 2.514zm-4.353-3.553c-2.006-.686-3.948-.578-5.755.37l.929 1.771c1.283-.673 2.652-.771 4.179-.249zm-5.743.364c-1.89.959-3.261 3.097-4.268 6.041l1.893.647c.956-2.796 2.101-4.307 3.28-4.905zm-4.268 6.041-2.394 7.002 1.893.647 2.394-7.002zm-2.394 7.002c-.909 2.659-1.113 5.013-.396 6.953.735 1.987 2.359 3.336 4.643 4.117l.647-1.893c-1.878-.642-2.941-1.639-3.414-2.918-.491-1.327-.425-3.161.413-5.612zm4.247 11.07c2.021.691 3.891.735 5.491-.083l-.91-1.781c-.961.491-2.232.553-3.934-.029zm5.49-.083c1.598-.815 2.695-2.219 3.334-4.087l-1.893-.647c-.504 1.476-1.301 2.418-2.35 2.953zm2.711-5.357-7.948-2.717-.647 1.892 7.948 2.718zm-7.325-1.447 2.038-5.962-1.893-.647-2.038 5.961zm34.567 15.94.994.107.085-.794-.756-.259zm-11.26-3.85.323-.946-.756-.258-.419.68zm-4.036 6.547-.323.946.756.259.419-.68zm-6.528-2.232-.846-.535-.676 1.071 1.198.41zm19.224-30.416.324-.947-.747-.255-.422.667zm11.733 4.011.996.096.075-.786-.747-.256zm-3.423 35.82-.323.946 1.198.41.121-1.261zm-6.528-2.233-.995-.106-.085.794.756.258zm-7.079-17.005-.851-.526-.66 1.066 1.187.406zm8.563 2.928-.324.946 1.184.405.134-1.244zm1.959-18.247.994.106.085-.794-.756-.259zm-.852-.292.324-.946-.754-.258-.42.678zm-1.45 24.023-11.26-3.85-.647 1.893 11.26 3.85zm-12.435-3.428-4.035 6.546 1.703 1.05 4.035-6.547zm-2.86 6.125-6.529-2.233-.647 1.893 6.529 2.232zm-6.007-.752 19.224-30.416-1.69-1.069-19.225 30.416zm18.056-30.004 11.733 4.012.647-1.893-11.733-4.012zm11.061 2.97-3.423 35.819 1.991.191 3.423-35.819zm-2.104 34.968-6.529-2.232-.647 1.892 6.529 2.233zm-5.858-1.18.818-7.646-1.989-.213-.818 7.647zm-8.397-16.165 8.563 2.928.647-1.892-8.563-2.928zm9.881 2.089 1.959-18.248-1.988-.213-1.96 18.247zm1.288-19.301-.851-.291-.647 1.893.851.291zm-2.025.129-9.671 15.611 1.701 1.053 9.67-15.611zm17.876 2.86.324-.946-.947-.323-.323.946zm10.976 3.753.968.251.233-.897-.877-.3zm-6.616 25.533.946.323.012-.035.01-.037zm-1.65 4.826-.947-.324-.323.946.946.324zm1.135.388-.323.946.946.324.323-.947zm1.65-4.826-.919-.394-.015.035-.012.036zm10.402-24.238.323-.946-.877-.3-.365.851zm10.976 3.753.946.323.323-.946-.946-.323zm-11.324 33.117-.324.947.947.323.323-.946zm-5.677-1.941-.947-.323-.323.946.946.323zm7.57-22.141-.919-.394-.015.035-.012.035zm3.156-7.376.92.393.424-.99-1.02-.349zm-1.135-.388.323-.946-.871-.298-.368.843zm-12.619 28.87-.324.946.871.298.369-.844zm-9.368-3.203-.97-.241-.222.89.869.297zm7.604-30.585.971.241.221-.89-.868-.297zm-1.135-.388.323-.946-1.019-.349-.272 1.043zm-2.021 7.764.947.323.012-.035.009-.036zm-7.57 22.141-.324.946.946.324.324-.946zm-5.678-1.941-.946-.324-.323.947.946.323zm11.001-32.171 10.976 3.753.647-1.893-10.976-3.753zm10.331 2.556-6.616 25.532 1.936.502 6.616-25.533zm-6.595 25.459-1.65 4.826 1.893.647 1.65-4.826zm-1.027 6.096 1.136.388.647-1.892-1.136-.389zm2.405-.235 1.65-4.825-1.892-.647-1.65 4.825zm1.623-4.754 10.401-24.239-1.837-.789-10.402 24.239zm9.159-23.687 10.976 3.753.647-1.892-10.976-3.753zm10.353 2.483-11.323 33.118 1.892.647 11.324-33.118zm-10.054 32.495-5.677-1.941-.647 1.892 5.677 1.942zm-5.054-.671 7.571-22.142-1.893-.647-7.571 22.142zm7.544-22.072 3.156-7.376-1.839-.786-3.156 7.375zm2.56-8.715-1.136-.388-.647 1.892 1.136.388zm-2.375.157-12.62 28.87 1.833.801 12.619-28.87zm-11.38 28.325-9.367-3.203-.647 1.892 9.367 3.203zm-8.72-2.016 7.604-30.585-1.941-.482-7.604 30.585zm6.957-31.772-1.136-.388-.647 1.892 1.136.388zm-2.427.306-2.02 7.764 1.935.504 2.021-7.764zm-1.999 7.692-7.571 22.142 1.893.647 7.571-22.142zm-6.301 21.519-5.677-1.941-.647 1.892 5.677 1.941zm-5.054-.671 11.323-33.118-1.892-.647-11.324 33.117zm42.184-22.566.324-.946-.946-.324-.324.947zm20.912 7.15.946.324.324-.947-.947-.323zm-2.039 5.961-.323.947.946.323.324-.946zm-14.666-5.014.324-.947-.947-.323-.323.946zm-2.588 7.569-.946-.323-.324.946.946.324zm14.099 4.821.946.323.323-.946-.946-.323zm-2.039 5.961-.323.946.946.324.323-.946zm-14.098-4.821.323-.946-.946-.323-.324.946zm-2.621 7.665-.946-.324-.324.946.946.324zm15.234 5.209.946.323.324-.946-.946-.324zm-2.038 5.961-.324.946.946.324.324-.947zm-21.479-7.344-.947-.324-.323.946.946.324zm11-32.172 20.911 7.15.647-1.892-20.911-7.15zm20.289 5.881-2.039 5.961 1.893.647 2.038-5.961zm-.769 5.338-14.666-5.015-.647 1.893 14.666 5.015zm-15.936-4.392-2.588 7.57 1.892.647 2.588-7.57zm-1.966 8.84 14.099 4.82.647-1.892-14.099-4.821zm13.476 3.55-2.038 5.962 1.892.647 2.039-5.962zm-.768 5.339-14.099-4.821-.647 1.893 14.099 4.82zm-15.369-4.198-2.62 7.664 1.892.647 2.621-7.664zm-1.998 8.934 15.235 5.209.647-1.893-15.234-5.208zm14.612 3.939-2.038 5.961 1.892.647 2.038-5.961zm-.769 5.339-21.479-7.345-.647 1.893 21.479 7.344zm-20.856-6.075 11.324-33.117-1.893-.647-11.324 33.117zm36.349 6.246-.733-.68-.009.011-.009.01zm1.479-1.079.404.915.018-.009.018-.008zm1.743-.461.061.998.025-.002.024-.002zm3.454 1.181-.696.718.025.024.026.022zm1.143 1.447-.898.441.009.018.009.017zm.461 1.743-.999.042.001.034.004.034zm-4.443 10.212-.44-.898-.009.005-.009.004zm-6.429-.824-.946-.324-.324.946.946.324zm1.262-3.69.323-.947-.946-.323-.324.946zm4.227-.774.947.323.466-1.365-1.442.042zm-2.474-1.11.696-.719-.018-.017-.018-.016zm-1.095-1.432.897-.44zm-.509-1.759-.998.061.002.025.002.024zm1.214-1.54c.164-.48.404-.895.719-1.254l-1.503-1.319c-.494.562-.863 1.207-1.108 1.926zm.701-1.234c.364-.393.748-.667 1.149-.844l-.808-1.83c-.677.299-1.279.744-1.808 1.314zm1.185-.861c.432-.212.884-.332 1.364-.361l-.122-1.996c-.744.045-1.453.233-2.122.561zm1.413-.365c.467-.052.946.001 1.446.172l.647-1.892c-.761-.26-1.535-.354-2.313-.268zm1.446.172c.462.158.859.401 1.202.733l1.391-1.437c-.557-.539-1.209-.936-1.946-1.188zm1.253.779c.392.331.684.704.89 1.124l1.796-.881c-.334-.681-.804-1.272-1.397-1.772zm.908 1.159c.202.373.321.803.342 1.309l1.998-.083c-.033-.781-.221-1.513-.581-2.177zm.347 1.377c.052.475.001.938-.156 1.399l1.892.647c.252-.736.337-1.495.252-2.266zm-.156 1.399-1.974 5.772 1.892.647 1.974-5.772zm-1.974 5.772c-.327.957-.906 1.615-1.759 2.033l.88 1.796c1.347-.661 2.279-1.742 2.771-3.182zm-1.777 2.042c-.813.419-1.663.481-2.62.154l-.647 1.892c1.441.493 2.858.414 4.183-.268zm-2.62.154-3.028-1.035-.647 1.892 3.028 1.035zm-2.405.234 1.262-3.69-1.893-.647-1.261 3.69zm-.008-3.067 2.271.776.647-1.892-2.271-.777zm2.271.776c.599.205 1.272.244 1.89-.1.594-.331.939-.909 1.142-1.505l-1.892-.647c-.058.169-.115.274-.159.335-.022.03-.039.048-.049.058-.01.009-.016.012-.016.012s0 0-.002.001c-.001 0-.009.002-.027.003-.035.001-.112-.006-.24-.049zm3.032-1.605.195-.568-1.893-.647-.194.568zm-.781-1.891c-.159.005-.323-.019-.5-.08l-.647 1.893c.391.134.795.198 1.206.186zm-.5-.08c-.501-.171-.912-.422-1.249-.749l-1.391 1.437c.562.545 1.232.945 1.993 1.205zm-1.285-.782c-.362-.317-.646-.689-.858-1.12l-1.795.88c.328.669.774 1.252 1.334 1.743zm-.858-1.12c-.217-.444-.355-.919-.412-1.429l-1.988.22c.082.735.283 1.433.605 2.089zm-.407-1.38c-.029-.47.038-.961.215-1.479l-1.892-.647c-.255.743-.366 1.495-.32 2.248zm-255.778-37.171.324-.946-.946-.324-.324.946zm23.845 8.153.946.324.324-.947-.946-.323zm-2.038 5.961-.324.946.947.324.323-.946zm-8.8-3.009.324-.946-.947-.323-.323.946zm-9.285 27.157-.324.946.946.323.324-.946zm-6.245-2.136-.947-.323-.323.946.946.324zm9.285-27.156.946.323.324-.946-.946-.323zm-8.8-3.009-.946-.323-.324.946.947.323zm1.715-5.015 23.845 8.153.647-1.892-23.845-8.153zm23.222 6.883-2.038 5.962 1.892.647 2.038-5.961zm-.769 5.339-8.799-3.009-.648 1.892 8.8 3.009zm-10.069-2.386-9.286 27.156 1.893.647 9.285-27.156zm-8.016 26.533-6.245-2.135-.647 1.893 6.245 2.135zm-5.622-.865 9.285-27.157-1.892-.647-9.286 27.157zm8.663-28.426-8.8-3.009-.647 1.892 8.799 3.009zm-8.178-1.739 2.039-5.962-1.893-.647-2.038 5.962zm30.392 3.733.324-.946-.946-.324-.324.947zm6.245 2.136.947.323.323-.946-.946-.324zm-4.626 13.53-.946-.323-.324.946.946.324zm10.692 3.656-.324.947.947.323.323-.946zm4.627-13.531.323-.946-.946-.323-.324.946zm6.245 2.136.946.323.323-.946-.946-.323zm-11.324 33.117-.324.947.947.323.323-.946zm-6.245-2.135-.946-.323-.324.946.946.323zm4.659-13.625.946.323.323-.946-.946-.324zm-10.693-3.656.324-.947-.946-.323-.324.946zm-4.658 13.625-.324.946.946.324.324-.946zm-6.245-2.135-.947-.324-.323.946.946.324zm11-32.172 6.245 2.136.647-1.893-6.245-2.135zm5.622.866-4.626 13.531 1.892.647 4.627-13.531zm-4.004 14.801 10.692 3.656.648-1.893-10.693-3.656zm11.962 3.033 4.627-13.531-1.893-.647-4.626 13.531zm3.357-12.908 6.245 2.135.647-1.892-6.245-2.136zm5.622.865-11.323 33.118 1.892.647 11.324-33.118zm-10.054 32.495-6.245-2.135-.647 1.892 6.245 2.136zm-5.622-.865 4.659-13.626-1.892-.647-4.659 13.626zm4.036-14.896-10.692-3.656-.647 1.893 10.692 3.656zm-11.962-3.033-4.659 13.626 1.893.647 4.659-13.626zm-3.389 13.003-6.245-2.135-.647 1.892 6.245 2.135zm-5.622-.866 11.323-33.117-1.892-.647-11.324 33.117zm40.339-23.196.324-.946-.946-.324-.324.946zm20.912 7.15.946.324.324-.947-.947-.323zm-2.038 5.961-.324.947.946.323.324-.946zm-14.667-5.014.324-.947-.946-.323-.324.946zm-2.588 7.569-.946-.323-.324.946.946.323zm14.099 4.821.946.323.323-.946-.946-.323zm-2.039 5.961-.323.946.946.324.323-.946zm-14.098-4.821.323-.946-.946-.323-.324.946zm-2.621 7.665-.946-.324-.324.946.946.324zm15.234 5.209.946.323.324-.946-.946-.324zm-2.038 5.961-.324.946.947.324.323-.947zm-21.479-7.344-.946-.324-.324.946.946.324zm11-32.172 20.911 7.15.647-1.892-20.911-7.15zm20.289 5.881-2.039 5.961 1.893.647 2.038-5.961zm-.769 5.338-14.666-5.015-.647 1.893 14.666 5.015zm-15.936-4.392-2.588 7.57 1.892.647 2.588-7.57zm-1.966 8.839 14.099 4.821.647-1.892-14.099-4.821zm13.476 3.551-2.038 5.962 1.892.647 2.039-5.962zm-.768 5.339-14.099-4.821-.647 1.893 14.099 4.82zm-15.369-4.198-2.62 7.664 1.892.647 2.621-7.664zm-1.998 8.934 15.235 5.209.647-1.893-15.234-5.208zm14.612 3.939-2.038 5.961 1.892.647 2.038-5.961zm-.769 5.339-21.479-7.345-.647 1.893 21.479 7.344zm-20.856-6.075 11.324-33.117-1.893-.648-11.323 33.118zm71.139 5.618.323-.946-.946-.324-.323.947zm14.193 4.853.946.324.324-.946-.946-.324zm-5.726 16.748-.324.946.946.324.324-.946zm-5.678-1.941-.946-.324-.323.947.946.323zm1.262-3.69.946.323.324-.946-.946-.323zm-.852-.291.324-.947-.699-.239-.434.598zm-3.243 2.378.317.948.009-.003.009-.003zm-9.214-2.727.671-.743zm-2.596-3.689-.928.372.005.013zm-.895-4.956-1-.002v.006zm6.632-19.239-.771-.637-.007.008zm3.994-3.337-.453-.892-.006.003-.007.004zm4.801-1.212.029.999h.009l.009-.001zm10.061 3.493-.669.744.007.006.007.006zm2.911 3.848-.911.414.003.007.004.006zm1.055 4.641-1 .018v.007zm-.991 5.527-.324.946.946.324.324-.947zm-6.245-2.135-.946-.324-.324.946.946.324zm.169-5.596-.904.426.006.014.007.014zm-8.738-2.724.452.892.012-.007zm2.168 22.248-.454-.891h-.001zm2.842-3.52.946.324.324-.947-.947-.323zm-7.948-2.718-.947-.323-.323.946.946.324zm1.714-5.015 14.194 4.853.647-1.892-14.194-4.853zm13.571 3.584-5.727 16.748 1.893.647 5.726-16.748zm-4.457 16.125-5.677-1.941-.647 1.892 5.677 1.941zm-5.054-.671 1.261-3.691-1.892-.647-1.262 3.69zm.639-4.96-.852-.292-.647 1.893.852.291zm-1.985.067c-.672.927-1.583 1.602-2.77 2.024l.671 1.884c1.541-.548 2.792-1.458 3.718-2.733zm-2.752 2.018c-1.054.353-2.554.283-4.605-.418l-.647 1.892c2.238.766 4.236.976 5.887.422zm-4.605-.418c-1.393-.476-2.595-1.178-3.62-2.104l-1.341 1.485c1.236 1.116 2.678 1.952 4.314 2.511zm-3.62-2.104c-1.019-.919-1.799-2.026-2.344-3.331l-1.846.77c.656 1.572 1.607 2.924 2.849 4.046zm-2.339-3.318c-.535-1.336-.816-2.86-.823-4.588l-2 .008c.008 1.941.324 3.72.967 5.324zm-.823-4.582c.004-1.733.357-3.66 1.085-5.789l-1.893-.647c-.781 2.287-1.187 4.433-1.192 6.432zm1.085-5.789 2.653-7.759-1.893-.647-2.653 7.759zm2.653-7.759c.704-2.058 1.6-3.739 2.671-5.065l-1.555-1.257c-1.248 1.545-2.246 3.444-3.009 5.675zm2.665-5.056c1.13-1.369 2.361-2.391 3.689-3.089l-.932-1.77c-1.593.838-3.025 2.042-4.299 3.585zm3.676-3.083c1.358-.69 2.813-1.058 4.377-1.104l-.059-1.999c-1.852.054-3.597.494-5.224 1.32zm4.395-1.105c1.578-.074 3.227.174 4.951.764l.647-1.893c-1.934-.661-3.834-.957-5.693-.868zm4.951.764c1.787.611 3.244 1.441 4.394 2.475l1.337-1.488c-1.383-1.242-3.086-2.197-5.084-2.88zm4.408 2.487c1.175 1.017 2.055 2.185 2.655 3.506l1.821-.827c-.726-1.598-1.786-2.996-3.167-4.191zm2.662 3.519c.61 1.293.932 2.7.959 4.232l2-.035c-.032-1.8-.413-3.487-1.151-5.05zm.959 4.239c.037 1.507-.207 3.042-.743 4.611l1.892.647c.607-1.775.894-3.545.851-5.307zm-.743 4.611-.194.567 1.892.647.194-.567zm1.075-.055-6.245-2.136-.647 1.893 6.245 2.135zm-5.622-.866.194-.568-1.892-.647-.194.568zm.194-.568c.734-2.145.779-4.121-.08-5.806l-1.782.909c.533 1.045.595 2.422-.03 4.25zm-.066-5.778c-.799-1.695-2.312-2.855-4.353-3.553l-.647 1.892c1.682.575 2.683 1.437 3.191 2.514zm-4.353-3.553c-2.005-.686-3.948-.577-5.755.37l.929 1.771c1.284-.673 2.653-.771 4.179-.249zm-5.743.364c-1.89.959-3.261 3.098-4.267 6.042l1.892.647c.956-2.797 2.101-4.307 3.28-4.906zm-4.267 6.042-2.395 7.002 1.893.647 2.394-7.002zm-2.395 7.002c-.909 2.659-1.113 5.012-.395 6.952.735 1.987 2.358 3.336 4.643 4.117l.647-1.892c-1.879-.643-2.941-1.639-3.415-2.919-.49-1.326-.425-3.161.413-5.611zm4.248 11.069c2.02.691 3.89.735 5.49-.083l-.91-1.781c-.961.492-2.232.553-3.933-.028zm5.49-.082c1.597-.815 2.694-2.22 3.333-4.087l-1.892-.648c-.505 1.476-1.302 2.418-2.35 2.953zm2.71-5.357-7.948-2.718-.647 1.893 7.948 2.717zm-7.325-1.448 2.038-5.961-1.892-.647-2.039 5.961zm34.567 15.941.994.106.085-.794-.756-.258zm-11.26-3.85.323-.946-.755-.259-.419.68zm-4.035 6.546-.324.947.756.258.419-.68zm-6.529-2.232-.845-.534-.677 1.07 1.198.41zm19.224-30.416.324-.946-.747-.256-.422.668zm11.734 4.012.995.095.075-.786-.747-.255zm-3.423 35.819-.324.946 1.199.41.12-1.261zm-6.529-2.233-.994-.106-.085.794.755.259zm-7.079-17.004-.85-.527-.661 1.067 1.187.406zm8.563 2.928-.324.946 1.185.405.133-1.245zm1.959-18.248.994.107.086-.795-.756-.258zm-.851-.291.323-.946-.754-.258-.42.677zm-1.451 24.023-11.26-3.85-.647 1.892 11.26 3.85zm-12.434-3.429-4.036 6.547 1.703 1.049 4.035-6.547zm-2.861 6.125-6.529-2.232-.647 1.892 6.529 2.233zm-6.007-.752 19.225-30.416-1.691-1.068-19.224 30.416zm18.056-30.004 11.733 4.012.647-1.892-11.733-4.012zm11.061 2.971-3.423 35.819 1.991.19 3.423-35.819zm-2.104 34.968-6.529-2.233-.647 1.893 6.529 2.232zm-5.858-1.18.818-7.647-1.989-.213-.817 7.647zm-8.397-16.165 8.563 2.928.648-1.893-8.564-2.928zm9.881 2.088 1.959-18.247-1.988-.214-1.959 18.248zm1.289-19.3-.852-.291-.647 1.892.852.291zm-2.026.128-9.67 15.611 1.7 1.053 9.671-15.611zm17.876 2.861.324-.946-.946-.324-.324.946zm10.976 3.753.968.251.233-.898-.877-.3zm-6.616 25.532.946.324.012-.036.01-.037zm-1.65 4.826-.946-.324-.324.947.946.323zm1.135.388-.323.946.946.324.324-.946zm1.65-4.825-.919-.395-.015.035-.012.036zm10.402-24.239.323-.946-.877-.3-.365.852zm10.976 3.753.946.324.324-.947-.947-.323zm-11.324 33.118-.323.946.946.323.323-.946zm-5.677-1.942-.946-.323-.324.946.946.324zm7.571-22.141-.92-.393-.014.034-.013.035zm3.156-7.376.919.394.424-.991-1.02-.349zm-1.136-.388.324-.946-.871-.298-.369.844zm-12.619 28.87-.324.946.872.298.368-.843zm-9.368-3.203-.97-.241-.221.89.868.297zm7.605-30.585.97.242.222-.891-.869-.297zm-1.136-.388.324-.946-1.02-.349-.272 1.043zm-2.02 7.764.946.324.012-.036.009-.036zm-7.571 22.142-.324.946.947.323.323-.946zm-5.677-1.942-.947-.323-.323.946.946.324zm11-32.171 10.976 3.753.647-1.893-10.976-3.752zm10.331 2.556-6.616 25.532 1.936.502 6.616-25.532zm-6.594 25.46-1.65 4.825 1.892.648 1.65-4.826zm-1.028 6.095 1.136.388.647-1.892-1.136-.388zm2.406-.234 1.65-4.826-1.893-.647-1.65 4.826zm1.622-4.755 10.402-24.239-1.838-.788-10.402 24.238zm9.159-23.687 10.976 3.753.647-1.892-10.976-3.753zm10.354 2.484-11.324 33.117 1.892.647 11.324-33.117zm-10.054 32.494-5.678-1.941-.647 1.893 5.678 1.941zm-5.055-.671 7.571-22.141-1.893-.648-7.57 22.142zm7.544-22.072 3.156-7.375-1.839-.787-3.156 7.376zm2.56-8.715-1.135-.388-.647 1.892 1.135.389zm-2.375.158-12.619 28.87 1.832.801 12.619-28.87zm-11.379 28.324-9.368-3.203-.647 1.892 9.367 3.203zm-8.721-2.016 7.604-30.584-1.941-.483-7.604 30.585zm6.957-31.772-1.135-.388-.647 1.892 1.135.389zm-2.427.306-2.02 7.764 1.935.504 2.021-7.764zm-1.999 7.693-7.57 22.141 1.892.647 7.571-22.141zm-6.301 21.518-5.677-1.941-.647 1.893 5.677 1.941zm-5.054-.671 11.324-33.118-1.893-.647-11.324 33.118zm42.185-22.566.323-.946-.946-.323-.324.946zm20.911 7.151.946.323.324-.946-.946-.324zm-2.038 5.961-.324.946.946.323.324-.946zm-14.667-5.015.324-.946-.946-.324-.324.946zm-2.588 7.57-.946-.324-.324.946.947.324zm14.099 4.82.946.324.324-.946-.947-.324zm-2.039 5.961-.323.947.946.323.324-.946zm-14.098-4.82.323-.946-.946-.324-.323.946zm-2.621 7.664-.946-.323-.324.946.947.323zm15.234 5.209.947.324.323-.947-.946-.323zm-2.038 5.961-.323.946.946.324.323-.946zm-21.479-7.344-.946-.324-.324.947.946.323zm11-32.171 20.911 7.15.648-1.893-20.912-7.15zm20.289 5.88-2.038 5.961 1.892.647 2.038-5.961zm-.769 5.338-14.666-5.014-.647 1.892 14.666 5.015zm-15.936-4.392-2.588 7.57 1.892.647 2.589-7.57zm-1.965 8.84 14.098 4.82.647-1.892-14.098-4.821zm13.476 3.551-2.039 5.961 1.893.647 2.038-5.961zm-.769 5.338-14.099-4.82-.647 1.892 14.099 4.821zm-15.368-4.198-2.621 7.665 1.892.647 2.621-7.665zm-1.998 8.934 15.234 5.209.647-1.892-15.234-5.209zm14.611 3.94-2.038 5.961 1.892.647 2.039-5.961zm-.768 5.338-21.48-7.344-.647 1.892 21.48 7.344zm-20.857-6.074 11.324-33.118-1.893-.647-11.323 33.117zm53.066-18.845.947.323.323-.946-.946-.323zm-7.894 23.087-.323.947.946.323.323-.946zm-6.245-2.135-.946-.323-.324.946.947.323zm7.894-23.088.324-.946-.946-.323-.324.946zm-3.389 33.559-.733-.68-.01.01-.009.01zm-1.432 1.095.404.915.019-.008.018-.009zm-1.774.398-.041-.999-.035.001-.034.004zm-3.453-1.181.695-.718-.017-.018-.019-.016zm-1.112-1.384-.898.44.009.018.009.018zm-.509-1.759-.999.041.002.035.004.034zm1.214-3.549-.734-.68-.009.011-.009.01zm1.479-1.079.404.915.018-.009.018-.008zm1.742-.461.062.998.024-.001.025-.003zm3.454 1.181-.696.718.025.024.027.022zm1.143 1.447-.898.441.009.018.01.017zm.461 1.743-.999.042.001.034.004.034zm7.475-28.198-7.894 23.088 1.892.647 7.895-23.088zm-6.624 22.465-6.245-2.135-.647 1.892 6.245 2.136zm-5.623-.865 7.895-23.088-1.893-.647-7.894 23.088zm6.625-22.465 6.245 2.135.647-1.892-6.245-2.136zm-3.019 30.62c-.171.5-.431.934-.78 1.312l1.466 1.36c.543-.586.946-1.264 1.206-2.025zm-.799 1.332c-.317.362-.688.646-1.12.858l.881 1.795c.668-.328 1.251-.774 1.743-1.334zm-1.084.841c-.415.183-.881.291-1.411.313l.083 1.998c.757-.031 1.472-.188 2.136-.482zm-1.48.318c-.474.053-.937.002-1.399-.156l-.647 1.892c.737.252 1.496.337 2.266.252zm-1.399-.156c-.5-.171-.911-.423-1.249-.749l-1.391 1.436c.562.545 1.232.945 1.993 1.205zm-1.285-.783c-.375-.329-.67-.698-.892-1.108l-1.759.952c.339.627.786 1.181 1.332 1.66zm-.873-1.073c-.218-.444-.356-.918-.413-1.428l-1.987.22c.081.735.282 1.433.604 2.089zm-.407-1.36c-.022-.515.053-1.028.23-1.546l-1.892-.647c-.255.744-.369 1.505-.337 2.276zm.23-1.546c.177-.518.425-.947.735-1.301l-1.503-1.319c-.498.567-.87 1.23-1.124 1.973zm.717-1.281c.364-.393.748-.667 1.15-.844l-.809-1.83c-.677.299-1.279.744-1.808 1.314zm1.186-.861c.432-.212.884-.332 1.364-.361l-.123-1.996c-.743.045-1.453.233-2.122.561zm1.413-.365c.466-.052.945.001 1.446.172l.647-1.892c-.761-.26-1.536-.354-2.314-.268zm1.446.172c.461.158.859.401 1.201.733l1.392-1.437c-.557-.539-1.209-.936-1.946-1.188zm1.253.779c.391.331.684.704.889 1.124l1.796-.881c-.334-.681-.804-1.272-1.396-1.772zm.908 1.159c.201.373.32.803.341 1.309l1.998-.083c-.032-.781-.221-1.513-.58-2.177zm.346 1.377c.052.467-.001.946-.172 1.447l1.892.647c.26-.761.354-1.536.268-2.314z" fill="#30efd3"/><path d="m25.1648 204.803.1001.995h.0089l.0088-.002zm2.2993-.851-.5897-.808-.0085.006zm1.6268-1.822.8645.503.0036-.007zm1.3851-3.278.3236-.947-.9462-.323-.3236.946zm6.2451 2.135.9462.324.3235-.947-.9462-.323zm-6.5358 8.915-.4537-.891h-.0002zm-17.8811-6.431.9069-.421zm5.4503-23.976.7919.61.0034-.004zm3.916-3.417.4658.885.012-.007zm4.7854-1.323.0474.999h.009l.0089-.001zm13.2898 7.186-.9108.413.0032.007.0033.007zm.9917 4.672-.9999-.007-.0001.009.0001.009zm-1.2339 6.237-.3236.946.9462.323.3236-.946zm-6.2451-2.136-.9462-.323-.3235.946.9462.323zm.8162-3.314.9956.094zm-1.4984-4.581-.7352.678.0111.012.0115.012zm-5.5354-1.893.1338.991.0162-.002.0162-.003zm-2.4424.962.5565.83.0093-.006.0091-.006zm-1.9443 1.977-.8261-.564-.0069.01-.0065.011zm-4.8207 14.099-.9957-.093-.0007.008zm1.5595 4.866-.7126.702.0173.017.0181.017zm2.3371 2.437c1.2794.438 2.4677.639 3.5349.531l-.2002-1.99c-.684.069-1.5698-.051-2.6876-.433zm3.5526.529c1.0565-.125 1.998-.46 2.7797-1.043l-1.1964-1.603c-.4482.335-1.0395.568-1.8189.66zm2.7711-1.037c.7739-.565 1.4079-1.278 1.9016-2.126l-1.7288-1.006c-.3609.621-.8114 1.122-1.3521 1.517zm1.9053-2.133c.4702-.822.8608-1.689 1.1721-2.599l-1.8925-.647c-.271.793-.6097 1.543-1.0158 2.253zm1.1721-2.599.2912-.852-1.8925-.647-.2912.852zm-.9786-.229 6.245 2.135.6471-1.892-6.245-2.136zm5.6224.866-.2912.851 1.8924.647.2912-.851zm-.2912.851c-1.2917 3.778-3.2353 6.215-5.7521 7.496l.9073 1.782c3.1133-1.585 5.3327-4.523 6.7372-8.631zm-5.7523 7.496c-2.4584 1.252-5.5189 1.332-9.2955.041l-.6471 1.892c4.1086 1.405 7.7634 1.421 10.8503-.151zm-9.2955.041c-3.579-1.224-5.9403-3.238-7.2248-6.002l-1.8138.842c1.5567 3.351 4.4008 5.688 8.3915 7.052zm-7.2248-6.002c-1.2759-2.746-1.2856-6.199.1732-10.465l-1.8924-.647c-1.56083 4.565-1.65984 8.586-.0946 11.954zm.1732-10.465 2.5236-7.381-1.8925-.647-2.5235 7.381zm2.5236-7.381c.6939-2.029 1.5776-3.723 2.6385-5.099l-1.5838-1.221c-1.2178 1.579-2.196 3.476-2.9472 5.673zm2.6419-5.103c1.075-1.411 2.2727-2.447 3.5865-3.138l-.9315-1.77c-1.6074.846-3.0205 2.088-4.2457 3.696zm3.5985-3.145c1.3352-.726 2.7826-1.127 4.355-1.202l-.0948-1.998c-1.8653.089-3.6081.569-5.2158 1.444zm4.3729-1.203c1.5792-.103 3.2577.138 5.0443.749l.6471-1.892c-1.9984-.684-3.9419-.976-5.822-.853zm5.0443.749c1.8651.638 3.3913 1.462 4.6014 2.457l1.2703-1.544c-1.4296-1.176-3.1788-2.106-5.2246-2.805zm4.6014 2.457c1.2134.998 2.0946 2.13 2.668 3.395l1.8216-.826c-.7118-1.57-1.7931-2.941-3.2193-4.113zm2.6745 3.409c.6057 1.283.908 2.691.8961 4.238l1.9999.015c.0141-1.826-.3448-3.533-1.0874-5.107zm.8961 4.256c.0171 1.566-.2724 3.247-.8891 5.05l1.8925.648c.6774-1.982 1.0165-3.89.9965-5.72zm-.8891 5.05-.2912.852 1.8925.647.2912-.851zm.9786.229-6.245-2.135-.6471 1.892 6.245 2.136zm-5.6223-.865.2911-.852-1.8924-.647-.2912.852zm.2911-.852c.2958-.865.4868-1.763.5744-2.692l-1.9912-.188c-.0732.777-.2321 1.521-.4756 2.233zm.5744-2.692c.0915-.972.0093-1.915-.2532-2.824l-1.9214.555c.1893.655.2526 1.346.1834 2.081zm-.2532-2.824c-.2765-.957-.7959-1.809-1.5283-2.553l-1.4251 1.404c.5227.53.8568 1.098 1.032 1.704zm-1.5057-2.529c-.7598-.824-1.7956-1.429-3.04-1.854l-.647 1.892c1.0265.351 1.7429.804 2.2167 1.318zm-3.04-1.854c-1.1655-.399-2.3045-.531-3.3967-.347l.3324 1.972c.7022-.118 1.5011-.046 2.4173.267zm-3.3643-.352c-1.0474.142-2.0125.522-2.8836 1.135l1.1499 1.636c.6127-.431 1.2759-.691 2.0013-.789zm-2.8652 1.122c-.851.57-1.5868 1.325-2.2138 2.244l1.6522 1.128c.503-.738 1.0634-1.301 1.6747-1.711zm-2.2272 2.265c-.5704.881-1.0335 1.848-1.3924 2.898l1.8925.647c.3098-.906.7037-1.725 1.1789-2.459zm-1.3924 2.898-2.8471 8.326 1.8925.647 2.8471-8.326zm-2.8471 8.326c-.3887 1.137-.6372 2.246-.7374 3.325l1.9914.185c.0837-.901.2939-1.855.6385-2.863zm-.7381 3.333c-.0906 1.069-.0001 2.088.2866 3.045l1.916-.573c-.2067-.69-.2816-1.455-.2098-2.303zm.2866 3.045c.2952.987.8194 1.859 1.5567 2.608l1.4251-1.404c-.5178-.526-.8678-1.115-1.0658-1.777zm1.5921 2.642c.7963.733 1.8147 1.291 3.0143 1.701l.6471-1.892c-1.0082-.345-1.7636-.781-2.307-1.281zm31.845-17.663-.4773-.878-.0063.003zm17.9308 6.131-.9183.396.0029.007zm-9.3825 27.441-.4654-.885-.0064.003zm-17.9308-6.131-.9129.408.003.007zm12.766 1.3.1001.995.0169-.002.0168-.002zm2.3789-.931.582.814zm1.8024-2.025.8611.508zm4.7734-14.115.9957.092zm-.232-2.722.958-.286zm-1.3113-2.192-.7352.678.0111.012.0115.012zm-5.4881-1.876.1338.991.0162-.002.0162-.003zm-2.3789.93-.582-.813zm-1.8497 2.01-.8439-.537zm-4.868 14.082-.9921-.125zm.1847 2.705.958-.286zm1.3113 2.193-.7125.701.0118.012.0123.012zm-3.3904-17.594c1.4144-4.136 3.4971-6.854 6.1679-8.33l-.9673-1.751c-3.2364 1.789-5.574 4.992-7.093 9.434zm6.1615-8.327c2.6934-1.463 5.7958-1.64 9.4015-.407l.6471-1.893c-4.0271-1.377-7.7263-1.237-11.0032.543zm9.4015-.407c3.6061 1.233 5.9313 3.266 7.1337 6.055l1.8366-.792c-1.4693-3.408-4.2965-5.779-8.3232-7.156zm7.1366 6.062c1.2367 2.812 1.2336 6.239-.1796 10.373l1.8924.647c1.5202-4.446 1.6163-8.418.118-11.825zm-.1796 10.373-2.5236 7.38 1.8924.647 2.5236-7.38zm-2.5236 7.38c-1.46 4.27-3.5679 7-6.2293 8.4l.9308 1.77c3.2658-1.718 5.6313-4.961 7.1909-9.523zm-6.2357 8.403c-2.6363 1.411-5.7132 1.567-9.3273.332l-.647 1.892c4.0187 1.374 7.6902 1.267 10.918-.461zm-9.3273.332c-3.6136-1.236-5.9698-3.25-7.2218-5.996l-1.8198.83c1.5261 3.347 4.3754 5.684 8.3946 7.058zm-7.2188-5.99c-1.2189-2.725-1.1992-6.172.2619-10.445l-1.8925-.647c-1.5585 4.558-1.6912 8.563-.1952 11.909zm.2619-10.445 2.5235-7.381-1.8924-.647-2.5236 7.381zm8.2511 12.65c1.2248.419 2.3795.606 3.4402.499l-.2002-1.99c-.6905.069-1.5469-.044-2.593-.402zm3.4739.495c1.0413-.141 1.9895-.509 2.8271-1.108l-1.1639-1.627c-.5616.402-1.1994.654-1.9308.753zm2.8271-1.108c.8283-.593 1.519-1.379 2.0815-2.331l-1.7221-1.017c-.4416.748-.9525 1.313-1.5233 1.721zm2.0815-2.331c.5421-.918 1.0087-1.959 1.4043-3.116l-1.8924-.647c-.3593 1.051-.7722 1.964-1.234 2.746zm1.4043-3.116 2.7824-8.137-1.8924-.647-2.7824 8.137zm2.7824-8.137c.3788-1.108.6213-2.201.7213-3.278l-1.9915-.185c-.0839.904-.2893 1.842-.6222 2.816zm.7213-3.278c.102-1.098.0189-2.136-.2697-3.1l-1.9161.573c.2046.684.2763 1.46.1943 2.342zm-.2697-3.1c-.2953-.987-.8195-1.859-1.5568-2.607l-1.4251 1.403c.5179.526.8679 1.116 1.0658 1.777zm-1.5342-2.584c-.7539-.817-1.7536-1.414-2.9453-1.821l-.6471 1.892c.953.326 1.6425.765 2.1221 1.285zm-2.9453-1.821c-1.1918-.408-2.3474-.548-3.4441-.363l.3324 1.972c.6976-.118 1.5116-.043 2.4646.283zm-3.4117-.368c-1.0413.14-1.9895.509-2.8271 1.108l1.1639 1.626c.5616-.401 1.1994-.654 1.9308-.752zm-2.8271 1.108c-.8187.586-1.5199 1.356-2.1116 2.286l1.6878 1.073c.4753-.747 1.0073-1.317 1.5877-1.733zm-2.1116 2.286c-.5802.913-1.0577 1.925-1.4365 3.033l1.8925.647c.333-.974.7449-1.841 1.2318-2.607zm-1.4365 3.033-2.7824 8.138 1.8925.647 2.7824-8.138zm-2.7824 8.138c-.3956 1.157-.6639 2.265-.7973 3.323l1.9843.25c.1136-.901.3462-1.875.7055-2.926zm-.7973 3.323c-.1384 1.097-.0732 2.141.2188 3.117l1.916-.573c-.2012-.673-.2592-1.432-.1505-2.294zm.2188 3.117c.2953.987.8195 1.858 1.5568 2.607l1.425-1.403c-.5178-.526-.8678-1.116-1.0658-1.777zm1.5809 2.631c.7734.734 1.8007 1.293 3.0256 1.712l.647-1.893c-1.046-.357-1.7925-.792-2.2958-1.27zm29.6259-21.638.3235-.946-.9462-.324-.3235.947zm20.1612 10.117-.8907.455.0038.007zm-9.3664 27.393.4183.908.0075-.003zm-22.1185-4.392-.9462-.324-.3236.946.9463.324zm2.0544-6.009.3236-.946-.9462-.324-.3236.947zm3.1225 1.068-.3235.946.9462.324.3236-.947zm7.231-21.148.9463.323.3235-.946-.9462-.323zm-3.1225-1.068-.9462-.323-.3235.946.9462.324zm9.8293 25.343-.5122-.858-.0023.001zm6.228-18.214-.926.377.0034.009.0036.008zm-6.6897-3.926.3235-.946-.9462-.323-.3235.946zm-7.2472 21.196-.9462-.324-.3235.946.9462.324zm-.4056-29.414 12.0169 4.109.6471-1.892-12.017-4.109zm12.0169 4.109c3.9717 1.358 6.4123 3.235 7.5771 5.517l1.7813-.91c-1.4936-2.925-4.4825-5.053-8.7113-6.499zm7.5809 5.524c1.165 2.236 1.2182 5.214-.1038 9.081l1.8924.647c1.4172-4.145 1.5001-7.744-.0149-10.652zm-.1038 9.081-3.3001 9.651 1.8925.647 3.3-9.651zm-3.3001 9.651c-1.3215 3.865-3.1935 6.208-5.5013 7.294l.8515 1.81c2.982-1.403 5.1246-4.31 6.5423-8.457zm-5.4938 7.291c-2.3081 1.063-5.3845 1.038-9.3598-.322l-.6471 1.893c4.2253 1.445 7.8832 1.609 10.8434.245zm-9.3598-.322-12.017-4.108-.647 1.892 12.0169 4.109zm-11.3943-2.839 2.0545-6.008-1.8925-.647-2.0544 6.008zm.7847-5.386 3.1225 1.068.6471-1.892-3.1225-1.068zm4.3923.445 7.231-21.148-1.8925-.647-7.231 21.148zm6.6083-22.417-3.1225-1.068-.6471 1.893 3.1225 1.067zm-2.4999.202 2.0383-5.961-1.8924-.647-2.0383 5.961zm3.5001 25.927c2.2787.779 4.3232.895 5.8976-.05l-1.0291-1.715c-.819.491-2.1476.581-4.2215-.128zm5.8952-.049c1.5331-.914 2.6309-2.633 3.4088-4.908l-1.8925-.647c-.7103 2.078-1.5957 3.274-2.5407 3.838zm3.4088-4.908 3.1059-9.083-1.8925-.648-3.1059 9.084zm3.1059-9.083c.6926-2.026.8019-3.887.1202-5.476l-1.8381.788c.4159.97.427 2.281-.1746 4.04zm.1272-5.46c-.6818-1.672-2.3718-2.811-4.6429-3.588l-.6471 1.892c2.0815.712 3.0851 1.586 3.4379 2.451zm-4.6429-3.588-2.6494-.906-.6471 1.893 2.6494.905zm-3.9191-.283-7.2472 21.195 1.8924.647 7.2472-21.195zm-6.6245 22.465 2.6494.906.647-1.893-2.6494-.906zm30.913-20.818.324-.947-.946-.323-.324.946zm20.912 7.15.946.323.323-.946-.946-.324zm-2.039 5.961-.323.946.946.324.324-.947zm-14.666-5.015.324-.946-.947-.324-.323.947zm-2.588 7.57-.946-.324-.324.946.946.324zm14.098 4.82.947.324.323-.946-.946-.324zm-2.038 5.962-.323.946.946.323.323-.946zm-14.099-4.821.324-.946-.946-.324-.324.946zm-2.62 7.664-.946-.323-.324.946.946.324zm15.234 5.209.946.324.324-.946-.947-.324zm-2.038 5.961-.324.947.946.323.324-.946zm-21.4795-7.344-.9462-.323-.3235.946.9462.323zm11.0005-32.171 20.911 7.15.647-1.893-20.911-7.15zm20.288 5.88-2.038 5.961 1.893.647 2.038-5.961zm-.768 5.339-14.666-5.015-.648 1.892 14.667 5.015zm-15.936-4.392-2.588 7.569 1.892.647 2.588-7.569zm-1.966 8.839 14.099 4.821.647-1.893-14.099-4.82zm13.476 3.551-2.038 5.961 1.892.647 2.039-5.961zm-.768 5.338-14.099-4.82-.647 1.892 14.099 4.821zm-15.369-4.198-2.62 7.665 1.892.647 2.621-7.665zm-1.998 8.935 15.234 5.208.647-1.892-15.234-5.209zm14.612 3.939-2.039 5.961 1.893.647 2.038-5.961zm-.769 5.338-21.4789-7.344-.6471 1.892 21.479 7.345zm-20.8563-6.074 11.3233-33.118-1.892-.647-11.3237 33.118z" fill="#ff39a6"/></svg>