<svg fill="none" height="47" viewBox="0 0 657 47" width="657" xmlns="http://www.w3.org/2000/svg"><path d="m9.32787 29.8453-.00208-1-1 .0021.00209 1zm.03303 15.84.00208 1 1.00002-.0021-.0021-1zm-7.91998.0165-1.000002.0021.002085 1 .999997-.0021zm-.08757-41.99991-.00209-.99999-.999993.00208.002085 1zm22.08225 1.03397-.4085.91277.0096.00429.0096.00408zm3.9657 2.75174-.7432.66909.0122.0135.0126.01304zm2.4081 3.895-.9427.3334.0055.0156.006.0154zm.0219 10.5-.939-.3438-.0026.0071-.0025.0071zm-2.3916 4.025-.7447-.6675-.0013.0015zm-3.9541 2.8282.4123.9111zm-14.17349-6.4505-1 .0021.00209 1 1-.0021zm11.87699-1.4647-.6798-.7334-.0072.0066-.007.0068zm-.017-8.16-.6911.7228.0071.0068.0072.0066zm-11.88301-1.4152-.00208-1-1 .0021.00209 1zm-.96121 18.602.03302 15.84 2-.0042-.033-15.84zm1.03093 14.8379-7.91998.0165.00417 2 7.91998-.0165zm-6.9179 1.0144-.08756-41.99989-1.999998.00417.087566 41.99992zm-1.08548-40.99781 16.43997-.03428-.0042-1.99999-16.43994.03428zm16.43997-.03428c2.0504-.00427 3.7856.33389 5.2317.98102l.8169-1.82555c-1.7569-.78619-3.7832-1.16019-6.0528-1.15546zm5.2509.98939c1.4822.62627 2.6783 1.46284 3.6118 2.49969l1.4864-1.33819c-1.1514-1.27881-2.599-2.27673-4.3197-3.00379zm3.6366 2.52623c.9816 1.01366 1.7082 2.18817 2.1838 3.53277l1.8855-.6669c-.5706-1.61317-1.4494-3.03531-2.6325-4.25714zm2.1953 3.56377c.5186 1.3253.7776 2.682.7805 4.0759l2-.0042c-.0035-1.646-.3106-3.2482-.918-4.8005zm.7805 4.0759.003 1.44 2-.0042-.003-1.44zm.003 1.44c.003 1.4375-.2516 2.8612-.7694 4.2759l1.8781.6875c.5958-1.6276.8948-3.2851.8913-4.9676zm-.7745 4.2901c-.4721 1.3528-1.2002 2.5803-2.1922 3.6871l1.4894 1.3349c1.163-1.2977 2.0294-2.7535 2.5911-4.3629zm-2.1935 3.6886c-.9336 1.0457-2.1329 1.9101-3.6204 2.5831l.8246 1.8222c1.7095-.7736 3.1462-1.7947 4.2878-3.0734zm-3.6204 2.5831c-1.4434.6532-3.1771.9986-5.2275 1.0029l.0041 2c2.2696-.0048 4.2944-.3872 6.048-1.1807zm-5.2275 1.0029-8.52001.0177.00417 2 8.51994-.0177zm-8.5316-5.5423 7.74-.0161-.0042-2-7.73997.0161zm7.74-.0161c1.9454-.0041 3.5986-.5426 4.8289-1.7287l-1.388-1.4399c-.7657.7382-1.8706 1.1653-3.4451 1.1686zm4.8147-1.7152c1.259-1.1671 1.8761-2.6828 1.8724-4.4588l-2 .0042c.0027 1.264-.4151 2.2305-1.232 2.9878zm1.8724-4.4588-.0015-.72-2 .0042.0015.72zm-.0015-.72c-.0037-1.7759-.6271-3.289-1.891-4.4508l-1.3535 1.4724c.8201.7539 1.2419 1.7186 1.2445 2.9826zm-1.8767-4.4374c-1.2353-1.1809-2.8906-1.7126-4.8361-1.7086l.0042 2c1.5745-.0033 2.6811.4193 3.4498 1.1542zm-4.8361-1.7086-7.73999.0162.00417 2 7.74002-.0162zm-8.7379 1.0183.02301 11.0399 1.99999-.0041-.023-11.04zm51.0512 25.3336.9748-.2231-.1782-.7786-.7987.0017zm-14.28.0297-.002-1-.7987.0017-.175.7793zm-2.0212 9.0043.0021 1 .7987-.0017.1749-.7793zm-8.28.0172-.9732-.23-.2913 1.2327 1.2666-.0027zm9.9324-42.02076-.002-1-.7895.00165-.1816.76832zm14.88-.03103.9722-.23408-.1848-.76756-.7895.00165zm10.1075 41.97899.0021 1 1.2667-.0026-.2965-1.2315zm-8.2799.0173-.9748.2231.1782.7786.7987-.0017zm-14.6745-16.5294-.9752-.2213-.2777 1.2239 1.255-.0026zm10.86-.0227.002 1 1.2516-.0026-.2788-1.2201zm-4.9048-21.46981.9749-.22271-.178-.77895-.799.00167zm-1.08.00225-.0021-.99999-.7968.00166-.1763.7771zm7.7384 28.02396-14.2799.0297.0041 2 14.28-.0297zm-15.2536.8107-2.0212 9.0043 1.9514.438 2.0213-9.0042zm-1.0476 8.2233-8.28.0172.0042 2 8.28-.0172zm-7.3047 1.2473 9.9324-42.02083-1.9463-.46006-9.9325 42.02079zm8.9613-41.25087 14.88-.03102-.0042-1.99999-14.8799.03102zm13.9057-.79693 10.1075 41.979 1.9445-.4682-10.1076-41.97897zm11.0777 40.7449-8.28.0173.0042 2 8.2799-.0173zm-7.3031.7942-2.0588-8.9957-1.9496.4462 2.0588 8.9957zm-15.6472-15.3063 10.8599-.0227-.0041-2-10.86.0227zm11.8327-1.2454-4.9047-21.46982-1.9498.44543 4.9048 21.46979zm-5.8817-22.2471-1.08.00225.0042 1.99999 1.08-.00225zm-2.0531.78101-4.8752 21.49019 1.9504.4425 4.8752-21.49022zm23.1252-3.78496-.0021-.99999-1 .00208.0021 1zm30.2402-.06304 1-.00209-.002-1-1 .00209zm.015 7.55999.003 1 1-.0021-.003-1zm-11.1595.0233-.0021-1-1 .002.0021 1zm.0718 34.4399.0021 1 1-.0021-.0021-1zm-7.92.0165-1 .0021.0021 1 1-.0021zm-.0718-34.4399 1-.0021-.0021-1-1 .0021zm-11.16.0232-1 .0021.0021 1 1-.0021zm-.0137-6.55995 30.2402-.06305-.004-1.99999-30.2403.06305zm29.2382-1.06096.015 7.56001 2-.0042-.015-7.55998zm1.013 6.55791-11.1596.0233.0042 2 11.1604-.0233zm-12.1575 1.0253.0718 34.44 2-.0042-.0718-34.4399zm1.0697 33.4379-7.92.0165.0042 2 7.92-.0165zm-6.9179 1.0144-.0718-34.4399-2 .0042.0718 34.4399zm-1.0739-35.4378-11.16.0232.0042 2 11.16-.0232zm-10.1579 1.0212-.0157-7.56003-2 .00417.0157 7.55996zm36.1425-7.63542-.002-1-1 .00209.002 1zm7.92-.01651 1-.00209-.002-.99999-1 .00208zm.036 17.15993-1 .0021.002 1 1-.0021zm13.56-.0282.002 1 1-.0021-.002-1zm-.036-17.16-.002-1-1 .00209.002.99999zm7.92-.01651 1-.00209-.002-1-1 .00209zm.087 41.99991.003 1 1-.0021-.003-1zm-7.92.0165-1 .0021.003 1 1-.0021zm-.036-17.28 1-.002-.002-1-1 .002zm-13.56.0283-.002-1-1 .0021.002 1zm.037 17.28.002 1 1-.0021-.002-1zm-7.92.0165-1 .0021.002 1 1-.0021zm-.086-40.99992 7.92-.01651-.004-2-7.92.01651zm6.918-1.01443.036 17.15995 2-.0042-.036-17.15992zm1.038 18.15785 13.56-.0282-.004-2-13.56.0282zm14.558-1.0303-.036-17.15999-2 .00417.036 17.15992zm-1.034-16.15791 7.92-.01651-.004-1.99999-7.92.01651zm6.918-1.01442.087 41.99993 2-.0042-.087-41.9999zm1.085 40.99783-7.92.0165.005 2 7.92-.0165zm-6.918 1.0144-.036-17.2799-2 .0041.036 17.28zm-1.038-18.2779-13.56.0283.005 2 13.56-.0283zm-14.558 1.0304.037 17.28 2-.0042-.037-17.28zm1.034 16.2779-7.92.0165.005 2 7.92-.0165zm-6.917 1.0144-.088-41.9999-2 .00417.088 41.99993zm66.878-.1394.002 1 .966-.002.031-.9658zm-13.8.0287-.998.0622.058.9398.942-.002zm-1.987-31.9159-1 .0021v.0301l.002.0299zm-.012-5.75997 1-.00208-.002-1-1 .00208zm-1.44.003-.002-1-1 .00209.002 1zm.012 5.75997.998.058.002-.03v-.0301zm-1.853 31.924.002 1 .941-.002.055-.9401zm-13.8.0287-1 .0364.036.9656.966-.002zm-1.528-41.99688-.002-1-1.035.00216.038 1.03419zm7.2-.01502 1-.03214-.032-.96988-.97.00203zm1.027 31.9179 1-.002v-.0151l-.001-.015zm.011 5.4-1 .0021.002 1 1-.0021zm1.44-.003.002 1 1-.0021-.002-1zm-.011-5.4-.999-.0579-.001.03v.03zm1.853-31.9239-.002-1-.942.00196-.054.94008zm12.72-.02652.998-.06212-.058-.93984-.942.00196zm1.987 31.91592 1-.0021v-.03l-.002-.03zm.011 5.4-1 .0021.002 1 1-.0021zm1.44-.003.002 1 1-.0021-.002-1zm-.011-5.4-1-.028v.0151.015zm.893-31.92193-.002-1-.97.00203-.028.96999zm7.2-.01501 1 .03218.033-1.03434-1.035.00216zm-1.354 41.00294-13.8.0287.004 2 13.8-.0287zm-12.8.9666-1.987-31.9159-1.996.1242 1.987 31.916zm-1.985-31.8559-.012-5.75995-2 .00416.012 5.75999zm-1.014-6.75787-1.44.003.004 2 1.44-.003zm-2.438 1.00509.012 5.75998 2-.0042-.012-5.75995zm.014 5.69998-1.854 31.9239 1.997.1159 1.853-31.9239zm-.857 30.9819-13.8.0287.004 2 13.8-.0287zm-12.799.9924-1.527-41.99693-1.999.0727 1.527 41.99693zm-2.525-40.96059 7.2-.01501-.004-1.99999-7.2.01501zm6.199-.98286 1.026 31.91795 1.999-.0643-1.026-31.91794zm1.026 31.88785.011 5.4 2-.0042-.011-5.3999zm1.013 6.3979 1.44-.003-.004-2-1.44.003zm2.438-1.0051-.011-5.4-2 .0042.011 5.4zm-.013-5.3399 1.853-31.92394-1.996-.11592-1.854 31.92396zm.857-30.98191 12.72-.02652-.004-1.99999-12.72.02652zm11.72-.96439 1.987 31.9159 1.996-.1242-1.987-31.91594zm1.985 31.8559.011 5.4 2-.0042-.011-5.4zm1.013 6.3979 1.44-.003-.004-2-1.44.003zm2.438-1.0051-.011-5.4-2 .0042.011 5.4zm-.012-5.3699.894-31.92195-2-.05596-.893 31.92191zm-.104-30.94993 7.2-.01501-.004-2-7.2.01501zm6.199-1.04719-1.353 42.00292 1.999.0644 1.353-42.00296zm27.066 32.97792.975-.2231-.178-.7786-.799.0017zm-14.28.0298-.002-1-.799.0016-.175.7793zm-2.021 9.0042.002 1 .799-.0017.175-.7793zm-8.28.0173-.973-.2301-.292 1.2327 1.267-.0026zm9.932-42.02085-.002-.99999-.789.00164-.182.76832zm14.88-.03102.973-.23409-.185-.76755-.79.00164zm10.108 41.97907.002 1 1.267-.0027-.297-1.2314zm-8.28.0172-.975.2231.178.7786.799-.0017zm-14.675-16.5294-.975-.2213-.277 1.2239 1.254-.0026zm10.86-.0227.002 1 1.252-.0026-.279-1.2201zm-4.904-21.46979.974-.22271-.177-.77895-.799.00166zm-1.08.00225-.002-1-.797.00166-.177.77711zm7.738 28.02394-14.28.0298.004 2 14.28-.0298zm-15.254.8107-2.021 9.0043 1.952.438 2.021-9.0042zm-1.047 8.2233-8.28.0173.004 2 8.28-.0173zm-7.305 1.2473 9.933-42.02082-1.947-.46006-9.932 42.02078zm8.961-41.25085 14.88-.03102-.004-2-14.88.03103zm13.906-.79693 10.108 41.97898 1.944-.4681-10.107-41.97906zm11.078 40.74498-8.28.0172.004 2 8.28-.0172zm-7.303.7941-2.059-8.9957-1.95.4462 2.059 8.9957zm-15.648-15.3063 10.86-.0227-.004-2-10.86.0227zm11.833-1.2454-4.905-21.4698-1.949.44542 4.904 21.46978zm-5.881-22.24709-1.08.00225.004 2 1.08-.00225zm-2.054.78102-4.875 21.49017 1.951.4425 4.875-21.4902zm34.342 23.43167 1-.002-.002-1-1 .002zm-1.8.0038-.913.4067.265.5947.65-.0014zm-12.116-27.2148-.003-1-1.536.0032.625 1.40353zm8.64-.01801.917-.39783-.262-.60354-.658.00137zm8.681 20.02191-.917.3979.262.6035.657-.0014zm1.08-.0022.002 1 .658-.0014.259-.6046zm8.599-20.05799-.003-1-.657.00137-.26.60463zm8.639-.01802.916.40293.619-1.40613-1.537.00321zm-12.003 27.26511.002 1 .651-.0014.263-.5957zm-1.8.0037-.002-1-1 .0021.002 1zm.031 14.76.002 1 1-.0021-.002-1zm-7.92.0165-1 .0021.002 1 1-.0021zm-.033-15.76-1.8.0038.004 2 1.8-.0038zm-.884.5971-12.117-27.21484-1.827.81347 12.117 27.21477zm-13.028-25.8081 8.64-.01802-.005-1.99999-8.64.01801zm7.72-.62019 8.682 20.02199 1.835-.7957-8.682-20.02194zm9.601 20.62409 1.08-.0022-.004-2-1.08.0022zm1.997-.6082 8.599-20.058-1.839-.78799-8.598 20.05799zm7.682-19.452 8.64-.01801-.005-1.99999-8.64.01801zm7.722-1.42093-12.003 27.26513 1.831.8058 12.003-27.26508zm-11.09 26.66803-1.8.0037.004 2 1.8-.0037zm-2.798 1.0058.031 14.76 2-.0042-.031-14.76zm1.029 13.7579-7.92.0165.004 2 7.92-.0165zm-6.918 1.0144-.031-14.7599-2 .0041.031 14.76zm61.229-42.12772-.002-1-1 .00209.002.99999zm30.24-.06305 1-.00208-.002-1-1 .00208zm.016 7.55997.002 1 1-.0021-.002-1zm-11.16.0233-.002-1.00001-1 .00208.002 1.00003zm.072 34.4399.002 1 1-.0021-.002-1zm-7.92.0165-1 .0021.002 1 1-.0021zm-.072-34.4399 1-.0021-.002-.99999-1 .00209zm-11.16.0233-1 .002.002 1 1-.002zm-.014-6.56003 30.24-.06304-.004-2-30.24.06305zm29.238-1.06095.016 7.55998 2-.0042-.016-7.55995zm1.014 6.5579-11.16.02327.004 2.00001 11.16-.0233zm-12.158 1.02538.072 34.4399 2-.0042-.072-34.4399zm1.069 33.4378-7.92.0165.005 2 7.92-.0165zm-6.917 1.0144-.072-34.4399-2 .0042.072 34.4399zm-1.074-35.4378-11.16.02327.004 2.00003 11.16-.0233zm-10.158 1.0212-.016-7.56001-2 .00417.016 7.55994zm39.45-3.98228-.738-.67554-.004.0054zm22.74-.04741-.74.67325.005.00534zm.072 34.79989-.728-.6854-.005.0054zm-22.74.0474-.73.6832.005.0053zm14.993-3.5112.419.9082.015-.0071.015-.0076zm2.336-1.9849.815.5795zm1.254-3.0026.979.2005zm-.098-17.8799.972-.2366zm-1.326-2.9972.813-.5829zm-2.344-1.9751-.474.8803.014.0077.015.0073zm-6.96.0145.449.8935.015-.0074.014-.0078zm-2.336 1.9849-.815-.5796zm-1.314 3.0027-.972-.2326zm-.022 17.8801-.979.2047zm1.266 2.9974.812-.583zm2.344 1.9751-.445.8954.015.0075.015.007zm-10.919-18.6373c-.011-5.2782 1.299-9.2304 3.796-11.99624l-1.484-1.34028c-2.931 3.24546-4.323 7.73902-4.312 13.34072zm3.791-11.99086c2.53-2.76094 6.038-4.18965 10.655-4.19928l-.004-2c-5.062.01056-9.148 1.59768-12.126 4.84824zm10.655-4.19928c4.618-.00963 8.109 1.40451 10.608 4.14958l1.479-1.34646c-2.953-3.24358-7.028-4.81367-12.091-4.80312zm10.613 4.15494c2.546 2.7556 3.89 6.7001 3.901 11.9748l2-.0041c-.012-5.6053-1.445-10.09496-4.432-13.32788zm3.901 11.9748.02 9.36 2-.0042-.02-9.3599zm.02 9.36c.011 5.4459-1.322 9.424-3.842 12.1011l1.456 1.3708c2.988-3.1744 4.398-7.722 4.386-13.4761zm-3.847 12.1065c-2.486 2.6797-5.973 4.074-10.6 4.0837l.005 2c5.053-.0106 9.119-1.552 12.061-4.7236zm-10.6 4.0837c-4.625.0096-8.143-1.37-10.681-4.0447l-1.451 1.3769c2.994 3.1538 7.082 4.6783 12.137 4.6678zm-10.676-4.0394c-2.495-2.6664-3.826-6.641-3.837-12.0904l-2 .0042c.012 5.7506 1.418 10.2902 4.376 13.4525zm-3.837-12.0904-.02-9.36-2 .0042.02 9.36zm14.503 10.9298c1.534-.0032 2.887-.2394 4.015-.7593l-.837-1.8164c-.791.3641-1.837.5729-3.183.5757zm4.045-.774c1.099-.5523 2.005-1.3193 2.702-2.2989l-1.63-1.159c-.5.7029-1.151 1.2591-1.97 1.6709zm2.702-2.2989c.69-.9702 1.157-2.1047 1.418-3.3816l-1.959-.4011c-.214 1.0441-.583 1.9114-1.089 2.6237zm1.418-3.3816c.254-1.2379.376-2.5872.373-4.0433l-2 .0041c.002 1.3439-.11 2.555-.332 3.6381zm.373-4.0433-.022-10.32-2 .0041.022 10.32zm-.022-10.32c-.003-1.3908-.153-2.7099-.456-3.9537l-1.943.4733c.262 1.075.397 2.2353.399 3.4845zm-.456-3.9537c-.308-1.2648-.798-2.3857-1.485-3.3435l-1.625 1.1658c.516.7197.91 1.597 1.167 2.651zm-1.485-3.3435c-.701-.9767-1.611-1.73992-2.712-2.28757l-.89 1.79067c.821.4084 1.474.9619 1.977 1.6627zm-2.683-2.27249c-1.139-.61401-2.472-.89556-3.958-.89246l.005 1.99995c1.233-.0025 2.222.2311 3.005.6531zm-3.958-.89246c-1.486.00309-2.817.2902-3.954.90895l.956 1.7566c.781-.4253 1.769-.663 3.003-.6656zm-3.925.89376c-1.099.55223-2.005 1.31929-2.702 2.29879l1.63 1.1591c.5-.7029 1.151-1.2591 1.97-1.6709zm-2.702 2.29879c-.683.9607-1.168 2.0837-1.471 3.3497l1.945.4652c.252-1.0551.643-1.934 1.156-2.6558zm-1.471 3.3497c-.298 1.2451-.443 2.5648-.44 3.9556l2-.0042c-.002-1.2492.128-2.4101.385-3.4862zm-.44 3.9556.022 10.32 2-.0042-.022-10.32zm.022 10.32c.003 1.4561.13 2.8049.389 4.0418l1.958-.4093c-.227-1.0822-.345-2.2929-.347-3.6367zm.389 4.0418c.267 1.2757.738 2.4082 1.432 3.3756l1.625-1.1659c-.509-.7101-.881-1.5758-1.099-2.619zm1.432 3.3756c.701.9766 1.611 1.7399 2.712 2.2876l.89-1.7908c-.821-.4083-1.474-.9618-1.977-1.6627zm2.742 2.3021c1.131.5152 2.484.7458 4.019.7426l-.005-2c-1.345.0028-2.393-.2016-3.184-.5624zm82.656-27.6014-.694.7197.005.0053.006.0052zm-10.201-.5788.569.8221.01-.0066.009-.0067zm-1.309 5.2828-.905.4247.005.0123.006.0121zm1.443 1.557-.575.8181.027.0191.029.0171zm2.763 1.1942-.304.9527.009.003zm4.382 1.0109-.177.9842zm10.088 3.999-.628.7782zm2.43 14.3949-.913-.4085-.004.0108zm-2.991 4.0263.648.7611zm-4.795 2.59.306.952zm-13.68-.2115-.358.9341.011.0041.011.0038zm-5.227-3.2291-.706.7086.005.0051.005.005zm-3.19-4.8534-.933.3596.002.0068zm-1.097-7.9177-.002-1-1 .0021.002 1zm7.92-.0165 1-.0021-.002-1-1 .0021zm2.176 7.4955-.725.6892.01.0098.009.0095zm12.181.6346-.669-.7432zm1.368-5.6429-.935.3531.004.0101.004.0101zm-1.263-1.6774-.654.7571.015.0128.016.0123zm-2.463-1.3748.357-.9341zm-3.962-1.0118.17-.9854-.005-.0008zm-5.823-1.3678-.321.9471.01.0033.01.0031zm-4.625-2.3304-.598.8012.006.0044.006.0044zm-3.089-13.9736-.9-.43562-.005.0105zm2.932-3.84612-.647-.76294-.005.00507-.006.00516zm4.555-2.52951-.319-.94804-.006.00221zm12.6.15374-.349.93706.008.00321.009.00305zm4.806 2.80998-.683.73097.006.00523.006.00514zm2.949 4.13391-.925.3814.004.0101.005.0099zm1.034 7.0778.002 1 1-.0021-.002-1zm-7.92.0165-1 .0021.002 1 1-.0021zm.997-1.4421c-.004-1.9792-.799-3.6946-2.306-5.104l-1.366 1.4605c1.139 1.0651 1.669 2.2669 1.672 3.6477zm-2.295-5.0934c-1.523-1.47008-3.627-2.13422-6.16-2.12894l.004 2.00004c2.187-.0046 3.727.5637 4.768 1.5683zm-6.16-2.12894c-2.129.00444-3.939.45436-5.323 1.46116l1.176 1.61748c.932-.6781 2.281-1.0747 4.151-1.0786zm-5.305 1.44785c-1.426.98819-2.167 2.39639-2.163 4.12769l2-.0041c-.002-1.0687.412-1.8629 1.302-2.4795zm-2.163 4.12769c.002.8532.17 1.6589.519 2.4018l1.81-.8495c-.214-.4559-.328-.9696-.329-1.5564zm.53 2.4262c.376.7473.989 1.3827 1.762 1.926l1.15-1.6363c-.589-.4138-.938-.8165-1.125-1.1879zm1.818 1.9622c.809.4923 1.809.9195 2.978 1.2926l.608-1.9054c-1.073-.3422-1.915-.7112-2.547-1.0959zm2.987 1.2956c1.213.3736 2.716.7189 4.5 1.0394l.354-1.9685c-1.738-.3122-3.156-.6407-4.265-.9823zm4.5 1.0394c4.312.7748 7.493 2.0629 9.637 3.793l1.256-1.5565c-2.504-2.0202-6.048-3.3981-10.539-4.205zm9.637 3.793c2.035 1.6422 3.118 4.1011 3.126 7.5566l2-.0042c-.009-3.9046-1.257-7.0008-3.87-9.1089zm3.126 7.5566.001.72 2-.0042-.001-.72zm.001.72c.004 1.8351-.329 3.4737-.982 4.9317l1.826.8169c.781-1.745 1.16-3.668 1.156-5.7528zm-.986 4.9424c-.615 1.4189-1.519 2.6373-2.723 3.6628l1.297 1.5223c1.432-1.22 2.522-2.6857 3.261-4.3897zm-2.723 3.6628c-1.204 1.026-2.681 1.83-4.452 2.3991l.612 1.9041c1.987-.6387 3.706-1.5614 5.137-2.7809zm-4.452 2.3991c-1.764.5669-3.778.8606-6.054.8653l.004 2c2.444-.0051 4.668-.3202 6.662-.9612zm-6.054.8653c-2.67.0056-4.993-.3574-6.985-1.0668l-.671 1.8841c2.251.8018 4.81 1.1887 7.66 1.1827zm-6.963-1.0588c-1.974-.7543-3.596-1.763-4.889-3.0137l-1.391 1.4374c1.513 1.4634 3.375 2.6074 5.565 3.4445zm-4.879-3.0036c-1.305-1.2999-2.292-2.8013-2.965-4.5111l-1.861.7327c.775 1.9671 1.915 3.7013 3.415 5.1956zm-2.962-4.5044c-.676-1.7542-1.022-3.6711-1.026-5.7602l-2 .0042c.005 2.3109.388 4.4725 1.16 6.4752zm-1.026-5.7602-.004-1.8-2 .0042.004 1.8zm-1.002-.7979 7.92-.0165-.004-2-7.92.0165zm6.918-1.0144.003 1.44 2-.0042-.003-1.44zm.003 1.44c.006 2.7206.794 5.0038 2.448 6.7426l1.449-1.3785c-1.232-1.2951-1.892-3.0489-1.897-5.3683zm2.467 6.7619c1.744 1.7367 4.332 2.5039 7.552 2.4972l-.004-2c-2.939.0061-4.914-.6971-6.137-1.9143zm7.552 2.4972c2.519-.0053 4.586-.5514 6.004-1.828l-1.338-1.4863c-.898.8083-2.388 1.3095-4.67 1.3143zm6.004-1.828c1.35-1.215 2.067-2.7196 2.063-4.4688l-2 .0041c.003 1.1307-.435 2.1086-1.401 2.9784zm2.063-4.4688c-.001-.8005-.145-1.5669-.436-2.2905l-1.855.7466c.191.4754.29.9885.291 1.548zm-.428-2.2703c-.313-.8283-.852-1.5297-1.576-2.1064l-1.246 1.5643c.478.3807.781.7976.951 1.2483zm-1.546-2.0813c-.716-.6183-1.65-1.1281-2.759-1.5519l-.714 1.8682c.973.3718 1.681.7786 2.166 1.1978zm-2.759-1.5519c-1.122-.4288-2.511-.7799-4.149-1.0631l-.34 1.9708c1.562.2702 2.815.5936 3.775.9605zm-4.154-1.0639c-2.082-.3491-3.977-.795-5.687-1.3352l-.602 1.9071c1.812.5724 3.799 1.0385 5.958 1.4005zm-5.667-1.3288c-1.68-.5686-3.129-1.3023-4.359-2.1932l-1.173 1.62c1.413 1.0235 3.047 1.8434 4.89 2.4675zm-4.348-2.1845c-1.156-.8638-2.058-1.9408-2.712-3.2415l-1.787.8981c.792 1.5763 1.896 2.8951 3.303 3.9459zm-2.712-3.2415c-.636-1.2654-.98-2.8622-.984-4.8308l-2 .0042c.004 2.1914.387 4.1131 1.197 5.7247zm-.984-4.8308-.001-.36-2 .0042.001.36zm-.001-.36c-.003-1.5843.306-3.0176.915-4.31488l-1.81-.85024c-.745 1.58552-1.109 3.31372-1.105 5.16932zm.91-4.30441c.659-1.36074 1.554-2.5349 2.69-3.529l-1.316-1.50542c-1.339 1.17106-2.399 2.56098-3.174 4.16324zm2.678-3.51876c1.173-.99381 2.579-1.77891 4.233-2.34662l-.649-1.89167c-1.863.63963-3.494 1.54086-4.877 2.7124zm4.227-2.34443c1.682-.56459 3.573-.85613 5.682-.86053l-.004-1.999999c-2.291.004776-4.399.321569-6.315.964479zm5.682-.86053c2.384-.00497 4.463.33692 6.251 1.0033l.698-1.87412c-2.054-.76561-4.378-1.134549-6.953-1.129179zm6.268 1.00956c1.812.63748 3.289 1.50848 4.455 2.59763l1.365-1.46193c-1.398-1.30551-3.125-2.30783-5.156-3.02234zm4.467 2.608c1.219 1.1035 2.112 2.36053 2.695 3.77397l1.849-.76293c-.703-1.70384-1.776-3.20272-3.202-4.49372zm2.704 3.79397c.627 1.4313.942 2.9345.946 4.5185l2-.0042c-.004-1.856-.376-3.6313-1.115-5.31724zm.946 4.5185.004 2.16 2-.0042-.004-2.16zm1.002 1.1579-7.92.0165.004 2 7.92-.0165zm-6.918 1.0144-.003-1.44-2 .0042.003 1.44zm43.629-14.37095 1-.00209-.002-1-1 .00209zm-3.759 38.76795-.73-.6839-.005.0058zm-22.62.0471-.733.6812.006.0057zm-3.861-38.75201-.002-.99999-1 .00208.002 1zm7.92-.01651 1-.00208-.002-1-1 .00208zm1.809 33.29632-.769.6396zm10.92-.0228-.771-.6364zm1.671-33.30354-.002-1-1 .00209.002.99999zm6.92-.01443.057 27.47997 2-.0042-.057-27.47994zm.057 27.47997c.01 4.6205-1.211 8.111-3.546 10.602l1.459 1.3677c2.774-2.9597 4.097-6.9945 4.087-11.9739zm-3.551 10.6078c-2.267 2.4565-5.716 3.7715-10.539 3.7816l.004 2c5.178-.0108 9.242-1.4315 12.005-4.4254zm-10.539 3.7816c-4.822.01-8.301-1.2901-10.62-3.7432l-1.453 1.3737c2.813 2.9762 6.899 4.3803 12.077 4.3695zm-10.614-3.7375c-2.308-2.4809-3.526-5.9685-3.536-10.593l-2 .0041c.01 4.9754 1.328 9.0026 4.071 11.9512zm-3.536-10.593-.057-27.47999-2 .00417.057 27.47992zm-1.055-26.47791 7.92-.01651-.004-2-7.92.01652zm6.918-1.01442.057 27.47993 2-.0042-.057-27.4799zm.057 27.47993c.006 2.6284.625 4.8215 1.983 6.4539l1.538-1.2792c-.968-1.1628-1.516-2.8472-1.521-5.1789zm1.983 6.4539c1.417 1.702 3.572 2.4545 6.236 2.449l-.005-2c-2.296.0048-3.783-.635-4.693-1.7282zm6.236 2.449c2.663-.0056 4.815-.7671 6.225-2.475l-1.543-1.2728c-.905 1.097-2.39 1.743-4.687 1.7478zm6.225-2.475c1.351-1.638 1.962-3.8337 1.956-6.4621l-2 .0042c.005 2.3316-.537 4.0183-1.499 5.1851zm1.956-6.4621-.057-27.47993-2 .00417.057 27.47996zm-1.055-26.47784 7.92-.01652-.004-1.99999-7.92.01651zm33.449 33.91034.418.9082.008-.0037.008-.0039zm2.276-1.8648-.82-.5717-.006.0088zm1.134-2.7023.981.1941.002-.0073zm.291-4.2606-.002-1-1 .002.002 1zm7.92-.0166 1-.002-.002-1-1 .002zm-3.933 12.6683-.719-.695v.0002zm-22.801-.3125.721-.6936zm-3.181-29.3334.948.3196.001-.0054zm3.109-5.40651.728.68517.009-.01008zm4.913-3.37025.37.92903.008-.0033.008-.00346zm17.886 2.96271-.727.68688.005.00558.006.00551zm2.95 4.91385-.948.3182.003.0088.003.0088zm1.036 7.5579.002 1 1-.0021-.002-1zm-7.92.0165-1 .0021.002 1 1-.0021zm-.369-4.0793.972-.2354zm-3.489-4.6127-.475.8803.015.0078.014.0073zm-7.02.01464.449.89346.015-.0073.014-.0079zm-2.396 2.04496.797.6044.007-.0089.006-.009zm-1.434 3.003-.964-.2639-.003.0117-.003.0117zm.038 17.88-.972.2367.002.0079zm3.67 4.9124-.445.8953.022.011.022.0098zm3.603 1.6524c1.606-.0033 3.001-.2369 4.135-.7595l-.837-1.8164c-.784.3614-1.867.573-3.302.576zm4.151-.7671c1.125-.5427 2.033-1.2693 2.668-2.2024l-1.652-1.1259c-.402.5891-1.011 1.1056-1.885 1.5271zm2.662-2.1936c.641-.9196 1.072-1.9501 1.295-3.0801l-1.962-.3881c-.172.8709-.498 1.642-.973 2.3247zm1.297-3.0873c.21-1.1039.313-2.2274.311-3.3695l-2 .0041c.002 1.0179-.09 2.0148-.276 2.9918zm.311-3.3695-.003-1.08-2 .0041.003 1.08zm-1-.0779 7.92-.0166-.005-2-7.92.0166zm6.917-1.0145.003 1.08 2-.0041-.003-1.08zm.003 1.08c.01 4.8256-1.253 8.4063-3.655 10.8912l1.438 1.39c2.867-2.9662 4.228-7.111 4.217-12.2853zm-3.655 10.8914c-2.35 2.4317-5.85 3.7285-10.675 3.7385l.004 2c5.176-.0108 9.27-1.4098 12.109-4.3489zm-10.675 3.7385c-4.582.0096-8.104-1.3683-10.686-4.0498l-1.441 1.3872c3.03 3.1468 7.114 4.6731 12.131 4.6626zm-10.686-4.0498c-2.568-2.6668-3.936-6.6373-3.947-12.0797l-2 .0042c.012 5.7575 1.462 10.3012 4.506 13.4627zm-3.947-12.0797-.02-9.36-2 .0042.02 9.36zm-.02-9.36c-.005-2.5915.338-4.8808 1.013-6.8805l-1.896-.6392c-.756 2.2432-1.123 4.7554-1.117 7.5239zm1.014-6.8859c.677-2.0439 1.645-3.7136 2.888-5.03561l-1.457-1.37021c-1.47 1.56365-2.575 3.49825-3.329 5.77732zm2.897-5.04562c1.253-1.36843 2.764-2.40655 4.546-3.11631l-.74-1.85807c-2.055.81825-3.819 2.02696-5.281 3.6242zm4.562-3.12307c1.78-.74573 3.805-1.13101 6.093-1.13578l-.004-2.000002c-2.512.005237-4.804.428962-6.862 1.291232zm6.093-1.13578c2.385-.00498 4.463.33691 6.251 1.00329l.699-1.87412c-2.055-.76561-4.378-1.134541-6.954-1.129172zm6.251 1.00329c1.793.66789 3.261 1.62421 4.429 2.85981l1.454-1.37376c-1.398-1.47905-3.134-2.59607-5.184-3.36017zm4.44 2.8709c1.211 1.24247 2.119 2.74796 2.718 4.53408l1.896-.6364c-.688-2.05119-1.747-3.8216-3.182-5.29362zm2.724 4.55168c.64 1.7943.971 3.8381.976 6.1442l2-.0042c-.005-2.4939-.364-4.7687-1.092-6.8116zm.976 6.1442.002 1.08 2-.0042-.002-1.08zm1 .0779-7.92.0165.004 2 7.92-.0165zm-6.918 1.0144-.002-1.08-2 .0042.002 1.08zm-.002-1.08c-.003-1.0808-.135-2.1588-.395-3.2326l-1.943.4708c.224.9253.336 1.8468.338 2.766zm-.395-3.2326c-.27-1.1148-.722-2.1304-1.359-3.0372l-1.636 1.1503c.486.6909.837 1.4736 1.052 2.3577zm-1.359-3.0372c-.667-.9481-1.562-1.69088-2.657-2.23545l-.891 1.79075c.828.4114 1.455.9454 1.912 1.595zm-2.628-2.22038c-1.146-.61808-2.523-.89545-4.078-.89221l.004 1.99999c1.325-.0028 2.35.2349 3.125.6528zm-4.078-.89221c-1.452.00303-2.762.29229-3.894.90883l.956 1.75656c.785-.4274 1.754-.6629 2.942-.6654zm-3.865.89364c-1.104.55497-2.026 1.34275-2.757 2.35205l1.62 1.1729c.546-.7534 1.221-1.3289 2.035-1.738zm-2.744 2.33415c-.725.9562-1.255 2.0766-1.601 3.3434l1.929.5279c.288-1.0546.715-1.9362 1.266-2.6626zm-1.607 3.3668c-.299 1.2056-.445 2.4677-.442 3.7835l2-.0042c-.003-1.1642.126-2.2627.383-3.2983zm-.442 3.7835.022 10.56 2-.0042-.022-10.56zm.022 10.56c.003 1.4282.153 2.7677.456 4.0137l1.943-.4734c-.261-1.0728-.397-2.2528-.399-3.5445zm.458 4.0216c.309 1.2267.8 2.3235 1.483 3.2756l1.625-1.1659c-.52-.7254-.913-1.5867-1.169-2.5989zm1.483 3.2756c.701.9766 1.611 1.7399 2.712 2.2875l.89-1.7907c-.821-.4083-1.474-.9618-1.977-1.6627zm2.756 2.3083c1.158.5068 2.503.7395 4.004.7363l-.004-1.9999c-1.299.0027-2.355-.1997-3.198-.5687zm44.459-1.008.419.9082.008-.0037.008-.0039zm2.276-1.8647-.82-.5718-.006.0088zm1.135-2.7024.981.1941.001-.0073zm.291-4.2606-.002-1-1 .0021.002.9999zm7.92-.0165 1-.0021-.002-1-1 .0021zm-3.934 12.6682-.719-.695v.0002zm-22.801-.3125.721-.6936zm-3.181-29.3334.948.3196.002-.0054zm3.109-5.40651.728.68517.01-.01008zm4.913-3.37025.37.92904.008-.00331.008-.00346zm17.886 2.96271-.727.68689.006.00558.005.0055zm2.95 4.91385-.948.3182.003.0088.003.0088zm1.036 7.5579.002 1 1-.0021-.002-1zm-7.92.0165-1 .0021.002 1 1-.0021zm-.368-4.0793.972-.2354zm-3.49-4.61269-.474.88029.014.0078.015.0073zm-7.02.01463.449.89346.015-.0073.014-.0079zm-2.396 2.04496.797.6044.007-.0088.006-.0091zm-1.433 3.003-.965-.2639-.003.0117-.003.0117zm.037 17.88-.972.2367.002.0079zm3.67 4.9124-.445.8953.022.011.022.0098zm3.604 1.6525c1.605-.0034 3.001-.237 4.135-.7596l-.837-1.8164c-.785.3614-1.868.573-3.303.576zm4.151-.7672c1.124-.5427 2.032-1.2693 2.668-2.2024l-1.653-1.1259c-.402.5891-1.011 1.1056-1.885 1.5271zm2.662-2.1936c.64-.9196 1.071-1.9501 1.295-3.08l-1.962-.3882c-.173.8709-.498 1.642-.974 2.3247zm1.296-3.0873c.21-1.1039.313-2.2274.311-3.3695l-2 .0041c.002 1.0179-.09 2.0148-.276 2.9918zm.311-3.3695-.002-1.08-2 .0041.002 1.08zm-1-.0779 7.92-.0166-.004-1.9999-7.92.0165zm6.918-1.0145.002 1.08 2-.0041-.002-1.08zm.002 1.08c.01 4.8256-1.253 8.4064-3.655 10.8912l1.438 1.39c2.867-2.9662 4.228-7.111 4.217-12.2853zm-3.655 10.8914c-2.349 2.4317-5.85 3.7285-10.675 3.7385l.005 2c5.175-.0108 9.269-1.4098 12.108-4.3489zm-10.675 3.7385c-4.582.0096-8.104-1.3683-10.686-4.0498l-1.441 1.3872c3.03 3.1468 7.114 4.6731 12.132 4.6626zm-10.686-4.0498c-2.568-2.6668-3.936-6.6373-3.947-12.0797l-2 .0042c.012 5.7575 1.462 10.3012 4.506 13.4627zm-3.947-12.0797-.02-9.36-2 .0042.02 9.36zm-.02-9.36c-.005-2.5915.338-4.8808 1.013-6.8805l-1.895-.6392c-.757 2.2432-1.124 4.7554-1.118 7.5239zm1.015-6.8859c.676-2.0439 1.644-3.71359 2.887-5.0356l-1.457-1.37022c-1.47 1.56366-2.575 3.49825-3.329 5.77732zm2.897-5.04562c1.252-1.36842 2.763-2.40655 4.545-3.1163l-.74-1.85808c-2.055.81825-3.819 2.02696-5.281 3.6242zm4.561-3.12307c1.78-.74573 3.805-1.13101 6.093-1.13578l-.004-1.999997c-2.512.005237-4.804.428957-6.862 1.291237zm6.093-1.13578c2.385-.00497 4.463.33692 6.251 1.0033l.699-1.87412c-2.055-.76561-4.378-1.134547-6.954-1.129177zm6.251 1.0033c1.793.66789 3.262 1.6242 4.429 2.85981l1.454-1.37377c-1.398-1.47905-3.134-2.59606-5.184-3.36016zm4.44 2.87089c1.211 1.24247 2.119 2.74797 2.718 4.53408l1.896-.6364c-.688-2.05118-1.747-3.82159-3.182-5.29362zm2.724 4.55168c.64 1.7943.971 3.8381.976 6.1442l2-.0042c-.005-2.4939-.363-4.7687-1.092-6.8116zm.976 6.1442.002 1.08 2-.0042-.002-1.08zm1 .0779-7.92.0165.004 2 7.92-.0165zm-6.918 1.0144-.002-1.08-2 .0042.002 1.08zm-.002-1.08c-.002-1.0808-.134-2.1588-.394-3.2326l-1.944.4708c.224.9253.336 1.8468.338 2.766zm-.394-3.2326c-.27-1.1148-.722-2.1304-1.36-3.0372l-1.636 1.1503c.486.6909.838 1.4736 1.052 2.3577zm-1.36-3.0372c-.666-.9481-1.562-1.69088-2.657-2.23545l-.89 1.79075c.827.4114 1.454.9454 1.911 1.595zm-2.628-2.22037c-1.146-.61809-2.523-.89546-4.078-.89221l.004 1.99999c1.325-.00276 2.35.23489 3.126.65279zm-4.078-.89221c-1.451.00302-2.761.29228-3.894.90883l.956 1.75655c.785-.4274 1.754-.66291 2.942-.66539zm-3.865.89363c-1.104.55498-2.026 1.34275-2.757 2.35205l1.62 1.1729c.546-.7534 1.221-1.3289 2.035-1.738zm-2.743 2.33415c-.726.9562-1.255 2.0766-1.602 3.3434l1.929.5279c.289-1.0546.715-1.9362 1.266-2.6626zm-1.608 3.3668c-.299 1.2056-.445 2.4677-.442 3.7835l2-.0042c-.002-1.1642.127-2.2627.383-3.2982zm-.442 3.7835.022 10.56 2-.0042-.022-10.56zm.022 10.56c.003 1.4282.153 2.7677.456 4.0137l1.943-.4734c-.261-1.0728-.396-2.2528-.399-3.5445zm.458 4.0216c.31 1.2267.8 2.3235 1.483 3.2756l1.626-1.1659c-.521-.7254-.914-1.5867-1.17-2.5989zm1.483 3.2756c.701.9766 1.611 1.7399 2.712 2.2875l.89-1.7907c-.821-.4083-1.474-.9618-1.976-1.6627zm2.756 2.3083c1.159.5068 2.503.7395 4.005.7364l-.005-2c-1.298.0027-2.355-.1996-3.198-.5687zm27.106-35.9519-.002-.99999-1 .00208.002 1zm26.52-.05529 1-.00208-.002-1-1 .00208zm.016 7.55999.002 1 1-.0021-.002-1zm-18.6.0388-.002-1.00002-1 .00208.002 1.00004zm.02 9.6-1 .002.002 1 1-.002zm17.88-.0373 1-.0021-.002-1-1 .0021zm.016 7.56.002 1 1-.0021-.002-1zm-17.88.0372-.002-1-1 .0021.002 1zm.02 9.72-1 .0021.002 1 1-.0021zm19.32-.0403 1-.002-.002-1-1 .002zm.016 7.56.002 1 1-.0021-.002-1zm-27.24.0568-1 .0021.002 1 1-.0021zm-.086-40.9999 26.52-.05529-.004-2-26.52.0553zm25.518-1.0532.016 7.56 2-.0042-.016-7.55997zm1.014 6.5579-18.6.03878.004 2.00002 18.6-.0388zm-19.598 1.0409.02 9.5999 2-.0041-.02-9.6zm1.022 10.5979 17.88-.0373-.004-2-17.88.0373zm16.878-1.0352.016 7.5599 2-.0041-.016-7.56zm1.014 6.5579-17.88.0372.004 2 17.88-.0372zm-18.878 1.0393.02 9.72 2-.0042-.02-9.7199zm1.022 10.7179 19.32-.0403-.004-2-19.32.0403zm18.318-1.0382.016 7.56 2-.0042-.016-7.5599zm1.014 6.5579-27.24.0568.004 2 27.24-.0568zm-26.238 1.0547-.088-41.99988-2 .00417.088 41.99991zm54.328-33.6533-.694.7197.005.0053.006.0053zm-10.201-.5787.569.822.01-.0066.009-.0067zm-1.309 5.2827-.905.4248.005.0122.006.0121zm1.443 1.557-.575.8182.027.019.029.0172zm2.763 1.1942-.304.9527.009.003zm4.382 1.0109-.177.9842zm10.088 3.999-.628.7782zm2.43 14.3949-.913-.4084-.004.0108zm-2.991 4.0263.648.7611zm-4.795 2.59.306.952zm-13.68-.2115-.358.9341.011.0041.011.0039zm-5.227-3.2291-.706.7086.005.0051.005.005zm-3.19-4.8534-.934.3596.003.0068zm-1.097-7.9177-.002-1-1 .0021.002 1zm7.92-.0165 1-.0021-.002-1-1 .0021zm2.176 7.4955-.725.6892.01.0098.009.0096zm12.181.6346-.669-.7432zm1.368-5.6429-.935.3531.004.0102.004.01zm-1.263-1.6774-.654.7571.015.0129.016.0122zm-2.463-1.3748.357-.9341zm-3.962-1.0118.17-.9854-.005-.0008zm-5.823-1.3678-.321.9472.01.0032.01.0031zm-4.625-2.3304-.598.8013.006.0044.006.0043zm-3.089-13.97358-.9-.43562-.005.0105zm2.932-3.84612-.647-.76294-.006.00507-.005.00516zm4.555-2.5295-.319-.94805-.006.00221zm12.6.15373-.349.93706.009.00321.008.00305zm4.806 2.80998-.683.73097.006.00523.006.00514zm2.949 4.13386-.925.38149.004.01004.005.01zm1.034 7.07783.002 1 1-.0021-.002-1zm-7.92.0165-1 .0021.002 1 1-.0021zm.997-1.442c-.004-1.9792-.799-3.6947-2.306-5.1041l-1.366 1.4606c1.139 1.065 1.669 2.2669 1.672 3.6476zm-2.294-5.0935c-1.524-1.47006-3.628-2.1342-6.161-2.12892l.004 2.00002c2.187-.0046 3.727.5637 4.768 1.5683zm-6.161-2.12892c-2.129.00444-3.939.45436-5.323 1.46116l1.176 1.61746c.932-.6781 2.281-1.0747 4.151-1.0786zm-5.305 1.44785c-1.426.98817-2.167 2.39637-2.163 4.12777l2-.0042c-.002-1.0687.412-1.8629 1.302-2.4795zm-2.163 4.12777c.002.8531.17 1.6588.519 2.4018l1.81-.8496c-.214-.4559-.328-.9696-.329-1.5564zm.53 2.4261c.376.7474.989 1.3827 1.762 1.9261l1.15-1.6364c-.589-.4138-.938-.8164-1.125-1.1879zm1.818 1.9623c.809.4922 1.809.9194 2.978 1.2925l.608-1.9053c-1.073-.3423-1.915-.7113-2.547-1.096zm2.987 1.2955c1.213.3736 2.716.719 4.5 1.0394l.354-1.9684c-1.738-.3122-3.156-.6408-4.265-.9823zm4.5 1.0394c4.312.7748 7.493 2.063 9.637 3.793l1.256-1.5565c-2.504-2.0202-6.048-3.3981-10.539-4.2049zm9.637 3.793c2.035 1.6422 3.118 4.1012 3.126 7.5566l2-.0042c-.009-3.9045-1.257-7.0007-3.87-9.1089zm3.126 7.5566.001.72 2-.0042-.001-.72zm.001.72c.004 1.8351-.329 3.4737-.982 4.9317l1.826.8169c.781-1.745 1.16-3.6679 1.156-5.7528zm-.986 4.9425c-.615 1.4188-1.519 2.6372-2.723 3.6627l1.297 1.5223c1.432-1.22 2.522-2.6857 3.261-4.3897zm-2.723 3.6627c-1.204 1.026-2.681 1.83-4.452 2.3992l.612 1.904c1.987-.6387 3.706-1.5613 5.137-2.7809zm-4.452 2.3992c-1.763.5668-3.778.8605-6.054.8652l.004 2c2.444-.005 4.668-.3202 6.662-.9612zm-6.054.8652c-2.67.0056-4.993-.3573-6.985-1.0667l-.671 1.8841c2.251.8017 4.81 1.1886 7.66 1.1826zm-6.963-1.0588c-1.974-.7542-3.596-1.7629-4.889-3.0137l-1.391 1.4374c1.513 1.4634 3.375 2.6074 5.565 3.4445zm-4.879-3.0036c-1.305-1.2999-2.292-2.8012-2.965-4.5111l-1.861.7327c.775 1.9671 1.915 3.7014 3.415 5.1956zm-2.962-4.5044c-.676-1.7542-1.022-3.6711-1.026-5.7602l-2 .0042c.005 2.3109.388 4.4725 1.16 6.4752zm-1.026-5.7602-.004-1.8-2 .0042.004 1.8zm-1.002-.7979 7.92-.0165-.004-2-7.92.0165zm6.918-1.0144.003 1.44 2-.0042-.003-1.44zm.003 1.44c.006 2.7206.794 5.0038 2.448 6.7426l1.449-1.3785c-1.232-1.2951-1.892-3.0489-1.897-5.3683zm2.467 6.762c1.744 1.7366 4.332 2.5038 7.552 2.4971l-.004-2c-2.939.0061-4.914-.6971-6.137-1.9143zm7.552 2.4971c2.519-.0052 4.586-.5514 6.004-1.8279l-1.338-1.4864c-.898.8083-2.388 1.3096-4.67 1.3143zm6.004-1.8279c1.35-1.2151 2.067-2.7196 2.063-4.4689l-2 .0041c.003 1.1308-.435 2.1086-1.401 2.9784zm2.063-4.4689c-.001-.8005-.145-1.5669-.436-2.2905l-1.855.7466c.191.4754.29.9885.291 1.548zm-.428-2.2703c-.313-.8282-.852-1.5297-1.576-2.1064l-1.246 1.5643c.478.3808.781.7976.951 1.2483zm-1.546-2.0813c-.716-.6183-1.65-1.1281-2.759-1.5519l-.714 1.8682c.973.3718 1.681.7786 2.166 1.1978zm-2.759-1.5519c-1.122-.4288-2.511-.7799-4.149-1.0631l-.34 1.9708c1.562.2702 2.815.5936 3.775.9605zm-4.154-1.0639c-2.082-.3491-3.977-.795-5.687-1.3352l-.602 1.9071c1.812.5725 3.799 1.0385 5.958 1.4006zm-5.667-1.3288c-1.68-.5686-3.129-1.3022-4.359-2.1931l-1.173 1.6199c1.413 1.0236 3.047 1.8435 4.89 2.4676zm-4.348-2.1844c-1.156-.8639-2.058-1.9409-2.712-3.2416l-1.787.8982c.792 1.5763 1.896 2.895 3.303 3.9459zm-2.712-3.2416c-.636-1.2653-.98-2.8622-.984-4.8307l-2 .0041c.004 2.1915.387 4.1131 1.197 5.7248zm-.984-4.8307-.001-.36-2 .0041.001.36zm-.001-.36c-.003-1.5844.306-3.0177.915-4.31496l-1.81-.85024c-.745 1.5855-1.109 3.3137-1.105 5.1693zm.91-4.30449c.659-1.36074 1.554-2.5349 2.69-3.529l-1.316-1.50542c-1.339 1.17106-2.399 2.56098-3.174 4.16324zm2.678-3.51876c1.173-.9938 2.579-1.77891 4.233-2.34662l-.649-1.89167c-1.863.63963-3.494 1.54086-4.877 2.7124zm4.227-2.34443c1.682-.56459 3.573-.85613 5.682-.86053l-.004-1.999999c-2.291.004776-4.399.321569-6.315.964479zm5.682-.86053c2.384-.00497 4.463.33692 6.251 1.0033l.698-1.87412c-2.054-.765613-4.378-1.134548-6.953-1.129179zm6.268 1.00956c1.812.63748 3.289 1.50848 4.455 2.59763l1.365-1.46193c-1.398-1.30551-3.125-2.30783-5.156-3.02234zm4.467 2.608c1.219 1.1035 2.112 2.36053 2.695 3.77401l1.849-.76297c-.703-1.70384-1.776-3.20272-3.202-4.49372zm2.704 3.79405c.627 1.4312.942 2.9344.946 4.5184l2-.0041c-.004-1.856-.376-3.6314-1.115-5.31732zm.946 4.5184.004 2.16 2-.0042-.004-2.1599zm1.002 1.1579-7.92.0165.004 2 7.92-.0165zm-6.918 1.0145-.003-1.44-2 .0041.003 1.44zm33.746-5.8904-.694.7197.006.0053.005.0053zm-10.201-.5787.57.822.009-.0066.009-.0067zm-1.309 5.2827-.905.4248.006.0122.006.0121zm1.443 1.557-.575.8182.027.019.029.0172zm2.763 1.1942-.304.9527.01.003zm4.382 1.0109-.177.9842zm10.088 3.999-.628.7782zm2.43 14.3949-.912-.4084-.005.0108zm-2.991 4.0263.648.7611zm-4.795 2.59.306.952zm-13.68-.2115-.357.9341.01.0041.011.0039zm-5.227-3.2291-.706.7086.005.0051.006.005zm-3.19-4.8534-.933.3596.002.0068zm-1.097-7.9177-.002-1-1 .0021.002 1zm7.92-.0165 1-.0021-.002-1-1 .0021zm2.176 7.4955-.725.6892.01.0098.009.0096zm12.181.6346-.669-.7432zm1.369-5.6429-.936.3531.004.0102.004.01zm-1.264-1.6773-.653.757.015.0129.015.0122zm-2.463-1.3749.357-.9341zm-3.962-1.0118.17-.9854-.005-.0008zm-5.823-1.3678-.32.9472.009.0032.01.0031zm-4.625-2.3304-.598.8013.006.0044.006.0043zm-3.089-13.97358-.9-.43562-.005.0105zm2.932-3.84611-.646-.76295-.006.00507-.006.00516zm4.555-2.52951-.318-.94804-.007.0022zm12.6.15373-.349.93706.009.00321.008.00305zm4.806 2.80999-.682.73096.005.00523.006.00515zm2.949 4.13386-.925.38148.004.01006.005.00995zm1.034 7.07782.003 1 1-.002-.003-1zm-7.919.0166-1 .002.002 1 1-.0021zm.997-1.4421c-.005-1.9792-.8-3.6947-2.306-5.1041l-1.367 1.4606c1.139 1.065 1.67 2.2669 1.673 3.6476zm-2.295-5.0935c-1.524-1.47006-3.628-2.1342-6.161-2.12892l.005 2c2.187-.00456 3.726.56372 4.767 1.56832zm-6.161-2.12892c-2.129.00444-3.939.45436-5.323 1.46116l1.176 1.61746c.933-.6781 2.281-1.07472 4.152-1.07862zm-5.304 1.44785c-1.427.98817-2.168 2.39637-2.164 4.12777l2-.0042c-.002-1.0687.412-1.8629 1.303-2.4795zm-2.164 4.12777c.002.8531.17 1.6588.519 2.4018l1.81-.8496c-.213-.4559-.328-.9696-.329-1.5564zm.531 2.4261c.375.7474.988 1.3827 1.761 1.9261l1.15-1.6364c-.588-.4137-.938-.8164-1.124-1.1879zm1.817 1.9623c.809.4922 1.809.9194 2.978 1.2925l.608-1.9053c-1.072-.3423-1.914-.7113-2.547-1.096zm2.988 1.2955c1.212.3736 2.716.719 4.499 1.0394l.354-1.9684c-1.738-.3122-3.156-.6408-4.265-.9823zm4.499 1.0394c4.312.7748 7.493 2.063 9.637 3.793l1.256-1.5565c-2.503-2.0202-6.048-3.398-10.539-4.2049zm9.637 3.793c2.036 1.6422 3.119 4.1012 3.126 7.5566l2-.0042c-.008-3.9045-1.257-7.0007-3.87-9.1089zm3.126 7.5566.001.72 2-.0042-.001-.72zm.001.72c.004 1.8351-.329 3.4737-.981 4.9317l1.825.8169c.781-1.745 1.161-3.6679 1.156-5.7528zm-.986 4.9425c-.615 1.4188-1.519 2.6373-2.723 3.6627l1.297 1.5223c1.432-1.22 2.522-2.6857 3.261-4.3897zm-2.723 3.6627c-1.204 1.026-2.681 1.83-4.452 2.3992l.612 1.904c1.987-.6387 3.706-1.5613 5.137-2.7809zm-4.452 2.3992c-1.763.5668-3.778.8605-6.054.8653l.004 1.9999c2.444-.005 4.668-.3202 6.662-.9612zm-6.054.8653c-2.67.0055-4.993-.3574-6.985-1.0668l-.671 1.8841c2.251.8017 4.81 1.1886 7.66 1.1826zm-6.963-1.0589c-1.974-.7542-3.596-1.7629-4.889-3.0137l-1.39 1.4374c1.512 1.4634 3.375 2.6074 5.565 3.4445zm-4.878-3.0036c-1.306-1.2999-2.292-2.8012-2.966-4.5111l-1.861.7327c.775 1.9671 1.915 3.7014 3.415 5.1956zm-2.963-4.5043c-.676-1.7543-1.022-3.6712-1.026-5.7603l-2 .0042c.005 2.3109.388 4.4725 1.16 6.4752zm-1.026-5.7603-.004-1.8-2 .0042.004 1.8zm-1.002-.7979 7.92-.0165-.004-2-7.92.0165zm6.918-1.0144.003 1.44 2-.0042-.003-1.44zm.003 1.44c.006 2.7206.794 5.0038 2.448 6.7426l1.449-1.3785c-1.232-1.2951-1.892-3.0489-1.897-5.3683zm2.467 6.762c1.744 1.7366 4.332 2.5038 7.553 2.4971l-.005-2c-2.939.0061-4.914-.6971-6.136-1.9143zm7.553 2.4971c2.518-.0052 4.586-.5514 6.003-1.8279l-1.338-1.4864c-.898.8083-2.388 1.3096-4.67 1.3143zm6.003-1.8279c1.35-1.2151 2.067-2.7196 2.064-4.4689l-2 .0042c.002 1.1307-.436 2.1085-1.402 2.9783zm2.064-4.4689c-.002-.8005-.146-1.5669-.437-2.2905l-1.855.7466c.191.4754.29.9885.292 1.5481zm-.429-2.2703c-.312-.8282-.852-1.5297-1.576-2.1064l-1.246 1.5643c.478.3808.781.7976.951 1.2483zm-1.546-2.0813c-.716-.6183-1.65-1.1281-2.759-1.5519l-.714 1.8682c.973.3718 1.681.7786 2.167 1.1978zm-2.759-1.5519c-1.122-.4288-2.51-.7799-4.149-1.063l-.34 1.9707c1.563.2702 2.815.5936 3.775.9605zm-4.154-1.0639c-2.082-.3491-3.976-.795-5.687-1.3352l-.602 1.9071c1.812.5725 3.799 1.0385 5.959 1.4006zm-5.667-1.3288c-1.679-.5686-3.129-1.3022-4.359-2.1931l-1.173 1.6199c1.413 1.0236 3.047 1.8435 4.891 2.4676zm-4.347-2.1844c-1.157-.8639-2.059-1.9409-2.713-3.2416l-1.787.8982c.793 1.5763 1.896 2.895 3.303 3.9459zm-2.713-3.2416c-.636-1.2653-.98-2.8622-.984-4.8307l-2 .0041c.004 2.1915.387 4.1131 1.197 5.7248zm-.984-4.8307-.001-.36-2 .0041.001.36zm-.001-.36c-.003-1.5844.306-3.0177.915-4.31496l-1.81-.85024c-.745 1.58554-1.109 3.3137-1.105 5.1693zm.91-4.30449c.659-1.36074 1.554-2.53489 2.691-3.52899l-1.317-1.50543c-1.339 1.17107-2.399 2.56099-3.174 4.16324zm2.679-3.51876c1.173-.9938 2.579-1.7789 4.233-2.34662l-.65-1.89167c-1.863.63963-3.494 1.54087-4.876 2.7124zm4.226-2.34443c1.682-.56459 3.573-.85613 5.682-.86053l-.004-1.999995c-2.291.004776-4.399.321569-6.314.964485zm5.682-.86053c2.385-.00497 4.463.33692 6.251 1.0033l.698-1.87412c-2.054-.765609-4.378-1.134544-6.953-1.129175zm6.268 1.00956c1.812.63748 3.289 1.50848 4.456 2.59763l1.365-1.46192c-1.399-1.30551-3.126-2.30784-5.157-3.02235zm4.467 2.60801c1.219 1.10349 2.112 2.36052 2.695 3.774l1.849-.76296c-.703-1.70385-1.776-3.20273-3.202-4.49372zm2.704 3.79401c.627 1.43123.943 2.93443.946 4.51843l2-.0041c-.004-1.856-.375-3.6314-1.114-5.31732zm.946 4.51843.004 2.16 2-.0041-.004-2.16zm1.002 1.1579-7.92.0166.005 1.9999 7.92-.0165zm-6.917 1.0145-.003-1.44-2 .0041.003 1.44z" fill="#bcff16"/></svg>