<svg width="661" height="51" viewBox="0 0 661 51" fill="none" xmlns="http://www.w3.org/2000/svg">
<path d="M11.3279 31.8453L11.3224 29.2275L8.70458 29.233L8.71004 31.8508L11.3279 31.8453ZM11.3609 47.6853L11.3664 50.3031L13.9842 50.2977L13.9787 47.6798L11.3609 47.6853ZM3.44092 47.7018L0.823082 47.7073L0.82854 50.3251L3.44637 50.3196L3.44092 47.7018ZM3.35335 5.70189L3.34789 3.08406L0.730058 3.08952L0.735516 5.70735L3.35335 5.70189ZM25.4356 6.73586L24.3663 9.12535L24.3913 9.13657L24.4166 9.14726L25.4356 6.73586ZM29.4013 9.4876L27.4558 11.2392L27.4876 11.2745L27.5207 11.3087L29.4013 9.4876ZM31.8094 13.3826L29.3414 14.2555L29.3558 14.2962L29.3716 14.3365L31.8094 13.3826ZM31.8313 23.8826L29.373 22.9827L29.3662 23.0013L29.3597 23.0199L31.8313 23.8826ZM29.4397 27.9076L27.4902 26.1604L27.4869 26.1641L29.4397 27.9076ZM25.4856 30.7358L26.5648 33.1208L25.4856 30.7358ZM11.3121 24.2853L8.69428 24.2908L8.69974 26.9086L11.3176 26.9032L11.3121 24.2853ZM23.1891 22.8206L21.4095 20.9007L21.3907 20.9181L21.3722 20.9359L23.1891 22.8206ZM23.1721 14.6606L21.3631 16.5528L21.3816 16.5706L21.4005 16.5879L23.1721 14.6606ZM11.2891 13.2454L11.2836 10.6275L8.6658 10.633L8.67126 13.2508L11.2891 13.2454ZM8.71004 31.8508L8.74307 47.6908L13.9787 47.6798L13.9457 31.8399L8.71004 31.8508ZM11.3554 45.0675L3.43546 45.084L3.44637 50.3196L11.3664 50.3031L11.3554 45.0675ZM6.05875 47.6963L5.97118 5.69644L0.735516 5.70735L0.823082 47.7073L6.05875 47.6963ZM3.35881 8.31973L19.7988 8.28545L19.7879 3.04978L3.34789 3.08406L3.35881 8.31973ZM19.7988 8.28545C21.6719 8.28155 23.1715 8.59071 24.3663 9.12535L26.5048 4.34636C24.4966 3.44768 22.2348 3.04468 19.7879 3.04978L19.7988 8.28545ZM24.4166 9.14726C25.7058 9.69199 26.6985 10.3981 27.4558 11.2392L31.3468 7.73601C30.0193 6.26147 28.3681 5.13305 26.4545 4.32445L24.4166 9.14726ZM27.5207 11.3087C28.3392 12.1539 28.9427 13.1281 29.3414 14.2555L34.2774 12.5097C33.63 10.6792 32.6281 9.05675 31.2819 7.66653L27.5207 11.3087ZM29.3716 14.3365C29.8183 15.4782 30.0384 16.6363 30.0408 17.8263L35.2765 17.8154C35.2727 15.9654 34.9266 14.1647 34.2473 12.4287L29.3716 14.3365ZM30.0408 17.8263L30.0438 19.2663L35.2795 19.2554L35.2765 17.8154L30.0408 17.8263ZM30.0438 19.2663C30.0464 20.5057 29.8278 21.7402 29.373 22.9827L34.2896 24.7824C34.9485 22.9826 35.2834 21.136 35.2795 19.2554L30.0438 19.2663ZM29.3597 23.0199C28.9601 24.165 28.3439 25.2079 27.4902 26.1604L31.3892 29.6547C32.6906 28.2027 33.6688 26.5623 34.3029 24.7452L29.3597 23.0199ZM27.4869 26.1641C26.7215 27.0214 25.7141 27.759 24.4063 28.3508L26.5648 33.1208C28.4541 32.2659 30.0827 31.1181 31.3925 29.651L27.4869 26.1641ZM24.4063 28.3508C23.2138 28.8904 21.7155 29.2058 19.8424 29.2097L19.8533 34.4454C22.3002 34.4403 24.5604 34.0279 26.5648 33.1208L24.4063 28.3508ZM19.8424 29.2097L11.3224 29.2275L11.3333 34.4632L19.8533 34.4454L19.8424 29.2097ZM11.3176 26.9032L19.0576 26.887L19.0466 21.6514L11.3067 21.6675L11.3176 26.9032ZM19.0576 26.887C21.3031 26.8824 23.3998 26.2536 25.006 24.7053L21.3722 20.9359C20.9824 21.3117 20.3211 21.6487 19.0466 21.6514L19.0576 26.887ZM24.9687 24.7405C26.5854 23.2419 27.3637 21.282 27.3592 19.0919L22.1235 19.1028C22.1253 19.9527 21.8688 20.4749 21.4095 20.9007L24.9687 24.7405ZM27.3592 19.0919L27.3577 18.3719L22.122 18.3828L22.1235 19.1028L27.3592 19.0919ZM27.3577 18.3719C27.3531 16.1818 26.5666 14.2251 24.9437 12.7333L21.4005 16.5879C21.8616 17.0117 22.1202 17.5329 22.122 18.3828L27.3577 18.3719ZM24.9811 12.7683C23.3685 11.2267 21.2691 10.6067 19.0236 10.6114L19.0345 15.8471C20.309 15.8444 20.9717 16.1787 21.3631 16.5528L24.9811 12.7683ZM19.0236 10.6114L11.2836 10.6275L11.2946 15.8632L19.0345 15.8471L19.0236 10.6114ZM8.67126 13.2508L8.69428 24.2908L13.9299 24.2799L13.9069 13.2399L8.67126 13.2508ZM61.3403 38.5811L63.8922 37.9971L63.4257 35.9589L61.3349 35.9632L61.3403 38.5811ZM47.0603 38.6108L47.0549 35.993L44.964 35.9974L44.5061 38.0375L47.0603 38.6108ZM45.0391 47.6151L45.0446 50.2329L47.1354 50.2286L47.5934 48.1885L45.0391 47.6151ZM36.7591 47.6323L34.2115 47.0302L33.4487 50.2571L36.7646 50.2502L36.7591 47.6323ZM46.6915 5.61154L46.6861 2.9937L44.6193 2.99801L44.1439 5.00936L46.6915 5.61154ZM61.5715 5.58051L64.1166 4.96771L63.6328 2.95837L61.566 2.96268L61.5715 5.58051ZM71.679 47.5595L71.6845 50.1774L75.0003 50.1705L74.2242 46.9467L71.679 47.5595ZM63.3991 47.5768L60.8472 48.1608L61.3137 50.199L63.4045 50.1946L63.3991 47.5768ZM48.7246 31.0474L46.1716 30.4682L45.4448 33.672L48.73 33.6652L48.7246 31.0474ZM59.5846 31.0247L59.59 33.6425L62.8663 33.6357L62.1366 30.4417L59.5846 31.0247ZM54.6798 9.55489L57.2319 8.97187L56.766 6.9327L54.6743 6.93706L54.6798 9.55489ZM53.5998 9.55714L53.5943 6.93931L51.5083 6.94366L51.0468 8.97799L53.5998 9.55714ZM61.3349 35.9632L47.0549 35.993L47.0658 41.2287L61.3458 41.1989L61.3349 35.9632ZM44.5061 38.0375L42.4848 47.0417L47.5934 48.1885L49.6146 39.1842L44.5061 38.0375ZM45.0336 44.9972L36.7537 45.0145L36.7646 50.2502L45.0446 50.2329L45.0336 44.9972ZM39.3068 48.2345L49.2392 6.21372L44.1439 5.00936L34.2115 47.0302L39.3068 48.2345ZM46.697 8.22937L61.577 8.19835L61.566 2.96268L46.6861 2.9937L46.697 8.22937ZM59.0264 6.19331L69.1339 48.1723L74.2242 46.9467L64.1166 4.96771L59.0264 6.19331ZM71.6736 44.9417L63.3936 44.959L63.4045 50.1946L71.6845 50.1774L71.6736 44.9417ZM65.9509 46.9928L63.8922 37.9971L58.7884 39.1651L60.8472 48.1608L65.9509 46.9928ZM48.73 33.6652L59.59 33.6425L59.5791 28.4069L48.7191 28.4295L48.73 33.6652ZM62.1366 30.4417L57.2319 8.97187L52.1277 10.1379L57.0325 31.6077L62.1366 30.4417ZM54.6743 6.93706L53.5943 6.93931L53.6052 12.175L54.6852 12.1727L54.6743 6.93706ZM51.0468 8.97799L46.1716 30.4682L51.2775 31.6265L56.1527 10.1363L51.0468 8.97799ZM75.7498 5.55095L75.7443 2.93312L73.1265 2.93858L73.1319 5.55641L75.7498 5.55095ZM105.99 5.48791L108.608 5.48245L108.602 2.86461L105.984 2.87007L105.99 5.48791ZM106.005 13.0479L106.011 15.6657L108.629 15.6603L108.623 13.0424L106.005 13.0479ZM94.8455 13.0712L94.84 10.4533L92.2222 10.4588L92.2276 13.0766L94.8455 13.0712ZM94.9173 47.5111L94.9227 50.1289L97.5406 50.1235L97.5351 47.5056L94.9173 47.5111ZM86.9973 47.5276L84.3795 47.5331L84.3849 50.1509L87.0028 50.1454L86.9973 47.5276ZM86.9255 13.0877L89.5433 13.0822L89.5379 10.4644L86.92 10.4698L86.9255 13.0877ZM75.7655 13.1109L73.1477 13.1164L73.1531 15.7342L75.771 15.7288L75.7655 13.1109ZM75.7552 8.16879L105.995 8.10574L105.984 2.87007L75.7443 2.93312L75.7552 8.16879ZM103.372 5.49336L103.388 13.0533L108.623 13.0424L108.608 5.48245L103.372 5.49336ZM106 10.4301L94.84 10.4533L94.8509 15.689L106.011 15.6657L106 10.4301ZM92.2276 13.0766L92.2995 47.5165L97.5351 47.5056L97.4633 13.0657L92.2276 13.0766ZM94.9118 44.8933L86.9918 44.9098L87.0028 50.1454L94.9227 50.1289L94.9118 44.8933ZM89.6151 47.5221L89.5433 13.0822L84.3077 13.0931L84.3795 47.5331L89.6151 47.5221ZM86.92 10.4698L75.7601 10.4931L75.771 15.7288L86.931 15.7055L86.92 10.4698ZM78.3834 13.1055L78.3676 5.5455L73.1319 5.55641L73.1477 13.1164L78.3834 13.1055ZM112.908 5.47348L112.903 2.85565L110.285 2.86111L110.29 5.47894L112.908 5.47348ZM120.828 5.45697L123.446 5.45151L123.44 2.83368L120.822 2.83914L120.828 5.45697ZM120.864 22.6169L118.246 22.6224L118.251 25.2402L120.869 25.2348L120.864 22.6169ZM134.424 22.5887L134.429 25.2065L137.047 25.201L137.042 22.5832L134.424 22.5887ZM134.388 5.4287L134.382 2.81086L131.765 2.81632L131.77 5.43416L134.388 5.4287ZM142.308 5.41219L144.926 5.40673L144.92 2.78889L142.302 2.79435L142.308 5.41219ZM142.395 47.4121L142.401 50.0299L145.019 50.0245L145.013 47.4066L142.395 47.4121ZM134.475 47.4286L131.858 47.4341L131.863 50.0519L134.481 50.0464L134.475 47.4286ZM134.439 30.1486L137.057 30.1432L137.052 27.5254L134.434 27.5308L134.439 30.1486ZM120.879 30.1769L120.874 27.5591L118.256 27.5645L118.262 30.1824L120.879 30.1769ZM120.916 47.4569L120.921 50.0747L123.539 50.0693L123.533 47.4514L120.916 47.4569ZM112.996 47.4734L110.378 47.4789L110.383 50.0967L113.001 50.0912L112.996 47.4734ZM112.913 8.09132L120.833 8.0748L120.822 2.83914L112.903 2.85565L112.913 8.09132ZM118.21 5.46243L118.246 22.6224L123.482 22.6115L123.446 5.45151L118.21 5.46243ZM120.869 25.2348L134.429 25.2065L134.418 19.9708L120.858 19.9991L120.869 25.2348ZM137.042 22.5832L137.006 5.42324L131.77 5.43416L131.806 22.5941L137.042 22.5832ZM134.393 8.04653L142.313 8.03002L142.302 2.79435L134.382 2.81086L134.393 8.04653ZM139.69 5.41764L139.778 47.4176L145.013 47.4066L144.926 5.40673L139.69 5.41764ZM142.39 44.7943L134.47 44.8108L134.481 50.0464L142.401 50.0299L142.39 44.7943ZM137.093 47.4232L137.057 30.1432L131.822 30.1541L131.858 47.4341L137.093 47.4232ZM134.434 27.5308L120.874 27.5591L120.885 32.7948L134.445 32.7665L134.434 27.5308ZM118.262 30.1824L118.298 47.4623L123.533 47.4514L123.497 30.1715L118.262 30.1824ZM120.91 44.839L112.99 44.8556L113.001 50.0912L120.921 50.0747L120.91 44.839ZM115.613 47.4679L115.526 5.46802L110.29 5.47894L110.378 47.4789L115.613 47.4679ZM180.874 47.3319L180.879 49.9497L183.409 49.9444L183.49 47.4161L180.874 47.3319ZM167.074 47.3606L164.461 47.5233L164.614 49.9836L167.079 49.9785L167.074 47.3606ZM165.087 15.4447L162.469 15.4502L162.469 15.5288L162.474 15.6073L165.087 15.4447ZM165.075 9.68473L167.693 9.67927L167.688 7.06144L165.07 7.0669L165.075 9.68473ZM163.635 9.68773L163.63 7.0699L161.012 7.07536L161.017 9.69319L163.635 9.68773ZM163.647 15.4477L166.261 15.5995L166.265 15.5209L166.265 15.4423L163.647 15.4477ZM161.794 47.3717L161.799 49.9895L164.264 49.9843L164.407 47.5234L161.794 47.3717ZM147.994 47.4004L145.378 47.4956L145.47 50.0235L147.999 50.0183L147.994 47.4004ZM146.466 5.40352L146.461 2.78568L143.752 2.79133L143.85 5.49867L146.466 5.40352ZM153.666 5.3885L156.283 5.30435L156.201 2.76538L153.661 2.77067L153.666 5.3885ZM154.693 37.3064L157.311 37.301L157.31 37.2616L157.309 37.2223L154.693 37.3064ZM154.704 42.7064L152.086 42.7119L152.092 45.3297L154.709 45.3243L154.704 42.7064ZM156.144 42.7034L156.149 45.3213L158.767 45.3158L158.762 42.698L156.144 42.7034ZM156.133 37.3034L153.519 37.1517L153.515 37.2302L153.515 37.3089L156.133 37.3034ZM157.986 5.3795L157.981 2.76166L155.516 2.7668L155.373 5.22777L157.986 5.3795ZM170.706 5.35298L173.319 5.19035L173.166 2.73001L170.701 2.73514L170.706 5.35298ZM172.693 37.2689L175.31 37.2634L175.31 37.1848L175.305 37.1063L172.693 37.2689ZM172.704 42.6689L170.086 42.6744L170.092 45.2922L172.709 45.2867L172.704 42.6689ZM174.144 42.6659L174.149 45.2837L176.767 45.2783L176.762 42.6604L174.144 42.6659ZM174.133 37.2659L171.516 37.1927L171.515 37.232L171.515 37.2714L174.133 37.2659ZM175.026 5.34397L175.021 2.72614L172.48 2.73143L172.409 5.27073L175.026 5.34397ZM182.226 5.32896L184.843 5.41321L184.93 2.70548L182.221 2.71113L182.226 5.32896ZM180.868 44.714L167.068 44.7428L167.079 49.9785L180.879 49.9497L180.868 44.714ZM169.686 47.198L167.7 15.2821L162.474 15.6073L164.461 47.5233L169.686 47.198ZM167.705 15.4393L167.693 9.67927L162.457 9.69019L162.469 15.4502L167.705 15.4393ZM165.07 7.0669L163.63 7.0699L163.641 12.3056L165.081 12.3026L165.07 7.0669ZM161.017 9.69319L161.029 15.4532L166.265 15.4423L166.253 9.68227L161.017 9.69319ZM161.034 15.296L159.18 47.2199L164.407 47.5234L166.261 15.5995L161.034 15.296ZM161.788 44.7538L147.988 44.7826L147.999 50.0183L161.799 49.9895L161.788 44.7538ZM150.61 47.3053L149.082 5.30836L143.85 5.49867L145.378 47.4956L150.61 47.3053ZM146.472 8.02135L153.672 8.00634L153.661 2.77067L146.461 2.78568L146.472 8.02135ZM151.05 5.47266L152.076 37.3906L157.309 37.2223L156.283 5.30435L151.05 5.47266ZM152.075 37.3119L152.086 42.7119L157.322 42.701L157.311 37.301L152.075 37.3119ZM154.709 45.3243L156.149 45.3213L156.138 40.0856L154.698 40.0886L154.709 45.3243ZM158.762 42.698L158.751 37.298L153.515 37.3089L153.526 42.7089L158.762 42.698ZM158.746 37.4552L160.6 5.53123L155.373 5.22777L153.519 37.1517L158.746 37.4552ZM157.992 7.99733L170.712 7.97081L170.701 2.73514L157.981 2.76166L157.992 7.99733ZM168.093 5.51561L170.08 37.4315L175.305 37.1063L173.319 5.19035L168.093 5.51561ZM170.075 37.2744L170.086 42.6744L175.322 42.6634L175.31 37.2634L170.075 37.2744ZM172.709 45.2867L174.149 45.2837L174.138 40.0481L172.698 40.0511L172.709 45.2867ZM176.762 42.6604L176.75 37.2604L171.515 37.2714L171.526 42.6714L176.762 42.6604ZM176.749 37.3391L177.643 5.41721L172.409 5.27073L171.516 37.1927L176.749 37.3391ZM175.032 7.9618L182.232 7.94679L182.221 2.71113L175.021 2.72614L175.032 7.9618ZM179.61 5.24471L178.257 47.2476L183.49 47.4161L184.843 5.41321L179.61 5.24471ZM208.293 38.2747L210.845 37.6907L210.379 35.6525L208.288 35.6569L208.293 38.2747ZM194.013 38.3045L194.008 35.6866L191.917 35.691L191.459 37.7311L194.013 38.3045ZM191.992 47.3087L191.997 49.9265L194.088 49.9222L194.546 47.8821L191.992 47.3087ZM183.712 47.326L181.164 46.7238L180.402 49.9507L183.717 49.9438L183.712 47.326ZM193.644 5.30515L193.639 2.68732L191.572 2.69163L191.097 4.70297L193.644 5.30515ZM208.524 5.27413L211.069 4.66133L210.586 2.65199L208.519 2.6563L208.524 5.27413ZM218.632 47.2532L218.637 49.871L221.953 49.8641L221.177 46.6404L218.632 47.2532ZM210.352 47.2704L207.8 47.8544L208.266 49.8926L210.357 49.8882L210.352 47.2704ZM195.677 30.741L193.124 30.1618L192.398 33.3657L195.683 33.3588L195.677 30.741ZM206.537 30.7183L206.543 33.3362L209.819 33.3293L209.089 30.1353L206.537 30.7183ZM201.633 9.24851L204.185 8.66549L203.719 6.62632L201.627 6.63068L201.633 9.24851ZM200.553 9.25076L200.547 6.63293L198.461 6.63728L198 8.6716L200.553 9.25076ZM208.288 35.6569L194.008 35.6866L194.019 40.9223L208.299 40.8925L208.288 35.6569ZM191.459 37.7311L189.438 46.7353L194.546 47.8821L196.567 38.8778L191.459 37.7311ZM191.986 44.6909L183.706 44.7081L183.717 49.9438L191.997 49.9265L191.986 44.6909ZM186.26 47.9281L196.192 5.90734L191.097 4.70297L181.164 46.7238L186.26 47.9281ZM193.65 7.92299L208.53 7.89196L208.519 2.6563L193.639 2.68732L193.65 7.92299ZM205.979 5.88693L216.087 47.866L221.177 46.6404L211.069 4.66133L205.979 5.88693ZM218.626 44.6353L210.346 44.6526L210.357 49.8882L218.637 49.871L218.626 44.6353ZM212.904 46.6864L210.845 37.6907L205.741 38.8587L207.8 47.8544L212.904 46.6864ZM195.683 33.3588L206.543 33.3362L206.532 28.1005L195.672 28.1231L195.683 33.3588ZM209.089 30.1353L204.185 8.66549L199.08 9.83154L203.985 31.3014L209.089 30.1353ZM201.627 6.63068L200.547 6.63293L200.558 11.8686L201.638 11.8663L201.627 6.63068ZM198 8.6716L193.124 30.1618L198.23 31.3201L203.106 9.82992L198 8.6716ZM233.919 32.4612L236.537 32.4558L236.532 29.838L233.914 29.8434L233.919 32.4612ZM232.119 32.465L229.728 33.5298L230.421 35.0864L232.125 35.0828L232.119 32.465ZM220.003 5.2502L219.997 2.63237L215.975 2.64075L217.611 6.31497L220.003 5.2502ZM228.643 5.23219L231.044 4.19075L230.359 2.61076L228.637 2.61435L228.643 5.23219ZM237.324 25.2541L234.923 26.2956L235.608 27.8756L237.33 27.872L237.324 25.2541ZM238.404 25.2519L238.41 27.8697L240.132 27.8661L240.81 26.2833L238.404 25.2519ZM247.003 5.19391L246.997 2.57607L245.275 2.57966L244.596 4.16249L247.003 5.19391ZM255.642 5.17589L258.038 6.23068L259.659 2.54967L255.637 2.55806L255.642 5.17589ZM243.639 32.441L243.645 35.0588L245.349 35.0553L246.035 33.4958L243.639 32.441ZM241.839 32.4447L241.834 29.8269L239.216 29.8324L239.221 32.4502L241.839 32.4447ZM241.87 47.2047L241.876 49.8225L244.493 49.8171L244.488 47.1992L241.87 47.2047ZM233.95 47.2212L231.332 47.2267L231.338 49.8445L233.956 49.839L233.95 47.2212ZM233.914 29.8434L232.114 29.8472L232.125 35.0828L233.925 35.0791L233.914 29.8434ZM234.511 31.4002L222.394 4.18543L217.611 6.31497L229.728 33.5298L234.511 31.4002ZM220.008 7.86803L228.648 7.85002L228.637 2.61435L219.997 2.63237L220.008 7.86803ZM226.241 6.27362L234.923 26.2956L239.726 24.2127L231.044 4.19075L226.241 6.27362ZM237.33 27.872L238.41 27.8697L238.399 22.634L237.319 22.6363L237.33 27.872ZM240.81 26.2833L249.409 6.22532L244.596 4.16249L235.998 24.2205L240.81 26.2833ZM247.008 7.81174L255.648 7.79373L255.637 2.55806L246.997 2.57607L247.008 7.81174ZM253.247 4.12111L241.243 31.3862L246.035 33.4958L258.038 6.23068L253.247 4.12111ZM243.634 29.8231L241.834 29.8269L241.845 35.0626L243.645 35.0588L243.634 29.8231ZM239.221 32.4502L239.252 47.2102L244.488 47.1992L244.457 32.4393L239.221 32.4502ZM241.865 44.5869L233.945 44.6034L233.956 49.839L241.876 49.8225L241.865 44.5869ZM236.568 47.2158L236.537 32.4558L231.302 32.4667L231.332 47.2267L236.568 47.2158ZM296.179 5.09138L296.174 2.47354L293.556 2.479L293.561 5.09684L296.179 5.09138ZM326.419 5.02833L329.037 5.02287L329.031 2.40504L326.413 2.4105L326.419 5.02833ZM326.435 12.5883L326.44 15.2062L329.058 15.2007L329.053 12.5829L326.435 12.5883ZM315.275 12.6116L315.269 9.99375L312.651 9.99921L312.657 12.617L315.275 12.6116ZM315.347 47.0515L315.352 49.6693L317.97 49.6639L317.964 47.0461L315.347 47.0515ZM307.427 47.068L304.809 47.0735L304.814 49.6913L307.432 49.6859L307.427 47.068ZM307.355 12.6281L309.973 12.6226L309.967 10.0048L307.349 10.0103L307.355 12.6281ZM296.195 12.6514L293.577 12.6568L293.582 15.2747L296.2 15.2692L296.195 12.6514ZM296.184 7.70921L326.424 7.64616L326.413 2.4105L296.174 2.47354L296.184 7.70921ZM323.801 5.03379L323.817 12.5938L329.053 12.5829L329.037 5.02287L323.801 5.03379ZM326.429 9.97048L315.269 9.99375L315.28 15.2294L326.44 15.2062L326.429 9.97048ZM312.657 12.617L312.729 47.057L317.964 47.0461L317.893 12.6061L312.657 12.617ZM315.341 44.4337L307.421 44.4502L307.432 49.6859L315.352 49.6693L315.341 44.4337ZM310.044 47.0626L309.973 12.6226L304.737 12.6336L304.809 47.0735L310.044 47.0626ZM307.349 10.0103L296.189 10.0335L296.2 15.2692L307.36 15.2459L307.349 10.0103ZM298.813 12.6459L298.797 5.08592L293.561 5.09684L293.577 12.6568L298.813 12.6459ZM336.645 8.66702L334.715 6.89861L334.708 6.90563L334.702 6.91269L336.645 8.66702ZM359.385 8.61961L357.449 10.382L357.455 10.3891L357.462 10.396L359.385 8.61961ZM359.457 43.4195L357.551 41.6253L357.545 41.6322L357.538 41.6392L359.457 43.4195ZM336.717 43.4669L334.806 45.2553L334.812 45.2622L334.819 45.2691L336.717 43.4669ZM351.71 39.9557L352.806 42.3332L352.846 42.3146L352.886 42.2947L351.71 39.9557ZM354.046 37.9708L356.179 39.4879L354.046 37.9708ZM355.3 34.9682L357.864 35.4932L355.3 34.9682ZM355.202 17.0883L357.746 16.4688L355.202 17.0883ZM353.876 14.0911L356.003 12.5651L356.003 12.5651L353.876 14.0911ZM351.532 12.116L350.29 14.4204L350.328 14.4408L350.366 14.4599L351.532 12.116ZM344.572 12.1305L345.748 14.4695L345.786 14.4503L345.824 14.4297L344.572 12.1305ZM342.236 14.1154L340.103 12.5982L340.103 12.5982L342.236 14.1154ZM340.922 17.1181L338.376 16.5092L340.922 17.1181ZM340.9 34.9982L338.337 35.5339L340.9 34.9982ZM342.166 37.9956L344.293 36.4695L344.293 36.4695L342.166 37.9956ZM344.51 39.9707L343.344 42.3146L343.384 42.3343L343.424 42.3527L344.51 39.9707ZM335.209 21.33C335.199 16.3134 336.441 12.7993 338.588 10.4213L334.702 6.91269C331.421 10.5461 329.961 15.4776 329.973 21.341L335.209 21.33ZM338.575 10.4354C340.742 8.07054 343.784 6.76997 348.041 6.76109L348.03 1.52543C342.607 1.53673 338.055 3.252 334.715 6.89861L338.575 10.4354ZM348.041 6.76109C352.299 6.75222 355.317 8.0402 357.449 10.382L361.32 6.85719C358 3.21037 353.452 1.51412 348.03 1.52543L348.041 6.76109ZM357.462 10.396C359.651 12.7654 360.923 16.269 360.933 21.2764L366.169 21.2655C366.157 15.3929 364.651 10.4622 361.308 6.84317L357.462 10.396ZM360.933 21.2764L360.953 30.6364L366.188 30.6255L366.169 21.2655L360.933 21.2764ZM360.953 30.6364C360.964 35.833 359.692 39.3504 357.551 41.6253L361.364 45.2138C364.73 41.6371 366.201 36.6288 366.188 30.6255L360.953 30.6364ZM357.538 41.6392C355.421 43.9211 352.401 45.1964 348.121 45.2053L348.132 50.441C353.532 50.4297 358.066 48.7693 361.377 45.1999L357.538 41.6392ZM348.121 45.2053C343.842 45.2143 340.787 43.9518 338.616 41.6648L334.819 45.2691C338.18 48.8105 342.731 50.4523 348.132 50.441L348.121 45.2053ZM338.629 41.6786C336.51 39.4133 335.239 35.8958 335.229 30.69L329.993 30.7009C330.005 36.6952 331.472 41.6919 334.806 45.2553L338.629 41.6786ZM335.229 30.69L335.209 21.33L329.973 21.341L329.993 30.7009L335.229 30.69ZM348.117 43.241C349.804 43.2375 351.404 42.9791 352.806 42.3332L350.614 37.5782C350.098 37.8163 349.299 38.0029 348.106 38.0053L348.117 43.241ZM352.886 42.2947C354.21 41.6288 355.324 40.6912 356.179 39.4879L351.913 36.4537C351.572 36.9329 351.128 37.3185 350.534 37.6167L352.886 42.2947ZM356.179 39.4879C357.018 38.3089 357.564 36.9584 357.864 35.4932L352.735 34.4431C352.56 35.299 352.271 35.9502 351.913 36.4537L356.179 39.4879ZM357.864 35.4932C358.143 34.1301 358.273 32.669 358.27 31.122L353.034 31.1329C353.036 32.3859 352.931 33.4853 352.735 34.4431L357.864 35.4932ZM358.27 31.122L358.248 20.802L353.012 20.8129L353.034 31.1329L358.27 31.122ZM358.248 20.802C358.245 19.2967 358.082 17.8492 357.746 16.4688L352.659 17.7079C352.888 18.6463 353.01 19.6782 353.012 20.8129L358.248 20.802ZM357.746 16.4688C357.396 15.0336 356.829 13.7156 356.003 12.5651L351.749 15.6171C352.127 16.1441 352.444 16.8243 352.659 17.7079L357.746 16.4688ZM356.003 12.5651C355.142 11.3654 354.025 10.4324 352.698 9.77209L350.366 14.4599C350.961 14.7556 351.406 15.1393 351.749 15.6171L356.003 12.5651ZM352.774 9.81155C351.347 9.04221 349.735 8.72189 348.045 8.72541L348.056 13.9611C349.086 13.9589 349.795 14.1538 350.29 14.4204L352.774 9.81155ZM348.045 8.72541C346.355 8.72894 344.745 9.05597 343.32 9.83126L345.824 14.4297C346.317 14.161 347.026 13.9632 348.056 13.9611L348.045 8.72541ZM343.396 9.79148C342.072 10.4573 340.958 11.395 340.103 12.5982L344.37 15.6325C344.71 15.1533 345.154 14.7677 345.748 14.4695L343.396 9.79148ZM340.103 12.5982C339.282 13.7522 338.72 15.0725 338.376 16.5092L343.468 17.7271C343.68 16.8426 343.994 16.1611 344.37 15.6325L340.103 12.5982ZM338.376 16.5092C338.046 17.891 337.889 19.3391 337.892 20.8444L343.128 20.8335C343.126 19.6988 343.244 18.6664 343.468 17.7271L338.376 16.5092ZM337.892 20.8444L337.914 31.1644L343.15 31.1535L343.128 20.8335L337.892 20.8444ZM337.914 31.1644C337.917 32.7114 338.053 34.1719 338.337 35.5339L343.462 34.4625C343.262 33.5055 343.152 32.4065 343.15 31.1535L337.914 31.1644ZM338.337 35.5339C338.643 36.9979 339.196 38.3461 340.039 39.5216L344.293 36.4695C343.933 35.9676 343.641 35.3176 343.462 34.4625L338.337 35.5339ZM340.039 39.5216C340.9 40.7213 342.017 41.6543 343.344 42.3146L345.676 37.6268C345.081 37.3311 344.636 36.9474 344.293 36.4695L340.039 39.5216ZM343.424 42.3527C344.828 42.9928 346.43 43.2445 348.117 43.241L348.106 38.0053C346.913 38.0078 346.114 37.8246 345.596 37.5886L343.424 42.3527ZM426.751 13.2792L424.934 15.1632L424.948 15.1772L424.963 15.1909L426.751 13.2792ZM416.55 12.7004L418.041 14.8524L418.065 14.8352L418.09 14.8175L416.55 12.7004ZM415.241 17.9832L412.871 19.0952L412.886 19.1272L412.902 19.1588L415.241 17.9832ZM416.684 19.5402L415.179 21.682L415.25 21.7318L415.324 21.7768L416.684 19.5402ZM419.447 20.7344L418.651 23.2283L418.663 23.2323L418.676 23.2362L419.447 20.7344ZM423.829 21.7453L423.366 24.3219L423.366 24.3219L423.829 21.7453ZM433.917 25.7443L432.273 27.7816L432.273 27.7816L433.917 25.7443ZM436.347 40.1392L433.958 39.0699L433.951 39.084L433.945 39.0982L436.347 40.1392ZM433.356 44.1655L435.053 46.1581L433.356 44.1655ZM428.561 46.7555L429.362 49.2477L428.561 46.7555ZM414.881 46.544L413.946 48.9893L413.974 49L414.002 49.0101L414.881 46.544ZM409.654 43.3149L407.807 45.1698L407.82 45.1832L407.834 45.1964L409.654 43.3149ZM406.464 38.4615L404.021 39.4029L404.024 39.4117L404.028 39.4205L406.464 38.4615ZM405.367 30.5438L405.362 27.926L402.744 27.9314L402.749 30.5492L405.367 30.5438ZM413.287 30.5273L415.905 30.5218L415.899 27.904L413.282 27.9094L413.287 30.5273ZM415.463 38.0228L413.566 39.8271L413.59 39.8527L413.616 39.8777L415.463 38.0228ZM427.644 38.6574L425.893 36.7118L425.893 36.7118L427.644 38.6574ZM429.012 33.0145L426.563 33.9388L426.573 33.9654L426.584 33.9918L429.012 33.0145ZM427.749 31.3371L426.038 33.319L426.077 33.3526L426.118 33.3847L427.749 31.3371ZM425.286 29.9623L426.221 27.517L425.286 29.9623ZM421.324 28.9505L421.77 26.3709L421.757 26.3687L421.324 28.9505ZM415.501 27.5827L414.661 30.0622L414.687 30.0708L414.712 30.0789L415.501 27.5827ZM410.876 25.2523L409.31 27.3498L409.325 27.3614L409.341 27.3726L410.876 25.2523ZM407.787 11.2787L405.431 10.1384L405.424 10.1521L405.417 10.1658L407.787 11.2787ZM410.719 7.43258L409.027 5.43531L409.011 5.44859L408.996 5.4621L410.719 7.43258ZM415.274 4.90307L414.441 2.42131L414.432 2.42414L414.424 2.42703L415.274 4.90307ZM427.874 5.05681L426.96 7.50988L426.983 7.51828L427.005 7.52627L427.874 5.05681ZM432.68 7.86679L430.893 9.78033L430.908 9.79403L430.923 9.8075L432.68 7.86679ZM435.629 12.0007L433.209 12.9993L433.22 13.0256L433.231 13.0517L435.629 12.0007ZM436.663 19.0785L436.669 21.6963L439.287 21.6909L439.281 19.0731L436.663 19.0785ZM428.743 19.095L426.125 19.1005L426.131 21.7183L428.749 21.7129L428.743 19.095ZM431.358 17.6496C431.353 15.1863 430.344 13.0554 428.54 11.3674L424.963 15.1909C425.804 15.9774 426.121 16.7638 426.122 17.6605L431.358 17.6496ZM428.569 11.3951C426.655 9.54856 424.095 8.80686 421.282 8.81272L421.293 14.0484C423.2 14.0444 424.283 14.5351 424.934 15.1632L428.569 11.3951ZM421.282 8.81272C418.943 8.8176 416.76 9.3106 415.01 10.5833L418.09 14.8175C418.656 14.4054 419.632 14.0518 421.293 14.0484L421.282 8.81272ZM415.059 10.5485C413.199 11.8372 412.194 13.7421 412.199 16.0095L417.435 15.9986C417.434 15.466 417.584 15.1685 418.041 14.8524L415.059 10.5485ZM412.199 16.0095C412.201 17.0781 412.413 18.12 412.871 19.0952L417.611 16.8712C417.506 16.6475 417.435 16.37 417.435 15.9986L412.199 16.0095ZM412.902 19.1588C413.43 20.2103 414.257 21.0338 415.179 21.682L418.189 17.3983C417.75 17.0894 417.614 16.8749 417.58 16.8076L412.902 19.1588ZM415.324 21.7768C416.276 22.356 417.404 22.8303 418.651 23.2283L420.243 18.2405C419.248 17.9232 418.534 17.6013 418.045 17.3036L415.324 21.7768ZM418.676 23.2362C419.973 23.6357 421.545 23.9947 423.366 24.3219L424.292 19.1687C422.591 18.8632 421.242 18.5483 420.217 18.2326L418.676 23.2362ZM423.366 24.3219C427.533 25.0706 430.42 26.2862 432.273 27.7816L435.561 23.7069C432.766 21.4519 428.928 20.0016 424.292 19.1687L423.366 24.3219ZM432.273 27.7816C433.841 29.0469 434.79 30.9903 434.797 34.0824L440.032 34.0715C440.023 29.8037 438.641 26.192 435.561 23.7069L432.273 27.7816ZM434.797 34.0824L434.798 34.8024L440.034 34.7915L440.032 34.0715L434.797 34.0824ZM434.798 34.8024C434.802 36.4356 434.506 37.8441 433.958 39.0699L438.737 41.2085C439.621 39.2313 440.039 37.0783 440.034 34.7915L434.798 34.8024ZM433.945 39.0982C433.43 40.2863 432.677 41.3048 431.658 42.1729L435.053 46.1581C436.67 44.7807 437.911 43.115 438.749 41.1803L433.945 39.0982ZM431.658 42.1729C430.637 43.0423 429.355 43.7503 427.76 44.2632L429.362 49.2477C431.524 48.5528 433.438 47.5341 435.053 46.1581L431.658 42.1729ZM427.76 44.2632C426.183 44.7701 424.339 45.0464 422.197 45.0509L422.208 50.2866C424.787 50.2812 427.182 49.9486 429.362 49.2477L427.76 44.2632ZM422.197 45.0509C419.673 45.0562 417.541 44.7126 415.759 44.0779L414.002 49.0101C416.463 49.8866 419.213 50.2928 422.208 50.2866L422.197 45.0509ZM415.815 44.0987C414.017 43.4114 412.589 42.5122 411.474 41.4334L407.834 45.1964C409.524 46.8317 411.581 48.0852 413.946 48.9893L415.815 44.0987ZM411.501 41.4599C410.353 40.3172 409.491 39.0042 408.899 37.5025L404.028 39.4205C404.884 41.5958 406.148 43.5184 407.807 45.1698L411.501 41.4599ZM408.906 37.5202C408.308 35.9669 407.993 34.248 407.989 32.3383L402.753 32.3492C402.758 34.8395 403.172 37.1992 404.021 39.4029L408.906 37.5202ZM407.989 32.3383L407.985 30.5383L402.749 30.5492L402.753 32.3492L407.989 32.3383ZM405.373 33.1616L413.293 33.1451L413.282 27.9094L405.362 27.926L405.373 33.1616ZM410.669 30.5327L410.672 31.9727L415.908 31.9618L415.905 30.5218L410.669 30.5327ZM410.672 31.9727C410.679 35.0179 411.57 37.7293 413.566 39.8271L417.359 36.2184C416.469 35.2822 415.912 33.9566 415.908 31.9618L410.672 31.9727ZM413.616 39.8777C415.781 42.0346 418.864 42.8535 422.313 42.8463L422.302 37.6107C419.59 37.6163 418.11 36.9648 417.31 36.1678L413.616 39.8777ZM422.313 42.8463C425.022 42.8407 427.557 42.2582 429.396 40.6029L425.893 36.7118C425.415 37.1414 424.392 37.6063 422.302 37.6107L422.313 42.8463ZM429.396 40.6029C431.055 39.1086 431.999 37.178 431.994 34.9283L426.759 34.9392C426.76 35.5695 426.548 36.1213 425.893 36.7118L429.396 40.6029ZM431.994 34.9283C431.992 33.9329 431.813 32.9616 431.441 32.0372L426.584 33.9918C426.694 34.2664 426.758 34.5746 426.759 34.9392L431.994 34.9283ZM431.462 32.0902C431.034 30.9565 430.303 30.0248 429.38 29.2895L426.118 33.3847C426.397 33.6069 426.508 33.7935 426.563 33.9388L431.462 32.0902ZM429.459 29.3553C428.556 28.5759 427.439 27.9828 426.221 27.517L424.351 32.4076C425.214 32.7374 425.739 33.0609 426.038 33.319L429.459 29.3553ZM426.221 27.517C424.968 27.0381 423.469 26.6646 421.77 26.3709L420.878 31.5301C422.38 31.7897 423.522 32.0908 424.351 32.4076L426.221 27.517ZM421.757 26.3687C419.737 26.0301 417.917 25.6006 416.29 25.0864L414.712 30.0789C416.607 30.6774 418.669 31.1597 420.891 31.5323L421.757 26.3687ZM416.341 25.1031C414.794 24.5794 413.494 23.9155 412.411 23.1319L409.341 27.3726C410.903 28.5036 412.686 29.3932 414.661 30.0622L416.341 25.1031ZM412.442 23.1548C411.488 22.4422 410.749 21.5607 410.208 20.4829L405.53 22.8342C406.434 24.6334 407.7 26.1478 409.31 27.3498L412.442 23.1548ZM410.208 20.4829C409.712 19.4977 409.399 18.1636 409.395 16.3754L404.16 16.3863C404.165 18.758 404.579 20.9424 405.53 22.8342L410.208 20.4829ZM409.395 16.3754L409.395 16.0154L404.159 16.0263L404.16 16.3863L409.395 16.3754ZM409.395 16.0154C409.392 14.6504 409.657 13.4557 410.156 12.3916L405.417 10.1658C404.563 11.9845 404.155 13.9512 404.159 16.0263L409.395 16.0154ZM410.143 12.419C410.707 11.2536 411.469 10.254 412.442 9.40306L408.996 5.4621C407.493 6.77632 406.3 8.34077 405.431 10.1384L410.143 12.419ZM412.411 9.42985C413.414 8.57982 414.639 7.88866 416.124 7.37912L414.424 2.42703C412.391 3.12483 410.579 4.12001 409.027 5.43531L412.411 9.42985ZM416.107 7.38484C417.6 6.88361 419.315 6.61249 421.277 6.6084L421.266 1.37274C418.829 1.37782 416.545 1.71503 414.441 2.42131L416.107 7.38484ZM421.277 6.6084C423.507 6.60375 425.387 6.92377 426.96 7.50988L428.788 2.60374C426.518 1.75785 423.996 1.36704 421.266 1.37274L421.277 6.6084ZM427.005 7.52627C428.64 8.10144 429.914 8.8662 430.893 9.78033L434.466 5.95325C432.881 4.47273 430.951 3.36417 428.743 2.58734L427.005 7.52627ZM430.923 9.8075C431.974 10.7593 432.722 11.8207 433.209 12.9993L438.048 11.002C437.248 9.06327 436.03 7.36875 434.437 5.92608L430.923 9.8075ZM433.231 13.0517C433.768 14.277 434.038 15.56 434.041 16.924L439.277 16.9131C439.272 14.8371 438.855 12.8415 438.026 10.9496L433.231 13.0517ZM434.041 16.924L434.045 19.084L439.281 19.0731L439.277 16.9131L434.041 16.924ZM436.658 16.4607L428.738 16.4772L428.749 21.7129L436.669 21.6963L436.658 16.4607ZM431.361 19.0896L431.358 17.6496L426.122 17.6605L426.125 19.1005L431.361 19.0896ZM473.372 4.72195L475.99 4.71649L475.984 2.09866L473.366 2.10411L473.372 4.72195ZM469.613 43.4899L467.703 41.6997L467.695 41.7072L467.688 41.7147L469.613 43.4899ZM446.993 43.537L445.076 45.3202L445.083 45.3277L445.09 45.3352L446.993 43.537ZM443.132 4.78499L443.126 2.16716L440.508 2.17262L440.514 4.79045L443.132 4.78499ZM451.052 4.76848L453.67 4.76302L453.664 2.14519L451.046 2.15065L451.052 4.76848ZM452.861 38.0648L450.849 39.7392L452.861 38.0648ZM463.781 38.042L461.762 36.376L463.781 38.042ZM465.452 4.73846L465.446 2.12063L462.828 2.12608L462.834 4.74392L465.452 4.73846ZM470.754 4.7274L470.811 32.2073L476.047 32.1964L475.99 4.71649L470.754 4.7274ZM470.811 32.2073C470.82 36.5376 469.682 39.5878 467.703 41.6997L471.523 45.2801C474.652 41.9412 476.058 37.4662 476.047 32.1964L470.811 32.2073ZM467.688 41.7147C465.823 43.7366 462.871 44.9661 458.336 44.9755L458.347 50.2112C463.811 50.1998 468.373 48.6936 471.537 45.265L467.688 41.7147ZM458.336 44.9755C453.803 44.985 450.814 43.7689 448.895 41.7389L445.09 45.3352C448.303 48.7345 452.879 50.2226 458.347 50.2112L458.336 44.9755ZM448.909 41.7539C446.953 39.6513 445.816 36.6002 445.807 32.2595L440.571 32.2704C440.582 37.5296 441.981 41.9933 445.076 45.3202L448.909 41.7539ZM445.807 32.2595L445.75 4.77954L440.514 4.79045L440.571 32.2704L445.807 32.2595ZM443.137 7.40283L451.057 7.38632L451.046 2.15065L443.126 2.16716L443.137 7.40283ZM448.434 4.77394L448.491 32.2539L453.727 32.243L453.67 4.76302L448.434 4.77394ZM448.491 32.2539C448.497 35.1223 449.174 37.7269 450.849 39.7392L454.874 36.3904C454.222 35.6075 453.731 34.3345 453.727 32.243L448.491 32.2539ZM450.849 39.7392C452.675 41.9336 455.371 42.7774 458.331 42.7712L458.32 37.5356C456.32 37.5397 455.373 36.9911 454.874 36.3904L450.849 39.7392ZM458.331 42.7712C461.291 42.7651 463.984 41.91 465.8 39.708L461.762 36.376C461.264 36.9789 460.32 37.5314 458.32 37.5356L458.331 42.7712ZM465.8 39.708C467.466 37.6888 468.133 35.0814 468.127 32.2129L462.891 32.2239C462.896 34.3154 462.41 35.5904 461.762 36.376L465.8 39.708ZM468.127 32.2129L468.07 4.733L462.834 4.74392L462.891 32.2239L468.127 32.2129ZM465.457 7.35629L473.377 7.33978L473.366 2.10411L465.446 2.12063L465.457 7.35629ZM498.903 39.6488L499.999 42.0263L500.02 42.0166L500.041 42.0065L498.903 39.6488ZM501.179 37.784L499.031 36.2873L499.023 36.2988L499.015 36.3103L501.179 37.784ZM502.313 35.0817L504.881 35.5897L504.883 35.5802L504.885 35.5707L502.313 35.0817ZM502.604 30.8211L502.599 28.2032L499.981 28.2087L499.987 30.8265L502.604 30.8211ZM510.524 30.8045L513.142 30.7991L513.137 28.1813L510.519 28.1867L510.524 30.8045ZM506.591 43.4728L504.709 41.6534L504.708 41.6539L506.591 43.4728ZM483.79 43.1603L485.676 41.3445L483.79 43.1603ZM480.609 13.8269L483.09 14.6636L483.092 14.6566L483.094 14.6495L480.609 13.8269ZM483.718 8.42039L485.625 10.2139L485.637 10.2009L485.649 10.1877L483.718 8.42039ZM488.631 5.05014L489.599 7.48221L489.621 7.47355L489.643 7.4645L488.631 5.05014ZM506.517 8.01285L504.614 9.81099L504.628 9.82562L504.642 9.84002L506.517 8.01285ZM509.467 12.9267L506.985 13.7597L506.993 13.7828L507.001 13.8058L509.467 12.9267ZM510.503 20.4846L510.508 23.1024L513.126 23.0969L513.121 20.4791L510.503 20.4846ZM502.583 20.5011L499.965 20.5065L499.971 23.1244L502.588 23.1189L502.583 20.5011ZM502.214 16.4218L504.759 15.8056L502.214 16.4218ZM498.725 11.8091L497.483 14.1135L497.521 14.1339L497.559 14.153L498.725 11.8091ZM491.705 11.8237L492.88 14.1628L492.919 14.1435L492.956 14.123L491.705 11.8237ZM489.309 13.8687L491.395 15.4509L491.412 15.4277L491.429 15.4041L489.309 13.8687ZM487.875 16.8717L485.35 16.1808L485.342 16.2114L485.334 16.2421L487.875 16.8717ZM487.913 34.7517L485.369 35.3713L485.372 35.3816L485.374 35.3919L487.913 34.7517ZM491.583 39.6641L490.417 42.008L490.475 42.0366L490.534 42.0624L491.583 39.6641ZM495.19 42.9344C496.933 42.9307 498.582 42.6793 499.999 42.0263L497.807 37.2713C497.306 37.5023 496.475 37.696 495.179 37.6987L495.19 42.9344ZM500.041 42.0065C501.369 41.3656 502.517 40.4691 503.343 39.2578L499.015 36.3103C498.804 36.6211 498.435 36.9678 497.765 37.2911L500.041 42.0065ZM503.327 39.2808C504.101 38.1695 504.616 36.9291 504.881 35.5897L499.745 34.5736C499.614 35.235 499.373 35.7962 499.031 36.2873L503.327 39.2808ZM504.885 35.5707C505.115 34.3641 505.227 33.1382 505.225 31.8956L499.989 31.9065C499.991 32.8239 499.908 33.7184 499.742 34.5927L504.885 35.5707ZM505.225 31.8956L505.222 30.8156L499.987 30.8265L499.989 31.9065L505.225 31.8956ZM502.61 33.4389L510.53 33.4224L510.519 28.1867L502.599 28.2032L502.61 33.4389ZM507.907 30.81L507.909 31.89L513.145 31.8791L513.142 30.7991L507.907 30.81ZM507.909 31.89C507.918 36.4335 506.734 39.5579 504.709 41.6534L508.473 45.2921C511.716 41.9366 513.156 37.3356 513.145 31.8791L507.909 31.89ZM504.708 41.6539C502.755 43.6753 499.735 44.8892 495.194 44.8987L495.205 50.1344C500.664 50.123 505.238 48.6411 508.474 45.2917L504.708 41.6539ZM495.194 44.8987C490.963 44.9075 487.896 43.6497 485.676 41.3445L481.904 44.9761C485.297 48.4993 489.835 50.1456 495.205 50.1344L495.194 44.8987ZM485.676 41.3445C483.493 39.0779 482.192 35.5711 482.181 30.3836L476.946 30.3946C476.958 36.4071 478.475 41.4144 481.904 44.9761L485.676 41.3445ZM482.181 30.3836L482.162 21.0237L476.926 21.0346L476.946 30.3946L482.181 30.3836ZM482.162 21.0237C482.157 18.5753 482.481 16.4663 483.09 14.6636L478.128 12.9902C477.305 15.4304 476.92 18.123 476.926 21.0346L482.162 21.0237ZM483.094 14.6495C483.708 12.7959 484.565 11.3404 485.625 10.2139L481.811 6.62689C480.156 8.38601 478.941 10.5349 478.124 13.0042L483.094 14.6495ZM485.649 10.1877C486.732 9.00433 488.037 8.1042 489.599 7.48221L487.662 2.61807C485.387 3.52408 483.417 4.87078 481.786 6.65311L485.649 10.1877ZM489.643 7.4645C491.197 6.81304 493.007 6.45885 495.114 6.45446L495.103 1.21879C492.41 1.22441 489.901 1.67922 487.619 2.63578L489.643 7.4645ZM495.114 6.45446C497.344 6.44981 499.223 6.76982 500.796 7.35593L502.625 2.44979C500.354 1.60391 497.833 1.2131 495.103 1.21879L495.114 6.45446ZM500.796 7.35593C502.38 7.946 503.633 8.77232 504.614 9.81099L508.42 6.2147C506.835 4.53872 504.884 3.29172 502.625 2.44979L500.796 7.35593ZM504.642 9.84002C505.672 10.8968 506.458 12.188 506.985 13.7597L511.949 12.0937C511.189 9.8281 510.007 7.8434 508.392 6.18568L504.642 9.84002ZM507.001 13.8058C507.569 15.3989 507.878 17.2559 507.883 19.41L513.119 19.3991C513.113 16.7532 512.733 14.2916 511.933 12.0476L507.001 13.8058ZM507.883 19.41L507.885 20.49L513.121 20.4791L513.119 19.3991L507.883 19.41ZM510.497 17.8667L502.578 17.8832L502.588 23.1189L510.508 23.1024L510.497 17.8667ZM505.201 20.4956L505.199 19.4156L499.963 19.4265L499.965 20.5065L505.201 20.4956ZM505.199 19.4156C505.196 18.2041 505.048 16.9994 504.759 15.8056L499.67 17.0381C499.865 17.8433 499.961 18.6381 499.963 19.4265L505.199 19.4156ZM504.759 15.8056C504.444 14.5042 503.911 13.3002 503.15 12.2186L498.867 15.23C499.23 15.7462 499.501 16.3405 499.67 17.0381L504.759 15.8056ZM503.15 12.2186C502.314 11.0292 501.202 10.1175 499.891 9.4652L497.559 14.153C498.17 14.4567 498.58 14.8218 498.867 15.23L503.15 12.2186ZM499.967 9.50467C498.52 8.72466 496.859 8.41515 495.118 8.41878L495.129 13.6544C496.267 13.6521 497.008 13.8576 497.483 14.1135L499.967 9.50467ZM495.118 8.41878C493.453 8.42225 491.867 8.755 490.453 9.5245L492.956 14.123C493.461 13.8485 494.154 13.6565 495.129 13.6544L495.118 8.41878ZM490.529 9.48472C489.19 10.1578 488.069 11.1173 487.189 12.3334L491.429 15.4041C491.825 14.8576 492.302 14.4537 492.88 14.1628L490.529 9.48472ZM487.223 12.2866C486.357 13.4287 485.744 14.7424 485.35 16.1808L490.4 17.5626C490.642 16.6798 490.985 15.9914 491.395 15.4509L487.223 12.2866ZM485.334 16.2421C485.002 17.5852 484.842 18.9798 484.845 20.4181L490.081 20.4071C490.078 19.3654 490.194 18.3994 490.416 17.5014L485.334 16.2421ZM484.845 20.4181L484.867 30.978L490.103 30.9671L490.081 20.4071L484.845 20.4181ZM484.867 30.978C484.87 32.5168 485.032 33.9851 485.369 35.3713L490.456 34.1321C490.229 33.1994 490.105 32.1484 490.103 30.9671L484.867 30.978ZM485.374 35.3919C485.727 36.7922 486.297 38.0796 487.112 39.215L491.366 36.1629C490.977 35.6208 490.662 34.95 490.451 34.1115L485.374 35.3919ZM487.112 39.215C487.972 40.4147 489.089 41.3476 490.417 42.008L492.749 37.3202C492.154 37.0245 491.709 36.6407 491.366 36.1629L487.112 39.215ZM490.534 42.0624C491.947 42.6806 493.525 42.9379 495.19 42.9344L495.179 37.6987C494.044 37.7011 493.221 37.5233 492.632 37.2657L490.534 42.0624ZM535.641 39.5722L536.737 41.9497L536.758 41.94L536.779 41.9299L535.641 39.5722ZM537.917 37.7075L535.769 36.2107L535.761 36.2222L535.754 36.2337L537.917 37.7075ZM539.052 35.0051L541.62 35.5131L541.622 35.5036L541.623 35.4941L539.052 35.0051ZM539.343 30.7445L539.337 28.1266L536.719 28.1321L536.725 30.7499L539.343 30.7445ZM547.263 30.728L549.88 30.7225L549.875 28.1047L547.257 28.1101L547.263 30.728ZM543.329 43.3962L541.447 41.5768L541.446 41.5773L543.329 43.3962ZM520.528 43.0837L522.414 41.2679L520.528 43.0837ZM517.347 13.7503L519.828 14.587L519.83 14.58L519.832 14.5729L517.347 13.7503ZM520.456 8.34379L522.363 10.1373L522.375 10.1243L522.387 10.1111L520.456 8.34379ZM525.369 4.97354L526.337 7.40561L526.359 7.39695L526.381 7.3879L525.369 4.97354ZM543.255 7.93625L541.353 9.7344L541.366 9.74902L541.38 9.76343L543.255 7.93625ZM546.205 12.8501L543.724 13.6831L543.731 13.7062L543.74 13.7292L546.205 12.8501ZM547.241 20.408L547.247 23.0258L549.864 23.0203L549.859 20.4025L547.241 20.408ZM539.321 20.4245L536.703 20.4299L536.709 23.0478L539.327 23.0423L539.321 20.4245ZM538.953 16.3452L541.497 15.729L538.953 16.3452ZM535.463 11.7325L534.221 14.0369L534.259 14.0573L534.297 14.0764L535.463 11.7325ZM528.443 11.7471L529.619 14.0862L529.657 14.0669L529.695 14.0464L528.443 11.7471ZM526.047 13.7921L528.133 15.3743L528.151 15.3511L528.168 15.3275L526.047 13.7921ZM524.614 16.7951L522.089 16.1042L522.08 16.1348L522.073 16.1655L524.614 16.7951ZM524.651 34.6751L522.107 35.2947L522.11 35.305L522.112 35.3153L524.651 34.6751ZM528.321 39.5875L527.155 41.9314L527.213 41.96L527.272 41.9858L528.321 39.5875ZM531.928 42.8578C533.671 42.8542 535.32 42.6027 536.737 41.9497L534.545 37.1947C534.044 37.4257 533.213 37.6194 531.917 37.6221L531.928 42.8578ZM536.779 41.9299C538.107 41.289 539.256 40.3925 540.081 39.1812L535.754 36.2337C535.542 36.5445 535.173 36.8912 534.503 37.2145L536.779 41.9299ZM540.065 39.2042C540.839 38.0929 541.355 36.8526 541.62 35.5131L536.483 34.497C536.353 35.1584 536.112 35.7196 535.769 36.2107L540.065 39.2042ZM541.623 35.4941C541.853 34.2875 541.965 33.0616 541.963 31.819L536.727 31.8299C536.729 32.7473 536.646 33.6418 536.48 34.5161L541.623 35.4941ZM541.963 31.819L541.961 30.739L536.725 30.7499L536.727 31.8299L541.963 31.819ZM539.348 33.3623L547.268 33.3458L547.257 28.1101L539.337 28.1266L539.348 33.3623ZM544.645 30.7334L544.647 31.8134L549.883 31.8025L549.88 30.7225L544.645 30.7334ZM544.647 31.8134C544.657 36.3569 543.472 39.4813 541.447 41.5768L545.211 45.2155C548.455 41.86 549.894 37.259 549.883 31.8025L544.647 31.8134ZM541.446 41.5773C539.493 43.5987 536.473 44.8126 531.932 44.8221L531.943 50.0578C537.402 50.0464 541.976 48.5645 545.212 45.2151L541.446 41.5773ZM531.932 44.8221C527.702 44.8309 524.634 43.5731 522.414 41.2679L518.643 44.8995C522.035 48.4227 526.573 50.069 531.943 50.0578L531.932 44.8221ZM522.414 41.2679C520.232 39.0013 518.93 35.4945 518.92 30.307L513.684 30.318C513.696 36.3305 515.213 41.3378 518.643 44.8995L522.414 41.2679ZM518.92 30.307L518.9 20.9471L513.664 20.958L513.684 30.318L518.92 30.307ZM518.9 20.9471C518.895 18.4987 519.22 16.3897 519.828 14.587L514.867 12.9136C514.044 15.3538 513.658 18.0464 513.664 20.958L518.9 20.9471ZM519.832 14.5729C520.446 12.7193 521.303 11.2638 522.363 10.1373L518.549 6.55029C516.895 8.30942 515.679 10.4583 514.862 12.9276L519.832 14.5729ZM522.387 10.1111C523.47 8.92774 524.776 8.0276 526.337 7.40561L524.4 2.54147C522.125 3.44748 520.156 4.79418 518.525 6.57652L522.387 10.1111ZM526.381 7.3879C527.935 6.73645 529.745 6.38226 531.852 6.37786L531.841 1.1422C529.148 1.14781 526.639 1.60263 524.357 2.55918L526.381 7.3879ZM531.852 6.37786C534.082 6.37321 535.962 6.69323 537.535 7.27934L539.363 2.3732C537.093 1.52732 534.571 1.13651 531.841 1.1422L531.852 6.37786ZM537.535 7.27934C539.118 7.86941 540.371 8.69573 541.353 9.7344L545.158 6.13811C543.574 4.46213 541.622 3.21512 539.363 2.3732L537.535 7.27934ZM541.38 9.76343C542.41 10.8202 543.196 12.1114 543.724 13.6831L548.687 12.0171C547.927 9.7515 546.746 7.7668 545.13 6.10908L541.38 9.76343ZM543.74 13.7292C544.308 15.3223 544.617 17.1793 544.621 19.3334L549.857 19.3225C549.851 16.6766 549.471 14.215 548.671 11.971L543.74 13.7292ZM544.621 19.3334L544.623 20.4134L549.859 20.4025L549.857 19.3225L544.621 19.3334ZM547.236 17.7901L539.316 17.8067L539.327 23.0423L547.247 23.0258L547.236 17.7901ZM541.939 20.419L541.937 19.339L536.701 19.3499L536.703 20.4299L541.939 20.419ZM541.937 19.339C541.934 18.1275 541.786 16.9228 541.497 15.729L536.408 16.9615C536.603 17.7667 536.699 18.5615 536.701 19.3499L541.937 19.339ZM541.497 15.729C541.182 14.4276 540.649 13.2236 539.889 12.1421L535.606 15.1535C535.968 15.6696 536.239 16.2639 536.408 16.9615L541.497 15.729ZM539.889 12.1421C539.052 10.9526 537.94 10.0409 536.629 9.38861L534.297 14.0764C534.908 14.3801 535.319 14.7452 535.606 15.1535L539.889 12.1421ZM536.705 9.42807C535.258 8.64806 533.597 8.33855 531.856 8.34218L531.867 13.5778C533.006 13.5755 533.746 13.781 534.221 14.0369L536.705 9.42807ZM531.856 8.34218C530.191 8.34565 528.605 8.6784 527.191 9.4479L529.695 14.0464C530.199 13.7719 530.892 13.5799 531.867 13.5778L531.856 8.34218ZM527.267 9.40812C525.928 10.0812 524.808 11.0407 523.927 12.2568L528.168 15.3275C528.563 14.781 529.04 14.3771 529.619 14.0862L527.267 9.40812ZM523.962 12.21C523.095 13.3521 522.482 14.6658 522.089 16.1042L527.139 17.486C527.38 16.6032 527.723 15.9148 528.133 15.3743L523.962 12.21ZM522.073 16.1655C521.74 17.5086 521.58 18.9032 521.583 20.3415L526.819 20.3306C526.817 19.2889 526.932 18.3228 527.155 17.4248L522.073 16.1655ZM521.583 20.3415L521.605 30.9014L526.841 30.8905L526.819 20.3306L521.583 20.3415ZM521.605 30.9014C521.608 32.4402 521.77 33.9085 522.107 35.2947L527.194 34.0555C526.967 33.1228 526.843 32.0718 526.841 30.8905L521.605 30.9014ZM522.112 35.3153C522.466 36.7156 523.035 38.003 523.85 39.1384L528.104 36.0863C527.715 35.5442 527.401 34.8734 527.189 34.0349L522.112 35.3153ZM523.85 39.1384C524.711 40.3381 525.828 41.271 527.155 41.9314L529.487 37.2436C528.892 36.9479 528.447 36.5641 528.104 36.0863L523.85 39.1384ZM527.272 41.9858C528.685 42.604 530.263 42.8613 531.928 42.8578L531.917 37.6221C530.782 37.6245 529.959 37.4467 529.37 37.1891L527.272 41.9858ZM555.026 4.5517L555.021 1.93387L552.403 1.93933L552.409 4.55716L555.026 4.5517ZM581.546 4.49641L584.164 4.49095L584.159 1.87312L581.541 1.87858L581.546 4.49641ZM581.562 12.0564L581.568 14.6742L584.185 14.6688L584.18 12.0509L581.562 12.0564ZM562.962 12.0952L562.957 9.47735L560.339 9.4828L560.344 12.1006L562.962 12.0952ZM562.982 21.6952L560.364 21.7006L560.37 24.3184L562.988 24.313L562.982 21.6952ZM580.862 21.6579L583.48 21.6524L583.474 19.0346L580.857 19.04L580.862 21.6579ZM580.878 29.2179L580.883 31.8357L583.501 31.8302L583.496 29.2124L580.878 29.2179ZM562.998 29.2551L562.992 26.6373L560.375 26.6428L560.38 29.2606L562.998 29.2551ZM563.018 38.9751L560.4 38.9806L560.406 41.5984L563.024 41.593L563.018 38.9751ZM582.338 38.9348L584.956 38.9294L584.95 36.3116L582.333 36.317L582.338 38.9348ZM582.354 46.4948L582.359 49.1127L584.977 49.1072L584.972 46.4894L582.354 46.4948ZM555.114 46.5516L552.496 46.5571L552.502 49.1749L555.119 49.1695L555.114 46.5516ZM555.032 7.16954L581.552 7.11425L581.541 1.87858L555.021 1.93387L555.032 7.16954ZM578.928 4.50187L578.944 12.0619L584.18 12.0509L584.164 4.49095L578.928 4.50187ZM581.557 9.43857L562.957 9.47735L562.968 14.713L581.568 14.6742L581.557 9.43857ZM560.344 12.1006L560.364 21.7006L565.6 21.6897L565.58 12.0897L560.344 12.1006ZM562.988 24.313L580.868 24.2757L580.857 19.04L562.977 19.0773L562.988 24.313ZM578.244 21.6633L578.26 29.2233L583.496 29.2124L583.48 21.6524L578.244 21.6633ZM580.872 26.6L562.992 26.6373L563.003 31.873L580.883 31.8357L580.872 26.6ZM560.38 29.2606L560.4 38.9806L565.636 38.9697L565.616 29.2497L560.38 29.2606ZM563.024 41.593L582.344 41.5527L582.333 36.317L563.013 36.3573L563.024 41.593ZM579.72 38.9403L579.736 46.5003L584.972 46.4894L584.956 38.9294L579.72 38.9403ZM582.348 43.877L555.108 43.9338L555.119 49.1695L582.359 49.1127L582.348 43.877ZM557.732 46.5462L557.644 4.54625L552.409 4.55716L552.496 46.5571L557.732 46.5462ZM610.442 12.8962L608.625 14.7802L608.639 14.7942L608.654 14.8079L610.442 12.8962ZM600.241 12.3175L601.732 14.4694L601.756 14.4523L601.781 14.4345L600.241 12.3175ZM598.932 17.6002L596.562 18.7122L596.577 18.7442L596.593 18.7758L598.932 17.6002ZM600.375 19.1572L598.87 21.299L598.941 21.3488L599.015 21.3938L600.375 19.1572ZM603.138 20.3514L602.342 22.8454L602.354 22.8494L602.367 22.8533L603.138 20.3514ZM607.52 21.3623L607.057 23.9389L607.52 21.3623ZM617.608 25.3613L615.964 27.3986L617.608 25.3613ZM620.038 39.7562L617.649 38.687L617.642 38.701L617.636 38.7152L620.038 39.7562ZM617.047 43.7825L618.744 45.7751L617.047 43.7825ZM612.252 46.3725L613.053 48.8647L612.252 46.3725ZM598.572 46.161L597.637 48.6063L597.665 48.617L597.693 48.6271L598.572 46.161ZM593.345 42.9319L591.498 44.7868L591.511 44.8002L591.525 44.8134L593.345 42.9319ZM590.155 38.0785L587.712 39.0199L587.715 39.0287L587.719 39.0376L590.155 38.0785ZM589.058 30.1608L589.053 27.543L586.435 27.5484L586.44 30.1663L589.058 30.1608ZM596.978 30.1443L599.596 30.1388L599.59 27.521L596.973 27.5265L596.978 30.1443ZM599.154 37.6398L597.257 39.4441L597.281 39.4698L597.307 39.4947L599.154 37.6398ZM611.335 38.2744L609.584 36.3289L609.584 36.3289L611.335 38.2744ZM612.703 32.6315L610.254 33.5558L610.264 33.5824L610.275 33.6088L612.703 32.6315ZM611.44 30.9541L609.729 32.936L609.768 32.9696L609.809 33.0017L611.44 30.9541ZM608.977 29.5793L609.912 27.134L608.977 29.5793ZM605.015 28.5675L605.461 25.9879L605.448 25.9857L605.015 28.5675ZM599.192 27.1997L598.352 29.6792L598.378 29.6878L598.403 29.6959L599.192 27.1997ZM594.567 24.8693L593.001 26.9669L593.016 26.9784L593.032 26.9897L594.567 24.8693ZM591.478 10.8957L589.122 9.75542L589.115 9.76908L589.108 9.78282L591.478 10.8957ZM594.41 7.0496L592.718 5.05233L592.702 5.06561L592.686 5.07912L594.41 7.0496ZM598.965 4.5201L598.132 2.03833L598.123 2.04116L598.115 2.04405L598.965 4.5201ZM611.565 4.67383L610.651 7.1269L610.674 7.1353L610.696 7.14329L611.565 4.67383ZM616.371 7.48381L614.584 9.39735L614.599 9.41105L614.614 9.42452L616.371 7.48381ZM619.32 11.6177L616.9 12.6163L616.911 12.6427L616.922 12.6687L619.32 11.6177ZM620.354 18.6955L620.36 21.3134L622.978 21.3079L622.972 18.6901L620.354 18.6955ZM612.434 18.712L609.816 18.7175L609.822 21.3353L612.44 21.3299L612.434 18.712ZM615.049 17.2666C615.044 14.8033 614.035 12.6724 612.231 10.9844L608.654 14.8079C609.495 15.5945 609.812 16.3808 609.813 17.2775L615.049 17.2666ZM612.26 11.0122C610.346 9.16558 607.786 8.42388 604.973 8.42974L604.984 13.6654C606.891 13.6614 607.974 14.1521 608.625 14.7802L612.26 11.0122ZM604.973 8.42974C602.634 8.43462 600.451 8.92762 598.701 10.2004L601.781 14.4345C602.347 14.0225 603.323 13.6689 604.984 13.6654L604.973 8.42974ZM598.75 10.1655C596.89 11.4542 595.885 13.3591 595.89 15.6265L601.126 15.6156C601.125 15.083 601.275 14.7855 601.732 14.4694L598.75 10.1655ZM595.89 15.6265C595.892 16.6951 596.104 17.737 596.562 18.7122L601.302 16.4882C601.197 16.2645 601.126 15.987 601.126 15.6156L595.89 15.6265ZM596.593 18.7758C597.121 19.8273 597.948 20.6508 598.87 21.299L601.88 17.0154C601.441 16.7064 601.305 16.4919 601.271 16.4246L596.593 18.7758ZM599.015 21.3938C599.967 21.9731 601.095 22.4473 602.342 22.8454L603.934 17.8575C602.939 17.5402 602.225 17.2183 601.736 16.9206L599.015 21.3938ZM602.367 22.8533C603.664 23.2527 605.236 23.6117 607.057 23.9389L607.983 18.7857C606.282 18.4802 604.933 18.1653 603.908 17.8496L602.367 22.8533ZM607.057 23.9389C611.224 24.6876 614.111 25.9033 615.964 27.3986L619.252 23.324C616.457 21.069 612.619 19.6186 607.983 18.7857L607.057 23.9389ZM615.964 27.3986C617.532 28.6639 618.481 30.6073 618.488 33.6995L623.723 33.6885C623.715 29.4207 622.332 25.809 619.252 23.324L615.964 27.3986ZM618.488 33.6995L618.489 34.4195L623.725 34.4085L623.723 33.6885L618.488 33.6995ZM618.489 34.4195C618.493 36.0526 618.197 37.4611 617.649 38.687L622.428 40.8255C623.313 38.8484 623.73 36.6954 623.725 34.4085L618.489 34.4195ZM617.636 38.7152C617.121 39.9033 616.368 40.9218 615.349 41.7899L618.744 45.7751C620.361 44.3977 621.602 42.732 622.44 40.7973L617.636 38.7152ZM615.349 41.7899C614.328 42.6593 613.046 43.3674 611.451 43.8802L613.053 48.8647C615.215 48.1698 617.129 47.1511 618.744 45.7751L615.349 41.7899ZM611.451 43.8802C609.874 44.3872 608.03 44.6634 605.888 44.6679L605.899 49.9036C608.478 49.8982 610.873 49.5657 613.053 48.8647L611.451 43.8802ZM605.888 44.6679C603.364 44.6732 601.232 44.3296 599.45 43.6949L597.693 48.6271C600.154 49.5036 602.904 49.9098 605.899 49.9036L605.888 44.6679ZM599.506 43.7157C597.708 43.0285 596.28 42.1292 595.165 41.0504L591.525 44.8134C593.215 46.4487 595.272 47.7022 597.637 48.6063L599.506 43.7157ZM595.192 41.077C594.044 39.9342 593.182 38.6213 592.591 37.1195L587.719 39.0376C588.575 41.2128 589.839 43.1355 591.498 44.7868L595.192 41.077ZM592.597 37.1372C591.999 35.5839 591.684 33.8651 591.68 31.9553L586.444 31.9663C586.449 34.4566 586.863 36.8162 587.712 39.0199L592.597 37.1372ZM591.68 31.9553L591.676 30.1554L586.44 30.1663L586.444 31.9663L591.68 31.9553ZM589.064 32.7786L596.984 32.7621L596.973 27.5265L589.053 27.543L589.064 32.7786ZM594.36 30.1498L594.363 31.5898L599.599 31.5788L599.596 30.1388L594.36 30.1498ZM594.363 31.5898C594.37 34.635 595.261 37.3463 597.257 39.4441L601.05 35.8354C600.16 34.8992 599.603 33.5736 599.599 31.5788L594.363 31.5898ZM597.307 39.4947C599.472 41.6516 602.556 42.4705 606.004 42.4633L605.993 37.2277C603.281 37.2333 601.801 36.5818 601.001 35.7848L597.307 39.4947ZM606.004 42.4633C608.713 42.4577 611.248 41.8752 613.087 40.2199L609.584 36.3289C609.106 36.7584 608.083 37.2233 605.993 37.2277L606.004 42.4633ZM613.087 40.2199C614.746 38.7256 615.69 36.795 615.685 34.5453L610.45 34.5562C610.451 35.1865 610.239 35.7384 609.584 36.3289L613.087 40.2199ZM615.685 34.5453C615.683 33.5499 615.504 32.5786 615.132 31.6542L610.275 33.6088C610.385 33.8834 610.449 34.1916 610.45 34.5562L615.685 34.5453ZM615.153 31.7072C614.725 30.5735 613.994 29.6418 613.071 28.9066L609.809 33.0017C610.088 33.2239 610.199 33.4105 610.254 33.5558L615.153 31.7072ZM613.15 28.9723C612.247 28.1929 611.13 27.5998 609.912 27.134L608.042 32.0246C608.905 32.3544 609.43 32.6779 609.729 32.936L613.15 28.9723ZM609.912 27.134C608.659 26.6551 607.16 26.2816 605.461 25.988L604.569 31.1471C606.071 31.4068 607.213 31.7078 608.042 32.0246L609.912 27.134ZM605.448 25.9857C603.428 25.6472 601.608 25.2176 599.981 24.7034L598.403 29.6959C600.298 30.2944 602.36 30.7768 604.582 31.1493L605.448 25.9857ZM600.032 24.7201C598.485 24.1964 597.185 23.5325 596.102 22.749L593.032 26.9897C594.594 28.1206 596.377 29.0102 598.352 29.6792L600.032 24.7201ZM596.133 22.7718C595.179 22.0592 594.44 21.1777 593.899 20.1L589.221 22.4512C590.125 24.2505 591.391 25.7648 593.001 26.9669L596.133 22.7718ZM593.899 20.1C593.403 19.1148 593.09 17.7806 593.086 15.9924L587.851 16.0033C587.856 18.375 588.27 20.5594 589.221 22.4512L593.899 20.1ZM593.086 15.9924L593.086 15.6324L587.85 15.6433L587.851 16.0033L593.086 15.9924ZM593.086 15.6324C593.083 14.2675 593.348 13.0727 593.847 12.0086L589.108 9.78282C588.254 11.6015 587.846 13.5682 587.85 15.6433L593.086 15.6324ZM593.834 12.036C594.398 10.8707 595.161 9.87103 596.133 9.02008L592.686 5.07912C591.184 6.39334 589.991 7.95779 589.122 9.75542L593.834 12.036ZM596.102 9.04687C597.105 8.19684 598.33 7.50568 599.815 6.99614L598.115 2.04405C596.082 2.74185 594.27 3.73703 592.718 5.05233L596.102 9.04687ZM599.798 7.00187C601.291 6.50064 603.006 6.22951 604.968 6.22542L604.957 0.989756C602.52 0.994838 600.236 1.33206 598.132 2.03833L599.798 7.00187ZM604.968 6.22542C607.198 6.22077 609.078 6.54079 610.651 7.1269L612.479 2.22076C610.209 1.37487 607.687 0.984064 604.957 0.989756L604.968 6.22542ZM610.696 7.14329C612.331 7.71846 613.605 8.48322 614.584 9.39735L618.157 5.57027C616.572 4.08975 614.642 2.98119 612.434 2.20436L610.696 7.14329ZM614.614 9.42452C615.665 10.3763 616.413 11.4377 616.9 12.6163L621.739 10.619C620.939 8.68029 619.721 6.98577 618.128 5.5431L614.614 9.42452ZM616.922 12.6687C617.459 13.894 617.729 15.177 617.732 16.541L622.968 16.5301C622.963 14.4541 622.546 12.4585 621.717 10.5666L616.922 12.6687ZM617.732 16.541L617.736 18.701L622.972 18.6901L622.968 16.5301L617.732 16.541ZM620.349 16.0777L612.429 16.0942L612.44 21.3299L620.36 21.3134L620.349 16.0777ZM615.052 18.7066L615.049 17.2666L609.813 17.2775L609.816 18.7175L615.052 18.7066ZM647.18 12.8196L645.363 14.7036L645.377 14.7176L645.392 14.7313L647.18 12.8196ZM636.979 12.2409L638.47 14.3928L638.495 14.3757L638.519 14.358L636.979 12.2409ZM635.67 17.5236L633.3 18.6356L633.315 18.6676L633.331 18.6992L635.67 17.5236ZM637.113 19.0806L635.608 21.2224L635.679 21.2722L635.753 21.3172L637.113 19.0806ZM639.876 20.2748L639.08 22.7688L639.093 22.7728L639.105 22.7767L639.876 20.2748ZM644.258 21.2857L643.795 23.8623L644.258 21.2857ZM654.346 25.2847L652.702 27.322L654.346 25.2847ZM656.776 39.6796L654.387 38.6104L654.381 38.6244L654.374 38.6386L656.776 39.6796ZM653.785 43.7059L655.483 45.6985L653.785 43.7059ZM648.99 46.2959L649.791 48.7881L648.99 46.2959ZM635.31 46.0844L634.375 48.5297L634.403 48.5404L634.431 48.5505L635.31 46.0844ZM630.083 42.8553L628.236 44.7103L628.249 44.7236L628.263 44.7368L630.083 42.8553ZM626.893 38.0019L624.45 38.9433L624.454 38.9521L624.457 38.961L626.893 38.0019ZM625.796 30.0842L625.791 27.4664L623.173 27.4718L623.179 30.0897L625.796 30.0842ZM633.716 30.0677L636.334 30.0622L636.329 27.4444L633.711 27.4499L633.716 30.0677ZM635.892 37.5632L633.995 39.3675L634.02 39.3932L634.045 39.4181L635.892 37.5632ZM648.073 38.1978L646.322 36.2523L646.322 36.2523L648.073 38.1978ZM649.442 32.5549L646.992 33.4792L647.002 33.5058L647.013 33.5322L649.442 32.5549ZM648.178 30.8776L646.468 32.8594L646.507 32.8931L646.547 32.9251L648.178 30.8776ZM645.715 29.5027L646.65 27.0574L645.715 29.5027ZM641.753 28.4909L642.199 25.9113L642.186 25.9091L641.753 28.4909ZM635.93 27.1231L635.091 29.6026L635.116 29.6113L635.142 29.6193L635.93 27.1231ZM631.305 24.7927L629.739 26.8903L629.754 26.9018L629.77 26.9131L631.305 24.7927ZM628.216 10.8191L625.86 9.67882L625.853 9.69249L625.847 9.70623L628.216 10.8191ZM631.148 6.97301L629.456 4.97574L629.44 4.98901L629.425 5.00253L631.148 6.97301ZM635.703 4.4435L634.87 1.96173L634.861 1.96456L634.853 1.96746L635.703 4.4435ZM648.303 4.59723L647.389 7.0503L647.412 7.05871L647.434 7.06669L648.303 4.59723ZM653.109 7.40722L651.323 9.32076L651.337 9.33446L651.352 9.34793L653.109 7.40722ZM656.058 11.5411L653.638 12.5397L653.649 12.5661L653.66 12.5921L656.058 11.5411ZM657.092 18.6189L657.098 21.2368L659.716 21.2313L659.71 18.6135L657.092 18.6189ZM649.173 18.6355L646.555 18.6409L646.56 21.2587L649.178 21.2533L649.173 18.6355ZM651.787 17.19C651.782 14.7267 650.773 12.5958 648.969 10.9079L645.392 14.7313C646.233 15.5179 646.55 16.3042 646.552 17.2009L651.787 17.19ZM648.998 10.9356C647.084 9.08898 644.524 8.34728 641.711 8.35314L641.722 13.5888C643.629 13.5848 644.712 14.0755 645.363 14.7036L648.998 10.9356ZM641.711 8.35314C639.372 8.35802 637.189 8.85102 635.439 10.1238L638.519 14.358C639.086 13.9459 640.061 13.5923 641.722 13.5888L641.711 8.35314ZM635.488 10.0889C633.628 11.3776 632.623 13.2825 632.628 15.5499L637.864 15.539C637.863 15.0064 638.014 14.7089 638.47 14.3928L635.488 10.0889ZM632.628 15.5499C632.63 16.6186 632.843 17.6604 633.3 18.6356L638.04 16.4116C637.935 16.1879 637.865 15.9104 637.864 15.539L632.628 15.5499ZM633.331 18.6992C633.86 19.7507 634.686 20.5742 635.608 21.2224L638.619 16.9388C638.179 16.6298 638.043 16.4153 638.009 16.348L633.331 18.6992ZM635.753 21.3172C636.705 21.8965 637.833 22.3707 639.08 22.7688L640.672 17.7809C639.678 17.4636 638.963 17.1417 638.474 16.844L635.753 21.3172ZM639.105 22.7767C640.402 23.1761 641.974 23.5351 643.795 23.8623L644.721 18.7091C643.021 18.4036 641.671 18.0887 640.647 17.773L639.105 22.7767ZM643.795 23.8623C647.963 24.6111 650.849 25.8267 652.702 27.322L655.99 23.2474C653.196 20.9924 649.357 19.542 644.721 18.7091L643.795 23.8623ZM652.702 27.322C654.271 28.5873 655.219 30.5307 655.226 33.6229L660.462 33.6119C660.453 29.3441 659.07 25.7324 655.99 23.2474L652.702 27.322ZM655.226 33.6229L655.227 34.3429L660.463 34.3319L660.462 33.6119L655.226 33.6229ZM655.227 34.3429C655.231 35.976 654.935 37.3845 654.387 38.6104L659.166 40.7489C660.051 38.7718 660.468 36.6188 660.463 34.3319L655.227 34.3429ZM654.374 38.6386C653.86 39.8267 653.106 40.8452 652.087 41.7133L655.483 45.6985C657.099 44.3211 658.34 42.6554 659.178 40.7207L654.374 38.6386ZM652.087 41.7133C651.067 42.5828 649.785 43.2908 648.189 43.8036L649.791 48.7881C651.953 48.0932 653.868 47.0745 655.483 45.6985L652.087 41.7133ZM648.189 43.8036C646.612 44.3106 644.768 44.5869 642.627 44.5913L642.638 49.827C645.216 49.8216 647.611 49.4891 649.791 48.7881L648.189 43.8036ZM642.627 44.5913C640.102 44.5966 637.97 44.253 636.188 43.6183L634.431 48.5505C636.893 49.427 639.642 49.8332 642.638 49.827L642.627 44.5913ZM636.244 43.6391C634.446 42.9519 633.018 42.0526 631.903 40.9738L628.263 44.7368C629.953 46.3721 632.01 47.6256 634.375 48.5297L636.244 43.6391ZM631.93 41.0004C630.783 39.8576 629.92 38.5447 629.329 37.0429L624.457 38.961C625.313 41.1362 626.577 43.0589 628.236 44.7103L631.93 41.0004ZM629.336 37.0606C628.737 35.5073 628.422 33.7885 628.418 31.8788L623.182 31.8897C623.187 34.38 623.601 36.7396 624.45 38.9433L629.336 37.0606ZM628.418 31.8788L628.414 30.0788L623.179 30.0897L623.182 31.8897L628.418 31.8788ZM625.802 32.702L633.722 32.6855L633.711 27.4499L625.791 27.4664L625.802 32.702ZM631.098 30.0732L631.101 31.5132L636.337 31.5022L636.334 30.0622L631.098 30.0732ZM631.101 31.5132C631.108 34.5584 632 37.2697 633.995 39.3675L637.789 35.7588C636.898 34.8226 636.341 33.497 636.337 31.5022L631.101 31.5132ZM634.045 39.4181C636.211 41.575 639.294 42.3939 642.742 42.3867L642.731 37.1511C640.019 37.1567 638.539 36.5052 637.739 35.7082L634.045 39.4181ZM642.742 42.3867C645.452 42.3811 647.986 41.7986 649.825 40.1433L646.322 36.2523C645.845 36.6818 644.822 37.1467 642.731 37.1511L642.742 42.3867ZM649.825 40.1433C651.485 38.649 652.428 36.7184 652.423 34.4687L647.188 34.4796C647.189 35.1099 646.978 35.6618 646.322 36.2523L649.825 40.1433ZM652.423 34.4687C652.421 33.4733 652.242 32.502 651.87 31.5776L647.013 33.5322C647.123 33.8068 647.187 34.115 647.188 34.4796L652.423 34.4687ZM651.891 31.6306C651.463 30.4969 650.732 29.5652 649.809 28.83L646.547 32.9251C646.826 33.1474 646.937 33.3339 646.992 33.4792L651.891 31.6306ZM649.888 28.8957C648.985 28.1163 647.869 27.5233 646.65 27.0574L644.781 31.948C645.643 32.2778 646.169 32.6013 646.468 32.8594L649.888 28.8957ZM646.65 27.0574C645.397 26.5785 643.898 26.205 642.199 25.9114L641.307 31.0705C642.809 31.3302 643.952 31.6312 644.781 31.948L646.65 27.0574ZM642.186 25.9091C640.167 25.5706 638.346 25.141 636.719 24.6268L635.142 29.6193C637.036 30.2178 639.098 30.7002 641.32 31.0727L642.186 25.9091ZM636.77 24.6435C635.223 24.1199 633.923 23.4559 632.841 22.6724L629.77 26.9131C631.332 28.044 633.115 28.9336 635.091 29.6026L636.77 24.6435ZM632.872 22.6952C631.917 21.9826 631.179 21.1011 630.637 20.0234L625.959 22.3746C626.863 24.1739 628.129 25.6882 629.739 26.8903L632.872 22.6952ZM630.637 20.0234C630.142 19.0382 629.828 17.704 629.825 15.9158L624.589 15.9267C624.594 18.2984 625.008 20.4828 625.959 22.3746L630.637 20.0234ZM629.825 15.9158L629.824 15.5558L624.588 15.5667L624.589 15.9267L629.825 15.9158ZM629.824 15.5558C629.821 14.1909 630.086 12.9961 630.586 11.932L625.847 9.70623C624.992 11.5249 624.584 13.4916 624.588 15.5667L629.824 15.5558ZM630.573 11.9594C631.137 10.7941 631.899 9.79443 632.872 8.94348L629.425 5.00253C627.922 6.31674 626.73 7.8812 625.86 9.67882L630.573 11.9594ZM632.84 8.97027C633.844 8.12024 635.068 7.42908 636.553 6.91954L634.853 1.96746C632.82 2.66526 631.008 3.66043 629.456 4.97574L632.84 8.97027ZM636.536 6.92527C638.029 6.42404 639.744 6.15292 641.706 6.14883L641.696 0.91316C639.258 0.918242 636.974 1.25546 634.87 1.96173L636.536 6.92527ZM641.706 6.14883C643.936 6.14418 645.816 6.46419 647.389 7.0503L649.217 2.14416C646.947 1.29828 644.426 0.907468 641.696 0.91316L641.706 6.14883ZM647.434 7.06669C649.069 7.64186 650.344 8.40663 651.323 9.32076L654.896 5.49368C653.31 4.01315 651.38 2.90459 649.172 2.12777L647.434 7.06669ZM651.352 9.34793C652.404 10.2997 653.151 11.3611 653.638 12.5397L658.478 10.5424C657.677 8.60369 656.46 6.90918 654.866 5.46651L651.352 9.34793ZM653.66 12.5921C654.197 13.8174 654.467 15.1004 654.47 16.4644L659.706 16.4535C659.702 14.3775 659.285 12.3819 658.455 10.49L653.66 12.5921ZM654.47 16.4644L654.475 18.6244L659.71 18.6135L659.706 16.4535L654.47 16.4644ZM657.087 16.0011L649.167 16.0176L649.178 21.2533L657.098 21.2368L657.087 16.0011ZM651.79 18.63L651.787 17.19L646.552 17.2009L646.555 18.6409L651.79 18.63Z" fill="#BCFF16"/>
</svg>
