<svg fill="none" height="163" viewBox="0 0 339 163" width="339" xmlns="http://www.w3.org/2000/svg"><path d="m80.3403 129.485.9782-.208-.2079-.978-.9782.208zm3.6676 17.254.2079.978.9782-.208-.208-.978zm-67.3748 14.321-.9782.208.2079.978.9782-.208zm-4.5619-32.236-.9798-.2-.0022.011-.0019.01zm4.5151-10.406-.7992-.601-.0049.007-.0048.006zm8.8528-8.179.553.833.0083-.006.0082-.005zm12.4101-6.932.4151.91.0024-.001zm8.319-4.6308.5842.8116.0073-.0052.0071-.0054zm4.8577-4.7538.8194.5732.0099-.0141.0094-.0145zm1.8074-4.9643-.9937-.112-.002.0177-.0014.0178zm-6.6254-14.3358-.5154.857.007.0042.0071.0041zm-23.7608 6.0525.8386.5446.004-.0061.0038-.0061zm-.6101 20.0242.208.978.9781-.208-.2079-.978zm-18.07612 3.842-.97815.208.20791.978.97815-.207zm-2.00905-20.8986-.985475-.1703-.001874.0117zm4.57664-12.1368-.84671-.532-.00025.0004zm9.41253-9.5864.5594.8289.0075-.0051.0074-.0052zm29.5501-6.4242-.1738.9848.009.0016.0091.0014zm12.0785 4.3027-.5308.8475.0067.0042.0068.0041zm8.4738 8.2178-.8429.5382.0082.0128.0086.0126zm2.3007 33.7185-.8766-.481-.0047.009zm-19.6024 16.189-.4237-.905h-.0016zm-10.0119 5.42.532.847.0075-.005.0075-.004zm-5.7085 4.792-.7823-.623zm-2.3842 4.944-.9837-.18-.0028.015-.0024.016zm.6046 6.884-.9782.208.208.979.9781-.208zm48.3205-10.27 3.6676 17.254 1.9562-.416-3.6675-17.254zm4.4378 16.068-67.3748 14.321.4158 1.956 67.3748-14.321zm-66.1888 15.091-4.0168-18.898-1.9563.416 4.0168 18.898zm-4.0168-18.898c-1.0481-4.93-1.2141-9.241-.5394-12.951l-1.9677-.358c-.7331 4.032-.5357 8.614.5508 13.725zm-.5435-12.93c.7682-3.758 2.2179-7.093 4.3443-10.018l-1.6178-1.176c-2.3034 3.169-3.8638 6.771-4.686 10.794zm4.3346-10.005c2.2299-2.965 5.0938-5.616 8.6066-7.947l-1.1059-1.666c-3.6788 2.441-6.7167 5.243-9.0991 8.411zm8.6231-7.958c3.5196-2.439 7.603-4.721 12.2557-6.844l-.8303-1.82c-4.7413 2.164-8.9312 4.503-12.5643 7.02zm12.2581-6.845c3.5097-1.613 6.3455-3.187 8.4857-4.7282l-1.1685-1.6231c-1.9976 1.438-4.7078 2.9513-8.1523 4.5333zm8.5001-4.7388c2.195-1.6405 3.901-3.2983 5.0785-4.9816l-1.6388-1.1464c-1.0179 1.455-2.5504 2.9665-4.637 4.5261zm5.0978-5.0102c1.1515-1.7732 1.8241-3.5865 1.9658-5.4323l-1.9942-.1531c-.1114 1.4522-.6438 2.9484-1.649 4.4961zm1.9624-5.3968c.2123-1.882.0875-3.8751-.3582-5.9723l-1.9563.4159c.408 1.9197.5118 3.6948.3271 5.3323zm-.3582-5.9723c-.8735-4.1093-3.1398-7.2434-6.7595-9.3408l-1.0027 1.7305c3.1272 1.812 5.0493 4.4668 5.8059 8.0262zm-6.7455-9.3325c-3.5606-2.1416-7.9441-2.594-13.0413-1.5105l.4158 1.9563c4.7625-1.0123 8.5911-.5385 11.5947 1.2681zm-13.0413-1.5105c-5.4199 1.152-9.4884 3.765-12.0814 7.8874l1.6929 1.0649c2.2567-3.5877 5.8167-5.9359 10.8043-6.996zm-12.0736 7.8752c-2.6249 4.042-3.2535 8.9965-2.0302 14.7516l1.9563-.4158c-1.1442-5.3828-.5123-9.761 1.7512-13.2465zm-2.0302 14.7516 1.2807 6.0253 1.9563-.416-1.2807-6.0251zm2.0509 4.8393-18.07613 3.842.41582 1.957 18.07621-3.843zm-16.89007 4.612-1.63003-7.6682-1.9563.4158 1.63003 7.6684zm-1.63003-7.6682c-.92624-4.3576-1.04769-8.6434-.36982-12.8638l-1.974699-.3172c-.7184654 4.4732-.587243 9.0076.388219 13.5968zm-.37177-12.8522c.74911-4.3362 2.23013-8.2579 4.43819-11.7753l-1.69391-1.0633c-2.354 3.7499-3.92408 7.9194-4.715082 12.4982zm4.43794-11.7749c2.27377-3.6184 5.31033-6.7153 9.12523-9.2896l-1.1187-1.6579c-4.0294 2.719-7.26786 6.0131-9.69994 9.8834zm9.14013-9.2999c3.7768-2.6496 8.2922-4.5435 13.5672-5.6647l-.4158-1.9563c-5.4978 1.1686-10.2714 3.1575-14.3 5.9837zm13.5672-5.6647c5.6553-1.2021 10.7284-1.3889 15.2348-.5933l.3476-1.9696c-4.8126-.8496-10.1506-.6364-15.9982.6066zm15.2529-.5903c4.5288.7137 8.4229 2.1077 11.7034 4.1624l1.0616-1.6949c-3.5439-2.2198-7.7023-3.6943-12.4536-4.4431zm11.7169 4.1707c3.3757 2.0406 6.0875 4.6725 8.1482 7.9002l1.6858-1.0763c-2.2306-3.4937-5.168-6.3403-8.7993-8.5355zm8.165 7.9256c2.1444 3.1429 3.6089 6.5643 4.3967 10.2708l1.9563-.4158c-.8422-3.9622-2.4103-7.6251-4.7009-10.9822zm4.3967 10.2708.3493 1.6433 1.9563-.4158-.3493-1.6433zm.3493 1.6433c1.6657 7.8365.811 14.7355-2.4958 20.7598l1.7532.962c3.5716-6.5062 4.4485-13.9064 2.6989-22.1376zm-2.5005 20.7688c-3.2057 5.98-9.5246 11.255-19.1448 15.756l.8474 1.811c9.8206-4.594 16.57-10.111 20.0601-16.623zm-19.1464 15.756c-4.1025 1.928-7.4843 3.757-10.1336 5.488l1.094 1.675c2.5453-1.664 5.838-3.448 9.8903-5.353zm-10.1185 5.479c-2.5817 1.621-4.5844 3.289-5.9589 5.015l1.5646 1.246c1.1861-1.49 2.9891-3.017 5.4582-4.568zm-5.9589 5.015c-1.3627 1.711-2.2414 3.508-2.5856 5.387l1.9673.36c.2742-1.497.9849-2.997 2.1829-4.501zm-2.5908 5.418c-.2587 1.719-.1609 3.59.2661 5.598l1.9562-.416c-.388-1.826-.4604-3.45-.2446-4.885zm.2661 5.598.3492 1.643 1.9563-.415-.3493-1.644zm1.5353 2.414 49.2987-10.479-.4159-1.956-49.2986 10.478zm82.2514-59.0109-.839-.5446zm3.434 16.159-.544.8387zm-28.0683-43.8422-.8607-.5093-.0036.0063zm51.9003-11.0318-.585.811.006.0042zm16.883 79.4259-.854-.521-.004.006zm-51.901 11.031-.574.819.006.004zm32.547-15.219.597.803.013-.011.013-.01zm4.38-5.654.917.399zm1.421-7.459 1-.005zm-8.811-40.7788.902-.4316zm-4.469-6.2066.676-.7378zm-6.301-3.3839-.283.9591.016.0047.016.0041zm-15.885 3.3765.624.7819.012-.0102.013-.0106zm-4.38 5.6542-.917-.3993zm-1.557 7.4874-1-.0274zm8.537 40.8372-.916.402zm4.331 6.236.675-.738zm6.301 3.384-.251.968.016.004.017.004zm-9.09-31.4166c-.603-2.8333-.093-5.4997 1.566-8.0547l-1.677-1.0892c-1.935 2.98-2.563 6.185-1.846 9.5597zm1.566-8.0547c1.66-2.5549 3.888-4.1051 6.721-4.7073l-.415-1.9563c-3.375.7173-6.048 2.5944-7.983 5.5744zm6.721-4.7073c2.834-.6022 5.5-.0925 8.055 1.5667l1.089-1.6774c-2.98-1.9352-6.185-2.5629-9.559-1.8456zm8.055 1.5667c2.555 1.6592 4.105 3.8878 4.707 6.721l1.957-.4158c-.718-3.3747-2.595-6.0473-5.575-7.9826zm4.707 6.721c.603 2.8333.093 5.4997-1.566 8.0547l1.677 1.0892c1.935-2.98 2.563-6.185 1.846-9.5597zm-1.566 8.0547c-1.659 2.5549-3.888 4.1051-6.721 4.7073l.415 1.9559c3.375-.717 6.048-2.5939 7.983-5.574zm-6.721 4.7073c-2.834.6023-5.5.0925-8.055-1.5667l-1.089 1.6774c2.98 1.9352 6.185 2.5632 9.559 1.8452zm-8.055-1.5667c-2.555-1.6592-4.105-3.8878-4.707-6.721l-1.957.4158c.718 3.3747 2.595 6.0473 5.575 7.9826zm-30.8054-12.3377c-2.6055-12.2577-1.5337-22.2755 3.0564-30.1629l-1.7286-1.0059c-4.9151 8.4458-5.9568 19.0105-3.2841 31.5847zm3.0527-30.1566c4.6748-7.9002 12.3547-13.0304 23.1827-15.3321l-.416-1.9563c-11.264 2.3943-19.475 7.7982-24.4879 16.2699zm23.1827-15.3321c10.829-2.3018 19.882-.7282 27.272 4.6021l1.17-1.6221c-7.937-5.7247-17.594-7.3305-28.858-4.9363zm27.278 4.6063c7.49 5.3199 12.587 14.0244 15.192 26.2787l1.956-.4158c-2.673-12.5776-7.97-21.7972-15.99-27.4934zm15.192 26.2787 4.54 21.3628 1.957-.4159-4.541-21.3627zm4.54 21.3628c2.685 12.6302 1.581 22.7362-3.124 30.4482l1.707 1.041c5.061-8.294 6.123-18.973 3.374-31.9051zm-3.128 30.4542c-4.619 7.696-12.27 12.731-23.107 15.035l.416 1.956c11.255-2.393 19.442-7.69 24.406-15.962zm-23.107 15.035c-10.837 2.303-19.924.826-27.368-4.312l-1.136 1.646c7.988 5.514 17.663 7.014 28.92 4.622zm-27.362-4.307c-7.3464-5.15-12.4222-13.945-15.1076-26.579l-1.9563.416c2.748 12.929 8.0135 22.261 15.9159 27.8zm-15.1076-26.579-4.5408-21.3623-1.9563.4159 4.5408 21.3624zm39.3926 16.409c3.379-.718 6.158-1.847 8.285-3.428l-1.194-1.606c-1.828 1.359-4.313 2.399-7.507 3.078zm8.311-3.449c2.081-1.659 3.644-3.673 4.674-6.037l-1.834-.799c-.894 2.053-2.25 3.808-4.086 5.272zm4.674-6.037c1.025-2.353 1.519-4.98 1.504-7.863l-2 .011c.014 2.645-.439 4.99-1.338 7.053zm1.504-7.863c-.016-2.843-.373-5.8911-1.064-9.1413l-1.956.4158c.668 3.1404 1.005 6.0515 1.02 8.7365zm-1.064-9.1413-5.006-23.5538-1.956.4158 5.006 23.5538zm-5.006-23.5538c-.655-3.0819-1.6-5.9202-2.839-8.5103l-1.805.8632c1.165 2.4334 2.062 5.1195 2.688 8.0629zm-2.839-8.5103c-1.249-2.6095-2.81-4.7877-4.695-6.5128l-1.351 1.4755c1.669 1.5271 3.086 3.4867 4.241 5.9005zm-4.695-6.5128c-1.903-1.7406-4.15-2.9448-6.725-3.6139l-.503 1.9357c2.272.5905 4.226 1.6422 5.877 3.1537zm-6.694-3.6052c-2.637-.7784-5.584-.797-8.812-.111l.416 1.9563c2.981-.6336 5.581-.5909 7.83.0729zm-8.812-.111c-3.227.686-5.912 1.9017-8.005 3.6856l1.298 1.5221c1.785-1.5213 4.143-2.6179 7.123-3.2514zm-7.979 3.6647c-2.081 1.6587-3.644 3.673-4.674 6.0368l1.834.7987c.894-2.0527 2.251-3.8079 4.087-5.2717zm-4.674 6.0368c-1.02 2.3426-1.561 4.9676-1.64 7.8593l1.999.0549c.074-2.675.571-5.0416 1.475-7.1155zm-1.64 7.8593c-.079 2.8703.213 5.8475.868 8.9294l1.956-.4158c-.626-2.9434-.899-5.7622-.825-8.4587zm.868 8.9294 5.006 23.5542 1.956-.416-5.006-23.554zm5.006 23.5542c.691 3.25 1.605 6.18 2.747 8.783l1.832-.803c-1.079-2.459-1.955-5.256-2.623-8.396zm2.747 8.783c1.158 2.64 2.678 4.839 4.572 6.572l1.35-1.476c-1.66-1.519-3.028-3.477-4.09-5.899zm4.572 6.572c1.902 1.74 4.149 2.945 6.725 3.614l.503-1.936c-2.273-.59-4.226-1.642-5.878-3.154zm6.758 3.622c2.586.579 5.584.48 8.963-.238l-.416-1.956c-3.194.679-5.887.74-8.11.242zm126.394-29.0838.978-.2079-.208-.9781-.978.2079zm3.668 17.2548.208.978.978-.208-.208-.978zm-67.375 14.321-.978.208.208.978.978-.208zm-4.562-32.2363-.98-.2002-.002.0106-.002.0107zm4.515-10.4061-.799-.6011-.005.0065-.005.0066zm8.853-8.1794.553.8332.008-.0055.008-.0057zm12.41-6.9316.415.9097.003-.0011zm8.319-4.6308.584.8115.007-.0052.008-.0053zm4.858-4.7539.819.5732.01-.0141.009-.0145zm1.807-4.9643-.994-.112-.002.0177-.001.0178zm-6.625-14.3357-.516.8569.007.0042.007.0041zm-23.761 6.0524.839.5446.003-.0061.004-.0061zm-.61 20.0244.208.9781.978-.2079-.208-.9781zm-18.076 3.8422-.978.2079.207.9782.979-.208zm-2.009-20.899-.986-.1702-.002.0116zm4.576-12.1367-.846-.5321-.001.0004zm9.413-9.5865.559.8289.008-.0051.007-.0052zm29.55-6.4242-.174.9848.009.0016.009.0014zm12.078 4.3028-.53.8474.006.0043.007.0041zm8.474 8.2177-.843.5382.009.0128.008.0127zm2.301 33.7185-.877-.4812-.004.0088zm-19.602 16.1894-.424-.9058-.002.0007zm-10.012 5.42.532.8468.007-.0048.008-.0049zm-5.709 4.7916-.782-.6229zm-2.384 4.9437-.984-.1802-.003.0157-.002.0157zm.605 6.8848-.979.208.208.978.978-.208zm48.32-10.2709 3.668 17.2549 1.956-.416-3.668-17.2547zm4.438 16.0689-67.375 14.321.416 1.956 67.375-14.321zm-66.189 15.091-4.017-18.898-1.956.416 4.017 18.898zm-4.017-18.898c-1.048-4.931-1.214-9.241-.539-12.9514l-1.968-.3578c-.733 4.0316-.536 8.6132.551 13.7252zm-.543-12.93c.768-3.7581 2.218-7.0931 4.344-10.0184l-1.618-1.176c-2.303 3.1689-3.864 6.7713-4.686 10.7939zm4.334-10.0054c2.23-2.9651 5.094-5.6158 8.607-7.9472l-1.106-1.6664c-3.679 2.4415-6.717 5.2437-9.099 8.4115zm8.623-7.9584c3.52-2.4384 7.603-4.7207 12.256-6.8439l-.83-1.8195c-4.741 2.1636-8.931 4.5024-12.565 7.0194zm12.259-6.845c3.509-1.6128 6.345-3.1872 8.485-4.7279l-1.168-1.6231c-1.998 1.438-4.708 2.9508-8.153 4.5337zm8.5-4.7384c2.195-1.6406 3.901-3.2984 5.078-4.9817l-1.639-1.1464c-1.018 1.4551-2.55 2.9665-4.637 4.5261zm5.097-5.0103c1.152-1.7732 1.824-3.5865 1.966-5.4323l-1.994-.1531c-.111 1.4522-.644 2.9484-1.649 4.4962zm1.963-5.3968c.212-1.882.087-3.8751-.358-5.9722l-1.957.4158c.408 1.9197.512 3.6948.327 5.3323zm-.358-5.9722c-.874-4.1093-3.14-7.2435-6.76-9.3409l-1.003 1.7305c3.128 1.812 5.05 4.4668 5.806 8.0262zm-6.746-9.3326c-3.56-2.1416-7.944-2.5939-13.041-1.5105l.416 1.9563c4.762-1.0123 8.591-.5385 11.594 1.2681zm-13.041-1.5105c-5.42 1.152-9.489 3.7651-12.082 7.8875l1.693 1.0648c2.257-3.5877 5.817-5.9358 10.805-6.996zm-12.074 7.8752c-2.625 4.042-3.253 8.9965-2.03 14.7516l1.956-.4158c-1.144-5.3828-.512-9.7609 1.752-13.2465zm-2.03 14.7516 1.281 6.0254 1.956-.4158-1.281-6.0254zm2.051 4.8393-18.076 3.8422.416 1.9563 18.076-3.8422zm-16.89 4.6125-1.63-7.6687-1.956.4158 1.63 7.6687zm-1.63-7.6687c-.926-4.3576-1.048-8.6434-.37-12.8638l-1.975-.3172c-.718 4.4732-.587 9.0076.389 13.5968zm-.372-12.8522c.749-4.3362 2.23-8.2579 4.438-11.7753l-1.694-1.0633c-2.354 3.7499-3.924 7.9194-4.715 12.4982zm4.438-11.7749c2.274-3.6184 5.31-6.7153 9.125-9.2896l-1.119-1.6578c-4.029 2.7189-7.267 6.013-9.699 9.8833zm9.14-9.2999c3.777-2.6496 8.292-4.5435 13.567-5.6647l-.416-1.9563c-5.497 1.1686-10.271 3.1575-14.299 5.9838zm13.567-5.6647c5.656-1.2021 10.729-1.3888 15.235-.5933l.348-1.9696c-4.813-.8496-10.151-.6363-15.999.6066zm15.253-.5903c4.529.7137 8.423 2.1077 11.704 4.1624l1.061-1.6949c-3.544-2.2198-7.702-3.6943-12.453-4.4431zm11.717 4.1708c3.376 2.0405 6.088 4.6724 8.148 7.9001l1.686-1.0763c-2.23-3.4937-5.168-6.3403-8.799-8.5354zm8.165 7.9256c2.145 3.1428 3.609 6.5642 4.397 10.2707l1.956-.4158c-.842-3.9622-2.41-7.6251-4.701-10.9822zm4.397 10.2707.349 1.6433 1.956-.4158-.349-1.6433zm.349 1.6433c1.666 7.8365.811 14.7355-2.496 20.7596l1.754.9624c3.571-6.5064 4.448-13.9066 2.698-22.1378zm-2.5 20.7684c-3.206 5.9805-9.525 11.2559-19.145 15.756l.847 1.8116c9.821-4.5939 16.57-10.1115 20.06-16.6227zm-19.147 15.7567c-4.102 1.9281-7.484 3.7569-10.133 5.488l1.094 1.6742c2.545-1.6631 5.838-3.4476 9.89-5.3521zm-10.118 5.4783c-2.582 1.6218-4.585 3.2892-5.959 5.0155l1.564 1.2458c1.187-1.4897 2.99-3.0167 5.459-4.5677zm-5.959 5.0155c-1.363 1.7114-2.242 3.5076-2.586 5.3864l1.968.3604c.274-1.4968.984-2.9964 2.182-4.501zm-2.591 5.4178c-.259 1.7194-.161 3.5896.266 5.5986l1.956-.416c-.388-1.826-.46-3.4501-.244-4.885zm.266 5.5986.349 1.643 1.957-.416-.35-1.643zm1.535 2.413 49.299-10.4786-.416-1.9563-49.298 10.4789zm92.817-20.751.208.9782.978-.208-.208-.9781zm-14.787-69.5659.978-.2079-.208-.9781-.978.2079zm-2.465.524-.208-.9782-.745.1585-.045.7608zm-2.052 34.7868.208.9782.745-.1585.045-.7608zm-17.254 3.6676-.979.2079.208.9782.978-.2079zm-.35-1.6433-.997-.0688-.01.1397.029.137zm2.946-42.70558-.208-.97815-.738.15683-.052.75251zm35.33-7.50977.978-.20791-.207-.978151-.979.207911zm16.708 78.60395-.978.2079.208.9782.978-.208zm23.828-5.0647.978-.2079-.208-.9782-.978.2079zm3.667 17.2545.208.9781.978-.2079-.207-.9781zm-69.018 14.6704-.978.208.208.978.978-.208zm-3.667-17.2547-.208-.9781-.978.2079.208.9781zm28.092-5.9712-14.787-69.5659-1.956.4159 14.787 69.5658zm-15.973-70.3361-2.465.5239.416 1.9563 2.465-.5239zm-3.255 1.4432-2.052 34.7868 1.996.1178 2.053-34.7868zm-1.262 33.8676-17.254 3.6676.415 1.9563 17.255-3.6676zm-16.068 4.4378-.35-1.6433-1.956.4158.349 1.6433zm-.33-1.3666 2.945-42.70558-1.995-.13761-2.945 42.70559zm2.156-41.7962 35.33-7.5098-.416-1.9563-35.33 7.50977zm34.144-8.28004 16.708 78.60394 1.956-.4158-16.708-78.60396zm17.894 79.37414 23.828-5.0647-.416-1.9563-23.828 5.0648zm22.642-5.8349 3.667 17.2545 1.957-.4158-3.668-17.2545zm4.437 16.0684-69.018 14.6706.416 1.956 69.018-14.6703zm-67.832 15.4406-3.667-17.2546-1.956.4158 3.667 17.2548zm-4.437-16.0685 27.114-5.7633-.416-1.9563-27.114 5.7633z" fill="#ff39a6"/></svg>