<svg width="339" height="163" viewBox="0 0 339 163" fill="none" xmlns="http://www.w3.org/2000/svg">
<path d="M80.3403 129.485L81.3185 129.277L81.1106 128.299L80.1324 128.507L80.3403 129.485ZM84.0079 146.739L84.2158 147.717L85.194 147.509L84.986 146.531L84.0079 146.739ZM16.6331 161.06L15.6549 161.268L15.8628 162.246L16.841 162.038L16.6331 161.06ZM12.0712 128.824L11.0914 128.624L11.0892 128.635L11.0873 128.645L12.0712 128.824ZM16.5863 118.418L15.7871 117.817L15.7822 117.824L15.7774 117.83L16.5863 118.418ZM25.4391 110.239L25.9921 111.072L26.0004 111.066L26.0086 111.061L25.4391 110.239ZM37.8492 103.307L38.2643 104.217L38.2667 104.216L37.8492 103.307ZM46.1682 98.6762L46.7524 99.4878L46.7597 99.4826L46.7668 99.4772L46.1682 98.6762ZM51.0259 93.9224L51.8453 94.4956L51.8552 94.4815L51.8646 94.467L51.0259 93.9224ZM52.8333 88.9581L51.8396 88.8461L51.8376 88.8638L51.8362 88.8816L52.8333 88.9581ZM46.2079 74.6223L45.6925 75.4793L45.6995 75.4835L45.7066 75.4876L46.2079 74.6223ZM22.4471 80.6748L23.2857 81.2194L23.2897 81.2133L23.2935 81.2072L22.4471 80.6748ZM21.837 100.699L22.045 101.677L23.0231 101.469L22.8152 100.491L21.837 100.699ZM3.76088 104.541L2.78273 104.749L2.99064 105.727L3.96879 105.52L3.76088 104.541ZM1.75183 83.6424L0.766355 83.4721L0.764481 83.4838L1.75183 83.6424ZM6.32847 71.5056L5.48176 70.9736L5.48151 70.974L6.32847 71.5056ZM15.741 61.9192L16.3004 62.7481L16.3079 62.743L16.3153 62.7378L15.741 61.9192ZM45.2911 55.495L45.1173 56.4798L45.1263 56.4814L45.1354 56.4828L45.2911 55.495ZM57.3696 59.7977L56.8388 60.6452L56.8455 60.6494L56.8523 60.6535L57.3696 59.7977ZM65.8434 68.0155L65.0005 68.5537L65.0087 68.5665L65.0173 68.5791L65.8434 68.0155ZM68.1441 101.734L67.2675 101.253L67.2628 101.262L68.1441 101.734ZM48.5417 117.923L48.118 117.018L48.1164 117.018L48.5417 117.923ZM38.5298 123.343L39.0618 124.19L39.0693 124.185L39.0768 124.181L38.5298 123.343ZM32.8213 128.135L32.039 127.512L32.8213 128.135ZM30.4371 133.079L29.4534 132.899L29.4506 132.914L29.4482 132.93L30.4371 133.079ZM31.0417 139.963L30.0635 140.171L30.2715 141.15L31.2496 140.942L31.0417 139.963ZM79.3622 129.693L83.0298 146.947L84.986 146.531L81.3185 129.277L79.3622 129.693ZM83.8 145.761L16.4252 160.082L16.841 162.038L84.2158 147.717L83.8 145.761ZM17.6112 160.852L13.5944 141.954L11.6381 142.37L15.6549 161.268L17.6112 160.852ZM13.5944 141.954C12.5463 137.024 12.3803 132.713 13.055 129.003L11.0873 128.645C10.3542 132.677 10.5516 137.259 11.6381 142.37L13.5944 141.954ZM13.0509 129.024C13.8191 125.266 15.2688 121.931 17.3952 119.006L15.7774 117.83C13.474 120.999 11.9136 124.601 11.0914 128.624L13.0509 129.024ZM17.3855 119.019C19.6154 116.054 22.4793 113.403 25.9921 111.072L24.8862 109.406C21.2074 111.847 18.1695 114.649 15.7871 117.817L17.3855 119.019ZM26.0086 111.061C29.5282 108.622 33.6116 106.34 38.2643 104.217L37.434 102.397C32.6927 104.561 28.5028 106.9 24.8697 109.417L26.0086 111.061ZM38.2667 104.216C41.7764 102.603 44.6122 101.029 46.7524 99.4878L45.5839 97.8647C43.5863 99.3027 40.8761 100.816 37.4316 102.398L38.2667 104.216ZM46.7668 99.4772C48.9618 97.8367 50.6678 96.1789 51.8453 94.4956L50.2065 93.3492C49.1886 94.8042 47.6561 96.3157 45.5695 97.8753L46.7668 99.4772ZM51.8646 94.467C53.0161 92.6938 53.6887 90.8805 53.8304 89.0347L51.8362 88.8816C51.7248 90.3338 51.1924 91.83 50.1872 93.3777L51.8646 94.467ZM53.827 89.0702C54.0393 87.1882 53.9145 85.1951 53.4688 83.0979L51.5125 83.5138C51.9205 85.4335 52.0243 87.2086 51.8396 88.8461L53.827 89.0702ZM53.4688 83.0979C52.5953 78.9886 50.329 75.8545 46.7093 73.7571L45.7066 75.4876C48.8338 77.2996 50.7559 79.9544 51.5125 83.5138L53.4688 83.0979ZM46.7233 73.7654C43.1627 71.6238 38.7792 71.1714 33.682 72.2549L34.0978 74.2112C38.8603 73.1989 42.6889 73.6727 45.6925 75.4793L46.7233 73.7654ZM33.682 72.2549C28.2621 73.4069 24.1936 76.0199 21.6006 80.1423L23.2935 81.2072C25.5502 77.6195 29.1102 75.2713 34.0978 74.2112L33.682 72.2549ZM21.6084 80.1301C18.9835 84.1721 18.3549 89.1266 19.5782 94.8817L21.5345 94.4659C20.3903 89.0831 21.0222 84.7049 23.2857 81.2194L21.6084 80.1301ZM19.5782 94.8817L20.8589 100.907L22.8152 100.491L21.5345 94.4659L19.5782 94.8817ZM21.6291 99.721L3.55297 103.563L3.96879 105.52L22.045 101.677L21.6291 99.721ZM4.73903 104.333L3.109 96.6648L1.1527 97.0806L2.78273 104.749L4.73903 104.333ZM3.109 96.6648C2.18276 92.3072 2.06131 88.0214 2.73918 83.801L0.764481 83.4838C0.0460156 87.957 0.177238 92.4914 1.1527 97.0806L3.109 96.6648ZM2.73723 83.8126C3.48634 79.4764 4.96736 75.5547 7.17542 72.0373L5.48151 70.974C3.12751 74.7239 1.55743 78.8934 0.766428 83.4722L2.73723 83.8126ZM7.17517 72.0377C9.44894 68.4193 12.4855 65.3224 16.3004 62.7481L15.1817 61.0902C11.1523 63.8092 7.91384 67.1033 5.48176 70.9736L7.17517 72.0377ZM16.3153 62.7378C20.0921 60.0882 24.6075 58.1943 29.8825 57.0731L29.4667 55.1168C23.9689 56.2854 19.1953 58.2743 15.1667 61.1005L16.3153 62.7378ZM29.8825 57.0731C35.5378 55.871 40.6109 55.6842 45.1173 56.4798L45.4649 54.5102C40.6523 53.6606 35.3143 53.8738 29.4667 55.1168L29.8825 57.0731ZM45.1354 56.4828C49.6642 57.1965 53.5583 58.5905 56.8388 60.6452L57.9004 58.9503C54.3565 56.7305 50.1981 55.256 45.4468 54.5072L45.1354 56.4828ZM56.8523 60.6535C60.228 62.6941 62.9398 65.326 65.0005 68.5537L66.6863 67.4774C64.4557 63.9837 61.5183 61.1371 57.887 58.9419L56.8523 60.6535ZM65.0173 68.5791C67.1617 71.722 68.6262 75.1434 69.414 78.8499L71.3703 78.4341C70.5281 74.4719 68.96 70.809 66.6694 67.4519L65.0173 68.5791ZM69.414 78.8499L69.7633 80.4932L71.7196 80.0774L71.3703 78.4341L69.414 78.8499ZM69.7633 80.4932C71.429 88.3297 70.5743 95.2287 67.2675 101.253L69.0207 102.215C72.5923 95.7088 73.4692 88.3086 71.7196 80.0774L69.7633 80.4932ZM67.2628 101.262C64.0571 107.242 57.7382 112.517 48.118 117.018L48.9654 118.829C58.786 114.235 65.5354 108.718 69.0255 102.206L67.2628 101.262ZM48.1164 117.018C44.0139 118.946 40.6321 120.775 37.9828 122.506L39.0768 124.181C41.6221 122.517 44.9148 120.733 48.9671 118.828L48.1164 117.018ZM37.9979 122.497C35.4162 124.118 33.4135 125.786 32.039 127.512L33.6036 128.758C34.7897 127.268 36.5927 125.741 39.0618 124.19L37.9979 122.497ZM32.039 127.512C30.6763 129.223 29.7976 131.02 29.4534 132.899L31.4207 133.259C31.6949 131.762 32.4056 130.262 33.6036 128.758L32.039 127.512ZM29.4482 132.93C29.1895 134.649 29.2873 136.52 29.7143 138.528L31.6705 138.112C31.2825 136.286 31.2101 134.662 31.4259 133.227L29.4482 132.93ZM29.7143 138.528L30.0635 140.171L32.0198 139.756L31.6705 138.112L29.7143 138.528ZM31.2496 140.942L80.5483 130.463L80.1324 128.507L30.8338 138.985L31.2496 140.942ZM113.501 81.9311L112.662 81.3865L113.501 81.9311ZM116.935 98.0901L116.391 98.9288L116.935 98.0901ZM88.8667 54.2479L88.006 53.7386L88.0024 53.7449L88.8667 54.2479ZM140.767 43.2161L140.182 44.0271L140.188 44.0313L140.767 43.2161ZM157.65 122.642L156.796 122.121L156.792 122.127L157.65 122.642ZM105.749 133.673L105.175 134.492L105.181 134.496L105.749 133.673ZM138.296 118.454L138.893 119.257L138.906 119.246L138.919 119.236L138.296 118.454ZM142.676 112.8L143.593 113.199L142.676 112.8ZM144.097 105.341L145.097 105.336L144.097 105.341ZM135.286 64.5622L136.188 64.1306L135.286 64.5622ZM130.817 58.3556L131.493 57.6178L130.817 58.3556ZM124.516 54.9717L124.233 55.9308L124.249 55.9355L124.265 55.9396L124.516 54.9717ZM108.631 58.3482L109.255 59.1301L109.267 59.1199L109.28 59.1093L108.631 58.3482ZM104.251 64.0024L103.334 63.6031L104.251 64.0024ZM102.694 71.4898L101.694 71.4624L102.694 71.4898ZM111.231 112.327L110.315 112.729L111.231 112.327ZM115.562 118.563L116.237 117.825L115.562 118.563ZM121.863 121.947L121.612 122.915L121.628 122.919L121.645 122.923L121.863 121.947ZM112.773 90.5304C112.17 87.6971 112.68 85.0307 114.339 82.4757L112.662 81.3865C110.727 84.3665 110.099 87.5715 110.816 90.9462L112.773 90.5304ZM114.339 82.4757C115.999 79.9208 118.227 78.3706 121.06 77.7684L120.645 75.8121C117.27 76.5294 114.597 78.4065 112.662 81.3865L114.339 82.4757ZM121.06 77.7684C123.894 77.1662 126.56 77.6759 129.115 79.3351L130.204 77.6577C127.224 75.7225 124.019 75.0948 120.645 75.8121L121.06 77.7684ZM129.115 79.3351C131.67 80.9943 133.22 83.2229 133.822 86.0561L135.779 85.6403C135.061 82.2656 133.184 79.593 130.204 77.6577L129.115 79.3351ZM133.822 86.0561C134.425 88.8894 133.915 91.5558 132.256 94.1108L133.933 95.2C135.868 92.22 136.496 89.015 135.779 85.6403L133.822 86.0561ZM132.256 94.1108C130.597 96.6657 128.368 98.2159 125.535 98.8181L125.95 100.774C129.325 100.057 131.998 98.1801 133.933 95.2L132.256 94.1108ZM125.535 98.8181C122.701 99.4204 120.035 98.9106 117.48 97.2514L116.391 98.9288C119.371 100.864 122.576 101.492 125.95 100.774L125.535 98.8181ZM117.48 97.2514C114.925 95.5922 113.375 93.3636 112.773 90.5304L110.816 90.9462C111.534 94.3209 113.411 96.9935 116.391 98.9288L117.48 97.2514ZM86.6746 84.9137C84.0691 72.656 85.1409 62.6382 89.731 54.7508L88.0024 53.7449C83.0873 62.1907 82.0456 72.7554 84.7183 85.3296L86.6746 84.9137ZM89.7273 54.7571C94.4021 46.8569 102.082 41.7267 112.91 39.425L112.494 37.4687C101.23 39.863 93.019 45.2669 88.0061 53.7386L89.7273 54.7571ZM112.91 39.425C123.739 37.1232 132.792 38.6968 140.182 44.0271L141.352 42.405C133.415 36.6803 123.758 35.0745 112.494 37.4687L112.91 39.425ZM140.188 44.0313C147.678 49.3512 152.775 58.0557 155.38 70.31L157.336 69.8942C154.663 57.3166 149.366 48.097 141.346 42.4008L140.188 44.0313ZM155.38 70.31L159.92 91.6728L161.877 91.2569L157.336 69.8942L155.38 70.31ZM159.92 91.6728C162.605 104.303 161.501 114.409 156.796 122.121L158.503 123.162C163.564 114.868 164.626 104.189 161.877 91.2569L159.92 91.6728ZM156.792 122.127C152.173 129.823 144.522 134.858 133.685 137.162L134.101 139.118C145.356 136.725 153.543 131.428 158.507 123.156L156.792 122.127ZM133.685 137.162C122.848 139.465 113.761 137.988 106.317 132.85L105.181 134.496C113.169 140.01 122.844 141.51 134.101 139.118L133.685 137.162ZM106.323 132.855C98.9766 127.705 93.9008 118.91 91.2154 106.276L89.2591 106.692C92.0071 119.621 97.2726 128.953 105.175 134.492L106.323 132.855ZM91.2154 106.276L86.6746 84.9137L84.7183 85.3296L89.2591 106.692L91.2154 106.276ZM130.608 122.685C133.987 121.967 136.766 120.838 138.893 119.257L137.699 117.651C135.871 119.01 133.386 120.05 130.192 120.729L130.608 122.685ZM138.919 119.236C141 117.577 142.563 115.563 143.593 113.199L141.759 112.4C140.865 114.453 139.509 116.208 137.673 117.672L138.919 119.236ZM143.593 113.199C144.618 110.846 145.112 108.219 145.097 105.336L143.097 105.347C143.111 107.992 142.658 110.337 141.759 112.4L143.593 113.199ZM145.097 105.336C145.081 102.493 144.724 99.4449 144.033 96.1947L142.077 96.6105C142.745 99.7509 143.082 102.662 143.097 105.347L145.097 105.336ZM144.033 96.1947L139.027 72.6409L137.071 73.0567L142.077 96.6105L144.033 96.1947ZM139.027 72.6409C138.372 69.559 137.427 66.7207 136.188 64.1306L134.383 64.9938C135.548 67.4272 136.445 70.1133 137.071 73.0567L139.027 72.6409ZM136.188 64.1306C134.939 61.5211 133.378 59.3429 131.493 57.6178L130.142 59.0933C131.811 60.6204 133.228 62.58 134.383 64.9938L136.188 64.1306ZM131.493 57.6178C129.59 55.8772 127.343 54.673 124.768 54.0039L124.265 55.9396C126.537 56.5301 128.491 57.5818 130.142 59.0933L131.493 57.6178ZM124.799 54.0126C122.162 53.2342 119.215 53.2156 115.987 53.9016L116.403 55.8579C119.384 55.2243 121.984 55.267 124.233 55.9308L124.799 54.0126ZM115.987 53.9016C112.76 54.5876 110.075 55.8033 107.982 57.5872L109.28 59.1093C111.065 57.588 113.423 56.4914 116.403 55.8579L115.987 53.9016ZM108.008 57.5663C105.927 59.225 104.364 61.2393 103.334 63.6031L105.168 64.4018C106.062 62.3491 107.419 60.5939 109.255 59.1301L108.008 57.5663ZM103.334 63.6031C102.314 65.9457 101.773 68.5707 101.694 71.4624L103.693 71.5173C103.767 68.8423 104.264 66.4757 105.168 64.4018L103.334 63.6031ZM101.694 71.4624C101.615 74.3327 101.907 77.3099 102.562 80.3918L104.518 79.976C103.892 77.0326 103.619 74.2138 103.693 71.5173L101.694 71.4624ZM102.562 80.3918L107.568 103.946L109.524 103.53L104.518 79.976L102.562 80.3918ZM107.568 103.946C108.259 107.196 109.173 110.126 110.315 112.729L112.147 111.926C111.068 109.467 110.192 106.67 109.524 103.53L107.568 103.946ZM110.315 112.729C111.473 115.369 112.993 117.568 114.887 119.301L116.237 117.825C114.577 116.306 113.209 114.348 112.147 111.926L110.315 112.729ZM114.887 119.301C116.789 121.041 119.036 122.246 121.612 122.915L122.115 120.979C119.842 120.389 117.889 119.337 116.237 117.825L114.887 119.301ZM121.645 122.923C124.231 123.502 127.229 123.403 130.608 122.685L130.192 120.729C126.998 121.408 124.305 121.469 122.082 120.971L121.645 122.923ZM248.039 93.8392L249.017 93.6313L248.809 92.6532L247.831 92.8611L248.039 93.8392ZM251.707 111.094L251.915 112.072L252.893 111.864L252.685 110.886L251.707 111.094ZM184.332 125.415L183.354 125.623L183.562 126.601L184.54 126.393L184.332 125.415ZM179.77 93.1787L178.79 92.9785L178.788 92.9891L178.786 92.9998L179.77 93.1787ZM184.285 82.7726L183.486 82.1715L183.481 82.178L183.476 82.1846L184.285 82.7726ZM193.138 74.5932L193.691 75.4264L193.699 75.4209L193.707 75.4152L193.138 74.5932ZM205.548 67.6616L205.963 68.5713L205.966 68.5702L205.548 67.6616ZM213.867 63.0308L214.451 63.8423L214.458 63.8371L214.466 63.8318L213.867 63.0308ZM218.725 58.2769L219.544 58.8501L219.554 58.836L219.563 58.8215L218.725 58.2769ZM220.532 53.3126L219.538 53.2006L219.536 53.2183L219.535 53.2361L220.532 53.3126ZM213.907 38.9769L213.391 39.8338L213.398 39.838L213.405 39.8421L213.907 38.9769ZM190.146 45.0293L190.985 45.5739L190.988 45.5678L190.992 45.5617L190.146 45.0293ZM189.536 65.0537L189.744 66.0318L190.722 65.8239L190.514 64.8458L189.536 65.0537ZM171.46 68.8959L170.482 69.1038L170.689 70.082L171.668 69.874L171.46 68.8959ZM169.451 47.9969L168.465 47.8267L168.463 47.8383L169.451 47.9969ZM174.027 35.8602L173.181 35.3281L173.18 35.3285L174.027 35.8602ZM183.44 26.2737L183.999 27.1026L184.007 27.0975L184.014 27.0923L183.44 26.2737ZM212.99 19.8495L212.816 20.8343L212.825 20.8359L212.834 20.8373L212.99 19.8495ZM225.068 24.1523L224.538 24.9997L224.544 25.004L224.551 25.0081L225.068 24.1523ZM233.542 32.37L232.699 32.9082L232.708 32.921L232.716 32.9337L233.542 32.37ZM235.843 66.0885L234.966 65.6073L234.962 65.6161L235.843 66.0885ZM216.241 82.2779L215.817 81.3721L215.815 81.3728L216.241 82.2779ZM206.229 87.6979L206.761 88.5447L206.768 88.5399L206.776 88.535L206.229 87.6979ZM200.52 92.4895L199.738 91.8666L200.52 92.4895ZM198.136 97.4332L197.152 97.253L197.149 97.2687L197.147 97.2844L198.136 97.4332ZM198.741 104.318L197.762 104.526L197.97 105.504L198.948 105.296L198.741 104.318ZM247.061 94.0471L250.729 111.302L252.685 110.886L249.017 93.6313L247.061 94.0471ZM251.499 110.116L184.124 124.437L184.54 126.393L251.915 112.072L251.499 110.116ZM185.31 125.207L181.293 106.309L179.337 106.725L183.354 125.623L185.31 125.207ZM181.293 106.309C180.245 101.378 180.079 97.068 180.754 93.3576L178.786 92.9998C178.053 97.0314 178.25 101.613 179.337 106.725L181.293 106.309ZM180.75 93.379C181.518 89.6209 182.968 86.2859 185.094 83.3606L183.476 82.1846C181.173 85.3535 179.612 88.9559 178.79 92.9785L180.75 93.379ZM185.084 83.3736C187.314 80.4085 190.178 77.7578 193.691 75.4264L192.585 73.76C188.906 76.2015 185.868 79.0037 183.486 82.1715L185.084 83.3736ZM193.707 75.4152C197.227 72.9768 201.31 70.6945 205.963 68.5713L205.133 66.7518C200.392 68.9154 196.202 71.2542 192.568 73.7712L193.707 75.4152ZM205.966 68.5702C209.475 66.9574 212.311 65.383 214.451 63.8423L213.283 62.2192C211.285 63.6572 208.575 65.17 205.13 66.7529L205.966 68.5702ZM214.466 63.8318C216.661 62.1912 218.367 60.5334 219.544 58.8501L217.905 57.7037C216.887 59.1588 215.355 60.6702 213.268 62.2298L214.466 63.8318ZM219.563 58.8215C220.715 57.0483 221.387 55.235 221.529 53.3892L219.535 53.2361C219.424 54.6883 218.891 56.1845 217.886 57.7323L219.563 58.8215ZM221.526 53.4247C221.738 51.5427 221.613 49.5496 221.168 47.4525L219.211 47.8683C219.619 49.788 219.723 51.5631 219.538 53.2006L221.526 53.4247ZM221.168 47.4525C220.294 43.3432 218.028 40.209 214.408 38.1116L213.405 39.8421C216.533 41.6541 218.455 44.3089 219.211 47.8683L221.168 47.4525ZM214.422 38.1199C210.862 35.9783 206.478 35.526 201.381 36.6094L201.797 38.5657C206.559 37.5534 210.388 38.0272 213.391 39.8338L214.422 38.1199ZM201.381 36.6094C195.961 37.7614 191.892 40.3745 189.299 44.4969L190.992 45.5617C193.249 41.974 196.809 39.6259 201.797 38.5657L201.381 36.6094ZM189.307 44.4846C186.682 48.5266 186.054 53.4811 187.277 59.2362L189.233 58.8204C188.089 53.4376 188.721 49.0595 190.985 45.5739L189.307 44.4846ZM187.277 59.2362L188.558 65.2616L190.514 64.8458L189.233 58.8204L187.277 59.2362ZM189.328 64.0755L171.252 67.9177L171.668 69.874L189.744 66.0318L189.328 64.0755ZM172.438 68.688L170.808 61.0193L168.852 61.4351L170.482 69.1038L172.438 68.688ZM170.808 61.0193C169.882 56.6617 169.76 52.3759 170.438 48.1555L168.463 47.8383C167.745 52.3115 167.876 56.8459 168.852 61.4351L170.808 61.0193ZM170.436 48.1671C171.185 43.8309 172.666 39.9092 174.874 36.3918L173.18 35.3285C170.826 39.0784 169.256 43.2479 168.465 47.8267L170.436 48.1671ZM174.874 36.3922C177.148 32.7738 180.184 29.6769 183.999 27.1026L182.88 25.4448C178.851 28.1637 175.613 31.4578 173.181 35.3281L174.874 36.3922ZM184.014 27.0923C187.791 24.4427 192.306 22.5488 197.581 21.4276L197.165 19.4713C191.668 20.6399 186.894 22.6288 182.866 25.4551L184.014 27.0923ZM197.581 21.4276C203.237 20.2255 208.31 20.0388 212.816 20.8343L213.164 18.8647C208.351 18.0151 203.013 18.2284 197.165 19.4713L197.581 21.4276ZM212.834 20.8373C217.363 21.551 221.257 22.945 224.538 24.9997L225.599 23.3048C222.055 21.085 217.897 19.6105 213.146 18.8617L212.834 20.8373ZM224.551 25.0081C227.927 27.0486 230.639 29.6805 232.699 32.9082L234.385 31.8319C232.155 28.3382 229.217 25.4916 225.586 23.2965L224.551 25.0081ZM232.716 32.9337C234.861 36.0765 236.325 39.4979 237.113 43.2044L239.069 42.7886C238.227 38.8264 236.659 35.1635 234.368 31.8064L232.716 32.9337ZM237.113 43.2044L237.462 44.8477L239.418 44.4319L239.069 42.7886L237.113 43.2044ZM237.462 44.8477C239.128 52.6842 238.273 59.5832 234.966 65.6073L236.72 66.5697C240.291 60.0633 241.168 52.6631 239.418 44.4319L237.462 44.8477ZM234.962 65.6161C231.756 71.5966 225.437 76.872 215.817 81.3721L216.664 83.1837C226.485 78.5898 233.234 73.0722 236.724 66.561L234.962 65.6161ZM215.815 81.3728C211.713 83.3009 208.331 85.1297 205.682 86.8608L206.776 88.535C209.321 86.8719 212.614 85.0874 216.666 83.1829L215.815 81.3728ZM205.697 86.8511C203.115 88.4729 201.112 90.1403 199.738 91.8666L201.302 93.1124C202.489 91.6227 204.292 90.0957 206.761 88.5447L205.697 86.8511ZM199.738 91.8666C198.375 93.578 197.496 95.3742 197.152 97.253L199.12 97.6134C199.394 96.1166 200.104 94.617 201.302 93.1124L199.738 91.8666ZM197.147 97.2844C196.888 99.0038 196.986 100.874 197.413 102.883L199.369 102.467C198.981 100.641 198.909 99.0169 199.125 97.582L197.147 97.2844ZM197.413 102.883L197.762 104.526L199.719 104.11L199.369 102.467L197.413 102.883ZM198.948 105.296L248.247 94.8174L247.831 92.8611L198.533 103.34L198.948 105.296ZM291.765 84.545L291.973 85.5232L292.951 85.3152L292.743 84.3371L291.765 84.545ZM276.978 14.9791L277.956 14.7712L277.748 13.7931L276.77 14.001L276.978 14.9791ZM274.513 15.5031L274.305 14.5249L273.56 14.6834L273.515 15.4442L274.513 15.5031ZM272.461 50.2899L272.669 51.2681L273.414 51.1096L273.459 50.3488L272.461 50.2899ZM255.207 53.9575L254.228 54.1654L254.436 55.1436L255.414 54.9357L255.207 53.9575ZM254.857 52.3142L253.86 52.2454L253.85 52.3851L253.879 52.5221L254.857 52.3142ZM257.803 9.60862L257.595 8.63047L256.857 8.7873L256.805 9.53981L257.803 9.60862ZM293.133 2.09885L294.111 1.89094L293.904 0.912789L292.925 1.1207L293.133 2.09885ZM309.841 80.7028L308.863 80.9107L309.071 81.8889L310.049 81.6809L309.841 80.7028ZM333.669 75.6381L334.647 75.4302L334.439 74.452L333.461 74.6599L333.669 75.6381ZM337.336 92.8926L337.544 93.8707L338.522 93.6628L338.315 92.6847L337.336 92.8926ZM268.318 107.563L267.34 107.771L267.548 108.749L268.526 108.541L268.318 107.563ZM264.651 90.3083L264.443 89.3302L263.465 89.5381L263.673 90.5162L264.651 90.3083ZM292.743 84.3371L277.956 14.7712L276 15.1871L290.787 84.7529L292.743 84.3371ZM276.77 14.001L274.305 14.5249L274.721 16.4812L277.186 15.9573L276.77 14.001ZM273.515 15.4442L271.463 50.231L273.459 50.3488L275.512 15.562L273.515 15.4442ZM272.253 49.3118L254.999 52.9794L255.414 54.9357L272.669 51.2681L272.253 49.3118ZM256.185 53.7496L255.835 52.1063L253.879 52.5221L254.228 54.1654L256.185 53.7496ZM255.855 52.383L258.8 9.67742L256.805 9.53981L253.86 52.2454L255.855 52.383ZM258.011 10.5868L293.341 3.077L292.925 1.1207L257.595 8.63047L258.011 10.5868ZM292.155 2.30676L308.863 80.9107L310.819 80.4949L294.111 1.89094L292.155 2.30676ZM310.049 81.6809L333.877 76.6162L333.461 74.6599L309.633 79.7247L310.049 81.6809ZM332.691 75.846L336.358 93.1005L338.315 92.6847L334.647 75.4302L332.691 75.846ZM337.128 91.9144L268.11 106.585L268.526 108.541L337.544 93.8707L337.128 91.9144ZM269.296 107.355L265.629 90.1004L263.673 90.5162L267.34 107.771L269.296 107.355ZM264.859 91.2865L291.973 85.5232L291.557 83.5669L264.443 89.3302L264.859 91.2865Z" fill="#FF39A6"/>
</svg>
