<svg width="63" height="49" viewBox="0 0 63 49" fill="none" xmlns="http://www.w3.org/2000/svg">
<path d="M15.4099 37.4061L15.4154 40.0239L18.0332 40.0185L18.0277 37.4007L15.4099 37.4061ZM15.3459 6.92614L17.9638 6.92072L17.9583 4.30289L15.3404 4.30831L15.3459 6.92614ZM14.2659 6.92838L14.2604 4.31055L12.2653 4.31468L11.7403 6.23947L14.2659 6.92838ZM10.3362 21.3365L10.3417 23.9544L12.3368 23.9503L12.8618 22.0255L10.3362 21.3365ZM2.77618 21.3522L0.158348 21.3576L0.163842 23.9755L2.78168 23.97L2.77618 21.3522ZM2.77467 20.6322L0.256051 19.9182L0.156067 20.271L0.156836 20.6376L2.77467 20.6322ZM7.77763 2.98181L7.77214 0.363972L5.7975 0.368062L5.25902 2.26784L7.77763 2.98181ZM23.2576 2.94975L25.8754 2.94432L25.8699 0.326492L23.2521 0.331913L23.2576 2.94975ZM23.3299 37.3897L20.7121 37.3951L20.7175 40.0129L23.3354 40.0075L23.3299 37.3897ZM33.7699 37.3681L36.3877 37.3626L36.3822 34.7448L33.7644 34.7502L33.7699 37.3681ZM33.7857 44.928L33.7912 47.5459L36.4091 47.5405L36.4036 44.9226L33.7857 44.928ZM3.5458 44.9907L0.927964 44.9961L0.933459 47.6139L3.55129 47.6085L3.5458 44.9907ZM3.52993 37.4307L3.52444 34.8128L0.906602 34.8183L0.912097 37.4361L3.52993 37.4307ZM18.0277 37.4007L17.9638 6.92072L12.7281 6.93156L12.7921 37.4115L18.0277 37.4007ZM15.3404 4.30831L14.2604 4.31055L14.2714 9.54621L15.3514 9.54398L15.3404 4.30831ZM11.7403 6.23947L7.81058 20.6476L12.8618 22.0255L16.7915 7.61729L11.7403 6.23947ZM10.3307 18.7187L2.77069 18.7344L2.78168 23.97L10.3417 23.9544L10.3307 18.7187ZM5.39401 21.3468L5.3925 20.6268L0.156836 20.6376L0.158348 21.3576L5.39401 21.3468ZM5.29329 21.3462L10.2963 3.69577L5.25902 2.26784L0.256051 19.9182L5.29329 21.3462ZM7.78313 5.59964L23.2631 5.56758L23.2521 0.331913L7.77214 0.363972L7.78313 5.59964ZM20.6398 2.95517L20.7121 37.3951L25.9477 37.3843L25.8754 2.94432L20.6398 2.95517ZM23.3354 40.0075L33.7754 39.9859L33.7644 34.7502L23.3244 34.7718L23.3354 40.0075ZM31.152 37.3735L31.1679 44.9335L36.4036 44.9226L36.3877 37.3626L31.152 37.3735ZM33.7802 42.3102L3.5403 42.3728L3.55129 47.6085L33.7912 47.5459L33.7802 42.3102ZM6.16363 44.9852L6.14776 37.4253L0.912097 37.4361L0.927964 44.9961L6.16363 44.9852ZM3.53542 40.0485L15.4154 40.0239L15.4044 34.7882L3.52444 34.8128L3.53542 40.0485ZM59.8985 42.294L57.5041 41.2357L57.4895 41.2688L57.4758 41.3022L59.8985 42.294ZM58.7023 44.0964L60.482 46.0163L60.5204 45.9808L60.5573 45.9437L58.7023 44.0964ZM56.8447 45.2403L55.8908 42.8024L55.8067 42.8353L55.7251 42.8739L56.8447 45.2403ZM52.4647 45.2494L53.5744 42.8784L53.516 42.8511L53.4564 42.8266L52.4647 45.2494ZM50.6623 44.1131L48.8151 45.968L48.8522 46.0049L48.8908 46.0404L50.6623 44.1131ZM49.3986 42.3157L46.9607 43.2696L46.9936 43.3537L47.0322 43.4353L49.3986 42.3157ZM49.3891 37.8157L46.9947 36.7575L46.9801 36.7905L46.9664 36.824L49.3891 37.8157ZM50.6453 36.0131L52.425 37.933L52.4634 37.8974L52.5003 37.8604L50.6453 36.0131ZM52.4428 34.8094L53.4446 37.228L53.5042 37.2033L53.5625 37.1757L52.4428 34.8094ZM56.8228 34.8003L55.7131 37.1713L55.7949 37.2096L55.8791 37.2421L56.8228 34.8003ZM58.6853 35.9965L56.8381 37.8514L56.8752 37.8883L56.9137 37.9237L58.6853 35.9965ZM59.8891 37.794L57.4513 38.7478L57.4842 38.8319L57.5228 38.9135L59.8891 37.794ZM57.7559 40.0184C57.7568 40.4579 57.6722 40.8553 57.5041 41.2357L62.293 43.3522C62.7618 42.2913 62.994 41.168 62.9916 40.0075L57.7559 40.0184ZM57.4758 41.3022C57.3281 41.6629 57.1224 41.973 56.8473 42.2492L60.5573 45.9437C61.3201 45.1777 61.9118 44.2861 62.3213 43.2857L57.4758 41.3022ZM56.9227 42.1765C56.6652 42.4152 56.333 42.6294 55.8908 42.8024L57.7987 47.6782C58.7952 47.2882 59.7015 46.7399 60.482 46.0163L56.9227 42.1765ZM55.7251 42.8739C55.3981 43.0286 55.0594 43.1061 54.6802 43.1069L54.6912 48.3426C55.8321 48.3402 56.9327 48.0948 57.9644 47.6066L55.7251 42.8739ZM54.6802 43.1069C54.2402 43.1078 53.8838 43.0232 53.5744 42.8784L51.355 47.6203C52.407 48.1127 53.5312 48.345 54.6912 48.3426L54.6802 43.1069ZM53.4564 42.8266C53.0517 42.661 52.7175 42.4465 52.4339 42.1858L48.8908 46.0404C49.6492 46.7375 50.5166 47.2806 51.4731 47.6721L53.4564 42.8266ZM52.5095 42.2582C52.2074 41.9573 51.9599 41.6083 51.7649 41.1961L47.0322 43.4353C47.4801 44.3818 48.0751 45.2311 48.8151 45.968L52.5095 42.2582ZM51.8364 41.3618C51.6774 40.9554 51.5926 40.5183 51.5916 40.0312L46.3559 40.042C46.3583 41.1548 46.5567 42.2372 46.9607 43.2696L51.8364 41.3618ZM51.5916 40.0312C51.5906 39.5428 51.6738 39.1447 51.8119 38.8074L46.9664 36.824C46.5473 37.8478 46.3536 38.9303 46.3559 40.042L51.5916 40.0312ZM51.7836 38.874C51.9743 38.4423 52.1956 38.1456 52.425 37.933L48.8657 34.0932C48.0571 34.8427 47.4409 35.7478 46.9947 36.7575L51.7836 38.874ZM52.5003 37.8604C52.7753 37.5842 53.0845 37.3771 53.4446 37.228L51.441 32.3908C50.4423 32.8045 49.5532 33.3999 48.7904 34.1658L52.5003 37.8604ZM53.5625 37.1757C53.8712 37.0296 54.2273 36.9435 54.6673 36.9426L54.6563 31.7069C53.4963 31.7093 52.3731 31.9463 51.3232 32.443L53.5625 37.1757ZM54.6673 36.9426C55.0464 36.9418 55.3855 37.0179 55.7131 37.1713L57.9325 32.4293C56.8988 31.9455 55.7972 31.7046 54.6563 31.7069L54.6673 36.9426ZM55.8791 37.2421C56.2785 37.3965 56.5872 37.6015 56.8381 37.8514L60.5325 34.1415C59.7413 33.3536 58.8083 32.7611 57.7665 32.3585L55.8791 37.2421ZM56.9137 37.9237C57.1154 38.1091 57.3014 38.3648 57.4513 38.7478L62.3269 36.8401C61.9138 35.7843 61.2973 34.8417 60.4569 34.0692L56.9137 37.9237ZM57.5228 38.9135C57.6689 39.2223 57.755 39.5784 57.7559 40.0184L62.9916 40.0075C62.9892 38.8475 62.7522 37.7243 62.2554 36.6744L57.5228 38.9135Z" fill="#30EFD3"/>
</svg>
