<svg fill="none" height="50" viewBox="0 0 63 50" width="63" xmlns="http://www.w3.org/2000/svg"><path d="m32.7409 38.3697 2.6179-.0054-.0055-2.6179-2.6178.0055zm.0158 7.56.0055 2.6178 2.6178-.0054-.0055-2.6179zm-29.51993.0615-2.617836.0055.005458 2.6178 2.617828-.0054zm.93097-13.9219-2.40194-1.0411-.01132.0261-.01075.0264zm2.81174-3.9659-1.72346-1.9705-.01603.0141-.0158.0142zm4.43452-2.6492.9675 2.4324.0243-.0096.024-.0102zm5.8162-1.8122.5732 2.5543.0068-.0015zm3.8975-1.2081 1.0593 2.3939.0214-.0094.0213-.0099zm2.4567-1.5651 1.7902 1.91.0329-.0308.0319-.032zm1.196-1.9225-2.4852-.8227-.0147.0444-.0131.0448zm-1.5137-6.5969-1.7822 1.9175.0156.0146.0159.0143zm-10.4991.4419 1.8549 1.8472.0134-.0134.0132-.0136zm-2.0226 8.3442.0054 2.6179 2.6179-.0055-.0055-2.6178zm-7.92002.0165-2.617835.0055.005458 2.6178 2.617837-.0054zm1.00136-8.9421-2.43263-.9671-.00571.0143-.00554.0145zm2.99023-4.6862-1.8823-1.81935-.00084.00087zm4.79333-3.19.9862 2.42497.022-.00895.0219-.00935zm12.9599-.08703-.9761 2.42907.0224.00899.0225.00858zm4.686 2.87024-1.8166 1.88498.0149.0144.0152.01416zm2.8287 4.19409-2.4492.9243.0141.0374.0153.037zm-2.0101 14.3442-1.9863-1.7051-.0085.0099-.0084.01zm-9.6494 5.0602-.5973-2.5488-.0046.0011zm-4.6772 1.3897.9064 2.456.0219-.0081.0219-.0085zm-2.8168 1.5059-1.6684-2.0173zm-1.4361 1.863-2.42277-.9917-.01579.0386-.01455.039zm-.3539 2.9408-2.61785.0054.00546 2.6178 2.61779-.0054zm18.9821-.0396.0158 7.56 5.2356-.011-.0157-7.5599zm2.6281 4.9367-29.51989.0615.01091 5.2357 29.51998-.0616zm-26.8966 2.6739-.01726-8.28-5.235669.0109.017263 8.28zm-.01726-8.28c-.00409-1.958.27905-3.4824.75441-4.648l-4.84802-1.9771c-.798132 1.9571-1.147151 4.1941-1.142059 6.636zm.73234-4.5955c.53625-1.2372 1.25971-2.2465 2.16509-3.0647l-3.51058-3.8844c-1.49011 1.3468-2.64114 2.9815-3.45839 4.867zm2.13326-3.0364c.98777-.864 2.20226-1.6 3.67856-2.1873l-1.9351-4.8649c-1.9608.7799-3.70266 1.81-5.19038 3.1112zm3.72686-2.2071c1.552-.6534 3.339-1.2139 5.3736-1.6705l-1.1464-5.1086c-2.2833.5124-4.3738 1.16-6.2589 1.9538zm5.3804-1.672c1.6907-.3841 3.1674-.8318 4.3768-1.367l-2.1186-4.7879c-.7888.3491-1.9104.7068-3.4182 1.0493zm4.4195-1.3863c1.1996-.5567 2.2801-1.2191 3.1449-2.0297l-3.5803-3.8201c-.3329.312-.8902.693-1.7686 1.1006zm3.2097-2.0925c.8471-.8506 1.5107-1.8599 1.854-3.0363l-5.026-1.4669c-.0538.1844-.1875.4569-.5379.8087zm1.8262-2.9471c.3398-1.0263.49-2.1114.4877-3.2288l-5.2357.0109c.0013.6426-.0851 1.158-.2224 1.5726zm.4877-3.2288c-.0051-2.4159-.9397-4.5214-2.736-6.137l-3.5013 3.8927c.6884.6191.9996 1.3111 1.0016 2.2552zm-2.7044-6.1082c-1.8255-1.69669-4.2233-2.37525-6.8312-2.36981l.0109 5.23571c1.7121-.0036 2.6767.4308 3.2559.9691zm-6.8312-2.36981c-2.8584.00596-5.3997.91198-7.3317 2.90901l3.7631 3.6404c.7822-.8086 1.878-1.3102 3.5795-1.3137zm-7.3051 2.88201c-1.96993 1.9782-2.7971 4.6186-2.79098 7.5569l5.23568-.0109c-.0041-1.9418.5208-3.1041 1.2652-3.8516zm-2.79098 7.5569.00551 2.64 5.23567-.0109-.0055-2.64zm2.61788.0167-7.91998.0165.01092 5.2357 7.91996-.0165zm-5.29669 2.6289-.007-3.36-5.23567.0109.007005 3.36zm-.007-3.36c-.00344-1.6501.2782-3.1897.8344-4.6383l-4.88775-1.8767c-.796455 2.0742-1.187053 4.256-1.18232 6.5259zm.82315-4.6095c.59723-1.5021 1.41309-2.7707 2.44076-3.83493l-3.76629-3.63695c-1.52683 1.58112-2.70445 3.43669-3.53972 5.53758zm2.43992-3.83406c1.04649-1.08271 2.33252-1.948 3.89722-2.58437l-1.9724-4.84995c-2.19201.89147-4.1016 2.15284-5.68943 3.79563zm3.94112-2.60267c1.5081-.64549 3.271-.9978 5.3329-1.0021l-.0109-5.235667c-2.6581.005542-5.1336.462069-7.3821 1.424417zm5.3329-1.0021c2.2626-.00472 4.1169.33316 5.6208.93747l1.9522-4.85813c-2.2593-.907848-4.8066-1.320797-7.5839-1.315007zm5.6657.95504c1.6059.61117 2.8511 1.39355 3.8006 2.30858l3.6332-3.76995c-1.5356-1.4798-3.4143-2.61092-5.5715-3.4319zm3.8307 2.33714c.9967.93047 1.7085 1.99265 2.166 3.20485l4.8985-1.8486c-.7493-1.98527-1.9232-3.71914-3.4916-5.18333zm2.1954 3.27925c.5137 1.2448.7693 2.5269.7721 3.8648l5.2357-.0109c-.0042-2.0221-.3953-3.9787-1.1681-5.8512zm.7721 3.8648.0015.72 5.2357-.0109-.0015-.72zm.0015.72c.0063 2.9918-.8241 5.2778-2.3502 7.0556l3.9727 3.4103c2.4642-2.8706 3.6216-6.4287 3.6132-10.4768zm-2.3671 7.0755c-1.4478 1.721-4.0477 3.2133-8.2435 4.1966l1.1945 5.0976c4.7599-1.1155 8.5929-2.9965 11.0555-5.9237zm-8.2481 4.1977c-1.9497.4606-3.6349.9565-5.0254 1.4981l1.9003 4.8787c1.0874-.4236 2.5203-.8542 4.3288-1.2814zm-4.9816 1.4815c-1.3624.5028-2.595 1.1308-3.5789 1.9445l3.3368 4.0346c.3737-.3091 1.019-.685 2.0548-1.0672zm-3.5789 1.9445c-.9455.7819-1.7193 1.7375-2.19047 2.8886l4.84547 1.9834c.086-.2101.2696-.4965.6818-.8374zm-2.22081 2.9662c-.37016.9934-.5224 2.0558-.52014 3.1403l5.23565-.0109c-.0012-.5955.0835-1.0136.1906-1.3012zm-.52014 3.1403.0015.72 5.23565-.0109-.0015-.72zm2.62475 3.3324 21.6-.0451-.0109-5.2356-21.6.045zm48.5031 2.261-2.3944-1.0582-.0146.0331-.0137.0334zm-1.1962 1.8025 1.7796 1.9199.0384-.0356.037-.037zm-1.8576 1.1439-.9539-2.4379-.0841.0329-.0816.0387zm-4.38.0091 1.1097-2.371-.0584-.0273-.0596-.0244zm-1.8024-1.1362-1.8472 1.8549.0371.037.0385.0354zm-1.2637-1.7974-2.4379.9539.0329.0841.0386.0816zm-.0094-4.5-2.3944-1.0582-.0146.0331-.0137.0334zm1.2562-1.8026 1.7797 1.9199.0384-.0356.0369-.0371zm1.7975-1.2037 1.0018 2.4185.0596-.0246.0582-.0276zm4.38-.0092-1.1097 2.371.0818.0383.0842.0325zm1.8625 1.1961-1.8472 1.855.0371.0369.0385.0354zm1.2038 1.7975-2.4379.9539.0329.0841.0386.0816zm-2.1332 2.2245c.0009.4395-.0838.8369-.2519 1.2173l4.7889 2.1164c.4689-1.0609.701-2.1841.6986-3.3446zm-.2802 1.2838c-.1476.3608-.3534.6708-.6284.947l3.7099 3.6945c.7628-.766 1.3545-1.6576 1.764-2.6581zm-.5531.8743c-.2575.2387-.5897.4529-1.0319.6259l1.9078 4.8758c.9966-.39 1.9028-.9384 2.6833-1.6619zm-1.1976.6975c-.327.1546-.6657.2322-1.0449.233l.0109 5.2356c1.1409-.0023 2.2415-.2478 3.2732-.736zm-1.0449.233c-.44.0009-.7964-.0838-1.1058-.2286l-2.2194 4.742c1.0519.4924 2.1762.7247 3.3361.7222zm-1.2238-.2803c-.4047-.1657-.7389-.3802-1.0225-.6408l-3.5432 3.8546c.7585.6972 1.6258 1.2402 2.5823 1.6317zm-.9468-.5685c-.3022-.3009-.5497-.6498-.7447-1.062l-4.7327 2.2392c.4478.9465 1.0429 1.7958 1.7829 2.5327zm-.6732-.8963c-.159-.4064-.2437-.8435-.2447-1.3307l-5.2357.011c.0023 1.1128.2007 2.1951.6047 3.2275zm-.2447-1.3307c-.0011-.4883.0822-.8864.2202-1.2237l-4.8454-1.9834c-.4191 1.0239-.6128 2.1064-.6105 3.2181zm.1919-1.1572c.1908-.4316.4121-.7283.6415-.9409l-3.5593-3.8398c-.8086.7496-1.4248 1.6546-1.871 2.6643zm.7168-1.0136c.275-.2762.5842-.4832.9443-.6324l-2.0036-4.8371c-.9987.4137-1.8878 1.0091-2.6506 1.7751zm1.0621-.6846c.3088-.1461.6649-.2322 1.1049-.2331l-.0109-5.2357c-1.16.0024-2.2833.2394-3.3332.7361zm1.1049-.2331c.3791-.0008.7182.0753 1.0458.2286l2.2194-4.742c-1.0337-.4838-2.1353-.7247-3.2761-.7223zm1.2118.2994c.3994.1544.708.3594.959.6093l3.6944-3.7099c-.7912-.7879-1.7242-1.3804-2.7659-1.783zm1.0346.6816c.2016.1854.3876.4411.5375.8241l4.8757-1.9078c-.4131-1.0558-1.0296-1.9984-1.87-2.7709zm.609.9898c.1461.3088.2322.6649.2332 1.1049l5.2356-.0109c-.0024-1.16-.2393-2.2833-.7361-3.3332z" fill="#30efd3"/></svg>