<svg width="63" height="49" viewBox="0 0 63 49" fill="none" xmlns="http://www.w3.org/2000/svg">
<path d="M13.5792 27.4208L10.9614 27.4263L10.9668 30.0441L13.5847 30.0386L13.5792 27.4208ZM13.5532 14.9408L12.8518 12.4187L10.9312 12.9528L10.9354 14.9463L13.5532 14.9408ZM23.9872 12.0391L24.6886 14.5612L26.6092 14.0271L26.605 12.0336L23.9872 12.0391ZM23.9849 10.9591L26.6028 10.9536L26.5973 8.33579L23.9795 8.34125L23.9849 10.9591ZM3.10496 11.0026L0.487129 11.0081L0.492587 13.6259L3.11042 13.6205L3.10496 11.0026ZM3.0892 3.44263L3.08374 0.824797L0.465909 0.830255L0.471367 3.44809L3.0892 3.44263ZM30.4491 3.38559L33.067 3.38013L33.0615 0.762296L30.4437 0.767754L30.4491 3.38559ZM30.4767 16.5856L31.2118 19.0981L33.0986 18.546L33.0945 16.5801L30.4767 16.5856ZM19.3234 19.8488L18.5883 17.3363L16.7015 17.8884L16.7056 19.8543L19.3234 19.8488ZM19.3257 20.9288L16.7079 20.9343L16.7133 23.5521L19.3312 23.5467L19.3257 20.9288ZM25.1472 21.6367L24.3245 24.1219L24.3559 24.1323L24.3874 24.1418L25.1472 21.6367ZM28.9316 23.7288L27.1964 25.689L27.2141 25.7046L27.232 25.72L28.9316 23.7288ZM31.6391 27.3232L29.2742 28.4459L29.2804 28.4589L29.2867 28.4718L31.6391 27.3232ZM31.7218 38.243L29.2892 37.2758L29.2787 37.3023L29.2688 37.3289L31.7218 38.243ZM28.9706 42.4488L30.794 44.3272L30.795 44.3261L28.9706 42.4488ZM24.4763 45.2181L25.4066 47.6651L25.4066 47.6651L24.4763 45.2181ZM11.8761 45.1244L12.8345 42.6883L11.8761 45.1244ZM6.94963 42.0147L5.1024 43.8696L5.11624 43.8834L5.13029 43.897L6.94963 42.0147ZM3.88013 37.4611L1.46744 38.4769L3.88013 37.4611ZM2.78349 29.4833L2.77803 26.8655L0.160201 26.871L0.165659 29.4888L2.78349 29.4833ZM10.7035 29.4668L13.3213 29.4614L13.3159 26.8435L10.698 26.849L10.7035 29.4668ZM12.5784 36.6029L14.5344 34.8631L12.5784 36.6029ZM23.0193 37.0612L21.2315 35.1489L21.2148 35.1646L21.1983 35.1805L23.0193 37.0612ZM22.8819 28.7214L21.3383 30.8357L21.3777 30.8645L21.4183 30.8918L22.8819 28.7214ZM16.197 27.4154L16.171 14.9354L10.9354 14.9463L10.9614 27.4263L16.197 27.4154ZM14.2546 17.463L24.6886 14.5612L23.2858 9.51696L12.8518 12.4187L14.2546 17.463ZM26.605 12.0336L26.6028 10.9536L21.3671 10.9645L21.3693 12.0445L26.605 12.0336ZM23.9795 8.34125L3.0995 8.38478L3.11042 13.6205L23.9904 13.5769L23.9795 8.34125ZM5.7228 10.9972L5.70703 3.43717L0.471367 3.44809L0.487129 11.0081L5.7228 10.9972ZM3.09466 6.06046L30.4546 6.00342L30.4437 0.767754L3.08374 0.824797L3.09466 6.06046ZM27.8313 3.39105L27.8588 16.591L33.0945 16.5801L33.067 3.38013L27.8313 3.39105ZM29.7415 14.0731L18.5883 17.3363L20.0586 22.3613L31.2118 19.0981L29.7415 14.0731ZM16.7056 19.8543L16.7079 20.9343L21.9435 20.9234L21.9413 19.8434L16.7056 19.8543ZM19.3312 23.5467L20.7711 23.5436L20.7602 18.308L19.3202 18.311L19.3312 23.5467ZM20.7711 23.5436C21.9626 23.5412 23.1437 23.731 24.3245 24.1219L25.9698 19.1515C24.2687 18.5883 22.5288 18.3043 20.7602 18.308L20.7711 23.5436ZM24.3874 24.1418C25.4833 24.4742 26.4085 24.9915 27.1964 25.689L30.6667 21.7686C29.2906 20.5506 27.6929 19.6732 25.9069 19.1315L24.3874 24.1418ZM27.232 25.72C28.0518 26.4197 28.7366 27.3136 29.2742 28.4459L34.0039 26.2004C33.1755 24.4556 32.0553 22.9533 30.6311 21.7376L27.232 25.72ZM29.2867 28.4718C29.7599 29.441 30.0482 30.6921 30.0516 32.3065L35.2873 32.2956C35.2826 30.07 34.884 28.0025 33.9914 26.1745L29.2867 28.4718ZM30.0516 32.3065L30.0531 33.0265L35.2888 33.0156L35.2873 32.2956L30.0516 32.3065ZM30.0531 33.0265C30.0564 34.6039 29.7921 36.0111 29.2892 37.2758L34.1544 39.2102C34.9249 37.2723 35.2933 35.1982 35.2888 33.0156L30.0531 33.0265ZM29.2688 37.3289C28.809 38.5628 28.1081 39.6366 27.1462 40.5714L30.795 44.3261C32.308 42.8558 33.4413 41.1258 34.1749 39.1571L29.2688 37.3289ZM27.1472 40.5704C26.2417 41.4494 25.0619 42.1949 23.5461 42.7712L25.4066 47.6651C27.4879 46.8739 29.3043 45.7731 30.794 44.3272L27.1472 40.5704ZM23.5461 42.7712C22.0968 43.3221 20.3602 43.6289 18.293 43.6332L18.3039 48.8689C20.8768 48.8635 23.2588 48.4816 25.4066 47.6651L23.5461 42.7712ZM18.293 43.6332C16.2162 43.6375 14.4085 43.3076 12.8345 42.6883L10.9177 47.5605C13.1869 48.4532 15.6608 48.8744 18.3039 48.8689L18.293 43.6332ZM12.8345 42.6883C11.2047 42.0471 9.86259 41.1894 8.76897 40.1324L5.13029 43.897C6.76217 45.4743 8.7044 46.6897 10.9177 47.5605L12.8345 42.6883ZM8.79686 40.1597C7.71508 39.0824 6.88412 37.8495 6.29282 36.4452L1.46744 38.4769C2.32331 40.5096 3.53868 42.3124 5.1024 43.8696L8.79686 40.1597ZM6.29282 36.4452C5.70795 35.0561 5.40988 33.5813 5.40658 31.9979L0.170913 32.0088C0.175618 34.2653 0.605136 36.429 1.46744 38.4769L6.29282 36.4452ZM5.40658 31.9979L5.40133 29.4779L0.165659 29.4888L0.170913 32.0088L5.40658 31.9979ZM2.78895 32.1012L10.7089 32.0846L10.698 26.849L2.77803 26.8655L2.78895 32.1012ZM8.08564 29.4723L8.09015 31.6323L13.3258 31.6214L13.3213 29.4614L8.08564 29.4723ZM8.09015 31.6323C8.09544 34.1731 8.94206 36.4536 10.6223 38.3427L14.5344 34.8631C13.7288 33.9574 13.3285 32.9205 13.3258 31.6214L8.09015 31.6323ZM10.6223 38.3427C12.5122 40.4676 15.1967 41.3153 18.1682 41.3091L18.1573 36.0735C16.1687 36.0776 15.1303 35.5331 14.5344 34.8631L10.6223 38.3427ZM18.1682 41.3091C20.7155 41.3038 23.0814 40.6451 24.8404 38.9418L21.1983 35.1805C20.7218 35.6419 19.85 36.0699 18.1573 36.0735L18.1682 41.3091ZM24.8072 38.9734C26.5575 37.337 27.3733 35.1898 27.3683 32.7921L22.1326 32.803C22.135 33.9252 21.7967 34.6205 21.2315 35.1489L24.8072 38.9734ZM27.3683 32.7921C27.3631 30.2938 26.4926 27.9989 24.3456 26.551L21.4183 30.8918C21.7548 31.1188 22.13 31.5413 22.1326 32.803L27.3683 32.7921ZM24.4256 26.6072C22.6678 25.3237 20.5426 24.7885 18.2537 24.7932L18.2647 30.0289C19.7358 30.0258 20.6925 30.3642 21.3383 30.8357L24.4256 26.6072ZM18.2537 24.7932L13.5738 24.803L13.5847 30.0386L18.2647 30.0289L18.2537 24.7932ZM59.6495 42.7448L57.2551 41.6866L57.2405 41.7196L57.2268 41.7531L59.6495 42.7448ZM58.4533 44.5473L60.2329 46.4672L60.2713 46.4316L60.3083 46.3945L58.4533 44.5473ZM56.5957 45.6912L55.6418 43.2533L55.5577 43.2862L55.4761 43.3248L56.5957 45.6912ZM52.2157 45.7003L53.3254 43.3293L53.267 43.302L53.2074 43.2776L52.2157 45.7003ZM50.4133 44.5641L48.5661 46.419L48.6032 46.4559L48.6417 46.4914L50.4133 44.5641ZM49.1496 42.7667L46.7117 43.7206L46.7446 43.8047L46.7832 43.8863L49.1496 42.7667ZM49.1402 38.2667L46.7458 37.2085L46.7312 37.2415L46.7175 37.275L49.1402 38.2667ZM50.3964 36.4641L52.1761 38.384L52.2145 38.3484L52.2514 38.3113L50.3964 36.4641ZM52.1939 35.2603L53.1957 37.6789L53.2553 37.6542L53.3135 37.6267L52.1939 35.2603ZM56.5739 35.2512L55.4642 37.6222L55.546 37.6605L55.6302 37.693L56.5739 35.2512ZM58.4364 36.4473L56.5892 38.3023L56.6263 38.3392L56.6648 38.3746L58.4364 36.4473ZM59.6402 38.2448L57.2023 39.1987L57.2352 39.2828L57.2738 39.3644L59.6402 38.2448ZM57.507 40.4693C57.5079 40.9088 57.4232 41.3062 57.2551 41.6866L62.044 43.803C62.5129 42.7421 62.745 41.6188 62.7426 40.4583L57.507 40.4693ZM57.2268 41.7531C57.0792 42.1138 56.8734 42.4239 56.5984 42.7001L60.3083 46.3945C61.0711 45.6285 61.6628 44.7369 62.0723 43.7365L57.2268 41.7531ZM56.6737 42.6274C56.4162 42.866 56.084 43.0803 55.6418 43.2533L57.5496 48.129C58.5462 47.7391 59.4524 47.1907 60.2329 46.4672L56.6737 42.6274ZM55.4761 43.3248C55.1491 43.4795 54.8104 43.557 54.4312 43.5578L54.4421 48.7935C55.583 48.7911 56.6836 48.5457 57.7153 48.0575L55.4761 43.3248ZM54.4312 43.5578C53.9912 43.5588 53.6348 43.4741 53.3254 43.3293L51.106 48.0713C52.1579 48.5637 53.2822 48.7959 54.4421 48.7935L54.4312 43.5578ZM53.2074 43.2776C52.8027 43.1119 52.4685 42.8974 52.1849 42.6368L48.6417 46.4914C49.4002 47.1885 50.2675 47.7315 51.224 48.123L53.2074 43.2776ZM52.2606 42.7091C51.9584 42.4082 51.7109 42.0593 51.5159 41.6471L46.7832 43.8863C47.231 44.8328 47.8261 45.6821 48.5661 46.419L52.2606 42.7091ZM51.5874 41.8128C51.4284 41.4064 51.3437 40.9693 51.3427 40.4821L46.107 40.493C46.1093 41.6059 46.3077 42.6882 46.7117 43.7206L51.5874 41.8128ZM51.3427 40.4821C51.3416 39.9938 51.4249 39.5957 51.5629 39.2584L46.7175 37.275C46.2984 38.2989 46.1047 39.3813 46.107 40.493L51.3427 40.4821ZM51.5346 39.3249C51.7254 38.8933 51.9467 38.5966 52.1761 38.384L48.6168 34.5442C47.8082 35.2937 47.192 36.1988 46.7458 37.2085L51.5346 39.3249ZM52.2514 38.3113C52.5264 38.0351 52.8356 37.8281 53.1957 37.6789L51.1921 32.8417C50.1934 33.2554 49.3043 33.8509 48.5415 34.6168L52.2514 38.3113ZM53.3135 37.6267C53.6223 37.4806 53.9784 37.3944 54.4184 37.3935L54.4075 32.1579C53.2475 32.1603 52.1242 32.3972 51.0743 32.894L53.3135 37.6267ZM54.4184 37.3935C54.7975 37.3927 55.1366 37.4689 55.4642 37.6222L57.6836 32.8802C56.6499 32.3964 55.5483 32.1555 54.4075 32.1579L54.4184 37.3935ZM55.6302 37.693C56.0296 37.8474 56.3382 38.0524 56.5892 38.3023L60.2836 34.5924C59.4924 33.8044 58.5594 33.212 57.5177 32.8094L55.6302 37.693ZM56.6648 38.3746C56.8664 38.5599 57.0524 38.8157 57.2023 39.1987L62.078 37.2909C61.6649 36.2351 61.0484 35.2925 60.208 34.52L56.6648 38.3746ZM57.2738 39.3644C57.4199 39.6732 57.506 40.0293 57.507 40.4693L62.7426 40.4583C62.7402 39.2983 62.5033 38.1751 62.0065 37.1252L57.2738 39.3644Z" fill="#30EFD3"/>
</svg>
