<svg fill="none" height="49" viewBox="0 0 63 49" width="63" xmlns="http://www.w3.org/2000/svg"><path d="m13.5792 27.4208-2.6178.0055.0054 2.6178 2.6179-.0055zm-.026-12.48-.7014-2.5221-1.9206.5341.0042 1.9935zm10.434-2.9017.7014 2.5221 1.9206-.5341-.0042-1.9935zm-.0023-1.08 2.6179-.0055-.0055-2.61781-2.6178.00546zm-20.87994.0435-2.617831.0055.005458 2.6178 2.617833-.0054zm-.01576-7.55997-.00546-2.617833-2.617831.005458.005458 2.617835zm27.3599-.05704 2.6179-.00546-.0055-2.617834-2.6178.005458zm.0276 13.20001.7351 2.5125 1.8868-.5521-.0041-1.9659zm-11.1533 3.2632-.7351-2.5125-1.8868.5521.0041 1.9659zm.0023 1.08-2.6178.0055.0054 2.6178 2.6179-.0054zm5.8215.7079-.8227 2.4852.0314.0104.0315.0095zm3.7844 2.0921-1.7352 1.9602.0177.0156.0179.0154zm2.7075 3.5944-2.3649 1.1227.0062.013.0063.0129zm.0827 10.9198-2.4326-.9672-.0105.0265-.0099.0266zm-2.7512 4.2058 1.8234 1.8784.001-.0011zm-4.4943 2.7693.9303 2.447zm-12.6002-.0937.9584-2.4361zm-4.92647-3.1097-1.84723 1.8549.01384.0138.01405.0136zm-3.0695-4.5536-2.41269 1.0158zm-1.09664-7.9778-.00546-2.6178-2.617829.0055.005458 2.6178zm7.92001-.0165 2.6178-.0054-.0054-2.6179-2.6179.0055zm1.8749 7.1361 1.956-1.7398zm10.4409.4583-1.7878-1.9123-.0167.0157-.0165.0159zm-.1374-8.3398-1.5436 2.1143.0394.0288.0406.0273zm-6.6849-1.306-.026-12.48-5.2356.0109.026 12.48zm-1.9424-9.9524 10.434-2.9018-1.4028-5.04424-10.434 2.90174zm12.3504-5.4294-.0022-1.08-5.2357.0109.0022 1.08zm-2.6255-3.69235-20.88.04353.01092 5.23572 20.87998-.0436zm-18.2567 2.65595-.01577-7.56003-5.235663.01092.015762 7.56001zm-2.62814-4.93674 27.35994-.05704-.0109-5.235666-27.35996.057043zm24.73664-2.66941.0275 13.19995 5.2357-.0109-.0275-13.19997zm1.9102 10.68205-11.1532 3.2632 1.4703 5.025 11.1532-3.2632zm-13.0359 5.7812.0023 1.08 5.2356-.0109-.0022-1.08zm2.6256 3.6924 1.4399-.0031-.0109-5.2356-1.44.003zm1.4399-.0031c1.1915-.0024 2.3726.1874 3.5534.5783l1.6453-4.9704c-1.7011-.5632-3.441-.8472-5.2096-.8435zm3.6163.5982c1.0959.3324 2.0211.8497 2.809 1.5472l3.4703-3.9204c-1.3761-1.218-2.9738-2.0954-4.7598-2.6371zm2.8446 1.5782c.8198.6997 1.5046 1.5936 2.0422 2.7259l4.7297-2.2455c-.8284-1.7448-1.9486-3.2471-3.3728-4.4628zm2.0547 2.7518c.4732.9692.7615 2.2203.7649 3.8347l5.2357-.0109c-.0047-2.2256-.4033-4.2931-1.2959-6.1211zm.7649 3.8347.0015.72 5.2357-.0109-.0015-.72zm.0015.72c.0033 1.5774-.261 2.9846-.7639 4.2493l4.8652 1.9344c.7705-1.9379 1.1389-4.012 1.1344-6.1946zm-.7843 4.3024c-.4598 1.2339-1.1607 2.3077-2.1226 3.2425l3.6488 3.7547c1.513-1.4703 2.6463-3.2003 3.3799-5.169zm-2.1216 3.2415c-.9055.879-2.0853 1.6245-3.6011 2.2008l1.8605 4.8939c2.0813-.7912 3.8977-1.892 5.3874-3.3379zm-3.6011 2.2008c-1.4493.5509-3.1859.8577-5.2531.862l.0109 5.2357c2.5729-.0054 4.9549-.3873 7.1027-1.2038zm-5.2531.862c-2.0768.0043-3.8845-.3256-5.4585-.9449l-1.9168 4.8722c2.2692.8927 4.7431 1.3139 7.3862 1.3084zm-5.4585-.9449c-1.6298-.6412-2.97191-1.4989-4.06553-2.5559l-3.63868 3.7646c1.63188 1.5773 3.57411 2.7927 5.78741 3.6635zm-4.03764-2.5286c-1.08178-1.0773-1.91274-2.3102-2.50404-3.7145l-4.82538 2.0317c.85587 2.0327 2.07124 3.8355 3.63496 5.3927zm-2.50404-3.7145c-.58487-1.3891-.88294-2.8639-.88624-4.4473l-5.235667.0109c.004705 2.2565.434223 4.4202 1.296527 6.4681zm-.88624-4.4473-.00525-2.52-5.235671.0109.005254 2.52zm-2.61763.1033 7.91995-.0166-.0109-5.2356-7.91997.0165zm5.29669-2.6289.00451 2.16 5.23565-.0109-.0045-2.16zm.00451 2.16c.00529 2.5408.85191 4.8213 2.53215 6.7104l3.9121-3.4796c-.8056-.9057-1.2059-1.9426-1.2086-3.2417zm2.53215 6.7104c1.8899 2.1249 4.5744 2.9726 7.5459 2.9664l-.0109-5.2356c-1.9886.0041-3.027-.5404-3.6229-1.2104zm7.5459 2.9664c2.5473-.0053 4.9132-.664 6.6722-2.3673l-3.6421-3.7613c-.4765.4614-1.3483.8894-3.041.893zm6.639-2.3357c1.7503-1.6364 2.5661-3.7836 2.5611-6.1813l-5.2357.0109c.0024 1.1222-.3359 1.8175-.9011 2.3459zm2.5611-6.1813c-.0052-2.4983-.8757-4.7932-3.0227-6.2411l-2.9273 4.3408c.3365.227.7117.6495.7143 1.9112zm-2.9427-6.1849c-1.7578-1.2835-3.883-1.8187-6.1719-1.814l.011 5.2357c1.4711-.0031 2.4278.3353 3.0736.8068zm-6.1719-1.814-4.6799.0098.0109 5.2356 4.68-.0097zm41.3958 17.9516-2.3944-1.0582-.0146.033-.0137.0335zm-1.1962 1.8025 1.7796 1.9199.0384-.0356.037-.0371zm-1.8576 1.1439-.9539-2.4379-.0841.0329-.0816.0386zm-4.38.0091 1.1097-2.371-.0584-.0273-.0596-.0244zm-1.8024-1.1362-1.8472 1.8549.0371.0369.0385.0355zm-1.2637-1.7974-2.4379.9539.0329.0841.0386.0816zm-.0094-4.5-2.3944-1.0582-.0146.033-.0137.0335zm1.2562-1.8026 1.7797 1.9199.0384-.0356.0369-.0371zm1.7975-1.2038 1.0018 2.4186.0596-.0247.0582-.0275zm4.38-.0091-1.1097 2.371.0818.0383.0842.0325zm1.8625 1.1961-1.8472 1.855.0371.0369.0385.0354zm1.2038 1.7975-2.4379.9539.0329.0841.0386.0816zm-2.1332 2.2245c.0009.4395-.0838.8369-.2519 1.2173l4.7889 2.1164c.4689-1.0609.701-2.1842.6986-3.3447zm-.2802 1.2838c-.1476.3607-.3534.6708-.6284.947l3.7099 3.6944c.7628-.766 1.3545-1.6576 1.764-2.658zm-.5531.8743c-.2575.2386-.5897.4529-1.0319.6259l1.9078 4.8757c.9966-.3899 1.9028-.9383 2.6833-1.6618zm-1.1976.6974c-.327.1547-.6657.2322-1.0449.233l.0109 5.2357c1.1409-.0024 2.2415-.2478 3.2732-.736zm-1.0449.233c-.44.001-.7964-.0837-1.1058-.2285l-2.2194 4.742c1.0519.4924 2.1762.7246 3.3361.7222zm-1.2238-.2802c-.4047-.1657-.7389-.3802-1.0225-.6408l-3.5432 3.8546c.7585.6971 1.6258 1.2401 2.5823 1.6316zm-.9468-.5685c-.3022-.3009-.5497-.6498-.7447-1.062l-4.7327 2.2392c.4478.9465 1.0429 1.7958 1.7829 2.5327zm-.6732-.8963c-.159-.4064-.2437-.8435-.2447-1.3307l-5.2357.0109c.0023 1.1129.2007 2.1952.6047 3.2276zm-.2447-1.3307c-.0011-.4883.0822-.8864.2202-1.2237l-4.8454-1.9834c-.4191 1.0239-.6128 2.1063-.6105 3.218zm.1919-1.1572c.1908-.4316.4121-.7283.6415-.9409l-3.5593-3.8398c-.8086.7495-1.4248 1.6546-1.871 2.6643zm.7168-1.0136c.275-.2762.5842-.4832.9443-.6324l-2.0036-4.8372c-.9987.4137-1.8878 1.0092-2.6506 1.7751zm1.0621-.6846c.3088-.1461.6649-.2323 1.1049-.2332l-.0109-5.2356c-1.16.0024-2.2833.2393-3.3332.7361zm1.1049-.2332c.3791-.0008.7182.0754 1.0458.2287l2.2194-4.742c-1.0337-.4838-2.1353-.7247-3.2761-.7223zm1.2118.2995c.3994.1544.708.3594.959.6093l3.6944-3.7099c-.7912-.788-1.7242-1.3804-2.7659-1.783zm1.0346.6816c.2016.1853.3876.4411.5375.8241l4.8757-1.9078c-.4131-1.0558-1.0296-1.9984-1.87-2.7709zm.609.9898c.1461.3088.2322.6649.2332 1.1049l5.2356-.011c-.0024-1.16-.2393-2.2832-.7361-3.3331z" fill="#30efd3"/></svg>