<svg width="343" height="167" viewBox="0 0 343 167" fill="none" xmlns="http://www.w3.org/2000/svg">
<path d="M82.3403 131.485L85.2748 130.861L84.651 127.927L81.7166 128.55L82.3403 131.485ZM86.0079 148.739L86.6316 151.674L89.5661 151.05L88.9423 148.115L86.0079 148.739ZM18.6331 163.06L15.6986 163.684L16.3224 166.618L19.2568 165.995L18.6331 163.06ZM14.0712 130.824L11.1319 130.223L11.1254 130.255L11.1196 130.287L14.0712 130.824ZM18.5863 120.418L16.1886 118.615L16.174 118.634L16.1596 118.654L18.5863 120.418ZM27.4391 112.239L29.0981 114.738L29.123 114.722L29.1476 114.705L27.4391 112.239ZM39.8492 105.307L41.0946 108.036L41.1018 108.033L39.8492 105.307ZM48.1682 100.676L49.9209 103.111L49.9427 103.095L49.9642 103.079L48.1682 100.676ZM53.0259 95.9224L55.4841 97.642L55.5138 97.5997L55.5419 97.5563L53.0259 95.9224ZM54.8333 90.9581L51.8522 90.6219L51.8462 90.6751L51.8421 90.7285L54.8333 90.9581ZM48.2079 76.6223L46.6617 79.1932L46.6827 79.2058L46.7039 79.2181L48.2079 76.6223ZM24.4471 82.6748L26.9631 84.3087L26.9749 84.2904L26.9865 84.272L24.4471 82.6748ZM23.837 102.699L24.4608 105.634L27.3952 105.01L26.7715 102.075L23.837 102.699ZM5.76088 106.541L2.82643 107.165L3.45017 110.1L6.38461 109.476L5.76088 106.541ZM3.75183 85.6424L0.795618 85.1317L0.792604 85.1491L0.789794 85.1666L3.75183 85.6424ZM8.32847 73.5056L5.78835 71.9094L5.78762 71.9106L8.32847 73.5056ZM17.741 63.9192L19.4191 66.406L19.4417 66.3907L19.464 66.3751L17.741 63.9192ZM47.2911 57.495L46.7696 60.4493L46.7968 60.4541L46.8241 60.4584L47.2911 57.495ZM59.3696 61.7977L57.7772 64.3402L57.7973 64.3528L57.8177 64.3651L59.3696 61.7977ZM67.8434 70.0155L65.3148 71.6299L65.3394 71.6685L65.3653 71.7064L67.8434 70.0155ZM70.1441 103.734L67.5143 102.29L67.5071 102.304L67.5 102.317L70.1441 103.734ZM50.5417 119.923L49.2706 117.206L49.2657 117.208L50.5417 119.923ZM40.5298 125.343L42.1256 127.884L42.1483 127.869L42.1708 127.855L40.5298 125.343ZM34.8213 130.135L32.4744 128.266L34.8213 130.135ZM32.4371 135.079L29.4862 134.538L29.4776 134.585L29.4704 134.632L32.4371 135.079ZM33.0417 141.963L30.1072 142.587L30.731 145.522L33.6654 144.898L33.0417 141.963ZM79.4059 132.108L83.0735 149.363L88.9423 148.115L85.2748 130.861L79.4059 132.108ZM85.3842 145.805L18.0093 160.126L19.2568 165.995L86.6316 151.674L85.3842 145.805ZM21.5675 162.436L17.5507 143.539L11.6818 144.786L15.6986 163.684L21.5675 162.436ZM17.5507 143.539C16.541 138.789 16.4065 134.75 17.0228 131.361L11.1196 130.287C10.328 134.64 10.5569 139.494 11.6818 144.786L17.5507 143.539ZM17.0104 131.425C17.7245 127.931 19.0636 124.864 21.0129 122.182L16.1596 118.654C13.6792 122.067 12.0082 125.936 11.1319 130.223L17.0104 131.425ZM20.9839 122.221C23.0613 119.459 25.7512 116.96 29.0981 114.738L25.7802 109.739C21.9355 112.291 18.7236 115.244 16.1886 118.615L20.9839 122.221ZM29.1476 114.705C32.5537 112.345 36.5305 110.119 41.0946 108.036L38.6037 102.578C33.7739 104.782 29.4773 107.177 25.7307 109.773L29.1476 114.705ZM41.1018 108.033C44.6766 106.39 47.6381 104.754 49.9209 103.111L46.4154 98.2415C44.5604 99.5769 41.9759 101.028 38.5965 102.581L41.1018 108.033ZM49.9642 103.079C52.2675 101.358 54.1469 99.5535 55.4841 97.642L50.5677 94.2027C49.7094 95.4296 48.3504 96.7947 46.3721 98.2733L49.9642 103.079ZM55.5419 97.5563C56.8399 95.5576 57.6526 93.4272 57.8245 91.1877L51.8421 90.7285C51.7608 91.7871 51.3686 92.9662 50.5099 94.2885L55.5419 97.5563ZM57.8144 91.2944C58.0542 89.1677 57.9085 86.9567 57.4251 84.6821L51.5562 85.9296C51.9265 87.6719 52.0093 89.2291 51.8522 90.6219L57.8144 91.2944ZM57.4251 84.6821C56.4347 80.0229 53.8242 76.4094 49.712 74.0266L46.7039 79.2181C49.3385 80.7447 50.9165 82.9201 51.5562 85.9296L57.4251 84.6821ZM49.7542 74.0515C45.6365 71.5749 40.6981 71.144 35.2662 72.2986L36.5136 78.1675C40.9414 77.2263 44.215 77.7216 46.6617 79.1932L49.7542 74.0515ZM35.2662 72.2986C29.414 73.5425 24.8369 76.4204 21.9076 81.0775L26.9865 84.272C28.9068 81.219 31.9583 79.1358 36.5136 78.1675L35.2662 72.2986ZM21.9311 81.0408C18.9448 85.6393 18.3194 91.1701 19.6219 97.2975L25.4908 96.05C24.4258 91.0396 25.0609 87.2378 26.9631 84.3087L21.9311 81.0408ZM19.6219 97.2975L20.9026 103.323L26.7715 102.075L25.4908 96.05L19.6219 97.2975ZM23.2133 99.7647L5.13714 103.607L6.38461 109.476L24.4608 105.634L23.2133 99.7647ZM8.69532 105.918L7.06529 98.249L1.19641 99.4964L2.82643 107.165L8.69532 105.918ZM7.06529 98.249C6.18829 94.123 6.0766 90.0858 6.71387 86.1181L0.789794 85.1666C0.0307208 89.8926 0.171714 94.6756 1.19641 99.4964L7.06529 98.249ZM6.70804 86.1531C7.41526 82.0594 8.8072 78.3856 10.8693 75.1007L5.78762 71.9106C3.28767 75.893 1.62852 80.3104 0.795618 85.1317L6.70804 86.1531ZM10.8686 75.1018C12.984 71.7354 15.8186 68.8355 19.4191 66.406L16.063 61.4324C11.8192 64.296 8.37875 67.7872 5.78835 71.9094L10.8686 75.1018ZM19.464 66.3751C22.9889 63.9022 27.2461 62.1033 32.2983 61.0294L31.0508 55.1605C25.3303 56.3764 20.2985 58.4603 16.0181 61.4633L19.464 66.3751ZM32.2983 61.0294C37.7613 59.8682 42.5694 59.7078 46.7696 60.4493L47.8126 54.5407C42.6938 53.637 37.0909 53.8767 31.0508 55.1605L32.2983 61.0294ZM46.8241 60.4584C51.1303 61.137 54.7601 62.4505 57.7772 64.3402L60.9621 59.2553C57.1546 56.8705 52.7321 55.3154 47.7581 54.5316L46.8241 60.4584ZM57.8177 64.3651C60.9377 66.2511 63.424 68.6683 65.3148 71.6299L70.372 68.4012C67.9716 64.6414 64.8087 61.58 60.9216 59.2304L57.8177 64.3651ZM65.3653 71.7064C67.3635 74.635 68.7242 77.8148 69.4577 81.2657L75.3266 80.0183C74.4301 75.8005 72.7583 71.896 70.3215 68.3247L65.3653 71.7064ZM69.4577 81.2657L69.807 82.909L75.6759 81.6616L75.3266 80.0183L69.4577 81.2657ZM69.807 82.909C71.3888 90.3509 70.5564 96.7485 67.5143 102.29L72.774 105.178C76.6103 98.1889 77.5094 90.2874 75.6759 81.6616L69.807 82.909ZM67.5 102.317C64.5788 107.767 58.6903 112.8 49.2706 117.206L51.8129 122.641C61.8339 117.953 69.0136 112.193 72.7882 105.151L67.5 102.317ZM49.2657 117.208C45.1131 119.16 41.6421 121.033 38.8888 122.832L42.1708 127.855C44.6121 126.26 47.8156 124.519 51.8178 122.638L49.2657 117.208ZM38.934 122.803C36.2397 124.496 34.0373 126.303 32.4744 128.266L37.1682 132.004C38.1659 130.751 39.7692 129.364 42.1256 127.884L38.934 122.803ZM32.4744 128.266C30.9471 130.184 29.9003 132.277 29.4862 134.538L35.388 135.619C35.5922 134.504 36.1349 133.301 37.1682 132.004L32.4744 128.266ZM29.4704 134.632C29.169 136.636 29.2922 138.753 29.758 140.944L35.6268 139.696C35.2776 138.053 35.2306 136.675 35.4037 135.525L29.4704 134.632ZM29.758 140.944L30.1072 142.587L35.9761 141.34L35.6268 139.696L29.758 140.944ZM33.6654 144.898L82.9641 134.419L81.7166 128.55L32.418 139.029L33.6654 144.898ZM115.501 83.9311L112.985 82.2972L115.501 83.9311ZM118.935 100.09L117.301 102.606L118.935 100.09ZM90.8667 56.2479L88.2848 54.7201L88.2793 54.7295L88.2738 54.7389L90.8667 56.2479ZM142.767 45.2161L141.012 47.6492L141.021 47.6556L141.03 47.6619L142.767 45.2161ZM159.65 124.642L157.089 123.079L157.083 123.089L157.077 123.098L159.65 124.642ZM107.749 135.673L106.027 138.13L106.036 138.136L106.045 138.142L107.749 135.673ZM140.296 120.454L142.086 122.862L142.127 122.831L142.166 122.8L140.296 120.454ZM144.676 114.8L147.427 115.998L144.676 114.8ZM146.097 107.341L149.097 107.325L149.097 107.325L146.097 107.341ZM137.286 66.5622L139.992 65.2674L139.992 65.2674L137.286 66.5622ZM132.817 60.3556L134.843 58.1424L134.843 58.1424L132.817 60.3556ZM126.516 56.9717L125.667 59.849L125.714 59.8629L125.762 59.8753L126.516 56.9717ZM110.631 60.3482L112.501 62.6939L112.54 62.6633L112.577 62.6314L110.631 60.3482ZM106.251 66.0024L103.501 64.8044L103.501 64.8044L106.251 66.0024ZM104.694 73.4898L101.695 73.4076L101.695 73.4076L104.694 73.4898ZM113.231 114.327L110.484 115.533L113.231 114.327ZM117.562 120.563L119.587 118.35L117.562 120.563ZM123.863 123.947L123.109 126.85L123.158 126.863L123.208 126.874L123.863 123.947ZM116.729 92.1146C116.242 89.8228 116.634 87.6949 118.017 85.565L112.985 82.2972C110.773 85.7023 110.028 89.4458 110.86 93.362L116.729 92.1146ZM118.017 85.565C119.4 83.4352 121.184 82.2118 123.476 81.7247L122.229 75.8558C118.313 76.6882 115.196 78.8921 112.985 82.2972L118.017 85.565ZM123.476 81.7247C125.768 81.2376 127.896 81.6293 130.026 83.0124L133.294 77.9804C129.889 75.7691 126.145 75.0234 122.229 75.8558L123.476 81.7247ZM130.026 83.0124C132.156 84.3956 133.379 86.1802 133.866 88.472L139.735 87.2245C138.903 83.3083 136.699 80.1917 133.294 77.9804L130.026 83.0124ZM133.866 88.472C134.353 90.7637 133.962 92.8916 132.578 95.0215L137.61 98.2893C139.822 94.8842 140.567 91.1407 139.735 87.2245L133.866 88.472ZM132.578 95.0215C131.195 97.1514 129.411 98.3747 127.119 98.8618L128.366 104.731C132.282 103.898 135.399 101.694 137.61 98.2893L132.578 95.0215ZM127.119 98.8618C124.827 99.349 122.699 98.9572 120.569 97.5741L117.301 102.606C120.707 104.817 124.45 105.563 128.366 104.731L127.119 98.8618ZM120.569 97.5741C118.439 96.191 117.216 94.4063 116.729 92.1146L110.86 93.362C111.692 97.2782 113.896 100.395 117.301 102.606L120.569 97.5741ZM90.6309 86.4979C88.0927 74.5566 89.1945 65.0857 93.4596 57.7568L88.2738 54.7389C83.0337 63.7432 82.022 74.8549 84.762 87.7454L90.6309 86.4979ZM93.4485 57.7756C97.7852 50.4468 104.933 45.5904 115.326 43.3813L114.079 37.5124C102.379 39.9993 93.636 45.6769 88.2848 54.7201L93.4485 57.7756ZM115.326 43.3813C125.721 41.1719 134.169 42.7133 141.012 47.6492L144.522 42.7829C136.039 36.6639 125.777 35.0258 114.079 37.5124L115.326 43.3813ZM141.03 47.6619C147.99 52.6054 152.887 60.7948 155.423 72.7258L161.292 71.4784C158.55 58.5775 153.054 48.8429 144.504 42.7702L141.03 47.6619ZM155.423 72.7258L159.964 94.0886L165.833 92.8411L161.292 71.4784L155.423 72.7258ZM159.964 94.0886C162.585 106.418 161.438 115.95 157.089 123.079L162.211 126.204C167.627 117.326 168.646 106.074 165.833 92.8411L159.964 94.0886ZM157.077 123.098C152.804 130.219 145.688 134.991 135.269 137.205L136.516 143.074C148.19 140.593 156.913 135.032 162.222 126.185L157.077 123.098ZM135.269 137.205C124.851 139.42 116.354 137.967 109.453 133.204L106.045 138.142C114.576 144.031 124.841 145.556 136.516 143.074L135.269 137.205ZM109.471 133.217C102.681 128.457 97.7944 120.2 95.1717 107.861L89.3028 109.108C92.1134 122.331 97.5686 132.2 106.027 138.13L109.471 133.217ZM95.1717 107.861L90.6309 86.4979L84.762 87.7454L89.3028 109.108L95.1717 107.861ZM133.024 126.641C136.587 125.884 139.66 124.665 142.086 122.862L138.506 118.046C136.977 119.183 134.785 120.133 131.776 120.772L133.024 126.641ZM142.166 122.8C144.491 120.946 146.261 118.673 147.427 115.998L141.926 113.602C141.167 115.343 140.017 116.84 138.426 118.108L142.166 122.8ZM147.427 115.998C148.578 113.354 149.113 110.446 149.097 107.325L143.097 107.358C143.11 109.765 142.698 111.829 141.926 113.602L147.427 115.998ZM149.097 107.325C149.08 104.324 148.704 101.139 147.99 97.7789L142.121 99.0263C142.765 102.057 143.083 104.831 143.097 107.358L149.097 107.325ZM147.99 97.7789L142.983 74.2251L137.114 75.4725L142.121 99.0263L147.99 97.7789ZM142.983 74.2251C142.299 71.0047 141.306 68.0142 139.992 65.2674L134.579 67.8571C135.669 70.1336 136.518 72.6676 137.114 75.4725L142.983 74.2251ZM139.992 65.2674C138.649 62.4623 136.944 60.0654 134.843 58.1424L130.792 62.5687C132.245 63.898 133.518 65.6388 134.579 67.8571L139.992 65.2674ZM134.843 58.1424C132.69 56.1726 130.149 54.8159 127.271 54.0681L125.762 59.8753C127.732 60.3871 129.391 61.2863 130.792 62.5687L134.843 58.1424ZM127.365 54.0944C124.34 53.2015 121.046 53.2068 117.572 53.9453L118.819 59.8142C121.553 59.2331 123.806 59.2998 125.667 59.849L127.365 54.0944ZM117.572 53.9453C114.097 54.6837 111.086 56.0187 108.685 58.065L112.577 62.6314C114.054 61.3726 116.085 60.3953 118.819 59.8142L117.572 53.9453ZM108.761 58.0025C106.436 59.8562 104.666 62.1294 103.501 64.8044L109.001 67.2005C109.76 65.459 110.91 63.9627 112.501 62.6939L108.761 58.0025ZM103.501 64.8044C102.363 67.4158 101.78 70.2991 101.695 73.4076L107.693 73.5721C107.76 71.1139 108.215 69.0056 109.001 67.2005L103.501 64.8044ZM101.695 73.4076C101.611 76.4516 101.921 79.5872 102.605 82.8077L108.474 81.5602C107.878 78.7552 107.623 76.0948 107.693 73.5721L101.695 73.4076ZM102.605 82.8077L107.612 106.361L113.481 105.114L108.474 81.5602L102.605 82.8077ZM107.612 106.361C108.326 109.722 109.278 112.784 110.484 115.533L115.978 113.122C114.963 110.808 114.125 108.144 113.481 105.114L107.612 106.361ZM110.484 115.533C111.737 118.39 113.409 120.829 115.537 122.776L119.587 118.35C118.161 117.044 116.945 115.327 115.978 113.122L110.484 115.533ZM115.537 122.776C117.689 124.746 120.231 126.103 123.109 126.85L124.618 121.043C122.648 120.531 120.989 119.632 119.587 118.35L115.537 122.776ZM123.208 126.874C126.157 127.535 129.46 127.399 133.024 126.641L131.776 120.772C128.767 121.412 126.379 121.436 124.519 121.019L123.208 126.874ZM250.039 95.8392L252.974 95.2155L252.35 92.281L249.415 92.9048L250.039 95.8392ZM253.707 113.094L254.33 116.028L257.265 115.404L256.641 112.47L253.707 113.094ZM186.332 127.415L183.397 128.038L184.021 130.973L186.956 130.349L186.332 127.415ZM181.77 95.1787L178.831 94.578L178.824 94.6099L178.818 94.642L181.77 95.1787ZM186.285 84.7726L183.887 82.9694L183.873 82.9889L183.858 83.0087L186.285 84.7726ZM195.138 76.5932L196.797 79.0928L196.822 79.0763L196.846 79.0592L195.138 76.5932ZM207.548 69.6616L208.793 72.3908L208.801 72.3875L207.548 69.6616ZM215.867 65.0308L217.62 67.4655L217.642 67.4498L217.663 67.4337L215.867 65.0308ZM220.725 60.2769L223.183 61.9966L223.213 61.9542L223.241 61.9108L220.725 60.2769ZM222.532 55.3126L219.551 54.9764L219.545 55.0296L219.541 55.083L222.532 55.3126ZM215.907 40.9769L214.361 43.5477L214.382 43.5603L214.403 43.5726L215.907 40.9769ZM192.146 47.0293L194.662 48.6632L194.674 48.645L194.685 48.6266L192.146 47.0293ZM191.536 67.0537L192.16 69.9881L195.094 69.3644L194.47 66.43L191.536 67.0537ZM173.46 70.8959L170.525 71.5196L171.149 74.4541L174.083 73.8303L173.46 70.8959ZM171.451 49.9969L168.494 49.4862L168.491 49.5037L168.489 49.5212L171.451 49.9969ZM176.027 37.8602L173.487 36.264L173.486 36.2651L176.027 37.8602ZM185.44 28.2737L187.118 30.7605L187.14 30.7452L187.163 30.7296L185.44 28.2737ZM214.99 21.8495L214.468 24.8038L214.496 24.8086L214.523 24.8129L214.99 21.8495ZM227.068 26.1523L225.476 28.6947L225.496 28.7073L225.517 28.7196L227.068 26.1523ZM235.542 34.37L233.014 35.9844L233.038 36.023L233.064 36.0609L235.542 34.37ZM237.843 68.0885L235.213 66.6449L235.206 66.6581L235.199 66.6712L237.843 68.0885ZM218.241 84.2779L216.969 81.5605L216.964 81.5628L218.241 84.2779ZM208.229 89.6979L209.824 92.2383L209.847 92.224L209.87 92.2093L208.229 89.6979ZM202.52 94.4895L200.173 92.6208L202.52 94.4895ZM200.136 99.4332L197.185 98.8927L197.176 98.9397L197.169 98.9869L200.136 99.4332ZM200.741 106.318L197.806 106.942L198.43 109.876L201.364 109.252L200.741 106.318ZM247.105 96.4629L250.772 113.717L256.641 112.47L252.974 95.2155L247.105 96.4629ZM253.083 110.159L185.708 124.48L186.956 130.349L254.33 116.028L253.083 110.159ZM189.266 126.791L185.25 107.893L179.381 109.141L183.397 128.038L189.266 126.791ZM185.25 107.893C184.24 103.143 184.105 99.1045 184.722 95.7155L178.818 94.642C178.027 98.9948 178.256 103.848 179.381 109.141L185.25 107.893ZM184.709 95.7795C185.423 92.2858 186.762 89.2183 188.712 86.5365L183.858 83.0087C181.378 86.4211 179.707 90.2909 178.831 94.578L184.709 95.7795ZM188.683 86.5757C190.76 83.8134 193.45 81.314 196.797 79.0928L193.479 74.0936C189.634 76.6453 186.422 79.5988 183.887 82.9694L188.683 86.5757ZM196.846 79.0592C200.253 76.6995 204.229 74.4736 208.793 72.3908L206.303 66.9323C201.473 69.1364 197.176 71.5316 193.43 74.1272L196.846 79.0592ZM208.801 72.3875C212.375 70.7448 215.337 69.1088 217.62 67.4655L214.114 62.596C212.259 63.9314 209.675 65.3827 206.295 66.9356L208.801 72.3875ZM217.663 67.4337C219.966 65.7122 221.846 63.908 223.183 61.9966L218.267 58.5572C217.408 59.7841 216.049 61.1492 214.071 62.6278L217.663 67.4337ZM223.241 61.9108C224.539 59.9121 225.351 57.7817 225.523 55.5422L219.541 55.083C219.46 56.1416 219.067 57.3207 218.209 58.643L223.241 61.9108ZM225.513 55.6489C225.753 53.5223 225.607 51.3112 225.124 49.0366L219.255 50.2841C219.625 52.0264 219.708 53.5836 219.551 54.9764L225.513 55.6489ZM225.124 49.0366C224.134 44.3774 221.523 40.7639 217.411 38.3811L214.403 43.5726C217.037 45.0992 218.615 47.2747 219.255 50.2841L225.124 49.0366ZM217.453 38.406C213.335 35.9294 208.397 35.4985 202.965 36.6531L204.212 42.522C208.64 41.5809 211.914 42.0761 214.361 43.5477L217.453 38.406ZM202.965 36.6531C197.113 37.897 192.536 40.7749 189.606 45.432L194.685 48.6266C196.606 45.5735 199.657 43.4903 204.212 42.522L202.965 36.6531ZM189.63 45.3954C186.644 49.9938 186.018 55.5246 187.321 61.652L193.19 60.4046C192.125 55.3942 192.76 51.5923 194.662 48.6632L189.63 45.3954ZM187.321 61.652L188.601 67.6774L194.47 66.43L193.19 60.4046L187.321 61.652ZM190.912 64.1192L172.836 67.9615L174.083 73.8303L192.16 69.9881L190.912 64.1192ZM176.394 70.2722L174.764 62.6035L168.895 63.851L170.525 71.5196L176.394 70.2722ZM174.764 62.6035C173.887 58.4775 173.775 54.4403 174.413 50.4727L168.489 49.5212C167.73 54.2472 167.871 59.0302 168.895 63.851L174.764 62.6035ZM174.407 50.5076C175.114 46.4139 176.506 42.7401 178.568 39.4552L173.486 36.2651C170.987 40.2475 169.327 44.6649 168.494 49.4862L174.407 50.5076ZM178.567 39.4563C180.683 36.0899 183.517 33.1901 187.118 30.7605L183.762 25.7869C179.518 28.6506 176.078 32.1417 173.487 36.264L178.567 39.4563ZM187.163 30.7296C190.688 28.2567 194.945 26.4578 199.997 25.3839L198.75 19.515C193.029 20.731 187.997 22.8149 183.717 25.8178L187.163 30.7296ZM199.997 25.3839C205.46 24.2227 210.268 24.0624 214.468 24.8038L215.511 18.8952C210.393 17.9915 204.79 18.2312 198.75 19.515L199.997 25.3839ZM214.523 24.8129C218.829 25.4916 222.459 26.805 225.476 28.6947L228.661 23.6098C224.853 21.225 220.431 19.6699 215.457 18.8861L214.523 24.8129ZM225.517 28.7196C228.637 30.6057 231.123 33.0228 233.014 35.9844L238.071 32.7557C235.67 28.9959 232.507 25.9346 228.62 23.5849L225.517 28.7196ZM233.064 36.0609C235.062 38.9895 236.423 42.1694 237.157 45.6203L243.025 44.3728C242.129 40.155 240.457 36.2506 238.02 32.6792L233.064 36.0609ZM237.157 45.6203L237.506 47.2635L243.375 46.0161L243.025 44.3728L237.157 45.6203ZM237.506 47.2635C239.088 54.7054 238.255 61.1031 235.213 66.6449L240.473 69.5321C244.309 62.5434 245.208 54.6419 243.375 46.0161L237.506 47.2635ZM235.199 66.6712C232.278 72.1211 226.389 77.1541 216.969 81.5605L219.512 86.9953C229.533 82.3076 236.712 76.5478 240.487 69.5058L235.199 66.6712ZM216.964 81.5628C212.812 83.5144 209.341 85.3875 206.588 87.1865L209.87 92.2093C212.311 90.6142 215.514 88.8739 219.517 86.993L216.964 81.5628ZM206.633 87.1575C203.939 88.85 201.736 90.6579 200.173 92.6208L204.867 96.3581C205.865 95.1051 207.468 93.7185 209.824 92.2383L206.633 87.1575ZM200.173 92.6208C198.646 94.539 197.599 96.6318 197.185 98.8927L203.087 99.9738C203.291 98.859 203.834 97.656 204.867 96.3581L200.173 92.6208ZM197.169 98.9869C196.868 100.991 196.991 103.107 197.457 105.298L203.326 104.051C202.976 102.408 202.929 101.03 203.103 99.8795L197.169 98.9869ZM197.457 105.298L197.806 106.942L203.675 105.694L203.326 104.051L197.457 105.298ZM201.364 109.252L250.663 98.7737L249.415 92.9048L200.117 103.384L201.364 109.252ZM293.765 86.545L294.389 89.4795L297.323 88.8557L296.699 85.9213L293.765 86.545ZM278.978 16.9791L281.913 16.3554L281.289 13.421L278.355 14.0447L278.978 16.9791ZM276.513 17.5031L275.89 14.5686L273.653 15.044L273.519 17.3264L276.513 17.5031ZM274.461 52.2899L275.085 55.2244L277.321 54.749L277.456 52.4666L274.461 52.2899ZM257.207 55.9575L254.272 56.5812L254.896 59.5157L257.83 58.892L257.207 55.9575ZM256.857 54.3142L253.864 54.1078L253.835 54.527L253.923 54.938L256.857 54.3142ZM259.803 11.6086L259.179 8.67417L256.965 9.14466L256.81 11.4022L259.803 11.6086ZM295.133 4.09885L298.068 3.47511L297.444 0.540671L294.51 1.16441L295.133 4.09885ZM311.841 82.7028L308.907 83.3265L309.53 86.261L312.465 85.6372L311.841 82.7028ZM335.669 77.6381L338.603 77.0143L337.98 74.0799L335.045 74.7036L335.669 77.6381ZM339.336 94.8926L339.96 97.827L342.895 97.2033L342.271 94.2689L339.336 94.8926ZM270.318 109.563L267.384 110.187L268.008 113.121L270.942 112.497L270.318 109.563ZM266.651 92.3083L266.027 89.3739L263.093 89.9976L263.716 92.9321L266.651 92.3083ZM296.699 85.9213L281.913 16.3554L276.044 17.6029L290.831 87.1687L296.699 85.9213ZM278.355 14.0447L275.89 14.5686L277.137 20.4375L279.602 19.9136L278.355 14.0447ZM273.519 17.3264L271.466 52.1133L277.456 52.4666L279.508 17.6798L273.519 17.3264ZM273.837 49.3555L256.583 53.0231L257.83 58.892L275.085 55.2244L273.837 49.3555ZM260.141 55.3338L259.792 53.6905L253.923 54.938L254.272 56.5812L260.141 55.3338ZM259.85 54.5206L262.796 11.815L256.81 11.4022L253.864 54.1078L259.85 54.5206ZM260.426 14.5431L295.757 7.03329L294.51 1.16441L259.179 8.67417L260.426 14.5431ZM292.199 4.72258L308.907 83.3265L314.776 82.0791L298.068 3.47511L292.199 4.72258ZM312.465 85.6372L336.293 80.5725L335.045 74.7036L311.217 79.7684L312.465 85.6372ZM332.734 78.2618L336.402 95.5163L342.271 94.2689L338.603 77.0143L332.734 78.2618ZM338.713 91.9581L269.695 106.628L270.942 112.497L339.96 97.827L338.713 91.9581ZM273.253 108.939L269.585 91.6846L263.716 92.9321L267.384 110.187L273.253 108.939ZM267.274 95.2428L294.389 89.4795L293.141 83.6106L266.027 89.3739L267.274 95.2428Z" fill="#FF39A6"/>
</svg>
