<svg width="527" height="586" viewBox="0 0 527 586" fill="none" xmlns="http://www.w3.org/2000/svg">
<path d="M111.059 138.39L111.052 139.39L111.061 139.39L111.07 139.39L111.059 138.39ZM116.764 136.946L116.263 136.08L116.254 136.085L116.764 136.946ZM121.112 133.016L121.918 133.608L121.922 133.602L121.112 133.016ZM125.257 125.547L125.679 124.641L124.773 124.218L124.35 125.125L125.257 125.547ZM139.613 132.242L140.519 132.664L140.941 131.758L140.035 131.335L139.613 132.242ZM121.734 151.842L121.378 150.908L121.378 150.908L121.734 151.842ZM80.7106 131.918L81.6572 131.596L80.7106 131.918ZM99.8544 76.099L100.577 76.7906L100.581 76.7865L99.8544 76.099ZM110.074 68.948L110.443 69.8776L110.455 69.8724L110.074 68.948ZM121.832 67.0162L121.773 68.0144L121.782 68.0149L121.791 68.0153L121.832 67.0162ZM151.706 87.5668L150.756 87.8802L150.759 87.8875L150.761 87.8948L151.706 87.5668ZM152.877 98.9699L151.883 98.8556L151.882 98.8648L151.881 98.8741L152.877 98.9699ZM148.335 113.535L147.913 114.442L148.819 114.864L149.242 113.958L148.335 113.535ZM133.979 106.841L133.073 106.419L132.651 107.325L133.557 107.747L133.979 106.841ZM136.776 99.1414L137.755 99.3408L136.776 99.1414ZM134.373 87.8257L133.569 88.4213L133.579 88.4345L133.589 88.4473L134.373 87.8257ZM121.648 81.8921L121.675 82.8918L121.692 82.8913L121.708 82.8903L121.648 81.8921ZM115.573 83.5613L116.038 84.4467L116.048 84.4415L116.058 84.4361L115.573 83.5613ZM110.428 87.782L109.666 87.1336L109.658 87.1428L109.651 87.1522L110.428 87.782ZM95.3148 120.192L94.3346 119.993L94.333 120.001L95.3148 120.192ZM97.7904 132.203L97.0071 132.825L97.0224 132.844L97.0386 132.863L97.7904 132.203ZM103.335 137.349C106.168 138.67 108.748 139.375 111.052 139.39L111.065 137.39C109.146 137.378 106.858 136.785 104.181 135.536L103.335 137.349ZM111.07 139.39C113.428 139.364 115.509 138.851 117.273 137.807L116.254 136.085C114.848 136.918 113.126 137.367 111.048 137.39L111.07 139.39ZM117.264 137.812C119.08 136.763 120.632 135.358 121.918 133.608L120.306 132.423C119.177 133.961 117.83 135.176 116.264 136.08L117.264 137.812ZM121.922 133.602C123.202 131.833 124.311 129.942 125.25 127.928L123.437 127.082C122.551 128.984 121.506 130.766 120.302 132.429L121.922 133.602ZM125.25 127.928L126.163 125.97L124.35 125.125L123.437 127.082L125.25 127.928ZM124.834 126.454L139.19 133.148L140.035 131.335L125.679 124.641L124.834 126.454ZM138.706 131.819L137.793 133.777L139.606 134.622L140.519 132.664L138.706 131.819ZM137.793 133.777C133.641 142.682 128.15 148.328 121.378 150.908L122.09 152.777C129.487 149.959 135.306 143.843 139.606 134.622L137.793 133.777ZM121.378 150.908C114.729 153.442 106.999 152.739 98.0949 148.587L97.2496 150.4C106.472 154.7 114.783 155.562 122.09 152.777L121.378 150.908ZM98.0949 148.587C89.5915 144.622 84.1604 138.95 81.6572 131.596L79.7639 132.241C82.4752 140.206 88.3519 146.25 97.2496 150.4L98.0949 148.587ZM81.6572 131.596C79.1606 124.262 80.1393 115.633 84.806 105.626L82.9934 104.78C78.1935 115.074 77.046 124.256 79.7639 132.241L81.6572 131.596ZM84.806 105.626L92.7174 88.6596L90.9048 87.8143L82.9934 104.78L84.806 105.626ZM92.7174 88.6596C94.9453 83.8819 97.5686 79.932 100.577 76.7906L99.1322 75.4074C95.9463 78.7343 93.2074 82.8764 90.9048 87.8143L92.7174 88.6596ZM100.581 76.7865C103.626 73.5698 106.915 71.277 110.443 69.8775L109.705 68.0185C105.869 69.5403 102.344 72.0148 99.1283 75.4115L100.581 76.7865ZM110.455 69.8724C114.028 68.3984 117.797 67.7779 121.773 68.0144L121.892 66.0179C117.623 65.764 113.552 66.4313 109.693 68.0236L110.455 69.8724ZM121.791 68.0153C125.796 68.1818 129.921 69.2432 134.17 71.2245L135.015 69.4119C130.563 67.336 126.181 66.1961 121.874 66.017L121.791 68.0153ZM134.17 71.2245C138.578 73.2803 142.156 75.7281 144.929 78.5546L146.357 77.1541C143.385 74.1248 139.597 71.5484 135.015 69.4119L134.17 71.2245ZM144.929 78.5546C147.704 81.3841 149.638 84.4922 150.756 87.8802L152.656 87.2534C151.433 83.5473 149.325 80.1804 146.357 77.1541L144.929 78.5546ZM150.761 87.8948C151.952 91.3243 152.33 94.9733 151.883 98.8556L153.87 99.0842C154.349 94.9242 153.946 90.9712 152.651 87.2389L150.761 87.8948ZM151.881 98.8741C151.503 102.798 150.331 106.89 148.342 111.155L150.155 112C152.223 107.565 153.469 103.252 153.872 99.0657L151.881 98.8741ZM148.342 111.155L147.429 113.113L149.242 113.958L150.155 112L148.342 111.155ZM148.758 112.629L134.402 105.935L133.557 107.747L147.913 114.442L148.758 112.629ZM134.886 107.264L135.799 105.306L133.986 104.461L133.073 106.419L134.886 107.264ZM135.799 105.306C136.678 103.42 137.33 101.431 137.755 99.3408L135.796 98.942C135.401 100.883 134.797 102.722 133.986 104.461L135.799 105.306ZM137.755 99.3408C138.189 97.2091 138.229 95.113 137.867 93.0595L135.898 93.4066C136.214 95.2 136.182 97.0428 135.796 98.942L137.755 99.3408ZM137.867 93.0595C137.497 90.9565 136.583 89.0026 135.156 87.2041L133.589 88.4473C134.831 90.0117 135.59 91.6628 135.898 93.4066L137.867 93.0595ZM135.176 87.2301C133.75 85.3066 131.644 83.7285 128.929 82.4627L128.084 84.2753C130.59 85.4438 132.394 86.8368 133.569 88.4213L135.176 87.2301ZM128.929 82.4627C126.417 81.2913 123.965 80.7509 121.588 80.8939L121.708 82.8903C123.69 82.7711 125.811 83.2153 128.084 84.2753L128.929 82.4627ZM121.621 80.8925C119.312 80.9556 117.131 81.5558 115.089 82.6864L116.058 84.4361C117.824 83.4585 119.692 82.9459 121.675 82.8918L121.621 80.8925ZM115.109 82.6759C113.111 83.7246 111.298 85.2177 109.666 87.1336L111.189 88.4304C112.678 86.682 114.296 85.3613 116.038 84.4467L115.109 82.6759ZM109.651 87.1522C108.142 89.0137 106.848 91.1047 105.768 93.421L107.58 94.2663C108.597 92.0873 109.805 90.1373 111.204 88.4118L109.651 87.1522ZM105.768 93.421L96.8422 112.562L98.6548 113.408L107.58 94.2663L105.768 93.421ZM96.8422 112.562C95.6638 115.089 94.8252 117.567 94.3346 119.993L96.295 120.39C96.7502 118.138 97.5341 115.811 98.6548 113.408L96.8422 112.562ZM94.333 120.001C93.8729 122.377 93.8362 124.652 94.2393 126.819L96.2056 126.453C95.8535 124.561 95.8784 122.54 96.2965 120.382L94.333 120.001ZM94.2393 126.819C94.6479 129.016 95.5755 131.021 97.0071 132.825L98.5737 131.582C97.3365 130.023 96.5521 128.316 96.2056 126.453L94.2393 126.819ZM97.0386 132.863C98.5926 134.635 100.706 136.123 103.335 137.349L104.181 135.536C101.735 134.395 99.8697 133.057 98.5422 131.544L97.0386 132.863ZM176.5 99.7903L176.119 98.8657L176.112 98.8685L176.5 99.7903ZM217.719 119.011L216.763 119.307L216.765 119.314L217.719 119.011ZM188.304 182.09L187.936 181.16L187.929 181.163L188.304 182.09ZM147.085 162.869L146.134 163.178L146.136 163.185L147.085 162.869ZM177.216 169.24L177.21 170.24L177.226 170.24L177.243 170.24L177.216 169.24ZM183.131 167.629L183.623 168.5L183.131 167.629ZM187.951 163.256L188.753 163.854L187.951 163.256ZM202.955 130.796L203.935 130.994L202.955 130.796ZM203.098 124.242L204.081 124.059L203.098 124.242ZM200.53 118.675L199.727 119.271L199.736 119.284L199.747 119.297L200.53 118.675ZM187.914 112.793L187.941 113.792L187.958 113.792L187.974 113.791L187.914 112.793ZM181.999 114.404L181.507 113.533L181.999 114.404ZM177.071 118.726L176.289 118.102L177.071 118.726ZM161.849 151.085L160.876 150.854L161.849 151.085ZM161.597 157.587L162.58 157.405L161.597 157.587ZM164.165 163.154L163.382 163.776L163.392 163.789L163.403 163.802L164.165 163.154ZM159.31 119.712C163.84 109.998 169.719 103.726 176.887 100.712L176.112 98.8685C168.348 102.133 162.164 108.86 157.497 118.867L159.31 119.712ZM176.881 100.715C184.112 97.7364 191.973 98.1787 200.544 102.176L201.39 100.363C192.415 96.1779 183.964 95.6343 176.119 98.8657L176.881 100.715ZM200.544 102.176C209.116 106.173 214.468 111.892 216.763 119.307L218.674 118.715C216.18 110.656 210.364 104.548 201.39 100.363L200.544 102.176ZM216.765 119.314C219.134 126.775 218.144 135.325 213.616 145.035L215.428 145.881C220.096 135.87 221.237 126.789 218.672 118.708L216.765 119.314ZM213.616 145.035L205.704 162.001L207.517 162.847L215.428 145.881L213.616 145.035ZM205.704 162.001C201.036 172.012 195.089 178.326 187.936 181.16L188.673 183.02C196.461 179.934 202.719 173.137 207.517 162.847L205.704 162.001ZM187.929 181.163C180.842 184.031 173.049 183.539 164.47 179.538L163.624 181.351C172.591 185.532 180.97 186.137 188.679 183.017L187.929 181.163ZM164.47 179.538C155.891 175.538 150.465 169.866 148.034 162.554L146.136 163.185C148.775 171.124 154.657 177.169 163.624 181.351L164.47 179.538ZM148.037 162.561C145.679 155.292 146.729 146.692 151.398 136.678L149.586 135.833C144.789 146.12 143.567 155.263 146.134 163.178L148.037 162.561ZM151.398 136.678L159.31 119.712L157.497 118.867L149.586 135.833L151.398 136.678ZM169.71 168.3C172.406 169.557 174.911 170.225 177.21 170.24L177.223 168.24C175.297 168.227 173.08 167.664 170.555 166.487L169.71 168.3ZM177.243 170.24C179.546 170.177 181.678 169.598 183.623 168.5L182.639 166.758C180.99 167.69 179.178 168.186 177.189 168.24L177.243 170.24ZM183.623 168.5C185.558 167.406 187.266 165.849 188.753 163.854L187.149 162.659C185.804 164.463 184.299 165.821 182.639 166.758L183.623 168.5ZM188.753 163.854C190.215 161.89 191.548 159.611 192.755 157.023L190.943 156.177C189.783 158.664 188.517 160.822 187.149 162.659L188.753 163.854ZM192.755 157.023L201.478 138.316L199.666 137.471L190.943 156.177L192.755 157.023ZM201.478 138.316C202.624 135.86 203.445 133.418 203.935 130.994L201.975 130.598C201.519 132.852 200.751 135.143 199.666 137.471L201.478 138.316ZM203.935 130.994C204.429 128.548 204.485 126.233 204.081 124.059L202.115 124.425C202.466 126.311 202.426 128.365 201.975 130.598L203.935 130.994ZM204.081 124.059C203.672 121.863 202.745 119.858 201.313 118.054L199.747 119.297C200.984 120.856 201.768 122.562 202.115 124.425L204.081 124.059ZM201.333 118.08C199.912 116.163 197.883 114.617 195.304 113.414L194.459 115.226C196.81 116.323 198.547 117.68 199.727 119.271L201.333 118.08ZM195.304 113.414C192.724 112.211 190.236 111.651 187.854 111.794L187.974 113.791C189.952 113.672 192.108 114.13 194.459 115.226L195.304 113.414ZM187.887 111.793C185.585 111.856 183.453 112.434 181.507 113.533L182.491 115.274C184.141 114.342 185.952 113.847 187.941 113.792L187.887 111.793ZM181.507 113.533C179.582 114.621 177.844 116.152 176.289 118.102L177.853 119.349C179.273 117.568 180.821 116.218 182.491 115.274L181.507 113.533ZM176.289 118.102C174.747 120.036 173.404 122.234 172.259 124.691L174.071 125.536C175.157 123.208 176.419 121.147 177.853 119.349L176.289 118.102ZM172.259 124.691L163.536 143.397L165.349 144.243L174.071 125.536L172.259 124.691ZM163.536 143.397C162.329 145.986 161.44 148.472 160.876 150.854L162.822 151.315C163.35 149.086 164.189 146.729 165.349 144.243L163.536 143.397ZM160.876 150.854C160.303 153.276 160.208 155.585 160.614 157.77L162.58 157.405C162.232 155.531 162.304 153.505 162.822 151.315L160.876 150.854ZM160.614 157.77C161.023 159.967 161.95 161.972 163.382 163.776L164.949 162.533C163.711 160.974 162.927 159.268 162.58 157.405L160.614 157.77ZM163.403 163.802C164.892 165.553 167.014 167.043 169.71 168.3L170.555 166.487C168.031 165.31 166.175 163.974 164.927 162.507L163.403 163.802ZM235.962 119.442L236.385 118.535L235.479 118.113L235.056 119.019L235.962 119.442ZM261.194 131.207L262.13 131.56L262.457 130.693L261.617 130.301L261.194 131.207ZM238.869 190.442L239.775 190.865L239.791 190.83L239.804 190.795L238.869 190.442ZM233.696 201.535L232.79 201.113L232.367 202.019L233.273 202.441L233.696 201.535ZM236.306 202.752L235.883 203.659L236.79 204.081L237.212 203.175L236.306 202.752ZM241.479 191.659L240.607 191.169L240.589 191.202L240.573 191.237L241.479 191.659ZM272.505 136.482L272.927 135.575L272.087 135.184L271.633 135.991L272.505 136.482ZM297.736 148.247L298.643 148.67L299.065 147.764L298.159 147.341L297.736 148.247ZM262.236 224.377L261.814 225.283L262.72 225.706L263.143 224.8L262.236 224.377ZM249.186 218.291L248.279 217.869L247.857 218.775L248.763 219.198L249.186 218.291ZM272.92 167.393L272.048 166.904L272.029 166.937L272.014 166.971L272.92 167.393ZM282.339 150.601L283.211 151.09L283.739 150.15L282.762 149.694L282.339 150.601ZM279.729 149.383L280.152 148.477L279.317 148.088L278.861 148.887L279.729 149.383ZM242.225 215.046L241.803 215.952L242.637 216.341L243.094 215.542L242.225 215.046ZM220.691 205.004L219.752 204.661L219.437 205.523L220.269 205.911L220.691 205.004ZM246.667 133.966L247.606 134.31L247.921 133.448L247.09 133.06L246.667 133.966ZM244.057 132.749L244.479 131.843L243.503 131.387L243.121 132.396L244.057 132.749ZM237.248 150.759L238.154 151.182L238.17 151.148L238.183 151.113L237.248 150.759ZM213.513 201.657L213.091 202.563L213.997 202.986L214.42 202.08L213.513 201.657ZM200.463 195.571L199.556 195.149L199.134 196.055L200.04 196.478L200.463 195.571ZM235.54 120.348L260.771 132.114L261.617 130.301L236.385 118.535L235.54 120.348ZM260.258 130.855L237.933 190.089L239.804 190.795L262.13 131.56L260.258 130.855ZM237.962 190.019L232.79 201.113L234.602 201.958L239.775 190.865L237.962 190.019ZM233.273 202.441L235.883 203.659L236.729 201.846L234.118 200.629L233.273 202.441ZM237.212 203.175L242.385 192.082L240.573 191.237L235.4 202.33L237.212 203.175ZM242.35 192.149L273.376 136.972L271.633 135.991L240.607 191.169L242.35 192.149ZM272.082 137.388L297.314 149.154L298.159 147.341L272.927 135.575L272.082 137.388ZM296.83 147.825L261.33 223.954L263.143 224.8L298.643 148.67L296.83 147.825ZM262.659 223.471L249.608 217.385L248.763 219.198L261.814 225.283L262.659 223.471ZM250.092 218.714L273.826 167.816L272.014 166.971L248.279 217.869L250.092 218.714ZM273.792 167.882L283.211 151.09L281.467 150.111L272.048 166.904L273.792 167.882ZM282.762 149.694L280.152 148.477L279.306 150.29L281.917 151.507L282.762 149.694ZM278.861 148.887L241.357 214.55L243.094 215.542L280.597 149.879L278.861 148.887ZM242.648 214.139L221.114 204.098L220.269 205.911L241.803 215.952L242.648 214.139ZM221.631 205.348L247.606 134.31L245.728 133.623L219.752 204.661L221.631 205.348ZM247.09 133.06L244.479 131.843L243.634 133.656L246.244 134.873L247.09 133.06ZM243.121 132.396L236.312 150.405L238.183 151.113L244.992 133.103L243.121 132.396ZM236.341 150.336L212.607 201.235L214.42 202.08L238.154 151.182L236.341 150.336ZM213.936 200.751L200.885 194.665L200.04 196.478L213.091 202.563L213.936 200.751ZM201.369 195.994L236.869 119.864L235.056 119.019L199.556 195.149L201.369 195.994ZM307.993 153.03L308.415 152.124L307.509 151.701L307.086 152.607L307.993 153.03ZM358.891 176.764L359.797 177.187L360.22 176.28L359.314 175.858L358.891 176.764ZM352.501 190.467L352.078 191.374L352.985 191.796L353.407 190.89L352.501 190.467ZM334.23 181.947L334.652 181.041L333.746 180.619L333.323 181.525L334.23 181.947ZM311.51 230.671L310.604 230.248L310.181 231.154L311.087 231.577L311.51 230.671ZM329.781 239.191L330.687 239.613L331.11 238.707L330.204 238.284L329.781 239.191ZM323.391 252.894L322.968 253.8L323.875 254.223L324.297 253.317L323.391 252.894ZM272.493 229.16L271.586 228.737L271.164 229.643L272.07 230.066L272.493 229.16ZM278.883 215.456L279.305 214.55L278.399 214.127L277.976 215.034L278.883 215.456ZM297.154 223.976L296.731 224.883L297.638 225.305L298.06 224.399L297.154 223.976ZM319.874 175.253L320.78 175.676L321.203 174.769L320.296 174.347L319.874 175.253ZM301.603 166.733L300.696 166.311L300.274 167.217L301.18 167.64L301.603 166.733ZM307.57 153.936L358.468 177.67L359.314 175.858L308.415 152.124L307.57 153.936ZM357.985 176.341L351.595 190.045L353.407 190.89L359.797 177.187L357.985 176.341ZM352.924 189.561L334.652 181.041L333.807 182.854L352.078 191.374L352.924 189.561ZM333.323 181.525L310.604 230.248L312.416 231.093L335.136 182.37L333.323 181.525ZM311.087 231.577L329.358 240.097L330.204 238.284L311.932 229.764L311.087 231.577ZM328.875 238.768L322.485 252.471L324.297 253.317L330.687 239.613L328.875 238.768ZM323.814 251.988L272.915 228.253L272.07 230.066L322.968 253.8L323.814 251.988ZM273.399 229.582L279.789 215.879L277.976 215.034L271.586 228.737L273.399 229.582ZM278.46 216.363L296.731 224.883L297.577 223.07L279.305 214.55L278.46 216.363ZM298.06 224.399L320.78 175.676L318.968 174.831L296.248 223.554L298.06 224.399ZM320.296 174.347L302.025 165.827L301.18 167.64L319.451 176.159L320.296 174.347ZM302.509 167.156L308.899 153.452L307.086 152.607L300.696 166.311L302.509 167.156ZM378.213 269.719L377.26 269.416L376.994 270.254L377.791 270.626L378.213 269.719ZM380.171 270.632L379.748 271.538L380.655 271.961L381.077 271.055L380.171 270.632ZM412.324 201.68L412.746 200.774L411.84 200.351L411.417 201.258L412.324 201.68ZM426.68 208.374L427.586 208.797L428.009 207.891L427.102 207.468L426.68 208.374ZM391.18 284.504L390.757 285.411L391.663 285.833L392.086 284.927L391.18 284.504ZM363.12 271.42L362.167 271.117L361.901 271.955L362.698 272.326L363.12 271.42ZM386.355 198.31L387.308 198.612L387.574 197.775L386.778 197.403L386.355 198.31ZM384.398 197.397L384.82 196.49L383.914 196.068L383.491 196.974L384.398 197.397ZM352.245 266.349L351.822 267.255L352.728 267.678L353.151 266.771L352.245 266.349ZM337.889 259.654L336.982 259.232L336.56 260.138L337.466 260.561L337.889 259.654ZM373.389 183.525L373.811 182.618L372.905 182.196L372.482 183.102L373.389 183.525ZM401.448 196.609L402.401 196.912L402.667 196.074L401.871 195.702L401.448 196.609ZM377.791 270.626L379.748 271.538L380.594 269.726L378.636 268.813L377.791 270.626ZM381.077 271.055L413.23 202.103L411.417 201.258L379.265 270.209L381.077 271.055ZM411.901 202.586L426.257 209.281L427.102 207.468L412.746 200.774L411.901 202.586ZM425.773 207.952L390.273 284.082L392.086 284.927L427.586 208.797L425.773 207.952ZM391.602 283.598L363.543 270.514L362.698 272.326L390.757 285.411L391.602 283.598ZM364.073 271.723L387.308 198.612L385.402 198.007L362.167 271.117L364.073 271.723ZM386.778 197.403L384.82 196.49L383.975 198.303L385.933 199.216L386.778 197.403ZM383.491 196.974L351.338 265.926L353.151 266.771L385.304 197.819L383.491 196.974ZM352.667 265.442L338.311 258.748L337.466 260.561L351.822 267.255L352.667 265.442ZM338.795 260.077L374.295 183.947L372.482 183.102L336.982 259.232L338.795 260.077ZM372.966 184.431L401.025 197.515L401.871 195.702L373.811 182.618L372.966 184.431ZM400.495 196.306L377.26 269.416L379.166 270.022L402.401 196.912L400.495 196.306ZM444.077 262.299L444.499 261.393L443.593 260.97L443.17 261.876L444.077 262.299ZM476.704 277.513L477.61 277.936L478.033 277.03L477.126 276.607L476.704 277.513ZM458.751 316.013L458.328 316.92L459.235 317.342L459.657 316.436L458.751 316.013ZM445.7 309.928L444.794 309.505L444.371 310.411L445.277 310.834L445.7 309.928ZM449.656 301.445L450.562 301.867L450.985 300.961L450.078 300.538L449.656 301.445ZM447.698 300.532L448.121 299.625L447.451 299.313L446.956 299.861L447.698 300.532ZM439.348 305.377L439.563 306.353L439.572 306.351L439.581 306.349L439.348 305.377ZM418.061 296.51L418.807 295.843L418.061 296.51ZM412.81 287.043L411.847 287.315L411.851 287.328L412.81 287.043ZM411.943 274.988L410.949 274.879L410.949 274.885L411.943 274.988ZM432.693 230.774L431.994 230.059L431.987 230.066L432.693 230.774ZM443.079 223.834L442.724 222.899L442.717 222.901L442.711 222.904L443.079 223.834ZM454.845 222.17L454.767 223.167L454.776 223.168L454.785 223.168L454.845 222.17ZM477.959 233.081L477.216 233.749L477.222 233.756L477.228 233.763L477.959 233.081ZM483.921 243.011L482.972 243.325L482.974 243.332L482.977 243.339L483.921 243.011ZM485.251 254.356L484.255 254.267L484.255 254.274L485.251 254.356ZM481.471 267.29L481.048 268.196L481.955 268.619L482.377 267.713L481.471 267.29ZM467.115 260.596L466.209 260.173L465.786 261.08L466.692 261.502L467.115 260.596ZM468.952 247.285L468.008 247.613L468.013 247.627L468.018 247.642L468.952 247.285ZM448.796 238.548L449.151 239.483L449.164 239.479L448.796 238.548ZM448.276 292.195L447.919 291.26L447.918 291.261L448.276 292.195ZM455.958 284.522L456.864 284.945L457.287 284.039L456.38 283.616L455.958 284.522ZM437.687 276.002L436.78 275.58L436.358 276.486L437.264 276.909L437.687 276.002ZM443.654 263.205L476.281 278.42L477.126 276.607L444.499 261.393L443.654 263.205ZM475.797 277.091L457.845 315.591L459.657 316.436L477.61 277.936L475.797 277.091ZM459.174 315.107L446.123 309.021L445.277 310.834L458.328 316.92L459.174 315.107ZM446.606 310.35L450.562 301.867L448.749 301.022L444.794 309.505L446.606 310.35ZM450.078 300.538L448.121 299.625L447.276 301.438L449.233 302.351L450.078 300.538ZM446.956 299.861C444.912 302.124 442.31 303.64 439.116 304.404L439.581 306.349C443.142 305.497 446.107 303.784 448.44 301.202L446.956 299.861ZM439.133 304.4C436.097 305.068 432.199 304.382 427.359 302.125L426.514 303.938C431.534 306.279 435.911 307.157 439.563 306.353L439.133 304.4ZM427.359 302.125C423.995 300.557 421.148 298.462 418.807 295.843L417.316 297.176C419.847 300.007 422.917 302.261 426.514 303.938L427.359 302.125ZM418.807 295.843C416.471 293.231 414.792 290.207 413.768 286.759L411.851 287.328C412.956 291.052 414.778 294.339 417.316 297.176L418.807 295.843ZM413.772 286.772C412.781 283.253 412.496 279.364 412.938 275.091L410.949 274.885C410.485 279.37 410.777 283.517 411.847 287.315L413.772 286.772ZM412.938 275.097C413.41 270.777 414.798 266.12 417.13 261.121L415.317 260.275C412.916 265.426 411.451 270.296 410.949 274.879L412.938 275.097ZM417.13 261.121L425.447 243.284L423.635 242.439L415.317 260.275L417.13 261.121ZM425.447 243.284C427.708 238.437 430.363 234.511 433.399 231.482L431.987 230.066C428.752 233.293 425.972 237.426 423.635 242.439L425.447 243.284ZM433.392 231.49C436.552 228.403 439.905 226.169 443.448 224.763L442.711 222.904C438.889 224.42 435.317 226.813 431.994 230.059L433.392 231.49ZM443.435 224.768C447.049 223.395 450.822 222.86 454.767 223.167L454.922 221.173C450.69 220.844 446.62 221.419 442.724 222.899L443.435 224.768ZM454.785 223.168C458.768 223.405 462.809 224.471 466.914 226.386L467.759 224.573C463.454 222.565 459.167 221.425 454.904 221.172L454.785 223.168ZM466.914 226.386C471.163 228.367 474.588 230.826 477.216 233.749L478.703 232.413C475.867 229.257 472.21 226.649 467.759 224.573L466.914 226.386ZM477.228 233.763C479.9 236.63 481.81 239.816 482.972 243.325L484.871 242.697C483.614 238.899 481.549 235.465 478.691 232.399L477.228 233.763ZM482.977 243.339C484.171 246.779 484.6 250.418 484.255 254.267L486.247 254.445C486.616 250.329 486.158 246.405 484.866 242.683L482.977 243.339ZM484.255 254.274C483.942 258.057 482.919 261.818 481.173 265.562L482.986 266.408C484.824 262.466 485.915 258.475 486.248 254.438L484.255 254.274ZM481.173 265.562L480.565 266.868L482.377 267.713L482.986 266.408L481.173 265.562ZM481.893 266.384L467.538 259.69L466.692 261.502L481.048 268.196L481.893 266.384ZM468.021 261.019L468.63 259.713L466.817 258.868L466.209 260.173L468.021 261.019ZM468.63 259.713C470.831 254.994 471.325 250.7 469.887 246.929L468.018 247.642C469.201 250.743 468.876 254.452 466.817 258.868L468.63 259.713ZM469.897 246.958C468.581 243.16 465.602 240.25 461.152 238.175L460.306 239.988C464.412 241.902 466.915 244.461 468.008 247.613L469.897 246.958ZM461.152 238.175C456.862 236.175 452.599 235.972 448.429 237.618L449.164 239.479C452.784 238.049 456.476 238.201 460.306 239.988L461.152 238.175ZM448.441 237.613C444.207 239.221 440.593 243.552 437.483 250.221L439.296 251.066C442.34 244.539 445.663 240.807 449.151 239.483L448.441 237.613ZM437.483 250.221L429.978 266.317L431.79 267.162L439.296 251.066L437.483 250.221ZM429.978 266.317C427.193 272.29 426.238 277.503 427.342 281.872C428.457 286.29 431.622 289.637 436.602 291.959L437.447 290.146C432.856 288.005 430.212 285.069 429.281 281.382C428.337 277.647 429.098 272.935 431.79 267.162L429.978 266.317ZM436.602 291.959C441.032 294.025 445.075 294.49 448.633 293.129L447.918 291.261C445.03 292.366 441.572 292.07 437.447 290.146L436.602 291.959ZM448.633 293.129C452.25 291.747 454.985 288.976 456.864 284.945L455.052 284.1C453.347 287.755 450.961 290.098 447.919 291.26L448.633 293.129ZM456.38 283.616L438.109 275.096L437.264 276.909L455.535 285.429L456.38 283.616ZM438.593 276.425L444.983 262.722L443.17 261.876L436.78 275.58L438.593 276.425Z" fill="#30EFD3"/>
<path d="M100.93 284.691L101.907 284.903L102.076 284.123L101.353 283.785L100.93 284.691ZM75.0457 272.621L75.4684 271.715L74.7445 271.378L74.2553 272.009L75.0457 272.621ZM63.7409 287.211L63.3183 288.117L64.0421 288.454L64.5313 287.823L63.7409 287.211ZM48.7324 280.212L47.9489 279.591L47.1618 280.583L48.3098 281.118L48.7324 280.212ZM102.395 212.551L102.817 211.645L102.102 211.312L101.611 211.93L102.395 212.551ZM129.366 225.129L130.346 225.329L130.505 224.556L129.789 224.222L129.366 225.129ZM112.029 309.728L111.606 310.634L112.754 311.169L113.009 309.928L112.029 309.728ZM97.0205 302.729L96.0432 302.517L95.874 303.298L96.5979 303.635L97.0205 302.729ZM84.4809 260.338L83.6919 259.724L82.9209 260.714L84.0583 261.244L84.4809 260.338ZM104.166 269.517L103.743 270.424L104.878 270.952L105.143 269.729L104.166 269.517ZM113.512 226.474L114.49 226.687L114.659 225.906L113.935 225.568L113.512 226.474ZM111.555 225.562L111.977 224.655L111.255 224.318L110.766 224.947L111.555 225.562ZM101.353 283.785L75.4684 271.715L74.6231 273.528L100.507 285.598L101.353 283.785ZM74.2553 272.009L62.9504 286.598L64.5313 287.823L75.8362 273.234L74.2553 272.009ZM64.1635 286.304L49.155 279.306L48.3098 281.118L63.3183 288.117L64.1635 286.304ZM49.5159 280.833L103.178 213.173L101.611 211.93L47.9489 279.591L49.5159 280.833ZM101.972 213.458L128.944 226.035L129.789 224.222L102.817 211.645L101.972 213.458ZM128.387 224.928L111.049 309.527L113.009 309.928L130.346 225.329L128.387 224.928ZM112.452 308.821L97.4431 301.823L96.5979 303.635L111.606 310.634L112.452 308.821ZM97.9978 302.941L101.907 284.903L99.9526 284.48L96.0432 302.517L97.9978 302.941ZM84.0583 261.244L103.743 270.424L104.589 268.611L84.9035 259.432L84.0583 261.244ZM105.143 269.729L114.49 226.687L112.535 226.262L103.189 269.305L105.143 269.729ZM113.935 225.568L111.977 224.655L111.132 226.468L113.09 227.381L113.935 225.568ZM110.766 224.947L83.6919 259.724L85.27 260.952L112.344 226.176L110.766 224.947ZM149.268 292.138L149.691 291.231L148.785 290.809L148.362 291.715L149.268 292.138ZM135.88 320.85L135.457 321.756L136.364 322.179L136.786 321.272L135.88 320.85ZM121.524 314.155L120.618 313.733L120.195 314.639L121.101 315.062L121.524 314.155ZM157.024 238.025L157.446 237.119L156.54 236.697L156.118 237.603L157.024 238.025ZM196.134 258.646L195.376 259.299L195.383 259.307L195.39 259.315L196.134 258.646ZM200.979 266.996L200.022 267.286L200.027 267.304L200.033 267.321L200.979 266.996ZM202.033 276.094L201.037 275.995L201.036 276.012L201.035 276.028L202.033 276.094ZM193.158 295.126L192.453 294.416L192.448 294.422L192.443 294.427L193.158 295.126ZM185.409 300.384L185.018 299.464L185.017 299.465L185.409 300.384ZM175.848 302.149L175.834 303.149L175.848 302.149ZM155.658 278.434L154.752 278.012L154.329 278.918L155.236 279.341L155.658 278.434ZM178.409 285.866L178.105 284.913L178.096 284.916L178.087 284.919L178.409 285.866ZM185.307 271.075L184.374 271.436L184.378 271.445L184.381 271.454L185.307 271.075ZM164.99 258.423L165.412 257.517L164.506 257.094L164.083 258L164.99 258.423ZM148.362 291.715L134.974 320.427L136.786 321.272L150.175 292.56L148.362 291.715ZM136.302 319.943L121.947 313.249L121.101 315.062L135.457 321.756L136.302 319.943ZM122.43 314.578L157.93 238.448L156.118 237.603L120.618 313.733L122.43 314.578ZM156.601 238.932L186.401 252.827L187.246 251.015L157.446 237.119L156.601 238.932ZM186.401 252.827C190.217 254.607 193.196 256.77 195.376 259.299L196.891 257.993C194.488 255.206 191.26 252.887 187.246 251.015L186.401 252.827ZM195.39 259.315C197.629 261.803 199.164 264.46 200.022 267.286L201.936 266.706C200.984 263.568 199.289 260.658 196.877 257.977L195.39 259.315ZM200.033 267.321C200.997 270.127 201.332 273.015 201.037 275.995L203.028 276.192C203.35 272.928 202.982 269.751 201.924 266.671L200.033 267.321ZM201.035 276.028C200.841 278.99 200.127 281.788 198.896 284.429L200.709 285.274C202.047 282.405 202.82 279.364 203.03 276.159L201.035 276.028ZM198.896 284.429L197.679 287.039L199.491 287.884L200.709 285.274L198.896 284.429ZM197.679 287.039C196.412 289.756 194.673 292.214 192.453 294.416L193.862 295.836C196.242 293.474 198.121 290.823 199.491 287.884L197.679 287.039ZM192.443 294.427C190.344 296.573 187.872 298.252 185.018 299.464L185.8 301.305C188.89 299.992 191.584 298.166 193.873 295.825L192.443 294.427ZM185.017 299.465C182.295 300.627 179.248 301.194 175.861 301.149L175.834 303.149C179.465 303.198 182.793 302.589 185.802 301.304L185.017 299.465ZM175.861 301.149C172.523 301.104 168.95 300.212 165.135 298.433L164.289 300.245C168.304 302.118 172.155 303.099 175.834 303.149L175.861 301.149ZM165.135 298.433L149.691 291.231L148.846 293.044L164.289 300.245L165.135 298.433ZM155.236 279.341L169.265 285.883L170.111 284.07L156.081 277.528L155.236 279.341ZM169.265 285.883C172.624 287.449 175.803 287.811 178.732 286.812L178.087 284.919C175.768 285.71 173.133 285.479 170.111 284.07L169.265 285.883ZM178.714 286.818C181.697 285.865 183.895 283.851 185.288 280.864L183.475 280.019C182.298 282.542 180.515 284.144 178.105 284.913L178.714 286.818ZM185.288 280.864L185.896 279.559L184.084 278.714L183.475 280.019L185.288 280.864ZM185.896 279.559C187.289 276.572 187.42 273.593 186.232 270.695L184.381 271.454C185.341 273.794 185.26 276.19 184.084 278.714L185.896 279.559ZM186.239 270.714C185.121 267.827 182.8 265.625 179.442 264.059L178.597 265.872C181.619 267.281 183.489 269.151 184.374 271.436L186.239 270.714ZM179.442 264.059L165.412 257.517L164.567 259.329L178.597 265.872L179.442 264.059ZM164.083 258L154.752 278.012L156.565 278.857L165.896 258.846L164.083 258ZM239.341 369.094L238.918 370.001L239.825 370.423L240.247 369.517L239.341 369.094ZM224.985 362.4L224.079 361.977L223.656 362.884L224.562 363.306L224.985 362.4ZM236.199 334.66L235.227 334.896L235.232 334.915L235.237 334.934L236.199 334.66ZM215.97 323.241L216.392 322.335L215.486 321.912L215.063 322.818L215.97 323.241ZM202.581 351.953L202.158 352.859L203.065 353.282L203.487 352.375L202.581 351.953ZM188.225 345.259L187.319 344.836L186.896 345.742L187.802 346.165L188.225 345.259ZM223.725 269.129L224.148 268.222L223.241 267.8L222.819 268.706L223.725 269.129ZM262.443 289.169L263.151 288.463L262.443 289.169ZM267.709 297.186L266.769 297.528L266.775 297.545L266.782 297.562L267.709 297.186ZM269.183 305.95L268.184 305.894L268.184 305.906L268.183 305.918L269.183 305.95ZM259.184 325.12L259.731 325.958L259.741 325.951L259.184 325.12ZM248.572 327.719L248.613 326.72L247.947 326.692L247.665 327.296L248.572 327.719ZM247.659 329.676L246.753 329.254L246.375 330.062L247.136 330.529L247.659 329.676ZM252.271 335.402L251.31 335.678L251.313 335.69L251.317 335.701L252.271 335.402ZM222.36 309.538L221.453 309.115L221.031 310.021L221.937 310.444L222.36 309.538ZM245.118 317.237L245.399 318.197L245.41 318.194L245.42 318.19L245.118 317.237ZM252.015 302.446L251.069 302.77L251.072 302.779L251.075 302.788L252.015 302.446ZM231.691 289.526L232.114 288.62L231.207 288.197L230.785 289.104L231.691 289.526ZM239.763 368.188L225.408 361.494L224.562 363.306L238.918 370.001L239.763 368.188ZM225.891 362.823L236.541 339.984L234.729 339.138L224.079 361.977L225.891 362.823ZM236.541 339.984C237.432 338.073 237.675 336.19 237.161 334.386L235.237 334.934C235.594 336.184 235.461 337.569 234.729 339.138L236.541 339.984ZM237.171 334.424C236.705 332.51 235.158 331.085 232.923 330.043L232.078 331.856C234.049 332.775 234.967 333.824 235.227 334.896L237.171 334.424ZM232.923 330.043L216.392 322.335L215.547 324.147L232.078 331.856L232.923 330.043ZM215.063 322.818L201.675 351.53L203.487 352.375L216.876 323.664L215.063 322.818ZM203.004 351.047L188.648 344.352L187.802 346.165L202.158 352.859L203.004 351.047ZM189.131 345.681L224.631 269.551L222.819 268.706L187.319 344.836L189.131 345.681ZM223.302 270.035L252.449 283.626L253.294 281.814L224.148 268.222L223.302 270.035ZM252.449 283.626C256.283 285.414 259.369 287.502 261.735 289.875L263.151 288.463C260.586 285.89 257.292 283.678 253.294 281.814L252.449 283.626ZM261.735 289.875C264.112 292.261 265.781 294.812 266.769 297.528L268.648 296.844C267.547 293.818 265.705 291.025 263.151 288.463L261.735 289.875ZM266.782 297.562C267.878 300.259 268.344 303.033 268.184 305.894L270.181 306.006C270.358 302.845 269.841 299.776 268.635 296.809L266.782 297.562ZM268.183 305.918C268.092 308.821 267.402 311.661 266.104 314.445L267.917 315.29C269.324 312.273 270.082 309.168 270.182 305.981L268.183 305.918ZM266.104 314.445L264.887 317.055L266.7 317.9L267.917 315.29L266.104 314.445ZM264.887 317.055C263.513 320.001 261.434 322.41 258.628 324.29L259.741 325.951C262.839 323.876 265.166 321.189 266.7 317.9L264.887 317.055ZM258.638 324.283C255.925 326.054 252.603 326.885 248.613 326.72L248.53 328.718C252.853 328.898 256.606 327.997 259.731 325.958L258.638 324.283ZM247.665 327.296L246.753 329.254L248.565 330.099L249.478 328.141L247.665 327.296ZM247.136 330.529C249.361 331.893 250.717 333.612 251.31 335.678L253.232 335.126C252.48 332.505 250.762 330.406 248.182 328.824L247.136 330.529ZM251.317 335.701C251.978 337.811 251.799 340.011 250.707 342.352L252.52 343.198C253.795 340.464 254.054 337.749 253.225 335.103L251.317 335.701ZM250.707 342.352L238.435 368.672L240.247 369.517L252.52 343.198L250.707 342.352ZM221.937 310.444L235.64 316.834L236.486 315.021L222.782 308.631L221.937 310.444ZM235.64 316.834C239.245 318.515 242.525 319.04 245.399 318.197L244.836 316.278C242.598 316.934 239.841 316.586 236.486 315.021L235.64 316.834ZM245.42 318.19C248.332 317.266 250.511 315.136 251.989 311.967L250.176 311.122C248.882 313.898 247.085 315.564 244.815 316.284L245.42 318.19ZM251.989 311.967L252.597 310.662L250.785 309.817L250.176 311.122L251.989 311.967ZM252.597 310.662C253.894 307.881 254.012 305.008 252.955 302.104L251.075 302.788C251.953 305.2 251.855 307.522 250.785 309.817L252.597 310.662ZM252.961 302.123C251.913 299.058 249.459 296.708 245.817 295.01L244.972 296.823C248.29 298.37 250.249 300.374 251.069 302.77L252.961 302.123ZM245.817 295.01L232.114 288.62L231.268 290.433L244.972 296.823L245.817 295.01ZM230.785 289.104L221.453 309.115L223.266 309.96L232.597 289.949L230.785 289.104ZM290.209 300.131L290.631 299.224L289.725 298.802L289.302 299.708L290.209 300.131ZM341.107 323.865L342.013 324.287L342.436 323.381L341.529 322.958L341.107 323.865ZM334.717 337.568L334.294 338.474L335.201 338.897L335.623 337.991L334.717 337.568ZM316.446 329.048L316.868 328.142L315.962 327.719L315.539 328.626L316.446 329.048ZM293.726 377.771L292.819 377.349L292.397 378.255L293.303 378.678L293.726 377.771ZM311.997 386.291L312.903 386.714L313.326 385.808L312.42 385.385L311.997 386.291ZM305.607 399.995L305.184 400.901L306.091 401.324L306.513 400.417L305.607 399.995ZM254.709 376.26L253.802 375.838L253.38 376.744L254.286 377.167L254.709 376.26ZM261.099 362.557L261.521 361.651L260.615 361.228L260.192 362.134L261.099 362.557ZM279.37 371.077L278.947 371.983L279.854 372.406L280.276 371.5L279.37 371.077ZM302.09 322.354L302.996 322.777L303.419 321.87L302.512 321.448L302.09 322.354ZM283.819 313.834L282.912 313.411L282.49 314.318L283.396 314.74L283.819 313.834ZM289.786 301.037L340.684 324.771L341.529 322.958L290.631 299.224L289.786 301.037ZM340.201 323.442L333.811 337.146L335.623 337.991L342.013 324.287L340.201 323.442ZM335.139 336.662L316.868 328.142L316.023 329.954L334.294 338.474L335.139 336.662ZM315.539 328.626L292.819 377.349L294.632 378.194L317.352 329.471L315.539 328.626ZM293.303 378.678L311.574 387.198L312.42 385.385L294.148 376.865L293.303 378.678ZM311.091 385.869L304.701 399.572L306.513 400.417L312.903 386.714L311.091 385.869ZM306.03 399.088L255.131 375.354L254.286 377.167L305.184 400.901L306.03 399.088ZM255.615 376.683L262.005 362.98L260.192 362.134L253.802 375.838L255.615 376.683ZM260.676 363.463L278.947 371.983L279.792 370.171L261.521 361.651L260.676 363.463ZM280.276 371.5L302.996 322.777L301.184 321.931L278.464 370.654L280.276 371.5ZM302.512 321.448L284.241 312.928L283.396 314.74L301.667 323.26L302.512 321.448ZM284.725 314.257L291.115 300.553L289.302 299.708L282.912 313.411L284.725 314.257ZM357.889 331.69L358.311 330.784L357.405 330.361L356.982 331.268L357.889 331.69ZM372.244 338.384L373.151 338.807L373.573 337.901L372.667 337.478L372.244 338.384ZM343.135 400.811L342.228 400.388L341.806 401.295L342.712 401.717L343.135 400.811ZM377.719 416.938L378.626 417.361L379.048 416.454L378.142 416.032L377.719 416.938ZM371.329 430.641L370.907 431.548L371.813 431.97L372.236 431.064L371.329 430.641ZM322.389 407.82L321.482 407.397L321.06 408.304L321.966 408.726L322.389 407.82ZM357.466 332.597L371.822 339.291L372.667 337.478L358.311 330.784L357.466 332.597ZM371.338 337.962L342.228 400.388L344.041 401.234L373.151 338.807L371.338 337.962ZM342.712 401.717L377.297 417.844L378.142 416.032L343.557 399.905L342.712 401.717ZM376.813 416.515L370.423 430.219L372.236 431.064L378.626 417.361L376.813 416.515ZM371.752 429.735L322.811 406.914L321.966 408.726L370.907 431.548L371.752 429.735ZM323.295 408.243L358.795 332.113L356.982 331.268L321.482 407.397L323.295 408.243Z" fill="#FCBB00"/>
<path d="M89.8315 426.885L90.7378 427.308L91.1604 426.401L90.2541 425.979L89.8315 426.885ZM83.4415 440.589L83.0189 441.495L83.9252 441.917L84.3478 441.011L83.4415 440.589ZM29.9331 415.637L29.0268 415.215L28.6041 416.121L29.5105 416.543L29.9331 415.637ZM43.4389 391.217L42.7769 390.467L42.7688 390.475L42.7608 390.482L43.4389 391.217ZM51.8976 386.423L51.621 385.462L51.6132 385.464L51.6054 385.466L51.8976 386.423ZM62.177 385.39L62.1172 386.388L62.1272 386.389L62.1371 386.389L62.177 385.39ZM74.2479 387.047L74.0319 388.023L74.0345 388.024L74.2479 387.047ZM82.3314 388.168L82.3095 389.168L82.3185 389.168L82.3274 389.168L82.3314 388.168ZM88.109 387.42L88.4184 388.371L88.4348 388.365L88.451 388.359L88.109 387.42ZM91.907 384.954L91.1808 384.266L91.1685 384.279L91.1567 384.292L91.907 384.954ZM94.7666 371.723L93.8392 372.097L93.8423 372.104L93.8455 372.112L94.7666 371.723ZM75.3791 363.609L75.7212 364.549L75.728 364.546L75.7347 364.543L75.3791 363.609ZM64.6321 377.002L64.2095 377.908L65.1158 378.331L65.5384 377.424L64.6321 377.002ZM50.2762 370.308L49.3699 369.885L48.9473 370.791L49.8536 371.214L50.2762 370.308ZM59.6815 354.965L58.9969 354.236L58.9884 354.244L59.6815 354.965ZM69.075 349.018L68.719 348.083L68.7186 348.083L69.075 349.018ZM80.4634 347.311L80.4113 348.309L80.4204 348.31L80.4294 348.31L80.4634 347.311ZM104.006 358.156L103.274 358.838L103.28 358.845L103.287 358.851L104.006 358.156ZM110.054 367.332L109.12 367.689L109.123 367.697L109.126 367.704L110.054 367.332ZM111.616 377.329L110.619 377.251L110.618 377.266L110.617 377.282L111.616 377.329ZM95.7976 401.597L95.3871 400.685L95.378 400.69L95.7976 401.597ZM74.0277 402.568L74.2344 401.589L74.2327 401.589L74.0277 402.568ZM64.3782 401.114L64.2935 402.11L64.3024 402.111L64.3113 402.111L64.3782 401.114ZM57.9988 401.449L57.7489 400.481L57.7489 400.481L57.9988 401.449ZM53.8165 403.603L53.1394 402.867L53.1277 402.878L53.1163 402.889L53.8165 403.603ZM50.679 408.628L49.7727 408.205L49.35 409.112L50.2564 409.534L50.679 408.628ZM88.9252 426.463L82.5352 440.166L84.3478 441.011L90.7378 427.308L88.9252 426.463ZM83.8641 439.682L30.3557 414.731L29.5105 416.543L83.0189 441.495L83.8641 439.682ZM30.8394 416.06L37.8379 401.051L36.0253 400.206L29.0268 415.215L30.8394 416.06ZM37.8379 401.051C39.6584 397.147 41.7583 394.128 44.117 391.952L42.7608 390.482C40.1622 392.879 37.9239 396.135 36.0253 400.206L37.8379 401.051ZM44.1008 391.967C46.5508 389.803 49.2457 388.278 52.1897 387.379L51.6054 385.466C48.3735 386.454 45.4292 388.125 42.7769 390.467L44.1008 391.967ZM52.1741 387.384C55.2127 386.509 58.5242 386.173 62.1172 386.388L62.2368 384.392C58.445 384.165 54.9034 384.517 51.621 385.462L52.1741 387.384ZM62.1371 386.389C65.7944 386.535 69.7585 387.078 74.0319 388.023L74.4638 386.07C70.0953 385.104 66.0122 384.542 62.2169 384.391L62.1371 386.389ZM74.0345 388.024C77.274 388.731 80.0372 389.118 82.3095 389.168L82.3532 387.168C80.2565 387.122 77.6307 386.762 74.4612 386.07L74.0345 388.024ZM82.3274 389.168C84.6859 389.177 86.7251 388.922 88.4184 388.371L87.7995 386.469C86.371 386.934 84.5585 387.177 82.3353 387.168L82.3274 389.168ZM88.451 388.359C90.172 387.733 91.5894 386.826 92.6572 385.615L91.1567 384.292C90.3499 385.208 89.2353 385.945 87.7669 386.48L88.451 388.359ZM92.6331 385.641C93.7613 384.45 94.7122 383.008 95.4944 381.33L93.6818 380.485C92.9763 381.998 92.1398 383.253 91.1808 384.266L92.6331 385.641ZM95.4944 381.33C97.0332 378.03 97.0995 374.674 95.6877 371.333L93.8455 372.112C95.0357 374.928 94.9829 377.695 93.6818 380.485L95.4944 381.33ZM95.6939 371.348C94.3439 368.003 91.5439 365.409 87.4736 363.511L86.6284 365.324C90.3886 367.077 92.7324 369.354 93.8392 372.097L95.6939 371.348ZM87.4736 363.511C83.1406 361.491 78.9672 361.174 75.0235 362.674L75.7347 364.543C79.088 363.268 82.6959 363.49 86.6284 365.324L87.4736 363.511ZM75.0371 362.669C71.1107 364.098 68.1001 367.199 65.9572 371.794L67.7699 372.639C69.7518 368.389 72.4182 365.751 75.7212 364.549L75.0371 362.669ZM65.9572 371.794L63.7258 376.579L65.5384 377.424L67.7699 372.639L65.9572 371.794ZM65.0547 376.095L50.6988 369.401L49.8536 371.214L64.2095 377.908L65.0547 376.095ZM51.1825 370.73L54.0225 364.64L52.2099 363.795L49.3699 369.885L51.1825 370.73ZM54.0225 364.64C55.6291 361.194 57.7467 358.212 60.3746 355.686L58.9884 354.244C56.1759 356.948 53.9166 360.134 52.2099 363.795L54.0225 364.64ZM60.366 355.694C63.1028 353.124 66.1238 351.214 69.4315 349.952L68.7186 348.083C65.1545 349.443 61.9132 351.498 58.997 354.236L60.366 355.694ZM69.431 349.952C72.8342 348.656 76.4904 348.104 80.4113 348.309L80.5156 346.312C76.3363 346.094 72.4002 346.681 68.719 348.083L69.431 349.952ZM80.4294 348.31C84.3596 348.444 88.4088 349.471 92.5834 351.417L93.4286 349.605C89.0476 347.562 84.7351 346.455 80.4975 346.311L80.4294 348.31ZM92.5834 351.417C97.062 353.506 100.615 355.985 103.274 358.838L104.737 357.474C101.866 354.394 98.0855 351.776 93.4286 349.605L92.5834 351.417ZM103.287 358.851C106.008 361.664 107.943 364.611 109.12 367.689L110.988 366.975C109.699 363.606 107.602 360.436 104.724 357.461L103.287 358.851ZM109.126 367.704C110.377 370.823 110.872 374.001 110.619 377.251L112.613 377.406C112.89 373.841 112.344 370.356 110.983 366.96L109.126 367.704ZM110.617 377.282C110.465 380.521 109.707 383.6 108.342 386.527L110.155 387.372C111.63 384.208 112.45 380.874 112.615 377.376L110.617 377.282ZM108.342 386.527L107.733 387.832L109.546 388.677L110.155 387.372L108.342 386.527ZM107.733 387.832C104.843 394.029 100.722 398.284 95.3871 400.685L96.2081 402.509C102.045 399.881 106.486 395.24 109.546 388.677L107.733 387.832ZM95.378 400.69C90.1376 403.112 83.1258 403.468 74.2344 401.589L73.821 403.546C82.9288 405.471 90.4302 405.18 96.2172 402.505L95.378 400.69ZM74.2327 401.589C70.4259 400.792 67.1605 400.298 64.4452 400.116L64.3113 402.111C66.9027 402.285 70.0702 402.761 73.8228 403.547L74.2327 401.589ZM64.463 400.117C61.8497 399.895 59.6013 400.003 57.7489 400.481L58.2487 402.417C59.8082 402.015 61.8127 401.899 64.2935 402.11L64.463 400.117ZM57.7489 400.481C55.915 400.954 54.3646 401.74 53.1394 402.867L54.4936 404.339C55.433 403.475 56.6708 402.824 58.2487 402.417L57.7489 400.481ZM53.1163 402.889C52.0376 403.947 51.1307 405.293 50.3812 406.9L52.1939 407.746C52.8644 406.308 53.6434 405.174 54.5167 404.317L53.1163 402.889ZM50.3812 406.9L49.7727 408.205L51.5853 409.051L52.1939 407.746L50.3812 406.9ZM50.2564 409.534L89.4089 427.791L90.2541 425.979L51.1016 407.722L50.2564 409.534ZM137.061 411.438L136.719 410.498L137.061 411.438ZM131.077 424.271L130.137 424.613L130.137 424.613L131.077 424.271ZM134.478 379.78L134.098 378.856L134.091 378.859L134.478 379.78ZM175.697 399.001L174.742 399.297L174.744 399.304L175.697 399.001ZM146.283 462.08L145.915 461.15L145.908 461.153L146.283 462.08ZM105.064 442.859L104.113 443.168L104.115 443.175L105.064 442.859ZM135.195 449.23L135.188 450.23L135.205 450.23L135.222 450.23L135.195 449.23ZM141.11 447.619L141.602 448.49L141.11 447.619ZM145.93 443.246L146.731 443.844L145.93 443.246ZM160.934 410.786L161.914 410.984L160.934 410.786ZM161.077 404.232L162.06 404.049L161.077 404.232ZM158.509 398.665L157.705 399.261L157.715 399.274L157.725 399.287L158.509 398.665ZM145.893 392.783L145.92 393.782L145.937 393.782L145.953 393.781L145.893 392.783ZM139.978 394.394L139.486 393.523L139.978 394.394ZM135.049 398.716L134.268 398.092L135.049 398.716ZM119.828 431.075L118.855 430.845L119.828 431.075ZM119.576 437.578L120.559 437.395L119.576 437.578ZM122.144 443.144L121.361 443.766L121.371 443.779L121.382 443.792L122.144 443.144ZM132.257 417.01C133.289 414.795 134.984 413.258 137.403 412.378L136.719 410.498C133.823 411.552 131.71 413.448 130.444 416.164L132.257 417.01ZM137.403 412.378C139.823 411.497 142.109 411.585 144.323 412.618L145.168 410.805C142.452 409.539 139.615 409.444 136.719 410.498L137.403 412.378ZM144.323 412.618C146.538 413.65 148.074 415.345 148.955 417.764L150.834 417.08C149.78 414.184 147.884 412.071 145.168 410.805L144.323 412.618ZM148.955 417.764C149.836 420.184 149.748 422.47 148.715 424.684L150.528 425.53C151.794 422.813 151.888 419.976 150.834 417.08L148.955 417.764ZM148.715 424.684C147.683 426.899 145.988 428.435 143.568 429.316L144.252 431.195C147.148 430.141 149.261 428.246 150.528 425.53L148.715 424.684ZM143.568 429.316C141.149 430.197 138.863 430.109 136.648 429.076L135.803 430.889C138.519 432.155 141.356 432.249 144.252 431.195L143.568 429.316ZM136.648 429.076C134.434 428.044 132.897 426.349 132.017 423.929L130.137 424.613C131.191 427.509 133.087 429.622 135.803 430.889L136.648 429.076ZM132.017 423.929C131.136 421.51 131.224 419.224 132.257 417.01L130.444 416.164C129.177 418.88 129.083 421.717 130.137 424.613L132.017 423.929ZM117.289 399.702C121.818 389.988 127.698 383.716 134.866 380.702L134.091 378.859C126.327 382.123 120.142 388.85 115.476 398.857L117.289 399.702ZM134.859 380.705C142.091 377.727 149.952 378.169 158.523 382.166L159.368 380.353C150.394 376.168 141.943 375.624 134.098 378.856L134.859 380.705ZM158.523 382.166C167.095 386.163 172.447 391.882 174.742 399.297L176.653 398.705C174.158 390.647 168.343 384.538 159.368 380.353L158.523 382.166ZM174.744 399.304C177.113 406.765 176.123 415.315 171.595 425.025L173.407 425.871C178.075 415.86 179.216 406.779 176.65 398.699L174.744 399.304ZM171.595 425.025L163.683 441.992L165.496 442.837L173.407 425.871L171.595 425.025ZM163.683 441.992C159.015 452.003 153.068 458.316 145.915 461.15L146.651 463.01C154.44 459.924 160.697 453.127 165.496 442.837L163.683 441.992ZM145.908 461.153C138.82 464.021 131.028 463.529 122.448 459.528L121.603 461.341C130.57 465.522 138.949 466.127 146.658 463.007L145.908 461.153ZM122.448 459.528C113.87 455.528 108.444 449.856 106.013 442.544L104.115 443.175C106.754 451.114 112.636 457.159 121.603 461.341L122.448 459.528ZM106.015 442.551C103.658 435.282 104.707 426.682 109.377 416.668L107.565 415.823C102.768 426.11 101.546 435.253 104.113 443.168L106.015 442.551ZM109.377 416.668L117.289 399.702L115.476 398.857L107.565 415.823L109.377 416.668ZM127.689 448.29C130.385 449.547 132.89 450.215 135.188 450.23L135.201 448.23C133.275 448.217 131.059 447.654 128.534 446.477L127.689 448.29ZM135.222 450.23C137.524 450.167 139.656 449.589 141.602 448.49L140.618 446.748C138.968 447.68 137.157 448.176 135.168 448.23L135.222 450.23ZM141.602 448.49C143.537 447.396 145.245 445.839 146.731 443.844L145.128 442.649C143.783 444.453 142.278 445.811 140.618 446.748L141.602 448.49ZM146.731 443.844C148.194 441.88 149.527 439.601 150.734 437.013L148.921 436.167C147.762 438.654 146.496 440.812 145.128 442.649L146.731 443.844ZM150.734 437.013L159.457 418.306L157.644 417.461L148.921 436.167L150.734 437.013ZM159.457 418.306C160.603 415.85 161.424 413.408 161.914 410.984L159.953 410.588C159.498 412.842 158.73 415.133 157.644 417.461L159.457 418.306ZM161.914 410.984C162.408 408.538 162.464 406.223 162.06 404.049L160.094 404.415C160.444 406.301 160.405 408.355 159.953 410.588L161.914 410.984ZM162.06 404.049C161.651 401.853 160.724 399.848 159.292 398.044L157.725 399.287C158.963 400.846 159.747 402.552 160.094 404.415L162.06 404.049ZM159.312 398.07C157.891 396.153 155.862 394.607 153.283 393.404L152.437 395.217C154.788 396.313 156.525 397.67 157.705 399.261L159.312 398.07ZM153.283 393.404C150.703 392.201 148.214 391.641 145.833 391.784L145.953 393.781C147.931 393.662 150.087 394.12 152.437 395.217L153.283 393.404ZM145.866 391.783C143.563 391.846 141.431 392.424 139.486 393.523L140.47 395.264C142.119 394.332 143.931 393.837 145.92 393.782L145.866 391.783ZM139.486 393.523C137.561 394.611 135.823 396.142 134.268 398.092L135.831 399.339C137.252 397.558 138.8 396.208 140.47 395.264L139.486 393.523ZM134.268 398.092C132.725 400.026 131.383 402.224 130.238 404.681L132.05 405.526C133.136 403.198 134.397 401.137 135.831 399.339L134.268 398.092ZM130.238 404.681L121.515 423.387L123.327 424.233L132.05 405.526L130.238 404.681ZM121.515 423.387C120.308 425.976 119.418 428.462 118.855 430.845L120.801 431.305C121.328 429.076 122.168 426.719 123.327 424.233L121.515 423.387ZM118.855 430.845C118.282 433.266 118.186 435.575 118.593 437.76L120.559 437.395C120.211 435.521 120.283 433.495 120.801 431.305L118.855 430.845ZM118.593 437.76C119.002 439.957 119.929 441.962 121.361 443.766L122.927 442.523C121.69 440.964 120.906 439.258 120.559 437.395L118.593 437.76ZM121.382 443.792C122.871 445.543 124.993 447.033 127.689 448.29L128.534 446.477C126.01 445.3 124.153 443.964 122.906 442.497L121.382 443.792ZM223.016 488.99L223.923 489.413L224.345 488.507L223.439 488.084L223.016 488.99ZM216.626 502.694L216.204 503.6L217.11 504.023L217.533 503.116L216.626 502.694ZM163.118 477.742L162.212 477.32L161.789 478.226L162.695 478.649L163.118 477.742ZM176.624 453.322L175.962 452.572L175.954 452.58L175.946 452.587L176.624 453.322ZM185.082 448.528L184.806 447.567L184.798 447.569L184.79 447.571L185.082 448.528ZM195.362 447.495L195.302 448.493L195.312 448.494L195.322 448.494L195.362 447.495ZM207.433 449.152L207.217 450.128L207.219 450.129L207.433 449.152ZM215.516 450.273L215.494 451.273L215.503 451.273L215.512 451.273L215.516 450.273ZM221.294 449.525L221.603 450.476L221.62 450.47L221.636 450.464L221.294 449.525ZM225.092 447.059L224.366 446.371L224.353 446.384L224.341 446.398L225.092 447.059ZM227.951 433.828L227.024 434.202L227.027 434.209L227.03 434.217L227.951 433.828ZM208.564 425.714L208.906 426.654L208.913 426.651L208.919 426.649L208.564 425.714ZM197.817 439.107L197.394 440.013L198.301 440.436L198.723 439.529L197.817 439.107ZM183.461 432.413L182.555 431.99L182.132 432.896L183.038 433.319L183.461 432.413ZM192.866 417.07L192.182 416.341L192.173 416.349L192.866 417.07ZM202.26 411.123L201.904 410.188L201.903 410.188L202.26 411.123ZM213.648 409.416L213.596 410.414L213.605 410.415L213.614 410.415L213.648 409.416ZM237.19 420.261L236.459 420.943L236.465 420.95L236.472 420.956L237.19 420.261ZM243.239 429.437L242.305 429.795L242.308 429.802L242.311 429.809L243.239 429.437ZM244.801 439.434L243.804 439.356L243.803 439.371L243.802 439.387L244.801 439.434ZM228.982 463.702L228.572 462.79L228.563 462.795L228.982 463.702ZM207.212 464.673L207.419 463.695L207.417 463.694L207.212 464.673ZM197.563 463.219L197.478 464.215L197.487 464.216L197.496 464.216L197.563 463.219ZM191.184 463.554L190.934 462.586L190.934 462.586L191.184 463.554ZM187.001 465.708L186.324 464.972L186.312 464.983L186.301 464.994L187.001 465.708ZM183.864 470.733L182.957 470.311L182.535 471.217L183.441 471.639L183.864 470.733ZM222.11 488.568L215.72 502.271L217.533 503.116L223.923 489.413L222.11 488.568ZM217.049 501.787L163.54 476.836L162.695 478.649L216.204 503.6L217.049 501.787ZM164.024 478.165L171.023 463.156L169.21 462.311L162.212 477.32L164.024 478.165ZM171.023 463.156C172.843 459.252 174.943 456.233 177.302 454.057L175.946 452.587C173.347 454.984 171.109 458.24 169.21 462.311L171.023 463.156ZM177.286 454.072C179.736 451.908 182.43 450.383 185.374 449.484L184.79 447.571C181.558 448.559 178.614 450.23 175.962 452.572L177.286 454.072ZM185.359 449.489C188.397 448.614 191.709 448.278 195.302 448.493L195.422 446.497C191.63 446.27 188.088 446.622 184.806 447.567L185.359 449.489ZM195.322 448.494C198.979 448.64 202.943 449.183 207.217 450.128L207.649 448.175C203.28 447.209 199.197 446.647 195.402 446.496L195.322 448.494ZM207.219 450.129C210.459 450.836 213.222 451.223 215.494 451.273L215.538 449.273C213.441 449.228 210.815 448.867 207.646 448.175L207.219 450.129ZM215.512 451.273C217.871 451.282 219.91 451.027 221.603 450.476L220.984 448.574C219.556 449.039 217.743 449.282 215.52 449.273L215.512 451.273ZM221.636 450.464C223.357 449.838 224.774 448.932 225.842 447.72L224.341 446.398C223.535 447.313 222.42 448.051 220.952 448.585L221.636 450.464ZM225.818 447.746C226.946 446.555 227.897 445.113 228.679 443.435L226.867 442.59C226.161 444.103 225.325 445.358 224.366 446.371L225.818 447.746ZM228.679 443.435C230.218 440.135 230.284 436.779 228.872 433.438L227.03 434.217C228.22 437.033 228.168 439.8 226.867 442.59L228.679 443.435ZM228.879 433.453C227.529 430.108 224.729 427.514 220.658 425.616L219.813 427.429C223.573 429.182 225.917 431.459 227.024 434.202L228.879 433.453ZM220.658 425.616C216.325 423.596 212.152 423.279 208.208 424.779L208.919 426.649C212.273 425.373 215.881 425.595 219.813 427.429L220.658 425.616ZM208.222 424.774C204.295 426.203 201.285 429.304 199.142 433.899L200.955 434.744C202.937 430.494 205.603 427.856 208.906 426.654L208.222 424.774ZM199.142 433.899L196.911 438.684L198.723 439.529L200.955 434.744L199.142 433.899ZM198.239 438.201L183.884 431.506L183.038 433.319L197.394 440.013L198.239 438.201ZM184.367 432.835L187.207 426.745L185.395 425.9L182.555 431.99L184.367 432.835ZM187.207 426.745C188.814 423.299 190.931 420.318 193.559 417.791L192.173 416.349C189.361 419.053 187.101 422.24 185.395 425.9L187.207 426.745ZM193.551 417.799C196.288 415.229 199.309 413.319 202.616 412.057L201.903 410.188C198.339 411.548 195.098 413.603 192.182 416.341L193.551 417.799ZM202.616 412.057C206.019 410.761 209.675 410.21 213.596 410.414L213.7 408.417C209.521 408.199 205.585 408.786 201.904 410.188L202.616 412.057ZM213.614 410.415C217.544 410.549 221.594 411.576 225.768 413.522L226.613 411.71C222.232 409.667 217.92 408.56 213.682 408.416L213.614 410.415ZM225.768 413.522C230.247 415.611 233.8 418.09 236.459 420.943L237.922 419.579C235.051 416.499 231.27 413.881 226.613 411.71L225.768 413.522ZM236.472 420.956C239.192 423.769 241.127 426.716 242.305 429.795L244.173 429.08C242.884 425.711 240.787 422.541 237.909 419.566L236.472 420.956ZM242.311 429.809C243.561 432.928 244.056 436.106 243.804 439.356L245.798 439.511C246.075 435.947 245.529 432.461 244.167 429.065L242.311 429.809ZM243.802 439.387C243.649 442.626 242.891 445.705 241.527 448.632L243.339 449.477C244.815 446.313 245.635 442.979 245.8 439.481L243.802 439.387ZM241.527 448.632L240.918 449.937L242.731 450.782L243.339 449.477L241.527 448.632ZM240.918 449.937C238.028 456.134 233.907 460.389 228.572 462.79L229.393 464.614C235.23 461.986 239.67 457.345 242.731 450.782L240.918 449.937ZM228.563 462.795C223.322 465.217 216.311 465.573 207.419 463.695L207.006 465.651C216.114 467.576 223.615 467.285 229.402 464.61L228.563 462.795ZM207.417 463.694C203.611 462.897 200.345 462.403 197.63 462.221L197.496 464.216C200.087 464.39 203.255 464.866 207.008 465.652L207.417 463.694ZM197.648 462.222C195.034 462 192.786 462.108 190.934 462.586L191.433 464.522C192.993 464.12 194.997 464.004 197.478 464.215L197.648 462.222ZM190.934 462.586C189.1 463.059 187.549 463.845 186.324 464.972L187.678 466.444C188.618 465.58 189.856 464.93 191.433 464.522L190.934 462.586ZM186.301 464.994C185.222 466.052 184.315 467.398 183.566 469.005L185.379 469.851C186.049 468.413 186.828 467.279 187.701 466.422L186.301 464.994ZM183.566 469.005L182.957 470.311L184.77 471.156L185.379 469.851L183.566 469.005ZM183.441 471.639L222.594 489.897L223.439 488.084L184.286 469.827L183.441 471.639ZM257.743 505.184L257.32 506.09L258.227 506.512L258.649 505.606L257.743 505.184ZM283.506 449.935L284.412 450.358L284.835 449.451L283.928 449.029L283.506 449.935ZM281.548 449.022L281.971 448.116L281.28 447.794L280.786 448.374L281.548 449.022ZM262.199 471.777L261.776 472.683L262.467 473.005L262.96 472.424L262.199 471.777ZM248.495 465.387L247.589 464.964L247.166 465.87L248.073 466.293L248.495 465.387ZM249.104 464.082L248.349 463.426L248.257 463.532L248.198 463.659L249.104 464.082ZM273.149 436.367L273.572 435.461L272.888 435.142L272.394 435.712L273.149 436.367ZM301.209 449.451L302.115 449.874L302.538 448.968L301.631 448.545L301.209 449.451ZM272.099 511.878L271.192 511.455L270.77 512.361L271.676 512.784L272.099 511.878ZM291.022 520.702L291.929 521.125L292.351 520.218L291.445 519.796L291.022 520.702ZM284.632 534.405L284.21 535.312L285.116 535.734L285.539 534.828L284.632 534.405ZM229.819 508.845L228.913 508.423L228.49 509.329L229.396 509.752L229.819 508.845ZM236.209 495.142L236.632 494.236L235.725 493.813L235.303 494.719L236.209 495.142ZM258.649 505.606L284.412 450.358L282.599 449.512L256.837 504.761L258.649 505.606ZM283.928 449.029L281.971 448.116L281.125 449.928L283.083 450.841L283.928 449.029ZM280.786 448.374L261.437 471.129L262.96 472.424L282.31 449.67L280.786 448.374ZM262.621 470.87L248.918 464.48L248.073 466.293L261.776 472.683L262.621 470.87ZM249.402 465.809L250.01 464.504L248.198 463.659L247.589 464.964L249.402 465.809ZM249.859 464.737L273.905 437.022L272.394 435.712L248.349 463.426L249.859 464.737ZM272.727 437.273L300.786 450.358L301.631 448.545L273.572 435.461L272.727 437.273ZM300.302 449.029L271.192 511.455L273.005 512.3L302.115 449.874L300.302 449.029ZM271.676 512.784L290.6 521.608L291.445 519.796L272.521 510.971L271.676 512.784ZM290.116 520.279L283.726 533.983L285.539 534.828L291.929 521.125L290.116 520.279ZM285.055 533.499L230.242 507.939L229.396 509.752L284.21 535.312L285.055 533.499ZM230.725 509.268L237.115 495.565L235.303 494.719L228.913 508.423L230.725 509.268ZM235.786 496.048L257.32 506.09L258.165 504.277L236.632 494.236L235.786 496.048Z" fill="#FF39A6"/>
</svg>
