<svg width="478" height="357" viewBox="0 0 478 357" fill="none" xmlns="http://www.w3.org/2000/svg">
<path d="M71.0326 20.5855L71.3562 19.6392L70.41 19.3157L70.0864 20.2619L71.0326 20.5855ZM91.1938 30.7024L90.3031 31.1571L90.307 31.1645L91.1938 30.7024ZM81.8275 58.0954L82.2458 59.0037L82.2533 59.0002L81.8275 58.0954ZM59.7089 53.703L58.7627 53.3795L58.4392 54.3257L59.3854 54.6492L59.7089 53.703ZM61.7634 47.6946L62.0869 46.7483L61.1407 46.4248L60.8172 47.371L61.7634 47.6946ZM64.8859 48.7622L64.5624 49.7084L65.5086 50.032L65.8321 49.0858L64.8859 48.7622ZM72.1169 27.6143L73.0631 27.9378L73.3866 26.9916L72.4404 26.6681L72.1169 27.6143ZM68.9944 26.5466L68.0482 26.2231L67.7246 27.1693L68.6708 27.4928L68.9944 26.5466ZM78.8237 51.8898L78.3115 51.0309L78.3091 51.0323L78.8237 51.8898ZM85.0517 33.6751L84.1257 34.0526L84.1291 34.0609L84.1326 34.0692L85.0517 33.6751ZM78.3619 29.7496L78.6855 28.8034L77.7392 28.4799L77.4157 29.4261L78.3619 29.7496ZM71.1148 50.9449L70.1685 50.6213L69.845 51.5675L70.7912 51.8911L71.1148 50.9449ZM70.7091 21.5317L82.7261 25.6406L83.3731 23.7481L71.3562 19.6392L70.7091 21.5317ZM82.7261 25.6406C86.6978 26.9986 89.1384 28.8757 90.3032 31.1571L92.0844 30.2477C90.5908 27.3223 87.602 25.1941 83.3731 23.7481L82.7261 25.6406ZM90.307 31.1645C91.472 33.4005 91.5252 36.3786 90.2031 40.2451L92.0956 40.8922C93.5128 36.7474 93.5956 33.148 92.0806 30.2403L90.307 31.1645ZM90.2031 40.2451L86.9031 49.8965L88.7955 50.5436L92.0956 40.8922L90.2031 40.2451ZM86.9031 49.8965C85.5815 53.7616 83.7095 56.1046 81.4017 57.1905L82.2533 59.0002C85.2353 57.597 87.3778 54.6898 88.7955 50.5436L86.9031 49.8965ZM81.4092 57.1871C79.1012 58.2499 76.0247 58.2249 72.0494 56.8657L71.4024 58.7581C75.6276 60.2028 79.2855 60.3669 82.2458 59.0037L81.4092 57.1871ZM72.0494 56.8657L60.0325 52.7568L59.3854 54.6492L71.4024 58.7581L72.0494 56.8657ZM60.6552 54.0266L62.7096 48.0181L60.8172 47.371L58.7627 53.3795L60.6552 54.0266ZM61.4398 48.6408L64.5624 49.7084L65.2094 47.816L62.0869 46.7483L61.4398 48.6408ZM65.8321 49.0858L73.0631 27.9378L71.1707 27.2907L63.9397 48.4387L65.8321 49.0858ZM72.4404 26.6681L69.3179 25.6004L68.6708 27.4928L71.7934 28.5605L72.4404 26.6681ZM69.9406 26.8702L71.9789 20.909L70.0864 20.2619L68.0482 26.2231L69.9406 26.8702ZM73.4406 52.797C75.7194 53.5761 77.7638 53.692 79.3382 52.7472L78.3091 51.0323C77.4901 51.5238 76.1615 51.6136 74.0877 50.9045L73.4406 52.797ZM79.3358 52.7487C80.8689 51.8344 81.9667 50.1156 82.7446 47.8405L80.8522 47.1935C80.1418 49.271 79.2564 50.4674 78.3115 51.0309L79.3358 52.7487ZM82.7446 47.8405L85.8505 38.7569L83.9581 38.1098L80.8522 47.1935L82.7446 47.8405ZM85.8505 38.7569C86.5431 36.7313 86.6524 34.8705 85.9707 33.281L84.1326 34.0692C84.5486 35.0392 84.5597 36.3505 83.9581 38.1098L85.8505 38.7569ZM85.9777 33.2976C85.2959 31.6252 83.606 30.4858 81.3349 29.7093L80.6878 31.6017C82.7693 32.3134 83.7729 33.1872 84.1257 34.0526L85.9777 33.2976ZM81.3349 29.7093L78.6855 28.8034L78.0384 30.6958L80.6878 31.6017L81.3349 29.7093ZM77.4157 29.4261L70.1685 50.6213L72.061 51.2684L79.3081 30.0731L77.4157 29.4261ZM70.7912 51.8911L73.4406 52.797L74.0877 50.9045L71.4383 49.9986L70.7912 51.8911ZM102.326 34.5089L101.849 33.6301L101.843 33.6336L102.326 34.5089ZM120.257 40.6398L119.339 41.0357L119.342 41.0424L120.257 40.6398ZM110.875 68.0801L110.409 67.195L110.403 67.1984L110.875 68.0801ZM92.9438 61.9491L92.0309 62.3574L92.0339 62.364L92.9438 61.9491ZM105.71 63.2493L105.81 64.2443L105.827 64.2426L105.844 64.2403L105.71 63.2493ZM108.089 62.3189L108.671 63.1322L108.089 62.3189ZM109.891 60.2931L110.752 60.8016L109.891 60.2931ZM114.664 46.1783L115.66 46.2708L114.664 46.1783ZM114.432 43.4569L115.39 43.1702L115.39 43.1702L114.432 43.4569ZM113.121 41.2647L112.386 41.9426L112.397 41.9547L112.409 41.9663L113.121 41.2647ZM107.633 39.3882L107.767 40.3792L107.783 40.377L107.799 40.3743L107.633 39.3882ZM105.254 40.3186L104.672 39.5053L104.672 39.5053L105.254 40.3186ZM103.404 42.3282L102.561 41.7917L103.404 42.3282ZM98.5364 56.4107L97.5443 56.2856L98.5364 56.4107ZM98.7211 59.1159L99.6792 58.8292L98.7211 59.1159ZM100.032 61.3081L99.3199 62.0097L99.3318 62.0218L99.3441 62.0335L100.032 61.3081ZM96.6421 43.715C98.0564 39.5785 100.139 36.86 102.81 35.3841L101.843 33.6336C98.6062 35.4221 96.2686 38.6253 94.7496 43.0679L96.6421 43.715ZM102.804 35.3876C105.497 33.9247 108.599 33.7475 112.205 34.9803L112.852 33.0879C108.825 31.7109 105.126 31.8502 101.849 33.6301L102.804 35.3876ZM112.205 34.9803C115.811 36.2134 118.136 38.2464 119.339 41.0357L121.175 40.244C119.706 36.8355 116.879 34.4647 112.852 33.0879L112.205 34.9803ZM119.342 41.0424C120.578 43.8546 120.575 47.2819 119.162 51.4151L121.054 52.0621C122.575 47.6163 122.671 43.6444 121.172 40.2373L119.342 41.0424ZM119.162 51.4151L116.638 58.7956L118.531 59.4426L121.054 52.0621L119.162 51.4151ZM116.638 58.7956C115.178 63.0655 113.07 65.7956 110.409 67.195L111.34 68.9652C114.606 67.248 116.971 64.0041 118.531 59.4426L116.638 58.7956ZM110.403 67.1984C107.766 68.6093 104.69 68.7659 101.075 67.5302L100.428 69.4226C104.447 70.7967 108.119 70.6892 111.346 68.9618L110.403 67.1984ZM101.075 67.5302C97.4618 66.2946 95.1057 64.2804 93.8537 61.5343L92.0339 62.364C93.5599 65.7111 96.4092 68.0484 100.428 69.4226L101.075 67.5302ZM93.8567 61.5409C92.6377 58.815 92.6574 55.3686 94.1185 51.0955L92.2261 50.4484C90.6675 55.0066 90.5348 59.0116 92.0309 62.3573L93.8567 61.5409ZM94.1185 51.0955L96.6421 43.715L94.7496 43.0679L92.2261 50.4484L94.1185 51.0955ZM102.37 63.7453C103.594 64.1641 104.749 64.351 105.81 64.2443L105.61 62.2543C104.919 62.3238 104.063 62.2106 103.017 61.8529L102.37 63.7453ZM105.844 64.2403C106.885 64.0997 107.833 63.7315 108.671 63.1322L107.507 61.5057C106.945 61.9075 106.307 62.1595 105.576 62.2583L105.844 64.2403ZM108.671 63.1322C109.499 62.5395 110.19 61.7539 110.752 60.8016L109.03 59.7846C108.588 60.5322 108.078 61.0972 107.507 61.5057L108.671 63.1322ZM110.752 60.8016C111.294 59.8836 111.761 58.8428 112.156 57.6858L110.264 57.0387C109.905 58.0895 109.492 59.0026 109.03 59.7846L110.752 60.8016ZM112.156 57.6858L114.939 49.5483L113.046 48.9013L110.264 57.0387L112.156 57.6858ZM114.939 49.5483C115.318 48.4405 115.56 47.3475 115.66 46.2708L113.669 46.0858C113.585 46.9895 113.379 47.9274 113.046 48.9013L114.939 49.5483ZM115.66 46.2708C115.762 45.1726 115.679 44.1347 115.39 43.1702L113.474 43.7436C113.679 44.4273 113.751 45.2036 113.669 46.0858L115.66 46.2708ZM115.39 43.1702C115.095 42.1835 114.571 41.3118 113.834 40.5631L112.409 41.9663C112.926 42.4922 113.276 43.082 113.474 43.7436L115.39 43.1702ZM113.856 40.5868C113.102 39.7692 112.103 39.1727 110.911 38.7652L110.264 40.6576C111.217 40.9835 111.906 41.4225 112.386 41.9426L113.856 40.5868ZM110.911 38.7652C109.719 38.3577 108.564 38.2173 107.467 38.4021L107.799 40.3743C108.497 40.2567 109.311 40.3318 110.264 40.6576L110.911 38.7652ZM107.499 38.3972C106.458 38.5378 105.51 38.906 104.672 39.5053L105.836 41.1318C106.398 40.73 107.035 40.478 107.767 40.3792L107.499 38.3972ZM104.672 39.5053C103.853 40.0912 103.152 40.861 102.561 41.7917L104.248 42.8648C104.724 42.1171 105.256 41.5471 105.836 41.1318L104.672 39.5053ZM102.561 41.7917C101.98 42.7042 101.503 43.7169 101.124 44.8247L103.016 45.4718C103.349 44.4979 103.761 43.6306 104.248 42.8648L102.561 41.7917ZM101.124 44.8247L98.3417 52.9622L100.234 53.6093L103.016 45.4718L101.124 44.8247ZM98.3417 52.9622C97.946 54.1192 97.6777 55.2278 97.5443 56.2856L99.5286 56.5358C99.6422 55.6348 99.8748 54.6601 100.234 53.6093L98.3417 52.9622ZM97.5443 56.2856C97.4059 57.3828 97.4711 58.4268 97.7631 59.4026L99.6792 58.8292C99.4779 58.1568 99.4199 57.3973 99.5286 56.5358L97.5443 56.2856ZM97.7631 59.4026C98.0584 60.3893 98.5826 61.261 99.3199 62.0097L100.745 60.6065C100.227 60.0806 99.8771 59.4908 99.6792 58.8292L97.7631 59.4026ZM99.3441 62.0335C100.117 62.7673 101.145 63.3265 102.37 63.7453L103.017 61.8529C101.971 61.4952 101.224 61.0604 100.721 60.5827L99.3441 62.0335ZM135.509 76.1334L134.529 75.9339L134.354 76.7952L135.186 77.0796L135.509 76.1334ZM136.361 76.4246L136.037 77.3708L136.984 77.6943L137.307 76.7481L136.361 76.4246ZM146.617 46.4295L146.94 45.4833L145.994 45.1598L145.671 46.106L146.617 46.4295ZM152.862 48.5648L153.808 48.8884L154.132 47.9422L153.185 47.6186L152.862 48.5648ZM141.538 81.6824L141.215 82.6286L142.161 82.9522L142.484 82.006L141.538 81.6824ZM129.332 77.5088L128.352 77.3093L128.177 78.1707L129.008 78.4551L129.332 77.5088ZM135.709 46.1873L136.688 46.3868L136.864 45.5254L136.032 45.2411L135.709 46.1873ZM134.857 45.8961L135.18 44.9499L134.234 44.6263L133.911 45.5726L134.857 45.8961ZM124.601 75.8912L124.277 76.8374L125.224 77.1609L125.547 76.2147L124.601 75.8912ZM118.356 73.7558L117.41 73.4323L117.086 74.3785L118.032 74.7021L118.356 73.7558ZM129.68 40.6383L130.003 39.692L129.057 39.3685L128.733 40.3147L129.68 40.6383ZM141.886 44.8118L142.866 45.0113L143.041 44.15L142.209 43.8656L141.886 44.8118ZM135.186 77.0796L136.037 77.3708L136.684 75.4784L135.833 75.1872L135.186 77.0796ZM137.307 76.7481L147.563 46.7531L145.671 46.106L135.415 76.1011L137.307 76.7481ZM146.293 47.3757L152.538 49.5111L153.185 47.6186L146.94 45.4833L146.293 47.3757ZM151.916 48.2413L140.592 81.3589L142.484 82.006L153.808 48.8884L151.916 48.2413ZM141.862 80.7362L129.656 76.5626L129.008 78.4551L141.215 82.6286L141.862 80.7362ZM130.312 77.7083L136.688 46.3868L134.729 45.9878L128.352 77.3093L130.312 77.7083ZM136.032 45.2411L135.18 44.9499L134.533 46.8423L135.385 47.1335L136.032 45.2411ZM133.911 45.5726L123.655 75.5676L125.547 76.2147L135.803 46.2196L133.911 45.5726ZM124.924 74.9449L118.679 72.8096L118.032 74.7021L124.277 76.8374L124.924 74.9449ZM119.302 74.0794L130.626 40.9618L128.733 40.3147L117.41 73.4323L119.302 74.0794ZM129.356 41.5845L141.562 45.7581L142.209 43.8656L130.003 39.692L129.356 41.5845ZM140.906 44.6124L134.529 75.9339L136.489 76.3329L142.866 45.0113L140.906 44.6124ZM165.364 55.1648L164.631 54.4848L164.622 54.4949L164.612 54.5053L165.364 55.1648ZM166.843 54.0851L167.247 54.9999L167.265 54.9918L167.283 54.983L166.843 54.0851ZM168.586 53.6242L168.647 54.6224L168.672 54.6208L168.696 54.6181L168.586 53.6242ZM172.04 54.8051L171.344 55.5235L171.369 55.5475L171.395 55.5697L172.04 54.8051ZM173.183 56.2528L172.285 56.6931L172.294 56.7111L172.303 56.7287L173.183 56.2528ZM173.644 57.9957L172.645 58.0371L172.646 58.0716L172.65 58.1058L173.644 57.9957ZM169.201 68.2075L168.761 67.3097L168.752 67.314L168.743 67.3185L169.201 68.2075ZM162.772 67.3831L161.826 67.0596L161.502 68.0058L162.448 68.3294L162.772 67.3831ZM164.034 63.6929L164.357 62.7467L163.411 62.4231L163.087 63.3694L164.034 63.6929ZM168.261 62.9191L169.207 63.2426L169.674 61.8772L168.232 61.9195L168.261 62.9191ZM165.771 61.8563L165.076 62.5747L165.093 62.5918L165.112 62.6081L165.771 61.8563ZM164.183 58.6184L163.185 58.6796L163.187 58.7041L163.189 58.7286L164.183 58.6184ZM165.397 57.0782C165.561 56.5983 165.801 56.1834 166.116 55.8242L164.612 54.5053C164.119 55.0675 163.75 55.7125 163.505 56.4312L165.397 57.0782ZM166.098 55.8447C166.462 55.4518 166.846 55.1772 167.247 54.9999L166.439 53.1704C165.762 53.4697 165.16 53.9148 164.631 54.4848L166.098 55.8447ZM167.283 54.983C167.715 54.7713 168.167 54.6517 168.647 54.6224L168.525 52.6261C167.781 52.6716 167.072 52.8593 166.403 53.1873L167.283 54.983ZM168.696 54.6181C169.163 54.5664 169.642 54.6193 170.142 54.7905L170.789 52.8981C170.028 52.6379 169.254 52.5441 168.476 52.6303L168.696 54.6181ZM170.142 54.7905C170.604 54.9483 171.001 55.1914 171.344 55.5235L172.735 54.0867C172.178 53.5475 171.526 53.15 170.789 52.8981L170.142 54.7905ZM171.395 55.5697C171.787 55.8999 172.079 56.2737 172.285 56.6931L174.081 55.8125C173.747 55.1315 173.277 54.5402 172.684 54.0405L171.395 55.5697ZM172.303 56.7287C172.505 57.1016 172.624 57.5317 172.645 58.0371L174.643 57.9543C174.61 57.1732 174.422 56.4414 174.062 55.777L172.303 56.7287ZM172.65 58.1058C172.702 58.5803 172.651 59.0431 172.494 59.5047L174.386 60.1518C174.638 59.4149 174.723 58.656 174.638 57.8855L172.65 58.1058ZM172.494 59.5047L170.52 65.2767L172.412 65.9237L174.386 60.1518L172.494 59.5047ZM170.52 65.2767C170.193 66.2336 169.614 66.8911 168.761 67.3097L169.641 69.1054C170.988 68.4446 171.92 67.3638 172.412 65.9237L170.52 65.2767ZM168.743 67.3185C167.93 67.7371 167.08 67.7993 166.123 67.4722L165.476 69.3647C166.917 69.8572 168.334 69.7788 169.659 69.0965L168.743 67.3185ZM166.123 67.4722L163.095 66.4369L162.448 68.3294L165.476 69.3647L166.123 67.4722ZM163.718 67.7067L164.98 64.0164L163.087 63.3694L161.826 67.0596L163.718 67.7067ZM163.71 64.6391L165.981 65.4156L166.628 63.5232L164.357 62.7467L163.71 64.6391ZM165.981 65.4156C166.58 65.6204 167.253 65.6597 167.871 65.3156C168.465 64.9846 168.81 64.4061 169.013 63.8104L167.121 63.1633C167.063 63.3319 167.006 63.437 166.962 63.4987C166.94 63.5286 166.923 63.5463 166.913 63.556C166.903 63.5655 166.897 63.5684 166.897 63.5687C166.897 63.5688 166.897 63.5688 166.895 63.5692C166.894 63.5696 166.886 63.5716 166.868 63.5721C166.833 63.573 166.756 63.5668 166.628 63.5232L165.981 65.4156ZM169.013 63.8104L169.207 63.2426L167.315 62.5956L167.121 63.1633L169.013 63.8104ZM168.232 61.9195C168.073 61.9242 167.909 61.9002 167.732 61.8398L167.085 63.7322C167.476 63.866 167.88 63.9307 168.291 63.9187L168.232 61.9195ZM167.732 61.8398C167.214 61.6626 166.785 61.4152 166.431 61.1045L165.112 62.6081C165.679 63.1056 166.341 63.478 167.085 63.7322L167.732 61.8398ZM166.467 61.1379C166.098 60.7808 165.807 60.3814 165.589 59.9372L163.794 60.8178C164.116 61.474 164.545 62.0605 165.076 62.5747L166.467 61.1379ZM165.589 59.9372C165.372 59.4929 165.234 59.0185 165.177 58.5083L163.189 58.7286C163.271 59.4633 163.472 60.1616 163.794 60.8178L165.589 59.9372ZM165.181 58.5573C165.153 58.0871 165.22 57.5964 165.397 57.0782L163.505 56.4312C163.25 57.1746 163.139 57.9264 163.185 58.6796L165.181 58.5573ZM187.286 60.3352L187.609 59.389L186.663 59.0654L186.339 60.0116L187.286 60.3352ZM211.13 68.4882L212.077 68.8118L212.4 67.8656L211.454 67.542L211.13 68.4882ZM209.092 74.4494L208.769 75.3956L209.715 75.7191L210.038 74.7729L209.092 74.4494ZM200.292 71.4405L200.616 70.4943L199.67 70.1708L199.346 71.117L200.292 71.4405ZM191.007 98.597L190.683 99.5432L191.63 99.8667L191.953 98.9205L191.007 98.597ZM184.762 96.4616L183.816 96.1381L183.492 97.0843L184.438 97.4078L184.762 96.4616ZM194.047 69.3052L194.993 69.6287L195.317 68.6825L194.371 68.359L194.047 69.3052ZM185.247 66.2963L184.301 65.9728L183.978 66.919L184.924 67.2426L185.247 66.2963ZM186.962 61.2814L210.807 69.4344L211.454 67.542L187.609 59.389L186.962 61.2814ZM210.184 68.1647L208.146 74.1259L210.038 74.7729L212.077 68.8118L210.184 68.1647ZM209.416 73.5032L200.616 70.4943L199.969 72.3868L208.769 75.3956L209.416 73.5032ZM199.346 71.117L190.061 98.2734L191.953 98.9205L201.238 71.7641L199.346 71.117ZM191.33 97.6507L185.085 95.5154L184.438 97.4078L190.683 99.5432L191.33 97.6507ZM185.708 96.7852L194.993 69.6287L193.101 68.9817L183.816 96.1381L185.708 96.7852ZM194.371 68.359L185.571 65.3501L184.924 67.2426L193.724 70.2514L194.371 68.359ZM186.194 66.6199L188.232 60.6587L186.339 60.0116L184.301 65.9728L186.194 66.6199ZM253.708 117.764L254.133 118.669L254.141 118.666L253.708 117.764ZM240.807 115.625L240.19 116.412L240.198 116.418L240.206 116.424L240.807 115.625ZM238.001 112.393L237.119 112.863L237.123 112.871L237.127 112.879L238.001 112.393ZM236.863 108.305L235.864 108.36L235.865 108.369L236.863 108.305ZM238.695 100.318L239.019 99.3721L238.073 99.0486L237.749 99.9948L238.695 100.318ZM244.94 102.454L245.886 102.777L246.21 101.831L245.264 101.507L244.94 102.454ZM243.906 109.498L243 109.921L243.004 109.93L243.008 109.938L243.906 109.498ZM250.576 111.779L250.119 110.89L250.11 110.894L250.101 110.899L250.576 111.779ZM258.877 91.3664L259.823 91.6899L260.147 90.7437L259.2 90.4201L258.877 91.3664ZM255.471 90.2016L254.524 89.8781L254.201 90.8243L255.147 91.1479L255.471 90.2016ZM257.476 84.3351L257.8 83.3889L256.854 83.0653L256.53 84.0116L257.476 84.3351ZM269.967 88.6057L270.913 88.9293L271.236 87.9831L270.29 87.6595L269.967 88.6057ZM267.961 94.4723L267.637 95.4185L268.583 95.742L268.907 94.7958L267.961 94.4723ZM265.122 93.5017L265.446 92.5555L264.499 92.2319L264.176 93.1782L265.122 93.5017ZM258.255 110.494C257.138 113.762 255.451 115.819 253.276 116.862L254.141 118.666C256.939 117.323 258.914 114.749 260.148 111.141L258.255 110.494ZM253.284 116.859C251.099 117.884 248.515 117.943 245.446 116.894L244.798 118.786C248.227 119.958 251.367 119.967 254.133 118.669L253.284 116.859ZM245.446 116.894C243.857 116.351 242.515 115.658 241.407 114.825L240.206 116.424C241.508 117.403 243.044 118.186 244.798 118.786L245.446 116.894ZM241.424 114.838C240.325 113.976 239.481 112.999 238.876 111.908L237.127 112.879C237.873 114.223 238.9 115.4 240.19 116.412L241.424 114.838ZM238.884 111.923C238.289 110.806 237.946 109.582 237.861 108.241L235.865 108.369C235.967 109.981 236.384 111.483 237.119 112.863L238.884 111.923ZM237.861 108.25C237.786 106.895 238.014 105.403 238.574 103.764L236.681 103.117C236.055 104.948 235.773 106.699 235.864 108.36L237.861 108.25ZM238.574 103.764L239.641 100.642L237.749 99.9948L236.681 103.117L238.574 103.764ZM238.372 101.265L244.617 103.4L245.264 101.507L239.019 99.3721L238.372 101.265ZM243.994 102.13L242.926 105.253L244.819 105.9L245.886 102.777L243.994 102.13ZM242.926 105.253C242.358 106.915 242.335 108.499 243 109.921L244.812 109.075C244.418 108.233 244.373 107.203 244.819 105.9L242.926 105.253ZM243.008 109.938C243.694 111.338 244.955 112.287 246.615 112.855L247.262 110.963C245.958 110.516 245.196 109.858 244.803 109.057L243.008 109.938ZM246.615 112.855C248.198 113.396 249.712 113.383 251.052 112.658L250.101 110.899C249.366 111.297 248.455 111.37 247.262 110.963L246.615 112.855ZM251.034 112.668C252.401 111.964 253.33 110.681 253.902 109.006L252.01 108.359C251.548 109.711 250.89 110.492 250.119 110.89L251.034 112.668ZM253.902 109.006L259.823 91.6899L257.931 91.0428L252.01 108.359L253.902 109.006ZM259.2 90.4201L255.794 89.2554L255.147 91.1479L258.553 92.3126L259.2 90.4201ZM256.417 90.5252L258.423 84.6586L256.53 84.0116L254.524 89.8781L256.417 90.5252ZM257.153 85.2813L269.643 89.552L270.29 87.6595L257.8 83.3889L257.153 85.2813ZM269.02 88.2822L267.014 94.1488L268.907 94.7958L270.913 88.9293L269.02 88.2822ZM268.284 93.5261L265.446 92.5555L264.798 94.4479L267.637 95.4185L268.284 93.5261ZM264.176 93.1782L258.255 110.494L260.148 111.141L266.068 93.8252L264.176 93.1782ZM298.036 98.2035L298.982 98.527L299.306 97.5808L298.36 97.2572L298.036 98.2035ZM284.558 127.731L284.091 126.847L284.084 126.851L284.558 127.731ZM266.722 121.632L265.808 122.038L265.811 122.045L266.722 121.632ZM274.192 90.0504L274.515 89.1042L273.569 88.7807L273.245 89.7269L274.192 90.0504ZM280.437 92.1857L281.383 92.5093L281.706 91.563L280.76 91.2395L280.437 92.1857ZM272.831 118.912L271.896 119.267L272.831 118.912ZM281.441 121.857L280.919 121.004L281.441 121.857ZM291.791 96.0681L292.115 95.1219L291.169 94.7984L290.845 95.7446L291.791 96.0681ZM297.09 97.8799L289.681 119.548L291.574 120.195L298.982 98.527L297.09 97.8799ZM289.681 119.548C288.445 123.163 286.559 125.542 284.091 126.847L285.026 128.615C288.061 127.01 290.221 124.15 291.574 120.195L289.681 119.548ZM284.084 126.851C281.685 128.143 278.662 128.251 274.887 126.961L274.24 128.853C278.351 130.259 281.99 130.25 285.032 128.611L284.084 126.851ZM274.887 126.961C271.114 125.67 268.769 123.727 267.633 121.219L265.811 122.045C267.245 125.208 270.129 127.447 274.24 128.853L274.887 126.961ZM267.636 121.227C266.512 118.694 266.492 115.661 267.729 112.042L265.836 111.395C264.486 115.346 264.425 118.922 265.808 122.038L267.636 121.227ZM267.729 112.042L275.138 90.3739L273.245 89.7269L265.836 111.395L267.729 112.042ZM273.868 90.9966L280.113 93.1319L280.76 91.2395L274.515 89.1042L273.868 90.9966ZM279.49 91.8622L272.082 113.531L273.974 114.178L281.383 92.5093L279.49 91.8622ZM272.082 113.531C271.365 115.626 271.25 117.565 271.896 119.267L273.766 118.558C273.337 117.427 273.353 115.993 273.974 114.178L272.082 113.531ZM271.896 119.267C272.573 121.054 274.117 122.259 276.246 122.987L276.893 121.094C275.111 120.485 274.162 119.604 273.766 118.558L271.896 119.267ZM276.246 122.987C278.375 123.714 280.334 123.707 281.963 122.709L280.919 121.004C279.965 121.588 278.675 121.703 276.893 121.094L276.246 122.987ZM281.963 122.709C283.516 121.759 284.612 120.156 285.329 118.06L283.436 117.413C282.815 119.228 281.951 120.372 280.919 121.004L281.963 122.709ZM285.329 118.06L292.737 96.3917L290.845 95.7446L283.436 117.413L285.329 118.06ZM291.468 97.0144L297.713 99.1497L298.36 97.2572L292.115 95.1219L291.468 97.0144ZM316.918 112.11L316.027 112.565L316.03 112.572L316.034 112.578L316.918 112.11ZM309.037 108.887L309.308 109.85L309.319 109.847L309.33 109.843L309.037 108.887ZM306.572 112.695L305.578 112.801L305.579 112.815L305.581 112.828L306.572 112.695ZM307.287 114.313L306.477 114.899L306.497 114.926L306.518 114.952L307.287 114.313ZM309.14 116.003L308.542 116.805L308.55 116.811L309.14 116.003ZM312.319 117.988L311.831 118.861L312.319 117.988ZM319.183 123.876L318.336 124.407L319.183 123.876ZM317.193 135.878L316.463 135.194L316.455 135.203L317.193 135.878ZM313.744 138.239L314.109 139.169L313.744 138.239ZM309.263 138.979L309.243 139.979L309.263 138.979ZM298.541 135.101L297.899 135.868L297.908 135.876L297.917 135.883L298.541 135.101ZM295.298 131.139L294.401 131.579L294.404 131.586L294.407 131.592L295.298 131.139ZM294.101 126.45L293.102 126.486L293.102 126.493L294.101 126.45ZM295.385 119.913L295.709 118.967L294.762 118.644L294.439 119.59L295.385 119.913ZM301.63 122.049L302.576 122.372L302.9 121.426L301.954 121.102L301.63 122.049ZM301.311 128.545L300.402 128.961L300.407 128.973L300.413 128.985L301.311 128.545ZM310.737 132.349L310.347 131.429L310.737 132.349ZM313.346 128.274L312.347 128.303L312.347 128.314L312.347 128.325L313.346 128.274ZM312.806 126.61L311.941 127.113L311.951 127.13L311.962 127.146L312.806 126.61ZM311.238 124.858L311.879 124.091L311.238 124.858ZM308.39 122.986L308.872 122.11L308.868 122.108L308.39 122.986ZM304.173 120.329L303.562 121.12L303.57 121.126L303.578 121.133L304.173 120.329ZM301.161 117.238L300.335 117.801L300.339 117.807L300.343 117.813L301.161 117.238ZM302.518 105.39L301.808 104.685L301.8 104.693L302.518 105.39ZM305.871 103.155L305.508 102.223L305.501 102.226L305.494 102.229L305.871 103.155ZM310.146 102.397L310.154 101.397L310.147 101.397L310.146 102.397ZM320.033 105.936L319.398 106.708L319.405 106.714L319.412 106.72L320.033 105.936ZM323.057 109.454L322.174 109.923L322.178 109.93L322.182 109.936L323.057 109.454ZM324.259 113.511L323.261 113.571L323.262 113.582L323.263 113.592L324.259 113.511ZM323.155 119.369L322.831 120.315L323.778 120.638L324.101 119.692L323.155 119.369ZM316.91 117.233L315.964 116.91L315.64 117.856L316.586 118.179L316.91 117.233ZM318.244 116.421C318.794 114.813 318.626 113.198 317.801 111.642L316.034 112.578C316.623 113.689 316.708 114.733 316.352 115.774L318.244 116.421ZM317.808 111.656C316.981 110.034 315.462 108.918 313.437 108.225L312.79 110.118C314.488 110.698 315.504 111.54 316.027 112.565L317.808 111.656ZM313.437 108.225C311.738 107.644 310.152 107.499 308.744 107.931L309.33 109.843C310.204 109.575 311.336 109.62 312.79 110.118L313.437 108.225ZM308.766 107.924C307.321 108.331 306.313 109.279 305.829 110.696L307.721 111.344C307.991 110.553 308.491 110.079 309.308 109.85L308.766 107.924ZM305.829 110.696C305.591 111.39 305.502 112.095 305.578 112.801L307.567 112.588C307.524 112.197 307.57 111.785 307.721 111.344L305.829 110.696ZM305.581 112.828C305.679 113.554 306.004 114.246 306.477 114.899L308.097 113.726C307.756 113.256 307.605 112.869 307.563 112.561L305.581 112.828ZM306.518 114.952C307.033 115.572 307.716 116.189 308.542 116.805L309.737 115.201C308.992 114.646 308.44 114.136 308.057 113.674L306.518 114.952ZM308.55 116.811C309.412 117.44 310.509 118.123 311.831 118.861L312.806 117.115C311.525 116.4 310.503 115.76 309.729 115.195L308.55 116.811ZM311.831 118.861C315.005 120.634 317.136 122.495 318.336 124.407L320.03 123.344C318.585 121.041 316.139 118.977 312.806 117.115L311.831 118.861ZM318.336 124.407C319.461 126.201 319.652 128.378 318.732 131.067L320.625 131.714C321.689 128.6 321.55 125.767 320.03 123.344L318.336 124.407ZM318.732 131.067L318.538 131.635L320.431 132.282L320.625 131.714L318.732 131.067ZM318.538 131.635C318.05 133.062 317.355 134.242 316.463 135.194L317.923 136.561C319.03 135.379 319.862 133.945 320.431 132.282L318.538 131.635ZM316.455 135.203C315.603 136.135 314.581 136.835 313.378 137.308L314.109 139.169C315.591 138.587 316.869 137.714 317.931 136.552L316.455 135.203ZM313.378 137.308C312.174 137.78 310.814 138.01 309.284 137.979L309.243 139.979C311 140.015 312.627 139.751 314.109 139.169L313.378 137.308ZM309.284 137.979C307.761 137.948 306.111 137.637 304.329 137.027L303.682 138.92C305.622 139.583 307.477 139.942 309.243 139.979L309.284 137.979ZM304.329 137.027C302.238 136.312 300.524 135.405 299.165 134.32L297.917 135.883C299.491 137.14 301.421 138.147 303.682 138.92L304.329 137.027ZM299.183 134.334C297.847 133.217 296.858 131.999 296.19 130.686L294.407 131.592C295.214 133.178 296.386 134.602 297.899 135.868L299.183 134.334ZM296.196 130.699C295.53 129.341 295.166 127.913 295.1 126.406L293.102 126.493C293.18 128.276 293.614 129.974 294.401 131.579L296.196 130.699ZM295.101 126.413C295.045 124.87 295.289 123.286 295.846 121.656L293.954 121.009C293.325 122.849 293.036 124.676 293.102 126.486L295.101 126.413ZM295.846 121.656L296.331 120.237L294.439 119.59L293.954 121.009L295.846 121.656ZM295.062 120.86L301.307 122.995L301.954 121.102L295.709 118.967L295.062 120.86ZM300.684 121.725L300.296 122.861L302.188 123.508L302.576 122.372L300.684 121.725ZM300.296 122.861C299.551 125.037 299.549 127.095 300.402 128.961L302.221 128.129C301.622 126.821 301.574 125.305 302.188 123.508L300.296 122.861ZM300.413 128.985C301.343 130.882 303.221 132.21 305.783 133.086L306.43 131.193C304.134 130.408 302.815 129.34 302.209 128.105L300.413 128.985ZM305.783 133.086C307.787 133.771 309.611 133.914 311.128 133.27L310.347 131.429C309.474 131.799 308.21 131.802 306.43 131.193L305.783 133.086ZM311.128 133.27C312.561 132.662 313.57 131.637 314.058 130.209L312.166 129.561C311.878 130.404 311.304 131.022 310.347 131.429L311.128 133.27ZM314.058 130.209C314.281 129.558 314.379 128.894 314.345 128.223L312.347 128.325C312.368 128.729 312.31 129.139 312.166 129.561L314.058 130.209ZM314.346 128.245C314.323 127.474 314.077 126.746 313.649 126.073L311.962 127.146C312.221 127.554 312.336 127.936 312.347 128.303L314.346 128.245ZM313.67 126.106C313.26 125.403 312.648 124.734 311.879 124.091L310.596 125.625C311.253 126.174 311.685 126.673 311.941 127.113L313.67 126.106ZM311.879 124.091C311.101 123.44 310.092 122.781 308.872 122.11L307.909 123.863C309.061 124.496 309.95 125.085 310.596 125.625L311.879 124.091ZM308.868 122.108C307.328 121.271 305.962 120.41 304.768 119.525L303.578 121.133C304.858 122.08 306.304 122.991 307.913 123.865L308.868 122.108ZM304.785 119.538C303.627 118.643 302.696 117.684 301.979 116.663L300.343 117.813C301.19 119.019 302.267 120.12 303.562 121.12L304.785 119.538ZM301.988 116.675C301.325 115.702 300.916 114.634 300.757 113.457L298.775 113.725C298.975 115.207 299.496 116.57 300.335 117.801L301.988 116.675ZM300.757 113.457C300.604 112.319 300.76 110.994 301.284 109.46L299.392 108.813C298.795 110.558 298.57 112.203 298.775 113.725L300.757 113.457ZM301.284 109.46L301.381 109.176L299.489 108.529L299.392 108.813L301.284 109.46ZM301.381 109.176C301.801 107.948 302.421 106.924 303.235 106.086L301.8 104.693C300.765 105.76 299.997 107.044 299.489 108.529L301.381 109.176ZM303.227 106.095C304.099 105.217 305.104 104.547 306.249 104.081L305.494 102.229C304.1 102.797 302.869 103.617 301.808 104.685L303.227 106.095ZM306.234 104.086C307.406 103.63 308.706 103.396 310.145 103.397L310.147 101.397C308.487 101.395 306.937 101.666 305.508 102.223L306.234 104.086ZM310.138 103.397C311.596 103.408 313.147 103.687 314.796 104.251L315.443 102.359C313.623 101.736 311.858 101.41 310.154 101.397L310.138 103.397ZM314.796 104.251C316.661 104.889 318.188 105.713 319.398 106.708L320.668 105.164C319.238 103.988 317.489 103.058 315.443 102.359L314.796 104.251ZM319.412 106.72C320.652 107.702 321.563 108.771 322.174 109.923L323.941 108.985C323.18 107.553 322.075 106.278 320.654 105.152L319.412 106.72ZM322.182 109.936C322.831 111.116 323.187 112.325 323.261 113.571L325.258 113.451C325.164 111.892 324.718 110.396 323.933 108.971L322.182 109.936ZM323.263 113.592C323.367 114.867 323.211 116.114 322.791 117.342L324.683 117.989C325.191 116.504 325.383 114.981 325.256 113.429L323.263 113.592ZM322.791 117.342L322.209 119.045L324.101 119.692L324.683 117.989L322.791 117.342ZM323.478 118.422L317.233 116.287L316.586 118.179L322.831 120.315L323.478 118.422ZM317.856 117.557L318.244 116.421L316.352 115.774L315.964 116.91L317.856 117.557ZM332.129 109.861L332.452 108.914L331.506 108.591L331.183 109.537L332.129 109.861ZM355.974 118.014L356.92 118.337L357.243 117.391L356.297 117.067L355.974 118.014ZM353.935 123.975L353.612 124.921L354.558 125.245L354.882 124.298L353.935 123.975ZM345.135 120.966L345.459 120.02L344.513 119.696L344.189 120.642L345.135 120.966ZM335.85 148.122L335.527 149.069L336.473 149.392L336.796 148.446L335.85 148.122ZM329.605 145.987L328.659 145.663L328.335 146.61L329.281 146.933L329.605 145.987ZM338.89 118.831L339.837 119.154L340.16 118.208L339.214 117.884L338.89 118.831ZM330.091 115.822L329.144 115.498L328.821 116.444L329.767 116.768L330.091 115.822ZM331.805 110.807L355.65 118.96L356.297 117.067L332.452 108.914L331.805 110.807ZM355.027 117.69L352.989 123.651L354.882 124.298L356.92 118.337L355.027 117.69ZM354.259 123.029L345.459 120.02L344.812 121.912L353.612 124.921L354.259 123.029ZM344.189 120.642L334.904 147.799L336.796 148.446L346.082 121.289L344.189 120.642ZM336.174 147.176L329.929 145.041L329.281 146.933L335.527 149.069L336.174 147.176ZM330.551 146.311L339.837 119.154L337.944 118.507L328.659 145.663L330.551 146.311ZM339.214 117.884L330.414 114.876L329.767 116.768L338.567 119.777L339.214 117.884ZM331.037 116.145L333.075 110.184L331.183 109.537L329.144 115.498L331.037 116.145Z" fill="#30EFD3"/>
<path d="M45.5719 119.466L45.8954 118.52L44.9492 118.196L44.6257 119.143L45.5719 119.466ZM41.3012 131.956L40.9777 132.902L41.9239 133.226L42.2475 132.28L41.3012 131.956ZM35.0562 129.821L34.11 129.497L33.7865 130.444L34.7327 130.767L35.0562 129.821ZM46.3799 96.7033L46.7034 95.7571L45.7572 95.4336L45.4337 96.3798L46.3799 96.7033ZM63.4991 103.508L62.8158 104.238L62.8234 104.245L62.8313 104.252L63.4991 103.508ZM65.8775 106.752L64.957 107.143L64.9641 107.159L64.9718 107.176L65.8775 106.752ZM66.7184 110.474L65.7185 110.483L65.7186 110.499L65.7193 110.516L66.7184 110.474ZM63.8875 118.754L63.1115 118.123L63.1067 118.129L63.102 118.135L63.8875 118.754ZM60.9113 121.276L60.4244 120.403L60.4227 120.404L60.9113 121.276ZM57.0284 122.432L57.1217 123.428L57.0284 122.432ZM47.6102 113.505L46.6639 113.181L46.3404 114.128L47.2866 114.451L47.6102 113.505ZM57.3659 115.573L56.9619 114.658L56.9529 114.662L56.9441 114.666L57.3659 115.573ZM59.566 109.138L58.6773 109.597L58.6818 109.605L58.6864 109.614L59.566 109.138ZM50.5867 104.8L50.9102 103.854L49.964 103.53L49.6405 104.476L50.5867 104.8ZM44.6257 119.143L40.355 131.633L42.2475 132.28L46.5181 119.79L44.6257 119.143ZM41.6248 131.01L35.3797 128.875L34.7327 130.767L40.9777 132.902L41.6248 131.01ZM36.0024 130.144L47.3261 97.0268L45.4337 96.3798L34.11 129.497L36.0024 130.144ZM46.0564 97.6495L59.0195 102.082L59.6666 100.19L46.7034 95.7571L46.0564 97.6495ZM59.0195 102.082C60.619 102.629 61.8726 103.355 62.8158 104.238L64.1824 102.778C62.9907 101.662 61.4735 100.807 59.6666 100.19L59.0195 102.082ZM62.8313 104.252C63.8132 105.133 64.5133 106.097 64.957 107.143L66.798 106.361C66.2271 105.016 65.3416 103.818 64.167 102.764L62.8313 104.252ZM64.9718 107.176C65.46 108.219 65.7087 109.318 65.7185 110.483L67.7184 110.466C67.7062 109.016 67.3943 107.634 66.7832 106.328L64.9718 107.176ZM65.7193 110.516C65.7676 111.68 65.6065 112.799 65.2375 113.878L67.1299 114.525C67.5805 113.207 67.776 111.841 67.7176 110.433L65.7193 110.516ZM65.2375 113.878L64.8493 115.014L66.7417 115.661L67.1299 114.525L65.2375 113.878ZM64.8493 115.014C64.4683 116.128 63.8914 117.163 63.1115 118.123L64.6636 119.384C65.5864 118.249 66.2815 117.007 66.7417 115.661L64.8493 115.014ZM63.102 118.135C62.3771 119.055 61.4876 119.81 60.4244 120.403L61.3981 122.15C62.6852 121.432 63.7798 120.506 64.673 119.372L63.102 118.135ZM60.4227 120.404C59.4261 120.962 58.2696 121.312 56.9352 121.437L57.1217 123.428C58.6988 123.28 60.1308 122.859 61.3998 122.149L60.4227 120.404ZM56.9352 121.437C55.6489 121.557 54.213 121.364 52.6136 120.817L51.9665 122.709C53.7734 123.327 55.4965 123.58 57.1217 123.428L56.9352 121.437ZM52.6136 120.817L45.8954 118.52L45.2484 120.412L51.9665 122.709L52.6136 120.817ZM47.2866 114.451L53.3897 116.538L54.0368 114.646L47.9337 112.559L47.2866 114.451ZM53.3897 116.538C54.953 117.073 56.4479 117.103 57.7878 116.479L56.9441 114.666C56.1893 115.017 55.2491 115.06 54.0368 114.646L53.3897 116.538ZM57.77 116.487C59.1246 115.889 60.0526 114.824 60.5452 113.383L58.6528 112.736C58.3258 113.693 57.7651 114.303 56.9619 114.658L57.77 116.487ZM60.5452 113.383L60.7393 112.816L58.8469 112.169L58.6528 112.736L60.5452 113.383ZM60.7393 112.816C61.2319 111.375 61.1502 109.965 60.4455 108.662L58.6864 109.614C59.1042 110.386 59.1739 111.212 58.8469 112.169L60.7393 112.816ZM60.4547 108.68C59.777 107.366 58.5766 106.475 57.0133 105.94L56.3662 107.833C57.5785 108.247 58.2956 108.857 58.6773 109.597L60.4547 108.68ZM57.0133 105.94L50.9102 103.854L50.2631 105.746L56.3662 107.833L57.0133 105.94ZM49.6405 104.476L46.6639 113.181L48.5564 113.829L51.5329 105.123L49.6405 104.476ZM75.8217 106.77L76.1452 105.824L75.199 105.5L74.8754 106.447L75.8217 106.77ZM82.0667 108.905L83.0129 109.229L83.3364 108.283L82.3902 107.959L82.0667 108.905ZM72.7813 136.062L71.835 135.738L71.5115 136.685L72.4577 137.008L72.7813 136.062ZM87.8261 141.206L88.7723 141.53L89.0958 140.583L88.1496 140.26L87.8261 141.206ZM85.7878 147.167L85.4643 148.113L86.4105 148.437L86.734 147.491L85.7878 147.167ZM64.498 139.888L63.5517 139.564L63.2282 140.51L64.1744 140.834L64.498 139.888ZM75.4981 107.716L81.7432 109.852L82.3902 107.959L76.1452 105.824L75.4981 107.716ZM81.1205 108.582L71.835 135.738L73.7275 136.385L83.0129 109.229L81.1205 108.582ZM72.4577 137.008L87.5026 142.152L88.1496 140.26L73.1048 135.116L72.4577 137.008ZM86.8799 140.883L84.8416 146.844L86.734 147.491L88.7723 141.53L86.8799 140.883ZM86.1114 146.221L64.8215 138.942L64.1744 140.834L85.4643 148.113L86.1114 146.221ZM65.4442 140.211L76.7679 107.094L74.8754 106.447L63.5517 139.564L65.4442 140.211ZM112.121 148.245L113.115 148.351L113.2 147.557L112.444 147.299L112.121 148.245ZM100.861 144.395L101.184 143.449L100.429 143.19L100.009 143.87L100.861 144.395ZM96.8257 150.941L96.5021 151.888L97.2579 152.146L97.677 151.466L96.8257 150.941ZM90.2968 148.709L89.4515 148.175L88.7747 149.245L89.9732 149.655L90.2968 148.709ZM109.521 118.293L109.845 117.347L109.098 117.091L108.676 117.759L109.521 118.293ZM121.254 122.305L122.25 122.4L122.325 121.614L121.578 121.359L121.254 122.305ZM117.832 158.124L117.508 159.07L118.707 159.48L118.827 158.219L117.832 158.124ZM111.303 155.891L110.308 155.785L110.224 156.579L110.979 156.838L111.303 155.891ZM104.224 138.887L103.374 138.36L102.713 139.427L103.9 139.833L104.224 138.887ZM112.787 141.815L112.463 142.761L113.648 143.166L113.781 141.921L112.787 141.815ZM114.746 123.567L115.74 123.674L115.826 122.879L115.07 122.621L114.746 123.567ZM113.894 123.276L114.218 122.33L113.464 122.072L113.044 122.749L113.894 123.276ZM112.444 147.299L101.184 143.449L100.537 145.341L111.797 149.191L112.444 147.299ZM100.009 143.87L95.9744 150.417L97.677 151.466L101.712 144.919L100.009 143.87ZM97.1492 149.995L90.6203 147.763L89.9732 149.655L96.5021 151.888L97.1492 149.995ZM91.1421 149.243L110.367 118.827L108.676 117.759L89.4515 148.175L91.1421 149.243ZM109.198 119.239L120.931 123.251L121.578 121.359L109.845 117.347L109.198 119.239ZM120.259 122.21L116.836 158.029L118.827 158.219L122.25 122.4L120.259 122.21ZM118.155 157.178L111.626 154.945L110.979 156.838L117.508 159.07L118.155 157.178ZM112.297 155.998L113.115 148.351L111.126 148.138L110.308 155.785L112.297 155.998ZM103.9 139.833L112.463 142.761L113.111 140.868L104.547 137.94L103.9 139.833ZM113.781 141.921L115.74 123.674L113.752 123.46L111.793 141.708L113.781 141.921ZM115.07 122.621L114.218 122.33L113.571 124.222L114.423 124.513L115.07 122.621ZM113.044 122.749L103.374 138.36L105.074 139.413L114.745 123.802L113.044 122.749ZM133.89 150.615L134.836 150.939L135.16 149.993L134.213 149.669L133.89 150.615ZM132.471 150.13L131.474 150.217L131.531 150.866L132.147 151.076L132.471 150.13ZM130.305 125.399L130.629 124.453L129.175 123.956L129.309 125.487L130.305 125.399ZM137.118 127.729L138.115 127.651L138.064 126.995L137.442 126.783L137.118 127.729ZM138.528 145.86L137.531 145.938L137.582 146.593L138.204 146.806L138.528 145.86ZM139.379 146.151L139.056 147.098L139.678 147.31L140.12 146.823L139.379 146.151ZM151.595 132.679L151.919 131.733L151.296 131.52L150.854 132.007L151.595 132.679ZM158.408 135.008L159.142 135.687L160.185 134.559L158.731 134.062L158.408 135.008ZM141.554 153.236L141.231 154.182L141.847 154.393L142.288 153.915L141.554 153.236ZM140.135 152.751L140.458 151.804L139.512 151.481L139.189 152.427L140.135 152.751ZM136.155 164.389L135.832 165.335L136.778 165.659L137.102 164.713L136.155 164.389ZM129.91 162.254L128.964 161.93L128.641 162.876L129.587 163.2L129.91 162.254ZM134.213 149.669L132.794 149.184L132.147 151.076L133.566 151.562L134.213 149.669ZM133.467 150.043L131.301 125.312L129.309 125.487L131.474 150.217L133.467 150.043ZM129.982 126.346L136.794 128.675L137.442 126.783L130.629 124.453L129.982 126.346ZM136.121 127.806L137.531 145.938L139.525 145.783L138.115 127.651L136.121 127.806ZM138.204 146.806L139.056 147.098L139.703 145.205L138.851 144.914L138.204 146.806ZM140.12 146.823L152.336 133.351L150.854 132.007L138.639 145.48L140.12 146.823ZM151.272 133.625L158.084 135.955L158.731 134.062L151.919 131.733L151.272 133.625ZM157.674 134.329L140.82 152.557L142.288 153.915L159.142 135.687L157.674 134.329ZM141.878 152.29L140.458 151.804L139.811 153.697L141.231 154.182L141.878 152.29ZM139.189 152.427L135.209 164.066L137.102 164.713L141.081 153.074L139.189 152.427ZM136.479 163.443L130.234 161.308L129.587 163.2L135.832 165.335L136.479 163.443ZM130.857 162.577L134.836 150.939L132.944 150.292L128.964 161.93L130.857 162.577Z" fill="#FCBB00"/>
<path d="M186.838 143.673L187.162 142.726L186.215 142.403L185.892 143.349L186.838 143.673ZM210.683 151.826L211.629 152.149L211.953 151.203L211.006 150.879L210.683 151.826ZM208.645 157.787L208.321 158.733L209.267 159.057L209.591 158.11L208.645 157.787ZM199.845 154.778L200.168 153.832L199.222 153.508L198.899 154.454L199.845 154.778ZM190.559 181.934L190.236 182.881L191.182 183.204L191.506 182.258L190.559 181.934ZM184.314 179.799L183.368 179.475L183.045 180.422L183.991 180.745L184.314 179.799ZM193.6 152.643L194.546 152.966L194.869 152.02L193.923 151.696L193.6 152.643ZM184.8 149.634L183.854 149.31L183.53 150.256L184.476 150.58L184.8 149.634ZM186.515 144.619L210.359 152.772L211.006 150.879L187.162 142.726L186.515 144.619ZM209.737 151.502L207.698 157.463L209.591 158.11L211.629 152.149L209.737 151.502ZM208.968 156.841L200.168 153.832L199.521 155.724L208.321 158.733L208.968 156.841ZM198.899 154.454L189.613 181.611L191.506 182.258L200.791 155.101L198.899 154.454ZM190.883 180.988L184.638 178.853L183.991 180.745L190.236 182.881L190.883 180.988ZM185.261 180.123L194.546 152.966L192.654 152.319L183.368 179.475L185.261 180.123ZM193.923 151.696L185.123 148.688L184.476 150.58L193.276 153.589L193.923 151.696ZM185.746 149.957L187.784 143.996L185.892 143.349L183.854 149.31L185.746 149.957ZM216.138 153.691L216.462 152.745L215.515 152.421L215.192 153.367L216.138 153.691ZM222.383 155.826L223.329 156.15L223.653 155.204L222.707 154.88L222.383 155.826ZM217.756 169.357L216.81 169.034L216.487 169.98L217.433 170.303L217.756 169.357ZM228.449 173.013L228.125 173.959L229.071 174.283L229.395 173.337L228.449 173.013ZM233.075 159.482L233.399 158.536L232.453 158.212L232.129 159.159L233.075 159.482ZM239.32 161.617L240.267 161.941L240.59 160.995L239.644 160.671L239.32 161.617ZM227.997 194.735L227.673 195.681L228.619 196.005L228.943 195.059L227.997 194.735ZM221.752 192.6L220.805 192.276L220.482 193.222L221.428 193.546L221.752 192.6ZM226.41 178.974L227.357 179.298L227.68 178.352L226.734 178.028L226.41 178.974ZM215.718 175.318L216.042 174.372L215.096 174.049L214.772 174.995L215.718 175.318ZM211.059 188.944L210.736 189.89L211.682 190.214L212.006 189.267L211.059 188.944ZM204.814 186.808L203.868 186.485L203.545 187.431L204.491 187.755L204.814 186.808ZM215.814 154.637L222.059 156.772L222.707 154.88L216.462 152.745L215.814 154.637ZM221.437 155.503L216.81 169.034L218.703 169.681L223.329 156.15L221.437 155.503ZM217.433 170.303L228.125 173.959L228.772 172.067L218.08 168.411L217.433 170.303ZM229.395 173.337L234.021 159.806L232.129 159.159L227.503 172.69L229.395 173.337ZM232.752 160.428L238.997 162.564L239.644 160.671L233.399 158.536L232.752 160.428ZM238.374 161.294L227.05 194.412L228.943 195.059L240.267 161.941L238.374 161.294ZM228.32 193.789L222.075 191.654L221.428 193.546L227.673 195.681L228.32 193.789ZM222.698 192.923L227.357 179.298L225.464 178.651L220.805 192.276L222.698 192.923ZM226.734 178.028L216.042 174.372L215.395 176.265L226.087 179.92L226.734 178.028ZM214.772 174.995L210.113 188.62L212.006 189.267L216.664 175.642L214.772 174.995ZM211.383 187.998L205.138 185.862L204.491 187.755L210.736 189.89L211.383 187.998ZM205.761 187.132L217.084 154.014L215.192 153.367L203.868 186.485L205.761 187.132ZM246.1 163.936L246.424 162.989L245.477 162.666L245.154 163.612L246.1 163.936ZM267.012 171.086L267.958 171.409L268.281 170.463L267.335 170.14L267.012 171.086ZM264.973 177.047L264.65 177.993L265.596 178.317L265.92 177.37L264.973 177.047ZM250.307 172.032L250.63 171.086L249.684 170.762L249.361 171.709L250.307 172.032ZM247.719 179.602L246.772 179.278L246.449 180.225L247.395 180.548L247.719 179.602ZM261.817 184.423L262.764 184.746L263.087 183.8L262.141 183.476L261.817 184.423ZM259.779 190.384L259.455 191.33L260.402 191.653L260.725 190.707L259.779 190.384ZM245.68 185.563L246.004 184.617L245.058 184.293L244.734 185.24L245.68 185.563ZM243.06 193.227L242.114 192.904L241.79 193.85L242.736 194.174L243.06 193.227ZM258.294 198.436L259.24 198.76L259.564 197.814L258.617 197.49L258.294 198.436ZM256.256 204.397L255.932 205.344L256.878 205.667L257.202 204.721L256.256 204.397ZM234.776 197.053L233.83 196.73L233.507 197.676L234.453 197.999L234.776 197.053ZM245.777 164.882L266.688 172.032L267.335 170.14L246.424 162.989L245.777 164.882ZM266.065 170.762L264.027 176.723L265.92 177.37L267.958 171.409L266.065 170.762ZM265.297 176.101L250.63 171.086L249.983 172.978L264.65 177.993L265.297 176.101ZM249.361 171.709L246.772 179.278L248.665 179.925L251.253 172.356L249.361 171.709ZM247.395 180.548L261.494 185.369L262.141 183.476L248.042 178.656L247.395 180.548ZM260.871 184.099L258.833 190.06L260.725 190.707L262.764 184.746L260.871 184.099ZM260.103 189.438L246.004 184.617L245.357 186.509L259.455 191.33L260.103 189.438ZM244.734 185.24L242.114 192.904L244.006 193.551L246.627 185.887L244.734 185.24ZM242.736 194.174L257.97 199.383L258.617 197.49L243.383 192.281L242.736 194.174ZM257.348 198.113L255.309 204.074L257.202 204.721L259.24 198.76L257.348 198.113ZM256.579 203.451L235.1 196.107L234.453 197.999L255.932 205.344L256.579 203.451ZM235.723 197.377L247.046 164.259L245.154 163.612L233.83 196.73L235.723 197.377ZM306.862 202.995L307.185 202.049L306.239 201.725L305.915 202.671L306.862 202.995ZM321.055 207.848L322.001 208.171L322.325 207.225L321.378 206.902L321.055 207.848ZM315.328 224.596L315.005 225.542L315.951 225.866L316.275 224.919L315.328 224.596ZM309.651 222.655L308.705 222.331L308.381 223.277L309.327 223.601L309.651 222.655ZM310.913 218.964L311.859 219.288L312.183 218.342L311.236 218.018L310.913 218.964ZM310.061 218.673L310.385 217.727L309.686 217.488L309.252 218.086L310.061 218.673ZM306.817 221.052L307.135 222L307.144 221.997L307.152 221.994L306.817 221.052ZM297.604 218.324L298.274 217.582L297.604 218.324ZM295.008 214.636L294.08 215.008L294.085 215.021L295.008 214.636ZM294.113 209.68L293.113 209.678L293.113 209.684L294.113 209.68ZM300.744 190.44L299.973 189.804L299.967 189.812L300.744 190.44ZM304.739 187.103L304.286 186.212L304.28 186.215L304.273 186.218L304.739 187.103ZM309.539 185.891L309.569 186.891L309.578 186.891L309.587 186.89L309.539 185.891ZM319.6 189.384L318.932 190.128L318.939 190.134L318.946 190.14L319.6 189.384ZM322.512 193.233L321.601 193.647L321.604 193.653L321.607 193.66L322.512 193.233ZM323.567 197.874L322.567 197.892L322.567 197.899L323.567 197.874ZM322.575 203.401L322.252 204.347L323.198 204.67L323.522 203.724L322.575 203.401ZM316.33 201.265L315.384 200.942L315.061 201.888L316.007 202.212L316.33 201.265ZM316.5 195.669L315.596 196.096L315.602 196.11L315.609 196.123L316.5 195.669ZM307.761 192.945L308.214 193.837L308.226 193.831L307.761 192.945ZM309.93 215.194L309.475 214.303L309.475 214.303L309.93 215.194ZM312.772 211.674L313.718 211.997L314.041 211.051L313.095 210.727L312.772 211.674ZM304.823 208.956L303.877 208.632L303.554 209.579L304.5 209.902L304.823 208.956ZM306.538 203.941L320.731 208.794L321.378 206.902L307.185 202.049L306.538 203.941ZM320.109 207.524L314.382 224.272L316.275 224.919L322.001 208.171L320.109 207.524ZM315.652 223.65L309.975 221.708L309.327 223.601L315.005 225.542L315.652 223.65ZM310.597 222.978L311.859 219.288L309.967 218.641L308.705 222.331L310.597 222.978ZM311.236 218.018L310.385 217.727L309.738 219.619L310.589 219.911L311.236 218.018ZM309.252 218.086C308.579 219.012 307.668 219.688 306.482 220.109L307.152 221.994C308.693 221.446 309.945 220.536 310.87 219.261L309.252 218.086ZM306.499 220.103C305.446 220.457 303.945 220.387 301.894 219.685L301.247 221.578C303.486 222.343 305.483 222.553 307.135 222L306.499 220.103ZM301.894 219.685C300.502 219.209 299.299 218.507 298.274 217.582L296.934 219.066C298.17 220.182 299.612 221.019 301.247 221.578L301.894 219.685ZM298.274 217.582C297.256 216.663 296.475 215.556 295.931 214.251L294.085 215.021C294.741 216.592 295.691 217.945 296.934 219.066L298.274 217.582ZM295.936 214.264C295.4 212.928 295.12 211.404 295.113 209.676L293.113 209.684C293.121 211.624 293.436 213.404 294.08 215.008L295.936 214.264ZM295.113 209.682C295.117 207.949 295.47 206.022 296.198 203.893L294.305 203.246C293.523 205.532 293.117 207.679 293.113 209.678L295.113 209.682ZM296.198 203.893L298.85 196.134L296.958 195.487L294.305 203.246L296.198 203.893ZM298.85 196.134C299.554 194.076 300.45 192.395 301.522 191.069L299.967 189.812C298.718 191.356 297.721 193.256 296.958 195.487L298.85 196.134ZM301.515 191.077C302.646 189.709 303.877 188.687 305.205 187.988L304.273 186.218C302.68 187.057 301.248 188.26 299.973 189.804L301.515 191.077ZM305.192 187.995C306.55 187.305 308.005 186.937 309.569 186.891L309.51 184.892C307.658 184.946 305.912 185.386 304.286 186.212L305.192 187.995ZM309.587 186.89C311.165 186.815 312.813 187.064 314.538 187.653L315.185 185.761C313.251 185.1 311.351 184.804 309.492 184.892L309.587 186.89ZM314.538 187.653C316.325 188.264 317.781 189.095 318.932 190.128L320.268 188.64C318.886 187.398 317.183 186.444 315.185 185.761L314.538 187.653ZM318.946 190.14C320.12 191.157 321.001 192.325 321.601 193.647L323.422 192.819C322.696 191.221 321.635 189.823 320.255 188.628L318.946 190.14ZM321.607 193.66C322.218 194.953 322.54 196.36 322.567 197.892L324.567 197.857C324.535 196.057 324.154 194.37 323.416 192.806L321.607 193.66ZM322.567 197.899C322.604 199.405 322.36 200.941 321.823 202.509L323.716 203.156C324.323 201.382 324.61 199.611 324.567 197.85L322.567 197.899ZM321.823 202.509L321.629 203.077L323.522 203.724L323.716 203.156L321.823 202.509ZM322.899 202.454L316.654 200.319L316.007 202.212L322.252 204.347L322.899 202.454ZM317.277 201.589L317.471 201.021L315.578 200.374L315.384 200.942L317.277 201.589ZM317.471 201.021C318.204 198.876 318.25 196.9 317.391 195.215L315.609 196.123C316.142 197.169 316.204 198.545 315.578 200.374L317.471 201.021ZM317.405 195.243C316.605 193.548 315.093 192.387 313.052 191.69L312.405 193.582C314.086 194.157 315.088 195.019 315.596 196.096L317.405 195.243ZM313.052 191.69C311.046 191.004 309.104 191.112 307.297 192.06L308.226 193.831C309.509 193.158 310.878 193.06 312.405 193.582L313.052 191.69ZM307.309 192.054C305.419 193.013 304.048 195.151 303.041 198.095L304.934 198.742C305.89 195.946 307.035 194.435 308.214 193.837L307.309 192.054ZM303.041 198.095L300.647 205.097L302.54 205.744L304.934 198.742L303.041 198.095ZM300.647 205.097C299.738 207.756 299.534 210.11 300.251 212.05C300.986 214.037 302.61 215.386 304.894 216.167L305.541 214.274C303.663 213.632 302.6 212.635 302.127 211.356C301.636 210.029 301.702 208.195 302.54 205.744L300.647 205.097ZM304.894 216.167C306.915 216.858 308.785 216.902 310.385 216.084L309.475 214.303C308.514 214.794 307.243 214.856 305.541 214.274L304.894 216.167ZM310.384 216.084C311.982 215.269 313.079 213.865 313.718 211.997L311.825 211.35C311.321 212.826 310.524 213.768 309.475 214.303L310.384 216.084ZM313.095 210.727L305.147 208.01L304.5 209.902L312.448 212.62L313.095 210.727ZM305.77 209.28L307.808 203.318L305.915 202.671L303.877 208.632L305.77 209.28ZM340.337 225.22L341.331 225.327L341.416 224.533L340.66 224.274L340.337 225.22ZM329.077 221.37L329.4 220.424L328.644 220.166L328.225 220.846L329.077 221.37ZM325.041 227.917L324.718 228.863L325.474 229.122L325.893 228.442L325.041 227.917ZM318.513 225.685L317.667 225.15L316.991 226.221L318.189 226.631L318.513 225.685ZM337.737 195.269L338.061 194.322L337.314 194.067L336.892 194.734L337.737 195.269ZM349.47 199.28L350.466 199.376L350.541 198.59L349.794 198.334L349.47 199.28ZM346.047 235.1L345.724 236.046L346.922 236.456L347.043 235.195L346.047 235.1ZM339.519 232.867L338.524 232.761L338.439 233.555L339.195 233.813L339.519 232.867ZM332.44 215.862L331.589 215.336L330.929 216.402L332.116 216.808L332.44 215.862ZM341.003 218.79L340.679 219.736L341.863 220.141L341.997 218.897L341.003 218.79ZM342.962 200.543L343.956 200.649L344.041 199.855L343.285 199.596L342.962 200.543ZM342.11 200.251L342.434 199.305L341.68 199.047L341.26 199.725L342.11 200.251ZM340.66 224.274L329.4 220.424L328.753 222.317L340.013 226.167L340.66 224.274ZM328.225 220.846L324.19 227.392L325.893 228.442L329.928 221.895L328.225 220.846ZM325.365 226.971L318.836 224.738L318.189 226.631L324.718 228.863L325.365 226.971ZM319.358 226.219L338.582 195.803L336.892 194.734L317.667 225.15L319.358 226.219ZM337.414 196.215L349.147 200.227L349.794 198.334L338.061 194.322L337.414 196.215ZM348.475 199.185L345.052 235.004L347.043 235.195L350.466 199.376L348.475 199.185ZM346.371 234.153L339.842 231.921L339.195 233.813L345.724 236.046L346.371 234.153ZM340.513 232.973L341.331 225.327L339.342 225.114L338.524 232.761L340.513 232.973ZM332.116 216.808L340.679 219.736L341.326 217.844L332.763 214.916L332.116 216.808ZM341.997 218.897L343.956 200.649L341.968 200.436L340.008 218.683L341.997 218.897ZM343.285 199.596L342.434 199.305L341.787 201.198L342.638 201.489L343.285 199.596ZM341.26 199.725L331.589 215.336L333.29 216.389L342.96 200.778L341.26 199.725ZM359.136 202.585L359.46 201.639L358.513 201.316L358.19 202.262L359.136 202.585ZM370.112 206.338L371.08 206.589L371.313 205.692L370.436 205.392L370.112 206.338ZM363.496 231.871L364.442 232.194L364.454 232.159L364.464 232.122L363.496 231.871ZM361.846 236.697L360.899 236.373L360.576 237.319L361.522 237.643L361.846 236.697ZM362.981 237.085L362.658 238.031L363.604 238.355L363.927 237.408L362.981 237.085ZM364.631 232.259L363.712 231.865L363.697 231.9L363.685 231.936L364.631 232.259ZM375.033 208.021L375.356 207.075L374.479 206.775L374.114 207.626L375.033 208.021ZM386.009 211.774L386.955 212.097L387.278 211.151L386.332 210.828L386.009 211.774ZM374.685 244.891L374.361 245.838L375.308 246.161L375.631 245.215L374.685 244.891ZM369.008 242.95L368.061 242.627L367.738 243.573L368.684 243.896L369.008 242.95ZM376.578 220.809L375.659 220.415L375.644 220.45L375.632 220.485L376.578 220.809ZM379.734 213.433L380.654 213.826L381.078 212.836L380.058 212.487L379.734 213.433ZM378.599 213.045L378.922 212.099L378.051 211.801L377.683 212.644L378.599 213.045ZM365.98 241.915L365.656 242.861L366.527 243.159L366.896 242.315L365.98 241.915ZM356.612 238.712L355.642 238.471L355.42 239.361L356.289 239.658L356.612 238.712ZM364.216 208.127L365.187 208.368L365.408 207.478L364.54 207.181L364.216 208.127ZM363.081 207.739L363.404 206.793L362.385 206.444L362.113 207.487L363.081 207.739ZM361.06 215.503L362.007 215.826L362.019 215.791L362.028 215.755L361.06 215.503ZM353.49 237.644L353.166 238.59L354.112 238.914L354.436 237.968L353.49 237.644ZM347.812 235.703L346.866 235.379L346.543 236.326L347.489 236.649L347.812 235.703ZM358.813 203.532L369.789 207.285L370.436 205.392L359.46 201.639L358.813 203.532ZM369.144 206.088L362.528 231.62L364.464 232.122L371.08 206.589L369.144 206.088ZM362.549 231.547L360.899 236.373L362.792 237.02L364.442 232.194L362.549 231.547ZM361.522 237.643L362.658 238.031L363.305 236.139L362.169 235.75L361.522 237.643ZM363.927 237.408L365.577 232.583L363.685 231.936L362.035 236.761L363.927 237.408ZM365.55 232.654L375.951 208.415L374.114 207.626L363.712 231.865L365.55 232.654ZM374.709 208.967L385.685 212.72L386.332 210.828L375.356 207.075L374.709 208.967ZM385.062 211.45L373.739 244.568L375.631 245.215L386.955 212.097L385.062 211.45ZM375.008 243.945L369.331 242.004L368.684 243.896L374.361 245.838L375.008 243.945ZM369.954 243.274L377.525 221.132L375.632 220.485L368.061 242.627L369.954 243.274ZM377.498 221.202L380.654 213.826L378.815 213.04L375.659 220.415L377.498 221.202ZM380.058 212.487L378.922 212.099L378.275 213.991L379.411 214.379L380.058 212.487ZM377.683 212.644L365.063 241.514L366.896 242.315L379.515 213.445L377.683 212.644ZM366.303 240.969L356.936 237.766L356.289 239.658L365.656 242.861L366.303 240.969ZM357.583 238.953L365.187 208.368L363.246 207.886L355.642 238.471L357.583 238.953ZM364.54 207.181L363.404 206.793L362.757 208.685L363.893 209.073L364.54 207.181ZM362.113 207.487L360.093 215.251L362.028 215.755L364.049 207.991L362.113 207.487ZM360.114 215.179L352.543 237.321L354.436 237.968L362.007 215.826L360.114 215.179ZM353.813 236.698L348.136 234.757L347.489 236.649L353.166 238.59L353.813 236.698ZM348.759 236.027L360.082 202.909L358.19 202.262L346.866 235.379L348.759 236.027ZM390.943 213.461L391.267 212.515L390.321 212.191L389.997 213.138L390.943 213.461ZM411.855 220.611L412.801 220.935L413.125 219.988L412.178 219.665L411.855 220.611ZM409.816 226.572L409.493 227.519L410.439 227.842L410.763 226.896L409.816 226.572ZM395.15 221.558L395.474 220.611L394.527 220.288L394.204 221.234L395.15 221.558ZM392.562 229.127L391.616 228.804L391.292 229.75L392.238 230.074L392.562 229.127ZM406.661 233.948L407.607 234.271L407.93 233.325L406.984 233.002L406.661 233.948ZM404.622 239.909L404.299 240.855L405.245 241.179L405.568 240.233L404.622 239.909ZM390.524 235.088L390.847 234.142L389.901 233.819L389.577 234.765L390.524 235.088ZM387.903 242.753L386.957 242.429L386.633 243.375L387.579 243.699L387.903 242.753ZM403.137 247.962L404.083 248.285L404.407 247.339L403.461 247.015L403.137 247.962ZM401.099 253.923L400.775 254.869L401.721 255.193L402.045 254.246L401.099 253.923ZM379.62 246.579L378.673 246.255L378.35 247.201L379.296 247.525L379.62 246.579ZM390.62 214.407L411.531 221.557L412.178 219.665L391.267 212.515L390.62 214.407ZM410.909 220.288L408.87 226.249L410.763 226.896L412.801 220.935L410.909 220.288ZM410.14 225.626L395.474 220.611L394.827 222.504L409.493 227.519L410.14 225.626ZM394.204 221.234L391.616 228.804L393.508 229.451L396.096 221.881L394.204 221.234ZM392.238 230.074L406.337 234.894L406.984 233.002L392.885 228.181L392.238 230.074ZM405.714 233.624L403.676 239.586L405.568 240.233L407.607 234.271L405.714 233.624ZM404.946 238.963L390.847 234.142L390.2 236.035L404.299 240.855L404.946 238.963ZM389.577 234.765L386.957 242.429L388.849 243.076L391.47 235.412L389.577 234.765ZM387.579 243.699L402.814 248.908L403.461 247.015L388.227 241.807L387.579 243.699ZM402.191 247.638L400.153 253.599L402.045 254.246L404.083 248.285L402.191 247.638ZM401.422 252.977L379.943 245.632L379.296 247.525L400.775 254.869L401.422 252.977ZM380.566 246.902L391.89 213.785L389.997 213.138L378.673 246.255L380.566 246.902ZM416.915 253.148L416.182 252.468L416.173 252.479L416.164 252.489L416.915 253.148ZM418.394 252.069L418.798 252.984L418.816 252.975L418.834 252.967L418.394 252.069ZM420.137 251.608L420.198 252.606L420.223 252.604L420.247 252.602L420.137 251.608ZM423.591 252.789L422.895 253.507L422.92 253.531L422.946 253.553L423.591 252.789ZM424.734 254.236L423.836 254.677L423.845 254.695L423.854 254.712L424.734 254.236ZM425.195 255.979L424.196 256.021L424.197 256.055L424.201 256.089L425.195 255.979ZM420.752 266.191L420.312 265.293L420.303 265.298L420.294 265.302L420.752 266.191ZM414.323 265.367L413.377 265.043L413.053 265.989L413.999 266.313L414.323 265.367ZM415.585 261.677L415.908 260.73L414.962 260.407L414.638 261.353L415.585 261.677ZM419.812 260.903L420.759 261.226L421.225 259.861L419.783 259.903L419.812 260.903ZM417.338 259.793L418.034 259.074L418.016 259.057L417.998 259.041L417.338 259.793ZM416.243 258.361L417.14 257.921L416.243 258.361ZM415.734 256.602L414.736 256.663L414.738 256.688L414.74 256.712L415.734 256.602ZM416.948 255.062C417.112 254.582 417.352 254.167 417.667 253.808L416.164 252.489C415.67 253.051 415.301 253.696 415.056 254.415L416.948 255.062ZM417.649 253.828C418.013 253.435 418.397 253.161 418.798 252.984L417.99 251.154C417.313 251.453 416.711 251.898 416.182 252.468L417.649 253.828ZM418.834 252.967C419.266 252.755 419.718 252.635 420.198 252.606L420.076 250.61C419.332 250.655 418.623 250.843 417.954 251.171L418.834 252.967ZM420.247 252.602C420.714 252.55 421.193 252.603 421.693 252.774L422.34 250.882C421.579 250.622 420.805 250.528 420.027 250.614L420.247 252.602ZM421.693 252.774C422.155 252.932 422.552 253.175 422.895 253.507L424.286 252.07C423.729 251.531 423.077 251.134 422.34 250.882L421.693 252.774ZM422.946 253.553C423.338 253.884 423.63 254.257 423.836 254.677L425.632 253.796C425.298 253.115 424.828 252.524 424.235 252.024L422.946 253.553ZM423.854 254.712C424.056 255.085 424.175 255.515 424.196 256.021L426.194 255.938C426.161 255.157 425.973 254.425 425.613 253.761L423.854 254.712ZM424.201 256.089C424.253 256.564 424.202 257.027 424.045 257.488L425.937 258.135C426.189 257.399 426.274 256.64 426.189 255.869L424.201 256.089ZM424.045 257.488L422.071 263.26L423.963 263.907L425.937 258.135L424.045 257.488ZM422.071 263.26C421.744 264.217 421.165 264.875 420.312 265.293L421.192 267.089C422.539 266.428 423.471 265.347 423.963 263.907L422.071 263.26ZM420.294 265.302C419.481 265.721 418.631 265.783 417.674 265.456L417.027 267.348C418.468 267.841 419.885 267.762 421.21 267.08L420.294 265.302ZM417.674 265.456L414.646 264.421L413.999 266.313L417.027 267.348L417.674 265.456ZM415.269 265.69L416.531 262L414.638 261.353L413.377 265.043L415.269 265.69ZM415.261 262.623L417.532 263.399L418.179 261.507L415.908 260.73L415.261 262.623ZM417.532 263.399C418.131 263.604 418.804 263.643 419.422 263.299C420.016 262.968 420.361 262.39 420.564 261.794L418.672 261.147C418.614 261.316 418.557 261.421 418.513 261.482C418.491 261.512 418.474 261.53 418.464 261.54C418.454 261.549 418.448 261.552 418.448 261.552C418.448 261.552 418.448 261.552 418.446 261.553C418.445 261.553 418.437 261.555 418.419 261.556C418.384 261.557 418.307 261.55 418.179 261.507L417.532 263.399ZM420.564 261.794L420.759 261.226L418.866 260.579L418.672 261.147L420.564 261.794ZM419.783 259.903C419.624 259.908 419.46 259.884 419.283 259.823L418.636 261.716C419.027 261.85 419.431 261.914 419.842 261.902L419.783 259.903ZM419.283 259.823C418.782 259.652 418.371 259.401 418.034 259.074L416.643 260.511C417.205 261.056 417.875 261.456 418.636 261.716L419.283 259.823ZM417.998 259.041C417.636 258.724 417.352 258.352 417.14 257.921L415.345 258.801C415.673 259.47 416.119 260.053 416.679 260.544L417.998 259.041ZM417.14 257.921C416.923 257.477 416.785 257.002 416.728 256.492L414.74 256.712C414.822 257.447 415.023 258.145 415.345 258.801L417.14 257.921ZM416.733 256.541C416.704 256.071 416.771 255.58 416.948 255.062L415.056 254.415C414.801 255.158 414.69 255.91 414.736 256.663L416.733 256.541ZM160.955 219.37L161.279 218.424L160.333 218.1L160.009 219.046L160.955 219.37ZM184.8 227.523L185.746 227.847L186.07 226.9L185.124 226.577L184.8 227.523ZM182.762 233.484L182.438 234.43L183.385 234.754L183.708 233.808L182.762 233.484ZM173.962 230.475L174.286 229.529L173.339 229.206L173.016 230.152L173.962 230.475ZM164.677 257.632L164.353 258.578L165.299 258.901L165.623 257.955L164.677 257.632ZM158.432 255.496L157.485 255.173L157.162 256.119L158.108 256.443L158.432 255.496ZM167.717 228.34L168.663 228.663L168.987 227.717L168.041 227.394L167.717 228.34ZM158.917 225.331L157.971 225.008L157.647 225.954L158.594 226.277L158.917 225.331ZM160.632 220.316L184.477 228.469L185.124 226.577L161.279 218.424L160.632 220.316ZM183.854 227.199L181.816 233.161L183.708 233.808L185.746 227.847L183.854 227.199ZM183.085 232.538L174.286 229.529L173.638 231.421L182.438 234.43L183.085 232.538ZM173.016 230.152L163.73 257.308L165.623 257.955L174.908 230.799L173.016 230.152ZM165 256.685L158.755 254.55L158.108 256.443L164.353 258.578L165 256.685ZM159.378 255.82L168.663 228.663L166.771 228.016L157.485 255.173L159.378 255.82ZM168.041 227.394L159.241 224.385L158.594 226.277L167.393 229.286L168.041 227.394ZM159.863 225.655L161.902 219.693L160.009 219.046L157.971 225.008L159.863 225.655ZM190.255 229.388L190.579 228.442L189.633 228.118L189.309 229.065L190.255 229.388ZM196.5 231.524L197.447 231.847L197.77 230.901L196.824 230.577L196.5 231.524ZM191.874 245.054L190.928 244.731L190.604 245.677L191.55 246.001L191.874 245.054ZM202.566 248.71L202.242 249.657L203.189 249.98L203.512 249.034L202.566 248.71ZM207.193 235.179L207.516 234.233L206.57 233.91L206.246 234.856L207.193 235.179ZM213.438 237.315L214.384 237.638L214.707 236.692L213.761 236.369L213.438 237.315ZM202.114 270.432L201.79 271.379L202.737 271.702L203.06 270.756L202.114 270.432ZM195.869 268.297L194.923 267.974L194.599 268.92L195.545 269.243L195.869 268.297ZM200.528 254.672L201.474 254.995L201.797 254.049L200.851 253.725L200.528 254.672ZM189.835 251.016L190.159 250.069L189.213 249.746L188.889 250.692L189.835 251.016ZM185.177 264.641L184.853 265.587L185.799 265.911L186.123 264.965L185.177 264.641ZM178.932 262.506L177.985 262.182L177.662 263.128L178.608 263.452L178.932 262.506ZM189.932 230.334L196.177 232.47L196.824 230.577L190.579 228.442L189.932 230.334ZM195.554 231.2L190.928 244.731L192.82 245.378L197.447 231.847L195.554 231.2ZM191.55 246.001L202.242 249.657L202.89 247.764L192.197 244.108L191.55 246.001ZM203.512 249.034L208.139 235.503L206.246 234.856L201.62 248.387L203.512 249.034ZM206.869 236.126L213.114 238.261L213.761 236.369L207.516 234.233L206.869 236.126ZM212.491 236.991L201.168 270.109L203.06 270.756L214.384 237.638L212.491 236.991ZM202.437 269.486L196.192 267.351L195.545 269.243L201.79 271.379L202.437 269.486ZM196.815 268.621L201.474 254.995L199.582 254.348L194.923 267.974L196.815 268.621ZM200.851 253.725L190.159 250.069L189.512 251.962L200.204 255.618L200.851 253.725ZM188.889 250.692L184.23 264.318L186.123 264.965L190.782 251.339L188.889 250.692ZM185.5 263.695L179.255 261.56L178.608 263.452L184.853 265.587L185.5 263.695ZM179.878 262.829L191.201 229.712L189.309 229.065L177.985 262.182L179.878 262.829ZM220.217 239.633L220.541 238.687L219.595 238.363L219.271 239.309L220.217 239.633ZM241.129 246.783L242.075 247.107L242.399 246.16L241.452 245.837L241.129 246.783ZM239.091 252.744L238.767 253.691L239.713 254.014L240.037 253.068L239.091 252.744ZM224.424 247.73L224.748 246.783L223.802 246.46L223.478 247.406L224.424 247.73ZM221.836 255.299L220.89 254.976L220.566 255.922L221.512 256.245L221.836 255.299ZM235.935 260.12L236.881 260.443L237.204 259.497L236.258 259.174L235.935 260.12ZM233.896 266.081L233.573 267.027L234.519 267.351L234.842 266.405L233.896 266.081ZM219.798 261.26L220.121 260.314L219.175 259.991L218.851 260.937L219.798 261.26ZM217.177 268.925L216.231 268.601L215.907 269.547L216.853 269.871L217.177 268.925ZM232.411 274.134L233.357 274.457L233.681 273.511L232.735 273.187L232.411 274.134ZM230.373 280.095L230.049 281.041L230.996 281.365L231.319 280.418L230.373 280.095ZM208.894 272.751L207.948 272.427L207.624 273.373L208.57 273.697L208.894 272.751ZM219.894 240.579L240.805 247.729L241.452 245.837L220.541 238.687L219.894 240.579ZM240.183 246.46L238.144 252.421L240.037 253.068L242.075 247.107L240.183 246.46ZM239.414 251.798L224.748 246.783L224.101 248.676L238.767 253.691L239.414 251.798ZM223.478 247.406L220.89 254.976L222.782 255.623L225.37 248.053L223.478 247.406ZM221.512 256.245L235.611 261.066L236.258 259.174L222.159 254.353L221.512 256.245ZM234.988 259.796L232.95 265.758L234.842 266.405L236.881 260.443L234.988 259.796ZM234.22 265.135L220.121 260.314L219.474 262.207L233.573 267.027L234.22 265.135ZM218.851 260.937L216.231 268.601L218.123 269.248L220.744 261.584L218.851 260.937ZM216.853 269.871L232.088 275.08L232.735 273.187L217.501 267.979L216.853 269.871ZM231.465 273.81L229.427 279.771L231.319 280.418L233.357 274.457L231.465 273.81ZM230.696 279.149L209.217 271.804L208.57 273.697L230.049 281.041L230.696 279.149ZM209.84 273.074L221.164 239.957L219.271 239.309L207.948 272.427L209.84 273.074ZM280.979 278.692L281.302 277.746L280.356 277.422L280.033 278.369L280.979 278.692ZM295.172 283.545L296.118 283.869L296.442 282.923L295.496 282.599L295.172 283.545ZM289.446 300.293L289.122 301.239L290.068 301.563L290.392 300.617L289.446 300.293ZM283.768 298.352L282.822 298.028L282.499 298.975L283.445 299.298L283.768 298.352ZM285.03 294.662L285.976 294.985L286.3 294.039L285.354 293.716L285.03 294.662ZM284.178 294.371L284.502 293.424L283.803 293.185L283.369 293.783L284.178 294.371ZM280.935 296.749L281.252 297.697L281.261 297.694L281.27 297.691L280.935 296.749ZM271.721 294.022L272.392 293.279L271.721 294.022ZM269.125 290.333L268.197 290.705L268.202 290.718L269.125 290.333ZM268.23 285.377L267.23 285.375L267.23 285.381L268.23 285.377ZM274.862 266.138L274.091 265.501L274.084 265.509L274.862 266.138ZM278.856 262.801L278.403 261.909L278.397 261.912L278.39 261.916L278.856 262.801ZM283.657 261.589L283.686 262.588L283.695 262.588L283.704 262.587L283.657 261.589ZM293.718 265.082L293.049 265.826L293.056 265.832L293.063 265.838L293.718 265.082ZM296.629 268.93L295.718 269.344L295.721 269.351L295.725 269.357L296.629 268.93ZM297.684 273.571L296.684 273.589L296.684 273.596L297.684 273.571ZM296.693 279.098L296.369 280.044L297.315 280.368L297.639 279.421L296.693 279.098ZM290.448 276.963L289.502 276.639L289.178 277.585L290.124 277.909L290.448 276.963ZM290.617 271.367L289.713 271.793L289.719 271.807L289.726 271.821L290.617 271.367ZM281.879 268.643L282.331 269.535L282.343 269.528L281.879 268.643ZM284.047 290.891L283.593 290L283.592 290L284.047 290.891ZM286.889 287.371L287.835 287.695L288.159 286.748L287.212 286.425L286.889 287.371ZM278.941 284.653L277.994 284.33L277.671 285.276L278.617 285.6L278.941 284.653ZM280.655 279.638L294.849 284.491L295.496 282.599L281.302 277.746L280.655 279.638ZM294.226 283.222L288.499 299.97L290.392 300.617L296.118 283.869L294.226 283.222ZM289.769 299.347L284.092 297.406L283.445 299.298L289.122 301.239L289.769 299.347ZM284.715 298.676L285.976 294.985L284.084 294.338L282.822 298.028L284.715 298.676ZM285.354 293.716L284.502 293.424L283.855 295.317L284.707 295.608L285.354 293.716ZM283.369 293.783C282.697 294.71 281.786 295.385 280.599 295.807L281.27 297.691C282.811 297.143 284.062 296.233 284.988 294.958L283.369 293.783ZM280.617 295.801C279.563 296.154 278.063 296.084 276.012 295.383L275.365 297.275C277.603 298.041 279.601 298.251 281.252 297.697L280.617 295.801ZM276.012 295.383C274.619 294.907 273.417 294.205 272.392 293.279L271.051 294.764C272.287 295.88 273.729 296.716 275.365 297.275L276.012 295.383ZM272.392 293.279C271.373 292.36 270.593 291.253 270.048 289.948L268.202 290.718C268.858 292.29 269.809 293.642 271.051 294.764L272.392 293.279ZM270.053 289.961C269.518 288.625 269.237 287.101 269.23 285.373L267.23 285.381C267.238 287.322 267.554 289.101 268.197 290.705L270.053 289.961ZM269.23 285.379C269.234 283.646 269.587 281.719 270.315 279.59L268.422 278.943C267.641 281.23 267.235 283.376 267.23 285.375L269.23 285.379ZM270.315 279.59L272.968 271.831L271.075 271.184L268.422 278.943L270.315 279.59ZM272.968 271.831C273.672 269.773 274.568 268.092 275.639 266.766L274.084 265.509C272.836 267.054 271.838 268.953 271.075 271.184L272.968 271.831ZM275.633 266.775C276.763 265.406 277.994 264.384 279.322 263.686L278.39 261.916C276.797 262.754 275.365 263.958 274.091 265.501L275.633 266.775ZM279.309 263.692C280.667 263.002 282.122 262.634 283.686 262.588L283.627 260.589C281.775 260.643 280.03 261.083 278.403 261.909L279.309 263.692ZM283.704 262.587C285.282 262.513 286.931 262.761 288.655 263.351L289.302 261.458C287.368 260.797 285.468 260.501 283.609 260.59L283.704 262.587ZM288.655 263.351C290.442 263.962 291.899 264.792 293.049 265.826L294.386 264.338C293.003 263.096 291.3 262.141 289.302 261.458L288.655 263.351ZM293.063 265.838C294.238 266.855 295.118 268.023 295.718 269.344L297.539 268.517C296.813 266.919 295.753 265.521 294.372 264.326L293.063 265.838ZM295.725 269.357C296.335 270.65 296.657 272.057 296.684 273.589L298.684 273.554C298.652 271.754 298.271 270.067 297.533 268.504L295.725 269.357ZM296.684 273.596C296.721 275.103 296.477 276.638 295.941 278.207L297.833 278.854C298.44 277.079 298.727 275.309 298.684 273.547L296.684 273.596ZM295.941 278.207L295.747 278.774L297.639 279.421L297.833 278.854L295.941 278.207ZM297.016 278.152L290.771 276.016L290.124 277.909L296.369 280.044L297.016 278.152ZM291.394 277.286L291.588 276.718L289.696 276.071L289.502 276.639L291.394 277.286ZM291.588 276.718C292.322 274.573 292.367 272.597 291.508 270.912L289.726 271.821C290.259 272.866 290.321 274.243 289.696 276.071L291.588 276.718ZM291.522 270.94C290.723 269.245 289.21 268.085 287.169 267.387L286.522 269.279C288.204 269.854 289.205 270.716 289.713 271.793L291.522 270.94ZM287.169 267.387C285.164 266.701 283.221 266.81 281.414 267.757L282.343 269.528C283.627 268.855 284.996 268.757 286.522 269.279L287.169 267.387ZM281.426 267.751C279.536 268.71 278.165 270.849 277.159 273.793L279.051 274.44C280.007 271.643 281.152 270.133 282.331 269.534L281.426 267.751ZM277.159 273.793L274.764 280.795L276.657 281.442L279.051 274.44L277.159 273.793ZM274.764 280.795C273.855 283.454 273.651 285.807 274.369 287.747C275.104 289.734 276.727 291.083 279.012 291.864L279.659 289.972C277.78 289.329 276.718 288.333 276.244 287.053C275.754 285.727 275.819 283.892 276.657 281.442L274.764 280.795ZM279.012 291.864C281.032 292.555 282.902 292.599 284.502 291.781L283.592 290C282.631 290.492 281.36 290.553 279.659 289.972L279.012 291.864ZM284.502 291.782C286.099 290.967 287.196 289.562 287.835 287.695L285.943 287.047C285.438 288.523 284.641 289.465 283.593 290L284.502 291.782ZM287.212 286.425L279.264 283.707L278.617 285.6L286.565 288.317L287.212 286.425ZM279.887 284.977L281.925 279.016L280.033 278.369L277.994 284.33L279.887 284.977ZM314.454 300.918L315.448 301.024L315.533 300.23L314.777 299.972L314.454 300.918ZM303.194 297.068L303.517 296.122L302.762 295.863L302.343 296.543L303.194 297.068ZM299.159 303.614L298.835 304.561L299.591 304.819L300.01 304.139L299.159 303.614ZM292.63 301.382L291.785 300.848L291.108 301.918L292.306 302.328L292.63 301.382ZM311.854 270.966L312.178 270.02L311.431 269.764L311.009 270.432L311.854 270.966ZM323.588 274.978L324.583 275.073L324.658 274.287L323.911 274.032L323.588 274.978ZM320.165 310.797L319.841 311.743L321.04 312.153L321.16 310.892L320.165 310.797ZM313.636 308.564L312.642 308.458L312.557 309.252L313.312 309.511L313.636 308.564ZM306.557 291.56L305.707 291.033L305.046 292.1L306.233 292.506L306.557 291.56ZM315.12 294.488L314.796 295.434L315.981 295.839L316.114 294.594L315.12 294.488ZM317.079 276.24L318.073 276.347L318.159 275.552L317.403 275.294L317.079 276.24ZM316.228 275.949L316.551 275.003L315.797 274.745L315.377 275.422L316.228 275.949ZM314.777 299.972L303.517 296.122L302.87 298.014L314.13 301.864L314.777 299.972ZM302.343 296.543L298.307 303.09L300.01 304.139L304.045 297.592L302.343 296.543ZM299.482 302.668L292.953 300.436L292.306 302.328L298.835 304.561L299.482 302.668ZM293.475 301.916L312.7 271.5L311.009 270.432L291.785 300.848L293.475 301.916ZM311.531 271.912L323.264 275.924L323.911 274.032L312.178 270.02L311.531 271.912ZM322.592 274.883L319.169 310.702L321.16 310.892L324.583 275.073L322.592 274.883ZM320.488 309.851L313.959 307.618L313.312 309.511L319.841 311.743L320.488 309.851ZM314.63 308.671L315.448 301.024L313.459 300.811L312.642 308.458L314.63 308.671ZM306.233 292.506L314.796 295.434L315.444 293.541L306.88 290.613L306.233 292.506ZM316.114 294.594L318.073 276.347L316.085 276.133L314.126 294.381L316.114 294.594ZM317.403 275.294L316.551 275.003L315.904 276.895L316.756 277.186L317.403 275.294ZM315.377 275.422L305.707 291.033L307.407 292.086L317.078 276.475L315.377 275.422ZM333.253 278.283L333.577 277.337L332.631 277.013L332.307 277.959L333.253 278.283ZM344.229 282.036L345.197 282.287L345.43 281.389L344.553 281.089L344.229 282.036ZM337.613 307.568L338.559 307.892L338.571 307.856L338.581 307.819L337.613 307.568ZM335.963 312.394L335.017 312.07L334.693 313.017L335.639 313.34L335.963 312.394ZM337.098 312.782L336.775 313.728L337.721 314.052L338.045 313.106L337.098 312.782ZM338.748 307.957L337.829 307.562L337.814 307.597L337.802 307.633L338.748 307.957ZM349.15 283.718L349.473 282.772L348.596 282.472L348.231 283.324L349.15 283.718ZM360.126 287.471L361.072 287.795L361.396 286.848L360.449 286.525L360.126 287.471ZM348.802 320.589L348.479 321.535L349.425 321.858L349.748 320.912L348.802 320.589ZM343.125 318.647L342.179 318.324L341.855 319.27L342.801 319.594L343.125 318.647ZM350.696 296.506L349.776 296.113L349.762 296.147L349.749 296.182L350.696 296.506ZM353.852 289.13L354.771 289.524L355.195 288.533L354.175 288.184L353.852 289.13ZM352.716 288.742L353.04 287.796L352.169 287.498L351.8 288.342L352.716 288.742ZM340.097 317.612L339.773 318.558L340.645 318.856L341.013 318.013L340.097 317.612ZM330.729 314.409L329.759 314.168L329.538 315.058L330.406 315.355L330.729 314.409ZM338.334 283.824L339.304 284.066L339.526 283.175L338.657 282.878L338.334 283.824ZM337.198 283.436L337.522 282.49L336.502 282.141L336.23 283.184L337.198 283.436ZM335.178 291.2L336.124 291.524L336.136 291.488L336.145 291.452L335.178 291.2ZM327.607 313.342L327.283 314.288L328.23 314.611L328.553 313.665L327.607 313.342ZM321.93 311.4L320.983 311.077L320.66 312.023L321.606 312.347L321.93 311.4ZM332.93 279.229L343.906 282.982L344.553 281.089L333.577 277.337L332.93 279.229ZM343.261 281.785L336.645 307.317L338.581 307.819L345.197 282.287L343.261 281.785ZM336.667 307.245L335.017 312.07L336.909 312.718L338.559 307.892L336.667 307.245ZM335.639 313.34L336.775 313.728L337.422 311.836L336.286 311.448L335.639 313.34ZM338.045 313.106L339.695 308.28L337.802 307.633L336.152 312.459L338.045 313.106ZM339.667 308.351L350.069 284.112L348.231 283.324L337.829 307.562L339.667 308.351ZM348.826 284.664L359.802 288.417L360.449 286.525L349.473 282.772L348.826 284.664ZM359.18 287.148L347.856 320.265L349.748 320.912L361.072 287.795L359.18 287.148ZM349.126 319.642L343.448 317.701L342.801 319.594L348.479 321.535L349.126 319.642ZM344.071 318.971L351.642 296.83L349.749 296.182L342.179 318.324L344.071 318.971ZM351.615 296.899L354.771 289.524L352.932 288.737L349.776 296.113L351.615 296.899ZM354.175 288.184L353.04 287.796L352.393 289.688L353.528 290.077L354.175 288.184ZM351.8 288.342L339.181 317.212L341.013 318.013L353.632 289.143L351.8 288.342ZM340.421 316.666L331.053 313.463L330.406 315.355L339.773 318.558L340.421 316.666ZM331.7 314.65L339.304 284.066L337.363 283.583L329.759 314.168L331.7 314.65ZM338.657 282.878L337.522 282.49L336.875 284.382L338.01 284.771L338.657 282.878ZM336.23 283.184L334.21 290.948L336.145 291.452L338.166 283.688L336.23 283.184ZM334.231 290.877L326.661 313.018L328.553 313.665L336.124 291.524L334.231 290.877ZM327.93 312.395L322.253 310.454L321.606 312.347L327.283 314.288L327.93 312.395ZM322.876 311.724L334.2 278.606L332.307 277.959L320.983 311.077L322.876 311.724ZM365.061 289.158L365.384 288.212L364.438 287.889L364.114 288.835L365.061 289.158ZM385.972 296.309L386.918 296.632L387.242 295.686L386.296 295.362L385.972 296.309ZM383.934 302.27L383.61 303.216L384.556 303.539L384.88 302.593L383.934 302.27ZM369.267 297.255L369.591 296.309L368.645 295.985L368.321 296.931L369.267 297.255ZM366.679 304.825L365.733 304.501L365.409 305.447L366.356 305.771L366.679 304.825ZM380.778 309.645L381.724 309.969L382.048 309.023L381.101 308.699L380.778 309.645ZM378.739 315.606L378.416 316.553L379.362 316.876L379.686 315.93L378.739 315.606ZM364.641 310.786L364.964 309.84L364.018 309.516L363.695 310.462L364.641 310.786ZM362.02 318.45L361.074 318.127L360.75 319.073L361.697 319.396L362.02 318.45ZM377.254 323.659L378.201 323.983L378.524 323.036L377.578 322.713L377.254 323.659ZM375.216 329.62L374.893 330.566L375.839 330.89L376.162 329.944L375.216 329.62ZM353.737 322.276L352.791 321.952L352.467 322.899L353.413 323.222L353.737 322.276ZM364.737 290.105L385.648 297.255L386.296 295.362L365.384 288.212L364.737 290.105ZM385.026 295.985L382.988 301.946L384.88 302.593L386.918 296.632L385.026 295.985ZM384.257 301.323L369.591 296.309L368.944 298.201L383.61 303.216L384.257 301.323ZM368.321 296.931L365.733 304.501L367.625 305.148L370.214 297.578L368.321 296.931ZM366.356 305.771L380.454 310.591L381.101 308.699L367.003 303.878L366.356 305.771ZM379.832 309.322L377.793 315.283L379.686 315.93L381.724 309.969L379.832 309.322ZM379.063 314.66L364.964 309.84L364.317 311.732L378.416 316.553L379.063 314.66ZM363.695 310.462L361.074 318.127L362.966 318.774L365.587 311.109L363.695 310.462ZM361.697 319.396L376.931 324.605L377.578 322.713L362.344 317.504L361.697 319.396ZM376.308 323.336L374.27 329.297L376.162 329.944L378.201 323.983L376.308 323.336ZM375.54 328.674L354.06 321.33L353.413 323.222L374.893 330.566L375.54 328.674ZM354.683 322.6L366.007 289.482L364.114 288.835L352.791 321.952L354.683 322.6ZM407.749 303.755L408.696 304.078L409.019 303.132L408.073 302.809L407.749 303.755ZM399.855 326.842L399.532 327.789L400.478 328.112L400.801 327.166L399.855 326.842ZM393.61 324.707L392.664 324.384L392.34 325.33L393.287 325.653L393.61 324.707ZM401.504 301.619L401.828 300.673L400.882 300.35L400.558 301.296L401.504 301.619ZM398.115 335.178L397.382 334.498L397.372 334.508L397.363 334.518L398.115 335.178ZM396.683 336.273L397.087 337.188L397.106 337.18L397.124 337.171L396.683 336.273ZM394.909 336.671L394.868 335.672L394.833 335.673L394.799 335.677L394.909 336.671ZM391.456 335.49L392.151 334.772L392.134 334.754L392.115 334.738L391.456 335.49ZM390.344 334.106L389.446 334.546L389.455 334.564L389.464 334.582L390.344 334.106ZM389.835 332.347L388.836 332.388L388.838 332.423L388.842 332.457L389.835 332.347ZM391.049 328.798L390.315 328.118L390.306 328.129L390.297 328.139L391.049 328.798ZM392.528 327.719L392.932 328.634L392.95 328.625L392.968 328.617L392.528 327.719ZM394.27 327.258L394.332 328.256L394.356 328.255L394.381 328.252L394.27 327.258ZM397.724 328.439L397.028 329.157L397.053 329.181L397.08 329.203L397.724 328.439ZM398.867 329.886L397.969 330.327L397.978 330.345L397.988 330.362L398.867 329.886ZM399.328 331.629L398.329 331.671L398.33 331.705L398.334 331.739L399.328 331.629ZM406.803 303.431L398.909 326.519L400.801 327.166L408.696 304.078L406.803 303.431ZM400.179 325.896L393.934 323.761L393.287 325.653L399.532 327.789L400.179 325.896ZM394.556 325.031L402.451 301.943L400.558 301.296L392.664 324.384L394.556 325.031ZM401.181 302.566L407.426 304.701L408.073 302.809L401.828 300.673L401.181 302.566ZM398.162 333.186C397.991 333.686 397.731 334.12 397.382 334.498L398.848 335.858C399.391 335.272 399.794 334.594 400.054 333.833L398.162 333.186ZM397.363 334.518C397.046 334.88 396.675 335.164 396.243 335.376L397.124 337.171C397.792 336.843 398.375 336.397 398.867 335.837L397.363 334.518ZM396.279 335.359C395.864 335.542 395.398 335.65 394.868 335.672L394.951 337.67C395.708 337.639 396.423 337.482 397.087 337.188L396.279 335.359ZM394.799 335.677C394.325 335.73 393.862 335.679 393.4 335.521L392.753 337.413C393.49 337.665 394.249 337.75 395.019 337.665L394.799 335.677ZM393.4 335.521C392.9 335.35 392.489 335.098 392.151 334.772L390.76 336.208C391.322 336.753 391.992 337.153 392.753 337.413L393.4 335.521ZM392.115 334.738C391.74 334.409 391.445 334.04 391.223 333.63L389.464 334.582C389.803 335.209 390.25 335.763 390.796 336.242L392.115 334.738ZM391.242 333.665C391.024 333.221 390.886 332.747 390.829 332.237L388.842 332.457C388.923 333.192 389.124 333.89 389.446 334.546L391.242 333.665ZM390.835 332.305C390.813 331.79 390.888 331.277 391.065 330.759L389.173 330.112C388.918 330.856 388.804 331.617 388.836 332.388L390.835 332.305ZM391.065 330.759C391.242 330.241 391.49 329.812 391.8 329.458L390.297 328.139C389.799 328.706 389.427 329.369 389.173 330.112L391.065 330.759ZM391.782 329.478C392.146 329.085 392.53 328.811 392.932 328.634L392.123 326.804C391.446 327.103 390.844 327.548 390.315 328.118L391.782 329.478ZM392.968 328.617C393.4 328.405 393.852 328.285 394.332 328.256L394.209 326.26C393.466 326.305 392.756 326.493 392.087 326.821L392.968 328.617ZM394.381 328.252C394.847 328.2 395.326 328.253 395.827 328.424L396.474 326.532C395.713 326.272 394.938 326.178 394.16 326.264L394.381 328.252ZM395.827 328.424C396.288 328.582 396.686 328.825 397.028 329.157L398.42 327.72C397.863 327.181 397.211 326.784 396.474 326.532L395.827 328.424ZM397.08 329.203C397.471 329.534 397.764 329.907 397.969 330.327L399.765 329.446C399.431 328.765 398.961 328.174 398.369 327.674L397.08 329.203ZM397.988 330.362C398.189 330.735 398.308 331.165 398.329 331.671L400.327 331.588C400.295 330.807 400.106 330.075 399.747 329.411L397.988 330.362ZM398.334 331.739C398.386 332.206 398.333 332.685 398.162 333.186L400.054 333.833C400.314 333.072 400.408 332.297 400.322 331.519L398.334 331.739Z" fill="#30EFD3"/>
<path d="M25.1648 204.803L25.2649 205.798L25.2738 205.798L25.2826 205.796L25.1648 204.803ZM27.4641 203.952L26.8744 203.144L26.8659 203.15L27.4641 203.952ZM29.0909 202.13L29.9554 202.633L29.959 202.626L29.0909 202.13ZM30.476 198.852L30.7996 197.905L29.8534 197.582L29.5298 198.528L30.476 198.852ZM36.7211 200.987L37.6673 201.311L37.9908 200.364L37.0446 200.041L36.7211 200.987ZM30.1853 209.902L29.7316 209.011L29.7314 209.011L30.1853 209.902ZM12.3042 203.471L13.2111 203.05L12.3042 203.471ZM17.7545 179.495L18.5464 180.105L18.5498 180.101L17.7545 179.495ZM21.6705 176.078L22.1363 176.963L22.1483 176.956L21.6705 176.078ZM26.4559 174.755L26.5033 175.754L26.5123 175.754L26.5212 175.753L26.4559 174.755ZM39.7457 181.941L38.8349 182.354L38.8381 182.361L38.8414 182.368L39.7457 181.941ZM40.7374 186.613L39.7375 186.606L39.7374 186.615L39.7375 186.624L40.7374 186.613ZM39.5035 192.85L39.1799 193.796L40.1261 194.119L40.4497 193.173L39.5035 192.85ZM33.2584 190.714L32.3122 190.391L31.9887 191.337L32.9349 191.66L33.2584 190.714ZM34.0746 187.4L35.0702 187.494L35.0702 187.494L34.0746 187.4ZM32.5762 182.819L31.841 183.497L31.8521 183.509L31.8636 183.521L32.5762 182.819ZM27.0408 180.926L27.1746 181.917L27.1908 181.915L27.207 181.912L27.0408 180.926ZM24.5984 181.888L25.1549 182.718L25.1642 182.712L25.1733 182.706L24.5984 181.888ZM22.6541 183.865L21.828 183.301L21.8211 183.311L21.8146 183.322L22.6541 183.865ZM17.8334 197.964L16.8377 197.871L16.837 197.879L17.8334 197.964ZM19.3929 202.83L18.6803 203.532L18.6976 203.549L18.7157 203.566L19.3929 202.83ZM21.73 205.267C23.0094 205.705 24.1977 205.906 25.2649 205.798L25.0647 203.808C24.3807 203.877 23.4949 203.757 22.3771 203.375L21.73 205.267ZM25.2826 205.796C26.3391 205.671 27.2806 205.336 28.0623 204.753L26.8659 203.15C26.4177 203.485 25.8264 203.718 25.047 203.81L25.2826 205.796ZM28.0537 204.759C28.8276 204.194 29.4616 203.481 29.9553 202.633L28.2265 201.627C27.8656 202.248 27.4151 202.749 26.8744 203.144L28.0537 204.759ZM29.959 202.626C30.4292 201.804 30.8198 200.937 31.1311 200.027L29.2386 199.38C28.9676 200.173 28.6289 200.923 28.2228 201.633L29.959 202.626ZM31.1311 200.027L31.4223 199.175L29.5298 198.528L29.2386 199.38L31.1311 200.027ZM30.1525 199.798L36.3975 201.933L37.0446 200.041L30.7996 197.905L30.1525 199.798ZM35.7749 200.664L35.4837 201.515L37.3761 202.162L37.6673 201.311L35.7749 200.664ZM35.4837 201.515C34.192 205.293 32.2484 207.73 29.7316 209.011L30.6389 210.793C33.7522 209.208 35.9716 206.27 37.3761 202.162L35.4837 201.515ZM29.7314 209.011C27.273 210.263 24.2125 210.343 20.4359 209.052L19.7888 210.944C23.8974 212.349 27.5522 212.365 30.6391 210.793L29.7314 209.011ZM20.4359 209.052C16.8569 207.828 14.4956 205.814 13.2111 203.05L11.3973 203.892C12.954 207.243 15.7981 209.58 19.7888 210.944L20.4359 209.052ZM13.2111 203.05C11.9352 200.304 11.9255 196.851 13.3843 192.585L11.4919 191.938C9.93107 196.503 9.83206 200.524 11.3973 203.892L13.2111 203.05ZM13.3843 192.585L15.9079 185.204L14.0154 184.557L11.4919 191.938L13.3843 192.585ZM15.9079 185.204C16.6018 183.175 17.4855 181.481 18.5464 180.105L16.9626 178.884C15.7448 180.463 14.7666 182.36 14.0154 184.557L15.9079 185.204ZM18.5498 180.101C19.6248 178.69 20.8225 177.654 22.1363 176.963L21.2048 175.193C19.5974 176.039 18.1843 177.281 16.9591 178.889L18.5498 180.101ZM22.1483 176.956C23.4835 176.23 24.9309 175.829 26.5033 175.754L26.4085 173.756C24.5432 173.845 22.8004 174.325 21.1927 175.2L22.1483 176.956ZM26.5212 175.753C28.1004 175.65 29.7789 175.891 31.5655 176.502L32.2126 174.61C30.2142 173.926 28.2707 173.634 26.3906 173.757L26.5212 175.753ZM31.5655 176.502C33.4306 177.14 34.9568 177.964 36.1669 178.959L37.4372 177.415C36.0076 176.239 34.2584 175.309 32.2126 174.61L31.5655 176.502ZM36.1669 178.959C37.3803 179.957 38.2615 181.089 38.8349 182.354L40.6565 181.528C39.9447 179.958 38.8634 178.587 37.4372 177.415L36.1669 178.959ZM38.8414 182.368C39.4471 183.651 39.7494 185.059 39.7375 186.606L41.7374 186.621C41.7515 184.795 41.3926 183.088 40.65 181.514L38.8414 182.368ZM39.7375 186.624C39.7546 188.19 39.4651 189.871 38.8484 191.674L40.7409 192.322C41.4183 190.34 41.7574 188.432 41.7374 186.602L39.7375 186.624ZM38.8484 191.674L38.5572 192.526L40.4497 193.173L40.7409 192.322L38.8484 191.674ZM39.827 191.903L33.582 189.768L32.9349 191.66L39.1799 193.796L39.827 191.903ZM34.2047 191.038L34.4958 190.186L32.6034 189.539L32.3122 190.391L34.2047 191.038ZM34.4958 190.186C34.7916 189.321 34.9826 188.423 35.0702 187.494L33.079 187.306C33.0058 188.083 32.8469 188.827 32.6034 189.539L34.4958 190.186ZM35.0702 187.494C35.1617 186.522 35.0795 185.579 34.817 184.67L32.8956 185.225C33.0849 185.88 33.1482 186.571 33.079 187.306L35.0702 187.494ZM34.817 184.67C34.5405 183.713 34.0211 182.861 33.2887 182.117L31.8636 183.521C32.3863 184.051 32.7204 184.619 32.8956 185.225L34.817 184.67ZM33.3113 182.141C32.5515 181.317 31.5157 180.712 30.2713 180.287L29.6243 182.179C30.6508 182.53 31.3672 182.983 31.841 183.497L33.3113 182.141ZM30.2713 180.287C29.1058 179.888 27.9668 179.756 26.8746 179.94L27.207 181.912C27.9092 181.794 28.7081 181.866 29.6243 182.179L30.2713 180.287ZM26.907 179.935C25.8596 180.077 24.8945 180.457 24.0234 181.07L25.1733 182.706C25.786 182.275 26.4492 182.015 27.1746 181.917L26.907 179.935ZM24.0418 181.057C23.1908 181.627 22.455 182.382 21.828 183.301L23.4802 184.429C23.9832 183.691 24.5436 183.128 25.1549 182.718L24.0418 181.057ZM21.8146 183.322C21.2442 184.203 20.7811 185.17 20.4222 186.22L22.3147 186.867C22.6245 185.961 23.0184 185.142 23.4936 184.408L21.8146 183.322ZM20.4222 186.22L17.5751 194.546L19.4676 195.193L22.3147 186.867L20.4222 186.22ZM17.5751 194.546C17.1864 195.683 16.9379 196.792 16.8377 197.871L18.8291 198.056C18.9128 197.155 19.123 196.201 19.4676 195.193L17.5751 194.546ZM16.837 197.879C16.7464 198.948 16.8369 199.967 17.1236 200.924L19.0396 200.351C18.8329 199.661 18.758 198.896 18.8298 198.048L16.837 197.879ZM17.1236 200.924C17.4188 201.911 17.943 202.783 18.6803 203.532L20.1054 202.128C19.5876 201.602 19.2376 201.013 19.0396 200.351L17.1236 200.924ZM18.7157 203.566C19.512 204.299 20.5304 204.857 21.73 205.267L22.3771 203.375C21.3689 203.03 20.6135 202.594 20.0701 202.094L18.7157 203.566ZM50.5607 185.903L50.0834 185.025L50.0771 185.028L50.5607 185.903ZM68.4915 192.034L67.5732 192.43L67.5761 192.437L68.4915 192.034ZM59.109 219.475L58.6436 218.59L58.6372 218.593L59.109 219.475ZM41.1782 213.344L40.2653 213.752L40.2683 213.759L41.1782 213.344ZM53.9442 214.644L54.0443 215.639L54.0612 215.637L54.078 215.635L53.9442 214.644ZM56.3231 213.713L56.9051 214.527L56.3231 213.713ZM58.1255 211.688L58.9866 212.196L58.1255 211.688ZM62.8989 197.573L63.8946 197.665L62.8989 197.573ZM62.6669 194.851L63.6249 194.565L63.6249 194.565L62.6669 194.851ZM61.3556 192.659L60.6204 193.337L60.6315 193.349L60.643 193.361L61.3556 192.659ZM55.8675 190.783L56.0013 191.774L56.0175 191.772L56.0337 191.769L55.8675 190.783ZM53.4886 191.713L52.9066 190.9L52.9066 190.9L53.4886 191.713ZM51.6389 193.723L50.795 193.186L51.6389 193.723ZM46.7709 207.805L45.7788 207.68L46.7709 207.805ZM46.9556 210.51L47.9136 210.224L46.9556 210.51ZM48.2669 212.703L47.5544 213.404L47.5662 213.416L47.5785 213.428L48.2669 212.703ZM44.8765 195.109C46.2909 190.973 48.3736 188.255 51.0444 186.779L50.0771 185.028C46.8407 186.817 44.5031 190.02 42.9841 194.462L44.8765 195.109ZM51.038 186.782C53.7314 185.319 56.8338 185.142 60.4395 186.375L61.0866 184.482C57.0595 183.105 53.3603 183.245 50.0834 185.025L51.038 186.782ZM60.4395 186.375C64.0456 187.608 66.3708 189.641 67.5732 192.43L69.4098 191.638C67.9405 188.23 65.1133 185.859 61.0866 184.482L60.4395 186.375ZM67.5761 192.437C68.8128 195.249 68.8097 198.676 67.3965 202.81L69.2889 203.457C70.8091 199.011 70.9052 195.039 69.4069 191.632L67.5761 192.437ZM67.3965 202.81L64.8729 210.19L66.7653 210.837L69.2889 203.457L67.3965 202.81ZM64.8729 210.19C63.4129 214.46 61.305 217.19 58.6436 218.59L59.5744 220.36C62.8402 218.642 65.2057 215.399 66.7653 210.837L64.8729 210.19ZM58.6372 218.593C56.0009 220.004 52.924 220.16 49.3099 218.925L48.6629 220.817C52.6816 222.191 56.3531 222.084 59.5809 220.356L58.6372 218.593ZM49.3099 218.925C45.6963 217.689 43.3401 215.675 42.0881 212.929L40.2683 213.759C41.7944 217.106 44.6437 219.443 48.6629 220.817L49.3099 218.925ZM42.0911 212.935C40.8722 210.21 40.8919 206.763 42.353 202.49L40.4605 201.843C38.902 206.401 38.7693 210.406 40.2653 213.752L42.0911 212.935ZM42.353 202.49L44.8765 195.109L42.9841 194.462L40.4605 201.843L42.353 202.49ZM50.6041 215.14C51.8289 215.559 52.9836 215.746 54.0443 215.639L53.8441 213.649C53.1536 213.718 52.2972 213.605 51.2511 213.247L50.6041 215.14ZM54.078 215.635C55.1193 215.494 56.0675 215.126 56.9051 214.527L55.7412 212.9C55.1796 213.302 54.5418 213.554 53.8104 213.653L54.078 215.635ZM56.9051 214.527C57.7334 213.934 58.4241 213.148 58.9866 212.196L57.2645 211.179C56.8229 211.927 56.312 212.492 55.7412 212.9L56.9051 214.527ZM58.9866 212.196C59.5287 211.278 59.9953 210.237 60.3909 209.08L58.4985 208.433C58.1392 209.484 57.7263 210.397 57.2645 211.179L58.9866 212.196ZM60.3909 209.08L63.1733 200.943L61.2809 200.296L58.4985 208.433L60.3909 209.08ZM63.1733 200.943C63.5521 199.835 63.7946 198.742 63.8946 197.665L61.9031 197.48C61.8192 198.384 61.6138 199.322 61.2809 200.296L63.1733 200.943ZM63.8946 197.665C63.9966 196.567 63.9135 195.529 63.6249 194.565L61.7088 195.138C61.9134 195.822 61.9851 196.598 61.9031 197.48L63.8946 197.665ZM63.6249 194.565C63.3296 193.578 62.8054 192.706 62.0681 191.958L60.643 193.361C61.1609 193.887 61.5109 194.477 61.7088 195.138L63.6249 194.565ZM62.0907 191.981C61.3368 191.164 60.3371 190.567 59.1454 190.16L58.4983 192.052C59.4513 192.378 60.1408 192.817 60.6204 193.337L62.0907 191.981ZM59.1454 190.16C57.9536 189.752 56.798 189.612 55.7013 189.797L56.0337 191.769C56.7313 191.651 57.5453 191.726 58.4983 192.052L59.1454 190.16ZM55.7337 189.792C54.6924 189.932 53.7442 190.301 52.9066 190.9L54.0705 192.526C54.6321 192.125 55.2699 191.872 56.0013 191.774L55.7337 189.792ZM52.9066 190.9C52.0879 191.486 51.3867 192.256 50.795 193.186L52.4828 194.259C52.9581 193.512 53.4901 192.942 54.0705 192.526L52.9066 190.9ZM50.795 193.186C50.2148 194.099 49.7373 195.111 49.3585 196.219L51.251 196.866C51.584 195.892 51.9959 195.025 52.4828 194.259L50.795 193.186ZM49.3585 196.219L46.5761 204.357L48.4686 205.004L51.251 196.866L49.3585 196.219ZM46.5761 204.357C46.1805 205.514 45.9122 206.622 45.7788 207.68L47.7631 207.93C47.8767 207.029 48.1093 206.055 48.4686 205.004L46.5761 204.357ZM45.7788 207.68C45.6404 208.777 45.7056 209.821 45.9976 210.797L47.9136 210.224C47.7124 209.551 47.6544 208.792 47.7631 207.93L45.7788 207.68ZM45.9976 210.797C46.2929 211.784 46.8171 212.655 47.5544 213.404L48.9794 212.001C48.4616 211.475 48.1116 210.885 47.9136 210.224L45.9976 210.797ZM47.5785 213.428C48.3519 214.162 49.3792 214.721 50.6041 215.14L51.2511 213.247C50.2051 212.89 49.4586 212.455 48.9553 211.977L47.5785 213.428ZM77.2044 191.79L77.5279 190.844L76.5817 190.52L76.2582 191.467L77.2044 191.79ZM97.3656 201.907L96.4749 202.362L96.4787 202.369L97.3656 201.907ZM87.9992 229.3L88.4175 230.208L88.425 230.205L87.9992 229.3ZM65.8807 224.908L64.9345 224.584L64.6109 225.53L65.5572 225.854L65.8807 224.908ZM67.9351 218.899L68.2587 217.953L67.3125 217.629L66.9889 218.576L67.9351 218.899ZM71.0576 219.967L70.7341 220.913L71.6803 221.237L72.0039 220.29L71.0576 219.967ZM78.2886 198.819L79.2349 199.142L79.5584 198.196L78.6122 197.873L78.2886 198.819ZM75.1661 197.751L74.2199 197.428L73.8964 198.374L74.8426 198.698L75.1661 197.751ZM84.9954 223.094L84.4832 222.236L84.4809 222.237L84.9954 223.094ZM91.2234 204.88L90.2974 205.257L90.3008 205.266L90.3044 205.274L91.2234 204.88ZM84.5337 200.954L84.8572 200.008L83.911 199.685L83.5875 200.631L84.5337 200.954ZM77.2865 222.15L76.3403 221.826L76.0168 222.772L76.963 223.096L77.2865 222.15ZM76.8809 192.736L88.8978 196.845L89.5449 194.953L77.5279 190.844L76.8809 192.736ZM88.8978 196.845C92.8695 198.203 95.3101 200.08 96.4749 202.362L98.2562 201.452C96.7626 198.527 93.7737 196.399 89.5449 194.953L88.8978 196.845ZM96.4787 202.369C97.6437 204.605 97.6969 207.583 96.3749 211.45L98.2673 212.097C99.6845 207.952 99.7674 204.353 98.2524 201.445L96.4787 202.369ZM96.3749 211.45L93.0748 221.101L94.9673 221.748L98.2673 212.097L96.3749 211.45ZM93.0748 221.101C91.7533 224.966 89.8813 227.309 87.5735 228.395L88.425 230.205C91.407 228.802 93.5496 225.895 94.9673 221.748L93.0748 221.101ZM87.581 228.392C85.2729 229.455 82.1965 229.43 78.2212 228.07L77.5741 229.963C81.7994 231.408 85.4573 231.572 88.4175 230.208L87.581 228.392ZM78.2212 228.07L66.2042 223.962L65.5572 225.854L77.5741 229.963L78.2212 228.07ZM66.8269 225.231L68.8814 219.223L66.9889 218.576L64.9345 224.584L66.8269 225.231ZM67.6116 219.845L70.7341 220.913L71.3812 219.021L68.2587 217.953L67.6116 219.845ZM72.0039 220.29L79.2349 199.142L77.3424 198.495L70.1114 219.643L72.0039 220.29ZM78.6122 197.873L75.4897 196.805L74.8426 198.698L77.9651 199.765L78.6122 197.873ZM76.1123 198.075L78.1506 192.114L76.2582 191.467L74.2199 197.428L76.1123 198.075ZM79.6124 224.002C81.8911 224.781 83.9356 224.897 85.51 223.952L84.4809 222.237C83.6619 222.728 82.3333 222.818 80.2594 222.109L79.6124 224.002ZM85.5076 223.953C87.0407 223.039 88.1385 221.32 88.9164 219.045L87.0239 218.398C86.3136 220.476 85.4282 221.672 84.4832 222.236L85.5076 223.953ZM88.9164 219.045L92.0223 209.962L90.1298 209.314L87.0239 218.398L88.9164 219.045ZM92.0223 209.962C92.7149 207.936 92.8242 206.075 92.1425 204.486L90.3044 205.274C90.7203 206.244 90.7314 207.555 90.1298 209.314L92.0223 209.962ZM92.1495 204.502C91.4677 202.83 89.7777 201.691 87.5066 200.914L86.8595 202.806C88.941 203.518 89.9446 204.392 90.2974 205.257L92.1495 204.502ZM87.5066 200.914L84.8572 200.008L84.2101 201.901L86.8595 202.806L87.5066 200.914ZM83.5875 200.631L76.3403 221.826L78.2327 222.473L85.4799 201.278L83.5875 200.631ZM76.963 223.096L79.6124 224.002L80.2594 222.109L77.61 221.203L76.963 223.096ZM107.876 202.278L108.2 201.331L107.254 201.008L106.93 201.954L107.876 202.278ZM128.788 209.428L129.734 209.751L130.057 208.805L129.111 208.481L128.788 209.428ZM126.749 215.389L126.426 216.335L127.372 216.659L127.696 215.712L126.749 215.389ZM112.083 210.374L112.407 209.428L111.46 209.104L111.137 210.051L112.083 210.374ZM109.495 217.944L108.549 217.62L108.225 218.566L109.171 218.89L109.495 217.944ZM123.593 222.764L124.54 223.088L124.863 222.142L123.917 221.818L123.593 222.764ZM121.555 228.726L121.232 229.672L122.178 229.995L122.501 229.049L121.555 228.726ZM107.456 223.905L107.78 222.959L106.834 222.635L106.51 223.581L107.456 223.905ZM104.836 231.569L103.89 231.246L103.566 232.192L104.512 232.516L104.836 231.569ZM120.07 236.778L121.016 237.102L121.34 236.156L120.393 235.832L120.07 236.778ZM118.032 242.739L117.708 243.686L118.654 244.009L118.978 243.063L118.032 242.739ZM96.5525 235.395L95.6063 235.072L95.2828 236.018L96.229 236.341L96.5525 235.395ZM107.553 203.224L128.464 210.374L129.111 208.481L108.2 201.331L107.553 203.224ZM127.841 209.104L125.803 215.065L127.696 215.712L129.734 209.751L127.841 209.104ZM127.073 214.443L112.407 209.428L111.759 211.32L126.426 216.335L127.073 214.443ZM111.137 210.051L108.549 217.62L110.441 218.267L113.029 210.698L111.137 210.051ZM109.171 218.89L123.27 223.711L123.917 221.818L109.818 216.998L109.171 218.89ZM122.647 222.441L120.609 228.402L122.501 229.049L124.54 223.088L122.647 222.441ZM121.879 227.779L107.78 222.959L107.133 224.851L121.232 229.672L121.879 227.779ZM106.51 223.581L103.89 231.246L105.782 231.893L108.403 224.228L106.51 223.581ZM104.512 232.516L119.746 237.724L120.393 235.832L105.159 230.623L104.512 232.516ZM119.124 236.455L117.085 242.416L118.978 243.063L121.016 237.102L119.124 236.455ZM118.355 241.793L96.8761 234.449L96.229 236.341L117.708 243.686L118.355 241.793ZM97.4987 235.719L108.822 202.601L106.93 201.954L95.6063 235.072L97.4987 235.719Z" fill="#FF39A6"/>
</svg>
