<svg width="522" height="439" viewBox="0 0 522 439" fill="none" xmlns="http://www.w3.org/2000/svg">
<path d="M93.0326 61.5855L93.8796 59.1084L91.4026 58.2614L90.5556 60.7385L93.0326 61.5855ZM113.194 71.7024L110.862 72.8928L110.867 72.9024L110.872 72.912L113.194 71.7024ZM103.827 99.0954L104.922 101.473L104.932 101.469L104.942 101.464L103.827 99.0954ZM81.7089 94.703L79.2319 93.8561L78.3849 96.3331L80.862 97.1801L81.7089 94.703ZM83.7634 88.6946L84.6103 86.2175L82.1333 85.3706L81.2863 87.8476L83.7634 88.6946ZM86.8859 89.7622L86.0389 92.2393L88.516 93.0862L89.3629 90.6092L86.8859 89.7622ZM94.1169 68.6143L96.5939 69.4612L97.4409 66.9842L94.9638 66.1372L94.1169 68.6143ZM90.9944 67.5466L88.5173 66.6997L87.6704 69.1767L90.1474 70.0237L90.9944 67.5466ZM100.824 92.8898L99.4828 90.6414L99.4767 90.6451L100.824 92.8898ZM107.052 74.6751L104.628 75.6633L104.636 75.6852L104.646 75.7069L107.052 74.6751ZM100.362 70.7496L101.209 68.2726L98.7318 67.4256L97.8849 69.9026L100.362 70.7496ZM93.1148 91.9449L90.6377 91.0979L89.7907 93.5749L92.2678 94.4219L93.1148 91.9449ZM92.1857 64.0625L104.203 68.1714L105.897 63.2173L93.8796 59.1084L92.1857 64.0625ZM104.203 68.1714C107.966 69.4583 109.963 71.1323 110.862 72.8928L115.525 70.512C113.766 67.0658 110.333 64.7344 105.897 63.2173L104.203 68.1714ZM110.872 72.912C111.754 74.6047 111.917 77.0803 110.672 80.7217L115.626 82.4156C117.121 78.0458 117.313 73.9439 115.515 70.4928L110.872 72.912ZM110.672 80.7217L107.372 90.3731L112.326 92.067L115.626 82.4156L110.672 80.7217ZM107.372 90.3731C106.128 94.0107 104.475 95.8974 102.713 96.7267L104.942 101.464C108.469 99.8043 110.831 96.4407 112.326 92.067L107.372 90.3731ZM102.732 96.7175C100.952 97.5374 98.3459 97.625 94.5729 96.3349L92.8789 101.289C97.3064 102.803 101.435 103.079 104.922 101.473L102.732 96.7175ZM94.5729 96.3349L82.5559 92.226L80.862 97.1801L92.8789 101.289L94.5729 96.3349ZM84.186 95.55L86.2404 89.5415L81.2863 87.8476L79.2319 93.8561L84.186 95.55ZM82.9164 91.1716L86.0389 92.2393L87.7329 87.2852L84.6103 86.2175L82.9164 91.1716ZM89.3629 90.6092L96.5939 69.4612L91.6398 67.7673L84.4089 88.9153L89.3629 90.6092ZM94.9638 66.1372L91.8413 65.0696L90.1474 70.0237L93.2699 71.0913L94.9638 66.1372ZM93.4714 68.3936L95.5097 62.4324L90.5556 60.7385L88.5173 66.6997L93.4714 68.3936ZM94.9172 95.3278C97.3617 96.1636 99.9852 96.4459 102.171 95.1345L99.4767 90.6451C99.2687 90.7699 98.5192 91.0261 96.6111 90.3737L94.9172 95.3278ZM102.164 95.1382C104.173 93.9402 105.443 91.7988 106.275 89.364L101.321 87.6701C100.666 89.5879 99.952 90.3616 99.4828 90.6414L102.164 95.1382ZM106.275 89.364L109.381 80.2803L104.427 78.5864L101.321 87.6701L106.275 89.364ZM109.381 80.2803C110.148 78.0394 110.354 75.734 109.458 73.6433L104.646 75.7069C104.847 76.1756 104.955 77.0424 104.427 78.5864L109.381 80.2803ZM109.476 73.6869C108.528 71.3616 106.283 70.0075 103.858 69.1785L102.164 74.1325C104.092 74.7918 104.541 75.4507 104.628 75.6633L109.476 73.6869ZM103.858 69.1785L101.209 68.2726L99.515 73.2266L102.164 74.1325L103.858 69.1785ZM97.8849 69.9026L90.6377 91.0979L95.5918 92.7918L102.839 71.5966L97.8849 69.9026ZM92.2678 94.4219L94.9172 95.3278L96.6111 90.3737L93.9617 89.4678L92.2678 94.4219ZM124.326 75.5089L123.077 73.2085L123.068 73.213L123.06 73.2176L124.326 75.5089ZM142.257 81.6398L139.853 82.6762L139.857 82.6849L139.861 82.6936L142.257 81.6398ZM132.875 109.08L131.656 106.763L131.648 106.768L131.639 106.772L132.875 109.08ZM114.944 102.949L112.554 104.018L112.558 104.026L112.562 104.035L114.944 102.949ZM127.71 104.249L127.972 106.854L128.016 106.85L128.06 106.844L127.71 104.249ZM130.089 103.319L131.612 105.448L131.612 105.448L130.089 103.319ZM131.891 101.293L134.145 102.624L131.891 101.293ZM136.664 87.1783L139.271 87.4204L136.664 87.1783ZM136.432 84.4569L138.94 83.7063L138.94 83.7063L136.432 84.4569ZM135.121 82.2647L133.197 84.0394L133.226 84.0709L133.256 84.1015L135.121 82.2647ZM129.633 80.3882L129.983 82.9825L130.026 82.9768L130.068 82.9696L129.633 80.3882ZM127.254 81.3186L125.731 79.1896L125.731 79.1896L127.254 81.3186ZM125.404 83.3282L123.195 81.9237L125.404 83.3282ZM120.536 97.4107L117.939 97.0832L120.536 97.4107ZM120.721 100.116L123.229 99.3654L123.229 99.3654L120.721 100.116ZM122.032 102.308L120.167 104.145L120.198 104.176L120.23 104.207L122.032 102.308ZM120.173 85.2384C121.503 81.3495 123.379 79.0232 125.592 77.8001L123.06 73.2176C119.366 75.2589 116.822 78.8543 115.219 83.5445L120.173 85.2384ZM125.576 77.8093C127.797 76.6027 130.417 76.3948 133.682 77.5112L135.376 72.5571C131.008 71.0636 126.826 71.1722 123.077 73.2085L125.576 77.8093ZM133.682 77.5112C136.948 78.6279 138.867 80.3876 139.853 82.6762L144.661 80.6035C142.976 76.6943 139.742 74.0502 135.376 72.5571L133.682 77.5112ZM139.861 82.6936C140.886 85.0246 140.958 88.0115 139.631 91.8917L144.585 93.5856C146.192 88.8867 146.363 84.4744 144.653 80.586L139.861 82.6936ZM139.631 91.8917L137.108 99.2721L142.062 100.966L144.585 93.5856L139.631 91.8917ZM137.108 99.2721C135.728 103.306 133.829 105.621 131.656 106.763L134.093 111.397C137.848 109.423 140.421 105.763 142.062 100.966L137.108 99.2721ZM131.639 106.772C129.481 107.927 126.886 108.123 123.599 106.999L121.905 111.953C126.251 113.439 130.404 113.372 134.11 111.388L131.639 106.772ZM123.599 106.999C120.313 105.876 118.356 104.123 117.326 101.863L112.562 104.035C114.31 107.868 117.558 110.467 121.905 111.953L123.599 106.999ZM117.334 101.881C116.339 99.656 116.267 96.6615 117.649 92.6189L112.695 90.925C111.058 95.7137 110.834 100.171 112.554 104.018L117.334 101.881ZM117.649 92.6189L120.173 85.2384L115.219 83.5445L112.695 90.925L117.649 92.6189ZM123.846 106.276C125.216 106.744 126.612 106.991 127.972 106.854L127.448 101.645C127.057 101.684 126.441 101.63 125.54 101.322L123.846 106.276ZM128.06 106.844C129.352 106.669 130.551 106.207 131.612 105.448L128.565 101.19C128.227 101.432 127.84 101.59 127.36 101.655L128.06 106.844ZM131.612 105.448C132.649 104.706 133.485 103.742 134.145 102.624L129.637 99.9618C129.293 100.544 128.928 100.931 128.565 101.19L131.612 105.448ZM134.145 102.624C134.752 101.596 135.262 100.452 135.687 99.2092L130.733 97.5153C130.403 98.4801 130.034 99.29 129.637 99.9618L134.145 102.624ZM135.687 99.2092L138.47 91.0718L133.516 89.3778L130.733 97.5153L135.687 99.2092ZM138.47 91.0718C138.885 89.8556 139.158 88.6371 139.271 87.4204L134.058 86.9362C133.987 87.6999 133.812 88.5123 133.516 89.3778L138.47 91.0718ZM139.271 87.4204C139.389 86.1476 139.297 84.898 138.94 83.7063L133.924 85.2074C134.061 85.6639 134.123 86.2287 134.058 86.9362L139.271 87.4204ZM138.94 83.7063C138.566 82.4566 137.901 81.357 136.986 80.428L133.256 84.1015C133.596 84.4471 133.805 84.8089 133.924 85.2074L138.94 83.7063ZM137.046 80.4901C136.07 79.4318 134.819 78.7079 133.434 78.2344L131.74 83.1885C132.5 83.4483 132.939 83.76 133.197 84.0394L137.046 80.4901ZM133.434 78.2344C132.05 77.7609 130.618 77.5675 129.198 77.8068L130.068 82.9696C130.443 82.9065 130.98 82.9286 131.74 83.1885L133.434 78.2344ZM129.283 77.7939C127.991 77.9683 126.792 78.4305 125.731 79.1896L128.777 83.4475C129.116 83.2054 129.503 83.0474 129.983 82.9825L129.283 77.7939ZM125.731 79.1896C124.719 79.9135 123.881 80.845 123.195 81.9237L127.614 84.7328C127.995 84.1331 128.39 83.7248 128.777 83.4475L125.731 79.1896ZM123.195 81.9237C122.54 82.9548 122.009 84.0851 121.593 85.3013L126.547 86.9952C126.843 86.1297 127.202 85.38 127.614 84.7328L123.195 81.9237ZM121.593 85.3013L118.811 93.4388L123.765 95.1327L126.547 86.9952L121.593 85.3013ZM118.811 93.4388C118.386 94.6818 118.089 95.8985 117.939 97.0832L123.134 97.7382C123.231 96.9641 123.435 96.0975 123.765 95.1327L118.811 93.4388ZM117.939 97.0832C117.777 98.3711 117.848 99.6453 118.213 100.866L123.229 99.3654C123.101 98.9384 123.049 98.409 123.134 97.7382L117.939 97.0832ZM118.213 100.866C118.587 102.116 119.252 103.216 120.167 104.145L123.898 100.471C123.557 100.126 123.348 99.7639 123.229 99.3654L118.213 100.866ZM120.23 104.207C121.222 105.148 122.477 105.808 123.846 106.276L125.54 101.322C124.639 101.014 124.119 100.68 123.834 100.409L120.23 104.207ZM157.509 117.133L154.944 116.611L154.485 118.866L156.662 119.61L157.509 117.133ZM158.361 117.425L157.514 119.902L159.991 120.749L160.838 118.272L158.361 117.425ZM168.617 87.4295L169.464 84.9525L166.987 84.1055L166.14 86.5826L168.617 87.4295ZM174.862 89.5648L177.339 90.4118L178.186 87.9348L175.709 87.0878L174.862 89.5648ZM163.538 122.682L162.691 125.159L165.168 126.006L166.015 123.529L163.538 122.682ZM151.332 118.509L148.767 117.987L148.308 120.241L150.485 120.986L151.332 118.509ZM157.709 87.1873L160.274 87.7095L160.733 85.4547L158.556 84.7102L157.709 87.1873ZM156.857 86.8961L157.704 84.4191L155.227 83.5721L154.38 86.0491L156.857 86.8961ZM146.601 116.891L145.754 119.368L148.231 120.215L149.078 117.738L146.601 116.891ZM140.356 114.756L137.879 113.909L137.032 116.386L139.509 117.233L140.356 114.756ZM151.68 81.6383L152.527 79.1612L150.05 78.3143L149.203 80.7913L151.68 81.6383ZM163.886 85.8118L166.451 86.3341L166.91 84.0793L164.733 83.3348L163.886 85.8118ZM156.662 119.61L157.514 119.902L159.208 114.948L158.356 114.656L156.662 119.61ZM160.838 118.272L171.094 88.2765L166.14 86.5826L155.884 116.578L160.838 118.272ZM167.77 89.9066L174.015 92.0419L175.709 87.0878L169.464 84.9525L167.77 89.9066ZM172.385 88.7179L161.061 121.835L166.015 123.529L177.339 90.4118L172.385 88.7179ZM164.385 120.205L152.179 116.032L150.485 120.986L162.691 125.159L164.385 120.205ZM153.897 119.031L160.274 87.7095L155.143 86.665L148.767 117.987L153.897 119.031ZM158.556 84.7102L157.704 84.4191L156.01 89.3731L156.862 89.6643L158.556 84.7102ZM154.38 86.0491L144.124 116.044L149.078 117.738L159.334 87.7431L154.38 86.0491ZM147.448 114.414L141.203 112.279L139.509 117.233L145.754 119.368L147.448 114.414ZM142.833 115.603L154.157 82.4852L149.203 80.7913L137.879 113.909L142.833 115.603ZM150.833 84.1153L163.039 88.2889L164.733 83.3348L152.527 79.1612L150.833 84.1153ZM161.321 85.2896L154.944 116.611L160.074 117.656L166.451 86.3341L161.321 85.2896ZM187.364 96.1648L185.445 94.3848L185.42 94.4113L185.396 94.4385L187.364 96.1648ZM188.843 95.0851L189.901 97.4798L189.949 97.4586L189.996 97.4356L188.843 95.0851ZM190.586 94.6242L190.746 97.2372L190.81 97.2332L190.874 97.2261L190.586 94.6242ZM194.04 95.8051L192.219 97.6858L192.283 97.7486L192.352 97.8068L194.04 95.8051ZM195.183 97.2528L192.832 98.4055L192.855 98.4524L192.88 98.4985L195.183 97.2528ZM195.644 98.9957L193.028 99.1041L193.032 99.1943L193.042 99.2841L195.644 98.9957ZM191.201 109.208L190.048 106.857L190.025 106.868L190.002 106.88L191.201 109.208ZM184.772 108.383L182.295 107.536L181.448 110.013L183.925 110.86L184.772 108.383ZM186.034 104.693L186.881 102.216L184.403 101.369L183.556 103.846L186.034 104.693ZM190.261 103.919L192.738 104.766L193.96 101.192L190.185 101.302L190.261 103.919ZM187.771 102.856L185.95 104.737L185.996 104.782L186.045 104.824L187.771 102.856ZM186.183 99.6184L183.57 99.7784L183.574 99.8428L183.581 99.9068L186.183 99.6184ZM188.928 98.6017C189.026 98.3149 189.161 98.0861 189.332 97.8911L185.396 94.4385C184.759 95.1648 184.285 95.996 183.974 96.9077L188.928 98.6017ZM189.284 97.9447C189.515 97.695 189.723 97.5585 189.901 97.4798L187.785 92.6905C186.885 93.0884 186.106 93.6716 185.445 94.3848L189.284 97.9447ZM189.996 97.4356C190.236 97.3179 190.479 97.2535 190.746 97.2372L190.426 92.0113C189.469 92.0698 188.551 92.3127 187.69 92.7347L189.996 97.4356ZM190.874 97.2261C191.089 97.2023 191.329 97.2221 191.619 97.3213L193.313 92.3672C192.341 92.0351 191.327 91.9082 190.298 92.0223L190.874 97.2261ZM191.619 97.3213C191.858 97.403 192.049 97.5213 192.219 97.6858L195.861 93.9245C195.131 93.2176 194.272 92.6954 193.313 92.3672L191.619 97.3213ZM192.352 97.8068C192.581 97.9998 192.73 98.1975 192.832 98.4055L197.533 96.1002C197.095 95.2076 196.482 94.4403 195.727 93.8035L192.352 97.8068ZM192.88 98.4985C192.954 98.6356 193.016 98.8218 193.028 99.1041L198.259 98.8873C198.218 97.8831 197.972 96.9074 197.485 96.0072L192.88 98.4985ZM193.042 99.2841C193.068 99.5191 193.044 99.7424 192.963 99.9813L197.917 101.675C198.245 100.716 198.357 99.7172 198.246 98.7073L193.042 99.2841ZM192.963 99.9813L190.989 105.753L195.943 107.447L197.917 101.675L192.963 99.9813ZM190.989 105.753C190.796 106.319 190.502 106.634 190.048 106.857L192.353 111.558C194.1 110.701 195.317 109.278 195.943 107.447L190.989 105.753ZM190.002 106.88C189.603 107.086 189.212 107.135 188.647 106.941L186.953 111.895C188.785 112.522 190.66 112.43 192.399 111.535L190.002 106.88ZM188.647 106.941L185.619 105.906L183.925 110.86L186.953 111.895L188.647 106.941ZM187.249 109.23L188.511 105.54L183.556 103.846L182.295 107.536L187.249 109.23ZM185.187 107.17L187.458 107.946L189.151 102.992L186.881 102.216L185.187 107.17ZM187.458 107.946C188.336 108.247 189.517 108.365 190.658 107.729C191.738 107.127 192.273 106.128 192.544 105.334L187.59 103.64C187.538 103.792 187.618 103.43 188.109 103.156C188.663 102.847 189.124 102.983 189.151 102.992L187.458 107.946ZM192.544 105.334L192.738 104.766L187.784 103.072L187.59 103.64L192.544 105.334ZM190.185 101.302C190.205 101.302 190.223 101.303 190.238 101.306C190.253 101.308 190.259 101.31 190.255 101.309L188.562 106.263C189.126 106.456 189.723 106.554 190.338 106.536L190.185 101.302ZM190.255 101.309C189.92 101.194 189.679 101.048 189.497 100.888L186.045 104.824C186.784 105.473 187.636 105.947 188.562 106.263L190.255 101.309ZM189.592 100.976C189.355 100.746 189.176 100.498 189.042 100.225L184.341 102.53C184.747 103.358 185.288 104.096 185.95 104.737L189.592 100.976ZM189.042 100.225C188.908 99.952 188.822 99.6588 188.785 99.3301L183.581 99.9068C183.683 100.823 183.935 101.702 184.341 102.53L189.042 100.225ZM188.796 99.4585C188.782 99.217 188.813 98.9375 188.928 98.6017L183.974 96.9077C183.657 97.8335 183.51 98.7965 183.57 99.7784L188.796 99.4585ZM209.286 101.335L210.133 98.8581L207.656 98.0112L206.809 100.488L209.286 101.335ZM233.13 109.488L235.607 110.335L236.454 107.858L233.977 107.011L233.13 109.488ZM231.092 115.449L230.245 117.926L232.722 118.773L233.569 116.296L231.092 115.449ZM222.292 112.441L223.139 109.963L220.662 109.117L219.815 111.594L222.292 112.441ZM213.007 139.597L212.16 142.074L214.637 142.921L215.484 140.444L213.007 139.597ZM206.762 137.462L204.285 136.615L203.438 139.092L205.915 139.939L206.762 137.462ZM216.047 110.305L218.524 111.152L219.371 108.675L216.894 107.828L216.047 110.305ZM207.247 107.296L204.77 106.449L203.923 108.926L206.4 109.773L207.247 107.296ZM208.439 103.812L232.283 111.965L233.977 107.011L210.133 98.8581L208.439 103.812ZM230.653 108.641L228.615 114.602L233.569 116.296L235.607 110.335L230.653 108.641ZM231.939 112.972L223.139 109.963L221.445 114.918L230.245 117.926L231.939 112.972ZM219.815 111.594L210.53 138.75L215.484 140.444L224.769 113.287L219.815 111.594ZM213.854 137.12L207.609 134.985L205.915 139.939L212.16 142.074L213.854 137.12ZM209.239 138.309L218.524 111.152L213.57 109.458L204.285 136.615L209.239 138.309ZM216.894 107.828L208.094 104.819L206.4 109.773L215.2 112.782L216.894 107.828ZM209.724 108.143L211.763 102.182L206.809 100.488L204.77 106.449L209.724 108.143ZM275.708 158.764L276.82 161.134L276.831 161.129L276.841 161.124L275.708 158.764ZM262.807 156.625L261.191 158.685L261.213 158.701L261.234 158.718L262.807 156.625ZM260.001 153.393L257.691 154.624L257.701 154.644L257.712 154.664L260.001 153.393ZM258.863 149.305L256.249 149.449L256.249 149.46L256.25 149.471L258.863 149.305ZM260.695 141.318L261.542 138.841L259.065 137.994L258.218 140.471L260.695 141.318ZM266.94 143.454L269.417 144.301L270.264 141.824L267.787 140.977L266.94 143.454ZM265.906 150.498L263.534 151.606L263.544 151.628L263.555 151.65L265.906 150.498ZM272.576 152.779L271.378 150.451L271.354 150.464L271.331 150.476L272.576 152.779ZM280.877 132.366L283.354 133.213L284.201 130.736L281.724 129.889L280.877 132.366ZM277.471 131.202L274.994 130.355L274.147 132.832L276.624 133.679L277.471 131.202ZM279.476 125.335L280.323 122.858L277.846 122.011L276.999 124.488L279.476 125.335ZM291.967 129.606L294.444 130.453L295.291 127.976L292.814 127.129L291.967 129.606ZM289.961 135.472L289.114 137.949L291.591 138.796L292.438 136.319L289.961 135.472ZM287.122 134.502L287.969 132.025L285.492 131.178L284.645 133.655L287.122 134.502ZM278.724 150.97C277.701 153.964 276.247 155.602 274.576 156.404L276.841 161.124C280.143 159.54 282.351 156.547 283.678 152.664L278.724 150.97ZM274.597 156.394C272.882 157.198 270.748 157.313 267.969 156.363L266.275 161.317C269.994 162.589 273.583 162.653 276.82 161.134L274.597 156.394ZM267.969 156.363C266.514 155.866 265.33 155.246 264.379 154.532L261.234 158.718C262.694 159.814 264.387 160.671 266.275 161.317L267.969 156.363ZM264.422 154.565C263.478 153.824 262.782 153.008 262.29 152.123L257.712 154.664C258.572 156.213 259.747 157.552 261.191 158.685L264.422 154.565ZM262.312 152.163C261.83 151.258 261.547 150.26 261.475 149.139L256.25 149.471C256.367 151.303 256.842 153.03 257.691 154.624L262.312 152.163ZM261.477 149.161C261.415 148.052 261.598 146.77 262.105 145.288L257.151 143.594C256.471 145.581 256.144 147.542 256.249 149.449L261.477 149.161ZM262.105 145.288L263.172 142.165L258.218 140.471L257.151 143.594L262.105 145.288ZM259.848 143.795L266.093 145.931L267.787 140.977L261.542 138.841L259.848 143.795ZM264.463 142.607L263.396 145.729L268.35 147.423L269.417 144.301L264.463 142.607ZM263.396 145.729C262.728 147.682 262.65 149.714 263.534 151.606L268.277 149.39C268.103 149.017 268.004 148.435 268.35 147.423L263.396 145.729ZM263.555 151.65C264.479 153.535 266.144 154.72 268.092 155.386L269.786 150.432C268.769 150.084 268.411 149.661 268.256 149.345L263.555 151.65ZM268.092 155.386C269.99 156.035 271.992 156.071 273.822 155.081L271.331 150.476C271.086 150.608 270.663 150.732 269.786 150.432L268.092 155.386ZM273.775 155.106C275.623 154.155 276.771 152.466 277.433 150.529L272.479 148.835C272.106 149.927 271.668 150.302 271.378 150.451L273.775 155.106ZM277.433 150.529L283.354 133.213L278.4 131.519L272.479 148.835L277.433 150.529ZM281.724 129.889L278.318 128.725L276.624 133.679L280.03 134.843L281.724 129.889ZM279.948 132.049L281.954 126.182L276.999 124.488L274.994 130.355L279.948 132.049ZM278.63 127.812L291.12 132.083L292.814 127.129L280.323 122.858L278.63 127.812ZM289.49 128.759L287.484 134.625L292.438 136.319L294.444 130.453L289.49 128.759ZM290.808 132.995L287.969 132.025L286.275 136.979L289.114 137.949L290.808 132.995ZM284.645 133.655L278.724 150.97L283.678 152.664L289.599 135.349L284.645 133.655ZM320.036 139.203L322.513 140.05L323.36 137.573L320.883 136.726L320.036 139.203ZM306.558 168.731L305.335 166.417L305.326 166.421L305.317 166.426L306.558 168.731ZM288.722 162.632L286.329 163.694L286.334 163.704L286.338 163.713L288.722 162.632ZM296.192 131.05L297.039 128.573L294.562 127.726L293.715 130.203L296.192 131.05ZM302.437 133.186L304.914 134.033L305.761 131.556L303.284 130.709L302.437 133.186ZM294.831 159.912L292.383 160.841L294.831 159.912ZM303.441 162.857L302.074 160.624L302.074 160.624L303.441 162.857ZM313.791 137.068L314.638 134.591L312.161 133.744L311.314 136.221L313.791 137.068ZM317.559 138.357L310.15 160.025L315.104 161.719L322.513 140.05L317.559 138.357ZM310.15 160.025C309.008 163.365 307.343 165.355 305.335 166.417L307.782 171.045C311.277 169.198 313.658 165.948 315.104 161.719L310.15 160.025ZM305.317 166.426C303.439 167.438 300.914 167.628 297.411 166.43L295.717 171.384C300.099 172.882 304.237 172.955 307.8 171.036L305.317 166.426ZM297.411 166.43C293.91 165.233 292.003 163.528 291.106 161.551L286.338 163.713C288.012 167.406 291.332 169.885 295.717 171.384L297.411 166.43ZM291.115 161.57C290.2 159.51 290.114 156.916 291.26 153.566L286.306 151.872C284.863 156.091 284.736 160.106 286.329 163.694L291.115 161.57ZM291.26 153.566L298.669 131.897L293.715 130.203L286.306 151.872L291.26 153.566ZM295.345 133.527L301.59 135.663L303.284 130.709L297.039 128.573L295.345 133.527ZM299.96 132.339L292.551 154.007L297.505 155.701L304.914 134.033L299.96 132.339ZM292.551 154.007C291.756 156.33 291.562 158.676 292.383 160.841L297.278 158.984C297.025 158.315 296.962 157.289 297.505 155.701L292.551 154.007ZM292.383 160.841C293.288 163.226 295.313 164.694 297.723 165.517L299.417 160.563C297.915 160.05 297.448 159.432 297.278 158.984L292.383 160.841ZM297.723 165.517C300.132 166.341 302.632 166.422 304.808 165.089L302.074 160.624C301.666 160.874 300.918 161.077 299.417 160.563L297.723 165.517ZM304.808 165.089C306.782 163.88 308.065 161.907 308.859 159.583L303.905 157.89C303.362 159.478 302.684 160.25 302.074 160.624L304.808 165.089ZM308.859 159.583L316.268 137.915L311.314 136.221L303.905 157.89L308.859 159.583ZM312.944 139.545L319.189 141.681L320.883 136.726L314.638 134.591L312.944 139.545ZM338.918 153.11L336.586 154.3L336.595 154.318L336.604 154.336L338.918 153.11ZM331.037 149.887L331.746 152.407L331.775 152.399L331.803 152.39L331.037 149.887ZM328.572 153.695L325.969 153.975L325.973 154.01L325.978 154.045L328.572 153.695ZM329.287 155.313L327.167 156.848L327.217 156.918L327.273 156.985L329.287 155.313ZM331.14 157.003L329.576 159.102L329.586 159.11L329.597 159.118L331.14 157.003ZM334.319 158.988L333.042 161.274L334.319 158.988ZM341.183 164.876L338.965 166.267L338.965 166.267L341.183 164.876ZM339.193 176.878L337.282 175.089L337.271 175.1L337.261 175.111L339.193 176.878ZM335.744 179.239L336.7 181.675L335.744 179.239ZM331.263 179.979L331.209 182.596L331.263 179.979ZM320.541 176.101L318.861 178.109L318.884 178.128L318.908 178.147L320.541 176.101ZM317.298 172.139L314.948 173.292L314.956 173.309L314.965 173.326L317.298 172.139ZM316.101 167.45L313.485 167.545L313.486 167.554L313.486 167.563L316.101 167.45ZM317.385 160.913L318.232 158.436L315.755 157.589L314.908 160.066L317.385 160.913ZM323.63 163.049L326.107 163.896L326.954 161.419L324.477 160.572L323.63 163.049ZM323.311 169.545L320.93 170.634L320.945 170.666L320.961 170.698L323.311 169.545ZM332.737 173.349L331.714 170.939L332.737 173.349ZM335.346 169.274L332.729 169.351L332.73 169.379L332.732 169.408L335.346 169.274ZM334.806 167.61L332.543 168.927L332.569 168.971L332.597 169.015L334.806 167.61ZM333.238 165.858L334.918 163.85L333.238 165.858ZM330.39 163.986L331.652 161.692L331.64 161.686L330.39 163.986ZM326.173 161.329L324.572 163.4L324.594 163.417L324.615 163.433L326.173 161.329ZM323.161 158.238L320.997 159.712L321.008 159.728L321.019 159.743L323.161 158.238ZM324.518 146.39L322.661 144.545L322.65 144.555L322.639 144.566L324.518 146.39ZM327.871 144.155L326.921 141.715L326.902 141.723L326.883 141.73L327.871 144.155ZM332.146 143.397L332.166 140.779L332.157 140.779L332.148 140.779L332.146 143.397ZM342.033 146.936L340.37 148.958L340.389 148.973L340.408 148.988L342.033 146.936ZM345.057 150.454L342.745 151.682L342.755 151.699L342.764 151.717L345.057 150.454ZM346.259 154.511L343.646 154.667L343.648 154.696L343.65 154.724L346.259 154.511ZM345.155 160.369L344.308 162.846L346.785 163.693L347.632 161.215L345.155 160.369ZM338.91 158.233L336.433 157.386L335.586 159.863L338.063 160.71L338.91 158.233ZM341.775 157.945C342.481 155.879 342.246 153.801 341.231 151.885L336.604 154.336C337.002 155.086 337.021 155.667 336.821 156.251L341.775 157.945ZM341.25 151.92C340.176 149.816 338.25 148.477 335.961 147.694L334.267 152.649C335.7 153.138 336.31 153.759 336.586 154.3L341.25 151.92ZM335.961 147.694C334.063 147.046 332.11 146.82 330.27 147.384L331.803 152.39C332.245 152.255 333.01 152.219 334.267 152.649L335.961 147.694ZM330.328 147.367C328.375 147.916 326.956 149.248 326.298 151.173L331.252 152.867C331.321 152.666 331.389 152.592 331.42 152.563C331.45 152.534 331.533 152.467 331.746 152.407L330.328 147.367ZM326.298 151.173C325.991 152.071 325.866 153.013 325.969 153.975L331.175 153.415C331.16 153.279 331.171 153.105 331.252 152.867L326.298 151.173ZM325.978 154.045C326.121 155.108 326.587 156.047 327.167 156.848L331.408 153.778C331.174 153.455 331.163 153.316 331.167 153.344L325.978 154.045ZM327.273 156.985C327.895 157.734 328.683 158.437 329.576 159.102L332.704 154.904C332.025 154.398 331.578 153.973 331.301 153.641L327.273 156.985ZM329.597 159.118C330.529 159.798 331.687 160.517 333.042 161.274L335.595 156.703C334.347 156.006 333.386 155.401 332.683 154.889L329.597 159.118ZM333.042 161.274C336.088 162.975 337.964 164.672 338.965 166.267L343.4 163.485C341.757 160.864 339.056 158.636 335.595 156.703L333.042 161.274ZM338.965 166.267C339.772 167.552 340.003 169.198 339.201 171.543L344.155 173.237C345.338 169.779 345.239 166.415 343.4 163.485L338.965 166.267ZM339.201 171.543L339.007 172.111L343.961 173.805L344.155 173.237L339.201 171.543ZM339.007 172.111C338.585 173.347 338 174.322 337.282 175.089L341.104 178.666C342.385 177.298 343.327 175.66 343.961 173.805L339.007 172.111ZM337.261 175.111C336.578 175.858 335.764 176.418 334.787 176.802L336.7 181.675C338.409 181.005 339.894 179.991 341.125 178.644L337.261 175.111ZM334.787 176.802C333.808 177.186 332.664 177.389 331.317 177.361L331.209 182.596C333.151 182.636 334.994 182.345 336.7 181.675L334.787 176.802ZM331.317 177.361C329.99 177.334 328.506 177.062 326.852 176.497L325.159 181.451C327.227 182.158 329.248 182.556 331.209 182.596L331.317 177.361ZM326.852 176.497C324.899 175.829 323.359 175.001 322.174 174.055L318.908 178.147C320.656 179.543 322.759 180.63 325.159 181.451L326.852 176.497ZM322.221 174.093C321.029 173.097 320.188 172.046 319.632 170.953L314.965 173.326C315.884 175.132 317.204 176.723 318.861 178.109L322.221 174.093ZM319.649 170.986C319.081 169.829 318.773 168.619 318.717 167.336L313.486 167.563C313.573 169.57 314.063 171.487 314.948 173.292L319.649 170.986ZM318.717 167.355C318.669 166.026 318.878 164.64 319.377 163.18L314.423 161.486C313.736 163.495 313.412 165.52 313.485 167.545L318.717 167.355ZM319.377 163.18L319.862 161.76L314.908 160.066L314.423 161.486L319.377 163.18ZM316.538 163.39L322.783 165.526L324.477 160.572L318.232 158.436L316.538 163.39ZM321.153 162.202L320.765 163.337L325.719 165.031L326.107 163.896L321.153 162.202ZM320.765 163.337C319.915 165.821 319.871 168.318 320.93 170.634L325.692 168.456C325.3 167.598 325.209 166.521 325.719 165.031L320.765 163.337ZM320.961 170.698C322.153 173.129 324.482 174.667 327.259 175.617L328.953 170.662C326.873 169.951 326.005 169.093 325.662 168.392L320.961 170.698ZM327.259 175.617C329.444 176.364 331.722 176.624 333.76 175.759L331.714 170.939C331.363 171.089 330.553 171.209 328.953 170.662L327.259 175.617ZM333.76 175.759C335.577 174.988 336.939 173.634 337.589 171.732L332.635 170.038C332.509 170.407 332.288 170.696 331.714 170.939L333.76 175.759ZM337.589 171.732C337.875 170.897 338.006 170.028 337.961 169.14L332.732 169.408C332.741 169.596 332.717 169.8 332.635 170.038L337.589 171.732ZM337.963 169.197C337.931 168.1 337.579 167.092 337.014 166.204L332.597 169.015C332.719 169.208 332.728 169.309 332.729 169.351L337.963 169.197ZM337.068 166.292C336.534 165.376 335.776 164.568 334.918 163.85L331.558 167.866C332.124 168.34 332.411 168.7 332.543 168.927L337.068 166.292ZM334.918 163.85C334.031 163.109 332.925 162.393 331.652 161.692L329.129 166.28C330.228 166.884 331.02 167.416 331.558 167.866L334.918 163.85ZM331.64 161.686C330.156 160.88 328.856 160.058 327.731 159.225L324.615 163.433C325.964 164.432 327.476 165.382 329.141 166.287L331.64 161.686ZM327.774 159.258C326.727 158.449 325.915 157.604 325.303 156.733L321.019 159.743C321.972 161.098 323.167 162.314 324.572 163.4L327.774 159.258ZM325.325 156.765C324.805 156.001 324.486 155.17 324.361 154.241L319.172 154.941C319.405 156.671 320.017 158.272 320.997 159.712L325.325 156.765ZM324.361 154.241C324.249 153.414 324.349 152.347 324.815 150.983L319.861 149.289C319.206 151.205 318.925 153.109 319.172 154.941L324.361 154.241ZM324.815 150.983L324.912 150.699L319.958 149.005L319.861 149.289L324.815 150.983ZM324.912 150.699C325.261 149.679 325.762 148.866 326.396 148.213L322.639 144.566C321.425 145.817 320.537 147.313 319.958 149.005L324.912 150.699ZM326.374 148.235C327.094 147.511 327.916 146.963 328.859 146.579L326.883 141.73C325.288 142.38 323.875 143.323 322.661 144.545L326.374 148.235ZM328.821 146.594C329.786 146.218 330.884 146.014 332.144 146.015L332.148 140.779C330.309 140.777 328.557 141.078 326.921 141.715L328.821 146.594ZM332.126 146.015C333.385 146.024 334.763 146.266 336.273 146.782L337.967 141.828C336.007 141.158 334.07 140.794 332.166 140.779L332.126 146.015ZM336.273 146.782C337.992 147.37 339.338 148.109 340.37 148.958L343.696 144.914C342.088 143.592 340.159 142.577 337.967 141.828L336.273 146.782ZM340.408 148.988C341.5 149.853 342.254 150.757 342.745 151.682L347.369 149.226C346.489 147.568 345.227 146.126 343.658 144.884L340.408 148.988ZM342.764 151.717C343.305 152.699 343.587 153.675 343.646 154.667L348.873 154.354C348.764 152.541 348.244 150.813 347.35 149.191L342.764 151.717ZM343.65 154.724C343.736 155.775 343.609 156.799 343.26 157.818L348.214 159.512C348.793 157.819 349.014 156.074 348.869 154.297L343.65 154.724ZM343.26 157.818L342.678 159.522L347.632 161.215L348.214 159.512L343.26 157.818ZM346.002 157.891L339.757 155.756L338.063 160.71L344.308 162.846L346.002 157.891ZM341.387 159.08L341.775 157.945L336.821 156.251L336.433 157.386L341.387 159.08ZM354.129 150.861L354.976 148.384L352.499 147.537L351.652 150.014L354.129 150.861ZM377.974 159.014L380.451 159.861L381.298 157.384L378.821 156.537L377.974 159.014ZM375.935 164.975L375.088 167.452L377.565 168.299L378.412 165.822L375.935 164.975ZM367.135 161.966L367.982 159.489L365.505 158.642L364.658 161.119L367.135 161.966ZM357.85 189.122L357.003 191.599L359.48 192.446L360.327 189.969L357.85 189.122ZM351.605 186.987L349.128 186.14L348.281 188.617L350.758 189.464L351.605 186.987ZM360.89 159.831L363.367 160.678L364.214 158.201L361.737 157.354L360.89 159.831ZM352.091 156.822L349.614 155.975L348.767 158.452L351.244 159.299L352.091 156.822ZM353.282 153.338L377.127 161.491L378.821 156.537L354.976 148.384L353.282 153.338ZM375.497 158.167L373.458 164.128L378.412 165.822L380.451 159.861L375.497 158.167ZM376.782 162.498L367.982 159.489L366.289 164.443L375.088 167.452L376.782 162.498ZM364.658 161.119L355.373 188.275L360.327 189.969L369.613 162.813L364.658 161.119ZM358.697 186.645L352.452 184.51L350.758 189.464L357.003 191.599L358.697 186.645ZM354.082 187.834L363.367 160.678L358.413 158.984L349.128 186.14L354.082 187.834ZM361.737 157.354L352.938 154.345L351.244 159.299L360.043 162.308L361.737 157.354ZM354.568 157.669L356.606 151.708L351.652 150.014L349.614 155.975L354.568 157.669Z" fill="#30EFD3"/>
<path d="M67.5719 160.466L68.4189 157.989L65.9418 157.142L65.0948 159.619L67.5719 160.466ZM63.3012 172.956L62.4543 175.433L64.9313 176.28L65.7783 173.803L63.3012 172.956ZM57.0562 170.821L54.5792 169.974L53.7322 172.451L56.2092 173.298L57.0562 170.821ZM68.3799 137.703L69.2269 135.226L66.7498 134.379L65.9029 136.856L68.3799 137.703ZM85.4991 144.508L83.7103 146.419L83.7303 146.438L83.7508 146.456L85.4991 144.508ZM87.8775 147.752L85.4678 148.775L85.4864 148.819L85.5065 148.862L87.8775 147.752ZM88.7184 151.474L86.1007 151.496L86.1011 151.539L86.1029 151.583L88.7184 151.474ZM85.8875 159.754L83.856 158.102L83.8435 158.118L83.8313 158.133L85.8875 159.754ZM82.9113 162.276L81.6367 159.99L81.6323 159.992L82.9113 162.276ZM79.0284 163.432L79.2726 166.039L79.0284 163.432ZM69.6102 154.505L67.1331 153.658L66.2862 156.135L68.7632 156.982L69.6102 154.505ZM79.3659 156.573L78.3082 154.178L78.2847 154.188L78.2615 154.199L79.3659 156.573ZM81.566 150.138L79.2396 151.339L79.2513 151.361L79.2635 151.384L81.566 150.138ZM72.5867 145.8L73.4336 143.323L70.9566 142.476L70.1096 144.953L72.5867 145.8ZM65.0948 159.619L60.8242 172.109L65.7783 173.803L70.0489 161.313L65.0948 159.619ZM64.1482 170.479L57.9032 168.344L56.2092 173.298L62.4543 175.433L64.1482 170.479ZM59.5333 171.668L70.857 138.55L65.9029 136.856L54.5792 169.974L59.5333 171.668ZM67.5329 140.18L80.4961 144.613L82.19 139.659L69.2269 135.226L67.5329 140.18ZM80.4961 144.613C81.9278 145.102 82.9681 145.725 83.7103 146.419L87.288 142.597C85.8951 141.293 84.1647 140.334 82.19 139.659L80.4961 144.613ZM83.7508 146.456C84.5768 147.198 85.127 147.972 85.4678 148.775L90.2872 146.729C89.6134 145.142 88.578 143.753 87.2475 142.56L83.7508 146.456ZM85.5065 148.862C85.8954 149.692 86.0928 150.562 86.1007 151.496L91.3362 151.452C91.3221 149.772 90.9589 148.16 90.2485 146.642L85.5065 148.862ZM86.1029 151.583C86.143 152.55 86.0097 153.468 85.7067 154.355L90.6608 156.049C91.1773 154.538 91.4006 152.971 91.334 151.366L86.1029 151.583ZM85.7067 154.355L85.3184 155.49L90.2725 157.184L90.6608 156.049L85.7067 154.355ZM85.3184 155.49C85.0016 156.417 84.5202 157.285 83.856 158.102L87.919 161.405C88.9576 160.127 89.7482 158.718 90.2725 157.184L85.3184 155.49ZM83.8313 158.133C83.2425 158.881 82.5188 159.498 81.6367 159.99L84.1858 164.563C85.654 163.745 86.9144 162.68 87.9438 161.374L83.8313 158.133ZM81.6323 159.992C80.8561 160.427 79.9223 160.719 78.7843 160.826L79.2726 166.039C81.046 165.873 82.7008 165.394 84.1902 164.56L81.6323 159.992ZM78.7843 160.826C77.7722 160.921 76.5687 160.776 75.137 160.286L73.4431 165.24C75.4177 165.915 77.3732 166.217 79.2726 166.039L78.7843 160.826ZM75.137 160.286L68.4189 157.989L66.7249 162.943L73.4431 165.24L75.137 160.286ZM68.7632 156.982L74.8663 159.069L76.5602 154.115L70.4571 152.028L68.7632 156.982ZM74.8663 159.069C76.7135 159.7 78.6571 159.79 80.4704 158.946L78.2615 154.199C77.9801 154.33 77.4886 154.432 76.5602 154.115L74.8663 159.069ZM80.4237 158.967C82.2244 158.172 83.4494 156.739 84.076 154.907L79.1219 153.213C78.9289 153.777 78.6653 154.02 78.3082 154.178L80.4237 158.967ZM84.076 154.907L84.2701 154.339L79.3161 152.645L79.1219 153.213L84.076 154.907ZM84.2701 154.339C84.8968 152.506 84.8051 150.624 83.8685 148.893L79.2635 151.384C79.4493 151.727 79.5091 152.081 79.3161 152.645L84.2701 154.339ZM83.8924 148.938C82.9754 147.161 81.3839 146.041 79.5367 145.41L77.8428 150.364C78.7712 150.681 79.0972 151.063 79.2396 151.339L83.8924 148.938ZM79.5367 145.41L73.4336 143.323L71.7397 148.277L77.8428 150.364L79.5367 145.41ZM70.1096 144.953L67.1331 153.658L72.0872 155.352L75.0637 146.647L70.1096 144.953ZM97.8217 147.77L98.6686 145.293L96.1916 144.446L95.3446 146.923L97.8217 147.77ZM104.067 149.905L106.544 150.752L107.391 148.275L104.914 147.428L104.067 149.905ZM94.7813 177.062L92.3042 176.215L91.4573 178.692L93.9343 179.539L94.7813 177.062ZM109.826 182.206L112.303 183.053L113.15 180.576L110.673 179.729L109.826 182.206ZM107.788 188.167L106.941 190.644L109.418 191.491L110.265 189.014L107.788 188.167ZM86.498 180.888L84.0209 180.041L83.174 182.518L85.651 183.365L86.498 180.888ZM96.9747 150.247L103.22 152.383L104.914 147.428L98.6686 145.293L96.9747 150.247ZM101.59 149.059L92.3042 176.215L97.2583 177.909L106.544 150.752L101.59 149.059ZM93.9343 179.539L108.979 184.683L110.673 179.729L95.6282 174.585L93.9343 179.539ZM107.349 181.359L105.311 187.32L110.265 189.014L112.303 183.053L107.349 181.359ZM108.635 185.69L87.3449 178.411L85.651 183.365L106.941 190.644L108.635 185.69ZM88.975 181.735L100.299 148.617L95.3446 146.923L84.0209 180.041L88.975 181.735ZM134.121 189.245L136.724 189.523L136.946 187.444L134.968 186.768L134.121 189.245ZM122.861 185.395L123.708 182.918L121.729 182.241L120.632 184.021L122.861 185.395ZM118.826 191.941L117.979 194.418L119.957 195.095L121.054 193.315L118.826 191.941ZM112.297 189.709L110.084 188.31L108.312 191.113L111.45 192.186L112.297 189.709ZM131.521 159.293L132.368 156.816L130.413 156.147L129.309 157.894L131.521 159.293ZM143.254 163.305L145.86 163.554L146.057 161.496L144.101 160.828L143.254 163.305ZM139.832 199.124L138.985 201.601L142.122 202.674L142.438 199.373L139.832 199.124ZM133.303 196.891L130.7 196.613L130.477 198.692L132.456 199.368L133.303 196.891ZM126.224 179.887L123.998 178.508L122.268 181.301L125.377 182.364L126.224 179.887ZM134.787 182.815L133.94 185.292L137.04 186.352L137.39 183.094L134.787 182.815ZM136.746 164.567L139.349 164.846L139.572 162.767L137.593 162.09L136.746 164.567ZM135.894 164.276L136.741 161.799L134.768 161.124L133.669 162.897L135.894 164.276ZM134.968 186.768L123.708 182.918L122.014 187.872L133.274 191.722L134.968 186.768ZM120.632 184.021L116.597 190.568L121.054 193.315L125.089 186.768L120.632 184.021ZM119.673 189.464L113.144 187.232L111.45 192.186L117.979 194.418L119.673 189.464ZM114.51 191.108L133.734 160.692L129.309 157.894L110.084 188.31L114.51 191.108ZM130.674 161.77L142.408 165.782L144.101 160.828L132.368 156.816L130.674 161.77ZM140.649 163.056L137.226 198.875L142.438 199.373L145.86 163.554L140.649 163.056ZM140.679 196.647L134.15 194.414L132.456 199.368L138.985 201.601L140.679 196.647ZM135.906 197.17L136.724 189.523L131.518 188.966L130.7 196.613L135.906 197.17ZM125.377 182.364L133.94 185.292L135.634 180.337L127.071 177.409L125.377 182.364ZM137.39 183.094L139.349 164.846L134.143 164.287L132.184 182.535L137.39 183.094ZM137.593 162.09L136.741 161.799L135.048 166.753L135.899 167.044L137.593 162.09ZM133.669 162.897L123.998 178.508L128.449 181.265L138.12 165.654L133.669 162.897ZM155.89 191.615L158.367 192.462L159.214 189.985L156.737 189.138L155.89 191.615ZM154.471 191.13L151.863 191.358L152.011 193.056L153.624 193.607L154.471 191.13ZM152.305 166.399L153.152 163.922L149.347 162.621L149.697 166.628L152.305 166.399ZM159.118 168.729L161.728 168.526L161.594 166.809L159.965 166.252L159.118 168.729ZM160.528 186.86L157.918 187.063L158.051 188.78L159.681 189.337L160.528 186.86ZM161.379 187.151L160.532 189.628L162.162 190.186L163.319 188.91L161.379 187.151ZM173.595 173.679L174.442 171.202L172.813 170.645L171.656 171.92L173.595 173.679ZM180.408 176.008L182.33 177.786L185.06 174.833L181.255 173.531L180.408 176.008ZM163.554 194.236L162.707 196.713L164.32 197.264L165.476 196.013L163.554 194.236ZM162.135 193.751L162.982 191.274L160.505 190.427L159.658 192.904L162.135 193.751ZM158.155 205.389L157.308 207.866L159.785 208.713L160.632 206.236L158.155 205.389ZM151.91 203.254L149.433 202.407L148.586 204.884L151.063 205.731L151.91 203.254ZM156.737 189.138L155.317 188.653L153.624 193.607L155.043 194.092L156.737 189.138ZM157.078 190.902L154.913 166.171L149.697 166.628L151.863 191.358L157.078 190.902ZM151.458 168.876L158.271 171.206L159.965 166.252L153.152 163.922L151.458 168.876ZM156.508 168.932L157.918 187.063L163.138 186.657L161.728 168.526L156.508 168.932ZM159.681 189.337L160.532 189.628L162.226 184.674L161.375 184.383L159.681 189.337ZM163.319 188.91L175.534 175.437L171.656 171.92L159.44 185.393L163.319 188.91ZM172.748 176.156L179.561 178.485L181.255 173.531L174.442 171.202L172.748 176.156ZM178.486 174.231L161.632 192.459L165.476 196.013L182.33 177.786L178.486 174.231ZM164.401 191.759L162.982 191.274L161.288 196.228L162.707 196.713L164.401 191.759ZM159.658 192.904L155.678 204.542L160.632 206.236L164.612 194.598L159.658 192.904ZM159.002 202.912L152.757 200.777L151.063 205.731L157.308 207.866L159.002 202.912ZM154.387 204.101L158.367 192.462L153.413 190.768L149.433 202.407L154.387 204.101Z" fill="#FCBB00"/>
<path d="M208.838 184.673L209.685 182.196L207.208 181.349L206.361 183.826L208.838 184.673ZM232.683 192.826L235.16 193.673L236.007 191.196L233.53 190.349L232.683 192.826ZM230.645 198.787L229.798 201.264L232.275 202.111L233.122 199.634L230.645 198.787ZM221.845 195.778L222.692 193.301L220.215 192.454L219.368 194.931L221.845 195.778ZM212.559 222.934L211.712 225.411L214.189 226.258L215.036 223.781L212.559 222.934ZM206.314 220.799L203.837 219.952L202.99 222.429L205.467 223.276L206.314 220.799ZM215.6 193.643L218.077 194.49L218.924 192.013L216.447 191.166L215.6 193.643ZM206.8 190.634L204.323 189.787L203.476 192.264L205.953 193.111L206.8 190.634ZM207.991 187.15L231.836 195.303L233.53 190.349L209.685 182.196L207.991 187.15ZM230.206 191.979L228.168 197.94L233.122 199.634L235.16 193.673L230.206 191.979ZM231.492 196.31L222.692 193.301L220.998 198.255L229.798 201.264L231.492 196.31ZM219.368 194.931L210.082 222.087L215.036 223.781L224.322 196.625L219.368 194.931ZM213.406 220.457L207.161 218.322L205.467 223.276L211.712 225.411L213.406 220.457ZM208.791 221.646L218.077 194.49L213.123 192.796L203.837 219.952L208.791 221.646ZM216.447 191.166L207.647 188.157L205.953 193.111L214.753 196.12L216.447 191.166ZM209.277 191.481L211.315 185.52L206.361 183.826L204.323 189.787L209.277 191.481ZM238.138 194.691L238.985 192.214L236.508 191.367L235.661 193.844L238.138 194.691ZM244.383 196.826L246.86 197.673L247.707 195.196L245.23 194.349L244.383 196.826ZM239.756 210.357L237.279 209.51L236.432 211.987L238.91 212.834L239.756 210.357ZM250.449 214.013L249.602 216.49L252.079 217.337L252.926 214.86L250.449 214.013ZM255.075 200.482L255.922 198.005L253.445 197.158L252.598 199.635L255.075 200.482ZM261.32 202.617L263.797 203.464L264.644 200.987L262.167 200.14L261.32 202.617ZM249.997 235.735L249.15 238.212L251.627 239.059L252.474 236.582L249.997 235.735ZM243.752 233.6L241.275 232.753L240.428 235.23L242.905 236.077L243.752 233.6ZM248.41 219.974L250.888 220.821L251.734 218.344L249.257 217.497L248.41 219.974ZM237.718 216.318L238.565 213.841L236.088 212.994L235.241 215.471L237.718 216.318ZM233.059 229.944L232.212 232.421L234.689 233.268L235.536 230.791L233.059 229.944ZM226.814 227.808L224.337 226.962L223.49 229.439L225.967 230.286L226.814 227.808ZM237.291 197.168L243.536 199.303L245.23 194.349L238.985 192.214L237.291 197.168ZM241.906 195.979L237.279 209.51L242.234 211.204L246.86 197.673L241.906 195.979ZM238.91 212.834L249.602 216.49L251.296 211.536L240.603 207.88L238.91 212.834ZM252.926 214.86L257.552 201.329L252.598 199.635L247.972 213.166L252.926 214.86ZM254.228 202.959L260.473 205.095L262.167 200.14L255.922 198.005L254.228 202.959ZM258.843 201.771L247.52 234.888L252.474 236.582L263.797 203.464L258.843 201.771ZM250.844 233.258L244.599 231.123L242.905 236.077L249.15 238.212L250.844 233.258ZM246.229 234.447L250.888 220.821L245.933 219.127L241.275 232.753L246.229 234.447ZM249.257 217.497L238.565 213.841L236.871 218.795L247.564 222.451L249.257 217.497ZM235.241 215.471L230.582 229.097L235.536 230.791L240.195 217.165L235.241 215.471ZM233.906 227.467L227.661 225.331L225.967 230.286L232.212 232.421L233.906 227.467ZM229.291 228.655L240.615 195.538L235.661 193.844L224.337 226.962L229.291 228.655ZM268.1 204.936L268.947 202.459L266.47 201.612L265.623 204.089L268.1 204.936ZM289.012 212.086L291.489 212.933L292.336 210.456L289.859 209.609L289.012 212.086ZM286.973 218.047L286.126 220.524L288.603 221.371L289.45 218.894L286.973 218.047ZM272.307 213.032L273.154 210.555L270.677 209.708L269.83 212.185L272.307 213.032ZM269.719 220.602L267.242 219.755L266.395 222.232L268.872 223.079L269.719 220.602ZM283.817 225.423L286.294 226.27L287.141 223.792L284.664 222.946L283.817 225.423ZM281.779 231.384L280.932 233.861L283.409 234.708L284.256 232.231L281.779 231.384ZM267.68 226.563L268.527 224.086L266.05 223.239L265.203 225.716L267.68 226.563ZM265.06 234.227L262.583 233.38L261.736 235.858L264.213 236.704L265.06 234.227ZM280.294 239.436L282.771 240.283L283.618 237.806L281.141 236.959L280.294 239.436ZM278.256 245.397L277.409 247.875L279.886 248.721L280.733 246.244L278.256 245.397ZM256.776 238.053L254.299 237.206L253.452 239.683L255.93 240.53L256.776 238.053ZM267.253 207.413L288.165 214.563L289.859 209.609L268.947 202.459L267.253 207.413ZM286.535 211.239L284.496 217.2L289.45 218.894L291.489 212.933L286.535 211.239ZM287.82 215.57L273.154 210.555L271.46 215.509L286.126 220.524L287.82 215.57ZM269.83 212.185L267.242 219.755L272.196 221.449L274.784 213.879L269.83 212.185ZM268.872 223.079L282.97 227.9L284.664 222.946L270.566 218.125L268.872 223.079ZM281.34 224.576L279.302 230.537L284.256 232.231L286.294 226.27L281.34 224.576ZM282.626 228.907L268.527 224.086L266.833 229.04L280.932 233.861L282.626 228.907ZM265.203 225.716L262.583 233.38L267.537 235.074L270.157 227.41L265.203 225.716ZM264.213 236.704L279.447 241.913L281.141 236.959L265.907 231.75L264.213 236.704ZM277.817 238.589L275.779 244.551L280.733 246.244L282.771 240.283L277.817 238.589ZM279.103 242.92L257.623 235.576L255.93 240.53L277.409 247.875L279.103 242.92ZM259.254 238.9L270.577 205.783L265.623 204.089L254.299 237.206L259.254 238.9ZM328.862 243.995L329.709 241.518L327.232 240.671L326.385 243.148L328.862 243.995ZM343.055 248.848L345.532 249.695L346.379 247.218L343.902 246.371L343.055 248.848ZM337.328 265.596L336.481 268.073L338.958 268.92L339.805 266.443L337.328 265.596ZM331.651 263.655L329.174 262.808L328.327 265.285L330.804 266.132L331.651 263.655ZM332.913 259.964L335.39 260.811L336.237 258.334L333.76 257.487L332.913 259.964ZM332.061 259.673L332.908 257.196L331.079 256.571L329.943 258.135L332.061 259.673ZM328.817 262.052L329.649 264.534L329.672 264.526L329.694 264.518L328.817 262.052ZM319.604 259.324L321.358 257.381L319.604 259.324ZM317.008 255.636L314.578 256.61L314.585 256.627L314.592 256.644L317.008 255.636ZM316.113 250.68L313.495 250.674L313.495 250.682L313.495 250.69L316.113 250.68ZM322.744 231.44L320.726 229.774L320.717 229.784L320.708 229.795L322.744 231.44ZM326.739 228.103L325.553 225.769L325.536 225.778L325.52 225.787L326.739 228.103ZM331.539 226.891L331.616 229.508L331.64 229.507L331.663 229.506L331.539 226.891ZM341.6 230.384L339.851 232.332L339.869 232.348L339.887 232.363L341.6 230.384ZM344.512 234.233L342.128 235.316L342.136 235.333L342.144 235.351L344.512 234.233ZM345.567 238.874L342.949 238.92L342.95 238.929L342.95 238.938L345.567 238.874ZM344.575 244.401L343.729 246.878L346.206 247.725L347.053 245.248L344.575 244.401ZM338.33 242.265L335.853 241.418L335.006 243.895L337.484 244.742L338.33 242.265ZM338.5 236.669L336.132 237.786L336.149 237.822L336.168 237.858L338.5 236.669ZM329.761 233.945L330.946 236.28L330.962 236.272L330.977 236.264L329.761 233.945ZM331.93 256.194L330.74 253.862L330.739 253.862L331.93 256.194ZM334.772 252.674L337.249 253.521L338.096 251.044L335.619 250.197L334.772 252.674ZM326.823 249.956L324.346 249.109L323.499 251.586L325.976 252.433L326.823 249.956ZM328.015 246.472L342.208 251.325L343.902 246.371L329.709 241.518L328.015 246.472ZM340.578 248.001L334.851 264.749L339.805 266.443L345.532 249.695L340.578 248.001ZM338.175 263.119L332.498 261.178L330.804 266.132L336.481 268.073L338.175 263.119ZM334.128 264.502L335.39 260.811L330.436 259.117L329.174 262.808L334.128 264.502ZM333.76 257.487L332.908 257.196L331.214 262.15L332.066 262.441L333.76 257.487ZM329.943 258.135C329.475 258.78 328.839 259.265 327.94 259.585L329.694 264.518C331.522 263.868 333.05 262.768 334.18 261.211L329.943 258.135ZM327.985 259.569C327.415 259.761 326.317 259.804 324.418 259.155L322.724 264.109C325.115 264.926 327.514 265.25 329.649 264.534L327.985 259.569ZM324.418 259.155C323.222 258.746 322.213 258.152 321.358 257.381L317.85 261.267C319.257 262.537 320.892 263.482 322.724 264.109L324.418 259.155ZM321.358 257.381C320.521 256.625 319.879 255.718 319.424 254.627L314.592 256.644C315.338 258.43 316.426 259.982 317.85 261.267L321.358 257.381ZM319.438 254.661C318.989 253.543 318.737 252.225 318.731 250.67L313.495 250.69C313.503 252.803 313.848 254.789 314.578 256.61L319.438 254.661ZM318.731 250.685C318.734 249.167 319.044 247.418 319.728 245.416L314.774 243.722C313.949 246.136 313.5 248.461 313.495 250.674L318.731 250.685ZM319.728 245.416L322.381 237.657L317.427 235.963L314.774 243.722L319.728 245.416ZM322.381 237.657C323.037 235.739 323.851 234.236 324.78 233.086L320.708 229.795C319.317 231.516 318.238 233.593 317.427 235.963L322.381 237.657ZM324.763 233.107C325.776 231.881 326.845 231.006 327.958 230.42L325.52 225.787C323.711 226.739 322.117 228.088 320.726 229.774L324.763 233.107ZM327.925 230.437C329.065 229.858 330.285 229.547 331.616 229.508L331.463 224.275C329.377 224.336 327.397 224.833 325.553 225.769L327.925 230.437ZM331.663 229.506C333.015 229.442 334.459 229.652 336.015 230.184L337.709 225.23C335.605 224.511 333.502 224.177 331.415 224.276L331.663 229.506ZM336.015 230.184C337.631 230.737 338.888 231.467 339.851 232.332L343.35 228.437C341.779 227.026 339.877 225.971 337.709 225.23L336.015 230.184ZM339.887 232.363C340.895 233.236 341.629 234.218 342.128 235.316L346.895 233.15C346.067 231.328 344.861 229.745 343.314 228.405L339.887 232.363ZM342.144 235.351C342.651 236.425 342.926 237.605 342.949 238.92L348.184 238.828C348.149 236.812 347.72 234.898 346.879 233.116L342.144 235.351ZM342.95 238.938C342.982 240.239 342.772 241.584 342.293 242.986L347.247 244.68C347.91 242.739 348.232 240.778 348.184 238.81L342.95 238.938ZM342.293 242.986L342.098 243.554L347.053 245.248L347.247 244.68L342.293 242.986ZM345.422 241.924L339.177 239.788L337.484 244.742L343.729 246.878L345.422 241.924ZM340.808 243.112L341.002 242.545L336.048 240.851L335.853 241.418L340.808 243.112ZM341.002 242.545C341.823 240.143 341.955 237.682 340.833 235.481L336.168 237.858C336.437 238.387 336.585 239.278 336.048 240.851L341.002 242.545ZM340.868 235.553C339.833 233.358 337.907 231.956 335.576 231.159L333.882 236.113C335.272 236.588 335.86 237.209 336.132 237.786L340.868 235.553ZM335.576 231.159C333.182 230.34 330.776 230.458 328.546 231.627L330.977 236.264C331.838 235.813 332.743 235.723 333.882 236.113L335.576 231.159ZM328.577 231.611C326.111 232.862 324.558 235.508 323.511 238.572L328.465 240.266C329.38 237.589 330.343 236.586 330.946 236.28L328.577 231.611ZM323.511 238.572L321.116 245.574L326.07 247.268L328.465 240.266L323.511 238.572ZM321.116 245.574C320.15 248.401 319.833 251.175 320.734 253.611C321.681 256.171 323.758 257.804 326.371 258.698L328.065 253.744C326.514 253.213 325.906 252.502 325.644 251.795C325.337 250.964 325.29 249.55 326.07 247.268L321.116 245.574ZM326.371 258.698C328.649 259.477 331.004 259.606 333.121 258.525L330.739 253.862C330.294 254.09 329.508 254.237 328.065 253.744L326.371 258.698ZM333.12 258.525C335.161 257.484 336.502 255.705 337.249 253.521L332.295 251.827C331.898 252.985 331.345 253.553 330.74 253.862L333.12 258.525ZM335.619 250.197L327.67 247.479L325.976 252.433L333.925 255.151L335.619 250.197ZM329.3 250.803L331.339 244.842L326.385 243.148L324.346 249.109L329.3 250.803ZM362.337 266.22L364.94 266.499L365.162 264.42L363.183 263.743L362.337 266.22ZM351.077 262.37L351.924 259.893L349.945 259.217L348.848 260.997L351.077 262.37ZM347.041 268.917L346.194 271.394L348.173 272.071L349.27 270.291L347.041 268.917ZM340.513 266.685L338.3 265.286L336.528 268.089L339.666 269.162L340.513 266.685ZM359.737 236.269L360.584 233.792L358.629 233.123L357.524 234.87L359.737 236.269ZM371.47 240.28L374.076 240.529L374.273 238.472L372.317 237.803L371.47 240.28ZM368.047 276.1L367.201 278.577L370.338 279.649L370.653 276.349L368.047 276.1ZM361.519 273.867L358.916 273.589L358.693 275.668L360.672 276.344L361.519 273.867ZM354.44 256.862L352.214 255.484L350.484 258.276L353.593 259.339L354.44 256.862ZM363.003 259.79L362.156 262.267L365.256 263.327L365.606 260.07L363.003 259.79ZM364.962 241.543L367.565 241.822L367.788 239.742L365.809 239.066L364.962 241.543ZM364.11 241.251L364.957 238.774L362.983 238.099L361.885 239.873L364.11 241.251ZM363.183 263.743L351.924 259.893L350.23 264.847L361.49 268.698L363.183 263.743ZM348.848 260.997L344.813 267.543L349.27 270.291L353.305 263.744L348.848 260.997ZM347.888 266.44L341.36 264.208L339.666 269.162L346.194 271.394L347.888 266.44ZM342.725 268.083L361.95 237.667L357.524 234.87L338.3 265.286L342.725 268.083ZM358.89 238.746L370.623 242.757L372.317 237.803L360.584 233.792L358.89 238.746ZM368.864 240.031L365.442 275.85L370.653 276.349L374.076 240.529L368.864 240.031ZM368.894 273.622L362.366 271.39L360.672 276.344L367.201 278.577L368.894 273.622ZM364.122 274.146L364.94 266.499L359.734 265.942L358.916 273.589L364.122 274.146ZM353.593 259.339L362.156 262.267L363.85 257.313L355.286 254.385L353.593 259.339ZM365.606 260.07L367.565 241.822L362.359 241.263L360.4 259.511L365.606 260.07ZM365.809 239.066L364.957 238.774L363.263 243.728L364.115 244.02L365.809 239.066ZM361.885 239.873L352.214 255.484L356.665 258.241L366.336 242.63L361.885 239.873ZM381.136 243.585L381.983 241.108L379.506 240.261L378.659 242.738L381.136 243.585ZM392.112 247.338L394.646 247.995L395.255 245.646L392.959 244.861L392.112 247.338ZM385.496 272.871L387.973 273.718L388.005 273.624L388.03 273.528L385.496 272.871ZM383.846 277.697L381.369 276.85L380.522 279.327L382.999 280.174L383.846 277.697ZM384.981 278.085L384.134 280.562L386.611 281.409L387.458 278.932L384.981 278.085ZM386.631 273.259L384.225 272.227L384.186 272.318L384.154 272.412L386.631 273.259ZM397.033 249.021L397.879 246.544L395.584 245.759L394.627 247.988L397.033 249.021ZM408.009 252.774L410.486 253.621L411.333 251.144L408.856 250.297L408.009 252.774ZM396.685 285.891L395.838 288.368L398.315 289.215L399.162 286.738L396.685 285.891ZM391.008 283.95L388.531 283.103L387.684 285.58L390.161 286.427L391.008 283.95ZM398.578 261.809L396.172 260.779L396.133 260.869L396.101 260.962L398.578 261.809ZM401.734 254.433L404.141 255.463L405.251 252.869L402.581 251.956L401.734 254.433ZM400.599 254.045L401.446 251.568L399.165 250.788L398.2 252.996L400.599 254.045ZM387.98 282.915L387.133 285.392L389.413 286.172L390.378 283.963L387.98 282.915ZM378.612 279.712L376.072 279.08L375.492 281.412L377.765 282.189L378.612 279.712ZM386.216 249.127L388.757 249.759L389.337 247.427L387.063 246.65L386.216 249.127ZM385.081 248.739L385.928 246.262L383.258 245.349L382.547 248.08L385.081 248.739ZM383.06 256.503L385.537 257.35L385.569 257.257L385.594 257.162L383.06 256.503ZM375.49 278.644L374.643 281.121L377.12 281.968L377.967 279.491L375.49 278.644ZM369.812 276.703L367.335 275.856L366.488 278.333L368.965 279.18L369.812 276.703ZM380.289 246.062L391.265 249.815L392.959 244.861L381.983 241.108L380.289 246.062ZM389.578 246.682L382.962 272.214L388.03 273.528L394.646 247.995L389.578 246.682ZM383.019 272.024L381.369 276.85L386.323 278.544L387.973 273.718L383.019 272.024ZM382.999 280.174L384.134 280.562L385.828 275.608L384.693 275.22L382.999 280.174ZM387.458 278.932L389.108 274.106L384.154 272.412L382.504 277.238L387.458 278.932ZM389.037 274.292L399.438 250.053L394.627 247.988L384.225 272.227L389.037 274.292ZM396.186 251.498L407.162 255.251L408.856 250.297L397.879 246.544L396.186 251.498ZM405.532 251.927L394.208 285.044L399.162 286.738L410.486 253.621L405.532 251.927ZM397.532 283.414L391.855 281.473L390.161 286.427L395.838 288.368L397.532 283.414ZM393.485 284.797L401.055 262.656L396.101 260.962L388.531 283.103L393.485 284.797ZM400.985 262.839L404.141 255.463L399.328 253.403L396.172 260.779L400.985 262.839ZM402.581 251.956L401.446 251.568L399.752 256.522L400.887 256.91L402.581 251.956ZM398.2 252.996L385.581 281.866L390.378 283.963L402.998 255.093L398.2 252.996ZM388.827 280.438L379.459 277.235L377.765 282.189L387.133 285.392L388.827 280.438ZM381.153 280.343L388.757 249.759L383.676 248.495L376.072 279.08L381.153 280.343ZM387.063 246.65L385.928 246.262L384.234 251.216L385.369 251.604L387.063 246.65ZM382.547 248.08L380.527 255.843L385.594 257.162L387.614 249.398L382.547 248.08ZM380.583 255.656L373.013 277.797L377.967 279.491L385.537 257.35L380.583 255.656ZM376.337 276.167L370.659 274.226L368.965 279.18L374.643 281.121L376.337 276.167ZM372.289 277.55L383.613 244.432L378.659 242.738L367.335 275.856L372.289 277.55ZM412.943 254.461L413.79 251.984L411.313 251.137L410.466 253.614L412.943 254.461ZM433.855 261.611L436.332 262.458L437.179 259.981L434.702 259.134L433.855 261.611ZM431.816 267.572L430.97 270.049L433.447 270.896L434.294 268.419L431.816 267.572ZM417.15 262.558L417.997 260.081L415.52 259.234L414.673 261.711L417.15 262.558ZM414.562 270.127L412.085 269.28L411.238 271.757L413.715 272.604L414.562 270.127ZM428.661 274.948L431.138 275.795L431.984 273.318L429.507 272.471L428.661 274.948ZM426.622 280.909L425.775 283.386L428.252 284.233L429.099 281.756L426.622 280.909ZM412.524 276.088L413.371 273.611L410.894 272.764L410.047 275.241L412.524 276.088ZM409.903 283.753L407.426 282.906L406.579 285.383L409.056 286.23L409.903 283.753ZM425.137 288.962L427.614 289.809L428.461 287.332L425.984 286.485L425.137 288.962ZM423.099 294.923L422.252 297.4L424.729 298.247L425.576 295.77L423.099 294.923ZM401.62 287.579L399.143 286.732L398.296 289.209L400.773 290.056L401.62 287.579ZM412.096 256.938L433.008 264.088L434.702 259.134L413.79 251.984L412.096 256.938ZM431.378 260.764L429.339 266.725L434.294 268.419L436.332 262.458L431.378 260.764ZM432.663 265.095L417.997 260.081L416.303 265.035L430.97 270.049L432.663 265.095ZM414.673 261.711L412.085 269.28L417.039 270.974L419.627 263.405L414.673 261.711ZM413.715 272.604L427.814 277.425L429.507 272.471L415.409 267.65L413.715 272.604ZM426.183 274.101L424.145 280.062L429.099 281.756L431.138 275.795L426.183 274.101ZM427.469 278.432L413.371 273.611L411.677 278.565L425.775 283.386L427.469 278.432ZM410.047 275.241L407.426 282.906L412.38 284.6L415.001 276.935L410.047 275.241ZM409.056 286.23L424.29 291.439L425.984 286.485L410.75 281.276L409.056 286.23ZM422.66 288.115L420.622 294.076L425.576 295.77L427.614 289.809L422.66 288.115ZM423.946 292.446L402.467 285.102L400.773 290.056L422.252 297.4L423.946 292.446ZM404.097 288.426L415.42 255.308L410.466 253.614L399.143 286.732L404.097 288.426ZM438.915 294.148L436.996 292.368L436.971 292.395L436.947 292.422L438.915 294.148ZM440.394 293.069L441.452 295.463L441.5 295.442L441.547 295.419L440.394 293.069ZM442.137 292.608L442.297 295.221L442.361 295.217L442.425 295.21L442.137 292.608ZM445.591 293.789L443.77 295.669L443.834 295.732L443.903 295.79L445.591 293.789ZM446.734 295.236L444.383 296.389L444.406 296.436L444.431 296.482L446.734 295.236ZM447.195 296.979L444.579 297.088L444.583 297.178L444.593 297.268L447.195 296.979ZM442.752 307.191L441.599 304.841L441.576 304.852L441.553 304.864L442.752 307.191ZM436.323 306.367L433.846 305.52L432.999 307.997L435.476 308.844L436.323 306.367ZM437.585 302.677L438.432 300.199L435.954 299.353L435.108 301.83L437.585 302.677ZM441.812 301.903L444.289 302.75L445.512 299.175L441.736 299.286L441.812 301.903ZM439.338 300.793L441.159 298.912L441.113 298.867L441.065 298.825L439.338 300.793ZM438.243 299.361L440.593 298.208L438.243 299.361ZM437.734 297.602L435.121 297.762L435.125 297.826L435.132 297.89L437.734 297.602ZM440.479 296.585C440.577 296.299 440.712 296.07 440.883 295.875L436.947 292.422C436.31 293.148 435.836 293.98 435.525 294.891L440.479 296.585ZM440.835 295.928C441.066 295.679 441.274 295.542 441.452 295.463L439.336 290.674C438.436 291.072 437.657 291.655 436.996 292.368L440.835 295.928ZM441.547 295.419C441.787 295.302 442.03 295.237 442.297 295.221L441.977 289.995C441.02 290.053 440.102 290.296 439.241 290.718L441.547 295.419ZM442.425 295.21C442.64 295.186 442.88 295.206 443.17 295.305L444.864 290.351C443.892 290.019 442.879 289.892 441.849 290.006L442.425 295.21ZM443.17 295.305C443.409 295.387 443.6 295.505 443.77 295.669L447.412 291.908C446.682 291.201 445.823 290.679 444.864 290.351L443.17 295.305ZM443.903 295.79C444.132 295.983 444.281 296.181 444.383 296.389L449.084 294.084C448.646 293.191 448.033 292.424 447.278 291.787L443.903 295.79ZM444.431 296.482C444.505 296.619 444.567 296.805 444.579 297.088L449.81 296.871C449.769 295.867 449.523 294.891 449.036 293.991L444.431 296.482ZM444.593 297.268C444.619 297.503 444.595 297.726 444.514 297.965L449.468 299.659C449.796 298.699 449.909 297.701 449.797 296.691L444.593 297.268ZM444.514 297.965L442.54 303.737L447.494 305.431L449.468 299.659L444.514 297.965ZM442.54 303.737C442.347 304.303 442.053 304.618 441.599 304.841L443.904 309.542C445.651 308.685 446.868 307.262 447.494 305.431L442.54 303.737ZM441.553 304.864C441.154 305.069 440.763 305.118 440.198 304.925L438.504 309.879C440.336 310.506 442.211 310.414 443.95 309.519L441.553 304.864ZM440.198 304.925L437.17 303.89L435.476 308.844L438.504 309.879L440.198 304.925ZM438.8 307.214L440.062 303.524L435.108 301.83L433.846 305.52L438.8 307.214ZM436.738 305.154L439.009 305.93L440.702 300.976L438.432 300.199L436.738 305.154ZM439.009 305.93C439.887 306.231 441.069 306.348 442.209 305.712C443.289 305.111 443.824 304.112 444.095 303.317L439.141 301.624C439.089 301.775 439.169 301.413 439.66 301.139C440.214 300.831 440.675 300.967 440.702 300.976L439.009 305.93ZM444.095 303.317L444.289 302.75L439.335 301.056L439.141 301.624L444.095 303.317ZM441.736 299.286C441.756 299.285 441.774 299.287 441.789 299.289C441.804 299.291 441.81 299.294 441.806 299.293L440.113 304.247C440.677 304.44 441.274 304.537 441.889 304.519L441.736 299.286ZM441.806 299.293C441.516 299.193 441.315 299.062 441.159 298.912L437.517 302.673C438.262 303.394 439.141 303.915 440.113 304.247L441.806 299.293ZM441.065 298.825C440.864 298.648 440.711 298.448 440.593 298.208L435.892 300.514C436.314 301.374 436.892 302.129 437.612 302.761L441.065 298.825ZM440.593 298.208C440.459 297.936 440.373 297.642 440.336 297.314L435.132 297.89C435.234 298.807 435.486 299.686 435.892 300.514L440.593 298.208ZM440.347 297.442C440.333 297.201 440.364 296.921 440.479 296.585L435.525 294.891C435.208 295.817 435.061 296.78 435.121 297.762L440.347 297.442ZM182.955 260.37L183.802 257.893L181.325 257.046L180.478 259.523L182.955 260.37ZM206.8 268.523L209.277 269.37L210.124 266.893L207.647 266.046L206.8 268.523ZM204.762 274.484L203.915 276.961L206.392 277.808L207.239 275.331L204.762 274.484ZM195.962 271.475L196.809 268.998L194.332 268.151L193.485 270.628L195.962 271.475ZM186.677 298.632L185.83 301.109L188.307 301.956L189.154 299.479L186.677 298.632ZM180.432 296.496L177.955 295.649L177.108 298.126L179.585 298.973L180.432 296.496ZM189.717 269.34L192.194 270.187L193.041 267.71L190.564 266.863L189.717 269.34ZM180.917 266.331L178.44 265.484L177.593 267.961L180.07 268.808L180.917 266.331ZM182.108 262.847L205.953 271L207.647 266.046L183.802 257.893L182.108 262.847ZM204.323 267.676L202.285 273.637L207.239 275.331L209.277 269.37L204.323 267.676ZM205.609 272.007L196.809 268.998L195.115 273.952L203.915 276.961L205.609 272.007ZM193.485 270.628L184.2 297.785L189.154 299.479L198.439 272.322L193.485 270.628ZM187.524 296.155L181.279 294.019L179.585 298.973L185.83 301.109L187.524 296.155ZM182.909 297.343L192.194 270.187L187.24 268.493L177.955 295.649L182.909 297.343ZM190.564 266.863L181.764 263.854L180.07 268.808L188.87 271.817L190.564 266.863ZM183.394 267.178L185.432 261.217L180.478 259.523L178.44 265.484L183.394 267.178ZM212.255 270.388L213.102 267.911L210.625 267.064L209.778 269.541L212.255 270.388ZM218.5 272.524L220.977 273.371L221.824 270.893L219.347 270.047L218.5 272.524ZM213.874 286.054L211.397 285.207L210.55 287.685L213.027 288.531L213.874 286.054ZM224.566 289.71L223.719 292.187L226.196 293.034L227.043 290.557L224.566 289.71ZM229.193 276.179L230.039 273.702L227.562 272.855L226.715 275.333L229.193 276.179ZM235.438 278.315L237.915 279.162L238.762 276.685L236.285 275.838L235.438 278.315ZM224.114 311.432L223.267 313.909L225.744 314.756L226.591 312.279L224.114 311.432ZM217.869 309.297L215.392 308.45L214.545 310.927L217.022 311.774L217.869 309.297ZM222.528 295.672L225.005 296.519L225.852 294.041L223.375 293.195L222.528 295.672ZM211.835 292.016L212.682 289.539L210.205 288.692L209.358 291.169L211.835 292.016ZM207.177 305.641L206.33 308.118L208.807 308.965L209.654 306.488L207.177 305.641ZM200.932 303.506L198.455 302.659L197.608 305.136L200.085 305.983L200.932 303.506ZM211.408 272.865L217.653 275.001L219.347 270.047L213.102 267.911L211.408 272.865ZM216.023 271.677L211.397 285.207L216.351 286.901L220.977 273.371L216.023 271.677ZM213.027 288.531L223.719 292.187L225.413 287.233L214.721 283.577L213.027 288.531ZM227.043 290.557L231.67 277.026L226.715 275.333L222.089 288.863L227.043 290.557ZM228.346 278.657L234.591 280.792L236.285 275.838L230.039 273.702L228.346 278.657ZM232.961 277.468L221.637 310.585L226.591 312.279L237.915 279.162L232.961 277.468ZM224.961 308.955L218.716 306.82L217.022 311.774L223.267 313.909L224.961 308.955ZM220.346 310.144L225.005 296.519L220.051 294.825L215.392 308.45L220.346 310.144ZM223.375 293.195L212.682 289.539L210.989 294.493L221.681 298.149L223.375 293.195ZM209.358 291.169L204.7 304.794L209.654 306.488L214.313 292.863L209.358 291.169ZM208.024 303.164L201.779 301.029L200.085 305.983L206.33 308.118L208.024 303.164ZM203.409 304.353L214.732 271.235L209.778 269.541L198.455 302.659L203.409 304.353ZM242.217 280.633L243.064 278.156L240.587 277.309L239.74 279.786L242.217 280.633ZM263.129 287.783L265.606 288.63L266.453 286.153L263.976 285.306L263.129 287.783ZM261.091 293.744L260.244 296.221L262.721 297.068L263.568 294.591L261.091 293.744ZM246.424 288.73L247.271 286.252L244.794 285.405L243.947 287.883L246.424 288.73ZM243.836 296.299L241.359 295.452L240.512 297.929L242.989 298.776L243.836 296.299ZM257.935 301.12L260.412 301.967L261.259 299.49L258.782 298.643L257.935 301.12ZM255.896 307.081L255.049 309.558L257.526 310.405L258.373 307.928L255.896 307.081ZM241.798 302.26L242.645 299.783L240.168 298.936L239.321 301.413L241.798 302.26ZM239.177 309.925L236.7 309.078L235.853 311.555L238.33 312.402L239.177 309.925ZM254.411 315.134L256.888 315.981L257.735 313.504L255.258 312.657L254.411 315.134ZM252.373 321.095L251.526 323.572L254.003 324.419L254.85 321.942L252.373 321.095ZM230.894 313.751L228.417 312.904L227.57 315.381L230.047 316.228L230.894 313.751ZM241.37 283.11L262.282 290.26L263.976 285.306L243.064 278.156L241.37 283.11ZM260.652 286.936L258.614 292.897L263.568 294.591L265.606 288.63L260.652 286.936ZM261.938 291.267L247.271 286.252L245.577 291.207L260.244 296.221L261.938 291.267ZM243.947 287.883L241.359 295.452L246.313 297.146L248.901 289.576L243.947 287.883ZM242.989 298.776L257.088 303.597L258.782 298.643L244.683 293.822L242.989 298.776ZM255.458 300.273L253.419 306.234L258.373 307.928L260.412 301.967L255.458 300.273ZM256.743 304.604L242.645 299.783L240.951 304.737L255.049 309.558L256.743 304.604ZM239.321 301.413L236.7 309.078L241.654 310.772L244.275 303.107L239.321 301.413ZM238.33 312.402L253.564 317.611L255.258 312.657L240.024 307.448L238.33 312.402ZM251.934 314.287L249.896 320.248L254.85 321.942L256.888 315.981L251.934 314.287ZM253.22 318.618L231.741 311.274L230.047 316.228L251.526 323.572L253.22 318.618ZM233.371 314.598L244.694 281.48L239.74 279.786L228.417 312.904L233.371 314.598ZM302.979 319.692L303.826 317.215L301.349 316.368L300.502 318.845L302.979 319.692ZM317.172 324.545L319.649 325.392L320.496 322.915L318.019 322.068L317.172 324.545ZM311.446 341.293L310.599 343.77L313.076 344.617L313.923 342.14L311.446 341.293ZM305.768 339.352L303.291 338.505L302.444 340.982L304.921 341.829L305.768 339.352ZM307.03 335.662L309.507 336.509L310.354 334.032L307.877 333.185L307.03 335.662ZM306.178 335.371L307.025 332.894L305.196 332.268L304.06 333.833L306.178 335.371ZM302.935 337.749L303.766 340.231L303.789 340.224L303.812 340.215L302.935 337.749ZM293.721 335.022L295.476 333.078L293.721 335.022ZM291.125 331.333L288.695 332.308L288.702 332.325L288.709 332.341L291.125 331.333ZM290.23 326.377L287.613 326.372L287.613 326.379L287.613 326.387L290.23 326.377ZM296.862 307.138L294.843 305.471L294.834 305.481L294.826 305.492L296.862 307.138ZM300.856 303.801L299.671 301.467L299.654 301.475L299.637 301.484L300.856 303.801ZM305.657 302.589L305.733 305.205L305.757 305.205L305.781 305.203L305.657 302.589ZM315.718 306.082L313.968 308.029L313.986 308.045L314.004 308.061L315.718 306.082ZM318.629 309.93L316.246 311.013L316.253 311.031L316.261 311.048L318.629 309.93ZM319.684 314.571L317.067 314.618L317.067 314.627L317.067 314.636L319.684 314.571ZM318.693 320.098L317.846 322.575L320.323 323.422L321.17 320.945L318.693 320.098ZM312.448 317.963L309.971 317.116L309.124 319.593L311.601 320.44L312.448 317.963ZM312.617 312.367L310.25 313.483L310.267 313.519L310.285 313.555L312.617 312.367ZM303.879 309.643L305.063 311.977L305.079 311.969L305.094 311.961L303.879 309.643ZM306.047 331.891L304.857 329.559L304.856 329.56L306.047 331.891ZM308.889 328.371L311.366 329.218L312.213 326.741L309.736 325.894L308.889 328.371ZM300.941 325.653L298.464 324.806L297.617 327.283L300.094 328.13L300.941 325.653ZM302.132 322.169L316.325 327.022L318.019 322.068L303.826 317.215L302.132 322.169ZM314.695 323.698L308.969 340.446L313.923 342.14L319.649 325.392L314.695 323.698ZM312.293 338.816L306.615 336.875L304.921 341.829L310.599 343.77L312.293 338.816ZM308.245 340.199L309.507 336.509L304.553 334.815L303.291 338.505L308.245 340.199ZM307.877 333.185L307.025 332.894L305.332 337.848L306.183 338.139L307.877 333.185ZM304.06 333.833C303.592 334.478 302.957 334.963 302.057 335.282L303.812 340.215C305.64 339.565 307.167 338.465 308.297 336.909L304.06 333.833ZM302.103 335.267C301.533 335.458 300.434 335.501 298.535 334.852L296.841 339.806C299.232 340.623 301.631 340.947 303.766 340.231L302.103 335.267ZM298.535 334.852C297.339 334.443 296.33 333.85 295.476 333.078L291.967 336.965C293.374 338.235 295.009 339.18 296.841 339.806L298.535 334.852ZM295.476 333.078C294.639 332.323 293.996 331.415 293.541 330.325L288.709 332.341C289.455 334.128 290.543 335.679 291.967 336.965L295.476 333.078ZM293.555 330.359C293.106 329.24 292.854 327.923 292.848 326.367L287.613 326.387C287.621 328.5 287.965 330.487 288.695 332.308L293.555 330.359ZM292.848 326.383C292.851 324.865 293.161 323.116 293.846 321.114L288.892 319.42C288.066 321.834 287.617 324.158 287.613 326.372L292.848 326.383ZM293.846 321.114L296.499 313.355L291.544 311.661L288.892 319.42L293.846 321.114ZM296.499 313.355C297.155 311.436 297.968 309.933 298.898 308.783L294.826 305.492C293.435 307.213 292.355 309.29 291.544 311.661L296.499 313.355ZM298.88 308.805C299.893 307.578 300.963 306.703 302.075 306.117L299.637 301.484C297.828 302.436 296.235 303.786 294.843 305.471L298.88 308.805ZM302.042 306.135C303.182 305.555 304.403 305.244 305.733 305.205L305.58 299.972C303.494 300.033 301.514 300.53 299.671 301.467L302.042 306.135ZM305.781 305.203C307.132 305.139 308.576 305.35 310.132 305.881L311.826 300.927C309.723 300.208 307.619 299.875 305.532 299.974L305.781 305.203ZM310.132 305.881C311.748 306.434 313.005 307.164 313.968 308.029L317.467 304.134C315.896 302.723 313.994 301.669 311.826 300.927L310.132 305.881ZM314.004 308.061C315.012 308.933 315.747 309.916 316.246 311.013L321.012 308.847C320.184 307.026 318.978 305.442 317.431 304.102L314.004 308.061ZM316.261 311.048C316.769 312.122 317.043 313.302 317.067 314.618L322.302 314.525C322.266 312.51 321.837 310.595 320.996 308.813L316.261 311.048ZM317.067 314.636C317.099 315.936 316.889 317.281 316.41 318.683L321.364 320.377C322.028 318.436 322.349 316.475 322.301 314.507L317.067 314.636ZM316.41 318.683L316.216 319.251L321.17 320.945L321.364 320.377L316.41 318.683ZM319.54 317.621L313.295 315.486L311.601 320.44L317.846 322.575L319.54 317.621ZM314.925 318.81L315.119 318.242L310.165 316.548L309.971 317.116L314.925 318.81ZM315.119 318.242C315.94 315.84 316.072 313.38 314.95 311.178L310.285 313.555C310.554 314.084 310.702 314.976 310.165 316.548L315.119 318.242ZM314.985 311.25C313.95 309.055 312.024 307.653 309.693 306.856L307.999 311.81C309.39 312.286 309.978 312.906 310.25 313.483L314.985 311.25ZM309.693 306.856C307.299 306.038 304.893 306.155 302.663 307.324L305.094 311.961C305.955 311.51 306.86 311.421 307.999 311.81L309.693 306.856ZM302.694 307.308C300.228 308.56 298.675 311.206 297.628 314.269L302.582 315.963C303.497 313.286 304.46 312.283 305.063 311.977L302.694 307.308ZM297.628 314.269L295.234 321.271L300.188 322.965L302.582 315.963L297.628 314.269ZM295.234 321.271C294.267 324.099 293.95 326.873 294.851 329.308C295.798 331.868 297.875 333.502 300.488 334.395L302.182 329.441C300.631 328.911 300.023 328.199 299.762 327.492C299.454 326.661 299.407 325.247 300.188 322.965L295.234 321.271ZM300.488 334.395C302.766 335.174 305.122 335.304 307.238 334.222L304.856 329.56C304.412 329.787 303.626 329.934 302.182 329.441L300.488 334.395ZM307.237 334.223C309.278 333.181 310.619 331.403 311.366 329.218L306.412 327.524C306.016 328.683 305.462 329.251 304.857 329.559L307.237 334.223ZM309.736 325.894L301.788 323.176L300.094 328.13L308.042 330.848L309.736 325.894ZM303.418 326.5L305.456 320.539L300.502 318.845L298.464 324.806L303.418 326.5ZM336.454 341.918L339.057 342.196L339.279 340.117L337.301 339.441L336.454 341.918ZM325.194 338.068L326.041 335.591L324.062 334.914L322.965 336.694L325.194 338.068ZM321.159 344.614L320.312 347.091L322.29 347.768L323.387 345.988L321.159 344.614ZM314.63 342.382L312.417 340.983L310.645 343.786L313.783 344.859L314.63 342.382ZM333.854 311.966L334.701 309.489L332.746 308.82L331.642 310.567L333.854 311.966ZM345.588 315.978L348.193 316.227L348.39 314.169L346.434 313.501L345.588 315.978ZM342.165 351.797L341.318 354.274L344.455 355.347L344.771 352.046L342.165 351.797ZM335.636 349.564L333.033 349.286L332.81 351.365L334.789 352.041L335.636 349.564ZM328.557 332.56L326.331 331.181L324.601 333.974L327.71 335.037L328.557 332.56ZM337.12 335.488L336.273 337.965L339.373 339.025L339.723 335.767L337.12 335.488ZM339.079 317.24L341.682 317.519L341.905 315.44L339.926 314.763L339.079 317.24ZM338.228 316.949L339.074 314.472L337.101 313.797L336.002 315.57L338.228 316.949ZM337.301 339.441L326.041 335.591L324.347 340.545L335.607 344.395L337.301 339.441ZM322.965 336.694L318.93 343.241L323.387 345.988L327.422 339.441L322.965 336.694ZM322.006 342.137L315.477 339.905L313.783 344.859L320.312 347.091L322.006 342.137ZM316.843 343.781L336.067 313.365L331.642 310.567L312.417 340.983L316.843 343.781ZM333.007 314.443L344.741 318.455L346.434 313.501L334.701 309.489L333.007 314.443ZM342.982 315.729L339.559 351.548L344.771 352.046L348.193 316.227L342.982 315.729ZM343.012 349.32L336.483 347.087L334.789 352.041L341.318 354.274L343.012 349.32ZM338.239 349.843L339.057 342.196L333.851 341.639L333.033 349.286L338.239 349.843ZM327.71 335.037L336.273 337.965L337.967 333.01L329.404 330.082L327.71 335.037ZM339.723 335.767L341.682 317.519L336.476 316.96L334.517 335.208L339.723 335.767ZM339.926 314.763L339.074 314.472L337.381 319.426L338.232 319.717L339.926 314.763ZM336.002 315.57L326.331 331.181L330.782 333.938L340.453 318.327L336.002 315.57ZM355.253 319.283L356.1 316.806L353.623 315.959L352.776 318.436L355.253 319.283ZM366.229 323.036L368.764 323.692L369.372 321.344L367.076 320.559L366.229 323.036ZM359.613 348.568L362.09 349.415L362.122 349.321L362.147 349.225L359.613 348.568ZM357.963 353.394L355.486 352.547L354.639 355.024L357.116 355.871L357.963 353.394ZM359.098 353.782L358.251 356.259L360.728 357.106L361.575 354.629L359.098 353.782ZM360.748 348.957L358.343 347.924L358.304 348.016L358.271 348.11L360.748 348.957ZM371.15 324.718L371.997 322.241L369.701 321.456L368.744 323.686L371.15 324.718ZM382.126 328.471L384.603 329.318L385.45 326.841L382.973 325.994L382.126 328.471ZM370.802 361.589L369.955 364.066L372.432 364.913L373.279 362.436L370.802 361.589ZM365.125 359.647L362.648 358.801L361.801 361.278L364.278 362.125L365.125 359.647ZM372.696 337.506L370.289 336.476L370.25 336.566L370.219 336.659L372.696 337.506ZM375.852 330.13L378.258 331.16L379.368 328.566L376.699 327.653L375.852 330.13ZM374.716 329.742L375.563 327.265L373.283 326.485L372.317 328.694L374.716 329.742ZM362.097 358.612L361.25 361.089L363.53 361.869L364.496 359.661L362.097 358.612ZM352.729 355.409L350.189 354.778L349.609 357.109L351.882 357.886L352.729 355.409ZM360.334 324.824L362.874 325.456L363.454 323.125L361.181 322.347L360.334 324.824ZM359.198 324.436L360.045 321.959L357.375 321.046L356.665 323.777L359.198 324.436ZM357.178 332.2L359.655 333.047L359.686 332.954L359.711 332.859L357.178 332.2ZM349.607 354.342L348.76 356.819L351.237 357.666L352.084 355.188L349.607 354.342ZM343.93 352.4L341.453 351.553L340.606 354.03L343.083 354.877L343.93 352.4ZM354.406 321.76L365.382 325.513L367.076 320.559L356.1 316.806L354.406 321.76ZM363.695 322.379L357.079 347.912L362.147 349.225L368.764 323.692L363.695 322.379ZM357.136 347.721L355.486 352.547L360.44 354.241L362.09 349.415L357.136 347.721ZM357.116 355.871L358.251 356.259L359.945 351.305L358.81 350.917L357.116 355.871ZM361.575 354.629L363.225 349.803L358.271 348.11L356.621 352.935L361.575 354.629ZM363.154 349.989L373.555 325.75L368.744 323.686L358.343 347.924L363.154 349.989ZM370.303 327.195L381.279 330.948L382.973 325.994L371.997 322.241L370.303 327.195ZM379.649 327.624L368.325 360.742L373.279 362.436L384.603 329.318L379.649 327.624ZM371.649 359.112L365.972 357.17L364.278 362.125L369.955 364.066L371.649 359.112ZM367.602 360.494L375.173 338.353L370.219 336.659L362.648 358.801L367.602 360.494ZM375.102 338.536L378.258 331.16L373.445 329.101L370.289 336.476L375.102 338.536ZM376.699 327.653L375.563 327.265L373.869 332.219L375.005 332.607L376.699 327.653ZM372.317 328.694L359.698 357.564L364.496 359.661L377.115 330.791L372.317 328.694ZM362.944 356.135L353.576 352.932L351.882 357.886L361.25 361.089L362.944 356.135ZM355.27 356.041L362.874 325.456L357.793 324.193L350.189 354.778L355.27 356.041ZM361.181 322.347L360.045 321.959L358.351 326.913L359.487 327.301L361.181 322.347ZM356.665 323.777L354.644 331.541L359.711 332.859L361.732 325.096L356.665 323.777ZM354.701 331.353L347.13 353.495L352.084 355.188L359.655 333.047L354.701 331.353ZM350.454 351.864L344.777 349.923L343.083 354.877L348.76 356.819L350.454 351.864ZM346.407 353.247L357.73 320.13L352.776 318.436L341.453 351.553L346.407 353.247ZM387.061 330.158L387.908 327.681L385.431 326.834L384.584 329.311L387.061 330.158ZM407.972 337.309L410.449 338.155L411.296 335.678L408.819 334.831L407.972 337.309ZM405.934 343.27L405.087 345.747L407.564 346.594L408.411 344.117L405.934 343.27ZM391.267 338.255L392.114 335.778L389.637 334.931L388.79 337.408L391.267 338.255ZM388.679 345.825L386.202 344.978L385.355 347.455L387.832 348.302L388.679 345.825ZM402.778 350.645L405.255 351.492L406.102 349.015L403.625 348.168L402.778 350.645ZM400.739 356.606L399.893 359.083L402.37 359.93L403.217 357.453L400.739 356.606ZM386.641 351.786L387.488 349.309L385.011 348.462L384.164 350.939L386.641 351.786ZM384.02 359.45L381.543 358.603L380.696 361.08L383.173 361.927L384.02 359.45ZM399.254 364.659L401.731 365.506L402.578 363.029L400.101 362.182L399.254 364.659ZM397.216 370.62L396.369 373.097L398.846 373.944L399.693 371.467L397.216 370.62ZM375.737 363.276L373.26 362.429L372.413 364.906L374.89 365.753L375.737 363.276ZM386.214 332.635L407.125 339.786L408.819 334.831L387.908 327.681L386.214 332.635ZM405.495 336.462L403.457 342.423L408.411 344.117L410.449 338.155L405.495 336.462ZM406.781 340.793L392.114 335.778L390.42 340.732L405.087 345.747L406.781 340.793ZM388.79 337.408L386.202 344.978L391.156 346.672L393.744 339.102L388.79 337.408ZM387.832 348.302L401.931 353.122L403.625 348.168L389.526 343.348L387.832 348.302ZM400.301 349.798L398.262 355.759L403.217 357.453L405.255 351.492L400.301 349.798ZM401.586 354.129L387.488 349.309L385.794 354.263L399.893 359.083L401.586 354.129ZM384.164 350.939L381.543 358.603L386.497 360.297L389.118 352.633L384.164 350.939ZM383.173 361.927L398.407 367.136L400.101 362.182L384.867 356.973L383.173 361.927ZM396.777 363.812L394.739 369.773L399.693 371.467L401.731 365.506L396.777 363.812ZM398.063 368.143L376.584 360.799L374.89 365.753L396.369 373.097L398.063 368.143ZM378.214 364.123L389.538 331.005L384.584 329.311L373.26 362.429L378.214 364.123ZM429.749 344.755L432.226 345.602L433.073 343.125L430.596 342.278L429.749 344.755ZM421.855 367.842L421.008 370.319L423.485 371.166L424.332 368.689L421.855 367.842ZM415.61 365.707L413.133 364.86L412.286 367.337L414.763 368.184L415.61 365.707ZM423.504 342.619L424.351 340.142L421.874 339.295L421.027 341.772L423.504 342.619ZM420.115 376.178L418.195 374.398L418.171 374.424L418.147 374.451L420.115 376.178ZM418.683 377.273L419.741 379.668L419.789 379.647L419.836 379.624L418.683 377.273ZM416.909 377.671L416.801 375.055L416.711 375.059L416.621 375.069L416.909 377.671ZM413.456 376.49L415.277 374.609L415.23 374.564L415.182 374.522L413.456 376.49ZM412.344 375.106L409.993 376.258L410.016 376.305L410.041 376.351L412.344 375.106ZM411.835 373.347L409.22 373.455L409.224 373.545L409.234 373.635L411.835 373.347ZM413.049 369.798L411.129 368.018L411.105 368.045L411.081 368.072L413.049 369.798ZM414.528 368.719L415.585 371.113L415.633 371.092L415.68 371.069L414.528 368.719ZM416.27 368.258L416.43 370.871L416.495 370.867L416.559 370.86L416.27 368.258ZM419.724 369.439L417.903 371.319L417.968 371.382L418.037 371.44L419.724 369.439ZM420.867 370.886L418.517 372.039L418.54 372.086L418.565 372.132L420.867 370.886ZM421.328 372.629L418.713 372.738L418.716 372.828L418.726 372.918L421.328 372.629ZM427.272 343.908L419.378 366.995L424.332 368.689L432.226 345.602L427.272 343.908ZM422.702 365.365L416.457 363.23L414.763 368.184L421.008 370.319L422.702 365.365ZM418.087 366.554L425.981 343.466L421.027 341.772L413.133 364.86L418.087 366.554ZM422.657 345.096L428.902 347.232L430.596 342.278L424.351 340.142L422.657 345.096ZM418.631 373.662C418.532 373.952 418.389 374.189 418.195 374.398L422.034 377.958C422.734 377.203 423.253 376.328 423.585 375.356L418.631 373.662ZM418.147 374.451C417.971 374.652 417.771 374.805 417.531 374.923L419.836 379.624C420.697 379.202 421.451 378.624 422.083 377.904L418.147 374.451ZM417.626 374.879C417.412 374.973 417.147 375.041 416.801 375.055L417.018 380.286C417.958 380.247 418.875 380.05 419.741 379.668L417.626 374.879ZM416.621 375.069C416.386 375.095 416.163 375.072 415.924 374.99L414.23 379.944C415.189 380.272 416.188 380.385 417.198 380.273L416.621 375.069ZM415.924 374.99C415.634 374.891 415.432 374.76 415.277 374.609L411.635 378.371C412.379 379.091 413.258 379.612 414.23 379.944L415.924 374.99ZM415.182 374.522C414.945 374.314 414.773 374.095 414.646 373.86L410.041 376.351C410.475 377.154 411.045 377.857 411.729 378.458L415.182 374.522ZM414.694 373.953C414.56 373.68 414.474 373.387 414.437 373.058L409.234 373.635C409.335 374.551 409.587 375.431 409.993 376.258L414.694 373.953ZM414.451 373.238C414.438 372.931 414.482 372.617 414.596 372.283L409.642 370.589C409.325 371.516 409.179 372.476 409.22 373.455L414.451 373.238ZM414.596 372.283C414.711 371.947 414.857 371.707 415.017 371.525L411.081 368.072C410.432 368.812 409.958 369.663 409.642 370.589L414.596 372.283ZM414.968 371.578C415.2 371.329 415.407 371.192 415.585 371.113L413.47 366.324C412.569 366.722 411.79 367.305 411.129 368.018L414.968 371.578ZM415.68 371.069C415.92 370.952 416.164 370.887 416.43 370.871L416.11 365.645C415.154 365.704 414.235 365.946 413.375 366.368L415.68 371.069ZM416.559 370.86C416.774 370.836 417.013 370.856 417.303 370.955L418.997 366.001C418.026 365.669 417.012 365.542 415.982 365.656L416.559 370.86ZM417.303 370.955C417.542 371.037 417.733 371.155 417.903 371.319L421.545 367.558C420.815 366.851 419.957 366.329 418.997 366.001L417.303 370.955ZM418.037 371.44C418.266 371.633 418.415 371.831 418.517 372.039L423.218 369.734C422.78 368.841 422.167 368.074 421.411 367.437L418.037 371.44ZM418.565 372.132C418.639 372.269 418.701 372.455 418.713 372.738L423.944 372.521C423.902 371.517 423.657 370.541 423.17 369.641L418.565 372.132ZM418.726 372.918C418.75 373.133 418.73 373.372 418.631 373.662L423.585 375.356C423.917 374.385 424.044 373.371 423.93 372.341L418.726 372.918Z" fill="#30EFD3"/>
<path d="M47.1648 245.803L47.4269 248.408L47.45 248.406L47.4731 248.403L47.1648 245.803ZM49.4641 244.952L47.9205 242.837L47.9092 242.845L47.898 242.854L49.4641 244.952ZM51.0909 243.13L53.3538 244.446L53.3587 244.438L53.3635 244.429L51.0909 243.13ZM52.476 239.852L53.323 237.375L50.846 236.528L49.999 239.005L52.476 239.852ZM58.7211 241.987L61.1981 242.834L62.0451 240.357L59.568 239.51L58.7211 241.987ZM52.1853 250.902L50.9977 248.569L50.9972 248.569L52.1853 250.902ZM34.3042 244.471L36.6783 243.368L34.3042 244.471ZM39.7545 220.495L41.8276 222.093L41.8321 222.087L41.8366 222.082L39.7545 220.495ZM43.6705 217.078L44.8898 219.395L44.9057 219.386L44.9214 219.378L43.6705 217.078ZM48.4559 215.755L48.5801 218.37L48.6035 218.369L48.6268 218.367L48.4559 215.755ZM61.7457 222.941L59.3614 224.022L59.3698 224.041L59.3783 224.059L61.7457 222.941ZM62.7374 227.613L60.1197 227.593L60.1195 227.618L60.1198 227.642L62.7374 227.613ZM61.5035 233.85L60.6565 236.327L63.1335 237.174L63.9805 234.697L61.5035 233.85ZM55.2584 231.714L52.7814 230.867L51.9344 233.344L54.4115 234.191L55.2584 231.714ZM56.0746 228.4L58.6809 228.646L58.6809 228.646L56.0746 228.4ZM54.5762 223.819L52.6517 225.594L52.6808 225.625L52.7109 225.656L54.5762 223.819ZM49.0408 221.926L49.391 224.521L49.4335 224.515L49.4758 224.508L49.0408 221.926ZM46.5984 222.888L48.0554 225.063L48.0796 225.046L48.1035 225.03L46.5984 222.888ZM44.6541 224.865L42.4914 223.39L42.4736 223.416L42.4564 223.443L44.6541 224.865ZM39.8334 238.964L37.2268 238.722L37.2258 238.732L37.2249 238.743L39.8334 238.964ZM41.3929 243.83L39.5276 245.667L39.5727 245.712L39.62 245.756L41.3929 243.83ZM43.2066 247.798C44.6166 248.28 46.0497 248.547 47.4269 248.408L46.9027 243.199C46.5287 243.236 45.8876 243.181 44.9005 242.844L43.2066 247.798ZM47.4731 248.403C48.7538 248.251 49.9787 247.834 51.0301 247.049L47.898 242.854C47.7196 242.987 47.4116 243.138 46.8565 243.204L47.4731 248.403ZM51.0077 247.066C51.9702 246.363 52.7527 245.48 53.3538 244.446L48.8281 241.814C48.5746 242.249 48.2725 242.58 47.9205 242.837L51.0077 247.066ZM53.3635 244.429C53.8855 243.516 54.3181 242.556 54.6619 241.55L49.7078 239.856C49.4693 240.554 49.1725 241.211 48.8184 241.83L53.3635 244.429ZM54.6619 241.55L54.9531 240.699L49.999 239.005L49.7078 239.856L54.6619 241.55ZM51.6291 242.329L57.8741 244.464L59.568 239.51L53.323 237.375L51.6291 242.329ZM56.244 241.14L55.9528 241.992L60.9069 243.686L61.1981 242.834L56.244 241.14ZM55.9528 241.992C54.7525 245.502 53.0319 247.533 50.9977 248.569L53.3729 253.235C56.9687 251.404 59.4112 248.06 60.9069 243.686L55.9528 241.992ZM50.9972 248.569C49.0472 249.562 46.4674 249.721 42.9593 248.521L41.2654 253.475C45.6425 254.972 49.778 255.066 53.3734 253.235L50.9972 248.569ZM42.9593 248.521C39.7133 247.411 37.7426 245.659 36.6783 243.368L31.9301 245.574C33.7069 249.398 36.9417 251.997 41.2654 253.475L42.9593 248.521ZM36.6783 243.368C35.6365 241.126 35.5388 238.134 36.9151 234.108L31.9611 232.414C30.3178 237.22 30.1308 241.701 31.9301 245.574L36.6783 243.368ZM36.9151 234.108L39.4387 226.728L34.4846 225.034L31.9611 232.414L36.9151 234.108ZM39.4387 226.728C40.0863 224.834 40.8937 223.304 41.8276 222.093L37.6814 218.896C36.3367 220.64 35.2821 222.702 34.4846 225.034L39.4387 226.728ZM41.8366 222.082C42.7901 220.83 43.8134 219.961 44.8898 219.395L42.4512 214.761C40.6064 215.732 39.019 217.141 37.6724 218.908L41.8366 222.082ZM44.9214 219.378C46.0361 218.771 47.2446 218.433 48.5801 218.37L48.3318 213.14C46.2295 213.24 44.2477 213.784 42.4197 214.778L44.9214 219.378ZM48.6268 218.367C49.9626 218.28 51.4268 218.481 53.0421 219.033L54.736 214.079C52.5663 213.337 50.4085 213.004 48.285 213.143L48.6268 218.367ZM53.0421 219.033C54.761 219.621 56.1067 220.36 57.1392 221.209L60.4648 217.165C58.8577 215.843 56.9281 214.828 54.736 214.079L53.0421 219.033ZM57.1392 221.209C58.1805 222.065 58.8999 223.004 59.3614 224.022L64.13 221.86C63.3063 220.044 62.0632 218.479 60.4648 217.165L57.1392 221.209ZM59.3783 224.059C59.8734 225.108 60.1299 226.273 60.1197 227.593L65.3552 227.634C65.371 225.581 64.9663 223.632 64.1131 221.824L59.3783 224.059ZM60.1198 227.642C60.1345 228.994 59.8851 230.491 59.3176 232.151L64.2717 233.845C64.9983 231.72 65.3774 229.628 65.3551 227.585L60.1198 227.642ZM59.3176 232.151L59.0264 233.003L63.9805 234.697L64.2717 233.845L59.3176 232.151ZM62.3504 231.373L56.1054 229.237L54.4115 234.191L60.6565 236.327L62.3504 231.373ZM57.7355 232.561L58.0267 231.71L53.0726 230.016L52.7814 230.867L57.7355 232.561ZM58.0267 231.71C58.3647 230.721 58.5818 229.698 58.6809 228.646L53.4683 228.155C53.4067 228.809 53.2737 229.427 53.0726 230.016L58.0267 231.71ZM58.6809 228.646C58.7904 227.483 58.6931 226.335 58.3713 225.221L53.3414 226.674C53.4713 227.124 53.5195 227.611 53.4683 228.155L58.6809 228.646ZM58.3713 225.221C58.0129 223.98 57.3436 222.898 56.4415 221.982L52.7109 225.656C53.0638 226.014 53.248 226.351 53.3414 226.674L58.3713 225.221ZM56.5007 222.044C55.5095 220.969 54.2154 220.242 52.7948 219.756L51.1009 224.71C51.9512 225.001 52.4093 225.331 52.6517 225.594L56.5007 222.044ZM52.7948 219.756C51.4275 219.289 50.0134 219.108 48.6057 219.345L49.4758 224.508C49.8626 224.442 50.3865 224.466 51.1009 224.71L52.7948 219.756ZM48.6906 219.332C47.3826 219.508 46.1734 219.987 45.0932 220.746L48.1035 225.03C48.5071 224.746 48.9262 224.583 49.391 224.521L48.6906 219.332ZM45.1413 220.713C44.0965 221.413 43.2188 222.323 42.4914 223.39L46.8167 226.34C47.2195 225.75 47.638 225.342 48.0554 225.063L45.1413 220.713ZM42.4564 223.443C41.8091 224.443 41.2899 225.531 40.8914 226.696L45.8455 228.39C46.1157 227.6 46.4535 226.903 46.8517 226.287L42.4564 223.443ZM40.8914 226.696L38.0443 235.023L42.9984 236.717L45.8455 228.39L40.8914 226.696ZM38.0443 235.023C37.6198 236.264 37.3403 237.499 37.2268 238.722L42.44 239.206C42.5104 238.448 42.6896 237.62 42.9984 236.717L38.0443 235.023ZM37.2249 238.743C37.1193 239.99 37.2223 241.214 37.5736 242.388L42.5895 240.887C42.4476 240.413 42.3852 239.855 42.4419 239.185L37.2249 238.743ZM37.5736 242.388C37.9476 243.638 38.6127 244.738 39.5276 245.667L43.2582 241.993C42.9179 241.648 42.7088 241.286 42.5895 240.887L37.5736 242.388ZM39.62 245.756C40.6209 246.677 41.8521 247.335 43.2066 247.798L44.9005 242.844C44.0472 242.552 43.5046 242.216 43.1657 241.904L39.62 245.756ZM72.5607 226.903L71.3112 224.603L71.3029 224.608L71.2945 224.612L72.5607 226.903ZM90.4915 233.034L88.0876 234.071L88.0913 234.079L88.0952 234.088L90.4915 233.034ZM81.109 260.475L79.8907 258.158L79.8822 258.162L79.8738 258.167L81.109 260.475ZM63.1782 254.344L60.7884 255.412L60.7923 255.421L60.7963 255.43L63.1782 254.344ZM75.9442 255.644L76.2063 258.249L76.2505 258.244L76.2944 258.238L75.9442 255.644ZM78.3231 254.713L79.8465 256.842L79.8465 256.842L78.3231 254.713ZM80.1255 252.688L82.3796 254.019L80.1255 252.688ZM84.8989 238.573L87.5055 238.815L84.8989 238.573ZM84.6669 235.851L87.1748 235.101L87.1748 235.101L84.6669 235.851ZM83.3556 233.659L81.4311 235.434L81.4602 235.465L81.4903 235.496L83.3556 233.659ZM77.8675 231.783L78.2177 234.377L78.2602 234.371L78.3026 234.364L77.8675 231.783ZM75.4886 232.713L73.9652 230.584L73.9652 230.584L75.4886 232.713ZM73.6389 234.723L71.4297 233.318L73.6389 234.723ZM68.7709 248.805L66.1736 248.478L68.7709 248.805ZM68.9556 251.51L71.4635 250.76L71.4635 250.76L68.9556 251.51ZM70.2669 253.703L68.4016 255.539L68.4327 255.571L68.4649 255.602L70.2669 253.703ZM68.4073 236.633C69.7371 232.744 71.6136 230.418 73.8269 229.195L71.2945 224.612C67.6007 226.653 65.0569 230.249 63.4533 234.939L68.4073 236.633ZM73.8102 229.204C76.0316 227.997 78.6512 227.789 81.9161 228.906L83.61 223.952C79.2421 222.458 75.0601 222.567 71.3112 224.603L73.8102 229.204ZM81.9161 228.906C85.182 230.022 87.101 231.782 88.0876 234.071L92.8955 231.998C91.2102 228.089 87.9769 225.445 83.61 223.952L81.9161 228.906ZM88.0952 234.088C89.1202 236.419 89.1924 239.406 87.8656 243.286L92.8197 244.98C94.4264 240.281 94.5978 235.869 92.8879 231.981L88.0952 234.088ZM87.8656 243.286L85.3421 250.667L90.2962 252.361L92.8197 244.98L87.8656 243.286ZM85.3421 250.667C83.9628 254.701 82.063 257.015 79.8907 258.158L82.3274 262.792C86.0822 260.817 88.6558 257.158 90.2962 252.361L85.3421 250.667ZM79.8738 258.167C77.716 259.321 75.1202 259.518 71.8334 258.394L70.1394 263.348C74.4854 264.834 78.6381 264.766 82.3443 262.783L79.8738 258.167ZM71.8334 258.394C68.5478 257.27 66.5905 255.518 65.5602 253.258L60.7963 255.43C62.544 259.263 65.7922 261.862 70.1394 263.348L71.8334 258.394ZM65.568 253.275C64.5733 251.051 64.5015 248.056 65.8838 244.013L60.9297 242.319C59.2923 247.108 59.0682 251.565 60.7884 255.412L65.568 253.275ZM65.8838 244.013L68.4073 236.633L63.4533 234.939L60.9297 242.319L65.8838 244.013ZM72.0806 257.671C73.4502 258.139 74.846 258.385 76.2063 258.249L75.6821 253.039C75.2911 253.078 74.676 253.025 73.7746 252.717L72.0806 257.671ZM76.2944 258.238C77.5865 258.064 78.7857 257.601 79.8465 256.842L76.7998 252.585C76.4615 252.827 76.0746 252.985 75.594 253.05L76.2944 258.238ZM79.8465 256.842C80.8832 256.101 81.7194 255.137 82.3796 254.019L77.8714 251.356C77.5276 251.939 77.1623 252.325 76.7998 252.585L79.8465 256.842ZM82.3796 254.019C82.9868 252.991 83.4967 251.847 83.9217 250.604L78.9676 248.91C78.6377 249.875 78.2682 250.685 77.8714 251.356L82.3796 254.019ZM83.9217 250.604L86.7041 242.466L81.75 240.772L78.9676 248.91L83.9217 250.604ZM86.7041 242.466C87.12 241.25 87.3925 240.032 87.5055 238.815L82.2922 238.331C82.2213 239.094 82.046 239.907 81.75 240.772L86.7041 242.466ZM87.5055 238.815C87.6237 237.542 87.5314 236.293 87.1748 235.101L82.1589 236.602C82.2955 237.058 82.358 237.623 82.2922 238.331L87.5055 238.815ZM87.1748 235.101C86.8008 233.851 86.1357 232.752 85.2209 231.822L81.4903 235.496C81.8306 235.842 82.0396 236.203 82.1589 236.602L87.1748 235.101ZM85.2801 231.885C84.3042 230.826 83.0536 230.102 81.6688 229.629L79.9749 234.583C80.7348 234.843 81.1734 235.154 81.4311 235.434L85.2801 231.885ZM81.6688 229.629C80.284 229.155 78.852 228.962 77.4325 229.201L78.3026 234.364C78.6773 234.301 79.2149 234.323 79.9749 234.583L81.6688 229.629ZM77.5173 229.188C76.2252 229.363 75.026 229.825 73.9652 230.584L77.0119 234.842C77.3502 234.6 77.7371 234.442 78.2177 234.377L77.5173 229.188ZM73.9652 230.584C72.9536 231.308 72.1156 232.24 71.4297 233.318L75.848 236.127C76.2293 235.528 76.6244 235.119 77.0119 234.842L73.9652 230.584ZM71.4297 233.318C70.7741 234.349 70.2435 235.48 69.8277 236.696L74.7818 238.39C75.0777 237.524 75.4365 236.775 75.848 236.127L71.4297 233.318ZM69.8277 236.696L67.0453 244.833L71.9994 246.527L74.7818 238.39L69.8277 236.696ZM67.0453 244.833C66.6203 246.076 66.323 247.293 66.1736 248.478L71.3682 249.133C71.4658 248.359 71.6695 247.492 71.9994 246.527L67.0453 244.833ZM66.1736 248.478C66.0112 249.766 66.0822 251.04 66.4477 252.261L71.4635 250.76C71.3357 250.333 71.2836 249.804 71.3682 249.133L66.1736 248.478ZM66.4477 252.261C66.8217 253.511 67.4868 254.61 68.4016 255.539L72.1322 251.866C71.7919 251.52 71.5828 251.158 71.4635 250.76L66.4477 252.261ZM68.4649 255.602C69.4566 256.543 70.7111 257.202 72.0806 257.671L73.7746 252.717C72.8732 252.408 72.3539 252.074 72.0689 251.804L68.4649 255.602ZM99.2044 232.79L100.051 230.313L97.5743 229.466L96.7273 231.943L99.2044 232.79ZM119.366 242.907L117.034 244.097L117.039 244.107L117.044 244.117L119.366 242.907ZM109.999 270.3L111.094 272.678L111.104 272.673L111.114 272.669L109.999 270.3ZM87.8807 265.908L85.4036 265.061L84.5567 267.538L87.0337 268.385L87.8807 265.908ZM89.9351 259.899L90.7821 257.422L88.3051 256.575L87.4581 259.052L89.9351 259.899ZM93.0576 260.967L92.2107 263.444L94.6877 264.291L95.5347 261.814L93.0576 260.967ZM100.289 239.819L102.766 240.666L103.613 238.189L101.136 237.342L100.289 239.819ZM97.1661 238.751L94.6891 237.904L93.8421 240.381L96.3192 241.228L97.1661 238.751ZM106.995 264.094L105.655 261.846L105.648 261.85L106.995 264.094ZM113.223 245.88L110.799 246.868L110.808 246.89L110.818 246.912L113.223 245.88ZM106.534 241.954L107.381 239.477L104.904 238.63L104.057 241.107L106.534 241.954ZM99.2865 263.15L96.8095 262.303L95.9625 264.78L98.4395 265.627L99.2865 263.15ZM98.3574 235.267L110.374 239.376L112.068 234.422L100.051 230.313L98.3574 235.267ZM110.374 239.376C114.138 240.663 116.135 242.337 117.034 244.097L121.697 241.717C119.938 238.27 116.505 235.939 112.068 234.422L110.374 239.376ZM117.044 244.117C117.926 245.809 118.089 248.285 116.844 251.926L121.798 253.62C123.292 249.25 123.485 245.149 121.687 241.697L117.044 244.117ZM116.844 251.926L113.544 261.578L118.498 263.272L121.798 253.62L116.844 251.926ZM113.544 261.578C112.3 265.215 110.647 267.102 108.885 267.931L111.114 272.669C114.641 271.009 117.003 267.645 118.498 263.272L113.544 261.578ZM108.904 267.922C107.124 268.742 104.518 268.83 100.745 267.54L99.0507 272.494C103.478 274.007 107.606 274.284 111.094 272.678L108.904 267.922ZM100.745 267.54L88.7277 263.431L87.0337 268.385L99.0507 272.494L100.745 267.54ZM90.3577 266.755L92.4122 260.746L87.4581 259.052L85.4036 265.061L90.3577 266.755ZM89.0882 262.376L92.2107 263.444L93.9046 258.49L90.7821 257.422L89.0882 262.376ZM95.5347 261.814L102.766 240.666L97.8116 238.972L90.5806 260.12L95.5347 261.814ZM101.136 237.342L98.0131 236.274L96.3192 241.228L99.4417 242.296L101.136 237.342ZM99.6432 239.598L101.681 233.637L96.7273 231.943L94.6891 237.904L99.6432 239.598ZM101.089 266.532C103.533 267.368 106.157 267.651 108.342 266.339L105.648 261.85C105.44 261.975 104.691 262.231 102.783 261.578L101.089 266.532ZM108.336 266.343C110.345 265.145 111.615 263.003 112.447 260.569L107.493 258.875C106.837 260.793 106.124 261.566 105.655 261.846L108.336 266.343ZM112.447 260.569L115.553 251.485L110.599 249.791L107.493 258.875L112.447 260.569ZM115.553 251.485C116.319 249.244 116.526 246.939 115.629 244.848L110.818 246.912C111.019 247.38 111.127 248.247 110.599 249.791L115.553 251.485ZM115.648 244.892C114.7 242.566 112.455 241.212 110.03 240.383L108.336 245.337C110.264 245.996 110.713 246.655 110.799 246.868L115.648 244.892ZM110.03 240.383L107.381 239.477L105.687 244.431L108.336 245.337L110.03 240.383ZM104.057 241.107L96.8095 262.303L101.764 263.997L109.011 242.801L104.057 241.107ZM98.4395 265.627L101.089 266.532L102.783 261.578L100.133 260.673L98.4395 265.627ZM129.876 243.278L130.723 240.801L128.246 239.954L127.399 242.431L129.876 243.278ZM150.788 250.428L153.265 251.275L154.112 248.798L151.635 247.951L150.788 250.428ZM148.749 256.389L147.902 258.866L150.379 259.713L151.226 257.236L148.749 256.389ZM134.083 251.374L134.93 248.897L132.453 248.05L131.606 250.527L134.083 251.374ZM131.495 258.944L129.018 258.097L128.171 260.574L130.648 261.421L131.495 258.944ZM145.593 263.764L148.07 264.611L148.917 262.134L146.44 261.287L145.593 263.764ZM143.555 269.726L142.708 272.203L145.185 273.05L146.032 270.573L143.555 269.726ZM129.456 264.905L130.303 262.428L127.826 261.581L126.979 264.058L129.456 264.905ZM126.836 272.569L124.359 271.722L123.512 274.199L125.989 275.046L126.836 272.569ZM142.07 277.778L144.547 278.625L145.394 276.148L142.917 275.301L142.07 277.778ZM140.032 283.739L139.185 286.216L141.662 287.063L142.509 284.586L140.032 283.739ZM118.553 276.395L116.075 275.548L115.229 278.025L117.706 278.872L118.553 276.395ZM129.029 245.755L149.941 252.905L151.635 247.951L130.723 240.801L129.029 245.755ZM148.311 249.581L146.272 255.542L151.226 257.236L153.265 251.275L148.311 249.581ZM149.596 253.912L134.93 248.897L133.236 253.851L147.902 258.866L149.596 253.912ZM131.606 250.527L129.018 258.097L133.972 259.791L136.56 252.221L131.606 250.527ZM130.648 261.421L144.746 266.242L146.44 261.287L132.342 256.467L130.648 261.421ZM143.116 262.917L141.078 268.879L146.032 270.573L148.07 264.611L143.116 262.917ZM144.402 267.249L130.303 262.428L128.609 267.382L142.708 272.203L144.402 267.249ZM126.979 264.058L124.359 271.722L129.313 273.416L131.933 265.752L126.979 264.058ZM125.989 275.046L141.223 280.255L142.917 275.301L127.683 270.092L125.989 275.046ZM139.593 276.931L137.555 282.892L142.509 284.586L144.547 278.625L139.593 276.931ZM140.879 281.262L119.399 273.918L117.706 278.872L139.185 286.216L140.879 281.262ZM121.03 277.242L132.353 244.125L127.399 242.431L116.075 275.548L121.03 277.242Z" fill="#FF39A6"/>
</svg>
