<svg width="696" height="51" viewBox="0 0 696 51" fill="none" xmlns="http://www.w3.org/2000/svg">
<path d="M33.2189 4.6411L35.8367 4.63564L35.8313 2.01781L33.2135 2.02326L33.2189 4.6411ZM29.4597 43.409L27.5497 41.6188L27.5427 41.6263L27.5357 41.6339L29.4597 43.409ZM6.83978 43.4562L4.92315 45.2393L4.93015 45.2469L4.93722 45.2543L6.83978 43.4562ZM2.97898 4.70415L2.97352 2.08631L0.355688 2.09177L0.361146 4.7096L2.97898 4.70415ZM10.899 4.68763L13.5168 4.68217L13.5113 2.06434L10.8935 2.0698L10.899 4.68763ZM12.7084 37.9839L10.6961 39.6584L12.7084 37.9839ZM23.6284 37.9612L21.6091 36.2951L23.6284 37.9612ZM25.2989 4.65761L25.2935 2.03978L22.6756 2.04523L22.6811 4.66307L25.2989 4.65761ZM30.6011 4.64656L30.6584 32.1265L35.894 32.1156L35.8367 4.63564L30.6011 4.64656ZM30.6584 32.1265C30.6674 36.4567 29.529 39.507 27.5497 41.6188L31.3698 45.1992C34.4991 41.8604 35.905 37.3853 35.894 32.1156L30.6584 32.1265ZM27.5357 41.6339C25.6703 43.6557 22.7184 44.8852 18.1828 44.8947L18.1937 50.1304C23.6581 50.119 28.2205 48.6128 31.3838 45.1842L27.5357 41.6339ZM18.1828 44.8947C13.6501 44.9041 10.6609 43.688 8.74235 41.658L4.93722 45.2543C8.14996 48.6536 12.7265 50.1418 18.1937 50.1304L18.1828 44.8947ZM8.75641 41.673C6.80025 39.5704 5.66316 36.5194 5.65411 32.1786L0.418439 32.1895C0.429404 37.4488 1.82798 41.9125 4.92315 45.2393L8.75641 41.673ZM5.65411 32.1786L5.59681 4.69869L0.361146 4.7096L0.418439 32.1895L5.65411 32.1786ZM2.98444 7.32198L10.9044 7.30547L10.8935 2.0698L2.97352 2.08631L2.98444 7.32198ZM8.28113 4.69309L8.33842 32.173L13.5741 32.1621L13.5168 4.68217L8.28113 4.69309ZM8.33842 32.173C8.3444 35.0415 9.02167 37.6461 10.6961 39.6584L14.7207 36.3095C14.0693 35.5266 13.5784 34.2537 13.5741 32.1621L8.33842 32.173ZM10.6961 39.6584C12.522 41.8527 15.2186 42.6966 18.1782 42.6904L18.1673 37.4547C16.1669 37.4589 15.2206 36.9103 14.7207 36.3095L10.6961 39.6584ZM18.1782 42.6904C21.1378 42.6842 23.8309 41.8292 25.6476 39.6272L21.6091 36.2951C21.1117 36.898 20.1677 37.4505 18.1673 37.4547L18.1782 42.6904ZM25.6476 39.6272C27.3136 37.6079 27.98 35.0005 27.9741 32.1321L22.7384 32.143C22.7428 34.2346 22.2572 35.5096 21.6091 36.2951L25.6476 39.6272ZM27.9741 32.1321L27.9168 4.65215L22.6811 4.66307L22.7384 32.143L27.9741 32.1321ZM25.3044 7.27544L33.2244 7.25893L33.2135 2.02326L25.2935 2.03978L25.3044 7.27544ZM60.6164 42.6241L58.0209 42.9653L58.3209 45.2467L60.6219 45.2419L60.6164 42.6241ZM61.6964 42.6218L61.7019 45.2396L64.3197 45.2342L64.3143 42.6164L61.6964 42.6218ZM61.6171 4.58189L61.6117 1.96406L58.9938 1.96951L58.9993 4.58735L61.6171 4.58189ZM69.5371 4.56538L72.155 4.55992L72.1495 1.94209L69.5317 1.94754L69.5371 4.56538ZM69.6247 46.5653L69.6301 49.1831L72.248 49.1777L72.2425 46.5598L69.6247 46.5653ZM54.1447 46.5976L51.5492 46.9388L51.8491 49.2202L54.1502 49.2154L54.1447 46.5976ZM49.1454 8.5679L51.7409 8.2267L51.441 5.94527L49.14 5.95007L49.1454 8.5679ZM48.0654 8.57015L48.06 5.95232L45.4421 5.95778L45.4476 8.57561L48.0654 8.57015ZM48.1447 46.6101L48.1502 49.2279L50.768 49.2225L50.7626 46.6046L48.1447 46.6101ZM40.2247 46.6266L37.6069 46.632L37.6124 49.2499L40.2302 49.2444L40.2247 46.6266ZM40.1372 4.62667L40.1317 2.00884L37.5139 2.0143L37.5193 4.63213L40.1372 4.62667ZM55.6171 4.5944L58.2127 4.2532L57.9127 1.97177L55.6117 1.97657L55.6171 4.5944ZM60.6219 45.2419L61.7019 45.2396L61.691 40.004L60.611 40.0062L60.6219 45.2419ZM64.3143 42.6164L64.235 4.57643L58.9993 4.58735L59.0786 42.6273L64.3143 42.6164ZM61.6226 7.19972L69.5426 7.18321L69.5317 1.94754L61.6117 1.96406L61.6226 7.19972ZM66.9193 4.57084L67.0069 46.5707L72.2425 46.5598L72.155 4.55992L66.9193 4.57084ZM69.6192 43.9475L54.1393 43.9797L54.1502 49.2154L69.6301 49.1831L69.6192 43.9475ZM56.7402 46.2564L51.7409 8.2267L46.5499 8.9091L51.5492 46.9388L56.7402 46.2564ZM49.14 5.95007L48.06 5.95232L48.0709 11.188L49.1509 11.1857L49.14 5.95007ZM45.4476 8.57561L45.5269 46.6155L50.7626 46.6046L50.6833 8.5647L45.4476 8.57561ZM48.1393 43.9922L40.2193 44.0088L40.2302 49.2444L48.1502 49.2279L48.1393 43.9922ZM42.8426 46.6211L42.755 4.62122L37.5193 4.63213L37.6069 46.632L42.8426 46.6211ZM40.1426 7.24451L55.6226 7.21223L55.6117 1.97657L40.1317 2.00884L40.1426 7.24451ZM53.0216 4.9356L58.0209 42.9653L63.212 42.2829L58.2127 4.2532L53.0216 4.9356ZM78.1354 4.54745L78.1299 1.92962L75.5121 1.93508L75.5175 4.55291L78.1354 4.54745ZM86.0554 4.53094L88.6732 4.52548L88.6677 1.90765L86.0499 1.91311L86.0554 4.53094ZM86.1272 38.9709L83.5093 38.9763L83.5148 41.5942L86.1326 41.5887L86.1272 38.9709ZM105.207 38.9311L107.825 38.9256L107.82 36.3078L105.202 36.3133L105.207 38.9311ZM105.223 46.4911L105.228 49.1089L107.846 49.1034L107.841 46.4856L105.223 46.4911ZM78.2229 46.5474L75.6051 46.5528L75.6106 49.1707L78.2284 49.1652L78.2229 46.5474ZM78.1408 7.16528L86.0608 7.14877L86.0499 1.91311L78.1299 1.92962L78.1408 7.16528ZM83.4375 4.5364L83.5093 38.9763L88.745 38.9654L88.6732 4.52548L83.4375 4.5364ZM86.1326 41.5887L105.213 41.5489L105.202 36.3133L86.1217 36.353L86.1326 41.5887ZM102.589 38.9365L102.605 46.4965L107.841 46.4856L107.825 38.9256L102.589 38.9365ZM105.217 43.8732L78.2175 43.9295L78.2284 49.1652L105.228 49.1089L105.217 43.8732ZM80.8408 46.5419L80.7532 4.54199L75.5175 4.55291L75.6051 46.5528L80.8408 46.5419ZM114.274 4.47211L114.268 1.85427L111.65 1.85973L111.656 4.47756L114.274 4.47211ZM142.354 4.41356L144.971 4.4081L144.966 1.79027L142.348 1.79573L142.354 4.41356ZM142.369 11.9735L142.375 14.5914L144.993 14.5859L144.987 11.9681L142.369 11.9735ZM132.289 11.9946L132.284 9.37673L129.666 9.38219L129.671 12L132.289 11.9946ZM132.345 38.8745L129.728 38.88L129.733 41.4978L132.351 41.4923L132.345 38.8745ZM142.425 38.8535L145.043 38.848L145.038 36.2302L142.42 36.2357L142.425 38.8535ZM142.441 46.4135L142.447 49.0313L145.064 49.0259L145.059 46.408L142.441 46.4135ZM114.361 46.472L111.743 46.4775L111.749 49.0953L114.367 49.0899L114.361 46.472ZM114.345 38.912L114.34 36.2942L111.722 36.2997L111.728 38.9175L114.345 38.912ZM124.425 38.891L124.431 41.5089L127.049 41.5034L127.043 38.8856L124.425 38.891ZM124.369 12.0111L126.987 12.0056L126.982 9.38779L124.364 9.39324L124.369 12.0111ZM114.289 12.0321L111.672 12.0375L111.677 14.6554L114.295 14.6499L114.289 12.0321ZM114.279 7.08994L142.359 7.03139L142.348 1.79573L114.268 1.85427L114.279 7.08994ZM139.736 4.41902L139.751 11.979L144.987 11.9681L144.971 4.4081L139.736 4.41902ZM142.364 9.35572L132.284 9.37673L132.295 14.6124L142.375 14.5914L142.364 9.35572ZM129.671 12L129.728 38.88L134.963 38.869L134.907 11.9891L129.671 12ZM132.351 41.4923L142.431 41.4713L142.42 36.2357L132.34 36.2567L132.351 41.4923ZM139.807 38.8589L139.823 46.4189L145.059 46.408L145.043 38.848L139.807 38.8589ZM142.436 43.7956L114.356 43.8542L114.367 49.0899L142.447 49.0313L142.436 43.7956ZM116.979 46.4666L116.963 38.9066L111.728 38.9175L111.743 46.4775L116.979 46.4666ZM114.351 41.5299L124.431 41.5089L124.42 36.2732L114.34 36.2942L114.351 41.5299ZM127.043 38.8856L126.987 12.0056L121.751 12.0165L121.808 38.8965L127.043 38.8856ZM124.364 9.39324L114.284 9.41426L114.295 14.6499L124.375 14.6289L124.364 9.39324ZM116.907 12.0266L116.891 4.46665L111.656 4.47756L111.672 12.0375L116.907 12.0266ZM148.012 4.40176L148.006 1.78393L145.389 1.78939L145.394 4.40722L148.012 4.40176ZM161.932 4.37274L164.542 4.1688L164.353 1.74985L161.926 1.75491L161.932 4.37274ZM164.398 35.9277L167.015 35.9222L167.015 35.8228L167.007 35.7237L164.398 35.9277ZM164.41 42.0477L161.792 42.0531L161.798 44.671L164.416 44.6655L164.41 42.0477ZM165.85 42.0447L165.856 44.6625L168.474 44.657L168.468 42.0392L165.85 42.0447ZM165.838 35.9247L163.227 35.7316L163.22 35.8307L163.22 35.9301L165.838 35.9247ZM168.172 4.35973L168.166 1.7419L165.74 1.74696L165.561 4.16667L168.172 4.35973ZM182.092 4.33071L184.71 4.32525L184.704 1.70742L182.086 1.71288L182.092 4.33071ZM182.179 46.3306L182.185 48.9485L184.803 48.943L184.797 46.3252L182.179 46.3306ZM174.979 46.3456L172.361 46.3511L172.367 48.9689L174.985 48.9635L174.979 46.3456ZM174.921 18.2657L172.31 18.0753L172.303 18.1731L172.303 18.2712L174.921 18.2657ZM175.621 8.66421L178.232 8.85456L178.437 6.0405L175.615 6.04638L175.621 8.66421ZM174.181 8.66722L174.175 6.04938L171.765 6.05441L171.571 8.45663L174.181 8.66722ZM171.139 46.3536L171.145 48.9715L173.555 48.9665L173.749 46.5642L171.139 46.3536ZM159.259 46.3784L156.652 46.6081L156.862 49.0013L159.265 48.9962L159.259 46.3784ZM155.941 8.70525L158.549 8.47553L158.338 6.0824L155.935 6.08741L155.941 8.70525ZM154.501 8.70825L154.495 6.09041L151.674 6.0963L151.891 8.90948L154.501 8.70825ZM155.241 18.3067L157.859 18.3013L157.858 18.2032L157.851 18.1055L155.241 18.3067ZM155.299 46.3867L155.305 49.0045L157.923 48.999L157.917 46.3812L155.299 46.3867ZM148.099 46.4017L145.482 46.4071L145.487 49.025L148.105 49.0195L148.099 46.4017ZM148.017 7.0196L161.937 6.99058L161.926 1.75491L148.006 1.78393L148.017 7.0196ZM159.322 4.57669L161.788 36.1316L167.007 35.7237L164.542 4.1688L159.322 4.57669ZM161.78 35.9331L161.792 42.0531L167.028 42.0422L167.015 35.9222L161.78 35.9331ZM164.416 44.6655L165.856 44.6625L165.845 39.4268L164.405 39.4298L164.416 44.6655ZM168.468 42.0392L168.455 35.9192L163.22 35.9301L163.232 42.0501L168.468 42.0392ZM168.448 36.1177L170.782 4.55279L165.561 4.16667L163.227 35.7316L168.448 36.1177ZM168.177 6.97757L182.097 6.94854L182.086 1.71288L168.166 1.7419L168.177 6.97757ZM179.474 4.33617L179.561 46.3361L184.797 46.3252L184.71 4.32525L179.474 4.33617ZM182.174 43.7128L174.974 43.7278L174.985 48.9635L182.185 48.9485L182.174 43.7128ZM177.597 46.3402L177.539 18.2602L172.303 18.2712L172.361 46.3511L177.597 46.3402ZM177.532 18.456L178.232 8.85456L173.01 8.47387L172.31 18.0753L177.532 18.456ZM175.615 6.04638L174.175 6.04938L174.186 11.285L175.626 11.282L175.615 6.04638ZM171.571 8.45663L168.53 46.1431L173.749 46.5642L176.79 8.8778L171.571 8.45663ZM171.134 43.7358L159.254 43.7606L159.265 48.9962L171.145 48.9715L171.134 43.7358ZM161.867 46.1487L158.549 8.47553L153.333 8.93495L156.652 46.6081L161.867 46.1487ZM155.935 6.08741L154.495 6.09041L154.506 11.3261L155.946 11.3231L155.935 6.08741ZM151.891 8.90948L152.631 18.508L157.851 18.1055L157.111 8.50702L151.891 8.90948ZM152.623 18.3122L152.682 46.3921L157.917 46.3812L157.859 18.3013L152.623 18.3122ZM155.294 43.7688L148.094 43.7838L148.105 49.0195L155.305 49.0045L155.294 43.7688ZM150.717 46.3962L150.63 4.39631L145.394 4.40722L145.482 46.4071L150.717 46.3962ZM187.75 4.31891L187.745 1.70108L185.127 1.70654L185.132 4.32437L187.75 4.31891ZM215.83 4.26037L218.448 4.25491L218.442 1.63708L215.824 1.64254L215.83 4.26037ZM215.846 11.8204L215.851 14.4382L218.469 14.4327L218.464 11.8149L215.846 11.8204ZM205.766 11.8414L205.76 9.22354L203.142 9.229L203.148 11.8468L205.766 11.8414ZM205.822 38.7213L203.204 38.7268L203.209 41.3446L205.827 41.3391L205.822 38.7213ZM215.902 38.7003L218.52 38.6948L218.514 36.077L215.896 36.0825L215.902 38.7003ZM215.917 46.2603L215.923 48.8781L218.541 48.8727L218.535 46.2548L215.917 46.2603ZM187.838 46.3188L185.22 46.3243L185.225 48.9421L187.843 48.9367L187.838 46.3188ZM187.822 38.7588L187.816 36.141L185.199 36.1465L185.204 38.7643L187.822 38.7588ZM197.902 38.7378L197.907 41.3557L200.525 41.3502L200.52 38.7324L197.902 38.7378ZM197.846 11.8579L200.464 11.8524L200.458 9.23459L197.84 9.24005L197.846 11.8579ZM187.766 11.8789L185.148 11.8844L185.153 14.5022L187.771 14.4967L187.766 11.8789ZM187.755 6.93675L215.835 6.8782L215.824 1.64254L187.745 1.70108L187.755 6.93675ZM213.212 4.26583L213.228 11.8258L218.464 11.8149L218.448 4.25491L213.212 4.26583ZM215.84 9.20252L205.76 9.22354L205.771 14.4592L215.851 14.4382L215.84 9.20252ZM203.148 11.8468L203.204 38.7268L208.44 38.7159L208.384 11.8359L203.148 11.8468ZM205.827 41.3391L215.907 41.3181L215.896 36.0825L205.816 36.1035L205.827 41.3391ZM213.284 38.7058L213.3 46.2657L218.535 46.2548L218.52 38.6948L213.284 38.7058ZM215.912 43.6424L187.832 43.701L187.843 48.9367L215.923 48.8781L215.912 43.6424ZM190.455 46.3134L190.44 38.7534L185.204 38.7643L185.22 46.3243L190.455 46.3134ZM187.827 41.3767L197.907 41.3557L197.896 36.12L187.816 36.141L187.827 41.3767ZM200.52 38.7324L200.464 11.8524L195.228 11.8633L195.284 38.7433L200.52 38.7324ZM197.84 9.24005L187.76 9.26107L187.771 14.4967L197.851 14.4757L197.84 9.24005ZM190.384 11.8734L190.368 4.31346L185.132 4.32437L185.148 11.8844L190.384 11.8734ZM223.408 4.24457L223.403 1.62674L220.785 1.63219L220.79 4.25003L223.408 4.24457ZM253.648 4.18152L256.266 4.17606L256.261 1.55823L253.643 1.56369L253.648 4.18152ZM253.664 11.7415L253.669 14.3593L256.287 14.3539L256.282 11.7361L253.664 11.7415ZM242.504 11.7648L242.498 9.14694L239.881 9.1524L239.886 11.7702L242.504 11.7648ZM242.576 46.2047L242.581 48.8225L245.199 48.8171L245.194 46.1992L242.576 46.2047ZM234.656 46.2212L232.038 46.2267L232.043 48.8445L234.661 48.839L234.656 46.2212ZM234.584 11.7813L237.202 11.7758L237.196 9.158L234.578 9.16346L234.584 11.7813ZM223.424 11.8046L220.806 11.81L220.812 14.4278L223.429 14.4224L223.424 11.8046ZM223.414 6.8624L253.654 6.79936L253.643 1.56369L223.403 1.62674L223.414 6.8624ZM251.03 4.18698L251.046 11.747L256.282 11.7361L256.266 4.17606L251.03 4.18698ZM253.658 9.12368L242.498 9.14694L242.509 14.3826L253.669 14.3593L253.658 9.12368ZM239.886 11.7702L239.958 46.2102L245.194 46.1992L245.122 11.7593L239.886 11.7702ZM242.57 43.5869L234.65 43.6034L234.661 48.839L242.581 48.8225L242.57 43.5869ZM237.274 46.2158L237.202 11.7758L231.966 11.7867L232.038 46.2267L237.274 46.2158ZM234.578 9.16346L223.419 9.18672L223.429 14.4224L234.589 14.3991L234.578 9.16346ZM226.042 11.7991L226.026 4.23911L220.79 4.25003L220.806 11.81L226.042 11.7991ZM261.826 4.16447L261.821 1.54664L259.203 1.5521L259.209 4.16993L261.826 4.16447ZM288.346 4.10918L290.964 4.10372L290.959 1.48589L288.341 1.49135L288.346 4.10918ZM288.362 11.6692L288.368 14.287L290.985 14.2815L290.98 11.6637L288.362 11.6692ZM269.762 11.7079L269.757 9.09011L267.139 9.09557L267.144 11.7134L269.762 11.7079ZM269.782 21.3079L267.164 21.3134L267.17 23.9312L269.788 23.9258L269.782 21.3079ZM287.662 21.2706L290.28 21.2652L290.274 18.6474L287.657 18.6528L287.662 21.2706ZM287.678 28.8306L287.683 31.4485L290.301 31.443L290.296 28.8252L287.678 28.8306ZM269.798 28.8679L269.792 26.2501L267.175 26.2555L267.18 28.8734L269.798 28.8679ZM269.818 38.5879L267.2 38.5933L267.206 41.2112L269.824 41.2057L269.818 38.5879ZM289.138 38.5476L291.756 38.5421L291.751 35.9243L289.133 35.9298L289.138 38.5476ZM289.154 46.1076L289.159 48.7254L291.777 48.72L291.772 46.1021L289.154 46.1076ZM261.914 46.1644L259.296 46.1698L259.302 48.7877L261.919 48.7822L261.914 46.1644ZM261.832 6.7823L288.352 6.72701L288.341 1.49135L261.821 1.54664L261.832 6.7823ZM285.729 4.11464L285.744 11.6746L290.98 11.6637L290.964 4.10372L285.729 4.11464ZM288.357 9.05133L269.757 9.09011L269.768 14.3258L288.368 14.287L288.357 9.05133ZM267.144 11.7134L267.164 21.3134L272.4 21.3025L272.38 11.7025L267.144 11.7134ZM269.788 23.9258L287.668 23.8885L287.657 18.6528L269.777 18.6901L269.788 23.9258ZM285.044 21.2761L285.06 28.8361L290.296 28.8252L290.28 21.2652L285.044 21.2761ZM287.672 26.2128L269.792 26.2501L269.803 31.4857L287.683 31.4485L287.672 26.2128ZM267.18 28.8734L267.2 38.5933L272.436 38.5824L272.416 28.8624L267.18 28.8734ZM269.824 41.2057L289.144 41.1654L289.133 35.9298L269.813 35.9701L269.824 41.2057ZM286.52 38.5531L286.536 46.113L291.772 46.1021L291.756 38.5421L286.52 38.5531ZM289.148 43.4898L261.909 43.5465L261.919 48.7822L289.159 48.7254L289.148 43.4898ZM264.532 46.1589L264.444 4.15901L259.209 4.16993L259.296 46.1698L264.532 46.1589ZM296.405 4.09238L296.399 1.47455L293.781 1.48L293.787 4.09784L296.405 4.09238ZM323.232 7.69645L321.415 9.58095L321.423 9.58845L321.431 9.59589L323.232 7.69645ZM323.305 42.4364L325.114 44.3283L325.122 44.3208L325.13 44.3133L323.305 42.4364ZM296.492 46.0923L293.874 46.0977L293.88 48.7156L296.498 48.7101L296.492 46.0923ZM296.476 38.4723L296.471 35.8545L293.853 35.8599L293.858 38.4778L296.476 38.4723ZM300.436 38.4641L300.442 41.0819L303.06 41.0764L303.054 38.4586L300.436 38.4641ZM300.38 11.6441L302.998 11.6387L302.993 9.02082L300.375 9.02628L300.38 11.6441ZM296.42 11.6524L293.803 11.6578L293.808 14.2757L296.426 14.2702L296.42 11.6524ZM317.472 36.5685L315.473 34.879L315.468 34.8845L317.472 36.5685ZM317.424 13.4686L315.454 15.192L315.469 15.2098L315.485 15.2273L317.424 13.4686ZM308.3 11.6276L308.295 9.00976L305.677 9.01522L305.682 11.6331L308.3 11.6276ZM308.356 38.5075L305.739 38.513L305.744 41.1308L308.362 41.1254L308.356 38.5075ZM296.41 6.71021L311.65 6.67844L311.639 1.44277L296.399 1.47455L296.41 6.71021ZM311.65 6.67844C316.494 6.66834 319.571 7.80308 321.415 9.58095L325.049 5.81196C321.843 2.72034 317.195 1.43119 311.639 1.44277L311.65 6.67844ZM321.431 9.59589C323.236 11.3084 324.408 14.2189 324.418 18.914L329.653 18.9031C329.642 13.4382 328.278 8.87397 325.034 5.79702L321.431 9.59589ZM324.418 18.914L324.443 31.154L329.679 31.1431L329.653 18.9031L324.418 18.914ZM324.443 31.154C324.453 35.845 323.295 38.7941 321.48 40.5595L325.13 44.3133C328.344 41.1881 329.69 36.612 329.679 31.1431L324.443 31.154ZM321.495 40.5445C319.659 42.3001 316.581 43.4326 311.727 43.4427L311.738 48.6784C317.283 48.6668 321.92 47.3831 325.114 44.3283L321.495 40.5445ZM311.727 43.4427L296.487 43.4745L296.498 48.7101L311.738 48.6784L311.727 43.4427ZM299.11 46.0868L299.094 38.4669L293.858 38.4778L293.874 46.0977L299.11 46.0868ZM296.482 41.0901L300.442 41.0819L300.431 35.8462L296.471 35.8545L296.482 41.0901ZM303.054 38.4586L302.998 11.6387L297.763 11.6496L297.818 38.4695L303.054 38.4586ZM300.375 9.02628L296.415 9.03453L296.426 14.2702L300.386 14.2619L300.375 9.02628ZM299.038 11.6469L299.022 4.08692L293.787 4.09784L293.803 11.6578L299.038 11.6469ZM311.722 41.1184C314.765 41.112 317.658 40.4176 319.477 38.2525L315.468 34.8845C315.132 35.2839 314.187 35.8775 311.711 35.8827L311.722 41.1184ZM319.472 38.258C321.168 36.251 321.764 33.4728 321.757 30.4396L316.522 30.4505C316.527 32.9373 316.011 34.2414 315.473 34.879L319.472 38.258ZM321.757 30.4396L321.733 18.9196L316.498 18.9305L316.522 30.4505L321.757 30.4396ZM321.733 18.9196C321.728 16.1514 321.079 13.6011 319.363 11.7098L315.485 15.2273C316.015 15.8114 316.494 16.8988 316.498 18.9305L321.733 18.9196ZM319.395 11.7451C317.561 9.64872 314.677 8.99646 311.655 9.00276L311.666 14.2384C314.163 14.2332 315.122 14.8129 315.454 15.192L319.395 11.7451ZM311.655 9.00276L308.295 9.00976L308.306 14.2454L311.666 14.2384L311.655 9.00276ZM305.682 11.6331L305.739 38.513L310.974 38.5021L310.918 11.6221L305.682 11.6331ZM308.362 41.1254L311.722 41.1184L311.711 35.8827L308.351 35.8897L308.362 41.1254ZM379.416 30.0794L379.41 27.4615L376.792 27.467L376.798 30.0848L379.416 30.0794ZM379.449 45.9193L379.454 48.5372L382.072 48.5317L382.066 45.9139L379.449 45.9193ZM371.529 45.9358L368.911 45.9413L368.916 48.5591L371.534 48.5537L371.529 45.9358ZM371.441 3.93593L371.436 1.3181L368.818 1.32356L368.823 3.94139L371.441 3.93593ZM393.523 4.9699L392.454 7.3594L392.479 7.37062L392.504 7.3813L393.523 4.9699ZM397.489 7.72164L395.543 9.47322L395.575 9.50855L395.608 9.5427L397.489 7.72164ZM399.897 11.6166L397.429 12.4895L397.443 12.5303L397.459 12.5705L399.897 11.6166ZM399.919 22.1166L397.461 21.2167L397.454 21.2353L397.447 21.254L399.919 22.1166ZM397.527 26.1416L395.578 24.3944L395.575 24.3981L397.527 26.1416ZM393.573 28.9698L394.652 31.3549L393.573 28.9698ZM379.4 22.5194L376.782 22.5248L376.787 25.1427L379.405 25.1372L379.4 22.5194ZM391.277 21.0546L389.497 19.1347L389.478 19.1521L389.46 19.1699L391.277 21.0546ZM391.26 12.8946L389.451 14.7869L389.469 14.8046L389.488 14.8219L391.26 12.8946ZM379.377 11.4794L379.371 8.86158L376.753 8.86703L376.759 11.4849L379.377 11.4794ZM376.798 30.0848L376.831 45.9248L382.066 45.9139L382.033 30.0739L376.798 30.0848ZM379.443 43.3015L371.523 43.318L371.534 48.5537L379.454 48.5372L379.443 43.3015ZM374.146 45.9304L374.059 3.93048L368.823 3.94139L368.911 45.9413L374.146 45.9304ZM371.446 6.55377L387.886 6.51949L387.876 1.28383L371.436 1.3181L371.446 6.55377ZM387.886 6.51949C389.76 6.51559 391.259 6.82475 392.454 7.3594L394.592 2.5804C392.584 1.68172 390.322 1.27872 387.876 1.28383L387.886 6.51949ZM392.504 7.3813C393.793 7.92604 394.786 8.6321 395.543 9.47322L399.434 5.97005C398.107 4.49551 396.456 3.36709 394.542 2.55849L392.504 7.3813ZM395.608 9.5427C396.427 10.388 397.03 11.3622 397.429 12.4895L402.365 10.7437C401.718 8.91324 400.716 7.29079 399.37 5.90057L395.608 9.5427ZM397.459 12.5705C397.906 13.7122 398.126 14.8703 398.128 16.0603L403.364 16.0494C403.36 14.1994 403.014 12.3987 402.335 10.6627L397.459 12.5705ZM398.128 16.0603L398.131 17.5003L403.367 17.4894L403.364 16.0494L398.128 16.0603ZM398.131 17.5003C398.134 18.7397 397.915 19.9743 397.461 21.2167L402.377 23.0165C403.036 21.2166 403.371 19.37 403.367 17.4894L398.131 17.5003ZM397.447 21.254C397.048 22.399 396.431 23.442 395.578 24.3944L399.477 27.8888C400.778 26.4367 401.756 24.7963 402.391 22.9792L397.447 21.254ZM395.575 24.3981C394.809 25.2554 393.802 25.9931 392.494 26.5848L394.652 31.3549C396.542 30.5 398.17 29.3521 399.48 27.8851L395.575 24.3981ZM392.494 26.5848C391.301 27.1245 389.803 27.4399 387.93 27.4438L387.941 32.6794C390.388 32.6743 392.648 32.2619 394.652 31.3549L392.494 26.5848ZM387.93 27.4438L379.41 27.4615L379.421 32.6972L387.941 32.6794L387.93 27.4438ZM379.405 25.1372L387.145 25.1211L387.134 19.8854L379.394 19.9016L379.405 25.1372ZM387.145 25.1211C389.391 25.1164 391.487 24.4877 393.094 22.9393L389.46 19.1699C389.07 19.5457 388.409 19.8828 387.134 19.8854L387.145 25.1211ZM393.056 22.9745C394.673 21.4759 395.451 19.516 395.447 17.3259L390.211 17.3368C390.213 18.1867 389.956 18.709 389.497 19.1347L393.056 22.9745ZM395.447 17.3259L395.445 16.6059L390.21 16.6168L390.211 17.3368L395.447 17.3259ZM395.445 16.6059C395.441 14.4158 394.654 12.4592 393.031 10.9673L389.488 14.8219C389.949 15.2458 390.208 15.7669 390.21 16.6168L395.445 16.6059ZM393.069 11.0024C391.456 9.46072 389.357 8.84076 387.111 8.84544L387.122 14.0811C388.397 14.0784 389.059 14.4127 389.451 14.7869L393.069 11.0024ZM387.111 8.84544L379.371 8.86158L379.382 14.0972L387.122 14.0811L387.111 8.84544ZM376.759 11.4849L376.782 22.5248L382.018 22.5139L381.995 11.474L376.759 11.4849ZM410.827 7.51383L408.897 5.74542L408.89 5.75244L408.884 5.7595L410.827 7.51383ZM433.567 7.46641L431.631 9.22883L431.637 9.23586L431.644 9.24285L433.567 7.46641ZM433.639 42.2663L431.733 40.4721L431.727 40.479L431.72 40.486L433.639 42.2663ZM410.899 42.3138L408.988 44.1021L408.994 44.109L409.001 44.116L410.899 42.3138ZM425.892 38.8025L426.988 41.18L427.028 41.1614L427.068 41.1415L425.892 38.8025ZM428.228 36.8176L430.361 38.3348L428.228 36.8176ZM429.482 33.815L432.046 34.34L429.482 33.815ZM429.384 15.9352L431.928 15.3156L429.384 15.9352ZM428.058 12.9379L430.185 11.4119L430.185 11.4119L428.058 12.9379ZM425.714 10.9628L424.472 13.2672L424.51 13.2876L424.548 13.3067L425.714 10.9628ZM418.754 10.9773L419.93 13.3163L419.968 13.2971L420.006 13.2765L418.754 10.9773ZM416.418 12.9622L414.285 11.445L414.285 11.445L416.418 12.9622ZM415.104 15.9649L412.558 15.356L415.104 15.9649ZM415.082 33.845L412.519 34.3807L415.082 33.845ZM416.348 36.8424L418.475 35.3164L418.475 35.3164L416.348 36.8424ZM418.692 38.8175L417.526 41.1614L417.566 41.1812L417.606 41.1996L418.692 38.8175ZM409.391 20.1769C409.381 15.1602 410.623 11.6461 412.77 9.26815L408.884 5.7595C405.603 9.39291 404.143 14.3244 404.155 20.1878L409.391 20.1769ZM412.757 9.28223C414.924 6.91735 417.966 5.61678 422.223 5.6079L422.212 0.372235C416.789 0.383541 412.237 2.09881 408.897 5.74542L412.757 9.28223ZM422.223 5.6079C426.481 5.59902 429.499 6.887 431.631 9.22883L435.502 5.704C432.182 2.05718 427.634 0.360931 422.212 0.372235L422.223 5.6079ZM431.644 9.24285C433.833 11.6123 435.105 15.1158 435.115 20.1232L440.351 20.1123C440.339 14.2397 438.833 9.30905 435.49 5.68998L431.644 9.24285ZM435.115 20.1232L435.135 29.4832L440.37 29.4723L440.351 20.1123L435.115 20.1232ZM435.135 29.4832C435.146 34.6798 433.874 38.1973 431.733 40.4721L435.546 44.0606C438.912 40.4839 440.383 35.4756 440.37 29.4723L435.135 29.4832ZM431.72 40.486C429.603 42.7679 426.583 44.0432 422.303 44.0521L422.314 49.2878C427.714 49.2766 432.248 47.6161 435.559 44.0467L431.72 40.486ZM422.303 44.0521C418.024 44.0611 414.969 42.7987 412.798 40.5116L409.001 44.116C412.362 47.6573 416.913 49.2991 422.314 49.2878L422.303 44.0521ZM412.811 40.5254C410.692 38.2601 409.421 34.7426 409.411 29.5368L404.175 29.5477C404.187 35.542 405.654 40.5387 408.988 44.1021L412.811 40.5254ZM409.411 29.5368L409.391 20.1769L404.155 20.1878L404.175 29.5477L409.411 29.5368ZM422.299 42.0878C423.986 42.0843 425.586 41.8259 426.988 41.18L424.796 36.425C424.28 36.6631 423.481 36.8497 422.288 36.8522L422.299 42.0878ZM427.068 41.1415C428.392 40.4757 429.506 39.538 430.361 38.3348L426.095 35.3005C425.754 35.7797 425.31 36.1653 424.716 36.4635L427.068 41.1415ZM430.361 38.3348C431.2 37.1557 431.746 35.8052 432.046 34.34L426.917 33.2899C426.742 34.1458 426.453 34.797 426.095 35.3005L430.361 38.3348ZM432.046 34.34C432.325 32.9769 432.455 31.5158 432.452 29.9688L427.216 29.9797C427.218 31.2327 427.113 32.3321 426.917 33.29L432.046 34.34ZM432.452 29.9688L432.43 19.6488L427.194 19.6597L427.216 29.9797L432.452 29.9688ZM432.43 19.6488C432.427 18.1435 432.264 16.696 431.928 15.3156L426.841 16.5547C427.07 17.4931 427.192 18.525 427.194 19.6597L432.43 19.6488ZM431.928 15.3156C431.578 13.8804 431.011 12.5624 430.185 11.4119L425.931 14.4639C426.309 14.9909 426.626 15.6711 426.841 16.5547L431.928 15.3156ZM430.185 11.4119C429.325 10.2122 428.207 9.27922 426.88 8.6189L424.548 13.3067C425.143 13.6024 425.588 13.9861 425.931 14.4639L430.185 11.4119ZM426.956 8.65836C425.529 7.88902 423.917 7.5687 422.227 7.57222L422.238 12.8079C423.268 12.8057 423.977 13.0006 424.472 13.2672L426.956 8.65836ZM422.227 7.57222C420.537 7.57574 418.927 7.90278 417.502 8.67807L420.006 13.2765C420.499 13.0078 421.208 12.81 422.238 12.8079L422.227 7.57222ZM417.578 8.63829C416.254 9.30415 415.141 10.2418 414.285 11.445L418.552 14.4793C418.892 14.0001 419.336 13.6145 419.93 13.3163L417.578 8.63829ZM414.285 11.445C413.464 12.599 412.902 13.9193 412.558 15.356L417.65 16.5739C417.862 15.6894 418.176 15.0079 418.552 14.4793L414.285 11.445ZM412.558 15.356C412.228 16.7378 412.071 18.186 412.074 19.6913L417.31 19.6803C417.308 18.5456 417.426 17.5132 417.65 16.5739L412.558 15.356ZM412.074 19.6913L412.096 30.0112L417.332 30.0003L417.31 19.6803L412.074 19.6913ZM412.096 30.0112C412.099 31.5582 412.235 33.0188 412.519 34.3807L417.644 33.3093C417.444 32.3523 417.334 31.2533 417.332 30.0003L412.096 30.0112ZM412.519 34.3807C412.825 35.8447 413.378 37.1929 414.221 38.3684L418.475 35.3164C418.115 34.8144 417.823 34.1644 417.644 33.3093L412.519 34.3807ZM414.221 38.3684C415.082 39.5681 416.199 40.5011 417.526 41.1614L419.858 36.4736C419.264 36.1779 418.818 35.7942 418.475 35.3164L414.221 38.3684ZM417.606 41.1996C419.01 41.8396 420.612 42.0913 422.299 42.0878L422.288 36.8522C421.095 36.8546 420.296 36.6714 419.778 36.4354L417.606 41.1996ZM443.837 3.78499L443.832 1.16716L441.214 1.17262L441.22 3.79045L443.837 3.78499ZM474.077 3.72195L476.695 3.71649L476.69 1.09866L474.072 1.10411L474.077 3.72195ZM474.093 11.2819L474.099 13.8998L476.716 13.8943L476.711 11.2765L474.093 11.2819ZM462.933 11.3052L462.928 8.68737L460.31 8.69283L460.315 11.3107L462.933 11.3052ZM463.005 45.7451L463.01 48.363L465.628 48.3575L465.623 45.7397L463.005 45.7451ZM455.085 45.7616L452.467 45.7671L452.473 48.3849L455.09 48.3795L455.085 45.7616ZM455.013 11.3217L457.631 11.3163L457.626 8.69842L455.008 8.70388L455.013 11.3217ZM443.853 11.345L441.235 11.3504L441.241 13.9683L443.859 13.9628L443.853 11.345ZM443.843 6.40283L474.083 6.33978L474.072 1.10411L443.832 1.16716L443.843 6.40283ZM471.46 3.7274L471.475 11.2874L476.711 11.2765L476.695 3.71649L471.46 3.7274ZM474.088 8.6641L462.928 8.68737L462.939 13.923L474.099 13.8998L474.088 8.6641ZM460.315 11.3107L460.387 45.7506L465.623 45.7397L465.551 11.2997L460.315 11.3107ZM462.999 43.1273L455.079 43.1438L455.09 48.3795L463.01 48.363L462.999 43.1273ZM457.703 45.7562L457.631 11.3163L452.395 11.3272L452.467 45.7671L457.703 45.7562ZM455.008 8.70388L443.848 8.72715L443.859 13.9628L455.019 13.9395L455.008 8.70388ZM446.471 11.3395L446.455 3.77954L441.22 3.79045L441.235 11.3504L446.471 11.3395ZM482.256 3.7049L482.25 1.08706L479.632 1.09252L479.638 3.71035L482.256 3.7049ZM508.776 3.6496L511.393 3.64415L511.388 1.02631L508.77 1.03177L508.776 3.6496ZM508.791 11.2096L508.797 13.8274L511.415 13.822L511.409 11.2041L508.791 11.2096ZM490.191 11.2484L490.186 8.63054L487.568 8.636L487.574 11.2538L490.191 11.2484ZM490.211 20.8483L487.594 20.8538L487.599 23.4716L490.217 23.4662L490.211 20.8483ZM508.091 20.8111L510.709 20.8056L510.704 18.1878L508.086 18.1932L508.091 20.8111ZM508.107 28.3711L508.113 30.9889L510.73 30.9834L510.725 28.3656L508.107 28.3711ZM490.227 28.4083L490.222 25.7905L487.604 25.796L487.609 28.4138L490.227 28.4083ZM490.247 38.1283L487.63 38.1338L487.635 40.7516L490.253 40.7461L490.247 38.1283ZM509.567 38.088L512.185 38.0826L512.18 35.4647L509.562 35.4702L509.567 38.088ZM509.583 45.648L509.589 48.2658L512.206 48.2604L512.201 45.6426L509.583 45.648ZM482.343 45.7048L479.725 45.7103L479.731 48.3281L482.349 48.3226L482.343 45.7048ZM482.261 6.32273L508.781 6.26744L508.77 1.03177L482.25 1.08706L482.261 6.32273ZM506.158 3.65506L506.173 11.215L511.409 11.2041L511.393 3.64415L506.158 3.65506ZM508.786 8.59176L490.186 8.63054L490.197 13.8662L508.797 13.8274L508.786 8.59176ZM487.574 11.2538L487.594 20.8538L492.829 20.8429L492.809 11.2429L487.574 11.2538ZM490.217 23.4662L508.097 23.4289L508.086 18.1932L490.206 18.2305L490.217 23.4662ZM505.474 20.8165L505.489 28.3765L510.725 28.3656L510.709 20.8056L505.474 20.8165ZM508.102 25.7532L490.222 25.7905L490.233 31.0262L508.113 30.9889L508.102 25.7532ZM487.609 28.4138L487.63 38.1338L492.865 38.1229L492.845 28.4029L487.609 28.4138ZM490.253 40.7461L509.573 40.7059L509.562 35.4702L490.242 35.5105L490.253 40.7461ZM506.95 38.0935L506.965 45.6535L512.201 45.6426L512.185 38.0826L506.95 38.0935ZM509.578 43.0302L482.338 43.087L482.349 48.3226L509.589 48.2658L509.578 43.0302ZM484.961 45.6994L484.873 3.69944L479.638 3.71035L479.725 45.7103L484.961 45.6994ZM538.213 41.6283L535.618 41.9695L535.918 44.2509L538.219 44.2462L538.213 41.6283ZM539.293 41.6261L539.299 44.2439L541.916 44.2384L541.911 41.6206L539.293 41.6261ZM539.214 3.58614L539.208 0.96831L536.59 0.973768L536.596 3.5916L539.214 3.58614ZM547.134 3.56963L549.752 3.56417L549.746 0.94634L547.128 0.951797L547.134 3.56963ZM547.221 45.5695L547.227 48.1874L549.845 48.1819L549.839 45.5641L547.221 45.5695ZM531.741 45.6018L529.146 45.943L529.446 48.2244L531.747 48.2197L531.741 45.6018ZM526.742 7.57216L529.338 7.23096L529.038 4.94953L526.737 4.95432L526.742 7.57216ZM525.662 7.57441L525.657 4.95658L523.039 4.96203L523.044 7.57987L525.662 7.57441ZM525.741 45.6143L525.747 48.2322L528.365 48.2267L528.359 45.6089L525.741 45.6143ZM517.821 45.6308L515.204 45.6363L515.209 48.2541L517.827 48.2487L517.821 45.6308ZM517.734 3.63093L517.728 1.01309L515.111 1.01855L515.116 3.63638L517.734 3.63093ZM533.214 3.59865L535.809 3.25745L535.509 0.976022L533.208 0.980819L533.214 3.59865ZM538.219 44.2462L539.299 44.2439L539.288 39.0082L538.208 39.0105L538.219 44.2462ZM541.911 41.6206L541.832 3.58069L536.596 3.5916L536.675 41.6315L541.911 41.6206ZM539.219 6.20398L547.139 6.18746L547.128 0.951797L539.208 0.96831L539.219 6.20398ZM544.516 3.57509L544.603 45.575L549.839 45.5641L549.752 3.56417L544.516 3.57509ZM547.216 42.9517L531.736 42.984L531.747 48.2197L547.227 48.1874L547.216 42.9517ZM534.337 45.2606L529.338 7.23096L524.147 7.91336L529.146 45.943L534.337 45.2606ZM526.737 4.95432L525.657 4.95658L525.668 10.1922L526.747 10.19L526.737 4.95432ZM523.044 7.57987L523.124 45.6198L528.359 45.6089L528.28 7.56895L523.044 7.57987ZM525.736 42.9965L517.816 43.013L517.827 48.2487L525.747 48.2322L525.736 42.9965ZM520.439 45.6254L520.352 3.62547L515.116 3.63638L515.204 45.6363L520.439 45.6254ZM517.739 6.24876L533.219 6.21649L533.208 0.980819L517.728 1.01309L517.739 6.24876ZM530.618 3.93985L535.618 41.9695L540.809 41.2871L535.809 3.25745L530.618 3.93985ZM554.052 3.55521L554.047 0.937374L551.429 0.942832L551.434 3.56066L554.052 3.55521ZM584.292 3.49216L586.91 3.4867L586.904 0.868868L584.286 0.874326L584.292 3.49216ZM584.308 11.0521L584.313 13.67L586.931 13.6645L586.926 11.0467L584.308 11.0521ZM573.148 11.0754L573.142 8.45758L570.524 8.46304L570.53 11.0809L573.148 11.0754ZM573.22 45.5153L573.225 48.1332L575.843 48.1277L575.837 45.5099L573.22 45.5153ZM565.3 45.5319L562.682 45.5373L562.687 48.1551L565.305 48.1497L565.3 45.5319ZM565.228 11.0919L567.846 11.0865L567.84 8.46864L565.222 8.47409L565.228 11.0919ZM554.068 11.1152L551.45 11.1207L551.455 13.7385L554.073 13.733L554.068 11.1152ZM554.057 6.17304L584.297 6.10999L584.286 0.874326L554.047 0.937374L554.057 6.17304ZM581.674 3.49762L581.69 11.0576L586.926 11.0467L586.91 3.4867L581.674 3.49762ZM584.302 8.43431L573.142 8.45758L573.153 13.6932L584.313 13.67L584.302 8.43431ZM570.53 11.0809L570.602 45.5208L575.837 45.5099L575.766 11.07L570.53 11.0809ZM573.214 42.8975L565.294 42.914L565.305 48.1497L573.225 48.1332L573.214 42.8975ZM567.917 45.5264L567.846 11.0865L562.61 11.0974L562.682 45.5373L567.917 45.5264ZM565.222 8.47409L554.062 8.49736L554.073 13.733L565.233 13.7098L565.222 8.47409ZM556.686 11.1097L556.67 3.54975L551.434 3.56066L551.45 11.1207L556.686 11.1097ZM591.87 3.47636L591.865 0.858526L589.247 0.863984L589.252 3.48182L591.87 3.47636ZM619.95 3.41781L622.568 3.41236L622.563 0.794524L619.945 0.799982L619.95 3.41781ZM619.966 10.9778L619.971 13.5956L622.589 13.5902L622.584 10.9723L619.966 10.9778ZM609.886 10.9988L609.88 8.38098L607.263 8.38644L607.268 11.0043L609.886 10.9988ZM609.942 37.8788L607.324 37.8842L607.33 40.5021L609.947 40.4966L609.942 37.8788ZM620.022 37.8577L622.64 37.8523L622.634 35.2345L620.017 35.2399L620.022 37.8577ZM620.038 45.4177L620.043 48.0356L622.661 48.0301L622.656 45.4123L620.038 45.4177ZM591.958 45.4763L589.34 45.4817L589.345 48.0996L591.963 48.0941L591.958 45.4763ZM591.942 37.9163L591.937 35.2985L589.319 35.3039L589.324 37.9217L591.942 37.9163ZM602.022 37.8953L602.027 40.5131L604.645 40.5076L604.64 37.8898L602.022 37.8953ZM601.966 11.0153L604.584 11.0099L604.578 8.39204L601.961 8.3975L601.966 11.0153ZM591.886 11.0363L589.268 11.0418L589.274 13.6596L591.891 13.6542L591.886 11.0363ZM591.876 6.09419L619.956 6.03565L619.945 0.799982L591.865 0.858526L591.876 6.09419ZM617.332 3.42327L617.348 10.9833L622.584 10.9723L622.568 3.41236L617.332 3.42327ZM619.96 8.35997L609.88 8.38098L609.891 13.6167L619.971 13.5956L619.96 8.35997ZM607.268 11.0043L607.324 37.8842L612.56 37.8733L612.504 10.9934L607.268 11.0043ZM609.947 40.4966L620.027 40.4756L620.017 35.2399L609.937 35.2609L609.947 40.4966ZM617.404 37.8632L617.42 45.4232L622.656 45.4123L622.64 37.8523L617.404 37.8632ZM620.032 42.7999L591.952 42.8584L591.963 48.0941L620.043 48.0356L620.032 42.7999ZM594.576 45.4708L594.56 37.9108L589.324 37.9217L589.34 45.4817L594.576 45.4708ZM591.947 40.5341L602.027 40.5131L602.017 35.2774L591.937 35.2985L591.947 40.5341ZM604.64 37.8898L604.584 11.0099L599.348 11.0208L599.404 37.9007L604.64 37.8898ZM601.961 8.3975L591.881 8.41851L591.891 13.6542L601.971 13.6332L601.961 8.3975ZM594.504 11.0309L594.488 3.4709L589.252 3.48182L589.268 11.0418L594.504 11.0309ZM649.857 36.3555L652.409 35.7715L651.943 33.7333L649.852 33.7377L649.857 36.3555ZM635.577 36.3853L635.572 33.7675L633.481 33.7718L633.023 35.8119L635.577 36.3853ZM633.556 45.3895L633.561 48.0074L635.652 48.003L636.11 45.9629L633.556 45.3895ZM625.276 45.4068L622.728 44.8046L621.966 48.0316L625.281 48.0246L625.276 45.4068ZM635.208 3.386L635.203 0.76817L633.136 0.772479L632.661 2.78382L635.208 3.386ZM650.088 3.35498L652.633 2.74218L652.15 0.732837L650.083 0.737146L650.088 3.35498ZM660.196 45.334L660.201 47.9518L663.517 47.9449L662.741 44.7212L660.196 45.334ZM651.916 45.3513L649.364 45.9353L649.831 47.9735L651.921 47.9691L651.916 45.3513ZM637.241 28.8218L634.688 28.2427L633.962 31.4465L637.247 31.4397L637.241 28.8218ZM648.101 28.7992L648.107 31.417L651.383 31.4102L650.653 28.2162L648.101 28.7992ZM643.197 7.32936L645.749 6.74634L645.283 4.70717L643.191 4.71153L643.197 7.32936ZM642.117 7.33161L642.111 4.71378L640.025 4.71813L639.564 6.75245L642.117 7.33161ZM649.852 33.7377L635.572 33.7675L635.583 39.0031L649.863 38.9734L649.852 33.7377ZM633.023 35.8119L631.002 44.8162L636.11 45.9629L638.131 36.9587L633.023 35.8119ZM633.551 42.7717L625.271 42.789L625.281 48.0246L633.561 48.0074L633.551 42.7717ZM627.824 46.009L637.756 3.98819L632.661 2.78382L622.728 44.8046L627.824 46.009ZM635.214 6.00384L650.094 5.97281L650.083 0.737146L635.203 0.76817L635.214 6.00384ZM647.543 3.96778L657.651 45.9468L662.741 44.7212L652.633 2.74218L647.543 3.96778ZM660.19 42.7162L651.91 42.7334L651.921 47.9691L660.201 47.9518L660.19 42.7162ZM654.468 44.7672L652.409 35.7715L647.305 36.9396L649.364 45.9353L654.468 44.7672ZM637.247 31.4397L648.107 31.417L648.096 26.1813L637.236 26.204L637.247 31.4397ZM650.653 28.2162L645.749 6.74634L640.645 7.91238L645.549 29.3822L650.653 28.2162ZM643.191 4.71153L642.111 4.71378L642.122 9.94944L643.202 9.94719L643.191 4.71153ZM639.564 6.75245L634.688 28.2427L639.794 29.401L644.67 7.91077L639.564 6.75245ZM665.947 3.32192L665.941 0.704083L663.323 0.709541L663.329 3.32737L665.947 3.32192ZM673.867 3.3054L676.484 3.29995L676.479 0.682113L673.861 0.687571L673.867 3.3054ZM673.938 37.7453L671.321 37.7508L671.326 40.3686L673.944 40.3632L673.938 37.7453ZM693.018 37.7056L695.636 37.7001L695.631 35.0823L693.013 35.0877L693.018 37.7056ZM693.034 45.2655L693.04 47.8834L695.657 47.8779L695.652 45.2601L693.034 45.2655ZM666.034 45.3218L663.416 45.3273L663.422 47.9451L666.04 47.9397L666.034 45.3218ZM665.952 5.93975L673.872 5.92324L673.861 0.687571L665.941 0.704083L665.952 5.93975ZM671.249 3.31086L671.321 37.7508L676.556 37.7399L676.484 3.29995L671.249 3.31086ZM673.944 40.3632L693.024 40.3234L693.013 35.0877L673.933 35.1275L673.944 40.3632ZM690.401 37.711L690.416 45.271L695.652 45.2601L695.636 37.7001L690.401 37.711ZM693.029 42.6477L666.029 42.704L666.04 47.9397L693.04 47.8834L693.029 42.6477ZM668.652 45.3164L668.564 3.31646L663.329 3.32737L663.416 45.3273L668.652 45.3164Z" fill="#FF39A6"/>
</svg>
