<svg fill="none" height="48" viewBox="0 0 693 48" width="693" xmlns="http://www.w3.org/2000/svg"><path d="m1.95543 3.72798-.00208-.99999-1 .00208.002085 1zm26.51997-.05529 1-.00208-.0021-1-1 .00208zm.0157 7.56001.0021 1 1-.0021-.0021-1zm-18.59992.0388-.00209-1-.99999.002.00208 1zm.02001 9.5999-.99999.0021.00208 1 1-.0021zm17.88001-.0372 1-.0021-.0021-1-1 .0021zm.0157 7.5599.0021 1 1-.002-.0021-1zm-17.87994.0373-.00209-1-1 .0021.00209 1zm.02026 9.72-1 .0021.00209 1 1-.0021zm19.31998-.0403 1-.0021-.0021-1-1 .0021zm.0157 7.56.0021 1 1-.0021-.0021-1zm-27.2399.0568-1 .0021.00209 1 .99999-.0021zm-.08548-40.99992 26.51998-.05529-.0042-2-26.51995.0553zm25.51788-1.0532.0157 7.56002 2-.0042-.0157-7.55999zm1.0137 6.55792-18.60001.0388.00417 2 18.59994-.0388zm-19.59792 1.0408.02002 9.6 2-.0042-.02-9.5999zm1.0221 10.5979 17.87992-.0372-.0041-2-17.87999.0372zm16.87792-1.0352.0157 7.56 2-.0041-.0157-7.56zm1.0136 6.5579-17.87993.0373.00417 2 17.87996-.0373zm-18.87784 1.0394.02026 9.72 1.99998-.0042-.0202-9.72zm1.02235 10.7179 19.31999-.0403-.0042-2-19.31996.0403zm18.31789-1.0382.0157 7.56 2-.0042-.0157-7.56zm1.0137 6.5579-27.23999.0568.00417 2 27.23992-.0568zm-26.2379 1.0547-.08757-41.9999-1.999995.00417.087565 41.99993zm54.8699-4.0744-.9915.1303.1146.8715.879-.0018zm1.08-.0022.0021 1 1-.0021-.0021-1zm-.0793-38.03997-.0021-1-1 .00209.0021 1zm7.92-.01651 1-.00209-.0021-.99999-1 .00208zm.0875 41.99988.0021 1 1-.0021-.0021-1zm-15.4799.0323-.9915.1303.1146.8715.879-.0018zm-4.9993-38.02966.9914-.13033-.1145-.8715-.879.00184zm-1.08.00226-.0021-1-1 .00208.0021 1zm.0793 38.0399.0021 1 1-.0021-.0021-1zm-7.92.0165-1 .0021.0021 1 1-.0021zm-.0876-41.99989-.002-.99999-1 .00208.002 1zm15.48-.03227.9915-.13033-.1146-.8715-.879.00183zm5.0014 39.02966 1.08-.0022-.0042-2-1.08.0022zm2.0779-1.0043-.0793-38.03995-2 .00417.0793 38.03988zm-1.0772-37.03787 7.92-.01651-.0042-2-7.92.01651zm6.9179-1.01443.0875 41.9999 2-.0042-.0875-41.99987zm1.0855 40.9978-15.48.0323.0042 2 15.4799-.0323zm-14.4865.902-4.9993-38.02969-1.9829.26067 4.9993 38.02962zm-5.9928-38.89935-1.08.00225.0042 1.99999 1.08-.00225zm-2.0779 1.00433.0793 38.03992 2-.0042-.0793-38.03989zm1.0772 37.03782-7.92.0165.0042 2 7.92-.0165zm-6.9179 1.0144-.0876-41.99987-2 .00417.0876 41.9999zm-1.0855-40.99779 15.48-.03227-.0042-2-15.4799.03228zm14.4864-.90193 4.9993 38.02962 1.983-.2606-4.9993-38.02969zm21.3497-.17279-.002-.99999-1 .00208.002 1zm26.8272 3.60408-.6937.71989.006.00568zm.073 34.73993.691.7227.006-.0057zm-26.8126 3.6559-1 .0021.0021 1 1-.0021zm-.0159-7.62-.0021-1-1 .0021.0021 1zm3.96-.0082.0021 1 1-.0021-.0021-1zm-.0559-26.82 1-.0021-.0021-1-1 .0021zm-3.96.0083-1 .0021.0021 1 1-.0021zm21.052 24.9161-.7639-.6453-.0017.0021zm-.0482-23.0999-.7527.6583.006.0068.006.0067zm-9.1238-1.841-.0021-1-1 .0021.0021 1zm.056 26.88-1 .002.0021 1 1-.002zm-11.9497-33.41521 15.24-.03177-.0042-2-15.2399.03178zm15.24-.03177c5.0641-.01056 8.6266 1.1719 10.8914 3.35572l1.3887-1.43974c-2.7858-2.68566-6.9484-3.9271-12.2843-3.91598zm10.8974 3.36142c2.2497 2.13416 3.4817 5.55566 3.4917 10.48866l2-.0042c-.011-5.227-1.316-9.28026-4.115-11.9356zm3.4917 10.48866.025 12.2399 2-.0041-.025-12.24zm.025 12.2399c.011 4.9314-1.205 8.3833-3.4533 10.5688l1.3943 1.434c2.782-2.705 4.07-6.7784 4.059-12.0069zm-3.4473 10.5631c-2.2555 2.1571-5.8155 3.3363-10.8834 3.3468l.0042 2c5.332-.0111 9.4871-1.248 12.2615-3.9014zm-10.8834 3.3468-15.24.0318.0042 2 15.24-.0318zm-14.2379 1.0297-.0159-7.62-2 .0042.0159 7.62zm-1.0138-6.6179 3.96-.0082-.0042-2-3.96.0082zm4.9579-1.0103-.0559-26.82-2 .0042.0559 26.82zm-1.058-27.8179-3.96.0083.0042 2 3.96-.0083zm-2.9579 1.0062-.0158-7.55999-2 .00417.0158 7.56002zm14.2981 27.8502c2.8683-.0059 5.1588-.6692 6.5195-2.2887l-1.5312-1.2865c-.794.945-2.3408 1.5697-4.9925 1.5753zm6.5178-2.2866c1.3382-1.5838 1.9093-3.9066 1.9033-6.7709l-2 .0041c.0056 2.6557-.5348 4.4153-1.4311 5.4761zm1.9033-6.7709-.024-11.52-2 .0042.024 11.5199zm-.024-11.52c-.0053-2.5407-.6016-4.6389-1.9507-6.1262l-1.4814 1.3436c.8962.988 1.4274 2.5274 1.4321 4.7868zm-1.9386-6.1128c-1.3695-1.5657-3.6585-2.1956-6.5187-2.1896l.0042 2c2.6597-.0055 4.2133.5966 5.009 1.5063zm-6.5187-2.1896-3.36.007.0042 2 3.36-.007zm-4.3579 1.0091.056 26.8799 2-.0041-.056-26.88zm1.0581 27.8779 3.36-.0071-.0042-1.9999-3.36.007zm62.0023-35.5694-.002-.99999-1 .00208.002 1zm30.24-.06305 1-.00208-.002-1-1 .00209zm.016 7.55995.002 1 1-.002-.002-1zm-11.16.0233-.002-.99999-1 .00209.002 1zm.072 34.4399.002 1 1-.0021-.002-.9999zm-7.92.0165-1 .0021.002 1 1-.0021zm-.072-34.4399 1-.0021-.002-.99996-1 .00208zm-11.16.0233-1 .0021.002 1 1-.0021zm-.014-6.56 30.24-.06305-.004-1.99999-30.24.06305zm29.238-1.06096.016 7.55996 2-.0041-.016-7.56003zm1.014 6.5579-11.16.02327.004 1.99999 11.16-.0233zm-12.158 1.02536.072 34.4399 2-.0041-.072-34.44zm1.07 33.4378-7.92.0166.004 1.9999 7.92-.0165zm-6.918 1.0145-.072-34.44-2 .0042.072 34.4399zm-1.074-35.43788-11.16.02327.004 2.00001 11.16-.0233zm-10.158 1.02118-.016-7.55998-2 .00417.016 7.56001zm39.45-3.98226-.737-.67554-.005.0054zm22.74-.04741-.739.67325.005.00534zm.073 34.79997-.729-.6855-.005.0054zm-22.74.0474-.731.6831.005.0053zm14.992-3.5113.419.9082.015-.0071.015-.0076zm2.336-1.9849.815.5796zm1.254-3.0026.98.2006zm-.097-17.8798.971-.2367zm-1.327-2.9973.813-.5829zm-2.344-1.9751-.474.8803.014.0078.015.0073zm-6.96.0145.449.8935.015-.0073.014-.0079zm-2.336 1.9849-.814-.5795zm-1.313 3.0027-.973-.2326zm-.023 17.8801-.979.2047zm1.266 2.9974.813-.5829zm2.344 1.9751-.445.8954.015.0075.016.007zm-10.919-18.6373c-.011-5.2782 1.299-9.2303 3.796-11.99621l-1.484-1.34029c-2.93 3.24546-4.323 7.739-4.312 13.3407zm3.791-11.99084c2.53-2.76094 6.038-4.18965 10.656-4.19928l-.004-1.99999c-5.063.01055-9.148 1.59768-12.126 4.84823zm10.656-4.19928c4.618-.00962 8.108 1.40451 10.608 4.14958l1.478-1.34646c-2.953-3.24357-7.028-4.81367-12.09-4.80311zm10.613 4.15494c2.545 2.75558 3.889 6.70008 3.9 11.97488l2-.0042c-.011-5.6052-1.445-10.09493-4.431-13.32786zm3.9 11.97488.02 9.3599 2-.0041-.02-9.36zm.02 9.3599c.011 5.446-1.322 9.4241-3.842 12.1012l1.457 1.3708c2.988-3.1744 4.397-7.7221 4.385-13.4761zm-3.847 12.1065c-2.485 2.6797-5.973 4.0741-10.599 4.0837l.004 2c5.054-.0105 9.12-1.552 12.062-4.7236zm-10.599 4.0837c-4.626.0096-8.143-1.37-10.682-4.0447l-1.451 1.3769c2.994 3.1538 7.083 4.6783 12.137 4.6678zm-10.677-4.0394c-2.494-2.6664-3.826-6.641-3.837-12.0904l-2 .0042c.012 5.7506 1.418 10.2903 4.376 13.4525zm-3.837-12.0904-.02-9.36-2 .0042.02 9.36zm14.503 10.9298c1.534-.0032 2.887-.2394 4.015-.7593l-.837-1.8164c-.79.3641-1.837.5729-3.182.5757zm4.045-.774c1.099-.5522 2.006-1.3193 2.702-2.2988l-1.63-1.1591c-.5.703-1.15 1.2591-1.97 1.6709zm2.702-2.2988c.69-.9703 1.157-2.1047 1.419-3.3816l-1.96-.4012c-.213 1.0442-.582 1.9115-1.089 2.6237zm1.419-3.3816c.253-1.2379.375-2.5873.372-4.0434l-2 .0042c.003 1.3438-.11 2.555-.332 3.638zm.372-4.0434-.022-10.32-2 .0042.022 10.32zm-.022-10.32c-.002-1.3908-.153-2.7099-.456-3.9537l-1.943.4733c.262 1.075.397 2.2354.399 3.4846zm-.456-3.9537c-.308-1.2648-.798-2.3857-1.485-3.3435l-1.625 1.1659c.516.7196.91 1.5969 1.167 2.6509zm-1.485-3.3435c-.701-.9766-1.61-1.7399-2.711-2.28754l-.891 1.79074c.821.4083 1.474.9618 1.977 1.6627zm-2.682-2.27247c-1.139-.61401-2.472-.89556-3.958-.89246l.004 2.00003c1.234-.0026 2.222.231 3.005.653zm-3.958-.89246c-1.487.0031-2.818.2902-3.955.90896l.956 1.75657c.782-.4252 1.769-.663 3.003-.6655zm-3.926.89376c-1.099.55227-2.005 1.31927-2.701 2.29887l1.629 1.159c.5-.7029 1.151-1.2591 1.97-1.6709zm-2.701 2.29887c-.684.9607-1.169 2.0836-1.472 3.3496l1.945.4653c.253-1.0552.643-1.9341 1.156-2.6559zm-1.472 3.3496c-.298 1.2451-.442 2.5648-.44 3.9556l2-.0042c-.002-1.2492.128-2.4101.385-3.4861zm-.44 3.9556.022 10.32 2-.0042-.022-10.32zm.022 10.32c.003 1.4561.131 2.8049.389 4.0418l1.958-.4093c-.226-1.0822-.344-2.2929-.347-3.6367zm.389 4.0418c.267 1.2758.739 2.4082 1.433 3.3756l1.625-1.1658c-.51-.7101-.882-1.5759-1.1-2.6191zm1.433 3.3756c.7.9767 1.61 1.7399 2.711 2.2876l.891-1.7907c-.821-.4084-1.474-.9619-1.977-1.6627zm2.742 2.3021c1.13.5152 2.483.7458 4.018.7426l-.004-2c-1.346.0028-2.393-.2016-3.185-.5624zm63.978-36.02249-.002-.99999-1 .00208.002 1zm26.52-.05529 1-.00208-.002-1-1 .00208zm.016 7.55998.002 1 1-.0021-.002-1zm-18.6.0388-.002-1.00001-1 .00208.002 1.00003zm.02 9.6-1 .002.002 1 1-.002zm17.88-.0373 1-.0021-.003-1-1 .0021zm.015 7.56.002 1 1-.0021-.002-1zm-17.88.0372-.002-1-1 .0021.002 1zm.021 9.72-1 .0021.002 1 1-.0021zm19.32-.0403 1-.002-.002-1-1 .002zm.015 7.56.002 1 1-.0021-.002-1zm-27.24.0568-1 .0021.003 1 1-.0021zm-.085-40.99989 26.52-.05529-.004-2-26.52.0553zm25.518-1.0532.016 7.55999 2-.0042-.016-7.55996zm1.013 6.5579-18.599.03878.004 2.00001 18.6-.0388zm-19.597 1.04089.02 9.5999 2-.0041-.02-9.6zm1.022 10.5979 17.88-.0373-.005-2-17.879.0373zm16.878-1.0352.015 7.56 2-.0042-.015-7.56zm1.013 6.5579-17.88.0372.004 2 17.88-.0372zm-18.878 1.0393.021 9.72 2-.0042-.021-9.7199zm1.023 10.7179 19.32-.0403-.004-2-19.32.0403zm18.318-1.0382.015 7.56 2-.0042-.015-7.5599zm1.013 6.5579-27.24.0568.005 2 27.239-.0568zm-26.238 1.0547-.087-41.99987-2 .00417.087 41.9999zm54.87-4.0744-.991.1304.114.8715.879-.0019zm1.08-.0022.002 1 1-.0021-.002-1zm-.079-38.03994-.002-1-1 .00209.002.99999zm7.92-.01651 1-.00209-.002-1-1 .00209zm.088 41.99995.002 1 1-.0021-.002-1zm-15.48.0322-.992.1304.115.8715.879-.0019zm-5-38.02963.992-.13033-.115-.8715-.879.00184zm-1.08.00225-.002-.99999-1 .00208.002 1zm.08 38.03988.002 1 1-.002-.002-1zm-7.92.0166-1 .002.002 1 1-.002zm-.088-41.99996-.002-.99999-1 .00208.002 1zm15.48-.03227.991-.13034-.114-.87149-.879.00183zm5.001 39.02963 1.08-.0022-.004-2-1.08.0022zm2.078-1.0043-.079-38.03993-2 .00417.079 38.03996zm-1.077-37.03784 7.92-.01652-.004-1.99999-7.92.01651zm6.918-1.01443.088 41.99987 2-.0041-.088-41.99994zm1.085 40.99787-15.48.0322.005 2 15.48-.0322zm-14.486.9019-4.999-38.02966-1.983.26067 4.999 38.02969zm-5.993-38.89932-1.08.00225.004 1.99999 1.08-.00225zm-2.078 1.00433.08 38.03989 2-.0041-.08-38.03996zm1.078 37.03779-7.92.0166.004 2 7.92-.0166zm-6.918 1.0145-.088-41.99994-2 .00417.088 41.99987zm-1.086-40.99786 15.48-.03227-.004-2-15.48.03228zm14.487-.90193 4.999 38.02969 1.983-.2607-5-38.02967zm21.349-.17279-.002-.99999-1 .00208.002 1zm26.828 3.60408-.694.71989.006.00568zm.072 34.7399.691.7227.006-.0057zm-26.812 3.6559-1 .0021.002 1 1-.0021zm-.016-7.6199-.002-1-1 .002.002 1zm3.96-.0083.002 1 1-.0021-.002-1zm-.056-26.8199 1-.0021-.002-1.00003-1 .00209zm-3.96.0082-1 .0021.002 1 1-.0021zm21.052 24.9162-.764-.6454-.002.0021zm-.048-23.1-.753.6584.006.0068.006.0067zm-9.124-1.841-.002-.99996-1 .00209.002.99997zm.056 26.88-1 .0021.002 1 1-.0021zm-11.95-33.41518 15.24-.03177-.004-2-15.24.03178zm15.24-.03177c5.064-.01056 8.627 1.1719 10.892 3.35572l1.388-1.43974c-2.785-2.68566-6.948-3.9271-12.284-3.91598zm10.898 3.36142c2.25 2.13414 3.481 5.55563 3.491 10.48863l2-.0042c-.011-5.227-1.315-9.28023-4.115-11.93558zm3.491 10.48863.026 12.24 2-.0042-.026-12.24zm.026 12.24c.01 4.9314-1.206 8.3832-3.454 10.5688l1.394 1.4339c2.782-2.705 4.071-6.7783 4.06-12.0069zm-3.448 10.563c-2.255 2.1571-5.815 3.3363-10.883 3.3469l.004 2c5.332-.0112 9.487-1.2481 12.261-3.9015zm-10.883 3.3469-15.24.0317.004 2 15.24-.0317zm-14.238 1.0297-.016-7.62-2 .0041.016 7.62zm-1.014-6.6179 3.96-.0083-.004-2-3.96.0083zm4.958-1.0104-.056-26.8199-2 .0041.056 26.82zm-1.058-27.81784-3.96.00825.004 1.99999 3.96-.0082zm-2.958 1.00614-.016-7.55996-2 .00417.016 7.55999zm14.298 27.8503c2.868-.006 5.159-.6692 6.52-2.2887l-1.532-1.2866c-.794.945-2.34 1.5698-4.992 1.5753zm6.518-2.2866c1.338-1.5839 1.909-3.9067 1.903-6.771l-2 .0042c.006 2.6556-.535 4.4152-1.431 5.476zm1.903-6.771-.024-11.52-2 .0042.024 11.52zm-.024-11.52c-.005-2.5406-.601-4.6389-1.95-6.1262l-1.482 1.3437c.896.9879 1.428 2.5274 1.432 4.7867zm-1.938-6.1127c-1.37-1.5658-3.659-2.19562-6.519-2.18966l.004 1.99996c2.66-.0055 4.213.5966 5.009 1.5064zm-6.519-2.18966-3.36.007.004 1.99996 3.36-.007zm-4.358 1.00906.056 26.88 2-.0042-.056-26.8799zm1.058 27.8779 3.36-.007-.004-2-3.36.007zm82.36-27.1518-.694.7197.005.0053.006.0053zm-10.201-.5787.569.822.01-.0065.009-.0068zm-1.309 5.2827-.905.4248.005.0122.007.0121zm1.443 1.557-.575.8182.027.019.029.0172zm2.763 1.1943-.304.9527.009.0029zm4.382 1.0108-.177.9843zm10.088 3.999-.628.7782zm2.43 14.395-.913-.4085-.004.0108zm-2.991 4.0262.648.7612zm-4.795 2.59.306.952zm-13.68-.2115-.357.9341.01.0041.011.0039zm-5.227-3.2291-.706.7086.005.0051.006.0051zm-3.19-4.8533-.933.3596.002.0067zm-1.097-7.9178-.002-1-1 .0021.002 1zm7.92-.0165 1-.0021-.002-1-1 .0021zm2.176 7.4955-.725.6893.01.0097.009.0096zm12.181.6346-.669-.7432zm1.368-5.6429-.935.3531.004.0102.004.0101zm-1.263-1.6773-.653.757.014.0129.016.0122zm-2.463-1.3749.357-.9341zm-3.962-1.0117.17-.9854-.005-.0009zm-5.823-1.3679-.321.9472.01.0033.01.0031zm-4.625-2.3304-.598.8013.006.0044.006.0043zm-3.089-13.97356-.9-.43562-.005.0105zm2.932-3.84612-.646-.76294-.006.00507-.006.00516zm4.555-2.5295-.318-.94805-.007.00221zm12.6.15373-.349.93706.009.00321.008.00305zm4.806 2.80998-.682.73097.005.00523.006.00514zm2.949 4.13387-.925.3815.004.01.005.01zm1.034 7.0779.002 1 1-.0021-.002-1zm-7.92.0165-1 .0021.002 1 1-.0021zm.997-1.4421c-.004-1.9792-.799-3.6947-2.306-5.1041l-1.366 1.4606c1.139 1.0651 1.67 2.2669 1.672 3.6477zm-2.294-5.0935c-1.524-1.47004-3.628-2.13418-6.161-2.1289l.004 2c2.188-.0046 3.727.5637 4.768 1.5683zm-6.161-2.1289c-2.129.00444-3.939.45436-5.323 1.46116l1.176 1.61744c.932-.678 2.281-1.0747 4.151-1.0786zm-5.304 1.44785c-1.427.98815-2.168 2.39635-2.164 4.12775l2-.0042c-.002-1.0686.412-1.8628 1.302-2.4795zm-2.164 4.12775c.002.8531.17 1.6588.519 2.4018l1.81-.8496c-.214-.4558-.328-.9696-.329-1.5564zm.531 2.4261c.375.7474.988 1.3827 1.761 1.9261l1.15-1.6364c-.589-.4137-.938-.8164-1.124-1.1879zm1.817 1.9623c.809.4923 1.809.9194 2.978 1.2925l.608-1.9053c-1.073-.3423-1.915-.7112-2.547-1.096zm2.987 1.2955c1.213.3736 2.716.719 4.5 1.0395l.354-1.9685c-1.738-.3122-3.156-.6408-4.265-.9823zm4.5 1.0395c4.312.7747 7.493 2.0629 9.637 3.7929l1.256-1.5564c-2.504-2.0203-6.048-3.3981-10.539-4.205zm9.637 3.7929c2.036 1.6422 3.118 4.1012 3.126 7.5566l2-.0042c-.008-3.9045-1.257-7.0007-3.87-9.1088zm3.126 7.5566.001.72 2-.0042-.001-.72zm.001.72c.004 1.8352-.329 3.4737-.982 4.9317l1.826.8169c.781-1.745 1.161-3.6679 1.156-5.7528zm-.986 4.9425c-.615 1.4188-1.519 2.6373-2.723 3.6628l1.297 1.5223c1.432-1.2201 2.522-2.6858 3.261-4.3898zm-2.723 3.6628c-1.204 1.0259-2.681 1.8299-4.452 2.3991l.612 1.904c1.987-.6387 3.706-1.5613 5.137-2.7808zm-4.452 2.3991c-1.763.5668-3.778.8605-6.054.8653l.004 2c2.444-.0051 4.668-.3203 6.662-.9613zm-6.054.8653c-2.67.0055-4.993-.3574-6.985-1.0668l-.671 1.8841c2.251.8017 4.81 1.1886 7.66 1.1827zm-6.963-1.0589c-1.974-.7542-3.596-1.7629-4.889-3.0137l-1.39 1.4375c1.512 1.4633 3.375 2.6073 5.565 3.4444zm-4.879-3.0036c-1.305-1.2999-2.292-2.8012-2.965-4.5111l-1.861.7327c.775 1.9671 1.915 3.7014 3.415 5.1956zm-2.962-4.5043c-.676-1.7543-1.022-3.6712-1.026-5.7603l-2 .0042c.005 2.3109.388 4.4725 1.16 6.4753zm-1.026-5.7603-.004-1.8-2 .0042.004 1.8zm-1.002-.7979 7.92-.0165-.004-2-7.92.0165zm6.918-1.0144.003 1.44 2-.0042-.003-1.44zm.003 1.44c.006 2.7206.794 5.0038 2.448 6.7427l1.449-1.3786c-1.232-1.2951-1.892-3.0489-1.897-5.3683zm2.467 6.762c1.744 1.7366 4.332 2.5038 7.553 2.4971l-.005-2c-2.939.0062-4.914-.6971-6.137-1.9143zm7.553 2.4971c2.518-.0052 4.585-.5514 6.003-1.8279l-1.338-1.4864c-.898.8083-2.388 1.3096-4.67 1.3143zm6.003-1.8279c1.35-1.2151 2.067-2.7196 2.063-4.4689l-2 .0042c.003 1.1307-.435 2.1085-1.401 2.9783zm2.063-4.4689c-.001-.8005-.145-1.5669-.436-2.2905l-1.855.7467c.191.4753.29.9884.291 1.548zm-.428-2.2702c-.313-.8283-.852-1.5298-1.576-2.1065l-1.246 1.5643c.478.3808.781.7976.951 1.2483zm-1.546-2.0814c-.716-.6183-1.65-1.1281-2.759-1.5519l-.714 1.8682c.973.3718 1.681.7786 2.167 1.1978zm-2.759-1.5519c-1.122-.4288-2.511-.7799-4.149-1.063l-.34 1.9707c1.563.2702 2.815.5936 3.775.9605zm-4.154-1.0639c-2.082-.3491-3.977-.7949-5.687-1.3352l-.602 1.9072c1.812.5724 3.799 1.0384 5.959 1.4005zm-5.667-1.3288c-1.679-.5686-3.129-1.3022-4.359-2.1931l-1.173 1.6199c1.413 1.0236 3.047 1.8435 4.89 2.4676zm-4.347-2.1844c-1.157-.8639-2.059-1.9409-2.713-3.2416l-1.787.8982c.792 1.5763 1.896 2.8951 3.303 3.9459zm-2.713-3.2416c-.636-1.2653-.98-2.8622-.984-4.8307l-2 .0041c.004 2.1915.387 4.1131 1.197 5.7248zm-.984-4.8307-.001-.36-2 .0041.001.36zm-.001-.36c-.003-1.5844.306-3.0176.915-4.31494l-1.81-.85024c-.745 1.58558-1.109 3.31368-1.105 5.16928zm.91-4.30447c.659-1.36074 1.554-2.5349 2.69-3.529l-1.316-1.50542c-1.339 1.17106-2.399 2.56098-3.174 4.16324zm2.678-3.51876c1.173-.9938 2.579-1.7789 4.233-2.34662l-.649-1.89167c-1.863.63963-3.494 1.54086-4.876 2.7124zm4.227-2.34443c1.682-.56459 3.573-.85613 5.682-.86053l-.004-2c-2.291.00478-4.399.32157-6.314.96448zm5.682-.86053c2.384-.00497 4.463.33692 6.251 1.0033l.698-1.87412c-2.054-.76561-4.378-1.13455-6.953-1.12918zm6.268 1.00956c1.812.63748 3.289 1.50848 4.456 2.59763l1.364-1.46193c-1.398-1.30551-3.125-2.30783-5.156-3.02234zm4.467 2.608c1.219 1.1035 2.112 2.36053 2.695 3.77403l1.849-.76299c-.703-1.70384-1.776-3.20272-3.202-4.49372zm2.704 3.79403c.627 1.4313.943 2.9344.946 4.5184l2-.0041c-.004-1.856-.375-3.6314-1.115-5.3173zm.946 4.5184.004 2.16 2-.0041-.004-2.16zm1.002 1.158-7.92.0165.004 2 7.92-.0165zm-6.918 1.0144-.003-1.44-2 .0042.003 1.44zm17.116-10.65573-.737-.67554-.005.0054zm22.74-.04741-.739.67325.005.00534zm.073 34.79994-.728-.6854-.005.0053zm-22.74.0474-.73.6831.005.0053zm14.993-3.5113.418.9082.016-.0071.015-.0076zm2.336-1.9848.815.5795zm1.253-3.0027.98.2006zm-.097-17.8798.972-.2367zm-1.326-2.9972.812-.583zm-2.344-1.97516-.475.88026.015.0078.014.0073zm-6.96.01451.449.89345.014-.0073.015-.0078zm-2.336 1.98485-.815-.5795zm-1.314 3.0028-.972-.2326zm-.023 17.8801-.978.2046zm1.267 2.9973.812-.5829zm2.344 1.9751-.446.8954.016.0075.015.0071zm-10.919-18.6372c-.011-5.2783 1.298-9.23042 3.796-11.99628l-1.485-1.34029c-2.93 3.24546-4.323 7.73897-4.311 13.34067zm3.791-11.99091c2.529-2.76094 6.038-4.18965 10.655-4.19928l-.004-1.999994c-5.063.010555-9.148 1.597684-12.126 4.848234zm10.655-4.19928c4.618-.00962 8.109 1.40451 10.608 4.14958l1.479-1.34646c-2.953-3.24357-7.029-4.813668-12.091-4.803114zm10.613 4.15494c2.546 2.75556 3.89 6.70005 3.901 11.97485l2-.0042c-.012-5.6052-1.445-10.0949-4.432-13.32783zm3.901 11.97485.019 9.36 2-.0042-.019-9.36zm.019 9.36c.012 5.4459-1.321 9.424-3.841 12.1011l1.456 1.3708c2.988-3.1744 4.397-7.722 4.385-13.4761zm-3.846 12.1064c-2.486 2.6798-5.974 4.0741-10.6 4.0837l.004 2c5.054-.0105 9.12-1.552 12.062-4.7235zm-10.6 4.0837c-4.626.0097-8.143-1.37-10.682-4.0446l-1.45 1.3768c2.993 3.1538 7.082 4.6784 12.136 4.6678zm-10.677-4.0393c-2.494-2.6664-3.825-6.6411-3.837-12.0905l-2 .0042c.012 5.7506 1.419 10.2903 4.377 13.4525zm-3.837-12.0905-.019-9.3599-2 .0041.019 9.36zm14.503 10.9298c1.535-.0032 2.887-.2394 4.015-.7593l-.837-1.8164c-.79.3642-1.836.5729-3.182.5757zm4.046-.774c1.099-.5522 2.005-1.3193 2.702-2.2988l-1.63-1.1591c-.5.703-1.151 1.2592-1.97 1.6709zm2.702-2.2988c.69-.9703 1.157-2.1047 1.418-3.3816l-1.959-.4011c-.214 1.0441-.583 1.9114-1.089 2.6236zm1.418-3.3816c.253-1.2379.375-2.5872.372-4.0434l-2 .0042c.003 1.3438-.11 2.555-.331 3.6381zm.372-4.0434-.021-10.32-2 .0042.021 10.32zm-.021-10.32c-.003-1.3907-.153-2.7098-.456-3.9537l-1.943.4734c.261 1.075.396 2.2353.399 3.4845zm-.456-3.9537c-.308-1.2647-.798-2.3856-1.486-3.3435l-1.625 1.1659c.517.7196.911 1.5969 1.168 2.651zm-1.486-3.3435c-.7-.9766-1.61-1.73987-2.711-2.28751l-.891 1.79071c.821.4084 1.474.9618 1.977 1.6627zm-2.682-2.27244c-1.139-.61401-2.472-.89556-3.958-.89246l.004 2c1.234-.0026 2.222.231 3.005.653zm-3.958-.89246c-1.486.0031-2.818.2902-3.954.90896l.956 1.75664c.781-.4253 1.768-.663 3.002-.6656zm-3.925.89376c-1.099.55223-2.005 1.31924-2.702 2.29884l1.63 1.1591c.5-.703 1.151-1.2592 1.97-1.671zm-2.702 2.29884c-.683.9607-1.169 2.0836-1.471 3.3497l1.945.4652c.252-1.0551.643-1.934 1.156-2.6558zm-1.471 3.3497c-.298 1.245-.443 2.5647-.44 3.9555l2-.0041c-.003-1.2493.127-2.4101.385-3.4862zm-.44 3.9555.021 10.32 2-.0042-.021-10.3199zm.021 10.32c.003 1.4562.131 2.805.39 4.0418l1.957-.4093c-.226-1.0821-.344-2.2928-.347-3.6367zm.39 4.0418c.266 1.2758.738 2.4083 1.432 3.3757l1.625-1.1659c-.509-.7101-.882-1.5759-1.1-2.6191zm1.432 3.3757c.701.9766 1.61 1.7399 2.711 2.2875l.891-1.7907c-.821-.4084-1.474-.9618-1.977-1.6627zm2.742 2.3021c1.13.5152 2.484.7457 4.018.7425l-.004-2c-1.345.0028-2.393-.2016-3.184-.5624zm27.24-35.94596-.002-1-1 .00208.002 1zm7.92-.01652 1-.00208-.002-1-1 .00209zm.072 34.43998-1 .002.002 1 1-.002zm19.08-.0398 1-.0021-.002-1-1 .0021zm.016 7.56.002 1 1-.0021-.002-1zm-27 .0563-1 .002.002 1 1-.0021zm-.086-40.99997 7.92-.01651-.004-1.99999-7.92.01651zm6.918-1.01442.072 34.43989 2-.0041-.072-34.43996zm1.074 35.43789 19.08-.0398-.004-2-19.08.0398zm18.078-1.0377.016 7.5599 2-.0041-.016-7.56zm1.014 6.5579-27 .0563.004 1.9999 27-.0562zm-25.998 1.0542-.088-41.99995-2 .00417.088 41.99988zm64.21-42.134 1-.00209-.002-1-1 .00209zm-3.759 38.7679-.73-.6838-.005.0057zm-22.62.0472-.732.6812.005.0057zm-3.861-38.75206-.002-.99999-1 .00208.002 1zm7.92-.01651 1-.00208-.002-1-1 .00208zm1.81 33.29627-.769.6397zm10.92-.0227-.772-.6364zm1.67-33.30359-.002-1-1 .00209.002.99999zm6.92-.01443.057 27.47992 2-.0041-.057-27.47999zm.057 27.47992c.01 4.6206-1.211 8.1111-3.546 10.6021l1.46 1.3677c2.774-2.9597 4.097-6.9945 4.086-11.9739zm-3.551 10.6078c-2.266 2.4566-5.716 3.7716-10.539 3.7816l.005 2c5.177-.0108 9.242-1.4314 12.004-4.4254zm-10.539 3.7816c-4.821.0101-8.301-1.2901-10.619-3.7432l-1.454 1.3738c2.813 2.9762 6.899 4.3802 12.078 4.3694zm-10.614-3.7375c-2.308-2.4809-3.526-5.9684-3.535-10.593l-2 .0042c.01 4.9754 1.328 9.0026 4.071 11.9511zm-3.535-10.593-.058-27.47994-2 .00417.058 27.47997zm-1.056-26.47786 7.92-.01651-.004-2-7.92.01652zm6.918-1.01442.058 27.47998 2-.0042-.058-27.47995zm.058 27.47998c.005 2.6283.625 4.8215 1.983 6.4539l1.537-1.2793c-.967-1.1628-1.516-2.8472-1.52-5.1788zm1.983 6.4539c1.416 1.7019 3.572 2.4545 6.235 2.4489l-.004-2c-2.297.0048-3.784-.635-4.694-1.7282zm6.235 2.4489c2.663-.0055 4.816-.7671 6.225-2.4749l-1.543-1.2728c-.905 1.0969-2.389 1.743-4.686 1.7477zm6.225-2.4749c1.352-1.6381 1.962-3.8338 1.957-6.4621l-2 .0041c.004 2.3317-.537 4.0184-1.5 5.1852zm1.957-6.4621-.058-27.47998-2 .00417.058 27.47991zm-1.056-26.47789 7.92-.01652-.004-1.99999-7.92.01651zm14.416-1.03006-.002-1-1 .00209.002.99999zm30.24-.06305 1-.00209-.002-.99999-1 .00208zm.016 7.56.002 1 1-.0021-.002-1zm-11.16.0233-.002-1.00004-1 .00208.002.99996zm.072 34.4399.002 1 1-.0021-.002-1zm-7.92.0165-1 .0021.002 1 1-.0021zm-.072-34.4399 1-.0021-.002-1.00002-1 .00209zm-11.16.0232-1 .0021.002 1 1-.0021zm-.013-6.55995 30.239-.06305-.004-2-30.24.06305zm29.237-1.06097.016 7.56002 2-.0042-.016-7.55999zm1.014 6.55791-11.16.02327.004 2.00004 11.16-.0233zm-12.158 1.02531.072 34.44 2-.0042-.072-34.4399zm1.07 33.4379-7.92.0165.004 2 7.92-.0165zm-6.918 1.0144-.072-34.4399-2 .0042.072 34.4399zm-1.074-35.43783-11.16.02327.004 1.99996 11.16-.0232zm-10.158 1.02113-.016-7.55994-2 .00417.016 7.55997zm36.803-7.6367-.002-1-1 .00209.002.99999zm28.08-.05854 1-.00209-.002-1-1 .00209zm.015 7.55994.002 1 1-.002-.002-1zm-10.08.0211-.002-1.00004-1 .00209.002.99995zm.056 26.8799-1 .0021.003 1 1-.0021zm10.08-.021 1-.0021-.002-1-1 .0021zm.016 7.56.002 1 1-.0021-.002-1zm-28.08.0585-1 .0021.002 1 1-.0021zm-.016-7.56-.002-1-1 .0021.002 1zm10.08-.021.003 1 1-.0021-.003-1zm-.056-26.8799 1-.0021-.002-1.00001-1 .00208zm-10.08.021-1 .0021.003 1 1-.0021zm-.013-6.56 28.08-.05855-.004-1.99999-28.08.05854zm27.078-1.05646.015 7.55996 2-.0041-.015-7.56003zm1.013 6.5579-10.08.02102.004 2.00004 10.08-.0211zm-11.078 1.02306.056 26.88 2-.0042-.056-26.8799zm1.059 27.8779 10.08-.021-.005-2-10.08.021zm9.077-1.0189.016 7.56 2-.0042-.016-7.56zm1.014 6.5579-28.08.0585.004 2 28.08-.0585zm-27.078 1.0564-.016-7.56-2 .0042.016 7.56zm-1.013-6.5579 10.08-.021-.005-2-10.08.021zm11.077-1.0231-.056-26.8799-2 .0042.056 26.8799zm-1.058-27.87783-10.08.02102.005 2.00001 10.08-.021zm-9.078 1.01893-.015-7.55999-2 .00417.015 7.56002zm38.371-3.98001-.738-.67554-.005.0054zm22.739-.04741-.739.67325.005.00534zm.073 34.79992-.728-.6854-.005.0053zm-22.74.0474-.73.6832.005.0053zm14.993-3.5112.418.9081.016-.007.015-.0077zm2.336-1.9849.815.5795zm1.253-3.0026.98.2005zm-.097-17.8799.972-.2366zm-1.326-2.9972.812-.583zm-2.344-1.97514-.475.88024.015.0078.014.0073zm-6.96.01451.449.89353.014-.0074.015-.0078zm-2.336 1.98483-.815-.5795zm-1.314 3.0028-.972-.2326zm-.023 17.8801-.978.2046zm1.267 2.9973.812-.5829zm2.344 1.9752-.446.8953.016.0076.015.007zm-10.919-18.6373c-.011-5.2783 1.298-9.2304 3.796-11.99626l-1.485-1.34029c-2.93 3.24546-4.323 7.73895-4.311 13.34075zm3.791-11.99089c2.529-2.76094 6.038-4.18965 10.655-4.19928l-.004-1.999993c-5.063.010555-9.148 1.597683-12.126 4.848233zm10.655-4.19928c4.618-.00962 8.109 1.40451 10.608 4.14958l1.479-1.34646c-2.953-3.24357-7.029-4.813668-12.091-4.803113zm10.613 4.15494c2.546 2.75556 3.89 6.70013 3.901 11.97483l2-.0042c-.012-5.6052-1.445-10.09488-4.432-13.32781zm3.901 11.97483.019 9.36 2-.0042-.019-9.36zm.019 9.36c.012 5.4459-1.321 9.424-3.841 12.1011l1.456 1.3708c2.988-3.1744 4.397-7.722 4.385-13.4761zm-3.846 12.1064c-2.486 2.6798-5.974 4.0741-10.6 4.0837l.004 2c5.054-.0105 9.12-1.552 12.062-4.7235zm-10.6 4.0837c-4.626.0097-8.143-1.3699-10.682-4.0446l-1.45 1.3769c2.993 3.1538 7.082 4.6783 12.136 4.6677zm-10.677-4.0393c-2.494-2.6664-3.825-6.641-3.837-12.0904l-2 .0041c.012 5.7506 1.419 10.2903 4.377 13.4525zm-3.837-12.0904-.019-9.36-2 .0042.019 9.3599zm14.503 10.9298c1.535-.0032 2.887-.2395 4.015-.7594l-.837-1.8163c-.79.3641-1.836.5729-3.182.5757zm4.046-.7741c1.099-.5522 2.005-1.3192 2.702-2.2988l-1.63-1.1591c-.5.703-1.151 1.2592-1.97 1.671zm2.702-2.2988c.69-.9703 1.157-2.1047 1.418-3.3816l-1.959-.4011c-.214 1.0441-.583 1.9114-1.089 2.6236zm1.418-3.3816c.254-1.2379.375-2.5872.372-4.0434l-2 .0042c.003 1.3438-.11 2.555-.331 3.6381zm.372-4.0434-.021-10.3199-2 .0041.021 10.32zm-.021-10.3199c-.003-1.3908-.153-2.7099-.456-3.9537l-1.944.4733c.262 1.075.397 2.2353.4 3.4845zm-.456-3.9537c-.308-1.2648-.798-2.3857-1.486-3.3436l-1.625 1.1659c.517.7197.911 1.5969 1.167 2.651zm-1.486-3.3436c-.7-.97658-1.61-1.73985-2.711-2.28749l-.891 1.79069c.821.4084 1.475.9618 1.977 1.6627zm-2.682-2.27242c-1.139-.61401-2.472-.89556-3.958-.89246l.004 2c1.234-.00258 2.222.23104 3.005.65298zm-3.958-.89246c-1.486.0031-2.818.2902-3.954.90896l.956 1.75662c.781-.42528 1.768-.66301 3.002-.66558zm-3.925.89376c-1.099.55224-2.005 1.31929-2.702 2.29882l1.63 1.1591c.5-.703 1.151-1.2592 1.97-1.6709zm-2.702 2.29882c-.683.9607-1.169 2.0836-1.471 3.3497l1.945.4652c.252-1.0551.643-1.934 1.156-2.6558zm-1.471 3.3497c-.298 1.2451-.443 2.5648-.44 3.9555l2-.0041c-.003-1.2492.127-2.4101.385-3.4862zm-.44 3.9555.021 10.32 2-.0041-.021-10.32zm.021 10.32c.003 1.4562.131 2.805.39 4.0418l1.957-.4093c-.226-1.0821-.344-2.2928-.347-3.6366zm.39 4.0418c.266 1.2758.738 2.4083 1.432 3.3757l1.625-1.1659c-.509-.7101-.882-1.5759-1.1-2.6191zm1.432 3.3757c.701.9766 1.61 1.7399 2.711 2.2875l.891-1.7907c-.821-.4083-1.474-.9618-1.977-1.6627zm2.742 2.3021c1.13.5152 2.484.7458 4.018.7426l-.004-2c-1.345.0028-2.393-.2016-3.184-.5625zm46.459 2.0541-.991.1303.114.8715.879-.0018zm1.08-.0023.002 1 1-.0021-.002-1zm-.079-38.0399-.002-1-1 .00209.002 1zm7.92-.01651 1-.00209-.002-.99999-1 .00208zm.088 41.99991.002 1 1-.0021-.002-1zm-15.48.0323-.992.1303.115.8715.879-.0018zm-5-38.02969.992-.13033-.115-.8715-.879.00184zm-1.08.00226-.002-1-1 .00208.002 1zm.08 38.03993.002 1 1-.0021-.002-1zm-7.92.0165-1 .0021.002 1 1-.0021zm-.088-41.99992-.002-.99999-1 .00208.002 1zm15.48-.03227.991-.13033-.114-.8715-.879.00183zm5.001 39.02969 1.08-.0023-.004-2-1.08.0023zm2.078-1.0044-.079-38.03988-2 .00417.079 38.03991zm-1.077-37.0378 7.92-.01651-.004-2-7.92.01651zm6.918-1.01443.088 41.99993 2-.0042-.088-41.9999zm1.085 40.99783-15.479.0323.004 2 15.48-.0323zm-14.486.9019-4.999-38.02962-1.983.26067 4.999 38.02965zm-5.993-38.89928-1.08.00225.004 1.99999 1.08-.00225zm-2.078 1.00433.08 38.03995 2-.0042-.08-38.03992zm1.078 37.03785-7.92.0165.004 2 7.92-.0165zm-6.918 1.0144-.088-41.9999-2 .00417.088 41.99993zm-1.086-40.99782 15.48-.03227-.004-2-15.48.03228zm14.487-.90193 4.999 38.02965 1.983-.2607-5-38.02962z" fill="#30efd3"/></svg>