<svg width="340" height="166" viewBox="0 0 340 166" fill="none" xmlns="http://www.w3.org/2000/svg">
<path d="M57.9944 142.16L59.7841 144.568L59.8054 144.552L59.8265 144.536L57.9944 142.16ZM62.2958 136.809L59.5341 135.637L59.5279 135.652L59.5218 135.667L62.2958 136.809ZM63.5878 130.094L66.5876 130.058L66.5875 130.046L66.5873 130.035L63.5878 130.094ZM62.2059 120.225L61.5822 117.291L58.6477 117.915L59.2714 120.849L62.2059 120.225ZM80.2821 116.383L83.2165 115.759L82.5928 112.825L79.6583 113.449L80.2821 116.383ZM77.3857 147.199L74.8456 145.603L74.8452 145.603L77.3857 147.199ZM25.1736 157.438L26.8599 154.957L26.8599 154.957L25.1736 157.438ZM3.81904 91.9876L6.79819 92.3406L6.79918 92.3322L6.80014 92.3238L3.81904 91.9876ZM8.32027 78.1493L10.8819 79.7107L10.8926 79.6932L10.903 79.6756L8.32027 78.1493ZM17.9194 68.0938L19.5793 70.5927L19.6017 70.5779L19.6238 70.5626L17.9194 68.0938ZM60.1831 66.2668L58.4737 68.7321L58.4927 68.7453L58.5118 68.7581L60.1831 66.2668ZM69.28 76.0696L66.6934 77.5893L66.7075 77.6134L66.7221 77.6372L69.28 76.0696ZM75.2756 92.8293L75.8993 95.7638L78.8337 95.14L78.21 92.2056L75.2756 92.8293ZM57.1994 96.6715L54.2649 97.2953L54.8887 100.23L57.8231 99.606L57.1994 96.6715ZM54.3984 87.5342L57.1063 86.2429L54.3984 87.5342ZM44.2146 78.678L43.3654 81.5553L43.4125 81.5693L43.4601 81.5816L44.2146 78.678ZM28.1925 82.0836L30.0627 84.4293L30.1012 84.3987L30.1386 84.3668L28.1925 82.0836ZM23.7045 87.9039L26.4167 89.1862L26.431 89.156L26.4446 89.1254L23.7045 87.9039ZM21.8733 95.4495L18.8787 95.2705L18.8765 95.3067L18.8752 95.3429L21.8733 95.4495ZM30.5474 136.258L27.8413 137.553L27.8465 137.564L27.8519 137.575L30.5474 136.258ZM41.2876 145.711L40.5332 148.615L40.6046 148.634L40.6767 148.649L41.2876 145.711ZM50.448 148.406C54.1677 147.615 57.3428 146.383 59.7841 144.568L56.2047 139.753C54.6908 140.878 52.4192 141.853 49.2005 142.537L50.448 148.406ZM59.8265 144.536C62.2075 142.7 64.014 140.515 65.0698 137.951L59.5218 135.667C58.9414 137.076 57.8803 138.46 56.1622 139.785L59.8265 144.536ZM65.0575 137.981C66.1167 135.485 66.621 132.833 66.5876 130.058L60.588 130.13C60.6119 132.113 60.2549 133.938 59.5341 135.637L65.0575 137.981ZM66.5873 130.035C66.5354 127.371 66.227 124.714 65.6643 122.067L59.7954 123.314C60.2806 125.597 60.5441 127.875 60.5884 130.152L66.5873 130.035ZM65.6643 122.067L65.1403 119.602L59.2714 120.849L59.7954 123.314L65.6643 122.067ZM62.8296 123.16L80.9058 119.318L79.6583 113.449L61.5822 117.291L62.8296 123.16ZM77.3476 117.007L77.8716 119.472L83.7404 118.224L83.2165 115.759L77.3476 117.007ZM77.8716 119.472C80.1884 130.372 79.0172 138.964 74.8456 145.603L79.9258 148.795C85.1659 140.456 86.2749 130.148 83.7404 118.224L77.8716 119.472ZM74.8452 145.603C70.774 152.085 63.5904 156.654 52.6934 158.97L53.9409 164.839C65.8674 162.304 74.7295 157.068 79.9262 148.794L74.8452 145.603ZM52.6934 158.97C42.3766 161.163 33.8658 159.718 26.8599 154.957L23.4873 159.919C32.0957 165.77 42.3473 167.303 53.9409 164.839L52.6934 158.97ZM26.8599 154.957C19.9048 150.23 14.9407 142.002 12.3223 129.683L6.45337 130.931C9.26837 144.174 14.8281 154.034 23.4873 159.919L26.8599 154.957ZM12.3223 129.683L7.78147 108.321L1.91258 109.568L6.45337 130.931L12.3223 129.683ZM7.78147 108.321C6.5365 102.464 6.22874 97.1457 6.79819 92.3406L0.839883 91.6345C0.179701 97.2052 0.557259 103.192 1.91258 109.568L7.78147 108.321ZM6.80014 92.3238C7.3539 87.4139 8.73549 83.2322 10.8819 79.7107L5.75862 76.5879C3.09423 80.9592 1.475 86.0029 0.837939 91.6514L6.80014 92.3238ZM10.903 79.6756C13.0523 76.0385 15.9323 73.0154 19.5793 70.5927L16.2594 65.5949C11.8796 68.5043 8.36021 72.1849 5.73752 76.6231L10.903 79.6756ZM19.6238 70.5626C23.2456 68.0623 27.6013 66.2403 32.7505 65.1458L31.5031 59.2769C25.6971 60.511 20.5812 62.6107 16.215 65.625L19.6238 70.5626ZM32.7505 65.1458C38.1305 64.0023 42.958 63.7927 47.2679 64.4411L48.1606 58.5079C43.0076 57.7326 37.4436 58.0142 31.5031 59.2769L32.7505 65.1458ZM47.2679 64.4411C51.5906 65.0914 55.3054 66.5354 58.4737 68.7321L61.8924 63.8014C57.8984 61.0321 53.3006 59.2812 48.1606 58.5079L47.2679 64.4411ZM58.5118 68.7581C61.785 70.9539 64.5137 73.8793 66.6934 77.5893L71.8666 74.55C69.262 70.1167 65.9261 66.5069 61.8544 63.7754L58.5118 68.7581ZM66.7221 77.6372C68.9987 81.3519 70.7115 85.7861 71.8172 90.9881L77.6861 89.7407C76.4632 83.9874 74.5282 78.8918 71.8378 74.502L66.7221 77.6372ZM71.8172 90.9881L72.3411 93.4531L78.21 92.2056L77.6861 89.7407L71.8172 90.9881ZM74.6518 89.8949L56.5756 93.7371L57.8231 99.606L75.8993 95.7638L74.6518 89.8949ZM60.1338 96.0478L59.6099 93.5829L53.741 94.8303L54.2649 97.2953L60.1338 96.0478ZM59.6099 93.5829C59.0743 91.0634 58.2378 88.6156 57.1063 86.2429L51.6906 88.8256C52.6248 90.7847 53.3063 92.7851 53.741 94.8303L59.6099 93.5829ZM57.1063 86.2429C55.9201 83.7556 54.3519 81.5846 52.3961 79.7603L48.3035 84.1478C49.6801 85.4319 50.8109 86.981 51.6906 88.8256L57.1063 86.2429ZM52.3961 79.7603C50.3297 77.8328 47.827 76.517 44.969 75.7744L43.4601 81.5816C45.45 82.0987 47.0374 82.9669 48.3035 84.1478L52.3961 79.7603ZM45.0638 75.8007C42.0135 74.9005 38.6204 74.9394 34.996 75.7098L36.2435 81.5787C39.1922 80.9519 41.529 81.0134 43.3654 81.5553L45.0638 75.8007ZM34.996 75.7098C31.5966 76.4324 28.6367 77.7631 26.2464 79.8005L30.1386 84.3668C31.6259 83.0991 33.6175 82.1369 36.2435 81.5787L34.996 75.7098ZM26.3223 79.7379C23.9829 81.6031 22.1912 83.9308 20.9645 86.6824L26.4446 89.1254C27.2855 87.2392 28.4857 85.6867 30.0627 84.4293L26.3223 79.7379ZM20.9924 86.6217C19.7542 89.2405 19.066 92.1382 18.8787 95.2705L24.868 95.6286C25.0159 93.1553 25.5485 91.0226 26.4167 89.1862L20.9924 86.6217ZM18.8752 95.3429C18.7702 98.2975 19.0489 101.304 19.6977 104.357L25.5666 103.109C25.0123 100.501 24.7851 97.9857 24.8715 95.5561L18.8752 95.3429ZM19.6977 104.357L24.8206 128.458L30.6895 127.211L25.5666 103.109L19.6977 104.357ZM24.8206 128.458C25.523 131.762 26.524 134.8 27.8413 137.553L33.2536 134.963C32.1672 132.693 31.3067 130.114 30.6895 127.211L24.8206 128.458ZM27.8519 137.575C29.18 140.293 30.8755 142.632 32.9611 144.541L37.0117 140.114C35.5434 138.771 34.2797 137.063 33.243 134.941L27.8519 137.575ZM32.9611 144.541C35.1135 146.511 37.6552 147.867 40.5332 148.615L42.0421 142.808C40.0723 142.296 38.4131 141.397 37.0117 140.114L32.9611 144.541ZM40.6767 148.649C43.6772 149.273 46.9559 149.148 50.448 148.406L49.2005 142.537C46.3021 143.153 43.8897 143.188 41.8985 142.774L40.6767 148.649ZM91.8667 60.2479L89.2848 58.7201L89.2793 58.7295L89.2738 58.7389L91.8667 60.2479ZM143.767 49.2161L142.012 51.6492L142.021 51.6556L142.03 51.6619L143.767 49.2161ZM160.65 128.642L158.089 127.079L158.083 127.089L158.077 127.098L160.65 128.642ZM108.749 139.673L107.027 142.13L107.036 142.136L107.045 142.142L108.749 139.673ZM141.296 124.454L143.086 126.862L143.127 126.831L143.166 126.8L141.296 124.454ZM145.676 118.8L148.427 119.998L145.676 118.8ZM147.097 111.341L150.097 111.325L150.097 111.325L147.097 111.341ZM138.286 70.5622L140.992 69.2674L140.992 69.2674L138.286 70.5622ZM133.817 64.3556L135.843 62.1424L135.843 62.1424L133.817 64.3556ZM127.516 60.9717L126.667 63.849L126.714 63.8629L126.762 63.8753L127.516 60.9717ZM111.631 64.3482L113.501 66.6939L113.54 66.6633L113.577 66.6314L111.631 64.3482ZM107.251 70.0024L104.501 68.8044L104.501 68.8044L107.251 70.0024ZM105.694 77.4898L102.695 77.4076L102.695 77.4076L105.694 77.4898ZM114.231 118.327L111.484 119.533L114.231 118.327ZM118.562 124.563L120.587 122.35L118.562 124.563ZM124.863 127.947L124.109 130.85L124.158 130.863L124.208 130.874L124.863 127.947ZM91.6309 90.4979C89.0927 78.5566 90.1945 69.0857 94.4596 61.7568L89.2738 58.7389C84.0337 67.7432 83.022 78.8549 85.762 91.7454L91.6309 90.4979ZM94.4485 61.7756C98.7852 54.4468 105.933 49.5904 116.326 47.3813L115.079 41.5124C103.379 43.9993 94.636 49.6769 89.2848 58.7201L94.4485 61.7756ZM116.326 47.3813C126.721 45.1719 135.169 46.7133 142.012 51.6492L145.522 46.7829C137.039 40.6639 126.777 39.0258 115.079 41.5124L116.326 47.3813ZM142.03 51.6619C148.99 56.6054 153.887 64.7948 156.423 76.7258L162.292 75.4784C159.55 62.5775 154.054 52.8429 145.504 46.7702L142.03 51.6619ZM156.423 76.7258L160.964 98.0886L166.833 96.8411L162.292 75.4784L156.423 76.7258ZM160.964 98.0886C163.585 110.418 162.438 119.95 158.089 127.079L163.211 130.204C168.627 121.326 169.646 110.074 166.833 96.8411L160.964 98.0886ZM158.077 127.098C153.804 134.219 146.688 138.991 136.269 141.205L137.516 147.074C149.19 144.593 157.913 139.032 163.222 130.185L158.077 127.098ZM136.269 141.205C125.851 143.42 117.354 141.967 110.453 137.204L107.045 142.142C115.576 148.031 125.841 149.556 137.516 147.074L136.269 141.205ZM110.471 137.217C103.681 132.457 98.7944 124.2 96.1717 111.861L90.3028 113.108C93.1134 126.331 98.5686 136.2 107.027 142.13L110.471 137.217ZM96.1717 111.861L91.6309 90.4979L85.762 91.7454L90.3028 113.108L96.1717 111.861ZM134.024 130.641C137.587 129.884 140.66 128.665 143.086 126.862L139.506 122.046C137.977 123.183 135.785 124.133 132.776 124.772L134.024 130.641ZM143.166 126.8C145.491 124.946 147.261 122.673 148.427 119.998L142.926 117.602C142.167 119.343 141.017 120.84 139.426 122.108L143.166 126.8ZM148.427 119.998C149.578 117.354 150.113 114.446 150.097 111.325L144.097 111.358C144.11 113.765 143.698 115.829 142.926 117.602L148.427 119.998ZM150.097 111.325C150.08 108.324 149.704 105.139 148.99 101.779L143.121 103.026C143.765 106.057 144.083 108.831 144.097 111.358L150.097 111.325ZM148.99 101.779L143.983 78.2251L138.114 79.4725L143.121 103.026L148.99 101.779ZM143.983 78.2251C143.299 75.0047 142.306 72.0142 140.992 69.2674L135.579 71.8571C136.669 74.1336 137.518 76.6676 138.114 79.4725L143.983 78.2251ZM140.992 69.2674C139.649 66.4623 137.944 64.0654 135.843 62.1424L131.792 66.5687C133.245 67.898 134.518 69.6388 135.579 71.8571L140.992 69.2674ZM135.843 62.1424C133.69 60.1726 131.149 58.8159 128.271 58.0681L126.762 63.8753C128.732 64.3871 130.391 65.2863 131.792 66.5687L135.843 62.1424ZM128.365 58.0944C125.34 57.2015 122.046 57.2068 118.572 57.9453L119.819 63.8142C122.553 63.2331 124.806 63.2998 126.667 63.849L128.365 58.0944ZM118.572 57.9453C115.097 58.6837 112.086 60.0187 109.685 62.065L113.577 66.6314C115.054 65.3726 117.085 64.3953 119.819 63.8142L118.572 57.9453ZM109.761 62.0025C107.436 63.8562 105.666 66.1294 104.501 68.8044L110.001 71.2005C110.76 69.459 111.91 67.9627 113.501 66.6939L109.761 62.0025ZM104.501 68.8044C103.363 71.4158 102.78 74.2991 102.695 77.4076L108.693 77.5721C108.76 75.1139 109.215 73.0056 110.001 71.2005L104.501 68.8044ZM102.695 77.4076C102.611 80.4516 102.921 83.5872 103.605 86.8077L109.474 85.5602C108.878 82.7552 108.623 80.0948 108.693 77.5721L102.695 77.4076ZM103.605 86.8077L108.612 110.361L114.481 109.114L109.474 85.5602L103.605 86.8077ZM108.612 110.361C109.326 113.722 110.278 116.784 111.484 119.533L116.978 117.122C115.963 114.808 115.125 112.144 114.481 109.114L108.612 110.361ZM111.484 119.533C112.737 122.39 114.409 124.829 116.537 126.776L120.587 122.35C119.161 121.044 117.945 119.327 116.978 117.122L111.484 119.533ZM116.537 126.776C118.689 128.746 121.231 130.103 124.109 130.85L125.618 125.043C123.648 124.531 121.989 123.632 120.587 122.35L116.537 126.776ZM124.208 130.874C127.157 131.535 130.46 131.399 134.024 130.641L132.776 124.772C129.767 125.412 127.379 125.436 125.519 125.019L124.208 130.874ZM164.355 36.1093L163.731 33.1748L160.797 33.7986L161.42 36.733L164.355 36.1093ZM227.343 31.4515L225.75 33.9936L225.76 34.0001L225.771 34.0066L227.343 31.4515ZM244.196 110.74L246.671 112.435L246.678 112.425L246.685 112.414L244.196 110.74ZM184.73 131.968L181.796 132.591L182.419 135.526L185.354 134.902L184.73 131.968ZM181.033 114.576L180.41 111.642L177.475 112.266L178.099 115.2L181.033 114.576ZM190.071 112.655L190.695 115.59L193.63 114.966L193.006 112.031L190.071 112.655ZM177.06 51.4427L179.995 50.819L179.371 47.8845L176.437 48.5082L177.06 51.4427ZM168.022 53.3638L165.088 53.9875L165.712 56.922L168.646 56.2982L168.022 53.3638ZM228.06 100.143L225.419 98.7205L225.415 98.7278L228.06 100.143ZM216.854 47.4213L215.051 49.8189L215.072 49.8352L215.094 49.8511L216.854 47.4213ZM195.137 47.6005L194.513 44.666L191.578 45.2898L192.202 48.2242L195.137 47.6005ZM208.177 108.95L205.242 109.574L205.866 112.508L208.8 111.884L208.177 108.95ZM164.978 39.0437L199.761 31.6504L198.514 25.7815L163.731 33.1748L164.978 39.0437ZM199.761 31.6504C211.231 29.2125 219.733 30.2231 225.75 33.9936L228.936 28.9095C221.082 23.9872 210.781 23.1741 198.514 25.7815L199.761 31.6504ZM225.771 34.0066C231.719 37.6664 236.106 44.6865 238.479 55.8494L244.348 54.6019C241.791 42.5761 236.798 33.7469 228.915 28.8964L225.771 34.0066ZM238.479 55.8494L244.417 83.7853L250.286 82.5378L244.348 54.6019L238.479 55.8494ZM244.417 83.7853C246.788 94.9436 245.651 103.202 241.707 109.066L246.685 112.414C251.877 104.696 252.843 94.5681 250.286 82.5378L244.417 83.7853ZM241.721 109.045C237.742 114.857 230.37 119.2 218.889 121.64L220.137 127.509C232.392 124.904 241.476 120.024 246.671 112.435L241.721 109.045ZM218.889 121.64L184.106 129.033L185.354 134.902L220.137 127.509L218.889 121.64ZM187.664 131.344L183.968 113.953L178.099 115.2L181.796 132.591L187.664 131.344ZM181.657 117.511L190.695 115.59L189.448 109.721L180.41 111.642L181.657 117.511ZM193.006 112.031L179.995 50.819L174.126 52.0664L187.137 113.279L193.006 112.031ZM176.437 48.5082L167.399 50.4294L168.646 56.2982L177.684 54.3771L176.437 48.5082ZM170.957 52.7401L167.289 35.4855L161.42 36.733L165.088 53.9875L170.957 52.7401ZM216.469 110.254C223.086 108.848 228.238 106.169 230.705 101.559L225.415 98.7278C224.195 101.008 221.203 103.114 215.222 104.385L216.469 110.254ZM230.701 101.566C233.104 97.106 233.264 91.3422 231.86 84.7367L225.991 85.9842C227.265 91.9773 226.848 96.0688 225.419 98.7205L230.701 101.566ZM231.86 84.7367L226.271 58.4441L220.403 59.6916L225.991 85.9842L231.86 84.7367ZM226.271 58.4441C225.019 52.5537 222.59 47.8714 218.613 44.9915L215.094 49.8511C217.433 51.5447 219.326 54.6267 220.403 59.6916L226.271 58.4441ZM218.657 45.0236C214.546 41.9317 208.775 41.6346 202.181 43.036L203.429 48.9049C209.434 47.6284 213.029 48.2985 215.051 49.8189L218.657 45.0236ZM202.181 43.036L194.513 44.666L195.76 50.5349L203.429 48.9049L202.181 43.036ZM192.202 48.2242L205.242 109.574L211.111 108.326L198.071 46.9767L192.202 48.2242ZM208.8 111.884L216.469 110.254L215.222 104.385L207.553 106.015L208.8 111.884ZM253.134 17.2386L252.51 14.3042L249.576 14.9279L250.2 17.8624L253.134 17.2386ZM313.662 4.37307L316.596 3.74933L315.972 0.814891L313.038 1.43863L313.662 4.37307ZM317.329 21.6276L317.953 24.562L320.887 23.9383L320.264 21.0039L317.329 21.6276ZM274.878 30.651L274.254 27.7165L271.32 28.3403L271.943 31.2747L274.878 30.651ZM279.535 52.5615L276.6 53.1852L277.224 56.1197L280.159 55.4959L279.535 52.5615ZM320.343 43.8874L323.278 43.2637L322.654 40.3292L319.719 40.953L320.343 43.8874ZM324.011 61.1419L324.635 64.0764L327.569 63.4526L326.945 60.5182L324.011 61.1419ZM283.202 69.816L282.579 66.8816L279.644 67.5053L280.268 70.4397L283.202 69.816ZM287.918 92.0004L284.983 92.6241L285.607 95.5586L288.542 94.9348L287.918 92.0004ZM332.013 82.6277L334.947 82.004L334.324 79.0696L331.389 79.6933L332.013 82.6277ZM335.68 99.8823L336.304 102.817L339.239 102.193L338.615 99.2585L335.68 99.8823ZM273.509 113.097L270.575 113.721L271.199 116.655L274.133 116.032L273.509 113.097ZM253.758 20.1731L314.285 7.30751L313.038 1.43863L252.51 14.3042L253.758 20.1731ZM310.727 4.9968L314.395 22.2513L320.264 21.0039L316.596 3.74933L310.727 4.9968ZM316.706 18.6932L274.254 27.7165L275.501 33.5854L317.953 24.562L316.706 18.6932ZM271.943 31.2747L276.6 53.1852L282.469 51.9377L277.812 30.0272L271.943 31.2747ZM280.159 55.4959L320.967 46.8218L319.719 40.953L278.911 49.627L280.159 55.4959ZM317.409 44.5111L321.076 61.7657L326.945 60.5182L323.278 43.2637L317.409 44.5111ZM323.387 58.2075L282.579 66.8816L283.826 72.7504L324.635 64.0764L323.387 58.2075ZM280.268 70.4397L284.983 92.6241L290.852 91.3767L286.137 69.1923L280.268 70.4397ZM288.542 94.9348L332.637 85.5622L331.389 79.6933L287.294 89.0659L288.542 94.9348ZM329.078 83.2515L332.746 100.506L338.615 99.2585L334.947 82.004L329.078 83.2515ZM335.057 96.9478L272.886 110.163L274.133 116.032L336.304 102.817L335.057 96.9478ZM276.444 112.473L256.068 16.6149L250.2 17.8624L270.575 113.721L276.444 112.473Z" fill="#BCFF16"/>
</svg>
