<svg width="527" height="586" viewBox="0 0 527 586" fill="none" xmlns="http://www.w3.org/2000/svg">
<path d="M111.059 138.39L111.042 141.008L111.065 141.008L111.088 141.008L111.059 138.39ZM116.764 136.946L115.454 134.679L115.442 134.686L115.43 134.693L116.764 136.946ZM121.112 133.016L123.222 134.566L123.227 134.558L123.233 134.55L121.112 133.016ZM125.257 125.547L126.363 123.175L123.99 122.068L122.884 124.441L125.257 125.547ZM139.613 132.242L141.985 133.348L143.091 130.975L140.719 129.869L139.613 132.242ZM121.734 151.842L120.802 149.396L120.801 149.396L121.734 151.842ZM80.7106 131.918L83.1888 131.075L80.7106 131.918ZM99.8544 76.099L101.745 77.9095L101.75 77.9042L101.755 77.8988L99.8544 76.099ZM110.074 68.948L111.039 71.3814L111.056 71.3748L111.072 71.368L110.074 68.948ZM121.832 67.0162L121.677 69.6294L121.7 69.6308L121.723 69.6318L121.832 67.0162ZM151.706 87.5668L149.22 88.3873L149.226 88.4064L149.233 88.4254L151.706 87.5668ZM152.877 98.9699L150.276 98.6706L150.273 98.6948L150.271 98.7191L152.877 98.9699ZM148.335 113.535L147.229 115.908L149.602 117.014L150.708 114.642L148.335 113.535ZM133.979 106.841L131.607 105.735L130.501 108.107L132.873 109.214L133.979 106.841ZM136.776 99.1414L139.341 99.6635L136.776 99.1414ZM134.373 87.8257L132.27 89.3849L132.295 89.4194L132.322 89.453L134.373 87.8257ZM121.648 81.8921L121.72 84.509L121.762 84.5078L121.805 84.5052L121.648 81.8921ZM115.573 83.5613L116.79 85.8792L116.816 85.8656L116.842 85.8515L115.573 83.5613ZM110.428 87.782L108.435 86.0846L108.414 86.1087L108.394 86.1333L110.428 87.782ZM95.3148 120.192L92.7489 119.673L92.7468 119.683L92.7447 119.694L95.3148 120.192ZM97.7904 132.203L95.7398 133.831L95.7798 133.881L95.8222 133.929L97.7904 132.203ZM102.652 138.815C105.609 140.194 108.425 140.991 111.042 141.008L111.076 135.773C109.468 135.762 107.417 135.26 104.864 134.07L102.652 138.815ZM111.088 141.008C113.672 140.979 116.043 140.414 118.097 139.199L115.43 134.693C114.314 135.354 112.883 135.752 111.029 135.773L111.088 141.008ZM118.073 139.213C120.091 138.047 121.809 136.488 123.222 134.566L119.003 131.465C118 132.83 116.818 133.891 115.454 134.679L118.073 139.213ZM123.233 134.55C124.574 132.697 125.735 130.716 126.716 128.611L121.971 126.399C121.127 128.209 120.134 129.902 118.991 131.481L123.233 134.55ZM126.716 128.611L127.629 126.654L122.884 124.441L121.971 126.399L126.716 128.611ZM124.15 127.92L138.506 134.614L140.719 129.869L126.363 123.175L124.15 127.92ZM137.24 131.135L136.327 133.093L141.072 135.306L141.985 133.348L137.24 131.135ZM136.327 133.093C132.294 141.742 127.068 147.009 120.802 149.396L122.666 154.289C130.569 151.278 136.653 144.782 141.072 135.306L136.327 133.093ZM120.801 149.396C114.686 151.727 107.425 151.153 98.7786 147.121L96.5659 151.866C106.045 156.286 114.826 157.277 122.666 154.288L120.801 149.396ZM98.7786 147.121C90.5942 143.304 85.5236 137.934 83.1888 131.075L78.2324 132.762C81.112 141.222 87.3492 147.568 96.5659 151.866L98.7786 147.121ZM83.1888 131.075C80.8712 124.266 81.7133 116.086 86.2723 106.309L81.5271 104.097C76.6195 114.621 75.3355 124.251 78.2324 132.762L83.1888 131.075ZM86.2723 106.309L94.1837 89.3433L89.4386 87.1306L81.5271 104.097L86.2723 106.309ZM94.1837 89.3433C96.351 84.6954 98.8809 80.9008 101.745 77.9095L97.9637 74.2884C94.6341 77.7656 91.8017 82.0629 89.4386 87.1306L94.1837 89.3433ZM101.755 77.8988C104.663 74.8276 107.761 72.6819 111.039 71.3814L109.109 66.5146C105.023 68.1353 101.307 70.757 97.9535 74.2991L101.755 77.8988ZM111.072 71.368C114.413 69.9897 117.937 69.4069 121.677 69.6294L121.988 64.403C117.482 64.1349 113.167 64.84 109.076 66.528L111.072 71.368ZM121.723 69.6318C125.486 69.7881 129.401 70.786 133.486 72.6907L135.699 67.9456C131.083 65.7932 126.492 64.5897 121.941 64.4006L121.723 69.6318ZM133.486 72.6907C137.754 74.6812 141.162 77.025 143.774 79.6874L147.512 76.0213C144.379 72.8278 140.42 70.1475 135.699 67.9456L133.486 72.6907ZM143.774 79.6874C146.393 82.3578 148.187 85.2566 149.22 88.3873L154.192 86.7464C152.884 82.783 150.636 79.2067 147.512 76.0213L143.774 79.6874ZM149.233 88.4254C150.338 91.6099 150.697 95.013 150.276 98.6706L155.477 99.2692C155.982 94.8845 155.56 90.6856 154.179 86.7083L149.233 88.4254ZM150.271 98.7191C149.914 102.43 148.8 106.344 146.876 110.471L151.621 112.684C153.753 108.111 155.059 103.62 155.482 99.2207L150.271 98.7191ZM146.876 110.471L145.963 112.429L150.708 114.642L151.621 112.684L146.876 110.471ZM149.442 111.163L135.086 104.469L132.873 109.214L147.229 115.908L149.442 111.163ZM136.352 107.948L137.265 105.99L132.52 103.777L131.607 105.735L136.352 107.948ZM137.265 105.99C138.2 103.986 138.891 101.875 139.341 99.6635L134.21 98.6193C133.84 100.439 133.276 102.156 132.52 103.777L137.265 105.99ZM139.341 99.6635C139.813 97.3436 139.859 95.0426 139.461 92.7788L134.304 93.6873C134.583 95.2704 134.559 96.9083 134.21 98.6193L139.341 99.6635ZM139.461 92.7788C139.039 90.3852 138.001 88.1864 136.423 86.1984L132.322 89.453C133.413 90.828 134.048 92.2341 134.304 93.6873L139.461 92.7788ZM136.475 86.2664C134.846 84.0689 132.496 82.3409 129.613 80.9964L127.4 85.7416C129.737 86.8313 131.298 88.0745 132.27 89.3849L136.475 86.2664ZM129.613 80.9964C126.907 79.7349 124.187 79.1168 121.491 79.279L121.805 84.5052C123.468 84.4052 125.32 84.7717 127.4 85.7416L129.613 80.9964ZM121.577 79.2753C119.005 79.3455 116.571 80.0167 114.305 81.2711L116.842 85.8515C118.384 84.9976 119.999 84.556 121.72 84.509L121.577 79.2753ZM114.357 81.2434C112.152 82.4005 110.182 84.0331 108.435 86.0846L112.421 89.4795C113.794 87.8666 115.254 86.6853 116.79 85.8792L114.357 81.2434ZM108.394 86.1333C106.796 88.1048 105.434 90.31 104.302 92.7373L109.047 94.95C110.011 92.8821 111.151 91.0462 112.461 89.4308L108.394 86.1333ZM104.302 92.7373L95.3759 111.879L100.121 114.091L109.047 94.95L104.302 92.7373ZM95.3759 111.879C94.1509 114.506 93.268 117.105 92.7489 119.673L97.8807 120.71C98.3074 118.6 99.0471 116.394 100.121 114.091L95.3759 111.879ZM92.7447 119.694C92.2505 122.245 92.2044 124.726 92.6488 127.115L97.7961 126.158C97.4853 124.487 97.5008 122.672 97.8848 120.689L92.7447 119.694ZM92.6488 127.115C93.1076 129.582 94.1509 131.828 95.7398 133.831L99.841 130.576C98.7611 129.215 98.0925 127.751 97.7961 126.158L92.6488 127.115ZM95.8222 133.929C97.5595 135.91 99.8739 137.52 102.652 138.815L104.864 134.07C102.567 132.998 100.903 131.782 99.7586 130.477L95.8222 133.929ZM176.5 99.7903L175.503 97.3698L175.494 97.3734L175.485 97.3771L176.5 99.7903ZM217.719 119.011L215.218 119.785L215.221 119.794L215.223 119.803L217.719 119.011ZM188.304 182.09L187.34 179.656L187.331 179.66L187.322 179.663L188.304 182.09ZM147.085 162.869L144.595 163.677L144.598 163.686L144.601 163.695L147.085 162.869ZM177.216 169.24L177.199 171.858L177.243 171.858L177.288 171.857L177.216 169.24ZM183.131 167.629L184.419 169.908L183.131 167.629ZM187.951 163.256L190.05 164.82L187.951 163.256ZM202.955 130.796L205.521 131.315L202.955 130.796ZM203.098 124.242L205.672 123.763L203.098 124.242ZM200.53 118.675L198.427 120.235L198.453 120.269L198.479 120.303L200.53 118.675ZM187.914 112.793L187.986 115.409L188.029 115.408L188.071 115.406L187.914 112.793ZM181.999 114.404L180.711 112.124L181.999 114.404ZM177.071 118.726L175.024 117.094L177.071 118.726ZM161.849 151.085L159.302 150.482L161.849 151.085ZM161.597 157.587L164.171 157.109L161.597 157.587ZM164.165 163.154L162.115 164.782L162.142 164.816L162.171 164.85L164.165 163.154ZM160.776 120.396C165.195 110.919 170.828 105.015 177.514 102.204L175.485 97.3771C167.239 100.844 160.808 107.939 156.031 118.183L160.776 120.396ZM177.497 102.211C184.232 99.4369 191.616 99.7972 199.861 103.642L202.073 98.8967C192.772 94.5594 183.845 93.9338 175.503 97.3698L177.497 102.211ZM199.861 103.642C208.107 107.487 213.084 112.891 215.218 119.785L220.219 118.237C217.564 109.657 211.374 103.234 202.073 98.8967L199.861 103.642ZM215.223 119.803C217.433 126.763 216.565 134.883 212.15 144.352L216.895 146.564C221.676 136.312 222.938 126.8 220.214 118.219L215.223 119.803ZM212.15 144.352L204.238 161.318L208.983 163.53L216.895 146.564L212.15 144.352ZM204.238 161.318C199.675 171.103 193.98 177.026 187.34 179.656L189.269 184.524C197.571 181.235 204.079 174.047 208.983 163.53L204.238 161.318ZM187.322 179.663C180.738 182.328 173.419 181.926 165.153 178.072L162.941 182.817C172.221 187.144 181.074 187.84 189.286 184.517L187.322 179.663ZM165.153 178.072C156.889 174.218 151.832 168.849 149.57 162.044L144.601 163.695C147.409 172.141 153.659 178.489 162.941 182.817L165.153 178.072ZM149.576 162.062C147.388 155.315 148.298 147.155 152.865 137.362L148.12 135.149C143.22 145.657 141.859 155.24 144.595 163.677L149.576 162.062ZM152.865 137.362L160.776 120.396L156.031 118.183L148.12 135.149L152.865 137.362ZM169.026 169.766C171.861 171.088 174.6 171.841 177.199 171.858L177.233 166.622C175.608 166.612 173.625 166.134 171.239 165.021L169.026 169.766ZM177.288 171.857C179.843 171.787 182.234 171.142 184.419 169.908L181.844 165.35C180.433 166.147 178.881 166.576 177.145 166.623L177.288 171.857ZM184.419 169.908C186.577 168.689 188.449 166.969 190.05 164.82L185.852 161.692C184.622 163.342 183.28 164.538 181.844 165.35L184.419 169.908ZM190.05 164.82C191.589 162.754 192.976 160.377 194.222 157.706L189.476 155.494C188.355 157.898 187.143 159.958 185.852 161.692L190.05 164.82ZM194.222 157.706L202.944 139L198.199 136.787L189.476 155.494L194.222 157.706ZM202.944 139C204.138 136.439 205.003 133.877 205.521 131.315L200.389 130.277C199.961 132.393 199.237 134.563 198.199 136.787L202.944 139ZM205.521 131.315C206.05 128.697 206.119 126.17 205.672 123.763L200.524 124.721C200.832 126.373 200.806 128.216 200.389 130.277L205.521 131.315ZM205.672 123.763C205.213 121.297 204.169 119.05 202.581 117.048L198.479 120.303C199.559 121.663 200.228 123.128 200.524 124.721L205.672 123.763ZM202.633 117.116C201.017 114.937 198.752 113.237 195.988 111.948L193.775 116.693C195.941 117.703 197.442 118.906 198.427 120.235L202.633 117.116ZM195.988 111.948C193.223 110.658 190.465 110.016 187.757 110.179L188.071 115.406C189.722 115.306 191.609 115.683 193.775 116.693L195.988 111.948ZM187.843 110.176C185.288 110.245 182.896 110.89 180.711 112.124L183.287 116.683C184.697 115.886 186.249 115.457 187.986 115.409L187.843 110.176ZM180.711 112.124C178.58 113.329 176.689 115.006 175.024 117.094L179.117 120.358C180.428 118.714 181.823 117.51 183.287 116.683L180.711 112.124ZM175.024 117.094C173.394 119.137 171.987 121.447 170.793 124.007L175.538 126.22C176.575 123.995 177.771 122.046 179.117 120.358L175.024 117.094ZM170.793 124.007L162.07 142.714L166.815 144.926L175.538 126.22L170.793 124.007ZM162.07 142.714C160.824 145.384 159.895 147.975 159.302 150.482L164.397 151.687C164.894 149.583 165.694 147.331 166.815 144.926L162.07 142.714ZM159.302 150.482C158.685 153.09 158.57 155.629 159.024 158.066L164.171 157.109C163.869 155.486 163.923 153.69 164.397 151.687L159.302 150.482ZM159.024 158.066C159.482 160.533 160.526 162.779 162.115 164.782L166.216 161.527C165.136 160.166 164.467 158.702 164.171 157.109L159.024 158.066ZM162.171 164.85C163.855 166.83 166.192 168.444 169.026 169.766L171.239 165.021C168.853 163.908 167.212 162.696 166.16 161.458L162.171 164.85ZM235.962 119.442L237.069 117.069L234.696 115.963L233.59 118.335L235.962 119.442ZM261.194 131.207L263.644 132.131L264.499 129.86L262.3 128.835L261.194 131.207ZM238.869 190.442L241.241 191.548L241.283 191.458L241.318 191.365L238.869 190.442ZM233.696 201.535L231.323 200.429L230.217 202.801L232.589 203.908L233.696 201.535ZM236.306 202.752L235.2 205.125L237.572 206.231L238.679 203.859L236.306 202.752ZM241.479 191.659L239.197 190.376L239.148 190.463L239.106 190.553L241.479 191.659ZM272.505 136.482L273.611 134.109L271.412 133.084L270.223 135.198L272.505 136.482ZM297.736 148.247L300.109 149.354L301.215 146.981L298.843 145.875L297.736 148.247ZM262.236 224.377L261.13 226.75L263.503 227.856L264.609 225.483L262.236 224.377ZM249.186 218.291L246.813 217.185L245.707 219.558L248.079 220.664L249.186 218.291ZM272.92 167.393L270.637 166.112L270.589 166.198L270.547 166.287L272.92 167.393ZM282.339 150.601L284.622 151.881L286.003 149.42L283.446 148.228L282.339 150.601ZM279.729 149.383L280.835 147.011L278.651 145.992L277.456 148.085L279.729 149.383ZM242.225 215.046L241.119 217.418L243.303 218.437L244.498 216.344L242.225 215.046ZM220.691 205.004L218.233 204.105L217.408 206.362L219.585 207.377L220.691 205.004ZM246.667 133.966L249.126 134.865L249.951 132.609L247.773 131.594L246.667 133.966ZM244.057 132.749L245.163 130.377L242.606 129.184L241.608 131.823L244.057 132.749ZM237.248 150.759L239.62 151.865L239.662 151.776L239.696 151.685L237.248 150.759ZM213.513 201.657L212.407 204.03L214.78 205.136L215.886 202.763L213.513 201.657ZM200.463 195.571L198.09 194.465L196.984 196.838L199.356 197.944L200.463 195.571ZM234.856 121.814L260.088 133.58L262.3 128.835L237.069 117.069L234.856 121.814ZM258.744 130.284L236.419 189.519L241.318 191.365L263.644 132.131L258.744 130.284ZM236.496 189.336L231.323 200.429L236.068 202.642L241.241 191.548L236.496 189.336ZM232.589 203.908L235.2 205.125L237.412 200.38L234.802 199.163L232.589 203.908ZM238.679 203.859L243.851 192.765L239.106 190.553L233.933 201.646L238.679 203.859ZM243.761 192.942L274.787 137.765L270.223 135.198L239.197 190.376L243.761 192.942ZM271.398 138.854L296.63 150.62L298.843 145.875L273.611 134.109L271.398 138.854ZM295.364 147.141L259.864 223.271L264.609 225.483L300.109 149.354L295.364 147.141ZM263.343 222.005L250.292 215.919L248.079 220.664L261.13 226.75L263.343 222.005ZM251.558 219.398L275.292 168.499L270.547 166.287L246.813 217.185L251.558 219.398ZM275.203 168.674L284.622 151.881L280.056 149.32L270.637 166.112L275.203 168.674ZM283.446 148.228L280.835 147.011L278.623 151.756L281.233 152.973L283.446 148.228ZM277.456 148.085L239.952 213.747L244.498 216.344L282.002 150.682L277.456 148.085ZM243.332 212.673L221.798 202.632L219.585 207.377L241.119 217.418L243.332 212.673ZM223.15 205.903L249.126 134.865L244.208 133.067L218.233 204.105L223.15 205.903ZM247.773 131.594L245.163 130.377L242.95 135.122L245.561 136.339L247.773 131.594ZM241.608 131.823L234.799 149.833L239.696 151.685L246.505 133.675L241.608 131.823ZM234.875 149.653L211.141 200.551L215.886 202.763L239.62 151.865L234.875 149.653ZM214.62 199.285L201.569 193.199L199.356 197.944L212.407 204.03L214.62 199.285ZM202.835 196.678L238.335 120.548L233.59 118.335L198.09 194.465L202.835 196.678ZM307.993 153.03L309.099 150.657L306.726 149.551L305.62 151.923L307.993 153.03ZM358.891 176.764L361.264 177.87L362.37 175.498L359.997 174.391L358.891 176.764ZM352.501 190.467L351.395 192.84L353.767 193.946L354.874 191.574L352.501 190.467ZM334.23 181.947L335.336 179.575L332.964 178.469L331.857 180.841L334.23 181.947ZM311.51 230.671L309.137 229.564L308.031 231.937L310.403 233.043L311.51 230.671ZM329.781 239.191L332.154 240.297L333.26 237.924L330.887 236.818L329.781 239.191ZM323.391 252.894L322.285 255.266L324.657 256.373L325.764 254L323.391 252.894ZM272.493 229.16L270.12 228.053L269.014 230.426L271.386 231.532L272.493 229.16ZM278.883 215.456L279.989 213.084L277.617 211.977L276.51 214.35L278.883 215.456ZM297.154 223.976L296.048 226.349L298.42 227.455L299.526 225.083L297.154 223.976ZM319.874 175.253L322.246 176.36L323.353 173.987L320.98 172.881L319.874 175.253ZM301.603 166.733L299.23 165.627L298.124 167.999L300.496 169.106L301.603 166.733ZM306.886 155.402L357.785 179.137L359.997 174.391L309.099 150.657L306.886 155.402ZM356.518 175.658L350.128 189.361L354.874 191.574L361.264 177.87L356.518 175.658ZM353.607 188.095L335.336 179.575L333.123 184.32L351.395 192.84L353.607 188.095ZM331.857 180.841L309.137 229.564L313.882 231.777L336.602 183.054L331.857 180.841ZM310.403 233.043L328.675 241.563L330.887 236.818L312.616 228.298L310.403 233.043ZM327.408 238.084L321.018 251.788L325.764 254L332.154 240.297L327.408 238.084ZM324.497 250.521L273.599 226.787L271.386 231.532L322.285 255.266L324.497 250.521ZM274.865 230.266L281.255 216.563L276.51 214.35L270.12 228.053L274.865 230.266ZM277.776 217.829L296.048 226.349L298.26 221.604L279.989 213.084L277.776 217.829ZM299.526 225.083L322.246 176.36L317.501 174.147L294.781 222.87L299.526 225.083ZM320.98 172.881L302.709 164.361L300.496 169.106L318.768 177.626L320.98 172.881ZM303.975 167.84L310.365 154.136L305.62 151.923L299.23 165.627L303.975 167.84ZM378.213 269.719L375.718 268.926L375.021 271.119L377.107 272.092L378.213 269.719ZM380.171 270.632L379.065 273.005L381.437 274.111L382.543 271.738L380.171 270.632ZM412.324 201.68L413.43 199.308L411.058 198.201L409.951 200.574L412.324 201.68ZM426.68 208.374L429.052 209.481L430.159 207.108L427.786 206.002L426.68 208.374ZM391.18 284.504L390.073 286.877L392.446 287.983L393.552 285.611L391.18 284.504ZM363.12 271.42L360.626 270.627L359.929 272.82L362.014 273.793L363.12 271.42ZM386.355 198.31L388.85 199.102L389.547 196.909L387.461 195.937L386.355 198.31ZM384.398 197.397L385.504 195.024L383.131 193.918L382.025 196.29L384.398 197.397ZM352.245 266.349L351.138 268.721L353.511 269.828L354.617 267.455L352.245 266.349ZM337.889 259.654L335.516 258.548L334.41 260.921L336.782 262.027L337.889 259.654ZM373.389 183.525L374.495 181.152L372.123 180.046L371.016 182.418L373.389 183.525ZM401.448 196.609L403.943 197.402L404.64 195.209L402.554 194.236L401.448 196.609ZM377.107 272.092L379.065 273.005L381.277 268.26L379.32 267.347L377.107 272.092ZM382.543 271.738L414.696 202.787L409.951 200.574L377.798 269.526L382.543 271.738ZM411.217 204.053L425.573 210.747L427.786 206.002L413.43 199.308L411.217 204.053ZM424.307 207.268L388.807 283.398L393.552 285.611L429.052 209.481L424.307 207.268ZM392.286 282.132L364.227 269.047L362.014 273.793L390.073 286.877L392.286 282.132ZM365.615 272.213L388.85 199.102L383.86 197.517L360.626 270.627L365.615 272.213ZM387.461 195.937L385.504 195.024L383.291 199.769L385.249 200.682L387.461 195.937ZM382.025 196.29L349.872 265.242L354.617 267.455L386.77 198.503L382.025 196.29ZM353.351 263.976L338.995 257.282L336.782 262.027L351.138 268.721L353.351 263.976ZM340.261 260.761L375.761 184.631L371.016 182.418L335.516 258.548L340.261 260.761ZM372.282 185.897L400.342 198.981L402.554 194.236L374.495 181.152L372.282 185.897ZM398.953 195.816L375.718 268.926L380.708 270.512L403.943 197.402L398.953 195.816ZM444.077 262.299L445.183 259.926L442.81 258.82L441.704 261.193L444.077 262.299ZM476.704 277.513L479.076 278.62L480.183 276.247L477.81 275.141L476.704 277.513ZM458.751 316.013L457.645 318.386L460.017 319.492L461.123 317.12L458.751 316.013ZM445.7 309.928L443.327 308.821L442.221 311.194L444.594 312.3L445.7 309.928ZM449.656 301.445L452.028 302.551L453.135 300.178L450.762 299.072L449.656 301.445ZM447.698 300.532L448.804 298.159L447.052 297.342L445.756 298.777L447.698 300.532ZM439.348 305.377L439.911 307.933L439.934 307.928L439.957 307.923L439.348 305.377ZM418.061 296.51L420.013 294.765L418.061 296.51ZM412.81 287.043L410.29 287.753L410.295 287.771L410.3 287.788L412.81 287.043ZM411.943 274.988L409.341 274.703L409.34 274.711L409.34 274.718L411.943 274.988ZM432.693 230.774L430.864 228.902L430.854 228.911L430.844 228.921L432.693 230.774ZM443.079 223.834L442.149 221.387L442.132 221.393L442.114 221.4L443.079 223.834ZM454.845 222.17L454.642 224.78L454.666 224.782L454.689 224.783L454.845 222.17ZM477.959 233.081L476.012 234.831L476.028 234.849L476.044 234.866L477.959 233.081ZM483.921 243.011L481.436 243.834L481.442 243.852L481.448 243.87L483.921 243.011ZM485.251 254.356L482.644 254.123L482.643 254.132L482.642 254.141L485.251 254.356ZM481.471 267.29L480.365 269.663L482.737 270.769L483.843 268.397L481.471 267.29ZM467.115 260.596L464.742 259.49L463.636 261.862L466.009 262.968L467.115 260.596ZM468.952 247.285L466.479 248.143L466.492 248.181L466.506 248.218L468.952 247.285ZM448.796 238.548L449.725 240.996L449.742 240.99L449.758 240.983L448.796 238.548ZM448.276 292.195L447.341 289.749L447.34 289.75L448.276 292.195ZM455.958 284.522L458.33 285.629L459.437 283.256L457.064 282.15L455.958 284.522ZM437.687 276.002L435.314 274.896L434.208 277.269L436.58 278.375L437.687 276.002ZM442.97 264.672L475.597 279.886L477.81 275.141L445.183 259.926L442.97 264.672ZM474.331 276.407L456.378 314.907L461.123 317.12L479.076 278.62L474.331 276.407ZM459.857 313.641L446.806 307.555L444.594 312.3L457.645 318.386L459.857 313.641ZM448.073 311.034L452.028 302.551L447.283 300.338L443.327 308.821L448.073 311.034ZM450.762 299.072L448.804 298.159L446.592 302.904L448.549 303.817L450.762 299.072ZM445.756 298.777C443.945 300.781 441.638 302.137 438.739 302.831L439.957 307.923C443.815 307 447.074 305.127 449.64 302.287L445.756 298.777ZM438.786 302.82C436.248 303.378 432.738 302.848 428.043 300.659L425.83 305.404C430.996 307.813 435.76 308.846 439.911 307.933L438.786 302.82ZM428.043 300.659C424.867 299.178 422.201 297.212 420.013 294.765L416.11 298.255C418.794 301.257 422.045 303.639 425.83 305.404L428.043 300.659ZM420.013 294.765C417.84 292.335 416.276 289.523 415.319 286.299L410.3 287.788C411.472 291.736 413.409 295.235 416.11 298.255L420.013 294.765ZM415.33 286.334C414.402 283.04 414.123 279.359 414.547 275.257L409.34 274.718C408.858 279.375 409.157 283.731 410.29 287.753L415.33 286.334ZM414.546 275.272C414.995 271.167 416.322 266.682 418.596 261.804L413.851 259.592C411.393 264.864 409.866 269.906 409.341 274.703L414.546 275.272ZM418.596 261.804L426.913 243.968L422.168 241.755L413.851 259.592L418.596 261.804ZM426.913 243.968C429.111 239.254 431.666 235.496 434.542 232.628L430.844 228.921C427.448 232.308 424.568 236.609 422.168 241.755L426.913 243.968ZM434.522 232.647C437.552 229.688 440.728 227.583 444.045 226.267L442.114 221.4C438.066 223.006 434.318 225.528 430.864 228.902L434.522 232.647ZM444.009 226.281C447.395 224.994 450.93 224.492 454.642 224.78L455.048 219.56C450.582 219.213 446.273 219.82 442.149 221.387L444.009 226.281ZM454.689 224.783C458.444 225.007 462.287 226.013 466.23 227.852L468.443 223.107C463.975 221.024 459.49 219.824 455 219.557L454.689 224.783ZM466.23 227.852C470.316 229.757 473.554 232.095 476.012 234.831L479.906 231.331C476.902 227.988 473.057 225.259 468.443 223.107L466.23 227.852ZM476.044 234.866C478.567 237.572 480.352 240.558 481.436 243.834L486.406 242.188C485.072 238.158 482.883 234.523 479.874 231.296L476.044 234.866ZM481.448 243.87C482.563 247.081 482.969 250.489 482.644 254.123L487.859 254.589C488.246 250.258 487.766 246.103 486.394 242.152L481.448 243.87ZM482.642 254.141C482.347 257.718 481.378 261.294 479.707 264.879L484.452 267.091C486.364 262.991 487.51 258.814 487.86 254.571L482.642 254.141ZM479.707 264.879L479.098 266.184L483.843 268.397L484.452 267.091L479.707 264.879ZM482.577 264.918L468.221 258.223L466.009 262.968L480.365 269.663L482.577 264.918ZM469.488 261.702L470.096 260.397L465.351 258.184L464.742 259.49L469.488 261.702ZM470.096 260.397C472.411 255.432 473.044 250.665 471.398 246.352L466.506 248.218C467.483 250.777 467.296 254.014 465.351 258.184L470.096 260.397ZM471.426 246.428C469.928 242.108 466.564 238.914 461.835 236.709L459.623 241.454C463.45 243.239 465.568 245.514 466.479 248.143L471.426 246.428ZM461.835 236.709C457.174 234.535 452.449 234.292 447.835 236.114L449.758 240.983C452.934 239.729 456.163 239.841 459.623 241.454L461.835 236.709ZM447.867 236.101C443.03 237.937 439.18 242.754 436.017 249.537L440.762 251.75C443.753 245.337 446.84 242.091 449.725 240.996L447.867 236.101ZM436.017 249.537L428.511 265.633L433.256 267.846L440.762 251.75L436.017 249.537ZM428.511 265.633C425.651 271.767 424.54 277.386 425.773 282.268C427.038 287.278 430.624 290.956 435.918 293.425L438.13 288.68C433.854 286.686 431.631 284.08 430.849 280.986C430.035 277.764 430.64 273.458 433.256 267.846L428.511 265.633ZM435.918 293.425C440.595 295.606 445.111 296.208 449.211 294.64L447.34 289.75C444.994 290.648 442.009 290.488 438.13 288.68L435.918 293.425ZM449.21 294.64C453.293 293.08 456.309 289.963 458.33 285.629L453.585 283.416C452.022 286.767 449.918 288.765 447.341 289.749L449.21 294.64ZM457.064 282.15L438.793 273.63L436.58 278.375L454.851 286.895L457.064 282.15ZM440.059 277.109L446.449 263.405L441.704 261.193L435.314 274.896L440.059 277.109Z" fill="#30EFD3"/>
<path d="M100.93 284.691L103.488 285.246L103.931 283.202L102.036 282.319L100.93 284.691ZM75.0457 272.621L76.1521 270.249L74.2571 269.365L72.9764 271.018L75.0457 272.621ZM63.7409 287.211L62.6345 289.583L64.5295 290.467L65.8102 288.814L63.7409 287.211ZM48.7324 280.212L46.6814 278.585L44.6209 281.183L47.6261 282.585L48.7324 280.212ZM102.395 212.551L103.501 210.179L101.628 209.305L100.344 210.925L102.395 212.551ZM129.366 225.129L131.931 225.654L132.346 223.629L130.473 222.756L129.366 225.129ZM112.029 309.728L110.923 312.1L113.928 313.502L114.593 310.253L112.029 309.728ZM97.0205 302.729L94.4621 302.175L94.0192 304.218L95.9142 305.102L97.0205 302.729ZM84.4809 260.338L82.4153 258.73L80.3971 261.322L83.3746 262.711L84.4809 260.338ZM104.166 269.517L103.06 271.89L106.029 273.274L106.724 270.073L104.166 269.517ZM113.512 226.474L116.071 227.03L116.514 224.986L114.619 224.102L113.512 226.474ZM111.555 225.562L112.661 223.189L110.77 222.307L109.489 223.953L111.555 225.562ZM102.036 282.319L76.1521 270.249L73.9394 274.994L99.8235 287.064L102.036 282.319ZM72.9764 271.018L61.6716 285.607L65.8102 288.814L77.1151 274.225L72.9764 271.018ZM64.8472 284.838L49.8388 277.839L47.6261 282.585L62.6345 289.583L64.8472 284.838ZM50.7835 281.839L104.446 214.178L100.344 210.925L46.6814 278.585L50.7835 281.839ZM101.288 214.924L128.26 227.501L130.473 222.756L103.501 210.179L101.288 214.924ZM126.802 224.603L109.464 309.202L114.593 310.253L131.931 225.654L126.802 224.603ZM113.135 307.355L98.1269 300.357L95.9142 305.102L110.923 312.1L113.135 307.355ZM99.5789 303.284L103.488 285.246L98.3715 284.137L94.4621 302.175L99.5789 303.284ZM83.3746 262.711L103.06 271.89L105.272 267.145L85.5873 257.965L83.3746 262.711ZM106.724 270.073L116.071 227.03L110.954 225.919L101.608 268.962L106.724 270.073ZM114.619 224.102L112.661 223.189L110.448 227.934L112.406 228.847L114.619 224.102ZM109.489 223.953L82.4153 258.73L86.5466 261.946L113.62 227.17L109.489 223.953ZM149.268 292.138L150.375 289.765L148.002 288.659L146.896 291.031L149.268 292.138ZM135.88 320.85L134.774 323.222L137.146 324.328L138.252 321.956L135.88 320.85ZM121.524 314.155L119.151 313.049L118.045 315.422L120.418 316.528L121.524 314.155ZM157.024 238.025L158.13 235.653L155.758 234.547L154.651 236.919L157.024 238.025ZM196.134 258.646L194.151 260.355L194.169 260.376L194.187 260.397L196.134 258.646ZM200.979 266.996L198.474 267.756L198.487 267.801L198.503 267.846L200.979 266.996ZM202.033 276.094L199.427 275.836L199.423 275.879L199.42 275.922L202.033 276.094ZM193.158 295.126L191.314 293.268L191.3 293.282L191.286 293.296L193.158 295.126ZM185.409 300.384L184.386 297.975L184.381 297.977L185.409 300.384ZM175.848 302.149L175.813 304.766L175.848 302.149ZM155.658 278.434L153.286 277.328L152.179 279.701L154.552 280.807L155.658 278.434ZM178.409 285.866L177.613 283.372L177.589 283.38L177.564 283.388L178.409 285.866ZM185.307 271.075L182.865 272.02L182.875 272.044L182.884 272.068L185.307 271.075ZM164.99 258.423L166.096 256.051L163.724 254.944L162.617 257.317L164.99 258.423ZM146.896 291.031L133.507 319.743L138.252 321.956L151.641 293.244L146.896 291.031ZM136.986 318.477L122.63 311.783L120.418 316.528L134.774 323.222L136.986 318.477ZM123.897 315.262L159.396 239.132L154.651 236.919L119.151 313.049L123.897 315.262ZM155.918 240.398L185.717 254.294L187.93 249.549L158.13 235.653L155.918 240.398ZM185.717 254.294C189.372 255.998 192.15 258.035 194.151 260.355L198.116 256.936C195.533 253.941 192.105 251.496 187.93 249.549L185.717 254.294ZM194.187 260.397C196.286 262.73 197.693 265.182 198.474 267.756L203.484 266.236C202.455 262.846 200.632 259.732 198.08 256.895L194.187 260.397ZM198.503 267.846C199.391 270.431 199.699 273.085 199.427 275.836L204.638 276.351C204.983 272.858 204.589 269.447 203.455 266.145L198.503 267.846ZM199.42 275.922C199.239 278.688 198.575 281.289 197.43 283.745L202.175 285.958C203.599 282.904 204.422 279.667 204.645 276.265L199.42 275.922ZM197.43 283.745L196.213 286.355L200.958 288.568L202.175 285.958L197.43 283.745ZM196.213 286.355C195.03 288.893 193.403 291.195 191.314 293.268L195.001 296.984C197.512 294.494 199.504 291.686 200.958 288.568L196.213 286.355ZM191.286 293.296C189.341 295.285 187.049 296.844 184.386 297.975L186.433 302.794C189.713 301.4 192.587 299.454 195.029 296.956L191.286 293.296ZM184.381 297.977C181.892 299.04 179.073 299.574 175.883 299.531L175.813 304.766C179.64 304.818 183.196 304.176 186.437 302.792L184.381 297.977ZM175.883 299.531C172.82 299.49 169.473 298.671 165.818 296.967L163.606 301.712C167.781 303.659 171.858 304.713 175.813 304.766L175.883 299.531ZM165.818 296.967L150.375 289.765L148.162 294.51L163.606 301.712L165.818 296.967ZM154.552 280.807L168.582 287.349L170.794 282.604L156.765 276.062L154.552 280.807ZM168.582 287.349C172.212 289.042 175.831 289.511 179.254 288.343L177.564 283.388C175.74 284.01 173.545 283.886 170.794 282.604L168.582 287.349ZM179.206 288.359C182.654 287.258 185.186 284.91 186.754 281.548L182.009 279.335C181.007 281.483 179.558 282.751 177.613 283.372L179.206 288.359ZM186.754 281.548L187.363 280.243L182.617 278.03L182.009 279.335L186.754 281.548ZM187.363 280.243C188.93 276.88 189.102 273.431 187.729 270.082L182.884 272.068C183.659 273.957 183.619 275.882 182.617 278.03L187.363 280.243ZM187.748 270.129C186.441 266.756 183.756 264.285 180.126 262.593L177.913 267.338C180.663 268.62 182.169 270.222 182.865 272.02L187.748 270.129ZM180.126 262.593L166.096 256.051L163.883 260.796L177.913 267.338L180.126 262.593ZM162.617 257.317L153.286 277.328L158.031 279.541L167.362 259.529L162.617 257.317ZM239.341 369.094L238.234 371.467L240.607 372.573L241.713 370.201L239.341 369.094ZM224.985 362.4L222.612 361.294L221.506 363.666L223.879 364.773L224.985 362.4ZM236.199 334.66L233.655 335.278L233.667 335.328L233.681 335.378L236.199 334.66ZM215.97 323.241L217.076 320.868L214.703 319.762L213.597 322.135L215.97 323.241ZM202.581 351.953L201.475 354.325L203.847 355.432L204.954 353.059L202.581 351.953ZM188.225 345.259L185.853 344.152L184.746 346.525L187.119 347.631L188.225 345.259ZM223.725 269.129L224.831 266.756L222.459 265.65L221.352 268.022L223.725 269.129ZM262.443 289.169L264.297 287.321L264.297 287.321L262.443 289.169ZM267.709 297.186L265.249 298.081L265.265 298.127L265.283 298.171L267.709 297.186ZM269.183 305.95L266.569 305.804L266.567 305.836L266.566 305.868L269.183 305.95ZM259.184 325.12L260.615 327.313L260.628 327.304L260.641 327.295L259.184 325.12ZM248.572 327.719L248.68 325.103L246.937 325.031L246.199 326.612L248.572 327.719ZM247.659 329.676L245.286 328.57L244.299 330.687L246.29 331.908L247.659 329.676ZM252.271 335.402L249.755 336.124L249.764 336.155L249.773 336.185L252.271 335.402ZM222.36 309.538L219.987 308.431L218.881 310.804L221.253 311.91L222.36 309.538ZM245.118 317.237L245.855 319.749L245.882 319.741L245.91 319.732L245.118 317.237ZM252.015 302.446L249.538 303.293L249.546 303.317L249.555 303.342L252.015 302.446ZM231.691 289.526L232.797 287.154L230.425 286.047L229.318 288.42L231.691 289.526ZM240.447 366.722L226.091 360.027L223.879 364.773L238.234 371.467L240.447 366.722ZM227.357 363.506L238.007 340.667L233.262 338.455L222.612 361.294L227.357 363.506ZM238.007 340.667C239.027 338.481 239.359 336.196 238.716 333.942L233.681 335.378C233.91 336.179 233.866 337.161 233.262 338.455L238.007 340.667ZM238.743 334.042C238.112 331.447 236.055 329.718 233.607 328.577L231.394 333.322C233.152 334.142 233.56 334.886 233.655 335.278L238.743 334.042ZM233.607 328.577L217.076 320.868L214.863 325.614L231.394 333.322L233.607 328.577ZM213.597 322.135L200.208 350.846L204.954 353.059L218.342 324.347L213.597 322.135ZM203.687 349.58L189.331 342.886L187.119 347.631L201.475 354.325L203.687 349.58ZM190.598 346.365L226.098 270.235L221.352 268.022L185.853 344.152L190.598 346.365ZM222.619 271.501L251.766 285.093L253.978 280.348L224.831 266.756L222.619 271.501ZM251.766 285.093C255.466 286.818 258.384 288.805 260.589 291.017L264.297 287.321C261.571 284.586 258.108 282.273 253.978 280.348L251.766 285.093ZM260.589 291.017C262.824 293.26 264.352 295.616 265.249 298.081L270.169 296.29C268.976 293.014 266.993 290.026 264.297 287.321L260.589 291.017ZM265.283 298.171C266.291 300.65 266.715 303.185 266.569 305.804L271.797 306.096C271.987 302.693 271.429 299.385 270.134 296.2L265.283 298.171ZM266.566 305.868C266.482 308.54 265.848 311.166 264.638 313.761L269.383 315.974C270.878 312.769 271.692 309.449 271.799 306.032L266.566 305.868ZM264.638 313.761L263.421 316.371L268.166 318.584L269.383 315.974L264.638 313.761ZM263.421 316.371C262.176 319.041 260.296 321.225 257.727 322.945L260.641 327.295C263.977 325.061 266.503 322.149 268.166 318.584L263.421 316.371ZM257.753 322.928C255.374 324.481 252.4 325.258 248.68 325.103L248.463 330.334C253.056 330.525 257.157 329.57 260.615 327.313L257.753 322.928ZM246.199 326.612L245.286 328.57L250.031 330.783L250.944 328.825L246.199 326.612ZM246.29 331.908C248.228 333.096 249.291 334.507 249.755 336.124L254.788 334.68C253.907 331.61 251.895 329.203 249.027 327.445L246.29 331.908ZM249.773 336.185C250.298 337.861 250.185 339.644 249.241 341.669L253.986 343.881C255.409 340.831 255.734 337.699 254.769 334.619L249.773 336.185ZM249.241 341.669L236.968 367.988L241.713 370.201L253.986 343.881L249.241 341.669ZM221.253 311.91L234.957 318.3L237.169 313.555L223.466 307.165L221.253 311.91ZM234.957 318.3C238.763 320.075 242.466 320.743 245.855 319.749L244.381 314.725C242.657 315.231 240.323 315.026 237.169 313.555L234.957 318.3ZM245.91 319.732C249.34 318.643 251.829 316.138 253.455 312.651L248.71 310.438C247.564 312.896 246.076 314.186 244.326 314.742L245.91 319.732ZM253.455 312.651L254.064 311.346L249.319 309.133L248.71 310.438L253.455 312.651ZM254.064 311.346C255.544 308.172 255.677 304.854 254.475 301.551L249.555 303.342C250.288 305.354 250.205 307.232 249.319 309.133L254.064 311.346ZM254.492 301.599C253.259 297.994 250.404 295.364 246.501 293.544L244.288 298.289C247.345 299.714 248.904 301.438 249.538 303.293L254.492 301.599ZM246.501 293.544L232.797 287.154L230.585 291.899L244.288 298.289L246.501 293.544ZM229.318 288.42L219.987 308.431L224.732 310.644L234.064 290.633L229.318 288.42ZM290.209 300.131L291.315 297.758L288.942 296.652L287.836 299.024L290.209 300.131ZM341.107 323.865L343.479 324.971L344.586 322.599L342.213 321.492L341.107 323.865ZM334.717 337.568L333.611 339.941L335.983 341.047L337.089 338.674L334.717 337.568ZM316.446 329.048L317.552 326.676L315.18 325.569L314.073 327.942L316.446 329.048ZM293.726 377.771L291.353 376.665L290.247 379.037L292.619 380.144L293.726 377.771ZM311.997 386.291L314.37 387.398L315.476 385.025L313.103 383.919L311.997 386.291ZM305.607 399.995L304.501 402.367L306.873 403.474L307.98 401.101L305.607 399.995ZM254.709 376.26L252.336 375.154L251.23 377.527L253.602 378.633L254.709 376.26ZM261.099 362.557L262.205 360.184L259.832 359.078L258.726 361.451L261.099 362.557ZM279.37 371.077L278.264 373.45L280.636 374.556L281.742 372.183L279.37 371.077ZM302.09 322.354L304.462 323.46L305.569 321.088L303.196 319.981L302.09 322.354ZM283.819 313.834L281.446 312.728L280.34 315.1L282.712 316.206L283.819 313.834ZM289.102 302.503L340.001 326.237L342.213 321.492L291.315 297.758L289.102 302.503ZM338.734 322.758L332.344 336.462L337.089 338.674L343.479 324.971L338.734 322.758ZM335.823 335.196L317.552 326.676L315.339 331.421L333.611 339.941L335.823 335.196ZM314.073 327.942L291.353 376.665L296.098 378.878L318.818 330.155L314.073 327.942ZM292.619 380.144L310.891 388.664L313.103 383.919L294.832 375.399L292.619 380.144ZM309.624 385.185L303.234 398.888L307.98 401.101L314.37 387.398L309.624 385.185ZM306.713 397.622L255.815 373.888L253.602 378.633L304.501 402.367L306.713 397.622ZM257.081 377.367L263.471 363.663L258.726 361.451L252.336 375.154L257.081 377.367ZM259.992 364.93L278.264 373.45L280.476 368.704L262.205 360.184L259.992 364.93ZM281.742 372.183L304.462 323.46L299.717 321.248L276.997 369.971L281.742 372.183ZM303.196 319.981L284.925 311.461L282.712 316.206L300.983 324.726L303.196 319.981ZM286.191 314.94L292.581 301.237L287.836 299.024L281.446 312.728L286.191 314.94ZM357.889 331.69L358.995 329.318L356.622 328.211L355.516 330.584L357.889 331.69ZM372.244 338.384L374.617 339.491L375.723 337.118L373.351 336.012L372.244 338.384ZM343.135 400.811L340.762 399.705L339.656 402.077L342.028 403.184L343.135 400.811ZM377.719 416.938L380.092 418.044L381.198 415.672L378.826 414.565L377.719 416.938ZM371.329 430.641L370.223 433.014L372.595 434.12L373.702 431.748L371.329 430.641ZM322.389 407.82L320.016 406.714L318.91 409.086L321.282 410.193L322.389 407.82ZM356.782 334.063L371.138 340.757L373.351 336.012L358.995 329.318L356.782 334.063ZM369.872 337.278L340.762 399.705L345.507 401.917L374.617 339.491L369.872 337.278ZM342.028 403.184L376.613 419.311L378.826 414.565L344.241 398.438L342.028 403.184ZM375.347 415.832L368.957 429.535L373.702 431.748L380.092 418.044L375.347 415.832ZM372.436 428.269L323.495 405.447L321.282 410.193L370.223 433.014L372.436 428.269ZM324.761 408.926L360.261 332.797L355.516 330.584L320.016 406.714L324.761 408.926Z" fill="#FCBB00"/>
<path d="M89.8315 426.885L92.204 427.992L93.3104 425.619L90.9378 424.513L89.8315 426.885ZM83.4415 440.589L82.3351 442.961L84.7077 444.067L85.8141 441.695L83.4415 440.589ZM29.9331 415.637L27.5605 414.531L26.4542 416.903L28.8267 418.01L29.9331 415.637ZM43.4389 391.217L41.706 389.255L41.6847 389.274L41.6638 389.293L43.4389 391.217ZM51.8976 386.423L51.1736 383.907L51.1531 383.913L51.1328 383.919L51.8976 386.423ZM62.177 385.39L62.0205 388.003L62.0465 388.005L62.0726 388.006L62.177 385.39ZM74.2479 387.047L73.6826 389.603L73.6893 389.604L74.2479 387.047ZM82.3314 388.168L82.2742 390.785L82.2977 390.786L82.3211 390.786L82.3314 388.168ZM88.109 387.42L88.919 389.909L88.9619 389.895L89.0043 389.88L88.109 387.42ZM91.907 384.954L90.006 383.154L89.9739 383.188L89.943 383.223L91.907 384.954ZM94.7666 371.723L92.3389 372.702L92.3469 372.722L92.3553 372.742L94.7666 371.723ZM75.3791 363.609L76.2745 366.069L76.2923 366.062L76.31 366.056L75.3791 363.609ZM64.6321 377.002L63.5258 379.374L65.8983 380.481L67.0047 378.108L64.6321 377.002ZM50.2762 370.308L47.9036 369.201L46.7973 371.574L49.1699 372.68L50.2762 370.308ZM59.6815 354.965L57.8895 353.057L57.8782 353.067L57.8671 353.078L59.6815 354.965ZM69.075 349.018L68.1431 346.571L68.142 346.572L69.075 349.018ZM80.4634 347.311L80.327 349.925L80.3507 349.926L80.3744 349.927L80.4634 347.311ZM104.006 358.156L102.091 359.941L102.107 359.959L102.124 359.976L104.006 358.156ZM110.054 367.332L107.609 368.268L107.617 368.287L107.625 368.306L110.054 367.332ZM111.616 377.329L109.006 377.126L109.003 377.166L109.001 377.206L111.616 377.329ZM95.7976 401.597L94.7229 399.21L94.711 399.216L94.6992 399.221L95.7976 401.597ZM74.0277 402.568L74.5689 400.007L74.5643 400.006L74.0277 402.568ZM64.3782 401.114L64.1563 403.722L64.1796 403.724L64.203 403.726L64.3782 401.114ZM57.9988 401.449L57.3446 398.914L57.3446 398.914L57.9988 401.449ZM53.8165 403.603L52.0439 401.677L52.0132 401.705L51.9835 401.734L53.8165 403.603ZM50.679 408.628L48.3064 407.522L47.2001 409.894L49.5726 411.001L50.679 408.628ZM87.4589 425.779L81.0689 439.482L85.8141 441.695L92.204 427.992L87.4589 425.779ZM84.5478 438.216L31.0394 413.265L28.8267 418.01L82.3351 442.961L84.5478 438.216ZM32.3056 416.744L39.3042 401.735L34.5591 399.522L27.5605 414.531L32.3056 416.744ZM39.3042 401.735C41.0615 397.967 43.0495 395.138 45.214 393.141L41.6638 389.293C38.871 391.869 36.5208 395.315 34.5591 399.522L39.3042 401.735ZM45.1717 393.179C47.458 391.16 49.9513 389.754 52.6624 388.926L51.1328 383.919C47.6679 384.977 44.522 386.768 41.706 389.255L45.1717 393.179ZM52.6216 388.938C55.4629 388.121 58.5882 387.798 62.0205 388.003L62.3336 382.777C58.3809 382.54 54.6533 382.905 51.1736 383.907L52.6216 388.938ZM62.0726 388.006C65.6183 388.147 69.486 388.675 73.6826 389.603L74.8132 384.491C70.3678 383.507 66.1883 382.93 62.2814 382.774L62.0726 388.006ZM73.6893 389.604C76.9855 390.324 79.8598 390.732 82.2742 390.785L82.3885 385.551C80.4339 385.508 77.9192 385.169 74.8064 384.489L73.6893 389.604ZM82.3211 390.786C84.789 390.795 87.0115 390.53 88.919 389.909L87.2989 384.93C86.0847 385.325 84.4554 385.558 82.3416 385.55L82.3211 390.786ZM89.0043 389.88C90.9297 389.179 92.592 388.136 93.8709 386.685L89.943 383.223C89.3473 383.899 88.4776 384.5 87.2136 384.96L89.0043 389.88ZM93.8079 386.754C95.073 385.417 96.1165 383.824 96.9606 382.014L92.2155 379.801C91.572 381.181 90.8281 382.286 90.006 383.154L93.8079 386.754ZM96.9606 382.014C98.6916 378.302 98.769 374.468 97.1779 370.703L92.3553 372.742C93.3662 375.134 93.3245 377.423 92.2155 379.801L96.9606 382.014ZM97.1942 370.743C95.6474 366.91 92.4786 364.06 88.1574 362.045L85.9447 366.79C89.454 368.426 91.4288 370.447 92.3389 372.702L97.1942 370.743ZM88.1574 362.045C83.5003 359.873 78.8695 359.48 74.4482 361.162L76.31 366.056C79.1858 364.961 82.3362 365.107 85.9447 366.79L88.1574 362.045ZM74.4838 361.149C70.053 362.762 66.7639 366.236 64.491 371.11L69.2361 373.323C71.0879 369.352 73.4759 367.087 76.2745 366.069L74.4838 361.149ZM64.491 371.11L62.2596 375.895L67.0047 378.108L69.2361 373.323L64.491 371.11ZM65.7385 374.629L51.3826 367.935L49.1699 372.68L63.5258 379.374L65.7385 374.629ZM52.6488 371.414L55.4888 365.323L50.7436 363.111L47.9036 369.201L52.6488 371.414ZM55.4888 365.323C57.0145 362.052 59.0173 359.235 61.4959 356.852L57.8671 353.078C54.9053 355.926 52.5313 359.277 50.7436 363.111L55.4888 365.323ZM61.4735 356.873C64.0651 354.44 66.908 352.646 70.0081 351.463L68.142 346.572C64.3704 348.01 60.9509 350.182 57.8895 353.057L61.4735 356.873ZM70.007 351.464C73.1852 350.253 76.615 349.731 80.327 349.925L80.5999 344.696C76.2117 344.467 72.0492 345.083 68.1431 346.571L70.007 351.464ZM80.3744 349.927C84.0559 350.052 87.892 351.015 91.8996 352.884L94.1123 348.139C89.5644 346.018 85.0388 344.847 80.5525 344.694L80.3744 349.927ZM91.8996 352.884C96.2341 354.905 99.603 357.272 102.091 359.941L105.921 356.371C102.878 353.107 98.9134 350.377 94.1123 348.139L91.8996 352.884ZM102.124 359.976C104.718 362.658 106.522 365.424 107.609 368.268L112.499 366.397C111.121 362.793 108.892 359.442 105.887 356.336L102.124 359.976ZM107.625 368.306C108.785 371.2 109.239 374.13 109.006 377.126L114.226 377.531C114.523 373.712 113.936 369.978 112.484 366.358L107.625 368.306ZM109.001 377.206C108.859 380.235 108.151 383.108 106.876 385.843L111.621 388.056C113.185 384.701 114.056 381.159 114.231 377.452L109.001 377.206ZM106.876 385.843L106.267 387.148L111.012 389.361L111.621 388.056L106.876 385.843ZM106.267 387.148C103.515 393.05 99.6525 396.991 94.7229 399.21L96.8722 403.984C103.115 401.174 107.814 396.22 111.012 389.361L106.267 387.148ZM94.6992 399.221C89.9009 401.439 83.2851 401.848 74.5689 400.007L73.4865 405.129C82.7695 407.091 90.6669 406.853 96.896 403.974L94.6992 399.221ZM74.5643 400.006C70.7137 399.199 67.3691 398.691 64.5535 398.502L64.203 403.726C66.6941 403.893 69.7825 404.354 73.4912 405.13L74.5643 400.006ZM64.6002 398.505C61.8797 398.274 59.4338 398.375 57.3446 398.914L58.6531 403.984C59.9756 403.642 61.7827 403.52 64.1563 403.722L64.6002 398.505ZM57.3446 398.914C55.3037 399.441 53.5003 400.337 52.0439 401.677L55.5891 405.53C56.2973 404.878 57.2822 404.338 58.6531 403.984L57.3446 398.914ZM51.9835 401.734C50.7386 402.955 49.7283 404.472 48.915 406.217L53.6601 408.429C54.2668 407.128 54.9424 406.166 55.6496 405.472L51.9835 401.734ZM48.915 406.217L48.3064 407.522L53.0515 409.734L53.6601 408.429L48.915 406.217ZM49.5726 411.001L88.7251 429.258L90.9378 424.513L51.7853 406.255L49.5726 411.001ZM137.061 411.438L136.166 408.978L137.061 411.438ZM131.077 424.271L128.617 425.167L131.077 424.271ZM134.478 379.78L133.481 377.36L133.473 377.364L133.464 377.367L134.478 379.78ZM175.697 399.001L173.197 399.775L173.199 399.784L173.202 399.793L175.697 399.001ZM146.283 462.08L145.319 459.646L145.31 459.65L145.301 459.653L146.283 462.08ZM105.064 442.859L102.574 443.667L102.577 443.676L102.58 443.685L105.064 442.859ZM135.195 449.23L135.178 451.848L135.222 451.848L135.266 451.847L135.195 449.23ZM141.11 447.619L142.398 449.898L141.11 447.619ZM145.93 443.246L148.029 444.81L145.93 443.246ZM160.934 410.786L163.5 411.305L160.934 410.786ZM161.077 404.232L163.65 403.754L161.077 404.232ZM158.509 398.665L156.406 400.225L156.431 400.259L156.458 400.293L158.509 398.665ZM145.893 392.783L145.964 395.399L146.007 395.398L146.05 395.396L145.893 392.783ZM139.978 394.394L138.69 392.114L139.978 394.394ZM135.049 398.716L133.003 397.084L135.049 398.716ZM119.828 431.075L117.28 430.472L119.828 431.075ZM119.576 437.578L122.15 437.099L119.576 437.578ZM122.144 443.144L120.093 444.772L120.121 444.806L120.15 444.84L122.144 443.144ZM133.723 417.693C134.566 415.885 135.922 414.639 137.957 413.898L136.166 408.978C132.885 410.172 130.433 412.359 128.978 415.481L133.723 417.693ZM137.957 413.898C139.991 413.158 141.831 413.241 143.639 414.084L145.852 409.339C142.73 407.883 139.447 407.784 136.166 408.978L137.957 413.898ZM143.639 414.084C145.448 414.927 146.694 416.283 147.435 418.318L152.355 416.527C151.16 413.246 148.974 410.794 145.852 409.339L143.639 414.084ZM147.435 418.318C148.175 420.352 148.092 422.192 147.249 424.001L151.994 426.213C153.45 423.091 153.549 419.808 152.355 416.527L147.435 418.318ZM147.249 424.001C146.406 425.809 145.049 427.055 143.015 427.796L144.806 432.716C148.087 431.521 150.538 429.335 151.994 426.213L147.249 424.001ZM143.015 427.796C140.981 428.536 139.141 428.453 137.332 427.61L135.119 432.355C138.241 433.811 141.524 433.91 144.806 432.716L143.015 427.796ZM137.332 427.61C135.524 426.767 134.277 425.411 133.537 423.376L128.617 425.167C129.811 428.448 131.998 430.899 135.119 432.355L137.332 427.61ZM133.537 423.376C132.797 421.342 132.88 419.502 133.723 417.693L128.978 415.481C127.522 418.602 127.423 421.886 128.617 425.167L133.537 423.376ZM118.755 400.386C123.174 390.909 128.807 385.005 135.493 382.194L133.464 377.367C125.218 380.834 118.787 387.929 114.01 398.173L118.755 400.386ZM135.475 382.201C142.21 379.427 149.595 379.787 157.839 383.632L160.052 378.887C150.751 374.55 141.824 373.924 133.481 377.36L135.475 382.201ZM157.839 383.632C166.085 387.477 171.063 392.881 173.197 399.775L178.198 398.227C175.543 389.647 169.352 383.224 160.052 378.887L157.839 383.632ZM173.202 399.793C175.412 406.753 174.544 414.873 170.128 424.342L174.873 426.554C179.654 416.302 180.917 406.79 178.192 398.209L173.202 399.793ZM170.128 424.342L162.217 441.308L166.962 443.521L174.873 426.554L170.128 424.342ZM162.217 441.308C157.654 451.093 151.959 457.016 145.319 459.646L147.247 464.514C155.549 461.225 162.058 454.037 166.962 443.521L162.217 441.308ZM145.301 459.653C138.717 462.318 131.398 461.916 123.132 458.062L120.92 462.807C130.2 467.134 139.053 467.83 147.265 464.507L145.301 459.653ZM123.132 458.062C114.868 454.208 109.81 448.839 107.548 442.034L102.58 443.685C105.387 452.131 111.638 458.479 120.92 462.807L123.132 458.062ZM107.554 442.052C105.366 435.305 106.277 427.145 110.843 417.352L106.098 415.139C101.198 425.647 99.8377 435.23 102.574 443.667L107.554 442.052ZM110.843 417.352L118.755 400.386L114.01 398.173L106.098 415.139L110.843 417.352ZM127.005 449.756C129.84 451.078 132.579 451.831 135.178 451.848L135.212 446.612C133.587 446.602 131.604 446.124 129.218 445.011L127.005 449.756ZM135.266 451.847C137.821 451.777 140.213 451.132 142.398 449.898L139.822 445.34C138.412 446.137 136.86 446.566 135.123 446.613L135.266 451.847ZM142.398 449.898C144.556 448.679 146.427 446.959 148.029 444.81L143.83 441.682C142.601 443.332 141.259 444.528 139.822 445.34L142.398 449.898ZM148.029 444.81C149.568 442.745 150.955 440.367 152.2 437.696L147.455 435.484C146.334 437.888 145.122 439.948 143.83 441.682L148.029 444.81ZM152.2 437.696L160.923 418.99L156.178 416.777L147.455 435.484L152.2 437.696ZM160.923 418.99C162.117 416.43 162.982 413.867 163.5 411.305L158.368 410.267C157.94 412.383 157.215 414.553 156.178 416.777L160.923 418.99ZM163.5 411.305C164.029 408.687 164.098 406.161 163.65 403.754L158.503 404.711C158.81 406.364 158.784 408.206 158.368 410.267L163.5 411.305ZM163.65 403.754C163.192 401.287 162.148 399.04 160.559 397.038L156.458 400.293C157.538 401.654 158.207 403.118 158.503 404.711L163.65 403.754ZM160.612 397.106C158.995 394.927 156.731 393.227 153.966 391.938L151.754 396.683C153.92 397.693 155.421 398.896 156.406 400.225L160.612 397.106ZM153.966 391.938C151.202 390.649 148.444 390.007 145.736 390.17L146.05 395.396C147.701 395.296 149.588 395.673 151.754 396.683L153.966 391.938ZM145.821 390.166C143.266 390.236 140.875 390.88 138.69 392.114L141.265 396.673C142.676 395.876 144.228 395.447 145.964 395.399L145.821 390.166ZM138.69 392.114C136.559 393.319 134.668 394.996 133.003 397.084L137.096 400.348C138.407 398.704 139.802 397.5 141.265 396.673L138.69 392.114ZM133.003 397.084C131.373 399.128 129.965 401.437 128.771 403.997L133.516 406.21C134.554 403.985 135.75 402.036 137.096 400.348L133.003 397.084ZM128.771 403.997L120.048 422.704L124.794 424.916L133.516 406.21L128.771 403.997ZM120.048 422.704C118.803 425.375 117.873 427.965 117.28 430.472L122.375 431.677C122.873 429.573 123.672 427.321 124.794 424.916L120.048 422.704ZM117.28 430.472C116.663 433.08 116.549 435.619 117.002 438.056L122.15 437.099C121.848 435.477 121.902 433.68 122.375 431.677L117.28 430.472ZM117.002 438.056C117.461 440.523 118.505 442.77 120.093 444.772L124.195 441.517C123.115 440.156 122.446 438.692 122.15 437.099L117.002 438.056ZM120.15 444.84C121.834 446.82 124.171 448.434 127.005 449.756L129.218 445.011C126.832 443.898 125.191 442.686 124.138 441.449L120.15 444.84ZM223.016 488.99L225.389 490.097L226.495 487.724L224.123 486.618L223.016 488.99ZM216.626 502.694L215.52 505.066L217.892 506.173L218.999 503.8L216.626 502.694ZM163.118 477.742L160.745 476.636L159.639 479.008L162.011 480.115L163.118 477.742ZM176.624 453.322L174.891 451.36L174.869 451.379L174.849 451.398L176.624 453.322ZM185.082 448.528L184.358 446.012L184.338 446.018L184.318 446.024L185.082 448.528ZM195.362 447.495L195.205 450.108L195.231 450.11L195.257 450.111L195.362 447.495ZM207.433 449.152L206.867 451.708L206.874 451.709L207.433 449.152ZM215.516 450.273L215.459 452.89L215.482 452.891L215.506 452.891L215.516 450.273ZM221.294 449.525L222.104 452.014L222.147 452L222.189 451.985L221.294 449.525ZM225.092 447.059L223.191 445.259L223.159 445.293L223.128 445.328L225.092 447.059ZM227.951 433.828L225.524 434.807L225.532 434.827L225.54 434.847L227.951 433.828ZM208.564 425.714L209.459 428.174L209.477 428.167L209.495 428.161L208.564 425.714ZM197.817 439.107L196.711 441.479L199.083 442.586L200.189 440.213L197.817 439.107ZM183.461 432.413L181.088 431.306L179.982 433.679L182.355 434.785L183.461 432.413ZM192.866 417.07L191.074 415.162L191.063 415.172L191.052 415.183L192.866 417.07ZM202.26 411.123L201.328 408.676L201.327 408.677L202.26 411.123ZM213.648 409.416L213.512 412.03L213.535 412.031L213.559 412.032L213.648 409.416ZM237.19 420.261L235.275 422.046L235.292 422.064L235.309 422.081L237.19 420.261ZM243.239 429.437L240.794 430.373L240.802 430.392L240.809 430.411L243.239 429.437ZM244.801 439.434L242.191 439.231L242.188 439.271L242.186 439.311L244.801 439.434ZM228.982 463.702L227.908 461.315L227.896 461.321L227.884 461.326L228.982 463.702ZM207.212 464.673L207.754 462.112L207.749 462.111L207.212 464.673ZM197.563 463.219L197.341 465.827L197.364 465.829L197.388 465.831L197.563 463.219ZM191.184 463.554L190.529 461.019L191.184 463.554ZM187.001 465.708L185.229 463.782L185.198 463.81L185.168 463.839L187.001 465.708ZM183.864 470.733L181.491 469.627L180.385 471.999L182.757 473.106L183.864 470.733ZM220.644 487.884L214.254 501.587L218.999 503.8L225.389 490.097L220.644 487.884ZM217.733 500.321L164.224 475.37L162.011 480.115L215.52 505.066L217.733 500.321ZM165.49 478.849L172.489 463.84L167.744 461.627L160.745 476.636L165.49 478.849ZM172.489 463.84C174.246 460.072 176.234 457.243 178.399 455.246L174.849 451.398C172.056 453.975 169.706 457.42 167.744 461.627L172.489 463.84ZM178.356 455.284C180.643 453.265 183.136 451.859 185.847 451.031L184.318 446.024C180.853 447.083 177.707 448.873 174.891 451.36L178.356 455.284ZM185.806 451.043C188.648 450.226 191.773 449.903 195.205 450.108L195.518 444.882C191.566 444.645 187.838 445.011 184.358 446.012L185.806 451.043ZM195.257 450.111C198.803 450.252 202.671 450.78 206.867 451.708L207.998 446.596C203.553 445.613 199.373 445.035 195.466 444.879L195.257 450.111ZM206.874 451.709C210.17 452.429 213.045 452.838 215.459 452.89L215.573 447.656C213.619 447.613 211.104 447.274 207.991 446.594L206.874 451.709ZM215.506 452.891C217.974 452.901 220.196 452.635 222.104 452.014L220.484 447.035C219.269 447.43 217.64 447.664 215.526 447.655L215.506 452.891ZM222.189 451.985C224.114 451.284 225.777 450.241 227.056 448.79L223.128 445.328C222.532 446.004 221.662 446.605 220.398 447.065L222.189 451.985ZM226.993 448.859C228.258 447.522 229.301 445.929 230.145 444.119L225.4 441.906C224.757 443.286 224.013 444.391 223.191 445.259L226.993 448.859ZM230.145 444.119C231.876 440.407 231.954 436.573 230.363 432.808L225.54 434.847C226.551 437.239 226.509 439.528 225.4 441.906L230.145 444.119ZM230.379 432.848C228.832 429.015 225.663 426.165 221.342 424.15L219.129 428.895C222.639 430.531 224.614 432.552 225.524 434.807L230.379 432.848ZM221.342 424.15C216.685 421.978 212.054 421.585 207.633 423.267L209.495 428.161C212.371 427.067 215.521 427.212 219.129 428.895L221.342 424.15ZM207.669 423.254C203.238 424.867 199.949 428.341 197.676 433.215L202.421 435.428C204.273 431.457 206.661 429.192 209.459 428.174L207.669 423.254ZM197.676 433.215L195.444 438.001L200.189 440.213L202.421 435.428L197.676 433.215ZM198.923 436.734L184.567 430.04L182.355 434.785L196.711 441.479L198.923 436.734ZM185.834 433.519L188.674 427.429L183.928 425.216L181.088 431.306L185.834 433.519ZM188.674 427.429C190.199 424.157 192.202 421.34 194.681 418.957L191.052 415.183C188.09 418.031 185.716 421.382 183.928 425.216L188.674 427.429ZM194.658 418.978C197.25 416.545 200.093 414.751 203.193 413.569L201.327 408.677C197.555 410.116 194.136 412.287 191.074 415.162L194.658 418.978ZM203.192 413.569C206.37 412.358 209.8 411.836 213.512 412.03L213.785 406.801C209.396 406.572 205.234 407.188 201.328 408.676L203.192 413.569ZM213.559 412.032C217.241 412.157 221.077 413.12 225.084 414.989L227.297 410.244C222.749 408.123 218.224 406.952 213.737 406.799L213.559 412.032ZM225.084 414.989C229.419 417.01 232.788 419.377 235.275 422.046L239.105 418.476C236.062 415.212 232.098 412.482 227.297 410.244L225.084 414.989ZM235.309 422.081C237.903 424.763 239.706 427.53 240.794 430.373L245.684 428.502C244.305 424.898 242.076 421.547 239.072 418.441L235.309 422.081ZM240.809 430.411C241.97 433.305 242.424 436.235 242.191 439.231L247.411 439.637C247.708 435.817 247.12 432.083 245.669 428.463L240.809 430.411ZM242.186 439.311C242.043 442.34 241.336 445.213 240.06 447.948L244.806 450.161C246.37 446.806 247.241 443.265 247.416 439.557L242.186 439.311ZM240.06 447.948L239.452 449.253L244.197 451.466L244.806 450.161L240.06 447.948ZM239.452 449.253C236.7 455.155 232.837 459.096 227.908 461.315L230.057 466.089C236.3 463.279 240.999 458.325 244.197 451.466L239.452 449.253ZM227.884 461.326C223.086 463.544 216.47 463.953 207.754 462.112L206.671 467.234C215.954 469.196 223.852 468.958 230.081 466.079L227.884 461.326ZM207.749 462.111C203.898 461.304 200.554 460.796 197.738 460.607L197.388 465.831C199.879 465.998 202.967 466.459 206.676 467.235L207.749 462.111ZM197.785 460.61C195.064 460.379 192.619 460.48 190.529 461.019L191.838 466.089C193.16 465.747 194.967 465.625 197.341 465.827L197.785 460.61ZM190.529 461.019C188.488 461.546 186.685 462.442 185.229 463.782L188.774 467.635C189.482 466.983 190.467 466.443 191.838 466.089L190.529 461.019ZM185.168 463.839C183.923 465.06 182.913 466.578 182.1 468.322L186.845 470.534C187.452 469.233 188.127 468.271 188.834 467.577L185.168 463.839ZM182.1 468.322L181.491 469.627L186.236 471.839L186.845 470.534L182.1 468.322ZM182.757 473.106L221.91 491.363L224.123 486.618L184.97 468.361L182.757 473.106ZM257.743 505.184L256.636 507.556L259.009 508.662L260.115 506.29L257.743 505.184ZM283.506 449.935L285.878 451.041L286.985 448.669L284.612 447.562L283.506 449.935ZM281.548 449.022L282.654 446.65L280.846 445.806L279.554 447.326L281.548 449.022ZM262.199 471.777L261.092 474.149L262.9 474.992L264.193 473.473L262.199 471.777ZM248.495 465.387L246.123 464.28L245.016 466.653L247.389 467.759L248.495 465.387ZM249.104 464.082L247.127 462.366L246.886 462.643L246.731 462.975L249.104 464.082ZM273.149 436.367L274.256 433.994L272.466 433.16L271.172 434.651L273.149 436.367ZM301.209 449.451L303.581 450.558L304.688 448.185L302.315 447.079L301.209 449.451ZM272.099 511.878L269.726 510.771L268.62 513.144L270.992 514.25L272.099 511.878ZM291.022 520.702L293.395 521.808L294.501 519.436L292.129 518.329L291.022 520.702ZM284.632 534.405L283.526 536.778L285.899 537.884L287.005 535.512L284.632 534.405ZM229.819 508.845L227.446 507.739L226.34 510.112L228.713 511.218L229.819 508.845ZM236.209 495.142L237.315 492.77L234.943 491.663L233.836 494.036L236.209 495.142ZM260.115 506.29L285.878 451.041L281.133 448.829L255.37 504.077L260.115 506.29ZM284.612 447.562L282.654 446.65L280.442 451.395L282.399 452.308L284.612 447.562ZM279.554 447.326L260.204 470.081L264.193 473.473L283.542 450.718L279.554 447.326ZM263.305 469.404L249.602 463.014L247.389 467.759L261.092 474.149L263.305 469.404ZM250.868 466.493L251.476 465.188L246.731 462.975L246.123 464.28L250.868 466.493ZM251.081 465.797L275.127 438.083L271.172 434.651L247.127 462.366L251.081 465.797ZM272.043 438.74L300.102 451.824L302.315 447.079L274.256 433.994L272.043 438.74ZM298.836 448.345L269.726 510.771L274.471 512.984L303.581 450.558L298.836 448.345ZM270.992 514.25L289.916 523.075L292.129 518.329L273.205 509.505L270.992 514.25ZM288.65 519.596L282.26 533.299L287.005 535.512L293.395 521.808L288.65 519.596ZM285.739 532.033L230.925 506.473L228.713 511.218L283.526 536.778L285.739 532.033ZM232.192 509.952L238.582 496.248L233.836 494.036L227.446 507.739L232.192 509.952ZM235.103 497.515L256.636 507.556L258.849 502.811L237.315 492.77L235.103 497.515Z" fill="#FF39A6"/>
</svg>
