<svg fill="none" height="49" viewBox="0 0 63 49" width="63" xmlns="http://www.w3.org/2000/svg"><path d="m15.4099 37.4061.0055 2.6178 2.6178-.0054-.0055-2.6178zm-.064-30.47996 2.6179-.00542-.0055-2.61783-2.6179.00542zm-1.08.00224-.0055-2.61783-1.9951.00413-.525 1.92479zm-3.9297 14.40812.0055 2.6179 1.9951-.0041.525-1.9248zm-7.56002.0157-2.617832.0054.005494 2.6179 2.617838-.0055zm-.00151-.72-2.518619-.714-.099984.3528.000769.3666zm5.00296-17.65039-.00549-2.617838-1.97464.00409-.53848 1.899778zm15.47997-.03206 2.6178-.00543-.0055-2.617828-2.6178.005421zm.0723 34.43995-2.6178.0054.0054 2.6178 2.6179-.0054zm10.44-.0216 2.6178-.0055-.0055-2.6178-2.6178.0054zm.0158 7.5599.0055 2.6179 2.6179-.0054-.0055-2.6179zm-30.2399.0627-2.617836.0054.005495 2.6178 2.617831-.0054zm-.01587-7.56-.00549-2.6179-2.617838.0055.005495 2.6178zm14.49777-.03-.0639-30.47998-5.2357.01084.064 30.47994zm-2.6873-33.09239-1.08.00224.011 5.23566 1.08-.00223zm-3.6001 1.93116-3.92972 14.40813 5.05122 1.3779 3.9297-14.40821zm-1.4096 12.47923-7.56001.0157.01099 5.2356 7.56002-.0156zm-4.93669 2.6281-.00151-.72-5.235664.0108.001512.72zm-.10072-.0006 5.00301-17.65043-5.03728-1.42793-5.002969 17.65036zm2.48984-15.74656 15.47997-.03206-.011-5.235667-15.47996.032059zm12.85667-2.64447.0723 34.43993 5.2356-.0108-.0723-34.43998zm2.6956 37.05233 10.44-.0216-.011-5.2357-10.44.0216zm7.8166-2.634.0159 7.56 5.2357-.0109-.0159-7.56zm2.6282 4.9367-30.2399.0626.01099 5.2357 30.23991-.0626zm-27.61657 2.675-.01587-7.5599-5.235663.0108.015867 7.56zm-2.62821-4.9367 11.87998-.0246-.011-5.2357-11.87996.0246zm56.36308 2.2455-2.3944-1.0583-.0146.0331-.0137.0334zm-1.1962 1.8024 1.7797 1.9199.0384-.0355.0369-.0371zm-1.8576 1.1439-.9539-2.4379-.0841.0329-.0816.0386zm-4.38.0091 1.1097-2.371-.0584-.0273-.0596-.0245zm-1.8024-1.1363-1.8472 1.8549.0371.0369.0386.0355zm-1.2637-1.7974-2.4379.9539.0329.0841.0386.0816zm-.0095-4.5-2.3944-1.0582-.0146.033-.0137.0335zm1.2562-1.8026 1.7797 1.9199.0384-.0356.0369-.037zm1.7975-1.2037 1.0018 2.4186.0596-.0247.0583-.0276zm4.38-.0091-1.1097 2.371.0818.0383.0842.0325zm1.8625 1.1962-1.8472 1.8549.0371.0369.0385.0354zm1.2038 1.7975-2.4378.9538.0329.0841.0386.0816zm-2.1332 2.2244c.0009.4395-.0837.8369-.2518 1.2173l4.7889 2.1165c.4688-1.0609.701-2.1842.6986-3.3447zm-.2801 1.2838c-.1477.3607-.3534.6708-.6285.947l3.71 3.6945c.7628-.766 1.3545-1.6576 1.764-2.658zm-.5531.8743c-.2575.2387-.5897.4529-1.0319.6259l1.9079 4.8758c.9965-.39 1.9028-.9383 2.6833-1.6619zm-1.1976.6974c-.327.1547-.6657.2322-1.0449.233l.011 5.2357c1.1409-.0024 2.2415-.2478 3.2732-.736zm-1.0449.233c-.44.0009-.7964-.0837-1.1058-.2285l-2.2194 4.7419c1.052.4924 2.1762.7247 3.3362.7223zm-1.2238-.2803c-.4047-.1656-.7389-.3801-1.0225-.6408l-3.5431 3.8546c.7584.6971 1.6258 1.2402 2.5823 1.6317zm-.9469-.5684c-.3021-.3009-.5496-.6499-.7446-1.0621l-4.7327 2.2392c.4479.9465 1.0429 1.7958 1.7829 2.5327zm-.6731-.8964c-.159-.4064-.2438-.8435-.2448-1.3306l-5.2357.0108c.0024 1.1128.2008 2.1952.6048 3.2276zm-.2448-1.3306c-.001-.4884.0822-.8865.2203-1.2238l-4.8455-1.9834c-.4191 1.0238-.6128 2.1063-.6105 3.218zm.192-1.1572c.1907-.4317.412-.7284.6414-.941l-3.5593-3.8398c-.8086.7495-1.4248 1.6546-1.871 2.6643zm.7167-1.0136c.275-.2762.5842-.4833.9443-.6324l-2.0036-4.8372c-.9987.4137-1.8878 1.0091-2.6506 1.775zm1.0622-.6847c.3087-.1461.6648-.2322 1.1048-.2331l-.011-5.2357c-1.16.0024-2.2832.2394-3.3331.7361zm1.1048-.2331c.3791-.0008.7182.0753 1.0458.2287l2.2194-4.742c-1.0337-.4838-2.1353-.7247-3.2762-.7224zm1.2118.2995c.3994.1544.7081.3594.959.6093l3.6944-3.7099c-.7912-.7879-1.7242-1.3804-2.766-1.783zm1.0346.6816c.2017.1854.3877.4411.5376.8241l4.8756-1.9077c-.4131-1.0558-1.0296-1.9984-1.87-2.7709zm.6091.9898c.1461.3088.2322.6649.2331 1.1049l5.2357-.0109c-.0024-1.16-.2394-2.2832-.7362-3.3331z" fill="#30efd3"/></svg>