<svg fill="none" height="48" viewBox="0 0 694 48" width="694" xmlns="http://www.w3.org/2000/svg"><path d="m32.2189 3.6411 1-.00209-.0021-1-1 .00209zm-3.7592 38.7679-.7296-.6838-.0053.0057zm-22.61992.0472-.73216.6812.00539.0057zm-3.8608-38.75205-.00209-1-.999994.00208.002085 1zm7.91998-.01652 1.00004-.00208-.0021-1-1.00002.00208zm1.80944 33.29627-.7687.6397zm10.92-.0227-.7714-.6364zm1.6705-33.30359-.0021-1-1 .00209.0021.99999zm6.92-.01443.0573 27.47992 2-.0041-.0573-27.47999zm.0573 27.47992c.0096 4.6206-1.2114 8.1111-3.5461 10.6021l1.4593 1.3677c2.7739-2.9597 4.0972-6.9945 4.0868-11.9739zm-3.5514 10.6078c-2.2665 2.4566-5.716 3.7716-10.5386 3.7816l.0041 2c5.1774-.0108 9.2422-1.4314 12.0044-4.4254zm-10.5386 3.7816c-4.8215.0101-8.30116-1.2901-10.61965-3.7432l-1.45354 1.3738c2.81285 2.9762 6.89889 4.3802 12.07729 4.3694zm-10.61427-3.7375c-2.30812-2.4809-3.52602-5.9684-3.53566-10.593l-2 .0042c.01038 4.9754 1.32816 9.0026 4.07137 11.9511zm-3.53566-10.593-.05729-27.47994-1.999999.00417.057289 27.47997zm-1.05521-26.47786 7.91999-.01651-.00417-2-7.91999.01652zm6.9179-1.01442.0573 27.47998 2.00004-.0042-.0573-27.47995zm.0573 27.47998c.00548 2.6283.62513 4.8215 1.98344 6.4539l1.5374-1.2793c-.9676-1.1627-1.516-2.8472-1.5208-5.1788zm1.98344 6.4539c1.4162 1.7019 3.5719 2.4545 6.2351 2.4489l-.0041-2c-2.2968.0048-3.784-.635-4.6936-1.7282zm6.2351 2.4489c2.6632-.0055 4.8158-.7671 6.2249-2.4749l-1.5427-1.2728c-.9051 1.0969-2.3895 1.743-4.6863 1.7477zm6.2249-2.4749c1.3515-1.6381 1.962-3.8338 1.9565-6.4621l-2 .0041c.0049 2.3317-.5365 4.0184-1.4992 5.1852zm1.9565-6.4621-.0573-27.47997-2 .00416.0573 27.47991zm-1.0552-26.47789 7.92-.01652-.0042-1.99999-7.92.01651zm35.3154 36.96649-.9914.1303.1145.8715.879-.0018zm1.08-.0023.0021 1 1-.0021-.0021-1zm-.0793-38.03991-.002-1-1 .00209.002.99999zm7.92-.01651 1-.00209-.0021-1-1 .00209zm.0876 41.99992.0021 1 1-.0021-.0021-1zm-15.48.0323-.9915.1303.1146.8715.879-.0018zm-4.9993-38.0297.9915-.13033-.1146-.8715-.879.00184zm-1.08.00225-.0021-.99999-1 .00208.0021 1zm.0793 38.03995.0021 1 1-.0021-.0021-1zm-7.92.0165-1 .0021.0021 1 1-.0021zm-.0875-41.99993-.0021-.99999-1 .00208.0021 1zm15.4799-.03227.9915-.13034-.1145-.87149-.879.00183zm5.0014 39.0297 1.08-.0023-.0041-2-1.08.0023zm2.0779-1.0044-.0793-38.0399-2 .00417.0793 38.03993zm-1.0772-37.03781 7.92-.01652-.0042-1.99999-7.9199.01651zm6.9179-1.01443.0876 41.99994 2-.0042-.0876-41.99991zm1.0855 40.99784-15.48.0323.0042 2 15.48-.0323zm-14.4864.9019-4.9993-38.02963-1.983.26067 4.9993 38.02966zm-5.9929-38.89929-1.08.00225.0042 1.99999 1.08-.00225zm-2.0779 1.00433.0793 38.03996 2-.0042-.0793-38.03993zm1.0772 37.03786-7.9199.0165.0041 2 7.92-.0165zm-6.9179 1.0144-.0875-41.99991-2 .00417.0875 41.99994zm-1.0854-40.99783 15.4799-.03227-.0041-2-15.48.03228zm14.4864-.90194 4.9993 38.02967 1.9829-.2607-4.9993-38.02964zm23.5097-.17728-.0021-1-1 .00209.0021 1zm7.92-.01651 1-.00209-.0021-.99999-1 .00208zm.0718 34.43996-1 .0021.0021.9999 1-.002zm19.0798-.0398 1-.0021-.002-1-1 .0021zm.016 7.56.002 1 1-.0021-.002-1zm-27.0001.0563-1 .002.0021 1 1-.002zm-.0854-40.99995 7.92-.01651-.0042-2-7.92.01651zm6.9179-1.01443.0718 34.43998 2-.0042-.0718-34.43995zm1.0739 35.43788 19.0797-.0398-.004-2-19.0799.0398zm18.0777-1.0377.016 7.56 2-.0042-.016-7.56zm1.014 6.5579-27.0001.0563.0041 2 27-.0563zm-25.9981 1.0542-.0875-41.99993-2 .00417.0875 41.99986zm35.0511-42.07319-.003-1-.999.00208.002 1zm28.08-.05855 1-.00208-.003-1-1 .00208zm.015 7.55994.002 1 1-.002-.002-1zm-10.08.0211-.002-1.00003-1 .00208.002.99995zm.056 26.8799-1 .0021.002 1 1-.0021zm10.08-.021 1-.0021-.002-1-1 .0021zm.016 7.56.002 1 1-.0021-.002-1zm-28.08.0585-1 .0021.002 1 1-.0021zm-.016-7.56-.002-1-1 .0021.002 1zm10.08-.021.002 1 1-.0021-.002-1zm-.056-26.8799 1-.0021-.002-1-1 .0021zm-10.08.021-1 .0021.002 1 1-.0021zm-.013-6.56 28.08-.05854-.005-2-28.08.05855zm27.078-1.05645.015 7.55995 2-.0041-.015-7.56002zm1.013 6.5579-10.08.02102.004 2.00003 10.08-.0211zm-11.078 1.02305.056 26.88 2-.0042-.056-26.8799zm1.058 27.8779 10.08-.021-.004-2-10.08.021zm9.078-1.0189.016 7.56 2-.0042-.016-7.56zm1.014 6.5579-28.08.0585.004 2 28.08-.0585zm-27.078 1.0564-.016-7.56-2 .0042.016 7.56zm-1.014-6.5579 10.08-.021-.004-2-10.08.021zm11.078-1.0231-.056-26.8799-2 .0042.056 26.8799zm-1.058-27.8778-10.08.021.004 2 10.08-.021zm-9.078 1.0189-.015-7.55998-2 .00417.015 7.56001zm32.723-7.62824-.002-.99999-1 .00208.002 1zm13.92-.02902.997-.0779-.072-.92403-.927.00193zm2.466 31.55496 1-.0021-.001-.038-.002-.0378zm.012 6.12-1 .002.002 1 1-.002zm1.44-.003.002 1 1-.0021-.002-1zm-.012-6.12-.998-.0738-.003.0379.001.038zm2.334-31.56497-.002-.99999-.927.00193-.069.92432zm13.92-.02902 1-.00208-.002-1-1 .00208zm.087 41.99989.002 1 1-.0021-.002-1zm-7.2.015-1 .0021.002 1 1-.0021zm-.058-28.0799-.998-.0727-.002.0373v.0375zm.7-9.60149.997.07271.078-1.07495-1.077.00225zm-1.44.00301-.002-1-.921.00192-.074.91763zm-3.042 37.68638.002 1 .921-.0019.074-.9176zm-11.88.0248-.996.0878.081.9141.917-.0019zm-3.318-37.67315.996-.08775-.081-.91417-.917.00192zm-1.44.003-.002-1-1.078.00225.083 1.07462zm.74 9.59845 1-.0021v-.0374l-.003-.0373zm.058 28.08.002 1 1-.0021-.002-1zm-7.2.015-1 .0021.002 1 1-.0021zm-.085-40.99994 13.92-.02902-.004-2-13.92.02903zm12.921-.95111 2.466 31.55495 1.994-.1558-2.466-31.55496zm2.463 31.47915.012 6.1199 2-.0041-.012-6.12zm1.014 7.1179 1.44-.003-.004-2-1.44.003zm2.438-1.0051-.012-6.12-2 .0042.012 6.1199zm-.015-6.0442 2.334-31.56492-1.995-.14749-2.334 31.56491zm1.339-30.63867 13.92-.02902-.004-2-13.92.02903zm12.918-1.02693.087 41.9999 2-.0042-.087-41.99987zm1.085 40.9978-7.2.015.004 2 7.2-.015zm-6.198 1.013-.058-28.08-2 .0042.058 28.0799zm-.061-28.0052.7-9.60148-1.995-.14542-.7 9.6015zm-.299-10.67418-1.44.003.004 1.99999 1.44-.003zm-2.435.92255-3.041 37.68643 1.993.1609 3.042-37.68644zm-2.047 36.76683-11.88.0248.004 2 11.88-.0248zm-10.882.9371-3.318-37.6732-1.992.17549 3.318 37.67321zm-4.316-38.58545-1.44.003.004 2 1.44-.00301zm-2.435 1.07987.74 9.59848 1.994-.1537-.74-9.59852zm.737 9.52368.058 28.08 2-.0042-.058-28.08zm1.056 27.0779-7.2.015.004 2 7.2-.015zm-6.198 1.0129-.087-41.99992-2 .00417.087 41.99995zm38.651-42.08069-.002-.99999-1 .00208.002 1zm28.08-.05854 1-.00209-.002-.99999-1 .00208zm.016 7.56003.002 1 1-.0021-.002-1zm-10.08.021-.002-1.00003-1 .00209.002 1.00004zm.056 26.8799-1 .0021.002 1 1-.0021zm10.08-.021 1-.0021-.002-1-1 .0021zm.015 7.56.003 1 1-.0021-.003-1zm-28.079.0585-1 .0021.002 1 1-.0021zm-.016-7.56-.002-1-1 .0021.002 1zm10.08-.021.002 1 1-.0021-.002-1zm-.056-26.8799 1-.0021-.002-1-1 .00209zm-10.08.021-1 .0021.002 1 1-.0021zm-.014-6.55999 28.08-.05854-.004-2-28.08.05855zm27.078-1.05646.016 7.55995 2-.0041-.016-7.56002zm1.014 6.55791-10.08.02101.004 2.00003 10.08-.021zm-11.078 1.02314.056 26.8799 2-.0042-.056-26.8799zm1.058 27.8778 10.08-.021-.004-2-10.08.021zm9.078-1.0189.015 7.56 2-.0042-.015-7.56zm1.013 6.5579-28.08.0585.005 2 28.08-.0585zm-27.077 1.0564-.016-7.5599-2 .0041.016 7.56zm-1.014-6.5579 10.08-.021-.004-2-10.08.021zm11.078-1.0231-.056-26.8799-2 .0042.056 26.8799zm-1.058-27.87781-10.08.02101.004 2 10.08-.021zm-9.078 1.01891-.016-7.55997-2 .00417.016 7.56zm34.642-7.63223-.002-1-1 .00209.002.99999zm30.24-.06305 1-.00208-.002-1-1 .00208zm.016 7.55998.002 1 1-.0021-.002-1zm-11.16.0233-.002-1.00002-1 .00208.002 1.00004zm.072 34.4399.002 1 1-.0021-.002-1zm-7.92.0165-1 .0021.002 1 1-.0021zm-.072-34.4399 1-.0021-.002-.99999-1 .00208zm-11.16.0233-1 .002.002 1 1-.002zm-.014-6.56003 30.24-.06305-.004-2-30.24.06305zm29.238-1.06096.016 7.55999 2-.0042-.016-7.55996zm1.014 6.5579-11.16.02327.004 2.00002 11.16-.0233zm-12.158 1.02539.072 34.4399 2-.0042-.072-34.4399zm1.07 33.4378-7.92.0165.004 2 7.92-.0165zm-6.918 1.0144-.072-34.4399-2 .0042.072 34.4399zm-1.074-35.43781-11.16.02327.004 2.00004 11.16-.0233zm-10.158 1.02121-.016-7.56002-2 .00417.016 7.55995zm37.402-7.63803-.002-1-1 .00209.002 1zm26.52-.05529 1-.00209-.002-.99999-1 .00208zm.016 7.56002.002 1 1-.0021-.002-1zm-18.6.0387-.002-.99995-1 .00208.002.99997zm.02 9.6-1 .0021.002 1 1-.0021zm17.88-.0373 1-.002-.002-1-1 .002zm.016 7.56.002 1 1-.0021-.002-1zm-17.88.0373-.002-1-1 .0021.002 1zm.02 9.72-1 .0021.002 1 1-.0021zm19.32-.0403 1-.0021-.002-1-1 .0021zm.016 7.56.002 1 1-.0021-.002-1zm-27.24.0568-1 .0021.002 1 1-.0021zm-.086-40.99993 26.52-.05529-.004-2-26.52.05529zm25.518-1.05321.016 7.56004 2-.0042-.016-7.56001zm1.014 6.55791-18.6.03878.004 1.99995 18.6-.0387zm-19.598 1.04083.02 9.6 2-.0042-.02-9.5999zm1.022 10.5979 17.88-.0373-.004-2-17.88.0373zm16.878-1.0352.016 7.56 2-.0042-.016-7.5599zm1.014 6.5579-17.88.0373.004 2 17.88-.0373zm-18.878 1.0394.02 9.72 2-.0042-.02-9.72zm1.022 10.7179 19.32-.0403-.004-2-19.32.0403zm18.318-1.0382.016 7.56 2-.0042-.016-7.56zm1.014 6.5579-27.24.0568.004 2 27.24-.0568zm-26.238 1.0547-.088-41.99991-2 .00417.088 41.99994zm33.491-42.06992-.002-1-1 .00209.002.99999zm26.827 3.60407-.694.71989.006.00569zm.073 34.73995.691.7227.006-.0058zm-26.813 3.6559-1 .0021.002 1 1-.0021zm-.016-7.62-.002-1-1 .0021.002 1zm3.96-.0082.002 1 1-.0021-.002-1zm-.056-26.82 1-.0021-.002-.99997-1 .00208zm-3.96.0083-1 .002.002 1 1-.002zm21.052 24.9161-.763-.6454-.002.0022zm-.048-23.0999-.753.6583.006.0068.007.0067zm-9.124-1.841-.002-1-1 .00208.002 1.00002zm.056 26.8799-1 .0021.002 1 1-.0021zm-11.949-33.41512 15.24-.03178-.005-1.99999-15.239.03177zm15.24-.03178c5.064-.01056 8.626 1.1719 10.891 3.35572l1.388-1.43973c-2.785-2.68567-6.948-3.92711-12.284-3.91598zm10.897 3.36143c2.25 2.13414 3.481 5.55567 3.492 10.48857l2-.0041c-.011-5.2271-1.316-9.28028-4.116-11.93562zm3.492 10.48857.025 12.24 2-.0042-.025-12.2399zm.025 12.24c.01 4.9314-1.206 8.3833-3.453 10.5688l1.394 1.4339c2.782-2.7049 4.07-6.7783 4.059-12.0069zm-3.448 10.5631c-2.255 2.1571-5.815 3.3363-10.883 3.3468l.004 2c5.332-.0111 9.487-1.248 12.262-3.9014zm-10.883 3.3468-15.24.0318.004 2 15.24-.0318zm-14.238 1.0297-.016-7.62-2 .0042.016 7.62zm-1.014-6.6179 3.96-.0082-.004-2-3.96.0082zm4.958-1.0103-.056-26.82-2 .0042.056 26.8199zm-1.058-27.81789-3.96.00826.004 2.00003 3.96-.0083zm-2.958 1.00619-.015-7.56001-2 .00417.015 7.55994zm14.298 27.8502c2.869-.0059 5.159-.6692 6.52-2.2887l-1.531-1.2865c-.794.9449-2.341 1.5697-4.993 1.5752zm6.518-2.2866c1.338-1.5839 1.91-3.9066 1.904-6.7709l-2 .0041c.005 2.6557-.535 4.4153-1.431 5.476zm1.904-6.7709-.024-11.52-2 .0041.024 11.52zm-.024-11.52c-.006-2.5407-.602-4.6389-1.951-6.1263l-1.481 1.3437c.896.988 1.427 2.5274 1.432 4.7867zm-1.939-6.1128c-1.37-1.5657-3.659-2.19557-6.519-2.18961l.004 2.00001c2.66-.0056 4.214.5966 5.009 1.5063zm-6.519-2.18961-3.36.00701.004 2 3.36-.007zm-4.358 1.00911.056 26.8799 2-.0041-.056-26.88zm1.058 27.8778 3.36-.007-.004-2-3.36.007zm71.058-9.4281-.003-1-1 .0021.003 1zm.033 15.8399.002 1 1-.0021-.002-1zm-7.92.0165-1 .0021.002 1 1-.0021zm-.088-41.99987-.002-.99999-1 .00208.002 1zm22.082 1.03397-.408.91277.009.00429.01.00408zm3.966 2.75174-.743.66909.012.0135.013.01304zm2.408 3.89496-.943.3335.006.0155.006.0154zm.022 10.5-.939-.3437-.003.007-.002.0072zm-2.392 4.025-.744-.6674-.002.0014zm-3.954 2.8282.413.9111zm-14.173-6.4504-1 .0021.002 1 1-.0021zm11.877-1.4648-.68-.7334-.007.0067-.007.0068zm-.017-8.16-.691.7229.007.0067.007.0067zm-11.883-1.4152-.002-.99999-1 .00209.002 1zm-.961 18.6021.033 15.8399 2-.0042-.033-15.8399zm1.03 14.8378-7.92.0165.005 2 7.92-.0165zm-6.917 1.0145-.088-41.99995-2 .00417.088 41.99988zm-1.086-40.99787 16.44-.03427-.004-2-16.44.03428zm16.44-.03427c2.05-.00428 3.786.33388 5.232.98101l.817-1.82555c-1.757-.78619-3.784-1.16019-6.053-1.15546zm5.251.98938c1.482.62627 2.678 1.46284 3.612 2.49969l1.486-1.33819c-1.151-1.27881-2.599-2.27672-4.32-3.00379zm3.637 2.52623c.981 1.01366 1.708 2.18818 2.183 3.53283l1.886-.6669c-.571-1.61323-1.45-3.03537-2.633-4.2572zm2.195 3.56373c.518 1.3253.777 2.682.78 4.076l2-.0042c-.003-1.6461-.31-3.2482-.918-4.8006zm.78 4.076.003 1.4399 2-.0041-.003-1.44zm.003 1.4399c.003 1.4376-.251 2.8613-.769 4.276l1.878.6875c.596-1.6277.895-3.2852.891-4.9676zm-.774 4.2902c-.472 1.3527-1.2 2.5803-2.192 3.6871l1.489 1.3348c1.163-1.2977 2.029-2.7534 2.591-4.3629zm-2.194 3.6885c-.933 1.0457-2.133 1.9101-3.62 2.5832l.825 1.8221c1.709-.7736 3.146-1.7947 4.287-3.0733zm-3.62 2.5832c-1.443.6531-3.177.9985-5.228 1.0028l.005 2c2.269-.0047 4.294-.3872 6.048-1.1807zm-5.228 1.0028-8.52.0178.005 2 8.52-.0178zm-8.531-5.5422 7.74-.0162-.004-2-7.74.0162zm7.74-.0162c1.945-.004 3.598-.5426 4.829-1.7286l-1.388-1.4399c-.766.7381-1.871 1.1653-3.445 1.1685zm4.815-1.7152c1.259-1.1671 1.876-2.6827 1.872-4.4587l-2 .0042c.003 1.264-.415 2.2305-1.232 2.9877zm1.872-4.4587-.002-.72-2 .0042.002.72zm-.002-.72c-.003-1.776-.627-3.2891-1.891-4.4509l-1.353 1.4725c.82.7538 1.242 1.7185 1.244 2.9826zm-1.876-4.4375c-1.236-1.1809-2.891-1.71258-4.836-1.70853l.004 2.00003c1.574-.0033 2.681.4192 3.45 1.1542zm-4.836-1.70853-7.74.01614.004 1.99999 7.74-.0161zm-8.738 1.01823.023 11.04 2-.0042-.023-11.04zm32.45-3.96767-.738-.67554-.004.00539zm22.74-.04742-.74.67326.005.00533zm.072 34.79989-.728-.6854-.005.0054zm-22.74.0475-.73.6831.005.0053zm14.993-3.5113.419.9082.015-.0071.015-.0076zm2.336-1.9849.815.5796zm1.254-3.0026.979.2006zm-.098-17.8798.972-.2367zm-1.326-2.9973.813-.5829zm-2.344-1.9751-.474.8803.014.0078.015.0073zm-6.96.01451.449.89349.015-.0074.014-.0078zm-2.336 1.98489-.815-.5796zm-1.314 3.0027-.972-.2326zm-.022 17.8801-.979.2047zm1.266 2.9974.813-.583zm2.344 1.9751-.445.8954.015.0075.015.007zm-10.919-18.6373c-.011-5.2782 1.299-9.23036 3.796-11.99623l-1.484-1.34029c-2.931 3.24547-4.323 7.73902-4.312 13.34072zm3.791-11.99085c2.53-2.76094 6.038-4.18966 10.656-4.19928l-.005-2c-5.062.01056-9.147 1.59768-12.126 4.84824zm10.656-4.19928c4.617-.00963 8.108 1.40451 10.607 4.14958l1.479-1.34647c-2.953-3.24357-7.028-4.813664-12.091-4.80311zm10.612 4.15493c2.546 2.75556 3.89 6.7001 3.901 11.9748l2-.0041c-.012-5.6053-1.445-10.09495-4.432-13.32787zm3.901 11.9748.02 9.36 2-.0041-.02-9.36zm.02 9.36c.011 5.4459-1.322 9.424-3.842 12.1011l1.456 1.3708c2.988-3.1744 4.398-7.722 4.386-13.476zm-3.847 12.1065c-2.486 2.6797-5.973 4.074-10.6 4.0837l.005 2c5.053-.0106 9.119-1.552 12.061-4.7236zm-10.6 4.0837c-4.625.0096-8.143-1.37-10.681-4.0447l-1.451 1.3769c2.994 3.1538 7.082 4.6783 12.137 4.6678zm-10.676-4.0394c-2.494-2.6664-3.826-6.641-3.837-12.0904l-2 .0042c.012 5.7506 1.418 10.2902 4.376 13.4525zm-3.837-12.0904-.02-9.36-2 .0042.02 9.36zm14.503 10.9298c1.534-.0032 2.887-.2394 4.015-.7593l-.837-1.8164c-.791.3641-1.837.5729-3.183.5757zm4.045-.774c1.099-.5523 2.005-1.3193 2.702-2.2988l-1.63-1.1591c-.5.7029-1.151 1.2591-1.97 1.6709zm2.702-2.2988c.69-.9703 1.157-2.1048 1.418-3.3816l-1.959-.4012c-.214 1.0441-.582 1.9115-1.089 2.6237zm1.418-3.3816c.254-1.238.376-2.5873.373-4.0434l-2 .0041c.003 1.3439-.11 2.5551-.332 3.6381zm.373-4.0434-.022-10.32-2 .0042.022 10.3199zm-.022-10.32c-.003-1.3908-.153-2.7099-.456-3.9537l-1.943.4733c.262 1.075.397 2.2353.399 3.4846zm-.456-3.9537c-.308-1.2648-.798-2.3857-1.485-3.3435l-1.625 1.1658c.516.7197.91 1.597 1.167 2.651zm-1.485-3.3435c-.701-.9766-1.611-1.73991-2.712-2.28756l-.89 1.79076c.821.4083 1.474.9618 1.977 1.6626zm-2.682-2.27249c-1.14-.61401-2.473-.89555-3.959-.89246l.005 2.00005c1.233-.0026 2.222.231 3.005.653zm-3.959-.89246c-1.486.0031-2.817.29021-3.954.90896l.956 1.75659c.781-.4252 1.769-.663 3.003-.6655zm-3.925.89376c-1.099.55224-2.005 1.31929-2.702 2.29879l1.63 1.1591c.5-.7029 1.151-1.2591 1.97-1.6709zm-2.702 2.29879c-.683.9607-1.168 2.0837-1.471 3.3497l1.945.4652c.252-1.0551.643-1.934 1.156-2.6558zm-1.471 3.3497c-.298 1.2451-.443 2.5648-.44 3.9556l2-.0042c-.002-1.2492.128-2.4101.385-3.4862zm-.44 3.9556.022 10.32 2-.0042-.022-10.32zm.022 10.32c.003 1.4561.13 2.8049.389 4.0418l1.958-.4093c-.227-1.0822-.344-2.2929-.347-3.6367zm.389 4.0418c.267 1.2757.738 2.4082 1.432 3.3756l1.626-1.1659c-.51-.71-.882-1.5758-1.1-2.619zm1.432 3.3756c.701.9766 1.611 1.7399 2.712 2.2876l.89-1.7908c-.821-.4083-1.474-.9618-1.976-1.6627zm2.742 2.3021c1.131.5152 2.484.7458 4.019.7426l-.005-2c-1.345.0028-2.393-.2016-3.184-.5624zm25.56-35.94241-.002-.99999-1 .00208.002 1zm30.24-.06304 1-.00209-.002-1-1 .00209zm.016 7.55995.002 1 1-.0021-.002-1zm-11.16.0233-.002-1-1 .00209.002 1.00001zm.072 34.4399.002 1 1-.0021-.002-1zm-7.92.0165-1 .0021.002 1 1-.0021zm-.072-34.4399 1-.0021-.002-.99997-1 .00209zm-11.16.0233-1 .0021.002 1 1-.0021zm-.014-6.56001 30.24-.06305-.004-1.99999-30.24.06305zm29.238-1.06096.016 7.55997 2-.0042-.016-7.55994zm1.014 6.55791-11.16.02326.004 2 11.16-.0233zm-12.158 1.02536.072 34.4399 2-.0042-.072-34.4399zm1.07 33.4378-7.92.0165.004 2 7.92-.0165zm-6.918 1.0145-.072-34.44-2 .0042.072 34.4399zm-1.074-35.43788-11.16.02326.004 2.00002 11.16-.0233zm-10.158 1.02118-.016-7.55999-2 .00417.016 7.56002zm37.403-7.638-.002-1-1 .00208.002 1zm26.52-.0553 1-.00208-.003-1-1 .00209zm.015 7.56.002 1 1-.0021-.002-1zm-18.6.0388-.002-1.00003-1 .00209.002 1.00004zm.02 9.5999-1 .0021.002 1 1-.0021zm17.88-.0372 1-.0021-.002-1-1 .0021zm.016 7.56.002 1 1-.0021-.002-1zm-17.88.0372-.002-1-1 .0021.002 1zm.02 9.72-1 .0021.002 1 1-.0021zm19.32-.0403 1-.0021-.002-1-1 .0021zm.016 7.56.002 1 1-.0021-.002-1zm-27.24.0568-1 .0021.002 1 1-.0021zm-.085-40.99991 26.52-.05529-.005-1.99999-26.519.05529zm25.518-1.0532.015 7.56001 2-.0042-.015-7.55998zm1.013 6.5579-18.6.03878.004 2.00003 18.6-.0388zm-19.598 1.04091.02 9.5999 2-.0041-.02-9.6zm1.022 10.5978 17.88-.0372-.004-2-17.88.0372zm16.878-1.0351.016 7.5599 2-.0041-.016-7.56zm1.014 6.5579-17.88.0372.004 2 17.88-.0372zm-18.878 1.0393.02 9.72 2-.0042-.02-9.72zm1.022 10.7179 19.32-.0403-.004-2-19.32.0403zm18.318-1.0382.016 7.56 2-.0042-.016-7.56zm1.014 6.5579-27.24.0568.004 2 27.24-.0568zm-26.238 1.0547-.087-41.99989-2 .00417.087 41.99992zm54.87-4.0744-.991.1304.114.8714.879-.0018zm1.08-.0022.002 1 1-.0021-.002-1zm-.079-38.03996-.002-.99999-1 .00208.002 1zm7.92-.01651 1-.00208-.002-1-1 .00208zm.087 41.99987.002 1 1-.002-.002-1zm-15.48.0323-.991.1304.114.8714.879-.0018zm-4.999-38.02964.992-.13034-.115-.87149-.879.00183zm-1.08.00225-.002-1-1 .00208.002 1zm.079 38.03989.002 1 1-.0021-.002-1zm-7.92.0165-1 .0021.002 1 1-.0021zm-.087-41.99987-.002-1-1 .00208.002 1zm15.48-.03228.991-.13033-.114-.8715-.879.00183zm5.001 39.02965 1.08-.0022-.004-2-1.08.0022zm2.078-1.0043-.079-38.03994-2 .00417.079 38.03997zm-1.077-37.03786 7.92-.01651-.004-2-7.92.01652zm6.918-1.01442.087 41.99988 2-.0041-.087-41.99995zm1.085 40.99778-15.48.0323.004 2 15.48-.0323zm-14.486.902-4.999-38.02968-1.983.26067 4.999 38.02971zm-5.993-38.89934-1.08.00225.004 2 1.08-.00226zm-2.078 1.00433.079 38.03991 2-.0042-.079-38.03988zm1.077 37.03781-7.92.0165.004 2 7.92-.0165zm-6.918 1.0145-.087-41.99996-2 .00417.087 41.99989zm-1.085-40.99788 15.48-.03227-.004-2-15.48.03228zm14.486-.90193 5 38.02971 1.983-.2607-5-38.02968zm21.83-.17378-.002-1-1 .00208.002 1zm30.24-.06305 1-.00209-.002-.99999-1 .00208zm.016 7.55994.002 1 1-.002-.002-1zm-11.16.0233-.002-.99999-1 .00209.002 1zm.072 34.4399.002 1 1-.002-.002-1zm-7.92.0166-1 .002.002 1 1-.0021zm-.072-34.44 1-.0021-.002-.99996-1 .00209zm-11.16.0233-1 .0021.002 1 1-.0021zm-.014-6.56 30.24-.06304-.004-2-30.24.06305zm29.238-1.06096.016 7.55996 2-.0041-.016-7.56003zm1.014 6.55791-11.16.02326.004 1.99999 11.16-.0233zm-12.158 1.02535.072 34.4399 2-.0041-.072-34.44zm1.069 33.4378-7.92.0166.005 1.9999 7.92-.0165zm-6.917 1.0145-.072-34.44-2 .0042.072 34.4399zm-1.074-35.43787-11.16.02327.004 2 11.16-.0233zm-10.158 1.02117-.016-7.55998-2 .00417.016 7.56001zm36.802-7.63674-.002-1-1 .00209.002.99999zm28.08-.05855 1-.00208-.002-1-1 .00209zm.016 7.55999.002 1 1-.0021-.002-.99998zm-10.08.02102-.002-1-1 .00208.002 1zm.056 26.87998-1 .002.002 1 1-.002zm10.08-.0211 1-.002-.002-1-1 .002zm.016 7.56.002 1 1-.0021-.002-1zm-28.08.0586-1 .0021.002 1 1-.0021zm-.016-7.56-.002-1-1 .0021.002 1zm10.08-.021.002 1 1-.0021-.002-1zm-.056-26.88 1-.0021-.002-.99995-1 .00208zm-10.08.021-1 .0021.002 1 1-.0021zm-.014-6.55994 28.08-.05855-.004-1.99999-28.08.05854zm27.078-1.05646.016 7.55999 2-.00417-.016-7.55999zm1.014 6.5579-10.08.02102.004 1.99998 10.08-.021zm-11.078 1.0231.056 26.8799 2-.0041-.056-26.87997zm1.058 27.8779 10.08-.0211-.004-2-10.08.0211zm9.078-1.019.016 7.56 2-.0042-.016-7.5599zm1.014 6.5579-28.08.0586.004 2 28.08-.0586zm-27.078 1.0565-.016-7.56-2 .0042.016 7.56zm-1.014-6.5579 10.08-.021-.004-2-10.08.021zm11.078-1.0231-.056-26.88-2 .0042.056 26.88zm-1.058-27.87787-10.08.02102.004 1.99995 10.08-.021zm-9.078 1.01897-.016-7.56003-2 .00417.016 7.55996zm56.971 25.3212.975-.2231-.178-.7785-.799.0016zm-14.28.0298-.002-1-.799.0017-.175.7793zm-2.021 9.0042.002 1 .799-.0016.175-.7793zm-8.28.0173-.973-.23-.292 1.2326 1.267-.0026zm9.932-42.0208-.002-.99999-.789.00164-.182.76832zm14.88-.03102.973-.23409-.185-.76755-.79.00164zm10.108 41.97902.002 1 1.267-.0026-.297-1.2315zm-8.28.0173-.975.2231.178.7785.799-.0016zm-14.675-16.5295-.975-.2212-.277 1.2238 1.255-.0026zm10.86-.0226.003 1 1.251-.0026-.279-1.2201zm-4.904-21.46984.975-.22271-.178-.77895-.799.00166zm-1.08.00225-.002-1-.797.00166-.177.7771zm7.738 28.02389-14.28.0298.004 2 14.28-.0298zm-15.254.8108-2.021 9.0042 1.952.4381 2.021-9.0043zm-1.047 8.2232-8.28.0173.004 2 8.28-.0173zm-7.305 1.2473 9.933-42.02077-1.947-.46006-9.932 42.02083zm8.961-41.2508 14.88-.03102-.004-2-14.88.03103zm13.906-.79693 10.108 41.97903 1.944-.4682-10.107-41.97901zm11.078 40.74493-8.28.0173.004 2 8.28-.0173zm-7.303.7942-2.059-8.9958-1.95.4462 2.059 8.9958zm-15.647-15.3064 10.86-.0226-.005-2-10.86.0226zm11.832-1.2453-4.904-21.46985-1.95.44542 4.905 21.46983zm-5.881-22.24714-1.08.00225.004 2 1.08-.00225zm-2.054.78101-4.875 21.49023 1.951.4425 4.875-21.49025zm24.806-3.78845-.002-1-1 .00208.002 1zm7.92-.01652 1-.00208-.002-1-1 .00209zm.071 34.4399-1 .0021.003 1 1-.0021zm19.08-.0397 1-.0021-.002-1-1 .0021zm.016 7.5599.002 1 1-.0021-.002-.9999zm-27 .0563-1 .0021.002 1 1-.0021zm-.085-40.99989 7.92-.01651-.004-1.99999-7.92.01651zm6.918-1.01442.071 34.43991 2-.0042-.071-34.43988zm1.074 35.43781 19.079-.0398-.004-1.9999-19.08.0397zm18.077-1.0377.016 7.56 2-.0041-.016-7.56zm1.014 6.5579-27 .0563.004 2 27-.0563zm-25.998 1.0542-.087-41.99987-2 .00417.087 41.9999z" fill="#ff39a6"/></svg>