<svg width="696" height="51" viewBox="0 0 696 51" fill="none" xmlns="http://www.w3.org/2000/svg">
<path d="M2.95543 5.72798L2.94997 3.11015L0.332142 3.11561L0.3376 5.73344L2.95543 5.72798ZM29.4754 5.67269L32.0932 5.66723L32.0878 3.0494L29.4699 3.05486L29.4754 5.67269ZM29.4911 13.2327L29.4966 15.8505L32.1144 15.8451L32.109 13.2272L29.4911 13.2327ZM10.8912 13.2715L10.8857 10.6536L8.26789 10.6591L8.27335 13.2769L10.8912 13.2715ZM10.9112 22.8714L8.29336 22.8769L8.29882 25.4947L10.9167 25.4893L10.9112 22.8714ZM28.7912 22.8342L31.409 22.8287L31.4035 20.2109L28.7857 20.2163L28.7912 22.8342ZM28.8069 30.3941L28.8124 33.012L31.4302 33.0065L31.4248 30.3887L28.8069 30.3941ZM10.927 30.4314L10.9215 27.8136L8.30366 27.819L8.30912 30.4369L10.927 30.4314ZM10.9472 40.1514L8.32939 40.1569L8.33485 42.7747L10.9527 42.7692L10.9472 40.1514ZM30.2672 40.1111L32.885 40.1057L32.8796 37.4878L30.2617 37.4933L30.2672 40.1111ZM30.2829 47.6711L30.2884 50.2889L32.9062 50.2835L32.9008 47.6656L30.2829 47.6711ZM3.043 47.7279L0.425166 47.7334L0.430624 50.3512L3.04846 50.3457L3.043 47.7279ZM2.96089 8.34582L29.4808 8.29053L29.4699 3.05486L2.94997 3.11015L2.96089 8.34582ZM26.8575 5.67815L26.8733 13.2381L32.109 13.2272L32.0932 5.66723L26.8575 5.67815ZM29.4857 10.6148L10.8857 10.6536L10.8966 15.8893L29.4966 15.8505L29.4857 10.6148ZM8.27335 13.2769L8.29336 22.8769L13.529 22.866L13.509 13.266L8.27335 13.2769ZM10.9167 25.4893L28.7966 25.452L28.7857 20.2163L10.9057 20.2536L10.9167 25.4893ZM26.1733 22.8396L26.1891 30.3996L31.4248 30.3887L31.409 22.8287L26.1733 22.8396ZM28.8015 27.7763L10.9215 27.8136L10.9324 33.0493L28.8124 33.012L28.8015 27.7763ZM8.30912 30.4369L8.32939 40.1569L13.5651 40.1459L13.5448 30.426L8.30912 30.4369ZM10.9527 42.7692L30.2726 42.729L30.2617 37.4933L10.9418 37.5336L10.9527 42.7692ZM27.6493 40.1166L27.6651 47.6766L32.9008 47.6656L32.885 40.1057L27.6493 40.1166ZM30.2775 45.0533L3.03754 45.1101L3.04846 50.3457L30.2884 50.2889L30.2775 45.0533ZM5.66083 47.7224L5.57327 5.72253L0.3376 5.73344L0.425166 47.7334L5.66083 47.7224ZM58.9129 43.6514L56.3174 43.9926L56.6173 46.274L58.9184 46.2692L58.9129 43.6514ZM59.9929 43.6492L59.9984 46.267L62.6162 46.2615L62.6107 43.6437L59.9929 43.6492ZM59.9136 5.60923L59.9081 2.9914L57.2903 2.99686L57.2958 5.61469L59.9136 5.60923ZM67.8336 5.59272L70.4514 5.58726L70.446 2.96943L67.8281 2.97489L67.8336 5.59272ZM67.9211 47.5926L67.9266 50.2105L70.5444 50.205L70.539 47.5872L67.9211 47.5926ZM52.4412 47.6249L49.8457 47.9661L50.1456 50.2475L52.4466 50.2427L52.4412 47.6249ZM47.4419 9.59524L50.0374 9.25405L49.7375 6.97261L47.4364 6.97741L47.4419 9.59524ZM46.3619 9.5975L46.3564 6.97966L43.7386 6.98512L43.744 9.60295L46.3619 9.5975ZM46.4412 47.6374L46.4466 50.2552L49.0645 50.2498L49.059 47.632L46.4412 47.6374ZM38.5212 47.6539L35.9034 47.6594L35.9088 50.2772L38.5267 50.2718L38.5212 47.6539ZM38.4336 5.65401L38.4282 3.03618L35.8103 3.04164L35.8158 5.65947L38.4336 5.65401ZM53.9136 5.62174L56.5091 5.28054L56.2092 2.99911L53.9081 3.00391L53.9136 5.62174ZM58.9184 46.2692L59.9984 46.267L59.9874 41.0313L58.9074 41.0336L58.9184 46.2692ZM62.6107 43.6437L62.5314 5.60377L57.2958 5.61469L57.3751 43.6546L62.6107 43.6437ZM59.9191 8.22706L67.839 8.21055L67.8281 2.97489L59.9081 2.9914L59.9191 8.22706ZM65.2157 5.59818L65.3033 47.5981L70.539 47.5872L70.4514 5.58726L65.2157 5.59818ZM67.9157 44.9748L52.4357 45.0071L52.4466 50.2427L67.9266 50.2105L67.9157 44.9748ZM55.0367 47.2837L50.0374 9.25405L44.8464 9.93645L49.8457 47.9661L55.0367 47.2837ZM47.4364 6.97741L46.3564 6.97966L46.3673 12.2153L47.4473 12.2131L47.4364 6.97741ZM43.744 9.60295L43.8234 47.6429L49.059 47.632L48.9797 9.59204L43.744 9.60295ZM46.4357 45.0196L38.5157 45.0361L38.5267 50.2718L46.4466 50.2552L46.4357 45.0196ZM41.139 47.6485L41.0515 5.64856L35.8158 5.65947L35.9034 47.6594L41.139 47.6485ZM38.4391 8.27185L53.9191 8.23957L53.9081 3.00391L38.4282 3.03618L38.4391 8.27185ZM51.3181 5.96294L56.3174 43.9926L61.5084 43.3102L56.5091 5.28054L51.3181 5.96294ZM74.2718 5.57929L74.2664 2.96146L71.6485 2.96692L71.654 5.58475L74.2718 5.57929ZM101.099 9.18337L99.2823 11.0679L99.2901 11.0754L99.298 11.0828L101.099 9.18337ZM101.172 43.9233L102.981 45.8152L102.989 45.8077L102.997 45.8002L101.172 43.9233ZM74.3594 47.5792L71.7416 47.5847L71.747 50.2025L74.3649 50.197L74.3594 47.5792ZM74.3435 39.9592L74.3381 37.3414L71.7202 37.3468L71.7257 39.9647L74.3435 39.9592ZM78.3035 39.951L78.309 42.5688L80.9268 42.5633L80.9213 39.9455L78.3035 39.951ZM78.2476 13.131L80.8654 13.1256L80.86 10.5077L78.2421 10.5132L78.2476 13.131ZM74.2876 13.1393L71.6698 13.1447L71.6752 15.7626L74.2931 15.7571L74.2876 13.1393ZM95.3396 38.0554L93.3399 36.3659L93.3353 36.3715L95.3396 38.0554ZM95.2914 14.9555L93.321 16.679L93.3365 16.6967L93.3524 16.7142L95.2914 14.9555ZM86.1676 13.1145L86.1621 10.4967L83.5443 10.5021L83.5497 13.12L86.1676 13.1145ZM86.2236 39.9945L83.6058 39.9999L83.6112 42.6177L86.2291 42.6123L86.2236 39.9945ZM74.2773 8.19713L89.5173 8.16536L89.5064 2.92969L74.2664 2.96146L74.2773 8.19713ZM89.5173 8.16536C94.3616 8.15526 97.4385 9.29 99.2823 11.0679L102.916 7.29887C99.7102 4.20726 95.062 2.91811 89.5064 2.92969L89.5173 8.16536ZM99.298 11.0828C101.104 12.7953 102.275 15.7058 102.285 20.4009L107.521 20.39C107.509 14.9251 106.145 10.3609 102.901 7.28393L99.298 11.0828ZM102.285 20.4009L102.31 32.6409L107.546 32.63L107.521 20.39L102.285 20.4009ZM102.31 32.6409C102.32 37.3319 101.163 40.2811 99.3469 42.0464L102.997 45.8002C106.211 42.675 107.558 38.0989 107.546 32.63L102.31 32.6409ZM99.3625 42.0314C97.5267 43.787 94.4481 44.9195 89.5939 44.9296L89.6048 50.1653C95.1506 50.1537 99.787 48.8701 102.981 45.8152L99.3625 42.0314ZM89.5939 44.9296L74.354 44.9614L74.3649 50.197L89.6048 50.1653L89.5939 44.9296ZM76.9772 47.5738L76.9614 39.9538L71.7257 39.9647L71.7416 47.5847L76.9772 47.5738ZM74.349 42.5771L78.309 42.5688L78.2981 37.3331L74.3381 37.3414L74.349 42.5771ZM80.9213 39.9455L80.8654 13.1256L75.6298 13.1365L75.6857 39.9564L80.9213 39.9455ZM78.2421 10.5132L74.2821 10.5214L74.2931 15.7571L78.2531 15.7489L78.2421 10.5132ZM76.9054 13.1338L76.8897 5.57384L71.654 5.58475L71.6698 13.1447L76.9054 13.1338ZM89.5891 42.6053C92.6325 42.5989 95.5248 41.9046 97.3439 39.7394L93.3353 36.3715C92.9997 36.7708 92.0547 37.3645 89.5782 37.3696L89.5891 42.6053ZM97.3393 39.745C99.035 37.738 99.631 34.9597 99.6247 31.9265L94.389 31.9374C94.3942 34.4242 93.8787 35.7283 93.3399 36.3659L97.3393 39.745ZM99.6247 31.9265L99.6006 20.4065L94.365 20.4174L94.389 31.9374L99.6247 31.9265ZM99.6006 20.4065C99.5949 17.6383 98.9459 15.088 97.2305 13.1967L93.3524 16.7142C93.8821 17.2983 94.3607 18.3857 94.365 20.4174L99.6006 20.4065ZM97.2619 13.232C95.4283 11.1356 92.5444 10.4834 89.5221 10.4897L89.533 15.7253C92.0307 15.7201 92.9894 16.2999 93.321 16.679L97.2619 13.232ZM89.5221 10.4897L86.1621 10.4967L86.173 15.7323L89.533 15.7253L89.5221 10.4897ZM83.5497 13.12L83.6058 39.9999L88.8415 39.989L88.7854 13.1091L83.5497 13.12ZM86.2291 42.6123L89.5891 42.6053L89.5782 37.3696L86.2182 37.3766L86.2291 42.6123ZM148.228 5.4251L148.223 2.80727L145.605 2.81273L145.61 5.43056L148.228 5.4251ZM178.468 5.36205L181.086 5.3566L181.081 2.73876L178.463 2.74422L178.468 5.36205ZM178.484 12.922L178.489 15.5399L181.107 15.5344L181.102 12.9166L178.484 12.922ZM167.324 12.9453L167.319 10.3275L164.701 10.3329L164.706 12.9508L167.324 12.9453ZM167.396 47.3852L167.401 50.0031L170.019 49.9976L170.014 47.3798L167.396 47.3852ZM159.476 47.4017L156.858 47.4072L156.863 50.025L159.481 50.0196L159.476 47.4017ZM159.404 12.9618L162.022 12.9564L162.016 10.3385L159.399 10.344L159.404 12.9618ZM148.244 12.9851L145.626 12.9905L145.632 15.6084L148.249 15.6029L148.244 12.9851ZM148.234 8.04294L178.474 7.97989L178.463 2.74422L148.223 2.80727L148.234 8.04294ZM175.85 5.36751L175.866 12.9275L181.102 12.9166L181.086 5.3566L175.85 5.36751ZM178.478 10.3042L167.319 10.3275L167.329 15.5631L178.489 15.5399L178.478 10.3042ZM164.706 12.9508L164.778 47.3907L170.014 47.3798L169.942 12.9399L164.706 12.9508ZM167.39 44.7674L159.47 44.7839L159.481 50.0196L167.401 50.0031L167.39 44.7674ZM162.094 47.3963L162.022 12.9564L156.786 12.9673L156.858 47.4072L162.094 47.3963ZM159.399 10.344L148.239 10.3673L148.249 15.6029L159.409 15.5797L159.399 10.344ZM150.862 12.9796L150.846 5.41964L145.61 5.43056L145.626 12.9905L150.862 12.9796ZM188.694 9.00074L186.764 7.23234L186.757 7.23936L186.751 7.24642L188.694 9.00074ZM211.434 8.95333L209.498 10.7157L209.505 10.7228L209.511 10.7298L211.434 8.95333ZM211.507 43.7533L209.6 41.959L209.594 41.9659L209.587 41.9729L211.507 43.7533ZM188.767 43.8007L186.855 45.589L186.861 45.596L186.868 45.6029L188.767 43.8007ZM203.759 40.2894L204.855 42.6669L204.895 42.6483L204.935 42.6284L203.759 40.2894ZM206.095 38.3045L208.229 39.8217L206.095 38.3045ZM207.349 35.3019L209.914 35.827L207.349 35.3019ZM207.252 17.4221L209.795 16.8025L207.252 17.4221ZM205.925 14.4248L208.052 12.8988L208.052 12.8988L205.925 14.4248ZM203.581 12.4497L202.339 14.7542L202.377 14.7745L202.415 14.7936L203.581 12.4497ZM196.621 12.4642L197.797 14.8032L197.835 14.784L197.873 14.7635L196.621 12.4642ZM194.285 14.4491L192.152 12.932L192.152 12.932L194.285 14.4491ZM192.972 17.4518L190.426 16.8429L192.972 17.4518ZM192.949 35.3319L190.387 35.8677L192.949 35.3319ZM194.215 38.3293L196.342 36.8033L196.342 36.8033L194.215 38.3293ZM196.559 40.3044L195.394 42.6483L195.433 42.6681L195.474 42.6865L196.559 40.3044ZM187.258 21.6638C187.248 16.6472 188.49 13.133 190.637 10.7551L186.751 7.24642C183.471 10.8798 182.01 15.8113 182.023 21.6747L187.258 21.6638ZM190.624 10.7691C192.791 8.40427 195.833 7.10369 200.09 7.09482L200.079 1.85915C194.656 1.87046 190.105 3.58573 186.764 7.23234L190.624 10.7691ZM200.09 7.09482C204.348 7.08594 207.366 8.37392 209.498 10.7157L213.37 7.19092C210.049 3.5441 205.501 1.84785 200.079 1.85915L200.09 7.09482ZM209.511 10.7298C211.7 13.0992 212.972 16.6027 212.983 21.6101L218.218 21.5992C218.206 15.7266 216.7 10.796 213.357 7.1769L209.511 10.7298ZM212.983 21.6101L213.002 30.9701L218.238 30.9592L218.218 21.5992L212.983 21.6101ZM213.002 30.9701C213.013 36.1668 211.742 39.6842 209.6 41.959L213.413 45.5475C216.779 41.9709 218.25 36.9625 218.238 30.9592L213.002 30.9701ZM209.587 41.9729C207.471 44.2549 204.451 45.5301 200.17 45.5391L200.181 50.7747C205.581 50.7635 210.115 49.103 213.426 45.5336L209.587 41.9729ZM200.17 45.5391C195.891 45.548 192.836 44.2856 190.665 41.9985L186.868 45.6029C190.229 49.1443 194.78 50.786 200.181 50.7747L200.17 45.5391ZM190.678 42.0124C188.559 39.747 187.289 36.2295 187.278 31.0237L182.042 31.0347C182.055 37.0289 183.522 42.0257 186.855 45.589L190.678 42.0124ZM187.278 31.0237L187.258 21.6638L182.023 21.6747L182.042 31.0347L187.278 31.0237ZM200.166 43.5747C201.854 43.5712 203.454 43.3128 204.855 42.6669L202.664 37.9119C202.147 38.15 201.348 38.3366 200.155 38.3391L200.166 43.5747ZM204.935 42.6284C206.26 41.9626 207.373 41.0249 208.229 39.8217L203.962 36.7874C203.621 37.2666 203.177 37.6522 202.584 37.9504L204.935 42.6284ZM208.229 39.8217C209.067 38.6426 209.614 37.2921 209.914 35.827L204.784 34.7769C204.609 35.6327 204.32 36.2839 203.962 36.7874L208.229 39.8217ZM209.914 35.827C210.193 34.4638 210.322 33.0027 210.319 31.4557L205.083 31.4666C205.086 32.7196 204.98 33.819 204.784 34.7769L209.914 35.827ZM210.319 31.4557L210.297 21.1357L205.062 21.1466L205.083 31.4666L210.319 31.4557ZM210.297 21.1357C210.294 19.6304 210.131 18.1829 209.795 16.8025L204.708 18.0416C204.937 18.98 205.059 20.012 205.062 21.1466L210.297 21.1357ZM209.795 16.8025C209.446 15.3673 208.878 14.0493 208.052 12.8988L203.798 15.9509C204.176 16.4778 204.493 17.158 204.708 18.0416L209.795 16.8025ZM208.052 12.8988C207.192 11.6991 206.075 10.7661 204.747 10.1058L202.415 14.7936C203.01 15.0893 203.456 15.4731 203.798 15.9509L208.052 12.8988ZM204.823 10.1453C203.396 9.37593 201.784 9.05561 200.094 9.05914L200.105 14.2948C201.135 14.2927 201.845 14.4875 202.339 14.7542L204.823 10.1453ZM200.094 9.05914C198.404 9.06266 196.794 9.3897 195.37 10.165L197.873 14.7635C198.367 14.4948 199.075 14.297 200.105 14.2948L200.094 9.05914ZM195.446 10.1252C194.121 10.7911 193.008 11.7287 192.152 12.932L196.419 15.9662C196.76 15.487 197.204 15.1014 197.797 14.8032L195.446 10.1252ZM192.152 12.932C191.331 14.0859 190.769 15.4063 190.426 16.8429L195.518 18.0608C195.729 17.1763 196.043 16.4948 196.419 15.9662L192.152 12.932ZM190.426 16.8429C190.095 18.2247 189.938 19.6729 189.942 21.1782L195.177 21.1673C195.175 20.0326 195.293 19.0001 195.518 18.0608L190.426 16.8429ZM189.942 21.1782L189.963 31.4981L195.199 31.4872L195.177 21.1673L189.942 21.1782ZM189.963 31.4981C189.966 33.0451 190.102 34.5057 190.387 35.8677L195.511 34.7962C195.311 33.8392 195.201 32.7402 195.199 31.4872L189.963 31.4981ZM190.387 35.8677C190.693 37.3316 191.245 38.6798 192.088 39.8553L196.342 36.8033C195.982 36.3013 195.69 35.6513 195.511 34.7962L190.387 35.8677ZM192.088 39.8553C192.949 41.055 194.066 41.988 195.394 42.6483L197.725 37.9605C197.131 37.6648 196.685 37.2811 196.342 36.8033L192.088 39.8553ZM195.474 42.6865C196.878 43.3265 198.479 43.5783 200.166 43.5747L200.155 38.3391C198.963 38.3416 198.163 38.1583 197.645 37.9224L195.474 42.6865ZM260.123 5.19181L260.117 2.57398L257.5 2.57944L257.505 5.19727L260.123 5.19181ZM286.643 5.13652L289.261 5.13106L289.255 2.51323L286.637 2.51869L286.643 5.13652ZM286.659 12.6965L286.664 15.3143L289.282 15.3089L289.276 12.691L286.659 12.6965ZM268.059 12.7353L268.053 10.1175L265.435 10.1229L265.441 12.7407L268.059 12.7353ZM268.079 22.3353L265.461 22.3407L265.466 24.9586L268.084 24.9531L268.079 22.3353ZM285.959 22.298L288.576 22.2925L288.571 19.6747L285.953 19.6802L285.959 22.298ZM285.974 29.858L285.98 32.4758L288.598 32.4703L288.592 29.8525L285.974 29.858ZM268.094 29.8952L268.089 27.2774L265.471 27.2829L265.477 29.9007L268.094 29.8952ZM268.115 39.6152L265.497 39.6207L265.502 42.2385L268.12 42.2331L268.115 39.6152ZM287.435 39.5749L290.052 39.5695L290.047 36.9517L287.429 36.9571L287.435 39.5749ZM287.45 47.1349L287.456 49.7528L290.074 49.7473L290.068 47.1295L287.45 47.1349ZM260.21 47.1917L257.593 47.1972L257.598 49.815L260.216 49.8096L260.21 47.1917ZM260.128 7.80965L286.648 7.75435L286.637 2.51869L260.117 2.57398L260.128 7.80965ZM284.025 5.14198L284.041 12.702L289.276 12.691L289.261 5.13106L284.025 5.14198ZM286.653 10.0787L268.053 10.1175L268.064 15.3531L286.664 15.3143L286.653 10.0787ZM265.441 12.7407L265.461 22.3407L270.696 22.3298L270.676 12.7298L265.441 12.7407ZM268.084 24.9531L285.964 24.9158L285.953 19.6802L268.073 19.7174L268.084 24.9531ZM283.341 22.3034L283.357 29.8634L288.592 29.8525L288.576 22.2925L283.341 22.3034ZM285.969 27.2401L268.089 27.2774L268.1 32.5131L285.98 32.4758L285.969 27.2401ZM265.477 29.9007L265.497 39.6207L270.732 39.6098L270.712 29.8898L265.477 29.9007ZM268.12 42.2331L287.44 42.1928L287.429 36.9571L268.109 36.9974L268.12 42.2331ZM284.817 39.5804L284.833 47.1404L290.068 47.1295L290.052 39.5695L284.817 39.5804ZM287.445 44.5171L260.205 44.5739L260.216 49.8096L287.456 49.7528L287.445 44.5171ZM262.828 47.1863L262.741 5.18635L257.505 5.19727L257.593 47.1972L262.828 47.1863ZM316.08 43.1152L313.485 43.4564L313.785 45.7379L316.086 45.7331L316.08 43.1152ZM317.16 43.113L317.166 45.7308L319.784 45.7254L319.778 43.1075L317.16 43.113ZM317.081 5.07306L317.076 2.45523L314.458 2.46068L314.463 5.07852L317.081 5.07306ZM325.001 5.05655L327.619 5.05109L327.613 2.43326L324.996 2.43871L325.001 5.05655ZM325.089 47.0565L325.094 49.6743L327.712 49.6688L327.706 47.051L325.089 47.0565ZM309.609 47.0887L307.013 47.4299L307.313 49.7114L309.614 49.7066L309.609 47.0887ZM304.609 9.05907L307.205 8.71787L306.905 6.43644L304.604 6.44124L304.609 9.05907ZM303.529 9.06132L303.524 6.44349L300.906 6.44895L300.911 9.06678L303.529 9.06132ZM303.609 47.1012L303.614 49.7191L306.232 49.7136L306.226 47.0958L303.609 47.1012ZM295.689 47.1178L293.071 47.1232L293.076 49.741L295.694 49.7356L295.689 47.1178ZM295.601 5.11784L295.596 2.50001L292.978 2.50547L292.983 5.1233L295.601 5.11784ZM311.081 5.08557L313.677 4.74437L313.377 2.46294L311.076 2.46774L311.081 5.08557ZM316.086 45.7331L317.166 45.7308L317.155 40.4951L316.075 40.4974L316.086 45.7331ZM319.778 43.1075L319.699 5.0676L314.463 5.07852L314.542 43.1184L319.778 43.1075ZM317.086 7.69089L325.006 7.67438L324.996 2.43871L317.076 2.45523L317.086 7.69089ZM322.383 5.062L322.471 47.0619L327.706 47.051L327.619 5.05109L322.383 5.062ZM325.083 44.4386L309.603 44.4709L309.614 49.7066L325.094 49.6743L325.083 44.4386ZM312.204 46.7475L307.205 8.71787L302.014 9.40027L307.013 47.4299L312.204 46.7475ZM304.604 6.44124L303.524 6.44349L303.535 11.6792L304.615 11.6769L304.604 6.44124ZM300.911 9.06678L300.991 47.1067L306.226 47.0958L306.147 9.05587L300.911 9.06678ZM303.603 44.4834L295.683 44.4999L295.694 49.7356L303.614 49.7191L303.603 44.4834ZM298.306 47.1123L298.219 5.11239L292.983 5.1233L293.071 47.1232L298.306 47.1123ZM295.607 7.73568L311.086 7.7034L311.076 2.46774L295.596 2.50001L295.607 7.73568ZM308.486 5.42677L313.485 43.4564L318.676 42.774L313.677 4.74437L308.486 5.42677ZM331.439 5.04312L331.434 2.42529L328.816 2.43075L328.821 5.04858L331.439 5.04312ZM358.267 8.6472L356.45 10.5317L356.458 10.5392L356.465 10.5466L358.267 8.6472ZM358.339 43.3871L360.149 45.279L360.156 45.2716L360.164 45.264L358.339 43.3871ZM331.527 47.043L328.909 47.0485L328.914 49.6663L331.532 49.6609L331.527 47.043ZM331.511 39.4231L331.505 36.8052L328.888 36.8107L328.893 39.4285L331.511 39.4231ZM335.471 39.4148L335.476 42.0326L338.094 42.0272L338.089 39.4093L335.471 39.4148ZM335.415 12.5949L338.033 12.5894L338.027 9.97156L335.41 9.97702L335.415 12.5949ZM331.455 12.6031L328.837 12.6086L328.843 15.2264L331.46 15.2209L331.455 12.6031ZM352.507 37.5193L350.507 35.8297L350.503 35.8353L352.507 37.5193ZM352.459 14.4193L350.488 16.1428L350.504 16.1606L350.52 16.1781L352.459 14.4193ZM343.335 12.5783L343.33 9.96051L340.712 9.96597L340.717 12.5838L343.335 12.5783ZM343.391 39.4583L340.773 39.4637L340.779 42.0816L343.397 42.0761L343.391 39.4583ZM331.445 7.66096L346.685 7.62918L346.674 2.39352L331.434 2.42529L331.445 7.66096ZM346.685 7.62918C351.529 7.61908 354.606 8.75383 356.45 10.5317L360.084 6.7627C356.878 3.67109 352.229 2.38193 346.674 2.39352L346.685 7.62918ZM356.465 10.5466C358.271 12.2592 359.443 15.1697 359.452 19.8648L364.688 19.8538C364.677 14.3889 363.313 9.82472 360.068 6.74776L356.465 10.5466ZM359.452 19.8648L359.478 32.1047L364.714 32.0938L364.688 19.8538L359.452 19.8648ZM359.478 32.1047C359.488 36.7958 358.33 39.7449 356.514 41.5102L360.164 45.264C363.378 42.1389 364.725 37.5628 364.714 32.0938L359.478 32.1047ZM356.53 41.4952C354.694 43.2509 351.616 44.3833 346.761 44.3934L346.772 49.6291C352.318 49.6175 356.954 48.3339 360.149 45.279L356.53 41.4952ZM346.761 44.3934L331.521 44.4252L331.532 49.6609L346.772 49.6291L346.761 44.3934ZM334.145 47.0376L334.129 39.4176L328.893 39.4285L328.909 47.0485L334.145 47.0376ZM331.516 42.0409L335.476 42.0326L335.465 36.797L331.505 36.8052L331.516 42.0409ZM338.089 39.4093L338.033 12.5894L332.797 12.6003L332.853 39.4203L338.089 39.4093ZM335.41 9.97702L331.45 9.98528L331.46 15.2209L335.42 15.2127L335.41 9.97702ZM334.073 12.5977L334.057 5.03767L328.821 5.04858L328.837 12.6086L334.073 12.5977ZM346.756 42.0691C349.8 42.0628 352.692 41.3684 354.511 39.2033L350.503 35.8353C350.167 36.2347 349.222 36.8283 346.746 36.8334L346.756 42.0691ZM354.507 39.2088C356.202 37.2018 356.798 34.4235 356.792 31.3903L351.556 31.4012C351.562 33.888 351.046 35.1921 350.507 35.8298L354.507 39.2088ZM356.792 31.3903L356.768 19.8704L351.532 19.8813L351.556 31.4012L356.792 31.3903ZM356.768 19.8704C356.762 17.1021 356.113 14.5519 354.398 12.6606L350.52 16.1781C351.05 16.7621 351.528 17.8495 351.532 19.8813L356.768 19.8704ZM354.429 12.6959C352.596 10.5995 349.712 9.9472 346.69 9.9535L346.7 15.1892C349.198 15.184 350.157 15.7637 350.488 16.1428L354.429 12.6959ZM346.69 9.9535L343.33 9.96051L343.34 15.1962L346.7 15.1892L346.69 9.9535ZM340.717 12.5838L340.773 39.4637L346.009 39.4528L345.953 12.5729L340.717 12.5838ZM343.397 42.0761L346.756 42.0691L346.746 36.8334L343.386 36.8405L343.397 42.0761ZM425.753 13.3065L423.936 15.1905L423.95 15.2045L423.965 15.2182L425.753 13.3065ZM415.552 12.7278L417.043 14.8797L417.068 14.8626L417.092 14.8449L415.552 12.7278ZM414.243 18.0105L411.873 19.1225L411.888 19.1545L411.904 19.1861L414.243 18.0105ZM415.686 19.5675L414.181 21.7093L414.252 21.7591L414.326 21.8041L415.686 19.5675ZM418.449 20.7618L417.653 23.2557L417.665 23.2597L417.678 23.2636L418.449 20.7618ZM422.831 21.7726L422.368 24.3492L422.368 24.3492L422.831 21.7726ZM432.919 25.7716L431.275 27.8089L431.275 27.8089L432.919 25.7716ZM435.349 40.1666L432.96 39.0973L432.953 39.1114L432.947 39.1255L435.349 40.1666ZM432.358 44.1928L434.056 46.1854L432.358 44.1928ZM427.563 46.7828L428.364 49.2751L427.563 46.7828ZM413.883 46.5713L412.948 49.0166L412.976 49.0274L413.004 49.0374L413.883 46.5713ZM408.656 43.3422L406.809 45.1972L406.822 45.2106L406.836 45.2237L408.656 43.3422ZM405.466 38.4889L403.023 39.4302L403.026 39.4391L403.03 39.4479L405.466 38.4889ZM404.369 30.5711L404.364 27.9533L401.746 27.9588L401.751 30.5766L404.369 30.5711ZM412.289 30.5546L414.907 30.5492L414.902 27.9313L412.284 27.9368L412.289 30.5546ZM414.465 38.0501L412.568 39.8545L412.593 39.8801L412.618 39.905L414.465 38.0501ZM426.646 38.6847L424.895 36.7392L424.895 36.7392L426.646 38.6847ZM428.014 33.0418L425.565 33.9661L425.575 33.9928L425.586 34.0191L428.014 33.0418ZM426.751 31.3645L425.041 33.3463L425.08 33.38L425.12 33.4121L426.751 31.3645ZM424.288 29.9896L425.223 27.5443L424.288 29.9896ZM420.326 28.9779L420.772 26.3982L420.759 26.3961L420.326 28.9779ZM414.503 27.61L413.664 30.0896L413.689 30.0982L413.715 30.1063L414.503 27.61ZM409.878 25.2796L408.312 27.3772L408.327 27.3887L408.343 27.4L409.878 25.2796ZM406.789 11.306L404.433 10.1657L404.426 10.1794L404.42 10.1931L406.789 11.306ZM409.721 7.45992L408.029 5.46265L408.013 5.47593L407.998 5.48945L409.721 7.45992ZM414.276 4.93042L413.443 2.44865L413.434 2.45148L413.426 2.45437L414.276 4.93042ZM426.876 5.08415L425.962 7.53722L425.985 7.54562L426.007 7.55361L426.876 5.08415ZM431.682 7.89413L429.896 9.80767L429.91 9.82137L429.925 9.83484L431.682 7.89413ZM434.631 12.028L432.211 13.0267L432.222 13.053L432.233 13.079L434.631 12.028ZM435.665 19.1059L435.671 21.7237L438.289 21.7182L438.283 19.1004L435.665 19.1059ZM427.745 19.1224L425.128 19.1278L425.133 21.7457L427.751 21.7402L427.745 19.1224ZM430.36 17.6769C430.355 15.2136 429.346 13.0827 427.542 11.3948L423.965 15.2182C424.806 16.0048 425.123 16.7911 425.125 17.6878L430.36 17.6769ZM427.571 11.4225C425.657 9.5759 423.097 8.8342 420.284 8.84006L420.295 14.0757C422.202 14.0718 423.285 14.5625 423.936 15.1905L427.571 11.4225ZM420.284 8.84006C417.945 8.84494 415.762 9.33794 414.012 10.6107L417.092 14.8449C417.658 14.4328 418.634 14.0792 420.295 14.0757L420.284 8.84006ZM414.061 10.5758C412.201 11.8645 411.196 13.7695 411.201 16.0369L416.437 16.0259C416.436 15.4933 416.586 15.1958 417.043 14.8797L414.061 10.5758ZM411.201 16.0369C411.203 17.1055 411.416 18.1473 411.873 19.1225L416.613 16.8985C416.508 16.6749 416.438 16.3973 416.437 16.0259L411.201 16.0369ZM411.904 19.1861C412.433 20.2376 413.259 21.0611 414.181 21.7093L417.192 17.4257C416.752 17.1167 416.616 16.9022 416.582 16.8349L411.904 19.1861ZM414.326 21.8041C415.278 22.3834 416.406 22.8576 417.653 23.2557L419.245 18.2678C418.25 17.9505 417.536 17.6286 417.047 17.3309L414.326 21.8041ZM417.678 23.2636C418.975 23.6631 420.547 24.022 422.368 24.3492L423.294 19.196C421.593 18.8905 420.244 18.5756 419.219 18.2599L417.678 23.2636ZM422.368 24.3492C426.536 25.098 429.422 26.3136 431.275 27.8089L434.563 23.7343C431.769 21.4793 427.93 20.0289 423.294 19.196L422.368 24.3492ZM431.275 27.8089C432.843 29.0742 433.792 31.0176 433.799 34.1098L439.034 34.0989C439.026 29.831 437.643 26.2193 434.563 23.7343L431.275 27.8089ZM433.799 34.1098L433.8 34.8298L439.036 34.8189L439.034 34.0989L433.799 34.1098ZM433.8 34.8298C433.804 36.463 433.508 37.8715 432.96 39.0973L437.739 41.2359C438.624 39.2587 439.041 37.1057 439.036 34.8189L433.8 34.8298ZM432.947 39.1255C432.432 40.3137 431.679 41.3321 430.66 42.2002L434.056 46.1854C435.672 44.808 436.913 43.1423 437.751 41.2076L432.947 39.1255ZM430.66 42.2002C429.639 43.0697 428.357 43.7777 426.762 44.2906L428.364 49.2751C430.526 48.5801 432.441 47.5614 434.056 46.1854L430.66 42.2002ZM426.762 44.2906C425.185 44.7975 423.341 45.0738 421.199 45.0782L421.21 50.3139C423.789 50.3085 426.184 49.976 428.364 49.2751L426.762 44.2906ZM421.199 45.0782C418.675 45.0835 416.543 44.7399 414.761 44.1052L413.004 49.0374C415.465 49.9139 418.215 50.3201 421.21 50.3139L421.199 45.0782ZM414.817 44.126C413.019 43.4388 411.591 42.5395 410.476 41.4607L406.836 45.2237C408.526 46.8591 410.583 48.1126 412.948 49.0166L414.817 44.126ZM410.503 41.4873C409.356 40.3445 408.493 39.0316 407.902 37.5298L403.03 39.4479C403.886 41.6231 405.15 43.5458 406.809 45.1972L410.503 41.4873ZM407.908 37.5475C407.31 35.9942 406.995 34.2754 406.991 32.3657L401.755 32.3766C401.76 34.8669 402.174 37.2265 403.023 39.4302L407.908 37.5475ZM406.991 32.3657L406.987 30.5657L401.751 30.5766L401.755 32.3766L406.991 32.3657ZM404.375 33.189L412.295 33.1724L412.284 27.9368L404.364 27.9533L404.375 33.189ZM409.671 30.5601L409.674 32.0001L414.91 31.9892L414.907 30.5492L409.671 30.5601ZM409.674 32.0001C409.681 35.0453 410.572 37.7567 412.568 39.8545L416.362 36.2457C415.471 35.3095 414.914 33.9839 414.91 31.9892L409.674 32.0001ZM412.618 39.905C414.783 42.0619 417.867 42.8809 421.315 42.8737L421.304 37.638C418.592 37.6437 417.112 36.9921 416.312 36.1952L412.618 39.905ZM421.315 42.8737C424.024 42.868 426.559 42.2855 428.398 40.6302L424.895 36.7392C424.418 37.1687 423.394 37.6336 421.304 37.638L421.315 42.8737ZM428.398 40.6302C430.058 39.1359 431.001 37.2053 430.996 34.9556L425.761 34.9665C425.762 35.5969 425.55 36.1487 424.895 36.7392L428.398 40.6302ZM430.996 34.9556C430.994 33.9602 430.815 32.989 430.443 32.0645L425.586 34.0191C425.696 34.2937 425.76 34.6019 425.761 34.9665L430.996 34.9556ZM430.464 32.1175C430.036 30.9838 429.305 30.0522 428.382 29.3169L425.12 33.4121C425.399 33.6343 425.51 33.8208 425.565 33.9661L430.464 32.1175ZM428.461 29.3826C427.558 28.6032 426.442 28.0102 425.223 27.5443L423.353 32.4349C424.216 32.7647 424.741 33.0882 425.041 33.3463L428.461 29.3826ZM425.223 27.5443C423.97 27.0654 422.471 26.692 420.772 26.3983L419.88 31.5574C421.382 31.8171 422.525 32.1181 423.353 32.4349L425.223 27.5443ZM420.759 26.3961C418.739 26.0575 416.919 25.6279 415.292 25.1137L413.715 30.1063C415.609 30.7047 417.671 31.1871 419.893 31.5597L420.759 26.3961ZM415.343 25.1304C413.796 24.6068 412.496 23.9429 411.413 23.1593L408.343 27.4C409.905 28.5309 411.688 29.4206 413.664 30.0896L415.343 25.1304ZM411.445 23.1821C410.49 22.4695 409.751 21.588 409.21 20.5103L404.532 22.8615C405.436 24.6608 406.702 26.1751 408.312 27.3772L411.445 23.1821ZM409.21 20.5103C408.715 19.5251 408.401 18.191 408.398 16.4027L403.162 16.4136C403.167 18.7854 403.581 20.9697 404.532 22.8615L409.21 20.5103ZM408.398 16.4027L408.397 16.0427L403.161 16.0536L403.162 16.4136L408.398 16.4027ZM408.397 16.0427C408.394 14.6778 408.659 13.4831 409.159 12.4189L404.42 10.1931C403.565 12.0118 403.157 13.9785 403.161 16.0536L408.397 16.0427ZM409.145 12.4463C409.709 11.281 410.472 10.2813 411.445 9.4304L407.998 5.48945C406.495 6.80366 405.303 8.36811 404.433 10.1657L409.145 12.4463ZM411.413 9.45719C412.417 8.60716 413.641 7.916 415.126 7.40646L413.426 2.45437C411.393 3.15217 409.581 4.14735 408.029 5.46265L411.413 9.45719ZM415.109 7.41219C416.602 6.91096 418.317 6.63984 420.279 6.63574L420.268 1.40008C417.831 1.40516 415.547 1.74238 413.443 2.44865L415.109 7.41219ZM420.279 6.63574C422.509 6.63109 424.389 6.95111 425.962 7.53722L427.79 2.63108C425.52 1.7852 422.998 1.39439 420.268 1.40008L420.279 6.63574ZM426.007 7.55361C427.642 8.12878 428.916 8.89355 429.896 9.80767L433.468 5.98059C431.883 4.50007 429.953 3.39151 427.745 2.61469L426.007 7.55361ZM429.925 9.83484C430.976 10.7867 431.724 11.8481 432.211 13.0267L437.05 11.0293C436.25 9.09061 435.033 7.3961 433.439 5.95342L429.925 9.83484ZM432.233 13.079C432.77 14.3043 433.04 15.5873 433.043 16.9513L438.279 16.9404C438.274 14.8644 437.858 12.8688 437.028 10.9769L432.233 13.079ZM433.043 16.9513L433.048 19.1113L438.283 19.1004L438.279 16.9404L433.043 16.9513ZM435.66 16.488L427.74 16.5045L427.751 21.7402L435.671 21.7237L435.66 16.488ZM430.363 19.1169L430.36 17.6769L425.125 17.6878L425.128 19.1278L430.363 19.1169ZM445.861 8.46457L443.931 6.69617L443.925 6.70318L443.918 6.71025L445.861 8.46457ZM468.601 8.41716L466.666 10.1796L466.672 10.1866L466.679 10.1936L468.601 8.41716ZM468.674 43.2171L466.768 41.4228L466.761 41.4298L466.755 41.4368L468.674 43.2171ZM445.934 43.2645L444.022 45.0528L444.029 45.0598L444.035 45.0667L445.934 43.2645ZM460.927 39.7532L462.022 42.1307L462.063 42.1122L462.102 42.0923L460.927 39.7532ZM463.263 37.7684L465.396 39.2855L463.263 37.7684ZM464.516 34.7657L467.081 35.2908L464.516 34.7657ZM464.419 16.8859L466.963 16.2663L464.419 16.8859ZM463.093 13.8887L465.22 12.3626L465.22 12.3626L463.093 13.8887ZM460.749 11.9135L459.507 14.218L459.544 14.2383L459.583 14.2574L460.749 11.9135ZM453.789 11.9281L454.964 14.2671L455.003 14.2478L455.04 14.2273L453.789 11.9281ZM451.453 13.9129L449.319 12.3958L449.319 12.3958L451.453 13.9129ZM450.139 16.9157L447.593 16.3067L450.139 16.9157ZM450.116 34.7958L447.554 35.3315L450.116 34.7958ZM451.383 37.7931L453.51 36.2671L453.51 36.2671L451.383 37.7931ZM453.727 39.7682L452.561 42.1121L452.601 42.1319L452.641 42.1503L453.727 39.7682ZM444.426 21.1276C444.415 16.111 445.658 12.5968 447.805 10.2189L443.918 6.71025C440.638 10.3437 439.178 15.2751 439.19 21.1385L444.426 21.1276ZM447.792 10.233C449.958 7.86809 453 6.56752 457.258 6.55865L457.247 1.32298C451.824 1.33429 447.272 3.04956 443.931 6.69617L447.792 10.233ZM457.258 6.55865C461.516 6.54977 464.534 7.83775 466.666 10.1796L470.537 6.65475C467.217 3.00793 462.668 1.31168 457.247 1.32298L457.258 6.55865ZM466.679 10.1936C468.868 12.563 470.14 16.0666 470.15 21.074L475.386 21.063C475.373 15.1905 473.868 10.2598 470.524 6.64072L466.679 10.1936ZM470.15 21.074L470.17 30.4339L475.405 30.423L475.386 21.063L470.15 21.074ZM470.17 30.4339C470.18 35.6306 468.909 39.148 466.768 41.4228L470.58 45.0114C473.947 41.4347 475.418 36.4264 475.405 30.423L470.17 30.4339ZM466.755 41.4368C464.638 43.7187 461.618 44.994 457.338 45.0029L457.349 50.2386C462.748 50.2273 467.282 48.5668 470.593 44.9974L466.755 41.4368ZM457.338 45.0029C453.059 45.0118 450.004 43.7494 447.833 41.4623L444.035 45.0667C447.397 48.6081 451.948 50.2498 457.349 50.2386L457.338 45.0029ZM447.846 41.4762C445.727 39.2109 444.456 35.6933 444.445 30.4876L439.21 30.4985C439.222 36.4927 440.689 41.4895 444.022 45.0528L447.846 41.4762ZM444.445 30.4876L444.426 21.1276L439.19 21.1385L439.21 30.4985L444.445 30.4876ZM457.334 43.0386C459.021 43.0351 460.621 42.7766 462.022 42.1307L459.831 37.3757C459.314 37.6138 458.515 37.8004 457.323 37.8029L457.334 43.0386ZM462.102 42.0923C463.427 41.4264 464.54 40.4888 465.396 39.2855L461.129 36.2512C460.788 36.7304 460.344 37.1161 459.751 37.4142L462.102 42.0923ZM465.396 39.2855C466.234 38.1065 466.781 36.756 467.081 35.2908L461.952 34.2407C461.777 35.0965 461.487 35.7478 461.129 36.2512L465.396 39.2855ZM467.081 35.2908C467.36 33.9276 467.489 32.4665 467.486 30.9195L462.251 30.9305C462.253 32.1835 462.148 33.2829 461.952 34.2407L467.081 35.2908ZM467.486 30.9195L467.465 20.5996L462.229 20.6105L462.251 30.9305L467.486 30.9195ZM467.465 20.5996C467.462 19.0943 467.299 17.6468 466.963 16.2663L461.876 17.5055C462.104 18.4439 462.227 19.4758 462.229 20.6105L467.465 20.5996ZM466.963 16.2663C466.613 14.8311 466.045 13.5132 465.22 12.3626L460.966 15.4147C461.344 15.9417 461.66 16.6218 461.876 17.5055L466.963 16.2663ZM465.22 12.3626C464.359 11.1629 463.242 10.23 461.915 9.56964L459.583 14.2574C460.177 14.5531 460.623 14.9369 460.966 15.4147L465.22 12.3626ZM461.991 9.6091C460.563 8.83976 458.952 8.51944 457.262 8.52297L457.273 13.7586C458.302 13.7565 459.012 13.9513 459.507 14.218L461.991 9.6091ZM457.262 8.52297C455.571 8.52649 453.961 8.85353 452.537 9.62881L455.04 14.2273C455.534 13.9586 456.243 13.7608 457.273 13.7586L457.262 8.52297ZM452.613 9.58903C451.288 10.2549 450.175 11.1925 449.319 12.3958L453.586 15.4301C453.927 14.9508 454.371 14.5652 454.964 14.2671L452.613 9.58903ZM449.319 12.3958C448.499 13.5497 447.937 14.8701 447.593 16.3067L452.685 17.5246C452.897 16.6401 453.21 15.9586 453.586 15.4301L449.319 12.3958ZM447.593 16.3067C447.263 17.6885 447.106 19.1367 447.109 20.642L452.345 20.6311C452.342 19.4964 452.46 18.464 452.685 17.5246L447.593 16.3067ZM447.109 20.642L447.131 30.962L452.366 30.9511L452.345 20.6311L447.109 20.642ZM447.131 30.962C447.134 32.509 447.269 33.9695 447.554 35.3315L452.679 34.26C452.479 33.303 452.369 32.2041 452.366 30.9511L447.131 30.962ZM447.554 35.3315C447.86 36.7954 448.412 38.1436 449.256 39.3192L453.51 36.2671C453.15 35.7651 452.858 35.1151 452.679 34.26L447.554 35.3315ZM449.256 39.3192C450.116 40.5188 451.233 41.4518 452.561 42.1121L454.893 37.4243C454.298 37.1287 453.852 36.7449 453.51 36.2671L449.256 39.3192ZM452.641 42.1503C454.045 42.7903 455.646 43.0421 457.334 43.0386L457.323 37.8029C456.13 37.8054 455.33 37.6221 454.813 37.3862L452.641 42.1503ZM480.552 4.73224L480.547 2.1144L477.929 2.11986L477.934 4.73769L480.552 4.73224ZM488.472 4.71572L491.09 4.71027L491.084 2.09243L488.467 2.09789L488.472 4.71572ZM488.544 39.1557L485.926 39.1611L485.931 41.7789L488.549 41.7735L488.544 39.1557ZM507.624 39.1159L510.242 39.1104L510.236 36.4926L507.618 36.498L507.624 39.1159ZM507.64 46.6759L507.645 49.2937L510.263 49.2882L510.257 46.6704L507.64 46.6759ZM480.64 46.7322L478.022 46.7376L478.027 49.3554L480.645 49.35L480.64 46.7322ZM480.558 7.35007L488.478 7.33356L488.467 2.09789L480.547 2.1144L480.558 7.35007ZM485.854 4.72118L485.926 39.1611L491.162 39.1502L491.09 4.71027L485.854 4.72118ZM488.549 41.7735L507.629 41.7337L507.618 36.498L488.538 36.5378L488.549 41.7735ZM505.006 39.1213L505.022 46.6813L510.257 46.6704L510.242 39.1104L505.006 39.1213ZM507.634 44.058L480.634 44.1143L480.645 49.35L507.645 49.2937L507.634 44.058ZM483.257 46.7267L483.17 4.72678L477.934 4.73769L478.022 46.7376L483.257 46.7267ZM545.85 4.5961L548.468 4.59064L548.463 1.97281L545.845 1.97826L545.85 4.5961ZM542.091 43.364L540.181 41.5738L540.174 41.5813L540.167 41.5889L542.091 43.364ZM519.471 43.4112L517.554 45.1943L517.561 45.2019L517.569 45.2093L519.471 43.4112ZM515.61 4.65914L515.605 2.04131L512.987 2.04677L512.992 4.6646L515.61 4.65914ZM523.53 4.64263L526.148 4.63717L526.143 2.01934L523.525 2.0248L523.53 4.64263ZM525.34 37.9389L523.327 39.6134L525.34 37.9389ZM536.26 37.9162L534.24 36.2501L536.26 37.9162ZM537.93 4.61261L537.925 1.99478L535.307 2.00023L535.312 4.61807L537.93 4.61261ZM543.232 4.60155L543.29 32.0815L548.525 32.0706L548.468 4.59064L543.232 4.60155ZM543.29 32.0815C543.299 36.4117 542.16 39.462 540.181 41.5738L544.001 45.1542C547.13 41.8154 548.536 37.3403 548.525 32.0706L543.29 32.0815ZM540.167 41.5889C538.302 43.6107 535.35 44.8402 530.814 44.8497L530.825 50.0854C536.289 50.074 540.852 48.5678 544.015 45.1392L540.167 41.5889ZM530.814 44.8497C526.281 44.8591 523.292 43.643 521.374 41.613L517.569 45.2093C520.781 48.6086 525.358 50.0968 530.825 50.0854L530.814 44.8497ZM521.388 41.628C519.432 39.5254 518.294 36.4744 518.285 32.1336L513.05 32.1445C513.061 37.4038 514.459 41.8675 517.554 45.1943L521.388 41.628ZM518.285 32.1336L518.228 4.65369L512.992 4.6646L513.05 32.1445L518.285 32.1336ZM515.616 7.27698L523.536 7.26047L523.525 2.0248L515.605 2.04131L515.616 7.27698ZM520.912 4.64809L520.97 32.128L526.205 32.1171L526.148 4.63717L520.912 4.64809ZM520.97 32.128C520.976 34.9965 521.653 37.6011 523.327 39.6134L527.352 36.2645C526.701 35.4816 526.21 34.2087 526.205 32.1171L520.97 32.128ZM523.327 39.6134C525.153 41.8077 527.85 42.6515 530.809 42.6454L530.799 37.4097C528.798 37.4139 527.852 36.8653 527.352 36.2645L523.327 39.6134ZM530.809 42.6454C533.769 42.6392 536.462 41.7842 538.279 39.5822L534.24 36.2501C533.743 36.853 532.799 37.4055 530.799 37.4097L530.809 42.6454ZM538.279 39.5822C539.945 37.5629 540.611 34.9555 540.605 32.0871L535.37 32.098C535.374 34.1896 534.889 35.4646 534.24 36.2501L538.279 39.5822ZM540.605 32.0871L540.548 4.60715L535.312 4.61807L535.37 32.098L540.605 32.0871ZM537.936 7.23044L545.856 7.21393L545.845 1.97826L537.925 1.99478L537.936 7.23044ZM552.348 4.58255L552.343 1.96472L549.725 1.97017L549.731 4.58801L552.348 4.58255ZM582.588 4.5195L585.206 4.51404L585.201 1.89621L582.583 1.90167L582.588 4.5195ZM582.604 12.0795L582.61 14.6973L585.227 14.6919L585.222 12.074L582.604 12.0795ZM571.444 12.1028L571.439 9.48492L568.821 9.49038L568.826 12.1082L571.444 12.1028ZM571.516 46.5427L571.521 49.1605L574.139 49.1551L574.134 46.5372L571.516 46.5427ZM563.596 46.5592L560.978 46.5647L560.984 49.1825L563.601 49.177L563.596 46.5592ZM563.524 12.1193L566.142 12.1138L566.137 9.49598L563.519 9.50143L563.524 12.1193ZM552.364 12.1425L549.746 12.148L549.752 14.7658L552.37 14.7604L552.364 12.1425ZM552.354 7.20038L582.594 7.13733L582.583 1.90167L552.343 1.96472L552.354 7.20038ZM579.971 4.52496L579.986 12.0849L585.222 12.074L585.206 4.51404L579.971 4.52496ZM582.599 9.46165L571.439 9.48492L571.45 14.7206L582.61 14.6973L582.599 9.46165ZM568.826 12.1082L568.898 46.5481L574.134 46.5372L574.062 12.0973L568.826 12.1082ZM571.511 43.9248L563.591 43.9414L563.601 49.177L571.521 49.1605L571.511 43.9248ZM566.214 46.5537L566.142 12.1138L560.906 12.1247L560.978 46.5647L566.214 46.5537ZM563.519 9.50143L552.359 9.5247L552.37 14.7604L563.53 14.7371L563.519 9.50143ZM554.982 12.1371L554.966 4.57709L549.731 4.58801L549.746 12.148L554.982 12.1371ZM590.167 4.5037L590.161 1.88587L587.543 1.89133L587.549 4.50916L590.167 4.5037ZM618.247 4.44516L620.864 4.4397L620.859 1.82187L618.241 1.82732L618.247 4.44516ZM618.262 12.0051L618.268 14.623L620.886 14.6175L620.88 11.9997L618.262 12.0051ZM608.182 12.0262L608.177 9.40833L605.559 9.41378L605.565 12.0316L608.182 12.0262ZM608.238 38.9061L605.621 38.9116L605.626 41.5294L608.244 41.5239L608.238 38.9061ZM618.318 38.8851L620.936 38.8796L620.931 36.2618L618.313 36.2673L618.318 38.8851ZM618.334 46.4451L618.34 49.0629L620.957 49.0574L620.952 46.4396L618.334 46.4451ZM590.254 46.5036L587.636 46.5091L587.642 49.1269L590.26 49.1214L590.254 46.5036ZM590.238 38.9436L590.233 36.3258L587.615 36.3313L587.621 38.9491L590.238 38.9436ZM600.318 38.9226L600.324 41.5404L602.942 41.535L602.936 38.9172L600.318 38.9226ZM600.262 12.0427L602.88 12.0372L602.875 9.41938L600.257 9.42484L600.262 12.0427ZM590.182 12.0637L587.565 12.0691L587.57 14.687L590.188 14.6815L590.182 12.0637ZM590.172 7.12153L618.252 7.06299L618.241 1.82732L590.161 1.88587L590.172 7.12153ZM615.629 4.45061L615.645 12.0106L620.88 11.9997L620.864 4.4397L615.629 4.45061ZM618.257 9.38731L608.177 9.40833L608.188 14.644L618.268 14.623L618.257 9.38731ZM605.565 12.0316L605.621 38.9116L610.856 38.9006L610.8 12.0207L605.565 12.0316ZM608.244 41.5239L618.324 41.5029L618.313 36.2673L608.233 36.2883L608.244 41.5239ZM615.701 38.8905L615.716 46.4505L620.952 46.4396L620.936 38.8796L615.701 38.8905ZM618.329 43.8272L590.249 43.8858L590.26 49.1214L618.34 49.0629L618.329 43.8272ZM592.872 46.4982L592.856 38.9382L587.621 38.9491L587.636 46.5091L592.872 46.4982ZM590.244 41.5615L600.324 41.5404L600.313 36.3048L590.233 36.3258L590.244 41.5615ZM602.936 38.9172L602.88 12.0372L597.645 12.0481L597.701 38.9281L602.936 38.9172ZM600.257 9.42484L590.177 9.44585L590.188 14.6815L600.268 14.6605L600.257 9.42484ZM592.8 12.0582L592.785 4.49824L587.549 4.50916L587.565 12.0691L592.8 12.0582ZM629.553 8.08159L627.622 6.31319L627.616 6.3202L627.609 6.32727L629.553 8.08159ZM652.292 8.03418L650.357 9.79659L650.363 9.80363L650.37 9.81062L652.292 8.03418ZM652.365 42.8341L650.459 41.0398L650.452 41.0468L650.446 41.0538L652.365 42.8341ZM629.625 42.8815L627.713 44.6698L627.72 44.6768L627.726 44.6837L629.625 42.8815ZM644.618 39.3703L645.713 41.7478L645.754 41.7292L645.793 41.7093L644.618 39.3703ZM646.954 37.3854L649.087 38.9025L646.954 37.3854ZM648.207 34.3828L650.772 34.9078L648.207 34.3828ZM648.11 16.5029L650.654 15.8834L648.11 16.5029ZM646.784 13.5057L648.911 11.9797L648.911 11.9797L646.784 13.5057ZM644.44 11.5306L643.198 13.835L643.235 13.8554L643.274 13.8745L644.44 11.5306ZM637.48 11.5451L638.655 13.8841L638.694 13.8648L638.731 13.8443L637.48 11.5451ZM635.144 13.5299L633.01 12.0128L633.01 12.0128L635.144 13.5299ZM633.83 16.5327L631.284 15.9237L633.83 16.5327ZM633.807 34.4128L631.245 34.9485L633.807 34.4128ZM635.074 37.4101L637.201 35.8841L637.201 35.8841L635.074 37.4101ZM637.418 39.3853L636.252 41.7292L636.292 41.7489L636.332 41.7673L637.418 39.3853ZM628.117 20.7446C628.106 15.728 629.349 12.2138 631.496 9.83592L627.609 6.32727C624.329 9.96068 622.869 14.8922 622.881 20.7555L628.117 20.7446ZM631.483 9.85C633.649 7.48511 636.691 6.18454 640.949 6.17567L640.938 0.940001C635.515 0.951307 630.963 2.66658 627.622 6.31319L631.483 9.85ZM640.949 6.17567C645.207 6.16679 648.225 7.45477 650.357 9.79659L654.228 6.27177C650.908 2.62495 646.359 0.928697 640.938 0.940001L640.949 6.17567ZM650.37 9.81062C652.559 12.18 653.831 15.6836 653.841 20.691L659.077 20.6801C659.064 14.8075 657.559 9.87682 654.215 6.25775L650.37 9.81062ZM653.841 20.691L653.861 30.051L659.096 30.04L659.077 20.6801L653.841 20.691ZM653.861 30.051C653.871 35.2476 652.6 38.765 650.459 41.0398L654.271 44.6284C657.638 41.0517 659.109 36.0434 659.096 30.04L653.861 30.051ZM650.446 41.0538C648.329 43.3357 645.309 44.611 641.029 44.6199L641.04 49.8556C646.439 49.8443 650.973 48.1838 654.284 44.6144L650.446 41.0538ZM641.029 44.6199C636.75 44.6288 633.695 43.3664 631.524 41.0793L627.726 44.6837C631.088 48.2251 635.639 49.8668 641.04 49.8556L641.029 44.6199ZM631.537 41.0932C629.418 38.8279 628.147 35.3103 628.136 30.1046L622.901 30.1155C622.913 36.1098 624.38 41.1065 627.713 44.6698L631.537 41.0932ZM628.136 30.1046L628.117 20.7446L622.881 20.7555L622.901 30.1155L628.136 30.1046ZM641.025 42.6556C642.712 42.6521 644.312 42.3936 645.713 41.7478L643.522 36.9928C643.005 37.2309 642.206 37.4174 641.014 37.4199L641.025 42.6556ZM645.793 41.7093C647.118 41.0434 648.231 40.1058 649.087 38.9025L644.82 35.8682C644.479 36.3475 644.035 36.7331 643.442 37.0312L645.793 41.7093ZM649.087 38.9025C649.925 37.7235 650.472 36.373 650.772 34.9078L645.643 33.8577C645.468 34.7135 645.178 35.3648 644.82 35.8682L649.087 38.9025ZM650.772 34.9078C651.051 33.5446 651.18 32.0836 651.177 30.5366L645.942 30.5475C645.944 31.8005 645.839 32.8999 645.643 33.8577L650.772 34.9078ZM651.177 30.5366L651.156 20.2166L645.92 20.2275L645.942 30.5475L651.177 30.5366ZM651.156 20.2166C651.153 18.7113 650.99 17.2638 650.654 15.8834L645.567 17.1225C645.795 18.0609 645.918 19.0928 645.92 20.2275L651.156 20.2166ZM650.654 15.8834C650.304 14.4482 649.736 13.1302 648.911 11.9797L644.657 15.0317C645.035 15.5587 645.351 16.2389 645.567 17.1225L650.654 15.8834ZM648.911 11.9797C648.05 10.78 646.933 9.84699 645.606 9.18666L643.274 13.8745C643.868 14.1701 644.314 14.5539 644.657 15.0317L648.911 11.9797ZM645.682 9.22612C644.254 8.45678 642.643 8.13646 640.953 8.13999L640.964 13.3757C641.993 13.3735 642.703 13.5683 643.198 13.835L645.682 9.22612ZM640.953 8.13999C639.262 8.14351 637.652 8.47055 636.228 9.24583L638.731 13.8443C639.225 13.5756 639.934 13.3778 640.964 13.3757L640.953 8.13999ZM636.304 9.20605C634.979 9.87191 633.866 10.8095 633.01 12.0128L637.277 15.0471C637.618 14.5679 638.062 14.1822 638.655 13.8841L636.304 9.20605ZM633.01 12.0128C632.19 13.1668 631.628 14.4871 631.284 15.9237L636.376 17.1416C636.588 16.2571 636.901 15.5756 637.277 15.0471L633.01 12.0128ZM631.284 15.9237C630.954 17.3056 630.797 18.7537 630.8 20.259L636.036 20.2481C636.033 19.1134 636.152 18.081 636.376 17.1416L631.284 15.9237ZM630.8 20.259L630.822 30.579L636.057 30.5681L636.036 20.2481L630.8 20.259ZM630.822 30.579C630.825 32.126 630.96 33.5865 631.245 34.9485L636.37 33.8771C636.17 32.92 636.06 31.8211 636.057 30.5681L630.822 30.579ZM631.245 34.9485C631.551 36.4124 632.103 37.7606 632.947 38.9362L637.201 35.8841C636.841 35.3822 636.549 34.7321 636.37 33.8771L631.245 34.9485ZM632.947 38.9362C633.807 40.1359 634.924 41.0688 636.252 41.7292L638.584 37.0414C637.989 36.7457 637.544 36.3619 637.201 35.8841L632.947 38.9362ZM636.332 41.7673C637.736 42.4074 639.337 42.6591 641.025 42.6556L641.014 37.4199C639.821 37.4224 639.021 37.2392 638.504 37.0032L636.332 41.7673ZM683.462 42.3493L680.867 42.6905L681.167 44.9719L683.468 44.9671L683.462 42.3493ZM684.542 42.347L684.548 44.9649L687.166 44.9594L687.16 42.3416L684.542 42.347ZM684.463 4.3071L684.458 1.68927L681.84 1.69473L681.845 4.31256L684.463 4.3071ZM692.383 4.29059L695.001 4.28513L694.995 1.6673L692.378 1.67276L692.383 4.29059ZM692.471 46.2905L692.476 48.9083L695.094 48.9029L695.088 46.285L692.471 46.2905ZM676.991 46.3228L674.395 46.664L674.695 48.9454L676.996 48.9406L676.991 46.3228ZM671.991 8.29311L674.587 7.95192L674.287 5.67048L671.986 5.67528L671.991 8.29311ZM670.911 8.29537L670.906 5.67753L668.288 5.68299L668.293 8.30082L670.911 8.29537ZM670.991 46.3353L670.996 48.9531L673.614 48.9477L673.608 46.3298L670.991 46.3353ZM663.071 46.3518L660.453 46.3573L660.458 48.9751L663.076 48.9696L663.071 46.3518ZM662.983 4.35188L662.978 1.73405L660.36 1.73951L660.365 4.35734L662.983 4.35188ZM678.463 4.31961L681.059 3.97841L680.759 1.69698L678.458 1.70178L678.463 4.31961ZM683.468 44.9671L684.548 44.9649L684.537 39.7292L683.457 39.7314L683.468 44.9671ZM687.16 42.3416L687.081 4.30164L681.845 4.31256L681.925 42.3525L687.16 42.3416ZM684.469 6.92493L692.388 6.90842L692.378 1.67276L684.458 1.68927L684.469 6.92493ZM689.765 4.29605L689.853 46.296L695.088 46.285L695.001 4.28513L689.765 4.29605ZM692.465 43.6727L676.985 43.7049L676.996 48.9406L692.476 48.9083L692.465 43.6727ZM679.586 45.9816L674.587 7.95192L669.396 8.63432L674.395 46.664L679.586 45.9816ZM671.986 5.67528L670.906 5.67753L670.917 10.9132L671.997 10.9109L671.986 5.67528ZM668.293 8.30082L668.373 46.3407L673.608 46.3298L673.529 8.28991L668.293 8.30082ZM670.985 43.7175L663.065 43.734L663.076 48.9696L670.996 48.9531L670.985 43.7175ZM665.688 46.3463L665.601 4.34643L660.365 4.35734L660.453 46.3573L665.688 46.3463ZM662.989 6.96972L678.469 6.93744L678.458 1.70178L662.978 1.73405L662.989 6.96972ZM675.868 4.66081L680.867 42.6905L686.058 42.0081L681.059 3.97841L675.868 4.66081Z" fill="#30EFD3"/>
</svg>
