<svg id="Layer_4" xmlns="http://www.w3.org/2000/svg" viewBox="0 0 203.5 43.56"><defs><style type="text/css">.cls-1{fill:#403837;}.cls-1,.cls-4{stroke:#2e2726;}.cls-1,.cls-2,.cls-4,.cls-5{stroke-miterlimit:10;stroke-width:3px;}.cls-2,.cls-4{fill:#423837;}.cls-2,.cls-5{stroke:#2f2726;}.cls-3{fill:#2e2726;}.cls-5{fill:none;}</style></defs><title>Backer</title><path class="cls-1" d="M150,1.5H54C30.56,1.5,1.5,18.79,1.5,40.12h0a2,2,0,0,0,2.12,1.94H199.88A2,2,0,0,0,202,40.12h0C202,18.79,173,1.5,150,1.5Z"/><path class="cls-2" d="M144.77,41.55H60.25s-21.38,0-21.38-20,21.38-20,21.38-20h84.52s20.36,0,20.36,20S144.77,41.55,144.77,41.55Z"/><circle class="cls-3" cx="144" cy="21.5" r="12"/><circle class="cls-3" cx="61" cy="21.5" r="12"/><path class="cls-4" d="M35,41.5c-14,0-2-.74-16,0C9.5,42,20.5,20,26.5,20,25.5,26,27,34.5,35,41.5Z"/><path class="cls-4" d="M169.28,41.5c14,0,2-.74,16,0,9.5.5-1.5-21.5-7.5-21.5C178.78,26,177.28,34.5,169.28,41.5Z"/><line class="cls-5" x1="102" y1="9.5" x2="102" y2="33.5"/><line class="cls-5" x1="102" y1="7.5" x2="102" y2="34.5"/><line class="cls-5" x1="110" y1="12.5" x2="110" y2="30.5"/><line class="cls-5" x1="94" y1="12.5" x2="94" y2="30.5"/></svg>