<svg xmlns="http://www.w3.org/2000/svg" width="220" height="235" viewBox="0 0 220 235" fill="none">
    <g clip-path="url(#clip0_335_225)">
      <path d="M201.89 23.1707H179.354C178.28 23.1707 177.341 24.1097 177.341 25.1828C177.341 26.256 178.28 27.195 179.354 27.195H201.89C209.671 27.195 215.976 33.4999 215.976 41.2804V162.012C215.976 169.793 209.671 176.097 201.89 176.097H18.1098C10.3293 176.097 4.02439 169.793 4.02439 162.012V41.2804C4.02439 33.4999 10.3293 27.195 18.1098 27.195H35.9512C37.0244 27.195 37.8293 26.3902 37.9634 25.4511C38.0976 24.2438 37.1585 23.1707 35.9512 23.1707H18.1098C8.04878 23.1707 0 31.3536 0 41.2804V162.012C0 171.939 8.18293 180.122 18.1098 180.122H201.89C211.951 180.122 220 172.073 220 162.012V41.2804C220 31.3536 211.817 23.1707 201.89 23.1707Z" fill="black"/>
      <path d="M128.646 223.049H91.3538V176.5H128.781L128.646 223.049ZM95.3781 219.024H124.756V180.524H95.3781V219.024Z" fill="black"/>
      <path d="M156.28 223.049H63.7195C62.6463 223.049 61.7073 222.11 61.7073 221.037C61.7073 219.963 62.6463 219.024 63.7195 219.024H156.28C157.354 219.024 158.293 219.963 158.293 221.037C158.293 222.11 157.354 223.049 156.28 223.049Z" fill="black"/>
      <path d="M177.878 234.719H42.3901C41.317 234.719 40.3779 233.78 40.3779 232.707C40.3779 231.634 41.317 230.695 42.3901 230.695H177.744C178.817 230.695 179.756 231.634 179.756 232.707C179.756 233.78 178.951 234.719 177.878 234.719Z" fill="black"/>
      <path d="M218.793 151.549H1.20728V155.573H218.793V151.549Z" fill="black"/>
      <path d="M126.097 167.78H93.9023C92.8292 167.78 91.8901 166.841 91.8901 165.768C91.8901 164.695 92.8292 163.756 93.9023 163.756H126.097C127.171 163.756 128.11 164.695 128.11 165.768C128.11 166.841 127.171 167.78 126.097 167.78Z" fill="black"/>
      <path d="M197.732 35.3779H179.085C178.012 35.3779 177.073 36.317 177.073 37.3901C177.073 38.4633 178.012 39.4023 179.085 39.4023H197.732C199.61 39.4023 201.085 40.8779 201.085 42.756V133.975C201.085 135.854 199.61 137.329 197.732 137.329H22.4025C20.5244 137.329 19.0488 135.854 19.0488 133.975V42.756C19.0488 40.8779 20.5244 39.4023 22.4025 39.4023H35.9512C37.1586 39.4023 37.9634 38.4633 37.9634 37.256C37.8293 36.1828 37.0244 35.3779 35.9512 35.3779H22.4025C18.3781 35.3779 15.0244 38.7316 15.0244 42.756V133.975C15.0244 138 18.3781 141.354 22.4025 141.354H197.866C201.89 141.354 205.244 138 205.11 133.975V42.756C205.11 38.7316 201.756 35.3779 197.732 35.3779Z" fill="black"/>
      <path d="M151.72 123.378H63.7196C57.683 123.378 52.8538 118.415 52.8538 112.512V11.3659C52.8538 5.32927 57.8172 0.5 63.7196 0.5H151.854C157.89 0.5 162.72 5.46341 162.72 11.3659V112.512C162.72 118.549 157.756 123.378 151.72 123.378ZM63.7196 4.39024C59.9635 4.39024 56.8781 7.47561 56.8781 11.2317V112.378C56.8781 116.134 59.9635 119.22 63.7196 119.22H151.854C155.61 119.22 158.695 116.134 158.695 112.378V11.3659C158.695 7.60976 155.61 4.52439 151.854 4.52439H63.7196V4.39024Z" fill="#7A65FC"/>
      <path d="M141.793 70.6584H72.3049C71.2317 70.6584 70.2927 69.7194 70.2927 68.6462C70.2927 67.5731 71.2317 66.634 72.3049 66.634H141.793C142.866 66.634 143.805 67.5731 143.805 68.6462C143.805 69.7194 143 70.6584 141.793 70.6584Z" fill="#7A65FC"/>
      <path d="M141.793 84.4756H72.3049C71.2317 84.4756 70.2927 83.5365 70.2927 82.4634C70.2927 81.3902 71.2317 80.4512 72.3049 80.4512H141.793C142.866 80.4512 143.805 81.3902 143.805 82.4634C143.805 83.5365 143 84.4756 141.793 84.4756Z" fill="#7A65FC"/>
      <path d="M141.793 98.4267H72.3049C71.2317 98.4267 70.2927 97.4877 70.2927 96.4145C70.2927 95.3414 71.2317 94.4023 72.3049 94.4023H141.793C142.866 94.4023 143.805 95.3414 143.805 96.4145C143.805 97.4877 143 98.4267 141.793 98.4267Z" fill="#7A65FC"/>
      <path d="M143.751 47.5451C143.201 42.4744 141.672 37.6988 139.231 33.3793C136.789 29.0597 133.677 25.3841 129.974 22.4597C126.031 19.3341 121.765 17.0939 117.311 15.8195C114.091 14.8671 110.778 14.3439 107.398 14.2634C107.143 14.25 106.888 14.2366 106.62 14.2366H106.271C105.01 14.2634 103.749 14.3305 102.501 14.478C97.4305 15.028 92.6549 16.5573 88.322 18.9988C84.0025 21.4402 80.3269 24.5658 77.4025 28.2683C74.2769 32.2122 72.0366 36.478 70.7622 40.9317C69.85 43.9902 69.3403 47.2232 69.2732 50.5366C69.2732 51.0195 69.4476 51.4756 69.783 51.811C70.1183 52.1597 70.5878 52.3475 71.0842 52.3475H71.1915H142.168C142.651 52.3475 143.121 52.1463 143.456 51.7975C143.791 51.4488 143.966 50.9927 143.952 50.5097C143.926 49.5439 143.859 48.5512 143.738 47.5719L143.751 47.5451ZM123.213 33.5671C124.89 38.0878 125.883 43.2793 126.124 48.6853H115.473C115.406 43.5073 115.124 38.6646 114.655 34.2646C117.539 34.1171 120.41 33.8756 123.213 33.5536V33.5671ZM125.494 29.7036C124.81 28.1475 124.072 26.7256 123.294 25.4378C122.127 23.4793 120.812 21.7354 119.377 20.2329C122.395 21.4536 125.226 23.1036 127.801 25.1829C129.143 26.2561 130.404 27.4366 131.571 28.6975C129.572 29.0866 127.533 29.4219 125.494 29.7036ZM102.152 34.4256C105.506 34.5329 107.787 34.5329 111.127 34.4256C111.623 38.8256 111.918 43.7219 111.999 48.6988H101.267C101.348 43.7354 101.643 38.839 102.139 34.4256H102.152ZM121.765 30.1463C119.283 30.4146 116.748 30.6158 114.212 30.7366C113.971 29.0329 113.702 27.4366 113.394 25.9878C112.777 22.6744 111.985 20.3134 111.328 18.7573C114.641 20.1793 117.673 23.0634 120.168 27.2354C120.718 28.1341 121.255 29.1 121.751 30.1329L121.765 30.1463ZM109.96 26.6854C110.215 27.9866 110.456 29.3951 110.671 30.8841C107.693 30.9646 105.573 30.9646 102.595 30.8841C102.81 29.4085 103.051 28 103.306 26.7122C104.044 23.3049 104.701 21.078 105.466 19.5085C105.989 18.3951 106.445 17.939 106.633 17.8183C106.821 17.9524 107.277 18.4085 107.8 19.5085C108.659 21.2793 109.383 23.6939 109.946 26.6988L109.96 26.6854ZM93.0976 27.2354C95.5927 23.0634 98.611 20.1793 101.938 18.7707C101.2 20.5817 100.502 23.0097 99.872 25.9878C99.5903 27.4634 99.322 29.0463 99.0939 30.7366C96.5586 30.6024 94.0366 30.4012 91.5549 30.1463C92.0378 29.1134 92.561 28.1475 93.111 27.2354H93.0976ZM98.6512 34.278C98.1683 38.7585 97.8732 43.6951 97.7927 48.6988H87.1415C87.3964 43.3732 88.4025 38.1817 90.1061 33.5805C92.9098 33.9024 95.7805 34.1305 98.6512 34.2915V34.278ZM89.9854 25.4378C89.1939 26.7793 88.4427 28.2146 87.772 29.7036C85.7732 29.4354 83.7744 29.1 81.8025 28.7244C85.1829 25.0488 89.2476 22.2049 93.8086 20.3402C92.4134 21.8158 91.1256 23.5195 89.9854 25.4512V25.4378ZM86.4171 33.111C85.9342 34.4658 85.5183 35.8207 85.1829 37.189C84.2439 40.7305 83.6805 44.5939 83.5195 48.6988H73.0025C73.5256 42.6354 75.672 36.8402 79.2537 31.8634C81.5342 32.3329 83.9354 32.7622 86.4171 33.111ZM126.849 33.111C129.371 32.7488 131.812 32.3329 134.146 31.8366C137.5 36.5183 139.606 42.0317 140.237 47.8402C140.263 48.1219 140.29 48.4036 140.317 48.6853H129.787C129.612 44.6475 129.062 40.7841 128.123 37.1756C127.748 35.7805 127.332 34.4256 126.862 33.111H126.849Z" fill="#7A65FC"/>
    </g>
    <defs>
      <clipPath id="clip0_335_225">
        <rect width="220" height="234.22" fill="white" transform="translate(0 0.5)"/>
      </clipPath>
    </defs>
  </svg>