<svg width="834" height="366" viewBox="0 0 834 366" fill="none" xmlns="http://www.w3.org/2000/svg">
<path d="M5 5.5V0.5H0V5.5H5ZM5 304.158H0V309.158H5V304.158ZM829 304.158V309.158H834V304.158H829ZM829 5.5H834V0.5H829V5.5ZM616.855 304.158L618.685 299.505L617.803 299.158H616.855V304.158ZM760.066 360.5L758.236 365.153L764.345 357.913L760.066 360.5ZM726 304.158V299.158H717.134L721.721 306.745L726 304.158ZM834 304.158V5.5H824V304.158H834ZM829 0.5H5V10.5H829V0.5ZM0 5.5V304.158H10V5.5H0ZM5 309.158H616.855V299.158H5V309.158ZM615.024 308.811L758.236 365.153L761.897 355.847L618.685 299.505L615.024 308.811ZM764.345 357.913L730.279 301.571L721.721 306.745L755.787 363.087L764.345 357.913ZM726 309.158H829V299.158H726V309.158Z" fill="url(#paint0_linear)"/>
<defs>
<linearGradient id="paint0_linear" x1="19.9193" y1="197.041" x2="946.213" y2="28.818" gradientUnits="userSpaceOnUse">
<stop stop-color="#3272DB"/>
<stop offset="0.2" stop-color="#3272DB"/>
<stop offset="0.8" stop-color="#33ECC9"/>
<stop offset="1" stop-color="#33ECC9"/>
</linearGradient>
</defs>
</svg>
