<svg width="834" height="365" viewBox="0 0 834 365" fill="none" xmlns="http://www.w3.org/2000/svg">
<path d="M5 5V0H0V5H5ZM5 303.658H0V308.658H5V303.658ZM829 303.658V308.658H834V303.658H829ZM829 5H834V0H829V5ZM470.289 303.658L473.857 307.16L482.2 298.658H470.289V303.658ZM415 360L411.431 356.498L416.621 364.73L415 360ZM579.434 303.658V298.658H578.601L577.813 298.928L579.434 303.658ZM834 303.658V5H824V303.658H834ZM829 0H5V10H829V0ZM0 5V303.658H10V5H0ZM5 308.658H470.289V298.658H5V308.658ZM466.72 300.156L411.431 356.498L418.569 363.502L473.857 307.16L466.72 300.156ZM416.621 364.73L581.055 308.388L577.813 298.928L413.379 355.27L416.621 364.73ZM579.434 308.658H829V298.658H579.434V308.658Z" fill="url(#paint0_linear)"/>
<defs>
<linearGradient id="paint0_linear" x1="19.9193" y1="196.541" x2="946.213" y2="28.318" gradientUnits="userSpaceOnUse">
<stop stop-color="#3272DB"/>
<stop offset="0.2" stop-color="#3272DB"/>
<stop offset="0.8" stop-color="#33ECC9"/>
<stop offset="1" stop-color="#33ECC9"/>
</linearGradient>
</defs>
</svg>
