<svg width="100" height="83" viewBox="0 0 100 83" fill="none" xmlns="http://www.w3.org/2000/svg">
<path fill-rule="evenodd" clip-rule="evenodd" d="M98.6854 19.0269L67.1776 7.01462C66.4136 6.72347 65.5584 7.1066 65.2673 7.86982C64.9761 8.6338 65.3592 9.489 66.1232 9.78014L94.0042 20.4097L74.7033 27.769L50.4294 16.7783C49.6844 16.4408 48.8079 16.7715 48.4712 17.5157C48.1336 18.2607 48.4643 19.1372 49.2085 19.4747L70.8074 29.2544L49.8189 37.256L5.63367 20.4097L49.8189 3.56342L60.7077 7.7155C61.4702 8.00589 62.3261 7.62352 62.618 6.85954C62.9092 6.09633 62.5261 5.24113 61.7621 4.94998L50.3465 0.597208C50.0067 0.467978 49.6312 0.467218 49.2914 0.597208L0.952501 19.0269C0.379328 19.2459 0 19.7962 0 20.4097V27.1677C0 27.7811 0.379328 28.3315 0.952501 28.5504L16.0473 34.305V39.4331C16.0473 40.2503 16.7094 40.9132 17.5266 40.9132C18.3446 40.9132 19.0067 40.2503 19.0067 39.4331V35.4338L49.2914 46.9802C49.4617 47.0448 49.6403 47.0775 49.8189 47.0775C49.9976 47.0775 50.1762 47.0448 50.3465 46.9802L73.1746 38.2769V61.6964C66.0077 65.4585 57.9711 67.4745 49.8189 67.4745C38.693 67.4745 27.7799 63.7238 19.0067 56.8982V45.3526C19.0067 44.5354 18.3446 43.8726 17.5266 43.8726C16.7094 43.8726 16.0473 44.5354 16.0473 45.3526V57.615C16.0473 58.0643 16.2511 58.4892 16.6015 58.7697C25.9904 66.2917 37.7876 70.4339 49.8189 70.4339C57.9331 70.4339 65.9393 68.5471 73.1746 65.0131V71.0025C70.7899 71.654 69.0317 73.838 69.0317 76.4264C69.0317 79.5264 71.5539 82.0494 74.6539 82.0494C77.7547 82.0494 80.277 79.5264 80.277 76.4264C80.277 73.838 78.5187 71.654 76.134 71.0025V63.4501C78.546 62.078 80.857 60.5166 83.0372 58.7697C83.3876 58.4892 83.5921 58.0643 83.5921 57.615V34.3042L98.6854 28.5497C99.2586 28.3315 99.6379 27.7811 99.6379 27.1669V20.4097C99.6379 19.7962 99.2586 19.2459 98.6854 19.0269ZM77.3176 76.4264C77.3176 77.8943 76.1226 79.0893 74.6539 79.0893C73.186 79.0893 71.991 77.8943 71.991 76.4264C71.991 74.9577 73.186 73.7627 74.6539 73.7627C76.1226 73.7627 77.3176 74.9577 77.3176 76.4264ZM2.95937 22.558L48.3389 39.8596V43.4491L2.95937 26.1475V22.558ZM51.299 43.4491V39.8596L73.1746 31.5189V35.1092L51.299 43.4491ZM80.632 56.8974C79.1884 58.021 77.6855 59.0594 76.134 60.0126V37.148L80.632 35.4331V56.8974ZM76.134 33.9804V30.3908L96.6785 22.558V26.1475L76.134 33.9804Z" fill="url(#paint0_linear)"/>
<defs>
<linearGradient id="paint0_linear" x1="1.80404" y1="44.5" x2="116.458" y2="33.5396" gradientUnits="userSpaceOnUse">
<stop stop-color="#3272DB"/>
<stop offset="0.591862" stop-color="#3272DB"/>
<stop offset="1" stop-color="#33ECC9"/>
</linearGradient>
</defs>
</svg>
