<svg width="82" height="83" viewBox="0 0 82 83" fill="none" xmlns="http://www.w3.org/2000/svg">
<path d="M40.8748 0.5C24.5534 0.497622 9.80252 10.2264 3.37849 25.2303L2.87007 25.3989L3.06718 25.9902C-5.39103 46.8513 4.6633 70.6193 25.5244 79.0775C30.3966 81.0531 35.605 82.0672 40.8627 82.0643C63.386 82.0677 81.6475 63.8116 81.6509 41.2883C81.6543 18.765 63.3982 0.503229 40.8748 0.5ZM72.8638 61.8438L70.7696 59.751V54.8762C70.772 54.6658 70.7254 54.4578 70.6337 54.2685L65.332 43.6801V38.5633C65.332 38.109 65.1051 37.6845 64.727 37.4323L60.6488 34.7135C60.3292 34.5001 59.9341 34.4319 59.5613 34.5259L54.5668 35.7738L46.178 32.1741L45.0238 24.0884L48.2225 20.8911H55.0889L57.3998 24.3643C57.6085 24.6767 57.9373 24.8889 58.3079 24.9503L66.4644 26.3097C66.6829 26.3464 66.9068 26.3285 67.1169 26.258L74.6289 23.754C80.9296 35.845 80.2557 50.3874 72.8638 61.8438ZM67.2569 13.8956L65.0465 15.3692L58.8843 14.1362L54.8863 12.8053C54.6416 12.7222 54.3782 12.7117 54.1278 12.7754L49.0735 14.0383L46.8577 13.3002L48.4998 10.0158H53.0973C53.3082 10.016 53.5162 9.96723 53.705 9.8731L58.4085 7.52133C61.6476 9.21209 64.6275 11.3586 67.2569 13.8956ZM25.9731 6.25436L29.2357 8.42941C29.3961 8.53612 29.5773 8.60749 29.7672 8.63876L36.3549 9.73716L35.7119 11.6607L32.2794 12.8067C31.972 12.909 31.7112 13.1177 31.544 13.3953L27.6398 19.9014L21.3688 23.6643L12.1249 24.9842C11.4549 25.0789 10.9567 25.652 10.9558 26.3287V30.4069C10.9558 30.7675 11.0992 31.1131 11.3541 31.368L13.6746 33.6885V36.024L8.01949 32.253L5.96815 26.0989C9.871 17.1813 17.0244 10.0852 25.9731 6.25436ZM22.1029 50.8252L15.9584 49.5949L13.6746 45.0395V41.8449L18.7398 36.7798L20.6144 40.5304C20.8446 40.9912 21.3158 41.2823 21.831 41.2821H30.5774L34.2601 47.4199C34.5058 47.8289 34.9479 48.079 35.4251 48.0792H39.2042L38.2526 52.8466L33.1059 57.9933C32.8505 58.248 32.7068 58.5937 32.7063 58.9544V62.3529L27.8124 66.0233C27.4702 66.2801 27.2687 66.683 27.2687 67.1108V72.021L25.5776 71.4609L23.1904 65.4904V52.1574C23.1906 51.5113 22.7359 50.9543 22.1029 50.8252ZM18.0166 71.7228C5.19924 62.1069 -0.221214 45.4922 4.45921 30.1676L5.58888 33.5553C5.68404 33.8419 5.87198 34.0889 6.12313 34.2567L12.8998 38.774L11.3541 40.321C11.0992 40.5759 10.9558 40.9216 10.9558 41.2821V45.3604C10.9556 45.5712 11.0044 45.7792 11.0985 45.968L13.8174 51.4056C14.0056 51.7812 14.3569 52.0486 14.7689 52.1302L20.4784 53.2707V65.7514C20.4783 65.9241 20.5111 66.0954 20.5749 66.2558L23.2938 73.0528C23.4426 73.4241 23.7475 73.7111 24.1271 73.8372L28.2053 75.1966C28.3416 75.2428 28.4843 75.2666 28.6281 75.2673C29.3788 75.2673 29.9875 74.6586 29.9875 73.9079V67.7905L34.8813 64.1201C35.2235 63.8634 35.4251 63.4605 35.4251 63.0326V59.5172L40.4644 54.4779C40.6539 54.2881 40.783 54.0463 40.8355 53.7832L42.1949 46.9862C42.3421 46.2499 41.8646 45.5338 41.1283 45.3867C41.0408 45.3692 40.9519 45.3604 40.8627 45.3604H36.1945L32.5119 39.2226C32.2662 38.8136 31.824 38.5635 31.3469 38.5633H22.6712L20.3357 33.8775C20.1401 33.4863 19.7683 33.2131 19.3365 33.1434C18.9049 33.0688 18.4643 33.2112 18.1579 33.524L16.3934 35.2817V33.1257C16.3934 32.7651 16.25 32.4195 15.9951 32.1646L13.6746 29.8441V27.5073L22.0241 26.3151C22.2033 26.2891 22.3758 26.2276 22.5311 26.1343L29.3282 22.0561C29.5188 21.9416 29.6785 21.7818 29.7931 21.5912L33.613 15.2251L37.2141 14.0234C37.6207 13.89 37.9398 13.571 38.0732 13.1642L39.4326 9.086C39.6681 8.37316 39.2812 7.60425 38.5684 7.36873C38.5026 7.34698 38.4351 7.33033 38.3668 7.31878L30.4986 6.00695L29.1161 5.08527C37.6706 2.30087 46.936 2.64548 55.2601 6.05725L52.7765 7.29702H47.6597C47.142 7.29414 46.6677 7.58573 46.4363 8.04878L43.7174 13.4864C43.3825 14.1583 43.6556 14.9746 44.3275 15.3095C44.3847 15.3381 44.4439 15.3625 44.5045 15.3828L48.5828 16.7422C48.8274 16.8253 49.0908 16.8358 49.3413 16.7721L54.3956 15.5092L58.0986 16.7422C58.1516 16.7612 58.2061 16.7758 58.2617 16.7857L65.0587 18.1451C65.4122 18.2171 65.7799 18.1447 66.0796 17.9439L69.1737 15.8803C70.6964 17.5763 72.0648 19.4047 73.2627 21.3438L66.5745 23.5732L59.3329 22.366L56.9404 18.7772C56.6896 18.4012 56.2681 18.1745 55.8161 18.1723H47.6597C47.2991 18.1723 46.9535 18.3157 46.6986 18.5706L42.6204 22.6488C42.3176 22.9514 42.175 23.3791 42.2357 23.8029L43.5951 33.3187C43.6636 33.7893 43.9728 34.1898 44.4107 34.375L53.9266 38.4532C54.1991 38.5713 54.5033 38.5956 54.7912 38.5226L59.6456 37.3086L62.6132 39.2906V44.0009C62.6108 44.2113 62.6573 44.4193 62.7491 44.6086L68.0508 55.197V60.3138C68.0508 60.6744 68.1942 61.02 68.4491 61.2749L71.293 64.1201C58.6806 80.9314 34.8278 84.3353 18.0166 71.7228Z" fill="url(#paint0_linear)"/>
<defs>
<linearGradient id="paint0_linear" x1="1.54681" y1="44.5081" x2="95.7039" y2="37.1396" gradientUnits="userSpaceOnUse">
<stop stop-color="#3272DB"/>
<stop offset="0.591862" stop-color="#3272DB"/>
<stop offset="1" stop-color="#33ECC9"/>
</linearGradient>
</defs>
</svg>
