<svg width="83" height="93" viewBox="0 0 83 93" fill="none" xmlns="http://www.w3.org/2000/svg">
<path d="M74.4491 37.7303C74.0623 36.9547 73.1199 36.6393 72.3445 37.026C71.5688 37.4126 71.2534 38.3548 71.6399 39.1304C73.5944 43.0513 74.5854 47.5301 74.5854 52.4423C74.5854 59.3923 71.3928 68.5925 66.2536 76.4523C60.9882 84.5048 54.8662 89.3123 49.8773 89.3123C47.7988 89.3123 45.5686 88.9844 43.5976 88.389C40.5226 87.4602 37.2716 87.4602 34.1966 88.389C32.2254 88.9846 29.9951 89.3123 27.9165 89.3123C22.9276 89.3123 16.8057 84.5047 11.5402 76.4523C6.40085 68.5925 3.20843 59.3923 3.20843 52.4423C3.20843 45.8763 5.025 39.9745 8.46149 35.375C11.3527 31.5053 15.3831 28.671 19.5186 27.5987C22.6085 26.7975 26.6827 27.0101 31.3018 28.2127C31.8066 28.3442 32.3231 28.4645 32.8364 28.5699C33.6852 28.7439 34.5149 28.1974 34.6894 27.3485C34.864 26.4996 34.317 25.67 33.468 25.4955C33.0079 25.4008 32.5453 25.2934 32.0929 25.1756C26.8842 23.8193 22.3887 23.6126 18.7309 24.5607C13.8464 25.827 9.30647 29.0006 5.94703 33.4965C2.10214 38.6425 0.0697021 45.1938 0.0697021 52.4423C0.0697021 59.9692 3.45824 69.8275 8.91334 78.1699C14.8478 87.2456 21.7741 92.4509 27.9163 92.4509C30.3282 92.4509 32.8138 92.0852 35.1038 91.3936C37.5848 90.6442 40.2081 90.6442 42.6895 91.3936C44.9797 92.0854 47.4651 92.4509 49.877 92.4509C56.0192 92.4509 62.9455 87.2456 68.88 78.1699C74.3347 69.8273 77.7236 59.9692 77.7236 52.4423C77.7236 47.0398 76.6222 42.0899 74.4491 37.7303Z" fill="url(#paint0_linear)"/>
<path d="M71.1727 32.632C67.8962 28.6025 63.5955 25.7361 59.0628 24.5608C55.4052 23.6126 50.9095 23.8193 45.7006 25.1757C44.5722 25.4697 43.4135 25.6924 42.2566 25.8377C41.3967 25.9457 40.7871 26.7303 40.8951 27.5904C41.003 28.4502 41.7889 29.0605 42.6477 28.9518C43.9392 28.7897 45.2324 28.5411 46.4919 28.213C51.1115 27.0103 55.1859 26.7982 58.2753 27.599C62.1645 28.6076 65.8803 31.0981 68.7374 34.612C69.0476 34.9935 69.4999 35.1914 69.9559 35.1914C70.304 35.1914 70.654 35.0763 70.9449 34.8398C71.6175 34.2929 71.7193 33.3044 71.1727 32.632Z" fill="url(#paint1_linear)"/>
<path d="M81.7687 1.67997C81.2502 1.34845 80.5859 1.3506 80.0692 1.68536C77.8157 3.14688 75.284 2.6108 71.4515 1.79958C71.1184 1.729 70.7789 1.65734 70.4327 1.58533C69.5843 1.40915 68.7533 1.95421 68.5771 2.80296C68.401 3.65171 68.946 4.48232 69.7948 4.6585C70.1369 4.72944 70.4724 4.80056 70.8014 4.87024C73.6804 5.47978 76.2839 6.03094 78.737 5.55179C77.5569 9.76843 74.4543 17.5918 67.2465 20.3692C61.1514 22.7177 55.4238 19.4251 50.8216 16.7795C48.9752 15.7181 47.344 14.7805 45.8943 14.3728C47.5274 10.907 51.5781 4.28316 58.8627 3.72983C60.9824 3.56874 63.0904 3.621 65.3068 3.88913C66.1679 3.99258 66.9491 3.37999 67.0533 2.51974C67.1575 1.65932 66.5442 0.877377 65.6839 0.773214C63.2614 0.48012 60.952 0.423549 58.6252 0.600088C53.6448 0.978308 49.1884 3.69751 45.7381 8.46315C43.5288 11.515 42.4047 14.4665 42.1191 15.2778L37.9885 21.5505C36.826 18.0349 35.6729 15.8313 35.5802 15.6567C35.1736 14.8913 34.2236 14.6003 33.4582 15.0068C32.6927 15.4132 32.4018 16.3632 32.8082 17.1286C32.8472 17.2017 36.4672 24.1155 37.1978 33.1748C35.9949 33.0399 34.8892 32.7639 34.0276 32.3736C32.9878 31.9026 32.6647 31.4247 32.6647 31.304C32.6647 30.4373 31.9622 29.7347 31.0955 29.7347C30.2287 29.7347 29.5262 30.4373 29.5262 31.304C29.5262 32.2285 29.9428 33.9686 32.7326 35.2324C34.4048 35.9901 36.5937 36.4073 38.8958 36.4073C41.1989 36.4073 43.3883 35.9901 45.0609 35.2326C47.8508 33.9688 48.2676 32.2287 48.2676 31.3042C48.2676 30.4375 47.5651 29.7349 46.6984 29.7349C45.8317 29.7349 45.1291 30.4375 45.1291 31.3042C45.1291 31.4249 44.806 31.9026 43.766 32.3736C42.8456 32.7907 41.6457 33.0766 40.3469 33.1999C40.1411 30.4112 39.6837 27.8188 39.1273 25.528L44.5445 17.3016C44.7293 17.3093 45.0634 17.3671 45.6262 17.5895C46.6154 17.9808 47.8399 18.6846 49.2577 19.4996C52.9388 21.6156 57.6391 24.3184 62.9209 24.3179C64.6798 24.3179 66.5041 24.0178 68.3753 23.2967C80.1188 18.7715 82.3857 3.85663 82.4766 3.22392C82.5641 2.61565 82.2872 2.01132 81.7687 1.67997Z" fill="url(#paint2_linear)"/>
<defs>
<linearGradient id="paint0_linear" x1="1.4757" y1="60.9219" x2="90.9445" y2="52.9833" gradientUnits="userSpaceOnUse">
<stop stop-color="#3272DB"/>
<stop offset="0.591862" stop-color="#3272DB"/>
<stop offset="1" stop-color="#33ECC9"/>
</linearGradient>
<linearGradient id="paint1_linear" x1="41.4375" y1="30.0275" x2="75.4642" y2="22.7535" gradientUnits="userSpaceOnUse">
<stop stop-color="#3272DB"/>
<stop offset="0.591862" stop-color="#3272DB"/>
<stop offset="1" stop-color="#33ECC9"/>
</linearGradient>
<linearGradient id="paint2_linear" x1="30.4852" y1="19.8738" x2="91.1823" y2="12.8686" gradientUnits="userSpaceOnUse">
<stop stop-color="#3272DB"/>
<stop offset="0.591862" stop-color="#3272DB"/>
<stop offset="1" stop-color="#33ECC9"/>
</linearGradient>
</defs>
</svg>
