<svg width="80" height="72" viewBox="0 0 80 72" fill="none" xmlns="http://www.w3.org/2000/svg">
<path d="M74.8788 0.5H5.16798C2.52887 0.5 0.381714 2.64715 0.381714 5.28627V53.4167C0.381714 56.0558 2.52887 58.203 5.16798 58.203H29.0552V61.6855C29.0552 64.8781 26.4577 67.4756 23.2652 67.4756H18.0007C16.9914 67.4756 16.173 68.2938 16.173 69.3033C16.173 70.3127 16.9914 71.131 18.0007 71.131H62.0458C63.0551 71.131 63.8735 70.3127 63.8735 69.3033C63.8735 68.2938 63.0551 67.4756 62.0458 67.4756H56.7812C53.5886 67.4756 50.9911 64.8781 50.9911 61.6855V58.2031H74.8784C77.5175 58.2031 79.6648 56.056 79.6648 53.4168V5.28627C79.6648 2.64715 77.518 0.5 74.8788 0.5ZM30.72 67.4759C31.9659 65.8753 32.7109 63.8666 32.7109 61.6859V58.2033H47.3361V61.6859C47.3361 63.8666 48.0811 65.8755 49.327 67.4759H30.72ZM76.0097 53.4168C76.0097 54.0404 75.5024 54.5479 74.8787 54.5479H5.16798C4.5444 54.5479 4.03696 54.0406 4.03696 53.4168V43.811H76.0097V53.4168ZM76.0099 40.1555H4.03711V5.28627C4.03711 4.66269 4.5444 4.15524 5.16814 4.15524H74.8787C75.5023 4.15524 76.0099 4.66253 76.0099 5.28627V40.1555Z" fill="url(#paint0_linear)"/>
<path d="M40.0238 51.2234C41.1523 51.2234 42.0672 50.3086 42.0672 49.1801C42.0672 48.0516 41.1523 47.1367 40.0238 47.1367C38.8953 47.1367 37.9805 48.0516 37.9805 49.1801C37.9805 50.3086 38.8953 51.2234 40.0238 51.2234Z" fill="url(#paint1_linear)"/>
<path d="M41.7029 13.5991L36.4053 34.7895" stroke="url(#paint2_linear)" stroke-width="2.1651" stroke-linecap="round" stroke-linejoin="round"/>
<path d="M29.8274 14.9229L21.8369 23.367L29.8274 31.8112" stroke="url(#paint3_linear)" stroke-width="2.1651" stroke-linecap="round" stroke-linejoin="round"/>
<path d="M48.3249 14.9229L56.3154 23.367L48.3249 31.8112" stroke="url(#paint4_linear)" stroke-width="2.1651" stroke-linecap="round" stroke-linejoin="round"/>
<defs>
<linearGradient id="paint0_linear" x1="1.81721" y1="38.609" x2="93.1775" y2="30.5852" gradientUnits="userSpaceOnUse">
<stop stop-color="#3272DB"/>
<stop offset="0.591862" stop-color="#3272DB"/>
<stop offset="1" stop-color="#33ECC9"/>
</linearGradient>
<linearGradient id="paint1_linear" x1="38.0545" y1="49.3417" x2="42.7711" y2="48.9727" gradientUnits="userSpaceOnUse">
<stop stop-color="#3272DB"/>
<stop offset="0.591862" stop-color="#3272DB"/>
<stop offset="1" stop-color="#33ECC9"/>
</linearGradient>
<linearGradient id="paint2_linear" x1="36.5012" y1="25.0324" x2="42.6505" y2="24.9121" gradientUnits="userSpaceOnUse">
<stop stop-color="#3272DB"/>
<stop offset="0.591862" stop-color="#3272DB"/>
<stop offset="1" stop-color="#33ECC9"/>
</linearGradient>
<linearGradient id="paint3_linear" x1="21.9816" y1="24.035" x2="31.2476" y2="23.692" gradientUnits="userSpaceOnUse">
<stop stop-color="#3272DB"/>
<stop offset="0.591862" stop-color="#3272DB"/>
<stop offset="1" stop-color="#33ECC9"/>
</linearGradient>
<linearGradient id="paint4_linear" x1="56.1708" y1="24.035" x2="46.9047" y2="23.692" gradientUnits="userSpaceOnUse">
<stop stop-color="#3272DB"/>
<stop offset="0.591862" stop-color="#3272DB"/>
<stop offset="1" stop-color="#33ECC9"/>
</linearGradient>
</defs>
</svg>
