<svg width="80" height="80" viewBox="0 0 80 80" fill="none" xmlns="http://www.w3.org/2000/svg">
<rect width="80" height="80" rx="10" fill="#F7D047"/>
<path d="M25.3516 65H54.6484C57.0717 65 59.043 63.0287 59.043 60.6055V29.6484H48.7891C46.3658 29.6484 44.3945 27.6771 44.3945 25.2539V15H25.3516C22.9283 15 20.957 16.9713 20.957 19.3945V60.6055C20.957 63.0287 22.9283 65 25.3516 65ZM31.2109 35.6055H48.7891C49.5987 35.6055 50.2539 36.2606 50.2539 37.0703C50.2539 37.88 49.5987 38.5352 48.7891 38.5352H31.2109C30.4013 38.5352 29.7461 37.88 29.7461 37.0703C29.7461 36.2606 30.4013 35.6055 31.2109 35.6055ZM31.2109 41.4648H48.7891C49.5987 41.4648 50.2539 42.12 50.2539 42.9297C50.2539 43.7394 49.5987 44.3945 48.7891 44.3945H31.2109C30.4013 44.3945 29.7461 43.7394 29.7461 42.9297C29.7461 42.12 30.4013 41.4648 31.2109 41.4648ZM31.2109 47.3242H48.7891C49.5987 47.3242 50.2539 47.9794 50.2539 48.7891C50.2539 49.5987 49.5987 50.2539 48.7891 50.2539H31.2109C30.4013 50.2539 29.7461 49.5987 29.7461 48.7891C29.7461 47.9794 30.4013 47.3242 31.2109 47.3242ZM31.2109 53.1836H42.9297C43.7394 53.1836 44.3945 53.8388 44.3945 54.6484C44.3945 55.4581 43.7394 56.1133 42.9297 56.1133H31.2109C30.4013 56.1133 29.7461 55.4581 29.7461 54.6484C29.7461 53.8388 30.4013 53.1836 31.2109 53.1836Z" fill="#D4B235"/>
<path d="M48.7891 26.7188H58.1847L47.3242 15.8584V25.254C47.3242 26.0622 47.9809 26.7188 48.7891 26.7188Z" fill="#D4B235"/>
</svg>
