<svg height="666.66669" viewBox="0 0 666.66669 666.66669" width="666.66669" xmlns="http://www.w3.org/2000/svg" xmlns:xlink="http://www.w3.org/1999/xlink"><clipPath id="a"><path d="m0 500h500v-500h-500z"/></clipPath><clipPath id="b"><path d="m68.0273 343.354h251.0887v-264.4009h-251.0887z"/></clipPath><clipPath id="c"><path clip-rule="evenodd" d="m304.692 255.089c.039-.051.083-.091.117-.155-.034.065-.073.117-.117.155"/></clipPath><linearGradient id="d"><stop offset="0" stop-color="#fff"/><stop offset="1" stop-color="#fff" stop-opacity="0"/></linearGradient><linearGradient id="e" gradientTransform="matrix(-.0203141 -.0203141 -.0203141 .0203141 304.76074 255.02246)" gradientUnits="userSpaceOnUse" spreadMethod="pad" x1="0" x2="1" xlink:href="#d" y1="0" y2="0"/><mask id="f" height="1" maskUnits="userSpaceOnUse" width="1" x="0" y="0"><path d="m-32768 32767h65535v-65535h-65535z" fill="url(#e)"/></mask><linearGradient id="g"><stop offset="0"/><stop offset="1"/></linearGradient><linearGradient id="h" gradientTransform="matrix(-.0203141 -.0203141 -.0203141 .0203141 304.76074 255.02246)" gradientUnits="userSpaceOnUse" spreadMethod="pad" x1="0" x2="1" xlink:href="#g" y1="0" y2="0"/><clipPath id="i"><path clip-rule="evenodd" d="m304.678 255.108c.005-.004.009-.014.014-.019-.005.007-.008.014-.014.019"/></clipPath><linearGradient id="j" gradientTransform="matrix(-.0024169 -.0024169 -.0024169 .0024169 304.68652 255.1001)" gradientUnits="userSpaceOnUse" spreadMethod="pad" x1="0" x2="1" xlink:href="#d" y1="0" y2="0"/><mask id="k" height="1" maskUnits="userSpaceOnUse" width="1" x="0" y="0"><path d="m-32768 32767h65535v-65535h-65535z" fill="url(#j)"/></mask><linearGradient id="l" gradientTransform="matrix(-.0024169 -.0024169 -.0024169 .0024169 304.68652 255.1001)" gradientUnits="userSpaceOnUse" spreadMethod="pad" x1="0" x2="1" xlink:href="#g" y1="0" y2="0"/><clipPath id="m"><path clip-rule="evenodd" d="m304.742 255.02s-.001.001-.002.001c.005-.007.011-.014.016-.021h.001c-.005.006-.01.013-.015.02"/></clipPath><linearGradient id="n" gradientTransform="matrix(-.0030696 -.0030696 -.0030696 .0030696 304.75 255.01172)" gradientUnits="userSpaceOnUse" spreadMethod="pad" x1="0" x2="1" xlink:href="#d" y1="0" y2="0"/><mask id="o" height="1" maskUnits="userSpaceOnUse" width="1" x="0" y="0"><path d="m-32768 32767h65535v-65535h-65535z" fill="url(#n)"/></mask><linearGradient id="p" gradientTransform="matrix(-.0030696 -.0030696 -.0030696 .0030696 304.75 255.01172)" gradientUnits="userSpaceOnUse" spreadMethod="pad" x1="0" x2="1" xlink:href="#g" y1="0" y2="0"/><clipPath id="q"><path clip-rule="evenodd" d="m304.787 254.961.002-.002c.006-.01.014-.016.02-.026-.006.011-.015.016-.022.028m.022-.027c-.014.027-.034.045-.05.066h-.002c.018-.021.037-.041.052-.07-.015.029-.035.048-.053.07h-.141c-.052 0-.103.174-.156.198-.209.127-.453.215-.715.192-.49.062-1.006.034-1.256-.187-.052-.004-.109 0-.159 0 0-2.386-2.478-3.493-4.188-4.595-3.022-1.947-5.448-4.627-8.102-7.014-5.813-5.234-11.982-10.049-18.001-15.04-5.815-4.824-11.591-9.72-16.868-15.137-2.407-2.472-5.547-4.008-8.238-6.123-.989-.777-1.864-1.827-3.149-2.11-1.808-.398-3.51.529-5.231.898 6.962 5.789 13.71 11.828 20.626 17.672 5.784 4.887 12.278 9.353 16.142 16.047 4.06 7.035 4.166 15.416 4.182 23.308.018 9.186-.016 18.373.061 27.559.116 13.988 3.058 30.014-6.419 41.848-8.21 10.252-23.468 13.574-35.434 8.487-7.173-3.05-12.766-8.653-18.456-13.8-6.608-5.974-13.457-11.672-20.229-17.457-14.048-12-28.097-24-42.084-36.072-27.037-23.341-53.206-47.716-81.271-69.843-2.479-1.954-5.057-3.845-7.643-5.747 15.01-52.713 52.31-96.029 101.057-119.131 6.478 5.432 12.936 10.892 19.277 16.488 13.771 12.151 27.619 24.213 41.537 36.194 6.696 5.762 13.453 11.506 20.563 16.756 2.921 2.157 6.187 4.263 8.137 7.42 2.188 3.543 1.72 7.613 1.828 11.575.187 6.894 4.183 12.502 9.178 16.926 6.331 5.612 13.566 10.008 20.004 15.496 16.198 13.803 29.508 33.192 29.508 55.192h-14.357c.016-.023.035-.038.05-.066"/></clipPath><linearGradient id="r" gradientTransform="matrix(-186.71352 -186.71352 -186.71352 186.71352 296.25684 309.62988)" gradientUnits="userSpaceOnUse" spreadMethod="pad" x1="0" x2="1" xlink:href="#d" y1="0" y2="0"/><mask id="s" height="1" maskUnits="userSpaceOnUse" width="1" x="0" y="0"><path d="m-32768 32767h65535v-65535h-65535z" fill="url(#r)"/></mask><linearGradient id="t" gradientTransform="matrix(-186.71352 -186.71352 -186.71352 186.71352 296.25684 309.62988)" gradientUnits="userSpaceOnUse" spreadMethod="pad" x1="0" x2="1" xlink:href="#g" y1="0" y2="0"/><clipPath id="u"><path clip-rule="evenodd" d="m304.692 255.089c0 .001-.001.001-.001.001.023-.029.044-.061.068-.09-.022.031-.043.065-.067.089"/></clipPath><linearGradient id="v" gradientTransform="matrix(-.0114909 -.0114909 -.0114909 .0114909 304.73145 255.05029)" gradientUnits="userSpaceOnUse" spreadMethod="pad" x1="0" x2="1" xlink:href="#d" y1="0" y2="0"/><mask id="w" height="1" maskUnits="userSpaceOnUse" width="1" x="0" y="0"><path d="m-32768 32767h65535v-65535h-65535z" fill="url(#v)"/></mask><linearGradient id="x" gradientTransform="matrix(-.0114909 -.0114909 -.0114909 .0114909 304.73145 255.05029)" gradientUnits="userSpaceOnUse" spreadMethod="pad" x1="0" x2="1" xlink:href="#g" y1="0" y2="0"/><g transform="matrix(1.3333333 0 0 -1.3333333 0 666.66667)"><path d="m0 0h500v500h-500z" fill="#fff"/><g clip-path="url(#a)"><path d="m0 0c-104.486 0-189.187-84.701-189.187-189.187 0-104.485 84.701-189.188 189.187-189.188 104.482 0 189.187 84.703 189.187 189.188 0 104.486-84.705 189.187-189.187 189.187" fill="#ef8321" fill-rule="evenodd" transform="translate(250 439.1875)"/><g clip-path="url(#b)" opacity=".419998"><g clip-path="url(#c)"><g mask="url(#f)"><path d="m304.692 255.089c.039-.051.083-.091.117-.155-.034.065-.073.117-.117.155" fill="url(#h)" fill-rule="evenodd"/></g></g><g clip-path="url(#i)"><g mask="url(#k)"><path d="m304.678 255.108c.005-.004.009-.014.014-.019-.005.007-.008.014-.014.019" fill="url(#l)" fill-rule="evenodd"/></g></g><g clip-path="url(#m)"><g mask="url(#o)"><path d="m304.742 255.02s-.001.001-.002.001c.005-.007.011-.014.016-.021h.001c-.005.006-.01.013-.015.02" fill="url(#p)" fill-rule="evenodd"/></g></g><g clip-path="url(#q)"><g mask="url(#s)"><path d="m304.787 254.961.002-.002c.006-.01.014-.016.02-.026-.006.011-.015.016-.022.028m.022-.027c-.014.027-.034.045-.05.066h-.002c.018-.021.037-.041.052-.07-.015.029-.035.048-.053.07h-.141c-.052 0-.103.174-.156.198-.209.127-.453.215-.715.192-.49.062-1.006.034-1.256-.187-.052-.004-.109 0-.159 0 0-2.386-2.478-3.493-4.188-4.595-3.022-1.947-5.448-4.627-8.102-7.014-5.813-5.234-11.982-10.049-18.001-15.04-5.815-4.824-11.591-9.72-16.868-15.137-2.407-2.472-5.547-4.008-8.238-6.123-.989-.777-1.864-1.827-3.149-2.11-1.808-.398-3.51.529-5.231.898 6.962 5.789 13.71 11.828 20.626 17.672 5.784 4.887 12.278 9.353 16.142 16.047 4.06 7.035 4.166 15.416 4.182 23.308.018 9.186-.016 18.373.061 27.559.116 13.988 3.058 30.014-6.419 41.848-8.21 10.252-23.468 13.574-35.434 8.487-7.173-3.05-12.766-8.653-18.456-13.8-6.608-5.974-13.457-11.672-20.229-17.457-14.048-12-28.097-24-42.084-36.072-27.037-23.341-53.206-47.716-81.271-69.843-2.479-1.954-5.057-3.845-7.643-5.747 15.01-52.713 52.31-96.029 101.057-119.131 6.478 5.432 12.936 10.892 19.277 16.488 13.771 12.151 27.619 24.213 41.537 36.194 6.696 5.762 13.453 11.506 20.563 16.756 2.921 2.157 6.187 4.263 8.137 7.42 2.188 3.543 1.72 7.613 1.828 11.575.187 6.894 4.183 12.502 9.178 16.926 6.331 5.612 13.566 10.008 20.004 15.496 16.198 13.803 29.508 33.192 29.508 55.192h-14.357c.016-.023.035-.038.05-.066" fill="url(#t)" fill-rule="evenodd"/></g></g><g clip-path="url(#u)"><g mask="url(#w)"><path d="m304.692 255.089c0 .001-.001.001-.001.001.023-.029.044-.061.068-.09-.022.031-.043.065-.067.089" fill="url(#x)" fill-rule="evenodd"/></g></g></g><g fill="#fff"><path d="m0 0c16.344 0 29.525 13.278 29.525 29.622l.096 59.242c0 16.393-13.229 29.621-29.621 29.621-16.344 0-29.621-13.228-29.621-29.621v-59.242c0-16.344 13.277-29.622 29.621-29.622" transform="translate(250 225.3154)"/><path d="m0 0c-27.249 0-52.329 20.735-52.329 50.357h-16.787c0-33.719 26.853-61.561 59.242-66.349v-32.389h19.748v32.389c32.389 4.788 59.242 32.63 59.242 66.349h-16.787c0-29.622-25.031-50.357-52.329-50.357" transform="translate(250 204.5801)"/><path d="m0 0c-1.018.016-1.448-.186-1.438-1.32.047-5.553.041-11.109-.005-16.66-.009-1.043.285-1.439 1.368-1.443 3.488-.015 6.967-.265 10.403-.843 22.479-3.781 40.218-15.067 52.987-33.935 8.405-12.423 12.637-26.265 12.929-41.276.025-1.276.384-1.679 1.667-1.636 2.665.097 5.336.029 8.003.031 2.776 0 5.558.051 8.33-.024 1.158-.029 1.452.335 1.426 1.48-.183 8.251-1.29 16.362-3.487 24.317-11.436 41.319-48.713 70.614-92.183 71.309" fill-rule="evenodd" transform="translate(248.1338 409.3613)"/><path d="m0 0c-8.754 4.729-18.213 7.061-28.184 7.205-.785.014-1.457.127-1.443-1.105.062-5.498.042-10.999.007-16.502-.007-.956.361-1.145 1.252-1.169 3.382-.083 6.724-.535 10.004-1.386 19.632-5.106 33.479-22.288 34.26-42.571.046-1.211.333-1.586 1.557-1.542 2.615.091 5.23.028 7.844.028v.005c2.724 0 5.448.028 8.17-.018.91-.013 1.221.265 1.221 1.203.002 2.35-.14 4.692-.491 7.002-3.325 21.924-14.673 38.303-34.197 48.85" fill-rule="evenodd" transform="translate(276.3086 369.3125)"/><path d="m0 0c-7.338-.025-13.229-5.982-13.207-13.365.021-7.398 5.882-13.21 13.316-13.201 7.362.008 13.289 5.961 13.257 13.31-.031 7.309-6.054 13.28-13.366 13.256" fill-rule="evenodd" transform="translate(259.9199 338.8281)"/></g><path d="m0 0c-7.338-.025-13.229-5.982-13.207-13.365.021-7.398 5.882-13.21 13.316-13.201 7.362.008 13.289 5.961 13.257 13.31-.031 7.309-6.054 13.28-13.366 13.256" fill="#ef8321" fill-rule="evenodd" transform="translate(249.9209 325.5449)"/></g></g></svg>