<svg width="80" height="80" viewBox="0 0 80 80" fill="none" xmlns="http://www.w3.org/2000/svg">
<rect width="80" height="80" rx="10" fill="#5DB9AC"/>
<rect x="17" y="18" width="45" height="45" rx="22.5" fill="#379B8D"/>
<path d="M36.6242 43.336C36.6242 42.832 36.7802 42.412 37.0922 42.076C37.4282 41.74 37.8362 41.572 38.3162 41.572C39.9242 41.524 41.2322 41.08 42.2402 40.24C43.2722 39.376 43.7882 38.152 43.7882 36.568C43.7882 35.2 43.3202 34.072 42.3842 33.184C41.4482 32.272 40.2962 31.816 38.9282 31.816C38.1602 31.816 37.4162 31.984 36.6962 32.32C36.0002 32.632 35.3882 33.064 34.8602 33.616C34.3802 34.048 33.9002 34.264 33.4202 34.264C33.0842 34.264 32.7722 34.156 32.4842 33.94C31.9562 33.556 31.6922 33.112 31.6922 32.608C31.6922 32.176 31.8722 31.78 32.2322 31.42C33.0482 30.484 34.0322 29.752 35.1842 29.224C36.3602 28.696 37.6082 28.432 38.9282 28.432C40.4642 28.432 41.8562 28.78 43.1042 29.476C44.3762 30.172 45.3842 31.144 46.1282 32.392C46.8722 33.616 47.2442 35.008 47.2442 36.568C47.2442 38.008 46.9202 39.292 46.2722 40.42C45.6482 41.524 44.7842 42.424 43.6802 43.12C42.5762 43.792 41.3282 44.2 39.9362 44.344C39.9122 44.344 39.9002 44.356 39.9002 44.38C39.9242 44.38 39.9602 44.368 40.0082 44.344V46.72C40.0082 47.2 39.8402 47.608 39.5042 47.944C39.1922 48.28 38.7962 48.448 38.3162 48.448C37.8122 48.448 37.3922 48.28 37.0562 47.944C36.7442 47.608 36.6002 47.2 36.6242 46.72V43.336ZM38.2082 55C37.6322 55 37.1882 54.844 36.8762 54.532C36.5642 54.196 36.4082 53.74 36.4082 53.164V52.48C36.4082 51.904 36.5642 51.46 36.8762 51.148C37.1882 50.812 37.6322 50.644 38.2082 50.644H38.5682C39.1442 50.644 39.5882 50.812 39.9002 51.148C40.2122 51.46 40.3682 51.904 40.3682 52.48V53.164C40.3682 53.74 40.2122 54.196 39.9002 54.532C39.5882 54.844 39.1442 55 38.5682 55H38.2082Z" fill="#5DB9AC"/>
</svg>
