<svg width="80" height="80" viewBox="0 0 80 80" fill="none" xmlns="http://www.w3.org/2000/svg">
<rect width="80" height="80" rx="10" fill="#F7D047"/>
<path d="M55.2259 15H24.7741C21.5894 15 19 17.5689 19 20.7285V59.2715C19 62.4311 21.5894 65 24.7741 65H55.2259C58.4106 65 61 62.4311 61 59.2715V20.7285C61.0031 17.5689 58.4106 15 55.2259 15ZM33.7014 58.7527H26.8752C26.0058 58.7527 25.3002 58.0527 25.3002 57.1901V51.9804H33.7014V58.7527ZM33.7014 48.8552H25.3002V41.5642H33.7014V48.8552ZM33.7014 38.439H25.3002V33.2293C25.3002 32.3667 26.0058 31.6667 26.8752 31.6667H33.7014V38.439ZM54.703 57.1901C54.703 58.0527 53.9974 58.7527 53.1279 58.7527H36.8515V51.9804H54.703V57.1901ZM54.703 48.8552H36.8515V41.5642H54.703V48.8552ZM54.703 38.439H36.8515V31.6667H53.1279C53.9974 31.6667 54.703 32.3667 54.703 33.2293V38.439Z" fill="#D4B235"/>
</svg>
