<svg width="324" height="232" viewBox="0 0 324 232" fill="none" xmlns="http://www.w3.org/2000/svg">
<path d="M10 215L47.6071 129.4H267.679L322 1" stroke="#F2BE19" stroke-width="2.8742" stroke-linejoin="round" stroke-dasharray="5.75 5.75"/>
<circle cx="9.58067" cy="221.581" r="9.58067" fill="#F2BE19"/>
<g clip-path="url(#clip0)">
<path d="M70.7754 118.755C78.9479 119.554 84.4959 118.312 87.4195 115.027" stroke="#4F301A" stroke-width="8" stroke-linecap="round" stroke-linejoin="round"/>
<path d="M70.7754 118.755C78.9479 119.554 84.4959 118.312 87.4195 115.027" stroke="#E9BA6B" stroke-width="5" stroke-linecap="round" stroke-linejoin="round"/>
<path d="M41.5073 116.821C41.9034 117.236 42.9091 116.934 44.5244 115.914C45.3396 115.412 46.1167 114.866 46.8556 114.277C47.0002 114.154 46.9158 113.772 46.6024 113.132C45.9759 111.867 44.4954 109.952 42.1609 107.386C41.2361 109.846 40.8474 112.154 40.9949 114.309C41.0838 115.401 41.2546 116.238 41.5073 116.821Z" fill="#EABB6C"/>
<path d="M42.1829 107.385C41.6946 107.936 41.4312 108.589 41.3925 109.345C41.2883 109.867 41.1929 110.44 41.1063 111.064C40.9482 112.328 40.944 113.26 41.0936 113.862C41.2166 113.487 41.43 113.169 41.7337 112.906L42.1257 112.626L43.2391 113.563L43.3929 111.87L44.4067 112.411L45.1247 111.054L42.1829 107.385Z" fill="#FCCA81"/>
<path d="M44.6452 109.739L42.0189 107.058L40.9949 110.225L40.6889 112.034L40.589 113.258L40.6222 114.478C40.6667 115.024 40.7149 115.436 40.7669 115.716L41.1112 116.946L41.1346 116.99L41.1808 117.055C41.3479 117.212 41.5208 117.309 41.6994 117.347L42.1892 117.396C42.2927 117.393 42.5653 117.346 43.0069 117.256C43.3446 117.155 43.8208 116.975 44.4354 116.717L47.0825 115.268L47.1479 115.221L47.1689 115.176C47.212 115.13 47.2614 115.04 47.3169 114.904L47.3552 114.681L47.3671 114.303C47.3647 114.214 47.3219 114.001 47.2387 113.664C47.0788 113.226 46.9059 112.855 46.72 112.551L44.6452 109.739ZM41.2674 112.08C41.3121 111.545 41.3608 111.159 41.4135 110.92C41.4359 110.653 41.4676 110.459 41.5087 110.34L42.1713 107.763L44.1891 110.111C44.4953 110.484 44.7255 110.787 44.8798 111.018C45.0633 111.234 45.2714 111.537 45.5041 111.928L46.0636 112.907C46.2047 113.198 46.3321 113.526 46.4456 113.892L46.5248 114.356L46.5081 114.556L46.5956 114.508L46.5093 114.6C46.5028 114.607 46.4954 114.607 46.4871 114.601L46.5081 114.556L45.3506 115.263C44.7967 115.579 44.3735 115.801 44.081 115.93C43.6574 116.138 43.2254 116.309 42.785 116.443C42.5356 116.526 42.3222 116.57 42.1447 116.577L41.9001 116.563L41.8324 116.521L41.6656 116.105L41.5175 115.556C41.4343 115.218 41.372 114.836 41.3308 114.408C41.298 114.291 41.278 114.099 41.2708 113.833L41.2674 112.08Z" fill="#4F301A"/>
<path d="M52.0126 133.402C52.5382 133.199 53.3304 132.885 54.3892 132.461L53.5691 130.38C53.0439 128.822 52.3481 127.575 51.4817 126.638C49.7625 124.757 48.0694 125.377 46.4023 128.496C47.7349 130.71 48.8016 132.616 49.6026 134.212C50.2856 134.036 51.0889 133.766 52.0126 133.402Z" fill="#E9BA6B"/>
<path d="M51.5854 127.366C51.2479 126.564 50.9256 125.925 50.6184 125.449C50.1614 125.33 49.6439 125.367 49.0658 125.561C47.902 125.968 47.0009 126.952 46.3623 128.514C46.6803 129.308 47.0984 130.22 47.6165 131.248L48.0197 131.722C47.9629 131.263 47.9496 130.792 47.9798 130.31C48.0404 129.346 48.2959 128.788 48.7463 128.635C49.2238 128.47 49.9093 128.85 50.8027 129.775C51.4765 130.459 52.1334 131.288 52.7731 132.262C52.6427 130.609 52.2468 128.977 51.5854 127.366Z" fill="#BF8F49"/>
<path d="M52.8009 133.098C53.8597 132.673 54.4026 132.454 54.4297 132.442L51.7639 125.736C51.6622 125.652 51.5237 125.577 51.3485 125.51C50.977 125.401 50.5774 125.394 50.1496 125.488C50.8841 127.631 51.605 129.78 52.3125 131.935L52.8009 133.098Z" fill="#BF8F49"/>
<path d="M48.7628 132.141C48.8704 132.238 49.2009 132.914 49.7541 134.169C50.3441 134.002 50.9184 133.818 51.477 133.617C50.7648 132.369 50.0249 131.278 49.2575 130.345C48.8633 129.891 48.5458 129.557 48.3052 129.341C48.2803 130.386 48.4329 131.319 48.7628 132.141Z" fill="#FCCA81"/>
<path d="M54.0559 132.585C54.2181 132.513 54.4539 132.423 54.7632 132.317L54.025 130.588C53.7292 129.88 53.5009 129.345 53.3403 128.98C53.0683 128.327 52.8265 127.797 52.615 127.391L51.7576 125.666C51.8522 126.028 52.409 127.749 53.428 130.831L54.0559 132.585Z" fill="#4F301A"/>
<path d="M49.2923 134.278L50.0151 134.101L49.6135 133.19C49.4604 132.806 49.0056 132.105 48.249 131.086C47.3507 129.857 46.8553 129.174 46.7628 129.037L47.0574 130.311C47.1866 130.641 47.5011 131.17 48.0008 131.9C48.4946 132.616 48.8061 133.139 48.9354 133.469L49.2923 134.278Z" fill="#4F301A"/>
<path d="M50.9933 139.827C51.5503 139.894 52.3932 139.994 53.522 140.128L53.7818 138.433C54.1359 137.275 54.212 136.226 54.0102 135.285C53.6066 133.402 52.0247 132.98 49.2645 134.02C48.8049 136.225 48.55 138.017 48.5 139.396C49.1819 139.548 50.013 139.692 50.9933 139.827Z" fill="#E9BA6B"/>
<path d="M51.8287 139.927L53.566 140.132L53.9522 137.846C54.2602 134.497 54.1015 133.128 53.4761 133.74C53.1641 134.038 52.818 134.676 52.4376 135.653C52.0956 137.868 51.8926 139.293 51.8287 139.927Z" fill="#BF8F49"/>
<path d="M48.9601 136.38L48.6524 139.432C48.6965 139.436 49.0801 139.457 49.8033 139.494C50.2619 139.507 50.4684 139.593 50.4226 139.752C50.8208 138.598 51.009 137.172 50.9874 135.474C50.7275 135.256 50.4439 135.126 50.1368 135.083C49.5356 135.012 49.1434 135.445 48.9601 136.38Z" fill="#FCCA81"/>
<path d="M53.1689 140.095L53.9163 140.187L54.0833 138.751C54.4835 136.543 54.7057 135.001 54.7499 134.125C54.8093 133.25 54.5442 133.01 53.9547 133.404C53.7633 135.469 53.6457 136.783 53.6019 137.345C53.5646 137.862 53.5127 138.304 53.4461 138.67C53.3987 138.993 53.3063 139.468 53.1689 140.095Z" fill="#4F301A"/>
<path d="M49.2272 133.95L48.5876 136.1C48.5032 136.643 48.3957 137.489 48.2651 138.638L48.1739 139.321L48.9146 139.479L48.9904 138.727C49.1739 137.643 49.2762 136.849 49.2973 136.345C49.333 135.842 49.3783 135.392 49.4333 134.995C49.4872 134.613 49.4913 134.204 49.4457 133.769L49.2272 133.95Z" fill="#4F301A"/>
<path d="M53.357 139.414C51.9454 137.573 50.4157 136.556 48.7678 136.364L48.7289 136.565C48.0156 136.999 47.4145 137.481 46.9258 138.013C46.0643 138.983 45.8734 139.854 46.3532 140.625C46.9565 141.586 48.1232 142.042 49.8533 141.995C51.5395 141.964 52.6304 141.535 53.1258 140.708C53.2681 140.496 53.3432 140.265 53.3511 140.013L53.357 139.414Z" fill="#E9BA6B"/>
<path d="M53.2928 140.326L53.4208 138.502C53.0866 138.185 52.5623 137.955 51.848 137.812C51.7107 138.748 51.4826 139.613 51.1638 140.406C50.9968 140.795 50.8421 141.095 50.6999 141.306C50.4433 141.669 50.5085 141.889 50.8955 141.967C51.0889 142.006 51.3036 142.008 51.5394 141.972L52.3697 141.483C52.8221 141.249 53.1299 140.863 53.2928 140.326Z" fill="#BF8F49"/>
<path d="M46.8449 139.924L47.0056 140.12C47.008 139.661 47.1588 139.22 47.4581 138.798C47.5724 138.646 47.81 138.403 48.1708 138.068C47.5737 138.424 47.1781 138.842 46.9839 139.321C46.872 139.561 46.8257 139.762 46.8449 139.924Z" fill="#BF8F49"/>
<path d="M48.0371 141.313C47.9331 141.434 47.8388 141.504 47.7541 141.52C47.8637 141.527 48.065 141.58 48.3579 141.681C48.537 141.736 48.7013 141.79 48.8508 141.845C48.6932 141.494 48.5926 141.061 48.549 140.544C48.592 139.951 48.763 139.435 49.0619 138.998C48.9896 139.059 48.8895 139.188 48.7616 139.384C48.6341 139.594 48.5572 139.759 48.5309 139.878C48.475 140.546 48.3104 141.024 48.0371 141.313Z" fill="#BF8F49"/>
<path d="M49.8016 140.931L49.8922 140.995C49.9673 141.038 50.0561 141.035 50.1584 140.988C50.0324 140.71 50.0074 140.334 50.0832 139.858C50.1891 139.396 50.248 139.113 50.26 139.009C49.8767 139.612 49.724 140.252 49.8016 140.931Z" fill="#BF8F49"/>
<path d="M53.0438 140.954C53.2868 140.637 53.4 140.175 53.3835 139.569C52.9016 140.351 52.1226 140.816 51.0463 140.964C50.1466 141.077 49.5527 141.005 49.2645 140.746C48.5216 141.181 47.9303 141.204 47.4906 140.817C47.3699 140.731 47.1768 140.433 46.9113 139.922C46.53 140.051 46.3198 139.938 46.2806 139.584L46.3098 139.029C45.9187 139.883 46.0939 140.61 46.8354 141.212C47.5773 141.828 48.6874 142.109 50.1658 142.054C51.6282 141.955 52.5875 141.588 53.0438 140.954Z" fill="#FFEDDC"/>
<path d="M46.8878 139.879L46.7768 139.882C46.6978 140.239 46.5333 140.451 46.2835 140.517C46.5693 140.686 46.8234 140.776 47.0456 140.785C46.9776 140.461 46.9712 140.224 47.0263 140.075L46.8878 139.879Z" fill="#C9B19D"/>
<path d="M49.7128 141.755L50.4466 141.802C50.2356 141.659 50.1272 141.485 50.1216 141.278L50.1581 140.988L49.8013 140.931C49.9125 141.209 49.883 141.484 49.7128 141.755Z" fill="#C9B19D"/>
<path d="M50.7165 137.022C50.1449 136.682 49.5545 136.469 48.9453 136.382C48.9706 136.766 49.2158 137.077 49.6811 137.316C50.1608 137.54 50.506 137.442 50.7165 137.022Z" fill="#FCCA81"/>
<path d="M51.0075 137.103C50.7797 136.887 50.538 136.708 50.2826 136.567C50.0268 136.411 49.8763 136.319 49.8311 136.291C49.6812 136.221 49.5328 136.203 49.3857 136.237C48.7383 136.373 48.1338 136.729 47.5724 137.307C46.7364 138.129 46.4591 138.543 46.7405 138.55C47.0075 138.573 47.3943 138.377 47.901 137.964C48.0749 137.826 48.2641 137.71 48.4687 137.616C48.2369 137.799 48.0349 137.99 47.8627 138.187C47.5182 138.581 47.4879 138.826 47.7717 138.922C48.0555 139.018 48.3055 138.959 48.5216 138.746C48.6515 138.624 48.8377 138.397 49.0803 138.065L49.4903 137.632C49.3488 137.873 49.2224 138.12 49.1109 138.375C48.8876 138.869 48.8802 139.143 49.0889 139.197C49.431 139.262 49.7877 139.045 50.1589 138.546C50.2592 138.425 50.3646 138.223 50.4753 137.938L50.3585 138.541C50.2958 138.957 50.3392 139.193 50.4887 139.248C50.6682 139.317 50.8664 139.26 51.0834 139.076C51.2856 138.893 51.4282 138.697 51.5113 138.487C51.5944 138.278 51.6461 138.003 51.6665 137.662C51.3783 137.403 51.1586 137.217 51.0075 137.103Z" fill="#FCCA81"/>
<path d="M48.6054 141.03L48.1636 141.109C47.9785 141.38 47.7905 141.541 47.5994 141.59L48.3747 141.525L48.9851 141.93L48.6054 141.03Z" fill="#C9B19D"/>
<path d="M53.3005 139.77C52.6071 140.396 51.8621 140.757 51.0655 140.852C51.0708 141.045 51.0312 141.223 50.9469 141.388C50.7787 141.733 50.4789 141.867 50.0476 141.79C50.437 141.957 50.8237 142.028 51.2078 142.003C51.5772 141.978 51.8403 141.86 51.9974 141.649C52.5509 141.323 52.8855 141.106 53.001 141C53.2607 140.756 53.3856 140.449 53.3755 140.079L53.3005 139.77Z" fill="#C9B19D"/>
<path d="M53.6467 138.651C53.5388 138.491 53.3945 138.355 53.2138 138.241C53.0669 139.37 52.9947 139.978 52.9971 140.067C52.9728 140.26 52.918 140.424 52.8329 140.56L52.791 140.65C52.6631 140.846 52.5263 140.983 52.3804 141.061L52.3145 141.085L52.2269 141.131L51.8097 141.298L51.6575 141.413L51.5711 141.504L51.3536 141.666L51.1995 141.714L51.0448 141.741L50.7565 141.749L50.6 141.708L50.555 141.687L50.4879 141.667L50.4651 141.646L50.3733 141.537L50.3284 141.516L50.2606 141.473L50.1707 141.432L50.1263 141.433L50.0814 141.412L49.9039 141.417C49.816 141.449 49.765 141.48 49.7511 141.51L49.5988 141.625L49.5772 141.647L49.5329 141.649L49.2217 141.635L48.9315 141.576L48.8416 141.534L48.841 141.512L48.6815 141.361L48.591 141.297L48.4339 141.235L48.3673 141.236L48.3224 141.215L48.2336 141.218C48.1745 141.219 48.079 141.244 47.9471 141.292C47.9175 141.293 47.8434 141.288 47.7247 141.276L47.4783 141.194L47.4099 141.129L47.3853 141.041C47.3681 140.953 47.3363 140.872 47.29 140.8L47.1736 140.603L47.1053 140.538L46.9925 140.475C46.8574 140.404 46.6864 140.372 46.4793 140.378L46.4332 140.312C46.402 140.254 46.3852 140.18 46.3828 140.092L46.4175 139.736C46.4554 139.498 46.5383 139.281 46.6662 139.085C46.8631 138.71 47.1928 138.316 47.6551 137.904L49.0188 136.624C49.1055 136.547 49.2362 136.455 49.4108 136.347C49.5271 136.27 49.5848 136.216 49.584 136.187C49.3898 136.118 49.1312 136.132 48.8083 136.23C48.5293 136.311 48.3905 136.374 48.3917 136.419C47.9261 136.713 47.5127 137.02 47.1515 137.34C46.6312 137.799 46.2514 138.253 46.012 138.703C45.8426 139.004 45.7324 139.303 45.6813 139.6C45.6453 139.912 45.6276 140.075 45.628 140.09C45.6336 140.297 45.6832 140.488 45.7768 140.663C45.8391 140.78 45.9007 140.867 45.9615 140.925C46.0678 141.025 46.1953 141.088 46.344 141.114L46.633 141.128L46.6588 141.261C46.7067 141.393 46.7537 141.488 46.7997 141.545L46.8692 141.655L46.9148 141.698L47.0503 141.783C47.2162 141.897 47.3885 141.973 47.5671 142.013L47.7008 142.031L47.7452 142.03L47.8123 142.051L47.9011 142.048L48.2542 141.972L48.3459 142.081L48.6169 142.251C48.826 142.319 49.0046 142.359 49.1529 142.369C49.3312 142.394 49.5014 142.397 49.6637 142.378C49.8255 142.344 49.9428 142.303 50.0156 142.257L50.0371 142.234L50.1055 142.299L50.3747 142.403C50.4646 142.445 50.5466 142.465 50.6205 142.463C50.7992 142.502 50.9768 142.505 51.1535 142.47L51.4184 142.419L51.66 142.323C51.8646 142.229 52.0171 142.121 52.1174 142L52.1605 141.955L52.1827 141.954L52.314 141.884L52.5556 141.788L52.6437 141.764L52.7528 141.694C53.0433 141.494 53.2809 141.251 53.4655 140.965L53.508 140.897L53.5074 140.875C53.6485 140.619 53.723 140.366 53.7309 140.114L53.7297 140.069C53.7437 140.039 53.716 139.567 53.6467 138.651Z" fill="#4F301A"/>
<path d="M49.5118 140.872C49.5797 140.649 49.5129 140.369 49.3114 140.034L49.0339 140.441C48.8661 140.801 48.8477 141.216 48.9789 141.686C49.2798 141.323 49.4575 141.051 49.5118 140.872Z" fill="#2D1F10"/>
<path d="M48.054 140.313C48.1367 140.089 48.0993 139.801 47.9417 139.45L47.6192 139.836C47.4066 140.183 47.3437 140.591 47.4306 141.063C47.7766 140.728 47.9845 140.478 48.054 140.313Z" fill="#2D1F10"/>
<path d="M46.6992 139.484C46.8118 139.274 46.8114 138.985 46.6978 138.618L46.3291 138.939C46.0714 139.257 45.9565 139.66 45.9846 140.147C46.3763 139.856 46.6144 139.634 46.6992 139.484Z" fill="#2D1F10"/>
<path d="M51.1309 140.828C51.2284 140.604 51.1984 140.316 51.0408 139.965C50.9245 140.042 50.8096 140.171 50.6962 140.352C50.4984 140.698 50.4355 141.106 50.5075 141.578C50.8536 141.243 51.0614 140.993 51.1309 140.828Z" fill="#2D1F10"/>
<path d="M50.5254 141.422C50.8775 140.761 50.9987 140.321 50.8891 140.102L50.6782 140.508C50.5387 140.822 50.4878 141.127 50.5254 141.422Z" fill="#563E28"/>
<path d="M48.9958 141.486C49.2731 140.798 49.3496 140.344 49.2252 140.125L49.037 140.552C48.9428 140.895 48.929 141.206 48.9958 141.486Z" fill="#563E28"/>
<path d="M47.4489 140.907C47.8009 140.246 47.9293 139.798 47.8342 139.564L47.601 139.97C47.462 140.3 47.4113 140.612 47.4489 140.907Z" fill="#563E28"/>
<path d="M46.0246 139.991C46.4666 139.372 46.6548 138.945 46.5892 138.71C46.2147 139.09 46.0265 139.517 46.0246 139.991Z" fill="#563E28"/>
<path d="M64.6708 128.431C64.2335 128.172 63.6569 128.055 62.9412 128.08C62.8326 129.92 62.4227 131.426 61.7113 132.595C61.3439 133.08 60.9451 133.531 60.5148 133.947C60.5617 134.346 60.548 134.699 60.4737 135.007C60.5059 135.299 60.6456 135.488 60.8929 135.573C61.0818 135.635 61.2903 135.632 61.5186 135.563C62.3953 135.354 63.2418 135.223 64.0581 135.17C64.5023 135.151 64.8896 135.077 65.22 134.948C65.618 134.788 65.8136 134.573 65.8069 134.301L65.5713 133.218C65.3284 130.984 65.2547 129.7 65.3501 129.367C65.3287 128.989 65.1022 128.677 64.6708 128.431Z" fill="#E9BA6B"/>
<path d="M65.3686 129.407C65.1444 128.57 64.3347 128.144 62.9394 128.129C62.18 128.238 61.6094 128.409 61.2277 128.642C60.7919 128.899 60.3833 129.346 60.002 129.982C59.9432 130.105 59.9398 130.518 59.9918 131.222C60.069 132.093 60.2194 133.019 60.4433 134.003C60.4401 134.069 60.4405 134.198 60.4444 134.39C60.4603 134.609 60.4538 134.814 60.4248 135.004C60.8438 134.819 61.1908 134.69 61.4655 134.618C61.8349 134.503 62.2065 134.412 62.5802 134.344C62.8761 134.246 63.2979 134.14 63.8458 134.028C63.9389 134.019 64.0588 134.071 64.2055 134.184C64.8341 134.181 65.4303 134.233 65.9941 134.34C65.5755 131.634 65.367 129.99 65.3686 129.407Z" fill="#BF8F49"/>
<path d="M64.1915 127.892C63.8646 127.81 63.4529 127.774 62.9563 127.783L62.9115 128.505C63.3032 128.478 63.6722 128.509 64.0185 128.598C64.2734 128.663 64.4966 128.767 64.6883 128.908C64.8799 129.05 64.9845 129.214 65.002 129.4L64.9578 129.904L65.4229 134.253L66.2102 134.39L65.9746 133.307C65.9293 132.875 65.892 132.552 65.8625 132.339L65.6825 129.899L65.7266 129.395C65.7068 128.984 65.5119 128.634 65.1422 128.345C64.8682 128.126 64.5513 127.976 64.1915 127.892Z" fill="#4F301A"/>
<path d="M60.1947 134.209L60.4059 134.358L60.8687 133.815C60.6779 131.735 60.5817 130.437 60.5801 129.921C60.565 129.411 60.8056 128.949 61.3018 128.537L61.3346 128.062L60.5569 128.55C59.8535 129.006 59.5865 130.085 59.7558 131.787C59.827 132.643 59.9733 133.451 60.1947 134.209Z" fill="#4F301A"/>
<path d="M60.3895 133.663L60.1497 134.108L60.2898 134.7C60.4028 135.103 60.5266 135.347 60.6614 135.433L60.8684 133.815L60.3895 133.663Z" fill="#4F301A"/>
<path d="M65.8173 133.885L65.4225 134.253C65.498 134.607 65.4403 134.843 65.2495 134.959C65.4371 134.909 65.6654 134.84 65.9342 134.754C66.1234 134.67 66.2153 134.549 66.2097 134.39C66.2101 134.245 66.1467 134.119 66.0195 134.014L65.8173 133.885Z" fill="#4F301A"/>
<path d="M59.4407 135.604L59.8759 136.164L62.1174 135.085C62.2386 135.023 62.7934 134.812 63.7817 134.454C64.4125 134.104 64.6362 133.622 64.4527 133.007C63.9361 132.476 62.6149 132.86 60.4891 134.161C59.9889 134.46 59.6692 134.792 59.53 135.156L59.4407 135.604Z" fill="#E9BA6B"/>
<path d="M64.5965 133.319C64.5196 133.134 64.4169 132.998 64.2886 132.913C64.0566 132.702 63.5828 132.72 62.8672 132.968C62.9598 132.987 63.2067 133.262 63.6079 133.793L63.9623 133.873C64.2232 133.887 64.4049 133.852 64.5072 133.767C64.621 133.673 64.6508 133.524 64.5965 133.319Z" fill="#BF8F49"/>
<path d="M64.7602 133.413C63.5988 133.493 62.4772 133.818 61.3956 134.387C61.1077 134.549 60.7315 134.813 60.267 135.178C59.7571 135.581 59.3856 135.851 59.1526 135.986C58.6867 138.04 59.0376 139.275 60.2051 139.688C61.3423 140.089 62.6267 139.706 64.0581 138.54C65.4553 137.402 66.0922 136.318 65.9686 135.289L64.7602 133.413Z" fill="#E9BA6B"/>
<path d="M64.9023 133.411C64.0928 133.429 63.5858 133.465 63.3814 133.52C63.9938 134.259 64.3206 135.302 64.3619 136.649C64.3593 136.9 64.7583 136.282 65.559 134.794L64.9023 133.411Z" fill="#BF8F49"/>
<path d="M60.1371 138.738L60.1966 138.775C60.2362 138.8 60.3033 138.811 60.3979 138.81C60.0983 138.425 59.9381 137.953 59.9171 137.395C59.9064 137.174 59.9406 136.81 60.0197 136.304C59.7547 137.002 59.697 137.616 59.8467 138.144C59.9159 138.413 60.0127 138.611 60.1371 138.738Z" fill="#BF8F49"/>
<path d="M62.0506 139.138C62.0325 139.331 61.9886 139.463 61.9189 139.535C62.0532 139.419 62.4414 139.251 63.0835 139.03C62.7229 138.85 62.3522 138.553 61.9714 138.139C61.7586 137.836 61.6157 137.571 61.5426 137.344C61.4582 137.126 61.4004 136.848 61.3693 136.509C61.369 136.624 61.3788 136.798 61.3989 137.031C61.4265 137.296 61.4666 137.483 61.5192 137.593C61.9126 138.207 62.0897 138.722 62.0506 139.138Z" fill="#BF8F49"/>
<path d="M63.278 137.633L63.4028 137.645C63.4879 137.632 63.5619 137.57 63.6246 137.461C63.2055 137.233 62.8035 136.655 62.4186 135.727C62.4568 136.213 62.6124 136.679 62.8853 137.124C63.0227 137.336 63.1536 137.506 63.278 137.633Z" fill="#BF8F49"/>
<path d="M66.014 135.482C66.0096 135.083 65.8001 134.633 65.3855 134.133C65.4922 135.119 65.1453 136.02 64.3447 136.836C63.6712 137.528 63.1255 137.865 62.7076 137.847C62.376 138.697 61.8915 139.107 61.2543 139.079C61.0558 139.071 60.7006 138.943 60.1889 138.696C59.9571 139.041 59.7064 139.086 59.4367 138.829L59.0893 138.34C59.25 138.975 59.6978 139.4 60.4328 139.615C60.9544 139.759 61.6137 139.663 62.4109 139.329C63.2176 139.006 63.8437 138.651 64.2893 138.263C65.4461 137.228 66.021 136.301 66.014 135.482Z" fill="#FFEDDC"/>
<path d="M60.1886 138.695L60.1374 138.738C60.2498 139.105 60.2167 139.401 60.0383 139.625C60.3996 139.576 60.7079 139.589 60.9629 139.665C60.6163 139.223 60.4243 138.922 60.387 138.761L60.1886 138.695Z" fill="#C9B19D"/>
<path d="M63.7411 138.4L64.4119 137.96C64.1376 137.976 63.9251 137.893 63.7744 137.711L63.6248 137.461C63.5679 137.508 63.4524 137.565 63.2782 137.633C63.5556 137.806 63.7099 138.061 63.7411 138.4Z" fill="#C9B19D"/>
<path d="M62.3449 138.521L62.029 138.869C62.0487 139.217 61.9931 139.474 61.8621 139.64L62.4652 139.083L63.2427 139.014L62.3449 138.521Z" fill="#C9B19D"/>
<path d="M65.4587 134.36C65.2911 135.362 64.902 136.154 64.2912 136.736C64.4231 136.896 64.5058 137.077 64.5392 137.279C64.6268 137.686 64.4614 137.996 64.0428 138.208C64.4838 138.092 64.8588 137.897 65.1679 137.621C65.4656 137.356 65.6121 137.081 65.6073 136.797C65.8551 136.17 65.9924 135.769 66.0195 135.593C66.0754 135.22 65.9762 134.881 65.7219 134.574L65.4587 134.36Z" fill="#C9B19D"/>
<path d="M63.0112 137.797C62.9079 137.556 62.6635 137.365 62.2782 137.224L62.3078 137.746C62.4049 138.164 62.6647 138.525 63.0874 138.827C63.1041 138.314 63.0787 137.971 63.0112 137.797Z" fill="#2D1F10"/>
<path d="M61.3894 138.305C61.3203 138.036 61.1054 137.811 60.7447 137.631L60.7261 138.164C60.7702 138.588 60.9855 138.975 61.3721 139.326C61.4398 138.829 61.4456 138.489 61.3894 138.305Z" fill="#2D1F10"/>
<path d="M64.342 136.694C64.2615 136.435 64.0409 136.215 63.6803 136.034C63.625 136.176 63.6188 136.353 63.6616 136.567C63.7057 136.991 63.9211 137.378 64.3077 137.729C64.3868 137.223 64.3982 136.878 64.342 136.694Z" fill="#2D1F10"/>
<path d="M64.212 137.579C64.0744 136.81 63.8913 136.358 63.6629 136.221L63.7437 136.701C63.8353 137.066 63.9914 137.359 64.212 137.579Z" fill="#563E28"/>
<path d="M62.9769 138.659C62.7448 137.892 62.5078 137.455 62.2661 137.349L62.3951 137.817C62.5397 138.177 62.7336 138.457 62.9769 138.659Z" fill="#563E28"/>
<path d="M61.2759 139.175C61.1497 138.398 60.9619 137.939 60.7127 137.801L60.7935 138.28C60.8851 138.646 61.0459 138.944 61.2759 139.175Z" fill="#563E28"/>
<path d="M65.1716 133.389L64.3629 133.455L65.6391 135.447L65.6439 135.731C65.6227 135.844 65.6008 135.91 65.578 135.929L65.5434 136.13C65.4462 136.383 65.3177 136.634 65.1581 136.881L64.634 137.603C64.5618 137.701 64.4879 137.762 64.4121 137.786L64.3156 137.809L64.2362 137.817C64.1075 137.847 63.9986 137.889 63.9096 137.944C63.777 138.015 63.685 138.101 63.6336 138.201L63.4712 138.422L63.3201 138.691L63.2518 138.747L63.0758 138.778C62.8659 138.779 62.6966 138.795 62.5679 138.825C62.3655 138.858 62.1789 138.946 62.0083 139.087L61.6358 139.367L61.4228 139.457L61.4057 139.471L61.3575 139.482C61.2327 139.47 61.1505 139.452 61.1108 139.427L60.6917 139.199L60.3856 139.107L59.7846 138.972L59.6969 138.901L59.6516 138.881L59.6404 138.833L59.6121 138.799C59.3938 138.442 59.3075 137.91 59.3531 137.201C59.404 136.66 59.5048 136.145 59.6557 135.656C59.3525 135.868 59.0579 136.045 58.7719 136.186C58.7084 136.527 58.6677 136.848 58.6498 137.15C58.5904 138.005 58.7047 138.687 58.9925 139.197L59.2044 139.453C59.3214 139.548 59.4205 139.609 59.5017 139.638C59.632 139.703 59.8116 139.746 60.0403 139.767L60.2558 139.819L60.3917 139.879C60.4333 139.883 60.5683 139.953 60.7968 140.09C61.0385 140.197 61.2606 140.233 61.4631 140.2L61.5284 140.175L61.6249 140.152C61.6665 140.156 61.7204 140.14 61.7867 140.105L62.0368 139.955C62.4197 139.676 62.6376 139.534 62.6906 139.529L63.1332 139.507C63.2713 139.489 63.3782 139.467 63.4539 139.443L63.6187 139.364L63.6528 139.336L63.7011 139.325L63.7523 139.282C63.7864 139.254 63.907 139.087 64.1141 138.781L64.2082 138.617L64.2765 138.56L64.5007 138.519L64.6796 138.457C64.8879 138.361 65.0519 138.235 65.1715 138.078C65.2986 137.954 65.4914 137.689 65.7498 137.283C65.9435 137.007 66.1033 136.702 66.2292 136.368L66.3555 135.861C66.3939 135.675 66.3964 135.481 66.363 135.279L66.3547 135.2L66.2982 135.131L65.1716 133.389Z" fill="#4F301A"/>
<path d="M59.7072 138.462C59.6683 138.206 59.4761 137.963 59.1308 137.731C59.0661 137.861 59.0391 138.037 59.0497 138.258C59.0409 138.687 59.2117 139.102 59.5622 139.502C59.6829 139 59.7312 138.653 59.7072 138.462Z" fill="#2D1F10"/>
<path d="M59.3948 139.266C59.4275 138.472 59.342 137.987 59.1383 137.81C59.0345 138.356 59.12 138.842 59.3948 139.266Z" fill="#563E28"/>
<path d="M58.7601 136.311C58.8452 136.298 59.0119 136.198 59.2602 136.012C59.5086 135.825 59.6404 135.707 59.6556 135.656C59.667 135.646 59.6652 135.609 59.6503 135.545C59.6185 135.437 59.6068 135.226 59.6154 134.912C59.0595 135.469 58.7744 135.935 58.7601 136.311Z" fill="#4F301A"/>
<path d="M64.4054 133.506L64.499 133.514L65.0541 133.803C65.1428 133.863 65.2203 133.876 65.2866 133.84C65.3643 133.795 65.326 133.645 65.1717 133.389C65.0288 133.124 64.7533 132.93 64.3451 132.808C63.9162 132.683 63.7791 132.692 63.9337 132.832C64.1072 132.995 64.2645 133.22 64.4054 133.506Z" fill="#4F301A"/>
<path d="M58.7148 110.568L58.427 108.541L57.5366 109.756C57.9593 108.439 57.8863 107.227 57.3176 106.12L56.3394 104.86C56.336 105.286 55.9222 106.151 55.0981 107.453C55.5603 105.68 55.5873 104.204 55.1793 103.025C54.8017 101.881 54.1366 101.345 53.1842 101.415C52.9627 103.276 52.3637 104.924 51.3871 106.359C50.9737 106.947 50.2985 107.691 49.3615 108.592C49.0232 108.933 48.8274 109.373 48.774 109.912C48.7311 110.874 48.6507 111.841 48.533 112.813C48.4309 114.536 48.0581 116.671 47.4149 119.218C47.0891 120.501 46.7719 121.607 46.4632 122.536C47.179 123.417 47.8468 123.921 48.4668 124.048C49.3026 124.24 50.6844 124.017 52.6123 123.38C54.3378 122.83 55.6735 121.977 56.6193 120.821C57.0991 120.24 57.403 119.715 57.531 119.243L55.7366 119.502L57.2791 118.316C58.3931 117.541 59.0743 116.535 59.3225 115.295C59.4369 114.671 59.4405 114.126 59.3332 113.659L57.4087 114.84C58.2826 113.583 58.718 112.159 58.7148 110.568Z" fill="#BF8F49"/>
<path d="M55.541 102.683C55.3259 102.144 55.0109 101.712 54.5961 101.387C54.1674 101.066 53.679 100.932 53.1307 100.985L52.786 101.013L52.7564 101.354C52.5268 103.155 51.9473 104.732 51.0178 106.087C50.671 106.605 50.2994 107.06 49.9029 107.453C49.4787 107.856 49.1932 108.131 49.0462 108.278C48.7912 108.511 48.6192 108.753 48.5302 109.005C48.4135 109.268 48.334 109.722 48.2915 110.367C48.2124 111.436 48.1434 112.233 48.0845 112.759L48.072 112.787C47.9922 114.408 47.625 116.518 46.9706 119.115C46.6978 120.174 46.4793 120.954 46.3152 121.453L45.973 122.616L46.1181 122.801C46.4884 123.253 46.8173 123.601 47.1049 123.846C47.3731 124.082 47.6802 124.256 48.0261 124.37C48.5463 124.564 49.1733 124.609 49.9071 124.506C50.6519 124.431 51.6088 124.193 52.7777 123.794L53.0685 123.69C54.7637 123.104 56.0856 122.217 57.0342 121.028C57.5084 120.434 57.8179 119.882 57.9626 119.374L58.1422 118.695L57.3572 118.808L57.5608 118.665C58.7814 117.831 59.5166 116.742 59.7666 115.398C59.8922 114.722 59.8944 114.114 59.7734 113.574L59.6373 112.936L58.6065 113.563C58.9667 112.65 59.1467 111.655 59.1466 110.58C59.139 110.046 59.0927 109.534 59.0076 109.044C58.9471 108.735 58.8948 108.525 58.8507 108.414L58.5903 107.584L58.2491 108.036C58.2389 107.457 58.1263 106.898 57.911 106.359C57.5911 105.558 57.1573 104.947 56.6097 104.527L55.8838 103.957L55.875 104.291C55.8352 103.706 55.7238 103.17 55.541 102.683ZM53.5862 101.887C53.7675 101.917 53.9293 101.985 54.0718 102.093C54.3428 102.297 54.5556 102.592 54.71 102.978C55.1569 104.097 55.1423 105.545 54.6663 107.322L53.9188 110.142L55.4797 107.696C55.988 106.883 56.3434 106.229 56.5457 105.732C56.7702 106.017 56.9483 106.324 57.08 106.654C57.422 107.589 57.4275 108.573 57.0965 109.605L56.2705 112.169L58.1845 109.597C58.2416 109.943 58.2647 110.297 58.2536 110.66C58.2487 112.113 57.8467 113.423 57.0477 114.589L55.8284 116.347L58.9541 114.433C58.9532 114.7 58.9224 114.979 58.8615 115.27C58.6245 116.379 58.01 117.275 57.0179 117.959L56.9971 117.966L54.1077 120.175L56.7993 119.787C56.6591 120.029 56.4829 120.281 56.2708 120.542C55.4387 121.547 54.261 122.321 52.7375 122.862L52.4674 122.958C51.437 123.308 50.6131 123.522 49.9956 123.599C49.547 123.664 49.1594 123.684 48.8327 123.658C48.4064 123.62 48.0453 123.488 47.7494 123.262C47.5463 123.092 47.2809 122.823 46.9533 122.457C47.2482 121.568 47.546 120.531 47.8465 119.348C48.4953 116.816 48.8736 114.655 48.9814 112.866L48.9606 112.874C49.0789 111.892 49.1661 110.923 49.2223 109.966C49.2365 109.724 49.2769 109.529 49.3436 109.379C49.4186 109.21 49.5323 109.059 49.6848 108.926L50.5747 108.066C52.2206 106.33 53.2244 104.271 53.5862 101.887Z" fill="#4F301A"/>
<path d="M73.8345 129.615C74.3858 128.67 74.6898 127.61 74.7467 126.435C74.8095 125.482 74.7596 124.463 74.5969 123.379C74.3979 122.045 74.0465 120.82 73.5426 119.702C73.0236 118.57 72.1013 117.573 70.7758 116.709C69.586 115.94 68.4942 115.511 67.5005 115.422C66.6996 115.349 65.7628 115.449 64.6901 115.723C63.8673 115.933 63.0906 116.206 62.3599 116.543C61.7606 116.81 60.7571 117.449 59.3494 118.459C57.9117 119.456 57.1227 120.093 56.9823 120.37C54.4907 125.048 54.7338 129.09 57.7116 132.496C58.704 133.621 59.8908 134.554 61.2721 135.295C62.4284 135.919 63.1156 136.164 63.3339 136.029C64.1299 135.376 64.9419 134.767 65.7698 134.201C67.3966 133.086 68.9163 132.386 70.329 132.102C71.8889 131.792 73.0574 130.963 73.8345 129.615Z" fill="#E9BA6B"/>
<path d="M69.2001 115.872C67.9733 115.372 66.4035 115.32 64.4908 115.716C64.3292 115.757 63.8398 115.987 63.0226 116.404C62.0598 116.906 61.1929 117.401 60.422 117.889C59.6511 118.377 59.0063 118.877 58.4876 119.39C58.0416 119.854 57.8924 120.08 58.04 120.069C58.1138 120.063 58.7618 120.222 59.9838 120.545C61.3383 120.843 62.4212 120.946 63.2325 120.856C65.2976 120.626 66.7474 120.347 67.5818 120.017C68.4449 119.656 69.2978 119.192 70.1405 118.624C71.2306 117.905 71.5797 117.412 71.1878 117.145C69.9525 116.334 69.2899 115.91 69.2001 115.872Z" fill="#FCCA81"/>
<path d="M69.3201 123.554C68.7285 124.65 68.2676 125.381 67.9372 125.747C67.4197 126.305 66.6367 126.89 65.5881 127.502L65.5492 133.417C65.5525 133.535 66.2779 133.281 67.7256 132.653C69.1589 132.042 70.0715 131.595 70.4633 131.314C71.0004 130.932 71.633 130.255 72.3611 129.282C73.303 128.01 74.0069 126.69 74.4727 125.322C74.932 123.168 74.0351 120.658 71.7821 117.789C72.0308 118.23 71.9708 119.013 71.6019 120.137C71.4112 120.744 71.0299 121.684 70.4579 122.957C70.3701 122.993 70.3126 122.783 70.2854 122.325L70.2661 121.615C70.0854 122.044 69.7701 122.69 69.3201 123.554Z" fill="#BF8F49"/>
<path d="M74.8722 125.292C74.8514 125.071 74.7156 124.155 74.4646 122.544C74.2494 123.879 72.8937 125.441 70.3975 127.229C68.9894 128.224 67.5846 129.071 66.1832 129.769C65.9789 129.873 65.6619 130.186 65.2323 130.707C64.7447 131.278 64.396 131.785 64.1862 132.231C64.1412 132.753 64.1344 133.317 64.1656 133.922C64.1737 134.217 64.0709 134.788 63.8571 135.634C64.2892 135.202 64.6567 134.841 64.9595 134.551C65.5221 134.02 66.119 133.664 66.7503 133.483C71.0217 132.228 73.6003 130.478 74.4862 128.233C74.8184 127.393 74.9471 126.413 74.8722 125.292Z" fill="#D6C1B0"/>
<path d="M75.204 125.267C75.1473 123.182 74.7253 121.265 73.9379 119.517C73.4173 118.326 72.4489 117.265 71.0328 116.335C69.7831 115.54 68.6241 115.086 67.5558 114.974C67.2002 114.956 66.8305 114.962 66.4466 114.99C65.0882 115.093 63.6709 115.481 62.1949 116.155C61.9168 116.265 61.4651 116.521 60.8398 116.924C60.0977 117.38 59.2334 117.971 58.2471 118.697L56.8579 119.846C56.7426 119.959 56.6569 120.069 56.6006 120.177C55.3891 122.417 54.8113 124.564 54.8673 126.62C54.9091 128.158 55.3266 129.638 56.1199 131.06C57.0665 132.678 58.4206 134.05 60.1824 135.177C60.8154 135.604 61.4384 135.935 62.0514 136.17L62.7465 136.429L63.281 136.5C63.3696 136.493 63.4502 136.465 63.5229 136.415C63.5959 136.38 63.7265 136.288 63.9149 136.141C65.2779 135.12 66.1338 134.492 66.4825 134.258C67.8783 133.353 69.1795 132.781 70.3862 132.542C71.2989 132.37 72.0884 132.021 72.7547 131.497C73.5954 130.856 74.223 129.994 74.6374 128.91C74.9429 128.176 75.1277 127.355 75.1917 126.446C75.2148 126.207 75.2189 125.814 75.204 125.267ZM74.3034 126.424C74.245 127.54 73.9612 128.531 73.4522 129.4C73.1127 129.973 72.7038 130.441 72.2254 130.803C71.6456 131.247 70.9876 131.534 70.2514 131.663C68.8239 131.948 67.2532 132.674 65.539 133.84C65.2194 134.057 64.6827 134.453 63.929 135.028L63.1898 135.595C63.1695 135.598 63.1472 135.592 63.1228 135.578C62.6766 135.493 62.1079 135.254 61.4166 134.862C59.9594 134.053 58.741 133.048 57.7615 131.847C56.4749 130.24 55.8055 128.475 55.7532 126.553C55.7029 124.705 56.2404 122.708 57.3657 120.564L57.5818 120.348C57.8272 120.122 58.1747 119.844 58.6244 119.513C59.335 118.986 60.0608 118.472 60.8018 117.971C61.4996 117.519 62.0748 117.179 62.5273 116.952C63.886 116.317 65.2005 115.959 66.4707 115.878L67.447 115.871C68.3817 115.964 69.4062 116.368 70.5206 117.084C71.7858 117.908 72.6548 118.85 73.1275 119.911C73.8673 121.544 74.2642 123.352 74.3181 125.334C74.3322 125.851 74.3273 126.215 74.3034 126.424Z" fill="#4F301A"/>
<path d="M65.8317 124.013C65.228 121.946 64.3288 120.434 63.1339 119.477L61.5359 118.654C56.8444 120.232 54.2545 121.017 53.766 121.01C53.4993 120.995 52.8404 121.247 51.7893 121.766C50.534 122.393 49.4071 123.118 48.4086 123.939C45.4414 126.355 44.5548 128.843 45.7489 131.405L47.3983 134.112C48.7088 136.06 49.8978 137.345 50.9652 137.967C52.0326 138.589 53.0712 138.971 54.0811 139.113C54.5863 139.191 54.9861 139.206 55.2807 139.156C55.5815 138.793 56.0645 138.601 56.7296 138.578C57.0692 138.55 57.3729 138.566 57.6408 138.625L58.3457 137.615L60.4819 137.01C62.0497 136.449 63.1925 135.767 63.9104 134.963C64.9295 133.811 65.6522 132.367 66.0784 130.632C66.5821 128.483 66.4999 126.276 65.8317 124.013Z" fill="#E9BA6B"/>
<path d="M63.6509 135.207C64.8062 134.166 65.6019 132.962 66.0382 131.597C66.2287 130.985 66.3486 129.955 66.398 128.506L66.4111 126.544C66.0768 126.763 65.6906 126.977 65.2524 127.184C64.3616 127.617 63.6275 127.822 63.0499 127.8C62.4424 127.783 62.0445 127.843 61.8564 127.979C61.6839 128.115 61.2873 128.219 60.6665 128.291C60.0608 128.375 59.2622 128.658 58.2706 129.14C57.2765 129.62 56.5468 129.988 56.0814 130.244C55.6191 130.501 54.8541 130.934 53.7865 131.544C52.7308 132.166 52.648 132.93 53.5382 133.836C54.4456 134.752 54.7417 135.303 54.4266 135.49C54.1218 135.69 54.0578 135.783 54.2344 135.768C54.4113 135.753 54.6287 136.132 54.8867 136.905C55.2193 137.711 55.6169 138.186 56.0795 138.331C56.6018 138.495 57.8791 138.132 59.9113 137.24C61.856 136.393 63.1025 135.715 63.6509 135.207Z" fill="#BF8F49"/>
<path d="M48.484 130.788C48.4999 130.83 48.361 130.891 48.0673 130.97C47.6123 131.106 47.1375 131.327 46.6428 131.633C46.09 131.979 45.9822 132.368 46.3195 132.801C46.4884 133.025 46.7153 133.21 47.0004 133.355L47.1181 133.603C48.2555 135.713 49.7089 137.198 51.4781 138.059C52.3774 138.487 53.1527 138.705 53.8039 138.714C54.5503 138.96 55.1425 138.971 55.5803 138.749C56.0181 138.527 56.6577 138.382 57.4992 138.315C57.5345 137.982 57.366 136.956 56.9938 135.236C56.8747 135.212 56.7917 135.152 56.7447 135.056L56.6963 134.908L55.4413 135.275C55.2495 135.293 55.0029 135.2 54.7015 134.999C54.1277 134.575 53.5961 133.796 53.1066 132.661C52.9811 132.4 52.9079 131.885 52.887 131.116L52.9022 130.044L50.4943 130.45C50.1547 130.477 49.808 130.513 49.4542 130.558C48.7763 130.657 48.4529 130.734 48.484 130.788Z" fill="#FFEDDC"/>
<path d="M65.6965 132.902C66.047 132.189 66.2386 131.073 66.2712 129.553L64.9223 131.361C64.8793 131.413 64.8849 131.345 64.9389 131.158L65.0421 130.873C64.7465 131.428 64.1609 131.928 63.2853 132.372C62.7457 132.656 62.0706 132.859 61.2602 132.981L60.198 133.093C59.2639 133.562 58.563 133.903 58.0954 134.115C57.2779 134.52 56.3033 134.862 55.1717 135.142C54.9807 135.189 54.856 135.775 54.7978 136.898C54.4128 137.973 53.3081 138.426 51.4838 138.258C52.6675 139.351 54.8935 139.325 58.1616 138.181C61.1221 137.148 63.1544 135.988 64.2587 134.703C65.0768 133.778 65.5561 133.178 65.6965 132.902Z" fill="#D6C1B0"/>
<path d="M64.4084 134.5C64.0642 134.9 63.5344 135.278 62.8192 135.636C61.9588 136.093 60.9337 136.481 59.744 136.8L57.9803 137.231L57.3172 138.145C56.9686 138.114 56.5992 138.132 56.209 138.198C55.9586 138.24 55.7238 138.309 55.5045 138.405C55.3217 138.491 55.1472 138.602 54.981 138.739C54.7113 138.772 54.3779 138.754 53.9808 138.684C53.0449 138.545 52.0734 138.181 51.0661 137.594C50.5099 137.271 49.9111 136.741 49.2696 136.003C48.5676 135.215 47.7993 134.163 46.9645 132.849L46.0093 131.183L45.9872 131.186C45.7342 130.599 45.5844 129.985 45.5377 129.346C45.5243 128.309 45.8816 127.306 46.6098 126.336C47.5099 125.16 48.8781 124.061 50.7144 123.039C51.1805 122.767 51.8157 122.46 52.6201 122.116L53.2565 121.853L53.4768 121.794L53.5652 121.779C55.1705 121.509 56.665 120.975 58.0489 120.177C58.7481 119.777 59.2926 119.396 59.6822 119.033L59.1327 118.413C58.7865 118.739 58.2928 119.082 57.6516 119.442C56.384 120.161 55.0138 120.644 53.541 120.892L53.2545 120.962C52.7259 121.111 52.0749 121.384 51.3016 121.781C49.5643 122.638 48.1332 123.6 47.0082 124.665C46.2584 125.386 45.6938 126.112 45.3143 126.844C44.85 127.724 44.6299 128.608 44.6541 129.495C44.6738 130.22 44.8563 130.946 45.2016 131.675L45.2022 131.697C45.2169 131.695 45.3723 131.966 45.6682 132.51C46.0716 133.199 46.4738 133.845 46.8748 134.445C47.5518 135.401 48.1193 136.137 48.5772 136.654C49.2792 137.442 49.9385 138.021 50.5552 138.392C51.6676 139.037 52.7512 139.441 53.8061 139.605C54.5044 139.71 54.9558 139.716 55.1603 139.622L55.3371 139.592L55.4666 139.459C55.5231 139.36 55.6244 139.276 55.7704 139.207L56.2331 139.085C56.4541 139.048 56.7126 139.034 57.0088 139.043L57.2757 139.065L57.3425 139.076L57.3431 139.098L57.6548 139.135L58.4236 138.025C58.564 138.002 58.7627 137.961 59.0194 137.903C59.6658 137.734 60.2897 137.555 60.8911 137.365C61.7119 137.078 62.4579 136.767 63.1294 136.431C63.9174 136.031 64.5486 135.575 65.0229 135.065L64.4084 134.5Z" fill="#4F301A"/>
<path d="M52.9995 132.891C54.1387 131.737 54.8193 130.258 55.0412 128.453C55.2631 126.648 54.9598 125.042 54.1313 123.637C53.3028 122.246 52.208 121.462 50.8469 121.285C49.4562 121.122 48.1986 121.617 47.0742 122.771C45.9498 123.94 45.2767 125.427 45.0547 127.232C44.8328 129.037 45.1287 130.635 45.9424 132.026C46.7561 133.431 47.8583 134.215 49.249 134.378C50.6102 134.555 51.8603 134.06 52.9995 132.891Z" fill="#6D3B00" fill-opacity="0.501961"/>
<path d="M53.5911 144.911C54.0976 145.153 54.8642 145.52 55.8909 146.012L56.6684 144.49C57.3666 143.507 57.7678 142.537 57.8719 141.58C58.0801 139.666 56.7145 138.756 53.7752 138.851C52.6488 140.791 51.8456 142.407 51.3657 143.697C51.9636 144.062 52.7053 144.466 53.5911 144.911Z" fill="#E9BA6B"/>
<path d="M54.35 145.274L55.9304 146.03L57.0128 143.988C58.3548 140.914 58.6338 139.566 57.8498 139.944C57.4608 140.126 56.9331 140.619 56.2667 141.421C55.2482 143.41 54.6093 144.694 54.35 145.274Z" fill="#BF8F49"/>
<path d="M52.7464 140.988L51.4981 143.781C51.5386 143.799 51.8953 143.942 52.5684 144.211C52.9986 144.371 53.1671 144.519 53.0738 144.655C53.8125 143.691 54.4379 142.4 54.95 140.784C54.7721 140.494 54.5445 140.279 54.2673 140.139C53.7202 139.878 53.2133 140.161 52.7464 140.988Z" fill="#FCCA81"/>
<path d="M55.5664 145.867L56.2453 146.195L56.8535 144.888C57.925 142.925 58.6189 141.536 58.9352 140.721C59.2659 139.911 59.0903 139.597 58.4084 139.781C57.5796 141.676 57.0564 142.882 56.8387 143.401C56.6411 143.879 56.4535 144.281 56.2757 144.606C56.1296 144.897 55.8931 145.317 55.5664 145.867Z" fill="#4F301A"/>
<path d="M53.7609 138.772L52.481 140.603C52.2309 141.09 51.8639 141.857 51.38 142.903L51.0793 143.521L51.7311 143.91L52.0387 143.222C52.5524 142.254 52.8983 141.534 53.0763 141.063C53.2677 140.599 53.4516 140.187 53.6281 139.829C53.7989 139.485 53.931 139.098 54.0245 138.671L53.7609 138.772Z" fill="#4F301A"/>
<path d="M56.0751 140.289C56.6362 140.319 57.4853 140.356 58.6226 140.4L58.7723 138.157C58.9648 136.513 58.8706 135.084 58.4896 133.87C57.7423 131.442 55.9493 131.316 53.1104 133.493C53.3657 136.07 53.5134 138.254 53.5534 140.046C54.2451 140.164 55.0857 140.245 56.0751 140.289Z" fill="#E9BA6B"/>
<path d="M58.2713 134.581C58.3098 133.708 58.2923 132.989 58.2189 132.427C57.8573 132.131 57.3742 131.953 56.7696 131.894C55.5452 131.79 54.3109 132.324 53.0667 133.494C53.0138 134.352 53.0012 135.359 53.029 136.514L53.1901 137.114C53.3353 136.67 53.5246 136.233 53.758 135.803C54.2249 134.945 54.6943 134.537 55.1663 134.582C55.6678 134.626 56.1238 135.255 56.5344 136.469C56.8499 137.373 57.0881 138.402 57.249 139.557C57.8387 137.987 58.1794 136.328 58.2713 134.581Z" fill="#BF8F49"/>
<path d="M56.9167 140.334C58.054 140.378 58.6374 140.4 58.667 140.4L59.1299 133.16C59.0739 133.041 58.9812 132.915 58.8518 132.782C58.5629 132.53 58.2053 132.36 57.7789 132.271C57.5252 134.537 57.2566 136.802 56.9733 139.068L56.9167 140.334Z" fill="#BF8F49"/>
<path d="M53.681 137.802C53.7366 137.935 53.7456 138.691 53.7082 140.068C54.312 140.156 54.909 140.223 55.4992 140.267C55.3904 138.831 55.1892 137.528 54.8957 136.358C54.734 135.781 54.5906 135.344 54.4656 135.048C53.9963 135.996 53.7347 136.914 53.681 137.802Z" fill="#FCCA81"/>
<path d="M58.2689 140.378C58.4463 140.378 58.6973 140.393 59.0217 140.422L59.0952 138.535C59.1309 137.765 59.1542 137.18 59.1651 136.78C59.1992 136.069 59.2076 135.484 59.1905 135.025L59.1543 133.093C59.0851 133.463 58.8512 135.27 58.4526 138.512L58.2689 140.378Z" fill="#4F301A"/>
<path d="M53.2447 139.979L53.973 140.112L54.0002 139.113C54.0262 138.698 53.9157 137.869 53.6685 136.625C53.3839 135.13 53.229 134.301 53.2038 134.138L52.9249 135.426C52.9004 135.781 52.9577 136.396 53.0966 137.269C53.2359 138.128 53.2933 138.735 53.2689 139.091L53.2447 139.979Z" fill="#4F301A"/>
<path d="M55.9056 146.629C54.5447 144.75 53.0431 143.692 51.4009 143.455L51.3565 143.655C50.6316 144.069 50.0176 144.535 49.5145 145.052C48.6268 145.999 48.4122 146.865 48.8708 147.649C49.4477 148.625 50.6016 149.114 52.3326 149.114C54.0191 149.129 55.1214 148.729 55.6392 147.916C55.7872 147.709 55.8686 147.479 55.8834 147.228L55.9056 146.629Z" fill="#E9BA6B"/>
<path d="M55.817 147.539L55.9947 145.719C55.6692 145.393 55.1514 145.149 54.4413 144.986C54.2785 145.918 54.0269 146.777 53.6866 147.561C53.509 147.945 53.3463 148.241 53.1983 148.448C52.932 148.803 52.9911 149.025 53.3758 149.114C53.5681 149.158 53.7826 149.166 54.0193 149.136L54.8627 148.67C55.3213 148.448 55.6394 148.071 55.817 147.539Z" fill="#BF8F49"/>
<path d="M49.3812 146.961L49.5366 147.161C49.5514 146.702 49.7142 146.266 50.0249 145.852C50.1432 145.704 50.3874 145.467 50.7573 145.141C50.1507 145.482 49.7438 145.889 49.5366 146.362C49.4182 146.599 49.3665 146.798 49.3812 146.961Z" fill="#BF8F49"/>
<path d="M50.5354 148.381C50.4282 148.501 50.332 148.567 50.2469 148.581C50.3563 148.591 50.556 148.65 50.846 148.759C51.0236 148.818 51.1863 148.877 51.3343 148.936C51.1863 148.581 51.0976 148.145 51.068 147.627C51.1273 147.035 51.3122 146.525 51.623 146.096C51.549 146.155 51.4454 146.281 51.3122 146.473C51.1791 146.68 51.0977 146.843 51.0681 146.961C50.9941 147.627 50.8165 148.1 50.5354 148.381Z" fill="#BF8F49"/>
<path d="M52.3101 148.049L52.3989 148.115C52.4729 148.16 52.5616 148.16 52.6652 148.115C52.5469 147.834 52.5321 147.457 52.6209 146.983C52.7393 146.525 52.8059 146.244 52.8207 146.14C52.4212 146.732 52.251 147.368 52.3101 148.049Z" fill="#BF8F49"/>
<path d="M55.551 148.16C55.8026 147.849 55.9283 147.39 55.9284 146.784C55.4253 147.553 54.6338 147.997 53.5538 148.115C52.6513 148.204 52.0595 148.115 51.7784 147.849C51.0239 148.263 50.4321 148.27 50.0031 147.871C49.8848 147.782 49.6998 147.479 49.4484 146.961C49.0637 147.079 48.8566 146.961 48.827 146.606L48.8715 146.051C48.4571 146.894 48.6124 147.627 49.3373 148.248C50.0622 148.884 51.1644 149.195 52.6438 149.18C54.1085 149.121 55.0776 148.781 55.551 148.16Z" fill="#FFEDDC"/>
<path d="M49.4261 146.917L49.3151 146.917C49.2263 147.272 49.0562 147.479 48.8046 147.538C49.0857 147.715 49.3372 147.812 49.5591 147.826C49.5 147.501 49.5 147.264 49.5592 147.116L49.4261 146.917Z" fill="#C9B19D"/>
<path d="M52.1992 148.87L52.9315 148.936C52.7244 148.788 52.6208 148.611 52.6208 148.404L52.6652 148.115L52.3102 148.049C52.4137 148.33 52.3767 148.603 52.1992 148.87Z" fill="#C9B19D"/>
<path d="M53.3322 144.165C52.77 143.81 52.1857 143.581 51.5791 143.477C51.5939 143.862 51.8306 144.18 52.2892 144.431C52.7626 144.668 53.1103 144.579 53.3322 144.165Z" fill="#FCCA81"/>
<path d="M53.6201 144.254C53.3982 144.032 53.1615 143.847 52.91 143.699C52.6585 143.536 52.5106 143.44 52.4662 143.411C52.3183 143.337 52.1703 143.314 52.0224 143.344C51.3714 143.462 50.7574 143.802 50.1804 144.365C49.3222 145.163 49.0337 145.57 49.3148 145.585C49.5811 145.615 49.9732 145.43 50.491 145.03C50.6686 144.897 50.8609 144.786 51.068 144.698C50.8313 144.875 50.6242 145.06 50.4466 145.252C50.0915 145.637 50.0545 145.881 50.3356 145.985C50.6167 146.088 50.8682 146.036 51.0901 145.829C51.2233 145.711 51.4156 145.489 51.6672 145.164L52.0888 144.742C51.9409 144.979 51.8077 145.223 51.6893 145.474C51.4526 145.963 51.4378 146.236 51.6449 146.295C51.9852 146.369 52.3476 146.162 52.7323 145.674C52.8359 145.556 52.9469 145.356 53.0653 145.075L52.9321 145.674C52.8581 146.088 52.895 146.325 53.043 146.384C53.2205 146.458 53.4202 146.407 53.6422 146.229C53.8493 146.051 53.9973 145.859 54.086 145.652C54.1748 145.445 54.234 145.171 54.2636 144.831C53.9826 144.565 53.7681 144.372 53.6201 144.254Z" fill="#FCCA81"/>
<path d="M51.1126 148.115L50.6688 148.182C50.4764 148.448 50.2841 148.603 50.0918 148.648L50.8685 148.603L51.4676 149.025L51.1126 148.115Z" fill="#C9B19D"/>
<path d="M55.8388 146.984C55.1286 147.59 54.3741 147.93 53.5752 148.004C53.5751 148.197 53.5308 148.374 53.442 148.537C53.2644 148.877 52.9611 149.003 52.5321 148.914C52.9167 149.092 53.3014 149.173 53.686 149.158C54.0559 149.144 54.3222 149.033 54.485 148.825C55.0472 148.515 55.3875 148.308 55.5058 148.204C55.7722 147.967 55.9053 147.664 55.9054 147.294L55.8388 146.984Z" fill="#C9B19D"/>
<path d="M56.2165 145.874C56.113 145.711 55.9725 145.571 55.7949 145.452C55.6173 146.577 55.5285 147.183 55.5285 147.272C55.4989 147.464 55.4397 147.627 55.3509 147.76L55.3065 147.849C55.1734 148.041 55.0328 148.175 54.8849 148.248L54.8183 148.271L54.7295 148.315L54.3079 148.47L54.1525 148.581L54.0637 148.67L53.8418 148.825L53.6865 148.87L53.5311 148.892L53.2426 148.892L53.0873 148.848L53.0429 148.825L52.9763 148.803L52.9541 148.781L52.8654 148.67L52.821 148.648L52.7544 148.603L52.6657 148.559L52.6213 148.559L52.5769 148.537L52.3994 148.537C52.3106 148.566 52.2588 148.596 52.244 148.626L52.0887 148.737L52.0665 148.759L52.0221 148.759L51.7114 148.736L51.4229 148.67L51.3341 148.625L51.3341 148.603L51.1788 148.448L51.0901 148.381L50.9347 148.315L50.8681 148.315L50.8238 148.293L50.735 148.293C50.6758 148.293 50.5797 148.315 50.4465 148.359C50.4169 148.359 50.3429 148.352 50.2246 148.337L49.9805 148.248L49.9139 148.182L49.8917 148.093C49.8769 148.004 49.8474 147.923 49.803 147.849L49.692 147.649L49.6255 147.582L49.5145 147.516C49.3814 147.442 49.2112 147.405 49.0041 147.405L48.9597 147.338C48.9301 147.279 48.9154 147.205 48.9154 147.116L48.9598 146.761C49.0042 146.524 49.093 146.31 49.2261 146.118C49.4333 145.748 49.7736 145.363 50.247 144.964L51.6452 143.721C51.734 143.647 51.8671 143.558 52.0447 143.455C52.163 143.381 52.2222 143.329 52.2222 143.3C52.0299 143.226 51.771 143.233 51.4455 143.322C51.1644 143.396 51.0239 143.455 51.0239 143.499C50.5504 143.78 50.1287 144.076 49.7589 144.387C49.2262 144.831 48.8341 145.274 48.5826 145.718C48.405 146.014 48.2867 146.31 48.2275 146.606C48.183 146.916 48.1608 147.079 48.1608 147.094C48.1608 147.301 48.2052 147.493 48.2939 147.671C48.3531 147.789 48.4123 147.878 48.4715 147.937C48.575 148.041 48.7008 148.107 48.8487 148.137L49.1372 148.159L49.1594 148.292C49.2038 148.426 49.2481 148.522 49.2925 148.581L49.3591 148.692L49.4035 148.736L49.5366 148.825C49.6993 148.943 49.8695 149.025 50.047 149.069L50.1801 149.091L50.2245 149.091L50.2911 149.114L50.3799 149.114L50.7349 149.047L50.8237 149.158L51.09 149.336C51.2971 149.41 51.4746 149.454 51.6226 149.469C51.8001 149.498 51.9702 149.506 52.133 149.491C52.2957 149.461 52.4141 149.424 52.4881 149.38L52.5103 149.358L52.5768 149.424L52.8431 149.535C52.9319 149.58 53.0133 149.602 53.0872 149.602C53.2648 149.646 53.4423 149.654 53.6198 149.624L53.8861 149.58L54.1302 149.491C54.3374 149.402 54.4927 149.299 54.5963 149.181L54.6407 149.136L54.6629 149.136L54.796 149.07L55.0401 148.981L55.1289 148.959L55.2399 148.892C55.5358 148.7 55.7799 148.463 55.9723 148.182L56.0167 148.115L56.0167 148.093C56.1646 147.842 56.246 147.59 56.2608 147.339L56.2608 147.294C56.2756 147.265 56.2609 146.791 56.2165 145.874Z" fill="#4F301A"/>
<path d="M52.0222 147.982C52.0962 147.76 52.0371 147.479 51.8448 147.139L51.5562 147.538C51.3787 147.893 51.3491 148.307 51.4674 148.781C51.7781 148.426 51.963 148.16 52.0222 147.982Z" fill="#2D1F10"/>
<path d="M50.5794 147.383C50.6682 147.161 50.6387 146.872 50.4907 146.517L50.1578 146.894C49.9359 147.235 49.8619 147.641 49.9358 148.115C50.2909 147.789 50.5055 147.545 50.5794 147.383Z" fill="#2D1F10"/>
<path d="M49.2481 146.517C49.3665 146.31 49.3739 146.022 49.2703 145.652L48.8931 145.962C48.6267 146.273 48.5009 146.672 48.5157 147.161C48.9152 146.88 49.1593 146.665 49.2481 146.517Z" fill="#2D1F10"/>
<path d="M53.6427 147.982C53.7463 147.76 53.7241 147.472 53.5762 147.117C53.4578 147.19 53.3395 147.316 53.2211 147.494C53.014 147.834 52.94 148.241 52.9991 148.714C53.3542 148.389 53.5687 148.145 53.6427 147.982Z" fill="#2D1F10"/>
<path d="M53.021 148.559C53.3909 147.908 53.5241 147.472 53.4205 147.25L53.1986 147.649C53.0506 147.96 52.9914 148.263 53.021 148.559Z" fill="#563E28"/>
<path d="M51.4892 148.581C51.7851 147.9 51.874 147.449 51.7556 147.227L51.5559 147.649C51.4523 147.989 51.4301 148.3 51.4892 148.581Z" fill="#563E28"/>
<path d="M49.9585 147.96C50.3284 147.309 50.469 146.865 50.3802 146.628L50.1361 147.028C49.9881 147.353 49.9289 147.664 49.9585 147.96Z" fill="#563E28"/>
<path d="M48.5605 147.005C49.0191 146.399 49.2189 145.977 49.1597 145.741C48.775 146.11 48.5753 146.532 48.5605 147.005Z" fill="#563E28"/>
<path d="M75.6122 129.408C75.1749 129.149 74.5983 129.031 73.8826 129.056C73.774 130.897 73.3641 132.402 72.6527 133.572C72.2853 134.057 71.8865 134.507 71.4562 134.923C71.5032 135.323 71.4894 135.676 71.4151 135.983C71.4473 136.276 71.587 136.465 71.8343 136.549C72.0232 136.611 72.2317 136.608 72.46 136.54C73.3367 136.331 74.1832 136.199 74.9995 136.146C75.4437 136.128 75.831 136.054 76.1614 135.924C76.5594 135.765 76.755 135.549 76.7483 135.278L76.5127 134.195C76.2698 131.96 76.1961 130.676 76.2915 130.344C76.2701 129.965 76.0437 129.654 75.6122 129.408Z" fill="#E9BA6B"/>
<path d="M76.31 130.384C76.0858 129.546 75.2761 129.12 73.8808 129.106C73.1214 129.215 72.5508 129.386 72.1691 129.619C71.7333 129.876 71.3248 130.322 70.9434 130.959C70.8846 131.082 70.8812 131.495 70.9333 132.199C71.0104 133.069 71.1608 133.996 71.3847 134.979C71.3815 135.045 71.3819 135.174 71.3859 135.366C71.4018 135.585 71.3952 135.79 71.3662 135.981C71.7852 135.796 72.1322 135.667 72.4069 135.594C72.7763 135.48 73.1479 135.388 73.5216 135.321C73.8175 135.222 74.2393 135.117 74.7873 135.004C74.8803 134.996 75.0002 135.048 75.1469 135.161C75.7755 135.158 76.3717 135.21 76.9356 135.316C76.5169 132.61 76.3084 130.966 76.31 130.384Z" fill="#BF8F49"/>
<path d="M75.1329 128.869C74.806 128.787 74.3943 128.75 73.8977 128.759L73.8529 129.482C74.2446 129.454 74.6136 129.485 74.9599 129.575C75.2148 129.64 75.438 129.743 75.6297 129.885C75.8213 130.027 75.9259 130.19 75.9434 130.376L75.8992 130.88L76.3643 135.229L77.1516 135.367L76.916 134.284C76.8707 133.851 76.8334 133.529 76.8039 133.316L76.6239 130.876L76.668 130.372C76.6482 129.961 76.4533 129.61 76.0836 129.321C75.8096 129.103 75.4927 128.952 75.1329 128.869Z" fill="#4F301A"/>
<path d="M71.1361 135.186L71.3473 135.335L71.8101 134.792C71.6193 132.712 71.5231 131.414 71.5215 130.898C71.5064 130.387 71.747 129.926 72.2432 129.513L72.276 129.039L71.4983 129.527C70.7949 129.983 70.5279 131.061 70.6972 132.763C70.7684 133.62 70.9147 134.428 71.1361 135.186Z" fill="#4F301A"/>
<path d="M71.3309 134.64L71.0911 135.084L71.2313 135.677C71.3442 136.079 71.468 136.323 71.6028 136.409L71.8098 134.792L71.3309 134.64Z" fill="#4F301A"/>
<path d="M76.7587 134.861L76.3639 135.229C76.4394 135.584 76.3817 135.819 76.1909 135.936C76.3786 135.885 76.6068 135.817 76.8756 135.73C77.0648 135.647 77.1567 135.526 77.1511 135.367C77.1515 135.221 77.0881 135.096 76.9609 134.99L76.7587 134.861Z" fill="#4F301A"/>
<path d="M74.5289 131.28L74.2366 131.238C74.4566 128.845 74.5759 127.18 74.5944 126.245C74.6009 124.56 74.4211 123.159 74.055 122.041C73.4718 122.962 72.6526 123.901 71.5975 124.858C71.2721 125.264 70.8962 125.689 70.4698 126.131C69.5243 127.165 68.5501 127.917 67.5474 128.389C67.2557 130.618 67.3376 132.197 67.7932 133.125C68.3024 133.978 68.8374 134.581 69.398 134.935C69.5393 135.038 69.9539 135.226 70.642 135.5C70.8147 135.43 71.0096 135.359 71.2266 135.286C71.7848 135.017 72.363 134.521 72.961 133.797C73.5727 133.057 74.0954 132.218 74.5289 131.28Z" fill="#E9BA6B"/>
<path d="M67.5347 128.22C67.2724 130.447 67.272 131.721 67.5334 132.041C67.8185 131.298 68.1858 130.463 68.6352 129.538C69.5192 127.689 70.3492 126.303 71.1252 125.381C70.5487 125.527 69.9104 125.816 69.2103 126.247C68.5088 126.694 67.9502 127.352 67.5347 128.22Z" fill="#BF8F49"/>
<path d="M74.5304 131.301L74.1669 131.201L74.2642 129.835C74.6552 127.938 74.7369 126.071 74.5095 124.234C74.3952 123.309 74.2437 122.578 74.0548 122.04C73.7846 121.972 73.1249 122.765 72.076 124.418C72.5577 124.905 72.8747 125.766 73.027 126.999C73.1857 128.317 73.1132 129.816 72.8096 131.494C72.1445 132.903 71.1071 133.603 69.6975 133.597C69.0001 133.592 68.3663 133.449 67.7962 133.167C68.4994 134.232 69.4259 135.011 70.5755 135.504C70.9526 135.391 71.1696 135.318 71.2265 135.285C71.7847 135.017 72.3628 134.52 72.9609 133.796C73.5589 133.072 74.0821 132.24 74.5304 131.301Z" fill="#BF8F49"/>
<path d="M67.6227 131.164L67.47 129.138C67.3974 129.355 67.3191 129.694 67.235 130.153L67.136 131.2C67.0932 132.01 67.1984 132.717 67.4515 133.32L67.4768 133.361C67.8375 134.013 68.256 134.547 68.7324 134.964C68.9706 135.173 69.2741 135.362 69.6429 135.532L70.0791 135.712C70.2213 135.63 70.5531 135.506 71.0745 135.339L70.8912 135.268C70.4634 135.103 70.1573 134.977 69.9729 134.892C69.741 134.768 69.506 134.602 69.2678 134.393C68.9811 134.132 68.6048 133.665 68.1388 132.993C67.9131 132.557 67.7411 131.947 67.6227 131.164Z" fill="#4F301A"/>
<path d="M73.8601 131.564L74.3563 131.654L74.6642 131.015L74.6183 130.997C74.8572 128.262 74.9735 126.068 74.9674 124.412L74.3669 124.415C74.339 125.422 74.2764 126.559 74.179 127.825L73.8601 131.564Z" fill="#4F301A"/>
<path d="M69.6112 135.11C69.7283 135.285 69.8843 135.486 70.0793 135.712L70.8584 135.717C71.4588 135.615 71.9143 135.262 72.2248 134.659C71.4274 134.903 70.9334 135.039 70.7427 135.067C70.5067 135.085 70.2196 135.015 69.8813 134.856C69.4662 134.661 69.3761 134.746 69.6112 135.11Z" fill="#4F301A"/>
<path d="M70.5909 134.95L70.9054 135.586L73.318 134.976C73.4492 134.939 74.0349 134.844 75.0751 134.691C75.7633 134.474 76.079 134.046 76.0222 133.406C75.6221 132.783 74.2503 132.895 71.9069 133.745C71.3569 133.938 70.9772 134.199 70.768 134.529L70.5909 134.95Z" fill="#E9BA6B"/>
<path d="M76.1002 133.741C76.0619 133.544 75.9884 133.39 75.8797 133.281C75.6944 133.028 75.2264 132.952 74.4756 133.051C74.5625 133.088 74.7495 133.407 75.0366 134.008L75.3678 134.157C75.6208 134.223 75.8059 134.225 75.9232 134.162C76.0535 134.093 76.1125 133.952 76.1002 133.741Z" fill="#BF8F49"/>
<path d="M76.2431 133.866C75.0889 133.712 73.9248 133.806 72.7509 134.148C72.4363 134.249 72.0149 134.432 71.4867 134.698C70.9063 134.991 70.4884 135.181 70.2329 135.267C69.3657 137.187 69.4629 138.467 70.5243 139.106C71.5589 139.726 72.8941 139.607 74.5301 138.75C76.127 137.914 76.9678 136.98 77.0524 135.946L76.2431 133.866Z" fill="#E9BA6B"/>
<path d="M76.3821 133.892C75.5851 133.748 75.081 133.683 74.8698 133.695C75.3222 134.542 75.434 135.63 75.2053 136.958C75.1524 137.204 75.667 136.678 76.7492 135.379L76.3821 133.892Z" fill="#BF8F49"/>
<path d="M70.6474 138.161L70.6982 138.209C70.7322 138.241 70.7956 138.266 70.8886 138.283C70.672 137.846 70.6091 137.352 70.7001 136.801C70.7339 136.582 70.8402 136.232 71.0189 135.752C70.6195 136.384 70.4403 136.973 70.4815 137.521C70.4955 137.798 70.5508 138.011 70.6474 138.161Z" fill="#BF8F49"/>
<path d="M72.4432 138.935C72.3869 139.12 72.3175 139.241 72.2348 139.298C72.3896 139.211 72.8036 139.124 73.477 139.036C73.1597 138.787 72.8557 138.422 72.5652 137.941C72.4173 137.601 72.3302 137.312 72.304 137.075C72.2648 136.845 72.2638 136.561 72.301 136.223C72.2776 136.336 72.2525 136.508 72.2256 136.74C72.1997 137.005 72.2015 137.197 72.2312 137.315C72.494 137.995 72.5647 138.535 72.4432 138.935Z" fill="#BF8F49"/>
<path d="M73.9467 137.705L74.0667 137.742C74.1527 137.746 74.2374 137.701 74.3208 137.606C73.9556 137.298 73.6772 136.652 73.4855 135.665C73.4258 136.149 73.4851 136.637 73.6635 137.128C73.7558 137.363 73.8502 137.556 73.9467 137.705Z" fill="#BF8F49"/>
<path d="M77.0578 136.145C77.1332 135.753 77.0178 135.27 76.7116 134.697C76.6191 135.684 76.099 136.498 75.1512 137.138C74.3528 137.681 73.7507 137.902 73.3447 137.801C72.8498 138.568 72.2929 138.873 71.674 138.718C71.4811 138.67 71.1585 138.474 70.7064 138.129C70.4102 138.422 70.1556 138.415 69.9425 138.11L69.6998 137.562C69.7305 138.215 70.0845 138.721 70.7617 139.08C71.2441 139.325 71.9094 139.363 72.7576 139.195C73.6126 139.04 74.2973 138.816 74.8117 138.525C76.1522 137.742 76.9009 136.949 77.0578 136.145Z" fill="#FFEDDC"/>
<path d="M70.7066 138.129L70.648 138.161C70.6847 138.543 70.5931 138.826 70.3734 139.011C70.7375 139.034 71.0369 139.109 71.2717 139.234C71.0202 138.732 70.8923 138.399 70.8879 138.234L70.7066 138.129Z" fill="#C9B19D"/>
<path d="M74.2467 138.55L74.9922 138.252C74.7201 138.213 74.5284 138.09 74.4171 137.881L74.3205 137.606C74.2553 137.641 74.1306 137.674 73.9464 137.705C74.1838 137.93 74.2839 138.212 74.2467 138.55Z" fill="#C9B19D"/>
<path d="M72.8544 138.389L72.4752 138.667C72.4249 139.012 72.319 139.253 72.1575 139.389L72.8599 138.964L73.6356 139.052L72.8544 138.389Z" fill="#C9B19D"/>
<path d="M76.7371 134.934C76.3726 135.882 75.8329 136.581 75.1179 137.029C75.2153 137.212 75.2602 137.406 75.2524 137.611C75.257 138.027 75.0329 138.297 74.5802 138.422C75.0356 138.397 75.4423 138.28 75.8002 138.072C76.1451 137.871 76.3436 137.631 76.3956 137.352C76.7638 136.787 76.9787 136.421 77.0403 136.254C77.1696 135.9 77.1403 135.548 76.9524 135.196L76.7371 134.934Z" fill="#C9B19D"/>
<path d="M73.6518 137.812C73.5987 137.556 73.3973 137.32 73.0479 137.105L72.9725 137.622C72.9841 138.052 73.1668 138.456 73.5207 138.837C73.6395 138.338 73.6832 137.996 73.6518 137.812Z" fill="#2D1F10"/>
<path d="M71.9613 137.987C71.9472 137.709 71.7815 137.446 71.4642 137.197L71.3393 137.716C71.2978 138.14 71.4314 138.563 71.7402 138.984C71.9059 138.51 71.9796 138.178 71.9613 137.987Z" fill="#2D1F10"/>
<path d="M75.1771 136.998C75.15 136.728 74.9778 136.468 74.6605 136.219C74.578 136.347 74.5363 136.52 74.5356 136.738C74.4941 137.162 74.6277 137.585 74.9365 138.006C75.1152 137.525 75.1954 137.189 75.1771 136.998Z" fill="#2D1F10"/>
<path d="M74.8727 137.839C74.8914 137.059 74.8025 136.579 74.606 136.399L74.5893 136.885C74.606 137.261 74.7005 137.579 74.8727 137.839Z" fill="#563E28"/>
<path d="M73.4465 138.651C73.3722 137.853 73.2272 137.377 73.0116 137.225L73.0445 137.71C73.1142 138.091 73.2482 138.405 73.4465 138.651Z" fill="#563E28"/>
<path d="M71.6761 138.817C71.7078 138.03 71.6154 137.543 71.3989 137.357L71.3823 137.844C71.399 138.22 71.4969 138.544 71.6761 138.817Z" fill="#563E28"/>
<path d="M76.6511 133.925L75.8454 133.827L76.6979 136.035L76.6459 136.314C76.6025 136.421 76.5677 136.481 76.5417 136.495L76.4675 136.686C76.3216 136.914 76.1457 137.134 75.9398 137.344L75.2818 137.947C75.1915 138.029 75.1068 138.074 75.0277 138.083L74.9286 138.085L74.8491 138.078C74.717 138.081 74.6019 138.101 74.5037 138.136C74.3595 138.18 74.2522 138.246 74.1818 138.333L73.9786 138.517L73.7766 138.751L73.6984 138.793L73.5198 138.787C73.3138 138.747 73.1448 138.728 73.0127 138.732C72.8076 138.724 72.6073 138.772 72.4118 138.877L71.9909 139.076L71.7641 139.122L71.7445 139.133L71.695 139.134C71.575 139.097 71.4981 139.063 71.4642 139.031L71.099 138.724L70.8174 138.572L70.2554 138.32L70.1836 138.233L70.1432 138.204L70.1419 138.154L70.121 138.115C69.9783 137.723 70.0001 137.183 70.1866 136.497C70.3445 135.978 70.5463 135.493 70.792 135.044C70.4523 135.192 70.1282 135.306 69.8197 135.387C69.6895 135.708 69.5854 136.015 69.5073 136.307C69.2783 137.133 69.2539 137.825 69.4341 138.382L69.5907 138.675C69.6864 138.791 69.7712 138.872 69.845 138.916C69.9598 139.005 70.1271 139.083 70.3471 139.15L70.5479 139.244L70.6691 139.33C70.7091 139.342 70.8274 139.438 71.0239 139.618C71.2395 139.771 71.4498 139.851 71.6549 139.859L71.724 139.847L71.8231 139.844C71.8631 139.856 71.9191 139.852 71.9913 139.83L72.2663 139.733C72.6972 139.537 72.9392 139.441 72.9922 139.446L73.4303 139.514C73.5693 139.523 73.6784 139.523 73.7575 139.515L73.9347 139.47L73.9738 139.449L74.0234 139.448L74.082 139.417C74.1211 139.396 74.2727 139.256 74.5367 138.998L74.6618 138.856L74.74 138.814L74.9681 138.818L75.1558 138.793C75.3792 138.741 75.5651 138.65 75.7136 138.52C75.8631 138.424 76.105 138.202 76.4394 137.856C76.6844 137.625 76.9019 137.358 77.0921 137.056L77.3173 136.584C77.392 136.41 77.4332 136.22 77.4409 136.015L77.4487 135.936L77.4069 135.857L76.6511 133.925Z" fill="#4F301A"/>
<path d="M70.2808 137.804C70.2937 137.546 70.1541 137.269 69.8619 136.972C69.7725 137.087 69.7109 137.254 69.6771 137.473C69.5826 137.892 69.6671 138.332 69.9307 138.795C70.1495 138.326 70.2662 137.996 70.2808 137.804Z" fill="#2D1F10"/>
<path d="M69.8144 138.53C70.0052 137.758 70.0184 137.265 69.8541 137.052C69.6432 137.566 69.63 138.059 69.8144 138.53Z" fill="#563E28"/>
<path d="M69.7828 135.507C69.8688 135.511 70.0521 135.447 70.3328 135.314C70.6134 135.181 70.7663 135.091 70.7915 135.044C70.8045 135.037 70.8102 135 70.8084 134.934C70.7988 134.822 70.8295 134.613 70.9006 134.307C70.2447 134.741 69.8721 135.141 69.7828 135.507Z" fill="#4F301A"/>
<path d="M75.8762 133.886L75.9662 133.913L76.4526 134.307C76.5274 134.384 76.6009 134.412 76.673 134.39C76.7581 134.361 76.7507 134.206 76.6506 133.925C76.5635 133.636 76.3322 133.391 75.9567 133.19C75.5611 132.982 75.4251 132.963 75.5486 133.131C75.686 133.326 75.7952 133.578 75.8762 133.886Z" fill="#4F301A"/>
<path d="M58.5267 121.117C58.3577 117.083 57.4888 114.251 55.9198 112.62C54.1074 110.746 51.0066 109.94 46.6175 110.2C43.9578 110.369 41.6891 111.309 39.8113 113.019C38.3528 114.358 37.4084 115.828 36.9783 117.426L37.5929 121.245L37.6532 123.462C37.8757 125.112 38.4511 126.401 39.3792 127.329C40.3078 128.273 41.1534 128.886 41.916 129.17C42.3049 129.319 42.5949 129.367 42.7859 129.316L46.6702 130.087C49.3768 130.553 51.0009 130.672 51.5424 130.446C54.7319 129.074 56.8378 127.319 57.8602 125.181C58.3784 124.097 58.6005 122.742 58.5267 121.117Z" fill="#E9BA6B"/>
<path d="M55.7025 128.277C57.0468 127.089 57.9785 125.702 58.4978 124.115C58.9616 122.663 59.1207 120.896 58.9753 118.815C58.0684 116.494 57.3522 115.195 56.8266 114.918C56.5864 114.794 56.3324 114.98 56.0647 115.478C56.0364 115.524 56.2658 116.611 56.7529 118.739C57.2229 120.779 57.1134 122.196 56.4246 122.99C54.1014 125.737 51.247 127.186 47.8615 127.337C46.575 127.383 44.2938 127.05 41.0181 126.338C39.5288 126.007 38.5379 125.221 38.0453 123.981L37.7531 122.215L37.352 122.163C37.0902 122.335 36.988 122.931 37.0454 123.95C37.1175 124.968 37.7038 126.116 38.8043 127.394C39.3548 128.04 39.8948 128.576 40.4244 129.001C41.5563 129.256 42.7474 129.51 43.9976 129.761C46.5132 130.278 48.0899 130.562 48.7278 130.613C49.8844 130.69 50.8452 130.641 51.6101 130.465C52.9629 130.136 54.3271 129.406 55.7025 128.277Z" fill="#BF8F49"/>
<path d="M56.7439 114.344C57.316 115.241 57.7938 116.482 58.1774 118.066C58.3937 118.947 58.6893 120.29 59.0641 122.097L59.241 122.068C59.3186 120.571 59.2363 119.175 58.9938 117.882C58.7154 116.353 58.22 115.009 57.5076 113.851C57.105 113.199 56.6457 112.638 56.1296 112.169C55.6284 111.698 55.025 111.283 54.3195 110.924C53.2239 110.371 51.837 109.991 50.1588 109.785C49.4018 109.708 48.6978 109.674 48.0468 109.683C47.2914 109.666 46.5818 109.698 45.918 109.781C44.412 109.924 43.0239 110.314 41.7534 110.951C40.4243 111.606 39.2946 112.519 38.3644 113.692C37.4773 114.819 36.8319 116.122 36.4281 117.601L36.4089 117.713L37.1044 121.24C36.9746 121.633 36.8886 122.006 36.8462 122.359C36.7683 122.761 36.7354 123.184 36.7475 123.628C36.7441 124.59 36.952 125.433 37.3714 126.158C37.5589 126.521 37.8276 126.874 38.1773 127.217L39.0881 128.05C39.7996 128.631 40.5003 129.087 41.1902 129.418C41.6994 129.636 42.0959 129.792 42.3797 129.886C42.6631 129.964 43.0651 130.053 43.5859 130.153L48.3821 130.981C49.1682 131.041 49.5761 131.071 49.6056 131.07L50.2495 131.069C50.6036 131.027 50.8392 130.981 50.9563 130.933L50.9341 130.934C52.0203 130.599 52.9863 130.194 53.8319 129.72C54.3566 129.42 54.8003 129.138 55.1632 128.873C55.6559 128.486 56.0533 128.131 56.3554 127.81L56.1953 127.638C55.731 127.98 55.302 128.262 54.9083 128.483L53.5506 129.175C52.6294 129.593 51.6841 129.938 50.7146 130.209L50.6924 130.21L50.6708 130.233C50.6125 130.264 50.4576 130.285 50.2062 130.294C50.0883 130.313 49.9033 130.312 49.6511 130.291C49.2362 130.277 48.8431 130.246 48.4718 130.2L42.6241 129.078C42.3555 128.999 42.0038 128.856 41.5689 128.649C40.8483 128.276 40.2077 127.855 39.6473 127.386L38.7821 126.596C38.5223 126.294 38.3146 126.006 38.1591 125.73C37.8169 125.121 37.6497 124.417 37.6575 123.617C37.6483 123.277 37.6752 122.906 37.7383 122.504L38.0198 121.429L38.0828 121.293L37.3861 117.722C37.788 116.423 38.3713 115.285 39.136 114.308C39.9368 113.273 40.9504 112.445 42.1768 111.824C43.3602 111.249 44.6382 110.893 46.011 110.755C46.5866 110.69 47.2592 110.658 48.0289 110.66C48.6356 110.653 49.3101 110.688 50.0523 110.765C51.581 110.918 52.863 111.249 53.8982 111.76C55.1285 112.367 56.0771 113.228 56.7439 114.344Z" fill="#4F301A"/>
<path d="M41.1548 119.963C40.8374 119.722 40.4677 119.736 40.0457 120.002C39.3369 121.152 38.6899 122.396 38.1046 123.734C36.9645 126.439 36.7564 128.311 37.4803 129.35C39.0443 129.709 40.597 129.653 42.1384 129.184C43.7094 128.713 44.6046 128.43 44.824 128.333C45.5857 128.039 46.0059 127.706 46.0846 127.334C46.1616 126.902 46.1768 126.642 46.13 126.555C46.0676 126.439 45.7043 126.141 45.04 125.662C44.3001 125.126 43.6007 124.448 42.942 123.628C42.2364 122.721 41.8454 121.951 41.7689 121.317C41.6765 120.64 41.4718 120.188 41.1548 119.963Z" fill="#E08A00"/>
<path d="M39.9758 119.872L39.9315 119.873L39.2518 121.007C38.6997 121.93 38.1943 122.939 37.7356 124.036C37.4556 124.623 37.2013 125.343 36.9729 126.194C36.8666 126.642 36.7966 127.059 36.7627 127.445C36.7192 128.024 36.7545 128.503 36.8684 128.884L37.0567 129.277C37.1795 129.435 37.2936 129.549 37.3991 129.62C37.595 129.746 37.8494 129.848 38.1623 129.925C38.5496 130.015 39.0386 130.035 39.6293 129.984C40.5006 129.908 41.4284 129.735 42.4127 129.463C43.4118 129.19 44.2914 128.877 45.0515 128.525L45.7085 128.19L46.0136 127.98C46.1299 127.902 46.2454 127.794 46.3601 127.657C46.3888 127.626 46.4168 127.566 46.444 127.476C46.4715 127.401 46.4779 127.364 46.4631 127.364L46.5033 127.208L46.5595 126.828C46.5831 126.605 46.5261 126.415 46.3886 126.257L46.0924 125.979L45.0509 125.239C44.7639 125.028 44.4685 124.779 44.1647 124.494C43.6323 123.966 43.1586 123.42 42.7436 122.858C42.3427 122.266 42.0916 121.742 41.9904 121.287C41.8987 120.639 41.686 120.166 41.3523 119.867C41.17 119.696 40.9679 119.614 40.7461 119.622C40.6126 119.612 40.458 119.64 40.2821 119.705L40.0412 119.825L39.9758 119.872ZM40.1599 120.109L40.4015 120.012C40.6505 119.914 40.8739 119.965 41.0718 120.165C41.314 120.364 41.4653 120.758 41.5258 121.348C41.5998 121.893 41.8459 122.505 42.2641 123.186C42.6811 123.822 43.1634 124.412 43.711 124.954C44.0308 125.283 44.3344 125.561 44.6218 125.788C44.8488 125.972 45.1814 126.226 45.6195 126.551L45.8018 126.722L45.803 126.766L45.7041 127.214C45.7053 127.258 45.6548 127.304 45.5525 127.353L44.7426 127.781C44.0261 128.103 43.1755 128.392 42.1907 128.649C41.1916 128.922 40.3226 129.079 39.5836 129.12C39.1112 129.166 38.7037 129.151 38.3612 129.075C38.1378 129.024 37.9881 128.962 37.9121 128.891L37.7988 128.806L37.7047 128.61C37.6227 128.317 37.598 127.955 37.6307 127.525C37.6379 127.243 37.6942 126.864 37.7996 126.387C37.9186 125.865 38.1217 125.169 38.4089 124.301C38.4912 124.061 38.7195 123.476 39.0938 122.545L40.1599 120.109Z" fill="#331C04"/>
<path d="M45.5202 122.892C45.8236 123.162 46.3406 123.122 47.0711 122.77C47.2725 122.555 47.5254 122.332 47.8299 122.099C48.4385 121.618 49.0154 121.331 49.5605 121.238C49.688 121.026 49.4247 120.599 48.7708 119.957C48.0565 119.272 47.3358 118.898 46.6088 118.835C45.8822 118.787 45.3723 119.087 45.079 119.733C44.8425 120.289 44.8075 120.905 44.9738 121.58C45.1558 122.283 45.3379 122.721 45.5202 122.892Z" fill="#BF8F49"/>
<path d="M45.8369 123.125C46.1527 123.306 46.5698 123.402 47.0881 123.413C47.5921 123.439 48.0717 123.385 48.5269 123.251C48.8202 123.151 49.0754 123.009 49.2924 122.824C49.5094 122.638 49.623 122.464 49.6334 122.301C49.6769 121.722 49.4094 121.14 48.831 120.554C48.1458 119.853 47.3628 119.637 46.482 119.905C45.7355 120.213 45.4047 120.839 45.4896 121.783C45.5324 122.27 45.6482 122.717 45.8369 123.125Z" fill="white"/>
<path d="M46.2708 120.313C46.6357 120.122 46.9366 120.03 47.1736 120.036C47.4402 120.041 47.7168 120.142 48.0034 120.339C48.1844 120.466 48.4133 120.717 48.6899 121.092C48.9062 121.424 49.048 121.737 49.1151 122.031L49.1655 122.251L49.1889 122.295L49.1901 122.339C49.163 122.429 49.0843 122.528 48.954 122.636L48.5392 122.895L48.0338 123.091C47.6814 123.192 47.3129 123.25 46.9284 123.263C46.4256 123.281 46.0473 123.251 45.7935 123.171C46.051 123.384 46.4251 123.533 46.9159 123.619C47.2288 123.697 47.6363 123.712 48.1383 123.664C48.4184 123.625 48.6318 123.58 48.7785 123.53C48.9843 123.479 49.1889 123.382 49.3923 123.242C49.6393 123.07 49.8189 122.872 49.9312 122.646L50.0121 122.354L50.0066 122.155L49.9526 121.801C49.8218 121.347 49.6481 120.946 49.4314 120.599C49.1992 120.223 48.8944 119.901 48.517 119.633C48.0797 119.338 47.6247 119.206 47.1519 119.238C46.9892 119.244 46.7612 119.296 46.4679 119.395C46.336 119.445 46.1392 119.555 45.8775 119.727L45.8127 119.796C45.5838 120.086 45.4285 120.365 45.3471 120.634C45.2664 120.933 45.2301 121.23 45.2381 121.526C45.2538 122.103 45.4389 122.651 45.7935 123.171L45.6381 122.355C45.6281 121.986 45.6356 121.719 45.6608 121.555C45.7317 121.093 45.9351 120.679 46.2708 120.313Z" fill="#1D2226"/>
<path d="M38.4039 128.185C38.4806 128.286 38.5678 128.224 38.6652 127.998C38.7216 127.893 39.2115 127.402 40.1349 126.525C41.0436 125.649 41.5605 125.061 41.6855 124.761C41.8389 124.415 41.8749 124.103 41.7933 123.824C41.7773 123.781 41.6124 123.431 41.2985 122.777C41.2205 122.631 41.1179 122.125 40.9907 121.256C40.8843 120.609 40.7449 120.384 40.5727 120.583C40.2287 120.995 39.7642 121.877 39.1794 123.23C38.469 124.868 38.1056 126.198 38.089 127.22C38.2374 127.777 38.3423 128.099 38.4039 128.185Z" fill="#FFA300"/>
<path d="M41.0808 121.32C40.9472 120.762 40.6329 120.633 40.1377 120.932L38.9644 123.504C38.2337 125.484 38.0278 127.163 38.3466 128.543C39.3294 126.584 40.2569 124.494 41.1289 122.272C41.164 121.931 41.148 121.613 41.0808 121.32Z" fill="#FFE000"/>
<path d="M42.8466 125.03C42.5648 125.01 42.3808 125.047 42.2945 125.138L41.9655 126.105C41.7914 126.777 41.8534 127.152 42.1515 127.23C42.6132 127.332 43.2211 127.369 43.9752 127.342C44.8177 127.298 45.2431 127.157 45.2515 126.919C45.2606 126.712 45.0002 126.388 44.4702 125.949C43.8814 125.526 43.5416 125.279 43.4509 125.208C43.3298 125.109 43.1283 125.049 42.8466 125.03Z" fill="#FFA300"/>
<path d="M43.248 125.06C42.772 124.973 42.4723 125.11 42.3488 125.469L42.3399 125.958C42.3935 126.296 42.5848 126.526 42.9138 126.648C43.3622 126.809 43.8085 126.89 44.2525 126.888C44.7557 126.885 44.9299 126.761 44.7752 126.515C44.5597 126.212 44.3075 125.917 44.0185 125.632C43.6835 125.288 43.4267 125.098 43.248 125.06Z" fill="#FFE000"/>
<path d="M50.8189 125.877C51.4795 125.675 52.0073 125.486 52.4021 125.309C52.884 125.07 53.3971 124.615 53.9414 123.945L51.9942 124.192C52.1296 123.728 52.1682 123.512 52.1098 123.544C51.1919 124.08 50.1942 124.404 49.1167 124.517L47.7846 124.52C46.662 124.605 46.1826 124.94 46.3466 125.526C46.5102 126.097 47.0873 126.365 48.0781 126.33C48.9062 126.3 49.8198 126.149 50.8189 125.877Z" fill="#FCCA81"/>
<path d="M38.0115 120.319C38.0894 120.465 38.2809 120.702 38.5859 121.031C38.7209 120.553 38.8254 120.039 38.8992 119.488C39.0625 118.417 38.9998 117.746 38.7112 117.475C38.4226 117.204 38.1454 117.081 37.8796 117.105L37.5499 117.228C37.7797 119.144 37.9335 120.174 38.0115 120.319Z" fill="#BF8F49"/>
<path d="M38.2828 121.286C38.517 121.189 38.6229 121 38.6004 120.72L38.0953 118.474C38.0313 118.299 37.9675 118.131 37.9039 117.97C37.7472 117.65 37.6405 117.536 37.5838 117.626C37.4403 117.794 37.3219 118.339 37.2285 119.26C37.108 120.27 37.1839 120.882 37.4561 121.094C37.7583 121.32 38.0338 121.384 38.2828 121.286Z" fill="white"/>
<path d="M38.1129 117.519C38.0506 117.403 37.9738 117.302 37.8827 117.216L37.7928 117.175L37.6141 117.137C37.4958 117.142 37.3935 117.19 37.3072 117.281L37.2634 117.305L37.264 117.327L37.1993 117.396L36.9914 117.914C36.8572 118.422 36.7979 118.964 36.8136 119.541L36.9252 120.381L37.0914 120.774C37.1394 120.906 37.2391 121.035 37.3906 121.163C37.4653 121.19 37.5924 121.237 37.7719 121.305C37.921 121.344 38.0615 121.339 38.1933 121.29C38.5019 121.205 38.6369 121 38.5985 120.676C38.6029 120.838 38.5692 120.958 38.4972 121.035C38.4117 121.156 38.3098 121.219 38.1915 121.223C38.1032 121.241 37.9843 121.223 37.8348 121.169C37.7145 121.1 37.6162 121.022 37.5398 120.936C37.4783 120.849 37.4463 120.761 37.4439 120.673L37.4342 120.318L37.781 118.374C37.8146 118.417 37.8454 118.46 37.8733 118.504L37.8505 118.483L38.2794 119.555C38.4222 119.995 38.5204 120.339 38.5739 120.588C38.4865 120.13 38.4325 119.777 38.4118 119.528L38.3349 118.332C38.2661 117.98 38.1921 117.709 38.1129 117.519Z" fill="#1D2226"/>
<path d="M48.7946 111.055C47.2826 110.975 46.1041 111.18 45.2589 111.669L43.5043 112.465L44.8715 111.306C44.2328 111.225 43.7173 111.318 43.3249 111.583C42.5939 111.92 41.844 112.376 41.0752 112.951C39.5375 114.101 38.6814 115.279 38.507 116.484C38.8579 116.871 39.1646 117.259 39.4268 117.649L39.6044 118.464C39.7963 118.99 40.0476 119.248 40.3581 119.236C40.8461 119.219 41.1342 119.201 41.2226 119.183C41.4576 119.116 41.6534 118.968 41.81 118.741C41.9383 118.558 42.1946 118.46 42.5791 118.447C43.141 118.427 43.5978 118.351 43.9495 118.22C44.4039 118.056 44.7536 117.851 44.9985 117.605C45.1851 117.392 45.2932 117.284 45.3228 117.283C45.9735 117.26 46.6121 117.067 47.2387 116.704C47.2823 116.673 47.9278 115.917 49.1753 114.437C50.2214 113.171 51.216 112.463 52.1592 112.31C51.5497 112.214 50.8307 112.173 50.0022 112.188C49.3452 112.2 48.858 112.247 48.5406 112.329C49.7206 111.845 50.4737 111.507 50.8 111.316C50.2188 111.174 49.5504 111.087 48.7946 111.055Z" fill="#FCCA81"/>
<path d="M47.465 116.03C47.1617 116.307 47.1589 116.478 47.4567 116.541C47.7545 116.604 48.1739 116.515 48.715 116.274C49.6801 115.84 50.614 115.074 51.5166 113.976C50.8312 113.808 49.951 114.099 48.876 114.848L47.465 116.03Z" fill="#FCCA81"/>
<path d="M45.9741 124.918C46.0184 124.916 46.2197 124.968 46.5778 125.074C46.8764 125.167 47.1577 125.172 47.4219 125.088L50.0008 124.397L48.6207 124.268C48.0276 124.23 47.3864 124.327 46.697 124.559C45.9785 124.807 45.7375 124.926 45.9741 124.918Z" fill="#FCCA81"/>
<path d="M51.822 117.253C51.58 118.149 52.3844 118.609 54.2353 118.631C55.1529 118.628 56.0979 118.542 57.0702 118.374C57.2461 118.309 57.4272 117.896 57.6138 117.134C57.972 115.612 58.1564 113.141 58.167 109.723C55.6396 110.405 53.8218 111.868 52.7135 114.113C52.1666 115.228 51.8694 116.274 51.822 117.253Z" fill="#EABB6C"/>
<path d="M57.7947 109.913C57.6569 110.288 57.5191 110.663 57.3812 111.038C57.106 111.803 56.9694 112.222 56.9714 112.296C56.9758 112.458 56.9491 112.837 56.8913 113.431C56.8223 114.158 56.7293 114.82 56.6123 115.416C56.445 116.34 55.9554 117.386 55.1435 118.554C55.3241 118.666 55.9176 118.719 56.924 118.713C57.2593 118.523 57.4615 118.338 57.5306 118.158C57.6141 117.963 57.752 117.048 57.9444 115.413C58.0286 114.7 57.9787 112.867 57.7947 109.913Z" fill="#BF8F49"/>
<path d="M58.0008 114.235L58.0215 109.284C57.3529 109.737 56.6911 110.168 56.0362 110.576C55.7153 110.75 55.3374 111.008 54.9026 111.349C54.0339 112.061 53.3304 112.863 52.7922 113.755C53.2103 113.888 53.9679 113.713 55.0648 113.23C55.6055 112.974 56.1091 112.712 56.5754 112.443C56.0512 113.306 55.7616 114.085 55.7066 114.783C56.3771 113.856 56.8004 113.094 56.9765 112.496L57.2905 115.059L58.0008 114.235Z" fill="#FCCA81"/>
<path d="M56.8359 110.569C57.0087 110.505 57.2361 110.43 57.518 110.345L57.6466 111.805C57.6999 112.677 57.7252 113.334 57.7225 113.778C57.7166 114.652 57.6902 115.311 57.6431 115.757L57.5366 116.737C57.4994 117.005 57.434 117.318 57.3401 117.677L57.5649 117.78L58.0658 115.786C58.1528 115.176 58.2234 114.508 58.2776 113.781C58.3012 113.558 58.3348 112.891 58.3786 111.779L58.3523 109.183L57.802 109.358C57.201 109.572 56.7836 109.735 56.5498 109.847C56.272 109.975 55.871 110.197 55.3467 110.511C54.5623 111.057 53.9131 111.68 53.3993 112.379C52.8998 113.063 52.4921 113.854 52.1761 114.754C51.9041 115.636 51.7574 116.5 51.7359 117.344L51.8468 117.34C51.913 116.509 52.1199 115.681 52.4675 114.854C52.7859 114.044 53.225 113.318 53.7848 112.676C54.3015 112.081 54.9458 111.554 55.7179 111.098C56.1555 110.86 56.5281 110.684 56.8359 110.569Z" fill="#4F301A"/>
<path d="M55.0097 116.073C54.5965 116.665 54.4516 117.321 54.5748 118.042C54.698 118.762 54.931 118.895 55.2739 118.438C55.9447 117.527 56.3153 117.003 56.3857 116.867C56.9729 115.603 57.1821 114.042 57.0131 112.183C56.4145 112.486 55.9018 113.229 55.4752 114.414C55.2543 114.999 55.0991 115.552 55.0097 116.073Z" fill="#A56E1E"/>
<path d="M71.9562 115.513L72.0998 113.503L70.9524 114.362C71.6351 113.254 71.8059 112.085 71.4648 110.853L70.7491 109.342C70.6748 109.745 70.0917 110.427 68.9999 111.39C69.8277 109.864 70.1579 108.477 69.9905 107.229C69.8459 106.025 69.2963 105.309 68.3418 105.08C67.7468 106.752 66.8218 108.108 65.567 109.147C65.1319 109.508 64.3154 109.999 63.1175 110.621C62.7115 110.818 62.4293 111.171 62.271 111.678C62.021 112.573 61.7388 113.454 61.4246 114.32C60.9805 115.931 60.1846 117.836 59.037 120.035C58.4692 121.126 57.9392 122.061 57.4472 122.84C57.9645 123.906 58.5187 124.608 59.1098 124.944C59.9109 125.383 61.3311 125.622 63.3705 125.662C65.1866 125.689 66.6789 125.31 67.8471 124.525C68.4386 124.132 68.845 123.734 69.0663 123.33L67.2377 122.991L69.0028 122.371C70.2639 122.017 71.1402 121.287 71.6318 120.181C71.8703 119.628 71.9832 119.114 71.9705 118.637L69.8323 119.149C70.935 118.246 71.6429 117.034 71.9562 115.513Z" fill="#BF8F49"/>
<path d="M64.4507 111.278C64.3844 110.668 64.2965 110.386 64.187 110.432C63.5392 110.676 63.0912 110.926 62.843 111.182C62.7922 111.227 62.3457 112.54 61.5033 115.123C60.6368 117.735 60.0295 119.259 59.6813 119.694C59.081 120.443 58.4036 121.581 57.6493 123.106L58.1497 124.038C58.621 124.688 59.1922 125.077 59.8632 125.205C60.5075 125.347 60.845 125.381 60.8757 125.307C62.837 121.017 64.0032 117.256 64.3743 114.024C64.5011 112.936 64.5266 112.021 64.4507 111.278Z" fill="#E9BA6B"/>
<path d="M71.1682 109.829C70.9311 109.415 70.6952 109.372 70.4604 109.702C69.3761 111.275 68.6799 112.308 68.3719 112.802C68.2266 113.057 68.4996 112.898 69.1911 112.326C70.0553 111.975 70.6787 112.49 71.0615 113.87C71.4947 113.092 71.7278 112.509 71.7607 112.122C71.7646 112.063 71.7114 111.728 71.601 111.119C71.5013 110.57 71.3571 110.14 71.1682 109.829Z" fill="#FCCA81"/>
<path d="M71.9785 118.927L71.317 118.934L65.7771 120.907L68.3482 120.346C69.826 120.213 69.9617 120.718 68.7552 121.86C68.1132 122.462 68.3425 122.549 69.4431 122.121C70.5731 121.694 71.2233 121.301 71.3939 120.942C71.6071 120.493 71.802 119.822 71.9785 118.927Z" fill="#FCCA81"/>
<path d="M72.1519 113.792C71.6126 114.229 71.0626 114.688 70.502 115.17C69.3781 116.118 68.7514 116.682 68.622 116.862C68.5527 116.967 68.7303 116.891 69.1549 116.634C69.7932 116.255 70.3154 116.05 70.7216 116.016C71.1573 115.982 71.3708 116.307 71.3624 116.992C71.3626 117.155 71.3468 117.312 71.315 117.461L71.3808 117.215C71.6459 116.647 71.8458 116.206 71.9803 115.892C72.2161 115.324 72.2733 114.625 72.1519 113.792Z" fill="#FCCA81"/>
<path d="M68.9444 123.51C66.4729 123.117 65.4311 123.016 65.8189 123.205L66.886 123.731C66.5697 124.016 66.1752 124.318 65.7026 124.635C64.8011 125.249 63.9717 125.629 63.2145 125.775C64.8425 125.485 66.1757 125.122 67.2141 124.687C68.0728 124.307 68.6496 123.915 68.9444 123.51Z" fill="#FCCA81"/>
<path d="M69.2429 105.54C68.7156 104.905 68.2918 104.842 67.9718 105.351C67.2348 107.784 66.5481 109.397 65.9117 110.192C67.1066 109.392 68.0124 109.19 68.629 109.586C68.9607 109.791 69.2285 110.13 69.4323 110.605C69.791 110.066 70.0228 109.557 70.1278 109.08C70.2114 108.648 70.21 108.112 70.1236 107.473C70.0438 106.79 69.7503 106.145 69.2429 105.54Z" fill="#FCCA81"/>
<path d="M69.9762 105.689C69.8557 105.512 69.7172 105.357 69.5606 105.224C69.4536 105.121 69.2837 104.996 69.051 104.85C68.7996 104.763 68.6098 104.69 68.4814 104.632L68.1525 104.524L67.5011 106.048C67.2732 106.496 67.0525 106.863 66.8391 107.148C66.5923 107.492 66.3282 107.822 66.0466 108.138C65.6462 108.528 65.3285 108.807 65.0936 108.973C64.7839 109.214 64.4287 109.448 64.0281 109.675C63.5153 109.933 63.1106 110.137 62.8142 110.289C62.5351 110.455 62.3336 110.643 62.2096 110.853C62.1096 111.032 62.0117 111.264 61.9158 111.548L60.7004 115.443C60.3835 116.294 60.0378 117.109 59.6633 117.886C58.9225 119.485 58.0867 121.048 57.156 122.575L57.038 122.777L57.1625 122.977C57.6471 123.537 58.0345 123.928 58.3248 124.148C58.2142 123.877 58.1088 123.498 58.0085 123.013C58.888 121.533 59.7191 119.985 60.5019 118.369C60.859 117.577 61.2079 116.74 61.5489 115.859L62.7603 111.941L62.9941 111.403C63.0607 111.284 63.1815 111.178 63.3565 111.087L64.5484 110.473C64.9757 110.231 65.3649 109.982 65.716 109.725C66.0671 109.469 66.4088 109.161 66.7411 108.8C67.04 108.5 67.3295 108.147 67.6096 107.743C67.9137 107.309 68.1511 106.912 68.3216 106.553C68.4922 106.194 68.5868 105.985 68.6054 105.926L68.7073 105.634L68.7293 105.634L69.0303 105.832C69.1574 105.965 69.2324 106.053 69.2551 106.098L69.3716 106.253L69.448 106.431C69.4507 106.446 69.4957 106.572 69.5829 106.809L69.6842 107.611L69.5756 108.84L69.0646 110.407C68.9006 110.721 68.782 110.961 68.7087 111.125L67.6754 113.345L70.4342 110.774C70.5863 110.638 70.7378 110.458 70.8885 110.233L70.8844 110.211C70.9392 110.341 71.0042 110.497 71.0795 110.678L71.2892 111.591L71.2704 112.462L71.1328 113.043C71.1103 113.163 71.0471 113.342 70.9431 113.581L69.6195 116.026L71.7401 114.444L71.5334 115.74L71.3099 116.457L70.614 117.735C70.5207 117.87 70.4413 117.96 70.3759 118.006L70.1377 118.276C70.0416 118.396 69.8655 118.561 69.6092 118.772L68.372 119.989L71.5502 119.244L71.5263 119.356C71.4359 119.669 71.3407 119.916 71.2407 120.095L71.0367 120.432C70.9847 120.552 70.908 120.656 70.8066 120.747C70.6625 120.927 70.4816 121.107 70.2641 121.288L69.5871 121.696L65.5779 123.096L68.3469 123.627L68.2568 123.74C68.0593 123.95 67.8371 124.146 67.5901 124.327L67.2156 124.576C67.0166 124.697 66.8818 124.765 66.811 124.781L66.3843 124.986L65.0237 125.4L64.5507 125.472L62.0312 125.586L64.0921 125.744C64.2739 125.772 64.4503 125.771 64.6213 125.739L65.1244 125.712C65.5747 125.678 65.9121 125.63 66.1365 125.568L66.6234 125.452C66.7383 125.436 66.8993 125.39 67.1063 125.313L68.0259 124.903L68.855 124.359L69.2354 124.021L69.9397 123.032L69.1838 122.883L69.1617 122.883L69.1136 122.861L70.0673 122.517L70.8865 122.04C71.1908 121.77 71.409 121.552 71.5411 121.387L72.0612 120.601C72.1825 120.376 72.2904 120.078 72.3847 119.705L72.5378 118.721L72.5309 118.074L71.3405 118.331L71.3626 118.331L71.9885 117.276L72.4179 116.111L72.6662 114.435L72.5856 112.65L72.095 112.989L72.1803 112.364C72.184 112.14 72.1845 112.021 72.1818 112.007L72.1147 111.271L71.9152 110.536C71.8682 110.358 71.7737 110.121 71.6316 109.825L71.1936 109.115L70.434 109.189C70.4409 109.174 70.4456 109.159 70.448 109.144L70.5904 107.737L70.5456 107.246L70.4307 106.734C70.3474 106.437 70.2857 106.259 70.2455 106.2L70.1309 105.933L69.9762 105.689Z" fill="#4F301A"/>
<path d="M90.3772 115.818C90.7097 115.068 90.7264 114.232 90.4275 113.309C90.1295 112.475 89.6418 111.759 88.9646 111.158C88.9082 111.348 88.7218 111.652 88.4053 112.068C88.0263 112.556 87.6806 112.85 87.3681 112.95C86.2386 113.271 85.5687 114.066 85.3584 115.334C85.2605 115.967 85.2765 116.565 85.4064 117.128C85.7274 117.837 86.2622 118.185 87.0108 118.172C87.1907 118.17 87.6454 118.067 88.375 117.862C89.1825 117.674 89.8499 116.993 90.3772 115.818Z" fill="#1D2226"/>
<path d="M90.6139 112.712L90.2239 112.038C90.115 111.847 89.9572 111.635 89.7505 111.401C89.6965 111.351 89.5075 111.174 89.1834 110.871L88.5399 111.053L88.4758 111.199L88.15 111.775C87.985 112.03 87.8075 112.256 87.6175 112.455L87.4622 112.596L87.3209 112.688L86.8817 112.879C86.8552 112.898 86.7067 112.992 86.4362 113.161C86.2676 113.311 86.1435 113.415 86.0639 113.474L85.7508 113.868L85.5367 114.311C85.4136 114.633 85.333 114.941 85.2947 115.233C85.2269 115.951 85.2494 116.585 85.3621 117.135C85.3001 116.786 85.2737 116.468 85.2828 116.181C85.28 115.911 85.3084 115.606 85.368 115.265L85.6871 114.397L85.9565 114.012L86.2594 113.687C86.3561 113.64 86.4854 113.565 86.6472 113.461C86.8526 113.349 86.9845 113.288 87.0427 113.278L87.4936 113.153L87.7658 113.037L87.9867 112.885C88.2135 112.725 88.4565 112.487 88.7157 112.17C88.8099 112.085 88.895 111.973 88.9711 111.832L89.1074 111.966C89.2206 112.096 89.3501 112.275 89.4959 112.505C89.5774 112.626 89.6791 112.818 89.801 113.081L90.0444 113.691C90.1123 113.905 90.151 114.123 90.1606 114.347C90.202 114.58 90.209 114.789 90.1818 114.974C90.176 115.11 90.138 115.319 90.0681 115.602L89.8194 116.232C89.5912 116.723 89.3338 117.091 89.0471 117.337C88.852 117.507 88.6551 117.625 88.4564 117.69L87.7809 117.945C87.2749 118.14 86.8098 118.185 86.3857 118.08C86.1493 118.017 85.9474 117.895 85.7802 117.714C85.6822 117.63 85.5888 117.527 85.4998 117.404C85.6019 117.56 85.6894 117.672 85.7623 117.74C85.9097 117.894 86.1116 118.016 86.3678 118.106C86.7388 118.25 87.2274 118.254 87.8337 118.116L88.5505 117.966C88.7954 117.908 89.0312 117.798 89.2581 117.638C89.6347 117.391 89.9894 117.02 90.3221 116.525L90.5337 116.195C90.6338 115.997 90.6885 115.882 90.6979 115.851C90.8167 115.589 90.8991 115.334 90.9451 115.086C90.9869 114.898 91.0059 114.625 91.0021 114.265C90.9847 113.998 90.9382 113.736 90.8626 113.479C90.7715 113.134 90.6886 112.879 90.6139 112.712Z" fill="#131719"/>
<path d="M89.3226 111.905C89.2667 111.675 89.1856 111.471 89.0792 111.295C89.0691 111.492 88.8943 111.861 88.5548 112.402C88.347 112.754 88.092 113.01 87.7898 113.168C87.3686 113.333 86.9837 113.492 86.6353 113.643C86.2166 113.823 85.942 114.179 85.8115 114.713C85.7535 114.979 85.7327 115.2 85.7492 115.378C85.7498 115.212 85.9967 114.996 86.4898 114.728C86.9393 114.468 87.3494 114.283 87.7201 114.172C88.0327 114.071 88.2672 113.955 88.4238 113.822C88.5274 113.728 88.752 113.471 89.0976 113.049C89.3594 112.747 89.4344 112.366 89.3226 111.905Z" fill="#293035"/>
<path d="M89.2064 112.016L88.9987 112.368C88.2703 112.918 87.598 113.487 86.9819 114.077C86.3127 114.707 86.0453 115.4 86.1797 116.157C86.4664 115.911 86.8148 115.759 87.225 115.701C87.7663 115.62 88.1409 115.531 88.349 115.434C88.6418 115.307 89.0061 115.16 89.4419 114.992C89.7269 114.822 89.853 114.559 89.8201 114.204C89.7656 113.643 89.5611 112.914 89.2064 112.016Z" fill="#293035"/>
</g>
<defs>
<clipPath id="clip0">
<rect width="55.5908" height="50" fill="white" transform="translate(36 100.023)"/>
</clipPath>
</defs>
</svg>
