<svg fill="none" height="231" viewBox="0 0 324 231" width="324" xmlns="http://www.w3.org/2000/svg" xmlns:xlink="http://www.w3.org/1999/xlink"><clipPath id="a"><path d="m211 89.6084h92.0574v80h-92.0574z"/></clipPath><path d="m314 214.608-37.607-85.6h-220.0716l-54.3214-128.399602" stroke="#f2be19" stroke-dasharray="5.75 5.75" stroke-linejoin="round" stroke-width="2.8742"/><circle fill="#f2be19" r="9.58067" transform="matrix(-1 0 0 1 314.419 221.189)"/><g clip-path="url(#a)"><path d="m283.693 165.499c.352-.528.528-1.086.528-1.673 0-1.448-1.145-2.69-3.434-3.727s-5.048-1.556-8.277-1.556c-3.209 0-5.958.519-8.247 1.556-2.309 1.037-3.463 2.279-3.463 3.727v.059c.019.568.215 1.106.587 1.614.548.763 1.506 1.458 2.876 2.084 1.037.47 2.162.832 3.375 1.086 1.487.313 3.111.47 4.872.47 1.781 0 3.415-.157 4.902-.47 1.213-.254 2.338-.616 3.375-1.086.9-.411 1.634-.851 2.201-1.321.274-.234.509-.489.705-.763z" fill="#000" fill-opacity=".45098"/><path d="m289.813 126.281c.002-1.049-.295-1.956-.893-2.719-.006-.146-.079-.282-.217-.406-.277-.264-.751-.372-1.425-.323-.059.011-1.221.061-3.485.149-1.607.054-2.561.167-2.863.339-.498.292-.9 1.45-1.206 3.473-.31 2.096-.024 3.206.858 3.33 1.042.147 2.704.017 4.987-.391 2.357-.419 3.628-.856 3.815-1.312.285-.654.428-1.367.429-2.14z" fill="#fcebd6"/><path d="m289.116 128.515c.324-.316.526-.779.604-1.386-.373.401-1.551.741-3.535 1.021-.999.132-1.996.228-2.991.287-.059.011.185-.172.731-.548.274-.189.554-.377.842-.564l1.18-.742-1.665-3.747c-.603.082-1.206.171-1.809.267-1.221.193-1.841.332-1.861.418l-1.011 6.174c1.182.477 1.818.71 1.906.7 3.742-.674 5.895-1.104 6.46-1.29.519-.159.902-.356 1.149-.59z" fill="#c6b39e"/><path d="m283.616 123.388c.153-.385-.733-.567-2.658-.547l-.982 3.005-.201 2.722.463 1.448 4.819-3.549z" fill="#a38f7c"/><path d="m289.301 123.409c-.033-.13-.113-.266-.239-.408-.151-.169-.319-.295-.503-.379-.286-.104-.552-.163-.799-.177l-.57.011c-.381.036-1.535.079-3.462.129-.804.041-1.404.079-1.8.115l-.706.112c-.281.072-.467.134-.558.187-.105.067-.213.17-.324.309-.128.197-.259.459-.395.787-.446 1.17-.705 2.379-.777 3.629-.043.741.01 1.342.159 1.802.113.313.245.554.395.723.236.217.491.341.766.372.072.019.195.033.369.043.553.032 1.32.003 2.302-.086 1.496-.162 2.843-.391 4.041-.686.651-.167 1.178-.333 1.581-.5.269-.115.457-.214.564-.295.212-.134.344-.279.397-.437.265-.553.42-1.215.464-1.985.072-1.243-.23-2.332-.905-3.266zm-.75.481c.583.763.844 1.674.783 2.735-.034.589-.16 1.143-.38 1.662-.001.029-.108.103-.319.222-.374.168-.886.336-1.538.502-.917.239-2.022.445-3.315.618-1.248.147-2.206.202-2.874.163l-.304-.039c-.073-.004-.158-.046-.256-.124-.111-.094-.2-.318-.267-.672-.057-.28-.071-.674-.041-1.183.052-.901.212-1.796.482-2.684.142-.444.271-.772.385-.984l.148-.297.026-.064.022.001.021.001-.023.021.29-.093c.222-.06.633-.109 1.233-.148l5.085-.21c.189.011.355.05.497.116.127.066.204.128.229.188l.02.045-.007.109z" fill="#1a1d1e"/><path d="m294.29 113.2-.602-3.328-11.375 2.113.612 3.298z" fill="#68460b"/><path d="m293.691 111.248c-.003-.163-.108-.6-.315-1.313l-9.768 1.891c.034.065.281.633.741 1.706.054.07.149.111.285.122.124.017.209.006.254-.034.051-.059.085-.323.103-.792l.259.308c.193.211.354.316.484.314.56.004.865-.041.915-.133.057-.111.098-.379.123-.802l.24.318c.192.179.349.245.472.197.207-.075.518-.155.933-.24l-.004-.81.328.346c.224.211.366.293.424.247.044-.04.307-.087.788-.14.442-.034.665-.077.671-.129l.064-.821.111.213c.087.135.176.196.267.181l1.284-.226c.897-.106 1.343-.241 1.341-.403z" fill="#82530f"/><path d="m288.23 112.149c.793-.052 1.215-.108 1.266-.167.058-.047.511-.185 1.36-.414.842-.241 1.292-.386 1.349-.432.109-.106.415-.495.918-1.167l-9.515 1.857.657.741.568.098c.391.058.632.064.722.017.078-.041.327-.097.749-.169.389-.071.609-.137.66-.196.058-.047.48-.103 1.266-.168z" fill="#9b5e0e"/><path d="m294.677 113.613-.773-4.174-12.231 2.264.763 4.154zm-1.478-3.167.451 2.472-10.509 1.932-.441-2.452z" fill="#1a1d1e"/><path d="m284.083 119.158-2.326-12.445-50.877 9.557-11.76 14.026z" fill="#b0aba7"/><path d="m273.892 109.754-.183-1.578-43.022 8.195-11.363 13.893 1.496-.386c-.031.066 1.931-1.867 5.886-5.798 1.998-1.96 3.988-3.932 5.972-5.917z" fill="#eae7e5"/><path d="m279.69 110.915-.374-.764-.551-2.568-1.908.305.397 2.697-.198.989-42.489 8.04-7.378 8.791c.069.226 9.132-1.158 27.191-4.154 9.032-1.491 18.058-3.012 27.076-4.561z" fill="#7f7974"/><path d="m276.871 107.586-.091.392 2.38 12.121 1.04-.222-2.317-12.474z" fill="#47433f"/><path d="m284.392 119.612-2.477-13.301-51.46 9.664-12.622 15.066zm-3.182-12.294 2.145 11.579-63.308 10.867 10.88-12.977z" fill="#1a1d1e"/><path d="m276.457 106.177-3.162.59 2.897 15.665 3.162-.589z" fill="#837d73"/><path d="m275.267 107.339.336-.913c-1.102.246-1.744.4-1.925.462-.104.021-.131.109-.083.265.02.071.051.145.091.223l2.036 13.21c.042.142.131.203.267.181s.223-.092.26-.209c.049-.157-.278-4.563-.982-13.219z" fill="#ada79e"/><path d="m274.395 106.612.428 1.623 1.842-.714-.169-1.364z" fill="#ada79e"/><path d="m273.845 106.973 1.183 9.447-.314-8.252c.813-1.21 1.168-1.756 1.066-1.638-.102.119-.747.267-1.935.443z" fill="#eae7e5"/><path d="m281.575 105.233-3.143.579 2.878 15.676 3.162-.59z" fill="#837d73"/><path d="m280.453 106.433.336-.914-1.934.443c-.097.034-.125.122-.084.264.028.085.058.159.092.223l2.036 13.211c.048.155.14.222.277.2.136-.021.219-.098.25-.228.056-.144-.268-4.544-.973-13.199z" fill="#ada79e"/><path d="m279.58 105.559.306 2.006 1.944-1.087-.216-1.265z" fill="#ada79e"/><path d="m280.898 105.635c-.102.118-.737.269-1.905.451l1.163 9.458-.304-8.282c.8-1.204 1.149-1.746 1.046-1.627z" fill="#eae7e5"/><path d="m281.303 121.049-.097.617 3.143-.58-2.878-15.675 1.021 10.836-.04 2.85c-.008.3-.391.95-1.149 1.952z" fill="#544f49"/><path d="m276.103 121.79-.116.627 3.162-.59-2.897-15.665 1.04 10.826-.06 2.86c-.008.3-.384.947-1.129 1.942z" fill="#544f49"/><path d="m276.849 105.654-4.018.74 3.048 16.522 4.018-.74zm-3.011 1.446 2.306-.439 2.746 14.809-2.316.42z" fill="#1a1d1e"/><path d="m281.967 104.709-4.018.741 3.048 16.521 4.018-.74zm-3.011 1.446 2.306-.439 2.746 14.809-2.316.42z" fill="#1a1d1e"/><path d="m296.384 108.909-3.162.59.773 4.223 3.163-.59.675-2.198z" fill="#837d73"/><path d="m295.101 109.233c-.954.153-1.449.304-1.486.455-.016.189-.007.504.026.946.035.539.118.808.248.806.546-.022 1.21-.196 1.992-.522 1.092-.454 1.418-.976.979-1.568-.173-.238-.76-.277-1.759-.117z" fill="#ada79e"/><path d="m293.522 109.367-.076.089c-.017.189-.036.372-.059.548-.014.351.008.52.067.506 2.357-.67 3.492-1.057 3.406-1.16-.053-.07-.198-.159-.434-.266l-.344-.14z" fill="#eae7e5"/><path d="m297.58 110.919-.428-1.057c-.35 1.216-.586 1.913-.706 2.091-.057.112-.355.217-.893.318-.603.101-.918.158-.944.171-.077.041-.25-.148-.517-.567l-.401-.627.483 2.012.946-.026c.773-.058 1.532-.191 2.277-.399.331-.467.392-1.106.183-1.916z" fill="#544f49"/><path d="m296.661 108.495-.138-.076-3.746.697.943 5.069 3.659-.676.077-.04c.194-.101.356-.309.488-.623.239-.453.297-1.082.173-1.887-.086-.448-.233-.871-.441-1.271-.181-.349-.401-.644-.659-.887-.211-.185-.33-.287-.356-.306zm-.347.845c.037.03.08.065.128.105.179.186.332.401.46.646.161.31.274.653.339 1.029.101.571.076 1.027-.074 1.368l-.144.197-.019.01-2.588.463-.613-3.347z" fill="#1a1d1e"/><path d="m234.493 119.284-.117.012-.066.108-7.206 8.602c-.248.31-.414.544-.496.701l.797.348 7.323-9.131 29.602-5.902z" fill="#1a1d1e"/><path d="m285.175 111.576-.87-.064.049.565c.075.585.136.971.185 1.159.072.389.172.771.302 1.146l.233.494c-.041-.142-.074-.314-.096-.515-.029-.527-.032-.911-.01-1.152.043-.547.086-.922.128-1.124z" fill="#1a1d1e"/><path d="m287.132 111.27-.403-.16c-.056.144-.095.321-.118.529-.052.34-.046.714.019 1.123.065.376.169.732.311 1.068l.161.31.09.125-.07-.136-.104-.339c-.116-.35-.174-.697-.173-1.042-.011-.273.028-.622.119-1.046z" fill="#1a1d1e"/><path d="m289.034 111.14-.385-.218c-.075.138-.134.308-.177.511-.105.333-.147.708-.127 1.124-.007.365.051.728.174 1.091l.103.34.061.116-.041-.127-.065-.36c-.052-.383-.061-.731-.027-1.044.052-.404.144-.747.276-1.029z" fill="#1a1d1e"/><path d="m291.22 110.616-.384-.219c-.076.138-.135.309-.177.511-.105.334-.148.708-.128 1.125-.007.364.052.727.175 1.09l.103.34.06.116-.041-.126-.064-.361c-.052-.383-.061-.731-.027-1.043.051-.405.143-.748.275-1.03z" fill="#1a1d1e"/><path d="m292.475 110.38-.45-.061.038.546c.045.338.149.694.311 1.068.162.343.359.658.592.947l.338.365-.29-.415c-.201-.322-.346-.648-.436-.978-.083-.285-.131-.629-.144-1.032z" fill="#1a1d1e"/><path d="m290.609 118.676-1.186-.971c-.341-.149-.755-.287-1.24-.413-.94-.246-1.721-.293-2.343-.142-.622.152-1.132.499-1.529 1.042-.2.265-.344.514-.432.748l.004 3.479.724.846c.624.586 1.249.953 1.876 1.102 1.442.322 2.462.531 3.06.627.116-.242.443-1.723.981-4.442z" fill="#fcebd6"/><path d="m285.291 120.167c.272.002-.23-.127-1.505-.389l.052 1.207.196.309c.254.218.67.393 1.247.525.932.217 1.936.197 3.012-.061l-.386 3.877.105.311c.109.182.243.229.4.142.266-.132.542-.394.829-.787.386-.525.607-1.081.661-1.668l.546-3.784c-.319.326-.769.589-1.348.79-1.179.376-2.449.218-3.809-.472z" fill="#c6b39e"/><path d="m286.213 116.689-.454.076-.416.134-.435.23-.362.254c-.271.224-.476.444-.613.662l-.395.806-.004.069-.015.026c.076 1.411.176 2.574.301 3.49.096-.694.199-1.829.309-3.404l-.016.026.02-.095c-.002.022-.003.045-.004.069l.149-.289.217-.284c.139-.158.308-.316.506-.474l.288-.19.305-.127c.133-.066.253-.098.359-.096l.327-.042c.444-.029.932.021 1.464.15l1.426.432c.241.2.573.458.998.772-.015.412-.016.97-.005 1.674l-.005-.021-.627 5.003c-.063.273-.137.503-.222.692.08-.097.187-.314.323-.652.097-.312.171-.542.222-.692.137-.443.258-.92.363-1.43.118-.514.3-1.466.545-2.857l-.005-.021c.096-.824.156-1.443.181-1.857l.018-.185-1.321-1.138-.054-.031-.047-.01c-.21-.109-.472-.212-.784-.31l-.808-.235-.85-.134c-.409-.011-.702-.008-.879.009z" fill="#1a1d1e"/><path d="m284.003 121.686c-.051.089-.063.16-.034.213l.341.428c.259.292.479.467.66.524.789.301 1.288.424 1.499.367 1.392-.764 1.989-1.18 1.79-1.247-.099-.034-.512-.029-1.238.015-.815.052-1.307.071-1.477.056-.247-.024-.565-.112-.952-.265l-.506-.203z" fill="#fcf1e6"/><path d="m288.764 116.594c-1.248.514-2.724.149-4.428-1.098l-1.192.952-.012 2.489.565.843c.676.557 1.782.863 3.319.919 1.246.043 2.327-.283 3.24-.98.449-.346.777-.697.983-1.054l-.265-2.595-.847-.632c-.285.513-.739.898-1.363 1.156z" fill="#885e20"/><path d="m283.601 116.552-.419-.724-.199 2.38.486 1.565.366.354c.533.249 1.498.39 2.892.423 1.423.026 2.565-.181 3.426-.623.476-.247.819-.543 1.029-.885.117-.182-.008-1.353-.376-3.515l-.035.123c-.06.227-.219.503-.479.828-.078.835-.197 1.431-.357 1.791-.306.654-.863 1.052-1.669 1.192-.489.086-1.121.089-1.895.01-.806-.086-1.379-.226-1.717-.422-.285-.165-.546-.63-.781-1.395z" fill="#66441b"/><path d="m282.646 118.977c.002.064.019.157.052.28.132.492.465.892.999 1.201.753.446 1.84.683 3.263.709.706-.009 1.326-.084 1.86-.227.773-.207 1.451-.546 2.032-1.018.296-.245.522-.471.677-.679l.078-.133-.258-3.411-1.422-.84-.237.38c-.083.143-.202.288-.359.435-.309.309-.674.519-1.096.632-.436.117-.928.105-1.478-.034-.69-.161-1.431-.536-2.221-1.123l-.257-.202-1.636 1.319zm1.656-2.929c.769.546 1.513.904 2.231 1.075.709.172 1.352.181 1.928.027.604-.162 1.106-.455 1.505-.878.084-.081.161-.162.229-.242l.321.186.186 2.639c-.447.571-1.149.985-2.108 1.242-.492.131-1.033.193-1.622.185-1.236-.001-2.183-.192-2.842-.572-.325-.2-.521-.426-.589-.679l-.016-.063-.001-2.282z" fill="#1a1d1e"/><path d="m290.836 115.135c.033-.159.046-.562.038-1.208-.018-.688-.053-1.213-.105-1.576-.049-.634-.087-1.084-.112-1.348-.039-.427-.177-.744-.413-.952-.039-.034-.177-.043-.413-.025-.208.011-.334-.008-.377-.057-.18-.223-.341-.345-.483-.368-.219-.032-.477-.038-.773-.019-.279.029-.472.066-.581.11-.143.084-.255.174-.334.271l-.062.106c-.019-.07-.082-.136-.189-.198-.217-.137-.558-.174-1.023-.11-.176.017-.346.115-.509.294l-.197.279c-.016-.116-.072-.214-.169-.294-.168-.18-.42-.219-.753-.114-.362.112-.629.296-.801.553-.111.15-.244.442-.399.875-.033.099-.013.289.063.571.111.361.173.676.185.944.016.117-.057.294-.219.533-.148.236-.212.419-.192.549.135 1.124.307 1.823.516 2.099.369.534.974.967 1.816 1.299.711.292 1.241.413 1.589.365 1.589-.199 2.716-.689 3.381-1.469.332-.39.504-.76.516-1.11z" fill="#885e20"/><path d="m283.272 113.634.137.935c.058.105.665-.162 1.819-.803.896-.255 1.345-.435 1.346-.541.02-.095-.823-.149-2.528-.159-.492.357-.75.547-.774.568z" fill="#a36f29"/><path d="m285.138 110.221c-.047-.063-.124-.125-.23-.187-.107-.062-.191-.092-.251-.091l-.084.022c-.459.198-.752.427-.878.687-.158.313-.248.511-.271.592-.057.181-.029.287.084.317.192.039.453.029.784-.029.397-.091.65-.242.76-.452.195-.399.223-.685.086-.859z" fill="#a36f29"/><path d="m286.504 109.584-.079.044c-.459.198-.752.427-.878.686-.27.57-.332.872-.186.909.145.036.431-.048.858-.253.456-.212.736-.43.842-.654.113-.196.15-.311.111-.346-.064-.013-.117-.044-.161-.093-.168-.18-.338-.278-.507-.293z" fill="#a36f29"/><path d="m288.498 109.434-.084.023c-.456.212-.747.448-.873.708-.167.331-.253.519-.255.565-.071.185-.05.292.063.322.146.037.432-.048.859-.252.456-.212.736-.431.842-.655.099-.192.136-.307.111-.346-.078-.009-.139-.038-.182-.087-.047-.063-.124-.125-.231-.187-.107-.061-.19-.092-.25-.091z" fill="#a36f29"/><path d="m289.891 109.83-.042.011c-.309.143-.496.313-.564.512-.165.451-.189.699-.072.743.099.033.289-.017.569-.153.305-.156.487-.318.548-.485.065-.153.077-.247.038-.281-.05-.017-.087-.045-.113-.083-.123-.178-.244-.266-.364-.264z" fill="#a36f29"/><path d="m287.788 113.962c.037-.311.001-.505-.11-.58-.057-.045-.216.035-.478.24-.306.263-.501.406-.586.428-.042.012-.292.033-.751.066-.356.02-.56.074-.611.163-.079.157-.33.345-.753.563-.452.227-.765.295-.939.207l-.05.487c.013.389.153.713.418.973.287.285.733.542 1.336.772.533.189.894.273 1.085.252-.585-.325-.947-.582-1.088-.771-.141-.188-.098-.365.129-.531.053-.029.415-.224 1.086-.585.533-.263.864-.517.994-.763.161-.299.267-.606.318-.921z" fill="#6d4a1b"/><path d="m290.724 114.465-.024-.513-1.316.148c-.028.008-.077.051-.146.13-.08.096-.162.156-.246.179-.29-.013-.546-.013-.768.002-.134.005-.339.083-.615.232-.375.176-.645.293-.81.352-.452.227-.847.408-1.188.544-.634.275-1.256.427-1.866.455l1.466 1.257c.029-.174.29-.492.784-.956.312-.294.801-.553 1.464-.776.348-.108.753-.224 1.217-.348.306-.097.63-.266.971-.508z" fill="#66441b"/><path d="m290.521 113.706c.166-.225.234-.394.204-.507l-.183-1.442c-.376.116-.713.176-1.013.181-.184-.011-.3-.161-.347-.45l-.069-.343c-.007.198-.043.373-.108.526-.133.292-.418.436-.856.432-.494.012-.789-.135-.886-.44l-.003-.18c-.012.073-.037.148-.075.223-.164.345-.5.526-1.008.541-.434.011-.747-.146-.94-.471l-.151-.48c-.004.152-.041.297-.109.436-.143.31-.361.481-.653.514-.451.06-.74-.005-.867-.198-.03.054-.02.232.03.535.024.144.055.287.092.427l3.775.007c.163-.014.279.422.35 1.307.022.25.223.355.604.313.288-.047.517-.123.684-.228.067-.033.133-.096.198-.189.087-.068.272-.11.554-.126.322.02.581-.11.777-.388z" fill="#6d4a1b"/><path d="m289.587 109.618.042-.012-.355-.311c-.089-.052-.188-.086-.298-.101l-.731-.031c-.324.027-.55.057-.676.091l-.205.077c-.085.041-.164.084-.237.131-.051-.025-.109-.047-.175-.066-.281-.09-.632-.109-1.055-.056l-.126.033c-.188.051-.352.14-.494.268-.116-.078-.244-.135-.384-.168-.191-.04-.399-.029-.624.031l-.084.023c-.46.157-.795.397-1.005.72-.1.133-.256.453-.466.961-.027.068-.041.184-.042.35l.182.765c.064.239.094.434.089.586.017.013.01.045-.019.096l-.371.641c-.032.22-.042.351-.031.393.081.581.173 1.068.279 1.462l.145.458.191.378c.427.579 1.091 1.064 1.994 1.455l1.011.317.425.067c.184.011.311.007.381-.012.395-.045.796-.122 1.203-.231 1.227-.313 2.099-.856 2.616-1.626.286-.393.44-.774.463-1.141l-.022.005.024-.164c.077-.894.047-1.797-.092-2.709-.016-.117-.035-.413-.057-.889-.05-.469-.09-.759-.12-.872-.051-.302-.213-.568-.485-.796-.043-.049-.13-.094-.261-.134l-.588-.001.118.104-.112-.083zm.072.861.291-.01c-.007-.021-.02-.041-.038-.057l.128.056-.069-.004-.021.005c.082.081.138.179.169.294.012.042.042.268.091.676.011.494.033.828.064 1 .061.285.1.794.115 1.528l-.03 1.07.006.021-.016.027-.009.048c-.021.261-.145.528-.374.8-.39.511-1.07.897-2.04 1.156-.31.083-.674.158-1.093.225l-.159-.003c-.417-.039-.901-.188-1.452-.447-.623-.3-1.084-.644-1.383-1.031l-.195-.558c-.094-.351-.177-.804-.25-1.357l.35-.635c.061-.107.093-.244.093-.41l-.297-1.366c.124-.338.236-.594.336-.768.163-.179.355-.306.577-.38l.042-.011c.112-.031.186-.035.222-.015l.08.047.032.036.273 1.102.535-.956.129-.193c.083-.083.16-.133.23-.152l.021-.006c.349-.048.595-.031.737.052l.027.015.006.021.633 1.186.165-1.241.188-.141.021-.006.481-.061c.193-.009.375-.005.546.013l.021-.006.027.015c-.014-.002-.03-.005-.048-.009l.112.082.151.141c.051.077.135.137.252.181z" fill="#1a1d1e"/><path d="m287.686 112.566-.027-.015-.021.005-.026-.015-.022.005c-.045-.002-.082 0-.111.008l-.021.005-1.573-.053c-.819-.022-1.437-.022-1.853-.001l-.075-.026-1.019.499.426.745.76-.452c.418.032.998.057 1.738.077l1.508-.02.04.148.002.429-.058.377-.061.107-.052.059-.073.064c-.112.091-.362.255-.749.495l-.786.526.907-.242c.4-.138.7-.256.899-.354l.116-.076c.042-.011.08-.037.115-.076.111-.09.184-.185.217-.284.079-.157.131-.329.156-.517.043-.177.065-.348.066-.514-.004-.24-.027-.437-.068-.592l-.076-.115-.097-.11c-.09-.051-.15-.08-.182-.087z" fill="#1a1d1e"/><path d="m289.397 114.232c.218-.031.409-.075.575-.131.323-.087.54-.205.651-.355-.14.098-.365.158-.675.181l-.695-.063-.122-.035-.143.309-.286.032-1.172-.161-.081.88 1.337-.154c.298-.125.459-.198.483-.22l.079-.044.025-.074z" fill="#1a1d1e"/><path d="m289.369 109.992-.427.092.017.063-.004.069.187 1.712.221-1.708-.008-.111z" fill="#1a1d1e"/><path d="m289.035 114.059.429-.002-.25-1.018z" fill="#1a1d1e"/><path d="m289.712 114.984c.086-.294.088-.43.003-.407-.046-.003-.504.225-1.375.684-.872.459-1.253.697-1.143.713.145.036.473.024.984-.038.581-.08.952-.187 1.112-.32.178-.123.318-.334.419-.632z" fill="#a36f29"/><path d="m285.064 117.968c-.489-.14-.763-.233-.82-.278l.123.374c.145.263.343.466.592.61.268.154.635.26 1.101.315.358.04.636.041.837.003.218-.029.582-.164 1.089-.405.522-.245.629-.379.322-.402-.216-.018-.611-.003-1.185.046-.501.043-.831.049-.99.016-.237-.042-.594-.135-1.069-.279z" fill="#a36f29"/><path d="m281.436 150.16c.594-1.821.925-3.039.995-3.654.325-3.02-.747-4.475-3.215-4.365-.948.047-1.899.332-2.854.855-.935.516-1.57 1.091-1.906 1.725-1.05 1.998-1.457 4.531-1.22 7.598.08.931.299 1.763.658 2.494.383.829.894 1.45 1.533 1.861 1.312.825 2.505.44 3.579-1.152.837-1.217 1.647-3.004 2.43-5.362z" fill="#322e27"/><path d="m281.153 151.48c.084-.265-.002-1.029-.26-2.291l-1.106-.231c-2.385-.38-3.67-.077-3.856.909-.177 1.006-.299 2.023-.364 3.051-.054 1-.03 1.655.071 1.963.093.253.529.485 1.31.695.719.196 1.258.274 1.619.236.394-.039 1.256-1.483 2.586-4.332z" fill="#474137"/><path d="m282.708 144.567c-.385-1.053-1.041-1.79-1.967-2.212l-1.265-.337c-.878.236-1.776.574-2.693 1.014-1.835.878-2.857 1.855-3.065 2.931-.338 1.711-.424 3.243-.259 4.595l.166-1.919 6.269-.55.915-2.385c1.664-.004 2.198.68 1.602 2.051-.604 1.387-.712 1.665-.324.837.263-.242.481-.594.653-1.054.364-.927.354-1.918-.032-2.971z" fill="#28251f"/><path d="m282.87 146.962.057-.357c.141-1.195.052-2.2-.269-3.015-.312-.758-.81-1.312-1.494-1.662-.517-.263-1.137-.392-1.861-.384-.921.026-1.87.286-2.846.781-.943.495-1.633 1.059-2.071 1.692-.245.354-.493.81-.743 1.368-.493 1.101-.812 2.291-.957 3.57-.126 1.237-.071 2.396.166 3.476.277 1.255.507 2.1.69 2.536.381.948.919 1.642 1.613 2.083l.314.16c.728.406 1.458.462 2.19.168.665-.26 1.266-.776 1.8-1.547.406-.598.824-1.378 1.255-2.34.531-1.184 1.062-2.635 1.591-4.351zm-.861-.491-.031.241c-.501 2.227-1.201 4.345-2.101 6.351-.413.92-.809 1.651-1.19 2.194-.45.66-.911 1.076-1.382 1.246-.485.164-.972.12-1.461-.129l-.23-.118c-.505-.326-.91-.858-1.214-1.596-.175-.414-.392-1.211-.653-2.389-.211-.946-.251-2.003-.123-3.171.122-1.188.407-2.284.857-3.288.231-.515.457-.923.677-1.221.257-.383.595-.715 1.013-.998.738-.497 1.53-.829 2.377-.996.88-.202 1.627-.146 2.241.168.475.242.811.62 1.01 1.132.26.646.33 1.504.21 2.574z" fill="#1a1d1e"/><path d="m275.903 158.803-4.414-1.95-2.323 2.176c.821.481 2.245 1.144 4.274 1.989.127-.264.563-.698 1.309-1.304.727-.57 1.112-.873 1.154-.911z" fill="#664217"/><path d="m268.962 159.239c.014.082.554.396 1.62.943.864.442 1.746.85 2.647 1.222l.558.241.219-.449c.016-.052.117-.179.303-.383l.553-.547 1.86-1.538-5.293-2.332-2.759 2.648zm1.038-.298 1.666-1.593 3.553 1.552c-.661.53-1.05.847-1.167.951l-.616.604c-.043.047-.085.093-.124.138-.708-.303-1.405-.63-2.089-.981z" fill="#1a1d1e"/><path d="m278.634 155.556c-.176-.524-1.374-1.086-3.594-1.685-.099-.007-.67.33-1.711 1.008-.532.34-1.086.7-1.661 1.078-.102.053.127.237.686.554.602.354 1.271.667 2.007.939.658.248 1.322.386 1.992.415.333.007.602-.005.806-.035z" fill="#322e27"/><path d="m279.92 155.52-.858-.372-2.201 2.35c-.693.058-1.44-.063-2.241-.363-.445-.153-.923-.361-1.436-.624l-.863-.51 2.865-1.92.016-.014-.175-.27.041-.405c-.086.001-.176.014-.27.041s-.157.054-.189.083c-.228.107-.495.269-.803.486l-2.379 1.63-.016.015-.02-.011-.033.029-.016.014.032-.029-.032.029-.08.071c-.074.066-.117.142-.127.226-.005.043.02.115.074.218l.199.192c.284.22.662.452 1.135.694.567.29 1.086.519 1.558.686 1.143.422 2.194.557 3.153.405l.217-.023z" fill="#1a1d1e"/><path d="m277.199 157.738c-.943-.543-2.022-1.059-3.238-1.548-.607-.236-1.179-.447-1.715-.632-.108-.056-.415.094-.92.448-.255.169-.495.345-.723.528.674.48 1.581.997 2.722 1.552.778.369 1.508.646 2.193.833.555.149.902.2 1.041.152.564-.803.778-1.248.64-1.333z" fill="#88601e"/><path d="m276.989 157.81-.219-.202c-1.993-1.066-3.484-1.689-4.475-1.867-.212.056-.204.209.024.461.225.235.516.429.875.583.542.218 1.26.489 2.152.811 1.113.392 1.702.559 1.766.502.054-.047.013-.143-.123-.288z" fill="#a57329"/><path d="m276.615 159.078c.081-.033.118-.067.112-.099-.016-.099.003-.239.058-.42-1.048-.223-2.153-.64-3.317-1.251-.58-.298-1.058-.573-1.434-.825l-.024-.574-.403.13c-.311.125-.588.268-.831.427.596.68 1.71 1.326 3.342 1.938 1.431.524 2.264.749 2.497.674z" fill="#704c19"/><path d="m277.768 157.941c.008-.101.01-.16.007-.176l-.041-.134c-.049-.069-.101-.118-.155-.146l-.955-.512c-.837-.429-1.744-.834-2.72-1.215l-1.221-.447-.081-.041-.016.014c-.111-.072-.239-.1-.384-.084-.11.003-.253.035-.427.095-.045.022-.214.115-.506.279-.332.219-.677.469-1.035.749l-.309.246.317.229c.546.385 1.278.812 2.195 1.283l.608.311c.841.387 1.599.678 2.273.874l.784.155c.115.029.222.039.318.029.148.001.274-.017.379-.053l.036-.004.016-.014.153-.079.06-.082c.032-.028.106-.132.223-.311l.387-.655zm-1.116.169-.374.616-.113-.013c-.676-.138-1.516-.441-2.52-.911l-.567-.29c-.297-.152-.814-.44-1.551-.863l-.19-.142c.195-.138.367-.252.513-.343.144-.099.255-.169.333-.211l1.477.533c.873.358 1.648.71 2.323 1.056l.733.398z" fill="#1a1d1e"/><path d="m275.261 161.84c.231-.017.4-.072.507-.167.214-.19.335-.42.362-.69.052-.557-.383-1.049-1.306-1.477-.936-.435-1.785-.579-2.548-.431-.378.09-.665.212-.86.367l.056.545c.251.458.924.937 2.02 1.439.696.327 1.286.465 1.769.414z" fill="#9e9990"/><path d="m272.833 159.204-.729.052c-.543.066-.932.166-1.168.3-.289.181-.333.352-.133.515.084.058.49.273 1.219.647.352.33.944.626 1.777.889.739.214 1.26.309 1.563.285.559-.043.809-.312.748-.806-.399.184-.96.143-1.682-.122-.588-.197-1.081-.449-1.478-.758-.268-.197-.373-.415-.316-.655.031-.179.098-.295.199-.347z" fill="#827c73"/><path d="m272.501 158.988c-.438.03-.809.095-1.112.194l-.527.156c-.255.094-.421.165-.498.215l-.274.13.285.37.41.345.604.4c.276.171.704.405 1.284.703l.324.166c.135.069.248.119.34.151l.784.268c.297.077.612.119.945.125.186.005.367-.014.544-.058l.278-.104.269-.154c.104-.111.192-.246.263-.404l.114-.413-.072-.418-.228-.364c-.066-.093-.175-.195-.329-.303l-.378-.261c-.029-.03-.166-.108-.409-.232l-.461-.214c-.696-.252-1.414-.351-2.156-.298zm-.854.617c.3-.115.607-.19.922-.223.66-.095 1.286-.036 1.876.177l.802.366.32.254c.084.058.161.15.232.276l.082.154.04.447-.135.29-.216.248-.053.018-.124.026-.259.002c-.174-.015-.374-.065-.598-.149l-.315-.117-2.79-1.408-.251-.173.052-.019z" fill="#1a1d1e"/><path d="m275.658 160.495c-.042-.171-.125-.296-.249-.375-.111-.072-.499-.218-1.165-.44-.73-.24-1.078-.291-1.042-.152.056.177.391.447 1.007.807.629.368 1.051.532 1.266.492.204-.03.265-.141.183-.332z" fill="#c1bbb2"/><path d="m266.842 142.937c-2.744.708-3.507 2.502-2.29 5.381.215.547.924 1.657 2.127 3.328 1.554 2.139 2.978 3.699 4.273 4.681 1.555 1.166 3.015 1.134 4.381-.095.687-.608 1.161-1.306 1.421-2.094.28-.819.292-1.64.034-2.461-.497-1.524-.946-2.738-1.35-3.643-.793-1.762-1.665-3.103-2.616-4.024-.561-.55-1.431-.93-2.609-1.138-1.203-.212-2.327-.191-3.371.065z" fill="#322e27"/><path d="m275.517 149.194c-.517-1.938-1.616-2.566-3.298-1.885-2.023.203-2.95.746-2.782 1.628.19.885.467 1.565.829 2.04.362.478 1.032 1.274 2.009 2.387 1.289 1.49 2.076 2.208 2.36 2.154.348-.055.832-.328 1.45-.821.634-.502.981-.892 1.042-1.171.067-.301-.133-1.101-.599-2.399-.47-1.334-.807-1.978-1.011-1.933z" fill="#474137"/><path d="m272.773 142.664-4.668-.494c-.525.139-1.083.353-1.673.643-1.202.61-1.995 1.326-2.38 2.15s-.253 1.878.397 3.163c.305.644.658 1.204 1.059 1.68.776 1.224 1.151 1.603 1.125 1.137-.014-.473-.374-.936-1.078-1.389 1.34-.394 2.351-.94 3.034-1.635.682-.692.547-1.857-.406-3.494-.954-1.642-.32-1.124 1.902 1.552l.616.369 3.402-.841.776 1.509z" fill="#28251f"/><path d="m273.935 143.078c-.3-.423-.8-.766-1.501-1.029-.926-.337-2.007-.453-3.242-.347-1.316.115-2.452.453-3.41 1.014-1.003.587-1.672 1.343-2.006 2.268-.379 1.045-.291 2.219.264 3.521l.15.305 1.245 1.853c.897 1.27 1.722 2.33 2.473 3.181 1.038 1.226 2.022 2.193 2.952 2.901.686.515 1.356.825 2.01.928.659.082 1.308-.064 1.946-.438.259-.151.554-.371.888-.659l.877-.766c.466-.404.778-.783.936-1.138.187-.465.233-1.024.136-1.678-.062-.544-.195-1.158-.399-1.843-.921-3.127-1.997-5.76-3.23-7.901zm-.912.534.033.093c.794 1.368 1.578 3.116 2.352 5.244.375 1.109.637 1.937.788 2.485.236.759.369 1.327.398 1.703.044.367.046.674.006.922-.051.292-.198.555-.44.791l-1.186 1.058c-.357.285-.597.462-.719.533-.395.232-.792.324-1.19.277-.448-.056-.938-.293-1.47-.712-.754-.55-1.705-1.47-2.854-2.762-.727-.846-1.525-1.885-2.394-3.115l-1.203-1.793-.103-.192c-.445-1.087-.524-2.05-.238-2.891.267-.718.78-1.299 1.54-1.743 1.095-.641 2.4-.937 3.916-.89.745.051 1.326.159 1.745.326.492.179.832.401 1.019.666z" fill="#1a1d1e"/><path d="m276.971 159.281-5.031-.221.246 3.758c1.038.189 2.681.305 4.931.347-.14-.399-.202-1.142-.188-2.229.038-1.036.052-1.588.042-1.655z" fill="#664217"/><path d="m277.536 159.526-.036-.727-5.995-.236.307 4.484.378.122c1.122.322 2.823.504 5.104.546l.628.018-.237-.624-.091-.45c-.067-.451-.101-1.111-.102-1.98l.013-.877zm-4.038 2.901-.786-.116-.166-2.731 3.992.182-.011 1.053c-.003.736.033 1.354.107 1.854l.004.025c-1.132-.03-2.179-.119-3.14-.267z" fill="#1a1d1e"/><path d="m276.097 154.051c-.593-.545-1.985-.638-4.175-.28-.075.034-.198.712-.37 2.035-.077.669-.166 1.363-.267 2.083-.031.117.308.239 1.016.365.755.126 1.524.176 2.305.151.701-.025 1.319-.182 1.852-.472.252-.136.441-.272.565-.407z" fill="#322e27"/><path d="m276.797 155.197-.396-.722c-.212-.132-.495-.204-.849-.217-.402-.012-.685.083-.847.285-.173.236-.306.53-.397.882-.084.302-.101.511-.051.627.329.598.882.977 1.658 1.135.729.16 1.107.114 1.134-.137.068-.619-.016-1.237-.252-1.853z" fill="#474137"/><path d="m277.22 153.839-.967-.04.25 3.457c-.513.408-1.169.624-1.971.648l-.263.003c-.704.008-1.345-.044-1.922-.155l-.399-.096.335-3.889-.96-.315-.355 4.24.004.025c-.022.066-.028.133-.018.201.017.117.074.233.172.349.037.033.135.099.293.197.122.066.299.122.53.17.654.194 1.477.285 2.468.274l.288-.003c1.227-.047 2.13-.383 2.71-1.007l.122-.152z" fill="#1a1d1e"/><path d="m276.977 157.376c-1.184-.204-2.44-.299-3.768-.285-.674-.009-1.296.006-1.867.045-.115-.015-.204.303-.267.956-.03.335-.052.669-.067 1.003.922.275 2.056.463 3.401.565.908.074 1.7.065 2.375-.026.547-.089.851-.201.911-.336-.298-1.25-.537-1.891-.718-1.922z" fill="#88601e"/><path d="m276.887 157.577-.334-.146c-2.433-.308-4.096-.34-4.989-.096-.117.185.022.367.417.547.38.179.77.275 1.173.288.53.011 1.303-.015 2.32-.076 1.176-.063 1.766-.136 1.769-.22.002-.1-.117-.199-.356-.297z" fill="#a57329"/><path d="m277.739 159.273c.038-.067.038-.126-.002-.175-.113-.116-.227-.29-.342-.523-.975.228-2.165.257-3.568.089-.7-.076-1.3-.178-1.799-.306l-.537-.697-.163.353c-.116.302-.198.612-.247.93 1.056.524 2.46.759 4.215.707 1.531-.05 2.345-.176 2.443-.378z" fill="#704c19"/><path d="m277.419 157.12-.138-.123c-.12-.049-.205-.082-.255-.098-1.234-.22-2.595-.323-4.083-.306l-1.652.043c-.144.001-.25.044-.317.128-.086.068-.151.169-.195.303-.011.034-.055.227-.131.578-.05.419-.077.879-.083 1.38l-.005.451.427.121c.954.274 2.119.462 3.496.564.439.045.843.066 1.211.062.544-.006 1.08-.062 1.609-.168l.482-.156.201-.102c.086-.068.148-.136.186-.203l-.004-.025h.024l.026-.151.001-.15-.435-1.475-.211-.449zm-.639.709.098.175.293.999c-.354.138-.896.211-1.626.219-.336.003-.716-.018-1.139-.063-.778-.059-1.579-.167-2.403-.325l-.471-.095c.021-.249.044-.475.067-.678l.057-.427 1.436-.04c1.342-.015 2.571.064 3.688.235z" fill="#1a1d1e"/><path d="m279.199 163.268c.157-.135.23-.286.221-.453-.001-.335-.116-.676-.344-1.024-.456-.697-1.217-1.074-2.283-1.129-1.068-.072-1.817.17-2.247.727-.216.269-.327.546-.333.83l.525.621c.595.445 1.515.711 2.762.798.826.058 1.392-.066 1.699-.37z" fill="#9e9990"/><path d="m275.051 161.232-.513.432c-.334.338-.528.649-.582.934-.06.352.062.576.365.673.116.032.606.094 1.469.185.549.244 1.248.312 2.097.202.726-.074 1.203-.205 1.432-.391.355-.305.305-.747-.15-1.327-.148.402-.604.625-1.367.666-.618.041-1.213-.028-1.785-.206-.371-.129-.644-.344-.816-.643-.11-.199-.16-.374-.15-.525z" fill="#827c73"/><path d="m273.952 161.921c-.081.102-.163.253-.245.454l-.268.78.29.173.465.22.403.121c.202.065.467.129.797.192.333.08.858.166 1.577.259l1.183.037.424-.055c.342-.07.615-.174.819-.31.089-.051.201-.161.336-.329l.131-.252c.036-.184.052-.293.047-.327-.03-.2-.083-.4-.161-.6-.075-.183-.175-.365-.298-.548l-.407-.472c-.216-.164-.377-.271-.48-.32l-.537-.22c-.154-.065-.322-.114-.502-.145l-.54-.069c-.114-.016-.283-.022-.507-.02-.72.008-1.343.232-1.871.672-.271.22-.49.473-.656.759zm.564.395c.122-.252.286-.496.491-.732.4-.439.919-.662 1.559-.669.139-.035.291-.036.456-.005.099.016.254.039.467.07l.451.121.417.221.19.148.17.174c.111.099.202.223.272.373l.156.399c.056.167.076.3.059.401l-.016.05-.061.076-.197.128c-.105.051-.299.095-.582.131l-3.658-.361-.347-.072z" fill="#1a1d1e"/><path d="m278.3 161.423c-.187-.182-.364-.289-.529-.32-.164-.032-.587-.019-1.267.039-.742.074-1.038.186-.888.335.201.165.688.318 1.463.46.792.159 1.257.162 1.395.01.124-.135.066-.31-.174-.524z" fill="#c1bbb2"/><path d="m261.572 123.971c-2.01.752-2.476 2.646-1.398 5.682l1.048 2.022c.859 1.461 1.697 2.511 2.512 3.15 1.063.837 2.418 1.071 4.063.702 1.733-.397 2.6-1.284 2.6-2.66 0-1.263-.801-3.1-2.403-5.512-1.413-2.114-2.33-3.277-2.753-3.49-.218-.1-.662-.17-1.332-.213-.903-.028-1.682.078-2.337.319z" fill="#fcf1e6"/><path d="m267.229 128.887-.852-.787c-1.514-1.092-3.029-1.802-4.543-2.128-2.287-1.05-2.957-.284-2.01 2.298.946 2.582 1.98 3.994 3.102 4.235 1.121.241 1.842.355 2.162.341.364 0 .83-.135 1.398-.405.67-.312 1.151-.681 1.442-1.106.262-.412.393-.731.393-.958 0-.043-.051-.199-.153-.468-.043-.128-.357-.468-.939-1.022z" fill="#a38f7c"/><path d="m276.929 127.334c.043-.057.058-.185.043-.383.612-.227 1.224-.915 1.835-2.065.306-.567.554-1.113.743-1.638l-.262-5.108-5.636-3v-.149l-.153.063-.131-.063v.149l-6.204-.83-.262 8.023 2.359 2.106c1.704 1.448 2.862 2.285 3.474 2.512l1.835.553c1.325.383 1.965.433 1.922.149.029 0 .175-.106.437-.319z" fill="#5e4824"/><path d="m280.029 123.375-.283-5.426-5.855-3.129h-.021l-.044-.021-.109-.042-.503-.086c-3.975-.468-5.97-.702-5.985-.702l-.459-.064-.284 8.662 2.534 2.256c.612.525 1.267 1.049 1.966 1.574l.874.618c.277.184.531.319.764.404l1.901.575.022.021h.065l.83.191c.16.043.415.078.765.107l.393-.064.24-.17c.024-.033.039-.068.044-.107l.197-.127.021-.022h-.131c.075-.002.126-.016.153-.042l.044-.022-.066.064h.044l.109-.127c.059-.043.102-.107.131-.192l.066-.191v-.043c.328-.171.634-.434.917-.787.437-.525.838-1.178 1.202-1.958l.437-1.064zm-1.135-4.916.262 4.81c-.256.639-.511 1.186-.765 1.639-.218.411-.466.773-.742 1.085-.306.341-.576.553-.809.639l-.262.106v.383l-.022.021-.174.149h-.372l.022.149c-.195-.01-.435-.053-.721-.127l-.415-.086-.131-.042-.044-.021h-.043l-1.77-.554c-.11-.028-.299-.128-.568-.298-.757-.482-1.827-1.326-3.211-2.532l-1.769-1.575.24-7.342.546.064c.787.071 1.93.205 3.43.404l1.442.17.415.085h.043l-.24-.127v-.256c.002.102.032.18.087.235l.088.106.087.042h-.022z" fill="#1a1d1e"/><path d="m279.112 126.887c1.529-1.717 2.214-3.433 2.053-5.15l.197-2.958c-.277-.525-.517-.816-.721-.873.073.355.037.795-.109 1.32-.277 1.078-1.223 1.936-2.84 2.575-.145.936-.247 2.326-.306 4.171l-.873.745.262 2.213c.801-.511 1.58-1.192 2.337-2.043z" fill="#fcedd7"/><path d="m279.461 120.864-2.184 1.086.131.063c.088.114.117.362.088.745-.044.61-.037 1.582.021 2.916l-1.114 1.149.088.851c.742-.468 1.303-.965 1.682-1.489.378-.511.764-1.043 1.157-1.597.233-.368.452-.865.656-1.489.364-1.135.568-2.582.611-4.342z" fill="#a38f7c"/><path d="m279.528 118.119.044.617c0 .511-.117.979-.35 1.404-.349.611-.946 1.093-1.791 1.448l-.284.106.022.319c.087 1.263.131 2.412.131 3.448v.127l-1.071 1.086.11 5.554.742-.872c.699-.809 1.398-1.788 2.097-2.937 1.398-2.298 2.105-4.334 2.119-6.108l-.043-.574.087-3.491-.524-.34c-.306-.17-.525-.277-.656-.319l-.153-.022c-.131 0-.24.043-.327.128l-.109.149zm.917.553v.021l-.065 3.107.044.511c0 1.603-.663 3.497-1.988 5.682-.424.697-.846 1.314-1.267 1.852l-.066-2.831 1.071-1.085v-.468c0-.985-.037-2.064-.11-3.235.898-.412 1.539-.973 1.923-1.681.305-.539.458-1.142.458-1.809z" fill="#1a1d1e"/><path d="m276.972 130.888-.262-3.937-2.076-.405c-.131-.539-.335-1.723-.611-3.554-1.573-.624-3.24-1.681-5.002-3.17l-2.272-1.916c-.131.043-.284.199-.459.468-.087.142-.167.277-.24.405l.196 2.958c-.16 1.717 1.58 3.76 5.221 6.129 1.82 1.177 3.655 2.185 5.505 3.022z" fill="#fcedd7"/><path d="m268.475 119.651c-.146-.184-.277-.326-.393-.425-.219-.199-.306-.107-.262.276.058.469.283 1.228.677 2.278.437 1.163.83 1.901 1.179 2.213.772.738 1.886 1.475 3.342 2.213 1.122.411 2.025.695 2.709.851.655.156.954.156.896 0-.044-.113-.357-.305-.94-.574l-.873-.383-.328-2.724c-2.869-1.533-4.871-2.774-6.007-3.725z" fill="#a38f7c"/><path d="m277.169 131.611-.087-4.894-2.163-1.001.022-2.809-.328-.064c-2.082-.468-3.917-1.475-5.504-3.022-.481-.468-.925-.971-1.333-1.511l-.568-.681-.131-.085c-.087-.042-.175-.064-.262-.064l-.153.022-.24.127-.284.298c-.16.199-.299.419-.415.66l-.066.107.219 3v.021l-.022.256c0 .539.167 1.121.502 1.745.495.894 1.333 1.837 2.512 2.83 1.311 1.093 2.978 2.214 5.003 3.363 1.019.567 1.907 1.028 2.664 1.383zm-7.929-10.513c1.395 1.2 3.005 2.03 4.827 2.49v2.682l2.141.979.065 2.958c-2.018-1.041-3.686-2.013-5.002-2.916-1.398-.965-2.461-1.858-3.189-2.681-.408-.44-.743-.901-1.005-1.384-.233-.482-.349-.9-.349-1.255l.021-.192v-.064l-.218-2.83.262-.404.044.042c.815 1.064 1.616 1.923 2.403 2.575z" fill="#1a1d1e"/><path d="m285.294 123.993-1.529-1.703c-.145-.127-.378-.269-.699-.425-.626-.298-1.361-.504-2.206-.617-.189 1.972-.823 3.66-1.9 5.065-.714.95-1.457 1.61-2.228 1.979-1.398-.298-2.826-.781-4.282-1.447-2.869-1.32-4.9-3.022-6.094-5.108-2.942.979-4.966 1.603-6.073 1.873l.175.979c.32.44.983.858 1.988 1.255 1.907.469 3.495 1.462 4.762 2.98.64.766 1.085 1.482 1.332 2.149-.539.326-1.223.631-2.053.915-1.646.582-3.153.781-4.522.596.16 1.348.736 2.809 1.726 4.384.495.78.976 1.426 1.442 1.937l-2.141 7.171 1.791.788c1.296.482 2.214.66 2.752.532.597-1.32.925-1.972.983-1.958.219.043.612.05 1.18.021.32-.014.75-.042 1.289-.085.509 2.015.859 3.27 1.048 3.767l4.697 1.511 2.905-2.49c.218-.043.429-.199.633-.468.393-.525.554-1.32.481-2.384-.015-.298-.022-.503-.022-.617 0-.17.095-.269.284-.298.175-.014.466-.014.874 0 .611-.113 1.019-.305 1.223-.574l-1.42-4.704c.583-3.234.998-5.93 1.245-8.086-.233-.582-.458-1.334-.677-2.256l-.262-1.235 3.189-.787c.306-.596.342-1.483.109-2.66z" fill="#96440e"/><path d="m275.442 133.612-4.674.042c-.262-.099-.758-.468-1.486-1.106-.713-.61-1.092-.986-1.136-1.128-1.034.411-1.565.567-1.594.468-.408.227-1.165.412-2.272.553-1.107.156-1.893.185-2.359.086.029.34.196.915.502 1.723.423 1.107.656 1.738.699 1.894.204.696.648 1.355 1.333 1.98.335.297.655.532.961.702l3.189 1.936c.029-.595.058-1.206.087-1.83.073-1.262.153-1.972.241-2.128.087-.17 1.201-.518 3.342-1.043 1.063-.269 2.119-.518 3.167-.745z" fill="#77310a"/><path d="m266.902 139.379c-.204-.496-.422-.922-.655-1.277-.452-.709-.757-.709-.918 0-.233 1.135-1.07 3.76-2.512 7.874l4.566 1.362 1.157-6.171c-.276-.27-.546-.546-.808-.83-.553-.582-.83-.901-.83-.958z" fill="#77310a"/><path d="m265.46 138.954c-.233-.114-.386-.071-.458.127l-.219.511 5.614 2.979 1.311 6.427 5.439 1.575.022-1.681c-.015.099-1.435-.241-4.26-1.022l-1.201-5.937-5.92-2.724c-.102-.099-.211-.185-.328-.255z" fill="#eaa60f"/><path d="m265.569 124.525c-1.543.227-2.315.369-2.315.425 0 .086.32.263.961.532.597.27.998.426 1.201.469.699.099 1.377.298 2.032.596.32.141.575.276.764.404.437 2.951.765 4.483.983 4.597 1.981.993 3.692.737 5.134-.767.48-.51.859-1.092 1.136-1.745.262-.567.335-.886.218-.957-1.311-.497-2.578-1.008-3.801-1.532-2.403-1.036-3.742-1.816-4.019-2.341-.772.099-1.536.205-2.294.319z" fill="#ba5015"/><path d="m281.93 138.422c-.073-.199-.116-.362-.131-.49v-.106l-1.638 2.128v6.32c-2.126 1.788-3.197 2.639-3.211 2.554l-.262 1.703 4.827-3.065-.612-6.235 1.005-2.15z" fill="#eaa60f"/><path d="m272.953 147.977-1.202-5.427-.196 6.597c2.941 1.007 4.434 1.497 4.478 1.468 3.815-2.142 5.708-3.241 5.679-3.298l-.262-4.703-.721 3.681-3.801 2.639z" fill="#ffd62c"/><path d="m277.518 131.271 1.245-4.682c-.248.255-.546.518-.896.787-.67.511-1.208.766-1.616.766-.481 0-1.529-.063-3.146-.191-1.616-.128-2.403-.206-2.359-.234h-.131l-.764.276.349.554c.277.61.539 1.553.786 2.83 2.097.667 3.816.851 5.156.553.669-.156 1.128-.375 1.376-.659z" fill="#ba5015"/><path d="m266.749 122.801c-.466-.539-.852-.759-1.157-.66l-5.265 1.469.153.383c.131.269.291.447.481.532.32.142.771.319 1.354.532.961 0 1.9-.043 2.818-.128 1.849-.142 2.701-.383 2.556-.723-.233-.497-.547-.965-.94-1.405z" fill="#ba5015"/><path d="m281.34 122.141c-.276-.085-.495.092-.655.532-.087.255-.226.688-.415 1.298-.16.326.517.603 2.032.83.757.128 1.529.213 2.315.255 0-.156.015-.319.044-.489.072-.341.211-.553.415-.639.306-.141.16-.475-.437-1z" fill="#ba5015"/><path d="m260.916 124.29c-.655-.042-1.216-.042-1.682 0 .059.568.131.851.219.851 2.708.298 5.053 1.292 7.034 2.98.99.851 1.711 1.667 2.162 2.447l1.857-.255.983.106 2.075 1.703-2.01-3.49-2.73.106c-.291-.411-.706-.88-1.245-1.405-1.063-1.035-2.185-1.808-3.364-2.319-.903-.397-2.003-.639-3.299-.724z" fill="#eaa60f"/><path d="m261.178 125.588c.554.1 1.114.192 1.682.277-.204.071.947.653 3.452 1.745 2.068.922 2.388.738.961-.553-1.413-1.277-3.095-2.135-5.046-2.575-.961-.213-1.791-.305-2.49-.277l-.241 1.043c-.014.043.546.156 1.682.34z" fill="#ffd62c"/><path d="m282.127 121.886c-.932-.383-.969-.262-.109.362.844.638 1.449 1.383 1.813 2.234.189.412.291.766.305 1.064l-3.058.745-.961 4.682 2.25-3.724 3.582-1.298c.132.071-.007-.312-.415-1.149-.422-.852-.808-1.391-1.157-1.618l-.612-.532c-.626-.312-1.172-.567-1.638-.766z" fill="#eaa60f"/><path d="m283.7 124.163c.189.326.328.61.415.851.058 0 .328-.411.808-1.234.029-.071-.24-.355-.808-.851-.524-.241-.99-.447-1.398-.617-.815-.313-.954-.249-.415.191.553.44 1.019.993 1.398 1.66z" fill="#ffd62c"/><path d="m275.901 144.423c.088-.029.146-.653.175-1.873.277 1.177.466 1.773.568 1.788.131.014.568-.575 1.311-1.767.757-1.234 1.172-1.894 1.245-1.979.16-.17.495-.681 1.004-1.532l.743-1.235-.218-3.149c-.032.065-.389.2-1.071.404-1.602.511-4.383 1.05-8.344 1.618-.102.014-.189.631-.262 1.851-.029.61-.051 1.22-.066 1.83 1.762 1.249 2.76 1.859 2.993 1.83.116-.014.437.362.961 1.128s.845 1.128.961 1.086z" fill="#ba5015"/><path d="m275.901 141.018c-2.388.369-3.59.617-3.604.745 1.034 2.866 1.58 4.334 1.638 4.405 1.879 1.092 2.92 1.561 3.124 1.405.218 0 .895-.589 2.031-1.767.044-.071.182-1.795.415-5.171-.014-.128-1.216 0-3.604.383z" fill="#ba5015"/><path d="m280.095 123.801c-.044.61-.51 1.454-1.398 2.533-.728.894-1.26 1.44-1.595 1.638-.203.114-.691.837-1.463 2.171-.786 1.348-1.092 2.029-.918 2.043 1.53.185 3.008-.809 4.435-2.979.699-1.079 1.252-2.178 1.66-3.299l1.048-.106c.204-.029.605-.156 1.202-.383.626-.227.939-.383.939-.469 0-.099-1.303-.482-3.91-1.149z" fill="#ba5015"/><path d="m271.008 145.316-.436-1.383-2.316.17-.262.532c-.204.398-.4.681-.59.852-.713.085-1.565-.093-2.556-.532l-1.288-.681-.721 1.681 5.308 1.383.939-2z" fill="#eaa60f"/><path d="m268.103 144.04-.808 1.511c-1.224-.27-2.214-.554-2.971-.852l-.765-.532-.524 1.809 4.544 1.447z" fill="#a56613"/><path d="m268.584 141.762c0-.014.007-.241.021-.681.015-.425.008-.645-.021-.659l-2.731-1.469c-.291-.17-.488-.205-.59-.106-.043.042-.094.149-.153.319-.029.085-.051.163-.065.234l.044.17c.043.128.116.235.218.32.306.212 1.398.837 3.277 1.872z" fill="#a56613"/><path d="m281.362 139.123-.24-.276.721 4.192-.415 1.49 1.769-.787c-.67-2.767-1.121-4.718-1.354-5.853-.131.837-.291 1.249-.481 1.234z" fill="#77310a"/><path d="m281.078 143.252.088 1.448 1.31-.511.612-.532-.197-.83-.546-.043c-.044 0-.087.007-.131.021-.102.029-.182.064-.24.107-.292.227-.59.34-.896.34z" fill="#eaa60f"/><path d="m280.926 143.422h.153l.349 1.043.896-.319c.145-.028.393-.149.742-.362l-.174-.447-.393-.617-1.267.468z" fill="#ffd62c"/><path d="m282.847 133.59.131-1.468-.982-4.384.021.553c-.291 2.455-.524 3.696-.699 3.724-.291.043-1.026.312-2.206.809-1.136.482-1.718.724-1.747.724-.073.028-1.267.049-3.583.063l2.971 1.49 1.922-.617c1.413-.426 2.454-.681 3.124-.766.306-.043.546-.114.721-.213.16-.128.094.638-.197 2.298-.082.519-.177 1.044-.284 1.575.082-.297.184-.659.306-1.085.204-.695.371-1.596.502-2.703z" fill="#77310a"/><path d="m281.472 139.932c.087-.099.16-.291.218-.574l.066-.405c-.088-.326-.168-.517-.241-.574-.043-.043-.138 0-.284.127-.131.114-.203.199-.218.256s-.357.539-1.027 1.447l.394.532c.276.355.422.61.436.766.306-.865.525-1.39.656-1.575z" fill="#ffd62c"/><g fill="#1a1d1e"><path d="m280.576 120.822-.044.511c-.189 1.872-.888 3.525-2.097 4.958-.335.397-.75.802-1.245 1.213l-.393.298h-.022l-.415-.064c-1.514-.326-3.051-.894-4.609-1.702-2.286-1.22-3.939-2.724-4.958-4.512l-.175-.298-.35.107c-2.956.978-5.315 1.844-7.077 2.596l-.328.149.415 1.702.612-.021c.888 0 1.777.142 2.665.426 1.485.468 2.789 1.277 3.91 2.426.568.581 1.027 1.149 1.376 1.702l.197.319c-.397.243-.841.47-1.333.681-1.194.54-2.337.809-3.429.809-.466 0-.903-.049-1.311-.149l-.612-.17.066.617c.16 1.39.779 2.93 1.857 4.618.483.739.957 1.363 1.42 1.873l-2.163 7.236.262.17c.015.014.517.255 1.507.723 1.209.469 2.403.71 3.583.724h.153c.043 0 .109-.021.196-.064.029-.014.073-.05.131-.106l.088-.107.786-1.681c.084.014.172.021.262.021.256 0 .62-.021 1.092-.063l.809 3.596 5.33 1.788 5.198-3.533.022-.213v-.064c0-.369-.051-1.27-.153-2.702.379-.128.882-.312 1.508-.554l.327-.149-1.398-5.065c.556-3.116.949-5.748 1.18-7.895l.022-.106-.044-.086c-.189-.468-.408-1.205-.655-2.213l-.175-.872c.678-.222 1.814-.527 3.407-.915l.328-.086v-.319l-.065-.511c-.19-.822-.445-1.574-.765-2.255-.233-.497-.597-.915-1.092-1.256-.35-.255-.575-.383-.677-.383-.597-.367-1.471-.707-2.622-1.022zm.765 1.085c.552.177 1.011.354 1.376.532l.546.256.022.021h.022l.021.021.568.319c.364.27.619.568.765.894.233.483.422.979.568 1.49l.153.596c-2.192.546-3.357.887-3.495 1.021l-.328.128.328 1.575c.234.928.453 1.673.655 2.234-.209 1.776-.449 3.464-.721 5.065l-.48 2.873 1.245 4.512c-.477.208-.929.364-1.355.468l-.349.106.022.341c.101 1.406.159 2.335.174 2.788l-4.478 3.064-4.456-1.511-.852-3.83-.371.021c-.684.057-1.158.085-1.42.085-.189 0-.32-.007-.393-.021l-.044-.021h-.043l-.197.042-.131.107-.087.127c-.059.071-.146.227-.262.468l-.568 1.235c-1.056-.015-2.105-.235-3.146-.66-.408-.156-.743-.305-1.005-.447l-.087-.042 2.119-7.066-.153-.191h-.022c-.524-.596-1.034-1.277-1.529-2.043-.825-1.285-1.35-2.469-1.573-3.554.278.042.576.063.896.063 1.194 0 2.49-.305 3.888-.915.684-.312 1.252-.617 1.704-.915l.284-.213-.131-.319c-.335-.738-.969-1.603-1.901-2.596h-.022c-1.208-1.234-2.628-2.114-4.259-2.639-.953-.305-1.914-.461-2.884-.468l-.087-.341c.633-.243 1.296-.499 1.988-.766 1.42-.54 2.869-1.058 4.347-1.553 1.26 2.023 3.284 3.69 6.072 5.001 1.078.482 2.068.844 2.971 1.085.058.014.401.099 1.027.255l.59.086h.087l.087-.022.088-.042.764-.575c.801-.652 1.486-1.433 2.054-2.341.723-1.158 1.189-2.421 1.398-3.788z"/><path d="m280.904 144.486.873-.106-.611-3.277.524-1.788-.983 1.745z"/><path d="m282.717 143.039-.306-.787-1.595.809.175.404z"/><path d="m270.659 144.274-.021-.852-2.731.341-.065.149-.721 1.362c-.638-.066-1.184-.151-1.639-.256l-.895-.234c-.19-.071-.328-.134-.415-.191-.16-.071-.277-.163-.35-.277.029.071.139.185.328.341l.393.234.874.34c.582.213 1.187.383 1.813.511l.131.043 1.005-1.32 2.009-.17h.153z"/><path d="m265.198 138.634 6.291 3.554 1.049 5.98 4.521 1.235.175-.149c1.471-1.178 2.57-2.072 3.299-2.682l.153-.128-.022-.191c-.087-2.075-.196-4.133-.328-6.172l1.245-2.021-1.747 1.872.043 6.151c-.445.35-1.457 1.137-3.036 2.362l-3.626-.894-1.223-5.725-.11-.063-3.342-1.575c-1.485-.71-2.599-1.228-3.342-1.554z"/><path d="m265.11 139.826 4.981 3 .393 2.405.852-.191-.787-2.405-.021-.107z"/><path d="m261.222 124.291c-.229-.023-.55-.037-.961-.043.346.014.666.043.961.085.48.057.903.128 1.267.213.874.199 1.689.497 2.446.894.743.369 1.442.851 2.097 1.447.219.184.517.489.896.915.32.397.561.738.721 1.022l.043.063.11.022 2.599.042.918 1.575-.765-.66h-.175l-2.927.213.066.83 2.774-.234 3.429 2.554-3.036-4.767-2.818.127c-.227-.35-.474-.67-.742-.957-.35-.383-.663-.688-.94-.915-.611-.539-1.34-1.015-2.184-1.426-.772-.369-1.602-.646-2.49-.83-.452-.099-.881-.156-1.289-.17z"/><path d="m281.385 122.077c.757.284 1.376.745 1.856 1.383.248.327.43.66.546 1.001.137.306.239.639.306 1l-3.102.681-.021.106-1.77 6.193 3.583-4.98-.743-.468-1.376 2.171.611-2.767 2.993-.808v-.064c-.102-.454-.226-.823-.371-1.107-.146-.34-.35-.674-.612-1-.481-.624-1.114-1.071-1.9-1.341z"/><path d="m277.169 128.121-.874.021.874 17.068z"/></g><path d="m278.566 130.739-.174-1.192-3.386.489.175 1.192z" fill="#827c74"/><path d="m277.911 129.739-.283-.064c-.437.099-.867.198-1.289.298-.859.198-1.267.305-1.224.319h.066c.218.17.342.248.371.234 1.559-.199 2.352-.319 2.381-.362.029-.014.095-.064.197-.149.087-.085.124-.142.109-.17-.014-.028-.124-.064-.328-.106z" fill="#eae7e5"/><path d="m278.938 131.037-.546-1.597-.088.022-3.779.276.415 1.724zm-.721-1.341-.022.787-2.905.49-.022-.681z" fill="#1a1d1e"/><path d="m278.544 134.463-.174-1.192-3.408.469.175 1.191z" fill="#827c74"/><path d="m277.911 133.399-.284-.064c-.437.099-.874.191-1.311.277-.859.198-1.259.305-1.201.319l.065.021c.204.17.328.248.372.234 1.543-.213 2.337-.34 2.381-.383.073-.057.131-.106.175-.149.087-.071.123-.12.109-.149-.015-.028-.117-.064-.306-.106z" fill="#eae7e5"/><path d="m278.523 134.782.327.043-.283-1.937-.328.085c-.364.1-.925.206-1.682.32l-.852.106c-.379.028-.663.042-.852.042h-.328l.284 1.958.306-.127c.422-.185.983-.327 1.682-.426.641-.099 1.216-.121 1.726-.064zm-.415-.532c-.321.114-.772.227-1.355.341-.536.065-1.002.086-1.398.064l-.087-.66 1.354-.256c.567-.063 1.033-.106 1.398-.127z" fill="#1a1d1e"/><path d="m275.202 137.932.131 1.213 3.408-.404-.153-1.192z" fill="#827c74"/><path d="m275.333 138.209h.066c.218.184.342.269.371.255 1.558-.17 2.359-.277 2.403-.319.073-.057.131-.107.175-.149.087-.071.123-.121.109-.149-.015-.029-.117-.071-.306-.128l-.284-.064c-.437.085-.874.171-1.31.256-.86.184-1.267.283-1.224.298z" fill="#eae7e5"/><path d="m275.094 137.634-.35-.043.24 1.916 4.063-.49-.24-1.894-.328.106c-.48.171-1.041.291-1.682.362-.611.071-1.179.085-1.703.043zm.458 1.149-.087-.617c.413-.115.872-.2 1.376-.256.535-.054.993-.075 1.376-.063l.088.617z" fill="#1a1d1e"/><path d="m275.29 141.741.175 1.192 3.386-.426-.153-1.192z" fill="#827c74"/><path d="m275.443 142.018h.065c.219.184.342.27.371.255 1.559-.184 2.36-.298 2.403-.34.19-.185.284-.291.284-.319-.014-.029-.116-.064-.306-.107l-.283-.064c-.437.085-.874.178-1.311.277-.859.184-1.267.284-1.223.298z" fill="#eae7e5"/><path d="m274.853 141.486.284 1.809 1.987-.362c.525-.099 1.078-.241 1.66-.425-.378-.015-.953-.008-1.725.021l-1.398.106c-.02-.148-.049-.354-.088-.617l2.927-.511c.163.577.258.91.284 1.001.03-.398.03-.802 0-1.214v-.148l-.174.021c-.787.028-1.362.057-1.726.085z" fill="#1a1d1e"/><path d="m265.485 128.421c-.13-.694-.762-1.405-1.896-2.133-1.077-.711-1.903-1.012-2.478-.903-.286.142-.611.325-.976.55-.699.45-1.202.914-1.51 1.39-.097.154-.312.555-.646 1.204-.133.254-.302.396-.508.427-.266.056-1.122.788-2.568 2.196-1.461 1.422-2.231 2.291-2.31 2.607-.078.315.024.876.308 1.681.297.821.597 1.372.899 1.654.331.298 1.107.471 2.328.521 1.28.038 2.339-.105 3.176-.431.702-.261 1.531-1.038 2.489-2.332 1.037-1.391 1.57-2.093 1.6-2.106.381-.252.833-.835 1.358-1.749.623-1.068.867-1.926.734-2.576z" fill="#fcebd6"/><path d="m262.471 127.352-.593-.3-2.576-.734-1.059 1.506.758.114c.634.114 1.25.277 1.849.491.612.228 1.198.63 1.759 1.206.288.28.511.543.671.786l-2.576 5.388 2.209-2.394c.831-.924 1.474-1.742 1.928-2.456.31-.505.469-.83.478-.975.008-.117-.116-.343-.372-.68-.323-.415-.707-.789-1.152-1.124-.403-.302-.844-.579-1.324-.828z" fill="#c6b39e"/><path d="m261.685 128.023c.776.385 1.539.988 2.288 1.809.368.402.658.771.87 1.105l.647-1.227c.126-.37.146-.799.06-1.286-.171-.958-.773-1.682-1.806-2.171-.835-.388-1.708-.525-2.619-.408l-1.111.278-1.11 1.285c.012.044.266.06.762.048.667.058 1.34.247 2.019.567z" fill="#a38f7c"/><path d="m252.319 133.488.876-1.139c.74-.795 1.591-1.636 2.553-2.522l1.363-1.119.016-.047.188-.07.019-.025.129-.018.062-.031.551-1.093.257-.367c.008-.045.106-.184.294-.416.206-.206.44-.423.702-.651.531-.398 1.066-.724 1.603-.977l.062-.03.043-.007c.231-.032.521-.007.871.076.043-.006.282.07.716.229.393.18.831.419 1.314.718.225.157.399.346.522.566-.116-.089-.354-.21-.713-.362-.356-.14-.744-.232-1.164-.277-.477-.065-.79-.094-.938-.087-.164-.036-.305-.045-.423-.029-.534.282-.994.56-1.382.835l-.584.546-.458.66c-.119.194-.26.449-.421.766-.128.238-.23.4-.306.484-.117.105-.227.164-.327.179l-.17.046-.041.028-.021.003-1.246 1.014c-.836.736-1.682 1.561-2.538 2.476l-.572.632-.216.34c-.015.002-.026.077-.035.225.033.437.174.968.424 1.594.154.36.271.616.351.766l.225.343.105.118.124.092c.362.17.899.277 1.611.323.55.04 1.131.046 1.745.018.667-.065 1.216-.18 1.649-.344.364-.125.827-.44 1.387-.946.326-.296.712-.733 1.16-1.311l1.036-1.403c.28-.407.461-.639.541-.694.037-.05.124-.165.26-.346.107-.177.206-.308.297-.395l.129.136c-.126.356-.256.632-.39.827l-.488.753c-.401.601-.744 1.083-1.03 1.447-.396.526-.787.986-1.172 1.379-.516.514-1.024.872-1.524 1.075-.519.177-1.118.306-1.798.387-.625.045-1.235.05-1.827.016-.803-.062-1.425-.195-1.865-.397-.14-.054-.22-.101-.241-.142l-.459-.597-.447-.819c-.281-.739-.441-1.356-.482-1.85.017-.296.048-.492.093-.586z" fill="#1a1d1e"/><path d="m283.542 106.33c-.117-1.269-.171-2.115-.162-2.537.042-1.907-1.422-3.541-4.391-4.9025-1.629-.7495-3.4-1.3129-5.314-1.6901l.001-.0218-.11-.0024v.0218c-1.914.278-3.708.7626-5.383 1.4536-3.027 1.229-4.562 2.7964-4.604 4.7034-.047 2.154-.071 3.573-.072 4.257.024 1.559.107 3.046.251 4.462.012.087.652.786 1.919 2.095 1.267 1.324 1.907 2.023 1.92 2.096.278 1.913.705 3.335 1.281 4.265.788 1.27 2.463 2.224 5.026 2.864.956.239 2.726.511 5.311.816.38-.05.799-.245 1.258-.584.903-.664 1.56-1.705 1.97-3.123.349-1.318.572-2.186.669-2.607.358-1.695.577-3.379.658-5.052.003-.146-.106-.505-.326-1.078-.206-.558-.307-.917-.304-1.077.003-.145.088-.369.255-.671.182-.316.274-.54.277-.671.032-.771-.012-1.777-.13-3.017z" fill="#8c6e39"/><path d="m282.38 104.557c.601-.191.947-.343 1.037-.458.03-.043-.048-.496-.232-1.359l-6.052-.92-7.135 1.655-1.046 5.83c.208-.184.393-.355.557-.512.313-.328.478-.557.496-.688.034-.217.331-1.485.892-3.802l2.412-.427c.161-.04.536-.2 1.124-.478l.94-.001c.655-.015 1.1-.063 1.335-.145.22-.068.751-.027 1.592.122.899.166 1.37.249 1.414.25.117-.012.311.08.584.275.301.211.517.317.648.32.174.019.652.131 1.434.338z" fill="#72572d"/><path d="m269.041 108.216-.729-.628c-.134 7.423-.191 11.28-.168 11.572.011.175 1.191 1.133 3.54 2.874 2.335 1.755 3.509 2.648 3.523 2.677.027.103 1.977-.182 5.851-.853.132-.041.625-.969 1.481-2.785l.001-1.048c-.075.77-.328 1.368-.76 1.796-.03.043-.139.018-.326-.073-.159-.076-.274-.137-.346-.183-.073.028-.124.02-.152-.025l-.042-.088c-.219.039-.446.092-.68.16-.469.106-.733.195-.792.266-.209.199-.401.355-.579.468-.147.069-.455.194-.925.373-.235.096-.542.155-.921.176-.424.034-.75.005-.981-.087-.203-.063-.6-.232-1.191-.507l-.821-.39c-1.626-.866-2.567-1.433-2.824-1.7-.641-.641-.983-.983-1.025-1.028-.512-.55-.794-.986-.845-1.307-.051-.322-.116-1.997-.195-5.028-.069-2.768-.101-4.312-.094-4.632z" fill="#72572d"/><path d="m282.148 121.981.2-.148.071-2.226-1.048-1.006-.083.806.534.514z" fill="#684d2a"/><path d="m283.63 112.273-.219.017c-.19.025-.372.057-.548.097-.38.079-.564.148-.551.207.013.073.215.157.606.253.406.097.646.116.72.06.103-.056.192-.149.268-.278.09-.144.107-.245.05-.305-.057-.045-.166-.062-.326-.051z" fill="#a58149"/><path d="m284.005 106.165c-.119-1.196-.174-1.984-.166-2.362.013-.611-.112-1.197-.376-1.756-.389-.853-1.1-1.64-2.132-2.3622-1.133-.7968-2.639-1.4999-4.518-2.1093-.984-.3228-1.867-.568-2.649-.7357l.004-.1746-.482.0767-.022-.0005-.5-.0984-.004.1746c-1.909.3342-3.616.8061-5.12 1.4157-1.382.5811-2.474 1.234-3.276 1.9587-.505.455-.88.927-1.124 1.417-.289.547-.44 1.126-.453 1.737l-.032 1.441c-.066 2.969.004 5.417.209 7.343l.061.198.127.178 3.458 3.658.191.245c.287 1.913.735 3.364 1.345 4.354.464.768 1.214 1.418 2.25 1.95 1.195.624 2.735 1.102 4.621 1.435.638.116 1.357.219 2.155.309.436.054.981.117 1.634.189l.109.003c.454-.077.939-.3 1.457-.667.976-.706 1.686-1.826 2.127-3.36.317-1.143.54-2.019.67-2.628.357-1.681.577-3.387.659-5.118l.001-.022c.004-.189-.028-.394-.096-.614l-.495-1.343-.039-.198.048-.173.272-.475c.138-.288.208-.519.212-.694l.006-.284c.014-.597-.031-1.566-.132-2.908zm-2.205-4.963c.412.432.702.831.869 1.199.208.441.307.902.297 1.382-.011.466.044 1.283.164 2.45.107 1.08.152 2.02.134 2.821l-.006.284-.047.152-.251.496c-.128.215-.205.425-.233.629.001.014.001.029-.001.043v.022c-.003.146.036.35.117.614l.534 1.541c-.094 1.629-.313 3.284-.656 4.965l-.668 2.585c-.394 1.316-.997 2.278-1.812 2.886-.266.213-.524.353-.773.42l-.221.083c-.886-.094-1.627-.176-2.222-.246-1.132-.156-2.126-.338-2.98-.546-1.173-.303-2.119-.652-2.838-1.046-.878-.456-1.522-1.002-1.93-1.637-.548-.9-.947-2.263-1.198-4.089-.013-.073-.041-.132-.084-.177l-.105-.177-2.731-2.9c-.243-.223-.485-.484-.726-.78l-.213-.223c.011.027.018.049.02.066l-.041-.11.021.044c-.192-1.865-.256-4.247-.192-7.147l.032-1.441c.011-.48.13-.936.358-1.368.38-.705 1.027-1.346 1.943-1.922 1.122-.7182 2.57-1.3196 4.342-1.8046 1.289-.3558 2.262-.5673 2.919-.6344l.022.0005c1.776.3187 3.511.8667 5.206 1.644 1.296.6256 2.28 1.2665 2.95 1.9215z" fill="#1a1d1e"/><path d="m282.314 116.459c-.152.274-.446.427-.884.461l-3.272-.181.019.109c.013.074.056.125.128.156.13.047.485.113 1.066.198l.3.269c.199.194.342.306.429.337.159.047.384.06.676.037.525-.017.846-.054.964-.11.25-.111.473-.317.669-.618.045-.072.061-.123.047-.152-.042-.074-.077-.155-.104-.243l-.042-.088c-.014-.015-.013-.073.004-.175z" fill="#72572d"/><path d="m281.807 117.65c-.191.068-.592.11-1.204.126-.189-.004-.421-.06-.695-.168-.231-.107-.396-.206-.496-.295-.071-.075-.237-.137-.498-.186-.232-.063-.377-.089-.436-.075l.288.836c.337.561.899.835 1.685.824.787-.012 1.301-.241 1.544-.687l.101-.609c-.031.084-.127.162-.289.234z" fill="#684d2a"/><path d="m282.485 116.616-.296-.444.061.22c.08.308.105.498.074.57l-.203.323c-.046.072-.149.142-.311.211l-.942.154c-.19.025-.343.014-.458-.032-.044-.001-.174-.062-.389-.183l-.409-.271c-.072-.046-.224-.093-.456-.141l-.895-.02.846.259c.188.077.296.13.324.16l.365.314c.157.12.322.211.496.273.144.047.34.073.588.078l.569-.074.506-.164c.206-.097.355-.225.446-.383.09-.144.145-.296.163-.455.017-.117-.009-.248-.079-.395z" fill="#1a1d1e"/><path d="m281.597 115.33c-.284-.327-.479-.397-.585-.21-.076.144-.14.398-.192.761-.053.435.007.662.182.681.567.041.882-.068.946-.329.049-.261-.068-.562-.351-.903z" fill="#a58149"/><path d="m282.675 109.019c-.554.061-1.223.352-2.007.873-.147.099-.367.152-.658.16l-.415-.031c-.506.499-.795.747-.868.746-.044-.001-.101.274-.171.826-.035.261-.063.53-.083.806l1.186-1.284c.392.008.794-.019 1.203-.083.102.002.326.393.673 1.173-.027-.103-.047-.213-.059-.329-.024-.219-.021-.372.011-.459.031-.086.338-.502.923-1.246.284-.372.569-.737.854-1.095-.115-.076-.311-.094-.589-.057z" fill="#72572d"/><path d="m278.367 110.235c-.693-.292-1.075-.468-1.146-.528-1.152-.564-1.939-.88-2.36-.948-.014 0 .156.178.513.536.513.506.967 1.04 1.362 1.603.409.576.643.887.7.932.058.031.117-.004.177-.105.219-.024.602-.205 1.148-.542.531-.324.82-.557.867-.702.062-.173.094-.275.094-.304.002-.058-.05-.045-.153.041-.149.127-.549.133-1.202.017z" fill="#72572d"/><path d="m281.804 97.9917c-.271-.2245-.538-.3687-.798-.4327-.941-.2683-1.65-.466-2.128-.5931-1.07-.3003-2.045-.3364-2.924-.1083-.176.0544-.604-.0061-1.285-.1813-.68-.1752-1.108-.2502-1.283-.2249-.278.0375-.49.0692-.636.0951-.263.0379-.468.0989-.615.183-.162.0838-.287.1392-.375.1664-.263.0379-.57.0893-.921.1544-.161.0256-.571.1548-1.232.3877-.748.2602-1.305.4371-1.672.531-.454.121-1.051.4718-1.792 1.0524-.371.2976-.697.5816-.98.852-.044.0136-.162.0984-.355.2546-.296.197-.594.533-.896 1.006-.362.575-.542 1.124-.539 1.648l.109 1.029c-.001.015-.075.064-.222.148-.164.172-.257.446-.28.824l.088.941-.057 1.594c-.025 1.149-.013 1.914.037 2.294.766.221 1.533.449 2.3.684 1.518.456 2.302.895 2.351 1.319.072.7.135 1.153.189 1.358.366.532.537.74.51.623-.026-.132.167-1.62.579-4.465.551-.526.851-.957.902-1.29.072-.61.176-1.343.311-2.199.185-1.132.307-1.705.366-1.718.191-.068.973-.211 2.346-.428.059-.014.287-.103.683-.269.382-.152.639-.241.771-.267.044-.014.35-.036.919-.067.48-.019.838-.062 1.073-.129l.878-.221.89.26c.39.125 1.043.219 1.959.283.261.05.442.126.541.231 1.088.198 2.041.219 2.86.063.22-.068.397-.181.532-.338.149-.157.211-.33.186-.52.027-.538-.072-1.035-.295-1.492-.166-.353-.379-.634-.636-.844l-.322-.269c-.087-.6717-.245-1.112-.473-1.3209-.285-.283-.506-.4845-.664-.6044z" fill="#171a1c"/><path d="m266.087 110.487c-.541-.565-1.082-.788-1.624-.669l-.507.207c-.34.255-.516.651-.528 1.19-.019.859.505 1.846 1.572 2.961.115.105.369.467.763 1.088.113.148.285.275.515.382.318.138.552.093.702-.137.121-.187.103-.689-.054-1.508-.168-.951-.227-1.585-.176-1.904.084-.523-.137-1.059-.663-1.61z" fill="#8c6e39"/><path d="m266.017 110.66c-.295-.487-.572-.762-.833-.826-.161.054-.33.116-.507.185-.337.124-.507.229-.509.316-.002.102.089.25.274.443.171.179.35.328.536.449.13.076.417.25.863.521.374.198.57.231.587.101.036-.305-.101-.701-.411-1.189z" fill="#a58149"/><path d="m264.995 111.424c-.097-.206-.24-.355-.427-.446-.173-.077-.333-.087-.48-.032-.191.097-.213.424-.065.981.066.293.383.802.949 1.528.496.637.815 1.015.958 1.135.072.045.118-.092.14-.412.008-.378.013-.604.015-.677l-.012-.458c-.271-.225-.442-.396-.513-.514z" fill="#72572d"/><path d="m267.312 112.327.024-.108.005-.197c.038-.392-.091-.839-.386-1.341-.422-.635-.945-1.04-1.567-1.214-.217-.063-.421-.082-.611-.057l-.24.017-.022.021-.176.04c-.191.068-.368.174-.531.316-.237.184-.403.457-.499.819-.047.159-.073.333-.077.522l-.006.284.059.307c.065.322.224.711.476 1.168.168.31.429.672.784 1.088l.47.491.654 1.019.086.089.086.068c.286.239.552.376.799.41.246.035.452-.019.615-.161l.178-.171c.001-.014.008-.036.024-.065l.022-.021.07-.217c.031-.072.047-.159.05-.261l.004-.196-.297-2.366zm-2.64-2.111.088-.02c.175.004.305.021.392.052.419.141.777.447 1.072.92.183.295.271.559.266.792l-.003.131-.026.196.086 1.05c.052.307.136.753.255 1.338l.036.307-.006.283-.023.044v.021l-.022.022c-.001.014-.023.021-.066.02-.117-.002-.261-.078-.432-.228-.057-.045-.114-.104-.171-.178l-.19-.31c-.169-.266-.31-.466-.423-.599l-.47-.491c-.27-.283-.511-.609-.721-.977-.182-.31-.306-.633-.372-.969l-.017-.219.005-.219c.003-.131.028-.254.074-.369.063-.203.16-.346.293-.431.089-.07.185-.119.288-.146l.065-.021z" fill="#1a1d1e"/><path d="m266.954 110.79c-.107.216-.054 1.441.159 3.673.22 2.524.328 3.917.322 4.179l-.049 2.205c3.398 2.405 5.328 3.7 5.79 3.885.693.277 1.679.466 2.958.568 1.149.069 1.964.05 2.447-.056 1.156-.251 2.089-.616 2.798-1.095.4-.283.852-1.656 1.358-4.12-.537 1.255-1.028 2.067-1.473 2.435-.267.227-1.277.453-3.029.676-1.87.25-3.1.245-3.691-.016-3.91-2.314-5.892-3.88-5.946-4.696-.047-.526-.087-2.005-.121-4.437l-.054-3.496c-.218.01-.444.027-.678.051-.467.062-.731.144-.791.244z" fill="#171a1c"/><path d="m281.104 108.963.082 1.225 1.31-.954c.979-.182 1.513-.272 1.6-.27.102.002.124-.325.065-.982-.86.054-1.371.101-1.532.141-.175.04-.454.157-.837.353-.427.209-.657.371-.688.487z" fill="#171a1c"/><path d="m281.531 111.375c.442.417.89.594 1.342.532.176-.04.285-.351.327-.932-.094-.366-.221-.537-.382-.511-.307.037-.616.197-.928.482z" fill="#f8f8f6"/><path d="m281.357 111.305-.135.194.173.069c.404.198.641.306.714.322.275.079.529.099.763.06.117-.041.207-.141.269-.299.061-.13.093-.275.097-.435.004-.204-.007-.357-.034-.46.001-.043-.026-.124-.082-.242-.07-.118-.156-.185-.257-.202l-.066-.001c-.306-.007-.592.103-.859.33-.222.17-.416.391-.583.664zm.434.141c.15-.186.291-.336.425-.449.19-.169.374-.267.553-.294l.043.023.106.133.145.375c.026.117.023.248-.009.393-.004.16-.071.26-.203.301-.249.038-.481-.011-.696-.146-.143-.105-.265-.217-.364-.336z" fill="#1a1d1e"/><path d="m277.951 110.291.201-1.219c-.041-.103-.416-.278-1.124-.527-.65-.218-1.106-.345-1.367-.38l-2.572-.253-.077.5c-.036.32-.003.481.099.483l2.7.366z" fill="#171a1c"/><path d="m274.742 112.208c.912.238 1.79.054 2.633-.554-.128-.163-.299-.327-.513-.492-.43-.315-.871-.485-1.321-.509-.451-.025-.899.14-1.344.494-.236.17-.422.348-.558.534z" fill="#f8f8f6"/><path d="m277.722 111.749-.597-.646c-.143-.12-.308-.233-.495-.339-.129-.09-.309-.174-.541-.252l-.304-.05c-.131-.032-.232-.042-.306-.029l-.152-.003-.154.018-.307.081c-.176.054-.36.137-.552.25l-.466.339c-.163.142-.305.284-.424.427l-.135.15.172.157.497.207.521.143c.392.081.726.118 1.003.109.291.007.627-.037 1.007-.13zm-1.297-.618c.187.106.401.286.643.538-.46.412-.989.612-1.585.599-.379-.009-.705-.074-.979-.197l-.409-.249c-.083-.044-.147-.096-.194-.157l.224-.214.421-.296c.206-.112.361-.181.463-.208l.22-.061.11-.019.371.008z" fill="#1a1d1e"/><path d="m279.721 108.277c-.047.145-.112.485-.197 1.022-.009.423-.016.722-.02.895-.215.115-.392.22-.531.316-.251.155-.465.31-.644.466.205-.024.461-.091.769-.201.161-.04.404-.129.727-.268l.11-.041.003-.153c.008-.335-.006-.677-.042-1.027-.048-.467-.106-.804-.175-1.009z" fill="#1a1d1e"/><path d="m276.165 121.915c-.264.751-.17.804.281.159l1.136-2.006 1.824-.484-.043-1.006-3.193 1.131z" fill="#684d2a"/><path d="m277.484 118.536c-1.245.366-1.884.599-1.915.701-.001.029.075.555.227 1.577.152 1.008.189 1.672.109 1.99.271-.401.473-.979.606-1.734l.132-1.023 2.792-.812-.082-1.225c-.616.161-1.238.336-1.869.526z" fill="#171a1c"/><path d="m282.822 119.157c-.042-.088-.292-.319-.749-.693l-.687-.562-.05 1.288.988.743.015.327c.037.292.102.643.195 1.053.332-1.187.428-1.905.288-2.156z" fill="#171a1c"/><path d="m280.11 121.303c-1.182.105-1.825.207-1.929.307l.649.255c.521.171.977.261 1.37.27.884-.461 1.43-.784 1.638-.968-.568.031-1.145.076-1.728.136z" fill="#171a1c"/><path d="m277.342 120.062.194.092c.173.077.354.132.543.165.623.13 1.205.172 1.744.126l.92-.111.791-.223.707-.333-2.452.251c-.583.031-1.144.04-1.683.028z" fill="#1a1d1e"/><path d="m273.394 112.877-.108-.046c-.086-.06-.231-.107-.434-.141-.26-.064-.428-.053-.503.033-.105.128-.165.214-.18.258-.016.072.033.124.149.156.798.149 1.191.135 1.18-.039-.012-.088-.047-.162-.104-.221z" fill="#a58149"/><path d="m282.144 99.4407c.069-.4644-.106-.8032-.523-1.0163-.274-.1371-.562-.2672-.865-.3904l-.369-.1173-.515-.4046c-.938-.3847-1.728-.5769-2.368-.5765l-1.646.3349c-.044.0136-.297-.0648-.759-.2352-.476-.1853-.788-.265-.934-.2391l-.851-.0406c-.659.1892-1.107.3395-1.342.4508-.397.166-.61.2632-.64.2916-.015.0143-.198.0539-.549.119-.292.0517-.542.1773-.751.3765-.267.2562-.513.5201-.738.7918-.239.286-.315.4008-.226.3445.059-.0278.478-.2297 1.258-.6056.766-.3617 1.192-.5415 1.279-.5396.146.0032.583-.0162 1.312-.0584.145.0324.21.0629.195.0917-.031.043-.207.1119-.529.2067l-1.959.6775c-.133.099-.244.1839-.333.2547-.208.1556-.23.1915-.068.1077.25-.14 1.052-.1951 2.406-.1652l.695.1901c.476.1707.772.3229.885.4564.17.2222.47.4692.901.7412l1.312-.059c.188.033.698.045 1.528.034 2.962.4 4.522.624 4.681.671l1.428.6c-.619-.975-.979-1.493-1.079-1.553z" fill="#222628"/><path d="m273.964 99.937-1.293.19-3.616 1.536c.204-.01.635-.059 1.292-.146.745-.115 1.155-.193 1.228-.235.059-.028.185-.127.378-.297.222-.141.433-.166.635-.074.188.077.441.127.761.148.175.019.393.031.655.036.203.02.58.086 1.131.2.32.036.848-.141 1.585-.533-.115-.104-.424-.271-.929-.501-.519-.23-.808-.3306-.867-.3028-.058.0278-.233.0313-.524.0103z" fill="#222628"/><path d="m283.35 101.171-.603-.363-1.64.095-1.145.39-.722.071c.044.001.769.104 2.177.31l.863.478c.158.091.359.234.602.428l.627.298c.102-.667.133-1.082.093-1.243-.066-.278-.15-.433-.252-.464z" fill="#222628"/><path d="m268.84 98.6005c-.044-.001-.572.1767-1.585.5329-.747.2019-1.225.4388-1.435.7108l-1.145 1.3948c.692-.349 1.177-.557 1.455-.623.278-.067.713-.298 1.304-.6924l.476-.7539c.044-.0427.221-.1553.531-.3377.295-.1537.428-.2309.399-.2315z" fill="#222628"/><path d="m281.66 120.311-.13-.025-1.403.253c.343.27.631.4.865.391.437-.049.688-.182.751-.399.017-.101-.011-.175-.083-.22z" fill="#a58149"/><path d="m270.797 101.942c.045-.043-.467.026-1.533.206-1.155.208-1.947.438-2.375.69-.413.239-1.08.472-2.003.699-.319.363-.528.591-.626.685.082-.04.244-.102.484-.186.353-.138.573-.206.66-.204l1.224-.038c2.496-.95 3.886-1.567 4.169-1.852z" fill="#222628"/><path d="m269.976 100.526-1.623.292c-.547.395-.924.613-1.128.652-.161.04-.45.237-.865.592-.43.355-.587.533-.471.536.146.003.387-.028.723-.093.381-.094.652-.19.815-.288.029-.014.221-.148.576-.402.223-.17.37-.261.443-.274.103-.013.419-.188.951-.525.532-.353.725-.516.579-.49z" fill="#222628"/><path d="m260.711 137.691c1.689-1.482 2.435-2.48 2.237-2.994-.237-.65-.962-1.485-2.174-2.505-1.325-1.077-2.333-1.557-3.026-1.439-1.046.176-2.105.535-3.177 1.077-1.382.669-2.193 1.412-2.434 2.229l.049 1.079c.079.773.226 1.284.442 1.533 2.351 2.6 3.912 3.761 4.682 3.482.717-.233 1.851-1.054 3.401-2.462z" fill="#fcebd6"/><path d="m266.439 139.821c-.17-2.797-1.113-5.14-2.831-7.029-1.719-1.872-3.701-2.737-5.946-2.595-2.244.141-4.099 1.253-5.563 3.334-1.464 2.082-2.112 4.521-1.942 7.318.186 2.798 1.13 5.141 2.831 7.029 1.718 1.889 3.699 2.762 5.944 2.62 2.244-.141 4.099-1.253 5.563-3.334 1.482-2.097 2.13-4.544 1.944-7.343z" fill="#59534d"/><path d="m265.582 139.911c-.169-2.797-1.113-5.14-2.831-7.029-1.719-1.872-3.701-2.738-5.945-2.596-2.245.142-4.099 1.254-5.564 3.335-1.448 2.082-2.087 4.522-1.917 7.319.171 2.781 1.115 5.115 2.833 7.004 1.702 1.871 3.676 2.736 5.92 2.594 2.245-.142 4.1-1.253 5.564-3.334 1.463-2.065 2.11-4.496 1.94-7.293z" fill="#817b73"/><path d="m256.542 149.279 1.79.151c1.335-.005 2.328-.261 2.981-.765.67-.52 1.252-1.312 1.744-2.378l.551-1.437c-.195.403-.705 1.126-1.529 2.168-.863 1.123-2.047 1.84-3.553 2.151z" fill="#a8a19a"/><path d="m263.423 133.655c-.588-.659-1.171-1.25-1.751-1.775-.809-.591-1.722-1.013-2.738-1.269-1.113-.295-2.176-.353-3.189-.175-.878.155-1.862.744-2.952 1.768-.553.512-1.013 1.004-1.38 1.479l-1.1 2.474c.167-.324.802-1.055 1.906-2.192 1.826-2.006 3.863-2.754 6.112-2.246 1.132.264 2.084.723 2.855 1.378z" fill="#a8a19a"/><path d="m264.507 139.91c-.161-2.446-.992-4.489-2.494-6.129-1.501-1.657-3.24-2.422-5.216-2.294-1.961.128-3.58 1.098-4.859 2.909-1.279 1.827-1.847 3.963-1.703 6.408.161 2.447.992 4.498 2.493 6.155 1.502 1.64 3.233 2.396 5.193 2.268 1.977-.128 3.605-1.097 4.883-2.908 1.296-1.826 1.864-3.962 1.703-6.409z" fill="#6b460a"/><path d="m254.397 132.518-.645.63c-.056.079-.08 1.728-.074 4.947.004 3.253.051 5.065.142 5.439.051.22.156.97.316 2.248.143 1.044.236 1.509.277 1.396.081-.211.197-3.38.345-9.507z" fill="#8c590e"/><path d="m254.869 133.277c-.058.112.114 2.526.515 7.24.351 4.478.56 6.952.626 7.424.034.236.306.397.817.483.478.083.779.071.903-.037.127-.141-.058-1.888-.556-5.242l.736-2.625-.523-8.542c-.315-.022-.66.012-1.033.103-.731.198-1.226.597-1.485 1.196z" fill="#8c590e"/><path d="m252.762 136.905-.111-2.684c-.024.098-.416.696-1.177 1.793.115 1.442.252 2.928.411 4.456.302 3.04.554 4.784.756 5.232-.121-3.961-.08-6.893.121-8.797z" fill="#8c590e"/><path d="m251.867 144.972-.924-7.47c-.003.05-.114.559-.333 1.528-.16 1.089-.13 1.967.09 2.633.792 2.474 1.181 3.577 1.167 3.309z" fill="#8c590e"/><path d="m260.135 134.149-.84-1.561-.107 3.995.471 9.639c.126-.841.245-1.7.357-2.576.24-1.751.356-2.693.349-2.827.159-1.773.213-2.779.163-3.016z" fill="#8c590e"/><path d="m260.221 132.929c-.083-.006.054 2.43.41 7.308s.57 7.286.641 7.224c.104-.059.333-.343.686-.852.389-.556.608-.949.658-1.179.033-.231.012-1.475-.062-3.732-.093-2.224-.156-3.454-.19-3.69-.023-.135-.04-.729-.049-1.78.005-1.017-.008-1.543-.039-1.578-.97-1.136-1.655-1.71-2.055-1.721z" fill="#8c590e"/><path d="m261.173 132.921c-.362-.309-.889-.638-1.581-.987-.763-.304-1.41-.467-1.942-.488-1.457-.152-2.817.21-4.079 1.088-.633.456-1.179.985-1.638 1.586-.497.665-.878 1.339-1.143 2.021-.598 1.375-.858 2.933-.78 4.672.126 1.76.56 3.284 1.303 4.57.354.659.818 1.292 1.392 1.899.51.57 1.119 1.047 1.825 1.43.659.363 1.367.597 2.127.7.263.052.454.074.571.066l.525.012c.132.009.309-.012.529-.063.235-.017.412-.046.532-.088.541-.112 1.176-.367 1.905-.766.629-.406 1.116-.813 1.462-1.222.758-.814 1.332-1.749 1.724-2.805.324-.811.532-1.631.624-2.458.057-.346.079-.653.065-.921l-.012-1.252.002-.024-.163-1.238c-.087-.423-.157-.728-.211-.915-.181-.747-.501-1.52-.962-2.319-.501-.936-1.193-1.769-2.075-2.498zm-1.642-.841c.643.345 1.154.673 1.532.983.787.656 1.447 1.478 1.977 2.466.431.748.727 1.511.889 2.289.081.273.144.569.188.889l.164 1.212-.011 1.225c-.027.382-.065.688-.115.918-.064.679-.269 1.457-.615 2.333-.422 1.021-.984 1.898-1.686 2.632-.307.329-.767.705-1.381 1.129-.625.356-1.217.589-1.775.7l-.482.091-1.004.054-.496-.06c-.744-.102-1.404-.316-1.981-.64-.691-.382-1.269-.815-1.735-1.298-.574-.608-1.024-1.206-1.349-1.796-.743-1.287-1.182-2.752-1.316-4.396-.052-.921-.022-1.702.09-2.345.102-.493.179-.871.231-1.134.134-.491.252-.858.352-1.101.264-.665.636-1.323 1.115-1.973.355-.541.876-1.063 1.562-1.565.528-.397 1.167-.71 1.917-.941.596-.174 1.276-.235 2.039-.181.531.037 1.161.207 1.89.509z" fill="#1a1d1e"/><path d="m261.22 140.403c-.078-1.256-.487-2.302-1.229-3.138-.741-.836-1.598-1.23-2.568-1.182-.972.065-1.775.567-2.408 1.506-.632.923-.909 2.012-.831 3.268.095 1.258.505 2.304 1.23 3.139.741.836 1.598 1.222 2.57 1.157.987-.047 1.797-.54 2.43-1.48.632-.922.901-2.012.806-3.27z" fill="#706a63"/><path d="m260.716 140.443c-.078-1.256-.496-2.303-1.254-3.14-.775-.839-1.665-1.227-2.67-1.164-1.005.062-1.831.554-2.48 1.476-.667.937-.961 2.033-.883 3.29.096 1.24.523 2.279 1.281 3.117.757.854 1.646 1.25 2.668 1.189 1.005-.063 1.832-.563 2.482-1.501.667-.937.952-2.026.856-3.267z" fill="#817b73"/><path d="m258.926 136.74c-.827-.559-1.879-.658-3.155-.298-.415.204-.815.551-1.2 1.041-.769.98-1.064 2.201-.884 3.665.298 1.222.574 1.683.828 1.384.483-.699 1.047-1.36 1.691-1.982 1.268-1.194 2.618-1.883 4.048-2.065-.409-.813-.852-1.395-1.328-1.745z" fill="#99928a"/><path d="m259.504 138.131c.156-.089.14-.332-.049-.729-.203-.431-.443-.69-.72-.776-.323-.156-.648-.271-.977-.344-.656-.147-1.322-.052-1.996.284-.327.144-.669.378-1.025.703-.679.636-1.057 1.385-1.134 2.247 1.569-1.207 2.673-1.838 3.31-1.893.519-.03 1.089.052 1.709.246.57.19.864.277.882.262z" fill="#b7ada5"/><path d="m261.227 138.878c-.209-.582-.482-1.084-.819-1.508-.153-.195-.347-.4-.582-.617-.316-.239-.555-.398-.716-.476-.241-.133-.51-.227-.806-.282-.279-.069-.569-.09-.871-.061l-.729.048c-.185.021-.329.052-.432.095l-.411.146-.389.198c-.259.132-.488.307-.687.527-.25.232-.433.453-.547.661-.3.463-.529.989-.687 1.578-.071.295-.116.584-.136.866l-.01.85.116.833.241.843c.21.565.501 1.053.872 1.462.232.267.443.465.634.595.22.183.468.334.743.453l.415.154.444.082c.198.03.49.026.877-.013.17.011.304.012.4.003l.839-.191.389-.198c.173-.088.401-.255.686-.502l.571-.66.403-.747c.118-.242.211-.502.281-.781.094-.393.147-.673.159-.839l.015-1.275-.072-.405c-.021-.168-.085-.448-.191-.839zm-1.674-1.794c.173.146.343.333.511.561.288.404.514.87.676 1.399.113.291.179.538.198.739l.07.781c.022.168.02.426-.004.775-.019.265-.062.521-.129.766-.09.327-.175.58-.254.758-.102.259-.218.485-.348.676l-.222.309-.27.281c-.198.203-.392.365-.584.484l-.697.301-.782.095-.025-.001c-.254.048-.521.063-.804.043l-.394-.078c-.1-.007-.23-.049-.392-.128-.162-.061-.403-.186-.723-.376-.285-.22-.489-.401-.612-.543-.386-.444-.67-.915-.851-1.411l-.27-.795-.116-.833.008-.825.16-.84c.158-.589.385-1.09.681-1.502.22-.285.401-.489.543-.612.231-.201.451-.361.66-.479l.362-.175.812-.168.376.002.024.002.329-.052c.336.024.584.058.744.102.262.069.497.16.706.275.208.115.414.271.617.469z" fill="#1a1d1e"/><path d="m253.24 132.961-.207 3.288c-.069 1.446-.104 2.536-.105 3.269-.086.511-.191 1.288-.315 2.33l-.003.049.175 1.764.025.002-.001.024 1.018 4.35-.611-4.446-.002.025-.126-1.76.311-2.279.002-.025z" fill="#1a1d1e"/><path d="m258.656 131.717-.1.719c-.038.531-.042 1.056-.012 1.575.029.536.101 1.058.215 1.566.047.287.105.516.177.688.046-.18.079-.42.1-.719.038-.531.042-1.056.012-1.575-.028-.552-.1-1.074-.215-1.566z" fill="#1a1d1e"/><path d="m258.996 144.974c-.073.329-.115.809-.127 1.442l.126 1.41-.002.025c-.065.493-.084.867-.054 1.122.169-.272.328-.636.477-1.092l.006-.075c.016-.232.007-.466-.026-.702l-.075-.706c-.077-.572-.185-1.047-.325-1.424z" fill="#1a1d1e"/><path d="m267.017 139.787c-.177-2.697-1.056-5.011-2.637-6.94-1.614-1.948-3.524-3-5.731-3.156l-1.405.051c-.149-.008-.274-.009-.375-.002-2.128.15-3.965 1.13-5.51 2.938-1.46 1.782-2.28 3.95-2.461 6.506-.044.631-.052 1.214-.023 1.749.191 2.732 1.078 5.054 2.66 6.967.753.92 1.61 1.648 2.573 2.183.995.554 2.04.869 3.135.947.232.016.549.022.95.016l.455-.067c.146.008.279.009.4.003 2.142-.116 3.971-1.096 5.485-2.94 1.478-1.797 2.306-3.957 2.484-6.479.036-.514.036-1.106 0-1.776zm-3.407-6.319c1.457 1.804 2.257 3.936 2.401 6.398.039.62.043 1.162.01 1.627-.164 2.323-.92 4.296-2.269 5.918-1.331 1.607-2.926 2.471-4.785 2.589l-.45-.006-.379.048c-.367.007-.642.005-.825-.008-1.941-.137-3.61-1.064-5.007-2.78-1.477-1.755-2.286-3.88-2.427-6.375-.032-.486-.027-1.027.015-1.625.165-2.34.913-4.313 2.244-5.92s2.926-2.47 4.785-2.589l.376.001.074.005.381-.073c.367-.007.642-.004.825.008 1.908.135 3.585 1.062 5.031 2.782z" fill="#1a1d1e"/><path d="m257.675 136.752c.184.229.434.472.749.728l.996.771c.699.733 1.151 1.657 1.356 2.772-.032-.97-.213-1.833-.543-2.59-.46-1.05-1.17-1.734-2.132-2.052-.669-.197-.811-.074-.426.371z" fill="#b7ada5"/><path d="m262.173 132.917.034.227 1.453 2.104c1.006 1.572 1.597 2.772 1.772 3.602-.062-.772-.276-1.646-.641-2.622-.505-1.353-1.179-2.426-2.024-3.22-.338-.173-.536-.204-.594-.091z" fill="#a8a19a"/></g></svg>