<svg fill="none" height="232" viewBox="0 0 324 232" width="324" xmlns="http://www.w3.org/2000/svg" xmlns:xlink="http://www.w3.org/1999/xlink"><clipPath id="a"><path d="m36 100.023h55.5908v50h-55.5908z"/></clipPath><path d="m10 215 37.6071-85.6h220.0719l54.321-128.4" stroke="#f2be19" stroke-dasharray="5.75 5.75" stroke-linejoin="round" stroke-width="2.8742"/><circle cx="9.58067" cy="221.581" fill="#f2be19" r="9.58067"/><g clip-path="url(#a)"><path d="m70.7754 118.755c8.1725.799 13.7205-.443 16.6441-3.728" stroke="#4f301a" stroke-linecap="round" stroke-linejoin="round" stroke-width="8"/><path d="m70.7754 118.755c8.1725.799 13.7205-.443 16.6441-3.728" stroke="#e9ba6b" stroke-linecap="round" stroke-linejoin="round" stroke-width="5"/><path d="m41.5073 116.821c.3961.415 1.4018.113 3.0171-.907.8152-.502 1.5923-1.048 2.3312-1.637.1446-.123.0602-.505-.2532-1.145-.6265-1.265-2.107-3.18-4.4415-5.746-.9248 2.46-1.3135 4.768-1.166 6.923.0889 1.092.2597 1.929.5124 2.512z" fill="#eabb6c"/><path d="m42.1829 107.385c-.4883.551-.7517 1.204-.7904 1.96-.1042.522-.1996 1.095-.2862 1.719-.1581 1.264-.1623 2.196-.0127 2.798.123-.375.3364-.693.6401-.956l.392-.28 1.1134.937.1538-1.693 1.0138.541.718-1.357z" fill="#fcca81"/><path d="m44.6452 109.739-2.6263-2.681-1.024 3.167-.306 1.809-.0999 1.224.0332 1.22c.0445.546.0927.958.1447 1.238l.3443 1.23.0234.044.0462.065c.1671.157.34.254.5186.292l.4898.049c.1035-.003.3761-.05.8177-.14.3377-.101.8139-.281 1.4285-.539l2.6471-1.449.0654-.047.021-.045c.0431-.046.0925-.136.148-.272l.0383-.223.0119-.378c-.0024-.089-.0452-.302-.1284-.639-.1599-.438-.3328-.809-.5187-1.113zm-3.3778 2.341c.0447-.535.0934-.921.1461-1.16.0224-.267.0541-.461.0952-.58l.6626-2.577 2.0178 2.348c.3062.373.5364.676.6907.907.1835.216.3916.519.6243.91l.5595.979c.1411.291.2685.619.382.985l.0792.464-.0167.2.0875-.048-.0863.092c-.0065.007-.0139.007-.0222.001l.021-.045-1.1575.707c-.5539.316-.9771.538-1.2696.667-.4236.208-.8556.379-1.296.513-.2494.083-.4628.127-.6403.134l-.2446-.014-.0677-.042-.1668-.416-.1481-.549c-.0832-.338-.1455-.72-.1867-1.148-.0328-.117-.0528-.309-.06-.575z" fill="#4f301a"/><path d="m52.0126 133.402c.5256-.203 1.3178-.517 2.3766-.941l-.8201-2.081c-.5252-1.558-1.221-2.805-2.0874-3.742-1.7192-1.881-3.4123-1.261-5.0794 1.858 1.3326 2.214 2.3993 4.12 3.2003 5.716.683-.176 1.4863-.446 2.41-.81z" fill="#e9ba6b"/><path d="m51.5854 127.366c-.3375-.802-.6598-1.441-.967-1.917-.457-.119-.9745-.082-1.5526.112-1.1638.407-2.0649 1.391-2.7035 2.953.318.794.7361 1.706 1.2542 2.734l.4032.474c-.0568-.459-.0701-.93-.0399-1.412.0606-.964.3161-1.522.7665-1.675.4775-.165 1.163.215 2.0564 1.14.6738.684 1.3307 1.513 1.9704 2.487-.1304-1.653-.5263-3.285-1.1877-4.896z" fill="#bf8f49"/><path d="m52.8009 133.098c1.0588-.425 1.6017-.644 1.6288-.656l-2.6658-6.706c-.1017-.084-.2402-.159-.4154-.226-.3715-.109-.7711-.116-1.1989-.022.7345 2.143 1.4554 4.292 2.1629 6.447z" fill="#bf8f49"/><path d="m48.7628 132.141c.1076.097.4381.773.9913 2.028.59-.167 1.1643-.351 1.7229-.552-.7122-1.248-1.4521-2.339-2.2195-3.272-.3942-.454-.7117-.788-.9523-1.004-.0249 1.045.1277 1.978.4576 2.8z" fill="#fcca81"/><path d="m54.0559 132.585c.1622-.072.398-.162.7073-.268l-.7382-1.729c-.2958-.708-.5241-1.243-.6847-1.608-.272-.653-.5138-1.183-.7253-1.589l-.8574-1.725c.0946.362.6514 2.083 1.6704 5.165z" fill="#4f301a"/><path d="m49.2923 134.278.7228-.177-.4016-.911c-.1531-.384-.6079-1.085-1.3645-2.104-.8983-1.229-1.3937-1.912-1.4862-2.049l.2946 1.274c.1292.33.4437.859.9434 1.589.4938.716.8053 1.239.9346 1.569z" fill="#4f301a"/><path d="m50.9933 139.827c.557.067 1.3999.167 2.5287.301l.2598-1.695c.3541-1.158.4302-2.207.2284-3.148-.4036-1.883-1.9855-2.305-4.7457-1.265-.4596 2.205-.7145 3.997-.7645 5.376.6819.152 1.513.296 2.4933.431z" fill="#e9ba6b"/><path d="m51.8287 139.927 1.7373.205.3862-2.286c.308-3.349.1493-4.718-.4761-4.106-.312.298-.6581.936-1.0385 1.913-.342 2.215-.545 3.64-.6089 4.274z" fill="#bf8f49"/><path d="m48.9601 136.38-.3077 3.052c.0441.004.4277.025 1.1509.062.4586.013.6651.099.6193.258.3982-1.154.5864-2.58.5648-4.278-.2599-.218-.5435-.348-.8506-.391-.6012-.071-.9934.362-1.1767 1.297z" fill="#fcca81"/><path d="m53.1689 140.095.7474.092.167-1.436c.4002-2.208.6224-3.75.6666-4.626.0594-.875-.2057-1.115-.7952-.721-.1914 2.065-.309 3.379-.3528 3.941-.0373.517-.0892.959-.1558 1.325-.0474.323-.1398.798-.2772 1.425z" fill="#4f301a"/><path d="m49.2272 133.95-.6396 2.15c-.0844.543-.1919 1.389-.3225 2.538l-.0912.683.7407.158.0758-.752c.1835-1.084.2858-1.878.3069-2.382.0357-.503.081-.953.136-1.35.0539-.382.058-.791.0124-1.226z" fill="#4f301a"/><path d="m53.357 139.414c-1.4116-1.841-2.9413-2.858-4.5892-3.05l-.0389.201c-.7133.434-1.3144.916-1.8031 1.448-.8615.97-1.0524 1.841-.5726 2.612.6033.961 1.77 1.417 3.5001 1.37 1.6862-.031 2.7771-.46 3.2725-1.287.1423-.212.2174-.443.2253-.695z" fill="#e9ba6b"/><path d="m53.2928 140.326.128-1.824c-.3342-.317-.8585-.547-1.5728-.69-.1373.936-.3654 1.801-.6842 2.594-.167.389-.3217.689-.4639.9-.2566.363-.1914.583.1956.661.1934.039.4081.041.6439.005l.8303-.489c.4524-.234.7602-.62.9231-1.157z" fill="#bf8f49"/><path d="m46.8449 139.924.1607.196c.0024-.459.1532-.9.4525-1.322.1143-.152.3519-.395.7127-.73-.5971.356-.9927.774-1.1869 1.253-.1119.24-.1582.441-.139.603z" fill="#bf8f49"/><path d="m48.0371 141.313c-.104.121-.1983.191-.283.207.1096.007.3109.06.6038.161.1791.055.3434.109.4929.164-.1576-.351-.2582-.784-.3018-1.301.043-.593.214-1.109.5129-1.546-.0723.061-.1724.19-.3003.386-.1275.21-.2044.375-.2307.494-.0559.668-.2205 1.146-.4938 1.435z" fill="#bf8f49"/><path d="m49.8016 140.931.0906.064c.0751.043.1639.04.2662-.007-.126-.278-.151-.654-.0752-1.13.1059-.462.1648-.745.1768-.849-.3833.603-.536 1.243-.4584 1.922z" fill="#bf8f49"/><path d="m53.0438 140.954c.243-.317.3562-.779.3397-1.385-.4819.782-1.2609 1.247-2.3372 1.395-.8997.113-1.4936.041-1.7818-.218-.7429.435-1.3342.458-1.7739.071-.1207-.086-.3138-.384-.5793-.895-.3813.129-.5915.016-.6307-.338l.0292-.555c-.3911.854-.2159 1.581.5256 2.183.7419.616 1.852.897 3.3304.842 1.4624-.099 2.4217-.466 2.878-1.1z" fill="#ffeddc"/><path d="m46.8878 139.879-.111.003c-.079.357-.2435.569-.4933.635.2858.169.5399.259.7621.268-.068-.324-.0744-.561-.0193-.71z" fill="#c9b19d"/><path d="m49.7128 141.755.7338.047c-.211-.143-.3194-.317-.325-.524l.0365-.29-.3568-.057c.1112.278.0817.553-.0885.824z" fill="#c9b19d"/><path d="m50.7165 137.022c-.5716-.34-1.162-.553-1.7712-.64.0253.384.2705.695.7358.934.4797.224.8249.126 1.0354-.294z" fill="#fcca81"/><path d="m51.0075 137.103c-.2278-.216-.4695-.395-.7249-.536-.2558-.156-.4063-.248-.4515-.276-.1499-.07-.2983-.088-.4454-.054-.6474.136-1.2519.492-1.8133 1.07-.836.822-1.1133 1.236-.8319 1.243.267.023.6538-.173 1.1605-.586.1739-.138.3631-.254.5677-.348-.2318.183-.4338.374-.606.571-.3445.394-.3748.639-.091.735s.5338.037.7499-.176c.1299-.122.3161-.349.5587-.681l.41-.433c-.1415.241-.2679.488-.3794.743-.2233.494-.2307.768-.022.822.3421.065.6988-.152 1.07-.651.1003-.121.2057-.323.3164-.608l-.1168.603c-.0627.416-.0193.652.1302.707.1795.069.3777.012.5947-.172.2022-.183.3448-.379.4279-.589.0831-.209.1348-.484.1552-.825-.2882-.259-.5079-.445-.659-.559z" fill="#fcca81"/><path d="m48.6054 141.03-.4418.079c-.1851.271-.3731.432-.5642.481l.7753-.065.6104.405z" fill="#c9b19d"/><path d="m53.3005 139.77c-.6934.626-1.4384.987-2.235 1.082.0053.193-.0343.371-.1186.536-.1682.345-.468.479-.8993.402.3894.167.7761.238 1.1602.213.3694-.025.6325-.143.7896-.354.5535-.326.8881-.543 1.0036-.649.2597-.244.3846-.551.3745-.921z" fill="#c9b19d"/><path d="m53.6467 138.651c-.1079-.16-.2522-.296-.4329-.41-.1469 1.129-.2191 1.737-.2167 1.826-.0243.193-.0791.357-.1642.493l-.0419.09c-.1279.196-.2647.333-.4106.411l-.0659.024-.0876.046-.4172.167-.1522.115-.0864.091-.2175.162-.1541.048-.1547.027-.2883.008-.1565-.041-.045-.021-.0671-.02-.0228-.021-.0918-.109-.0449-.021-.0678-.043-.0899-.041-.0444.001-.0449-.021-.1775.005c-.0879.032-.1389.063-.1528.093l-.1523.115-.0216.022-.0443.002-.3112-.014-.2902-.059-.0899-.042-.0006-.022-.1595-.151-.0905-.064-.1571-.062-.0666.001-.0449-.021-.0888.003c-.0591.001-.1546.026-.2865.074-.0296.001-.1037-.004-.2224-.016l-.2464-.082-.0684-.065-.0246-.088c-.0172-.088-.049-.169-.0953-.241l-.1164-.197-.0683-.065-.1128-.063c-.1351-.071-.3061-.103-.5132-.097l-.0461-.066c-.0312-.058-.048-.132-.0504-.22l.0347-.356c.0379-.238.1208-.455.2487-.651.1969-.375.5266-.769.9889-1.181l1.3637-1.28c.0867-.077.2174-.169.392-.277.1163-.077.174-.131.1732-.16-.1942-.069-.4528-.055-.7757.043-.279.081-.4178.144-.4166.189-.4656.294-.879.601-1.2402.921-.5203.459-.9001.913-1.1395 1.363-.1694.301-.2796.6-.3307.897-.036.312-.0537.475-.0533.49.0056.207.0552.398.1488.573.0623.117.1239.204.1847.262.1063.1.2338.163.3825.189l.289.014.0258.133c.0479.132.0949.227.1409.284l.0695.11.0456.043.1355.085c.1659.114.3382.19.5168.23l.1337.018.0444-.001.0671.021.0888-.003.3531-.076.0917.109.271.17c.2091.068.3877.108.536.118.1783.025.3485.028.5108.009.1618-.034.2791-.075.3519-.121l.0215-.023.0684.065.2692.104c.0899.042.1719.062.2458.06.1787.039.3563.042.533.007l.2649-.051.2416-.096c.2046-.094.3571-.202.4574-.323l.0431-.045.0222-.001.1313-.07.2416-.096.0881-.024.1091-.07c.2905-.2.5281-.443.7127-.729l.0425-.068-.0006-.022c.1411-.256.2156-.509.2235-.761l-.0012-.045c.014-.03-.0137-.502-.083-1.418z" fill="#4f301a"/><path d="m49.5118 140.872c.0679-.223.0011-.503-.2004-.838l-.2775.407c-.1678.36-.1862.775-.055 1.245.3009-.363.4786-.635.5329-.814z" fill="#2d1f10"/><path d="m48.054 140.313c.0827-.224.0453-.512-.1123-.863l-.3225.386c-.2126.347-.2755.755-.1886 1.227.346-.335.5539-.585.6234-.75z" fill="#2d1f10"/><path d="m46.6992 139.484c.1126-.21.1122-.499-.0014-.866l-.3687.321c-.2577.318-.3726.721-.3445 1.208.3917-.291.6298-.513.7146-.663z" fill="#2d1f10"/><path d="m51.1309 140.828c.0975-.224.0675-.512-.0901-.863-.1163.077-.2312.206-.3446.387-.1978.346-.2607.754-.1887 1.226.3461-.335.5539-.585.6234-.75z" fill="#2d1f10"/><path d="m50.5254 141.422c.3521-.661.4733-1.101.3637-1.32l-.2109.406c-.1395.314-.1904.619-.1528.914z" fill="#563e28"/><path d="m48.9958 141.486c.2773-.688.3538-1.142.2294-1.361l-.1882.427c-.0942.343-.108.654-.0412.934z" fill="#563e28"/><path d="m47.4489 140.907c.352-.661.4804-1.109.3853-1.343l-.2332.406c-.139.33-.1897.642-.1521.937z" fill="#563e28"/><path d="m46.0246 139.991c.442-.619.6302-1.046.5646-1.281-.3745.38-.5627.807-.5646 1.281z" fill="#563e28"/><path d="m64.6708 128.431c-.4373-.259-1.0139-.376-1.7296-.351-.1086 1.84-.5185 3.346-1.2299 4.515-.3674.485-.7662.936-1.1965 1.352.0469.399.0332.752-.0411 1.06.0322.292.1719.481.4192.566.1889.062.3974.059.6257-.01.8767-.209 1.7232-.34 2.5395-.393.4442-.019.8315-.093 1.1619-.222.398-.16.5936-.375.5869-.647l-.2356-1.083c-.2429-2.234-.3166-3.518-.2212-3.851-.0214-.378-.2479-.69-.6793-.936z" fill="#e9ba6b"/><path d="m65.3686 129.407c-.2242-.837-1.0339-1.263-2.4292-1.278-.7594.109-1.33.28-1.7117.513-.4358.257-.8444.704-1.2257 1.34-.0588.123-.0622.536-.0102 1.24.0772.871.2276 1.797.4515 2.781-.0032.066-.0028.195.0011.387.0159.219.0094.424-.0196.614.419-.185.766-.314 1.0407-.386.3694-.115.741-.206 1.1147-.274.2959-.098.7177-.204 1.2656-.316.0931-.009.213.043.3597.156.6286-.003 1.2248.049 1.7886.156-.4186-2.706-.6271-4.35-.6255-4.933z" fill="#bf8f49"/><path d="m64.1915 127.892c-.3269-.082-.7386-.118-1.2352-.109l-.0448.722c.3917-.027.7607.004 1.107.093.2549.065.4781.169.6698.31.1916.142.2962.306.3137.492l-.0442.504.4651 4.349.7873.137-.2356-1.083c-.0453-.432-.0826-.755-.1121-.968l-.18-2.44.0441-.504c-.0198-.411-.2147-.761-.5844-1.05-.274-.219-.5909-.369-.9507-.453z" fill="#4f301a"/><path d="m60.1947 134.209.2112.149.4628-.543c-.1908-2.08-.287-3.378-.2886-3.894-.0151-.51.2255-.972.7217-1.384l.0328-.475-.7777.488c-.7034.456-.9704 1.535-.8011 3.237.0712.856.2175 1.664.4389 2.422z" fill="#4f301a"/><path d="m60.3895 133.663-.2398.445.1401.592c.113.403.2368.647.3716.733l.207-1.618z" fill="#4f301a"/><path d="m65.8173 133.885-.3948.368c.0755.354.0178.59-.173.706.1876-.05.4159-.119.6847-.205.1892-.084.2811-.205.2755-.364.0004-.145-.063-.271-.1902-.376z" fill="#4f301a"/><path d="m59.4407 135.604.4352.56 2.2415-1.079c.1212-.062.676-.273 1.6643-.631.6308-.35.8545-.832.671-1.447-.5166-.531-1.8378-.147-3.9636 1.154-.5002.299-.8199.631-.9591.995z" fill="#e9ba6b"/><path d="m64.5965 133.319c-.0769-.185-.1796-.321-.3079-.406-.232-.211-.7058-.193-1.4214.055.0926.019.3395.294.7407.825l.3544.08c.2609.014.4426-.021.5449-.106.1138-.094.1436-.243.0893-.448z" fill="#bf8f49"/><path d="m64.7602 133.413c-1.1614.08-2.283.405-3.3646.974-.2879.162-.6641.426-1.1286.791-.5099.403-.8814.673-1.1144.808-.4659 2.054-.115 3.289 1.0525 3.702 1.1372.401 2.4216.018 3.853-1.148 1.3972-1.138 2.0341-2.222 1.9105-3.251z" fill="#e9ba6b"/><path d="m64.9023 133.411c-.8095.018-1.3165.054-1.5209.109.6124.739.9392 1.782.9805 3.129-.0026.251.3964-.367 1.1971-1.855z" fill="#bf8f49"/><path d="m60.1371 138.738.0595.037c.0396.025.1067.036.2013.035-.2996-.385-.4598-.857-.4808-1.415-.0107-.221.0235-.585.1026-1.091-.265.698-.3227 1.312-.173 1.84.0692.269.166.467.2904.594z" fill="#bf8f49"/><path d="m62.0506 139.138c-.0181.193-.062.325-.1317.397.1343-.116.5225-.284 1.1646-.505-.3606-.18-.7313-.477-1.1121-.891-.2128-.303-.3557-.568-.4288-.795-.0844-.218-.1422-.496-.1733-.835-.0003.115.0095.289.0296.522.0276.265.0677.452.1203.562.3934.614.5705 1.129.5314 1.545z" fill="#bf8f49"/><path d="m63.278 137.633.1248.012c.0851-.013.1591-.075.2218-.184-.4191-.228-.8211-.806-1.206-1.734.0382.486.1938.952.4667 1.397.1374.212.2683.382.3927.509z" fill="#bf8f49"/><path d="m66.014 135.482c-.0044-.399-.2139-.849-.6285-1.349.1067.986-.2402 1.887-1.0408 2.703-.6735.692-1.2192 1.029-1.6371 1.011-.3316.85-.8161 1.26-1.4533 1.232-.1985-.008-.5537-.136-1.0654-.383-.2318.345-.4825.39-.7522.133l-.3474-.489c.1607.635.6085 1.06 1.3435 1.275.5216.144 1.1809.048 1.9781-.286.8067-.323 1.4328-.678 1.8784-1.066 1.1568-1.035 1.7317-1.962 1.7247-2.781z" fill="#ffeddc"/><path d="m60.1886 138.695-.0512.043c.1124.367.0793.663-.0991.887.3613-.049.6696-.036.9246.04-.3466-.442-.5386-.743-.5759-.904z" fill="#c9b19d"/><path d="m63.7411 138.4.6708-.44c-.2743.016-.4868-.067-.6375-.249l-.1496-.25c-.0569.047-.1724.104-.3466.172.2774.173.4317.428.4629.767z" fill="#c9b19d"/><path d="m62.3449 138.521-.3159.348c.0197.348-.0359.605-.1669.771l.6031-.557.7775-.069z" fill="#c9b19d"/><path d="m65.4587 134.36c-.1676 1.002-.5567 1.794-1.1675 2.376.1319.16.2146.341.248.543.0876.407-.0778.717-.4964.929.441-.116.816-.311 1.1251-.587.2977-.265.4442-.54.4394-.824.2478-.627.3851-1.028.4122-1.204.0559-.373-.0433-.712-.2976-1.019z" fill="#c9b19d"/><path d="m63.0112 137.797c-.1033-.241-.3477-.432-.733-.573l.0296.522c.0971.418.3569.779.7796 1.081.0167-.513-.0087-.856-.0762-1.03z" fill="#2d1f10"/><path d="m61.3894 138.305c-.0691-.269-.284-.494-.6447-.674l-.0186.533c.0441.424.2594.811.646 1.162.0677-.497.0735-.837.0173-1.021z" fill="#2d1f10"/><path d="m64.342 136.694c-.0805-.259-.3011-.479-.6617-.66-.0553.142-.0615.319-.0187.533.0441.424.2595.811.6461 1.162.0791-.506.0905-.851.0343-1.035z" fill="#2d1f10"/><path d="m64.212 137.579c-.1376-.769-.3207-1.221-.5491-1.358l.0808.48c.0916.365.2477.658.4683.878z" fill="#563e28"/><path d="m62.9769 138.659c-.2321-.767-.4691-1.204-.7108-1.31l.129.468c.1446.36.3385.64.5818.842z" fill="#563e28"/><path d="m61.2759 139.175c-.1262-.777-.314-1.236-.5632-1.374l.0808.479c.0916.366.2524.664.4824.895z" fill="#563e28"/><path d="m65.1716 133.389-.8087.066 1.2762 1.992.0048.284c-.0212.113-.0431.179-.0659.198l-.0346.201c-.0972.253-.2257.504-.3853.751l-.5241.722c-.0722.098-.1461.159-.2219.183l-.0965.023-.0794.008c-.1287.03-.2376.072-.3266.127-.1326.071-.2246.157-.276.257l-.1624.221-.1511.269-.0683.056-.176.031c-.2099.001-.3792.017-.5079.047-.2024.033-.389.121-.5596.262l-.3725.28-.213.09-.0171.014-.0482.011c-.1248-.012-.207-.03-.2467-.055l-.4191-.228-.3061-.092-.601-.135-.0877-.071-.0453-.02-.0112-.048-.0283-.034c-.2183-.357-.3046-.889-.259-1.598.0509-.541.1517-1.056.3026-1.545-.3032.212-.5978.389-.8838.53-.0635.341-.1042.662-.1221.964-.0594.855.0549 1.537.3427 2.047l.2119.256c.117.095.2161.156.2973.185.1303.065.3099.108.5386.129l.2155.052.1359.06c.0416.004.1766.074.4051.211.2417.107.4638.143.6663.11l.0653-.025.0965-.023c.0416.004.0955-.012.1618-.047l.2501-.15c.3829-.279.6008-.421.6538-.426l.4426-.022c.1381-.018.245-.04.3207-.064l.1648-.079.0341-.028.0483-.011.0512-.043c.0341-.028.1547-.195.3618-.501l.0941-.164.0683-.057.2242-.041.1789-.062c.2083-.096.3723-.222.4919-.379.1271-.124.3199-.389.5783-.795.1937-.276.3535-.581.4794-.915l.1263-.507c.0384-.186.0409-.38.0075-.582l-.0083-.079-.0565-.069z" fill="#4f301a"/><path d="m59.7072 138.462c-.0389-.256-.2311-.499-.5764-.731-.0647.13-.0917.306-.0811.527-.0088.429.162.844.5125 1.244.1207-.502.169-.849.145-1.04z" fill="#2d1f10"/><path d="m59.3948 139.266c.0327-.794-.0528-1.279-.2565-1.456-.1038.546-.0183 1.032.2565 1.456z" fill="#563e28"/><path d="m58.7601 136.311c.0851-.013.2518-.113.5001-.299.2484-.187.3802-.305.3954-.356.0114-.01.0096-.047-.0053-.111-.0318-.108-.0435-.319-.0349-.633-.5559.557-.841 1.023-.8553 1.399z" fill="#4f301a"/><path d="m64.4054 133.506.0936.008.5551.289c.0887.06.1662.073.2325.037.0777-.045.0394-.195-.1149-.451-.1429-.265-.4184-.459-.8266-.581-.4289-.125-.566-.116-.4114.024.1735.163.3308.388.4717.674z" fill="#4f301a"/><path d="m58.7148 110.568-.2878-2.027-.8904 1.215c.4227-1.317.3497-2.529-.219-3.636l-.9782-1.26c-.0034.426-.4172 1.291-1.2413 2.593.4622-1.773.4892-3.249.0812-4.428-.3776-1.144-1.0427-1.68-1.9951-1.61-.2215 1.861-.8205 3.509-1.7971 4.944-.4134.588-1.0886 1.332-2.0256 2.233-.3383.341-.5341.781-.5875 1.32-.0429.962-.1233 1.929-.241 2.901-.1021 1.723-.4749 3.858-1.1181 6.405-.3258 1.283-.643 2.389-.9517 3.318.7158.881 1.3836 1.385 2.0036 1.512.8358.192 2.2176-.031 4.1455-.668 1.7255-.55 3.0612-1.403 4.007-2.559.4798-.581.7837-1.106.9117-1.578l-1.7944.259 1.5425-1.186c1.114-.775 1.7952-1.781 2.0434-3.021.1144-.624.118-1.169.0107-1.636l-1.9245 1.181c.8739-1.257 1.3093-2.681 1.3061-4.272z" fill="#bf8f49"/><path d="m55.541 102.683c-.2151-.539-.5301-.971-.9449-1.296-.4287-.321-.9171-.455-1.4654-.402l-.3447.028-.0296.341c-.2296 1.801-.8091 3.378-1.7386 4.733-.3468.518-.7184.973-1.1149 1.366-.4242.403-.7097.678-.8567.825-.255.233-.427.475-.516.727-.1167.263-.1962.717-.2387 1.362-.0791 1.069-.1481 1.866-.207 2.392l-.0125.028c-.0798 1.621-.447 3.731-1.1014 6.328-.2728 1.059-.4913 1.839-.6554 2.338l-.3422 1.163.1451.185c.3703.452.6992.8.9868 1.045.2682.236.5753.41.9212.524.5202.194 1.1472.239 1.881.136.7448-.075 1.7017-.313 2.8706-.712l.2908-.104c1.6952-.586 3.0171-1.473 3.9657-2.662.4742-.594.7837-1.146.9284-1.654l.1796-.679-.785.113.2036-.143c1.2206-.834 1.9558-1.923 2.2058-3.267.1256-.676.1278-1.284.0068-1.824l-.1361-.638-1.0308.627c.3602-.913.5402-1.908.5401-2.983-.0076-.534-.0539-1.046-.139-1.536-.0605-.309-.1128-.519-.1569-.63l-.2604-.83-.3412.452c-.0102-.579-.1228-1.138-.3381-1.677-.3199-.801-.7537-1.412-1.3013-1.832l-.7259-.57-.0088.334c-.0398-.585-.1512-1.121-.334-1.608zm-1.9548-.796c.1813.03.3431.098.4856.206.271.204.4838.499.6382.885.4469 1.119.4323 2.567-.0437 4.344l-.7475 2.82 1.5609-2.446c.5083-.813.8637-1.467 1.066-1.964.2245.285.4026.592.5343.922.342.935.3475 1.919.0165 2.951l-.826 2.564 1.914-2.572c.0571.346.0802.7.0691 1.063-.0049 1.453-.4069 2.763-1.2059 3.929l-1.2193 1.758 3.1257-1.914c-.0009.267-.0317.546-.0926.837-.237 1.109-.8515 2.005-1.8436 2.689l-.0208.007-2.8894 2.209 2.6916-.388c-.1402.242-.3164.494-.5285.755-.8321 1.005-2.0098 1.779-3.5333 2.32l-.2701.096c-1.0304.35-1.8543.564-2.4718.641-.4486.065-.8362.085-1.1629.059-.4263-.038-.7874-.17-1.0833-.396-.2031-.17-.4685-.439-.7961-.805.2949-.889.5927-1.926.8932-3.109.6488-2.532 1.0271-4.693 1.1349-6.482l-.0208.008c.1183-.982.2055-1.951.2617-2.908.0142-.242.0546-.437.1213-.587.075-.169.1887-.32.3412-.453l.8899-.86c1.6459-1.736 2.6497-3.795 3.0115-6.179z" fill="#4f301a"/><path d="m73.8345 129.615c.5513-.945.8553-2.005.9122-3.18.0628-.953.0129-1.972-.1498-3.056-.199-1.334-.5504-2.559-1.0543-3.677-.519-1.132-1.4413-2.129-2.7668-2.993-1.1898-.769-2.2816-1.198-3.2753-1.287-.8009-.073-1.7377.027-2.8104.301-.8228.21-1.5995.483-2.3302.82-.5993.267-1.6028.906-3.0105 1.916-1.4377.997-2.2267 1.634-2.3671 1.911-2.4916 4.678-2.2485 8.72.7293 12.126.9924 1.125 2.1792 2.058 3.5605 2.799 1.1563.624 1.8435.869 2.0618.734.796-.653 1.608-1.262 2.4359-1.828 1.6268-1.115 3.1465-1.815 4.5592-2.099 1.5599-.31 2.7284-1.139 3.5055-2.487z" fill="#e9ba6b"/><path d="m69.2001 115.872c-1.2268-.5-2.7966-.552-4.7093-.156-.1616.041-.651.271-1.4682.688-.9628.502-1.8297.997-2.6006 1.485s-1.4157.988-1.9344 1.501c-.446.464-.5952.69-.4476.679.0738-.006.7218.153 1.9438.476 1.3545.298 2.4374.401 3.2487.311 2.0651-.23 3.5149-.509 4.3493-.839.8631-.361 1.716-.825 2.5587-1.393 1.0901-.719 1.4392-1.212 1.0473-1.479-1.2353-.811-1.8979-1.235-1.9877-1.273z" fill="#fcca81"/><path d="m69.3201 123.554c-.5916 1.096-1.0525 1.827-1.3829 2.193-.5175.558-1.3005 1.143-2.3491 1.755l-.0389 5.915c.0033.118.7287-.136 2.1764-.764 1.4333-.611 2.3459-1.058 2.7377-1.339.5371-.382 1.1697-1.059 1.8978-2.032.9419-1.272 1.6458-2.592 2.1116-3.96.4593-2.154-.4376-4.664-2.6906-7.533.2487.441.1887 1.224-.1802 2.348-.1907.607-.572 1.547-1.144 2.82-.0878.036-.1453-.174-.1725-.632l-.0193-.71c-.1807.429-.496 1.075-.946 1.939z" fill="#bf8f49"/><path d="m74.8722 125.292c-.0208-.221-.1566-1.137-.4076-2.748-.2152 1.335-1.5709 2.897-4.0671 4.685-1.4081.995-2.8129 1.842-4.2143 2.54-.2043.104-.5213.417-.9509.938-.4876.571-.8363 1.078-1.0461 1.524-.045.522-.0518 1.086-.0206 1.691.0081.295-.0947.866-.3085 1.712.4321-.432.7996-.793 1.1024-1.083.5626-.531 1.1595-.887 1.7908-1.068 4.2714-1.255 6.85-3.005 7.7359-5.25.3322-.84.4609-1.82.386-2.941z" fill="#d6c1b0"/><path d="m75.204 125.267c-.0567-2.085-.4787-4.002-1.2661-5.75-.5206-1.191-1.489-2.252-2.9051-3.182-1.2497-.795-2.4087-1.249-3.477-1.361-.3556-.018-.7253-.012-1.1092.016-1.3584.103-2.7757.491-4.2517 1.165-.2781.11-.7298.366-1.3551.769-.7421.456-1.6064 1.047-2.5927 1.773l-1.3892 1.149c-.1153.113-.201.223-.2573.331-1.2115 2.24-1.7893 4.387-1.7333 6.443.0418 1.538.4593 3.018 1.2526 4.44.9466 1.618 2.3007 2.99 4.0625 4.117.633.427 1.256.758 1.869.993l.6951.259.5345.071c.0886-.007.1692-.035.2419-.085.073-.035.2036-.127.392-.274 1.363-1.021 2.2189-1.649 2.5676-1.883 1.3958-.905 2.697-1.477 3.9037-1.716.9127-.172 1.7022-.521 2.3685-1.045.8407-.641 1.4683-1.503 1.8827-2.587.3055-.734.4903-1.555.5543-2.464.0231-.239.0272-.632.0123-1.179zm-.9006 1.157c-.0584 1.116-.3422 2.107-.8512 2.976-.3395.573-.7484 1.041-1.2268 1.403-.5798.444-1.2378.731-1.974.86-1.4275.285-2.9982 1.011-4.7124 2.177-.3196.217-.8563.613-1.61 1.188l-.7392.567c-.0203.003-.0426-.003-.067-.017-.4462-.085-1.0149-.324-1.7062-.716-1.4572-.809-2.6756-1.814-3.6551-3.015-1.2866-1.607-1.956-3.372-2.0083-5.294-.0503-1.848.4872-3.845 1.6125-5.989l.2161-.216c.2454-.226.5929-.504 1.0426-.835.7106-.527 1.4364-1.041 2.1774-1.542.6978-.452 1.273-.792 1.7255-1.019 1.3587-.635 2.6732-.993 3.9434-1.074l.9763-.007c.9347.093 1.9592.497 3.0736 1.213 1.2652.824 2.1342 1.766 2.6069 2.827.7398 1.633 1.1367 3.441 1.1906 5.423.0141.517.0092.881-.0147 1.09z" fill="#4f301a"/><path d="m65.8317 124.013c-.6037-2.067-1.5029-3.579-2.6978-4.536l-1.598-.823c-4.6915 1.578-7.2814 2.363-7.7699 2.356-.2667-.015-.9256.237-1.9767.756-1.2553.627-2.3822 1.352-3.3807 2.173-2.9672 2.416-3.8538 4.904-2.6597 7.466l1.6494 2.707c1.3105 1.948 2.4995 3.233 3.5669 3.855s2.106 1.004 3.1159 1.146c.5052.078.905.093 1.1996.043.3008-.363.7838-.555 1.4489-.578.3396-.028.6433-.012.9112.047l.7049-1.01 2.1362-.605c1.5678-.561 2.7106-1.243 3.4285-2.047 1.0191-1.152 1.7418-2.596 2.168-4.331.5037-2.149.4215-4.356-.2467-6.619z" fill="#e9ba6b"/><path d="m63.6509 135.207c1.1553-1.041 1.951-2.245 2.3873-3.61.1905-.612.3104-1.642.3598-3.091l.0131-1.962c-.3343.219-.7205.433-1.1587.64-.8908.433-1.6249.638-2.2025.616-.6075-.017-1.0054.043-1.1935.179-.1725.136-.5691.24-1.1899.312-.6057.084-1.4043.367-2.3959.849-.9941.48-1.7238.848-2.1892 1.104-.4623.257-1.2273.69-2.2949 1.3-1.0557.622-1.1385 1.386-.2483 2.292.9074.916 1.2035 1.467.8884 1.654-.3048.2-.3688.293-.1922.278.1769-.015.3943.364.6523 1.137.3326.806.7302 1.281 1.1928 1.426.5223.164 1.7996-.199 3.8318-1.091 1.9447-.847 3.1912-1.525 3.7396-2.033z" fill="#bf8f49"/><path d="m48.484 130.788c.0159.042-.123.103-.4167.182-.455.136-.9298.357-1.4245.663-.5528.346-.6606.735-.3233 1.168.1689.224.3958.409.6809.554l.1177.248c1.1374 2.11 2.5908 3.595 4.36 4.456.8993.428 1.6746.646 2.3258.655.7464.246 1.3386.257 1.7764.035s1.0774-.367 1.9189-.434c.0353-.333-.1332-1.359-.5054-3.079-.1191-.024-.2021-.084-.2491-.18l-.0484-.148-1.255.367c-.1918.018-.4384-.075-.7398-.276-.5738-.424-1.1054-1.203-1.5949-2.338-.1255-.261-.1987-.776-.2196-1.545l.0152-1.072-2.4079.406c-.3396.027-.6863.063-1.0401.108-.6779.099-1.0013.176-.9702.23z" fill="#ffeddc"/><path d="m65.6965 132.902c.3505-.713.5421-1.829.5747-3.349l-1.3489 1.808c-.043.052-.0374-.016.0166-.203l.1032-.285c-.2956.555-.8812 1.055-1.7568 1.499-.5396.284-1.2147.487-2.0251.609l-1.0622.112c-.9341.469-1.635.81-2.1026 1.022-.8175.405-1.7921.747-2.9237 1.027-.191.047-.3157.633-.3739 1.756-.385 1.075-1.4897 1.528-3.314 1.36 1.1837 1.093 3.4097 1.067 6.6778-.077 2.9605-1.033 4.9928-2.193 6.0971-3.478.8181-.925 1.2974-1.525 1.4378-1.801z" fill="#d6c1b0"/><path d="m64.4084 134.5c-.3442.4-.874.778-1.5892 1.136-.8604.457-1.8855.845-3.0752 1.164l-1.7637.431-.6631.914c-.3486-.031-.718-.013-1.1082.053-.2504.042-.4852.111-.7045.207-.1828.086-.3573.197-.5235.334-.2697.033-.6031.015-1.0002-.055-.9359-.139-1.9074-.503-2.9147-1.09-.5562-.323-1.155-.853-1.7965-1.591-.702-.788-1.4703-1.84-2.3051-3.154l-.9552-1.666-.0221.003c-.253-.587-.4028-1.201-.4495-1.84-.0134-1.037.3439-2.04 1.0721-3.01.9001-1.176 2.2683-2.275 4.1046-3.297.4661-.272 1.1013-.579 1.9057-.923l.6364-.263.2203-.059.0884-.015c1.6053-.27 3.0998-.804 4.4837-1.602.6992-.4 1.2437-.781 1.6333-1.144l-.5495-.62c-.3462.326-.8399.669-1.4811 1.029-1.2676.719-2.6378 1.202-4.1106 1.45l-.2865.07c-.5286.149-1.1796.422-1.9529.819-1.7373.857-3.1684 1.819-4.2934 2.884-.7498.721-1.3144 1.447-1.6939 2.179-.4643.88-.6844 1.764-.6602 2.651.0197.725.2022 1.451.5475 2.18l.0006.022c.0147-.002.1701.269.466.813.4034.689.8056 1.335 1.2066 1.935.677.956 1.2445 1.692 1.7024 2.209.702.788 1.3613 1.367 1.978 1.738 1.1124.645 2.196 1.049 3.2509 1.213.6983.105 1.1497.111 1.3542.017l.1768-.03.1295-.133c.0565-.099.1578-.183.3038-.252l.4627-.122c.221-.037.4795-.051.7757-.042l.2669.022.0668.011.0006.022.3117.037.7688-1.11c.1404-.023.3391-.064.5958-.122.6464-.169 1.2703-.348 1.8717-.538.8208-.287 1.5668-.598 2.2383-.934.788-.4 1.4192-.856 1.8935-1.366z" fill="#4f301a"/><path d="m52.9995 132.891c1.1392-1.154 1.8198-2.633 2.0417-4.438s-.0814-3.411-.9099-4.816c-.8285-1.391-1.9233-2.175-3.2844-2.352-1.3907-.163-2.6483.332-3.7727 1.486-1.1244 1.169-1.7975 2.656-2.0195 4.461-.2219 1.805.074 3.403.8877 4.794.8137 1.405 1.9159 2.189 3.3066 2.352 1.3612.177 2.6113-.318 3.7505-1.487z" fill="#6d3b00" fill-opacity=".501961"/><path d="m53.5911 144.911c.5065.242 1.2731.609 2.2998 1.101l.7775-1.522c.6982-.983 1.0994-1.953 1.2035-2.91.2082-1.914-1.1574-2.824-4.0967-2.729-1.1264 1.94-1.9296 3.556-2.4095 4.846.5979.365 1.3396.769 2.2254 1.214z" fill="#e9ba6b"/><path d="m54.35 145.274 1.5804.756 1.0824-2.042c1.342-3.074 1.621-4.422.837-4.044-.389.182-.9167.675-1.5831 1.477-1.0185 1.989-1.6574 3.273-1.9167 3.853z" fill="#bf8f49"/><path d="m52.7464 140.988-1.2483 2.793c.0405.018.3972.161 1.0703.43.4302.16.5987.308.5054.444.7387-.964 1.3641-2.255 1.8762-3.871-.1779-.29-.4055-.505-.6827-.645-.5471-.261-1.054.022-1.5209.849z" fill="#fcca81"/><path d="m55.5664 145.867.6789.328.6082-1.307c1.0715-1.963 1.7654-3.352 2.0817-4.167.3307-.81.1551-1.124-.5268-.94-.8288 1.895-1.352 3.101-1.5697 3.62-.1976.478-.3852.88-.563 1.205-.1461.291-.3826.711-.7093 1.261z" fill="#4f301a"/><path d="m53.7609 138.772-1.2799 1.831c-.2501.487-.6171 1.254-1.101 2.3l-.3007.618.6518.389.3076-.688c.5137-.968.8596-1.688 1.0376-2.159.1914-.464.3753-.876.5518-1.234.1708-.344.3029-.731.3964-1.158z" fill="#4f301a"/><path d="m56.0751 140.289c.5611.03 1.4102.067 2.5475.111l.1497-2.243c.1925-1.644.0983-3.073-.2827-4.287-.7473-2.428-2.5403-2.554-5.3792-.377.2553 2.577.403 4.761.443 6.553.6917.118 1.5323.199 2.5217.243z" fill="#e9ba6b"/><path d="m58.2713 134.581c.0385-.873.021-1.592-.0524-2.154-.3616-.296-.8447-.474-1.4493-.533-1.2244-.104-2.4587.43-3.7029 1.6-.0529.858-.0655 1.865-.0377 3.02l.1611.6c.1452-.444.3345-.881.5679-1.311.4669-.858.9363-1.266 1.4083-1.221.5015.044.9575.673 1.3681 1.887.3155.904.5537 1.933.7146 3.088.5897-1.57.9304-3.229 1.0223-4.976z" fill="#bf8f49"/><path d="m56.9167 140.334c1.1373.044 1.7207.066 1.7503.066l.4629-7.24c-.056-.119-.1487-.245-.2781-.378-.2889-.252-.6465-.422-1.0729-.511-.2537 2.266-.5223 4.531-.8056 6.797z" fill="#bf8f49"/><path d="m53.681 137.802c.0556.133.0646.889.0272 2.266.6038.088 1.2008.155 1.791.199-.1088-1.436-.31-2.739-.6035-3.909-.1617-.577-.3051-1.014-.4301-1.31-.4693.948-.7309 1.866-.7846 2.754z" fill="#fcca81"/><path d="m58.2689 140.378c.1774 0 .4284.015.7528.044l.0735-1.887c.0357-.77.059-1.355.0699-1.755.0341-.711.0425-1.296.0254-1.755l-.0362-1.932c-.0692.37-.3031 2.177-.7017 5.419z" fill="#4f301a"/><path d="m53.2447 139.979.7283.133.0272-.999c.026-.415-.0845-1.244-.3317-2.488-.2846-1.495-.4395-2.324-.4647-2.487l-.2789 1.288c-.0245.355.0328.97.1717 1.843.1393.859.1967 1.466.1723 1.822z" fill="#4f301a"/><path d="m55.9056 146.629c-1.3609-1.879-2.8625-2.937-4.5047-3.174l-.0444.2c-.7249.414-1.3389.88-1.842 1.397-.8877.947-1.1023 1.813-.6437 2.597.5769.976 1.7308 1.465 3.4618 1.465 1.6865.015 2.7888-.385 3.3066-1.198.148-.207.2294-.437.2442-.688z" fill="#e9ba6b"/><path d="m55.817 147.539.1777-1.82c-.3255-.326-.8433-.57-1.5534-.733-.1628.932-.4144 1.791-.7547 2.575-.1776.384-.3403.68-.4883.887-.2663.355-.2072.577.1775.666.1923.044.4068.052.6435.022l.8434-.466c.4586-.222.7767-.599.9543-1.131z" fill="#bf8f49"/><path d="m49.3812 146.961.1554.2c.0148-.459.1776-.895.4883-1.309.1183-.148.3625-.385.7324-.711-.6066.341-1.0135.748-1.2207 1.221-.1184.237-.1701.436-.1554.599z" fill="#bf8f49"/><path d="m50.5354 148.381c-.1072.12-.2034.186-.2885.2.1094.01.3091.069.5991.178.1776.059.3403.118.4883.177-.148-.355-.2367-.791-.2663-1.309.0593-.592.2442-1.102.555-1.531-.074.059-.1776.185-.3108.377-.1331.207-.2145.37-.2441.488-.074.666-.2516 1.139-.5327 1.42z" fill="#bf8f49"/><path d="m52.3101 148.049.0888.066c.074.045.1627.045.2663 0-.1183-.281-.1331-.658-.0443-1.132.1184-.458.185-.739.1998-.843-.3995.592-.5697 1.228-.5106 1.909z" fill="#bf8f49"/><path d="m55.551 148.16c.2516-.311.3773-.77.3774-1.376-.5031.769-1.2946 1.213-2.3746 1.331-.9025.089-1.4943 0-1.7754-.266-.7545.414-1.3463.421-1.7753.022-.1183-.089-.3033-.392-.5547-.91-.3847.118-.5918 0-.6214-.355l.0445-.555c-.4144.843-.2591 1.576.4658 2.197.7249.636 1.8271.947 3.3065.932 1.4647-.059 2.4338-.399 2.9072-1.02z" fill="#ffeddc"/><path d="m49.4261 146.917h-.111c-.0888.355-.2589.562-.5105.621.2811.177.5326.274.7545.288-.0591-.325-.0591-.562.0001-.71z" fill="#c9b19d"/><path d="m52.1992 148.87.7323.066c-.2071-.148-.3107-.325-.3107-.532l.0444-.289-.355-.066c.1035.281.0665.554-.111.821z" fill="#c9b19d"/><path d="m53.3322 144.165c-.5622-.355-1.1465-.584-1.7531-.688.0148.385.2515.703.7101.954.4734.237.8211.148 1.043-.266z" fill="#fcca81"/><path d="m53.6201 144.254c-.2219-.222-.4586-.407-.7101-.555-.2515-.163-.3994-.259-.4438-.288-.1479-.074-.2959-.097-.4438-.067-.651.118-1.265.458-1.842 1.021-.8582.798-1.1467 1.205-.8656 1.22.2663.03.6584-.155 1.1762-.555.1776-.133.3699-.244.577-.332-.2367.177-.4438.362-.6214.554-.3551.385-.3921.629-.111.733.2811.103.5326.051.7545-.156.1332-.118.3255-.34.5771-.665l.4216-.422c-.1479.237-.2811.481-.3995.732-.2367.489-.2515.762-.0444.821.3403.074.7027-.133 1.0874-.621.1036-.118.2146-.318.333-.599l-.1332.599c-.074.414-.0371.651.1109.71.1775.074.3772.023.5992-.155.2071-.178.3551-.37.4438-.577.0888-.207.148-.481.1776-.821-.281-.266-.4955-.459-.6435-.577z" fill="#fcca81"/><path d="m51.1126 148.115-.4438.067c-.1924.266-.3847.421-.577.466l.7767-.045.5991.422z" fill="#c9b19d"/><path d="m55.8388 146.984c-.7102.606-1.4647.946-2.2636 1.02-.0001.193-.0444.37-.1332.533-.1776.34-.4809.466-.9099.377.3846.178.7693.259 1.1539.244.3699-.014.6362-.125.799-.333.5622-.31.9025-.517 1.0208-.621.2664-.237.3995-.54.3996-.91z" fill="#c9b19d"/><path d="m56.2165 145.874c-.1035-.163-.244-.303-.4216-.422-.1776 1.125-.2664 1.731-.2664 1.82-.0296.192-.0888.355-.1776.488l-.0444.089c-.1331.192-.2737.326-.4216.399l-.0666.023-.0888.044-.4216.155-.1554.111-.0888.089-.2219.155-.1553.045-.1554.022h-.2885l-.1553-.044-.0444-.023-.0666-.022-.0222-.022-.0887-.111-.0444-.022-.0666-.045-.0887-.044h-.0444l-.0444-.022h-.1775c-.0888.029-.1406.059-.1554.089l-.1553.111-.0222.022h-.0444l-.3107-.023-.2885-.066-.0888-.045v-.022l-.1553-.155-.0887-.067-.1554-.066h-.0666l-.0443-.022h-.0888c-.0592 0-.1553.022-.2885.066-.0296 0-.1036-.007-.2219-.022l-.2441-.089-.0666-.066-.0222-.089c-.0148-.089-.0443-.17-.0887-.244l-.111-.2-.0665-.067-.111-.066c-.1331-.074-.3033-.111-.5104-.111l-.0444-.067c-.0296-.059-.0443-.133-.0443-.222l.0444-.355c.0444-.237.1332-.451.2663-.643.2072-.37.5475-.755 1.0209-1.154l1.3982-1.243c.0888-.074.2219-.163.3995-.266.1183-.074.1775-.126.1775-.155-.1923-.074-.4512-.067-.7767.022-.2811.074-.4216.133-.4216.177-.4735.281-.8952.577-1.265.888-.5327.444-.9248.887-1.1763 1.331-.1776.296-.2959.592-.3551.888-.0445.31-.0667.473-.0667.488 0 .207.0444.399.1331.577.0592.118.1184.207.1776.266.1035.104.2293.17.3772.2l.2885.022.0222.133c.0444.134.0887.23.1331.289l.0666.111.0444.044.1331.089c.1627.118.3329.2.5104.244l.1331.022h.0444l.0666.023h.0888l.355-.067.0888.111.2663.178c.2071.074.3846.118.5326.133.1775.029.3476.037.5104.022.1627-.03.2811-.067.3551-.111l.0222-.022.0665.066.2663.111c.0888.045.1702.067.2441.067.1776.044.3551.052.5326.022l.2663-.044.2441-.089c.2072-.089.3625-.192.4661-.31l.0444-.045h.0222l.1331-.066.2441-.089.0888-.022.111-.067c.2959-.192.54-.429.7324-.71l.0444-.067v-.022c.1479-.251.2293-.503.2441-.754v-.045c.0148-.029.0001-.503-.0443-1.42z" fill="#4f301a"/><path d="m52.0222 147.982c.074-.222.0149-.503-.1774-.843l-.2886.399c-.1775.355-.2071.769-.0888 1.243.3107-.355.4956-.621.5548-.799z" fill="#2d1f10"/><path d="m50.5794 147.383c.0888-.222.0593-.511-.0887-.866l-.3329.377c-.2219.341-.2959.747-.222 1.221.3551-.326.5697-.57.6436-.732z" fill="#2d1f10"/><path d="m49.2481 146.517c.1184-.207.1258-.495.0222-.865l-.3772.31c-.2664.311-.3922.71-.3774 1.199.3995-.281.6436-.496.7324-.644z" fill="#2d1f10"/><path d="m53.6427 147.982c.1036-.222.0814-.51-.0665-.865-.1184.073-.2367.199-.3551.377-.2071.34-.2811.747-.222 1.22.3551-.325.5696-.569.6436-.732z" fill="#2d1f10"/><path d="m53.021 148.559c.3699-.651.5031-1.087.3995-1.309l-.2219.399c-.148.311-.2072.614-.1776.91z" fill="#563e28"/><path d="m51.4892 148.581c.2959-.681.3848-1.132.2664-1.354l-.1997.422c-.1036.34-.1258.651-.0667.932z" fill="#563e28"/><path d="m49.9585 147.96c.3699-.651.5105-1.095.4217-1.332l-.2441.4c-.148.325-.2072.636-.1776.932z" fill="#563e28"/><path d="m48.5605 147.005c.4586-.606.6584-1.028.5992-1.264-.3847.369-.5844.791-.5992 1.264z" fill="#563e28"/><path d="m75.6122 129.408c-.4373-.259-1.0139-.377-1.7296-.352-.1086 1.841-.5185 3.346-1.2299 4.516-.3674.485-.7662.935-1.1965 1.351.047.4.0332.753-.0411 1.06.0322.293.1719.482.4192.566.1889.062.3974.059.6257-.009.8767-.209 1.7232-.341 2.5395-.394.4442-.018.8315-.092 1.1619-.222.398-.159.5936-.375.5869-.646l-.2356-1.083c-.2429-2.235-.3166-3.519-.2212-3.851-.0214-.379-.2478-.69-.6793-.936z" fill="#e9ba6b"/><path d="m76.31 130.384c-.2242-.838-1.0339-1.264-2.4292-1.278-.7594.109-1.33.28-1.7117.513-.4358.257-.8443.703-1.2257 1.34-.0588.123-.0622.536-.0101 1.24.0771.87.2275 1.797.4514 2.78-.0032.066-.0028.195.0012.387.0159.219.0093.424-.0197.615.419-.185.766-.314 1.0407-.387.3694-.114.741-.206 1.1147-.273.2959-.099.7177-.204 1.2657-.317.093-.008.2129.044.3596.157.6286-.003 1.2248.049 1.7887.155-.4187-2.706-.6272-4.35-.6256-4.932z" fill="#bf8f49"/><path d="m75.1329 128.869c-.3269-.082-.7386-.119-1.2352-.11l-.0448.723c.3917-.028.7607.003 1.107.093.2549.065.4781.168.6698.31.1916.142.2962.305.3137.491l-.0442.504.4651 4.349.7873.138-.2356-1.083c-.0453-.433-.0826-.755-.1121-.968l-.18-2.44.0441-.504c-.0198-.411-.2147-.762-.5844-1.051-.274-.218-.5909-.369-.9507-.452z" fill="#4f301a"/><path d="m71.1361 135.186.2112.149.4628-.543c-.1908-2.08-.287-3.378-.2886-3.894-.0151-.511.2255-.972.7217-1.385l.0328-.474-.7777.488c-.7034.456-.9704 1.534-.8011 3.236.0712.857.2175 1.665.4389 2.423z" fill="#4f301a"/><path d="m71.3309 134.64-.2398.444.1402.593c.1129.402.2367.646.3715.732l.207-1.617z" fill="#4f301a"/><path d="m76.7587 134.861-.3948.368c.0755.355.0178.59-.173.707.1877-.051.4159-.119.6847-.206.1892-.083.2811-.204.2755-.363.0004-.146-.063-.271-.1902-.377z" fill="#4f301a"/><path d="m74.5289 131.28-.2923-.042c.22-2.393.3393-4.058.3578-4.993.0065-1.685-.1733-3.086-.5394-4.204-.5832.921-1.4024 1.86-2.4575 2.817-.3254.406-.7013.831-1.1277 1.273-.9455 1.034-1.9197 1.786-2.9224 2.258-.2917 2.229-.2098 3.808.2458 4.736.5092.853 1.0442 1.456 1.6048 1.81.1413.103.5559.291 1.244.565.1727-.07.3676-.141.5846-.214.5582-.269 1.1364-.765 1.7344-1.489.6117-.74 1.1344-1.579 1.5679-2.517z" fill="#e9ba6b"/><path d="m67.5347 128.22c-.2623 2.227-.2627 3.501-.0013 3.821.2851-.743.6524-1.578 1.1018-2.503.884-1.849 1.714-3.235 2.49-4.157-.5765.146-1.2148.435-1.9149.866-.7015.447-1.2601 1.105-1.6756 1.973z" fill="#bf8f49"/><path d="m74.5304 131.301-.3635-.1.0973-1.366c.391-1.897.4727-3.764.2453-5.601-.1143-.925-.2658-1.656-.4547-2.194-.2702-.068-.9299.725-1.9788 2.378.4817.487.7987 1.348.951 2.581.1587 1.318.0862 2.817-.2174 4.495-.6651 1.409-1.7025 2.109-3.1121 2.103-.6974-.005-1.3312-.148-1.9013-.43.7032 1.065 1.6297 1.844 2.7793 2.337.3771-.113.5941-.186.651-.219.5582-.268 1.1363-.765 1.7344-1.489.598-.724 1.1212-1.556 1.5695-2.495z" fill="#bf8f49"/><path d="m67.6227 131.164-.1527-2.026c-.0726.217-.1509.556-.235 1.015l-.099 1.047c-.0428.81.0624 1.517.3155 2.12l.0253.041c.3607.652.7792 1.186 1.2556 1.603.2382.209.5417.398.9105.568l.4362.18c.1422-.082.474-.206.9954-.373l-.1833-.071c-.4278-.165-.7339-.291-.9183-.376-.2319-.124-.4669-.29-.7051-.499-.2867-.261-.663-.728-1.129-1.4-.2257-.436-.3977-1.046-.5161-1.829z" fill="#4f301a"/><path d="m73.8601 131.564.4962.09.3079-.639-.0459-.018c.2389-2.735.3552-4.929.3491-6.585l-.6005.003c-.0279 1.007-.0905 2.144-.1879 3.41z" fill="#4f301a"/><path d="m69.6112 135.11c.1171.175.2731.376.4681.602l.7791.005c.6004-.102 1.0559-.455 1.3664-1.058-.7974.244-1.2914.38-1.4821.408-.236.018-.5231-.052-.8614-.211-.4151-.195-.5052-.11-.2701.254z" fill="#4f301a"/><path d="m70.5909 134.95.3145.636 2.4126-.61c.1312-.037.7169-.132 1.7571-.285.6882-.217 1.0039-.645.9471-1.285-.4001-.623-1.7719-.511-4.1153.339-.55.193-.9297.454-1.1389.784z" fill="#e9ba6b"/><path d="m76.1002 133.741c-.0383-.197-.1118-.351-.2205-.46-.1853-.253-.6533-.329-1.4041-.23.0869.037.2739.356.561.957l.3312.149c.253.066.4381.068.5554.005.1303-.069.1893-.21.177-.421z" fill="#bf8f49"/><path d="m76.2431 133.866c-1.1542-.154-2.3183-.06-3.4922.282-.3146.101-.736.284-1.2642.55-.5804.293-.9983.483-1.2538.569-.8672 1.92-.77 3.2.2914 3.839 1.0346.62 2.3698.501 4.0058-.356 1.5969-.836 2.4377-1.77 2.5223-2.804z" fill="#e9ba6b"/><path d="m76.3821 133.892c-.797-.144-1.3011-.209-1.5123-.197.4524.847.5642 1.935.3355 3.263-.0529.246.4617-.28 1.5439-1.579z" fill="#bf8f49"/><path d="m70.6474 138.161.0508.048c.034.032.0974.057.1904.074-.2166-.437-.2795-.931-.1885-1.482.0338-.219.1401-.569.3188-1.049-.3994.632-.5786 1.221-.5374 1.769.014.277.0693.49.1659.64z" fill="#bf8f49"/><path d="m72.4432 138.935c-.0563.185-.1257.306-.2084.363.1548-.087.5688-.174 1.2422-.262-.3173-.249-.6213-.614-.9118-1.095-.1479-.34-.235-.629-.2612-.866-.0392-.23-.0402-.514-.003-.852-.0234.113-.0485.285-.0754.517-.0259.265-.0241.457.0056.575.2628.68.3335 1.22.212 1.62z" fill="#bf8f49"/><path d="m73.9467 137.705.12.037c.086.004.1707-.041.2541-.136-.3652-.308-.6436-.954-.8353-1.941-.0597.484-.0004.972.178 1.463.0923.235.1867.428.2832.577z" fill="#bf8f49"/><path d="m77.0578 136.145c.0754-.392-.04-.875-.3462-1.448-.0925.987-.6126 1.801-1.5604 2.441-.7984.543-1.4005.764-1.8065.663-.4949.767-1.0518 1.072-1.6707.917-.1929-.048-.5155-.244-.9676-.589-.2962.293-.5508.286-.7639-.019l-.2427-.548c.0307.653.3847 1.159 1.0619 1.518.4824.245 1.1477.283 1.9959.115.855-.155 1.5397-.379 2.0541-.67 1.3405-.783 2.0892-1.576 2.2461-2.38z" fill="#ffeddc"/><path d="m70.7066 138.129-.0586.032c.0367.382-.0549.665-.2746.85.3641.023.6635.098.8983.223-.2515-.502-.3794-.835-.3838-1z" fill="#c9b19d"/><path d="m74.2467 138.55.7455-.298c-.2721-.039-.4638-.162-.5751-.371l-.0966-.275c-.0652.035-.1899.068-.3741.099.2374.225.3375.507.3003.845z" fill="#c9b19d"/><path d="m72.8544 138.389-.3792.278c-.0503.345-.1562.586-.3177.722l.7024-.425.7757.088z" fill="#c9b19d"/><path d="m76.7371 134.934c-.3645.948-.9042 1.647-1.6192 2.095.0974.183.1423.377.1345.582.0046.416-.2195.686-.6722.811.4554-.025.8621-.142 1.22-.35.3449-.201.5434-.441.5954-.72.3682-.565.5831-.931.6447-1.098.1293-.354.1-.706-.0879-1.058z" fill="#c9b19d"/><path d="m73.6518 137.812c-.0531-.256-.2545-.492-.6039-.707l-.0754.517c.0116.43.1943.834.5482 1.215.1188-.499.1625-.841.1311-1.025z" fill="#2d1f10"/><path d="m71.9613 137.987c-.0141-.278-.1798-.541-.4971-.79l-.1249.519c-.0415.424.0921.847.4009 1.268.1657-.474.2394-.806.2211-.997z" fill="#2d1f10"/><path d="m75.1771 136.998c-.0271-.27-.1993-.53-.5166-.779-.0825.128-.1242.301-.1249.519-.0415.424.0921.847.4009 1.268.1787-.481.2589-.817.2406-1.008z" fill="#2d1f10"/><path d="m74.8727 137.839c.0187-.78-.0702-1.26-.2667-1.44l-.0167.486c.0167.376.1112.694.2834.954z" fill="#563e28"/><path d="m73.4465 138.651c-.0743-.798-.2193-1.274-.4349-1.426l.0329.485c.0697.381.2037.695.402.941z" fill="#563e28"/><path d="m71.6761 138.817c.0317-.787-.0607-1.274-.2772-1.46l-.0166.487c.0167.376.1146.7.2938.973z" fill="#563e28"/><path d="m76.6511 133.925-.8057-.098.8525 2.208-.052.279c-.0434.107-.0782.167-.1042.181l-.0742.191c-.1459.228-.3218.448-.5277.658l-.658.603c-.0903.082-.175.127-.2541.136l-.0991.002-.0795-.007c-.1321.003-.2472.023-.3454.058-.1442.044-.2515.11-.3219.197l-.2032.184-.202.234-.0782.042-.1786-.006c-.206-.04-.375-.059-.5071-.055-.2051-.008-.4054.04-.6009.145l-.4209.199-.2268.046-.0196.011-.0495.001c-.12-.037-.1969-.071-.2308-.103l-.3652-.307-.2816-.152-.562-.252-.0718-.087-.0404-.029-.0013-.05-.0209-.039c-.1427-.392-.1209-.932.0656-1.618.1579-.519.3597-1.004.6054-1.453-.3397.148-.6638.262-.9723.343-.1302.321-.2343.628-.3124.92-.229.826-.2534 1.518-.0732 2.075l.1566.293c.0957.116.1805.197.2543.241.1148.089.2821.167.5021.234l.2008.094.1212.086c.04.012.1583.108.3548.288.2156.153.4259.233.631.241l.0691-.012.0991-.003c.04.012.096.008.1682-.014l.275-.097c.4309-.196.6729-.292.7259-.287l.4381.068c.139.009.2481.009.3272.001l.1772-.045.0391-.021.0496-.001.0586-.031c.0391-.021.1907-.161.4547-.419l.1251-.142.0782-.042.2281.004.1877-.025c.2234-.052.4093-.143.5578-.273.1495-.096.3914-.318.7258-.664.245-.231.4625-.498.6527-.8l.2252-.472c.0747-.174.1159-.364.1236-.569l.0078-.079-.0418-.079z" fill="#4f301a"/><path d="m70.2808 137.804c.0129-.258-.1267-.535-.4189-.832-.0894.115-.151.282-.1848.501-.0945.419-.01.859.2536 1.322.2188-.469.3355-.799.3501-.991z" fill="#2d1f10"/><path d="m69.8144 138.53c.1908-.772.204-1.265.0397-1.478-.2109.514-.2241 1.007-.0397 1.478z" fill="#563e28"/><path d="m69.7828 135.507c.086.004.2693-.06.55-.193.2806-.133.4335-.223.4587-.27.013-.007.0187-.044.0169-.11-.0096-.112.0211-.321.0922-.627-.6559.434-1.0285.834-1.1178 1.2z" fill="#4f301a"/><path d="m75.8762 133.886.09.027.4864.394c.0748.077.1483.105.2204.083.0851-.029.0777-.184-.0224-.465-.0871-.289-.3184-.534-.6939-.735-.3956-.208-.5316-.227-.4081-.059.1374.195.2466.447.3276.755z" fill="#4f301a"/><path d="m58.5267 121.117c-.169-4.034-1.0379-6.866-2.6069-8.497-1.8124-1.874-4.9132-2.68-9.3023-2.42-2.6597.169-4.9284 1.109-6.8062 2.819-1.4585 1.339-2.4029 2.809-2.833 4.407l.6146 3.819.0603 2.217c.2225 1.65.7979 2.939 1.726 3.867.9286.944 1.7742 1.557 2.5368 1.841.3889.149.6789.197.8699.146l3.8843.771c2.7066.466 4.3307.585 4.8722.359 3.1895-1.372 5.2954-3.127 6.3178-5.265.5182-1.084.7403-2.439.6665-4.064z" fill="#e9ba6b"/><path d="m55.7025 128.277c1.3443-1.188 2.276-2.575 2.7953-4.162.4638-1.452.6229-3.219.4775-5.3-.9069-2.321-1.6231-3.62-2.1487-3.897-.2402-.124-.4942.062-.7619.56-.0283.046.2011 1.133.6882 3.261.47 2.04.3605 3.457-.3283 4.251-2.3232 2.747-5.1776 4.196-8.5631 4.347-1.2865.046-3.5677-.287-6.8434-.999-1.4893-.331-2.4802-1.117-2.9728-2.357l-.2922-1.766-.4011-.052c-.2618.172-.364.768-.3066 1.787.0721 1.018.6584 2.166 1.7589 3.444.5505.646 1.0905 1.182 1.6201 1.607 1.1319.255 2.323.509 3.5732.76 2.5156.517 4.0923.801 4.7302.852 1.1566.077 2.1174.028 2.8823-.148 1.3528-.329 2.717-1.059 4.0924-2.188z" fill="#bf8f49"/><path d="m56.7439 114.344c.5721.897 1.0499 2.138 1.4335 3.722.2163.881.5119 2.224.8867 4.031l.1769-.029c.0776-1.497-.0047-2.893-.2472-4.186-.2784-1.529-.7738-2.873-1.4862-4.031-.4026-.652-.8619-1.213-1.378-1.682-.5012-.471-1.1046-.886-1.8101-1.245-1.0956-.553-2.4825-.933-4.1607-1.139-.757-.077-1.461-.111-2.112-.102-.7554-.017-1.465.015-2.1288.098-1.506.143-2.8941.533-4.1646 1.17-1.3291.655-2.4588 1.568-3.389 2.741-.8871 1.127-1.5325 2.43-1.9363 3.909l-.0192.112.6955 3.527c-.1298.393-.2158.766-.2582 1.119-.0779.402-.1108.825-.0987 1.269-.0034.962.2045 1.805.6239 2.53.1875.363.4562.716.8059 1.059l.9108.833c.7115.581 1.4122 1.037 2.1021 1.368.5092.218.9057.374 1.1895.468.2834.078.6854.167 1.2062.267l4.7962.828c.7861.06 1.194.09 1.2235.089l.6439-.001c.3541-.042.5897-.088.7068-.136l-.0222.001c1.0862-.335 2.0522-.74 2.8978-1.214.5247-.3.9684-.582 1.3313-.847.4927-.387.8901-.742 1.1922-1.063l-.1601-.172c-.4643.342-.8933.624-1.287.845l-1.3577.692c-.9212.418-1.8665.763-2.836 1.034l-.0222.001-.0216.023c-.0583.031-.2132.052-.4646.061-.1179.019-.3029.018-.5551-.003-.4149-.014-.808-.045-1.1793-.091l-5.8477-1.122c-.2686-.079-.6203-.222-1.0552-.429-.7206-.373-1.3612-.794-1.9216-1.263l-.8652-.79c-.2598-.302-.4675-.59-.623-.866-.3422-.609-.5094-1.313-.5016-2.113-.0092-.34.0177-.711.0808-1.113l.2815-1.075.063-.136-.6967-3.571c.4019-1.299.9852-2.437 1.7499-3.414.8008-1.035 1.8144-1.863 3.0408-2.484 1.1834-.575 2.4614-.931 3.8342-1.069.5756-.065 1.2482-.097 2.0179-.095.6067-.007 1.2812.028 2.0234.105 1.5287.153 2.8107.484 3.8459.995 1.2303.607 2.1789 1.468 2.8457 2.584z" fill="#4f301a"/><path d="m41.1548 119.963c-.3174-.241-.6871-.227-1.1091.039-.7088 1.15-1.3558 2.394-1.9411 3.732-1.1401 2.705-1.3482 4.577-.6243 5.616 1.564.359 3.1167.303 4.6581-.166 1.571-.471 2.4662-.754 2.6856-.851.7617-.294 1.1819-.627 1.2606-.999.077-.432.0922-.692.0454-.779-.0624-.116-.4257-.414-1.09-.893-.7399-.536-1.4393-1.214-2.098-2.034-.7056-.907-1.0966-1.677-1.1731-2.311-.0924-.677-.2971-1.129-.6141-1.354z" fill="#e08a00"/><path d="m39.9758 119.872-.0443.001-.6797 1.134c-.5521.923-1.0575 1.932-1.5162 3.029-.28.587-.5343 1.307-.7627 2.158-.1063.448-.1763.865-.2102 1.251-.0435.579-.0082 1.058.1057 1.439l.1883.393c.1228.158.2369.272.3424.343.1959.126.4503.228.7632.305.3873.09.8763.11 1.467.059.8713-.076 1.7991-.249 2.7834-.521.9991-.273 1.8787-.586 2.6388-.938l.657-.335.3051-.21c.1163-.078.2318-.186.3465-.323.0287-.031.0567-.091.0839-.181.0275-.075.0339-.112.0191-.112l.0402-.156.0562-.38c.0236-.223-.0334-.413-.1709-.571l-.2962-.278-1.0415-.74c-.287-.211-.5824-.46-.8862-.745-.5324-.528-1.0061-1.074-1.4211-1.636-.4009-.592-.652-1.116-.7532-1.571-.0917-.648-.3044-1.121-.6381-1.42-.1823-.171-.3844-.253-.6062-.245-.1335-.01-.2881.018-.464.083l-.2409.12zm.1841.237.2416-.097c.249-.098.4724-.047.6703.153.2422.199.3935.593.454 1.183.074.545.3201 1.157.7383 1.838.417.636.8993 1.226 1.4469 1.768.3198.329.6234.607.9108.834.227.184.5596.438.9977.763l.1823.171.0012.044-.0989.448c.0012.044-.0493.09-.1516.139l-.8099.428c-.7165.322-1.5671.611-2.5519.868-.9991.273-1.8681.43-2.6071.471-.4724.046-.8799.031-1.2224-.045-.2234-.051-.3731-.113-.4491-.184l-.1133-.085-.0941-.196c-.082-.293-.1067-.655-.074-1.085.0072-.282.0635-.661.1689-1.138.119-.522.3221-1.218.6093-2.086.0823-.24.3106-.825.6849-1.756z" fill="#331c04"/><path d="m45.5202 122.892c.3034.27.8204.23 1.5509-.122.2014-.215.4543-.438.7588-.671.6086-.481 1.1855-.768 1.7306-.861.1275-.212-.1358-.639-.7897-1.281-.7143-.685-1.435-1.059-2.162-1.122-.7266-.048-1.2365.252-1.5298.898-.2365.556-.2715 1.172-.1052 1.847.182.703.3641 1.141.5464 1.312z" fill="#bf8f49"/><path d="m45.8369 123.125c.3158.181.7329.277 1.2512.288.504.026.9836-.028 1.4388-.162.2933-.1.5485-.242.7655-.427.217-.186.3306-.36.341-.523.0435-.579-.224-1.161-.8024-1.747-.6852-.701-1.4682-.917-2.349-.649-.7465.308-1.0773.934-.9924 1.878.0428.487.1586.934.3473 1.342z" fill="#fff"/><path d="m46.2708 120.313c.3649-.191.6658-.283.9028-.277.2666.005.5432.106.8298.303.181.127.4099.378.6865.753.2163.332.3581.645.4252.939l.0504.22.0234.044.0012.044c-.0271.09-.1058.189-.2361.297l-.4148.259-.5054.196c-.3524.101-.7209.159-1.1054.172-.5028.018-.8811-.012-1.1349-.092.2575.213.6316.362 1.1224.448.3129.078.7204.093 1.2224.045.2801-.039.4935-.084.6402-.134.2058-.051.4104-.148.6138-.288.247-.172.4266-.37.5389-.596l.0809-.292-.0055-.199-.054-.354c-.1308-.454-.3045-.855-.5212-1.202-.2322-.376-.537-.698-.9144-.966-.4373-.295-.8923-.427-1.3651-.395-.1627.006-.3907.058-.684.157-.1319.05-.3287.16-.5904.332l-.0648.069c-.2289.29-.3842.569-.4656.838-.0807.299-.117.596-.109.892.0157.577.2008 1.125.5554 1.645l-.1554-.816c-.01-.369-.0025-.636.0227-.8.0709-.462.2743-.876.61-1.242z" fill="#1d2226"/><path d="m38.4039 128.185c.0767.101.1639.039.2613-.187.0564-.105.5463-.596 1.4697-1.473.9087-.876 1.4256-1.464 1.5506-1.764.1534-.346.1894-.658.1078-.937-.016-.043-.1809-.393-.4948-1.047-.078-.146-.1806-.652-.3078-1.521-.1064-.647-.2458-.872-.418-.673-.344.412-.8085 1.294-1.3933 2.647-.7104 1.638-1.0738 2.968-1.0904 3.99.1484.557.2533.879.3149.965z" fill="#ffa300"/><path d="m41.0808 121.32c-.1336-.558-.4479-.687-.9431-.388l-1.1733 2.572c-.7307 1.98-.9366 3.659-.6178 5.039.9828-1.959 1.9103-4.049 2.7823-6.271.0351-.341.0191-.659-.0481-.952z" fill="#ffe000"/><path d="m42.8466 125.03c-.2818-.02-.4658.017-.5521.108l-.329.967c-.1741.672-.1121 1.047.186 1.125.4617.102 1.0696.139 1.8237.112.8425-.044 1.2679-.185 1.2763-.423.0091-.207-.2513-.531-.7813-.97-.5888-.423-.9286-.67-1.0193-.741-.1211-.099-.3226-.159-.6043-.178z" fill="#ffa300"/><path d="m43.248 125.06c-.476-.087-.7757.05-.8992.409l-.0089.489c.0536.338.2449.568.5739.69.4484.161.8947.242 1.3387.24.5032-.003.6774-.127.5227-.373-.2155-.303-.4677-.598-.7567-.883-.335-.344-.5918-.534-.7705-.572z" fill="#ffe000"/><path d="m50.8189 125.877c.6606-.202 1.1884-.391 1.5832-.568.4819-.239.995-.694 1.5393-1.364l-1.9472.247c.1354-.464.174-.68.1156-.648-.9179.536-1.9156.86-2.9931.973l-1.3321.003c-1.1226.085-1.602.42-1.438 1.006.1636.571.7407.839 1.7315.804.8281-.03 1.7417-.181 2.7408-.453z" fill="#fcca81"/><path d="m38.0115 120.319c.0779.146.2694.383.5744.712.135-.478.2395-.992.3133-1.543.1633-1.071.1006-1.742-.188-2.013s-.5658-.394-.8316-.37l-.3297.123c.2298 1.916.3836 2.946.4616 3.091z" fill="#bf8f49"/><path d="m38.2828 121.286c.2342-.097.3401-.286.3176-.566l-.5051-2.246c-.064-.175-.1278-.343-.1914-.504-.1567-.32-.2634-.434-.3201-.344-.1435.168-.2619.713-.3553 1.634-.1205 1.01-.0446 1.622.2276 1.834.3022.226.5777.29.8267.192z" fill="#fff"/><path d="m38.1129 117.519c-.0623-.116-.1391-.217-.2302-.303l-.0899-.041-.1787-.038c-.1183.005-.2206.053-.3069.144l-.0438.024.0006.022-.0647.069-.2079.518c-.1342.508-.1935 1.05-.1778 1.627l.1116.84.1662.393c.048.132.1477.261.2992.389.0747.027.2018.074.3813.142.1491.039.2896.034.4214-.015.3086-.085.4436-.29.4052-.614.0044.162-.0293.282-.1013.359-.0855.121-.1874.184-.3057.188-.0883.018-.2072 0-.3567-.054-.1203-.069-.2186-.147-.295-.233-.0615-.087-.0935-.175-.0959-.263l-.0097-.355.3468-1.944c.0336.043.0644.086.0923.13l-.0228-.021.4289 1.072c.1428.44.241.784.2945 1.033-.0874-.458-.1414-.811-.1621-1.06l-.0769-1.196c-.0688-.352-.1428-.623-.222-.813z" fill="#1d2226"/><path d="m48.7946 111.055c-1.512-.08-2.6905.125-3.5357.614l-1.7546.796 1.3672-1.159c-.6387-.081-1.1542.012-1.5466.277-.731.337-1.4809.793-2.2497 1.368-1.5377 1.15-2.3938 2.328-2.5682 3.533.3509.387.6576.775.9198 1.165l.1776.815c.1919.526.4432.784.7537.772.488-.017.7761-.035.8645-.053.235-.067.4308-.215.5874-.442.1283-.183.3846-.281.7691-.294.5619-.02 1.0187-.096 1.3704-.227.4544-.164.8041-.369 1.049-.615.1866-.213.2947-.321.3243-.322.6507-.023 1.2893-.216 1.9159-.579.0436-.031.6891-.787 1.9366-2.267 1.0461-1.266 2.0407-1.974 2.9839-2.127-.6095-.096-1.3285-.137-2.157-.122-.657.012-1.1442.059-1.4616.141 1.18-.484 1.9331-.822 2.2594-1.013-.5812-.142-1.2496-.229-2.0054-.261z" fill="#fcca81"/><path d="m47.465 116.03c-.3033.277-.3061.448-.0083.511s.7172-.026 1.2583-.267c.9651-.434 1.899-1.2 2.8016-2.298-.6854-.168-1.5656.123-2.6406.872z" fill="#fcca81"/><path d="m45.9741 124.918c.0443-.002.2456.05.6037.156.2986.093.5799.098.8441.014l2.5789-.691-1.3801-.129c-.5931-.038-1.2343.059-1.9237.291-.7185.248-.9595.367-.7229.359z" fill="#fcca81"/><path d="m51.822 117.253c-.242.896.5624 1.356 2.4133 1.378.9176-.003 1.8626-.089 2.8349-.257.1759-.065.357-.478.5436-1.24.3582-1.522.5426-3.993.5532-7.411-2.5274.682-4.3452 2.145-5.4535 4.39-.5469 1.115-.8441 2.161-.8915 3.14z" fill="#eabb6c"/><path d="m57.7947 109.913c-.1378.375-.2756.75-.4135 1.125-.2752.765-.4118 1.184-.4098 1.258.0044.162-.0223.541-.0801 1.135-.069.727-.162 1.389-.279 1.985-.1673.924-.6569 1.97-1.4688 3.138.1806.112.7741.165 1.7805.159.3353-.19.5375-.375.6066-.555.0835-.195.2214-1.11.4138-2.745.0842-.713.0343-2.546-.1497-5.5z" fill="#bf8f49"/><path d="m58.0008 114.235.0207-4.951c-.6686.453-1.3304.884-1.9853 1.292-.3209.174-.6988.432-1.1336.773-.8687.712-1.5722 1.514-2.1104 2.406.4181.133 1.1757-.042 2.2726-.525.5407-.256 1.0443-.518 1.5106-.787-.5242.863-.8138 1.642-.8688 2.34.6705-.927 1.0938-1.689 1.2699-2.287l.314 2.563z" fill="#fcca81"/><path d="m56.8359 110.569c.1728-.064.4002-.139.6821-.224l.1286 1.46c.0533.872.0786 1.529.0759 1.973-.0059.874-.0323 1.533-.0794 1.979l-.1065.98c-.0372.268-.1026.581-.1965.94l.2248.103.5009-1.994c.087-.61.1576-1.278.2118-2.005.0236-.223.0572-.89.101-2.002l-.0263-2.596-.5503.175c-.601.214-1.0184.377-1.2522.489-.2778.128-.6788.35-1.2031.664-.7844.546-1.4336 1.169-1.9474 1.868-.4995.684-.9072 1.475-1.2232 2.375-.272.882-.4187 1.746-.4402 2.59l.1109-.004c.0662-.831.2731-1.659.6207-2.486.3184-.81.7575-1.536 1.3173-2.178.5167-.595 1.161-1.122 1.9331-1.578.4376-.238.8102-.414 1.118-.529z" fill="#4f301a"/><path d="m55.0097 116.073c-.4132.592-.5581 1.248-.4349 1.969.1232.72.3562.853.6991.396.6708-.911 1.0414-1.435 1.1118-1.571.5872-1.264.7964-2.825.6274-4.684-.5986.303-1.1113 1.046-1.5379 2.231-.2209.585-.3761 1.138-.4655 1.659z" fill="#a56e1e"/><path d="m71.9562 115.513.1436-2.01-1.1474.859c.6827-1.108.8535-2.277.5124-3.509l-.7157-1.511c-.0743.403-.6574 1.085-1.7492 2.048.8278-1.526 1.158-2.913.9906-4.161-.1446-1.204-.6942-1.92-1.6487-2.149-.595 1.672-1.52 3.028-2.7748 4.067-.4351.361-1.2516.852-2.4495 1.474-.406.197-.6882.55-.8465 1.057-.25.895-.5322 1.776-.8464 2.642-.4441 1.611-1.24 3.516-2.3876 5.715-.5678 1.091-1.0978 2.026-1.5898 2.805.5173 1.066 1.0715 1.768 1.6626 2.104.8011.439 2.2213.678 4.2607.718 1.8161.027 3.3084-.352 4.4766-1.137.5915-.393.9979-.791 1.2192-1.195l-1.8286-.339 1.7651-.62c1.2611-.354 2.1374-1.084 2.629-2.19.2385-.553.3514-1.067.3387-1.544l-2.1382.512c1.1027-.903 1.8106-2.115 2.1239-3.636z" fill="#bf8f49"/><path d="m64.4507 111.278c-.0663-.61-.1542-.892-.2637-.846-.6478.244-1.0958.494-1.344.75-.0508.045-.4973 1.358-1.3397 3.941-.8665 2.612-1.4738 4.136-1.822 4.571-.6003.749-1.2777 1.887-2.032 3.412l.5004.932c.4713.65 1.0425 1.039 1.7135 1.167.6443.142.9818.176 1.0125.102 1.9613-4.29 3.1275-8.051 3.4986-11.283.1268-1.088.1523-2.003.0764-2.746z" fill="#e9ba6b"/><g fill="#fcca81"><path d="m71.1682 109.829c-.2371-.414-.473-.457-.7078-.127-1.0843 1.573-1.7805 2.606-2.0885 3.1-.1453.255.1277.096.8192-.476.8642-.351 1.4876.164 1.8704 1.544.4332-.778.6663-1.361.6992-1.748.0039-.059-.0493-.394-.1597-1.003-.0997-.549-.2439-.979-.4328-1.29z"/><path d="m71.9785 118.927-.6615.007-5.5399 1.973 2.5711-.561c1.4778-.133 1.6135.372.407 1.514-.642.602-.4127.689.6879.261 1.13-.427 1.7802-.82 1.9508-1.179.2132-.449.4081-1.12.5846-2.015z"/><path d="m72.1519 113.792c-.5393.437-1.0893.896-1.6499 1.378-1.1239.948-1.7506 1.512-1.88 1.692-.0693.105.1083.029.5329-.228.6383-.379 1.1605-.584 1.5667-.618.4357-.034.6492.291.6408.976.0002.163-.0156.32-.0474.469l.0658-.246c.2651-.568.465-1.009.5995-1.323.2358-.568.293-1.267.1716-2.1z"/><path d="m68.9444 123.51c-2.4715-.393-3.5133-.494-3.1255-.305l1.0671.526c-.3163.285-.7108.587-1.1834.904-.9015.614-1.7309.994-2.4881 1.14 1.628-.29 2.9612-.653 3.9996-1.088.8587-.38 1.4355-.772 1.7303-1.177z"/><path d="m69.2429 105.54c-.5273-.635-.9511-.698-1.2711-.189-.737 2.433-1.4237 4.046-2.0601 4.841 1.1949-.8 2.1007-1.002 2.7173-.606.3317.205.5995.544.8033 1.019.3587-.539.5905-1.048.6955-1.525.0836-.432.0822-.968-.0042-1.607-.0798-.683-.3733-1.328-.8807-1.933z"/></g><path d="m69.9762 105.689c-.1205-.177-.259-.332-.4156-.465-.107-.103-.2769-.228-.5096-.374-.2514-.087-.4412-.16-.5696-.218l-.3289-.108-.6514 1.524c-.2279.448-.4486.815-.662 1.1-.2468.344-.5109.674-.7925.99-.4004.39-.7181.669-.953.835-.3097.241-.6649.475-1.0655.702-.5128.258-.9175.462-1.2139.614-.2791.166-.4806.354-.6046.564-.1.179-.1979.411-.2938.695l-1.2154 3.895c-.3169.851-.6626 1.666-1.0371 2.443-.7408 1.599-1.5766 3.162-2.5073 4.689l-.118.202.1245.2c.4846.56.872.951 1.1623 1.171-.1106-.271-.216-.65-.3163-1.135.8795-1.48 1.7106-3.028 2.4934-4.644.3571-.792.706-1.629 1.047-2.51l1.2114-3.918.2338-.538c.0666-.119.1874-.225.3624-.316l1.1919-.614c.4273-.242.8165-.491 1.1676-.748.3511-.256.6928-.564 1.0251-.925.2989-.3.5884-.653.8685-1.057.3041-.434.5415-.831.712-1.19.1706-.359.2652-.568.2838-.627l.1019-.292h.022l.301.198c.1271.133.2021.221.2248.266l.1165.155.0764.178c.0027.015.0477.141.1349.378l.1013.802-.1086 1.229-.511 1.567c-.164.314-.2826.554-.3559.718l-1.0333 2.22 2.7588-2.571c.1521-.136.3036-.316.4543-.541l-.0041-.022c.0548.13.1198.286.1951.467l.2097.913-.0188.871-.1376.581c-.0225.12-.0857.299-.1897.538l-1.3236 2.445 2.1206-1.582-.2067 1.296-.2235.717-.6959 1.278c-.0933.135-.1727.225-.2381.271l-.2382.27c-.0961.12-.2722.285-.5285.496l-1.2372 1.217 3.1782-.745-.0239.112c-.0904.313-.1856.56-.2856.739l-.204.337c-.052.12-.1287.224-.2301.315-.1441.18-.325.36-.5425.541l-.677.408-4.0092 1.4 2.769.531-.0901.113c-.1975.21-.4197.406-.6667.587l-.3745.249c-.199.121-.3338.189-.4046.205l-.4267.205-1.3606.414-.473.072-2.5195.114 2.0609.158c.1818.028.3582.027.5292-.005l.5031-.027c.4503-.034.7877-.082 1.0121-.144l.4869-.116c.1149-.016.2759-.062.4829-.139l.9196-.41.8291-.544.3804-.338.7043-.989-.7559-.149h-.0221l-.0481-.022.9537-.344.8192-.477c.3043-.27.5225-.488.6546-.653l.5201-.786c.1213-.225.2292-.523.3235-.896l.1531-.984-.0069-.647-1.1904.257h.0221l.6259-1.055.4294-1.165.2483-1.676-.0806-1.785-.4906.339.0853-.625c.0037-.224.0042-.343.0015-.357l-.0671-.736-.1995-.735c-.047-.178-.1415-.415-.2836-.711l-.438-.71-.7596.074c.0069-.015.0116-.03.014-.045l.1424-1.407-.0448-.491-.1149-.512c-.0833-.297-.145-.475-.1852-.534l-.1146-.267z" fill="#4f301a"/><path d="m90.3772 115.818c.3325-.75.3492-1.586.0503-2.509-.298-.834-.7857-1.55-1.4629-2.151-.0564.19-.2428.494-.5593.91-.379.488-.7247.782-1.0372.882-1.1295.321-1.7994 1.116-2.0097 2.384-.0979.633-.0819 1.231.048 1.794.321.709.8558 1.057 1.6044 1.044.1799-.002.6346-.105 1.3642-.31.8075-.188 1.4749-.869 2.0022-2.044z" fill="#1d2226"/><path d="m90.6139 112.712-.39-.674c-.1089-.191-.2667-.403-.4734-.637-.054-.05-.243-.227-.5671-.53l-.6435.182-.0641.146-.3258.576c-.165.255-.3425.481-.5325.68l-.1553.141-.1413.092-.4392.191c-.0265.019-.175.113-.4455.282-.1686.15-.2927.254-.3723.313l-.3131.394-.2141.443c-.1231.322-.2037.63-.242.922-.0678.718-.0453 1.352.0674 1.902-.062-.349-.0884-.667-.0793-.954-.0028-.27.0256-.575.0852-.916l.3191-.868.2694-.385.3029-.325c.0967-.047.226-.122.3878-.226.2054-.112.3373-.173.3955-.183l.4509-.125.2722-.116.2209-.152c.2268-.16.4698-.398.729-.715.0942-.085.1793-.197.2554-.338l.1363.134c.1132.13.2427.309.3885.539.0815.121.1832.313.3051.576l.2434.61c.0679.214.1066.432.1162.656.0414.233.0484.442.0212.627-.0058.136-.0438.345-.1137.628l-.2487.63c-.2282.491-.4856.859-.7723 1.105-.1951.17-.392.288-.5907.353l-.6755.255c-.506.195-.9711.24-1.3952.135-.2364-.063-.4383-.185-.6055-.366-.098-.084-.1914-.187-.2804-.31.1021.156.1896.268.2625.336.1474.154.3493.276.6055.366.371.144.8596.148 1.4659.01l.7168-.15c.2449-.058.4807-.168.7076-.328.3766-.247.7313-.618 1.064-1.113l.2116-.33c.1001-.198.1548-.313.1642-.344.1188-.262.2012-.517.2472-.765.0418-.188.0608-.461.057-.821-.0174-.267-.0639-.529-.1395-.786-.0911-.345-.174-.6-.2487-.767z" fill="#131719"/><path d="m89.3226 111.905c-.0559-.23-.137-.434-.2434-.61-.0101.197-.1849.566-.5244 1.107-.2078.352-.4628.608-.765.766-.4212.165-.8061.324-1.1545.475-.4187.18-.6933.536-.8238 1.07-.058.266-.0788.487-.0623.665.0006-.166.2475-.382.7406-.65.4495-.26.8596-.445 1.2303-.556.3126-.101.5471-.217.7037-.35.1036-.094.3282-.351.6738-.773.2618-.302.3368-.683.225-1.144z" fill="#293035"/><path d="m89.2064 112.016-.2077.352c-.7284.55-1.4007 1.119-2.0168 1.709-.6692.63-.9366 1.323-.8022 2.08.2867-.246.6351-.398 1.0453-.456.5413-.081.9159-.17 1.124-.267.2928-.127.6571-.274 1.0929-.442.285-.17.4111-.433.3782-.788-.0545-.561-.259-1.29-.6137-2.188z" fill="#293035"/></g></svg>