<svg fill="none" height="520" viewBox="0 0 562 520" width="562" xmlns="http://www.w3.org/2000/svg" xmlns:xlink="http://www.w3.org/1999/xlink"><clipPath id="a"><path d="m430.07.998535h131.61v215.536h-131.61z"/></clipPath><clipPath id="b"><path d="m394 264h56.5259v49.8195h-56.5259z"/></clipPath><g clip-path="url(#a)"><path d="m449.548 181.048 43.113 12.934 2.989 8.038 5.777 9.724 54.342-31.673-57.839-31.597z" fill="#181919" opacity=".55"/><path d="m439.46 65.0932.374 115.5328 10.663 6.094 12.656-120.9657z" fill="#825d2e"/><path d="m452.154 78.4679-1.82 108.5581 7.827-4.158 8.307-108.1079z" fill="#664524"/><path d="m444.182 180.933s.412-12.167.412-12.781c0-.613 1.035-12.579 1.035-13.815s.632-55.4145.632-55.4145l1.629 21.8345-.201 56.909.201 7.214-4.79-2.874" fill="#af7b43"/><path d="m440.198 180.301c0 .306-.623-10.826-.154-11.909.47-1.083 2.482-8.23 2.482-8.23s.469-13.144.163-14.227c-.307-1.083-.623-34.644-.623-34.644l1.811 33.418s-2.76 27.87-2.875 28.33c-.115.459 2.558 9.992 2.558 9.992z" fill="#af7b43"/><path d="m484.412 131.219c-19.478 28.215-34.683 38.553-34.683 38.553l5.624 4.637s27.411-32.373 34.884-37.691c-.633-2.96-2.683-4.723-5.825-5.499z" fill="#825d2e"/><path d="m489.068 134.084-13.882 15.329-20.944 21.163 1.696 3.334s11.497-14.486 34.347-37.115c.277-1.313-1.217-2.711-1.217-2.711z" fill="#664524"/><path d="m451.722 172.895c1.38 1.379 3.105 1.973 3.833 1.322.728-.652.22-2.299-1.16-3.669-1.379-1.37-3.104-1.984-3.832-1.332-.728.651-.22 2.318 1.159 3.679z" fill="#aa753c"/><path d="m449.729 169.772s15.205-10.338 34.683-38.553c1.913.353 3.623 1.413 4.79 2.97.326.335 1.341 1.504 1.063 2.606-8.871 8.776-7.262 5.748-13.719 13.01-5.164 5.969-10.002 11.689-13.202 15.492-2.146 2.626-7.425 8.623-7.425 8.623l-.048-.105c-.044.147-.127.279-.24.383-.044.034-.092.063-.144.086l-.076.086c-.834.374-2.357-.22-3.603-1.466-.817-.955-1.516-2.007-2.079-3.132z" stroke="#4c3d22" stroke-miterlimit="10" stroke-width="1.91613"/><path d="m461.686 75.9768 1.37-10.2322s-12.848-1.7245-23.952.0671c3.938 39.3763.623 114.8053.623 114.8053l10.539 6.007 7.818-3.756 8.277-108.0984z" stroke="#4c3d22" stroke-miterlimit="10" stroke-width="2.8742"/><path d="m524.421 91.0759 10.979 89.2341 9.725 5.26 5.48-95.0402z" fill="#825d2e"/><path d="m540.603 104.039 4.387 81.847 7.493-4.742 3.132-108.5299z" fill="#664524"/><path d="m454.511 160.038s3.478 8.335-1.657 28.521c3.746 3.919 8.316 1.198 9.005-.325-.508-9.057-.508-18.134 0-27.19z" fill="#664524"/><path d="m453.38 160.68s1.514 8.881-.526 27.908c1.916 2.079 3.937 2.108 6.399 1.859-.45-9.131-1.465-5.442-2.366-23.406-.192-3.957 2.577 15.492 2.386 11.679-.556-11.229-1.035-17.839-1.035-17.839z" fill="#825d2e"/><path d="m461.984 160.756c0 1.064-1.811 2.022-4.178 2.137-2.366.115-4.311-.652-4.359-1.715-.048-1.064 1.811-2.022 4.168-2.137s4.321.652 4.369 1.715z" fill="#aa753c"/><path d="m456.973 162.711 1.379 2.74.067-3.085z" fill="#aa753c"/><path d="m453.581 189.326 1.725-5.912.344 6.86s.125.747-2.069-.948z" fill="#664524"/><path d="m461.984 160.756c-.048-1.063-2.002-1.83-4.359-1.715-1.336.132-2.624.568-3.766 1.274-.126.106-.228.238-.299.387-.071.148-.11.311-.112.476 0 .316 1.082 10.107-.594 27.41.515.695 1.23 1.217 2.05 1.495 5.202 1.437 6.658-1.179 6.955-1.821-.493-9.163-.451-18.347.125-27.506z" stroke="#4c3d22" stroke-miterlimit="10" stroke-width="1.91613"/><path d="m554.715 69.5674-4.053 20.9625-26.183.5461 10.979 89.234 9.59 5.365 7.483-4.531 2.117-81.8765z" stroke="#4c3d22" stroke-miterlimit="10" stroke-width="2.8742"/><path d="m522.515 126.85c1.083.106 2.123.478 3.027 1.083-.021.252.009.506.086.747-7.98 9.744-14.371 17.734-14.371 17.734-.386.154-.8.223-1.216.202-.415-.022-.82-.133-1.188-.327-.73-.767-1.28-1.686-1.61-2.692 0 0 6.18-6.208 15.272-16.747z" fill="#825d2e"/><path d="m524.277 127.272c.451.158.877.381 1.265.661-.021.241.002.485.067.718-8.546 10.357-13.825 17.188-13.825 17.188s-.958 1.629-3.056.393c1.868-1.782 15.549-18.96 15.549-18.96z" fill="#664524" stroke="#664524" stroke-miterlimit="10" stroke-width=".71855"/><path d="m522.514 126.85c1.083.106 2.123.478 3.028 1.083-.021.252.008.506.086.747-3.986 4.867-7.578 9.293-10.184 12.455-2.348 2.96-3.66 4.656-3.66 4.656v-.086c-.076.153-.173.295-.288.422-.046.035-.091.074-.134.114l-.086.096c-.454.274-.99.381-1.515.302-.524-.079-1.005-.338-1.359-.733-.518-.715-.904-1.516-1.14-2.366 0 0 6.16-6.151 15.252-16.69z" stroke="#4c3d22" stroke-miterlimit="10" stroke-width="1.91613"/><path d="m513.93 126.563c-15.053 22.065-31.451 43.183-49.101 63.232l3.028 4.101s40.909-54.227 48.976-62.275c.508-3.295-.537-4.886-2.903-5.058z" fill="#825d2e"/><path d="m516.775 128.833-28.742 37.25 7.33-11.085-27.104 34.74.211 3.506s21.575-29.508 48.334-61.469c.221-.46.334-.964.329-1.474s-.128-1.012-.358-1.468z" fill="#664524" stroke="#664524" stroke-miterlimit="10" stroke-width=".71855"/><path d="m465.375 193.005c.661 1.293 1.916 1.581 2.721.642.419-.58.671-1.263.728-1.976s-.082-1.428-.403-2.067c-.661-1.303-1.916-1.591-2.72-.652-.419.582-.671 1.267-.728 1.981-.058.714.081 1.431.402 2.072z" fill="#d1651c"/><path d="m464.829 189.795c17.65-20.049 34.048-41.167 49.101-63.232.682-.011 1.346.221 1.872.655.527.433.882 1.04 1.002 1.711.199.441.302.92.302 1.404s-.103.962-.302 1.403c-10.385 12.407-19.975 24.431-27.841 34.491-6.352 8.239-12.34 16.095-16.287 21.317-2.692 3.583-4.197 5.643-4.197 5.643v-.106c-.089.183-.202.354-.335.508-.045.047-.093.092-.144.134l-.096.115c-.823.633-1.916.297-2.471-.872-.342-1.025-.545-2.092-.604-3.171z" stroke="#4c3d22" stroke-miterlimit="10" stroke-width="1.91613"/><path d="m520.636 143.511-11.602 4.915-20.282-10.759.077-2.137 11.726-3.305 20.072 9.236z" fill="#664524" stroke="#664524" stroke-miterlimit="10" stroke-width=".71855"/><path d="m520.732 141.231-11.612 4.905-20.282-10.749 11.803-5.442z" fill="#825d2e"/><path d="m520.626 141.461-20.119-11.2 7.885 5.47 9.044 6.113-5.902 3.286z" fill="#af7b43"/><path d="m515.003 143.521-.844-.077-18.893-10.932-.009-.134 17.619 12.043" fill="#af7b43"/><path d="m488.838 135.291 11.804-5.442 20.09 11.286-.086 2.29-11.602 4.915-20.292-10.759.086-2.147z" stroke="#4c3d22" stroke-miterlimit="10" stroke-width="1.91613"/><path d="m512.158 157.681-11.612 4.905-20.282-10.759.086-2.136 11.717-3.306 20.081 9.246z" fill="#664524" stroke="#664524" stroke-miterlimit="10" stroke-width=".71855"/><path d="m512.244 155.391-11.603 4.915-20.291-10.759 11.803-5.442z" fill="#825d2e"/><path d="m512.148 155.631-20.129-11.2 7.884 5.47 9.045 6.113-5.893 3.286z" fill="#af7b43"/><path d="m480.359 149.461 11.794-5.442 20.091 11.286-.086 2.28-11.602 4.915-20.292-10.759.086-2.137z" stroke="#4c3d22" stroke-miterlimit="10" stroke-width="1.91613"/><path d="m503.2 170.375-11.602 4.905-20.292-10.749.086-2.146 11.717-3.296 20.072 9.226z" fill="#664524" stroke="#664524" stroke-miterlimit="10" stroke-width=".71855"/><path d="m503.286 168.085-11.603 4.915-20.291-10.759 11.803-5.442z" fill="#825d2e"/><path d="m503.18 168.315-20.119-11.19 7.884 5.471 9.045 6.112-5.893 3.286z" fill="#af7b43"/><path d="m471.402 162.155 11.793-5.442 20.091 11.286-.086 2.28-11.602 4.915-20.283-10.759.077-2.136z" stroke="#4c3d22" stroke-miterlimit="10" stroke-width="1.91613"/><path d="m485.878 196.722-11.602 4.915-20.292-10.759.087-2.137 11.717-3.305 20.071 9.236z" fill="#664524" stroke="#664524" stroke-miterlimit="10" stroke-width=".71855"/><path d="m485.964 194.442-11.602 4.905-20.292-10.759 11.804-5.432z" fill="#825d2e"/><path d="m485.859 194.672-20.11-11.2 7.875 5.47 9.044 6.113-5.892 3.286z" fill="#af7b43"/><path d="m454.079 188.502 11.794-5.442 20.091 11.286-.086 2.29-11.603 4.905-20.282-10.759.077-2.127z" stroke="#4c3d22" stroke-miterlimit="10" stroke-width="1.91613"/><path d="m494.462 183.28-11.611 4.915-20.283-10.759.087-2.136 11.717-3.306 20.071 9.236z" fill="#664524" stroke="#664524" stroke-miterlimit="10" stroke-width=".71855"/><path d="m494.548 181-11.602 4.905-20.292-10.759 11.804-5.441z" fill="#825d2e"/><path d="m494.443 181.23-20.12-11.2 7.885 5.471 9.044 6.112-5.892 3.286z" fill="#af7b43"/><path d="m462.664 175.06 11.794-5.442 20.091 11.286-.087 2.281-11.602 4.914-20.292-10.759.087-2.136z" stroke="#4c3d22" stroke-miterlimit="10" stroke-width="1.91613"/><path d="m477.313 198.073-17.044-11.142.536-.135 18.654 10.204z" fill="#af7b43"/><path d="m468.46 173.508 19.592 9.935-17.58-10.874z" fill="#af7b43"/><path d="m474.496 161.829 19.602 10.165 1.476-.766-18.932-10.204z" fill="#af7b43"/><path d="m535.304 143.645c-.958.067-38.629 20.024-38.629 20.024l1.121-10.999s35.975-18.836 36.684-18.711c.288.048 2.664-1.284 4.599.575-1.052 3.118-2.313 6.162-3.775 9.111z" fill="#aa753c"/><path d="m539.865 146.203c-.958.067-40.239 21.183-40.239 21.183l2.663-11.372s21.078-13.03 31.808-18.204c1.773-.926 3.431-2.054 4.944-3.362.709.153.824 11.755.824 11.755z" fill="#664524"/><path d="m497.413 162.222.364-9.581s35.976-18.835 36.685-18.711c.277.048 1.274 0 4.55.527.709.125.824 11.717.824 11.717-.958.077-40.239 21.193-40.239 21.193l1.514-6.458c-3.612 1.888-3.698 1.313-3.698 1.313z" stroke="#4c3d22" stroke-miterlimit="10" stroke-width="2.8742"/><path d="m460.02 142.869c.958.173 34.95 23.166 34.95 23.166l.067-10.644s-35.659-22.821-36.349-22.783c-1.68.71-3.257 1.644-4.685 2.779.431 2.931 6.017 7.482 6.017 7.482z" fill="#aa753c"/><path d="m455.364 145.609c.958.173 36.406 23.693 36.406 23.693l-1.341-11.18s-21.94-14.046-31.731-20.12c-1.512-.964-3.072-1.85-4.675-2.654-.671.048 1.341 10.261 1.341 10.261z" fill="#825d2e"/><path d="m494.424 164.579.632-9.198s-35.659-22.811-36.349-22.773c-.278 0-4.637 2.74-4.637 2.74-.191 3.66-.46 9.926-.46 9.926l38.189 24.028-.786-6.342c3.248 2.165 3.411 1.619 3.411 1.619z" stroke="#4c3d22" stroke-miterlimit="10" stroke-width="2.8742"/><path d="m508.575 144.641c-19.478 28.206-34.682 38.553-34.682 38.553l5.623 4.628s27.363-32.364 34.864-37.681c-.613-2.961-2.653-4.723-5.805-5.5z" fill="#825d2e"/><path d="m513.231 147.506-13.892 15.329-20.943 21.154 1.657 3.306s11.497-14.477 34.347-37.106c.325-1.284-1.169-2.683-1.169-2.683z" fill="#664524"/><path d="m475.885 186.317c1.38 1.38 3.094 1.974 3.832 1.323.738-.652.221-2.3-1.149-3.67-1.371-1.37-3.105-1.983-3.833-1.332-.728.652-.23 2.309 1.15 3.679z" fill="#aa753c"/><path d="m473.893 183.194s15.204-10.347 34.682-38.553c1.913.353 3.623 1.414 4.79 2.97.326.336 1.341 1.505 1.063 2.606-8.871 8.776-7.262 5.749-13.719 13.011-5.164 5.969-10.002 11.688-13.202 15.492-2.146 2.625-7.425 8.623-7.425 8.623l-.048-.096c-.047.148-.133.28-.249.383-.041.034-.086.063-.134.086l-.077.086c-.834.374-2.357-.22-3.602-1.465-.819-.959-1.517-2.015-2.079-3.143z" stroke="#4c3d22" stroke-miterlimit="10" stroke-width="1.91613"/><path d="m478.137 174.207s3.478 8.336-1.658 28.513c3.747 3.928 8.317 1.207 9.006-.326-.514-9.053-.514-18.128 0-27.181z" fill="#664524"/><path d="m477.016 174.821s1.524 8.881-.517 27.898c1.916 2.089 3.938 2.108 6.4 1.859-.45-9.121-1.476-5.432-2.367-23.396-.191-3.957 2.578 15.482 2.386 11.679-.565-11.229-1.044-17.849-1.044-17.849z" fill="#825d2e"/><path d="m485.639 174.888c.048 1.073-1.82 2.021-4.177 2.146-2.357.124-4.312-.652-4.36-1.715-.047-1.064 1.811-2.022 4.168-2.137s4.283.652 4.369 1.706z" fill="#aa753c"/><path d="m480.599 176.852 1.37 2.74.076-3.095z" fill="#aa753c"/><path d="m477.207 203.467 1.725-5.911.344 6.859s.125.748-2.069-.948z" fill="#664524"/><path d="m485.639 174.888c-.058-1.054-2.012-1.821-4.369-1.706-1.34.124-2.636.542-3.794 1.227-.124.109-.224.243-.293.393-.07.15-.107.313-.11.478 0 .307 1.083 10.108-.594 27.401.511.703 1.227 1.229 2.051 1.504 5.202 1.437 6.706-1.178 6.955-1.83-.481-9.151-.43-18.322.154-27.467z" stroke="#4c3d22" stroke-miterlimit="10" stroke-width="1.91613"/><path d="m455.842 103.31-.403 32.881 28.053 17.849.804-37.307z" fill="#825d2e"/><path d="m537.537 103.933 3.756 40.45-34.452 16.91.278-43.324z" fill="#664524"/><path d="m478.29 190.15s6.936-2.271 9.379-8.91c-.533-.015-1.05-.188-1.485-.499 0 0-4.1 6.707-8.843 7.55-1.178.824.144 1.753.949 1.859z" fill="#ea9b1c"/><path d="m478.118 190.083c1.619-.62 3.075-1.603 4.254-2.875 1.13-1.35-.048-1.13-1.447-.115-1.095.637-2.271 1.12-3.497 1.438 0 0-.172 1.274.69 1.552z" fill="#ffc127"/><path d="m477.275 188.971c.115-.584-.087-.354-.087-.354s.882-.163 1.543-.316c.661-.154 2.596-1.112 2.021-.211-.813.759-1.8 1.308-2.874 1.6 0 0-.699-.249-.603-.719z" fill="#ffdf99"/><path d="m484.259 186.806s.354-1.801.105-1.983-1.073.239-1.629.613c1.28-1.465 2.434-3.035 3.449-4.695 0 0 .863-.115 1.16.278-.836 2.026-1.869 3.964-3.085 5.787z" fill="#aa6c11"/><path d="m478.328 190.063s6.218-.661 9.341-8.823c-.162-.231-.393-.403-.661-.493-.267-.09-.556-.092-.824-.006-.661.163-4.1 6.707-8.843 7.55-1.178.824.173 1.667.987 1.772z" stroke="#8e5811" stroke-miterlimit="10" stroke-width=".71855"/><path d="m475.904 182.14s4.197 5.404 10.827 5.461c-.144-.481-.144-.994 0-1.475 0 0-7.196-1.504-9.457-5.404-1.121-.785-1.533.671-1.37 1.418z" fill="#ea9b1c"/><path d="m475.905 181.968c1.043 1.235 2.354 2.218 3.832 2.874 1.542.575.958-.393-.364-1.313-.902-.77-1.695-1.659-2.357-2.644 0 0-1.131.23-1.111 1.083z" fill="#ffc127"/><path d="m476.623 180.866c.556-.086.288-.182.288-.182s.421.728.756 1.255c.336.527 1.811 1.916.834 1.725-.932-.487-1.732-1.194-2.328-2.06 0 0 .009-.671.45-.738z" fill="#ffdf99"/><path d="m480.742 186.346s1.706-.249 1.782-.536c.077-.288-.546-.863-1.054-1.236 1.696.666 3.446 1.185 5.231 1.552 0 0 .374.728.125 1.121-2.052-.102-4.09-.404-6.084-.901z" fill="#aa6c11"/><path d="m475.991 182.14s2.558 5.279 10.739 5.461c.156-.214.24-.472.24-.737 0-.266-.084-.524-.24-.738-.354-.527-7.195-1.504-9.456-5.404-1.121-.785-1.446.671-1.283 1.418z" stroke="#8e5811" stroke-miterlimit="10" stroke-width=".71855"/><path d="m482.122 93.9502 3.248 113.7798 12.369 7.224 10.557-120.1511z" fill="#825d2e"/><path d="m497.585 107.766v107.495l7.732-4.331 6.495-107.188z" fill="#664524"/><path d="m487.276 144.383-.46 63.663 6.027 3.143s-1.236-12.369-1.236-12.992c0-.622.766-13.412.46-13.911-.307-.498-2.52-26.03-2.52-26.03l-.728-11.497-1.753-27.439z" fill="#af7b43"/><path d="m493.926 210.729c0 .306-.623-10.826-.153-11.909.469-1.082 1.082-8.354 1.082-8.354s.46-13.145.154-14.228c-.307-1.082-.623-34.634-.623-34.634l1.859 33.399s-1.39 27.994-1.543 28.454 1.236 9.897 1.236 9.897z" fill="#af7b43"/><path d="m518.385 115.794s-1.61 40.239-1.744 40.67 1.916-.671 1.916-.671l-.134-17.053z" fill="#4c3d22"/><path d="m528.856 112.834v19.333l-.105 19.325s1.61-12.886 1.073-12.752-.968-25.906-.968-25.906z" fill="#4c3d22"/><path d="m460 108.944s.402 31.808.134 32.21.537 6.18.537 6.18l.268-8.326.536-17.044z" fill="#af7b43"/><path d="m467.924 152.431s1.609-15.032 1.341-15.703 2.414-22.285 2.414-22.285l.537.958-1.744 19.727.269 18.922c-.896-.612-1.838-1.153-2.817-1.619z" fill="#af7b43"/><path d="m507.156 105.054 1.14-10.2511-26.174-.8527 3.248 113.7798 12.215 7.128 7.732-4.704 6.496-106.412z" stroke="#4c3d22" stroke-miterlimit="10" stroke-width="2.8742"/><path d="m470.204 153.504s.585-24.69.402-25.236c-.182-.546 1.074-14.131 1.074-14.131l.172 12.368-1.111 29.039-.317-.958" fill="#4c3d22"/><path d="m551.189 93.7298c2.179-3.2026 3.759-6.773 4.666-10.5387 3.516-14.8979-.603-29.1444-.421-29.4031-6.41-17.7721-29.701-18.5098-57.293-18.9122-5.991-.0916-11.975.4609-17.849 1.6479-24.172 4.8765-41.848 20.2248-42.049 38.658-.016 2.3547.251 4.7028.795 6.9939.115.6131.249 1.2167.412 1.782 0 0 .134.4215.431 1.1401 6.189 17.9923 29.346 31.6163 57.12 31.9993h3.468c29.902-.172 44.071-12.531 50.72-23.3672z" fill="#664524"/><path d="m439.45 71.1578s-2.318 11.8321 4.312 20.608c6.629 8.7762 17.178 16.2872 23.444 18.7872 11.63 5.011 19.506 5.414 19.506 5.414l-22.371-15.435-3.219-5.1926s-18.28-10.031-21.672-24.1816z" fill="#7f532a"/><path d="m551.19 93.7298c2.178-3.2026 3.759-6.773 4.666-10.5387 3.516-14.8979-.604-29.1444-.422-29.4031-6.409-17.7721-29.7-18.5098-57.292-18.9122-5.992-.0916-11.976.4609-17.849 1.6479-20.273 4.0622-36.713 7.1855-41.369 21.6523-.891 2.7784-.652 14.0069-.681 16.9769-.015 2.3547.252 4.7028.796 6.9939.115.6132.249 1.2168.412 1.782 0 0 .134.4216.431 1.1401 6.189 17.9921 29.345 31.6161 57.12 31.9991h3.468c29.901-.143 44.071-12.502 50.72-23.3382z" stroke="#4c3d22" stroke-miterlimit="10" stroke-width="2.8742"/><path d="m553.345 59.4406c-.028-1.9417.519-3.8483 1.571-5.4801-6.304-17.9063-29.364-31.4055-57.024-31.7983-32.699-.479-59.4 17.5326-59.649 40.2388s26.069 41.456 58.758 41.925c32.507.46 59.075-17.3314 59.63-39.8172-.974-.4428-1.802-1.1554-2.384-2.0535-.582-.8982-.895-1.9443-.902-3.0147z" fill="#825d2e"/><path d="m442.372 46.8229 110.657.958-110.657.9581z" fill="#4c3d22"/><path d="m552.512 59.5843c-28.461-.5238-56.925-.8431-85.393-.9581 28.461-.5365 56.928-.8559 85.402-.958z" fill="#4c3d22"/><path d="m459.847 31.2159h74.576" stroke="#4c3d22" stroke-miterlimit="10" stroke-width="1.91613"/><path d="m447.871 40.4134 97.215-2.2419.029 1.9161z" fill="#4c3d22"/><g fill="#aa753c"><path d="m534.586 64.892c-.958-.5556-44.981-1.8395-45.987-2.3951-1.006-.5557-12.292.6515-13.26.3736-.968-.2778-6.314-2.673-6.314-2.673l-15.655-3.0371 20.771-.8239 2.98-.4982c3.123.2587 16.009 1.3221 16.431 1.3221h1.82c.923.1903 1.875.1903 2.798 0 1.916-.2778 28.052-2.2706 28.052-2.2706l-12.924-2.5772s-.345.182-13.413-.2587l-15.876-1.7628-19.161-.1246-21.269-.7281c-1.32 1.724-2.319 3.671-2.951 5.7484-.316 1.0347 15.77 5.2119 15.655 6.17-.115.958-16.431-1.2359-16.402-.3737.045 1.8863.395 3.753 1.035 5.5281l64.545-1.1018s30.092.0383 29.125-.5174z"/><path d="m553.479 60.6478-62.734-.7281s9.705 2.7688 10.836 3.1329c1.13.364 0 0 1.782.182 1.609.1629 42.337-2.0694 50.145-2.5006z"/><path d="m498.409 42.7415-16.622.23-32.268-1.1018-3.401 3.5927 70.734.0384z"/><path d="m442.928 69.0213.297 1.1688-2.079-.067c.958.958 4.694 6.4478 4.694 6.4478l2.261 1.6574 63.405 1.1401-55.156-2.9412 4.589-.6515 76.78.2778-19.248-2.2419-9.063.1821-31.176-.6611 10.28-1.4371 39.703-1.9161s-39.473.3736-39.961.182c-.489-.1916-45.326-1.1401-45.326-1.1401z"/><path d="m506.898 36.3512-21.231-2.2131-19.775-1.1018-2.663.6898 12.129 1.2359 10.069 1.5234-30.045.182-2.749 2.3952 57.752-.9198z"/><path d="m481.096 26.5502 15.531-.7377 2.759-1.4754s-18.29-1.8395-29.077 4.2346l42.155-.2299z"/><path d="m456.676 88.1826s87.184-2.5772 87.682-2.3952c.499.1821 1.773-1.8395 1.773-1.8395l-95.807-.958z"/><path d="m539.338 90.0412 5.02-4.2346-58.404 4.6083z"/></g><path d="m556.42 68.2069c-9.759.3769-19.525.626-29.298.7473-9.772.1533-19.535.1916-29.307.2108s-19.525-.0575-29.298-.2108c-9.772-.1533-19.535-.3736-29.297-.7473 9.759-.3768 19.525-.6259 29.297-.7473 9.773-.1532 19.535-.1916 29.298-.2107 9.763-.0192 19.535.0575 29.307.2107 9.773.1533 19.535.3737 29.298.7473z" fill="#4c3d22"/><path d="m443.991 79.5792 108.223.958-108.223.9581z" fill="#4c3d22"/><path d="m460.978 93.7873 77.814-.9581v1.9162z" fill="#4c3d22"/><path d="m454.405 52.8683c1.325.7388 2.743 1.2963 4.216 1.6575 1.916.364 12.455-1.1018 12.455-1.1018s-15.693-.6898-16.671-.5557z" fill="#825d2e"/><path d="m448.427 72.3745s3.066 2.0216 3.554 1.8395c.489-.182 20.714 0 20.714 0l-22.975-3.2766" fill="#825d2e"/><path d="m553.345 59.4406c-.039-2.0534.575-4.066 1.753-5.7484-6.41-17.7913-29.403-31.1947-56.957-31.6162-32.699-.4695-59.4 17.5326-59.64 40.2388-.05 2.9729.272 5.9403.958 8.8334 0 0 10.357 33.1298 60.55 33.1298s56.459-34.2316 56.947-38.8303v-.8527c-1.048-.4-1.952-1.1047-2.596-2.0235-.643-.9187-.997-2.0092-1.015-3.1309z" stroke="#4c3d22" stroke-miterlimit="10" stroke-width="2.8742"/><path d="m461.121 95.3394 1.964 12.5316.719-10.376z" fill="#4c3d22"/><path d="m536.109 94.4484.709 13.9586 1.255-13.0676.718-1.5521-3.219 1.5521" fill="#4c3d22"/><path d="m444.164 79.9528c.134.4024 0 16.3734 0 16.3734l2.414-13.8249-1.609-2.2802" fill="#4c3d22"/><path d="m549.828 79.9528c.134.4024 0 16.3734 0 16.3734l2.414-13.8249-1.609-2.2802" fill="#4c3d22"/><path d="m460.585 109.298.172 39.913 1.073-38.83z" fill="#4c3d22"/><path d="m540.047 146.711-2.328-39.022" stroke="#4c3d22" stroke-miterlimit="10" stroke-width="2.8742"/><path d="m515.166 147.334s-5.748-22.199 9.935-28.742c9.667-4.034 9.303 19.506 9.303 19.506z" fill="#392f2d"/><path d="m525.101 118.429c-.211.086-.403.191-.604.287 2.874 5.701 2.97 16.287 2.97 16.287l-13.183 6.458c.153 1.916.447 3.818.882 5.691l19.266-9.016s.336-23.731-9.331-19.707z" fill="#56391f"/><path d="m534.404 138.117-6.889-3.947-13.327 6.151c.146 2.358.466 4.702.959 7.013 5.94-2.779 19.257-9.217 19.257-9.217z" fill="#7f532a"/><path d="m477.408 145.255s7.78-21.566-7.204-29.528c-9.255-4.905-11.095 18.558-11.095 18.558z" fill="#392f2d"/><path d="m470.213 115.555c.201.105.383.22.584.335-3.439 5.413-4.493 15.971-4.493 15.971l12.532 7.664c-.334 1.894-.805 3.761-1.409 5.586l-18.337-10.807s1.878-23.664 11.123-18.749z" fill="#56391f"/><path d="m459.109 134.285 7.234-3.277 12.685 7.358c-.365 2.334-.906 4.637-1.62 6.889-5.623-3.315-18.299-10.97-18.299-10.97z" fill="#aa753c"/><path d="m454.089 136.191.814-31.003" stroke="#4c3d22" stroke-miterlimit="10" stroke-width="2.8742"/><path d="m453.926 175.367s6.936-2.281 9.389-8.91c-.537-.014-1.057-.187-1.494-.499 0 0-4.101 6.707-8.843 7.55-1.169.834.143 1.772.948 1.859z" fill="#ea9b1c"/><path d="m453.754 175.367c1.622-.619 3.081-1.602 4.263-2.875 1.121-1.35-.057-1.12-1.456-.105-1.094.638-2.271 1.121-3.497 1.437 0 0-.173 1.217.69 1.543z" fill="#ffc127"/><path d="m452.911 174.207c.115-.584-.077-.354-.077-.354s.872-.163 1.533-.316c.661-.154 2.596-1.121 2.021-.211-.813.759-1.8 1.308-2.874 1.6 0 0-.699-.249-.603-.719z" fill="#ffdf99"/><path d="m459.894 172.042s.364-1.801.106-1.983c-.259-.182-1.064.23-1.629.613 1.28-1.465 2.434-3.035 3.449-4.694 0 0 .862-.115 1.159.277-.835 2.026-1.868 3.965-3.085 5.787z" fill="#aa6c11"/><path d="m453.964 175.3s6.218-.671 9.351-8.824c-.164-.231-.397-.404-.666-.494-.268-.09-.559-.091-.828-.004-.661.162-4.101 6.706-8.843 7.549-1.169.815.172 1.667.986 1.773z" stroke="#8e5811" stroke-miterlimit="10" stroke-width=".71855"/><path d="m451.541 167.376s4.206 5.404 10.826 5.461c-.143-.481-.143-.994 0-1.475 0 0-7.195-1.504-9.456-5.413-1.121-.776-1.533.68-1.37 1.427z" fill="#ea9b1c"/><path d="m451.541 167.194c1.044 1.236 2.354 2.219 3.833 2.875 1.552.574.958-.403-.365-1.313-.907-.763-1.707-1.646-2.376-2.625 0 0-1.111.22-1.092 1.063z" fill="#ffc127"/><path d="m452.26 166.102c.556-.086.287-.182.287-.182s.431.719.767 1.255c.335.537 1.801 1.916.824 1.725-.933-.487-1.732-1.194-2.328-2.06 0 0 .009-.671.45-.738z" fill="#ffdf99"/><path d="m456.379 171.582s1.705-.249 1.782-.536c.077-.288-.546-.862-1.054-1.236 1.696.666 3.446 1.186 5.231 1.552 0 0 .374.728.125 1.121-2.053-.102-4.09-.404-6.084-.901z" fill="#aa6c11"/><path d="m451.637 167.376s2.548 5.279 10.73 5.461c.156-.214.24-.472.24-.737s-.084-.524-.24-.738c-.345-.527-7.195-1.504-9.456-5.413-1.121-.776-1.437.68-1.274 1.427z" stroke="#8e5811" stroke-miterlimit="10" stroke-width=".71855"/><path d="m491.904 120.575s.891 19.87.891 20.579 1.073 10.922.891 11.277c-.182.354-.354-17.897-.536-18.97s.364-14.678.364-14.678h-2.127z" fill="#af7b43"/><path d="m443.042 95.1669.719 21.4701.402-20.3108z" fill="#af7b43"/><path d="m497.087 118.611.546 93.421.709-58.346z" fill="#af7b43"/><path d="m506.936 176.775-4.838 3.401 5.192-.9z" fill="#4c3d22"/><path d="m528.722 141.02-6.706-4.56 8.047 3.889z" fill="#4c3d22"/><path d="m518.395 145.81-4.034-2.682.269 1.159 2.414 2.242z" fill="#4c3d22"/><path d="m470.606 141.336 7.157-3.669-6.448 4.56z" fill="#4c3d22"/><path d="m459.062 134.314 12.349-.403-5.068-2.903z" fill="#664524"/><path d="m506.581 49.745-30.572 17.5518-21.231-13.5854 30.007-16.9865z" fill="#392f2d"/><path d="m502.663 52.3126-16.191-7.9232-11.794 3.0179-.134 2.1365 16.594 9.3124c3.822-2.2131 7.626-4.4837 11.525-6.5436z" fill="#664524" stroke="#664524" stroke-miterlimit="10" stroke-width=".71855"/><path d="m503.267 51.9964-16.671-9.8872-11.908 5.1544 18.509 10.395c3.334-1.9449 6.659-3.8802 10.07-5.6622z" fill="#825d2e"/><path d="m501.236 53.0695 1.753-.9581-16.508-9.686 7.78 5.6621z" fill="#af7b43"/><path d="m503.353 51.9485-16.756-9.9256-11.899 5.1545v.1437l-.135 2.1365 16.661 9.3507c3.995-2.3281 8.01-4.7137 12.129-6.8598z" stroke="#4c3d22" stroke-miterlimit="10" stroke-width="1.91613"/><path d="m486.472 61.3567-9.255-4.5316-11.794 3.0562-.134 2.1461 10.29 5.7484c3.123-2.5293 7.185-4.5029 10.893-6.4191z" fill="#664524" stroke="#664524" stroke-miterlimit="10" stroke-width=".71855"/><path d="m487.736 60.7436-10.375-6.1603-11.928 5.1544 11.947 6.7064c3.338-2.1008 6.796-4.0042 10.356-5.7005z" fill="#825d2e"/><path d="m486.28 61.4909 1.14-.5845-10.203-5.9975 7.751 5.6526z" fill="#af7b43"/><path d="m487.814 60.6956-10.443-6.1987-11.928 5.1544v.1438l-.134 2.1364 10.347 5.8059c3.487-2.8358 8.124-4.9244 12.158-7.0418z" stroke="#4c3d22" stroke-miterlimit="10" stroke-width="1.91613"/><path d="m506.294 50.5976-30.572 17.5422-21.231-13.5853 30.007-16.977z" stroke="#4c3d22" stroke-miterlimit="10" stroke-width="1.91613"/><path d="m465.643 3.13501s3.832 8.20109-.584 28.55999c3.889 3.7748 8.344.891 8.977-.6611-.844-9.0277-1.184-18.0956-1.016-27.16118z" fill="#664524"/><path d="m464.561 3.7865s1.839 8.8238.517 27.9085c1.983 2.0023 4.005 1.9161 6.457 1.6191-.785-9.1016-1.667-5.3747-3.228-23.3002-.345-3.9472 3.142 15.377 2.816 11.5831-.958-11.1998-1.705-17.79134-1.705-17.79134z" fill="#825d2e"/><path d="m473.183 3.53741c.087 1.06346-1.743 2.08859-4.091 2.29937-2.347.21077-4.34-.4982-4.426-1.55207-.086-1.05388 1.696-2.08859 4.053-2.32811 2.357-.23951 4.33.52694 4.464 1.58081z" fill="#aa753c"/><path d="m468.211 5.68346 1.475 2.68258-.048-3.08497z" fill="#aa753c"/><path d="m465.815 32.404 1.495-5.9688.604 6.8406s.153.7473-2.099-.8718z" fill="#664524"/><path d="m473.184 3.5374c-.134-1.05387-2.118-1.75326-4.465-1.58081-1.329.1832-2.6.66466-3.717 1.40836-.122.11183-.218.24833-.282.40034-.065.152-.096.31602-.092.48108 0 .30658 1.457 10.05973.431 27.41033.538.6809 1.275 1.1767 2.108 1.4179 5.25 1.2455 6.601-1.4275 6.879-2.079-.82-9.1282-1.108-18.2965-.862-27.4582z" stroke="#4c3d22" stroke-miterlimit="10" stroke-width="1.91613"/><path d="m476.498 2.91467c-13.204 16.22543-28.412 30.71183-45.259 43.11303l5.25 5.0203s37.49-37.4892 45.394-42.22205c-.403-3.03708-2.309-4.95321-5.385-5.91128z" fill="#825d2e"/><path d="m480.916 6.10504-22.745 21.53736 5.978-7.9232-28.483 27.4677 1.399 3.4299s20.292-20.8762 44.818-41.7142c.422-1.28381-.967-2.79756-.967-2.79756z" fill="#664524"/><path d="m432.944 49.2851c1.275 1.485 2.942 2.2036 3.737 1.6192s.393-2.2802-.872-3.7556c-1.265-1.4755-2.865-2.2132-3.698-1.6192-.834.594-.403 2.2706.833 3.7556z" fill="#aa753c"/><path d="m431.239 46.0277c16.847-12.4012 32.055-26.8876 45.259-43.11303 1.865.509 3.474 1.69415 4.513 3.32449.306.36407 1.226 1.59998.872 2.68259-9.524 8.07655-15.425 12.45485-22.41 19.25715-5.614 5.5568-10.874 10.8932-14.371 14.4381-2.318 2.4526-8.038 7.9998-8.038 7.9998v-.1054c-.062.1421-.157.267-.278.3641l-.143.0671-.086.0766c-.853.3066-2.329-.4024-3.478-1.7437-.741-1.0051-1.359-2.0955-1.84-3.2478z" stroke="#4c3d22" stroke-miterlimit="10" stroke-width="1.91613"/><path d="m522.916 4.92664s3.833 8.19146-.584 28.55036c3.832 3.8323 8.345.9006 8.977-.661-.85-9.0274-1.192-18.0954-1.025-27.16123z" fill="#664524"/><path d="m521.805 5.57806s1.849 8.83334.527 27.89894c1.983 2.0119 4.004 2.0119 6.419 1.6287-.796-9.1112-1.667-5.3844-3.229-23.3002-.345-3.94724 3.142 15.3291 2.807 11.5734-.958-11.1902-1.696-17.78167-1.696-17.78167z" fill="#825d2e"/><path d="m530.409 5.32899c.096 1.06346-1.734 2.08859-4.091 2.28978-2.357.2012-4.33-.48861-4.417-1.54249-.086-1.05387 1.734-2.08858 4.082-2.28978 2.347-.20119 4.34.47904 4.426 1.54249z" fill="#aa753c"/><path d="m525.484 7.47508 1.476 2.68262-.048-3.08501z" fill="#aa753c"/><path d="m523.089 34.1956 1.494-5.9688.604 6.8406s.144.7473-2.098-.8718z" fill="#664524"/><path d="m530.408 5.32897c-.086-1.06345-2.069-1.75326-4.416-1.54249-1.331.17862-2.603.66046-3.718 1.40836-.121.11184-.217.24833-.282.40034-.064.15201-.095.31603-.091.48108 0 .30659 1.456 10.05014.431 27.40074.532.6843 1.266 1.1837 2.098 1.4275 5.25 1.2455 6.611-1.4275 6.879-2.0886-.829-9.1373-1.129-18.3149-.901-27.48693z" stroke="#4c3d22" stroke-miterlimit="10" stroke-width="1.91613"/><path d="m519.285 3.65234c20.752 27.28576 40.459 39.08916 40.459 39.08916l-5.403 4.8765s-32.871-33.2066-40.622-38.19809c.498-2.98917 2.452-4.84782 5.566-5.76757z" fill="#825d2e"/><path d="m514.764 6.74695 17.762 16.28715 22.754 20.7421-1.494 3.382s-12.647-15.0225-40.067-37.6616c-.392-1.29339 1.045-2.74965 1.045-2.74965z" fill="#664524"/><path d="m557.905 45.951c-1.322 1.4467-3.008 2.1174-3.832 1.5042-.824-.6131-.326-2.2802.958-3.7269 1.284-1.4466 2.999-2.1173 3.775-1.5041.776.6131.412 2.2802-.901 3.7268z" fill="#aa753c"/><path d="m559.745 42.7415s-18.089-13.413-40.459-39.08916c-1.882.45348-3.528 1.59065-4.618 3.19037-.316.35448-1.275 1.56165-.958 2.65384 9.293 8.36395 28.885 25.75285 32.286 29.40305 2.261 2.5293 8.403 8.6897 8.403 8.6897.843.3353 2.337-.3258 3.535-1.6383.729-.994 1.337-2.0715 1.811-3.2095z" stroke="#4c3d22" stroke-miterlimit="10" stroke-width="1.91613"/><path d="m542.959 34.6267s3.833 8.2011-.584 28.56c3.89 3.8323 8.345.9006 8.977-.6611-.844-9.0277-1.184-18.0956-1.015-27.1612z" fill="#664524"/><path d="m541.857 35.2877s1.84 8.8142.518 27.8989c1.983 2.012 4.004 1.9162 6.467 1.6192-.795-9.1017-1.677-5.3748-3.239-23.2906-.344-3.9473 3.143 15.3769 2.817 11.5734-.958-11.1998-1.705-17.7913-1.705-17.7913z" fill="#825d2e"/><path d="m550.461 35.0387c.086 1.0634-1.744 2.0886-4.091 2.2897-2.348.2012-4.34-.4886-4.427-1.5424-.086-1.0539 1.744-2.0886 4.091-2.2994 2.348-.2108 4.331.4886 4.427 1.5521z" fill="#aa753c"/><path d="m545.527 37.1847 1.476 2.6826-.048-3.0945z" fill="#aa753c"/><path d="m543.122 63.9052 1.495-5.9687.603 6.8406s.163.7473-2.098-.8719z" fill="#664524"/><path d="m550.461 35.0386c-.096-1.0634-2.079-1.7532-4.426-1.552-1.329.1879-2.598.669-3.718 1.4083-.121.1137-.218.2519-.282.4055s-.095.3191-.091.4855c0 .3066 1.456 10.0502.431 27.4008.534.6864 1.272 1.1861 2.108 1.4275 5.25 1.2455 6.601-1.4275 6.879-2.0886-.835-9.137-1.136-18.3149-.901-27.487z" stroke="#4c3d22" stroke-miterlimit="10" stroke-width="1.91613"/><path d="m554.936 34.1381c-19.928 27.8989-39.808 44.3201-39.808 44.3201l5.547 4.7137s32.392-38.2364 39.999-43.4387c-.594-2.97-2.596-4.7616-5.738-5.5951z" fill="#825d2e"/><path d="m559.544 37.0793-15.119 17.389 5.5-8.2777-30.314 33.1682 1.6 3.3437c12.245-15.1086 25.425-29.4343 39.463-42.8927.345-1.3029-1.13-2.7305-1.13-2.7305z" fill="#664524"/><path d="m517.063 81.6199c1.35 1.3987 3.065 2.0215 3.832 1.3892.766-.6324.258-2.2994-1.102-3.6982s-3.066-2.0311-3.832-1.3892c-.767.6419-.259 2.2898 1.102 3.6982z" fill="#aa753c"/><path d="m515.128 78.4582s19.88-16.4212 39.808-44.3201c1.894.3962 3.574 1.4819 4.713 3.0466.316.3449 1.313 1.5329 1.025 2.6251-9.015 8.6226-8.344 7.9136-14.917 15.0896-5.259 5.8921-10.194 11.4968-13.413 15.2811-2.184 2.5868-11.094 12.522-11.094 12.522v-.1054c-.051.1459-.136.2774-.249.3832 0 0-.096.0479-.134.0767l-.077.0862c-.833.364-2.347-.2491-3.573-1.5233-.826-.9626-1.528-2.0248-2.089-3.1617z" stroke="#4c3d22" stroke-miterlimit="10" stroke-width="1.91613"/><path d="m533.293 7.12054c-33.954 4.68496-71.185 1.27423-71.185 1.27423l.393 7.26213s61.661-2.4814 70.667-.5173c1.763-2.4718 1.686-5.16402.125-8.01906z" fill="#825d2e"/><path d="m534.327 12.4953-39.999.9581 9.781-1.6862-39.549.5078-1.322 3.449s37.767-2.1269 69.891-.5365c1.169-.6419 1.198-2.6922 1.198-2.6922z" fill="#664524"/><path d="m461.15 11.9684c-.096 1.9161.632 3.6215 1.619 3.7365.987.1149 1.84-1.3892 1.916-3.3341.077-1.9449-.622-3.62149-1.609-3.70772-.987-.08622-1.84 1.36042-1.926 3.30532z" fill="#aa753c"/><path d="m462.108 8.39477s37.23 3.41073 71.184-1.27423c1.021 1.64613 1.387 3.61556 1.025 5.51846 0 .4695-.201 2.0119-1.207 2.5485-12.455-.6132-28.454-.6707-38.188-.5078-7.895.2108-15.329.5078-20.34.709-3.392.2012-11.324.2395-11.324.2395s-1.744-.1246-2.108-3.6598c-.345-3.30537.958-3.57363.958-3.57363z" stroke="#4c3d22" stroke-miterlimit="10" stroke-width="1.91613"/><path d="m442.381 36.0638s3.833 8.201-.584 28.56c3.832 3.7747 8.345.891 8.977-.6611-.85-9.0306-1.192-18.1018-1.025-27.1708z" fill="#664524"/><path d="m441.271 36.7153s1.849 8.8238.526 27.9085c1.974 2.0119 4.005 1.9161 6.458 1.6191-.795-9.1016-1.667-5.3748-3.238-23.3002-.336-3.9472 3.152 15.3866 2.816 11.583-.958-11.1998-1.696-17.7913-1.696-17.7913z" fill="#825d2e"/><path d="m449.873 36.447c.096 1.0635-1.734 2.0886-4.091 2.2994-2.356.2108-4.33-.4886-4.426-1.5521-.096-1.0634 1.744-2.0886 4.091-2.2897 2.347-.2012 4.34.5077 4.426 1.5424z" fill="#aa753c"/><path d="m444.949 38.6122 1.476 2.6826-.048-3.085z" fill="#aa753c"/><path d="m442.525 65.3327 1.505-5.9687.603 6.8405s.163.7473-2.108-.8718z" fill="#664524"/><path d="m449.874 36.447c-.087-1.0539-2.07-1.7437-4.417-1.5425-1.328.188-2.598.669-3.717 1.4084-.122.1124-.218.2488-.284.4005s-.1.3155-.1.4809c0 .3066 1.466 10.0597.441 27.4103.532.6826 1.267 1.1791 2.098 1.4179 5.251 1.2455 6.611-1.4179 6.879-2.079-.829-9.1406-1.129-18.3213-.9-27.4965z" stroke="#4c3d22" stroke-miterlimit="10" stroke-width="1.91613"/><path d="m465.643 61.8358s3.832 8.2011-.584 28.56c3.889 3.7748 8.344.891 8.977-.6611-.845-9.0309-1.184-18.102-1.016-27.1708z" fill="#664524"/><path d="m464.561 62.4873s1.839 8.8238.517 27.9085c1.983 2.0119 4.005 1.9161 6.457 1.6191-.785-9.1016-1.667-5.3747-3.228-23.3002-.345-3.9472 3.142 15.3866 2.816 11.5831-.958-11.1998-1.705-17.7913-1.705-17.7913z" fill="#825d2e"/><path d="m473.183 62.2381c.086 1.0635-1.743 2.0886-4.091 2.2994-2.347.2108-4.34-.4886-4.426-1.5521-.086-1.0634 1.734-2.0886 4.091-2.2898s4.292.4886 4.426 1.5425z" fill="#aa753c"/><path d="m468.211 64.3843 1.475 2.6825-.048-3.0849z" fill="#aa753c"/><path d="m465.815 91.1047 1.495-5.9688.604 6.8789s.153.709-2.099-.9101z" fill="#664524"/><path d="m473.184 62.2381c-.096-1.0539-2.079-1.7437-4.427-1.5425-1.328.188-2.598.6691-3.717 1.4084-.121.1118-.218.2483-.282.4003s-.096.3161-.092.4811c0 .3066 1.457 10.0597.432 27.4103.537.681 1.274 1.1767 2.107 1.4179 5.25 1.2455 6.601-1.4179 6.879-2.079-.834-9.1402-1.135-18.3213-.9-27.4965z" stroke="#4c3d22" stroke-miterlimit="10" stroke-width="1.91613"/><path d="m522.916 63.6274s3.833 8.201-.584 28.5599c3.832 3.7748 8.345.8911 8.977-.661-.85-9.0306-1.192-18.1018-1.025-27.1708z" fill="#664524"/><path d="m521.805 64.2789s1.849 8.8238.527 27.9085c1.983 2.0023 4.004 1.9161 6.457 1.6191-.795-9.1016-1.667-5.3843-3.229-23.3002-.345-3.9472 3.143 15.3291 2.807 11.583-.958-11.1998-1.695-17.7913-1.695-17.7913z" fill="#825d2e"/><path d="m530.409 64.0298c.096 1.0634-1.734 2.0885-4.091 2.2993s-4.33-.4982-4.417-1.5521c-.086-1.0538 1.734-2.0885 4.082-2.2897 2.347-.2012 4.34.4886 4.426 1.5425z" fill="#aa753c"/><path d="m525.484 66.1758 1.476 2.6826-.048-3.085z" fill="#aa753c"/><path d="m523.089 92.8963 1.494-5.9687.604 6.8405s.144.7473-2.098-.8718z" fill="#664524"/><path d="m530.408 64.0298c-.086-1.0539-2.069-1.7533-4.416-1.5425-1.33.1832-2.601.6647-3.718 1.4083-.121.1119-.217.2484-.282.4004-.064.152-.095.316-.091.4811 0 .3065 1.456 10.0597.431 27.4103.536.6783 1.269 1.1737 2.098 1.4179 5.25 1.2455 6.611-1.4275 6.879-2.079-.829-9.1406-1.129-18.3213-.901-27.4965z" stroke="#4c3d22" stroke-miterlimit="10" stroke-width="1.91613"/><path d="m533.293 70.123c-33.954 4.6467-71.185 1.2647-71.185 1.2647l.393 7.2717s61.661-2.4814 70.667-.5269c1.763-2.4718 1.686-5.164.125-8.0095z" fill="#825d2e"/><path d="m534.327 75.4883-39.999.958 9.782-1.6958-39.549.5174-1.341 3.4586s37.767-2.1269 69.891-.5461c1.188-.6323 1.216-2.6921 1.216-2.6921z" fill="#664524"/><path d="m461.15 74.9709c-.096 1.9161.632 3.6215 1.619 3.7364.987.115 1.84-1.3988 1.916-3.3436.077-1.9449-.632-3.6215-1.619-3.7365s-1.83 1.3892-1.916 3.3437z" fill="#aa753c"/><path d="m462.108 71.3877s37.23 3.382 71.184-1.2647c1.025 1.6411 1.391 3.6091 1.025 5.5089 0 .4695-.201 2.012-1.207 2.5485-12.455-.6132-28.454-.6707-38.188-.5078-7.895.2204-15.329.5078-20.34.7186-3.392.1916-11.363.3353-11.363.3353v-.1054c-.142.0617-.295.0912-.45.0862h-.153-.115c-.843-.3545-1.437-1.9161-1.351-3.6406.168-1.2608.49-2.4963.958-3.679z" stroke="#4c3d22" stroke-miterlimit="10" stroke-width="1.91613"/><path d="m438.272 35.6422c20.809 27.2474 36.492 36.8473 36.492 36.8473l-5.413 4.8861s-28.857-31.003-36.636-35.9562c.498-2.9892 2.452-4.8479 5.557-5.7772z" fill="#825d2e"/><path d="m433.759 38.7368 14.611 14.6201 21.94 20.1673-1.495 3.3915s-12.167-13.9111-36.09-35.4485c-.393-1.255 1.034-2.7304 1.034-2.7304z" fill="#664524"/><path d="m472.935 75.7277c-1.313 1.4563-3.009 2.127-3.833 1.5138s-.325-2.2898.958-3.7269c1.284-1.4371 3.009-2.1269 3.785-1.5137.776.6131.402 2.2514-.91 3.7268z" fill="#aa753c"/><path d="m474.764 72.4895s-15.683-9.5999-36.492-36.8473c-1.88.4598-3.521 1.5999-4.609 3.2-.306.3544-1.274 1.5712-.958 2.6538 9.284 8.3448 7.531 5.3748 14.371 12.3399 5.452 5.7484 10.539 11.1902 13.94 14.8405 2.271 2.5197 7.828 8.2393 7.828 8.2393l.047-.1054c.055.1435.144.2717.259.3737.045.0312.093.0569.144.0766l.076.0863c.844.3353 2.338-.3354 3.526-1.6479.751-.9902 1.378-2.0679 1.868-3.2095z" stroke="#4c3d22" stroke-miterlimit="10" stroke-width="1.91613"/></g><path d="m19 491 53.2768-112h311.7682l76.955-168" stroke="#f2be19" stroke-dasharray="5.75 5.75" stroke-linejoin="round" stroke-width="2.8742"/><g clip-path="url(#b)"><path d="m403.773 272.774c.421-.653.708-1.21.861-1.671-.986-1.206-2.183-2.345-3.589-3.415-.713-.533-1.322-.951-1.827-1.252-.378.975-.601 2.119-.669 3.432-.18 2.612.458 4.737 1.915 6.376 1.369-.987 2.473-2.144 3.309-3.47z" fill="#2c84b1"/><path d="m401.061 270.722 2.355-1.195c-.282-.3-.678-.663-1.187-1.089-1.011-.81-2.073-1.467-3.186-1.97-.017.643.312 1.544.985 2.704.336.58.681 1.096 1.033 1.55z" fill="#3cadf8"/><path d="m400.508 276.639 2.308-2.672-3.829-6.993c-.138.644-.245 1.344-.321 2.1-.174 1.496-.134 2.532.12 3.105.425.935.999 2.422 1.722 4.46z" fill="#f0f2f2"/><path d="m405.398 271.124-.135-.223c-.591-.845-1.008-1.421-1.251-1.728-.83-1.029-1.92-1.939-3.272-2.731-.666-.397-1.252-.695-1.757-.894l-.289.701c-.333.782-.52 1.796-.56 3.042-.077 2.511.531 5.046 1.822 7.603l.299.596.559-.409c1.439-1.041 2.624-2.294 3.554-3.76.463-.743.783-1.389.96-1.936zm-2.115-1.016c.246.224.509.632.787 1.222-.201.531-.528 1.137-.984 1.816-.663.965-1.447 1.827-2.353 2.587-1.099-2.405-1.623-4.51-1.571-6.316.06-1.662.098-2.556.114-2.683.635.341 1.44.931 2.415 1.768.345.311.875.846 1.592 1.606z" fill="#103948"/><path d="m416.032 295.866c.562-.164 1.405-.41 2.529-.738-.354-1.17-.598-2.028-.732-2.574-.354-1.839-.9-3.392-1.638-4.659-1.481-2.554-3.201-2.439-5.159.345.868 3.422 1.682 6.14 2.442 8.152.731-.087 1.583-.263 2.558-.526z" fill="#3cadf8"/><path d="m411.473 291.56.753 1.097c-.125-.736-.212-1.484-.26-2.243-.072-1.504.13-2.305.607-2.401.509-.128 1.138.274 1.885 1.206.585.728 1.155 1.659 1.709 2.793-.803-3.778-1.166-5.866-1.091-6.264-.548-.007-1.158.097-1.831.314-1.36.458-2.345 1.309-2.956 2.553.28.984.675 1.965 1.184 2.945z" fill="#2c84b1"/><path d="m416.877 295.616 1.742-.508-2.467-8.36c-.385-.472-.946-.674-1.681-.605l1.929 8.016z" fill="#2c84b1"/><path d="m418.214 295.225.755-.22-.702-2.143c-.564-1.839-.997-3.184-1.301-4.034l-.814-2.204c.318 1.639.82 3.778 1.505 6.416z" fill="#103948"/><path d="m413.131 296.43.759-.096-.357-1.149c-.156-.476-.601-1.379-1.335-2.709-.879-1.622-1.366-2.524-1.459-2.705l.26 1.583c.115.405.421 1.077.919 2.018.477.945.777 1.63.897 2.054z" fill="#103948"/><path d="m413.656 305.261c.558.163 1.402.387 2.53.673l.705-2.63c.641-1.772.972-3.394.993-4.866.046-2.963-1.481-3.736-4.582-2.317-.997 3.409-1.697 6.176-2.1 8.3.668.294 1.486.574 2.454.84z" fill="#3cadf8"/><path d="m414.507 305.476 1.741.473.947-3.535c.971-3.478 1.137-5.494.499-6.05-.619-.551-1.117.3-1.493 2.554-.913 3.408-1.477 5.594-1.694 6.558z" fill="#2c84b1"/><path d="m415.844 305.846.758.192.527-2.205c.571-2.124 1.174-4.341 1.811-6.653l-.94-.675c-.524 2.589-.865 4.291-1.023 5.105-.18.828-.343 1.515-.489 2.06z" fill="#103948"/><path d="m410.896 304.276.69.331.283-1.176c.472-1.689.791-2.959.957-3.812.475-1.69.657-2.912.545-3.667l-.571 1.321z" fill="#103948"/><path d="m430.427 286.859c.186.022.302.065.346.128 1.888 3.782 2.701 5.8 2.437 6.055l.025-.017c.049-.035.221-.104.516-.209.288-.15.439-.302.453-.459.009-.128-.302-.842-.934-2.141-.174-.321-.33-.652-.471-.996l-.445-1.012c-.764-1.526-1.214-2.316-1.35-2.369l-.571-.083c-.129-.009-.299.01-.511.058l-.134.019c-.418.068-.893.284-1.423.649-.531.365-.935.753-1.213 1.164-.229.305-.092 1.138.413 2.501.252.681.526 1.323.821 1.926.198.426.377.914.538 1.463l.07.207.507-.275c-.237-.765-.474-1.567-.713-2.404-.459-1.687-.628-2.67-.504-2.951.081-.202.251-.38.511-.535.149-.102.376-.234.681-.395.224-.131.541-.239.951-.324z" fill="#103948"/><path d="m433.189 291.572c-2.669-.093-4.713.524-6.135 1.853l.165.179c-.148.981-.159 1.88-.035 2.696.222 1.479.854 2.289 1.896 2.431 1.287.165 2.559-.539 3.817-2.111 1.232-1.541 1.662-2.838 1.289-3.89-.096-.292-.251-.528-.467-.71z" fill="#3cadf8"/><path d="m433.957 292.3-1.537-1.455c-.509.07-1.107.369-1.793.896 1.195 1.298 1.959 2.497 2.293 3.595.142.516.388.631.736.346.174-.143.33-.341.466-.595l.188-1.105c.124-.581.006-1.141-.353-1.682z" fill="#2c84b1"/><path d="m428.829 297.768.321-.005c-.613-.492-.947-1.341-1.004-2.547-.12.793-.037 1.457.25 1.989.137.274.281.461.433.563z" fill="#707676"/><path d="m430.952 297.743c.017.206 0 .35-.051.432.122-.154.501-.414 1.138-.778-.425-.122-.888-.355-1.388-.698-.525-.47-.863-1.005-1.013-1.606-.003.129.048.317.154.565.078.25.158.436.239.557.561.553.868 1.062.921 1.528z" fill="#707676"/><path d="m431.912 295.868.128-.01c.096-.051.16-.142.192-.273-.338-.1-.688-.357-1.051-.769-.35-.427-.565-.687-.644-.78.252.791.71 1.402 1.375 1.832z" fill="#707676"/><path d="m434.334 292.975c-.107-.433-.436-.869-.987-1.308.327 1.013.169 2.052-.472 3.117-.556.901-1.067 1.378-1.535 1.43-.148.982-.56 1.529-1.237 1.642-.225.047-.63-.005-1.215-.157-.164.441-.427.549-.789.322l-.487-.451c.494.971 1.277 1.355 2.348 1.153 1.111-.22 2.191-1.008 3.238-2.362.974-1.363 1.353-2.492 1.136-3.386z" fill="#e4eaea"/><path d="m428.823 297.683-.098.115c.271.334.346.634.225.9.347-.128.619-.293.817-.495-.357-.17-.578-.33-.662-.48z" fill="#cbd3d4"/><path d="m432.592 296.561.594-.605c-.295.067-.542.03-.739-.11l-.215-.261-.32.283c.338.101.564.332.68.693z" fill="#cbd3d4"/><path d="m429.074 292.167c-.761.306-1.381.677-1.86 1.116.38.268.838.273 1.374.015.565-.261.727-.637.486-1.131z" fill="#979fa1"/><path d="m430.972 292.545c-.137-.274-.336-.521-.597-.741-.822.096-1.49.229-2.006.4-.292.096-.486.169-.582.219-.179.086-.305.204-.379.352-.357.699-.484 1.501-.381 2.404.112 1.359.279 1.909.501 1.648.198-.202.309-.674.333-1.417-.008-.27.028-.53.108-.779-.001.343.019.662.057.958.106.59.302.794.587.614.286-.18.414-.454.383-.823-.016-.198-.079-.527-.189-.989l-.079-.699c.111.305.236.608.376.91.304.573.55.781.738.623.283-.208.358-.685.225-1.429-.045-.196-.151-.444-.319-.744l.433.563c.33.358.577.487.74.388.192-.101.282-.315.269-.642s-.085-.599-.218-.816z" fill="#a8e6ff"/><path d="m431.147 297-.264.449c.088.364.082.649-.015.857l.521-.706.816-.26c-.557-.153-.909-.267-1.058-.34z" fill="#cbd3d4"/><path d="m433.472 291.892c.048 1.093-.184 2.017-.694 2.772.17.143.298.317.387.524.177.413.078.777-.296 1.093.441-.207.781-.499 1.022-.875.256-.363.351-.692.284-.986.127-.708.183-1.162.166-1.36-.019-.412-.197-.746-.533-1.004z" fill="#cbd3d4"/><path d="m434.621 292.545-.023-.02c-.109-.276-.273-.533-.493-.771l-.046-.039-1.324-.96c-.217-.025-.45.001-.702.079.942 1.006 1.428 1.522 1.458 1.548.17.142.284.318.344.527l.03.105c.078.25.103.469.076.656l-.048.196-.071.177c-.043.175-.063.276-.061.305-.026.03-.034.102-.025.216l-.009.15c.022.098.016.198-.018.301-.022.087-.045.146-.072.177l-.051.154-.235.276-.163.099-.039.046-.063.026-.255.021-.082.05-.125.053-.019.023-.062.026-.02.023-.016.066-.078.092-.048.196.017.212-.019.023-.016.066-.519.47-.105.03-.276.044-.124.053-.163.099-.063.027-.097.115c-.087.164-.143.261-.169.292-.024.059-.083.128-.176.207-.04.046-.121.095-.246.148l-.062.027-.023-.02-.108-.012-.289-.126-.26-.021-.252.063c-.124.053-.232.133-.323.241l-.16.141-.066-.016c-.044-.01-.133-.046-.266-.106l-.261-.299c-.172-.171-.313-.409-.424-.714-.202-.539-.306-1.115-.314-1.727l-.136-2.17c-.007-.085.014-.264.063-.539.001-.157-.014-.249-.044-.275-.205.117-.379.352-.521.706-.132.31-.183.478-.152.504-.075.648-.105 1.242-.089 1.782.05.78.178 1.468.385 2.064.175.385.358.697.549.938.159.187.298.318.419.393.11.119.312.224.605.314l.387.011c.142-.012.294-.082.455-.209l.196-.23.154.051c.162.058.28.091.352.1l.151.009.255-.021.596-.327.097-.115.063-.027.117-.138.185-.357.171-.014.334-.113c.15-.084.319-.205.506-.363l.391-.46c.074-.148.12-.28.139-.396l-.003-.042.435-.186.222-.168c.159-.156.296-.317.411-.483l.233-.554c.067-.233.078-.448.033-.644l-.007-.085.019-.023.2-.7c.042-.36-.004-.741-.137-1.144z" fill="#103948"/><path d="m431.651 296.082c-.163-.243-.461-.39-.894-.439l.154.564c.205.411.568.73 1.087.958-.103-.561-.219-.923-.347-1.083z" fill="#2d1f10"/><path d="m430.052 296.983c-.135-.246-.415-.429-.84-.551l.111.568c.151.444.475.809.971 1.096-.06-.551-.141-.922-.242-1.113z" fill="#2d1f10"/><path d="m428.297 297.555c-.094-.263-.347-.478-.762-.643l.026.575c.11.462.387.866.83 1.215.039-.574.007-.956-.094-1.147z" fill="#2d1f10"/><path d="m432.818 294.618c-.135-.246-.415-.429-.84-.551-.03.159-.007.35.069.571.151.444.481.802.99 1.073-.06-.551-.133-.915-.219-1.093z" fill="#2d1f10"/><path d="m432.898 295.595c-.352-.798-.661-1.243-.926-1.335l.213.495c.188.37.425.65.713.84z" fill="#563e28"/><path d="m431.814 297.009c-.422-.778-.77-1.176-1.043-1.197l.252.45c.229.352.493.601.791.747z" fill="#563e28"/><path d="m430.152 297.937c-.321-.772-.622-1.21-.902-1.316l.189.477c.188.369.426.649.713.839z" fill="#563e28"/><path d="m428.268 298.519c-.209-.809-.448-1.274-.716-1.395.063.58.301 1.044.716 1.395z" fill="#563e28"/><path d="m417.064 303.945c-1.717-2.06-3.546-3.171-5.488-3.334l-.023.242c-.81.547-1.477 1.14-2.002 1.778-.973 1.155-1.154 2.166-.543 3.032.739 1.084 2.115 1.565 4.129 1.445 1.952-.119 3.196-.679 3.73-1.68.153-.266.226-.529.218-.79z" fill="#3cadf8"/><g fill="#2c84b1"><path d="m417.033 304.97.057-2.112c-.393-.33-1.016-.573-1.867-.728-.169 1.754-.55 3.132-1.145 4.135-.269.43-.191.679.235.747.223.033.474.026.755-.023l.949-.632c.515-.296.854-.759 1.016-1.387z"/><path d="m409.526 304.834.219.235c-.044-.783.365-1.599 1.226-2.449-.672.442-1.11.948-1.315 1.517-.112.285-.155.517-.13.697z"/><path d="m410.965 306.389c-.142.15-.261.234-.355.252.196-.014.642.094 1.34.321-.193-.396-.33-.894-.408-1.495-.002-.703.172-1.302.52-1.794-.079.062-.185.216-.319.461-.154.246-.239.44-.255.581-.037.765-.211 1.323-.523 1.674z"/><path d="m413.007 305.845.093.087c.102.037.213.034.333-.01-.151-.317-.195-.758-.131-1.322l.152-.97c-.422.717-.571 1.455-.447 2.215z"/></g><path d="m416.785 305.732c.251-.37.355-.916.313-1.638-.536.941-1.416 1.52-2.64 1.738-1.043.192-1.74.132-2.093-.179-.83.568-1.513.638-2.051.212-.166-.156-.398-.501-.697-1.035-.439.174-.694.061-.767-.339l.01-.664c-.392 1.018-.155 1.855.712 2.513.908.656 2.217.919 3.927.787 1.689-.191 2.784-.656 3.286-1.395z" fill="#e5eaea"/><path d="m409.585 304.772-.151.005c-.067.444-.241.7-.521.769.328.191.633.283.915.274-.112-.379-.14-.649-.085-.812z" fill="#ccd3d4"/><path d="m412.945 306.811.849.035c-.247-.153-.384-.35-.412-.591l.051-.333-.426-.077c.151.317.13.639-.062.966z" fill="#ccd3d4"/><path d="m413.897 301.296c-.676-.341-1.379-.562-2.108-.66.054.44.357.783.909 1.028.573.264.972.142 1.199-.368z" fill="#a8e6ff"/><path d="m414.886 302.955c.089-.385.139-.708.151-.969-.642-.544-1.198-.94-1.67-1.187-.267-.153-.451-.258-.554-.315-.184-.075-.356-.09-.516-.045-.74.203-1.422.656-2.046 1.358-.938.973-1.236 1.464-.892 1.474.282-.008.708-.252 1.278-.732.216-.187.434-.334.652-.441-.255.228-.48.456-.675.683-.368.474-.39.756-.065.847.327.11.617.031.871-.238.156-.145.36-.412.61-.802l.468-.527c-.152.287-.295.582-.426.888-.224.59-.215.901.028.934.345.07.751-.194 1.216-.79.117-.145.231-.389.341-.734l-.13.697c-.046.484.024.763.207.838.204.054.433-.033.688-.262.216-.207.37-.433.464-.677z" fill="#a8e6ff"/><path d="m411.651 306.036-.512.106c-.211.328-.428.516-.648.562l.875-.086.739.43c-.258-.515-.409-.852-.454-1.012z" fill="#ccd3d4"/><path d="m417.016 304.336c-.784.768-1.628 1.216-2.531 1.344.006.221-.037.443-.131.667-.19.408-.528.569-1.014.483.449.187.895.254 1.337.201.442-.054.75-.204.924-.45.633-.422 1.008-.684 1.126-.788.294-.291.424-.656.39-1.098z" fill="#ccd3d4"/><path d="m417.117 302.737c-.082-.038-.174-.085-.277-.143-.122 1.291-.181 1.986-.178 2.086.007.221-.047.424-.163.608l-.057.093c-.115.204-.261.369-.439.495l-.626.32-.177.126-.117.124-.237.188-.179.066-.15.035-.363.011-.182-.025-.123-.057-.031-.029-.124-.087-.031-.029-.093-.057-.122-.057-.272.008-.209.097-.176.186-.423.013-.427-.108-.001-.03-.216-.145-.094-.087-.213-.054-.06.001-.062-.028-.09.003-.33.1-.272.008-.276-.112-.062-.059-.063-.088-.1-.299-.158-.206-.062-.059-.154-.085c-.123-.057-.255-.083-.396-.079l-.212-.024-.032-.059c-.043-.059-.065-.139-.068-.239-.023-.08-.017-.221.017-.423.012-.262.095-.516.249-.761.228-.47.586-.943 1.076-1.42l1.525-1.553c.059-.062.207-.167.445-.315.117-.104.176-.176.174-.216-.223-.054-.514-.015-.873.116-.32.11-.479.185-.477.226-.456.275-.918.65-1.388 1.127-.549.499-.976 1.044-1.281 1.636-.169.387-.28.732-.331 1.035l-.013.574c.008.241.065.46.172.658l.251.294c.124.097.277.163.46.197l.303.022.226.475.094.118.062.028.155.116c.103.078.307.152.612.223l.152.026.362-.011.27-.098.124.117.216.144.092.027c.183.055.396.099.639.132.142.016.333.01.575-.017.199-.067.339-.121.418-.164l-.001-.03.124.087.123.057.457.107c.222.013.433.007.634-.019l.301-.07.268-.128c.199-.107.366-.232.503-.377l.089-.063-.001-.03.417-.194.12-.033.119-.094c.257-.149.521-.438.79-.868l.027-.092-.001-.03c.133-.265.215-.559.246-.881l-.001-.031-.172-1.653c-.127-.177-.21-.275-.251-.294z" fill="#103948"/><path d="m412.672 305.795c.073-.264-.017-.583-.271-.957l-.318.492c-.168.427-.163.909.014 1.447.349-.453.541-.78.575-.982z" fill="#2c1f0f"/><path d="m410.93 305.244c.112-.285.062-.615-.151-.99l-.349.462c-.23.409-.286.883-.168 1.423.39-.414.613-.712.668-.895z" fill="#2c1f0f"/><path d="m409.36 304.327c.113-.265.092-.596-.061-.993l-.411.404c-.271.37-.378.835-.32 1.397.432-.355.696-.624.792-.808z" fill="#2c1f0f"/><path d="m414.544 305.678c.093-.264.042-.595-.151-.991-.138.105-.254.259-.349.463-.229.409-.285.883-.168 1.422.371-.393.594-.691.668-.894z" fill="#2c1f0f"/><path d="m413.87 306.392c.36-.775.485-1.291.377-1.549l-.228.459c-.15.386-.199.749-.149 1.09z" fill="#543e26"/><path d="m412.089 306.536c.319-.794.383-1.318.194-1.574l-.166.487c-.109.406-.118.768-.028 1.087z" fill="#543e26"/><path d="m410.285 305.927c.361-.755.486-1.271.377-1.549l-.228.459c-.15.386-.199.75-.149 1.09z" fill="#543e26"/><path d="m408.592 304.953c.483-.698.669-1.196.559-1.494-.39.434-.576.932-.559 1.494z" fill="#543e26"/><path d="m448.593 282.814c-.502.284-1.045.422-1.63.415-1.091-.023-1.937-.68-2.539-1.972-.573-1.717-1.108-3.024-1.605-3.922-.688-1.317-1.376-2.264-2.064-2.842-.618-.532-1.497-.965-2.635-1.3-1.432-.433-2.799-.293-4.102.418.203.132.692.626 1.467 1.479 1.176 1.247 2.17 2.496 2.985 3.747.598.904.933 1.801 1.006 2.692.113 1.168.362 2.224.748 3.169 1.545 1.841 3.401 2.794 5.567 2.859 1.62.054 3.051-.348 4.293-1.204-.572-1.154-1.069-2.333-1.491-3.539z" fill="#f0f2f2"/><path d="m448.361 283.554c-.676-1.266-1.152-2.113-1.426-2.541-.315-.618-.773-1.247-1.374-1.886l-.769-.763c-.47-.777-1.119-1.588-1.946-2.432-1.673-1.686-3.42-2.695-5.241-3.026-1.822-.332-3.096.009-3.821 1.021-.375.498-.561 1.03-.56 1.593l3.482.892c.028.031.065.062.111.093.443.377.907 1.217 1.391 2.519.484 1.303 1.103 2.531 1.855 3.684.771 1.146 1.403 1.879 1.895 2.2.496.341 1.094.549 1.795.625-.058-.082-.124-.339-.198-.772l-.081-.652.514.975c.447.674.931 1.098 1.452 1.27-.099-.359-.205-.665-.32-.916l-.144-.249 2.541.729c.215.065.598.252 1.148.563.489.123.844-.188 1.064-.934-.477-.53-.933-1.194-1.368-1.993z" fill="#2c84b1"/><path d="m444.643 282.55.859 1.598c.045.488.293.937.744 1.346.225.205.449.357.671.456.129.779.243 1.118.342 1.02.067-.06.425-.126 1.073-.196.746-.081 1.147-.133 1.202-.157.118-.012.135-.12.051-.322-.152-.424-.259-.871-.32-1.34-.141-1.023-.84-2.066-2.095-3.128l-1.81-1.257c1.27 1.5 1.877 2.588 1.823 3.264-.256-.343-.756-.658-1.502-.947z" fill="#f0f2f2"/><path d="m435.986 272.394-.702.102c-.374.041-.754.232-1.143.573-.361.374-.696.868-1.005 1.483-.153.316-.264.592-.333.829l-.128.384 3.71.972c.692.809 1.259 1.567 1.7 2.274.428.676.722 1.384.883 2.124l.283 1.582c.239 1.101.749 2.156 1.531 3.164.677.895 1.573 1.503 2.688 1.823.884.274 1.866.353 2.947.236 1.336-.145 2.462-.469 3.378-.974.095-.028.17-.097.227-.209.068-.149.101-.275.098-.381l-.055-.39c-.153-.706-.621-1.704-1.403-2.993-1.318-2.183-2.899-4.232-4.742-6.146-2.251-2.311-4.312-3.744-6.182-4.299-.559-.169-1.143-.22-1.752-.154zm-.534.877.177-.019c.114-.03.289-.058.525-.084.471-.051.922-.011 1.352.118 1.116.32 2.395 1.071 3.838 2.254 1.793 1.497 3.543 3.448 5.251 5.853.689.947 1.283 1.879 1.783 2.793.435.799.702 1.431.803 1.895l.027.262c-.904.432-1.89.706-2.959.822-.904.098-1.751.04-2.542-.174-.907-.289-1.641-.8-2.202-1.532-.697-.894-1.153-1.84-1.37-2.838l-.283-1.581c-.187-.861-.519-1.653-.998-2.376-.571-.872-1.184-1.705-1.839-2.497l-.116-.119-3.129-.798c.115-.258.28-.567.493-.926.164-.264.361-.514.591-.751.241-.184.441-.285.598-.302z" fill="#103948"/><path d="m439.841 285.58c.261-1.993.418-3.123.471-3.389.07-.327.012-.917-.175-1.768l-.28-1.217c-.742-2.5-1.539-4.17-2.392-5.011-.644-.615-1.746-1.033-3.306-1.255-1.499-.207-2.858-.153-4.079.163-1.02.26-1.817.583-2.39.969-.099.068-.688.587-1.768 1.556-.608.551-1.398 1.095-2.37 1.633-.892.511-1.348.778-1.367.8-3.107 3.904-3.211 7.748-.312 11.532 1.45 1.902 3.271 3.403 5.462 4.502.268-.483.595-1.002.981-1.555.752-1.125 1.737-1.896 2.955-2.312 1.157-.391 2.698-.47 4.621-.235 1.499.206 2.432.054 2.799-.458.445-.638.828-1.956 1.15-3.955z" fill="#2c84b1"/><path d="m437.195 274.188c-.534-.322-1.249-.609-2.144-.862-1.79-.507-3.587-.55-5.389-.129-.1.028-.475.299-1.125.812-.886.693-1.478 1.142-1.774 1.346-.296.224-.825.718-1.589 1.482-.646.634-1.119 1.003-1.418 1.106-.7.175-1.181.303-1.44.383-.46.157-.464.328-.015.515.49.184 1.262.709 2.317 1.574.889.697 1.438 1.168 1.647 1.414.042.037.364-.32.966-1.072.758-.924 1.576-1.561 2.453-1.911 1.494-.599 2.515-1.181 3.062-1.747.255-.261.32-.437.196-.529-.138.112-1.295.513-3.473 1.205l.826-.698c.791-.525 1.815-.996 3.073-1.416.639-.21 1.915-.701 3.827-1.473z" fill="#3cadf8"/><path d="m432.127 286.592 1.427.162-5.683 4.093-.737 3.591c.056-.145.748-.913 2.077-2.305.665-.695 1.319-1.38 1.964-2.054l3.45.036c2.397-.124 3.826-.546 4.288-1.267.441-.739.757-1.941.948-3.607l.142-2.277c-1.413 1.257-2.831 2.071-4.251 2.442-.9.251-1.769.519-2.608.805z" fill="#9facad"/><path d="m440.308 279.078-.001-.03c-.201-.629-.444-1.315-.729-2.058l-.808-1.72c-.322-.62-.649-1.088-.981-1.404-.561-.541-1.471-.954-2.731-1.239-1.176-.231-2.338-.303-3.485-.214-.624.048-1.146.129-1.566.242-1.08.285-1.927.632-2.539 1.042-.277.202-.885.743-1.827 1.621-.471.419-1.231.941-2.281 1.566l-1.25.67c-.119.07-.218.148-.296.234-1.708 2.166-2.529 4.334-2.463 6.504.042 1.386.469 2.793 1.279 4.22.956 1.598 2.291 3.045 4.005 4.342.639.454 1.215.833 1.728 1.135l.555.32.305.097.182.016c.081-.006.2-.055.359-.148l.232-.32c.212-.319.385-.584.52-.796.25-.401.502-.743.755-1.024.7-.86 1.549-1.459 2.547-1.798.359-.129.72-.207 1.082-.235.563-.043 1.352.017 2.365.18 1.135.174 1.873.248 2.215.221.342-.026.623-.098.841-.216.279-.122.505-.311.678-.566.309-.466.563-1.07.762-1.81.272-.988.499-2.133.681-3.436l.34-2.745c-.016-.522-.104-1.099-.265-1.731zm-.971-.076.069.266.101.325c.233 1.049.357 1.784.37 2.206l-.096.823c-.179 1.424-.345 2.574-.5 3.452l-.457 1.878c-.183.598-.372 1.025-.566 1.282-.077.107-.175.195-.294.264-.16.053-.33.086-.511.1-.282.022-.95-.047-2.003-.207-1.135-.174-1.994-.239-2.578-.194-.462.036-.903.13-1.322.284-1.297.462-2.42 1.324-3.37 2.586l-.926 1.37c-.339-.174-.832-.478-1.48-.912-1.422-.998-2.605-2.095-3.549-3.29-1.262-1.675-1.918-3.346-1.969-5.013-.059-1.938.688-3.888 2.242-5.852l.475-.278c.258-.141.754-.421 1.487-.84.693-.416 1.285-.845 1.776-1.285 1.06-.968 1.629-1.475 1.708-1.522.553-.385 1.3-.684 2.242-.898.38-.11.851-.187 1.415-.23 1.126-.087 2.207-.02 3.243.202 1.117.256 1.873.591 2.269 1.003.29.259.575.66.854 1.203.321.619.668 1.418 1.041 2.396z" fill="#103948"/><path d="m434.959 278.222c-.948-.008-1.955.05-3.021.173-2.131.225-3.519.665-4.165 1.32-.671.475-1.123.883-1.354 1.223l.401.271c.428.149 1.054.161 1.877.037.684-.073 1.388-.118 2.114-.134.543-.062 1.2-.344 1.971-.847 1.227-.781 2.734-1.623 4.522-2.527z" fill="#3cadf8"/><path d="m423.396 279.909-1.496-.44c-2.144-.823-4.34-1.072-6.59-.746-4.48.649-6.954 3.871-7.422 9.667l.511 2.851c.469 2.161 1.047 3.889 1.732 5.185 1.138 1.602 1.934 2.546 2.386 2.832l-.154-1.095.755.931c.704.606 1.551.925 2.541.957.087-.459.115-.858.084-1.196l-.101-.346 1.082.753c.984.497 2.072.805 3.266.923-.192-.351-.323-.672-.392-.963l-.07-.291.195.421c.25.26.647.374 1.191.341.686.023 1.565-.279 2.635-.907 1.169-.686 2.172-1.545 3.008-2.577.446-.582.916-1.39 1.409-2.424.797-1.651 1.186-3.102 1.169-4.351l-.52-3.122c-.566-3.356-1.208-5.204-1.924-5.546-.995-.213-2.094-.498-3.295-.857z" fill="#2c84b1"/><path d="m428.242 292.916c.34-1.392.522-2.383.544-2.973-.633.392-1.903 1.439-3.808 3.14-1.551 1.398-2.588 2.132-3.111 2.202-.602.083-1.352-.01-2.248-.281l-1.163-.436 2.384-.228-.385-2.692c-.448-.145-.923-.477-1.423-.997-.96-1.047-1.509-2.509-1.647-4.384-1.173.565-2.674.975-4.502 1.229-.924.138-1.729.216-2.414.233l-1.65 2.465.377 3.421c.58 2.506 1.687 4.386 3.319 5.641.048-.412.049-.715.003-.909l.599.775c.705.627 1.552.936 2.54.927.086-.499.494-.68 1.224-.543 1.42.24 2.442.347 3.067.321-.119-.343-.218-.599-.296-.768l.316.431c.453.306 1.089.308 1.907.006.536-.275 1.411-.698 2.624-1.27 1.073-.548 1.895-1.063 2.465-1.545.457-.907.883-2.162 1.278-3.765z" fill="#f0f2f2"/><path d="m408.46 285.426-.538 1.182c-.14 1.376-.219 2.742-.238 4.098-.058 2.714.156 4.423.641 5.127.309-.457.543-.689.705-.696.08.006.132.048.155.125l1.243 1.088-.553-3.235-.788-2.045-.04-1.294z" fill="#f0f2f2"/><path d="m425.572 292.702c-1.392 1.329-2.386 2.116-2.984 2.36-.715 1.051-1.447 1.833-2.198 2.346.483-.043.834-.093 1.054-.151.101-.017.162.023.186.12.023.097-.005.172-.084.226-.669.58-1.33 1.047-1.985 1.401.385.722 1.157.882 2.315.482.536-.274 1.411-.697 2.624-1.268 1.073-.548 1.895-1.062 2.465-1.544.456-.906.882-2.161 1.277-3.764.341-1.391.522-2.382.545-2.971-.595.364-1.666 1.285-3.215 2.763z" fill="#9facad"/><path d="m421.791 279.882.428-.862c-.612-.218-1.354-.413-2.227-.586-1.726-.37-3.372-.421-4.938-.151-2.027.348-3.664 1.235-4.912 2.661-1.536 1.714-2.44 4.182-2.709 7.404l-.146 1.176c-.113.928-.16 1.714-.14 2.357l-.024.186c.066 1.503.29 2.888.671 4.156l.102.346.39-.097c.1-.018.239-.092.417-.224.091-.065.169-.139.235-.222.61.826 1.319 1.572 2.127 2.24 1.49 1.238 3.016 1.976 4.576 2.213l.182-.001c.12-.021.24-.082.358-.183.07-.07.128-.161.173-.272l.519.153c.572.164 1.811.083 3.715-.244 1.927-.312 4.076-1.317 6.445-3.017l.03-.005c.669-.539 1.238-1.414 1.705-2.626.386-1.257.673-2.094.862-2.511l-.826-.282c-.207.5-.503 1.359-.89 2.577-.352 1.009-.794 1.722-1.327 2.136-2.271 1.602-4.39 2.572-6.357 2.91-1.184.204-2.224.171-3.12-.099-.305-.089-.551-.189-.735-.298l-.185-.09-.031-.025-.03.006-1.208-.914.498 1.46.001.03.04.296c-1.427-.282-2.833-1.071-4.219-2.365-.582-.567-1.03-1.045-1.345-1.435l-.948-1.322-.34.756c-.033.067-.071.125-.116.171-.275-1.085-.431-2.209-.466-3.374l-.005-.15c-.001-.687.047-1.432.144-2.236l.176-1.152-.001-.03c.231-3.029 1.039-5.308 2.424-6.839 1.092-1.238 2.532-2.01 4.318-2.317 1.445-.249 2.99-.201 4.635.142.466.082.964.208 1.494.38l.55.178z" fill="#103948"/><path d="m417.139 287.073c-.748.593-.949 1.284-.602 2.073.325.752.839 1.068 1.542.947.743-.128 1.313-.276 1.711-.446.558-.237.981-.582 1.27-1.036-2.555-1.076-3.862-1.589-3.921-1.538z" fill="#f0f2f2"/><path d="m418.668 309.043c.523.26 1.315.631 2.378 1.114l1.131-2.469c.926-1.634 1.522-3.175 1.788-4.623.539-2.915-.835-3.949-4.123-3.101-1.548 3.185-2.698 5.789-3.449 7.812.61.41 1.368.832 2.275 1.267z" fill="#3cadf8"/><path d="m419.468 309.404 1.635.777 1.521-3.318c1.535-3.258 2.035-5.217 1.499-5.879-.517-.654-1.149.097-1.895 2.253-1.466 3.199-2.386 5.255-2.76 6.167z" fill="#2c84b1"/><path d="m420.719 310.005.714.325.888-2.081c.916-1.993 1.88-4.072 2.893-6.238l-.813-.833c-.948 2.46-1.568 4.077-1.859 4.852-.316.785-.591 1.433-.825 1.944z" fill="#103948"/><path d="m416.114 307.579.624.449.475-1.109c.747-1.582 1.273-2.778 1.579-3.589.75-1.582 1.133-2.755 1.148-3.519l-.782 1.201z" fill="#103948"/><path d="m421.956 302.279c.582.041 1.456.103 2.62.185.124-1.221.23-2.111.316-2.669.381-1.849.475-3.495.282-4.941-.383-2.91-2.015-3.398-4.896-1.463-.518 3.512-.813 6.344-.886 8.496.709.171 1.563.302 2.564.392z" fill="#3cadf8"/><path d="m419.404 296.657.272 1.289c.168-.734.376-1.466.624-2.194.515-1.436 1.01-2.117 1.487-2.043.52.057.946.651 1.277 1.784.26.885.426 1.956.5 3.211.716-3.821 1.186-5.905 1.409-6.253-.503-.196-1.107-.31-1.812-.339-1.433-.041-2.671.417-3.716 1.371-.12 1.02-.134 2.078-.041 3.174z" fill="#2c84b1"/><path d="m422.833 302.34 1.804.128.94-8.703c-.174-.577-.614-.961-1.319-1.152l-1.304 8.194z" fill="#2c84b1"/><path d="m424.221 302.439.781.055.175-2.256c.187-1.922.303-3.335.349-4.239l.095-2.351c-.336 1.649-.694 3.831-1.075 6.546z" fill="#103948"/><path d="m419.066 301.802.738.173.112-1.202c.039-.501-.024-1.504-.19-3.007-.188-1.828-.29-2.843-.306-3.046l-.369 1.577c-.05.42-.026 1.157.072 2.213.077 1.053.09 1.8.038 2.24z" fill="#103948"/><path d="m418.384 294.856c1.552-1.567 2.48-3.576 2.782-6.027.303-2.451-.11-4.63-1.24-6.539-1.129-1.888-2.621-2.953-4.476-3.194-1.895-.221-3.609.452-5.142 2.019-1.532 1.587-2.449 3.606-2.752 6.057-.302 2.451.101 4.62 1.21 6.509 1.109 1.908 2.611 2.973 4.506 3.194 1.856.241 3.559-.432 5.112-2.019z" fill="#17110c" fill-opacity=".501961"/><path d="m422.466 309.383c-1.653-2.11-3.447-3.275-5.383-3.497l-.03.241c-.827.523-1.513 1.095-2.057 1.717-1.009 1.125-1.221 2.13-.636 3.014.705 1.105 2.066 1.627 4.082 1.567 1.956-.059 3.217-.581 3.781-1.566.162-.261.242-.522.243-.783z" fill="#3cadf8"/><path d="m422.405 310.407.122-2.109c-.383-.341-.998-.603-1.845-.784-.222 1.748-.646 3.114-1.271 4.098-.283.422-.212.673.211.753.222.041.474.041.756 0l.968-.602c.524-.281.877-.733 1.059-1.356z" fill="#2c84b1"/><path d="m414.904 310.044.212.241c-.02-.783.414-1.587 1.301-2.41-.686.421-1.139.913-1.361 1.476-.121.281-.172.512-.152.693z" fill="#2c84b1"/><path d="m416.296 311.641c-.147.146-.268.227-.363.241.196-.007.64.114 1.331.362-.182-.402-.303-.904-.363-1.506.02-.704.212-1.296.575-1.778-.081.06-.192.211-.333.452-.161.241-.252.432-.272.572-.061.764-.252 1.316-.575 1.657z" fill="#2c84b1"/><path d="m418.353 311.16.09.09c.101.04.212.04.333 0-.141-.321-.171-.763-.09-1.326l.181-.964c-.443.703-.615 1.436-.514 2.2z" fill="#2c84b1"/><path d="m422.133 311.161c.263-.362.384-.904.364-1.627-.565.924-1.462 1.476-2.692 1.656-1.049.161-1.745.08-2.087-.241-.847.542-1.533.592-2.057.15-.161-.161-.383-.512-.665-1.055-.444.161-.696.04-.756-.362l.03-.663c-.423 1.005-.212 1.849.635 2.532.887.683 2.187.985 3.901.905 1.694-.141 2.803-.572 3.327-1.295z" fill="#e5eaea"/><path d="m414.966 309.984h-.151c-.081.442-.262.693-.545.753.323.201.625.301.908.301-.101-.381-.121-.652-.061-.813z" fill="#ccd3d4"/><path d="m418.261 312.124.847.061c-.242-.161-.373-.362-.393-.603l.061-.332-.424-.09c.142.321.111.643-.091.964z" fill="#ccd3d4"/><path d="m419.382 306.64c-.666-.362-1.361-.603-2.087-.724.04.442.332.794.877 1.055.564.282.968.171 1.21-.331z" fill="#a8e6ff"/><path d="m420.32 308.328c.101-.382.161-.703.182-.964-.625-.563-1.17-.975-1.633-1.236-.262-.161-.444-.271-.545-.332-.181-.08-.352-.1-.514-.06-.746.18-1.442.612-2.087 1.295-.968.944-1.281 1.426-.938 1.446.282 0 .716-.231 1.301-.693.222-.18.443-.321.665-.421-.262.221-.494.442-.695.663-.384.461-.414.743-.091.843.322.121.615.051.877-.211.161-.14.373-.401.635-.783l.484-.512c-.161.281-.313.573-.454.874-.242.582-.242.894 0 .934.343.08.756-.171 1.24-.753.121-.141.242-.382.363-.723l-.151.693c-.061.482 0 .763.181.844.202.06.434-.02.696-.241.222-.201.383-.422.484-.663z" fill="#a8e6ff"/><path d="m416.991 311.31-.514.09c-.222.322-.444.502-.666.543l.877-.06.726.452c-.242-.523-.383-.864-.423-1.025z" fill="#ccd3d4"/><path d="m422.406 309.775c-.807.743-1.664 1.164-2.572 1.265 0 .221-.05.442-.151.663-.202.401-.544.552-1.028.451.443.201.887.282 1.33.242.444-.04.757-.181.938-.422.645-.402 1.029-.653 1.15-.753.302-.281.443-.643.423-1.085z" fill="#ccd3d4"/><path d="m422.557 308.178c-.08-.041-.171-.091-.272-.151-.162 1.286-.242 1.979-.242 2.079-.001.221-.061.422-.182.603l-.061.09c-.121.201-.272.362-.453.482l-.636.301-.181.121-.121.12-.242.181-.182.06-.151.03h-.363l-.181-.03-.121-.06-.03-.031-.121-.09-.031-.03-.09-.06-.121-.061h-.272l-.212.091-.182.18h-.423l-.424-.12v-.03l-.211-.151-.091-.091-.212-.06h-.06l-.061-.03h-.09l-.333.09h-.272l-.272-.12-.061-.061-.06-.09-.091-.301-.151-.211-.061-.061-.151-.09c-.121-.06-.252-.091-.393-.091l-.212-.03-.03-.06c-.04-.06-.06-.141-.06-.241-.021-.081-.01-.221.03-.422.02-.261.111-.512.272-.753.242-.462.616-.924 1.12-1.386l1.573-1.506c.06-.061.212-.161.454-.302.121-.1.181-.17.181-.21-.222-.061-.514-.031-.877.09-.323.1-.484.17-.484.211-.464.261-.938.622-1.422 1.084-.564.482-1.008 1.014-1.331 1.597-.181.381-.303.723-.363 1.024l-.03.573c-.001.241.05.462.151.663l.241.301c.121.1.273.171.454.211l.303.03.211.482.091.121.06.03.151.121c.101.08.303.16.605.241l.152.03h.362l.273-.09.121.12.211.151.091.03c.181.06.393.111.635.151.141.02.333.02.575 0 .201-.06.343-.11.423-.15v-.031l.121.091.121.06.454.121c.222.02.433.02.635 0l.302-.06.273-.121c.201-.1.373-.221.514-.361l.091-.06v-.031l.423-.18.121-.03.121-.091c.262-.14.535-.421.817-.843l.03-.091v-.03c.141-.261.232-.552.273-.874v-.03l-.121-1.657c-.121-.181-.202-.281-.242-.301z" fill="#103948"/><path d="m418.019 311.099c.081-.261 0-.582-.241-.964l-.333.482c-.182.422-.192.904-.031 1.446.363-.441.565-.763.605-.964z" fill="#2c1f0f"/><path d="m416.297 310.496c.121-.281.08-.612-.121-.994l-.363.452c-.242.401-.313.874-.212 1.416.403-.402.635-.693.696-.874z" fill="#2c1f0f"/><path d="m414.754 309.532c.121-.261.111-.593-.03-.995l-.424.392c-.282.362-.403.824-.363 1.386.443-.341.716-.602.817-.783z" fill="#2c1f0f"/><path d="m419.894 311.04c.101-.262.061-.593-.121-.995-.141.101-.262.251-.363.452-.242.402-.312.874-.212 1.416.383-.381.615-.673.696-.873z" fill="#2c1f0f"/><path d="m419.199 311.733c.384-.764.525-1.276.424-1.537l-.242.452c-.161.381-.222.743-.182 1.085z" fill="#543e26"/><path d="m417.414 311.822c.343-.783.424-1.305.243-1.566l-.182.482c-.121.401-.141.763-.061 1.084z" fill="#543e26"/><path d="m415.631 311.159c.383-.743.524-1.255.424-1.536l-.242.451c-.162.382-.222.744-.182 1.085z" fill="#543e26"/><path d="m413.967 310.134c.505-.683.706-1.175.606-1.476-.404.422-.605.914-.606 1.476z" fill="#543e26"/><path d="m441.013 288.788c.186.022.302.064.346.128 1.888 3.781 2.701 5.799 2.437 6.054l.025-.017c.049-.034.221-.104.516-.209.288-.149.439-.302.453-.458.009-.128-.302-.842-.934-2.142-.174-.32-.33-.652-.471-.995l-.445-1.013c-.765-1.526-1.214-2.315-1.35-2.369l-.571-.083c-.129-.009-.299.011-.511.058l-.134.019c-.418.068-.893.285-1.423.65-.531.365-.935.753-1.213 1.164-.23.304-.092 1.138.413 2.501.252.681.526 1.323.821 1.926.198.426.377.913.537 1.462l.071.208.507-.275c-.237-.766-.474-1.567-.713-2.405-.46-1.686-.628-2.67-.504-2.95.081-.202.251-.38.511-.535.149-.103.376-.234.681-.395.224-.132.541-.24.951-.324z" fill="#103948"/><path d="m440.615 286.125c-.081-2.007-.397-3.578-.949-4.713-.533 1.114-1.314 2.267-2.344 3.461l-1.062 1.567c-.898 1.25-1.874 2.211-2.927 2.884-.015.915.109 1.681.373 2.3.128.29.451.831.967 1.622 1.075 1.344 2.15 2.192 3.227 2.545.478-.076.832-.152 1.065-.228.654-.24 1.205-.745 1.651-1.516.392-.722.633-1.44.721-2.153-.251-.038-.457-.054-.619-.047-.001-2.641-.035-4.549-.103-5.722z" fill="#3cadf8"/><path d="m433.61 291.437c.221.858.429 1.388.625 1.59.155-.802.375-1.711.659-2.727.605-2.058 1.265-3.649 1.98-4.773-1.001 1.247-1.623 2.007-1.864 2.278-.54.572-1.111 1.012-1.713 1.322.005.66.109 1.429.313 2.31z" fill="#2c84b1"/><path d="m440.353 283.194c-.215-.82-.444-1.415-.687-1.784-.11.329-.727 1.301-1.852 2.917.586.47 1.049 1.377 1.389 2.72.356 1.439.495 3.116.418 5.031-.55 1.641-1.537 2.342-2.963 2.104-.715-.139-1.375-.432-1.978-.879.903 1.04 2.135 1.844 3.695 2.411l.587-.152c.655-.24 1.205-.746 1.651-1.516.379-.682.628-1.411.747-2.187-.311-.028-.524-1.033-.642-3.014.18-2.165.058-4.048-.365-5.651z" fill="#2c84b1"/><path d="m433.248 291.113c-.014.293.029.617.127.97.056.224.325.812.806 1.765l.039.052c.489.622 1.114 1.143 1.876 1.566l.957.43c.941-.111 1.576-.222 1.905-.333l.17-.085.016-.09-.39-.142c-.752-.23-1.42-.512-2.004-.846-.287-.129-.59-.304-.912-.525-.292-.167-.561-.376-.806-.629l.039.052c-.603-.7-.976-1.175-1.118-1.424l-.377-.814c-.003-.019-.082-.317-.237-.894-.081.382-.111.697-.091.947z" fill="#103948"/><path d="m433.3 289.129c.209.025.467-.017.776-.124.598-.212 1.119-.654 1.56-1.327.542-1.194 1.122-2.083 1.741-2.667.322-.285.58-.452.776-.503.066-.224.571-1.198 1.516-2.922-1.685.56-3.25 1.984-4.695 4.274-.732 1.147-1.29 2.236-1.674 3.269z" fill="#2c84b1"/><path d="m439.321 281.496c.523 1.722.849 3.426.979 5.114.078.861.097 1.731.056 2.611-.015.411.11 1.06.376 1.949.24.855.411 1.284.513 1.287.095-.423.141-.77.137-1.041l.044-2.191c.039-.763.006-1.661-.1-2.692-.042-.77-.168-1.672-.376-2.706l-.759-2.616z" fill="#103948"/><path d="m443.603 292.481c-2.653-.306-4.74.146-6.263 1.358l.15.191c-.225.966-.309 1.862-.25 2.685.104 1.492.669 2.35 1.696 2.574 1.27.267 2.594-.333 3.974-1.799 1.351-1.438 1.882-2.697 1.594-3.776-.072-.298-.208-.546-.408-.744z" fill="#3cadf8"/><path d="m444.311 293.267-1.416-1.573c-.513.03-1.133.28-1.859.75 1.087 1.39 1.754 2.645 1.999 3.767.101.525.336.66.706.403.185-.128.356-.313.512-.555l.276-1.088c.169-.568.097-1.136-.218-1.704z" fill="#2c84b1"/><path d="m438.763 298.31.32.02c-.571-.538-.837-1.411-.797-2.619-.184.782-.154 1.45.09 2.003.115.284.244.482.387.596z" fill="#707676"/><path d="m440.88 298.453c0 .207-.028.349-.085.427.134-.144.532-.372 1.196-.685-.414-.155-.856-.424-1.328-.806-.486-.511-.779-1.071-.881-1.681-.014.127.023.319.109.575.057.255.122.447.194.574.514.596.779 1.128.795 1.596z" fill="#707676"/><path d="m441.987 296.661h.128c.1-.043.171-.129.214-.257-.329-.127-.657-.41-.986-.849-.315-.454-.508-.731-.58-.83.188.809.596 1.455 1.224 1.936z" fill="#707676"/><path d="m444.632 293.97c-.072-.44-.366-.901-.88-1.383.245 1.036.005 2.06-.72 3.07-.625.854-1.173 1.288-1.643 1.304-.226.966-.681 1.479-1.365 1.537-.228.029-.627-.055-1.198-.253-.199.427-.469.513-.812.258l-.451-.489c.416 1.008 1.166 1.453 2.249 1.337 1.126-.131 2.265-.829 3.417-2.097 1.08-1.281 1.548-2.376 1.403-3.284z" fill="#e4eaea"/><path d="m438.762 298.224-.106.107c.243.355.293.66.151.916.357-.1.642-.243.855-.428-.343-.198-.55-.375-.622-.531z" fill="#cbd3d4"/><path d="m442.609 297.405.64-.555c-.299.043-.542-.013-.727-.169l-.194-.277-.341.257c.328.127.535.375.622.744z" fill="#cbd3d4"/><path d="m439.455 292.747c-.783.243-1.431.564-1.943.963.357.298.813.339 1.369.125.584-.215.775-.577.574-1.088z" fill="#979fa1"/><path d="m441.317 293.275c-.115-.284-.294-.546-.536-.787-.827.03-1.504.11-2.032.239-.299.072-.498.129-.598.172-.185.072-.32.179-.406.321-.411.668-.602 1.457-.571 2.366.003 1.364.126 1.925.368 1.683.213-.186.362-.648.445-1.386.014-.27.07-.526.169-.768-.027.341-.034.661-.019.959.059.596.238.816.537.659s.448-.42.447-.789c-.001-.199-.037-.533-.109-1.001l-.024-.704c.087.313.187.625.302.937.258.596.487.823.686.68.299-.185.412-.654.339-1.407-.029-.199-.115-.454-.259-.766l.387.596c.3.382.536.531.707.445.199-.086.305-.292.319-.618.013-.327-.037-.604-.152-.831z" fill="#a8e6ff"/><path d="m441.135 297.728-.299.427c.058.369.031.654-.083.853l.576-.662.833-.194c-.542-.197-.884-.339-1.027-.424z" fill="#cbd3d4"/><path d="m443.859 292.821c-.04 1.094-.344 1.997-.913 2.708.158.156.272.341.344.554.143.425.016.781-.382 1.066.455-.172.818-.435 1.088-.791.285-.342.405-.662.361-.96.184-.696.276-1.144.275-1.343.013-.412-.137-.759-.452-1.043z" fill="#cbd3d4"/><path d="m444.953 293.564-.022-.021c-.086-.284-.229-.554-.43-.809l-.042-.042-1.243-1.063c-.214-.042-.45-.034-.706.024.858 1.077 1.301 1.63 1.33 1.658.157.156.257.34.301.553l.021.107c.058.255.066.476.023.66l-.063.192-.085.171c-.057.171-.085.27-.085.298-.029.029-.043.1-.043.214l-.021.149c.015.099.001.199-.042.298-.028.086-.056.142-.085.171l-.063.149-.256.257-.171.085-.043.043-.064.021-.257.001-.085.043-.128.043-.022.021-.064.022-.021.021-.021.064-.086.085-.063.192v.213l-.021.022-.021.064-.555.427-.107.022-.278.022-.129.043-.17.085-.065.022-.106.107c-.1.156-.164.249-.192.277-.028.057-.092.121-.192.192-.043.043-.128.086-.256.129l-.064.021-.022-.021-.107-.021-.278-.149-.257-.041-.257.043c-.128.043-.242.114-.341.214l-.171.128-.064-.021c-.043-.014-.129-.057-.257-.127l-.236-.319c-.157-.185-.279-.433-.366-.745-.158-.554-.216-1.136-.175-1.747l.037-2.173c0-.086.035-.263.106-.533.014-.157.007-.249-.022-.277-.214.1-.406.32-.576.662-.156.298-.22.462-.191.49-.127.64-.204 1.229-.231 1.769-.012.782.061 1.477.219 2.088.144.397.301.723.473.979.143.198.272.34.386.425.1.128.293.248.578.361l.385.041c.143 0 .3-.057.47-.171l.214-.214.15.064c.157.07.271.113.342.127l.15.021.257-.001.619-.279.107-.106.064-.022.128-.128.213-.341.171-.001.342-.086c.157-.071.335-.178.534-.321l.426-.427c.086-.142.142-.27.171-.384v-.043l.448-.15.235-.15c.171-.142.32-.292.448-.448l.277-.533c.085-.228.113-.441.084-.64v-.085l.021-.021.255-.683c.07-.355.055-.739-.046-1.15z" fill="#103948"/><path d="m441.71 296.854c-.144-.256-.429-.426-.857-.51l.108.575c.172.426.508.773 1.008 1.042-.058-.568-.145-.937-.259-1.107z" fill="#2d1f10"/><path d="m440.044 297.625c-.115-.256-.379-.461-.793-.616l.066.575c.115.454.408.844.879 1.169-.015-.553-.066-.93-.152-1.128z" fill="#2d1f10"/><path d="m438.25 298.055c-.072-.27-.308-.503-.708-.701l-.02.575c.073.469.316.894.731 1.277.084-.569.083-.952-.003-1.151z" fill="#2d1f10"/><path d="m442.99 295.487c-.115-.256-.379-.461-.793-.616-.042.156-.035.348.023.575.115.454.415.837.901 1.148-.016-.554-.059-.923-.131-1.107z" fill="#2d1f10"/><path d="m442.993 296.467c-.288-.823-.56-1.292-.817-1.405l.173.511c.157.384.372.681.644.894z" fill="#563e28"/><path d="m441.798 297.791c-.358-.809-.673-1.234-.944-1.276l.215.468c.201.369.444.638.729.808z" fill="#563e28"/><path d="m440.068 298.583c-.259-.794-.524-1.255-.795-1.383l.151.49c.158.383.372.681.644.893z" fill="#563e28"/><path d="m438.143 299.014c-.144-.823-.345-1.306-.602-1.447.016.582.216 1.065.602 1.447z" fill="#563e28"/><path d="m421.873 283.914c.601-.789 1.075-1.463 1.421-2.02-2.49-3.555-4.554-6.364-6.191-8.427-1.07-1.343-2.412-2.322-4.024-2.938-.777-.31-2.088-.627-3.934-.952-1.156-.213-2.354-.103-3.591.331-1.178.411-2.517 1.16-4.017 2.248-1.204.875-2.489 2.406-3.854 4.594-.693 1.095-1.258 2.094-1.694 2.997l1.479 1.838c.672.876 1.258 2.189 1.755 3.938.547 2.027.916 3.218 1.108 3.572.64-.187 1.384-.279 2.232-.274.484 0 1.23-.001 2.239-.003.786-.033 2.473.038 5.061.211 2.123.153 3.797.113 5.02-.119 1.564-.327 2.594-.621 3.091-.883 1.356-1.182 2.655-2.554 3.899-4.113z" fill="#2c84b1"/><path d="m414.434 271.227c-1.002-.441-2.093-.817-3.273-1.13-2.095-.536-3.721-.578-4.877-.128-.719.252-1.476.565-2.272.94-1.61.771-2.618 1.477-3.022 2.117-.5.806-.807 1.643-.922 2.513l1.474-1.299c-.148.449-.346 1.221-.595 2.318.78-.214 1.556-.558 2.329-1.033.772-.495 1.62-1.134 2.544-1.916l-1.441 2.353c2.171-.272 3.554-.581 4.148-.928.595-.347 1.216-.825 1.863-1.436-.388 1.163-.554 1.683-.497 1.56.093-.266.793-.808 2.099-1.627 1.505-.947 2.665-1.267 3.482-.96.052-.283-.037-.551-.267-.803-.189-.233-.446-.414-.773-.541z" fill="#3cadf8"/><path d="m400.552 282.544.267-1.157c-.39-.205-.828-.347-1.315-.428-.993-.159-1.763.064-2.309.67 1.214.773 1.555 1.724 1.025 2.852-.158.343-.361.653-.607.93z" fill="#f0f2f2"/><path d="m406.851 281.675-4.284-2.506-2.174 1.146-.863 2.449c-.894 1.767-2.137 3.015-3.729 3.745-.112.287-.13.7-.053 1.239.049.28.12.619.213 1.017 1.451-.061 3.27-.298 5.456-.711 1.732-.112 3.251.408 4.558 1.56.021.019.371-.076 1.051-.286.679-.209 1.03-.294 1.051-.255 1.172-.591 3.073-1.445 5.703-2.56 1.533-.647 2.266-1.1 2.198-1.359l-4.14-.762c-2.82-.506-4.448-.96-4.885-1.364-.124-.116-.173-.375-.145-.779z" fill="#2c84b1"/><path d="m400.54 283.176-.979.644-.935 1.095c-.398.178-.796.365-1.194.563-.814.416-1.24.665-1.278.747l.874.868 1.832.527 1.397-.813c1.146-.792 1.788-1.271 1.924-1.437.157-.148.434-.964.833-2.448l-1.795.678-1.673 1.729z" fill="#3cadf8"/><path d="m406.635 282.498c.128.216.504.311 1.129.285 1.454.06 3.175-.083 5.162-.427-.325-.731-.77-1.416-1.334-2.056l-.749-.753c-.53-.159-1.229-.25-2.097-.274-.706.009-1.235-.119-1.586-.386l-2.502 4.297c.699.413 1.358.185 1.977-.686z" fill="#236d8a"/><path d="m399.747 281.945.801-1.511c-.098.104.144-.579.724-2.051l-.723.121c-.54-.5-1.117-.898-1.731-1.194l-.795-.268-.154 1.876c.142 1.361.768 2.37 1.878 3.027z" fill="#236d8a"/><path d="m407.137 285.098c-.365-.086-.704-.283-1.016-.591-.125-.116-.203-.022-.234.281l-1.634.008c-2.019 1.935-3.411 2.938-4.176 3.01-.785.053-2.096-.254-3.933-.922-.645 1.335-.541 2.427.313 3.276.582.579 1.453.995 2.611 1.249.243.05.621.185 1.132.405.53.159 1.036.228 1.52.208 1.43-.08 3.298-1.023 5.604-2.829.512-.403 1.829-.539 3.952-.406 2.245.167 3.587.151 4.024-.048 1.036-.445 2.029-.96 2.98-1.542l-.967.04c1.304-.164 2.208-.624 2.712-1.38-1.169.048-3.007-.649-5.513-2.093-.143-.075-.494.01-1.051.255-.777.334-1.741.475-2.893.422.203.032.732.191 1.588.477z" fill="#f0f2f2"/><path d="m423.867 281.844-.128-.206c-2.49-3.556-4.554-6.375-6.192-8.459-1.153-1.42-2.556-2.447-4.21-3.082-.735-.271-2.076-.597-4.025-.979-.426-.083-.941-.112-1.546-.086-1.874.078-4.014.991-6.422 2.74-1.242.936-2.566 2.51-3.97 4.72-.692 1.114-1.256 2.133-1.692 3.056l-.143.247 2.39 2.947c.255.402.385.719.393.949l-.053.274c-.055.163-.17.349-.346.557l-.609.84-1.6 1.122-.026.122c-.095.205-.138.448-.129.729.005.176.054.456.147.838l.001.03-.024.213c.018.582.144 1.089.38 1.522.3.591.758 1.044 1.373 1.361.431.223.961.402 1.59.537.204.052.549.148 1.038.288.467.101.912.143 1.335.126 1.451-.061 3.281-.911 5.49-2.551.256-.212.726-.332 1.411-.36.424-.018 1.06.016 1.91.101l1.578.146.029-.032c.614.055 1.108.075 1.485.059.363-.015.945-.1 1.748-.254l1.592-.367c.74-.212 1.279-.395 1.617-.55l-.001-.03.031-.002c1.624-.972 3.025-2.317 4.203-4.035.579-.869 1.009-1.641 1.291-2.316zm-1.026.103c-.194.497-.586 1.177-1.178 2.04-1.093 1.562-2.357 2.77-3.792 3.626-.239.111-.718.282-1.437.513l-1.563.336c-.803.154-1.335.237-1.597.247l-1.423-.031-.031-.029-.029.032-.031.001c-.221.009-.707-.041-1.457-.151-.85-.085-1.527-.117-2.03-.096-.827.034-1.467.212-1.921.532-2.031 1.532-3.691 2.325-4.98 2.379-.343.014-.707-.021-1.093-.105-.448-.123-.794-.219-1.038-.289-.771-.149-1.363-.386-1.777-.71-.249-.211-.447-.444-.596-.699-.172-.315-.264-.703-.278-1.165l-.009-.271.03-.032-.033-.059-.112-.719.02-.302 1.541-1.06.03-.031-.001-.03.784-1.058.287-.525c.073-.244.107-.457.101-.638-.012-.401-.199-.886-.559-1.454l-.001-.03-2.074-2.508c.767-1.404 1.419-2.507 1.956-3.309 1.175-1.798 2.285-3.081 3.331-3.848 2.249-1.642 4.22-2.498 5.913-2.569.504-.021.948.001 1.333.066 1.807.347 3.098.665 3.873.954 1.49.542 2.769 1.474 3.839 2.797.714.915 2.04 2.7 3.978 5.354z" fill="#103948"/><path d="m406.97 282.574c.878.345 1.877.344 2.996-.005 1.02-.304 1.516-.596 1.487-.876-.075-.48-.459-.836-1.153-1.068-.836-.287-1.622.058-2.359 1.034-.407.54-.731.845-.971.915z" fill="#fff"/><path d="m410.657 280.429c-.387-.145-.752-.18-1.092-.105-.262.031-.571.155-.927.371-.218.129-.435.309-.65.539l-1.143 1.194-.175.219.672.213c.387.105.802.158 1.246.159.584-.024 1.156-.129 1.715-.313.341-.075.65-.198.927-.371l.238-.13.148-.127.144-.247-.003-.091.03-.001-.004-.12-.031-.029-.035-.18-.161-.295c-.211-.313-.511-.541-.899-.686zm-1.013.495c.302-.013.555.027.76.119.244.07.441.233.59.488.034.047.056.097.065.148l.001.03-.148.127c-.196.169-.454.311-.774.424-.238.111-.508.193-.809.245-.18.048-.432.079-.754.092-.302.013-.514.012-.636-.003-.08.003-.243-.02-.486-.07l-.122-.025 1.002-.887.592-.417c.258-.151.497-.242.719-.271z" fill="#103948"/><path d="m400.323 281.016.163-.61c.075-.867.049-1.409-.079-1.625-.55-.177-.982-.108-1.295.206-.157.148-.263.313-.318.496l.134.417c.232.352.697.724 1.395 1.116z" fill="#fff"/><path d="m400.524 278.656-.001-.03-.123-.055c-.165-.114-.359-.186-.582-.217-.243-.03-.463.019-.661.148-.218.11-.385.268-.5.474l-.143.277-.055.183.008.241c.066.178.182.364.35.558l.463.313c.206.132.533.289.983.471l-.779-.721-.314-.379c-.107-.197-.161-.315-.162-.355l.03-.001.028-.092.116-.156.266-.222.36-.075.393-.017c.022.049.044.118.067.208l.158 1.2.156-.821.018-.423c-.008-.241-.033-.41-.076-.509z" fill="#103948"/><path d="m399.017 287.853-.037-.239-2.627-.794c-.317.194-.431.42-.343.678.044.119.118.226.222.322.245.111.412.305.502.582.068.259.174.415.316.47.185.092.356.095.515.008.08-.044.217-.17.412-.379.098-.125.237-.181.419-.169.223.031.384.004.482-.081.078-.083.124-.216.139-.398z" fill="#101111"/><path d="m403.605 289.409c.179-.108-.122-.025-.9.249-.779.274-1.397.511-1.855.711l-.866.398-.029.032-.091.004-2.642-.282c.349.163.655.281.919.354l1.312.337.395.044.272-.011-.001-.031.21-.069c.18-.047.429-.148.747-.303.637-.288 1.48-.766 2.529-1.433z" fill="#101111"/><path d="m412.776 272.975c-.507 3.117.228 5.036 2.206 5.758 1.106.395 2.835.584 5.184.566 1.067.177 1.195-1.457.385-4.901-.393-1.712-.891-3.44-1.492-5.184z" fill="#2c84b1"/><path d="m415.563 273.071c1.489-1.289 2.382-2.402 2.678-3.339l-5.383 3.361c-.229.191-.631.771-1.205 1.74s-.74 1.338-.499 1.106c.959-.864 1.797-1.663 2.516-2.397l-.271 1.187c.689-.451 1.41-1.004 2.164-1.658z" fill="#3cadf8"/><path d="m413.587 276.922 3.642.45 2.095-.691.175.626c.168.476.332.82.493 1.035.325.449.289-.806-.108-3.765-.392-2.818-.834-4.076-1.327-3.774-1.421.884-2.677 2.173-3.768 3.867-.535.847-.936 1.597-1.202 2.252z" fill="#f0f2f2"/><path d="m420.337 270.548-.337-.68c-.07-.158-.214-.393-.433-.705l-.217-.353-.422.018c-1.992.204-3.806 1.265-5.445 3.183-.452.521-.806 1.029-1.061 1.522 2.237-1.863 4.331-3.116 6.282-3.761l.03-.001.129.205.296.621.861 2.557c.137.417.246.844.326 1.283l.463 2.544.054.631c.026.139.032.34.019.602l-.007.633-.102.608.3-.525c.114-.267.18-.46.198-.582l.199-1.244c.052-.384.066-.807.043-1.268l-.114-1.292c-.036-.421-.116-.86-.239-1.317-.077-.419-.187-.857-.331-1.313-.19-.595-.354-1.05-.492-1.366z" fill="#103948"/></g><circle cx="9.58067" cy="509.581" fill="#f2be19" r="9.58067"/></svg>