<svg fill="none" height="228" viewBox="0 0 154 228" width="154" xmlns="http://www.w3.org/2000/svg" xmlns:xlink="http://www.w3.org/1999/xlink"><clipPath id="a"><path d="m21.1621 157.591h41.9932v70.0154h-41.9932z"/></clipPath><path d="m2 0v194h123" stroke="#f2be19" stroke-dasharray="5.75 5.75" stroke-linejoin="round" stroke-width="2.8742"/><circle cx="143.794" cy="194.955" fill="#f2be19" r="9.58067"/><g clip-path="url(#a)"><path d="m47.7622 195.147-1.7974 18.406c4.0019-.125 7.7348.284 11.1989 1.225-2.2549-8.796-5.3887-15.34-9.4015-19.631z" fill="#0e330e"/><path d="m53.4575 198.57.0782.275c-.0239.441-.1323 1.313-.3251 2.618-.1685 1.169-.2483 2.07-.2395 2.702-1.6414 2.147-2.7588 2.564-3.3521 1.252-.1763-.348-.0458-1.638.3914-3.871.4258-2.205.7907-3.575 1.0948-4.107 1.1194-1.287 1.8483-1.488 2.1867-.605.1635.455.2187 1.034.1656 1.736z" fill="#756f6c"/><path d="m52.2418 196.514.6833.214c-.4062 1.199-.7112 2.368-.915 3.506-.394 2.284-.0673 3.291.98 3.021-.5975 1.425-1.3822 2.239-2.3539 2.444-.7614.164-1.2599.027-1.4954-.41-.2014-.326-.0535-1.504.4438-3.535.4686-1.962.9533-3.482 1.4541-4.561.2788-.511.6799-.737 1.2031-.679z" fill="#494644"/><path d="m50.8646 196.975c.3226-.155.6668-.284 1.0327-.388l.4527-.1c-.9432 2.632-1.4423 4.686-1.4972 6.161.0313.771.2336 1.21.607 1.318.4339.118.983-.385 1.6473-1.508-.0244.634-.0797 1.304-.1659 2.009-.9153 1.452-1.8599 2.014-2.8338 1.686-.4909-.173-.8844-.483-1.1804-.93.7392-4.297 1.3851-7.046 1.9376-8.248z" fill="#3a3736"/><path d="m52.3488 195.858c.3739-.085.6971-.03.9698.165.243.15.4098.405.5003.766.171.667.2266 1.552.1668 2.655-.0482.576-.1422 1.414-.2819 2.515-.1102 1.146-.2499 1.998-.4192 2.555-.1635.543-.3845.974-.663 1.292-.3517.417-.7923.699-1.3217.847-.5546.17-1.0904.123-1.6074-.142-.2329-.098-.4582-.233-.676-.405l-.2857-.24c-.1595-.196-.2501-.307-.2717-.332l-.1657-.239.8561-3.941c.1733-.797.3746-1.623.6041-2.477l.3885-1.215c.1865-.598.4846-1.02.8943-1.267.0504-.044.163-.101.338-.173l.3003-.14c.3111-.127.5358-.202.6741-.224zm.5885 1.189c-.0304-.158-.0799-.251-.1484-.28-.0548-.023-.1348-.024-.24-.004l-.4958.203c-.2218.068-.3831.145-.4839.232-.198.126-.354.383-.468.77l-.3302 1.191c-.1963.851-.3656 1.658-.508 2.42l-.3163 1.849c-.1026.568-.1804 1.099-.2335 1.593.1128.155.2816.29.5064.406.2704.162.5399.21.8086.146.6116-.114 1.0577-.563 1.3384-1.348.1543-.483.3013-1.275.441-2.376.1526-1.208.2477-2.03.2853-2.466.0902-.944.0384-1.723-.1556-2.336z" fill="#1d2226"/><path d="m50.1715 194.365c1.4013-1.152 2.7686-1.666 4.1017-1.542.6832.061 1.1644.239 1.4436.533.2302.258.4153.738.5554 1.442.0225.138-.2747.424-.8916.858-.6364.442-.9502.729-.9413.861-.0071.094-.0096.407-.0074.94.0331.497.1362.846.3094 1.048.1516.176.4478.276.8889.3.3552.036.5282.085.5189.145-.03.149-.0588.467-.0862.955-.0199.201-.0878.382-.2036.543-1.0703.823-2.6635.743-4.7796-.242-2.0534-.941-3.0869-1.915-3.1005-2.919.2444-.928.9752-1.902 2.1923-2.922z" fill="#9cbbc0"/><path d="m49.0356 195.459c.6161-1.046 1.1435-1.574 1.5823-1.583.2045 1.471.821 2.382 1.8497 2.733l1.4549.103.1604.309c-.2183.021-.4189.057-.6018.109l-.1114-.022c-.4627-.049-.7419.156-.8379.615-.088.479.0764.797.4931.956.2169.059.382.088.4951.087l.1697-.002c.4101.06.7448.087 1.0042.083-.3125.208-.5478.423-.706.647-.2546.376-.3531.745-.2957 1.108-1.9744-.055-3.4732-.668-4.4965-1.838-.5117-.585-.8234-1.167-.9351-1.745.2183-.521.4767-1.041.775-1.56z" fill="#7b989b"/><path d="m48.4886 195.785c.4937-.985.9628-1.489 1.4074-1.512-.3158 2.558.9187 4.05 3.7035 4.477-.5427.449-.7458 1.049-.6093 1.799-1.8635-.089-3.2733-.665-4.2294-1.726-.4684-.535-.7562-1.058-.8636-1.57.1543-.483.3514-.973.5914-1.468z" fill="#61797a"/><path d="m47.4936 198.098c-.1365-.25-.2147-.525-.2345-.823l-.0067-.099.0345-.083c.1141-.387.3498-.795.7074-1.225.2532-.297.5464-.592.8796-.888.6744-.57 1.3457-1.038 2.0139-1.402.81-.433 1.5546-.749 2.2338-.948.5374-.129.9415-.209 1.2124-.24l.3274-.032c.0994-.006.2439.014.4335.061.1975.067.4034.21.6177.428.2656.289.4743.675.6263 1.157l.1424.64-.0026.409c-.0208.088-.092.22-.2135.394-.2108.234-.5188.507-.9241.821l-.3865.345-.11.147c-.0035.047-.0002.097.0099.149.0455.583.0863.947.1225 1.091l.0716.175c.0078-.007.0175-.011.0292-.012l.3069-.041c.1189-.014.2622-.011.4302.012.2558.042.448.179.5766.411l.0835.204.0424.187c.0477.116.072.231.0729.344.022.332.0152.579-.0206.741l-.1141.387-.1962.352-.055.074-.0756.065c-.3412.276-.7838.428-1.3277.458-.312.014-.7451.01-1.2992-.014-.7711-.081-1.583-.277-2.4358-.586-.757-.27-1.4856-.664-2.186-1.183-.3844-.274-.7065-.562-.9663-.864-.1971-.26-.3371-.464-.4202-.612zm6.9517-4.936-1.06.28c-.6747.264-1.3383.598-1.9905 1.001-.6386.409-1.2173.867-1.7361 1.374-.3735.391-.6152.66-.7253.807-.2099.302-.3368.547-.3805.735.0239.146.1229.332.2969.559.2028.246.4525.496.7489.749.5281.431 1.1533.822 1.8757 1.174.7853.393 1.4892.616 2.1118.668.3827.048.7335.018 1.0526-.09.2276-.082.4684-.214.7225-.398.11-.147.1688-.364.1764-.651l-.0318-.327-.0703-.005-.2777.028c-.1737-.008-.3279-.025-.4627-.049-.178-.075-.2949-.18-.3506-.316l-.0391-.137-.0238-.059-.0729-.344c-.0384-.178-.0528-.393-.043-.647l.012-.719-.0153-.079.0087-.021.0484-.173c.0632-.151.1383-.272.2254-.364.0309-.036.1849-.173.462-.411.529-.454.8089-.699.8399-.735l.0636-.094-.0033-.05-.1338-.66c-.118-.371-.2801-.657-.4865-.856-.1413-.124-.2492-.193-.3234-.208l-.1611-.02z" fill="#1d2226"/><path d="m55.2528 198.381c.2412-.076.3997-.147.4752-.212l.3466 1.305-1.4138-.085c-.578-.082-1.0058-.156-1.2833-.224l-2.5558-.589.5993-1.199c.3261.298.6535.516.9823.654.3857.194.7602.319 1.1234.375.3792.094.7636.119 1.1534.073z" fill="#1d2226"/><path d="m54.4216 199.555c.0296.044.3621.039.9976-.017.064.462-.2513.676-.946.642-.3804-.014-.547-.116-.4997-.306s.1967-.296.4481-.319z" fill="#b4d8db"/><path d="m55.7876 194.57.6536.516c-.4035.539-.9465 1.085-1.6288 1.636-.6319.508-1.29.925-1.974 1.25-1.4495.729-2.9752 1.064-4.577 1.004l.0803-1.344c1.3743.142 2.7214-.074 4.0414-.648.6028-.247 1.2126-.587 1.8295-1.021.5666-.39 1.0916-.855 1.575-1.393z" fill="#1d2226"/><path d="m53.5022 193.684c.5572-.33.994-.469 1.3104-.417.1688.135.3193.295.4514.479.2779.374.3406.667.1881.876-.1949.273-.7974.423-1.8076.45-1.0159.041-1.4343-.094-1.2553-.405.171-.331.542-.659 1.113-.983z" fill="#b4d8db"/><path d="m53.2393 198.285.8214-.863.104.961z" fill="#b4d8db"/><path d="m54.2686 204.159c-.365-1.344-.5395-2.34-.5236-2.987-.174-.066-.3661-.1-.5762-.101-1.061.026-2.0493.2-2.9648.521-1.1597.399-2.024.983-2.5931 1.751l.0312.064c.1561.698.2654 1.71.3279 3.036.058 1.401.1452 2.417.2618 3.045.0243.177.0014.338-.0687.482l.1468.25c.4626.746 1.7732 1.008 3.932.786 2.0831-.227 3.45-.7 4.1008-1.419-.414-.393-.837-1.07-1.2691-2.03-.1764-.411-.3364-.973-.4798-1.688-.2128-1.111-.3212-1.681-.3252-1.71z" fill="#9cbbc0"/><path d="m55.5281 211.026c-.0562-.517-.4702-.693-1.2421-.526-1.0332.337-1.8378.537-2.4138.602-1.1199.034-1.8859.079-2.298.136-.6642.076-.9662.388-.906.934.0825.709.5012 1.408 1.256 2.099.8239.757 1.6342 1.087 2.4309.993.8114-.097 1.5728-.666 2.284-1.709.6752-.978.9715-1.821.889-2.529z" fill="#ffcdab"/><path d="m47.3793 206.727c.4837 1.553.8758 2.713 1.1765 3.482 1.2446.653 2.4941.961 3.7485.923l-.0061-.044c.1242-1.277.7192-2.183 1.785-2.72.1832-.085.4727-.215.8686-.389.3222-.165.4946-.383.517-.656l.0322-.747c-1.1403.322-2.1966.437-3.1688.346-1.5665-.159-2.691-.866-3.3736-2.122-.7837.408-1.3101 1.05-1.5793 1.927z" fill="#7b989b"/><path d="m47.7024 205.647c.1273.163.181.335.1612.518-.0033.63.1305 1.384.4012 2.262.1592.503.4348 1.252.8267 2.248.6307.333 1.3228.567 2.0763.704.1864-.716.7801-1.36 1.7809-1.933.6111-.354 1.5185-.733 2.7222-1.139l-.47-1.127c-1.2835.371-2.4828.536-3.5982.495-1.8714-.087-3.1662-.779-3.8843-2.075z" fill="#61797a"/><path d="m50.3794 213.489c.2986 1.189 1.3311 1.609 3.0976 1.261.4542-.078 1.4643-.419 3.0305-1.025.8673-.344 1.0147-1.234.4422-2.67l-1.0954-2.076c-.1584.157-.3211.337-.4881.54-.3487.408-.5647.745-.648 1.011-.2213 1.77-1.0102 2.793-2.3666 3.07-.6709.137-1.3283.1-1.9722-.111z" fill="#eab28c"/><path d="m52.8274 211.667c-.3122.238-.3873.564-.2256.976.1678.457.5245.76 1.0699.91.5455.15 1.1476.112 1.8063-.114.6166-.204 1.027-.546 1.2311-1.024.1808-.429.1842-.895.0103-1.396-.145-.4-.4225-.564-.8326-.492-.0147.002-.5377.179-1.5689.53-.7891.259-1.286.462-1.4905.61z" fill="#ffcdab"/><path d="m56.6762 208.416-.003-.022c-.0243-.152-.1065-.313-.2465-.483-.073-.095-.1996-.198-.3797-.308l-.0472-.016-.0251-.019-.0926-.999c-.2126-1.13-.621-2.408-1.2251-3.835.1646-.439.2203-.851.1671-1.238-.0532-.278-.1696-.524-.3492-.739-.1567-.159-.3703-.294-.6408-.407-.3313-.119-.7438-.175-1.2376-.167l-1.0877.105c-.818.157-1.6211.478-2.4093.961-.605.398-1.2042.893-1.7976 1.485-.2345.257-.3914.533-.4706.829-.0747.22-.0907.485-.0482.794.0491.248.1371.506.2639.773.0832.169.1308.297.143.386-.0266.678.008 1.311.1037 1.897.1145.614.2993 1.249.5543 1.903l.0282.041c.2015.45.3689.794.502 1.033l-.0251-.019c.179.321.4162.573.7115.757.2973.199.5634.335.7983.408 1.0214.339 2.1481.409 3.3803.209l.306-.064c.7698-.181 1.2885-.335 1.5559-.462.339-.152.6448-.381.9174-.689.2726-.307.4856-.666.639-1.077.0879-.342.1072-.637.0581-.885zm-3.3623-6.78.0593.105c.0304.22-.0278.506-.1745.856l-.08.236.0966.211c.6019 1.432 1.0082 2.696 1.219 3.791l.1426 1.69.6858.243.006.044c.0223.162-.0143.332-.1097.51-.0787.191-.2194.368-.4219.531l-.2466.169c-.1538.081-.5725.198-1.2561.352l-.2177.053c-.9819.165-1.8514.112-2.6084-.158-.1888-.064-.3334-.135-.4338-.211-.134-.101-.2301-.2-.2884-.297-.2019-.377-.3515-.702-.4488-.973-.2201-.51-.3843-1.05-.4928-1.619-.0916-.558-.1204-1.093-.0863-1.608l-.0174-.29c-.0101-.074-.0867-.303-.2297-.688-.1039-.211-.163-.368-.1772-.471l.0108-.249c.0086-.046.0637-.136.1652-.27.4457-.466.9436-.879 1.4938-1.24.607-.383 1.2175-.632 1.8316-.747l.9332-.083c.1933-.012.3602.003.5008.043z" fill="#1d2226"/><path d="m49.9501 211.029-1.3159-.246c-.0692.369-.0703.796-.0035 1.282.0568.412.1318.739.2251.981.2317.703.6405 1.277 1.2264 1.721.8767.704 1.8448.983 2.9044.837l.7635-.172.0441-.006c.1157-.031.4344-.113.9561-.244.8374-.236 1.5431-.61 2.1171-1.124.3716-.351.6414-.733.8095-1.146.1874-.491.2406-1.03.1596-1.619-.154-1.118-.8323-2.397-2.035-3.836l-1.0286.861c1.0379 1.222 1.6176 2.274 1.7391 3.157.0668.486-.0173.91-.2523 1.272-.161.247-.3942.459-.6997.636-.4132.267-.8595.456-1.3391.567l-.5427.142-.2649.037-.1074.037c-.1136.045-.2809.083-.5016.114-.677.093-1.3094-.09-1.8974-.549-.4059-.334-.6666-.703-.7822-1.107-.0704-.185-.1269-.432-.1695-.741-.0506-.368-.0523-.653-.0051-.854z" fill="#1d2226"/><path d="m53.6168 203.507.0195-1.33c-.3299 0-.7293.04-1.1982.12-.9819.165-1.8627.466-2.6422.903-1.144.623-1.9675 1.448-2.4707 2.477l1.3334.536c.3864-.788 1.0051-1.413 1.8563-1.875.613-.339 1.3296-.58 2.1497-.723.3659-.065.6833-.101.9522-.108z" fill="#1d2226"/><path d="m51.8898 208.445c-1.1732.192-2.2957.099-3.3673-.279l-.5705 1.249c1.3568.488 2.7449.604 4.1642.349 1.4047-.254 2.5826-.738 3.5338-1.454l-.9276-1.019-.019.025-.727.437c-.6466.314-1.3421.545-2.0866.692z" fill="#1d2226"/><path d="m55.2183 208.774-2.0653.847c-.4314.134-.3827.27.146.407.512.125.9702.076 1.3747-.144.3644-.185.5631-.43.5962-.734z" fill="#b4d8db"/><path d="m52.8968 212.828c.2425.236.6791.303 1.3099.202-.1481-.205-.1259-.425.0664-.662.1163-.136.5053-.414 1.1671-.835.4279-.269.6767-.641.7463-1.115-.2456-.041-.5556-.006-.9302.105-.7805.213-1.5255.683-2.2351 1.41-.3401.362-.3816.66-.1244.895z" fill="#eab28c"/><path d="m54.6133 210.747-.6211.063c-.4106.176-.7793.385-1.1061.625-.2046.148-.3777.307-.5193.476-.1015.134-.1683.248-.2003.342-.0721.13-.096.284-.0717.46l.0183.133.0312.063c.1582.278.3378.493.5387.645.2866.231.6357.37 1.0472.419.3379.058.6982.061 1.0808.008.471-.065 1.0485-.227 1.7326-.486l.7643-.33-.4929-.967c-.2802.144-.5276.253-.7423.328-.543.194-1.0132.319-1.4105.374-.4268.058-.7587.044-.9956-.043-.1406-.041-.2453-.094-.3143-.159-.0504-.039-.1017-.084-.1537-.137.0418-.032.0893-.068.1423-.109.0802-.071.3013-.372.6633-.901.3218-.495.5249-.762.6091-.804z" fill="#1d2226"/><path d="m52.8149 203.729c-.2436-.026-.6351.125-1.1746.454-.0675.055.1181.314.5569.778.3698.399.7523.782 1.1475 1.147.3095.287.4736.227.4925-.18.0377-.38-.0418-.849-.2385-1.407-.1471-.414-.3023-.671-.4657-.768-.0147.002-.1207-.006-.3181-.024z" fill="#b4d8db"/><path d="m50.5549 202.016c-.0609-.007-.0893.005-.0853.034.0583.097.0799.199.0646.306-.0112.137.3187.136.9895-.001.3639-.08.8572-.2 1.4798-.361.2923-.055.4438-.099.4545-.13-.0041-.029-.136-.116-.3957-.261-.2116-.12-.6645-.088-1.3587.098-.6902.214-1.0731.32-1.1487.315z" fill="#b4d8db"/><path d="m53.396 213.245c-.2624-1.296-.7085-2.279-1.3381-2.951-.5625-.594-1.2287-.893-1.9985-.897-1.1092-.008-2.1027.492-2.9805 1.498-.8951 1.055-1.2642 2.234-1.1074 3.537.3364 3.027 1.2795 4.9 2.8295 5.619 1.1595.529 2.2042.413 3.1343-.346.5537-.785.9621-2.102 1.2252-3.95.1355-.909.214-1.746.2355-2.51z" fill="#37332e"/><path d="m54.043 213.336-1.3804-.072c.0043.409-.056 1.06-.1808 1.952-.0758.79-.1763 1.434-.3015 1.932-.088.352-.1772.645-.2675.876-.1209.345-.2397.613-.3564.805-.3153.477-.7148.759-1.1983.846-.2616.056-.5296.059-.8042.011l-.4018-.12-.3977-.189c-.4933-.229-.9189-.632-1.2768-1.209-.5393-.903-.9266-2.15-1.162-3.74l-.9073.055c.1623 1.773.5289 3.168 1.0996 4.186.4274.775.9859 1.355 1.6757 1.741.8229.478 1.6471.653 2.4727.523.8692-.139 1.5536-.588 2.0532-1.346.3432-.544.6234-1.234.8406-2.069.0985-.371.2163-1.064.3534-2.08.1063-.903.1528-1.604.1395-2.102z" fill="#1d2226"/><path d="m51.4371 214.936-.2033-.321c-2.5436.706-4.2478 1.053-5.1127 1.039.2031.685.3704 1.128.502 1.328.6312.003 1.318-.044 2.0603-.141 1.5032-.182 2.5623-.497 3.1773-.947-.1273-.352-.2685-.672-.4236-.958z" fill="#805b2b"/><path d="m49.3782 215.168-3.2298.502.5021 1.329 2.9322-.326z" fill="#bc8140"/><path d="m51.267 214.653c-2.5475.692-4.2537 1.031-5.1186 1.017.2071.701.3744 1.144.5021 1.329.6312.003 1.3252-.046 2.0821-.145 1.5031-.182 2.5549-.497 3.1555-.943-.1273-.353-.2666-.665-.4178-.936z" stroke="#1d2226" stroke-miterlimit="10" stroke-width="1.42734"/><path d="m53.5861 214.025c-.3932-1.83-.7083-2.925-.9452-3.285-.1131-.188-.435-.044-.9656.433l-.7564.775 1.6518 6.962.6716-.074c.4745-.177.7508-.6.8289-1.269.0593-.514-.1024-1.695-.4851-3.542z" fill="#98b8bd"/><path d="m50.949 211.805c.0036.182.1373.867.4014 2.056.132.595.2653 1.166.4001 1.715l.8262 3.355.7512-.204c.5011-.304.7532-.844.7563-1.619-.1602.201-.3309.336-.5119.405-.3767.141-.6402-.092-.7907-.698-.5092-1.972-.812-3.191-.9087-3.657-.0377-.25-.0358-.524.0058-.821.0833-.595.3503-1.024.8012-1.286-.2282-.104-.5703-.061-1.0263.126-.4705.191-.7054.4-.7046.628z" fill="#61797a"/><path d="m53.0479 210.54-.0277-.017-.0059-.021-.1502-.128-.1385-.084-.1208-.02c-.1135-.022-.2284-.02-.3446.004-.1124.039-.2333.103-.363.191l-1.3891 1.16-.1927.223.0866.233c.2267.772.5337 1.921.9211 3.449.3037 1.166.5744 2.323.8121 3.472l.0607.306.3128.048c.2706.034.5381 0 .8024-.102.2141-.06.4158-.194.6051-.402.2674-.314.4308-.729.4901-1.242.0031-.214-.0376-.615-.122-1.205l-.9883-5.211c-.0668-.244-.1495-.462-.2481-.654zm-1.0322.948.383-.286.1084.227.1909.529c.1457.364.2677.726.3659 1.084.1705.511.3457 1.263.5257 2.258l.1479 1.13c.0543.535.0614.898.0213 1.089-.0722.41-.1983.68-.3782.809-.1005.082-.2235.139-.3688.17-.0203.004-.0421.008-.0654.013-.3406-1.369-.5891-2.417-.7455-3.144-.2792-1.177-.5065-2.26-.6818-3.25.0411-.062.0908-.134.149-.214.0821-.093.198-.232.3476-.415z" fill="#1d2226"/><path d="m52.6407 211.834c-.055-.201-.1536-.112-.2958.267-.1528.397-.1783.866-.0765 1.406.1029.601.3396 1.325.71 2.173.3442.808.5704 1.185.6788 1.132-.046-1.236-.3849-2.895-1.0165-4.978z" fill="#b4d8db"/><path d="m39.5905 205.195c-.7873-.098-1.3073.113-1.5598.634l-1.0473 1.734c-.6834 1.423-.973 2.839-.869 4.248 1.842 1.662 3.9589 2.367 6.3506 2.113 1.842-.197 3.0676-.662 3.6767-1.395-.52-2.663-1.8792-4.755-4.0778-6.277-.8913-.62-1.7158-.972-2.4734-1.057z" fill="#37332e"/><path d="m50.3538 206.041c-.52-1.142-1.3667-1.142-2.5403 0-1.233 1.197-2.1689 3.142-2.8076 5.833.5496.733 1.4632 1.254 2.7408 1.564 1.6935.409 3.1196-.035 4.2783-1.331.1634-1.409-.0669-2.84-.6908-4.291z" fill="#37332e"/><path d="m51.1337 199.172c.104-.437.2154-1.106.3342-2.008.0892-.902-.557-2.036-1.9386-3.403-1.5449-1.507-3.2013-2.282-4.9691-2.325-1.8123-.028-3.6469.627-5.5038 1.966-1.8718 1.338-2.7557 2.642-2.6517 3.91.1188 1.198.2822 2.297.4902 3.297.416 2.001.9062 3.086 1.4707 3.255.7725 2.001 2.1986 3.959 4.2783 5.875 1.8866 1.748 3.3053 2.642 4.256 2.685.6982.084 1.5079-.761 2.4289-2.537 1.025-1.986 1.181-3.867.4679-5.643.6091-.211 1.1067-.613 1.493-1.204.3714-.578.5645-1.205.5793-1.881 0-.747-.2451-1.409-.7353-1.987z" fill="#61797a"/><path d="m50.9101 198.749-.9136-.697c-.1486-.085-.7353-.071-1.7604.042-1.0695.127-2.05.303-2.9413.528-1.5895-.183-2.466-.239-2.6294-.169-.3862.127-.765.345-1.1364.655-.7279.634-1.0622 1.423-1.0027 2.368.1337.479.4382.817.9136 1.014.4902.197.9953.197 1.5152 0 .2674-.099 1.233-.19 2.8968-.275 1.8569-.084 3.439-.077 4.7462.021.4308.029.6908-.028.7799-.169.0892-.31.1783-.62.2674-.93.0892-.944-.1559-1.74-.7353-2.388z" fill="#7b989b"/><path d="m50.8877 199.299-.6685-.74c-.3714-.183-1.0176-.226-1.9386-.127-.8616.099-1.7306.289-2.6071.571-.7279-.155-1.4558-.24-2.1837-.254-.7725-.014-1.3593.056-1.7604.211l-.9136.994c-.4456.747-.2748 1.324.5125 1.733.1635.239 1.805.303 4.9246.19 3.1344-.098 4.7982-.303 4.9913-.613.1635-.676.0446-1.331-.3565-1.965z" fill="#9cbbc0"/><path d="m41.239 207.393c-1.5449-1.254-2.4214-2.331-2.6294-3.233l-.5793 1.669 2.05 2.051c1.6489 1.38 3.1493 2.099 4.5012 2.155-1.4113-1.085-2.5254-1.965-3.3425-2.642z" fill="#805b2b"/><path d="m50.9546 198.918-.6017-.528c-.0742-.028-.505-.021-1.2924.021-.8467.056-1.6935.134-2.5402.232-.8319-.028-1.7752-.021-2.83.022-.921.042-1.4483.084-1.582.126-.2526.113-.4977.282-.7354.508-.4753.451-.6685.958-.5793 1.521.1188.169.8244.184 2.1168.043 1.233-.127 2.4363-.331 3.6099-.613 1.233.197 2.2951.324 3.1864.38 1.0102.057 1.5673 0 1.6712-.169.0892-.549-.0519-1.064-.4233-1.543z" fill="#b4d8db"/><path d="m50.4419 206.844-.7131-2.6c.2228 1.649.2451 2.938.0669 3.868-.2971 1.536-1.1216 2.832-2.4734 3.889 1.946 0 3.0156-1.022 3.2087-3.065.0594-.648.0297-1.345-.0891-2.092z" fill="#805b2b"/><path d="m51.6233 195.22c-.6536-1.184-1.5152-2.177-2.5848-2.981-.6091-.45-1.1958-.803-1.7603-1.056-.6982-.296-1.389-.465-2.0724-.508h-1.0695c-.312.043-.6462.134-1.0028.275l-1.8717.698c-1.3667.563-2.4957 1.233-3.387 2.007-.5794.48-1.0325.966-1.3593 1.459-.4754.733-.6982 1.423-.6685 2.071.1634 1.296.4382 2.515.8245 3.657.1634.507.3862 1.099.6685 1.775l.6462 1.268.156.232c-.2203.636-.3911 1.087-.5125 1.353-.3078.356-.6198.793-.9359 1.311-.2526.45-.4754.929-.6685 1.437-.3863 1.028-.5571 2.085-.5125 3.17l1.3147-.085c-.1337-.901-.0595-1.824.2228-2.768.1337-.465.312-.902.5348-1.311.2228-.394.4828-.782.7799-1.162l.0891-.106.0223-.063c.0594-.268.2451-.824.5571-1.67l.0445-.148-.0445-.148-.468-.824-.3342-.824c-.2228-.536-.4011-1.099-.5348-1.691-.2674-1.17-.4382-2.332-.5125-3.487-.0446-.437.0743-.902.3565-1.395.2823-.508.6314-.959 1.0473-1.353.8468-.874 1.8421-1.543 2.9859-2.008.2526-.127.5348-.232.8468-.317.3119-.084.6165-.127.9136-.127l1.3147.043c.1931 0 .3342.007.4233.021 1.0993.169 2.1392.599 3.1197 1.289 1.0398.733 1.8346 1.564 2.3842 2.494.1634.239.2897.479.3788.718l.0892.339c.0148.042.0074.162-.0223.359-.0149.521-.0743 1.113-.1783 1.775l-.0445.212.1337.126c.1634.155.2896.332.3788.529.1039.239.1634.451.1782.634.0743.38.0372.817-.1114 1.31-.1188.437-.3268.818-.6239 1.142-.312.352-.6611.584-1.0473.697l-.2451.064-.2897.718.6016 1.839v.042l.0669.085c.2377.352.4754.782.713 1.289.208.479.3863.951.5348 1.416.1337.493.2229.979.2674 1.458l.0446.74-.0446.74 1.3147.106.0446-.402v-1.289c-.0446-.55-.1486-1.113-.312-1.691s-.3714-1.106-.6239-1.585c-.207-.459-.4893-.923-.8467-1.395l-.4903-1.247c.4374-.218.8162-.535 1.1365-.951.3416-.423.5867-.937.7353-1.543.1485-.578.156-1.141.0223-1.691-.0594-.268-.1634-.535-.312-.803l-.3342-.529c.1421-.537.2684-1.101.3788-1.69l.0445-.55-.1114-.549c-.0742-.31-.2005-.627-.3788-.951z" fill="#1d2226"/><path d="m46.1639 211.515-5.0805-4.502-.4011.634c-.2674.437-.3863.669-.3566.698.6982.732 2.0055 1.93 3.9218 3.593z" fill="#bc8140"/><path d="m50.175 210.183-.3788-1.543-2.1614 3.298.9358.317z" fill="#bc8140"/><g fill="#1d2226"><path d="m38.6545 204.54-.7131 1.036c.7279.437 1.441.909 2.1392 1.416s1.3667 1.036 2.0054 1.585c1.3816 1.155 2.5923 2.346 3.6321 3.572l.7131-.507c-.9953-1.283-2.1986-2.558-3.6098-3.826-.6982-.634-1.3667-1.197-2.0055-1.691-.9062-.704-1.6267-1.233-2.1614-1.585z"/><path d="m50.6424 204.963-1.0696.232c.0446.212.0669.486.0669.825.0148.253 0 .542-.0446.866-.0743.62-.2154 1.191-.4234 1.712-.3565 1.015-.973 2.057-1.8494 3.128l.6907.55c.9359-1.071 1.6341-2.184 2.0946-3.34.2823-.69.4605-1.331.5348-1.923.0594-.451.0891-.782.0891-.993 0-.367-.0297-.719-.0891-1.057z"/><path d="m42.1084 206.125c.6833-.394 1.1735-.669 1.4706-.824.9211-.507 1.8421-.761 2.7631-.761h.1114c1.3816.042 2.5923.613 3.6321 1.712l.6685-.571c-1.2033-1.282-2.6294-1.944-4.2783-1.986h-.1337c-1.0547 0-2.1243.289-3.2087.866-.3268.183-.8022.458-1.4261.825-.5348.253-1.0028.38-1.4039.38l-.2674-.021-.1337.845c.0892.014.2229.021.4011.021.5794 0 1.181-.162 1.805-.486z"/><path d="m42.0195 207.415.468.718c1.6489-.93 3.0527-1.395 4.2114-1.395 1.1142 0 2.1615.388 3.1419 1.163l.5794-.634c-1.129-.916-2.3694-1.374-3.7213-1.374-1.3518 0-2.9116.507-4.6794 1.522z"/><path d="m43.9355 208.936.3566.761c.8616-.366 1.6935-.549 2.4957-.549.8467 0 1.6266.197 2.3397.592l.4679-.719c-.8616-.479-1.7975-.719-2.8076-.719-.9508 0-1.9015.212-2.8523.634z"/><path d="m38.2309 205.872-.5571.655.1783.127c.8022.606 1.6786 1.345 2.6294 2.219 1.5152 1.353 2.7185 2.593 3.6098 3.72l.7131-.508c-.9805-1.239-2.3843-2.67-4.2115-4.29-1.4707-1.282-2.258-1.923-2.362-1.923z"/><path d="m49.7958 210.564c-.1486.267-.3491.549-.6016.845l-.2674.254.2896.317c.3269-.268.6537-.67.9805-1.205.6388-1.085.9581-2.346.9581-3.783l-.0222-.529-.4457.022.0223.507c0 1.338-.3045 2.529-.9136 3.572z"/></g><path d="m44.6264 212.022c-.0297.31.2228.86.7576 1.649.5645.831 1.077 1.373 1.5375 1.627.3714-.084.7948-.479 1.2701-1.184.4457-.662.7577-1.31.9359-1.944-.1634-.07-.9656-.113-2.4065-.127z" fill="#98b8bd"/><path d="m44.9381 212.297c-.0149.183.2599.733.8244 1.648.5645.916.9136 1.367 1.0473 1.353.1783-.028.5125-.387 1.0028-1.078.5645-.775.921-1.472 1.0695-2.092-.1485.253-.4828.627-1.0027 1.12-.5496.549-.9062.803-1.0696.761-.2525-.042-.8764-.613-1.8717-1.712z" fill="#61797a"/><path d="m49.2167 211.325c-.4308.042-1.3147.091-2.6517.148l-2.4957.105.0223.423c0 .07.0297.204.0892.402.1634.507.4827 1.099.9581 1.775.2674.38.5125.676.7353.888.2674.281.5571.493.8691.634l.2228.105.2006-.126c.505-.296 1.025-.86 1.5598-1.691.4456-.691.765-1.402.9581-2.135l.156-.571zm-.5794.887c-.155.417-.3779.868-.6685 1.353-.3675.581-.724.997-1.0695 1.247-.1556-.104-.3115-.245-.468-.423-.3565-.38-.6982-.852-1.025-1.416l-.2897-.592 1.493-.063c.8439-.037 1.5199-.072 2.0277-.106z" fill="#1d2226"/><path d="m46.8327 212.36c-1.0547.043-1.5672.106-1.5375.19l.3565.36c.2822.225.4902.331.6239.317.2228-.014.9433-.31 2.1615-.888-.5348 0-1.0696.007-1.6044.021z" fill="#b4d8db"/><path d="m38.1873 200.165v.042c-.0742.916.0892 1.726.4903 2.431.401.69 1.0101 1.191 1.8272 1.501.2376.084.4308.133.5793.148.1783.042.3714.049.5794.021.3119 0 .6833-.064 1.1141-.191.4754-.169.9062-.415 1.2924-.739-.5051.127-1.0324.211-1.5821.253-.2376.071-.5199.12-.8467.148-.2377 0-.4011-.007-.4902-.021-.104-.014-.26-.063-.468-.148-.6982-.253-1.2033-.683-1.5152-1.289l-.1337-.275c-.3863-.577-.6685-1.205-.8468-1.881z" fill="#1d2226"/><path d="m43.3119 205.47c-.3566.338-.0075.465 1.0473.381.5645-.043 1.3518-.106 2.3619-.191.9954.043 1.5079.064 1.5376.064.609.014 1.0027-.028 1.181-.127-.7725-.634-1.8272-.958-3.1642-.972-.6091-.014-1.285.127-2.0278.422z" fill="#7b989b"/><path d="m45.161 207.14-.5571.296c-.3713.253-.4679.422-.2896.507.1485.07.3416.077.5793.021.1486-.028.5051-.049 1.0696-.063s1.025-.014 1.3815 0c.2526.028.6388.063 1.1588.105.401 0 .5867-.105.557-.317-.0297-.239-.2897-.436-.7799-.591-.4605-.155-1.0101-.24-1.6489-.254-.5051-.014-.9953.084-1.4707.296z" fill="#7b989b"/><path d="m45.3398 209.591c-.0149.085.1485.367.4902.846.3565.479.6165.768.7799.866.1337.085.3937-.084.7799-.507.4457-.549.7651-.937.9582-1.162-.4308-.226-1.0622-.296-1.8941-.212z" fill="#7b989b"/><path d="m44.3588 205.047c-.4011.254-.0223.395 1.1364.423.9656.028 1.9832-.021 3.0528-.148.0148-.197-.2303-.366-.7353-.507-.4606-.127-.9731-.19-1.5376-.19-.7576 0-1.3964.141-1.9163.422z" fill="#9cbbc0"/><path d="m45.0945 207.267c-.3119.183-.0297.289.8468.317.6982.014 1.4632-.021 2.2951-.106.0149-.155-.1634-.282-.5348-.38-.3417-.099-.7279-.148-1.1587-.148-.3417 0-.6685.042-.9804.126-.2229.071-.3789.134-.468.191z" fill="#9cbbc0"/><path d="m45.2731 209.697c-.3863.24-.1486.451.713.634.8171.183 1.493.035 2.0278-.444.0148-.126-.1412-.239-.468-.338-.3119-.084-.6462-.127-1.0027-.127-.2971 0-.5868.036-.869.106-.1932.056-.3268.113-.4011.169z" fill="#9cbbc0"/><path d="m47.4347 204.899c.1188-.07.0297-.126-.2674-.169-.1783-.056-.3937-.091-.6462-.105-.4903-.043-.9136.035-1.2702.232-.1188.183.0149.31.4011.381.3863.07.7428.049 1.0696-.064.4308-.155.6685-.246.7131-.275z" fill="#b4d8db"/><path d="m47.7684 209.592c.1188-.071.0297-.127-.2674-.17-.1783-.056-.3937-.091-.6462-.105-.5051-.042-.9359.035-1.2924.232-.104.183.0371.31.4234.381.3862.07.7427.049 1.0695-.064.4308-.155.6685-.246.7131-.274z" fill="#b4d8db"/><path d="m47.7015 207.14c.1188-.071.0371-.127-.2452-.169-.1634-.057-.3639-.092-.6016-.106-.4605-.028-.8616.049-1.2033.233-.104.169.0223.288.3788.359.3566.07.6908.049 1.0028-.064.3862-.14.609-.225.6685-.253z" fill="#b4d8db"/><path d="m47.6348 192.134c-.7589-.596-1.6427-.927-2.6517-.994.4085.036.8022.127 1.181.275.5051.212.9507.5 1.337.867.7725.761 1.1958 1.655 1.2701 2.684.0446.423-.0223.874-.2005 1.353-.1932.422-.4531.76-.7799 1.014-.6091.437-1.4781.585-2.6071.444-1.0399-.155-1.9832-.479-2.83-.972-.4605-.268-.8541-.564-1.181-.888-.3565-.366-.5793-.754-.6685-1.162-.0891-.437-.0371-.902.156-1.395.208-.465.5051-.874.8913-1.226.667-.556 1.4172-.887 2.2506-.994-.8771.09-1.6645.372-2.362.846-.4902.324-.8764.726-1.1587 1.205-.3119.507-.4679 1.049-.4679 1.627.0148.521.2302 1.071.6462 1.649.3268.422.7502.824 1.2701 1.204 1.0399.705 2.1169 1.149 3.231 1.332.7131.098 1.337.105 1.8718.021.6982-.113 1.285-.388 1.7603-.824.4754-.423.7874-.958.9359-1.607.1337-.577.1189-1.162-.0445-1.754-.2971-1.085-.9136-1.987-1.8495-2.705z" fill="#1d2226"/><path d="m42.1302 203.737-.2228.211c-.0595.141.1782.205.713.191 1.946-.62 3.6693-.846 5.1696-.677.7577.085 1.3147.226 1.6713.423l.4233-.021c.3417-.085.6834-.282 1.025-.592-2.1391-.549-4.2411-.641-6.306-.275-1.0399.198-1.8644.444-2.4734.74z" fill="#1d2226"/><path d="m48.5443 221.607c-.1463.354-.001.83.4359 1.429.5605.789 1.4437 1.217 2.6497 1.285 1.1168.068 1.775-.115 1.9745-.551.1071-.217.0675-.687-.1188-1.408-.4368-1.115-1.3882-1.578-2.8542-1.387-.7444.109-1.4401.319-2.0871.632z" fill="#bc8140"/><path d="m49.3882 223.322c-.1201.34.044.802.4923 1.387.5464.735 1.3338 1.109 2.3623 1.123.7463.013 1.1737-.259 1.2821-.817.072-.353.0148-.891-.1715-1.612-1.0435.504-2.0185.64-2.925.408z" fill="#bc8140"/><path d="m49.2978 223.056c.1376.245.2969.401.4779.47.2658.108.7958.176 1.5902.204 1.4367.04 2.2208-.375 2.3523-1.245.0693-.422-.0135-.857-.2484-1.306l-2.4487-.164c.0355.368-.0125.728-.1439 1.082-.2445.721-.7709 1.041-1.5794.959z" fill="#805b2b"/><path d="m50.8792 225.383c1.3244.353 2.1719.299 2.5426-.164.1779-.231.2282-.496.1509-.796-.0239-.149-.1053-.292-.2445-.428-.2486-.272-.6297-.367-1.1434-.286.0707.504-.1306.932-.6036 1.286-.2217.177-.4557.306-.702.388z" fill="#805b2b"/><path d="m53.4595 222.26c.0304.463.0247.728-.0172.796-.1744.245-.7129.374-1.6156.388-1.5563.014-2.6021-.211-3.1376-.674-.3334-.312-.477-.782-.4307-1.408.0442-.231.6775-.367 1.9-.408.602-.027 1.2036-.027 1.8049 0l.7224.123c.48.19.738.585.7738 1.183z" stroke="#1d2226" stroke-miterlimit="10" stroke-width="2.08049"/><path d="m53.5302 223.138-.3225-.041-.1624.061-.1062.021-.0955.061.0069.286-.0387.367c-.0224.258-.0776.476-.1655.653-.081.204-.1891.36-.3244.469l-.1402.062h-.3788c-.2377 0-.4728-.048-.7054-.143-.1477-.055-.3205-.177-.5183-.368-.1575-.149-.3234-.36-.4977-.632l-.2116-.388c-.0614-.122-.1012-.19-.1196-.204-.077-.068-.2449-.143-.5036-.225-.1904.068-.3105.15-.3601.245-.0157.055-.0095.136.0187.245l.1265.49c.1387.422.3267.775.5639 1.061.3213.381.7088.674 1.1627.878.4467.177.8781.265 1.2941.265.1075.014.204.014.2896 0h.156l.1507-.02c.2307-.028.4604-.116.6891-.266.2854-.217.4829-.517.5924-.898.1053-.34.1214-.68.0483-1.02-.0308-.177-.0765-.354-.1371-.531l-.167-.387c-.0368-.028-.0848-.041-.1443-.041z" fill="#1d2226"/><path d="m52.0379 221.587c.7366-.082 1.2302-.442 1.4809-1.082.228-.612.1578-1.142-.2108-1.591-.3694.122-.7786.292-1.2274.51l-.5554.265c-.7173.041-1.5807.034-2.5901-.02-.5491-.286-1.3521-.49-2.4087-.613-.0487.789.384 1.429 1.2978 1.919.4644.245.9317.415 1.402.51.7334.136 1.6706.17 2.8117.102z" fill="#9ababf"/><path d="m54.266 220.383c.0669-.259.0779-.504.033-.735-.025-.326-.1543-.626-.388-.898l-.2404-.326-.4351.041c-.3573.054-.7526.163-1.1857.326l-.8135.388-2.3162-.082c-.2768-.113-.6409-.229-1.0924-.347-.2998-.068-.7128-.143-1.239-.224l-.5113-.082-.0229.429c-.0525.544.0998 1.047.457 1.51.324.449.7755.816 1.3544 1.102.3393.163.5902.272.7528.326l.3882.123.1888.041.0499.02.1835.02c.3225.041.7992.075 1.4302.102h1.025l.1507-.02h.1783l.0393-.02c.5058-.055.9394-.245 1.3007-.572.3456-.272.5832-.646.7127-1.122zm-1.1152-.694c.0047.083-.0021.171-.0206.265-.0634.272-.2137.524-.4511.755-.2408.218-.5176.354-.8304.409h-.1114l-.1507.02-.9529.02c-.5715-.027-1.0037-.061-1.2965-.102l-.1389-.02h-.0223l-.3659-.123c-.2107-.068-.4026-.149-.5758-.244-.3944-.205-.6752-.429-.8425-.674l-.1735-.326.4826.142c.3846.109.7003.239.9469.388l.1325.082 3.095.163.1741-.102c.0454-.054.1711-.143.3771-.265l.41-.225c.1099-.06.2147-.114.3143-.163z" fill="#1d2226"/><path d="m49.6339 219.444-.0711.674c-.0075.258.0243.496.0954.714.0781.245.2362.483.4742.714.2494.218.4773.381.6837.49l.3004-.735c-.1513-.068-.2746-.143-.37-.224-.077-.068-.1313-.164-.163-.286-.0054-.136.011-.245.0494-.327.0539-.136.1368-.217.2486-.244z" fill="#1d2226"/><path d="m53.2893 220.566c-.0457-.176-.1482-.401-.3077-.673l-.4414-.673-.7367.857c.145-.014.2946.047.4486.183.1102.082.1977.191.2626.327.1114.258.0177.442-.281.551l.7364.694c.1474-.177.2467-.368.298-.572.0809-.204.088-.435.0212-.694z" fill="#1d2226"/><path d="m42.4377 217.125c-.0058.01-.0158.016-.0298.02-.6553.182-1.2611.301-1.8174.357.0159.532.0316.994.047 1.385.5887-.285 1.076-.697 1.462-1.234.1218-.163.2346-.339.3382-.528zm-4.8294-7.499c-.036.01-.2503.26-.6429.747l-.7259.874.8846.187-.0059.022.9086.189c.5217.134 1.2802.332 2.2756.596l.3315.139.0021.268c-.0346.591-.0542 1.399-.0588 2.424 1.058-.139 1.7581-.242 2.1001-.311.2942-.059.566-.125.8154-.197.0636-.203.12-.414.1692-.632l.2145-.985c.1471-.288-.2324-.922-1.1385-1.902-.9088-.966-1.7945-1.547-2.6571-1.742-.4876-.098-.944-.077-1.3692.061-.0496.016-.1035.033-.1618.053-.0094.006-.1573.038-.4438.096-.276.063-.4419.101-.4977.113z" fill="#37332e"/><path d="m34.9894 220.595c-.3977.239-.6203.699-.6679 1.381-.0768.893.4105 1.613 1.462 2.16.9699.511 1.7086.623 2.2159.337.2604-.14.5746-.552.9426-1.236.4335-1.118-.0908-1.895-1.5728-2.329-.7616-.21-1.5548-.315-2.3798-.313z" fill="#bc8140"/><path d="m34.4817 222.383c-.3637.238-.559.695-.586 1.37-.0491.841.3913 1.477 1.3212 1.905.6719.315 1.2656.259 1.7811-.168.3298-.269.6787-.745 1.0467-1.429-1.3295.001-2.3221-.28-2.978-.843z" fill="#bc8140"/><path d="m34.5963 222.122c-.0571.263-.0283.459.0863.59.1617.2.5954.472 1.3011.818 1.2825.617 2.3089.585 3.0791-.096.3782-.327.6275-.728.748-1.202l-2.1162-1.131c-.2417.324-.5547.608-.9389.853-.7617.509-1.4815.565-2.1594.168z" fill="#805b2b"/><path d="m34.3054 224.726c.9464.836 1.7617 1.134 2.4458.894.3352-.122.5792-.326.732-.61.0899-.135.1221-.289.0965-.46-.0241-.331-.3013-.566-.8318-.705-.3112.453-.815.733-1.5114.839-.3347.059-.645.073-.9311.042z" fill="#805b2b"/><path d="m38.9943 223.14c-.3175.403-.5207.624-.6098.664-.3422.136-.9308.027-1.766-.328-1.4325-.62-2.2208-1.234-2.3649-1.842-.0712-.399.148-.853.6574-1.362.2131-.177.8935-.035 2.0412.427.5706.221 1.1204.465 1.6496.732l.5689.397c.2965.355.2377.793-.1764 1.312z" stroke="#1d2226" stroke-miterlimit="10" stroke-width="2.12438"/><path d="m38.404 223.909-.2643-.165-.1942-.015-.1122-.026-.1331.013-.2069.244-.3097.294c-.2133.209-.4263.37-.6387.484-.2263.139-.4419.227-.6468.264l-.1738-.005-.3463-.154c-.2172-.097-.3965-.232-.538-.407-.0944-.106-.1609-.279-.1995-.52-.0323-.19-.0265-.435.0173-.736l.0961-.412c.0353-.129.0497-.202.043-.221-.0196-.089-.1171-.22-.2927-.394-.2248-.02-.3955 0-.5119.061-.055.039-.1102.11-.1657.214l-.25.464c-.1881.412-.2803.787-.2768 1.124.0093.452.1451.856.4076 1.212.2763.33.6045.58.9847.749.0881.055.1763.094.2647.117l.1426.064.153.044c.2311.07.507.089.8278.056.4234-.068.8273-.24 1.2117-.517.3501-.244.6187-.525.8059-.841.1038-.162.1941-.33.2707-.503l.1368-.395c-.0133-.038-.047-.069-.1013-.093z" fill="#1d2226"/><path d="m38.1976 221.995c.7341.23 1.4544.126 2.1608-.311.6655-.424.9973-.9.9956-1.428-.429-.047-.9299-.069-1.5026-.068l-.7056-.002c-.6861-.256-1.4701-.613-2.352-1.068-.2887-.464-.8702-.962-1.7445-1.494-.6335.646-.7154 1.361-.2458 2.145.2416.395.5418.728.9005.999.5687.412 1.3999.821 2.4936 1.227z" fill="#9ababf"/><path d="m41.1334 221.884c.2541-.191.447-.393.5786-.606.2209-.285.3262-.59.3157-.915l.024-.373-.4281-.142c-.3672-.099-.8097-.168-1.3275-.206l-1.0328-.003-2.056-1.009c-.1683-.208-.4148-.453-.7394-.736-.2233-.179-.5449-.409-.9648-.692l-.4064-.276-.3409.352c-.4542.438-.6907.924-.7096 1.459-.039.51.0994 1.003.4152 1.479.1882.276.3364.469.4444.581l.2633.261.1421.111.0303.037.1525.092c.2643.165.6746.388 1.231.667l.9368.416.153.044.1629.072.0512-.001c.5029.159 1.0414.174 1.6153.046.519-.09 1.0154-.309 1.4892-.658zm-.5012-1.037c-.0576.071-.1299.143-.2169.215-.261.204-.5863.355-.9759.454-.3826.085-.7372.088-1.0636.007l-.1019-.045-.1529-.044-.8862-.37c-.502-.255-.8716-.459-1.1087-.612l-.1118-.074-.0204-.009-.243-.252c-.1418-.142-.2562-.289-.3434-.44-.2081-.332-.2972-.635-.2673-.91l.0851-.345.3345.316c.2703.248.4623.485.576.711l.0602.123 2.7067 1.394.2354-.016c.0821-.027.263-.051.5427-.07l.5422-.023c.1452-.006.2816-.01.4092-.01z" fill="#1d2226"/><path d="m37.6009 219.213-.5677.539c-.1998.215-.3485.428-.446.641-.1114.238-.1446.503-.0997.795.0654.284.1518.515.2592.69l.8229-.498c-.0874-.118-.1443-.231-.1705-.339-.0196-.089.0018-.191.0643-.307.0966-.117.1929-.202.2888-.255.1509-.093.2876-.128.4101-.106z" fill="#1d2226"/><path d="m40.1028 221.643c.0903-.168.1641-.399.2215-.693l.0993-.747-1.3131.423c.1427.048.2336.16.2728.337.0398.114.0386.241-.0037.382-.0912.264-.3139.38-.6681.351l.155.884c.2668-.089.4998-.21.6989-.361.2264-.139.4055-.331.5374-.576z" fill="#1d2226"/><path d="m59.5957 212.29.3917.985c.5391-.206 1.057-.293 1.5535-.263-.1418-.284-.2431-.534-.304-.749-.1956-.004-.7427.005-1.6412.027z" fill="#c49d00"/><path d="m58.5923 213.2c-.0093.014-.0249.021-.0469.021-.5942.256-1.198.627-1.8112 1.114l-.9167.545c-.7305.424-1.5693.474-2.5164.151l.052 1.202c1.4628.204 2.953-.035 4.4707-.717.3645-.249.7176-.475 1.0594-.677.0337-.013.0649-.027.0936-.043z" fill="#fc0"/><path d="m39.5007 170.164c1.649-2.942 2.0648-5.623 1.2478-8.044-.3417-.996-.8542-1.768-1.5375-2.318-.6685-.535-1.3741-.743-2.1169-.624-2.9265.431-4.6645 2.303-5.2142 5.616-.7725 1.782-.9656 3.32-.5794 4.612l.8022 1.404c.7874 1.708 2.0872 2.325 3.8996 1.849 1.5598-.401 2.7259-1.233 3.4984-2.495z" fill="#ba4b00"/><path d="m32.6368 163.345c-.1188.193-.2525.505-.401.936-.2971.832-.5423 1.812-.7354 2.941-.2228 1.842.0669 5.385.8691 10.629.9062 5.809 1.9311 8.683 3.075 8.624.9507-.089 1.7306-1.924 2.3397-5.504 1.0102-5.942 1.8718-10.094 2.5848-12.456-2.9859.876-5.1696.275-6.5511-1.805-.4308-.639-.7577-1.396-.9805-2.273-.104-.431-.1709-.795-.2006-1.092z" fill="#8e2e09"/><path d="m37.5615 158.421-.4679.022c-1.649.252-2.9711.928-3.9664 2.028-.9349 1.052-1.5515 2.418-1.8495 4.1-.1529.391-.2643.866-.3343 1.426-.0742.46-.1114 1.077-.1114 1.849 0 1.501.1784 3.462.5349 5.883.3862 2.644.973 5.675 1.7603 9.091l1.2701 5.126.7577-.268c.6833-.252 1.2776-.691 1.7826-1.315.7428-.891 1.3667-2.213 1.8718-3.966.4902-1.708.8987-4.115 1.2255-7.22l.3566-2.986c.0446-.356.1039-.713.1782-1.069l.1782-.624h-.0222c1.0696-1.894 1.6043-3.751 1.6043-5.571 0-1.812-.4828-3.35-1.4484-4.612-.4308-.58-.9358-1.04-1.5151-1.382-.5645-.342-1.1662-.512-1.805-.512zm2.6072 3.498c.4456.891.6684 1.894.6684 3.008 0 1.619-.468 3.261-1.4038 4.925l-.0223.022-.0222.045-.2229.668c-.0594.238-.1486.787-.2674 1.649-.1931 1.679-.3491 3.008-.468 3.989-.2228 1.767-.4604 3.246-.713 4.434-.3416 1.59-.7576 2.837-1.2478 3.744-.2823.505-.5646.913-.8468 1.225-.0824.082-.164.157-.2451.223-.5879-2.335-1.1152-4.622-1.5821-6.863-.4605-2.332-.8022-4.286-1.025-5.861-.312-2.079-.468-3.84-.468-5.281 0-.475.0297-1.025.0891-1.649.0595-.43.1561-.802.2898-1.114l.0445-.178c.2377-1.456.7354-2.607 1.493-3.454.7725-.832 1.7974-1.344 3.075-1.537h.0223l.2451-.023c.3268 0 .6833.104 1.0696.312.6239.372 1.1365.944 1.5376 1.716z" fill="#1d2226"/><path d="m39.9236 162.721c-.3862-1.099-.7428-1.812-1.0696-2.139-.7725-.757-1.8792-.772-3.3201-.044-.2674.252-.5125.557-.7353.913-.4457.684-.5645 1.255-.3566 1.716.1931.401.5274.884 1.0028 1.448.3862.461.5719.713.557.758-.0148.059.468.141 1.4484.245 1.0399.193 1.6712.557 1.8941 1.092.2525.639.4679.275.6461-1.092.1635-1.352.1412-2.317-.0668-2.897z" fill="#d86313"/><path d="m36.2918 180.414c-.0149-1.991-.2896-3.996-.8244-6.016.2822 2.064.3119 4.062.0891 5.994-.1189 1.01-.2971 1.975-.5348 2.896-.0891.372-.2302.84-.4233 1.404-.208.594-.3864 1.033-.5349 1.315l1.3593.579c.1485-.371.2896-.884.4233-1.537l.2674-1.538c.1189-.906.1783-1.938.1783-3.097z" fill="#1d2226"/><path d="m39.5006 173.283c.6982.089 2.3471-.156 4.9467-.735.1931-.787.0075-1.872-.557-3.253-.6982-1.664-1.6713-2.407-2.9191-2.229-1.1885.164-1.946.981-2.2728 2.452l-.1337 2.161c-.0892.966.2228 1.5.9359 1.604z" fill="#3a3736"/><path d="m41.1261 166.019c-.1931 0-.3416.008-.4456.022-.6685.09-1.233.35-1.6936.78-.5496.491-.9358 1.181-1.1586 2.073-.1486.594-.2228 1.225-.2228 1.894v1.002c0 .298.0371.55.1114.758.0297.163.1262.349.2896.557.1931.223.4531.401.7799.535.2674.074.5942.111.9804.111.5051 0 1.1365-.067 1.8941-.2.9507-.164 1.8717-.357 2.7631-.58l.4456-.089.1114-.445c.0446-.193.0669-.394.0669-.602 0-.461-.0668-.98-.2005-1.56-.2228-1.084-.5869-1.99-1.0919-2.718-.312-.461-.6759-.825-1.0919-1.092-.4753-.297-.9878-.446-1.5375-.446zm.5125 1.56c.312.149.5794.371.8022.668.3714.506.6537 1.122.8468 1.85.1596.545.2487 1.065.2673 1.56l-2.1391.445c-.7874.119-1.337.179-1.649.179l-.4901-.045-.1114-.044-.0446-.045c-.0297-.089-.0446-.208-.0446-.357v-1.002c0-.817.1188-1.501.3565-2.05.1486-.357.3268-.632.5348-.825.2822-.237.5868-.371.9136-.401l.2451-.022c.208 0 .3788.03.5125.089z" fill="#1d2226"/><path d="m41.1938 168.203c-.2377-.089-.4308-.074-.5793.044-.1783.09-.3492.223-.5126.401-.3119.357-.401.758-.2673 1.204.2377.743 1.1735 1.24 2.8075 1.493.2377.029.312-.342.2229-1.114-.0892-.788-.3268-1.293-.713-1.516-.5199-.297-.8394-.468-.9582-.512z" fill="#756f6c"/><path d="m54.1844 186.787c.5794-2.912.104-5.482-1.4261-7.71-1.8866-2.763-5.0211-3.996-9.4034-3.699-3.7287.178-6.1947 1.79-7.3979 4.835-1.1885 3.016-.8765 6.849.9359 11.498l3.3647 2.786c2.7185 1.886 5.2439 2.889 7.5762 3.008 2.4065.119 4.048-1.04 4.9245-3.476.312-.862.5868-2.043.8245-3.543.3862-2.407.5867-3.64.6016-3.699z" fill="#dda27a"/><path d="m54.7412 188.703c.1486-1.634.1857-3.082.1114-4.345-.104-1.619-.4382-3.053-1.0027-4.301-.6685-1.455-1.6267-2.599-2.8745-3.431-1.1439-.773-2.5254-1.285-4.1446-1.538-1.1736-.193-2.622-.252-4.3452-.178-1.7084.104-3.1493.446-4.3229 1.025-1.441.713-2.5402 1.738-3.2979 3.075-.6982 1.189-1.1141 2.622-1.2478 4.301-.1486 2.57.3862 5.444 1.6044 8.623l.0445.156.1114.089c1.0399.936 2.2061 1.828 3.4985 2.674 1.2775.847 2.5625 1.538 3.8549 2.073 1.4707.609 2.9042.973 4.3006 1.091h1.1587c.3417-.014.7205-.074 1.1364-.178.7725-.208 1.4707-.564 2.0946-1.069 1.0696-.877 1.8792-2.14 2.4289-3.789.4159-1.188.713-2.614.8913-4.278zm-4.256-11.32c1.1141.728 1.9609 1.746 2.5402 3.053.5199 1.114.8319 2.436.9359 3.967.0446.698.0446 1.396 0 2.094-.0149.476-.0669 1.174-.156 2.095-.1782 1.56-.4754 2.919-.8913 4.078-.5199 1.47-1.233 2.569-2.1392 3.297-.9804.788-2.1985 1.107-3.6544.959-1.2329-.104-2.5476-.461-3.944-1.07-1.1587-.49-2.3546-1.174-3.5876-2.05-1.1438-.817-2.1689-1.679-3.075-2.585-1.2479-2.911-1.8347-5.526-1.7604-7.843.0743-1.501.4085-2.786 1.0028-3.855.6536-1.189 1.6043-2.095 2.8522-2.719 1.0844-.564 2.3917-.899 3.9218-1.003 1.5003-.118 2.8893-.074 4.1669.134 1.4558.238 2.7185.721 3.7881 1.448z" fill="#1d2226"/><path d="m52.4016 184.269c-.4902-.951-1.0176-1.456-1.5821-1.515-.2971-.03-1.4929.505-3.5875 1.604-2.1243 1.114-3.4762 1.664-4.0555 1.649l-.3343.735c-.2377.654-.4233 1.382-.557 2.184.3416 2.882 1.1364 4.813 2.3842 5.794.8319.683 2.31 1.099 4.4343 1.247 1.2627.09 2.2655-.713 3.0082-2.406.6239-1.426.9805-3.216 1.0696-5.37.0446-1.516-.2154-2.823-.7799-3.922z" fill="#ffcdab"/><path d="m54.4968 172.548c-.8616-1.5-2.2506-2.392-4.1669-2.674l-3.2311.446c-1.2181-.535-2.6145-.81-4.1892-.825-3.1344-.029-5.5855 1.285-7.3533 3.944-1.6192 1.204-2.8745 2.756-3.7658 4.658-1.0993 2.332-1.1736 4.456-.2229 6.372-.1634 2.021.052 3.893.6462 5.616.8171 2.317 2.2803 4.189 4.3898 5.615.3714-4.739.7279-8.326 1.0696-10.763l2.763.089c1.9758-.074 3.3128-.467 4.011-1.18.7427-.446 1.5226-.892 2.3397-1.337 1.6489-.907 2.6739-1.375 3.075-1.404 1.2627.49 2.258 1.3 2.9859 2.429 1.0993 1.708 1.4187 3.936.9582 6.684.0148 1.129.1857 2.043.5125 2.741.1783.342.3639.713.5571 1.114 1.025-1.946 1.5969-3.617 1.7158-5.013-.0595-1.278-.0595-2.199 0-2.763.5496-1.53.713-3.254.4902-5.17-.1931-1.604-.5571-2.83-1.0919-3.677-.5051-2.406-1.0027-4.04-1.4929-4.902z" fill="#ba4b00"/><path d="m41.2383 186.564c.2525-2.585-.2823-4.122-1.6044-4.613-.5051-.178-1.0398-.178-1.6043 0-.52.149-.9062.387-1.1588.713.5794 3.298.1932 5.928-1.1587 7.889-.6833.98-1.4186 1.626-2.206 1.938l-.0891.312c.4159.877 1.9312 2.125 4.5457 3.744 2.6294 1.619 4.1223 2.221 4.4789 1.805.1634-.208.0297-1.508-.4011-3.9-.5497-3.06-.8171-5.689-.8022-7.888z" fill="#8e2e09"/><path d="m46.4522 175.824c-.4308.638-.9062.839-1.4261.601-.0743-.015-.8394-.542-2.2952-1.582-1.129-.813-2.3323-1.511-3.6098-2.094.3745.254.7088.596 1.0027 1.025 1.129 1.619 1.3816 4.189.7576 7.709-.2228.832-.2896 2.095-.2005 3.789.9507-.149 1.9683-.461 3.0528-.936 2.1688-.951 3.6024-2.266 4.3006-3.944.713-1.709 1.0175-3.477.9136-5.304-.0149-.297-.2006-1.448-.5571-3.454-.921 2.244-1.5672 3.64-1.9386 4.19z" fill="#8e2e09"/><path d="m50.7312 176.782c-1.3815-.446-2.0128-1.382-1.894-2.808-.4011 1.055-.869 2.162-1.4038 3.32-1.0399 2.303-1.8644 3.722-2.4734 4.256.8616-.208 1.9683-.401 3.3201-.579 1.0845-.193 1.9386-.564 2.5626-1.114.6833-.579 1.2181-1.218 1.6043-1.916.1931-.357.3194-.654.3788-.892-.713.06-1.4112-.029-2.0946-.267z" fill="#8e2e09"/><path d="m33.7731 182.865-1.3815-1.872 1.2478 3.098c1.1885 2.198 2.6814 3.647 4.4789 4.345.8022.119.9507-.817.4457-2.808l-1.025-3.008.2673 2.139c-.1039 1.233-.8541 1.322-2.2505.267-.208-.163-.8022-.883-1.7827-2.161z" fill="#8e2e09"/><path d="m54.6299 184.358-1.3369.089.4902 1.404c.2971 1.203.3937 2.518.2897 3.944-.104 1.129.0742 2.912.5348 5.348.2079-.089.5942-.936 1.1587-2.54-.6537-1.085-1.0399-2.786-1.1587-5.103z" fill="#8e2e09"/><path d="m52.5799 177.406c-.2377.148-.5125.431-.8244.846-.6685.847-1.337 1.657-2.0055 2.429.4457.327 1.1067.706 1.9832 1.137.7576.46 1.3072 1.084 1.6489 1.871.312-.311.8171-.311 1.5153 0 .4159.179 1.077.498 1.9831.959-.9953-1.159-2.0129-2.711-3.0527-4.657z" fill="#8e2e09"/><path d="m49.3271 170.565 1.5153 2.406 1.6044.78c1.2626.713 2.3322 1.56 3.2087 2.541-.6239-2.734-1.8643-4.509-3.7213-5.326-.5793-.253-1.1884-.394-1.8272-.423z" fill="#d86313"/><path d="m38.163 174.398c-.208-.535-.7056-.699-1.493-.491-.4605.03-.9655.171-1.5152.424-1.1141.49-1.9163 1.3-2.4065 2.429-.3417 1.262-.5571 2.421-.6463 3.476-.0891 1.203.052 1.76.4234 1.671.0892-1.738.6165-3.253 1.5821-4.546.8616-1.159 1.7752-1.805 2.7408-1.938 1.0993-.149 1.5375-.491 1.3147-1.025z" fill="#d86313"/><path d="m36.0459 180.503c.0743.074.4085 1.419 1.0027 4.033.4605 2.065.7502 2.399.8691 1.003.0742-.282.2005-.579.3788-.891.3416-.609.7427-.944 1.2033-1.003.3416.015.8838-.513 1.6266-1.582.8022-1.189 1.3518-2.392 1.6489-3.61.9062-3.55-.6536-5.467-4.6794-5.749 1.0845 1.753 1.5524 3.417 1.4039 4.991-.1189 1.189-.4754 2.013-1.0696 2.474-.3268.267-.8245.401-1.493.401z" fill="#8e2e09"/><path d="m55.2764 172.593-.8022-.936c-.3268-.327-.6314-.594-.9136-.802-.6388-.491-1.3519-.869-2.1392-1.137-.4456-.119-.8467-.2-1.2033-.245-.4456-.074-.8764-.067-1.2924.022-.5051.149-.8616.238-1.0696.268-.1039.015-.2451.022-.4233.022l-.312-.067-.1337-.044c-1.6489-.491-3.179-.736-4.5903-.736-1.7677 0-3.2904.409-4.568 1.226-.5645.356-1.1735.861-1.8272 1.515-.5172.573-.9851 1.145-1.4038 1.716-.798.611-1.5705 1.51-2.3174 2.696-.6388 1.055-1.1142 2.154-1.4261 3.298-.3566 1.203-.5125 2.399-.468 3.587.0282 1.31.2733 2.454.7354 3.432.1322 1.581.4441 3.029.9359 4.345.5793 1.53 1.3815 2.823 2.4065 3.877.5348.55 1.0993 1.048 1.6935 1.493.5199.401 1.1439.817 1.8718 1.248 1.3667.802 2.7631 1.352 4.1892 1.649l.6016.112.0669-.647c.1337-1.322.1782-2.466.1337-3.431-.0149-.773-.0966-1.917-.2452-3.432-.1188-1.144-.2748-2.265-.4679-3.364-.1395-.872-.3103-1.749-.5125-2.63.3198-.082.6986-.186 1.1364-.312.6537-.193 1.2701-.393 1.8495-.601.6982-.253 1.3073-.513 1.8272-.78.7131-.372 1.2627-.736 1.6489-1.092l.6908-.49c.2971-.149.5274-.246.6908-.29.4623-.159.9005-.189 1.3147-.089l.0445.022c.6387.272 1.1809.695 1.6267 1.27.4457.594.7576 1.285.9359 2.072.2971 1.382.2822 2.994-.0446 4.836v.067c-.0743 1.307-.1114 2.094-.1114 2.362 0 .534.0148.95.0446 1.248.0891.594.2525 1.069.4902 1.426l1.025 1.092.2897-1.181c.0297-.119.2525-.892.6685-2.318.3268-1.01.5496-1.775.6685-2.295.1336-.609.2451-1.396.3342-2.362.014-1.007.0511-1.749.1114-2.228.5632-1.436.7266-2.973.4902-4.613-.0742-.668-.2525-1.433-.5348-2.295-.1485-.416-.3045-.78-.4679-1.092l-.2674-.535-.0891-.133v-.09c.0148-.445.0223-.794.0223-1.047.0297-.46.0148-.861-.0446-1.203-.0891-.847-.3788-1.642-.869-2.384zm-1.5153.445.2897.379c.3565.505.5794 1.092.6685 1.76.0446.298.0668.624.0668.981.0149.238.0223.631.0223 1.181.0297.223.0669.379.1114.468l.8913 1.716c.2972.698.5051 1.374.624 2.027.2822 1.471.2079 2.853-.2229 4.145l-.0222.067v.044c-.0298.565-.0446 1.352-.0446 2.362-.0149.654-.1114 1.404-.2897 2.251-.1782.832-.4159 1.545-.713 2.139-.0693.15-.1436.291-.2229.424 0-.118 0-.245 0-.379 0-.238.0372-.988.1114-2.251v.089c.3269-2.154.3194-3.966-.0222-5.437-.2526-1.055-.6462-1.931-1.181-2.629-.624-.817-1.4113-1.411-2.362-1.783l-.0446-.022h-.0446c-.6833-.193-1.4112-.171-2.1837.067-.2971.104-.6165.245-.9581.423-.3269.193-.624.401-.8914.624l-.0222.022c-.2971.297-.7577.602-1.3816.914-.6685.312-1.2255.542-1.6712.691l-4.3006 1.181.1783.757c.2673 1.159.4828 2.243.6462 3.254.1782 1.054.3342 2.154.4679 3.298.1486 1.247.2525 2.354.312 3.32.069 1.203.1136 2.094.1337 2.674-1.204-.19-2.2958-.562-3.2756-1.115-.5645-.297-1.129-.705-1.6935-1.225-.52-.505-.9731-1.033-1.3593-1.582-.817-1.189-1.4484-2.399-1.894-3.632-.4308-1.233-.6908-2.578-.7799-4.034v-.178l-.0669-.133c-.4456-.892-.6908-1.887-.7353-2.986-.0446-.921.0742-1.976.3565-3.165.104-.519.26-1.039.4679-1.559.1932-.535.4011-1.033.624-1.493.5793-1.129 1.2107-1.969 1.894-2.518l.0891-.045.0223-.067c.4605-.683.9211-1.218 1.3816-1.604.5348-.446 1.1215-.817 1.7603-1.114 1.2776-.594 2.5997-.966 3.9664-1.114 1.5598-.179 2.971-.067 4.2337.334l.1114.044.5126.112c.1634.03.3862.03.6684 0l1.1142-.223c.2674-.03.5793-.015.9359.045.2822.059.6016.163.9581.312.5942.267 1.1587.631 1.6935 1.091z" fill="#1d2226"/><path d="m48.9482 180.347c.6685-1.352 1.0918-2.592 1.2701-3.721.2377-1.382.104-2.696-.4011-3.944-.2228-.58-.4902-1.048-.8022-1.404-.1188-.134-.5125-.513-1.181-1.137l-1.6712-.022c.5199.268 1.0622.691 1.6267 1.27.5496.565.9507 1.114 1.2032 1.649.5051.996.6462 2.147.4234 3.454-.1931 1.055-.6462 2.176-1.3592 3.365-.6834 1.099-1.4484 2.042-2.2952 2.83l1.0696 1.002c.817-1.054 1.5227-2.168 2.1169-3.342z" fill="#1d2226"/><path d="m45.9171 177.227c.104.535.104 1.144 0 1.828-.0743.609-.2228 1.188-.4456 1.738-.4011 1.069-1.0622 2.013-1.9832 2.83l1.0918.98c.8468-1.129 1.3816-2.332 1.6044-3.61.1189-.683.156-1.322.1114-1.916-.0445-.698-.1708-1.315-.3788-1.85z" fill="#1d2226"/><path d="m42.1963 174.442c-.312-.654-.8096-1.144-1.4929-1.471-.6091-.282-1.3222-.438-2.1392-.468-.7131-.014-1.441.045-2.1837.179-.4308.089-.8839.215-1.3593.379l-.4011 1.314c.208-.119.5422-.23 1.0027-.334.5645-.149.9136-.245 1.0473-.29.7577-.267 1.4039-.438 1.9387-.512.7576-.104 1.4112-.082 1.9609.067.6684.193 1.2107.572 1.6266 1.136z" fill="#1d2226"/><path d="m32.7256 177.718-1.3369.757c.0445.773.0965 1.33.156 1.671.0594.476.1782 1.018.3565 1.627.4011 1.382.9804 2.615 1.738 3.699.8022 1.174 1.7827 2.117 2.9414 2.83 1.5152.98 2.7631 1.56 3.7435 1.738l1.025.49-.2674-1.114c.0149-.312-.0891-.676-.3119-1.092-.2674-.46-.4457-.802-.5348-1.025-.104-.267-.416-.921-.9359-1.961-.4159-.772-.7056-1.381-.869-1.827-.3268-.891-.3714-1.433-.1337-1.626.4159-.357.8393 0 1.2701 1.069.3862.921.5719 1.642.5571 2.162l1.4707.133c.0445-.327.0148-.713-.0892-1.158-.1337-.506-.2302-.884-.2897-1.137-.2079-.817-.557-1.552-1.0473-2.206-.6239-.832-1.2404-1.121-1.8494-.869-.2674.104-.5423.342-.8245.713-.2674.327-.4382.617-.5125.869-.1189.431-.1411.884-.0669 1.359.0892.402.2154.78.3788 1.137.208.475.5645 1.114 1.0696 1.916.4308.654.7874 1.248 1.0696 1.783.2674.475.4531.943.5571 1.404-1.0696-.327-2.0575-.803-2.9636-1.426-1.0251-.758-1.8644-1.672-2.518-2.741-.6091-.981-1.0696-2.125-1.3816-3.432-.2674-1.218-.4011-2.466-.4011-3.743z" fill="#1d2226"/><path d="m52.781 176.737-1.7826 2.362c-.52.773-.9136 1.322-1.181 1.649l1.3815.535c.0149-.505.1486-1.129.4011-1.872.2377-.639.52-1.203.8468-1.693.4753-.654.9284-1.033 1.3592-1.137.2674-.059.4828 0 .6462.179.1634.163.26.393.2897.69l1.2033-.846c-.5348-.357-.8988-.565-1.0919-.624-.4456-.134-.8542-.097-1.2255.111-.2823.149-.5645.364-.8468.646z" fill="#1d2226"/><path d="m54.942 184.87c.0297-.104.0743-.185.1337-.245.1337-.133.2897-.163.4679-.089.1932.075.3491.23.468.468.104.193.156.446.156.758l1.2255-.802c-.0743-.03-.3417-.201-.8022-.513-.3714-.267-.6387-.438-.8022-.512-.3565-.149-.713-.171-1.0695-.067-.1189.029-.2971.104-.5348.223-.2823.163-.4531.267-.5125.312l1.2701.757c-.0446-.044-.0446-.141 0-.29z" fill="#1d2226"/><path d="m38.4749 171.813c-.0891.089-.0148.171.2229.245.2525.089.5348.104.8467.044.1337-.014 1.1439.023 3.0305.112s3.179.089 3.8772 0c-1.2924-1.738-3.0082-2.325-5.1473-1.761-.6685.179-1.3444.461-2.0278.847z" fill="#d86313"/><path d="m33.4387 179.567c.0891 1.129.3565 1.805.8022 2.028.0297.015.4976-1.003 1.4038-3.053.9507-2.154 1.842-3.29 2.6739-3.409.5942-.342.0743-.342-1.5598 0-1.4409.312-2.362.802-2.7631 1.471-.4605.787-.6462 1.775-.557 2.963z" fill="#d86313"/><path d="m40.9036 171.612-1.0696.401 2.1169.825c1.5003.757 2.4734 1.693 2.919 2.807.0594-1.173 0-2.035-.1782-2.585-.2229-.742-.7131-1.233-1.4707-1.47-.6834-.208-1.4558-.201-2.3174.022z" fill="#d86313"/><path d="m44.6245 188.592c.6537.267 1.5747.133 2.7631-.401-.1188-.357-.3788-.669-.7799-.936-.7725-.55-1.8198-.602-3.1419-.156.2674.772.6537 1.27 1.1587 1.493z" fill="#fff"/><path d="m43.1542 187.21c.1931.565.4382.988.7353 1.27.3863.387.8839.58 1.493.58.5942 0 1.3073-.186 2.1392-.557l.2896-.134-.1114-.29c-.0891-.282-.2748-.557-.557-.824-.4903-.52-1.181-.78-2.0724-.78-.5348 0-1.1067.104-1.7157.312l-.3343.111zm3.5207.535c.0979.076.1796.165.2451.267-.5833.253-1.0958.379-1.5375.379-.4011 0-.7428-.126-1.025-.379-.1578-.157-.3063-.395-.4457-.713.3993-.104.7856-.156 1.1587-.156.6982 0 1.233.201 1.6044.602z" fill="#1d2226"/><path d="m50.9531 188.124c1.0696.445 1.8718.512 2.4066.2.4159-.237.7279-.75.9359-1.537-1.1587-.357-2.0649-.245-2.7186.334-.3268.297-.5347.631-.6239 1.003z" fill="#fff"/><path d="m51.8674 186.519c-.4011.223-.7279.535-.9804.936-.1783.283-.2674.476-.2674.58l-.0669.289.2674.112c.6537.282 1.233.423 1.7381.423.6091 0 1.0844-.208 1.4261-.624.2674-.297.4828-.75.6462-1.359l.0891-.312-.3119-.111c-.4902-.134-.9211-.201-1.2924-.201-.4457 0-.8616.089-1.2479.267zm-.4902 1.404c.0726-.129.1617-.255.2674-.379.3565-.416.8467-.623 1.4707-.623.2523 0 .5049.029.7576.089-.1165.349-.2502.616-.4011.802-.208.252-.5125.379-.9136.379-.3203 0-.714-.09-1.181-.268z" fill="#1d2226"/><path d="m52.8477 184.692c-.4456.104-.9359.305-1.4707.602l-.1114.824 1.2256-.668c.9359-.461 1.7381-.743 2.4065-.847-.7576-.089-1.4409-.059-2.05.089z" fill="#1d2226"/><path d="m47.2103 185.383c-.7725-.238-1.4632-.394-2.0723-.468-.8616-.089-1.8272-.045-2.8968.134 1.5004.059 3.2236.445 5.1696 1.158z" fill="#1d2226"/><path d="m48.77 192.647c.3119.238.661.32 1.0473.245.3862-.044.6907-.215.9136-.512.2228-.282.3342-.594.3342-.936l-.6908.557c-.2079.134-.4233.208-.6462.223-.2079.044-.4456.03-.713-.045-.1337-.029-.4011-.141-.8022-.334.0891.327.2748.594.5571.802z" fill="#1d2226"/><path d="m47.1875 194.207.5125.423c.4605.268 1.0027.364 1.6267.29.6387-.074 1.1587-.282 1.5598-.624l.4233-.512c-2.2728.133-3.6469.274-4.1223.423z" fill="#ff9271"/><path d="m47.0537 194.207c.3862.089.7651.134 1.1364.134.3269.015.6908 0 1.0919-.045.8616-.104 1.5821-.282 2.1615-.535-.3566-.104-.728-.156-1.1142-.156-.2525-.014-.6239-.007-1.1141.023-.3863.044-.7502.111-1.0919.2-.416.104-.7725.23-1.0696.379z" fill="#1d2226"/><path d="m49.371 195.121c.4456-.03.7873-.193 1.025-.491-.3417.09-.6908.142-1.0473.156-.0594.015-.4234.038-1.0919.067.3417.223.7131.312 1.1142.268z" fill="#1d2226"/><path d="m49.7498 188.926c-.1337.386-.1931.728-.1782 1.025 0 1.159.1634 1.708.4902 1.649.3268-.045.5348-.126.6239-.245.1634-.193.1708-.535.0223-1.025-.1486-.476-.3194-.936-.5125-1.382l-.2451-.535z" fill="#ffe1cc"/><path d="m39.4588 210.906c1.1141.015 2.0723.223 2.8745.624.0297-1.322-.3046-2.674-1.0028-4.055-1.4112-2.749-3.9366-4.234-7.5762-4.457.6537 1.099.8913 2.444.713 4.033-.208 1.961-1.1215 3.395-2.7407 4.301-2.1541-.208-3.6099-1.33-4.3675-3.365-.2526-.639-.4086-1.329-.468-2.072l-.0445-.914c-1.2033.55-2.2803 1.434-3.231 2.652-1.8718 2.451-2.1317 5.37-.7799 8.757.6685-.966 1.6415-1.686 2.9191-2.161 1.6192-.609 3.2458-.543 4.8799.2.7131 1.709.7353 3.372.0668 4.992-.5348 1.292-1.3072 2.25-2.3174 2.874 3.3573 1.515 6.3061 1.382 8.8464-.401 1.2775-.891 2.2133-1.939 2.8075-3.142-.8021.208-1.6711.156-2.607-.156-1.842-.624-3.0454-2.228-3.6099-4.813 1.5301-1.946 3.4094-2.912 5.6377-2.897z" fill="#61797a"/><path d="m33.6426 203.018c.2525.386.6239 1.642 1.1141 3.766.7131.312 1.6712 1.077 2.8745 2.295.5942.609 1.1216 1.181 1.5821 1.716l.6685.133c.6239.134 1.4038.335 2.3397.602-.4159-3.595-1.9683-6.091-4.6571-7.487-.8468-.446-1.753-.75-2.7186-.914z" fill="#c5ecf2"/><path d="m22.7468 216.455.4901-.557c.52-.565 1.2999-1.293 2.3398-2.184-.0446-.773.2006-1.968.7354-3.588l.8021-2.206c-.1783-.46-.4234-1.463-.7353-3.008-3.0008 2.02-4.5086 4.546-4.5234 7.576 0 1.53.2971 2.853.8913 3.967z" fill="#c5ecf2"/><path d="m26.3785 204.912c-.208.03-.5051.186-.8913.468-.7725.579-1.597 1.493-2.4735 2.741-.8764 1.248-1.1883 3.008-.9358 5.281.1337 1.129.3491 2.132.6462 3.008l.0891-.044c.1486-.164.4902-.535 1.025-1.115-.3862-2.198-.0669-4.308.9582-6.328.5199-1.01 1.077-1.797 1.6712-2.362z" fill="#fdffff"/><path d="m40.9072 210.973 1.4484.758c.0743-.193.0891-.535.0445-1.025-.1188-.951-.505-2.117-1.1586-3.499-.6537-1.396-2.0278-2.54-4.1224-3.431l-2.9414-.914.468 1.538c2.1094.757 3.7881 2.079 5.036 3.966.6239.951 1.0324 1.82 1.2255 2.607z" fill="#fdffff"/><path d="m39.882 219.04c-.3862-.045-1.4707-.416-3.2533-1.115-.7428.996-1.9906 1.605-3.7435 1.828l-2.4289.044c-.1931.342-.7131 1.129-1.5598 2.362 3.0305 1.397 5.7713 1.293 8.2225-.312 1.233-.787 2.154-1.723 2.763-2.807z" fill="#c5ecf2"/><path d="m39.6146 219.039-.9581-.111c-1.545 1.679-3.543 2.607-5.9941 2.785-.7576.06-1.5153.038-2.2729-.066l-.9136-.156-.0668.222-.5126.446.3788.446c.5794.327 1.6639.572 3.2534.735 1.9014.059 3.6544-.639 5.2588-2.095.8021-.727 1.4111-1.463 1.8271-2.206z" fill="#fdffff"/><path d="m41.9542 208.099c-.4902-1.115-1.1513-2.08-1.9832-2.897-.8318-.802-1.8049-1.434-2.919-1.894-.8468-.372-1.9684-.691-3.3648-.958l-1.2477-.09.6238 1.092c.2971.535.4977 1.204.6017 2.006.104.772.0891 1.485-.0446 2.139-.1782.772-.4457 1.411-.8022 1.916-.358.504-.8036.92-1.337 1.248-.6185-.087-1.1756-.258-1.6712-.512-.5496-.312-1.0101-.743-1.3815-1.293-.3268-.475-.5942-1.077-.8022-1.805-.1634-.713-.2377-1.381-.2228-2.005l-.2897-1.07-.6685.424c-.312.208-.7948.572-1.4484 1.091-.3714.342-.7799.758-1.2256 1.248-.8022.951-1.3889 1.954-1.7603 3.008-.3714 1.04-.5347 2.192-.4902 3.454.0297.921.2228 2.073.5793 3.454v.022l.468 1.159.7131-1.047c.3119-.461.7724-.891 1.3814-1.293.6091-.386 1.2033-.653 1.7827-.802 1.1846-.306 2.373-.225 3.5652.245.4817 1.222.5412 2.441.1784 3.655-.208.668-.5051 1.27-.8913 1.805-.4011.564-.8617 1.017-1.3816 1.359l-.9805.802 1.0696.379c1.233.416 2.3843.676 3.4538.78 1.2479.119 2.4141.007 3.4985-.334 1.0993-.342 2.1392-.899 3.1196-1.672.4457-.341.8764-.742 1.2924-1.203.4456-.46.8319-.936 1.1587-1.426l.6462-1.27-1.4038.312c-.2377.059-.5497.089-.9359.089-.4308-.03-.7502-.074-.9581-.134-.6388-.163-1.2033-.453-1.6935-.869-.8056-.736-1.3849-1.82-1.7381-3.253.9518-1.137 2.0511-1.865 3.2979-2.184.713-.178 1.4186-.237 2.1168-.178.4754.059.8319.119 1.0696.178.3416.089.6759.201 1.0027.334l1.092.513-.1338-1.092c-.0594-.579-.1708-1.173-.3342-1.783-.1634-.579-.364-1.129-.6017-1.648zm-7.0414-.357c.1782-.832.208-1.686.0892-2.562-.0913-.557-.2176-1.062-.3789-1.516.7497.029 1.4702.155 2.1615.379 1.0548.342 1.9609.891 2.7185 1.649.7427.743 1.2998 1.649 1.6712 2.719.1634.445.2823.958.3566 1.537l.0446.624-.3121-.089c-.3714-.104-.7947-.178-1.27-.223-.9062-.074-1.7753 0-2.6072.223-.8022.208-1.5895.579-2.362 1.114-.6833.505-1.2923 1.107-1.8271 1.805l-.2006.245.0668.29c.208.891.4605 1.649.7576 2.273.3863.787.884 1.455 1.493 2.005.6388.565 1.3816.951 2.2283 1.159.3493.087.7504.146 1.2033.178-.0499.092-.1093.189-.1782.29-.312.445-.6686.846-1.0697 1.203-.8022.758-1.7232 1.292-2.763 1.604-1.0102.312-2.065.372-3.1643.179-.689-.112-1.3798-.32-2.0722-.624.3177-.304.6148-.653.8913-1.048.5051-.698.8616-1.426 1.0695-2.183.2526-.788.3417-1.597.2675-2.429-.0595-.817-.2526-1.605-.5794-2.362l-.1114-.245-.2229-.089c-.7576-.342-1.53-.558-2.3174-.647-.8021-.074-1.5969-.007-2.3843.201-.7724.193-1.5003.52-2.1837.98-.3921.259-.7413.534-1.0473.825-.2712-.67-.4569-1.361-.5571-2.072-.1485-1.07-.0519-2.125.2898-3.165.3565-1.01.9358-1.909 1.738-2.696.3268-.327.7428-.654 1.2479-.98.1753-.112.3387-.216.4902-.312.0514.473.133.933.2451 1.381.2228.862.5497 1.612.9805 2.251.4902.728 1.1067 1.292 1.8494 1.693.6537.372 1.441.609 2.362.713l.2229.023.1782-.112c.817-.445 1.4781-1.032 1.9832-1.76.505-.698.8393-1.508 1.0027-2.429z" fill="#1d2226"/><path d="m26.1554 213.58-.1782-.713c-.0595-.46-.0298-.958.0891-1.493.2674-1.069.8541-1.827 1.7603-2.273l-.9359-.958c-.4457.832-.713 1.345-.8021 1.538-.1931.401-.3863.921-.5794 1.559-.1337.535-.2229 1.077-.2674 1.627l-.0445.869c0 .372.0148.676.0445.914l1.2478-.468c-.104-.104-.2154-.305-.3342-.602z" fill="#1d2226"/><path d="m34.8685 207.631c.2674.059.4977.133.6908.222.416.194.817.468 1.2033.825.3862.386.661.787.8244 1.203.1931.461.2823.944.2674 1.449l1.2924-.335c-.3565-.683-.6388-1.181-.8467-1.493-.3566-.534-.7057-.973-1.0474-1.314-.3416-.357-.7649-.713-1.27-1.07l-.7354-.446c-.3417-.193-.6165-.334-.8244-.423l-.2452 1.315c.1337-.015.364.007.6908.067z" fill="#1d2226"/><path d="m36.8069 218.772-.9582-.913c-.0594.148-.193.341-.401.579-.104.119-.2897.282-.5571.49-.4308.282-.8913.475-1.3816.579-1.0993.194-2.0426-.014-2.8299-.623l-.4457 1.247c.6685.045 1.2479.06 1.7381.045.5348 0 1.0844-.059 1.6489-.178.5497-.119 1.0771-.275 1.5822-.468.4753-.193.7353-.305.7799-.335z" fill="#1d2226"/><path d="m33.1549 197.236-.2594.119c-.3198.305-.913.954-1.7796 1.948-.7799.888-1.4129 1.534-1.8991 1.937-.5659 2.643-.1574 3.763 1.2256 3.362.3789-.092 1.2752-1.029 2.6889-2.812 1.4003-1.756 2.2043-2.923 2.412-3.5.2508-1.687-.0693-2.372-.9605-2.056-.4522.172-.9282.506-1.4279 1.002z" fill="#756f6c"/><path d="m35.5078 196.825-.6067-.381c-.6477 1.088-1.3382 2.079-2.0716 2.974-1.4801 1.782-2.4579 2.188-2.9332 1.216-.6951 1.38-.8047 2.506-.329 3.377.3699.686.7975.976 1.2828.871.3788-.058 1.1786-.936 2.3994-2.633 1.1874-1.631 2.0284-2.987 2.5233-4.068.2075-.544.1192-.996-.265-1.356z" fill="#494644"/><path d="m36.051 198.172c-.092-.346-.2172-.692-.3756-1.038l-.218-.409c-1.389 2.427-2.6264 4.141-3.7122 5.141-.606.476-1.0714.608-1.3963.394-.3712-.254-.3457-.997.0765-2.232-.4663.431-.9394.907-1.4193 1.431-.5098 1.639-.3237 2.723.5583 3.25.4509.26.9422.358 1.4738.293 2.7869-3.353 4.4578-5.63 5.0128-6.83z" fill="#3a3736"/><path d="m35.9373 196.318c-.1783-.339-.4301-.549-.7554-.63-.2721-.087-.5745-.048-.9071.117-.6187.304-1.3278.836-2.1273 1.598-.4064.41-.9829 1.026-1.7294 1.848-.7997.828-1.3563 1.487-1.67 1.978-.307.477-.4911.925-.5521 1.344-.088.537-.0165 1.056.2146 1.555.2309.532.615.908 1.1525 1.129.2255.114.4744.197.7466.251l.3685.061c.2524-.006.3953-.008.4285-.008l.289-.029 2.441-3.212c.4936-.649.9905-1.339 1.491-2.068l.6708-1.084c.3338-.53.4615-1.032.3832-1.503.0002-.067-.0293-.19-.0886-.369l-.0887-.32c-.1053-.319-.1944-.538-.2671-.658zm-1.2864.325c.1398-.079.2428-.102.3091-.069.0531.027.1061.087.1589.18l.1679.509c.0924.213.1383.385.1379.518.0326.233-.0613.518-.2815.856l-.6907 1.025c-.5202.702-1.0237 1.355-1.5105 1.958l-1.2001 1.441c-.3654.448-.7187.852-1.0598 1.213-.1907.014-.4031-.026-.6374-.122-.2987-.1-.5107-.273-.6362-.52-.3106-.539-.2589-1.17.1551-1.892.2671-.431.7738-1.058 1.5203-1.879.8198-.901 1.383-1.507 1.6895-1.819.6597-.682 1.2855-1.148 1.8775-1.399z" fill="#1d2226"/><path d="m38.4858 197.003c-.0344-1.813-.5319-3.187-1.4923-4.12-.4902-.479-.9378-.73-1.343-.751-.3454-.008-.8309.164-1.4564.514-.1198.072-.1442.484-.0734 1.235.0774.771.0628 1.196-.0437 1.275-.0666.067-.3031.272-.7093.616-.3995.298-.7321.446-.9978.446-.2325-.001-.5011-.161-.8057-.481-.2584-.247-.4075-.347-.4475-.3-.0934.119-.3166.347-.6697.685-.14.146-.2335.315-.2805.507.069 1.349 1.165 2.508 3.2878 3.478 2.0499.949 3.4611 1.103 4.2336.461.5471-.789.8131-1.977.7979-3.565z" fill="#9cbbc0"/><path d="m38.3924 198.577c.3953-1.148.454-1.892.176-2.231-1.2512.8-2.3444.923-3.2794.369l-1.0233-1.04-.339.079c.1257.18.2281.356.3073.529l.0895.07c.3378.32.3634.665.0766 1.036-.3067.378-.6557.46-1.047.246-.1856-.126-.3149-.233-.3877-.32l-.1092-.129c-.3114-.274-.5499-.51-.7153-.71.0454.372.0344.691-.0328.956-.1209.439-.3377.753-.6505.945 1.3242 1.466 2.7635 2.207 4.318 2.225.7772.009 1.422-.132 1.9344-.422.2539-.505.4814-1.039.6824-1.603z" fill="#7b989b"/><path d="m38.5003 199.205c.4282-1.015.5067-1.699.2354-2.052-1.7396 1.902-3.6761 1.932-5.8097.093.0112.704-.3126 1.248-.9715 1.631 1.2781 1.359 2.6312 2.057 4.0593 2.095.7108.008 1.2958-.113 1.7549-.364.267-.431.5109-.898.7316-1.403z" fill="#61797a"/><path d="m37.3873 201.464c.2791-.059.5386-.178.7783-.356l.0799-.06.0401-.08c.2202-.338.3776-.782.4723-1.333.0609-.385.0954-.801.1034-1.246-.004-.883-.0846-1.697-.2418-2.442-.1966-.897-.4401-1.668-.7305-2.314-.2509-.492-.4525-.851-.6046-1.078l-.1885-.269c-.0596-.08-.1689-.177-.328-.29-.179-.107-.4213-.171-.7268-.192-.3919-.014-.8207.078-1.2863.275l-.5789.308-.3097.268c-.0533.073-.1069.212-.1607.418-.0408.312-.0486.724-.0236 1.235l-.0115.518-.0404.18c-.0333.033-.0733.063-.1198.089-.4727.344-.7756.549-.9087.615l-.1795.059c-.0003-.01-.0036-.02-.0099-.03l-.1686-.259c-.0661-.1-.1621-.207-.288-.32-.1988-.167-.4278-.224-.6871-.171l-.2094.069-.1697.089c-.1197.039-.2228.096-.3094.168-.2663.199-.4495.364-.5496.497l-.2202.338-.1406.378-.0202.09-.0003.1c.012.438.1834.874.5142 1.307.1919.246.4766.572.8541.979.563.533 1.2391 1.023 2.0283 1.47.6964.401 1.4694.699 2.3191.894.4581.115.8864.172 1.2849.174.3256-.019.5715-.045.7377-.078zm-.7618-8.492.4753.988c.2371.685.4143 1.406.5316 2.164.1041.751.1318 1.488.0831 2.212-.0548.538-.1023.897-.1427 1.076-.0929.355-.1966.611-.3112.766-.1267.077-.3328.123-.6183.138-.3188.006-.6708-.022-1.056-.083-.6705-.122-1.3741-.343-2.1105-.664-.8094-.341-1.436-.732-1.8798-1.172-.2849-.259-.4899-.546-.6152-.858-.0857-.226-.1414-.496-.167-.808.0404-.179.1672-.365.3803-.557l.2696-.188.0497.05.1588.229c.1192.127.2318.233.3378.32.1725.087.3285.107.4682.061l.1297-.059.0598-.02.3094-.168c.1597-.086.3328-.215.5193-.387l.5396-.477.0698-.04.0101-.02.1001-.149c.0735-.146.1171-.282.1307-.408.0068-.046.0107-.252.0118-.618.0021-.697.0066-1.069.0133-1.116l.0303-.109.0399-.03.5889-.327c.3592-.152.6816-.214.9671-.186.186.027.3087.064.3684.11l.1192.11z" fill="#1d2226"/><path d="m32.1323 195.748c-.099-.232-.1483-.399-.148-.498l-1.2174.584.9834 1.019c.4373.387.772.664 1.004.83l2.1078 1.561.5219-1.234c-.4383-.054-.8167-.162-1.135-.322-.3981-.167-.7363-.371-1.0146-.611-.3182-.227-.5864-.503-.8047-.829z" fill="#1d2226"/><path d="m31.7799 197.143c-.0532.006-.265-.25-.6354-.77-.3927.252-.3507.63.1261 1.137.2583.279.4441.34.5575.181s.0973-.342-.0482-.548z" fill="#b4d8db"/><path d="m34.6822 192.866-.8166-.162c-.1481.658-.2102 1.425-.1863 2.302.0242.81.1348 1.581.3319 2.313.3872 1.575 1.1238 2.952 2.2097 4.132l.9694-.934c-1.0003-.953-1.7109-2.118-2.1319-3.494-.2041-.619-.3416-1.303-.4124-2.054-.071-.685-.059-1.385.0362-2.103z" fill="#1d2226"/><path d="m36.8413 194.029c-.111-.638-.2891-1.061-.5343-1.267-.2125-.041-.4317-.051-.6576-.032-.4651.032-.7279.174-.7885.426-.0807.325.1967.881.8321 1.667.6287.799 1.0033 1.029 1.1239.69.1405-.345.1487-.839.0244-1.484z" fill="#b4d8db"/><path d="m33.5135 197.217.1231-1.185-.7988.546z" fill="#b4d8db"/><path d="m32.859 203.901c-.6517-.631-1.5376-1.013-2.6578-1.145-.8775-.098-1.7905-.043-2.7391.165-.174.049-.3308.118-.4704.208.1431.627.2009 1.637.1736 3.029-.0051.091.0216.678.0801 1.762.0199.73-.0067 1.309-.0797 1.735-.1858 1.036-.417 1.794-.6935 2.272.7322.548 2.0418.704 3.9288.468 1.9445-.257 3.0505-.803 3.3179-1.639l.0596-.276c-.0899-.139-.1438-.29-.1615-.453-.025-.64-.1575-1.649-.3975-3.027-.232-1.305-.3498-2.316-.3533-3.033z" fill="#9cbbc0"/><path d="m33.4428 212.534c-.0268-.52-.43-.722-1.2094-.607-1.0488.248-1.8636.382-2.4443.401-1.1269-.057-1.8914-.078-2.2933-.064-.6678.043-.9948.333-.9811.869.033.714.3966 1.444 1.0907 2.19.7628.828 1.5453 1.221 2.3476 1.178.8187-.029 1.6227-.535 2.4121-1.518.7499-.934 1.1091-1.75 1.0777-2.449z" fill="#ffcdab"/><path d="m30.3672 212.489.0049.044c1.1357-.273 2.1712-.849 3.1064-1.729.065-.5.1707-1.722.3173-3.665-.4135-.777-1.0145-1.287-1.8031-1.53-.3423 1.383-1.1882 2.327-2.5377 2.833-.8471.316-1.8054.436-2.8749.358.065.322.1285.561.1905.719.0734.261.2723.441.5969.54.1853.055.4682.113.8486.176 1.0625.288 1.7795 1.039 2.1511 2.254z" fill="#7b989b"/><path d="m33.2331 206.707c-.0358-.19-.0182-.372.0527-.544l-.0491-.039c-.3523 1.428-1.3459 2.388-2.9808 2.88-.9832.302-2.0776.406-3.2832.314l-.1599 1.205c1.1497.129 2.0271.294 2.632.497 1.0082.339 1.6675.835 1.9779 1.488.6157-.246 1.1792-.629 1.6904-1.148.1605-1.542.2458-2.336.2557-2.382.051-.902.0058-1.659-.1357-2.271z" fill="#61797a"/><path d="m33.3888 211.016c-.378.37-.6124.687-.7032.951-.3627 1.743-1.2292 2.704-2.5993 2.884-.6925.09-1.3444.004-1.9558-.258.2352 1.334 1.0535 1.918 2.4548 1.75 1.3865-.166 2.1234-.74 2.2107-1.721.0934.035.2744.187.5429.456.308.221.5924.294.8534.221.8815-.275 1.0998-1.151.6549-2.627l-.9284-2.14c-.1643.138-.341.299-.53.484z" fill="#eab28c"/><path d="m33.5755 203.89c-.1471-.253-.3353-.471-.5646-.656-.6504-.482-1.3173-.842-2.0009-1.081-.841-.312-1.6602-.424-2.4576-.337l-.7705.128c-.4398.078-.8043.23-1.0934.456-.2071.157-.3584.345-.4539.565-.1056.266-.1422.546-.11.841.0378.347.1593.707.3645 1.081-.2619 1.846-.3256 3.384-.1913 4.616l.0435.399-.0394.049c-.1085.102-.1924.223-.2517.364-.0725.157-.1123.341-.1193.551l.0045.246c.0306.28.1195.547.2666.8.1684.311.4245.604.7685.88.3243.234.6398.386.9464.457.2755.06.7643.089 1.4665.087l.6029-.021c.9894-.108 1.8669-.42 2.6324-.937.2233-.144.4271-.331.6113-.56.2081-.243.3555-.535.4422-.878l.0222-.002.2312-1.169c.1181-.834.1353-1.636.0515-2.404-.0539-.493-.1505-.968-.29-1.425l-.0024-.022.0672-.411c.0615-.395.081-.696.0584-.903-.029-.266-.1072-.504-.2348-.714zm-1.2175 2.195.0439.197c.1222.435.2042.844.2461 1.228.0645.591.05 1.28-.0435 2.067l-.2235 1.033.0024.023c-.0067.075-.0692.186-.1876.334l-.3255.304c-.57.391-1.2463.629-2.029.715l-.4676.028c-.5676.003-.9588-.022-1.1736-.073-.0443.005-.1304-.031-.2582-.107-.2245-.139-.3809-.272-.4692-.397-.1243-.18-.1937-.337-.2082-.47l-.0073-.067-.0024-.022-.0222.003.0419-.027-.0197.024.5642-.375-.1921-1.145c-.1256-1.152-.0497-2.647.2279-4.485l.0399-.251-.1349-.21c-.1831-.308-.2852-.559-.3061-.751l.0052-.157.1011-.101.4334-.137.5268-.102.1772-.019c.5759-.063 1.1909.027 1.845.269.5442.195 1.0998.493 1.6666.894l.2038.224.0685.217c.0128.118-.0055.292-.0552.522-.047.528-.0697.799-.0681.814z" fill="#1d2226"/><path d="m27.8799 212.088-1.2936-.352c-.0529.2-.0904.473-.1124.819-.0102.18.004.448.0427.802l.0947.662c.1823.713.5477 1.323 1.0963 1.831.4143.373.8484.654 1.3025.844.5491.239 1.082.33 1.5989.274.2806-.031.5489-.105.8051-.222.3136-.139.6339-.354.961-.643l.4438-.452c.0429.027.083.052.1204.076.2932.222.5933.302.9002.238.3396-.037.6179-.157.8349-.36.327-.289.5681-.682.7233-1.177.1536-.51.1957-1.082.1264-1.717-.1305-1.196-.639-2.434-1.5256-3.712l-1.1039.771c.759 1.068 1.1925 2.096 1.3005 3.086.066.605.006 1.082-.1801 1.432-.0757.127-.1472.225-.2146.292l-.1059.056c-.0492-.039-.1023-.116-.1595-.229l-.3234-.704-.6481.429c-.2381.146-.4435.317-.6162.516l-.466.454-.0197.024.0419-.027c-.2744.225-.483.367-.6259.427-.1281.059-.2659.097-.4136.113-.2806.03-.5856-.026-.9151-.169-.3606-.155-.6743-.36-.9412-.615-.334-.322-.5629-.708-.6867-1.158l-.1208-1.107z" fill="#1d2226"/><path d="m33.6173 206.127c-.769-1.022-1.7823-1.681-3.0399-1.977-.815-.21-1.6802-.265-2.5958-.165-.4282.046-.6555.086-.6818.119l.2976 1.29.5292-.08c.7532-.082 1.4601-.04 2.1209.127.9854.266 1.7563.757 2.3126 1.474z" fill="#1d2226"/><path d="m27.4227 209.336-.5856 1.207c.0164.013.3812.137 1.0943.373.892.232 1.7884.299 2.6892.2 1.1666-.127 2.2428-.536 3.2284-1.226l-.7705-1.104c-.7901.564-1.6578.898-2.6029 1.001-.7236.079-1.4544.024-2.1922-.164-.1525-.028-.3689-.094-.6492-.198l-.1869-.07z" fill="#1d2226"/><path d="m32.1472 214.626.4306.043c.3477.036.7151.049 1.1023.036-.0916-.154-.1469-.387-.1659-.699-.0417-.518-.0809-1.015-.1176-1.489-.1716.482-.5881 1.185-1.2494 2.109z" fill="#1d2226"/><path d="m29.3107 211.237-2.0122-.364.0214.402c.0896.274.3198.465.6903.574.4017.121.8217.067 1.2602-.16.4352-.256.4487-.407.0403-.452z" fill="#b4d8db"/><path d="m29.4825 205.614c-.5443-.194-.9173-.258-1.1193-.191-.1739.048-.2675.081-.2807.097-.1348.135-.2231.421-.265.859-.0405.587-.0111 1.062.0882 1.425.1174.39.2773.418.4797.082.8887-1.442 1.2544-2.199 1.0971-2.272z" fill="#b4d8db"/><path d="m30.0585 203.288c.0115-.032-.0123-.044-.0713-.037-.3757-.019-.7283-.033-1.0581-.042-.6594-.018-1.0705.05-1.2332.202-.2022.201-.3017.317-.2984.346.018.028.1607.035.4281.021.1936-.006.6496-.004 1.3681.007.6267-.008.9181-.077.874-.207-.026-.102-.0291-.199-.0092-.29z" fill="#b4d8db"/></g></svg>