<svg fill="none" height="208" viewBox="0 0 293 208" width="293" xmlns="http://www.w3.org/2000/svg" xmlns:xlink="http://www.w3.org/1999/xlink"><clipPath id="a"><path d="m144 28h74.0944v70h-74.0944z"/></clipPath><path d="m93.6585 2-91.6585 74.518h144.5 144.5l-144.5 117.482" stroke="#f2be19" stroke-dasharray="5.75 5.75" stroke-linejoin="round" stroke-width="2.8742"/><circle cx="143.581" cy="197.581" fill="#f2be19" r="9.58067"/><g clip-path="url(#a)"><path d="m145.757 49.8652c1.058 2.5118 3.755 4.2745 8.092 5.2881 6.693 1.5405 18.218 1.8945 34.577 1.0621l5.068-.6986-.96-16.4479c-6.992.0703-14.184.5757-21.574 1.5163-14.797 1.8662-23.198 4.9595-25.203 9.28z" fill="#ffc23b"/><path d="m155.043 54.052c-2.161-.767-5.323-1.939-9.485-3.5161 5.259 2.9498 9.144 4.8779 11.655 5.7843 1.818.7247 8.382.8124 19.694.2633 5.647-.2902 11.12-.642 16.418-1.0554.125-.5603.113-1.3712-.038-2.4328-4.578.2524-9.311.4906-14.2.7147-9.742.4784-15.346.6765-16.813.5944-.195-.0034-1.349-.033-3.464-.0888-1.381-.0228-2.637-.1106-3.767-.2636z" fill="#fff140"/><path d="m144.929 50.6015.318.3931c.159.2005.358.3904.597.5695.633.4941 1.5 1.0865 2.601 1.7771l2.614 1.6059c1.205.7974 2.031 1.3763 2.476 1.7366l.177.0858.074.0195c.935.1495 2.428.2624 4.479.3386l4.362.054c2.955.0005 5.86-.0201 8.714-.0617l8.663-.1071c3.86-.059 6.749-.0704 8.667-.0342l.026.0226.071-.029 5.078-.5532-.204-1.6182-5.062.7956-8.604.2494c-3.208.0973-6.094.1572-8.658.1797-3.195.0478-6.078.0264-8.649-.0643-1.693-.0672-3.128-.1596-4.304-.277-1.781-.1589-3.159-.3848-4.136-.6777l.25.1053c-1.916-.7507-3.73-1.6624-5.44-2.735-1.015-.6313-1.824-1.1951-2.425-1.6914l-.47-.4805c-.073-.0769-.127-.1546-.161-.2329l.021-.0501.181-.2067c.308-.2637.485-.4053.532-.4246 1.098-.8353 2.801-1.8564 5.108-3.0634 2.121-1.1257 3.898-2.0056 5.33-2.6397 1.88-.4032 4.783-.8295 8.707-1.2789 1.982-.2278 4.974-.522 8.977-.8827 3.001-.2785 5.997-.5242 8.986-.7371l4.507-.3451c1.811-.1191 3.312-.2503 4.504-.3936l-.107-1.6246c-1.346.0236-4.355.189-9.027.4962l-9.038.6919c-2.487.196-5.495.4994-9.023.91-3.994.49-7 .9555-9.016 1.3966l-.097.0064-.094.0549c-2.2 1.1026-4.003 2.0816-5.408 2.937-1.328.7855-2.202 1.3219-2.622 1.6093-1.088.7372-1.924 1.3523-2.508 1.8453l-.62.5765-.291.3845-.152.2778c-.057.1336-.088.2737-.095.4202l.013.194z" fill="#1d2226"/><path d="m154.743 50.224c.558-.1504.823-.1922.795-.1254-.044.0679.874-.4227 2.753-1.4717 2.178-1.1985 3.56-1.7765 4.147-1.7339 1.012.0795 11.231-.6818 30.656-2.2841l-.116-1.7701-33.328 2.3868-8.266 5.0245 2.523.2237c.287-.0838.565-.1671.836-.2498z" fill="#fff140"/><path d="m160.835 47.7048-5.47 1.9914 5.819 1.8334 31.857-2.1683-.281-4.2676z" fill="#6d451d"/><path d="m160.95 47.5995-4.986 1.9353c6.095-.3847 12.206-.7785 18.332-1.1814 12.255-.7897 18.429-1.204 18.524-1.2427l-.472-1.9902z" fill="#b77b3e"/><path d="m160.901 52.0349.05.0211 32.133-2.0403-.096-1.4549-31.993 2.6886-4.139-1.0915 4.287-1.8405 31.76-2.5272-.12-1.4533-32.027 2.5447-7.094 3.5838z" fill="#1d2226"/><path d="m195.645 48.5812c.452.4573.977.6662 1.575.6269l13.288-.8739c.598-.0394 1.083-.3148 1.455-.8263.39-.4965.562-1.0922.516-1.7873s-.295-1.2713-.747-1.7286c-.436-.4584-.953-.6679-1.551-.6286l-13.288.8739c-.598.0394-1.091.3153-1.48.8279-.388.5126-.559 1.1165-.514 1.8116.046.6951.294 1.2632.746 1.7044z" fill="#b77b3e"/><path d="m211.915 46.415-.827-2.941-13.263.8724-.991 2.33 13.263-.8724z" fill="#6d451d"/><path d="m196.716 49.7037c.164.0217.416.0214.755-.0009l13.199-.7464.433-.0772c.302-.101.562-.2236.78-.3678.449-.3218.786-.7499 1.011-1.2842.212-.4847.308-1.0024.288-1.5531l-.002-.0242c-.035-.5335-.19-1.0347-.464-1.5037-.293-.5003-.683-.8805-1.171-1.1406-.22-.1317-.494-.2273-.823-.2869-.181-.0368-.449-.0435-.805-.0201l-13.181 1.0131c-.145.0095-.289.0433-.431.1014-.208.0462-.452.1677-.731.3647-.419.3035-.733.7138-.942 1.2308-.196.4837-.276.9842-.242 1.5015.034.5172.187.9942.459 1.4309.274.469.639.8346 1.095 1.0969.235.1144.492.203.772.2658zm.153-1.0085c-.098-.0098-.247-.0568-.447-.141-.287-.1598-.522-.396-.704-.7087-.183-.3126-.278-.6473-.286-1.004-.023-.3556.035-.7004.176-1.0344.141-.3177.344-.5665.608-.7462.124-.0893.266-.1555.426-.1984l.19-.0613 13.176-.7205c.227-.0148.389-.0174.487-.0076l.399.1442c.55.301.852.817.905 1.5477l.002.0243c.033.314-.011.6254-.133.9341-.127.3006-.305.5477-.536.7415l-.377.1953-.191.0612-1.597.1538c-1.726.1622-3.438.2992-5.135.4108l-6.426.4226c-.243.0159-.421.0115-.537-.0134z" fill="#1d2226"/><path d="m191.685 36.154 1.848 21.7958 5.448-.8454-1.841-20.5786z" fill="#6d451d"/><path d="m195.654 54.6442c-.333-3.079-.737-6.1452-1.214-9.1985-.953-6.0904-1.806-9.0622-2.559-8.9152-.273.0504.024 3.5701.889 10.5592.425 3.4951.882 6.988 1.371 10.4789l4.745-.7992-.338-1.4389z" fill="#b77b3e"/><path d="m192.531 52.7066c.197 2.5035.258 4.3015.184 5.3942l-.08 1.0037 7.514-1.2735-.175-.8164c-.238-1.1533-.513-2.8562-.823-5.1087-.182-1.5303-.352-3.2482-.51-5.1536-.144-1.6952-.256-3.4087-.338-5.1405-.093-1.9096-.15-3.6349-.17-5.1759l.019-.8292-7.329.0193.138.9894c.059.402.258 2.191.597 5.367zm1.816 4.2884c-.193-1.0856-.363-2.5519-.509-4.3987l-.995-15.1306 3.626-.0436c.171 1.0776.379 2.5089.623 4.2937.211 1.7233.397 3.432.557 5.1262.177 1.7092.315 3.4292.412 5.16.072 1.5863.11 3.0287.114 4.3272z" fill="#1d2226"/><path d="m213.638 41.1389c-.962-.3101-1.903-.4349-2.825-.3743l.654 9.9415c.921-.0606 1.836-.348 2.744-.8623 1.799-1.0275 2.624-2.6809 2.474-4.9602-.123-1.8751-1.139-3.1234-3.047-3.7447z" fill="#ffc23b"/><path d="m216.486 45.5543c.031-1.7554-.919-3.1135-2.849-4.0743-.973-.4718-1.942-.7733-2.909-.9046l.219 3.3219c.386-.5449 1.434-.4028 3.145.4263.838.3995 1.636.8097 2.394 1.2307z" fill="#a86b09"/><path d="m211.392 51.4174c1.034-.068 2.052-.3866 3.054-.9558.891-.5294 1.578-1.1915 2.061-1.9863.598-1.0297.851-2.2396.76-3.6298-.079-1.1962-.493-2.1837-1.242-2.9624-.803-.8564-1.943-1.4064-3.421-1.6502-.723-.131-1.375-.1774-1.957-.1391l-.679.0446.745 11.3237zm3.924-3.6431c-.293.4739-.665.8717-1.114 1.1935-.511.3746-1.157.6768-1.938.9067l-.263.0661-.557-8.4625c.701.0241 1.367.1507 1.998.3801.699.2624 1.241.6083 1.627 1.0375.489.536.761 1.2163.816 2.0407.072 1.0992-.117 2.0452-.569 2.8379z" fill="#1d2226"/><path d="m215.275 46.7785c-.175-.1995-.7-.4004-1.574-.6027-.891-.2174-1.33-.2291-1.317-.0351-.005.6659.002 1.2581.019 1.7765.065.986.214 1.5201.447 1.6022.282.0951.783-.3112 1.503-1.219.737-.8766 1.045-1.3838.922-1.5219z" fill="#fff140"/><path d="m203.759 56.2567c.536 1.5391.941 2.581 1.217 3.1257.81.9113 1.773 1.597 2.891 2.057 2.218.9201 4.088.26 5.609-1.9803.307-.9171.289-2.8765-.052-5.8782-.358-3.1301-.845-4.8703-1.46-5.2204-.891-.5255-2.324-.4378-4.299.263-2.363.8313-4.152 2.3181-5.365 4.4605.519.8165 1.005 1.874 1.459 3.1727z" fill="#756f6c"/><path d="m209.105 61.5052c.551.0453 1.126.0183 1.725-.0812 1.198-.2149 1.926-.7166 2.185-1.5049.274-1.6558.2-3.8558-.223-6.6001-.455-2.8566-1.039-4.4436-1.751-4.7612-.859-.4453-2.243-.3257-4.153.3587-2.299.8309-3.577 2.3151-3.835 4.4526 2.153-.8784 3.805.2133 4.957 3.2751.583 1.5228.949 3.1432 1.095 4.861z" fill="#494644"/><path d="m202.567 53.0587c-.048.0484.146.4811.584 1.2979.598-1.7698 1.634-2.7147 3.107-2.8347 1.295-.1031 2.291.3335 2.988 1.3097.6 1.2015 1.006 3.0063 1.217 5.4144.098 1.2041.139 2.288.124 3.2518 1.036-.3426 2.031-.8055 2.986-1.3886.049-.2733.218-.9086.509-1.9059.226-.7561.339-1.4473.339-2.0737.031-1.8151-.828-4.3564-2.579-7.6239l-.34-.8414c-1.49-.0887-2.988.0234-4.493.3363-3.044.642-4.654 1.9754-4.831 4z" fill="#3a3736"/><path d="m204.077 59.0255c.227.5931.47 1.0898.729 1.49.406.6403.956 1.1193 1.653 1.437.583.2861 1.417.4906 2.502.6135l.412.022c.761-.0039 1.627-.2573 2.599-.7602.955-.5189 1.764-1.3021 2.427-2.3495.259-.4189.453-.7973.582-1.1353.129-.4182.194-.8281.194-1.2297l-.001-.1927c-.082-1.686-.374-3.379-.877-5.0789-.551-1.8442-1.281-3.4386-2.188-4.7831l-.947.6313c.842 1.2324 1.523 2.7226 2.042 4.4706.487 1.6358.763 3.2405.829 4.8142v.1445c0 .2891-.04.5784-.121.8679-.097.2736-.25.5715-.461.8938-.598.9025-1.27 1.5484-2.014 1.9377-.761.4216-1.449.6339-2.064.6371l-.267-.0228c-.648-.0769-1.174-.1706-1.579-.2809-.583-.1737-1.061-.4443-1.434-.8118-.356-.3997-.672-.9682-.948-1.7056l-1.362-4.2814c-.487-1.0094-.876-2.0112-1.168-3.0055l-1.092.3429c.308 1.0585.721 2.1164 1.24 3.1738.097.2083.195.4808.292.8176z" fill="#1d2226"/><path d="m211.041 48.4376c1.991.0219 2.882-.3361 2.671-1.0738-.292-1.0585-1.661-2.4569-4.107-4.195-2.559-1.8178-4.43-2.555-5.611-2.2116-1.198.3434-2.153 1.2959-2.864 2.8576-.631 1.4166-.825 2.6624-.581 3.7372.292 1.2513.972 1.8742 2.041 1.8687.405-.0021 1.562-.2731 3.472-.8129.535-.1473 2.194-.2041 4.979-.1702z" fill="#926530"/><path d="m201.523 53.2326.001.9396c1.408-.9709 2.913-1.7897 4.516-2.4565 3.172-1.3173 5.666-1.4345 7.48-.3517.21-.4026.469-.5726.776-.5099.065.0157-.251-.3521-.947-1.1034-2.948-2.3779-6.017-2.852-9.206-1.4222-1.262.5686-2.152 1.3201-2.67 2.2543-.55.9665-.533 1.8498.05 2.6498z" fill="#ffc23b"/><path d="m206.739 43.0388c3.578-.4841 4.768 1.0115 3.572 4.4869.308.3196.883.5415 1.725.6657l1.166.1144.314-2.0735c-.098-1.6699-.908-3.1755-2.431-4.5168-.437-.3832-.866-.638-1.287-.7643-.389-.0944-.689-.0607-.899.101-1.182-.6846-2.874-.7-5.076-.0462-2.444.7354-3.544 2.0982-3.3 4.0886.356-.2267 1.1-.5518 2.233-.9752 1.49-.5538 2.817-.9139 3.983-1.0806z" fill="#6d451d"/><path d="m208.685 49.2685c.243.336.414.6644.511.9851l.097.3609 3.595.0056-.147-.9629c-.227-.6574-.656-1.0727-1.287-1.2462-.664-.1732-1.871-.1429-3.619.0909-1.328.1675-2.364.3495-3.108.5461.566-.0993 1.149-.1666 1.748-.2018 1.231-.0545 1.967.0863 2.21.4223z" fill="#a86b09"/><path d="m212.643 47.0799c.001.771-.063 1.5342-.193 2.2898l1.458.2093c.129-.8198.193-1.6553.193-2.5066-.001-1.4294-.237-2.6328-.707-3.6101-.584-1.298-1.547-2.2326-2.892-2.8039-.955-.3966-2.008-.592-3.157-.5861-.324.0017-.664.0195-1.02.0535l-.486.0747c-1.165.1506-2.201.3968-3.108.7388-1.165.4397-2.031 1.0866-2.597 1.9407-.162.2418-.291.5878-.388 1.038-.065.3055-.097.651-.097 1.0364 0 .1446.025.6263.074 1.4452l.122.9389c.097.5777.235 1.1633.414 1.7566l.292.8176c.081.2245.202.4487.364.6727l1.19-.8493c-.097-.0959-.195-.2961-.292-.6008-.13-.3366-.276-.8498-.438-1.5396l-.269-2.6488c0-.3051.024-.5622.073-.7713.048-.2412.105-.4101.169-.5068.372-.5801 1.012-1.0412 1.918-1.3831.696-.2927 1.611-.5142 2.744-.6646l.194-.0251c.437-.0504.818-.0765 1.142-.0782.599-.003 1.166.0583 1.7.184 1.052.2516 1.862.7212 2.429 1.409.778.9115 1.167 2.2345 1.168 3.9691z" fill="#1d2226"/><path d="m202.205 54.3373c.259-.0013.469-.0426.631-.1237.227-.0815.429-.195.607-.3404.275-.2263.753-.5018 1.432-.8265 1.7-.86 3.391-1.3747 5.075-1.5439l.753-.028c.47-.0024.826.0118 1.069.0427l.68.0928c.485.0779.793.1164.923.1158.226-.0012.437-.0344.631-.0997l.267-.17c.113-.0969.186-.2097.218-.3384l.025-.2169-.025-.2408c-.016-.1284-.065-.2567-.146-.3848l-.753-1.2971c-.308-.4963-.705-.8797-1.191-1.1502-.389-.239-.891-.413-1.506-.5223-.583-.1094-1.223-.1624-1.919-.1588-1.441.0074-2.841.2315-4.201.6721-1.182.3434-2.048.661-2.598.953-.583.3081-1.109.7766-1.578 1.4054-.534.7416-.8 1.4416-.8 2.1002 0 .2569.049.5217.146.7942.081.2727.227.4887.438.6483.129.1117.324.2232.583.3343.486.1902.899.2844 1.239.2827zm-.949-2.067c-.032-.3211.137-.7315.51-1.2314.339-.4675.703-.7906 1.092-.9693.34-.1944 1.117-.4875 2.331-.8793 1.246-.3918 2.509-.5911 3.788-.5977.583-.003 1.133.0424 1.652.1361.372.0623.72.173 1.044.3319.275.1753.502.407.68.6952l.025-.0002.243.4324-.729-.1167-2.088-.0133c-1.895.2185-3.748.7822-5.561 1.691-.744.3411-1.311.6733-1.699.9965l-.195.1214-.145.0249c-.114.0006-.348-.0625-.705-.1891l-.145-.0475-.025-.0239-.024-.0722c-.032-.0641-.049-.1603-.049-.2888z" fill="#1d2226"/><path d="m201.863 52.3396c.033.1123.891-.2134 2.574-.9769.842-.3898 1.683-.7877 2.525-1.1935 1.052-.3909.939-.5911-.34-.6006-1.263.0065-2.396.2693-3.4.7885-.906.4543-1.4.9227-1.481 1.4049z" fill="#fff140"/><path d="m208.077 46.5251c.21-.242.275-.5234.194-.8442-.033-.1123.307-.3469 1.019-.7039.664-.3247.899-.5347.704-.6301-.518-.2543-1.66-.3448-3.424-.2714-1.814.0735-3.327.2901-4.541.6497-.696.1963-.931.8641-.704 2.0033l.56 1.6354c1.522-.4897 3.23-.9241 5.124-1.3033.485-.0989.841-.2774 1.068-.5355z" fill="#b77b3e"/><path d="m204.822 46.0121c.922-1.6109.889-2.5503-.099-2.8183-.712-.173-1.7-.0233-2.962.4489-.939.3422-1.757.9647-2.452 1.8677-.744.9836-.874 1.7793-.387 2.3871.874 1.1038 2.121 1.1215 3.74.0531.809-.5342 1.529-1.1804 2.16-1.9385z" fill="#ffc23b"/><path d="m204.481 44.8332.632.9123c.356-.5801.477-1.2472.363-2.0015l-.17-.2401c-.162-.1598-.397-.279-.704-.3577-.939-.2201-2.315.1002-4.128.9608-.583.276-1.085.9291-1.505 1.9592-.291.9331-.412 1.3513-.363 1.2547.113-.2576.453-.6448 1.019-1.1617.728-.6944 1.464-1.18 2.209-1.4569 1.117-.4233 1.999-.3797 2.647.1309z" fill="#a86b09"/><path d="m203.73 46.9572c.631-.5494.931-.9846.898-1.3056-.033-.289-.276-.4323-.729-.4299-.469.0024-1.254.3999-2.355 1.1926-1.133.8249-1.521 1.3811-1.165 1.6683.324.2553.98.1395 1.967-.3474z" fill="#fff140"/><path d="m205.769 45.5253c.162-.3542.259-.6599.291-.917.032-.4017-.017-.7548-.146-1.0593-.146-.3847-.422-.6644-.827-.839-.226-.1112-.558-.1818-.996-.2117l-.874.0286-1.7.2738-.437.1227-.485.2193.534.8164.098-.0487.509-.1472.778-.1003c.242-.0495.501-.0749.777-.0763.34-.0339.591-.0432.753-.028.226-.0011.421.038.582.1175.114.0476.211.1434.292.2876.049.1603.065.3369.049.5298-.032.1929-.097.402-.194.6273-.42.9659-1.043 1.6999-1.869 2.202-.809.5182-1.756.8202-2.841.9061l.074.9633c1.311-.055 2.428-.3819 3.351-.981 1.052-.6478 1.812-1.5431 2.281-2.6859z" fill="#1d2226"/><path d="m200.914 48.2486-.025.0002-.121.4342zm-2.138-.0612c.211.4325.559.8082 1.045 1.1269.324.2071.543.3104.656.3098l.412-1.3753c-.259-.1272-.445-.2467-.558-.3585-.13-.1279-.227-.2639-.292-.4081-.081-.1923-.122-.4089-.122-.6499 0-.3694.097-.7794.291-1.2301.226-.5634.606-1.1997 1.14-1.9092l-1.166-.8613c-.566.7417-1.011 1.4829-1.335 2.2233-.258.6278-.387 1.2227-.387 1.7848 0 .514.106.9632.316 1.3476z" fill="#1d2226"/><path d="m205.574 45.4302-.024-.024-.267 1.0855c.405.0783.891.1159 1.458.113.939-.0048 1.829-.162 2.671-.4715 1.149-.4556 2.136-1.1594 2.962-2.1112l.048-.0726.049-.0966c.064-.2573.096-.4422.096-.5546 0-.2891-.089-.5537-.267-.7937-.097-.1279-.195-.2238-.292-.2876l-.606.8946.145-.2417-.17.2418.049.0479.024.1445v.1204c-.688.7734-1.497 1.3317-2.427 1.6749-.745.2768-1.506.4173-2.283.4213-.324.0016-.615-.0129-.874-.0437l-.243-.047z" fill="#1d2226"/><path d="m198.418 56.0951c.586-1.6273.748-2.6863.487-3.1771-.474-1.271-1.105-2.5677-1.894-3.89-1.564-2.6334-3.153-4.0663-4.766-4.2988-.853.0174-1.292.3263-1.316.9267-.014.5426.347 1.5506 1.083 3.0239.949 1.919 2.761 5.1531 5.435 9.7022.355-.711.678-1.4733.971-2.2869z" fill="#ffc23b"/><path d="m196.214 52.2458c-.682-.0208-1.271-.4991-1.768-1.4351-.36-.6965-1.388-2.5562-3.082-5.5792-.092.0249-.187.1019-.286.2308-.187.2461-.27.6459-.25 1.1992.154 4.1274.981 7.3988 2.479 9.8143.761 1.2075 1.5 1.9944 2.218 2.3605.353-1.0456.683-2.1138.989-3.2046.61-2.2046.801-3.4257.573-3.6633-.236.1778-.527.2703-.873.2774z" fill="#a86b09"/><path d="m197.85 49.2183c-.752-1.2885-1.419-2.3075-2.001-3.0572-.532-.6353-.977-1.0993-1.334-1.392-.297-.2362-.587-.4322-.87-.588-.423-.199-.819-.2948-1.188-.2873-.208.0042-.431.0492-.67.1348l-.509.2873c-.316.191-.578.4559-.784.7947-.372.5614-.596 1.2063-.673 1.9348-.11 1.0521.017 2.2956.382 3.7304.322 1.1934.762 2.3324 1.322 3.4171.584 1.1073 1.171 2.151 1.762 3.1312l1.898 3.0593.873 1.1244.665-1.2077c.606-1.0738 1.203-2.2455 1.79-3.5151.372-.8729.62-1.4952.744-1.8669.105-.2791.202-.6214.291-1.027.06-.2551.087-.4633.081-.6247.011-.3233-.047-.6221-.172-.8965-.502-1.0743-1.038-2.1248-1.607-3.1516zm-6.412 1.2554c-.312-1.2512-.404-2.3281-.276-3.2307.084-.5439.234-.9912.452-1.3418.121-.1524.272-.2882.452-.4072.181-.1191.328-.1798.444-.1821.265-.017.623.1661 1.076.5492.383.3614.739.7637 1.067 1.207 1.118 1.5002 2.231 3.4967 3.34 5.9893l.021.0861-.037-.0685c.013.0575.015.092.003.1038l-.056.3473-.247.8011c-.167.4649-.417 1.0296-.751 1.694-.332.7095-.715 1.4499-1.146 2.2213-1.182-1.4913-2.226-3.0334-3.133-4.6263-.557-.9924-.96-2.0399-1.209-3.1425z" fill="#1d2226"/><path d="m201.46 48.9893-2.7 11.1658 3.214 4.0016c.64-.4861 1.382-1.1531 2.228-2.001 1.69-1.719 3.049-3.5177 4.075-5.3961-.572-1.4075-1.877-3.1289-3.915-5.1642z" fill="#926530"/><path d="m197.041 48.4213c.295.4786.443.7525.446.8217.051 1.3604-.172 2.9629-.669 4.8075-.11.4522-.67 2.3039-1.68 5.555.365.8118 1.311 2.0386 2.839 3.6805 1.539 1.6531 2.66 2.6225 3.363 2.9082.883.1436 2.309-.7796 4.278-2.7696 1.791-1.8018 3.119-3.4845 3.984-5.0482.618-1.0855.648-2.1246.092-3.117-.495-.8899-1.209-1.4407-2.14-1.6525-.569 2.0653-1.741 4.0852-3.514 6.0597-.874.9985-1.699 1.7883-2.474 2.3694l-1.964-2.0541c1.007-1.4742 1.778-3.0821 2.313-4.8237.617-2.0432.845-4.1189.686-6.227-.132-1.9934-.692-3.3665-1.678-4.1195-.678-.5284-1.528-.7419-2.552-.6403-.459.0556-.89.4278-1.291 1.1167-.413.7006-.59 1.3677-.532 2.001.022.265.186.6424.493 1.1322z" fill="#ffc23b"/><path d="m196.186 58.9267c-.151-.0085-.286.0635-.408.216-.12.1755-.169.4072-.147.6952s.748 1.1732 2.177 2.6555c1.358 1.4377 2.286 2.3245 2.783 2.6605.451.3139.843.4732 1.178.4779.346-.0071.721-.1762 1.124-.5075-.555-.0348-2.791-2.1007-6.707-6.1976z" fill="#a86b09"/><path d="m207.163 54.7399c-.556-.6809-.946-1.0825-1.17-1.2049-.397.8042-.829 1.6091-1.295 2.4147-.968 1.6004-1.665 2.3991-2.093 2.3963-.416-.0146-.753-.2443-1.012-.689l-.267-.6522-1.724 2.9773 2.385 2.2185z" fill="#724a22"/><path d="m202.284 49.7336c-.17-3.631-1.075-5.4528-2.714-5.4656-.058-.0103.125.2744.551.8541.457.7868.679 1.6534.669 2.5997-.031 2.262-.309 4.4252-.832 6.4896-.563 2.2267-1.3 3.8224-2.211 4.787l1.047 1.121c.634-.6245 1.259-1.5256 1.873-2.7034 1.205-2.3551 1.744-4.916 1.617-7.6824z" fill="#a86b09"/><path d="m207.191 59.6716c-2.089 2.477-3.458 3.9875-4.107 4.5314-1.109.911-2.122 1.1451-3.039.7023.863.8592 1.534 1.359 2.013 1.4993.571.1614 1.163-.0583 1.776-.6592.612-.6009 1.657-1.851 3.132-3.7501 1.388-1.8051 2.31-3.0815 2.766-3.8292.382-.5962.483-1.1348.304-1.6157-.04-.1261-.303-.5419-.791-1.2473-.033.3699-.148.828-.347 1.3743-.375 1.0922-.944 2.0903-1.707 2.9942z" fill="#a86b09"/><path d="m198.413 43.9111c-.447.0899-.916.3475-1.408.7729-.513.495-1.069 1.3717-1.668 2.63l1.362.3184c-.037-1.0146.214-1.8562.755-2.5249.121-.1524.277-.2941.469-.4249.179-.1421.36-.2265.544-.2534.517-.0682.968-.0543 1.352.0417.433.1412.776.3765 1.031.7059.23.2838.394.6727.494 1.1668.056.2758.096.7134.118 1.3129l.008.6748c-.034.3238-.049.5548-.044.6932.127 1.855-.012 3.6808-.419 5.4774-.444 2.0051-1.126 3.6861-2.045 5.0432l-.345.5089 2.322 2.3584.073.1023.09.0847c.072.0678.16.1179.265.1504.141.0664.309.0802.504.0417.069-.0014.172-.0266.309-.0756l.321-.1969.436-.3896c.322-.3411.747-.8632 1.275-1.5662l2.201-3.1947c.414-.6545.744-1.2439.99-1.7681l.402-.8216c.032-.0814.087-.1633.164-.2456l.034-.0353.157.0487.319.2012.68.5746c.444.464.633.8755.565 1.2345-.002.2424-.237.7433-.705 1.5028-.455.8169-1.167 1.8467-2.136 3.0894-.914 1.1839-1.751 2.1067-2.511 2.7683l-.353.3014c-.157.1186-.263.2188-.317.3007-.265.3284-.459.5573-.581.6867-.198.2579-.404.464-.617.6183-.195.1832-.393.2853-.595.3064-.09-.0234-.226-.0841-.405-.1822l-.479-.319c-.107-.0786-.417-.3261-.928-.7426-.526-.4739-1.101-1.0391-1.726-1.6955-.385-.4076-.909-1.0141-1.574-1.8198-.45-.6023-.681-.9207-.694-.955-.23-.3055-.396-.5732-.497-.8033.763-1.5948 1.341-3.2622 1.735-5.0023.196-.9271.33-1.8355.4-2.7253.018-.1388.041-.5951.07-1.3687l-.051-1.3835-1.367.0452.032 1.2973c.018.4842.011.9228-.021 1.3157-.028.7967-.123 1.6524-.285 2.5672-.262 1.6437-.718 3.3375-1.368 5.0814l-.063.1744.074.1369c.162.3082.401.6783.717 1.1103l4.218 4.4485.93.8117c.477.4057.834.6753 1.07.809l.087.0155c.314.0744.729.0429 1.243-.0945l1.022-.4362c.205-.0965.498-.2755.881-.5371.056-.0358.179-.1537.368-.3536l.349-.3706c1.104-1.3609 1.914-2.3984 2.429-3.1127.822-1.1821 1.513-2.298 2.074-3.3478.303-.56.465-.8518.487-.8753.171-.3727.278-.7498.322-1.1315.029-.439-.056-.8642-.256-1.2754-.137-.2857-.363-.5984-.675-.9381-.276-.2598-.556-.4906-.84-.6925-.44-.3487-.862-.5247-1.266-.528-.323.0065-.596.1275-.818.3627-.134.1181-.266.2939-.396.5273-.076.1285-.226.4315-.451.9091-.247.5012-.556 1.0209-.929 1.5592l-1.136 1.5635c-.886 1.2987-1.641 2.2775-2.263 2.9362l-.151.1243-1.243-1.3073c.904-1.4136 1.604-3.0778 2.099-4.9925.513-2.0295.727-4.0184.643-5.9665-.158-1.1506-.456-2.1541-.892-3.0105-.309-.5591-.643-.9965-1.001-1.3122-.395-.3728-.883-.6109-1.464-.7144-.394-.0612-.897-.0683-1.507-.0213z" fill="#1d2226"/><path d="m202.822 49.3077-1.106 1.459.053.0162c.654.5059 1.334 1.092 2.039 1.7584.527.4969.965.9553 1.316 1.375.433.4758.767.9247 1.002 1.3468l1.594-.8978c-.271-.479-.679-1.0303-1.221-1.6538-.399-.465-.879-.9628-1.441-1.4937-.479-.4517-.992-.9028-1.54-1.3531-.452-.36-.684-.5457-.696-.557z" fill="#1d2226"/><path d="m205.056 60.892c1.26-1.5025 2.557-3.4038 3.891-5.7039-.1-.1825-.232-.3183-.397-.4072-.306-.1553-.593.0178-.863.5194-.41.7699-1.151 1.9618-2.222 3.5758-1.258 1.8601-2.181 3.0904-2.771 3.6908.293.4094 1.08-.1489 2.362-1.6749z" fill="#fff140"/><path d="m199.105 44.8313c-.119-.1129-.461.0209-1.024.4016-.586.3812-.908.7108-.967.9889-.01.0348.172.7291.545 2.083.388 1.4112.5 2.7185.337 3.9217-.282 2.0249-.822 4.2626-1.619 6.7133.231.0184.537-.1378.917-.4686.73-.8687 1.284-2.4029 1.664-4.6028.142-.8452.334-2.4875.578-4.9269.101-.9943.059-1.9799-.128-2.9568-.087-.4828-.188-.8673-.303-1.1534z" fill="#fff140"/><path d="m191.985 45.6515c.018.4612.831 1.8407 2.44 4.1385.768 1.0805 1.304 1.5311 1.609 1.3518.158-.0955.232-.2931.221-.5929-.778-1.6687-1.529-3.0552-2.251-4.1597-.453-.6946-.921-1.0254-1.405-.9925z" fill="#fff140"/><path d="m203.346 52.2043c-.298.0522-.555.744-.771 2.0752-.227 1.343-.24 2.2317-.039 2.666.176.3887.612.1549 1.307-.7016.652-.7863 1.033-1.394 1.144-1.8231.123-.4179-.424-1.1567-1.641-2.2165z" fill="#b77b3e"/><path d="m189.239 90.1803c.939-1.5044 1.248-2.693.927-3.5659-1.429-.7582-2.948-1.2394-4.557-1.4435-3.241-.3902-5.318.7898-6.231 3.5399-.416 1.7467-.492 2.8994-.228 3.4581.44 1.0349 1.875 1.4532 4.306 1.2549 2.642-.2257 4.57-1.3069 5.783-3.2435z" fill="#494644"/><path d="m187.55 94.9295c.792-1.0652 1.035-2.0241.727-2.8769-.569.5524-1.405.9735-2.509 1.2634-2.172.5819-4.562.2283-7.171-1.0607-.383 1.6318-.392 2.8076-.027 3.5274.493.9795 1.684 1.4428 3.572 1.3899 2.525-.0765 4.327-.8242 5.408-2.2431z" fill="#ffc23b"/><path d="m187.53 92.4206c.311-.1775.64-.6068.987-1.2879-3.422.611-5.083-.1792-4.982-2.3707.057-1.0857.449-2.2407 1.176-3.4649l-4.37.4915c-.634 1.2876-.957 2.5532-.967 3.797-.002 2.4886 1.569 3.653 4.711 3.4934 1.711-.082 2.859-.3015 3.445-.6584z" fill="#3a3736"/><path d="m179.193 95.5541c.937 1.2369 3.051 1.3324 6.34.2864-.417.094-.888.0878-1.413-.0185-1.021-.2499-1.798-.9241-2.331-2.0224l-3.018-.4266-.044.7267c.02.565.176 1.0498.466 1.4544z" fill="#a86b09"/><path d="m191.32 86.0938.437-1.4053-7.536-.3806c-.122-.0261-.265-.0436-.43-.0525-.894-.0487-1.719.1106-2.475.4778-.576.2603-1.088.6505-1.536 1.1705-.472.5382-.828 1.2188-1.068 2.0417l-.508 2.5096c-.094.5782-.129 1.0138-.103 1.3068.024.429.096.7538.217.9742.226.4984.591.8682 1.095 1.1095.468.2393 1.149.3833 2.043.4319l.684.0372c1.318-.0061 2.464-.0896 3.438-.2505.678-.0993 1.293-.27 1.845-.5121.403-.1726.776-.405 1.121-.6973.477-.363.862-.8281 1.157-1.3953.238-.4343.454-.9863.65-1.6562.367-1.516.69-2.7525.969-3.7094zm-3.15 4.9907c-.14.2257-.317.4202-.532.5835-.381.2904-.934.5033-1.659.6389-.943.182-2.083.2756-3.419.2807l-.602-.0328c-.803-.0436-1.359-.1711-1.668-.3823-.186-.1268-.315-.2893-.387-.4876-.108-.2004-.124-.5901-.048-1.1693l.5-2.4808c.145-.4977.344-.8951.597-1.1924.147-.1865.332-.3417.553-.4658.251-.1613.573-.2799.966-.3557l.819-.043.246.0134.046.0317 6.004.2973c-.271.9535-.563 2.0847-.878 3.3936-.167.5742-.346 1.031-.538 1.3706z" fill="#1d2226"/><path d="m188.978 93.0823.068-.5212c-.017-.1954-.152-.368-.405-.5178-.324.1574-.541.3302-.652.5187l-.207.4261c-.114.3244-.252.6085-.416.8524-.355.5834-.72 1.0107-1.096 1.2819-.727.5243-1.814.786-3.26.7851-.814-.0053-1.389-.0366-1.724-.0937-.575-.1285-1.002-.317-1.281-.5655-.313-.3281-.505-.7176-.578-1.1688-.048-.2165-.052-.4889-.012-.8172l.043-.4351c.047-.0947.06-.1718.04-.2312-.027-.0987-.175-.1942-.445-.2866-.309.0415-.507.1182-.595.2301-.053.0554-.097.1405-.13.2554l-.186.5439c-.095.3254-.161.7107-.198 1.1559-.032.8731.22 1.5673.756 2.0825.474.473 1.098.7791 1.873.9185.489.1043 1.162.1506 2.018.1389.741.0014 1.456-.0667 2.145-.2042.93-.2022 1.704-.5684 2.322-1.0986.696-.5454 1.218-1.2558 1.566-2.1313.15-.3224.267-.6951.354-1.1182z" fill="#1d2226"/><path d="m189.151 86.763c-.387-.3904-1.144-.5288-2.271-.4151-1.163.1117-1.676.4727-1.539 1.0829.063.295.451.841 1.164 1.6381.682.7759 1.174 1.2499 1.477 1.4218.207-.2026.498-.8186.872-1.8482.372-1.088.471-1.7145.297-1.8795z" fill="#756f6c"/><path d="m186.532 94.3201c.431-.2683-.52-.2519-2.85.0491l.121.444c.166.3202.481.5123.944.5763.458.0833.891-.0682 1.3-.4542.207-.2026.369-.4077.485-.6152z" fill="#fff140"/><path d="m176.384 90.1134c-.792-1.2231-.986-2.216-.582-2.9786 1.498-.7328 3.06-1.2353 4.686-1.5075 3.272-.5304 5.231.347 5.878 2.6321.247 1.4613.212 2.4378-.105 2.9295-.538.9079-2.011 1.3517-4.417 1.3316-2.615-.0305-4.435-.8329-5.46-2.4071z" fill="#494644"/><path d="m177.614 94.0525c-.688-.8582-.838-1.6597-.449-2.4044.515.4354 1.309.7427 2.383.922 2.111.3624 4.53-.0848 7.258-1.3416.225 1.3656.121 2.3659-.313 3.0009-.586.864-1.819 1.3311-3.698 1.4016-2.512.0893-4.239-.4369-5.181-1.5785z" fill="#ffc23b"/><path d="m177.875 91.9159c-.293-.1321-.58-.4774-.861-1.0359 3.357.3108 5.09-.4635 5.2-2.3227.048-.9207-.233-1.8798-.841-2.8774l4.314.151c.509 1.0572.709 2.1149.6 3.1729-.238 2.1182-1.916 3.2054-5.037 3.2618-1.699.0349-2.824-.0817-3.375-.3497z" fill="#3a3736"/><path d="m185.893 94.0732c-1.054 1.1103-3.172 1.3208-6.354.6316.407.0546.877.0205 1.412-.1021 1.043-.2752 1.883-.8966 2.52-1.8641l3.052-.5477-.025.6158c-.075.4822-.276.9043-.605 1.2665z" fill="#a86b09"/><path d="m174.701 86.762-.301-1.1694 7.557-.785c.124-.0297.269-.0534.434-.071.897-.0961 1.705-.011 2.423.2553.551.1863 1.024.4871 1.421.9023.42.4293.709.9868.869 1.6727l.267 2.1051c.038.4863.031.855-.023 1.106-.065.3666-.168.6475-.31.8425-.273.438-.673.7751-1.2 1.0114-.489.2323-1.183.3965-2.08.4926l-.686.0735c-1.315.0755-2.45.0745-3.407-.0029-.667-.0431-1.264-.1507-1.792-.323-.385-.1223-.736-.2973-1.052-.525-.44-.2798-.78-.6521-1.02-1.1169-.196-.3551-.359-.8118-.489-1.37-.221-1.268-.425-2.3007-.611-3.0982zm2.664 4.0554c.118.1836.276.3383.474.4642.353.2238.884.3712 1.595.4422.924.0973 2.052.1072 3.385.0299l.604-.0648c.805-.0862 1.373-.2287 1.701-.4275.198-.1192.342-.2654.433-.4387.127-.1771.181-.5099.161-.9982l-.261-2.0811c-.097-.4147-.257-.7409-.482-.9784-.129-.1497-.298-.2706-.507-.3626-.235-.122-.544-.2033-.929-.2438l-.813.0135-.247.0265-.05.0298-6.019.6203c.178.7951.361 1.74.55 2.835.111.4785.246.8564.405 1.1337z" fill="#1d2226"/><path d="m176.367 92.5676-.019-.4395c.036-.1674.188-.3226.455-.4656.308.1142.508.248.6.4017l.166.35c.082.2692.193.5026.333.7001.298.4749.622.8163.971 1.0241.675.4018 1.734.5581 3.177.469.813-.0544 1.39-.1162 1.73-.1854.585-.1444 1.03-.331 1.333-.5597.343-.2983.572-.6417.688-1.0301.069-.1872.099-.4194.091-.6964l-.002-.3677c-.037-.0778-.042-.1426-.017-.1944.036-.0856.194-.176.472-.2712.304.0165.494.0696.572.1594.047.044.082.1138.105.2095l.133.4516c.064.2712.092.5951.087.9718-.053.7413-.371 1.3476-.955 1.8189-.518.4316-1.171.7304-1.958.8964-.497.1187-1.173.1993-2.026.2416-.74.0466-1.447.0324-2.121-.0425-.909-.1152-1.646-.3796-2.212-.7931-.642-.4217-1.095-.9945-1.358-1.7184-.118-.2652-.2-.5753-.245-.9301z" fill="#1d2226"/><path d="m176.802 87.1993c.423-.356 1.192-.5201 2.306-.4922 1.15.0239 1.627.2998 1.431.8276-.09.2549-.53.7435-1.318 1.4655-.756.7022-1.292 1.1358-1.61 1.3006-.188-.1597-.419-.6663-.693-1.5198-.267-.9033-.306-1.4305-.116-1.5817z" fill="#756f6c"/><path d="m178.689 93.4714c-.403-.202.543-.2462 2.84-.1325l-.163.3853c-.197.2827-.53.4654-.998.5483-.465.0989-.883-.0035-1.254-.3071-.187-.1598-.329-.3244-.425-.494z" fill="#fff140"/><path d="m200.559 85.5164c-.058-.305-.187-.6501-.389-1.0354-.419-.7705-.997-1.3644-1.735-1.7818-.258.0161-1.419.5939-3.483 1.7336-2.12 1.1879-3.132 1.8942-3.036 2.1189.121.3371.375.9712.762 1.9022.458 1.0434.854 1.8942 1.186 2.5523.345.626 1.612.5618 3.802-.1926 2.055-.7224 3.273-1.3404 3.654-1.8541.246-.321.197-.9631-.147-1.9262-.387-.931-.592-1.4367-.614-1.5169z" fill="#724a22"/><path d="m201.197 87.5633-.461-.8187-7.479 2.8172.287.915c.281.5939.687.8748 1.217.8427.728-.0482 1.928-.3531 3.601-.915 1.776-.5939 2.763-1.0755 2.959-1.4447.185-.321.144-.7865-.124-1.3965z" fill="#a86b09"/><path d="m200.703 84.5536c-.361-.626-.789-1.1638-1.286-1.6133-.347-.3049-.722-.4895-1.124-.5537-.123-.0161-.253-.0161-.389 0l-.178.0481-.53.2167c-.772.4013-1.737.9551-2.894 1.6614l-2.448 1.541-.174.0963c-.071.0642-.075.1926-.012.3853-.181.1926-.233.3772-.157.5538l1.616 4.0451.025.0241.002.0241.054.0963c.04.1123.092.1846.156.2167.135.1444.352.2729.652.3852.265.0642.603.0963 1.014.0963l.909-.0722c.947-.1445 2.049-.4414 3.305-.8909l1.589-.6501c.393-.2087.661-.3692.803-.4816l.232-.2167.042-.0481.016-.0723.021-.024.039-.0723.056-.1444.027-.2167c.015-.1766.012-.3853-.01-.6261-.064-.3852-.25-1.0193-.557-1.9021l-.528-1.3243-.027-.0482-.002-.0241-.03-.0722zm-.948.915.004.0481.497 1.228c.248.7384.394 1.2681.438 1.5892l.017.1926-.565.3371-1.454.626c-1.044.4334-2.067.7545-3.07.9631-.612.1445-1.089.1846-1.43.1204l-.116-.024-.025-.0241-.109-.1926-1.789-3.684c-.023-.0582-.058-.1064-.104-.1445l.131-.0722 2.61-1.2521c1.656-.7544 2.645-1.2039 2.968-1.3484l.419-.1685h.069c.109.0321.247.1204.412.2649.351.3531.663.7785.936 1.2761l.108.1926z" fill="#1d2226"/><path d="m200.943 87.0095-.622-1.3484c-.438.4013-1.019.8026-1.746 1.2039-.551.3211-1.173.61-1.867.8669-.677.2728-1.327.5056-1.95.6982-.653.2087-1.339.3772-2.059.5057l.622 1.3483c.414-.321.998-.6982 1.752-1.1316.639-.3532 1.26-.6662 1.86-.9391.673-.321 1.314-.5779 1.922-.7705.803-.2247 1.499-.3692 2.088-.4334z" fill="#1d2226"/><path d="m200.307 87.3225c-.086-.1124-.675.0321-1.768.4334-1.149.4495-1.814.6903-1.994.7224-.284.0642-.498.2247-.643.4815-.144.2729-.084.5137.178.7224.261.1926.963.1123 2.105-.2408 1.098-.3371 1.825-.6581 2.179-.9631.269-.2248.338-.4896.204-.7946z" fill="#ffc23b"/><path d="m200.307 87.3223c-.197-.1605-.692-.0722-1.485.2649-.705.3049-1.235.6019-1.591.8909-.299.2407-.018.4013.843.4815.861.0803 1.517 0 1.968-.2408.379-.1926.537-.4815.472-.8668z" fill="#fff140"/><path d="m199.641 81.8567c-.058-.305-.187-.6501-.389-1.0354-.419-.7705-.997-1.3644-1.735-1.7817-.272.0321-1.424.618-3.458 1.7577-2.137 1.1718-3.157 1.87-3.061 2.0948.674 1.7657 1.331 3.2505 1.971 4.4544.346.6421 1.614.5779 3.802-.1926 2.041-.7063 3.259-1.3243 3.654-1.854.246-.3211.197-.9631-.147-1.9263-.403-.931-.615-1.4366-.637-1.5169z" fill="#b77b3e"/><path d="m195.927 84.8423c.443-.4977.336-1.2842-.323-2.3597l-1.115-1.4929-3.212 1.9504 1.586 3.2024 1.209-.289c.874-.2889 1.492-.626 1.855-1.0112z" fill="#926530"/><path d="m200.279 83.9036-.461-.8186-7.479 2.8171.287.915c.282.61.696.8909 1.24.8427.712-.0481 1.912-.3531 3.601-.915 1.776-.5939 2.763-1.0674 2.961-1.4206.183-.3371.134-.8106-.149-1.4206z" fill="#a86b09"/><path d="m192.862 81.4717-1.825 1.3484.253.7945c.243.6742.521 1.3243.836 1.9504 2.772-.1927 3.728-.931 2.868-2.2152-.264-.4013-.699-.8347-1.304-1.3002z" fill="#724a22"/><path d="m200.049 81.3029-.052-.0722-.056-.1204-.134-.2167c-.443-.7063-.871-1.236-1.283-1.5892-.379-.321-.755-.5136-1.126-.5778h-.389l-.179.0481-.527.2408c-.818.4013-1.784.9471-2.896 1.6373l-2.643 1.6614c-.058.0321-.062.1605-.012.3853-.167.1765-.212.3531-.136.5297l1.615 4.0451.005.0482.054.0963.181.2408c.183.1765.4.2969.649.3611.299.0964.637.1285 1.015.0964l.908-.0723c.888-.1284 1.991-.4173 3.308-.8668.531-.1926 1.053-.4173 1.564-.6742.351-.1605.627-.321.826-.4815l.129-.0964.08-.1203.044-.0241-.002-.0241.039-.0722.021-.0241.019-.0482.103-.3852c.026-.2248.015-.4334-.033-.6261-.071-.4655-.249-1.0995-.534-1.9021l-.528-1.3243-.028-.0482zm-1.185.5538.474 1.228c.217.5618.371 1.0916.461 1.5892l-.006.1926c-.096.0712-.276.1836-.542.3371-.263.1284-.748.3371-1.454.626-1.103.4495-2.127.7705-3.07.9632-.612.1444-1.089.1846-1.43.1204-.082-.0241-.129-.0402-.141-.0482l-.109-.1926-1.789-3.684c-.021-.0493-.056-.0975-.104-.1445l2.743-1.3002c1.315-.6421 2.304-1.0996 2.965-1.3724l.422-.1445.021-.0241.048.0241c.106 0 .236.0883.389.2648.249.2248.567.6421.957 1.2521l.108.1926.029.0723zm-5.706 5.0324c.001.0108.002.0188.002.0241z" fill="#1d2226"/><path d="m200.026 83.3738-.622-1.3484c-.423.3852-.998.7785-1.725 1.1798-.624.3532-1.246.6421-1.867.8668-.617.2569-1.274.4977-1.971.7224-.892.2568-1.571.4173-2.038.4815l.622 1.3484c.486-.3692 1.07-.7464 1.752-1.1316.684-.3692 1.297-.6742 1.84-.915.687-.3371 1.335-.5939 1.944-.7705.771-.2408 1.46-.3853 2.065-.4334z" fill="#1d2226"/><path d="m199.412 83.6628c-.086-.1123-.675.0322-1.768.4335-1.149.4494-1.814.6902-1.994.7223-.299.0642-.514.2247-.643.4816-.158.2889-.098.5297.178.7223.261.1926.962.1124 2.105-.2408 1.098-.3371 1.824-.6581 2.179-.9631.254-.2247.322-.4896.204-.7946z" fill="#ffc23b"/><path d="m199.412 83.6626c-.182-.1605-.677-.0722-1.485.2649-.705.305-1.243.6019-1.614.8909-.283.2408.005.4013.866.4815.861.0803 1.517 0 1.968-.2407.379-.1927.537-.4816.472-.8668z" fill="#fff140"/><path d="m186.887 87.3467c.085-.2408-1.677-.9471-5.286-2.1189-3.5-1.1397-5.457-1.7176-5.87-1.7337-1.061.4174-1.832 1.0033-2.314 1.7577-.24.3853-.37.7304-.389 1.0354.009.0963-.206.602-.643 1.5169-.311.9632-.239 1.6052.216 1.9263.748.5297 2.815 1.1477 6.2 1.854 3.62.7705 5.623.8347 6.008.1926.655-1.0433 1.347-2.5201 2.078-4.4303z" fill="#724a22"/><path d="m173.046 87.5151-.545.8187c-.282.61-.248 1.0835.102 1.4206.397.3532 2.063.8267 4.996 1.4206 2.778.5619 4.741.8668 5.889.915.843.0482 1.427-.2328 1.755-.8427.156-.305.228-.61.216-.915z" fill="#a86b09"/><path d="m187.064 86.7686c-.094-.0321-.165-.0642-.214-.0963l-9.693-3.3469-.514-.1203c-.325-.0482-.524-.0643-.599-.0482-.668.0321-1.336.321-2.004.8668-.509.4495-.951.9631-1.327 1.541l.002.0241-.021.0241c-.461.9952-.776 1.9102-.946 2.7449-.06.3531-.08.6501-.059.8909.02.2247.085.4414.195.6501.072.1284.125.2087.159.2408l.05.0481.002.0241.048.0241c.1.0963.213.1766.341.2408.223.1123.468.2087.734.2889l.705.2167c1.892.5297 3.703.931 5.434 1.2039 1.021.1606 1.938.2729 2.751.3371l1.376.0482c.699-.0321 1.196-.0963 1.492-.1926.162-.0643.308-.1445.436-.2408l.146-.1686.018-.0481.062-.0723 1.643-3.9247c.065-.1284.109-.2328.132-.313.019-.1284-.041-.289-.18-.4816-.032-.1926-.088-.313-.169-.3612zm-.364.5298c.02.0051.042.0051.068 0-.044.1222-.09.2104-.137.2648l-1.917 3.6599.002.0241h-.023l-.02.0241-.002-.0241-.11.0481c-.237.0803-.624.1044-1.16.0723-.381 0-.819-.0402-1.314-.1204-.785-.0803-1.666-.2167-2.643-.4094-1.815-.3531-3.573-.7624-5.276-1.2279l-.637-.2167c-.216-.0738-.374-.138-.474-.1927l.028-.4575c.111-.6159.377-1.4024.798-2.3596.322-.4976.673-.923 1.053-1.2762.452-.4013.875-.618 1.269-.6501l.345.0241zm-13.664 1.9262h-.023l-.002-.0241zm11.635 2.0226h.022z" fill="#1d2226"/><path d="m185.951 89.6822c-.692-.0642-1.773-.2247-3.244-.4816-.898-.1605-1.963-.3932-3.194-.6982-1.043-.2408-2.105-.5298-3.186-.8668-1.225-.4014-2.266-.8027-3.125-1.204l-.197 1.3966c.934.0481 2.014.1926 3.24.4334.929.1605 1.995.4093 3.198.7464l3.17.9391c1.302.4173 2.35.8026 3.143 1.1557z" fill="#1d2226"/><path d="m176.702 88.5263c-1.803-.4013-2.76-.5377-2.871-.4093l-.334.3612c-.127.2889.041.5458.503.7705.621.305 1.831.626 3.629.9631 1.892.3692 3.027.4495 3.405.2408.364-.1926.397-.4254.098-.6983-.283-.2729-.656-.4414-1.119-.5056-1.274-.2729-2.378-.5137-3.311-.7224z" fill="#ffc23b"/><path d="m176.207 88.3582c-1.324-.3211-2.116-.4014-2.376-.2408l-.23.5056c-.011.3853.304.6742.946.8668.783.2408 1.842.3211 3.177.2408 1.334-.0803 1.739-.2408 1.215-.4816-.62-.2889-1.531-.5859-2.732-.8908z" fill="#fff140"/><path d="m185.403 88.1415c.653-1.0595 1.345-2.5443 2.076-4.4545.085-.2408-1.677-.9471-5.287-2.1189-3.5-1.1397-5.456-1.7176-5.869-1.7336-1.061.4173-1.832 1.0032-2.314 1.7577-.241.3852-.37.7304-.389 1.0353.009.0964-.205.61-.641 1.5411-.313.947-.241 1.5811.214 1.9021.716.5137 2.776 1.1397 6.179 1.8781 3.634.7545 5.644.8187 6.031.1927z" fill="#b77b3e"/><path d="m179.653 83.3737c-.54 1.3003-.4 2.1992.422 2.6968.674.3852 1.741.6421 3.2.7705.738.0642 1.403.0883 1.996.0722l1.777-3.1783-6.365-2.167c-.423.5618-.766 1.1638-1.03 1.8058z" fill="#926530"/><path d="m173.639 83.8794-.545.8187c-.297.6099-.263 1.0754.101 1.3965.383.3692 2.049.8508 4.998 1.4447 2.747.5618 4.71.8668 5.888.915.842.0321 1.426-.2569 1.753-.8669.156-.305.228-.6099.216-.9149z" fill="#a86b09"/><path d="m187.573 83.4698-4.226-1.252c-.905.626-1.466 1.2681-1.682 1.9262-.417 1.3163 1.125 2.0386 4.627 2.1671.567-1.0113.993-1.9584 1.281-2.8413z" fill="#724a22"/><path d="m187.825 83.47c-.031-.1766-.088-.297-.169-.3612-.095-.0321-.166-.0642-.215-.0963l-10.207-3.4673-.599-.0481c-.668.0321-1.336.321-2.004.8668-.509.4494-.951.9631-1.327 1.541l.002.0241-.018.0481c-.474 1.0274-.79 1.9343-.949 2.7209-.06.3531-.079.6581-.056.9149.02.2248.084.4334.192.6261.039.0963.092.1765.159.2407l.05.0482.002.0241.048.0241c.1.0963.214.1765.341.2407.224.1124.468.2087.735.289l.705.2167c1.705.4976 3.517.8989 5.434 1.2039 1.206.1926 2.115.305 2.728.3371.323.0321.789.0481 1.399.0481.594 0 1.091-.0642 1.492-.1926.177-.0642.322-.1444.436-.2408l.147-.1444.019-.0482.06-.0963 1.642-3.9247c.065-.1285.109-.2328.132-.3131.02-.1284-.04-.2889-.179-.4815zm-.534.1685c.022.0058.046.0138.071.0241-.042.1175-.089.1978-.139.2408l-1.918 3.6599.003.024-.021.0241-.002-.0241-.133.0482c-.208.0642-.594.0963-1.158.0963l-3.959-.5538c-2.046-.3852-3.805-.7946-5.276-1.228l-1.109-.3852.026-.4816c.11-.6316.375-1.4182.798-2.3597.322-.4976.673-.9229 1.053-1.2761.453-.4013.876-.618 1.269-.6501l.345.0241zm-1.986 3.9248-.02.024z" fill="#1d2226"/><path d="m186.544 86.0466c-1.047-.1124-2.129-.2809-3.246-.5056-.991-.1766-2.056-.4094-3.194-.6983-1.043-.2408-2.105-.5297-3.187-.8668-1.334-.4334-2.375-.8347-3.124-1.2039l-.197 1.3965c.735.0321 1.814.1766 3.24.4334 1.21.2408 2.276.4896 3.198.7464 1.062.289 2.119.602 3.17.9391 1.463.5137 2.503.8989 3.12 1.1557z" fill="#1d2226"/><path d="m177.293 84.8667c-1.803-.4013-2.761-.5378-2.871-.4094l-.334.3612c-.127.289.04.5458.502.7705.622.305 1.832.6261 3.63.9631 1.892.3692 3.027.4495 3.405.2408.364-.1926.397-.4254.098-.6982-.283-.2729-.656-.4415-1.119-.5057-1.274-.2729-2.378-.5137-3.311-.7223z" fill="#ffc23b"/><path d="m176.798 84.698c-1.324-.321-2.116-.4013-2.376-.2408l-.23.5057c-.011.3852.304.6741.946.8668.783.2408 1.842.321 3.176.2408 1.335-.0803 1.74-.2408 1.215-.4816-.62-.2889-1.53-.5859-2.731-.8909z" fill="#fff140"/><path d="m191.734 93.7995c2.117-.1926 3.335-.7224 3.655-1.5892.188-.4655-.028-2.3035-.647-5.5139-.309-1.5892-.636-3.1382-.983-4.6471l-7.895.9631c.111 1.4287.273 2.9135.486 4.4545.411 3.0981.856 4.9441 1.335 5.538.597.7223 1.947.9872 4.049.7946z" fill="#b77b3e"/><path d="m193.595 82.2661-1.354.4575c1.251 5.1848 1.731 8.0341 1.442 8.5478-.311.4494-1.104.7063-2.379.7705-1.229.0642-1.971-.0562-2.227-.3612-.206-.2568-.538-1.6935-.998-4.31-.237-1.3002-.45-2.5844-.638-3.8525l-1.167.5056c-.003 1.3484.083 2.753.258 4.2137.366 2.9376 1.041 4.7033 2.023 5.2972 1.142.6742 2.579.8026 4.31.3853 1.684-.4334 2.587-1.0835 2.708-1.9504-.181-2.0546-.841-5.2891-1.978-9.7035z" fill="#ffc23b"/><path d="m194.488 92.6199c.765-.6582.977-1.3645.635-2.1189-.096.2889-.328.5939-.696.9149-.736.6421-1.761 1.0274-3.076 1.1558-1.346.1284-2.368-.0562-3.067-.5538-.278-.2087-.613-.6341-1.005-1.2761.084.947.188 1.6132.314 1.9984.061.1766.115.2649.161.2649l1.73.4334c1.259.2729 2.174.3612 2.744.2649.855-.1606 1.608-.5217 2.26-1.0835z" fill="#926530"/><path d="m193.388 90.7897c.107-2.0708-.021-3.692-.384-4.8638l-.006 1.9985c-.111 1.3323-.416 2.0225-.915 2.0707-.483.0481-.984.0722-1.503.0722l-.642-.0241c-.264-.4013-.552-.8989-.864-1.4928-.623-1.1879-1.021-2.2473-1.195-3.1783.254 1.6694.515 3.0659.782 4.1896.229 1.0434.41 1.6212.542 1.7336.115.0963.699.1445 1.75.1445.929-.0161 1.521-.0402 1.777-.0723.424-.0321.644-.2247.658-.5778z" fill="#926530"/><path d="m194.251 81.9293-.147-.6261-.513.1445c-1.12.2568-2.382.4655-3.786.626-1.557.1445-2.847.2087-3.87.1927l-.391-.0241-.019.5538c.202 2.9857.474 5.4577.815 7.4161.163.8026.309 1.4286.441 1.8781.107.3531.243.6902.409 1.0113l.104.1444.05.0482.055.0963.272.2408.508.313c.538.2247 1.176.3692 1.913.4334.614.0482 1.224.0482 1.83 0 .709-.0803 1.301-.1926 1.776-.3371.758-.2247 1.329-.4896 1.713-.7946.212-.1926.337-.329.376-.4093.164-.2087.253-.4174.265-.626.006-.0964.006-.4495-.003-1.0595-.039-.4494-.125-1.0755-.257-1.8781-.283-1.6534-.797-4.1013-1.541-7.3438zm-.99.6982c.6 2.4721 1.08 4.7194 1.442 6.7419.1.61.175 1.2039.226 1.7818.034.3853.042.6421.022.7705.009.0963-.086.2247-.286.3853-.298.2408-.745.4494-1.339.626-.506.1445-1.038.2408-1.598.2889-.65.0643-1.198.0723-1.644.0241-.645-.0481-1.165-.1605-1.562-.3371l-.364-.2408-.002-.024-.027-.0482-.025-.0241c-.127-.2247-.225-.4655-.293-.7223-.176-.61-.311-1.1959-.407-1.7577-.329-1.9195-.599-4.1989-.81-6.8382.96-.1974 2.073-.3579 3.341-.4816 1.317-.1124 2.425-.1605 3.326-.1445z" fill="#1d2226"/><path d="m193.327 87.5152c-.006 1.6534-.062 2.6566-.168 3.0098-.055.2408-.485.3772-1.29.4093-.946 0-1.593 0-1.944 0-.456.0161-.81-.3692-1.063-1.1557-.02-.0642-.301-1.2601-.843-3.5877.031.5137.152 1.3725.365 2.5764.187 1.0755.352 1.9102.496 2.5041.141.3853.429.6261.864.7224.248.0481.806.0642 1.674.0481.593-.016 1.08-.1043 1.463-.2648.206-.0803.473-.2488.801-.5057.186-.305.068-1.557-.355-3.7562z" fill="#724a22"/><path d="m193.288 83.7109c-.107-.1765-.202-.0401-.284.4094-.094.4815-.077 1.0193.051 1.6132l.781 3.395c.391 1.4929.629 1.9423.713 1.3484.147-.931-.274-3.1863-1.261-6.766z" fill="#fff140"/><path d="m187.429 84.6739c-.236-.4173-.375-.5297-.419-.3371l.324 2.8894c.273 2.0547.556 3.3549.848 3.9007.309.5618.38.0803.215-1.4447-.051-.4013-.205-1.549-.464-3.4432-.083-.5939-.251-1.1156-.504-1.5651z" fill="#fff140"/><path d="m192.602 82.4106-.677.0964.862 4.0692c.151.6742.28 1.3484.385 2.0226l.158 1.0112c.041.4655.054.7786.037.9391l-.144.4334c-.065.1284-.148.2247-.249.2889-.086.0642-.397.1686-.933.3131-.299.0642-.654.0963-1.066.0963-.319.016-.678 0-1.079-.0482h-.229l-.145-.0963c-.114-.0803-.209-.2007-.284-.3612-.132-.2889-.232-.6421-.299-1.0594l-1.057-7.2957-.681.0481 1.056 7.2957c.112.5779.243 1.0193.392 1.3243.129.2569.291.4575.487.602.1.0963.228.1685.385.2167.132.0406.263.0567.393.0482.385.0481.768.0722 1.15.0722.427 0 .82-.0321 1.18-.0963.597-.1445.99-.2729 1.178-.3853.228-.1765.379-.3692.452-.5779l.221-.6019-.004-.0482c.027-.2086.017-.5859-.031-1.1316z" fill="#1d2226"/><path d="m189.977 57.746c-3.035-1.1086-6.373-1.0007-10.014.3237-3.626 1.3266-5.871 3.2074-6.733 5.6424-.843 2.4507-.835 5.4337.025 8.9491l23.819-.6475c.097-1.3412.081-2.7518-.049-4.2317-.243-2.96-.923-4.8099-2.041-5.5499-.302-1.8832-1.971-3.3786-5.007-4.4861z" fill="#3a3736"/><path d="m192.14 80.7547c1.717-.7091 2.69-1.2872 2.917-1.7343.68-1.3258 1.166-2.4589 1.458-3.3993l1.628-4.648-24.548.8556.267 3.2143c.016.4471.016 1.1871 0 2.22.114.8941.486 1.5339 1.118 1.9193 1.053.6166 2.585 1.3181 4.594 2.1043l.632.6243 1.094-.0231.753.2313-.292-.2544 7.875-.2081z" fill="#3a3736"/><path d="m189.405 57.9077c3.708 1.0692 5.616 2.4721 5.724 4.2087.859.5858 1.386 2.3432 1.58 5.2723.097 1.48.113 2.8906.049 4.2318l-.243 3.8617c.324 1.3567.162 2.4281-.487 3.2143-.502.6167-1.523 1.241-3.062 1.8731-2.366.9712-4.829 1.4954-7.389 1.5724-2.706.0925-5.193-.3314-7.462-1.2718-1.62-.6629-2.762-1.372-3.427-2.1274-.778-.8942-1.094-2.0196-.948-3.3762l-.34-2.8212c-.859-3.5141-.579-6.5627.839-9.1456 1.419-2.5828 3.375-4.4097 5.869-5.4805 2.492-1.0747 5.591-1.0786 9.297-.0116z" stroke="#1d2226" stroke-miterlimit="10" stroke-width="1.9508"/><path d="m197.56 66.5565c0-1.1254.048-2.1352.146-3.0293-.13-.3083-.389-.5935-.778-.8556-.762-.5242-1.75-.6552-2.965-.3931-.292.0616-1.532.8324-3.719 2.3124-2.058 1.4029-3.686 2.1506-4.886 2.2431-1.15.0925-2.706-.4702-4.666-1.6881-1.604-1.0021-3.119-2.1891-4.545-3.5612-.211-.2004-.632-.1464-1.264.1619-.632.2929-.891.5781-.778.8556.81 2.1891 1.215 4.0082 1.215 5.4573.016 1.0792-.259 2.5206-.826 4.3243-.178.6166-.162 1.4568.048 2.5205.276 1.3258.803 2.351 1.58 3.0756 2.658 2.482 5.785 3.9542 9.382 4.4167 4.667.6013 8.329-1.187 10.986-5.3648.324-.5242.649-1.295.973-2.3125.291-.9712.51-1.9655.656-2.983-.405-1.2025-.592-2.9291-.559-5.1798z" fill="#6d451d"/><path d="m197.511 61.9084c-.243-1.0021-.543-1.8037-.899-2.405-.681-1.1716-1.385-1.0405-2.115.3932-.956 1.9116-2.284 3.4532-3.986 4.6248-1.409.9867-2.811 1.5571-4.205 1.7112-2.137-.2798-3.741-1.3358-4.812-3.168-.842-3.8679-1.904-5.8104-3.184-5.8273-1.268-.0195-2.192.5972-2.771 1.8499-.34.4008-.64.8325-.899 1.295-.551.9404-.656 1.557-.316 1.8499-.049.2621.097.7246.437 1.3875.422.8324 1.005 1.6033 1.75 2.3124 2.172 2.0812 5.113 3.1218 8.823 3.1218 4.359 0 7.697-1.1871 10.014-3.5612 1.167-1.2024 1.888-2.3972 2.163-3.5842z" fill="#ffc23b"/><path d="m197.171 60.3362-.194-.2312c-.308 1.2641-.916 2.4897-1.823 3.6767-1.782 2.3433-4.14 3.5149-7.073 3.5149-3.905 0-6.789-.5858-8.653-1.7574-.842-.5396-2.463-2.2122-4.861-5.018-.454.6937-.688 1.4337-.705 2.22 0 .7553.211 1.4028.632 1.9424.827 1.0175 1.896 1.8576 3.209 2.5205 2.268 1.1408 5.088 1.6727 8.458 1.5956 3.727-.1696 6.303-.7014 7.729-1.5956 1.523-.9712 2.674-2.8751 3.451-5.7117.017-.5241-.04-.9095-.17-1.1562z" fill="#a86b09"/><path d="m180.534 60.8101c.692 2.007 1.656 3.3251 2.893 3.9543 1.238.6257 2.392.9379 3.463.9365 3.03-.1387 5.234-1.2102 6.611-3.2143.713-1.0483 1.264-2.2739 1.653-3.6767.356-.5242.924-.1927 1.701.9943.778 1.1871.973 2.2354.584 3.1449-.13 1.0021-.203 2.1043-.219 3.3068-.032 2.4204.227 4.1701.778 5.2492.016.8017-.178 1.9116-.584 3.3299-.469 1.6033-1.037 2.9137-1.701 3.9312-.583.8787-1.871 1.6341-3.865 2.2661-1.928.6013-3.888.8942-5.881.8788-1.913.0616-3.744-.1927-5.494-.7631s-2.957-1.295-3.621-2.1737c-.583-.74-1.134-1.9193-1.653-3.538-.34-1.0638-.632-2.1737-.875-3.3299 1.361-.8633 1.685-2.6208.972-5.2724-.356-1.3104-.85-2.5437-1.482-3.6999-.567-1.0483.04-2.4203 1.823-4.1161 3.091-2.2303 4.509-2.9895 4.253-2.2778-.26.7091-.045 2.0657.644 4.0699z" stroke="#1d2226" stroke-miterlimit="10" stroke-width="2.92619"/><path d="m197.391 63.689c-.487.8633-1.208 1.7266-2.164 2.5899-1.896 1.7112-4.026 2.5591-6.392 2.5437" stroke="#1d2226" stroke-miterlimit="10" stroke-width="2.92619"/><path d="m173.983 61.6772c.373 1.3413 1.183 2.6439 2.431 3.9081 2.495 2.5591 5.947 3.6767 10.354 3.353" stroke="#1d2226" stroke-miterlimit="10" stroke-width="2.92619"/><g fill="#b77b3e"><path d="m196.078 75.3667-3.16.0694c-.227.0462-.308.5704-.243 1.5724.065 1.0175.356 1.5416.875 1.5725 1.199-.4933 1.977-1.1794 2.333-2.0581z"/><path d="m183.39 76.6386-2.066.185.243 1.1562c.519.8325 1.685 1.4029 3.5 1.7112.519-.0308.81-.555.875-1.5725.065-1.0174-.016-1.5493-.243-1.5955-.129-.0309-.899.0077-2.309.1156z"/><path d="m196.369 69.6323-.535-2.3818-3.427 1.7343.219 1.0869z"/><path d="m180.352 69.5396-.195 1.4568 5.906-.37-.194-.8094z"/></g><path d="m195.883 60.1052c-.065-.3392-.332-.1234-.802.6474-1.069 1.8654-1.879 3.0524-2.43 3.5612-.405.3854-1.013.8402-1.823 1.3643l-1.094.6706c-.081.2467-.016.3931.194.4394.276.0616.762-.1079 1.459-.5088 1.183-.7091 2.212-1.6032 3.087-2.6824.55-.6937.996-1.3951 1.336-2.1043.292-.5704.316-1.0329.073-1.3874z" fill="#fff140"/><path d="m184.653 66.6488c.373.0771.576.0925.608.0463-1.199-.2313-2.949-1.6264-5.25-4.1855-1.977-2.22-3.224-3.091-3.743-2.6131-.178.2929-.202.4779-.073.555.227.1542.357.2544.389.3006 1.005 2.3279 2.844 3.9466 5.517 4.8561.908.5088 1.759.8556 2.552 1.0406z" fill="#fff140"/><path d="m198.751 74.3261-.462-4.0468-18.326 1.8268.851 4.0237z" fill="#ffc23b"/><path d="m198.435 74.3493-.34-2.5436-.681 1.3412-15.677 1.6187-1.555-2.0812.316 3.4686z" fill="#a86b09"/><path d="m197.608 70.8112.34 3.0524c-.649.2006-1.427.3625-2.333.4856-.599.0771-1.126.1157-1.58.1157-.696-.0309-1.223-.1002-1.58-.2081l.146 1.3874c.405-.2158.908-.3931 1.507-.5318.324-.0771.843-.1465 1.556-.2082 1.328-.0616 2.382-.0231 3.159.1157l.754.1156-.656-5.8967-.705.3237c-.357.1696-.891.3623-1.604.5781-.6.1542-1.135.2621-1.605.3238-.664.1079-1.215.1541-1.652.1387-.681-.0308-1.248-.1542-1.702-.37l.146 1.3644c.405-.3084.932-.5473 1.58-.7169.438-.0925.988-.1542 1.653-.185.535-.0154 1.085-.0154 1.653 0 .333.0317.641.0703.923.1156z" fill="#1d2226"/><path d="m179.962 71.4127-.753-.1157.656 5.8505.705-.3006c.502-.2159 1.045-.3854 1.629-.5088.356-.077.907-.1618 1.652-.2543.616-.0463 1.175-.0617 1.677-.0463.632 0 1.208.0617 1.726.185l-.146-1.3874c-.486.2158-1.037.3854-1.652.5087-.357.0771-.908.1619-1.653.2544-.551.0462-1.11.0693-1.677.0693-.36-.0159-.685-.0468-.973-.0925l-.34-3.0293c.763-.227 1.638-.4043 2.625-.5318.567-.0925 1.126-.1388 1.677-.1388.762.0309 1.337.1002 1.726.2082l-.17-1.3875c-.373.2004-.916.3854-1.629.555-.502.1079-1.061.185-1.677.2312-1.345.0771-2.479.054-3.403-.0693z" fill="#1d2226"/><path d="m197.39 71.9446c.129-.3546.17-.6013.121-.74l-4.496.4394c.064.5395.081.8633.048.9712-.016.0616.632.0462 1.945-.0463l2.066-.1618c.081.0308.186-.1234.316-.4625z" fill="#fff140"/><path d="m180.96 72.8696c-.017.1541.089.3854.316.6937.226.2929.38.424.461.3931 2.966-.3391 4.424-.555 4.375-.6475l-.17-.9481z" fill="#fff140"/><path d="m192.528 64.4292-5.663 1.2256v16.7882l5.663-.9249z" fill="#ffc23b"/><path d="m192.724 64.2671-.389.2312-.219 14.9383-3.938.925-.486-14.9383-1.093.1619.267 16.8576c3.824-.1542 5.777-.239 5.858-.2544.081-.0308.081-6.0046 0-17.9213z" fill="#a86b09"/><path d="m192.285 67.8747c.081 1.5262.106 3.0447.073 4.5554 0 1.6804-.032 3.1989-.097 4.5555-.042 1.3284-.123 2.6464-.243 3.9543l-4.521.7169c-.096-.8949-.194-2.0511-.291-3.4687-.049-.925-.089-2.3433-.122-4.2549 0-1.5878.032-3.0061.097-4.2548.098-1.7575.235-3.1758.414-4.2549h-1.459c.195 1.0791.332 2.4974.413 4.2549.081 1.6495.114 3.0678.098 4.2548-.033 1.9116-.073 3.3299-.122 4.2549-.13 1.8808-.259 3.2991-.389 4.2549l-.121.8556 7.461-1.2025-.048-.5781c-.162-1.4029-.268-2.9137-.316-4.5324-.065-1.3566-.097-2.8751-.097-4.5555 0-1.5107.024-3.0292.073-4.5554.097-2.035.21-3.5458.34-4.5324h-1.458c.162 1.4029.267 2.9137.315 4.5324z" fill="#1d2226"/><path d="m192.067 65.2152c-.194-.0771-.697-.0694-1.507.0231l-1.166.1387c.145 2.2354.218 4.3936.218 6.4748 0 1.6342.211 3.0833.632 4.3474.438 1.295.835 1.5262 1.191.6937.308-.7245.503-2.8905.584-6.4979.048-1.8037.064-3.5303.048-5.1798z" fill="#fff140"/><path d="m157.176 66.5972c.299.5122.952 1.4268 1.959 2.7437.836 1.1057 1.453 2.1032 1.85 2.9925 2.463.1896 4.695-.467 6.695-1.97 1.677-1.2524 2.541-2.3967 2.593-3.4331.046-.7088-1.142-2.0889-3.565-4.1405-2.324-1.9661-3.955-3.0781-4.892-3.336-2.715.0117-4.304 1.206-4.767 3.5829-.231 1.1884-.189 2.3753.127 3.5605z" fill="#756f6c"/><path d="m158.711 60.5569-1.019 1.3907c1.357 1.0845 2.512 2.2963 3.464 3.6356 1.928 2.6741 1.93 4.6617.007 5.9629 1.932.9826 3.88.7493 5.844-.6999 1.627-1.2077 2.491-2.2937 2.592-3.2581.141-.7624-.859-2.1332-2.999-4.1123-2.078-1.8982-3.886-3.1968-5.423-3.8958-.803-.2262-1.625.0994-2.466.9769z" fill="#494644"/><path d="m163.203 59.6523c-.996-.3164-1.615-.5265-1.857-.6302-.642.2901-1.309.661-2.001 1.1126l-.829.5836c.815.5268 1.7 1.1682 2.654 1.9242 1.908 1.512 3.202 2.8655 3.881 4.0605.419 1.1182.228 2.1878-.573 3.209-.909 1.1824-2.276 1.5224-4.101 1.0202.451.8086.71 1.2063.778 1.193l.671.9169c1.806.9957 3.811.4014 6.014-1.7831 1.102-1.0922 2.023-2.2768 2.762-3.5538l-.517-.755c-1.765-3.266-3.418-5.4055-4.959-6.4186-.534-.3377-1.175-.6308-1.923-.8793z" fill="#3a3736"/><path d="m164.717 59.353c-.336-.2252-.715-.401-1.136-.5276-.354-.0816-.778-.1319-1.272-.151-1.243-.0343-2.345.201-3.306.7057-.957.5273-1.647 1.1067-2.071 1.7384l-.209.3562c-.338.7081-.573 1.2617-.704 1.6607-.244.8295-.284 1.5719-.119 2.2274.169.6779.533 1.3988 1.092 2.1629l2.758 3.4253c.505.903 1.163 1.84 1.973 2.811l.89-.7181c-.779-.9305-1.403-1.8159-1.872-2.656l-1.879-2.3397c-.533-.6293-.851-1.0272-.953-1.1934-.354-.4899-.591-.892-.711-1.2063-.223-.539-.298-1.0663-.225-1.5821.086-.5652.341-1.2511.765-2.0577l.142-.2554c.342-.5107.9-.9648 1.672-1.3624.769-.4199 1.675-.6108 2.721-.5725.386.0054.72.0443 1.003.1168.282.0724.551.1942.806.3652l.121.0811c1.273.9496 2.459 2.0853 3.56 3.4069 1.19 1.4206 2.067 2.8158 2.629 4.1855l1.051-.435c-.625-1.509-1.55-3.0052-2.776-4.4887-1.146-1.3711-2.409-2.5675-3.788-3.5892z" fill="#1d2226"/><path d="m173.008 66.0751c-.488-.5799-1.272-.0343-2.353 1.6368-1.517 2.352-2.485 3.7093-2.903 4.0717-1.52 1.2797-2.388 2.0808-2.604 2.4034-.594.887-.448 1.8026.438 2.7469.779.8139 1.935 1.355 3.469 1.6232 1.687.2731 3 .0137 3.94-.7783.948-.8054 1.368-2.7831 1.258-5.9331-.1-2.9884-.516-4.9119-1.245-5.7706z" fill="#926530"/><path d="m160.588 72.4467.78.4931c.348.9341 1.078 1.4428 2.191 1.5261 1.081.1012 2.201-.2193 3.36-.9614 2.962-1.8327 4.258-4.6541 3.89-8.4642-.272-.8442-.405-1.3133-.401-1.4075-.117.2913-.407.4185-.869.3816-.085 2.1041-1.555 4.1085-4.409 6.0132-1.442.9614-2.956 1.7677-4.542 2.4191z" fill="#ffc23b"/><path d="m167.65 78.3452c1.589 1.3766 3.407 1.0757 5.454-.9027.814-.7788 1.403-1.6299 1.769-2.5534.393-.9637.41-1.7309.052-2.3016.153-.0534.55-.0794 1.192-.078.642-.0568 1.116-.2845 1.422-.6832 1.008-1.3302.495-2.6572-1.539-3.981l-3.355-1.5759c-.43 1.4258-.565 2.4844-.405 3.1757 1.143 2.5377.718 4.7845-1.274 6.7407-.985.9758-2.09 1.6956-3.316 2.1594z" fill="#6d451d"/><path d="m173.567 66.0697c-1.018-.137-1.42.7236-1.204 2.5816l1.253 2.6209c1.064 1.6087 2.216 2.069 3.456 1.3809.683-.3798.878-1.1645.584-2.3542-.289-1.1089-.798-2.0052-1.528-2.6888-.999-.9221-1.852-1.4356-2.561-1.5404z" fill="#ffc23b"/><path d="m172.645 66.2692c-.406.6631-.553 1.3335-.443 2.0113l.997-.092c.776.0332 1.449.3085 2.017.8258.596.5353 1.059 1.0792 1.39 1.6319.259.4268.386.7457.381.9565.815-1.3037.865-2.3221.149-3.0551-.453-.4587-1.335-.9722-2.649-1.5406z" fill="#a86b09"/><path d="m166.639 72.6156c.567-.4967 1.293-1.2466 2.179-2.2496 1.161-1.3254 1.852-2.3131 2.074-2.9632.212-.6366.106-1.2336-.319-1.7909l-.726-.6613-1.999 2.9836c.3.2205.564.6407.791 1.2604.148.3906-.137 1.0765-.852 2.0574z" fill="#a86b09"/><path d="m165.266 75.4055-.664-.9707-1.367.5151c.085.1931.268.5009.55.9233.188.2427.581.7013 1.181 1.3757.407.4092.784.7488 1.129 1.0188.658.4996 1.054.7944 1.189.8844.282.1891.585.3626.907.5204.381.1579.74.2327 1.077.2245.982.0158 1.975-.2736 2.977-.868.93-.5452 1.692-1.2614 2.286-2.1484l.217-.3225c.225-.3943.45-.9636.677-1.7079.063-.2691.138-.657.224-1.1638.025-.1455.05-.2845.075-.4171.321.0053.629-.0613.923-.1998.427-.2009.793-.5298 1.099-.9868.343-.5107.561-1.0845.657-1.7214.1-.6727.057-1.2763-.13-1.8107-.112-.3278-.317-.6602-.617-.9974-.269-.2968-.585-.5667-.947-.8098-.632-.4233-1.45-.8155-2.454-1.1768-.857-.3205-1.897-.628-3.121-.9225l-.334 1.4126c1.301.326 2.285.6155 2.953.8683.906.3341 1.621.6767 2.145 1.0279.242.1621.466.351.672.5669.183.2203.293.391.329.5122.111.2695.133.6442.064 1.1241-.082.4709-.224.843-.426 1.1162-.162.2419-.324.3964-.486.4633-.184.0714-.382.0754-.592.0121l-.633-.1899-.264.6118c-.103.2421-.214.6546-.332 1.2376l-.225 1.0763c-.136.5515-.309.9998-.521 1.3448l-.162.2419c-.469.6989-1.078 1.274-1.828 1.7254-.764.4425-1.496.6629-2.196.6613-.166-.0139-.343-.0547-.532-.1224l-.672-.3919c-.04-.027-.41-.3038-1.108-.8304l-.612-.5263c-.313-.2879-.682-.6814-1.108-1.1804z" fill="#1d2226"/><path d="m168.758 64.7462-.278.6319-.554.9141-.459.5979c-1.062 1.2942-2.42 2.4195-4.073 3.3758-.661.3754-1.161.6143-1.503.7167-.26.0981-.467.2031-.62.3149-.211.17-.355.3267-.431.4701-.19.2822-.339.6789-.447 1.1902-.068.1883-.093.4148-.076.6796.035.2378.136.4803.301.7275.175.2337.369.4226.584.5667.614.3917 1.359.5595 2.234.5032.785-.0386 1.461-.2187 2.027-.5405.526-.2904 1.265-.8271 2.218-1.6101 1.138-.9127 2.103-1.9603 2.895-3.143.369-.551.68-1.1022.933-1.6535.23-.5468.366-1.0692.407-1.5671.015-.5743-.087-1.1197-.306-1.6362l-.261-.5255c-.116-.2919-.252-.5682-.409-.8288l-.261-.3505-.168-.1418c-.108-.072-.215-.1149-.323-.1286l-.296.0061c-.09.0177-.18.0646-.27.1407-.135.0849-.279.2416-.432.4701-.144.215-.288.4884-.432.8201zm-6.745 8.9758-.195-.1889-.033-.0808-.007-.0337.007-.1413c.1-.3811.188-.6142.264-.6993l.101-.1075c.027-.0403.086-.0693.176-.087.395-.1248.992-.406 1.792-.8439 1.82-1.0592 3.312-2.2985 4.478-3.7181.243-.3046.423-.5442.54-.7189.225-.336.425-.6788.601-1.0283l.318-.6925.201.485.02.0135c.134.3234.192.6443.173.9628.004.3141-.085.6639-.265 1.0493-.266.5423-.539 1.0218-.818 1.4384-.711 1.0617-1.575 2.0019-2.591 2.8207-.85.7159-1.521 1.2101-2.016 1.4827-.4.2189-.867.3345-1.401.3467-.574.0435-1.023-.0428-1.345-.2589z" fill="#1d2226"/><path d="m174.102 73.5548.613-.4361c.49-.3533.964-.7269 1.423-1.1206-.444-.1222-.838-.26-1.184-.4133-.614-.2751-1.275-.7276-1.982-1.3573.231.7588.608 1.8679 1.13 3.3273z" fill="#1d2226"/><path d="m164.562 71.5747c-1.568.9744-2.325 1.5089-2.272 1.6032l.437.4385c.457.1895 1.115.0362 1.973-.4598.997-.5586 1.847-1.362 2.55-2.4103.698-1.0707.593-1.2773-.315-.6199-.805.4738-1.595.9565-2.373 1.4483z" fill="#fff140"/><path d="m169.549 71.8484c-1.354 1.3519-2.649 2.5289-3.885 3.5311l1.013 1.3214c.801.8095 1.499 1.0041 2.092.5837 2.292-1.5606 3.312-3.1555 3.06-4.7848-.097-.6104-.377-.9925-.839-1.1461-.466-.176-.946-.0111-1.441.4947z" fill="#b77b3e"/><path d="m174.307 69.1065c-1.085-.4736-1.514-.1964-1.287.8316l1.095.763c.82.491 1.43.6853 1.829.583.418-.1291.354-.4837-.192-1.0638-.479-.535-.961-.9063-1.445-1.1138z" fill="#fff140"/><path d="m172.477 66.0403-.935-.305c-.217.6725-.268 1.4464-.154 2.3216.111.7944.358 1.5151.743 2.1621.469.8401 1.163 1.5775 2.081 2.2122l.54-.8063c-.743-.5177-1.341-1.1517-1.792-1.9021-.452-.8086-.667-1.6638-.647-2.5656-.004-.2558.023-.5294.082-.8209l.061-.222.007-.0538z" fill="#1d2226"/><path d="m167.324 52.5309c.211.5297 1.288 1.1315 3.233 1.8056.972.337 1.92.6179 2.843.8426-1.798-4.9914-3.143-8.4821-4.034-10.4723-.697-1.5247-1.297-2.4636-1.799-2.8166-.535-.3852-1.175-.2729-1.92.337-1.118 1.3-1.175 3.4025-.17 6.3074.502 1.4605 1.118 2.7926 1.847 3.9963z" fill="#ffc23b"/><path d="m165.258 48.9681c.551.3049 1.434.7623 2.649 1.3722-.13-.1123-.3-.3049-.51-.5778-.406-.5456-.705-1.1635-.9-1.8537-.356-1.7173-.64-2.9852-.85-3.8037-.357-1.4605-.819-1.9179-1.386-1.3722-.243.4975-.445 1.3562-.608 2.5759-.178 1.1877-.218 1.95-.121 2.2871.178.3531.753.8105 1.726 1.3722z" fill="#a86b09"/><path d="m167.907 50.3399c.033.321.77.7062 2.212 1.1556.729.2086 1.45.3932 2.163.5537-2.106-5.505-3.346-8.6827-3.718-9.5334-.243-.5456-.6-.8105-1.07-.7944l-.632.1926c1.297 3.242 2.074 5.2401 2.334 5.9944.145.4655-.025 1.0112-.511 1.6371-.243.3049-.502.5697-.778.7944z" fill="#a86b09"/><path d="m168.612 41.8421c-.308-.3371-.673-.5296-1.094-.5778-.276-.0321-.6-.0321-.972 0l-.851.0482c-.778.0802-1.402.3771-1.872.8907-.421.4654-.721 1.0512-.899 1.7574-.243.979-.292 2.1346-.146 3.4667.114 1.0111.324 2.1105.632 3.2981l.025.0482v.0241c.048.1123.17.2889.364.5296l.924.6981c.421.2568.818.4735 1.191.65.891.4655 1.677.8426 2.357 1.1315 1.507.6741 3.111 1.3402 4.813 1.9982l1.823.6981-.632-1.8537c-.616-1.316-1.458-3.3062-2.528-5.9704l-1.847-4.55c-.324-.7222-.567-1.2197-.729-1.4926-.162-.3049-.349-.5697-.559-.7944zm-1.313.7704c.114.016.227.0722.34.1685l.389.5055c.324.5778.778 1.5247 1.361 2.8408.438 1.0432.827 2.0383 1.167 2.9852.596 1.6544 1.082 3.0988 1.458 4.3333-1.025-.3852-2.037-.7865-3.038-1.2037l-3.378-1.613-.462-.3129-.17-.1445-.024-.024.024.0481v.0241c-.008-.0242-.016-.0483-.024-.0722-.264-.8801-.475-1.851-.632-2.913-.146-1.2037-.13-2.1827.048-2.9371.114-.4975.292-.8666.535-1.1074.227-.2568.551-.4253.972-.5055h.17l.608-.0722c.292-.0321.51-.0321.656 0z" fill="#1d2226"/><path d="m173.862 57.3217-12.128-5.6093-.097 3.8519c.081 2.8247.502 4.9191 1.264 6.2833 2.527.5296 5.258.7704 8.191.7222 1.458-.0321 2.665-.1123 3.621-.2407z" fill="#926530"/><path d="m164.601 48.727c-.778-.7543-1.458-1.3561-2.042-1.8055-1.118-.8346-1.952-1.0593-2.503-.6741-.94.642-1.458 1.3883-1.556 2.2389-.162 1.2197.576 2.5519 2.212 3.9963 1.734 1.5247 3.768 2.7605 6.101 3.7074 1.993.8025 4.059 1.3401 6.198 1.613l.17 2.7926c-1.15.1605-2.536.2166-4.156.1685-3.225-.0642-5.996-.5858-8.313-1.5648-.567.8025-.664 1.6771-.291 2.6241.421 1.0913 1.361 1.7734 2.819 2.0463 2.09.4493 4.691.6419 7.802.5777 3.387-.0642 5.396-.4574 6.028-1.1796.34-.7062.421-2.1747.243-4.4056-.178-2.1987-.486-3.6993-.924-4.5018-3.71-1.4766-5.93-2.3753-6.659-2.6963-2.237-1.0111-3.946-1.9902-5.129-2.9371z" fill="#ffc23b"/><path d="m175.442 54.5049c-.227-.016-.397.0241-.511.1204l.17 4.2611c.065 2.9049-.032 4.4938-.291 4.7667.615-.0642 1.077-.2247 1.385-.4815.292-.2407.486-.6259.583-1.1556.114-.5938.106-1.8617-.024-3.8037-.13-2.0222-.316-3.1376-.559-3.3463-.227-.2247-.478-.345-.753-.3611z" fill="#a86b09"/><path d="m161.976 58.0198c-.081.2407-.056.7864.073 1.637l10.938 1.3481.024-3.2018-4.083-.7704.364.6259c.195.4815.122.8747-.218 1.1797-.341.321-1.629.2808-3.865-.1204z" fill="#724a22"/><path d="m159.328 47.3068c-.389.8827-.413 1.6932-.073 2.4315.437.979 1.604 2.1988 3.5 3.6593 2.398 1.8777 4.958 3.0975 7.68 3.6592 1.378.2729 2.504.3611 3.379.2648l-.122-1.4203c-1.588 0-3.613-.5618-6.076-1.6852-2.236-1.0432-4.383-2.3272-6.441-3.8519-.859-.6259-1.418-1.3481-1.677-2.1667-.081-.6419-.138-.9389-.17-.8907z" fill="#a86b09"/><path d="m160.834 61.5346c.194.8025.332 1.276.413 1.4204.292.4654.851.7623 1.677.8907 1.07.1766 2.982.3772 5.736.6019 2.917.2247 4.886.321 5.907.2889 1.053-.0321 1.742-.305 2.066-.8185.291-.4334.413-1.2519.364-2.4556-.373.963-1.426 1.5247-3.16 1.6852-1.037.1123-3.524.0722-7.461-.1204-1.442-.0642-2.795-.337-4.059-.8185z" fill="#a86b09"/><path d="m178.067 59.0313c-.065-1.1235-.137-1.9501-.219-2.4797l-.194-1.2518c-.194-.6902-.348-1.1476-.462-1.3723l-.146-.3129-3.451-1.0593c-1.604-.5136-2.641-.8667-3.111-1.0593-1.151-.4333-2.123-.8987-2.917-1.3963-.81-.5135-1.653-1.1395-2.528-1.8777-.518-.4976-.915-.8747-1.191-1.1315-.405-.3852-.866-.7463-1.385-1.0834-.421-.2246-.713-.3691-.875-.4333-.405-.1605-.778-.2086-1.118-.1444-.194.016-.413.0802-.656.1926l-.389.2889c-.324.2567-.559.4574-.705.6018-.535.5617-.826 1.1636-.875 1.8056-.049.6259.122 1.2598.51 1.9018.47.7222 1.281 1.5488 2.431 2.4797 1.669 1.316 3.589 2.4716 5.76 3.4666.665.321 1.702.7624 3.112 1.3241 1.04.4642 1.882.8013 2.527 1.0111.089.6412.146 1.1629.17 1.5648v.0963l-.68.0482c-1.134-.0161-2.593-.1284-4.375-.3371l-2.236-.2166c-.713-.0963-1.426-.2408-2.139-.4334l-1.118-.2888-.729-.0482c-.357.0321-.64.1445-.851.337-.227.1926-.389.4414-.486.7463l-.097.3612-.025.2888c-.064.3692-.073.7945-.024 1.276.065.5296.243.971.535 1.324.291.3692.672.642 1.142.8186.357.1444.754.2568 1.191.337l1.118.2167c1.361.2568 2.86.4654 4.497.6259 1.701.1605 3.224.2407 4.569.2407.908 0 1.685-.0481 2.333-.1444.454-.0481.859-.1284 1.216-.2407.567-.1605 1.012-.4093 1.337-.7463l.048-.0482.049-.1204c.097-.2086.178-.4574.243-.7463l.194-1.9259c.033-.5457.033-1.3642 0-2.4555zm-17.646-12.2779.025-.024.17-.0241c.259-.0321.624.1123 1.094.4333.34.2408.737.5698 1.191.9871l1.263 1.1315c.713.5617 1.702 1.1154 2.966 1.6611l8.555 4.1166c.066.1573.139.374.219.65l.219 1.1315c.129.8186.219 1.5889.267 2.3111.065.6902.097 1.4686.097 2.3352l-.048 1.1315c-.057.405-.113.6859-.17.8426-.106.0863-.276.1585-.511.2167-.308.0963-.64.1685-.996.2167-.632.1123-1.345.1685-2.139.1685-1.248.0481-2.722 0-4.424-.1445-1.653-.1444-3.111-.329-4.375-.5537l-1.094-.2166c-.324-.0482-.648-.1284-.972-.2408-.535-.1926-.85-.5778-.948-1.1555-.032-.3371-.024-.65.025-.9389l.024-.2649.049-.1925.097-.1926.17-.0482c.162 0 .3.0161.413.0482.032 0 .373.0882 1.021.2648.956.2568 2.463.5055 4.521.7463 1.977.2889 3.484.4654 4.521.5296.615 0 1.045-.0241 1.288-.0722.194-.0321.348-.0803.462-.1445.145-.0642.275-.1765.388-.337l.098-.1685.073-.2648-.025-.7223c-.016-.7382-.016-1.4845 0-2.2389l.025-.65-.827-.1925c-.713-.0161-1.247-.0321-1.604-.0482-.648-.016-1.191-.0642-1.628-.1444-.811-.1284-1.848-.4815-3.112-1.0593-1.993-.8988-3.816-2.0864-5.468-3.563-.989-.8827-1.669-1.6771-2.042-2.3833-.259-.4333-.365-.8506-.316-1.2519.049-.3531.259-.7061.632-1.0592.146-.1445.34-.2969.583-.4574l.146-.1204z" fill="#1d2226"/><path d="m162.705 53.0605-1.823-.1445c0 .0161-.024.7062-.072 2.0704 0 .8988.04 1.7012.121 2.4074.114 1.0111.292 1.8377.535 2.4796l1.701-.65c-.194-.5456-.332-1.2197-.413-2.0222-.081-.6259-.122-1.3642-.122-2.2148z" fill="#1d2226"/><path d="m160.98 61.2461c3.144.5938 5.907.9469 8.289 1.0593 2.414.1284 3.564-.0482 3.451-.5297-1.021.0161-2.876-.1605-5.566-.5296-2.366-.321-4.043-.5938-5.031-.8185-.665-.1445-1.054-.0562-1.167.2648-.049.1766-.04.3611.024.5537z" fill="#fff140"/><path d="m164.043 49.2809c-.827-.7383-1.28-1.1235-1.361-1.1556-1.767-.8025-2.65-1.1154-2.65-.9389l.778 1.0111c.697.7865 1.531 1.4846 2.503 2.0945 2.366 1.4926 3.97 2.4636 4.813 2.913 2.268 1.2197 4.091 1.8617 5.469 1.9259.615-.0482 1.004-.1605 1.166-.3371-2.997-1.0111-5.509-2.1024-7.534-3.274-1.199-.6902-2.261-1.4365-3.184-2.2389z" fill="#fff140"/><path d="m169.025 47.3069c-.664-2.8087-1.207-4.4056-1.628-4.7908-.259.0161-.503.1124-.729.2889-.422.3531-.519.9389-.292 1.7574.373 1.3161.972 2.8648 1.799 4.6463l.704.2408c.405-.0963.454-.8105.146-2.1426z" fill="#fff140"/><path d="m165.234 56.1183c-1.377-.7383-2.204-1.0191-2.479-.8426l.024 1.2519c.065.8506.243 1.3321.535 1.4444.502.2087 1.361.3451 2.576.4093 1.345.0642 1.92-.0963 1.726-.4815-.227-.4333-1.021-1.0272-2.382-1.7815z" fill="#b77b3e"/><path d="m160.859 55.1307c0-1.3.162-2.0463.486-2.2389-1.491-1.4444-2.642-3.1216-3.452-5.0314-.794 2.0543-.534 3.8839.778 5.4889.648.8024 1.377 1.3963 2.188 1.7814z" fill="#1d2226"/><path d="m162.001 52.6512.68-.0481c-.34-.2729-.745-.6581-1.215-1.1556-.956-.9951-1.783-2.0383-2.479-3.1296-.665 1.0592-.697 2.2228-.098 3.4907.406.8988.965 1.629 1.678 2.1908-.162-1.0111.032-1.5408.583-1.5889.259-.0161.543.0642.851.2407z" fill="#a86b09"/><path d="m180.546 44.6476c-.729-.1124-1.005 1.6691-.826 5.3444.097 1.8457.259 3.6994.486 5.5612l1.409 3.3944c1.232 2.279 2.561 3.4747 3.986 3.5871 2.35.1926 3.97.2889 4.862.2889 2.187-.0321 3.621-.3772 4.302-1.0352 2.349-2.7284 3.678-5.3204 3.986-7.776l.486-11.05c-2.965.5617-5.971 1.0593-9.017 1.4926-6.077.8346-9.301.8988-9.674.1926z" fill="#fcd7be"/><path d="m184.07 61.9328c1.928 1.2198 4.019 1.7735 6.271 1.6611 2.398-.1444 4.48-1.2839 6.247-3.4185.891-1.0753 1.539-2.1346 1.944-3.1778-1.637 1.8296-3.63 3.1698-5.979 4.0204-4.715 1.7012-8.864.1204-12.445-4.7426.47 2.4074 1.791 4.2932 3.962 5.6574z" fill="#dda27a"/><path d="m198.557 44.3105-.171-.6981c-2.236-.4494-4.674-.7062-7.316-.7704-5.266-.1284-8.871.7784-10.816 2.7204-.097 1.8457-.113 3.9963-.048 6.4519.065 2.3753.162 3.6592.292 3.8518.016.0161.202-1.3562.559-4.1167.405-3.0493.753-5.0234 1.045-5.9222.534.0321 2.438.2408 5.712.6259 3.71.2408 7.275.0081 10.694-.6981.13-.4173.146-.8988.049-1.4445z" fill="#dda27a"/><path d="m199.286 45.1533-.899.2408c.21.8024.34 1.3642.388 1.6852.065.4975.098 1.0592.098 1.6851-.017.7704-.089 1.942-.219 3.5149-.243 2.5358-.908 4.7105-1.993 6.5241-.632 1.0432-1.361 1.8697-2.188 2.4796-.907.6741-1.912 1.0753-3.014 1.2037-.356.0481-.931.0722-1.725.0722-.6.0321-1.191.0321-1.775 0-1.385-.0631-2.438-.2717-3.159-.6259-.342-.293-.763-.7344-1.264-1.3241-.405-.4975-.778-1.0352-1.118-1.613-.681-1.1395-1.199-2.3271-1.556-3.5629-.713-2.3593-.923-4.9513-.632-7.776l-1.434-.1444c-.291 2.9852-.04 5.7537.754 8.3056.47 1.4605 1.053 2.7444 1.75 3.8518.372.6099.786 1.1877 1.239 1.7334.535.6259 1.045 1.1475 1.532 1.5648l.048.024.024.0241c.519.2568 1.159.4574 1.921.6019.632.0963 1.255.1444 1.871.1444.616.0321 1.224.0321 1.823 0 1.021-.0321 1.637-.0642 1.847-.0963 1.329-.1765 2.512-.666 3.549-1.4685.972-.7383 1.798-1.6852 2.479-2.8407 1.151-1.9741 1.831-4.3013 2.042-6.9815.113-1.8778.17-3.0735.17-3.5871 0-.7062-.041-1.3241-.122-1.8537-.032-.1444-.178-.7383-.437-1.7815z" fill="#1d2226"/><path d="m194.424 55.9146-3.33.0241c-.34-.0321-.591-.0722-.753-.1204-.243-.0802-.446-.2568-.608-.5296-.081.1444-.105.321-.073.5296.033.1926.106.3691.219.5296.195.2729.502.4976.924.6741.551.2408 1.207.3611 1.968.3611.762 0 1.426-.1364 1.994-.4092.405-.1766.696-.4093.875-.6982.243-.4173.275-.7784.097-1.0833-.146.2889-.341.4815-.584.5778-.097.0481-.34.0963-.729.1444z" fill="#1d2226"/><path d="m196.053 50.3775c-.308.2568-.462.5618-.462.9148.016.3692.186.6741.51.9149.308.2567.689.3771 1.143.3611.437 0 .81-.1284 1.118-.3852.324-.2729.478-.5858.461-.9389 0-.3531-.162-.658-.486-.9148-.308-.2408-.688-.3611-1.142-.3611-.454.016-.835.1524-1.142.4092z" fill="#fff"/><path d="m195.761 49.9924c-.438.3531-.657.7864-.657 1.3v.0241c.033.5135.26.9308.681 1.2518.373.321.843.4815 1.41.4815h.048c.535 0 1.013-.1685 1.434-.5056.422-.3691.632-.7944.632-1.2759v-.0241c0-.4975-.218-.9228-.656-1.2759-.437-.321-.915-.4815-1.434-.4815h-.049c-.588.0363-1.058.2048-1.409.5056zm.607 1.8296c-.162-.1284-.259-.3049-.291-.5296 0-.1926.097-.3772.291-.5537.195-.1605.47-.2568.827-.2889h.024c.308 0 .583.0883.826.2648.195.1765.292.3531.292.5296v.0241c0 .2086-.097.3852-.292.5296-.221.1878-.488.2841-.802.2889h-.048c-.324 0-.6-.0882-.827-.2648z" fill="#1d2226"/><path d="m186.33 50.4498c-.324.2728-.478.5858-.462.9389 0 .3691.162.6821.486.9389.325.2568.722.3771 1.191.3611.454 0 .835-.1284 1.143-.3852.324-.2728.486-.5938.486-.963-.016-.3531-.186-.658-.511-.9148-.324-.2568-.712-.3852-1.166-.3852-.454.0161-.843.1525-1.167.4093z" fill="#fff"/><path d="m186.039 50.0882c-.437.3531-.656.7864-.656 1.3v.0241c0 .5136.227.9389.68 1.2759.405.321.883.4815 1.434.4815h.049c.551 0 1.037-.1685 1.458-.5055.438-.3531.657-.7865.657-1.3v-.0241c-.017-.5297-.243-.955-.681-1.2759-.389-.305-.875-.4735-1.458-.5056l-.049.0241v-.0241c-.551.0321-1.029.2086-1.434.5296zm.316 1.3v-.024c.008-.1994.105-.384.292-.5537.227-.1605.51-.2568.85-.2889h.025c.34 0 .624.0963.85.2889.179.1604.284.345.316.5537 0 .2086-.105.3932-.316.5537-.221.1879-.496.2842-.826.2888h-.049c-.34 0-.623-.0882-.85-.2648-.195-.1605-.292-.345-.292-.5537z" fill="#1d2226"/><path d="m190.511 49.2701-6.028-.8907-.073 1.613 5.809.987z" fill="#a49d8d"/><path d="m184.022 47.7534-.122 2.5759 6.709 1.1315.462-2.6722zm.899 1.7815.025-.6741 5.006.7223-.145.7703z" fill="#1d2226"/><path d="m196.83 44.7682c1.588-.1926 2.431 1.5087 2.528 5.1037.049 1.7976-.057 3.6112-.316 5.4408l.754.2407 1.288-10.2555-.073-.9871c.162-2.5197-.259-4.3975-1.264-5.6333-.875-1.0272-2.05-2.1186-3.524-3.2741-1.345-1.0753-2.188-1.8377-2.528-2.2871-.13.3852-.057 1.0031.219 1.8538.129.4172.275.8024.437 1.1555-1.134-.642-2.309-1.4043-3.524-2.287-2.431-1.7494-3.816-3.1858-4.156-4.3093 0 1.3.105 2.2951.316 2.9852.032.1284.251.6339.656 1.5167-3.743-.7062-6.247-1.5568-7.511-2.5519.227.8025.503 1.8136.827 3.0333.34.8828.931 1.5167 1.774 1.9019-2.495-.3852-4.561-.5778-6.198-.5778l.851 1.4926c.68 1.0432 1.32 1.6932 1.92 1.95-.81 1.3963-1.329 2.4395-1.556 3.1297-.34 1.0913-.364 2.2469-.072 3.4666l.024.0723 1.191 9.6055 1.555-.2407c-.048-1.5568-.024-3.1698.073-4.8389.179-3.3062.624-5.208 1.337-5.7056.324-.1284.843-.1444 1.556-.0481.47.0642 1.369.1926 2.698.3852 3.159.3851 6.732.2728 10.718-.3371z" fill="#a49d8d"/><path d="m196.782 44.7199c1.507-.2247 2.325 1.4204 2.455 4.9352.081 1.7654 0 3.5469-.243 5.3445l1.191.3129-.122-5.2722c-.146-4.1408-.68-6.4599-1.604-6.9574-4.764.5778-8.734.6821-11.91.3129-1.312-.1926-2.179-.321-2.6-.3851-.681-.0803-1.216-.0562-1.605.0722-.923.8345-1.652 2.5037-2.187 5.0074-.486 2.2469-.875 3.3864-1.167 3.4185l.462 3.6834 2.674.3129c-.098-1.5889-.122-3.2339-.073-4.9352.081-3.3864.462-5.3123 1.142-5.7778.308-.1284.77-.1524 1.386-.0722.372.0642 1.134.1846 2.284.3611 2.771.3371 6.077.2167 9.917-.3611z" fill="#897f6b"/><path d="m200.792 38.7977c-.162-.2889-.364-.5537-.608-.7945l-.607-.674c-.746-.7704-1.653-1.5809-2.722-2.4315-.616-.4815-1.07-.8507-1.362-1.1074-.502-.4173-.883-.7865-1.142-1.1075l-.851-1.1074-.437 1.3c-.113.3346-.137.6957-.073 1.0834l-5.687-4.9111-.511-.6019-.583.5296c-.211.1766-.389.4494-.535.8186-.097.2888-.13.5858-.097.8907.016.4173.129.8907.34 1.4204.051.1269.173.3997.365.8185-.662-.1787-1.383-.3954-2.164-.65l-4.934-2.1185.244 1.4444c.081.4173.202.9148.364 1.4926.162.5296.34 1.0111.535 1.4445.12.2873.266.5762.437.8666-.3-.0402-.624-.0803-.972-.1203l-4.351-.1926.487 1.0351c.032.0803.218.4334.559 1.0593l.656 1.0111c.227.321.494.634.802.9389.15.1485.296.2769.437.3852-.648 1.1944-1.069 2.1012-1.264 2.7204-.21.6741-.315 1.3241-.315 1.95 0 .5778.081 1.2278.243 1.95l-.025-.0963 1.288 10.2315 4.473.0963-.049-.7945c-.097-1.7975-.121-3.6111-.073-5.4407.065-1.2198.138-2.1105.219-2.6722.097-.5778.186-.9951.267-1.2519l.195-.5296c.041-.0947.089-.183.146-.2648.265-.0698.751-.0617 1.458.024l1.871.2167c1.345.1284 2.625.1926 3.841.1926 2.17 0 4.617-.2086 7.34-.6259.023.0464.048.0945.073.1444l.243.5537c.13.3531.235.7784.316 1.2759.113.7062.186 1.613.219 2.7204 0 1.2198-.017 2.1346-.049 2.7445-.049 1.0753-.138 1.9821-.267 2.7204l-.049.3851.413.0723.972.3611.244-.626 1.677-11.0259v-.2167c.079-1.4341-.01-2.6699-.268-3.7074-.146-.6099-.389-1.2197-.729-1.8296zm-4.375-.0963-1.604-3.5389c.293.2398.665.5367 1.118.8907 1.021.8025 1.88 1.5568 2.576 2.263l.584.6259c.081.0963.227.2969.437.6019.227.3691.422.8506.584 1.4444.226.963.299 2.0543.218 3.2741v.1204l-.656 5.4407c-.046.3435-.094.6885-.146 1.0352.016-.3761.025-.6971.025-.963 0-1.2358-.025-2.1666-.073-2.7925-.065-.6099-.13-1.0914-.195-1.4445l-.219-.7463c-.129-.337-.316-.6099-.559-.8185l-.194-.1445-.243.0482c-2.641.3852-5.112.5778-7.413.5778-1.248-.0161-2.479-.0883-3.695-.2167l-2.868-.337c-.47 0-.875.0642-1.215.1926l-.073.024-.049.0482c-.259.1926-.47.4574-.632.7944-.081.1445-.178.3932-.291.7463-.13.4334-.235.9148-.316 1.4445-.114.7864-.203 1.7253-.268 2.8166-.056 1.4402-.056 3.0371 0 4.7908l-1.652-.0482-1.118-8.9796v-.0482l-.025-.0481c-.129-.5457-.194-1.0673-.194-1.5648 0-.5296.081-1.0352.243-1.5167.211-.7062.713-1.7173 1.507-3.0333l.413-.7223-.778-.3129c-.21-.0803-.437-.2408-.68-.4815l-.657-.7704-.461-.7463h.243l1.531.1445c.907.0802 1.928.2166 3.062.4092l5.348.8667-4.91-2.263c-.292-.1444-.559-.3852-.802-.7222-.178-.2407-.389-.6099-.632-1.1074-.145-.344-.282-.7212-.413-1.1315.151.0589.297.1151.437.1685.632.2729 1.264.5136 1.896.7223 1.491.4975 2.811.8506 3.962 1.0592l1.483.2889-.657-1.3241c-.275-.5135-.47-.8907-.583-1.1314-.195-.3531-.357-.6982-.486-1.0352-.099-.2249-.172-.4336-.219-.626z" fill="#1d2226"/><path d="m200.015 41.5661c0-.7864-.227-1.4525-.681-1.9981l-4.229-4.2612 1.215 3.6593c-4.747-4.1407-7.486-6.5482-8.215-7.2222-.519-.4655-.405 0 .34 1.3963.729 1.3642 1.353 2.3673 1.872 3.0092-.843-.4012-2.577-1.0432-5.202-1.9259-1.312-.4494-2.544-.8586-3.694-1.2278l1.264 1.4686c.956 1.0432 1.701 1.6771 2.236 1.9018.859.3691 2.244.7624 4.156 1.1796.373.1124.373-.2247 0-1.0111l2.042 1.0593c1.491.7704 2.609 1.316 3.354 1.637 1.183.5297 2.066.963 2.649 1.3l-.364-1.1315 3.111 3.2019c.097-.2889.146-.6339.146-1.0352z" fill="#c4bba9"/><path d="m178.479 36.7998c.47.7864 2.439 1.4605 5.907 2.0222 1.685.2889 4.521.3932 8.507.313-2.074-.7062-6.879-1.4846-14.414-2.3352z" fill="#c4bba9"/><path d="m188.737 61.8848-2.479.6018.948 1.1797c.907.8024 2.082 1.2197 3.524 1.2518h.194c1.443-.0321 2.715-.4333 3.816-1.2037l1.216-1.1556-3.038-.674-.487-1.9019-1.604.313-1.604-.313z" fill="#a49d8d"/><path d="m192.431 62.8718c-.535.3049-1.094.4574-1.677.4574-.778 0-1.434-.1284-1.969-.3852l-.583-.4093-1.434.1685.656.963c.697.6741 1.661 1.0432 2.892 1.1074 1.28.0803 2.382-.1605 3.306-.7222.648-.4012 1.069-.8346 1.264-1.3.097-.2247-.179-.3531-.827-.3852l-.996.0482z" fill="#897f6b"/><path d="m185.479 62.0774.341.7704c.016.0321.113.1926.291.4815.227.3531.495.674.803.9629 1.037.8988 2.317 1.3482 3.84 1.3482 1.539 0 2.852-.4414 3.937-1.3241.357-.2728.665-.5858.924-.9389.211-.2889.324-.4413.34-.4574l.413-.7222-2.211-.8426-.462-2.0945h-4.254l-.656 2.0223zm2.431 1.1315c-.069-.054-.134-.1182-.194-.1926l2.187-.5055.608-1.8056h2.017l.389 1.7333 1.191.4334c-.117.135-.247.2554-.389.3611-.843.642-1.831.9629-2.965.9629-1.167 0-2.115-.329-2.844-.987z" fill="#1d2226"/><path d="m192.334 60.7773-1.313.0723.244 2.4796c.194-.0481.388-.1525.583-.313.389-.2888.599-.658.632-1.1074.048-.4333.04-.7543-.024-.9629z" fill="#c4bba9"/><path d="m191.118 61.066-.097-.2167c-.194-.1444-.34-.2086-.437-.1926-.097.0803-.187.1444-.268.1926-.097.0642-.081.4735.049 1.2278.081.3691.162.7302.243 1.0833z" fill="#c4bba9"/><path d="m178.82 48.7404c-.34-.3691-.68-.4735-1.021-.313-.145-.016-.316-.008-.51.0241-.405.0642-.737.1926-.997.3852-.858.6099-.891 1.7975-.097 3.563.908 2.0061 1.783 2.7524 2.625 2.2389.827-.5136 1.11-1.6932.851-3.5389-.146-1.1074-.43-1.8939-.851-2.3593z" fill="#fcd7be"/><path d="m178.358 47.8498c-.146-.0321-.34-.0482-.583-.0482h-.024c-.503-.0321-.94.0161-1.313.1445-.486.1605-.883.4413-1.191.8426-.259.3851-.405.8426-.437 1.3722-.017.3531.032.7623.146 1.2278.178.6098.478 1.308.899 2.0944.194.3531.413.6741.656.963.389.4173.745.6901 1.07.8185.259.1284.55.1685.875.1204.307-.0482.559-.1846.753-.4093.292-.2568.527-.6339.705-1.1315.194-.6098.275-1.3722.243-2.287l-.097-1.0833c-.114-.5618-.203-.9389-.268-1.1315-.146-.4815-.389-.8667-.729-1.1556-.194-.1444-.429-.2568-.705-.337zm-.656 1.1796c.324 0 .535.0321.632.0963.146.0963.284.2969.413.6019.195.4814.308 1.1074.34 1.8777 0 .7223-.089 1.3402-.267 1.8537-.146.305-.283.5136-.413.626-.081.0642-.186.0722-.316.024-.178-.0962-.357-.2648-.535-.5055-.194-.2728-.356-.5377-.486-.7945-.324-.6259-.559-1.2197-.705-1.7814-.178-.6902-.162-1.1717.049-1.4445.081-.1765.243-.313.486-.4093.194-.0802.413-.1203.656-.1203z" fill="#1d2226"/><path d="m200.282 50.3775.121-1.7574-6.392.3611.097 1.8778z" fill="#a49d8d"/><path d="m200.816 50.7384.171-2.7203-7.389.4333.145 2.8407zm-6.173-.4814-.025-.8908 5.323-.3129-.048.7944z" fill="#1d2226"/><path d="m153.259 50.6938c-.539 5.3809-.57 11.2392-.092 17.575.955 12.6252 4 21.2671 9.133 25.9258 8.354-4.3093 12.531-15.5951 12.531-33.8572z" fill="#6d451d"/><path d="m173.074 67.7446c.216-1.584.323-3.6455.323-6.1845-2.096-.8153-4.454-1.7819-7.075-2.9-5.225-2.2362-9.155-4.1114-11.791-5.6254-.231 1.1414-.216 4.4607.046 9.958.293 6.3824.863 11.4138 1.711 15.0942 1.202 5.2178 2.859 8.6186 4.971 10.2026 2.605 1.9799 5.141.0582 7.607-5.7652 2.173-5.1479 3.576-10.0744 4.208-14.7797z" fill="#b77b3e"/><path d="m175.71 60.582v-1.0831l-.625-.1747c-1.295-.3727-3.121-1.0133-5.479-1.9218-1.788-.6755-3.6-1.4442-5.434-2.306-4.377-2.0033-7.93-3.8202-10.659-5.4507l-.878-.5241-.231 1.6072c-.34 3.8202-.463 7.8966-.37 12.2292.077 4.3093.408 8.3623.994 12.1592.709 4.4724 1.711 8.3042 3.006 11.4954 1.51 3.7968 3.452 6.7668 5.826 8.9098l.347.3144.37-.1747c2.451-1.2811 4.539-3.0864 6.266-5.4157 1.757-2.3294 3.183-5.2527 4.277-8.7701.94-3.0514 1.626-6.4872 2.058-10.3074.354-3.1446.532-6.6736.532-10.5869zm-1.758.8735c-.03 3.4475-.2 6.5455-.508 9.2942-.401 3.6105-1.033 6.8133-1.896 9.6085-1.018 3.2379-2.305 5.8817-3.861 7.9315-1.468 1.9977-3.233 3.5467-5.295 4.6471-1.959-1.8956-3.585-4.4579-4.879-7.6869-1.202-2.9583-2.135-6.5338-2.797-10.7267-.524-3.494-.84-7.384-.948-11.6701-.082-3.4934-.005-6.9525.231-10.3772 2.761.9104 6.067 2.2148 9.919 3.9133 1.325.559 3.121 1.3976 5.387 2.5157 1.726.8851 3.275 1.7353 4.647 2.5506z" fill="#1d2226"/><path d="m156.265 58.2759c-.355 3.5639-.378 7.4306-.069 11.6002.632 8.3624 2.651 14.0809 6.057 17.1557 5.518-2.8418 8.278-10.2958 8.278-22.3618z" fill="#a86b09"/><path d="m167.294 77.3536c1.279-3.0049 2.196-6.9415 2.751-11.8098l-13.179-6.1146c.432 6.6853.894 11.5187 1.387 14.5002 1.018 6.1961 2.713 8.9331 5.087 8.211 1.464-.4193 2.782-2.0149 3.954-4.7868z" fill="#ffc23b"/><path d="m156.866 59.4292.162 1.2579c.139.8618.254 1.3393.347 1.4325 1.665 1.1414 3.298 2.2944 4.902 3.4591 3.206 2.3061 4.94 3.7969 5.202 4.4724.2.5357.47 1.2695.809 2.2012.247.6056.439.757.578.4542.17-.396.401-1.6189.694-3.6687.308-2.143.408-3.4358.3-3.8784-.031-.1397-4.362-2.0498-12.994-5.7302z" fill="#fff140"/><path d="m171.177 64.7749v-.7338l-7.606-3.2494c-4.378-2.0033-6.752-3.0864-7.122-3.2495l-.647-.2795-.116 1.0133c-.246 2.5623-.354 5.2527-.323 8.0712.046 2.8418.246 5.5439.601 8.1061.447 2.9816 1.094 5.5556 1.942 7.7219 1.033 2.6554 2.335 4.6936 3.907 6.1145l.324.2796.393-.1748c1.603-.8385 3.006-2.0847 4.208-3.7386 1.156-1.5839 2.096-3.5639 2.821-5.9398.632-2.0732 1.071-4.3676 1.318-6.8833.231-2.2827.331-4.6354.3-7.0579zm-14.497 1.5373c-.066-2.3903-.027-4.6498.116-6.7784l13.087 5.9399c-.062 2.4225-.193 4.4258-.394 6.0097-.277 2.376-.709 4.4607-1.294 6.2543-.648 2.0266-1.495 3.727-2.544 5.1013-.924 1.228-2.026 2.1831-3.306 2.8651-1.201-1.1604-2.226-2.756-3.075-4.7868-.817-1.9566-1.441-4.286-1.873-6.9881-.37-2.2361-.609-4.7751-.717-7.617z" fill="#1d2226"/></g></svg>