<svg height="264" preserveAspectRatio="none" viewBox="0 0 296 264" width="296" xmlns="http://www.w3.org/2000/svg"><path d="m-10.65-30.5q-3.4 5.75-10.7 15.3 1.7 14.35-2.65 39.6-2.15 12.65-4.65 22.4-.95 4.85 2.35 6.3 3.6 1.65 12.8-.55l7.2-2.05q6.35-2.05 11.45-4.75 11.05-5.8 15.15-13.75 1.25-2.5 1.75-4.9l.15-1.9-2.4.5q-3.3.85-7.7 2.55 13.5-7.4 16.2-18.3.85-3.35.5-6.75l-.5-2.65-4.05 2.5q-4.9 3.15-8.85 6.15l-.1.05.35-.4q9.45-12.25 8.7-22.7-.2-3.25-1.45-6l-1.15-2-1.55 2.05q-2 3.05-4.2 8 5-13 1.05-22.1-1.2-2.8-3.2-4.85l-1.7-1.55-1.7 3.3q-1.9 4.15-3.35 8.45 3.4-11.65-2.35-19.5-2-2.7-4.65-4.4-2.15-1.4-3.2-1.3.7 9.25-7.55 23.25z" fill="#b1904a" transform="translate(119.15 103.55)"/><path d="m15.65 8.85-.35.4.1-.05q3.95-3 8.85-6.15l4.05-2.5.5 2.65q.35 3.4-.5 6.75-2.7 10.9-16.2 18.3 4.4-1.7 7.7-2.55l2.4-.5-.15 1.9q-.5 2.4-1.75 4.9-4.1 7.95-15.15 13.75-5.1 2.7-11.45 4.75l-7.2 2.05q-9.2 2.2-12.8.55-3.3-1.45-2.35-6.3 2.5-9.75 4.65-22.4 4.35-25.25 2.65-39.6 7.3-9.55 10.7-15.3 8.25-14 7.55-23.25 1.05-.1 3.2 1.3 2.65 1.7 4.65 4.4 5.75 7.85 2.35 19.5 1.45-4.3 3.35-8.45l1.7-3.3 1.7 1.55q2 2.05 3.2 4.85 3.95 9.1-1.05 22.1 2.2-4.95 4.2-8l1.55-2.05 1.15 2q1.25 2.75 1.45 6 .75 10.45-8.7 22.7z" fill="none" stroke="#735238" stroke-linecap="round" stroke-linejoin="round" stroke-width="4" transform="translate(119.15 103.55)"/><path d="m-10.65-30.5q-3.4 5.75-10.7 15.3 1.7 14.35-2.65 39.6-2.15 12.65-4.65 22.4-.95 4.85 2.35 6.3 3.6 1.65 12.8-.55l7.2-2.05q6.35-2.05 11.45-4.75 11.05-5.8 15.15-13.75 1.25-2.5 1.75-4.9l.15-1.9-2.4.5q-3.3.85-7.7 2.55 13.5-7.4 16.2-18.3.85-3.35.5-6.75l-.5-2.65-4.05 2.5q-4.9 3.15-8.85 6.15l-.1.05.35-.4q9.45-12.25 8.7-22.7-.2-3.25-1.45-6l-1.15-2-1.55 2.05q-2 3.05-4.2 8 5-13 1.05-22.1-1.2-2.8-3.2-4.85l-1.7-1.55-1.7 3.3q-1.9 4.15-3.35 8.45 3.4-11.65-2.35-19.5-2-2.7-4.65-4.4-2.15-1.4-3.2-1.3.7 9.25-7.55 23.25z" fill="#b1904a" transform="translate(119.15 103.55)"/><g transform="matrix(-.43678284 -.89953613 .89953613 -.43678284 164.95 182.2)"><path d="m5.25-20.9-.65.95-1.45 1.85-7.9 10.45-7.95 10.6q-1.15 1.35-2.55 5.05-1.65 4.45-1.2 6.8.5 2.45 5.55 4.6 4.1 1.75 8.4 2.35 3.55.55 7.05-1.95 3.75-2.65 5.25-7.2.5-8.9 6.5-28.65 1.2-3.85-3.9-5.25-4.75-1.3-7.15.4z" fill="#b1904a"/><path d="m5.25-20.9q2.4-1.7 7.15-.4 5.1 1.4 3.9 5.25-6 19.75-6.5 28.65-1.5 4.55-5.25 7.2-3.5 2.5-7.05 1.95-4.3-.6-8.4-2.35-5.05-2.15-5.55-4.6-.45-2.35 1.2-6.8 1.4-3.7 2.55-5.05l7.95-10.6 7.9-10.45 1.45-1.85z" fill="none" stroke="#735238" stroke-linecap="round" stroke-linejoin="round" stroke-width="4"/><path d="m16.3-16.05q1.2-3.85-3.9-5.25-4.75-1.3-7.15.4l-17.95 23.85q-1.15 1.35-2.55 5.05-1.65 4.45-1.2 6.8.5 2.45 5.55 4.6 4.1 1.75 8.4 2.35 3.55.55 7.05-1.95 3.75-2.65 5.25-7.2.5-8.9 6.5-28.65z" fill="#b1904a"/></g><g transform="matrix(-.43678284 -.89953613 .89953613 -.43678284 186.05 180)"><path d="m-6.9-11.5q-8 3.65-9.2 8.3l-.1.4-.65 3.85v.3q-.2 1.9 0 3.35l.25 1.1.35 1 .05.1q1.05 2.1 3.35 2.1h.15q1 1.65 1.95 2.45 1.65 1.4 5.4.45l.1.1.1.1.7.6 2.55 1.15h.15l.2.05.15.05h.05q3.2.6 5.7-.85l.15.1.05.05q1.45 1.1 4.7.65l1.1-.2.75-.2 1.95-.8.8-.55q1.65-1.35 2.3-3.6h.05l.15-.6.35-2.2.25-2.3.05-.5.1-2.2v-3.2l-.15-2.95-.25-3.05-1.2-1.55q-2-1.75-5.8-2.85-3.7-1.05-8.8-1.3z" fill="#b1904a"/><path d="m18.7-8.55v-.05l-.4-.55-.5-.15-.3.05-.1.35-.2.45-.05.05-.2 1.5-.3 1.05-1.1 2-.45.7v.8 3.1l-.1 2.1.05-.3-.05.5-.05.25-.2 2.2v-.1l-.35 2.15-.05.2-.1.25q-.5 1.6-1.65 2.6l-.6.4h.05l-1.45.6h-.05l-.65.15-.05.05-.75.1-.1.05-3.15-.25-.1-.05-.2-.15-.15-.1-.8-.25-1.25.25q-1.85 1-4.2.6l.35.15-.55-.1-.05-.05.45.1-.25-.1h-.05l-.25-.05-.15-.05-2.15-.95-.1-.15-.1-.1-.1-.1-.1-.1q-.4-.4-.9-.5l-1.05-.05q-2.5.65-3.6 0l-1.55-1.95-.7-.75-1-.25h-.15q-1.05 0-1.55-1l-.1-.15-.15-.55-.2-.95v-2.8-.2-.1l.6-3.6.1-.35q1.15-3.85 8.1-6.95.75-.35 1.05-1.15.25-.75-.05-1.5-.35-.8-1.15-1.05l-1.5.05q-9.1 4.15-10.3 9.6l-.05.05-.1.4-.7 4.1v.2.1q-.2 2.15.05 3.85l.05.25.25 1.1.25.85.4.85q1.35 2.5 4.05 2.9l1.75 2.05q1.95 1.85 6.1 1.1l.45.3.2.15 2.55 1.15.55.15h.15.15l-.05.05.25.05q3.25.6 5.9-.55 1.9.95 5.35.5h-.1l1.45-.25h-.05l.8-.2 2.45-1v-.05l.8-.55.25-.15q1.9-1.6 2.8-4.1l.25-.7.05-.3.1-.3.35-2.2v-.05l.25-2.4-.05.2.05-.5.05-.3.1-2.2v-.1-3.2-.05l-.15-3z" fill="#735238"/><path d="m-6.9-11.5q-8 3.65-9.2 8.3l-.1.4-.65 3.85q-.4 3.7.6 5.75 1.05 2.2 3.4 2.2h.15l.5.6q1.15 1.75 1.9 2.15l4.9.15h.05l1.1.9q1.7 1.05 3.9 1.25 2.6.25 4.6-.95h.1q.35.35 1.2.5 3.05.85 6.1-.3 4.05-1.5 4.8-6 .45-2.35.55-5.25.25-3.65-.05-7.45l-.25-3.05-1.2-1.55q-2-1.75-5.8-2.85-3.7-1.05-8.8-1.3z" fill="#daba6d"/><path d="m17.05-3.6-.35-4.85-1.2-1.55q-2-1.75-5.8-2.85.35 7.2-1.45 11.4-2.4 5.6-8.6 5.15-10.4-.8-15.85-6.5-1.25 5.4-.4 8.55.85 3.4 3.9 3.25 1 1.65 1.95 2.45 1.65 1.4 5.4.45 1.15 1.45 4 2.05 3.2.6 5.7-.85 1.65 1.5 6 .6 5.2-1.1 6.1-6.4.85-5.05.6-10.9z" fill="#b1904a"/><path d="m16.8 4.4q-1.9 4.3-7.55 6.05-5 1.5-11.35.65-6.1-.9-10.3-3.55-4.5-2.85-4.45-6.5-.4 3.8.65 5.85 1.05 2.2 3.5 2.1 1 1.65 1.95 2.45 1.65 1.4 5.4.45 1.15 1.45 4 2.05 3.2.6 5.7-.85 1.65 1.5 6 .6 5.2-1.1 6.1-6.4z" fill="#cfc1b0"/><g fill="#48331c"><path d="m5.55 13.6-.75-4.8-.25-2.65q-.85 4.25-.3 6.95h.1q.35.35 1.2.5z"/><path d="m-3.85 5q-1.65 4.15-1.55 6.9h.05l1.1.9.15-5z"/><path d="m-11.1 2.65q-1.6 3.95-1.75 6.35h.15l.5.6q-.05-1.8.5-4.4z"/></g></g><path d="m55.1-5.05q2-4.65 1.05-8.45-.85-3.45-3.55-4.65-2.7-1.15-5.7.95-3.15 2.25-4.05 6.65-.55 2.85-4 6.9-4.15 4.9-9.65 7.55-15.65 7.55-33.5-6.65-17.3-13.7-32.4-18.15-7.5-2.25-11.6-1.7-9.9 2-7.7 7.35.75 2.05 3.1 3.8 2.35 1.65 4.6 1.95l3.25-.2q1.8-.25 4.3.75 7.4 2.95 32.45 20.85 26.25 18.7 46.2 5.05 11.3-7.8 17.2-22z" fill="#daba6d" transform="translate(228.75 156)"/><path d="m-48.3-22.6q4.1-.55 11.6 1.7 15.1 4.45 32.4 18.15 17.85 14.2 33.5 6.65 5.5-2.65 9.65-7.55 3.45-4.05 4-6.9.9-4.4 4.05-6.65 3-2.1 5.7-.95 2.7 1.2 3.55 4.65.95 3.8-1.05 8.45-5.9 14.2-17.2 22-19.95 13.65-46.2-5.05-25.05-17.9-32.45-20.85-2.5-1-4.3-.75l-3.25.2q-2.25-.3-4.6-1.95-2.35-1.75-3.1-3.8-2.2-5.35 7.7-7.35z" fill="none" stroke="#735238" stroke-linecap="round" stroke-linejoin="round" stroke-width="4" transform="translate(228.75 156)"/><path d="m55.1-5.05q2-4.65 1.05-8.45-.85-3.45-3.55-4.65-2.7-1.15-5.7.95-3.15 2.25-4.05 6.65-.55 2.85-4 6.9-4.15 4.9-9.65 7.55-15.65 7.55-33.5-6.65-17.3-13.7-32.4-18.15-7.5-2.25-11.6-1.7-9.9 2-7.7 7.35.75 2.05 3.1 3.8 2.35 1.65 4.6 1.95l3.25-.2q1.8-.25 4.3.75 7.4 2.95 32.45 20.85 26.25 18.7 46.2 5.05 11.3-7.8 17.2-22z" fill="#daba6d" transform="translate(228.75 156)"/><path d="m-4.9-16.65.2.7q.7 2.9.5 5.2-.25 3.8-2.85 4.85-1.2.45-2.4 2.7-1.25 2.25-1.85 5.2-1 5.05.5 8.75 1.85 4.5 7.15 5.55 8.75 1.7 12.85-4.25 3.35-4.9 2.35-11.85-.8-6.1-5.05-10.85-4.65-5.15-11.4-6z" fill="#1e2226" transform="translate(280.6 132.95)"/><g fill="none" stroke-linecap="round" stroke-linejoin="round" stroke-width="4" transform="translate(280.6 132.95)"><path d="m-4.9-16.65q6.75.85 11.4 6 4.25 4.75 5.05 10.85 1 6.95-2.35 11.85-4.1 5.95-12.85 4.25-5.3-1.05-7.15-5.55-1.5-3.7-.5-8.75.6-2.95 1.85-5.2 1.2-2.25 2.4-2.7 2.6-1.05 2.85-4.85.2-2.3-.5-5.2" stroke="#0f0f13"/><path d="m-4.7-15.95-.2-.7" stroke="#060709"/></g><path d="m-4.9-16.7.2.7q.75 2.95.55 5.25-.25 3.8-2.85 4.8-1.2.5-2.4 2.75-1.25 2.25-1.85 5.2-1 5.05.5 8.7 1.85 4.55 7.15 5.55 8.75 1.7 12.85-4.2 3.35-4.9 2.35-11.85-.85-6.15-5.05-10.85-4.65-5.15-11.45-6.05z" fill="#1e2226" transform="translate(280.6 132.95)"/><path d="m-4.7-16q.75 2.95.55 5.25-.25 3.8-2.85 4.8-1.2.5-2.4 2.75-1.25 2.25-1.85 5.2 2.05 3.85 6.65 4.4 5.25.65 9.25-4.7 3.65-4.95-1.3-11-3-3.65-8.05-6.7z" fill="#2c3034" transform="translate(280.6 132.95)"/><g transform="matrix(.78327942 .62165833 -.62165833 .78327942 80.95 195.5)"><path d="m13.2-19.65-2.6-3.55q-3.7-3.75-9.2-4.6l-2.75-.25q-7.05-.2-10.1 3-1.55 1.65-1.7 3.25l.5 41.6q0 2.35 1.3 4.2 1.95 2.8 6.45 3.55 8.8 1.5 12.7-1.3 1.25-.85 1.85-2.05l.35-1.15 1.7-23.35z" fill="#b1904a"/><path d="m13.2-19.65-1.5 19.35-1.7 23.35-.35 1.15q-.6 1.2-1.85 2.05-3.9 2.8-12.7 1.3-4.5-.75-6.45-3.55-1.3-1.85-1.3-4.2l-.5-41.6q.15-1.6 1.7-3.25 3.05-3.2 10.1-3l2.75.25q5.5.85 9.2 4.6z" fill="none" stroke="#735238" stroke-linecap="round" stroke-linejoin="round" stroke-width="4"/><path d="m13.2-19.65-2.6-3.55q-3.7-3.75-9.2-4.6l-2.75-.25q-7.05-.2-10.1 3-1.55 1.65-1.7 3.25l.5 41.6q0 2.35 1.3 4.2 1.95 2.8 6.45 3.55 8.8 1.5 12.7-1.3 1.25-.85 1.85-2.05l.35-1.15 1.7-23.35z" fill="#daba6d"/><path d="m12.6-12.15-2.3-3.5q-3.4-3.7-8.9-4.55l.7 31.45-1.75 3.5q-2.2 3.55-4.25 4 7.2 1.4 12.7 4.75l1.15-.15z" fill="#b1904a"/></g><g transform="matrix(.99998474 -.00013733 .00013733 .99998474 61.9 220.75)"><path d="m-6.35-11.95q-8.2 3.25-9.6 7.85l-.6 2.45-.5 3.2-.05 1.25.1 1.5.1.5.15.5.1.4.05.05v.05l.05.1v.05l.75 1.2 1.05.75 1.45.3h.15l1.8 2.55.25.2.2.15q1.1.7 2.95.65l1.5-.2.5-.1q.85 1.2 2.75 1.9l.55.2.1.05.25.05.2.05 3.5.2q1.2-.2 2.3-.75l.05.05q.3.25 1.1.5l-.05-.3 3.75.8.2-.05 1-.15.3-.05h.15l2.45-.9.9-.65q1.9-1.55 2.5-4.45l.35-1.75.4-2.4.1-1.05.1-.95.05-1 .15-3.7v-1.8l-.15-3.1-1.15-1.6q-1.9-1.8-5.7-3.1-3.4-1.2-8.65-1.8z" fill="#b1904a"/><path d="m-2.95 15.55h.05l-.1-.05zm22-23.4q0-.85-.6-1.4-.6-.55-1.35-.55l-.15.75-.15.45v.05l-.2.45q-.65 1.9-1.4 2.85v.65 1.7l-.15 3.55-.05.95-.1.95-.1 1.05.05-.05-.4 2.25v.05l-.35 1.7q-.45 2.15-1.8 3.3l-.75.55-1.55.55-.45.1h-.2l-.8.1h-.05l-3.3-.7-.5-.05-.65-.2-1.25.15-1.7.6-2.7-.2.4.15-.2-.05-.25-.1-.35-.1-.55-.2-1.75-1.15-.9-.7-1.15-.1-.35.1-1.3.15-1.75-.25-.15-.15-.05-.05h-.05l-1.4-2.05-.7-.75q-.5-.3-1.05-.3h-.15l-.5-.05-.75-.6-.05-.2-.05-.05v-.15l-.1-.2-.05-.1-.1-.3-.05-.15-.05-.35-.1-1.25.05-1.1.45-2.9.6-2.3q1.3-3.8 8.4-6.6v-.1-.05-.1-.1-.1-.1-.1-.1-.1-.05-.1-.1-.1-.1-.1-.1-.1-.05-.1-.1-.1-.1-.1-.1-.1-.05-.1-.1-.1-.1-.1-.1-.1-.05-.1-.1-.1-.1-.1-.05q-.75-.3-1.45 0-9.35 3.7-10.8 9.15l-.05.1-.6 2.45-.55 3.55v.1l-.05 1.25.15 1.8v.1l.1.5.15.6.1.4.15.35.05.2.05.1 1.1 1.65.3.3 1.05.75.3.2 1.25.35 1.65 2.1h-.05l.35.3.45.3.15.1q1.47695313.89746094 3.9.85h.25l.95-.15q1.05 1 2.8 1.65h.1l.25.1.35.1.2.05.1.05.15.05.2.05 4.25.25h.05l1.85-.5.65.2q.6.2 1.25 0l2.65.55h.95l.85-.15.2-.05h.05.15l.3-.05q1.6-.35 2.95-1.1l.15-.05.9-.65.2-.15q2.4-1.95 3.15-5.55l.4-1.85-.05.05.45-2.55v-.05l.1-1.05.1-.9.05-1.1.15-3.85v-1.8-.05zm-37.65 13.9-.05-.1zm14.55 8.95.1.05z" fill="#735238"/><path d="m-6.25-12q-8.2 3.3-9.65 7.85l-.1.45-.85 3.8q-.5 3.65.35 5.8.9 2.2 3.25 2.25h.15l.5.7 1.75 2.2q1.65 1.05 4.9.4l.1-.05 1.05 1q1.6 1.15 3.85 1.5 2.55.3 4.6-.75l.1-.05 1.15.55q3.05.95 6.15 0 4.1-1.3 5.05-5.75l.85-5.2q.35-3.65.35-7.45l-.2-3.05-1.15-1.65q-1.9-1.8-5.65-3.1-3.45-1.2-8.65-1.75z" fill="#daba6d"/><path d="m17.3-2.95-.2-4.85-1.15-1.65q-1.9-1.8-5.65-3.1.05 7.2-1.95 11.3-2.7 5.5-8.85 4.75-10.25-1.3-15.5-7.2-1.55 5.3-.85 8.45.7 3.4 3.75 3.4.95 1.75 1.8 2.6 1.65 1.45 5.45.65 1.05 1.55 3.85 2.25 3.15.8 5.75-.55 1.6 1.6 6 .85 5.25-.85 6.35-6.05 1.1-5 1.2-10.85z" fill="#b1904a"/><path d="m16.95 2.7q-2.9 4.75-8.35 6.75-4.9 1.75-10.65.9-5.45-.8-9.55-3.55-4.3-2.9-5.25-6.7-.5 3.7.4 5.85.95 2.2 3.35 2.2.95 1.75 1.8 2.6 1.65 1.45 5.45.65 1.05 1.55 3.85 2.25 3.15.8 5.75-.55 1.6 1.6 6 .85 5.25-.85 6.35-6.05z" fill="#cfc1b0"/><g fill="#48331c"><path d="m4.9 13.65q-.3-1.8-.5-4.8l-.1-2.65q-1.05 4.3-.65 6.95l.1-.05z"/><path d="m-4.05 4.65q-1.85 4.1-1.9 6.8l.1-.05 1.05 1 .4-5z"/><path d="m-11.2 1.9q-1.7 3.75-2.05 6.25h.15l.5.7q.05-1.75.65-4.4z"/></g></g><g transform="matrix(.97137451 .23754883 -.23754883 .97137451 159.3 171.45)"><path d="m-19.4-37.05q-5.6 3.1-9.25 5.75-7.45 4.45-11.8 13.15-2.2 4.35-2.9 7.8l-5.6 21.8 27 34.35 19.2 1.25q30.85-15.3 42.5-22.2 7.45-4.45 8.9-18.1 1-9.8-.7-15.8-2.15-7.75-3.7-11-5-10.05-16.55-21.2-9.05-8.7-26.2-4.4-9.65 2.4-20.9 8.6z" fill="#b1904a"/><path d="m39.75 24.85q-11.65 6.9-42.5 22.2l-19.2-1.25-27-34.35 5.6-21.8q.7-3.45 2.9-7.8 4.35-8.7 11.8-13.15 3.65-2.65 9.25-5.75 11.25-6.2 20.9-8.6 17.15-4.3 26.2 4.4 11.55 11.15 16.55 21.2 1.55 3.25 3.7 11 1.7 6 .7 15.8-1.45 13.65-8.9 18.1z" fill="none" stroke="#735238" stroke-linecap="round" stroke-linejoin="round" stroke-width="4"/><path d="m-19.35-37.1q-5.55 3.1-9.25 5.75-7.4 4.5-11.8 13.2-2.2 4.35-2.9 7.75l-5.6 21.85 27 34.3 19.2 1.3q30.85-15.35 42.55-22.25 7.45-4.4 8.85-18.1 1-9.75-.65-15.8-2.2-7.75-3.75-10.95-5-10.1-16.55-21.2-9.05-8.7-26.2-4.45-9.65 2.4-20.9 8.6z" fill="#daba6d"/><path d="m27.75-41.25q-9.05-8.7-26.2-4.45l8.4.75q4.8 1.05 8.45 4.35 10.95 9.9 12.8 17.55 1.8 7.3-4.35 13.75-3.2 3.4-11.35 8.45-6.25 3.85-8.65 8.75-11.8 24.15-25.75 32.25l.4 5.8 15.8 1.1q30.85-15.35 42.55-22.25 7.45-4.4 8.85-18.1 1-9.75-.65-15.8-2.2-7.75-3.75-10.95-5-10.1-16.55-21.2z" fill="#b1904a"/></g><path d="m-46.3-14.45q-4.4 5.45-3.8 9.65.2 1.4 1.7 4.75l4 7.95q3.25 5.95 7.35 11.85 3.4 4.9 6.75 8.85l3.7 4.05 1.2 1.25q2.75 2.7 5.45 4.8l14.75 6.3q12.35.5 29.4-5.85 9.8-3.7 18.05-8.3l.7-.35q3.05-3.4 5.2-9.75 4.3-12.65-.1-27.3l-.2-.6q-4.65-14.9-11.7-24.7-3.5-4.9-6.1-6.85l-3.4-3.25q-4.05-3.2-7.1-3.1-3.05.2-17.4 5.25l-13.7 5.1-5.25 2.6h-.05l-21.55 10.65q-4.4 2.8-7.9 7z" fill="#b1904a" transform="translate(123.05 179.9)"/><path d="m-47.85-15.7q-5.05 6.3-4.2 11.2.15 1.55 1.85 5.3v-.05q1.55 3.65 4.05 8.15v-.05q3.3 6.05 7.45 12.05 3.45 5 6.9 9l.05.05 3.7 4.05 1.25 1.35 5.6 4.9q6.8 5.6 15.75 6.75h.2q12.65.55 30.15-5.95 8.1-3.1 15.15-6.75l.6-.8q3.35-4.05 5-7.05l-3.05 1.9-1.3.75-.05.05q-8.15 4.5-17.75 8.15-16.6 6.15-28.6 5.7-7.7-1-13.55-5.85h-.05l-5.3-4.65h.05l-1.15-1.2-3.7-4.05q-3.3-3.85-6.6-8.65-4.05-5.8-7.25-11.65l-3.9-7.8q-1.35-3-1.55-4.2-.4-3.5 3.35-8.1v-.05q3.3-3.95 7.45-6.55l-.2.1.2-.1q10.6-5.19980469 21.15-10.45l.25-.1 5.2-2.55.05-.05 13.5-5 10.75-3.6.6-.55v-.95l-.65-1.3-1.35-.95-10.7 3.6-13.75 5.1-.2.05-5.05 2.5-.25.1-21.55 10.65-.15.15q-4.7 2.95-8.35 7.4z" fill="#735238" transform="translate(123.05 179.9)"/><path d="m-46.2-14.45q-4.45 5.4-3.85 9.65.25 1.4 1.7 4.75l4 7.95q3.25 5.9 7.35 11.85 6 8.5 11.7 14.1 10.85 10.7 20.15 11.1 12.4.55 29.4-5.85 9.8-3.7 18.05-8.25l.7-.4q3.05-3.4 5.2-9.7 4.3-12.7-.1-27.35l-.15-.6q-4.7-14.9-11.75-24.7-3.5-4.9-6.1-6.8l-3.35-3.25q-4.1-3.25-7.15-3.1-3.05.15-17.4 5.25l-13.7 5.05-26.85 13.3q-4.4 2.75-7.85 7z" fill="#daba6d" transform="translate(123.05 179.9)"/><path d="m48.1-6.6q-10 3.5-22.9 4.5-15.15 1.35-28 9.8-9.85 6.4-16.55 15.45l-1.4 1.95-4.55 8.75q10.85 10.7 20.15 11.1 12.4.55 29.4-5.85 9.8-3.7 18.05-8.25l.7-.4q3.05-3.4 5.2-9.7 4.3-12.7-.1-27.35z" fill="#b1904a" transform="translate(123.05 179.9)"/><path d="m3.65-17.4-1.5-8.85-11.7-5.8-7.25-.1-21.55 10.7q-4.4 2.75-7.85 7-4.45 5.4-3.85 9.65.25 1.4 1.7 4.75l4 7.95q3.25 5.9 7.35 11.85 6.65 3.85 14.5 3.65 15.65-.4 20.6-18.7 1.55-5.7 1.85-12.55v-5.65z" fill="#9c7a37" transform="translate(123.05 179.9)"/><path d="m-2.8 7.7q-9.85 6.4-16.55 15.45 11.75-1.9 16.55-15.45z" fill="#8a6827" transform="translate(123.05 179.9)"/><path d="m42.3 30.85q4.3-4.35 6.6-13.8l1.35-8.6-12.9 7.75-6.05 2.6q-8.3 3-19.4 5.35-11.4 2.4-16.5.45-3.3-1.2-5.55-5.55l-.65-1.2-1.1-3.6q-.6-2.5-1.55-3.9-3.15-4.55-14.4-5.6-12.3-1.2-16.5 3.15l7.35 11.85q7.4 10.65 14.9 17.05 9.05 7.8 16.95 8.15 12.4.55 29.4-5.85 9.8-3.7 18.05-8.25z" fill="#f9eddc" transform="translate(123.05 179.9)"/><path d="m-10.15 19.05-.65-1.2-1.1-3.6q-.6-2.5-1.55-3.9-3.15-4.55-14.4-5.6-12.3-1.2-16.5 3.15l7.35 11.85q6.65 3.85 14.5 3.65 7.35-.25 12.35-4.35z" fill="#ac956f" transform="translate(123.05 179.9)"/><g transform="translate(128.95 180.55)"><path d="m-51.8-16.1-11.05 7.3 1.4 5q1.95 6.25 4.65 12.15 3.35 7.35 7.45 13.45 6.7 9.8 14.95 15.2 10 6.6 21.8 6.5.65 0 1.2-.35l.95-.8-6.3-.5q-5.1-.9-9.55-4.95 5.65-6.45 11.1-18.05 8.15-17.15 3.5-26.2-4.55-8.9-10.55-10.55-3-.85-5.1.1zm75.7-15.15q-6.75 3.85-7.05 4.3-.25.35-.8 2.6l8.25 10.8 3.05 4.65q3.1 6.05 4.65 11.3 2.8 9.6 1 16.95l-.55 2-.45 1.35q-2.85 7.25-8.5 12.55-2.85 2.65-5.1 3.9l.4 1.45q.55 1.4 1.5 1.3l4.8-1.5q4.35-1.4 7.05-1.4 3.25-2.6 5.3-5.2 3.9-4.95 5.95-11.9l1.1-4.35q1.15-5.55 1.15-12.15 3.8-3.15 7.05-6.8 5.45-6.1 8.05-11.85 3.45-7.65 1.4-13.9l-.35-1.05q-3.7-9.05-10.6-13.1-3.4-2-6.1-2.2z" fill="#1e383c"/><path d="m52.7-1.4q-3.25 3.65-7.05 6.8 0 6.6-1.15 12.15l-1.1 4.35q-2.05 6.95-5.95 11.9-2.05 2.6-5.3 5.2-2.7 0-7.05 1.4l-4.8 1.5q-.95.1-1.5-1.3l-.4-1.45q2.25-1.25 5.1-3.9 5.65-5.3 8.5-12.55l.45-1.35.55-2q1.8-7.35-1-16.95-1.55-5.25-4.65-11.3l-3.05-4.65-8.25-10.8q.55-2.25.8-2.6.3-.45 7.05-4.3l21.2-12.25q2.7.2 6.1 2.2 6.9 4.05 10.6 13.1l.35 1.05q2.05 6.25-1.4 13.9-2.6 5.75-8.05 11.85zm-79 38.3q4.45 4.05 9.55 4.95l6.3.5-.95.8q-.55.35-1.2.35-11.8.1-21.8-6.5-8.25-5.4-14.95-15.2-4.1-6.1-7.45-13.45-2.7-5.9-4.65-12.15l-1.4-5 11.05-7.3 24.45-1.7q2.1-.95 5.1-.1 6 1.65 10.55 10.55 4.65 9.05-3.5 26.2-5.45 11.6-11.1 18.05z" fill="none" stroke="#13272a" stroke-linecap="round" stroke-linejoin="round" stroke-width="4"/></g><path d="m-51.8-16.1-11.05 7.3 1.4 5q1.95 6.25 4.65 12.15 3.35 7.35 7.45 13.45 6.7 9.8 14.95 15.2 10 6.6 21.8 6.5.65 0 1.2-.35l.95-.8-6.3-.5q-5.1-.9-9.55-4.95 5.65-6.45 11.1-18.05 8.15-17.15 3.5-26.2-4.55-8.9-10.55-10.55-3-.85-5.1.1z" fill="#1e383c" transform="translate(128.95 180.55)"/><path d="m-17.2 17.15-5.25-3.35q-5.5-3.5-6.9-3.95-5.95 3.55-14.6 2.35-6.15-.85-12.85-3.85 3.35 7.35 7.45 13.45 5.85 5.7 12.5 10.1 4.95 3.3 7.1 4 3.8-3.25 8.55-11.35z" fill="#457780" transform="translate(128.95 180.55)"/><path d="m23.9-31.25q-6.75 3.85-7.05 4.3-.25.35-.8 2.6l8.25 10.8 3.05 4.65q3.1 6.05 4.65 11.3 2.8 9.6 1 16.95l-.55 2-.45 1.35q-2.85 7.25-8.5 12.55-2.85 2.65-5.1 3.9l.4 1.45q.55 1.4 1.5 1.3l4.8-1.5q4.35-1.4 7.05-1.4 3.25-2.6 5.3-5.2 3.9-4.95 5.95-11.9l1.1-4.35q1.15-5.55 1.15-12.15 3.8-3.15 7.05-6.8 5.45-6.1 8.05-11.85 3.45-7.65 1.4-13.9l-.35-1.05q-3.7-9.05-10.6-13.1-3.4-2-6.1-2.2z" fill="#1e383c" transform="translate(128.95 180.55)"/><path d="m26.8-15.8-2.5 2.25 3.05 4.65q3.1 6.05 4.65 11.3l20.7-3.8q5.45-6.1 8.05-11.85 3.45-7.65 1.4-13.9z" fill="#457780" transform="translate(128.95 180.55)"/><path d="m43.4 21.9 1.1-4.35-11.5 1.8-.55 2-.45 1.35z" fill="#457780" transform="translate(128.95 180.55)"/><g transform="translate(128.95 180.55)"><path d="m45.95 12.7-1.25.1v-.05l-11.4.75.05.05-4.05.25q-1.25.75-2.05 3.5l-.5 2.1-.2 1.3-.2 1.5q-.4 4.15.45 6.6l.5 1q.65.95 1.6 1.15l.8.05 5.5-.65 6.05-1 .3-.05 2.9-.75 2.15-2.6.55-1.1q1.7-3.65.4-8.25zm-2 6.75q.05 3.35-1.5 5.1l-.45.5-5 1.05-5.25.5h-.1l.1-.3.75-1.35q.75-1.85.85-4.1v-.45-.65l-.2-2 1.7-.15 7.7-1 1.05-.2zm-101.85-7.35.25-.1-.2-.25zm43.65-13.95-.05-5.1-1.3-.1-5.2.95q-.45 7.2-2.05 13.1l-1.15 3.85-1.7 4.3-1.5 3.05-.15.3-.2.3-4.55 6.55-1.75 1.8-.85.85-.8.75-.7.55-1.15.8q-2 .25-7.75-5.05-5.15-4.7-12.55-13.05l-.25.1q6.45 10.2 14.6 16.45 8.1 6.25 11.35 6.8l1.35-1.45.05.05 1.8-2 .7-.85.45-.5.2-.25 4.55-6.35 1.2-1.95.95-1.7.55-1.15q1.05-1.95 1.75-3.75l.65-1.6.9-2.45.15-.45q2.05-6.5 2.45-12.8z" fill="#bf8800"/><path d="m-16.7 10.95-.15.45-.9 2.45-.65 1.6q-.7 1.8-1.75 3.75l-.55 1.15-.95 1.7-1.2 1.95-4.55 6.35-.2.25-.45.5-.7.85-1.8 2-.05-.05-1.35 1.45q-3.25-.55-11.35-6.8-8.15-6.25-14.6-16.45l.05-.35.2.25q7.4 8.35 12.55 13.05 5.75 5.3 7.75 5.05l1.15-.8.7-.55.8-.75.85-.85 1.75-1.8 4.55-6.55.2-.3.15-.3 1.5-3.05 1.7-4.3 1.15-3.85q1.6-5.9 2.05-13.1l5.2-.95 1.3.1.05 5.1q-.4 6.3-2.45 12.8zm61.4 1.85 1.25-.1 1.6 3.9q1.3 4.6-.4 8.25l-.55 1.1-2.15 2.6-2.9.75-.3.05-6.05 1-5.5.65-.8-.05q-.95-.2-1.6-1.15l-.5-1q-.85-2.45-.45-6.6l.2-1.5.2-1.3.5-2.1q.8-2.75 2.05-3.5l4.05-.25-.05-.05 11.4-.75zm-102.6-.7.25-.1" fill="none" stroke="#a67703" stroke-linecap="round" stroke-linejoin="round" stroke-width="4"/></g><path d="m-14.25-1.85-.05-5.1-1.3-.1-5.2.95q-.45 7.2-2.05 13.1l-1.15 3.85-1.7 4.3-1.85 3.65q-2.75 4.9-6.3 8.35l-2.35 2.15-1.15.4q-3.1-1-9.15-6.05-6.1-5.05-11.5-12.8l-.15 2.45q7.2 10 14.95 16.05 7.7 6.05 11.25 6l3.2-3.4q3.6-4.15 6.45-8.9l2.15-3.85q1.05-1.95 1.75-3.75l1.7-4.5q2.05-6.5 2.45-12.8z" fill="#bf8800" transform="translate(128.95 180.55)"/><path d="m-20.15 19.2-5.55-4.05q-4.1 9.05-10.5 14.15l5.65 4.65q6.45-6.9 10.4-14.75z" fill="#d8a100" transform="translate(128.95 180.55)"/><path d="m-16.7 10.95-6.3-3.25-1 3.15 5.6 4.6z" fill="#d8a100" transform="translate(128.95 180.55)"/><path d="m-22.3 23.05-5.25-4.25q-2.75 4.9-6.3 8.35l5.1 4.8q3.6-4.15 6.45-8.9z" fill="#ecd900" transform="translate(128.95 180.55)"/><path d="m-22.85 7.05-.5 1.75 5.6 5.05.9-2.45z" fill="#ecd900" transform="translate(128.95 180.55)"/><path d="m47.55 16.6-1.6-3.9-16.65 1.1q-1.25.75-2.05 3.5-.6 2.1-.85 4.75v.15q-.45 4.15.4 6.55l.5 1.05q.65.95 1.6 1.15l.8.05 5.5-.65 6.05-1 3.2-.85 1.45-1.55 1.25-2.1q1.7-3.65.4-8.25m-5 0 1.05-.2.35 3q.05 3.4-1.5 5.15l-.4.5-.25.15-1.3.35-3.45.5-5.25.55h-.15-.15l.3-.4q1.05-1.45 1.4-3.95l.15-2.5-.2-2 1.7-.15z" fill="#bf8800" transform="translate(128.95 180.55)"/><path d="m44.45 28.5q1.8-1.55 2.7-3.65l-5.1.2-5 1-1.85 4.3q7.5-1.05 9.25-1.85z" fill="#d8a100" transform="translate(128.95 180.55)"/><path d="m31.5 26.6 1-1.65q.95-2.25.85-5.2l-6.1-2.45q-.6 2.1-.85 4.9-.45 4.15.4 6.55l5-2.15z" fill="#d8a100" transform="translate(128.95 180.55)"/><path d="m42.55 16.6 2.2-3.85-11.45.75 1.55 4.1z" fill="#d8a100" transform="translate(128.95 180.55)"/><path d="m33.2 22.25-6.8-.2v.15q-.45 4.15.4 6.55l.5 1.05 4.35-3.2z" fill="#ecd900" transform="translate(128.95 180.55)"/><path d="m45.9 26.95-3.45-2.4-.4.5-.25.15-1.3.35.75 3.8 3.2-.85z" fill="#ecd900" transform="translate(128.95 180.55)"/><g transform="matrix(.86166382 .50747681 -.50747681 .86166382 128.3 214.05)"><path d="m-6-30.1q-6.5 1.5-9.4 6.35-2.75 4.75-.45 9.15l.95 1.9q6.65 13 7.05 16.3.3 2.25.1 10.25-.15 7.85-.45 8.7-.7 1.9.3 3.65 1.65 3 7.7 3.8l6.2.65 5.9-.4q2.05-.6 2.65-2.2.8-2.15 1.75-12.2.9-9.85.6-11.9-.65-5-2.8-15.8-2.9-14.3-4.65-16.6-1.7-2.3-8.75-2.2z" fill="#b1904a"/><path d="m9.5-28.35q1.75 2.4 4.6 16.5 2.15 10.8 2.8 15.8.3 2.05-.6 11.9-.95 10.05-1.75 12.2-.6 1.6-2.65 2.2l-5.9.4-6.2-.65q-6.05-.8-7.7-3.8-1-1.75-.3-3.65.3-.85.45-8.7.2-8-.1-10.25-.4-3.3-7.05-16.3l-.95-1.9" fill="none" stroke="#735238" stroke-linecap="round" stroke-linejoin="round" stroke-width="4"/><path d="m-5.95-30.15q-6.5 1.5-9.35 6.4-2.8 4.7-.5 9.1l1 1.9q6.6 13 7 16.3.3 2.25.1 10.25-.15 7.85-.45 8.75-.65 1.9.35 3.6 1.65 3 7.7 3.85l6.15.6 5.9-.35q2.05-.65 2.65-2.25.8-2.1 1.75-12.2.9-9.85.65-11.85l-2.85-15.85q-2.9-14.25-4.6-16.6-1.7-2.25-8.8-2.15z" fill="#daba6d"/><path d="m14.15-11.9q-2.9-14.25-4.6-16.6-1.7-2.25-8.8-2.15l-6.7.5q-6.5 1.5-9.35 6.4-2.8 4.7-.5 9.1l1 1.9q1.55-4.3 3.7-6.35 3.2-3.1 6.95-.5 5.05 3.55 9.5 12.3 3.25 6.45 4 10.35.4 1.95-.45 10.65l-1.55 12.45-1.3 4.45 5.9-.35q2.05-.65 2.65-2.25.8-2.1 1.75-12.2.9-9.85.65-11.85z" fill="#b1904a"/></g><g transform="matrix(.9889679 .14802551 -.14802551 .9889679 111.45 245.2)"><path d="m-6.35-11.95q-8.2 3.25-9.6 7.85l-.15.4q-1.3 4.5-.95 7.55l.45 2.05.55 1h.05q.95 1.25 2.7 1.3h.15l1.8 2.55.15.1.15.15.15.1h.05l2 .6 2.9-.25q.9 1.2 2.75 1.9l1.8.5.35.05 3.6-.25 1.1-.5.3.25.65.4.7.25.2.05.75.1 1.35.05h.3l3.1-.55 1-.4q3.2-1.45 4.05-5.35l.25-1.15.45-3.15.25-2.05.2-3.35v-1.15-1.85l-.15-3.05-1.2-1.6q-1.85-1.85-5.6-3.1-3.85-1.25-8.7-1.75z" fill="#b1904a"/><path d="m19.05-7.85q0-.65-.4-1.15l-.8-1.1q-.5 2.6-1.95 5.05l-.7.9v1.25 1.05l-.2 3.25-.2 1.95-.45 3-.25 1.25v-.05q-.6 2.85-2.9 3.95h-.1l-.65.3h-.05l-2.55.45h-.1l-1.35-.05.1.05-.4-.05-.4-.1-.2-.1-.3-.15-.15-.1h.05q-.5-.5-1.15-.55l-1.25.2-.75.35-2.5.2h-.2l-.15-.05h-.2l-1.35-.4h-.05l-1.85-1.25-.9-.65-1.1-.1-2.1.2-1.55-.45-.1-.1-1.3-1.9-.7-.75q-.5-.3-1.05-.3h-.15q-.7-.05-1.1-.5l-.1-.15-.2-.35-.35-1.5v-.05q-.3-2.75.9-6.8v-.05l.15-.4v.1q1.3-3.75 8.15-6.5l.35-4.25-1.4.4-.15.05q-9.35 3.7-10.8 9.15l-.05.1-.1.3-.05.1q-1.4 4.9-.95 8.25l-.05-.05.6 2.6.05.1.7 1.25.4.5q1.15 1.3 2.95 1.6l1.65 2.1.05.1.55.45.85.35 1.85.55.4.05 2.35-.1q1.05.95 2.7 1.6l.05.05 2.05.55.35.05.15.05 4.55-.35h.05l.2-.1.25.15 1.15.4.15.05.25.05.75.1h.1l1.35.05h.15.3.1l3.65-.65-.05.05 1.3-.55-.05.05q4.05-1.85 5.15-6.75l.05-.1.2-1 .05-.15.45-3.15v-.05l.25-2.15v-.05l.2-3.35v-.15-1.15-1.85-.05z" fill="#735238"/><path d="m-6.3-11.95q-8.2 3.2-9.6 7.8l-.15.4-.8 3.85q-.55 3.65.3 5.75.95 2.25 3.35 2.3h.1l.45.65 1.85 2.25q1.6 1.05 4.85.35h.05l1.1 1q1.65 1.15 3.8 1.45 2.6.35 4.65-.75h.05q.35.3 1.2.6 3.05.95 6.15-.05 4.1-1.3 5.05-5.75l.8-5.2q.4-3.65.35-7.45l-.15-3.1-1.15-1.6q-1.9-1.8-5.65-3.1-3.85-1.25-8.7-1.75z" fill="#daba6d"/><path d="m17.25-2.95-.15-4.9-1.15-1.6q-1.9-1.8-5.65-3.1.05 7.2-1.95 11.3-2.7 5.5-8.8 4.7-10.3-1.25-15.6-7.2-1.5 5.3-.8 8.5.75 3.4 3.75 3.4.95 1.8 1.85 2.55 1.65 1.5 5.35.7 1.15 1.55 3.9 2.25 3.15.85 5.7-.55 1.65 1.65 6 .9 5.3-.9 6.4-6.1 1.05-5 1.15-10.85z" fill="#b1904a"/><path d="m16.9 2.7q-2.9 4.75-8.35 6.75-4.9 1.7-10.65.9-5.45-.8-9.55-3.55-4.25-2.85-5.2-6.7-.55 3.7.35 5.8.95 2.25 3.4 2.25.95 1.8 1.85 2.55 1.65 1.5 5.35.7 1.15 1.55 3.9 2.25 3.15.85 5.7-.55 1.65 1.65 6 .9 5.3-.9 6.4-6.1z" fill="#cfc1b0"/><g fill="#48331c"><path d="m4.9 13.7-.5-4.9-.15-2.65q-1.05 4.2-.6 6.95h.05q.35.3 1.2.6z"/><path d="m-4.05 4.65q-1.85 4-1.9 6.75h.05l1.1 1 .35-5z"/><path d="m-11.2 1.9q-1.75 3.85-2 6.25h.1l.45.65q.05-1.75.7-4.4z"/></g></g><g transform="matrix(-.53704834 -.84350586 .84350586 -.53704834 251.65 194)"><path d="m-2.2-19.8h-.8q-1.05.25-1.9.7-.8.35-1.65 1l-.4-.3-1.05-.15q-.85.1-1.45.6l-.2.25-1.15 2.05q-.8 1.55-1.25 3.3l.05-.1-.5 1.9.05.05-.35 2-.1.05-.2 1.7v.05l-.45 2.65-.7 3.55-.05.05-.15 2.3-.1 2.8v.05 4.25.85q0 1.7.55 3.3v.05l1.25 2.6.05.1 1.8 2.15 2.25 1.7v.05q2 1.1 4.25.85l.05-.05q2.35-.35 3.7-1.9l.75.25 2.25.05.05-.05 2.15-.7q.95-.5 2.15-1.8l.05-.05q.75-.9 1.1-2.15l.7-.05q1.5-.15 2.7-.85l.05-.05 1.55-1.5.1-.1.85-1.75v-.05l.55-1.95q.2-1.55-.3-2.65-.95-2.15-2.9-2.95l-.35-6.55v-.05-1.15l.1-.2.05-.1.2-.35.1-.2.55-1.55-.05.05.25-1.4-.05.05-.35-1.65-.7-1.8-.5-.85-.05-.15-.75-.85h-.05q-2-2.2-4.9-3.35v-.05q-2.35-1-4.6-1.45zm-6.15 7.4.75-.05q.55-.15.95-.6l2.3-2.2.05-.05 1-.6.05-.05.65-.3 1.8.45q2.1.4 4.2 1.25 2.1.8 3.65 2.5l.3.4.1.15.25.5.55 1.2v.05l.15.8-.45 1.1-.05.3-.3.3.05.1-.35 1.1-.1.1.05 1.8-.05.05.55 7.9q0 .5.5.95.3.55.9.6 1.2.2 1.7 1.3v.7l-.05.05-.3 1.25-.6 1.1-.55.55-.05.05.05-.05-1.1.35-2 .2-.95.5q-.4.35-.5.9l-.75 1.9-1.05.9-1.1.35-1 .05-.35-.15-.1-.1-.05-.05-.45-.5q-.4-.35-1-.35l-.95.15-.8.8-.5 1.05q-.5.65-1.45.8l-2.15-.4.05.05-1.55-1.2-.05-.1-1.2-1.45-.05-.1-.95-1.9-.05.05-.3-2.35v-.15l-.05-.65v-.05-4.1l.15-2.8.15-1.9.6-3.45.05-.05.4-2.6.3-1.9.05.05.3-1.9.4-1.6z" fill="#735238"/><path d="m-.4-17.65-2.15-.45-1.55.55-1.35.8-2.55 2.6.55-1.75q.2-.65-.35-.95l-.5.2-.95 1.65-1.1 3.1-.35 1.7-.4 2-.35 1.8-.45 2.7-.55 3.45-.2 1.45.05.1-.05.6-.15 2.8v4.15l-.05.8.5 2.95q.45 1.25 1.1 2.3l1.65 1.85 1.85 1.4q1.45.9 3.25.75 1.8-.3 2.75-1.8l.5-1.1.5.45 1.3.75 1.45-.05q.95-.15 2.5-1.25 1.5-1.1 2.05-2.2l.9-1.8q0 .55 1 .5l1.8-.65 1.15-1 .75-1.5.4-1.6q.15-1-.1-1.7l-.75-1.05-.65-.7-1.55-.6-.5-7.85.05-1.5.15-.55.1-.25.25-.4.55-1.5.05-.55-.3-1.25-.5-1.55-.5-.75-.5-.75q-1.8-1.9-4.25-2.9z" fill="#b1904a"/><path d="m-2.05 19.05.85.2q1.1-.75.2-3.95-1-3.25-2.35-3.9 1.5 4 1.45 5.65zm9.95-4.95h.75q.9-1-.8-3.85-1.8-2.8-3.25-3.05 2.4 3.4 2.9 5.05z" fill="#48331c"/><path d="m6.35-15.5-3.45-1.85-5.65-1.15-3.65 12.15q-2.1 7.4-.6 10.95 1.6 3.55 4.85 2.95 3.3-.6 6.9-2.4 3.6-1.9 4.5-4.1.85-2.15.6-3.35l.25-4.6 1-2.35q-1.4-3.95-4.75-6.25z" fill="#8a6827"/></g><g transform="matrix(.38261414 -.92388916 .92388916 .38261414 231.95 189.3)"><path d="m3.1-20.95-.45 1.05-1.25 2q-.95 1.25-13.5 22.65-1 1.45-1.95 5.35-1.15 4.55-.45 6.9.75 2.35 6 3.9 4.25 1.3 8.6 1.45 3.55.15 6.85-2.7 3.4-3.05 4.4-7.75-.3-5.7 1.1-15.7l2.2-13.45q.75-4-4.45-4.8-4.85-.8-7.1 1.1z" fill="#b1904a"/><path d="m-13.85 18.1-.65-1.1q-.7-2.35.45-6.9.95-3.9 1.95-5.35 12.55-21.4 13.5-22.65l1.25-2 .45-1.05q2.25-1.9 7.1-1.1 5.2.8 4.45 4.8l-2.2 13.45q-1.4 10-1.1 15.7-.5 2.25-1.5 4.1" fill="none" stroke="#735238" stroke-linecap="round" stroke-linejoin="round" stroke-width="4"/><path d="m3.1-20.95-.45 1.05-1.25 2q-.95 1.25-13.5 22.65-1 1.45-1.95 5.35-1.15 4.55-.45 6.9.75 2.35 6 3.9 4.25 1.3 8.6 1.45 3.55.15 6.85-2.7 3.4-3.05 4.4-7.75-.3-5.7 1.1-15.7l2.2-13.45q.75-4-4.45-4.8-4.85-.8-7.1 1.1z" fill="#b1904a"/></g><g transform="matrix(.76844788 -.63989258 .63989258 .76844788 211.85 175.25)"><path d="m-8.25-21.15-7.45 6.85-.7 12.4-.7 16.1q0 2.5 1.35 5.6 1.35 2.85 3.15 5.15 3.5 4.4 8.3 6.4l5.25-.25q2.5-.95 4.6-3.25l7.75-8.7q1-2.4 2.65-12.9 2.1-13.7.7-21.25-1.55-8.35-3-12.1-1.25-3.1-3-4.35-1.45-1-10.3 4.55-4.4 2.75-8.6 5.75z" fill="#b1904a"/><path d="m12.8-28.9.85 1.8q1.45 3.75 3 12.1 1.4 7.55-.7 21.25-1.65 10.5-2.65 12.9l-7.75 8.7q-2.1 2.3-4.6 3.25l-5.25.25q-4.8-2-8.3-6.4-1.8-2.3-3.15-5.15-1.35-3.1-1.35-5.6l.2-6.25" fill="none" stroke="#735238" stroke-linecap="round" stroke-linejoin="round" stroke-width="4"/><path d="m-8.2-21.2-7.45 6.85-.7 12.4-.7 16.1q0 2.5 1.35 5.6 1.35 2.85 3.15 5.15 3.55 4.45 8.35 6.4l5.2-.25q2.5-.95 4.6-3.2 7.45-7.95 7.75-8.75 1-2.4 2.65-12.85 2.1-13.75.7-21.25-1.55-8.4-3-12.1-1.25-3.1-3-4.4-1.4-1-10.3 4.55z" fill="#daba6d"/><path d="m-8.2-21.2-7.45 6.85-1.4 28.5q0 2.5 1.35 5.6.5-7.95 4-15.95 4.85-11.3 15.1-21.15 1.5-1.2 3.6 4.1 2.05 5.05 1.95 8.9l.15 5.05q-.05 6.1-1.4 10.85-4.25 15.25-19.2 11.7l-1.05 1.65q3.55 4.45 8.35 6.4l5.2-.25q2.5-.95 4.6-3.2 7.45-7.95 7.75-8.75 1-2.4 2.65-12.85 2.1-13.75.7-21.25-1.55-8.4-3-12.1-1.25-3.1-3-4.4-1.4-1-10.3 4.55z" fill="#b1904a"/></g><path d="m-3.25-13.05-13.15 2.95-3.2 17.85 10.7 3q10.05 2.85 10.5 2.2.75-1.1 18.05-19.3z" fill="#312d29" transform="translate(173.8 137.8)"/><path d="m14.6-9.95-11.05-20.95-13.55 7.8-4.55 32.3 8.1 21.75 7.9-.65q3.65-.25 6.2-2.1l1.85-1.8-1.3-20.6z" fill="#312d29" transform="translate(185.7 157.05)"/><path d="m-10-23.1-4.55 32.3 8.1 21.75 7.9-.65q3.65-.25 6.2-2.1l1.85-1.8-1.3-20.6 6.4-15.75-11.05-20.95z" fill="none" stroke="#211d1a" stroke-linecap="round" stroke-linejoin="round" stroke-width="4" transform="translate(185.7 157.05)"/><path d="m14.65-9.95-11.1-20.95-13.55 7.8-4.55 32.3 8.1 21.75 7.95-.65q3.6-.25 6.2-2.1l1.85-1.85-1.35-20.55z" fill="#312d29" transform="translate(185.7 157.05)"/><path d="m-1.1-6.75-4.1-1-4.7 2-3.7 14.95 6 4.7 7.25-1.7v-8.1l3.4-5.75z" fill="#464239" transform="translate(185.7 157.05)"/><path d="m-9.65-15.9q-1.45-1.1-1.55-2.4l-.1-.6-.55-1.3q-.9.35-1.25 1.75l-.1 1.25 1.55 10.95q.65.75 1.95 1.55 1.75 1.1 4.05 1.65l.8 3.2h.05l.35 1.45.15 3.95-.35.9q-1.4.95-2.2 1.95l-.2.45-.45 1v.05q-.95 2.6-.3 4.9l.05.1.15.55.4.8.5.85.25.7.3.05.2.2 2.85 2.15.2.1.2.1q6.9-1.3 10.15-4.85 1.05-1.1 1.55-2.35l.35-1-.25-.55.35-.55 1.9-5-1.95-11.2.85-.55 2.95-2.5-.6-9.3q-.2-2.3-1.45-3.85l-1.2-1.1.2 2-1.95 2.7q-3 2.75-8.15 3.3-6.75.75-9.7-1.5z" fill="#4e3700" transform="translate(185.6 195.15)"/><path d="m11.35 6.1-1.9 5-.35.55.25.55-.35 1q-.5 1.25-1.55 2.35-3.25 3.55-10.15 4.85l-.2-.1-.2-.1-2.85-2.15-.2-.2-.3-.05-.25-.7-.5-.85-.4-.8-.15-.55-.05-.1q-.65-2.3.3-4.9v-.05l.45-1 .2-.45q.8-1 2.2-1.95l.35-.9-.15-3.95-.35-1.45h-.05l-.8-3.2q-2.3-.55-4.05-1.65-1.3-.8-1.95-1.55l-1.55-10.95.1-1.25q.35-1.4 1.25-1.75l.55 1.3.1.6q.1 1.3 1.55 2.4 2.95 2.25 9.7 1.5 5.15-.55 8.15-3.3l1.95-2.7-.2-2 1.2 1.1q1.25 1.55 1.45 3.85l.6 9.3-2.95 2.5-.85.55z" fill="none" stroke="#362601" stroke-linecap="round" stroke-linejoin="round" stroke-width="4" transform="translate(185.6 195.15)"/><path d="m8.45-10.35-15.75 1 2.85 10.95.15 3.95-3.6 8.4 1.45 3.85 9.1.85 4.55-4.3 2.25-3.25 1.9-5-.75-5.35z" fill="#805c05" transform="translate(185.6 195.15)"/><path d="m11.35 6.1-.75-5.35-2.15-11.1-9.55 2.15-6.05-.55 2.3 8.9 3.05-1.55 7.7-.55 1.55 2.45 1.6 2.7-1.75 5.05-1.8 4.75 1.25 1.8.45-.45 2.25-3.25z" fill="#4e3700" transform="translate(185.6 195.15)"/><path d="m12.6-17.45q-.2-2.3-1.45-3.85l-1.2-1.1.2 2-1.95 2.7q-3 2.75-8.15 3.3-6.75.75-9.7-1.5-1.45-1.1-1.55-2.4l-.1-.6-.55-1.3q-.9.35-1.25 1.75l-.1 1.25 1.55 10.95q.65.75 1.95 1.55 2.7 1.65 6.5 2.05 2.1.2 4.3.05h.4q4.85-.45 8.75-3.05l2.95-2.5z" fill="#805c05" transform="translate(185.6 195.15)"/><path d="m9.35 12.2-.35-.8-1.15-1.95q-2.85-4.35-6.35-4.7-3.3-.35-6.15 1.65l-2.2 2-.2.45-.45 1v.05q-.95 2.6-.3 4.9.95 3.45 5.1 5.6 6.9-1.3 10.15-4.85 1.05-1.1 1.55-2.35z" fill="#87837b" transform="translate(185.6 195.15)"/><path d="m9.35 12.2-.35-.8-1.15-1.95q-.55 3.35-4.35 6.5-3.25 2.7-6.25 3.45-3.4-1.75-4.5-4.75-.75-2.2-.25-4.75-.95 2.6-.3 4.9.95 3.45 5.1 5.6 6.9-1.3 10.15-4.85 1.05-1.1 1.55-2.35z" fill="#54504d" transform="translate(185.6 195.15)"/><path d="m11.2-17.7-.55-.75q-.6-.55-1.15.15-.95 1.25-2.4 2.05-2.45 1.35-7.65 2.5-4.95 1.2-8.25-.75-1.65-1-2.35-2.2l.45 2.75q4.9 1.5 6.55 3.1 1.3 1.3.95 8.2 2.1.2 4.3.05h.4v-.75q-.1-2 .1-4.1.4-4.25 1.75-5 1.3-.65 4.7-3.05z" fill="#a98023" transform="translate(185.6 195.15)"/><path d="m10.45-2.6-1.3-9.5-6.6-12.65-4.65.45-1.2 1.05q-1.55 1.55-2.8 4.15-4.05 8.2-4.35 23.35-.15 7.85 5.2 15l3.7 4.1 1.7 1.45 8.1-9.65z" fill="#7e6d59" transform="translate(133.7 105.4)"/><path d="m10.45-2.6-2.2 17.75-8.1 9.65-1.7-1.45-3.7-4.1q-5.35-7.15-5.2-15 .3-15.15 4.35-23.35 1.25-2.6 2.8-4.15l1.2-1.05 4.65-.45 6.6 12.65z" fill="none" stroke="#504335" stroke-linecap="round" stroke-linejoin="round" stroke-width="4" transform="translate(133.7 105.4)"/><path d="m10.45-2.6-1.3-9.5-6.6-12.65-4.65.45-1.2 1.05q-1.55 1.55-2.8 4.15-4.05 8.2-4.35 23.35-.15 7.85 5.2 15l3.7 4.1 1.7 1.45 8.1-9.65z" fill="#c6b9a5" transform="translate(133.7 105.4)"/><path d="m10.45-2.6-1.3-9.5-4.35-8.3-6.6-2.05-.75 4.05q-.65 4.6-.3 8.65.55 6.5.4 9.7l3.65 3.75 2.9 11.5 1.35 3.25 2.8-3.3z" fill="#7e6d59" transform="translate(133.7 105.4)"/><g transform="translate(176.4 132.45)"><path d="m-5.75-29.35-.05-.05-6.3.8-16.7 6.8-8.35 10.25-.4 7.25 6.5 4.5-3.85 15.95 18.2 7.95 16.7-15.7 6.1.55 6.2 11.75q6.35 11.75 7.1 11.75 1.15 0 18.2-6.65l-8.7-17.25-2.7-5.3-2.25-3.05v-.05l-1.95-2.6-.15-1.85-.05.05-3.2-28.15z" fill="#8b2d00"/><path d="m37.6 25.8q-17.05 6.65-18.2 6.65-.75 0-7.1-11.75l-6.2-11.75-6.1-.55-16.7 15.7-18.2-7.95 3.85-15.95-6.5-4.5.4-7.25 8.35-10.25 16.7-6.8 6.3-.8.05.05 24.35-3.05 3.2 28.15.05-.05.15 1.85 1.95 2.6v.05l2.25 3.05 2.7 5.3z" fill="none" stroke="#672302" stroke-linecap="round" stroke-linejoin="round" stroke-width="4"/></g><path d="m-12.1-28.65-16.7 6.85-8.35 10.2-.35 7.25 6.45 4.55-3.8 15.95 18.2 7.95 16.7-15.75 6.05.6 6.2 11.75q6.4 11.75 7.1 11.75 1.15 0 18.2-6.65l-11.35-22.55-4.2-5.75-3.45-29.9z" fill="#b92600" transform="translate(176.4 132.45)"/><path d="m22.05-2.5-2.15-18.55-14.9-1.9-10.8-6.45-6.3.75-16.7 6.85-8.35 10.2-.35 7.25 4.55 3.2 12.5-.15 15.2-.4 20.85 12.5 13.3-2.3-2.65-5.25z" fill="#8b2d00" transform="translate(176.4 132.45)"/><path d="m22.05-2.5-.2-1.85-5.5 5.15-17.75 3.55-6.25 6.3-9.85 10.35-14.75-6.55 4.75-21.65-8 3.05-.5.85 4.95 3.5-3.8 15.95 18.2 7.95 16.7-15.75 1.35-1.45 2.55-.55 14.95-1.7 5.05-4.5z" fill="#b37d00" transform="translate(176.4 132.45)"/><path d="m35.5 21.7-1.15 1.6-13.35 4.3-15.15-22.95-2.1.65 2.35 3.65 6.2 11.75q6.4 11.75 7.1 11.75 1.15 0 18.2-6.65z" fill="#b37d00" transform="translate(176.4 132.45)"/><path d="m-7.05-16.25-4.55 5.95-.9 5.65 2.3 5.05h.05l.75 1.7-6.75 2.2-1 2 1.8 10.3 23.6 4.4 1.95.05q2.2-.15 3.45-1.45.7-.7 1.05-1.7 3.2-9.25 2.3-16.6l-1.85-16.1-10.1-6.3z" fill="#7e6d59" transform="translate(182.1 109.1)"/><path d="m14.7 17.9q-.35 1-1.05 1.7-1.25 1.3-3.45 1.45l-1.95-.05-23.6-4.4-1.8-10.3 1-2 6.75-2.2-.75-1.7h-.05l-2.3-5.05.9-5.65 4.55-5.95 12.1-4.85 10.1 6.3 1.85 16.1q.9 7.35-2.3 16.6z" fill="none" stroke="#504335" stroke-linecap="round" stroke-linejoin="round" stroke-width="4" transform="translate(182.1 109.1)"/><path d="m-7.05-16.25-4.55 5.95-.85 5.65 3.05 6.75-6.7 2.2-1 2 1.75 10.25 23.65 4.45 1.9.05q2.2-.15 3.5-1.45.7-.75 1-1.7 3.2-9.25 2.3-16.6l-1.85-16.1-10.05-6.3z" fill="#c6b9a5" transform="translate(182.1 109.1)"/><path d="m15.15-14.8-10.05-6.3-12.15 4.85-4.55 5.95-.85 5.65 2.3 5q10.95-8.5 13.25-9.2l4.45.55 3.1.55 1.75 1.75.85 2.45q1 3.1 1.6 6.2 1.85 10.05-1.15 16.95.7-.75 1-1.7 3.2-9.25 2.3-16.6z" fill="#7e6d59" transform="translate(182.1 109.1)"/><path d="m-3.85-2.65 2.2 2.2q2.3 2.4 2.55 3.1-2-.9-4.1-1.65-3.5-1.2-5.3-1.1 3.1 1.7 4.75 2.9 2.9 2.15 4.2 4.35l-2.1.7-6.2-5.9-5.75 2.9 2.25 2.45 3.2.65 10.7 8.05 8.7-1.55.9-.3q.95-.7 1.25-2.55l.85-10.4-1.3-5.5q-2.2-1.25-4.45-2.45l-11.9 3z" fill="#f2e7de" transform="translate(182.1 109.1)"/><path d="m14.8-17.4-2.05-.75-1-2.9-1.75-4.6-4.4 3.3-1.25 1.7-2.95-.75-6.65 1.8-7.95 4.65-7.3 8.25-3 5.05-1.05 4.65 3.4 15.7 4.3 6.95 5.2-1 10.25-6.15 18.8-14.25h7.2l-5.9-9.55z" fill="#c6b9a5" transform="translate(164.2 80.65)"/><path d="m14.8-17.4 3.9 12.1 5.9 9.55h-7.2l-18.8 14.25-10.25 6.15-5.2 1-4.3-6.95-3.4-15.7 1.05-4.65 3-5.05 7.3-8.25 7.95-4.65 6.65-1.8 2.95.75 1.25-1.7 4.4-3.3 1.75 4.6 1 2.9z" fill="none" stroke="#504335" stroke-linecap="round" stroke-linejoin="round" stroke-width="4" transform="translate(164.2 80.65)"/><path d="m8.55-19.6-7.15-1.8-6.65 1.8-7.95 4.65-4.95 5.25-2.35 3-3 5.05-1.05 4.65 3.4 15.7 4.3 6.95 5.2-1 10.25-6.15 18.8-14.25h7.2l-5.9-9.55-3.9-12.1z" fill="#c6b9a5" transform="translate(164.2 80.65)"/><path d="m3.65-11.5 2.2.95q1.75-.5 3.45-1.4 3.35-1.6 3.9-3.45.3-.9-1.45-5.65l-1.75-4.6-4.4 3.3-4.25 5.6z" fill="#5d4c24" transform="translate(164.2 80.65)"/><g transform="translate(166.45 96.4)"><path d="m24.15-18.6q-4.35-4.45-8.3-6.65l.1 3.1q-9.65.6-21.95 12.75-6.2 6.1-11.55 13.35-.85-5.05-3.5-12.8l-2.45-6.65 1.9-3.1-.8-3.3q-.75-3.3-1-3.6-.2-.3-6.25 2.9l-.45.25v-.05l-1.45.8-1.6 2.9-1.8 3.45-.05.05-1.45 8.3.8 10.85 6.25 5.1-.4 10 .85 3.55 21.9 2 5.2.9 1.65-12.4 5-1.1.5-.85q3.05-4.6 8.55-8.55 5.95-4.25 9.6-3.75 1.7.25 3.45 1.4l.45.3 1.35 1.1 1.8 1.75 2.7 3.4.85 3.55 1.05-1.9.35-.75v-.05l.75-2.1.3-.95-1.05-2.2-.05-.05-.75-1.4q-1.85-10.8-10.5-19.55z" fill="#8b2d00"/><path d="m36.5 4.6-.3.95-.75 2.1v.05l-.35.75-1.05 1.9-.85-3.55-2.7-3.4-1.8-1.75-1.35-1.1-.45-.3q-1.75-1.15-3.45-1.4-3.65-.5-9.6 3.75-5.5 3.95-8.55 8.55l-.5.85-5 1.1-1.65 12.4-5.2-.9-21.9-2-.85-3.55.4-10-6.25-5.1-.8-10.85 1.45-8.3.05-.05 1.8-3.45 1.6-2.9 1.45-.8v.05l.45-.25q6.05-3.2 6.25-2.9.25.3 1 3.6l.8 3.3-1.9 3.1 2.45 6.65q2.65 7.75 3.5 12.8 5.35-7.25 11.55-13.35 12.3-12.15 21.95-12.75l-.1-3.1q3.95 2.2 8.3 6.65 8.65 8.75 10.5 19.55l.75 1.4.05.05z" fill="none" stroke="#672302" stroke-linecap="round" stroke-linejoin="round" stroke-width="4"/></g><path d="m36.5 4.6-.3.95-.75 2.1v.05l-.35.75-1.05 1.9-.85-3.55-2.7-3.4-1.8-1.75-1.35-1.1-.45-.3q-1.75-1.15-3.45-1.4-3.65-.5-9.6 3.75-5.5 3.95-8.55 8.55l-.5.85-5 1.1-1.65 12.4-5.2-.9-21.9-2-.85-3.55.4-10-6.25-5.1-.8-10.85 1.45-8.3.05-.05 1.8-3.45 1.6-2.9 1.45-.8v.05l.45-.25q6.05-3.2 6.25-2.9.25.3 1 3.6l.8 3.3-1.9 3.1 2.45 6.65q2.65 7.75 3.5 12.8 5.35-7.25 11.55-13.35 12.3-12.15 21.95-12.75l-.1-3.1q3.95 2.2 8.3 6.65 8.65 8.75 10.5 19.55l.75 1.4.05.05z" fill="none" stroke="#672302" stroke-linecap="round" stroke-linejoin="round" stroke-width="4" transform="translate(166.45 96.4)"/><path d="m24.15-18.6q-4.3-4.45-8.3-6.65l.1 3.1q-9.6.6-21.95 12.75-6.2 6.1-11.5 13.35-.9-5.05-3.55-12.8l-2.45-6.7 1.9-3.05-.75-3.3-1-3.6q-.25-.3-6.3 2.85l-1.9 1.05-1.55 2.9-1.85 3.5-1.45 8.3.75 10.85 6.3 5.05-.45 10.05.9 3.55 21.85 2 5.2.9 1.7-12.4 4.95-1.1.55-.85q3-4.6 8.55-8.55 5.95-4.3 9.55-3.75 2.6.35 5.3 2.8 1.65 1.45 3.2 3.45l1.25 1.7.9 3.5 1.75-3.6.65-2.1-1.05-2.25-.8-1.45q-1.8-10.75-10.5-19.5z" fill="#b92600" transform="translate(166.45 96.4)"/><path d="m14.2-15.3-.6-3.1-5.25 1.85-3.25 1.8.15 3.95 2.2 1.7.35 1.85 1.2.2.85 2.05 4.2 5.25 8.85-4.95-2.4-2 .1-2.65-2.85-.75v-2.25z" fill="#bd3800" transform="translate(166.45 96.4)"/><path d="m24.15-18.6q-4.3-4.45-8.3-6.65l.1 3.1q-9.6.6-21.95 12.75-6.2 6.1-11.5 13.35-.9-5.05-3.55-12.8l-2.45-6.7 1.9-3.05-.75-3.3-1-3.6q-.25-.3-6.3 2.85l.5 8q.5 7 1.15 10.1.7 3.3 3 8.5l2.2 4.5 11 1 10.4-10.7 5.45-10.1q2.2-2.65 6.45-4.6l3.8-1.35q2-1.3 3.85-2.1 6.45 3.7 9 10.4 1.85 4.8 1.6 10.65 1.65 1.45 3.2 3.45l1.25 1.7.9 3.5 1.75-3.6.65-2.1-1.05-2.25-.8-1.45q-1.8-10.75-10.5-19.5z" fill="#8b2d00" transform="translate(166.45 96.4)"/><path d="m-31.9-10.8-.85-7.6-.35-.3-1.85 3.5-1.45 8.3.75 10.85 6.3 5.05-.35 8.8 2.35.9.9-10.9q0-.25-2.4-2.55l-2.45-2.3z" fill="#8b2d00" transform="translate(166.45 96.4)"/><path d="m23.15-6q-3.3-.8-10.5 3.65-7.45 4.6-10.5 9.8l-4.4.3q-2.9.15-2.9.5l-2.05 9.3-.05.4 3.2-6.75 9.4-.05q3-4.6 8.55-8.55 5.95-4.3 9.55-3.75 3.25.5 6.8 4.25l2.95 3.7.9 3.5 1.35-2.6v-.05l.8-2.1.25-.95-1.05-2.25q-5.1-6.2-12.3-8.35z" fill="#8f5200" transform="translate(166.45 96.4)"/><path d="m-32.3-10.35 2.85-9.7-.65-2.35-1.45.8-3.4 6.4-1.45 8.3.75 10.85 6.3 5.05v.05l.1.05 1.45 9.3.9-10.25-5.1-5z" fill="#8f5200" transform="translate(166.45 96.4)"/><path d="m23.15-6q-3.3-.8-10.5 3.65-7.45 4.6-10.5 9.8l-4.4.3q-2.9.15-2.9.5l-2.05 9.3 2.75-8.25 9.35-.05q3-4.55 8.55-8.55 5.95-4.25 9.55-3.75 3.25.5 7.15 4.1l3.25 3.6.45 1.05.9 3.2.7-1.2v-.05l.8-2.1.25-.95-1.05-2.25q-5.1-6.2-12.3-8.35z" fill="#b37d00" transform="translate(166.45 96.4)"/><path d="m-1.65-10.95-9.7.45-.75 1.95-.15 2.3-.8.1-4.15 1.15h-.05l-2.05 6.4 2.25 11.6 8.55 2.2 10.9-5.1 3 2.35 3.3.15 8.1-.45q2.5-5.1 2.6-10.1l-.15-3.2q-.7-5.45-4.2-10.3l-3.25-3.7-9.9 5.4z" fill="#4e3700" transform="translate(157.55 120.85)"/><path d="m19.4 2.05q-.1 5-2.6 10.1l-8.1.45-3.3-.15-3-2.35-10.9 5.1-8.55-2.2-2.25-11.6 2.05-6.4h.05l4.15-1.15.8-.1.15-2.3.75-1.95 9.7-.45 3.55 1.2 9.9-5.4 3.25 3.7q3.5 4.85 4.2 10.3z" fill="none" stroke="#362601" stroke-linecap="round" stroke-linejoin="round" stroke-width="4" transform="translate(157.55 120.85)"/><path d="m-1.6-10.95-9.7.4-.8 2-.1 2.3-.8.05-.2.1-4 1.05v.05l-2.05 6.4 2.2 11.6 8.55 2.2 10.95-5.1 3 2.35 3.3.15 8.05-.45q2.55-5.1 2.6-10.1l-.15-3.2q-.7-5.5-4.15-10.3-1.7-2.4-3.25-3.7l-9.9 5.4z" fill="#805c05" transform="translate(157.55 120.85)"/><path d="m19.25-1.15q-.7-5.5-4.15-10.3-1.7-2.4-3.25-3.7l-8.6 4.7 2.25 1.8.65 3.75v5.8l9.3-.65 1.55-1.25 1.5.5z" fill="#a98023" transform="translate(157.55 120.85)"/><path d="m4.75-2.15-1.75-6.15-1.55-1.65-3.05-1-9.7.4-.8 2-.05 1.15 1.9-1.4 5.7 1.15 2.8 1.05-.3 2.1-8.35 1.8-.35-1.6 4.45-.15-.9-1.75-4.95-.05-.85.05-.2.1-4 1.05v.05q-.15.7 3.3 5.25l6.85.25 7.65 1.25z" fill="#a98023" transform="translate(157.55 120.85)"/><path d="m19.4 2.05-6.2 4.2-6.1-.75-1.75-1.3.65-6.8q-2.7 3.5-2.7 3.95l-1.05 5.25-10.5 3.8-6.8-.5-.4-5.2q0-.4-1.85-1.95-1.8-1.6-1.95-1.35l2.2 11.6 8.55 2.2 10.95-5.1 3 2.35 3.3.15 8.05-.45q2.55-5.1 2.6-10.1z" fill="#4e3700" transform="translate(157.55 120.85)"/><g transform="translate(154 53.2)"><path d="m-7.1-17.8-9.85 3.85-8.8.6-.25 4.6h-.05l-.4 6.7h.05l-.15 1.9 3 4.3-.9 2.55 3.35 9.6.05.6q1.45 12.95 4.85 14.95l.9.5q2.95 1.25 10.2 2.15l6.7.7 2.3-1.15 3.85-2 6.45-10.25 3.25-20.45-8.1-16.05z" fill="#5d4c24"/><path d="m17.45 1.35-3.25 20.45-6.45 10.25-3.85 2-2.3 1.15-6.7-.7q-7.25-.9-10.2-2.15l-.9-.5q-3.4-2-4.85-14.95l-.05-.6-3.35-9.6.9-2.55-3-4.3.15-1.9h-.05l.4-6.7h.05l.25-4.6 8.8-.6 9.85-3.85 16.45 3.1z" fill="none" stroke="#3f3316" stroke-linecap="round" stroke-linejoin="round" stroke-width="4"/><path d="m-7.1-17.85-9.85 3.9-8.75.6-.8 13.2 2.95 4.3-.85 2.55 3.3 9.6.1.6q1.45 12.95 4.8 14.95l.95.5q2.9 1.25 10.2 2.15l6.7.7 6.15-3.15 6.45-10.25 3.2-20.45-8.1-16.05z" fill="#826f3c"/><path d="m9.35-14.7-5.25-1-1.85 13.9 8.35 5.7q-4 8.3-4.05 8.75l-1.25 2.75-1.2 2.45 2.9 1.7-4.25 12.1 1.2 2.35 3.85-1.95 6.45-10.25 3.2-20.45z" fill="#5d4c24"/><path d="m-1.75-3.1-10.75 1.55-.05 2.35 3.95 2.7z" fill="#5d4c24"/><path d="m-19.85.95-5.8-.8 6.1 4.25z" fill="#5d4c24"/><path d="m-13.9 27.55 4 2.25 6.95-1.6z" fill="#5d4c24"/><path d="m-19.5 11.4.7 1.65q1.9 1 3.75 1.95l4.75.4 1.85-4.1-2.15 2.15-5.05-.4z" fill="#5d4c24"/><path d="m-26-8.75-.4 6.7 19.3-4.8z" fill="#997e3f"/><path d="m6.15 6.7 2.4-1.55.6-1.15-3.65-1.3-4.7 1-4.75 1.1z" fill="#997e3f"/><path d="m-17.55 4.25-1.95 7.15 3.95.55 2.35-.9.3-2.3-3-5.05z" fill="#997e3f"/><path d="m-19.5 5.05-3.95-.35-.35 2.2 2.4.55z" fill="#997e3f"/><path d="m-14 26.3.1 1.25 6.85.05 4.25-1.4z" fill="#997e3f"/><path d="m-14.4 32.3-2.8-14.2-2.2-1.85-1.6.35v.3q1.45 12.95 4.8 14.95l.95.5z" fill="#5d4c24"/><path d="m-1.85-5.2-1.6-.5-9.5 1.9.4 4 9.7-2.1 9.35 1.45q-2.25-2.55-8.35-4.75z"/><path d="m-1.85-5.2-1.6-.5-9.5 1.9.3 2.65 10.05-2.6 4.6.75z" fill="#171d21"/><path d="m-20.75-1.65-6.5-.75h-.15l-.5 3.45 8.85.5z"/><path d="m-20.75-1.65-6.5-.75 1.05 1.2 6.65 1.7z" fill="#171d21"/><path d="m-9.5 2-.1 2 12.15-2z"/><path d="m-20.5 2.45-4.5.7 1 1.15 4.8.3z"/><path d="m1.45 25.75 3.4-10.7-14.95 1.5-9.1-.45 2.95 2.4 3.05 2.65.6.6q2.4 2.15 3.6 3.85l6.05.2z" fill="#e8e8e8"/><path d="m3.35 19.75-1.7.55-14.85.85.6.6 15.25.15z" fill="#a5a18e"/><path d="m.15 17.25 3.95.25.75-2.45-14.95 1.5-9.1-.45 2.95 2.4z" fill="#a5a18e"/><g><path d="m-19.2 22.65-.8-.2-1-1.1-.05-1.4.25-1.4-1-.35-.55-.55q-1-1.35-1.35-3.5l-.05-.65-1.15-1.5q.15 5.1 3.5 14.85 2.95 8.75 4.4 10.6 16.35 4.6 22.95 1 8.25-4.8 11.95-13.95 1.15-2.85 1.75-5.8l.35-2.4-.85-5.2-1.95-2.75q-.8-1.1-.95-1.75l-.05-.2q.1 2.85-.65 7.05-.3 1.45-.95 1.8l-.6.15v.6q.1 1.4-.35 2.2l-.75.85-1.05.2q.25.5-.15 1.2l-.7 1q-.3.65-.35 2.1-.25 1.05-.95 1.55-.75.55-1.6.2l-.45 1.45q-.65 1.15-2.2 2.15-2.55 1.55-5 2.1l-3.25.85q-1.15.6-1.65.45l-.95-.45-1.4-.25-2.3-.2q-.6 1.1-1.5 1.5l-1.65.1q-.9-.25-1.35-.95-.95.5-2-.35l-1.25-1.65-1.2-1.9q-.9-1.7-1.1-4.6zm4.1-32.55.65-.15-.5.05-.8.2-.3.15-.35.2h.3zm35.25-24q-4.7-4.7-12.3-5.45-3.9-.4-7.95.1-7.45-1.95-13.55 1.05-3.15 1.55-5.75 3.9-7.95 3.05-10.35 7.6-.8 1.65-1.3 6.85-3.2 6.4.45 11.9.95 1.4 2.25 2.55-.25-1.1-.1-2.15.1-1.05.55-1.7l.2-.25v-.2l.15-.95.05-1.05.15-.95q.4-.8 1.2-1.05.8-.25 1.55.35l1.4-.1q1.15.25 1.55 1.1.55 1-.1 1.8l-.3.4.1.35.65.2 1.4.2.15-.95q.45-1.15 1.6-1.9 1.4-.95 3.7-1.2l4.05-.15 9.35-1.35 1.8-.15q1 .1 1.55.85l.15.25.15.05q.1-.8.7-1.1l1.75.05 1.3 1.2q4.1 4.95 6.65 9.85 2.75 5.25 3.15 9.65.1-.55.5-.95.6-.55 1.6-.35.5.15 1 .45l1-.2.4.1q.25-.6.95-.85.95-.25 1.6.45l.4.55q.45 0 .85.4l.9-.1q.95.25 1.25 1.35l.2 1.9v.3q.85-1.1 1.5-3.3l1.15-6.35q4.55-13.15 2.5-18.7-.7-1.85-2.2-2.8l-2-1q.4-4.15-2.65-7.1z" fill="#101010"/><path d="m-28.35-5.4q-1.3-1.15-2.25-2.55-3.65-5.5-.45-11.9.5-5.2 1.3-6.85 2.4-4.55 10.35-7.6 2.6-2.35 5.75-3.9 6.1-3 13.55-1.05 4.05-.5 7.95-.1 7.6.75 12.3 5.45l4.95 3.4q3.05 2.95 2.65 7.1l2 1q1.5.95 2.2 2.8 2.05 5.55-2.5 18.7l-1.15 6.35q-.65 2.2-1.5 3.3m-50.55 4.75-1.15-1.5q.15 5.1 3.5 14.85 2.95 8.75 4.4 10.6 16.35 4.6 22.95 1 8.25-4.8 11.95-13.95 1.15-2.85 1.75-5.8l.35-2.4-.85-5.2" fill="none" stroke="#000" stroke-linecap="round" stroke-linejoin="round" stroke-width="4"/></g><path d="m20.15-33.9q-4.7-4.7-12.3-5.45-3.9-.4-7.95.1-7.45-1.95-13.55 1.05-3.15 1.55-5.75 3.9-7.95 3.05-10.35 7.6-.8 1.65-1.3 6.85-3.2 6.4.45 11.9 1.15 1.7 2.85 3.05l1.45 1.1v-2.95q.05-3.2.7-4.65 1.95 3.7 8.9 2.6 5.05-.8 8.45-2.75 4.7 1.3 7.5 1.25 2.6-.1 4.45-1.45 1.5-1.15 3.35.6l2.3 2.65 3.05 7.4q2.7 6.9 3.2 7.5-.5.5-1.6 3l-2.35 5.35q-.25-1.6-1.45-3.3-1-1.5-2-2.1-9.8 1.9-14.6 4.45-2.35 1.3-2.8 2.2l14.9-1.4 3.65 6.35q-.25 1.5-2.35 4.3-2.3 3-4.5 4.35-1.95 1.15-9.15 1.1l-8.45-.5q-1.45-1.3-3.1-7.7l-1.35-6.2 4.8-.7-7.45-4.25-1.55 2.2-1.15-1.55q.15 5.1 3.5 14.85 2.95 8.75 4.4 10.6 16.35 4.6 22.95 1 8.25-4.8 11.95-13.95 1.15-2.85 1.75-5.8l.35-2.4-.85-5.2q-.1-.5 1.5-.95l4.1-.35q2.2.25 3.55-4.35l1.15-6.35q4.55-13.15 2.5-18.7-.7-1.85-2.2-2.8l-2-1q.4-4.15-2.65-7.1z" fill="#101010"/><path d="m8.5-30.25q1.95-3.75-.75-5.4-4.6-2.8-10.8-.1-3.05 1.35-5.2 3.25l-.6 1.05q-.4 1.2.2 1.95-1.1-.55-1.95-1.85-1.15-1.75-.1-2.85l-4.75.35q-4.05.9-6.55 4l-3.15 2.05q-1.9 1.65-2.05 4.35l2-.5q2.2-.2 3.2 1.15-1.75.1-4.55 2.75-2.95 2.8-1.75 4.05 1.65 1.75 4.95 1.4 3.8-.5 5-4.35l3.65-.1 1.75-2.8q2.05-3 3.7-3.75-.75 1.15-.75 2.9 0 2 1.6 1.45.85 1.45 1.85 2.1 1.75 1.1 3.5-.75-1.1-2.3.15-5.4 1.55-3.85 6.5-4.2-2.7 2.9-3.6 4.65-.9 1.85-.3 3.4 1.5-1.25 2.6-2.7l2-1.6q2.55-1.3 4.2-4.5z" fill="#171d21"/><path d="m8.8-26.2 2.45-.1q2.6-.25 3.5-1.1-.1 1.4-.4 2.1-.65 1.5-2.85 4.35 4.95-.15 5.6-4.1.5-3-.75-4.65.1-2.75-1.6-4.5-1.65-1.8-1.9.85-.25 2.2-2.2 4.85z" fill="#171d21"/><path d="m4.8-21.95q-6.9 5-3.25 5.85l3.35-.2q2.05-.45 2.85-1.2-4.15 1.1-4-1.6z" fill="#171d21"/><path d="m-27.9-21.25q-2.35.35-2.6 1.35-.15.55.6 2.1 0-.85 1-2.2z" fill="#171d21"/><path d="m27.65-.75q-.15-1.65-1.2-2.7v-.05l-1.15-.8q-1.4-.6-3.1.4l-1.4 1.1-2 5.8q-.6 3.3.2 5.3.55 1.6 1.8 2 .95.35 1.55-.55l1.1-2.7q.45-1.3 1.6-2.5l2-2.35q.8-1.25.6-2.95z" fill="#826f3c"/><path d="m25.8-.85q-.65-1.15-1.85-.55l-1.05.75q.7 1.45-.05 3.45l-.95 1.7-.8 1.2q-.65 1.3.05 2 .75.75 1.3 0l.45-.85q0-1.15 1.15-2.4 2.9-3.2 1.75-5.3z" fill="#5d4c24"/><path d="m25.8-.8q.55-.4.65-2.65v-.05l-1.15-.8q-1.4-.6-3.1.4l-1.4 1.1-.7 2.05 2.8.1q2.2-1.85 2.9-.15z" fill="#997e3f"/></g><g transform="translate(147.05 135.2)"><path d="m.6-19.5.1 2q-.1 2.5-.75 5.35-2 9.05-8.95 17.6-.95 4.55-1.3 10.8l-.15 5.3 4.25.6q4.2-5.45 8.15-13.35 2.7-5.35 4.35-10.3l.7-2.35q2.3-8.2 1.55-15.15-4-3.35-6.2-3.15-1.15.1-1.55 1.4-.25.65-.2 1.25z" fill="#1e383c"/><path d="m-6.2 22.15q4.2-5.45 8.15-13.35 2.7-5.35 4.35-10.3l.7-2.35q2.3-8.2 1.55-15.15-4-3.35-6.2-3.15-1.15.1-1.55 1.4-.25.65-.2 1.25l.1 2q-.1 2.5-.75 5.35-2 9.05-8.95 17.6-.95 4.55-1.3 10.8l-.15 5.3z" fill="none" stroke="#13272a" stroke-linecap="round" stroke-linejoin="round" stroke-width="4"/></g><path d="m.6-19.5.1 2q-.1 2.5-.75 5.35-2 9-8.95 17.6-.95 4.55-1.3 10.75l-.15 5.35 4.25.6q4.2-5.45 8.2-13.35 7.85-15.75 6.55-27.85-4-3.3-6.15-3.1-1.2.1-1.6 1.4z" fill="#1e383c" transform="translate(147.05 135.2)"/><path d="m6.8-.85-.4-.7-.35-.2v-.05l-2.65-1.4-1.45-.75-1.95-.95-.05.15-2.75-1.4-1.4 1q-1.25 1.4-.5 3.15l9.75 5q.9-.25 1.5-1l.35-.5q.55-1-.1-2.35m-3.45-14.45v.05l-2.75-1.3-1.4 1q-1.3 1.35-.5 3.15l9.75 5 1.5-.95q1.2-1.4-.2-3.65l-.35-.2q-2.5-1.45-6.05-3.1z" fill="#bf8800" transform="translate(147.05 135.2)"/><path d="m8.45-7.4-9.75-5q-.8-1.8.5-3.15l1.4-1 2.75 1.3v-.05q3.55 1.65 6.05 3.1l.35.2q1.4 2.25.2 3.65zm-3.4 10.4-9.75-5q-.75-1.75.5-3.15l1.4-1 2.75 1.4.05-.15 1.95.95 1.45.75 2.65 1.4v.05l.35.2q1.4 2.15.15 3.55-.6.75-1.5 1z" fill="none" stroke="#6b4c00" stroke-linecap="round" stroke-linejoin="round" stroke-width="4" transform="translate(147.05 135.2)"/><path d="m-2.8-6.15-1.4 1q-1.25 1.4-.5 3.15l9.75 5q.9-.25 1.5-1 1.25-1.4-.15-3.55z" fill="#bf8800" transform="translate(147.05 135.2)"/><path d="m6.05-1.8-6.05-3.1-1.85 4.35 6.1 3.15z" fill="#d8a100" transform="translate(147.05 135.2)"/><path d="m3.8-3-1.85-.95-1.7 4.45 2.1 1.1z" fill="#ecd900" transform="translate(147.05 135.2)"/><path d="m8.45-7.4 1.5-.95q1.2-1.4-.2-3.65l-.35-.2-2.25-1.2-6.55-3.15-1.4 1q-1.3 1.35-.5 3.15z" fill="#bf8800" transform="translate(147.05 135.2)"/><path d="m9.4-12.2q-2.5-1.45-6.05-3.1l-1.85 4.35 6.15 3.15z" fill="#d8a100" transform="translate(147.05 135.2)"/><path d="m7.15-13.4-1.8-.9-1.7 4.45 2.1 1.05z" fill="#ecd900" transform="translate(147.05 135.2)"/><path d="m30.1-44.75q-1.45-2.15-2.4-2.45-3.15 8.75-16.35 18.2-5.5 3.95-15.95 9.65-4.3 13.8-18.5 35.1-7.1 10.65-13.35 18.55-2.85 4.05-.45 6.7 2.7 2.95 11.95 4.7l7.4 1.05q6.6.7 12.45.3 12.4-.8 19.4-6.4 2.15-1.8 3.5-3.8l1-1.7-2.4-.45-8.1-.85q15.3-1.25 22.25-10.1 2.15-2.8 3.15-5.95l.65-2.65-4.75.65-10.55 2 .3-.2h.05q13.6-7.35 17.2-17.2 1.15-3.1 1.15-6.05l-.25-2.35-2.25 1.25q-3.05 2.05-7.1 5.65 9.9-9.9 9.9-19.75 0-3.05-.95-5.75l-1-2.1-2.8 2.3q-3.45 3-6.55 6.35 7.85-9.25 5.8-18.75-.7-3.3-2.45-5.95z" fill="#b1904a" transform="translate(174.55 117.2)"/><path d="m19.35 17.6-.3.2 10.55-2 4.75-.65-.65 2.65q-1 3.15-3.15 5.95-6.95 8.85-22.25 10.1l8.1.85 2.4.45-1 1.7q-1.35 2-3.5 3.8-7 5.6-19.4 6.4-5.85.4-12.45-.3l-7.4-1.05q-9.25-1.75-11.95-4.7-2.4-2.65.45-6.7 6.25-7.9 13.35-18.55 14.2-21.3 18.5-35.1 10.45-5.7 15.95-9.65 13.2-9.45 16.35-18.2.95.3 2.4 2.45 1.75 2.65 2.45 5.95 2.05 9.5-5.8 18.75 3.1-3.35 6.55-6.35l2.8-2.3 1 2.1q.95 2.7.95 5.75 0 9.85-9.9 19.75 4.05-3.6 7.1-5.65l2.25-1.25.25 2.35q0 2.95-1.15 6.05-3.6 9.85-17.2 17.2z" fill="none" stroke="#735238" stroke-linecap="round" stroke-linejoin="round" stroke-width="4" transform="translate(174.55 117.2)"/><path d="m30.1-44.75q-1.4-2.15-2.4-2.5-3.1 8.8-16.3 18.25-5.5 3.9-16 9.65-4.3 13.75-18.5 35.1-7.05 10.65-13.3 18.55-2.85 4.05-.45 6.7 2.65 2.95 11.95 4.65l7.4 1.1q6.6.7 12.4.3 12.45-.85 19.45-6.45 2.15-1.75 3.5-3.8l.95-1.65-2.4-.5-8.05-.8q15.3-1.25 22.2-10.1 2.15-2.8 3.2-6l.65-2.65-4.75.7-10.55 1.95.3-.15.05-.05q13.6-7.3 17.2-17.15 1.1-3.1 1.1-6.05l-.25-2.35-2.2 1.25q-3.05 2.05-7.15 5.65 9.9-9.9 9.95-19.75 0-3.05-.95-5.75l-1-2.1-2.8 2.3q-3.5 3-6.55 6.35 7.85-9.25 5.8-18.75-.7-3.3-2.5-5.95z" fill="#daba6d" transform="translate(174.55 117.2)"/><path d="m31.35-13.05q-4.1 4.1-14.1 3.25 3.95-4.95 7-10.35 3.65-6.6 3.6-10.15-5.3 3.25-13 6.6-9.1 3.9-13.8 4.3-.1 14.9-10.6 37.35-6.45 13.95-15.35 27.7l7.4 1.1q6.6.7 12.4.3 6-2.1 9.65-4.15 4.25-2.4 4.7-4.5l-4-.75q-1.85-.65-3.55-2.35 10.85-1.75 17.2-6.95 4.35-3.55 5.15-6.95l-7.5 2.05q-5.25 1-11.1.15 7.7-2.2 13.65-5.85l.3-.15.05-.05q9.25-5.65 12.05-13.55-1.4.85-5.3 1.5l-7.65 1.2q10.8-11.1 12.8-19.75z" fill="#b1904a" transform="translate(174.55 117.2)"/><path d="m-8.05-13.5q-2.8 6.85-4.15 12.95-2.75 12.7 1.85 17.35l8.9 4.05.6.15q2.8.6 5.65 0 4.7-1 8.35-4.95.45-7.75-1.55-16.3-4-17.05-15.85-21.05-1.5 2.25-3.8 7.8z" fill="#daba6d" transform="translate(69.5 94.55)"/><path d="m-12.2-.55q-2.75 12.7 1.85 17.35l5.9 2.85 3 1.2.6.15q2.8.6 5.65 0 4.7-1 8.35-4.95.45-7.75-1.55-16.3-4-17.05-15.85-21.05-1.5 2.25-3.8 7.8-2.8 6.85-4.15 12.95z" fill="none" stroke="#735238" stroke-linecap="round" stroke-linejoin="round" stroke-width="4" transform="translate(69.5 94.55)"/><path d="m-8.05-13.5q-2.8 6.85-4.15 12.95-2.75 12.7 1.85 17.35l8.9 4.05.6.15q2.8.6 5.65 0 4.7-1 8.35-4.95.45-7.75-1.55-16.3-4-17.05-15.85-21.05-1.5 2.25-3.8 7.8z" fill="#daba6d" transform="translate(69.5 94.55)"/><path d="m-44.25-22.6-2 3.4q-3.5 7.9-3.6 13.1-.05 1.85 1.5 10.65l.1.45q-4.65 13.95 3.3 25.25 2.5 3.55 5.9 6.35l2.95 2.15q10.9 5.65 29.6 7.65h.05l20.55.9q26.6-6.65 33.6-25.35l.85-2.7.75-25.25-.55-3.2q-2.1-12.7-8.75-20.75-11.45-13.85-38.55-17.05-6-.65-11.15-.25-13.9 1.1-25.6 13-5.85 5.95-8.95 11.65z" fill="#b1904a" transform="translate(91.7 135.85)"/><path d="m-48.05-20q-3.75 8.35-3.8 13.85-.1 1.9 1.55 11.05-4.65 14.6 3.75 26.5 2.6 3.75 6.25 6.75l.1.1 2.95 2.15.25.15q11.15 5.8 30.3 7.85h.05l20.7.9h.1l.45-.05q27.75-6.95 35-26.6v.05l.9-2.95.05-.4q2.25-13.3.75-25.25l-.05-.6-.05-.1v-.1l-.05-.15v-.2l-.05-.1v-.1l-.05-.15v-.15l-.05-.15v-.15l-.05-.15v-.15l-.05-.15v-.15l-.05-.15v-.15l-.05-.15v-.15l-.05-.45-.05-.1v-.1q-2.25-13.2-9.15-21.5-11.8-14.45-39.85-17.75v-.05q-6.25-.65-11.55-.25-14.6 1.1-26.85 13.6-6.1 6.2-9.3 12.1l.05-.05-2 3.4zm5.55-1.55v-.1q3-5.5 8.65-11.2 11.1-11.3 24.3-12.4 5-.4 10.8.25 26.1 3.05 37.2 16.35 6.3 7.65 8.35 19.8v.1l.05.2.05.3v.1.15l.05.2.05.15v.15l.05.15v.15.1l.05.2.05.15v.1l.05.2v.15l.05.15v.05.15l.05.15-.75 24.75-.7 2.3q-6.8 17.7-32.05 24.05l-20-.9h-.05q-18.15-1.95-28.75-7.35l-2.85-2.05q-3.15-2.6-5.45-5.9-7.4-10.5-3.05-23.45l.05-1.05-.1-.45.05.05q-1.5-8.45-1.5-10.25.15-4.8 3.35-12.1z" fill="#735238" transform="translate(91.7 135.85)"/><path d="m-44.25-22.6-2 3.4q-3.5 7.9-3.6 13.1-.05 1.85 1.5 10.65l.1.45q-4.65 13.95 3.3 25.25 2.5 3.55 5.9 6.35l2.95 2.15q10.9 5.65 29.6 7.65l20.55.9q26.65-6.65 33.6-25.35 4.3-11.4 1.1-31.15-2.1-12.7-8.75-20.75-11.45-13.85-38.55-17.05-6-.65-11.15-.25-13.9 1.1-25.6 13-5.85 5.95-8.95 11.65z" fill="#daba6d" transform="translate(91.7 135.85)"/><path d="m40-29.95-2.5 1-4.1 5.35v14.65q4.75.2 7 1.15 3.1 5.55 2.65 11.45-.45 6.15-4.65 11.45-9.6 12.2-34.25 16-22.2 3.45-37.95-9.05-5.3-4.25-8.9-9.55-2.9-4.2-2.9-5.9 0-1.75-2.75-2.05l.1.45q-4.65 13.95 3.3 25.25 2.5 3.55 5.9 6.35l2.95 2.15q10.95 5.65 29.65 7.65l20.55.9q26.6-6.65 33.6-25.35 4.25-11.4 1.05-31.15-2.1-12.7-8.75-20.75z" fill="#b1904a" transform="translate(91.7 135.85)"/><path d="m6.2-26.3q2.9-3.85 6.2-6.65 4.2-3.6 8.2-4.35l-7.7-.5q-4.35.15-8.75 1.85 1.4-2.4 4.3-4 3.6-1.95 9-2.1-7.65-1.6-13.3-1.4-11 .35-20.7 6.15.8-1 2.3-4.05 1.1-2.4 3.6-4.7l.95-1.2q-13.9 1.1-25.6 13-5.85 5.95-8.95 11.65l-1.1 1.85q1.8 2.15 3.85 5.05 4.2 5.8 5.6 9.65.25.75 4.3.9l4-.05 3.4-4.25 5.65-.5q6-1.2 7.55-4.15 7.55-2.1 13.3-4.35 10.95-4.3 14.5-10.05l2.9-3.85-3.85.95q-4.75 1.6-9.65 5.1z" fill="#edcb83" transform="translate(91.7 135.85)"/><path d="m21.75 13.9q-3.25 1.3-11.8 2.95-10 1.95-16.5 1.95 2.6 4.45 8 6.4 10.85 4.05 24.85-7.95-.85 0-3.85 1.3-3.5 1.6-6.65 2.25l3.55-3.4q2-2.05 2.4-3.5z" fill="#edcb83" transform="translate(91.7 135.85)"/><path d="m13.75-11.45q-.7-5.95-1.65-8.55-12.45.8-20.7 16.25-4.1 7.75-5.75 15.35 2.45 4.75 6.8 6.9 2.65 1.3 5.4 1.45l.4.05.25-.05 3.2-.35 6.45-1.25q5.65-3.3 6.3-16.2.3-6.25-.7-13.6z" fill="#b1904a" transform="translate(125.6 108.5)"/><path d="m-14.35 11.6q1.65-7.6 5.75-15.35 8.25-15.45 20.7-16.25.95 2.6 1.65 8.55 1 7.35.7 13.6-.5 10.4-4.3 14.55" fill="none" stroke="#735238" stroke-linecap="round" stroke-linejoin="round" stroke-width="4" transform="translate(125.6 108.5)"/><path d="m13.85-11.45q-.75-5.95-1.65-8.6-12.5.8-20.7 16.3-4.15 7.75-5.75 15.3 2.4 4.75 6.75 6.95 2.65 1.3 5.4 1.4l.4.05.25-.05 3.2-.35 6.45-1.2q5.7-3.3 6.3-16.25.3-6.25-.65-13.55z" fill="#daba6d" transform="translate(125.6 108.5)"/><path d="m14.5 2.1-9 2-7.6 15.8.4.05.25-.05 3.2-.35 6.45-1.2q5.7-3.3 6.3-16.25z" fill="#b1904a" transform="translate(125.6 108.5)"/><path d="m9.15-5.9-.45-3.8q-6.15 4.75-9.5 16.85-1.65 6.1-2.1 11.2l1.2 1.6.25-.05 3.2-.35.6-.85q6.2-7.7 6.95-17.8.25-3.3-.15-6.8z" fill="#957022" transform="translate(125.6 108.5)"/><path d="m-2.2-22.3-4.6.3q-2.15.9-6.8 11.05-4.85 10.5-6.55 18.65l-.95 5.8q-.2 2.8.4 4.55.7 1.95 2.4 3 2.1 1.3 5.85 1.4l10.1-.8q12.25-2.05 18.65-4.55l3.9-2q1-1.65 1-3.7-.05-1.55-.75-2.8l-6.15-4.55q-4.6-1.65-8.05-6.2l-.4-.55q-1.8-2.6-3.15-5.75-2.1-5.2-2.4-10.6-.1-1.65.05-2.65z" fill="#c98b0f" transform="translate(63.35 154.95)"/><path d="m21.2 11.4q0 2.05-1 3.7l-3.9 2q-6.4 2.5-18.65 4.55l-10.1.8q-3.75-.1-5.85-1.4-1.7-1.05-2.4-3-.6-1.75-.4-4.55l.95-5.8q1.7-8.15 6.55-18.65 4.65-10.15 6.8-11.05l4.6-.3 2.55.6q-.15 1-.05 2.65.3 5.4 2.4 10.6 1.35 3.15 3.15 5.75l.4.55q3.45 4.55 8.05 6.2 4.05 1.95 6.15 4.55.7 1.25.75 2.8z" fill="none" stroke="#8a5f08" stroke-linecap="round" stroke-linejoin="round" stroke-width="4" transform="translate(63.35 154.95)"/><path d="m-2.2-22.3-4.6.3q-2.15.9-6.8 11.05-4.85 10.5-6.55 18.65l-.95 5.8q-.2 2.8.4 4.55.7 1.95 2.4 3 2.1 1.3 5.85 1.4l10.1-.8q12.25-2.05 18.65-4.55l3.9-2q1-1.65 1-3.7l-.1-.85q-.7-4.15-6.8-6.5-4.6-1.65-8.05-6.2l-.4-.55q-1.8-2.6-3.15-5.75-2.1-5.2-2.4-10.6-.1-1.65.05-2.65z" fill="#e7a614" transform="translate(63.35 154.95)"/><path d="m5.85-2.7q-1.8-2.6-3.15-5.75-3.3 13.45-12.85 21-5.25 4.1-10.55 5.5.7 1.95 2.4 3 2.1 1.3 5.85 1.4l10.1-.8q12.25-2.05 18.65-4.55l3.9-2q1-1.65 1-3.7l-.1-.85-8.1.35q-4.45.15-8.05-.1-5.4-.3-3.75-5.85 1.35-4.35 4.65-7.65z" fill="#c98b0f" transform="translate(63.35 154.95)"/><path d="m21.2 11.4q-.1-4.75-6.9-7.35-4.6-1.65-8.05-6.2-1.45 1.7-2.35 4.8-.65 2.05-.65 2.65-.05 1.35 1.25 2.3 3.05 2.25 16.7 3.8z" fill="#f5dd1e" transform="translate(63.35 154.95)"/><path d="m-3.55-14.7.15-1.6q0-1.8-.35-2.75-1.1-3.05-5.9 3.25-5.9 7.75-8.8 17.85-2.55 8.9-1.35 13.4 6.8-8.95 12.25-20.4z" fill="#f5dd1e" transform="translate(63.35 154.95)"/><path d="m2.3-1.85-1.35-2.9q-2.9-1.1-3.35 3.65-.25 2.55.1 7.25 0 2.1 2.45 2.45 2.45.45 2.9-.85.55-5.55-.75-9.6z" fill="#fff" transform="translate(45.95 131.35)"/><path d="m3-2.3q-.9-7.45-3-7.4-1.6 0-2.5 5.15-.8 4.4-.7 9.75.1 3.9 2.6 4.4 1.7.4 2.85-.4l-2.05-.45q-2.35-.85-2.45-3.55-.05-4.6.7-8 1.05-4.2 2.7-.65l2.25 8.65q0-3.75-.4-7.5z" fill="#34332e" transform="translate(45.95 131.35)"/><path d="m-.75-8.15-3.35-.2-2.4 1.15-2.55 3.15-1.5 4.35.15 2.15q.15 1.55 0 1.65-.6.55 1.55 2.8 2.25 2.35 4.3 1.85l7.15.95 4.8-.7 1.7-3.7-1.7-5.65-4.4-5.6z" fill="#fff" transform="translate(92.55 138.15)"/><path d="m-6.8-5.05q2-1.8 5.3-1.8 2.25 0 4.95 3.15 2.3 2.7 4.25 6.85 1.6 3.15-3.9 4.55l-10.4 1.25q14.25 3.85 17.4-.95 1.95-2.95-.4-7.3-1.55-3.05-4.65-6.45-4.15-4.5-7.4-4.85-3.25-.4-6.05 2.45-1.9 1.95-3.05 4.65-1 2.4-.8 8.55l1.6-.65q.25-6.8 3.15-9.45z" fill="#34332e" transform="translate(92.55 138.15)"/></svg>