<svg fill="none" height="72" viewBox="0 0 92 72" width="92" xmlns="http://www.w3.org/2000/svg"><path d="m1.33158 37.91c-3.67202-13.0854.88973-21.6 14.77852-27.5836 5.2781.2644 10.7522-.45335 15.4874 3.022 3.5438 2.5838 5.934-.4231 8.5957-2.0852 11.6419-7.26801 22.3412-5.61345 29.1122 4.3517 1.2798 1.736 2.062 3.7894 2.2621 5.9383.1734 2.3043 1.983 3.7776 3.8831 2.9767 4.6296-1.987 8.2941.9746 12.3733 1.6924 4.245 3.9815 3.8605 8.5523 1.6739 13.3422-2.1867 2.6594-4.2451 4.9637-3.6645 9.1795.8746 6.3009-2.4882 10.9322-8.4449 13.1156-6.6805 2.4554-14.7032 0-18.9859-5.4245-4.2828-5.4246-4.3582-10.5998-.4223-16.6439-.1809.1058-.1432 0-.1432 0l-.5429.2569c-2.8653 1.6772-5.8662 1.2843-8.8295 1.1559-.9235-.0996-1.8577.0058-2.736.3087-.8783.303-1.6793.796-2.346 1.4441-15.7587 14.6493-31.05 12.753-42.05102-5.0468z" fill="#e1f8ff"/><path d="m61.7054 39.5343c-4.9237 3.8305-3.8078 8.5373-1.4477 13.0099 2.6541 5.0317 7.2988 6.7996 12.8181 6.5427 5.2027-.2342 10.5561-3.7775 10.1414-7.4569-.6786-6.3614 1.1461-9.5949 6.2809-12.0352-1.2215 3.5206-2.4807 6.7996-1.9604 10.8869 1.0179 7.9555-1.9077 14.8306-9.312 18.2757-7.6457 3.5811-15.9925 3.9513-23.0651-1.5941-3.936-3.1052-7.2988-4.4348-12.3582-3.3545-5.9718 1.2768-12.0189.5138-16.1433-5.009-1.6966-2.2665-3.9887-2.3496-6.4393-2.7123-10.45053-1.511-16.77666-7.6911-18.91804-18.1775 5.5872 4.6841 11.20454 9.0661 18.75214 10.5091 5.0446 1.12 10.3244.3316 14.8238-2.2136 4.5241-2.531 10.3073-5.2886 2.5411-12.2544 7.4194 3.3243 14.032 4.6011 20.9614 3.8607 1.885-.9369 3.4684-1.2768 3.3252 1.7225z" fill="#a7eaff"/><path d="m87.8618 26.2525c-4.8935 1.7905-9.8549-1.9795-14.8615.2493-1.1687.5213-1.9755-1.4506-2.6089-2.6745-7.5401-14.7022-16.2036-17.45981-29.8059-8.5675-4.5995 3.0221-8.0076 3.9362-11.9812 0-3.4835-3.4224-9.1085-1.307-12.4939-4.9334 6.2884-3.39983 12.5316-.068 18.5787-.2418 5.2781-.14355 8.7314-8.75635 15.8342-9.519418 8.2941-.8915 18.624 6.285838 21.7531 16.326518 1.2894 4.1024 1.9303 6.6863 7.231 5.4548 3.016-.6951 6.3713.8311 8.3468 3.8909" fill="#f8fbfa"/><path d="m61.7051 39.5343-3.3252-1.7225c2.2992-1.7134 5.0615-2.6904 7.9246-2.803.0603 3.7247-2.4731 3.8909-4.5994 4.5331" fill="#c5e3fa"/></svg>