<svg width="259" height="107" viewBox="0 0 259 107" fill="none" xmlns="http://www.w3.org/2000/svg">
<path d="M253.031 43.9678C257.61 49.0797 259.439 54.8138 257.061 61.4936C254.24 66.9688 249.721 69.2734 243.686 68.029C239.993 67.2674 237.137 68.4421 234.053 70.2141C226.396 74.6043 218.436 75.56 210.547 70.6621C208.983 69.7286 207.729 68.3635 206.94 66.7349C205.514 63.6588 206.698 61.185 210.069 61.0854C214.174 60.956 217.771 59.3731 221.424 58.1885C220.976 58.2902 220.536 58.4182 220.104 58.5718C214.184 60.9759 208.159 62.1854 201.827 60.5329C201.006 59.9456 200.628 58.8804 199.721 58.5071C199.827 58.5469 199.671 58.4473 199.676 58.4523C200.224 58.7481 200.682 59.185 201.001 59.7166C203.701 61.9764 204.436 64.7687 203.091 67.9295C201.61 71.4137 199.192 74.0368 195.152 74.4301C191.006 74.8382 186.819 75.0622 182.985 72.8572C179.963 71.125 178.184 71.4585 176.104 74.8482C168.834 86.6747 152.764 91.6223 139.907 86.6747C136.686 85.408 133.988 83.1103 132.245 80.1492C128.179 73.6436 130.879 67.2077 138.366 65.0774C146.779 62.7081 154.743 59.398 161.726 54.2364C161.454 54.4703 161.257 54.6445 161.026 54.8386C142.315 66.7846 122.738 67.4417 102.507 59.3184C100.431 58.4871 98.8693 57.0188 97.2823 55.7893C97.3982 55.8789 97.2823 55.8192 97.4033 55.8939C104.053 62.7628 106.632 77.9342 102.915 86.7543C100.481 92.5133 96.038 95.3953 90.0027 95.9975C83.0657 96.6894 77.4989 93.3644 74.7181 87.72C71.6954 81.5877 68.3654 78.1682 61.0404 78.3971C57.121 78.5216 53.655 75.779 51.0303 72.5486C46.6878 67.2127 47.4686 63.385 53.5492 60.3836C53.1613 60.5727 52.8691 60.742 52.5417 60.9162C46.184 65.595 39.4887 63.2158 32.859 61.9117C32.461 61.7524 32.058 61.5732 31.786 61.4587C33.9724 62.2203 36.0479 62.9171 38.2192 63.0714C40.1588 63.2108 41.9069 63.5194 42.4409 65.6647C42.9749 67.81 42.0328 69.4625 40.5316 70.9558C33.5492 77.9243 17.9522 75.7441 14.5517 66.4113C12.3703 60.4383 8.27456 57.7953 3.58941 54.9631C-0.984911 48.9901 -0.69272 45.0081 4.66246 40.2795C10.0076 39.3736 15.3124 38.836 19.9119 42.599C21.524 43.923 22.4308 42.9922 23.3527 41.7727C25.3678 39.0699 27.5089 36.4617 30.6525 34.8988C38.8943 30.0258 47.3981 30.5087 55.5492 34.63C59.776 36.7703 62.8389 37.0242 66.849 34.1671C71.242 31.0413 76.4561 29.996 81.776 32.5693C84.6425 33.9581 86.8138 33.4404 88.7534 30.7078C95.1967 21.6288 104.305 19.0355 115.015 20.5537C121.101 21.4198 123.353 24.3764 121.565 29.0951C121.66 29.0154 121.635 29.1896 121.716 29.1299C127.968 24.6502 135.136 23.8388 142.441 23.57C145.524 23.4605 148.612 23.57 151.696 23.4954C154.351 23.4406 156.23 22.5596 156.779 19.7025C157.902 13.9834 161.963 10.8575 167.358 10.3847C173.172 9.88691 178.466 11.8779 181.882 17.1043C182.502 17.9918 182.999 18.9578 183.358 19.9763C184.325 23.0723 185.877 24.4909 189.313 22.8135C191.605 21.6985 194.215 21.6836 196.759 22.2062C197.262 22.2062 197.807 22.256 198.325 22.2908C200.116 22.5541 201.826 23.1995 203.338 24.1823C205.812 25.795 207.761 27.9552 207.368 31.2304C206.965 34.3662 204.391 34.9237 202.149 35.3816C209.071 33.4603 209.071 33.4603 214.975 35.3816C212.376 33.4255 212.789 31.0313 214.638 28.662C217.449 25.0583 221.917 24.3415 227.348 26.4669C229.132 28.3733 230.945 30.2548 232.764 32.1313C233.093 32.5229 233.368 32.9565 233.58 33.4205C234.618 37.741 237.076 40.3342 241.882 39.7568C246.386 39.2093 249.399 42.3501 253.041 43.9379" fill="#E1F8FF"/>
<path d="M94.8587 51.9915C101.982 57.6459 110.476 60.0103 119.216 61.4487C134.3 63.9375 148.143 59.9256 161.287 52.8377C162.652 52.1558 163.61 52.2404 163.66 54.0572C156.577 61.8519 147.342 65.7891 137.252 67.7702C133.675 68.472 132.924 70.0897 132.955 73.1956C133 78.2279 135.358 81.7967 139.751 83.9271C152.965 90.3282 170.683 83.1108 175.403 69.3679C176.29 66.7896 176.97 66.1127 179.433 67.8747C182.96 70.4182 186.733 72.3893 191.378 72.3544C200.224 72.3047 203.418 67.2575 199.368 59.4378C199.307 57.5315 200.219 57.5016 201.574 58.3179C208.295 60.727 214.753 58.9152 221.222 57.1382C222.532 56.4513 223.469 56.4663 223.453 58.288C219.69 60.4532 215.746 62.1108 211.363 62.5438C210.204 62.6583 208.552 62.0859 208.219 63.7882C207.957 65.1022 209.091 66.043 209.947 66.9539C215.388 72.7477 226.506 73.1011 234.209 67.148C237.232 64.7936 239.569 64.2063 243.323 65.4108C248.436 67.0584 253.287 65.4855 257.091 61.4836C254.184 70.9806 246.436 76.6201 235.877 76.5256C232.673 76.4957 230.768 77.0631 229.066 80.194C224.99 87.6602 213.277 90.6119 205.126 86.3014C202.295 84.8081 200.496 84.5095 198.073 86.7991C195.458 89.2879 191.882 89.2879 188.879 87.7946C186.003 86.3462 184.657 87.0281 182.547 89.1933C176.179 95.7088 168.597 98.8496 159.489 95.012C157.307 94.0961 155.801 94.7133 153.947 95.6491C143.907 100.686 134.3 99.8999 125.478 92.9115C123.116 91.035 122.038 91.3784 120.365 93.5685C107.126 110.86 80.1937 110.86 68.5161 93.4391C67.5086 91.906 65.9972 91.4829 64.4053 91.1395C58.768 89.9051 54.4204 86.824 51.5942 81.9361C50.1634 79.4474 49.2415 79.741 47.1458 81.2641C39.1206 87.1027 31.4379 86.7394 24.0173 80.0546C21.9316 78.1781 20.2994 77.8894 17.7805 78.8302C12.4354 80.8211 7.59406 79.4673 4.0928 75.1866C0.591531 70.906 0.934101 66.028 3.91144 61.6329C5.64948 59.0645 6.35477 57.0835 3.59406 54.973C12.0072 57.1681 12.2742 57.3871 16.4404 65.5054C20.3044 73.0364 33.6798 74.9626 39.5337 68.8105C41.5992 66.6403 41.6496 65.1669 38.1684 64.6194C35.1458 64.1217 32.1231 63.4547 29.6042 61.5135C29.6042 59.6967 30.511 59.6718 31.8158 60.3985C39.1458 61.8619 46.4254 62.6483 53.5337 59.3383C54.8335 58.5817 55.7302 58.6116 55.71 60.4284C49.5287 63.7583 48.9795 67.3969 54.0778 72.2847C57.8561 75.8934 62.6068 77.3668 67.5892 76.1971C71.7151 75.2016 73.2315 76.5803 73.9317 80.2637C74.304 81.829 74.8922 83.3363 75.6799 84.7434C79.2063 91.7119 85.9721 94.9771 92.5665 92.9513C99.161 90.9255 103.297 83.4941 102.32 75.7242C101.257 67.2326 98.7933 59.3283 92.7479 52.8875C92.8638 51.215 93.5187 50.782 94.889 51.9766" fill="#A7EAFF"/>
<path d="M118.874 29.2294C121.745 27.2086 121.997 25.3719 118.315 24.1474C107.927 20.6632 96.9997 22.3306 90.4153 33.0621C88.4002 36.3224 87.3926 37.9152 83.1659 35.5509C76.5866 31.8426 70.249 33.3757 64.4807 39.1795C62.657 41.0161 61.6445 41.7279 59.2062 39.8464C50.783 33.3458 41.5739 32.1761 31.7602 36.7753C28.2842 37.0939 28.6368 34.3214 28.0625 32.2956C35.5033 25.1778 46.123 24.5904 56.4505 31.0462C59.0399 32.6689 60.516 33.1418 63.3271 30.9716C68.8082 26.7407 75.181 26.8253 81.1861 30.2001C83.6344 31.5738 84.6722 31.3349 86.3145 29.0403C99.2566 10.9521 118.335 3.93383 140.028 9.36925C143.917 10.3399 146.506 9.79731 149.715 7.21399C163.494 -3.88084 179.227 -0.0979453 185.892 15.8699C187.287 19.2098 188.708 18.04 190.657 17.3382C197.791 17.5622 198.657 18.4134 197.272 23.8388C193.655 24.1325 189.982 24.3366 187.106 26.9398C183.897 29.8317 182.516 28.8163 182.018 24.914C181.217 18.5826 177.987 14.4015 171.307 13.0725C164.723 11.7684 159.841 14.954 159.216 21.6238C158.96 24.3863 158.209 26.1982 155.096 25.9692C142.597 25.0384 130.561 27.0194 118.884 31.4046C118.315 31.5838 117.745 31.4395 117.675 30.8621C117.584 30.0657 118.259 29.6276 118.874 29.2245" fill="#FDFDFD"/>
<path d="M226.678 28.1593C225.091 27.8606 223.443 27.1638 221.927 27.3579C219 27.7462 215.882 29.0005 215.212 31.9521C214.476 35.1875 218.149 34.7893 220.013 35.8296C220.899 36.3274 222.174 36.3274 222.496 38.4776C213.277 36.3074 204.194 34.859 193.887 39.2143C196.26 35.4712 198.794 35.1178 200.995 34.3065C206.663 32.2159 207.086 30.2249 202.471 26.3973C201.242 25.4018 199.746 24.69 198.365 23.8488C196.511 17.2884 201.987 19.15 205.015 18.1943C207.489 20.8125 209.867 21.0016 213.413 19.4288C224.567 14.4811 238.239 21.6487 235.247 34.5653C235.078 34.5677 234.909 34.5844 234.743 34.6151C233.59 34.9386 234.3 30.7874 232.134 33.5549C230.725 31.4019 228.873 29.5667 226.698 28.1692" fill="#FDFDFD"/>
<path d="M28.0627 32.2806C30.1735 33.0621 30.4808 35.302 31.7604 36.7604C28.7881 39.3487 25.5438 41.6881 23.4077 45.0728C22.7327 46.138 21.8964 47.0638 20.9946 45.8592C16.773 40.3193 10.2389 41.7229 4.66211 40.2894C8.94927 37.293 13.584 37.1636 17.9367 39.6822C20.8838 41.3944 21.9065 40.3342 23.2012 37.9201C24.37 35.735 25.8007 33.6146 28.0627 32.2707" fill="#F5F9FA"/>
<path d="M232.124 33.5549C233.978 31.4444 234.421 33.5997 235.257 34.5504C239.368 36.5414 244.355 36.0436 248.119 39.1346C249.922 40.603 251.867 41.8723 253.041 43.9529C247.338 43.1117 241.766 41.046 235.826 42.584C234.345 42.9723 233.842 41.6433 233.615 40.2446C233.247 37.9898 232.632 35.7649 232.104 33.5399" fill="#F7FAFB"/>
<path d="M223.434 58.298L221.202 57.1532L228.255 52.773C227.822 56.755 225.283 57.1681 223.444 58.298" fill="#C4E2FC"/>
<path d="M31.8015 60.3985L29.605 61.5135C27.9022 60.6723 26.0483 60.0202 24.8594 57.5613C27.9828 57.5613 29.8972 58.9202 31.8166 60.3985" fill="#BDE1FF"/>
<path d="M163.66 54.0522L161.287 52.8327L168.531 47.9548C167.151 51.5585 165.337 52.7531 163.66 54.0522Z" fill="#BDE1FD"/>
<path d="M55.6949 60.4284L53.5186 59.3383C55.1407 58.079 56.7075 56.6952 59.1407 56.8794C58.909 59.0844 56.9694 59.4428 55.6949 60.4284Z" fill="#BDE1FC"/>
<path d="M201.56 58.3279L199.378 59.4478L195.126 57.2129C194.864 56.2174 195.212 55.7893 196.27 56.0332L201.56 58.3279Z" fill="#BBDDFB"/>
<path d="M94.8591 51.9915L92.723 52.9024C91.9472 52.3051 90.5316 51.4888 91.5291 50.6426C92.8893 49.4829 93.9321 51.0159 94.8591 51.9915Z" fill="#D4ECFA"/>
<path d="M196.244 56.0332L195.101 57.2129C194.315 56.6156 192.889 55.9387 193.851 54.9332C194.814 53.9278 195.569 55.3264 196.244 56.0332Z" fill="#C9E6F8"/>
</svg>
