<svg fill="none" height="118" viewBox="0 0 248 118" width="248" xmlns="http://www.w3.org/2000/svg"><path d="m1.46075 55.0698c.44227-3.0609 1.45086-5.8362 3.9319-7.8893 8.03095-4.5212 16.40715-5.987 25.24185-2.6944 2.6266.9808 4.3795 0 6.3536-1.6652 5.1562-4.3865 11.1161-6.7037 17.885-4.6936 4.687 1.3957 6.5478-2.0424 9.1205-4.4512 5.5715-6.3049 12.4591-10.1256 20.9809-9.5275 8.004.5389 11.5314 5.7822 9.0828 12.3405 4.5036-2.5543 16.6877-4.6398 27.0867-4.9847 9.924-.3287 19.066 2.5166 27.933 6.084-.135-.0809-.038 0-.151-.0755-4.687-1.1262-8.63-4.0308-13.522-4.311-3.64-.221-5.992-2.6567-6.138-6.3642-.145-3.7076 2.336-6.1164 5.701-6.9409 11.952-2.9369 23.446-1.7944 32.626 6.9624 4.558 4.3542 7.551 5.9277 13.543 2.1555 9.407-6.0139 28.796-2.5273 36.013 8.536 2.724 4.1709 5.647 6.5905 10.992 6.1594 4.93-.3988 8.802 3.0285 13.02 5.0817 6.85 6.8222 7.821 17.3412 2.513 27.2998-6.898 8.4497-16.606 10.9717-26.315 8.8431-9.708-2.1286-17.766 1.8484-26.514 3.0878-5.335.7544-10.518 2.4034-15.944 1.3418-3.959-.776-6.758.3287-9.757 3.2764-7.011 6.9139-15.102 11.6133-25.668 8.3093-2.685-.827-5.179-2.1807-7.335-3.9821-6.175-5.1463-5.464-10.5675 1.802-13.7846 4.741-2.0963 9.708-3.6644 14.023-6.6768 1.575-1.3741 3.651-2.0423 5.097-3.5728.372-.3341.749-.6843 1.078-1.0023l.432-.4149c-.108.1078-.049 0-.14.1078-.603.5857-1.249 1.126-1.931 1.6166-19.023 13.332-39.314 14.2966-60.3217 5.8146-4.3148-1.7514-5.8197-1.4011-7.1303 3.271-4.0667 14.5498-16.515 20.3855-30.1553 14.5498-2.1573-.9644-4.5105-1.411-6.8714-1.3041-7.8584.3288-12.5508-2.8614-13.6727-8.9454-1.1218-6.084 3.0312-13.0302 9.5143-15.1858 2.4648-.8191 4.9404-1.5196 7.0763-2.7267-.1402.0646-.5016.2371-.5987.3018-7.1788 2.9476-14.2713 5.7552-21.7953 1.6813.0485.1131-.1726.4257-.1025.5119.6958 4.3111-1.6181 6.3481-5.2533 7.6414-2.2134.8035-4.576 1.1132-6.9219.9075-2.346-.2058-4.6184-.922-6.65786-2.0985-2.03944-1.1765-3.79645-2.7847-5.1477-4.7117s-2.26401-4.1262-2.67419-6.4431c-.71194-3.7399-1.467042-7.5929-.329-11.4351z" fill="#e1f8ff"/><path d="m54.965 68.2509c-4.8542 3.1633-10.9975 4.0255-14.8484 8.9617-2.7292 3.5027-4.4228 7.0809-2.1575 11.3165 2.3085 4.3488 6.2512 4.8931 10.6361 3.7722 2.3786-.5981 4.5953-.8191 6.7474.9053 6.4075 5.1356 12.8366 3.9932 19.1471-.2532 6.5585-4.4189 8.662-10.9933 8.7267-18.4784 0-1.0184-.3505-2.0315-.7335-4.0847 23.8291 15.0888 47.0261 14.1673 70.1161.4742 2.697-1.0185 3.776-.3502 2.567 2.549v.0269c-1.725 1.3095-3.408 2.6944-5.102 4.0308-4.147 4.85-10.059 6.5098-15.641 8.6707-4.757 1.8268-5.248 3.853-1.618 7.6252 5.647 5.8576 16.18 6.7579 23.931 1.9453 1.828-1.1316 4.218-2.1878 5.081-3.9069 3.657-7.3288 9.126-6.1217 15.857-5.3349 9.169 1.0778 18.198-2.1124 26.86-5.2811 2.297-.8406 4.066-1.6705 6.65-.7382 11.537 4.1494 22.486 2.9854 32.534-4.3812-5.248 9.8616-14.757 12.1357-24.541 12.6261-3.975.194-6.122 1.0508-8.468 4.0524-5.507 7.0055-13.149 9.1614-21.482 6.0732-3.048-1.1316-5.626-1.7999-8.527.0593-.853.5389-2.255.9646-3.107.6413-7.918-2.9693-12.578 2.8396-18.629 6.0036-19.353 10.114-39.185 10.098-58.181-1.078-4.7029-2.759-6.5745-2.037-9.8807 1.541-10.5337 11.403-25.943 14.765-39.7344 9.274-5.2155-2.075-9.6274-5.157-11.5422-10.654-1.0787-3.071-2.9934-3.61-5.8897-3.772-10.3664-.571-14.0233-3.6265-17.1299-13.5958-.5394-1.7568-.4639-3.6105-2.7723-4.6991-12.42138-5.7876-16.27777-14.6307-12.37284-27.4722.81982 13.9193 4.14764 18.9363 13.64034 21.4098 3.1875.8353 6.1162.2479 8.8346-.9323 4.3526-1.8861 3.8887-4.1063-.2211-5.9277-.2643-1.1855.2049-1.6597 1.3915-1.4334 9.2014 2.0154 18.3381 2.6944 27.2644-1.261 1.521-.8245 2.6375-.8784 2.5781 1.3364" fill="#a7eaff"/><path d="m152.604 39.6847c-5.437-1.3041-10.819-2.91-16.315-3.8584-16.801-2.91-33.074-.7329-48.8067 5.7283-.7875.3233-1.6181.6251-2.4541-.291.7767-2.9261 3.7485-3.2333 5.7819-4.6236 3.5975-2.4412 3.1606-4.8931 0-7.1294-3.5004-2.4951-7.3892-3.4812-11.6555-1.9831-5.1508 1.8106-9.9079 4.2571-13.7481 8.2395-7.0602-.1886-7.8584-1.8699-4.4066-9.3496 12.2596-17.83709 36.0775-24.74019 57.1721-16.1666 3.737 1.5143 5.733 1.5466 8.699-1.6166 13.851-14.73308 35.598-9.91546 41.941 9.161.922 2.7699 1.925 3.2333 4.53 2.4142 5.658-1.8106 11.095-1.7729 15.642 2.9046 1.844 1.9023 3.608.2856 5.355-.2856 15.162-4.9847 24.929.0539 28.77 15.1803.685 2.6945 2.157 2.6945 4.142 2.8723 5.803.5389 10.938 2.3441 13.926 7.8839-7.012.0323-13.554-4.241-20.895-2.1556-1.817.5389-2.481-2.0854-3.123-3.6374-5.323-12.8255-27.927-19.2274-39.324-8.3258-3.705 3.5405-5.545 2.7807-8.241-1.2071-6.651-9.8184-22.653-14.8085-33.537-10.9878-2.061.7221-4.493 1.3849-4.693 3.8853-.242 3.0124 2.417 3.9447 4.714 4.4566 6.429 1.4334 11.866 5.0439 17.837 7.5444.296 1.1586.081 1.8052-1.295 1.2987" fill="#fcfcfc"/><path d="m61.0002 26.4174c-.6257 4.1062.604 7.3342 4.4281 9.3334-.9924 1.4065-2.4487 2.6944-2.8694 4.2464-.9061 3.3519-2.6267 3.3896-5.2695 2.1555-7.9771-3.8152-14.6111-1.5843-20.1072 4.85-1.2297 1.4334-2.3246 2.7321-4.2825 1.7029-8.4409-4.462-17.0436-3.4273-25.73799-1.0131-.5016.1455-1.18119-.3287-1.77987-.5389 6.33746-8.2503 14.80526-8.7838 23.85566-6.1541 3.042.8892 4.7464 1.0778 6.6503-2.0693 1.2737-2.1785 3.1739-3.9237 5.4536-5.0087 2.2797-1.0851 4.8334-1.4597 7.3291-1.0753 6.3428 1.0778 9.3956-2.0477 12.3297-6.4127" fill="#fafbfb"/><path d="m54.9648 68.251-2.5781-1.3364c1.9201-1.3957 3.4843-3.5081 6.4183-3.3788-.1402 2.7968-2.2113 3.5728-3.8402 4.7152z" fill="#c5e3f8"/><path d="m155.167 73.4243c-.106-.6402-.411-1.2309-.872-1.6883-.461-.4575-1.054-.7586-1.695-.8606l5.221-3.8962c1.224-.3664 1.618.1186 1.386 1.3149z" fill="#b7ecfd"/><path d="m25.1226 68.1756-1.3915 1.4334c-1.4347-.582-4.029-.97-2.33-3.0609 1.3753-1.6921 2.961-.1185 3.7215 1.6167" fill="#d0e8fa"/><path d="m152.604 39.6847 1.295-1.2987c1.645.3556 3.301.7059 3.953 3.05-2.335 1.0131-3.775-.458-5.248-1.7513z" fill="#f2fafd"/><path d="m150.048 77.4822c1.079-2.1286 2.67-3.6159 5.102-4.0308-1.122 2.0693-2.697 3.5458-5.102 4.0308z" fill="#b7ecfd"/><path d="m159.206 68.2887-1.386-1.3094c.718-.9269 1.548-2.6136 2.74-1.4766 1.192 1.1371-.469 2.0262-1.354 2.786z" fill="#d2ebfb"/></svg>