<svg width="248" height="118" viewBox="0 0 248 118" fill="none" xmlns="http://www.w3.org/2000/svg">
<path d="M1.46075 55.0698C1.90302 52.0089 2.91161 49.2336 5.39265 47.1805C13.4236 42.6593 21.7998 41.1935 30.6345 44.4861C33.2611 45.4669 35.014 44.4861 36.9881 42.8209C42.1443 38.4344 48.1042 36.1172 54.8731 38.1273C59.5601 39.523 61.4209 36.0849 63.9936 33.6761C69.5651 27.3712 76.4527 23.5505 84.9745 24.1486C92.9785 24.6875 96.5059 29.9308 94.0573 36.4891C98.5609 33.9348 110.745 31.8493 121.144 31.5044C131.068 31.1757 140.21 34.021 149.077 37.5884C148.942 37.5075 149.039 37.5884 148.926 37.5129C144.239 36.3867 140.296 33.4821 135.404 33.2019C131.764 32.9809 129.412 30.5452 129.266 26.8377C129.121 23.1301 131.602 20.7213 134.967 19.8968C146.919 16.9599 158.413 18.1024 167.593 26.8592C172.151 31.2134 175.144 32.7869 181.136 29.0147C190.543 23.0008 209.932 26.4874 217.149 37.5507C219.873 41.7216 222.796 44.1412 228.141 43.7101C233.071 43.3113 236.943 46.7386 241.161 48.7918C248.011 55.614 248.982 66.133 243.674 76.0916C236.776 84.5413 227.068 87.0633 217.359 84.9347C207.651 82.8061 199.593 86.7831 190.845 88.0225C185.51 88.7769 180.327 90.4259 174.901 89.3643C170.942 88.5883 168.143 89.693 165.144 92.6407C158.133 99.5546 150.042 104.254 139.476 100.95C136.791 100.123 134.297 98.7693 132.141 96.9679C125.966 91.8216 126.677 86.4004 133.943 83.1833C138.684 81.087 143.651 79.5189 147.966 76.5065C149.541 75.1324 151.617 74.4642 153.063 72.9337C153.435 72.5996 153.812 72.2494 154.141 71.9314L154.573 71.5165C154.465 71.6243 154.524 71.5165 154.433 71.6243C153.83 72.21 153.184 72.7503 152.502 73.2409C133.479 86.5729 113.188 87.5375 92.1803 79.0555C87.8655 77.3041 86.3606 77.6544 85.05 82.3265C80.9833 96.8763 68.535 102.712 54.8947 96.8763C52.7374 95.9119 50.3842 95.4653 48.0233 95.5722C40.1649 95.901 35.4725 92.7108 34.3506 86.6268C33.2288 80.5428 37.3818 73.5966 43.8649 71.441C46.3297 70.6219 48.8053 69.9214 50.9412 68.7143C50.801 68.7789 50.4396 68.9514 50.3425 69.0161C43.1637 71.9637 36.0712 74.7713 28.5472 70.6974C28.5957 70.8105 28.3746 71.1231 28.4447 71.2093C29.1405 75.5204 26.8266 77.5574 23.1914 78.8507C20.978 79.6542 18.6154 79.9639 16.2695 79.7582C13.9235 79.5524 11.6511 78.8362 9.61164 77.6597C7.5722 76.4832 5.81519 74.875 4.46394 72.948C3.11269 71.021 2.19993 68.8218 1.78975 66.5049C1.07781 62.765 0.322708 58.912 1.46075 55.0698Z" fill="#E1F8FF"/>
<path d="M54.965 68.2509C50.1108 71.4142 43.9675 72.2764 40.1166 77.2126C37.3874 80.7153 35.6938 84.2935 37.9591 88.5291C40.2676 92.8779 44.2103 93.4222 48.5952 92.3013C50.9738 91.7032 53.1905 91.4822 55.3426 93.2066C61.7501 98.3422 68.1792 97.1998 74.4897 92.9534C81.0482 88.5345 83.1517 81.9601 83.2164 74.475C83.2164 73.4566 82.8659 72.4435 82.4829 70.3903C106.312 85.4791 129.509 84.5576 152.599 70.8645C155.296 69.846 156.375 70.5143 155.166 73.4135V73.4404C153.441 74.7499 151.758 76.1348 150.064 77.4712C145.917 82.3212 140.005 83.981 134.423 86.1419C129.666 87.9687 129.175 89.9949 132.805 93.7671C138.452 99.6247 148.985 100.525 156.736 95.7124C158.564 94.5808 160.954 93.5246 161.817 91.8055C165.474 84.4767 170.943 85.6838 177.674 86.4706C186.843 87.5484 195.872 84.3582 204.534 81.1895C206.831 80.3489 208.6 79.519 211.184 80.4513C222.721 84.6007 233.67 83.4367 243.718 76.0701C238.47 85.9317 228.961 88.2058 219.177 88.6962C215.202 88.8902 213.055 89.747 210.709 92.7486C205.202 99.7541 197.56 101.91 189.227 98.8218C186.179 97.6902 183.601 97.0219 180.7 98.8811C179.847 99.42 178.445 99.8457 177.593 99.5224C169.675 96.5531 165.015 102.362 158.964 105.526C139.611 115.64 119.779 115.624 100.783 104.448C96.0801 101.689 94.2085 102.411 90.9023 105.989C80.3686 117.392 64.9593 120.754 51.1679 115.263C45.9524 113.188 41.5405 110.106 39.6257 104.609C38.547 101.538 36.6323 100.999 33.736 100.837C23.3696 100.266 19.7127 97.2105 16.6061 87.2412C16.0667 85.4844 16.1422 83.6307 13.8338 82.5421C1.41242 76.7545 -2.44397 67.9114 1.46096 55.0699C2.28078 68.9892 5.6086 74.0062 15.1013 76.4797C18.2888 77.315 21.2175 76.7276 23.9359 75.5474C28.2885 73.6613 27.8246 71.4411 23.7148 69.6197C23.4505 68.4342 23.9197 67.96 25.1063 68.1863C34.3077 70.2017 43.4444 70.8807 52.3707 66.9253C53.8917 66.1008 55.0082 66.0469 54.9488 68.2617" fill="#A7EAFF"/>
<path d="M152.604 39.6847C147.167 38.3806 141.785 36.7747 136.289 35.8263C119.488 32.9163 103.215 35.0934 87.4823 41.5546C86.6948 41.8779 85.8642 42.1797 85.0282 41.2636C85.8049 38.3375 88.7767 38.0303 90.8101 36.64C94.4076 34.1988 93.9707 31.7469 90.8101 29.5106C87.3097 27.0155 83.4209 26.0294 79.1546 27.5275C74.0038 29.3381 69.2467 31.7846 65.4065 35.767C58.3463 35.5784 57.5481 33.8971 60.9999 26.4174C73.2595 8.58031 97.0774 1.67721 118.172 10.2508C121.909 11.7651 123.905 11.7974 126.871 8.6342C140.722 -6.09888 162.469 -1.28126 168.812 17.7952C169.734 20.5651 170.737 21.0285 173.342 20.2094C179 18.3988 184.437 18.4365 188.984 23.114C190.828 25.0163 192.592 23.3996 194.339 22.8284C209.501 17.8437 219.268 22.8823 223.109 38.0087C223.794 40.7032 225.266 40.7032 227.251 40.881C233.054 41.4199 238.189 43.2251 241.177 48.7649C234.165 48.7972 227.623 44.5239 220.282 46.6093C218.465 47.1482 217.801 44.5239 217.159 42.9719C211.836 30.1464 189.232 23.7445 177.835 34.6461C174.13 38.1866 172.29 37.4268 169.594 33.439C162.943 23.6206 146.941 18.6305 136.057 22.4512C133.996 23.1733 131.564 23.8361 131.364 26.3365C131.122 29.3489 133.781 30.2812 136.078 30.7931C142.507 32.2265 147.944 35.837 153.915 38.3375C154.211 39.4961 153.996 40.1427 152.62 39.6362" fill="#FCFCFC"/>
<path d="M61.0002 26.4174C60.3745 30.5236 61.6042 33.7516 65.4283 35.7508C64.4359 37.1573 62.9796 38.4452 62.5589 39.9972C61.6528 43.3491 59.9322 43.3868 57.2894 42.1527C49.3123 38.3375 42.6783 40.5684 37.1822 47.0027C35.9525 48.4361 34.8576 49.7348 32.8997 48.7056C24.4588 44.2436 15.8561 45.2783 7.16171 47.6925C6.66011 47.838 5.98052 47.3638 5.38184 47.1536C11.7193 38.9033 20.1871 38.3698 29.2375 40.9995C32.2795 41.8887 33.9839 42.0773 35.8878 38.9302C37.1615 36.7517 39.0617 35.0065 41.3414 33.9215C43.6211 32.8364 46.1748 32.4618 48.6705 32.8462C55.0133 33.924 58.0661 30.7985 61.0002 26.4335" fill="#FAFBFB"/>
<path d="M54.9648 68.251L52.3867 66.9146C54.3068 65.5189 55.871 63.4065 58.805 63.5358C58.6648 66.3326 56.5937 67.1086 54.9648 68.251Z" fill="#C5E3F8"/>
<path d="M155.167 73.4243C155.061 72.7841 154.756 72.1934 154.295 71.736C153.834 71.2785 153.241 70.9774 152.6 70.8754L157.821 66.9792C159.045 66.6128 159.439 67.0978 159.207 68.2941L155.167 73.4243Z" fill="#B7ECFD"/>
<path d="M25.1226 68.1756L23.7311 69.609C22.2964 69.027 19.7021 68.639 21.4011 66.5481C22.7764 64.856 24.3621 66.4296 25.1226 68.1648" fill="#D0E8FA"/>
<path d="M152.604 39.6847L153.899 38.386C155.544 38.7416 157.2 39.0919 157.852 41.436C155.517 42.4491 154.077 40.978 152.604 39.6847Z" fill="#F2FAFD"/>
<path d="M150.048 77.4822C151.127 75.3536 152.718 73.8663 155.15 73.4514C154.028 75.5207 152.453 76.9972 150.048 77.4822Z" fill="#B7ECFD"/>
<path d="M159.206 68.2887L157.82 66.9793C158.538 66.0524 159.368 64.3657 160.56 65.5027C161.752 66.6398 160.091 67.5289 159.206 68.2887Z" fill="#D2EBFB"/>
</svg>
