<svg width="92" height="72" viewBox="0 0 92 72" fill="none" xmlns="http://www.w3.org/2000/svg">
<path d="M1.33158 37.91C-2.34044 24.8246 2.22131 16.31 16.1101 10.3264C21.3882 10.5908 26.8623 9.87305 31.5975 13.3484C35.1413 15.9322 37.5315 12.9253 40.1932 11.2632C51.8351 3.99519 62.5344 5.64975 69.3054 15.6149C70.5852 17.3509 71.3674 19.4043 71.5675 21.5532C71.7409 23.8575 73.5505 25.3308 75.4506 24.5299C80.0802 22.5429 83.7447 25.5045 87.8239 26.2223C92.0689 30.2038 91.6844 34.7746 89.4978 39.5645C87.3111 42.2239 85.2527 44.5282 85.8333 48.744C86.7079 55.0449 83.3451 59.6762 77.3884 61.8596C70.7079 64.315 62.6852 61.8596 58.4025 56.4351C54.1197 51.0105 54.0443 45.8353 57.9802 39.7912C57.7993 39.897 57.837 39.7912 57.837 39.7912L57.2941 40.0481C54.4288 41.7253 51.4279 41.3324 48.4646 41.204C47.5411 41.1044 46.6069 41.2098 45.7286 41.5127C44.8503 41.8157 44.0493 42.3087 43.3826 42.9568C27.6239 57.6061 12.3326 55.7098 1.33158 37.91Z" fill="#E1F8FF"/>
<path d="M61.7054 39.5343C56.7817 43.3648 57.8976 48.0716 60.2577 52.5442C62.9118 57.5759 67.5565 59.3438 73.0758 59.0869C78.2785 58.8527 83.6319 55.3094 83.2172 51.63C82.5386 45.2686 84.3633 42.0351 89.4981 39.5948C88.2766 43.1154 87.0174 46.3944 87.5377 50.4817C88.5556 58.4372 85.63 65.3123 78.2257 68.7574C70.58 72.3385 62.2332 72.7087 55.1606 67.1633C51.2246 64.0581 47.8618 62.7285 42.8024 63.8088C36.8306 65.0856 30.7835 64.3226 26.6591 58.7998C24.9625 56.5333 22.6704 56.4502 20.2198 56.0875C9.76927 54.5765 3.44314 48.3964 1.30176 37.91C6.88896 42.5941 12.5063 46.9761 20.0539 48.4191C25.0985 49.5391 30.3783 48.7507 34.8777 46.2055C39.4018 43.6745 45.185 40.9169 37.4188 33.9511C44.8382 37.2754 51.4508 38.5522 58.3802 37.8118C60.2652 36.8749 61.8486 36.535 61.7054 39.5343Z" fill="#A7EAFF"/>
<path d="M87.8618 26.2525C82.9683 28.043 78.0069 24.273 73.0003 26.5018C71.8316 27.0231 71.0248 25.0512 70.3914 23.8273C62.8513 9.1251 54.1878 6.36749 40.5855 15.2598C35.986 18.2819 32.5779 19.196 28.6043 15.2598C25.1208 11.8374 19.4958 13.9528 16.1104 10.3264C22.3988 6.92657 28.642 10.2584 34.6891 10.0846C39.9672 9.94105 43.4205 1.32825 50.5233 0.565182C58.8174 -0.326318 69.1473 6.85102 72.2764 16.8917C73.5658 20.9941 74.2067 23.578 79.5074 22.3465C82.5234 21.6514 85.8787 23.1776 87.8542 26.2374" fill="#F8FBFA"/>
<path d="M61.7051 39.5343L58.3799 37.8118C60.6791 36.0984 63.4414 35.1214 66.3045 35.0088C66.3648 38.7335 63.8314 38.8997 61.7051 39.5419" fill="#C5E3FA"/>
</svg>
