<svg fill="none" height="107" viewBox="0 0 259 107" width="259" xmlns="http://www.w3.org/2000/svg"><path d="m253.031 43.9678c4.579 5.1119 6.408 10.846 4.03 17.5258-2.821 5.4752-7.34 7.7798-13.375 6.5354-3.693-.7616-6.549.4131-9.633 2.1851-7.657 4.3902-15.617 5.3459-23.506.448-1.564-.9335-2.818-2.2986-3.607-3.9272-1.426-3.0761-.242-5.5499 3.129-5.6495 4.105-.1294 7.702-1.7123 11.355-2.8969-.448.1017-.888.2297-1.32.3833-5.92 2.4041-11.945 3.6136-18.277 1.9611-.821-.5873-1.199-1.6525-2.106-2.0258.106.0398-.05-.0598-.045-.0548.548.2958 1.006.7327 1.325 1.2643 2.7 2.2598 3.435 5.0521 2.09 8.2129-1.481 3.4842-3.899 6.1073-7.939 6.5006-4.146.4081-8.333.6321-12.167-1.5729-3.022-1.7322-4.801-1.3987-6.881 1.991-7.27 11.8265-23.34 16.7741-36.197 11.8265-3.221-1.2667-5.919-3.5644-7.662-6.5255-4.066-6.5056-1.366-12.9415 6.121-15.0718 8.413-2.3693 16.377-5.6794 23.36-10.841-.272.2339-.469.4081-.7.6022-18.711 11.946-38.288 12.6031-58.519 4.4798-2.076-.8313-3.6377-2.2996-5.2247-3.5291.1159.0896 0 .0299.121.1046 6.6497 6.8689 9.2287 22.0403 5.5117 30.8604-2.434 5.759-6.877 8.641-12.9123 9.2432-6.937.6919-12.5038-2.6331-15.2846-8.2775-3.0227-6.1323-6.3527-9.5518-13.6777-9.3229-3.9194.1245-7.3854-2.6181-10.0101-5.8485-4.3425-5.3359-3.5617-9.1636 2.5189-12.165-.3879.1891-.6801.3584-1.0075.5326-6.3577 4.6788-13.053 2.2996-19.6827.9955-.398-.1593-.801-.3385-1.073-.453 2.1864.7616 4.2619 1.4584 6.4332 1.6127 1.9396.1394 3.6877.448 4.2217 2.5933s-.4081 3.7978-1.9093 5.2911c-6.9824 6.9685-22.5794 4.7883-25.9799-4.5445-2.1814-5.973-6.27714-8.616-10.96229-11.4482-4.574321-5.973-4.28213-9.955 1.07305-14.6836 5.34514-.9059 10.64994-1.4435 15.24944 2.3195 1.6121 1.324 2.5189.3932 3.4408-.8263 2.0151-2.7028 4.1562-5.311 7.2998-6.8739 8.2418-4.873 16.7456-4.3901 24.8967-.2688 4.2268 2.1403 7.2897 2.3942 11.2998-.4629 4.393-3.1258 9.6071-4.1711 14.927-1.5978 2.8665 1.3888 5.0378.8711 6.9774-1.8615 6.4433-9.079 15.5516-11.6723 26.2616-10.1541 6.086.8661 8.338 3.8227 6.55 8.5414.095-.0797.07.0945.151.0348 6.252-4.4797 13.42-5.2911 20.725-5.5599 3.083-.1095 6.171 0 9.255-.0746 2.655-.0548 4.534-.9358 5.083-3.7929 1.123-5.7191 5.184-8.845 10.579-9.3178 5.814-.49779 11.108 1.4932 14.524 6.7196.62.8875 1.117 1.8535 1.476 2.872.967 3.096 2.519 4.5146 5.955 2.8372 2.292-1.115 4.902-1.1299 7.446-.6073.503 0 1.048.0498 1.566.0846 1.791.2633 3.501.9087 5.013 1.8915 2.474 1.6127 4.423 3.7729 4.03 7.0481-.403 3.1358-2.977 3.6933-5.219 4.1512 6.922-1.9213 6.922-1.9213 12.826 0-2.599-1.9561-2.186-4.3503-.337-6.7196 2.811-3.6037 7.279-4.3205 12.71-2.1951 1.784 1.9064 3.597 3.7879 5.416 5.6644.329.3916.604.8252.816 1.2892 1.038 4.3205 3.496 6.9137 8.302 6.3363 4.504-.5475 7.517 2.5933 11.159 4.1811" fill="#e1f8ff"/><path d="m94.8587 51.9915c7.1233 5.6544 15.6173 8.0188 24.3573 9.4572 15.084 2.4888 28.927-1.5231 42.071-8.611 1.365-.6819 2.323-.5973 2.373 1.2195-7.083 7.7947-16.318 11.7319-26.408 13.713-3.577.7018-4.328 2.3195-4.297 5.4254.045 5.0323 2.403 8.6011 6.796 10.7315 13.214 6.4011 30.932-.8163 35.652-14.5592.887-2.5783 1.567-3.2552 4.03-1.4932 3.527 2.5435 7.3 4.5146 11.945 4.4797 8.846-.0497 12.04-5.0969 7.99-12.9166-.061-1.9063.851-1.9362 2.206-1.1199 6.721 2.4091 13.179.5973 19.648-1.1797 1.31-.6869 2.247-.6719 2.231 1.1498-3.763 2.1652-7.707 3.8228-12.09 4.2558-1.159.1145-2.811-.4579-3.144 1.2444-.262 1.314.872 2.2548 1.728 3.1657 5.441 5.7938 16.559 6.1472 24.262.1941 3.023-2.3544 5.36-2.9417 9.114-1.7372 5.113 1.6476 9.964.0747 13.768-3.9272-2.907 9.497-10.655 15.1365-21.214 15.042-3.204-.0299-5.109.5375-6.811 3.6684-4.076 7.4662-15.789 10.4179-23.94 6.1074-2.831-1.4933-4.63-1.7919-7.053.4977-2.615 2.4888-6.191 2.4888-9.194.9955-2.876-1.4484-4.222-.7665-6.332 1.3987-6.368 6.5155-13.95 9.6563-23.058 5.8187-2.182-.9159-3.688-.2987-5.542.6371-10.04 5.0369-19.647 4.2508-28.469-2.7376-2.362-1.8765-3.44-1.5331-5.113.657-13.239 17.2915-40.1713 17.2915-51.8489-.1294-1.0075-1.5331-2.5189-1.9562-4.1108-2.2996-5.6373-1.2344-9.9849-4.3155-12.8111-9.2034-1.4308-2.4887-2.3527-2.1951-4.4484-.672-8.0252 5.8386-15.7079 5.4753-23.1285-1.2095-2.0857-1.8765-3.7179-2.1652-6.2368-1.2244-5.3451 1.9909-10.18644.6371-13.6877-3.6436-3.501269-4.2806-3.158699-9.1586-.18136-13.5537 1.73804-2.5684 2.44333-4.5494-.31738-6.6599 8.41314 2.1951 8.68014 2.4141 12.84634 10.5324 3.864 7.531 17.2394 9.4572 23.0933 3.3051 2.0655-2.1702 2.1159-3.6436-1.3653-4.1911-3.0226-.4977-6.0453-1.1647-8.5642-3.1059 0-1.8168.9068-1.8417 2.2116-1.115 7.33 1.4634 14.6096 2.2498 21.7179-1.0602 1.2998-.7566 2.1965-.7267 2.1763 1.0901-6.1813 3.3299-6.7305 6.9685-1.6322 11.8563 3.7783 3.6087 8.529 5.0821 13.5114 3.9124 4.1259-.9955 5.6423.3832 6.3425 4.0666.3723 1.5653.9605 3.0726 1.7482 4.4797 3.5264 6.9685 10.2922 10.2337 16.8866 8.2079 6.5945-2.0258 10.7305-9.4572 9.7535-17.2271-1.063-8.4916-3.5267-16.3959-9.5721-22.8367.1159-1.6725.7708-2.1055 2.1411-.9109" fill="#a7eaff"/><path d="m118.874 29.2294c2.871-2.0208 3.123-3.8575-.559-5.082-10.388-3.4842-21.3153-1.8168-27.8997 8.9147-2.0151 3.2603-3.0227 4.8531-7.2494 2.4888-6.5793-3.7083-12.9169-2.1752-18.6852 3.6286-1.8237 1.8366-2.8362 2.5484-5.2745.6669-8.4232-6.5006-17.6323-7.6703-27.446-3.0711-3.476.3186-3.1234-2.4539-3.6977-4.4797 7.4408-7.1178 18.0605-7.7052 28.388-1.2494 2.5894 1.6227 4.0655 2.0956 6.8766-.0746 5.4811-4.2309 11.8539-4.1463 17.859-.7715 2.4483 1.3737 3.4861 1.1348 5.1284-1.1598 12.9421-18.0882 32.0205-25.10647 53.7135-19.67105 3.889.97065 6.478.42806 9.687-2.15526 13.779-11.09483 29.512-7.3119353 36.177 8.65591 1.395 3.3399 2.816 2.1701 4.765 1.4683 7.134.224 8 1.0752 6.615 6.5006-3.617.2937-7.29.4978-10.166 3.101-3.209 2.8919-4.59 1.8765-5.088-2.0258-.801-6.3314-4.031-10.5125-10.711-11.8415-6.584-1.3041-11.466 1.8815-12.091 8.5513-.256 2.7625-1.007 4.5744-4.12 4.3454-12.499-.9308-24.535 1.0502-36.212 5.4354-.569.1792-1.139.0349-1.209-.5425-.091-.7964.584-1.2345 1.199-1.6376" fill="#fdfdfd"/><path d="m226.678 28.1593c-1.587-.2987-3.235-.9955-4.751-.8014-2.927.3883-6.045 1.6426-6.715 4.5942-.736 3.2354 2.937 2.8372 4.801 3.8775.886.4978 2.161.4978 2.483 2.648-9.219-2.1702-18.302-3.6186-28.609.7367 2.373-3.7431 4.907-4.0965 7.108-4.9078 5.668-2.0906 6.091-4.0816 1.476-7.9092-1.229-.9955-2.725-1.7073-4.106-2.5485-1.854-6.5604 3.622-4.6988 6.65-5.6545 2.474 2.6182 4.852 2.8073 8.398 1.2345 11.154-4.9477 24.826 2.2199 21.834 15.1365-.169.0024-.338.0191-.504.0498-1.153.3235-.443-3.8277-2.609-1.0602-1.409-2.153-3.261-3.9882-5.436-5.3857" fill="#fdfdfd"/><path d="m28.0627 32.2806c2.1108.7815 2.4181 3.0214 3.6977 4.4798-2.9723 2.5883-6.2166 4.9277-8.3527 8.3124-.675 1.0652-1.5113 1.991-2.4131.7864-4.2216-5.5399-10.7557-4.1363-16.33249-5.5698 4.28716-2.9964 8.92189-3.1258 13.27459-.6072 2.9471 1.7122 3.9698.652 5.2645-1.7621 1.1688-2.1851 2.5995-4.3055 4.8615-5.6494" fill="#f5f9fa"/><path d="m232.124 33.5549c1.854-2.1105 2.297.0448 3.133.9955 4.111 1.991 9.098 1.4932 12.862 4.5842 1.803 1.4684 3.748 2.7377 4.922 4.8183-5.703-.8412-11.275-2.9069-17.215-1.3689-1.481.3883-1.984-.9407-2.211-2.3394-.368-2.2548-.983-4.4797-1.511-6.7047" fill="#f7fafb"/><path d="m223.434 58.298-2.232-1.1448 7.053-4.3802c-.433 3.982-2.972 4.3951-4.811 5.525" fill="#c4e2fc"/><path d="m31.8015 60.3985-2.1965 1.115c-1.7028-.8412-3.5567-1.4933-4.7456-3.9522 3.1234 0 5.0378 1.3589 6.9572 2.8372" fill="#bde1ff"/><path d="m163.66 54.0522-2.373-1.2195 7.244-4.8779c-1.38 3.6037-3.194 4.7983-4.871 6.0974z" fill="#bde1fd"/><path d="m55.6949 60.4284-2.1763-1.0901c1.6221-1.2593 3.1889-2.6431 5.6221-2.4589-.2317 2.205-2.1713 2.5634-3.4458 3.549z" fill="#bde1fc"/><path d="m201.56 58.3279-2.182 1.1199-4.252-2.2349c-.262-.9955.086-1.4236 1.144-1.1797z" fill="#bbddfb"/><path d="m94.8591 51.9915-2.1361.9109c-.7758-.5973-2.1914-1.4136-1.1939-2.2598 1.3602-1.1597 2.403.3733 3.33 1.3489z" fill="#d4ecfa"/><path d="m196.244 56.0332-1.143 1.1797c-.786-.5973-2.212-1.2742-1.25-2.2797.963-1.0054 1.718.3932 2.393 1.1z" fill="#c9e6f8"/></svg>