<svg width="76" height="70" viewBox="0 0 76 70" fill="none" xmlns="http://www.w3.org/2000/svg">
<g id="Vector">
<path d="M37.9955 51.0133C30.1087 51.0133 23.6926 44.5973 23.6926 36.7104V14.3029C23.6926 6.41601 30.1087 0 37.9955 0C45.8824 0 52.2984 6.41601 52.2984 14.3029V36.7104C52.2984 44.5973 45.8824 51.0133 37.9955 51.0133ZM37.9955 2.5082C31.4924 2.5082 26.2028 7.79779 26.2028 14.3009V36.7084C26.2028 43.2115 31.4924 48.5031 37.9955 48.5031C44.4986 48.5031 49.7882 43.2135 49.7882 36.7084V14.3009C49.7882 7.79779 44.4986 2.5082 37.9955 2.5082Z" fill="#111928"/>
<path d="M37.9955 56.584C27.2956 56.584 18.5278 48.1488 17.9913 37.5795C17.9754 37.4963 17.9655 37.4112 17.9655 37.3241V36.554C17.9655 35.8611 18.5278 35.2989 19.2206 35.2989C19.9135 35.2989 20.4757 35.8611 20.4757 36.554C20.4757 46.2146 28.3349 54.0738 37.9955 54.0738C47.6562 54.0738 55.5153 46.2146 55.5153 36.554C55.5153 35.8611 56.0775 35.2989 56.7704 35.2989C57.4633 35.2989 58.0255 35.8611 58.0255 36.554V37.3241C58.0255 37.4112 58.0156 37.4963 57.9998 37.5795C57.4653 48.1488 48.6975 56.584 37.9955 56.584Z" fill="#111928"/>
<path d="M37.9955 70C37.3027 70 36.7404 69.4378 36.7404 68.7449V55.3269C36.7404 54.634 37.3027 54.0718 37.9955 54.0718C38.6884 54.0718 39.2506 54.634 39.2506 55.3269V68.7449C39.2506 69.4378 38.6884 70 37.9955 70Z" fill="#111928"/>
<path d="M51.7698 70H24.2212C23.5283 70 22.9661 69.4378 22.9661 68.7449C22.9661 68.052 23.5283 67.4898 24.2212 67.4898H51.7698C52.4627 67.4898 53.0249 68.052 53.0249 68.7449C53.0249 69.4378 52.4627 70 51.7698 70Z" fill="#111928"/>
<path d="M41.9647 26.7607H34.0244C33.3315 26.7607 32.7693 26.1985 32.7693 25.5057C32.7693 24.8128 33.3315 24.2506 34.0244 24.2506H41.9647C42.6576 24.2506 43.2198 24.8128 43.2198 25.5057C43.2198 26.1985 42.6576 26.7607 41.9647 26.7607Z" fill="#111928"/>
<path d="M41.9647 33.157H34.0244C33.3315 33.157 32.7693 32.5947 32.7693 31.9019C32.7693 31.209 33.3315 30.6468 34.0244 30.6468H41.9647C42.6576 30.6468 43.2198 31.209 43.2198 31.9019C43.2198 32.5947 42.6576 33.157 41.9647 33.157Z" fill="#111928"/>
<path d="M41.9647 20.3645H34.0244C33.3315 20.3645 32.7693 19.8023 32.7693 19.1094C32.7693 18.4166 33.3315 17.8544 34.0244 17.8544H41.9647C42.6576 17.8544 43.2198 18.4166 43.2198 19.1094C43.2198 19.8023 42.6576 20.3645 41.9647 20.3645Z" fill="#111928"/>
<path d="M64.006 34.1369C63.6853 34.1369 63.3646 34.0141 63.1191 33.7687C62.6282 33.2777 62.6282 32.4859 63.1191 31.9949C67.4882 27.6258 67.4882 20.5189 63.1191 16.1499C62.6282 15.6609 62.6282 14.8651 63.1191 14.3761C63.6101 13.8852 64.4019 13.8852 64.8929 14.3761C70.2399 19.7231 70.2399 28.4217 64.8929 33.7687C64.6474 34.0141 64.3267 34.1369 64.006 34.1369Z" fill="#111928"/>
<path d="M59.5538 29.6847C59.2331 29.6847 58.9124 29.5619 58.6669 29.3165C58.176 28.8255 58.176 28.0337 58.6669 27.5427C60.5792 25.6284 60.5792 22.5164 58.6669 20.6021C58.176 20.1111 58.176 19.3193 58.6669 18.8283C59.1579 18.3374 59.9517 18.3374 60.4407 18.8283C63.3329 21.7206 63.3329 26.4242 60.4407 29.3165C60.1952 29.5619 59.8745 29.6847 59.5538 29.6847Z" fill="#111928"/>
<path d="M68.3929 38.5238C68.0722 38.5238 67.7515 38.401 67.506 38.1555C67.015 37.6646 67.015 36.8727 67.506 36.3818C70.7942 33.0936 72.6055 28.7226 72.6055 24.0724C72.6055 19.4222 70.7942 15.0512 67.506 11.763C67.015 11.274 67.015 10.4782 67.506 9.98925C67.995 9.4983 68.7888 9.4983 69.2798 9.98925C73.0411 13.7506 75.1137 18.7511 75.1137 24.0724C75.1137 29.3937 73.043 34.3942 69.2798 38.1555C69.0343 38.401 68.7136 38.5238 68.3929 38.5238Z" fill="#111928"/>
<path d="M11.9851 34.1369C11.6644 34.1369 11.3437 34.0141 11.0982 33.7687C5.75118 28.4217 5.75118 19.7231 11.0982 14.3761C11.5891 13.8852 12.381 13.8852 12.8719 14.3761C13.3629 14.8651 13.3629 15.6609 12.8719 16.1499C8.50288 20.5189 8.50288 27.6258 12.8719 31.9949C13.3629 32.4859 13.3629 33.2777 12.8719 33.7687C12.6265 34.0141 12.3058 34.1369 11.9851 34.1369Z" fill="#111928"/>
<path d="M16.4373 29.6847C16.1166 29.6847 15.7959 29.5619 15.5504 29.3165C12.6581 26.4242 12.6581 21.7206 15.5504 18.8283C16.0394 18.3374 16.8332 18.3374 17.3241 18.8283C17.8151 19.3193 17.8151 20.1111 17.3241 20.6021C15.4118 22.5164 15.4118 25.6284 17.3241 27.5427C17.8151 28.0337 17.8151 28.8255 17.3241 29.3165C17.0787 29.5619 16.758 29.6847 16.4373 29.6847Z" fill="#111928"/>
<path d="M7.59819 38.5238C7.27748 38.5238 6.95678 38.401 6.71131 38.1555C-1.05481 30.3894 -1.05481 17.7554 6.71131 9.98925C7.20226 9.4983 7.99411 9.4983 8.48506 9.98925C8.97601 10.4782 8.97601 11.274 8.48506 11.763C1.69886 18.5512 1.69886 29.5936 8.48506 36.3818C8.97601 36.8727 8.97601 37.6646 8.48506 38.1555C8.23959 38.401 7.91889 38.5238 7.59819 38.5238Z" fill="#111928"/>
</g>
</svg>
