<svg width="88" height="70" viewBox="0 0 88 70" fill="none" xmlns="http://www.w3.org/2000/svg">
<g id="Layer_1" clip-path="url(#clip0_85_1166)">
<path id="Vector" d="M33.3456 70.0001C32.7877 70.0001 32.3374 69.5498 32.3374 68.992V21.7193C32.3374 19.414 30.4622 17.5388 28.1569 17.5388H10.9341C8.62881 17.5388 6.75363 19.414 6.75363 21.7193V68.992C6.75363 69.5498 6.30332 70.0001 5.74547 70.0001C5.18762 70.0001 4.7373 69.5498 4.7373 68.992V21.7193C4.7373 18.3016 7.51647 15.5225 10.9341 15.5225H28.1569C31.5746 15.5225 34.3537 18.3016 34.3537 21.7193V68.992C34.3537 69.5498 33.9034 70.0001 33.3456 70.0001Z" fill="black"/>
<path id="Vector_2" d="M49.4056 70.0002C48.8477 70.0002 48.3974 69.5498 48.3974 68.992V14.1077L25.8112 7.00351V12.1317C25.8112 12.6895 25.3609 13.1399 24.8031 13.1399C24.2452 13.1399 23.7949 12.6895 23.7949 12.1317V5.62905C23.7949 5.30644 23.9495 5.00735 24.2083 4.8158C24.467 4.62761 24.7997 4.57048 25.1055 4.66794L49.708 12.4039C50.1281 12.535 50.4137 12.9248 50.4137 13.365V68.9886C50.4137 69.5465 49.9634 69.9968 49.4056 69.9968V70.0002Z" fill="black"/>
<path id="Vector_3" d="M8.56822 17.5388C8.01037 17.5388 7.56006 17.0885 7.56006 16.5306V8.55943C7.56006 8.00158 8.01037 7.55127 8.56822 7.55127H19.5471C20.1049 7.55127 20.5553 8.00158 20.5553 8.55943C20.5553 9.11728 20.1049 9.56759 19.5471 9.56759H9.57638V16.5306C9.57638 17.0885 9.12607 17.5388 8.56822 17.5388Z" fill="black"/>
<path id="Vector_4" d="M40.8128 31.7942C40.255 31.7942 39.8047 31.3439 39.8047 30.7861V24.5052C39.8047 23.9474 40.255 23.4971 40.8128 23.4971H49.4057C49.9636 23.4971 50.4139 23.9474 50.4139 24.5052C50.4139 25.0631 49.9636 25.5134 49.4057 25.5134H41.821V30.7861C41.821 31.3439 41.3707 31.7942 40.8128 31.7942Z" fill="black"/>
<path id="Vector_5" d="M39.7845 48.7683C39.2267 48.7683 38.7764 48.318 38.7764 47.7602V40.7635C38.7764 40.2057 39.2267 39.7554 39.7845 39.7554H48.3774C48.9353 39.7554 49.3856 40.2057 49.3856 40.7635C49.3856 41.3214 48.9353 41.7717 48.3774 41.7717H40.7927V47.7602C40.7927 48.318 40.3424 48.7683 39.7845 48.7683Z" fill="black"/>
<path id="Vector_6" d="M47.6885 61.9749H39.0956C38.447 61.9749 37.9194 61.4473 37.9194 60.7987C37.9194 60.1502 38.447 59.6226 39.0956 59.6226H47.6885C48.3371 59.6226 48.8647 60.1502 48.8647 60.7987C48.8647 61.4473 48.3371 61.9749 47.6885 61.9749Z" fill="black"/>
<path id="Vector_7" d="M85.4641 70.0002H1.43052C0.872675 70.0002 0.422363 69.5499 0.422363 68.992C0.422363 68.4342 0.872675 67.9839 1.43052 67.9839H85.4641C86.022 67.9839 86.4723 68.4342 86.4723 68.992C86.4723 69.5499 86.022 70.0002 85.4641 70.0002Z" fill="black"/>
<g id="Group">
<path id="Vector_8" d="M65.0689 8.08199V12.9514C65.0689 13.5832 65.583 14.0974 66.2148 14.0974C66.8466 14.0974 67.3608 13.5832 67.3608 12.9514V8.08872C69.1082 7.60144 70.3483 5.9783 70.3483 4.12664C70.3483 2.90341 69.814 1.75746 68.8764 0.974457C67.9085 0.167928 66.6214 -0.161404 65.331 0.0738333C63.7079 0.399805 62.404 1.76754 62.1587 3.40077C61.7991 5.49438 63.0626 7.50062 65.0689 8.08199ZM64.9949 2.90677C65.4116 2.49006 65.993 2.30523 66.6282 2.41613C67.2801 2.52367 67.8312 3.08151 67.9925 3.78387C68.1001 4.39885 67.922 4.99366 67.5019 5.41373C67.0818 5.8338 66.487 6.0119 65.862 5.90437C65.1899 5.80019 64.6186 5.22554 64.5043 4.53663C64.3968 3.92165 64.5749 3.32683 64.9949 2.90677Z" fill="black"/>
<path id="Vector_9" d="M86.6369 41.9226C85.8371 40.9682 84.6811 40.4373 83.431 40.4843C81.6163 40.4843 80.0268 41.7008 79.4857 43.4718H74.8247C74.1929 43.4718 73.6787 43.986 73.6787 44.6178C73.6787 45.1992 74.203 45.6898 74.8247 45.6898H79.4824C80.01 47.444 81.6398 48.6437 83.5419 48.6437C83.7435 48.6437 83.9452 48.6303 84.1501 48.6C85.7901 48.3547 87.1612 47.0475 87.4872 45.431C87.756 44.1675 87.4468 42.8871 86.6369 41.9193V41.9226ZM84.6509 45.7637C84.2543 46.1603 83.7032 46.3417 83.1218 46.2712L83.1017 46.251H82.9908C82.3153 46.1267 81.7541 45.5587 81.6499 44.8866C81.5424 44.2717 81.7205 43.6768 82.1405 43.2568C82.5606 42.8367 83.1319 42.6552 83.7805 42.7661C84.4526 42.8703 85.0239 43.445 85.1381 44.1339C85.2457 44.7489 85.0676 45.3437 84.6475 45.7637H84.6509Z" fill="black"/>
<path id="Vector_10" d="M78.0945 33.3095H81.865C82.8261 33.3095 83.5789 32.5567 83.5789 31.5956V17.1991C85.3667 16.7084 86.6403 15.0819 86.6403 13.237C86.6403 12.0138 86.106 10.8678 85.1684 10.0848C84.2006 9.27828 82.9135 8.94895 81.623 9.18418C79.9999 9.51016 78.696 10.8779 78.4507 12.5111C78.0911 14.5879 79.358 16.5942 81.3609 17.189V30.8832C81.3609 31.031 81.2299 31.1621 81.082 31.1621H78.0945C77.4224 31.1621 77.0225 31.7065 77.0225 32.2341C77.0225 32.9062 77.5669 33.3061 78.0945 33.3061V33.3095ZM81.2164 12.0171C81.6331 11.6004 82.2078 11.4156 82.8564 11.5265C83.5587 11.634 84.1065 12.1818 84.214 12.8942C84.3215 13.5092 84.1434 14.104 83.7234 14.5241C83.3033 14.9441 82.7085 15.1223 82.0834 15.0147C81.418 14.9139 80.8535 14.3527 80.7291 13.6772V13.6033L80.7123 13.5798C80.6283 12.9883 80.8098 12.4204 81.2131 12.0171H81.2164Z" fill="black"/>
<path id="Vector_11" d="M56.0358 53.0931C57.2221 53.0931 58.2437 52.2563 58.526 51.0398L59.0368 48.1766C59.0737 48.1699 59.1073 48.1598 59.1443 48.1497C60.0315 47.8742 60.9052 47.518 61.8159 47.0643L61.8294 47.0576L64.2994 48.8118C64.8471 49.1781 65.4789 49.3326 66.0838 49.2453C66.6349 49.1545 67.1491 48.8823 67.5658 48.4656L70.056 45.9755C70.9297 45.1017 71.0406 43.7508 70.3248 42.7662L68.6479 40.3802C69.1016 39.5972 69.4746 38.7167 69.8241 37.5909L72.7612 37.0801C73.9811 36.9054 74.8313 35.8804 74.8313 34.59V30.9606C74.8313 29.7743 73.9979 28.7527 72.778 28.4704L69.9148 27.9596C69.9081 27.926 69.898 27.8891 69.8879 27.8554C69.5788 26.8607 69.2125 25.9366 68.7991 25.1099L68.7924 25.0964L70.5365 22.6433C71.2557 21.6519 71.1448 20.301 70.271 19.4272L67.7103 16.8665C67.2466 16.4027 66.6148 16.1507 65.9292 16.1507C65.4083 16.1507 64.8707 16.3221 64.4943 16.6044L62.1083 18.3451C61.3387 17.8982 60.4314 17.5151 59.3258 17.1757L58.815 14.2385C58.6402 13.0187 57.6153 12.1685 56.3214 12.1685H54.2514C53.6196 12.1685 53.1054 12.6826 53.1054 13.3144C53.1054 13.9462 53.6196 14.4603 54.2514 14.4603H56.2509C56.3719 14.4603 56.5164 14.578 56.5365 14.6855L57.1817 18.3384L57.1952 18.3855C57.3296 18.7921 57.6052 19.0912 57.9647 19.2088C59.3325 19.5885 60.5221 20.0892 61.5 20.6975C61.7118 20.8655 61.9705 20.8655 62.0848 20.8655C62.3637 20.8655 62.6157 20.7412 62.7569 20.6135L65.61 18.5232C65.6772 18.4896 65.7578 18.4493 65.7847 18.4459C65.8553 18.4459 65.8889 18.4661 65.9864 18.5232C66.0065 18.5367 66.0267 18.5468 66.0468 18.5602L68.5572 21.0739C68.6714 21.1881 68.6311 21.3427 68.574 21.42L66.4299 24.421C66.1745 24.8041 66.1745 25.2376 66.4098 25.5871C67.1222 26.854 67.6095 28.0571 67.8548 29.1661L67.8649 29.1997C67.9691 29.5156 68.2379 29.8146 68.5504 29.9625C68.658 30.0129 68.7588 30.0331 68.8394 30.0465L72.3008 30.601C72.4487 30.6313 72.536 30.7354 72.536 30.89V34.5194C72.536 34.6404 72.4184 34.7849 72.3109 34.805L68.658 35.4503L68.6109 35.4637C68.2043 35.5981 67.9052 35.8737 67.7876 36.2333C67.4045 37.6145 66.8971 38.8142 66.2888 39.7887C66.0233 40.1886 66.0368 40.7229 66.3123 41.022L68.4395 43.9995C68.4967 44.0768 68.4631 44.2515 68.3959 44.3591L65.8553 46.8996C65.8251 46.9299 65.7444 46.9668 65.6469 46.9668C65.6167 46.9635 65.5461 46.9299 65.4856 46.8996L62.5586 44.8127C62.4141 44.6783 62.1654 44.5439 61.8697 44.5439C61.7017 44.5439 61.4933 44.5439 61.2917 44.7052C60.2062 45.3101 59.0368 45.7906 57.7967 46.1334C57.4304 46.2544 57.0406 46.6173 57.0272 47.0542L56.466 50.5693C56.4357 50.7205 56.3315 50.8046 56.1769 50.8046H54.248C53.6162 50.8046 53.1021 51.3187 53.1021 51.9505C53.1021 52.5823 53.6162 53.0964 54.248 53.0964H56.0324L56.0358 53.0931Z" fill="black"/>
<path id="Vector_12" d="M74.2534 57.5624C72.4085 57.5624 70.782 58.8326 70.2913 60.6238H56.0359C55.8881 60.6238 55.757 60.4928 55.757 60.3449V57.4985C55.757 56.9373 55.2529 56.4971 54.6111 56.4971C53.9692 56.4971 53.5391 57.0415 53.5391 57.5691V60.7717C53.5391 61.8941 54.4867 62.8418 55.6092 62.8418H70.3014C70.829 64.596 72.4589 65.7957 74.361 65.7957C74.5592 65.7957 74.7642 65.7822 74.9692 65.752C76.6092 65.5067 77.9803 64.1994 78.3062 62.583C78.5717 61.3396 78.2726 60.0693 77.4863 59.0981C76.6965 58.1202 75.517 57.5624 74.2568 57.5624H74.2534ZM75.4699 62.9123C75.0734 63.3089 74.5223 63.4904 73.9409 63.4198L73.9207 63.3996H73.8098C73.168 63.282 72.6303 62.7275 72.469 62.0352C72.3614 61.4203 72.5395 60.8254 72.9596 60.4054C73.3763 59.9887 73.951 59.8038 74.5996 59.9147C75.2717 60.0189 75.843 60.5936 75.9572 61.2825C76.0648 61.8975 75.8866 62.4923 75.4666 62.9123H75.4699Z" fill="black"/>
<path id="Vector_13" d="M54.342 39.157C54.3084 39.157 54.2748 39.157 54.2379 39.157H54.2177C53.9085 39.1704 53.6296 39.2847 53.4313 39.4829C53.2196 39.6913 53.102 39.9736 53.102 40.2727C53.102 40.8809 53.596 41.3816 54.2042 41.3917H54.3555C54.8461 41.3917 55.3435 41.3514 55.8308 41.2741C59.4534 40.6692 62.404 37.7187 63.0055 34.096C63.4289 31.4815 62.6997 28.8468 60.9993 26.8675C59.2955 24.8848 56.8187 23.7623 54.211 23.7926C53.5994 23.7993 53.0986 24.3 53.0986 24.9116C53.0986 25.2141 53.2163 25.4964 53.4313 25.7047C53.6397 25.9097 53.9253 26.024 54.2412 26.0273C54.6411 26.0206 55.0477 26.0475 55.4443 26.1114C58.1361 26.5718 60.3372 28.7729 60.7943 31.458C61.1102 33.4071 60.5624 35.373 59.2921 36.8516C58.0319 38.3168 56.2307 39.1536 54.3319 39.1536L54.342 39.157Z" fill="black"/>
</g>
<path id="Vector_14" d="M14.9364 33.5383H13.5216C11.7607 33.5383 10.3291 32.1067 10.3291 30.3458V27.5128C10.3291 25.7519 11.7607 24.3203 13.5216 24.3203H14.9364C16.6973 24.3203 18.1289 25.7519 18.1289 27.5128V30.3458C18.1289 32.1067 16.6973 33.5383 14.9364 33.5383ZM13.5216 26.6727C13.0579 26.6727 12.6815 27.0491 12.6815 27.5128V30.3458C12.6815 30.8095 13.0579 31.1859 13.5216 31.1859H14.9364C15.4002 31.1859 15.7765 30.8095 15.7765 30.3458V27.5128C15.7765 27.0491 15.4002 26.6727 14.9364 26.6727H13.5216Z" fill="black"/>
<path id="Vector_15" d="M14.9364 47.1013H13.5216C11.7607 47.1013 10.3291 45.6697 10.3291 43.9088V41.0792C10.3291 39.3183 11.7607 37.8867 13.5216 37.8867H14.9364C16.6973 37.8867 18.1289 39.3183 18.1289 41.0792V43.9088C18.1289 45.6697 16.6973 47.1013 14.9364 47.1013ZM13.5216 40.2391C13.0579 40.2391 12.6815 40.6155 12.6815 41.0792V43.9088C12.6815 44.3726 13.0579 44.7489 13.5216 44.7489H14.9364C15.4002 44.7489 15.7765 44.3726 15.7765 43.9088V41.0792C15.7765 40.6155 15.4002 40.2391 14.9364 40.2391H13.5216Z" fill="black"/>
<path id="Vector_16" d="M14.9364 60.6642H13.5216C11.7607 60.6642 10.3291 59.2327 10.3291 57.4717V54.6388C10.3291 52.8779 11.7607 51.4463 13.5216 51.4463H14.9364C16.6973 51.4463 18.1289 52.8779 18.1289 54.6388V57.4717C18.1289 59.2327 16.6973 60.6642 14.9364 60.6642ZM13.5216 53.7987C13.0579 53.7987 12.6815 54.175 12.6815 54.6388V57.4717C12.6815 57.9355 13.0579 58.3119 13.5216 58.3119H14.9364C15.4002 58.3119 15.7765 57.9355 15.7765 57.4717V54.6388C15.7765 54.175 15.4002 53.7987 14.9364 53.7987H13.5216Z" fill="black"/>
<path id="Vector_17" d="M25.6903 33.5383H24.2755C22.5146 33.5383 21.083 32.1067 21.083 30.3458V27.5128C21.083 25.7519 22.5146 24.3203 24.2755 24.3203H25.6903C27.4512 24.3203 28.8828 25.7519 28.8828 27.5128V30.3458C28.8828 32.1067 27.4512 33.5383 25.6903 33.5383ZM24.2755 26.6727C23.8118 26.6727 23.4354 27.0491 23.4354 27.5128V30.3458C23.4354 30.8095 23.8118 31.1859 24.2755 31.1859H25.6903C26.1541 31.1859 26.5304 30.8095 26.5304 30.3458V27.5128C26.5304 27.0491 26.1541 26.6727 25.6903 26.6727H24.2755Z" fill="black"/>
<path id="Vector_18" d="M25.6903 47.1013H24.2755C22.5146 47.1013 21.083 45.6697 21.083 43.9088V41.0792C21.083 39.3183 22.5146 37.8867 24.2755 37.8867H25.6903C27.4512 37.8867 28.8828 39.3183 28.8828 41.0792V43.9088C28.8828 45.6697 27.4512 47.1013 25.6903 47.1013ZM24.2755 40.2391C23.8118 40.2391 23.4354 40.6155 23.4354 41.0792V43.9088C23.4354 44.3726 23.8118 44.7489 24.2755 44.7489H25.6903C26.1541 44.7489 26.5304 44.3726 26.5304 43.9088V41.0792C26.5304 40.6155 26.1541 40.2391 25.6903 40.2391H24.2755Z" fill="black"/>
<path id="Vector_19" d="M25.6903 60.6642H24.2755C22.5146 60.6642 21.083 59.2327 21.083 57.4717V54.6388C21.083 52.8779 22.5146 51.4463 24.2755 51.4463H25.6903C27.4512 51.4463 28.8828 52.8779 28.8828 54.6388V57.4717C28.8828 59.2327 27.4512 60.6642 25.6903 60.6642ZM24.2755 53.7987C23.8118 53.7987 23.4354 54.175 23.4354 54.6388V57.4717C23.4354 57.9355 23.8118 58.3119 24.2755 58.3119H25.6903C26.1541 58.3119 26.5304 57.9355 26.5304 57.4717V54.6388C26.5304 54.175 26.1541 53.7987 25.6903 53.7987H24.2755Z" fill="black"/>
</g>
<defs>
<clipPath id="clip0_85_1166">
<rect width="87.1555" height="70" fill="white" transform="translate(0.422363)"/>
</clipPath>
</defs>
</svg>
