<svg width="76" height="70" viewBox="0 0 76 70" fill="none" xmlns="http://www.w3.org/2000/svg">
<g id="Layer_1" clip-path="url(#clip0_5_10441)">
<path id="Vector" d="M75.069 39.6754L72.9944 36.4609L64.5897 23.5195C63.769 22.1061 62.7925 21.5779 60.9953 21.5779H46.667L40.827 14.4575L39.0526 12.2575V8.78087H47.3395C47.993 8.78087 48.525 8.24893 48.525 7.5954V2.35575C48.525 1.70222 47.993 1.17028 47.3395 1.17028H39.0526V0.957499C39.0526 0.429355 38.5852 0 38.0077 0C37.4301 0 36.9628 0.429355 36.9628 0.957499V12.1055L35.063 14.4613L31.1798 19.188L29.204 21.5855H14.2412C14.188 21.5855 14.1348 21.5855 14.0816 21.5931C13.1811 21.7375 12.3642 22.2011 11.6537 22.9648C11.6157 23.0066 11.5815 23.0522 11.5511 23.0978L2.90318 36.4609L0.919794 39.6944C0.748812 39.9718 0.741213 40.3213 0.900796 40.6063C1.06038 40.8913 1.36055 41.0699 1.68731 41.0699H4.79538L4.78779 68.1002H2.44723C1.86589 68.1002 1.39474 68.5258 1.39474 69.0501C1.39474 69.5744 1.86589 70 2.44723 70H73.2908C73.8721 70 74.3432 69.5744 74.3432 69.0501C74.3432 68.5258 73.8721 68.1002 73.2908 68.1002H71.0946L71.1022 41.0585L74.3052 41.0661C74.6358 41.0661 74.9398 40.8875 75.0994 40.5949C75.2589 40.3061 75.2437 39.9528 75.0652 39.6754H75.069ZM39.0526 3.54123H45.8804C46.0324 3.54123 46.154 3.66281 46.154 3.8148V6.13635C46.154 6.28834 46.0324 6.40992 45.8804 6.40992H39.0526V3.54123ZM30.4047 23.8501C30.4275 23.8311 30.4503 23.8083 30.4731 23.7855L35.8001 17.3072L37.9355 14.7158L45.2193 23.5537L45.4093 23.7855C45.4093 23.7855 45.4207 23.8007 45.4283 23.8045L57.7124 38.7103L18.151 38.6951L30.4047 23.8463V23.8501ZM4.29764 38.6951L4.92077 37.7072L13.4737 24.496C13.77 24.1958 14.0626 24.0211 14.3742 23.9489H21.4718H27.2776L15.1037 38.6989H6.70278H4.29384L4.29764 38.6951ZM43.5741 68.0964H32.3273V52.3623C32.3273 52.2103 32.4489 52.0887 32.6008 52.0887H43.2967C43.4487 52.0887 43.5703 52.2103 43.5703 52.3623V68.0964H43.5741ZM45.945 68.0964V50.9032C45.945 50.2497 45.4131 49.7178 44.7596 49.7178H31.1418C30.4883 49.7178 29.9563 50.2497 29.9563 50.9032V68.0964H7.15874V41.0547L68.7426 41.0623L68.735 68.0926H45.9412L45.945 68.0964ZM69.9661 38.6951H60.7711L48.6048 23.9337L60.9953 23.9489C61.9072 23.9489 62.1389 24.0135 62.5455 24.7126L62.5645 24.7468C62.5645 24.7468 62.5721 24.762 62.5759 24.7658L71.0072 37.7452L71.6265 38.7065L69.9661 38.6913V38.6951Z" fill="#111928"/>
<path id="Vector_2" d="M37.9469 35.591C39.5579 35.591 41.0739 34.964 42.2138 33.8241C43.3537 32.6843 43.9806 31.1682 43.9806 29.5572C43.9806 27.9462 43.3537 26.4301 42.2138 25.2902C41.0739 24.1504 39.5579 23.5234 37.9469 23.5234C36.3358 23.5234 34.8198 24.1504 33.6799 25.2902C32.54 26.4301 31.9131 27.9462 31.9131 29.5572C31.9131 31.1682 32.54 32.6843 33.6799 33.8241C34.8198 34.964 36.3358 35.591 37.9469 35.591ZM35.0326 26.6429C35.8115 25.864 36.845 25.4346 37.9469 25.4346C39.0487 25.4346 40.0822 25.864 40.8611 26.6429C41.6401 27.4218 42.0694 28.4553 42.0694 29.5572C42.0694 30.6591 41.6401 31.6926 40.8611 32.4715C40.0822 33.2504 39.0487 33.6798 37.9469 33.6798C36.845 33.6798 35.8115 33.2504 35.0326 32.4715C34.2536 31.6926 33.8243 30.6591 33.8243 29.5572C33.8243 28.4553 34.2536 27.4218 35.0326 26.6429Z" fill="#111928"/>
<path id="Vector_3" d="M61.1433 45.6144C60.8279 45.3028 60.4176 45.1318 59.9844 45.1318H55.9531C55.5199 45.1318 55.1095 45.3028 54.798 45.6106C54.4864 45.926 54.3154 46.3363 54.3154 46.7695V51.7925C54.3154 52.2257 54.4864 52.636 54.7942 52.9476C55.1095 53.2592 55.5199 53.4302 55.9531 53.4302H59.9844C60.4176 53.4302 60.8279 53.2592 61.1395 52.9514C61.4511 52.636 61.6221 52.2257 61.6221 51.7925V46.7695C61.6221 46.3363 61.4511 45.926 61.1433 45.6144ZM56.6864 47.5028H59.2511V51.063H56.6864V47.5028ZM60.8203 52.6284C60.8735 52.5752 60.9229 52.5145 60.9647 52.4537C60.9229 52.5183 60.8735 52.5752 60.8203 52.6284Z" fill="#111928"/>
<path id="Vector_4" d="M59.9844 56.8457H55.9531C55.5199 56.8457 55.1095 57.0167 54.798 57.3245C54.4864 57.6398 54.3154 58.0502 54.3154 58.4833V63.5064C54.3154 63.9396 54.4864 64.3499 54.7942 64.6615C55.1095 64.973 55.5199 65.144 55.9531 65.144H59.9844C60.4176 65.144 60.8279 64.973 61.1395 64.6653C61.4511 64.3499 61.6221 63.9396 61.6221 63.5064V58.4833C61.6221 58.0464 61.4511 57.636 61.1433 57.3283C60.8279 57.0167 60.4176 56.8457 59.9844 56.8457ZM59.2511 62.7769H56.6864V59.2167H59.2511V62.7769Z" fill="#111928"/>
<path id="Vector_5" d="M19.9405 56.8457H15.9091C15.476 56.8457 15.0656 57.0167 14.754 57.3245C14.4425 57.6398 14.2715 58.0502 14.2715 58.4833V63.5064C14.2715 63.9396 14.4425 64.3499 14.7502 64.6615C15.0656 64.973 15.476 65.144 15.9091 65.144H19.9405C20.3736 65.144 20.784 64.973 21.0956 64.6653C21.4071 64.3499 21.5781 63.9396 21.5781 63.5064V58.4833C21.5781 58.0502 21.4071 57.6398 21.0994 57.3283C20.784 57.0167 20.3736 56.8457 19.9405 56.8457ZM19.2072 62.7769H16.6424V59.2167H19.2072V62.7769Z" fill="#111928"/>
<path id="Vector_6" d="M19.9405 45.1279H15.9091C15.4722 45.1279 15.0618 45.2989 14.754 45.6067C14.4425 45.9182 14.2715 46.3286 14.2715 46.7656V51.7886C14.2715 52.2218 14.4425 52.6321 14.7502 52.9437C15.0656 53.2553 15.476 53.4263 15.9091 53.4263H19.9405C20.3736 53.4263 20.784 53.2553 21.0956 52.9475C21.4071 52.6321 21.5781 52.2218 21.5781 51.7886V46.7656C21.5781 46.3324 21.4071 45.922 21.0994 45.6105C20.784 45.2989 20.3736 45.1279 19.9405 45.1279ZM16.6424 47.4989H19.2072V51.0591H16.6424V47.4989Z" fill="#111928"/>
<path id="Vector_7" d="M37.3994 30.9704H40.3821C40.9102 30.9704 41.1838 30.4803 41.1838 29.9977C41.1838 29.7621 41.1192 29.5418 41.0014 29.3746C40.857 29.1694 40.6366 29.0554 40.3821 29.0554H38.5165V27.1822C38.5165 26.9315 38.4025 26.7111 38.1897 26.5667C37.6767 26.2095 36.5977 26.3957 36.5977 27.1822V30.1231C36.5977 30.5335 36.8788 30.9704 37.3956 30.9704H37.3994Z" fill="#111928"/>
</g>
<defs>
<clipPath id="clip0_5_10441">
<rect width="74.4265" height="70" fill="white" transform="translate(0.786621)"/>
</clipPath>
</defs>
</svg>
