<svg width="80" height="70" viewBox="0 0 80 70" fill="none" xmlns="http://www.w3.org/2000/svg">
<g id="Vector">
<path fill-rule="evenodd" clip-rule="evenodd" d="M0.837402 5.62286C0.837402 2.52154 3.35895 0 6.46026 0H73.5404C76.6419 0 79.163 2.52163 79.163 5.62286V51.9371C79.163 55.0385 76.6413 57.56 73.54 57.56H51.5714V59.8937C51.5714 62.4041 53.6154 64.4481 56.1257 64.4481H61.1917C62.7246 64.4481 63.9676 65.6908 63.9676 67.2241C63.9676 68.7572 62.7246 70 61.1917 70H18.8087C17.2757 70 16.0328 68.7572 16.0328 67.2241C16.0328 65.6908 17.2758 64.4481 18.8087 64.4481H23.8745C26.3848 64.4481 28.4288 62.4041 28.4288 59.8937V57.5599H6.46026C3.35894 57.5599 0.837402 55.0383 0.837402 51.937V5.62286ZM6.46026 2.03443C4.48254 2.03443 2.87183 3.64513 2.87183 5.62286V51.937C2.87183 53.9147 4.48255 55.5254 6.46026 55.5254H30.4633V59.8937C30.4633 63.5276 27.5084 66.4825 23.8745 66.4825H18.8087C18.3992 66.4825 18.0672 66.8145 18.0672 67.2241C18.0672 67.6335 18.3993 67.9656 18.8087 67.9656H61.1917C61.6011 67.9656 61.9332 67.6335 61.9332 67.2241C61.9332 66.8145 61.6012 66.4825 61.1917 66.4825H56.1257C52.4918 66.4825 49.5369 63.5276 49.5369 59.8937V55.5255H73.54C75.5178 55.5255 77.1286 53.9148 77.1286 51.9371V5.62286C77.1286 3.64504 75.5181 2.03443 73.5404 2.03443H6.46026ZM41.8632 18.892C42.4082 19.0282 42.7396 19.5805 42.6033 20.1255L37.5056 40.5163C37.3694 41.0613 36.8171 41.3926 36.2721 41.2564C35.727 41.1201 35.3957 40.5678 35.5319 40.0228L40.6296 19.6321C40.7659 19.0871 41.3181 18.7557 41.8632 18.892ZM30.8883 20.4138C31.2963 20.7999 31.3141 21.4438 30.928 21.8518L23.9006 29.2781L30.928 36.7045C31.3141 37.1125 31.2963 37.7564 30.8883 38.1425C30.4802 38.5286 29.8364 38.5108 29.4502 38.1028L21.7613 29.9773C21.3901 29.585 21.3901 28.9712 21.7613 28.5789L29.4503 20.4535C29.8364 20.0454 30.4802 20.0277 30.8883 20.4138ZM47.2894 20.4138C47.6975 20.0277 48.3413 20.0454 48.7274 20.4535L56.4164 28.5789C56.7875 28.9712 56.7875 29.585 56.4164 29.9773L48.7274 38.1028C48.3413 38.5108 47.6975 38.5286 47.2894 38.1425C46.8813 37.7564 46.8636 37.1125 47.2497 36.7045L54.2771 29.2781L47.2497 21.8518C46.8636 21.4438 46.8813 20.7999 47.2894 20.4138ZM31.9466 55.5257H48.0543V59.8941C48.0543 61.7567 48.6898 63.4718 49.7555 64.8408L51.0339 66.4828H28.9672L30.2453 64.8408C31.3111 63.4716 31.9466 61.7567 31.9466 59.8941V55.5257ZM33.981 57.5602V59.8941C33.981 61.532 33.5879 63.0796 32.8933 64.4484H47.1075C46.4129 63.0796 46.0199 61.5319 46.0199 59.8941V57.5602H33.981Z" fill="#111928"/>
<path fill-rule="evenodd" clip-rule="evenodd" d="M66.7021 7.66227H12.0268C10.2712 7.66227 8.84797 9.08547 8.84797 10.8411V46.4436C8.84797 48.1992 10.2712 49.6224 12.0268 49.6224H66.7021C68.4577 49.6224 69.8809 48.1992 69.8809 46.4436V10.8411C69.8809 9.08547 68.4577 7.66227 66.7021 7.66227ZM12.0268 5.75499C9.21781 5.75499 6.9407 8.0321 6.9407 10.8411V46.4436C6.9407 49.2526 9.21781 51.5297 12.0268 51.5297H66.7021C69.5111 51.5297 71.7882 49.2526 71.7882 46.4436V10.8411C71.7882 8.0321 69.5111 5.75499 66.7021 5.75499H12.0268Z" fill="#111928"/>
</g>
</svg>
