<svg width="62" height="56" viewBox="0 0 62 56" fill="none" xmlns="http://www.w3.org/2000/svg">
<g id="Vector">
<path fill-rule="evenodd" clip-rule="evenodd" d="M0 4.48051C0 2.04145 1.9831 0.0583496 4.42216 0.0583496H57.178C59.6172 0.0583496 61.6 2.04151 61.6 4.48051V40.9048C61.6 43.344 59.6168 45.327 57.1777 45.327H39.9003V47.1624C39.9003 49.1367 41.5078 50.7443 43.4821 50.7443H47.4663C48.6718 50.7443 49.6494 51.7216 49.6494 52.9274C49.6494 54.1332 48.6719 55.1106 47.4663 55.1106H14.1337C12.9281 55.1106 11.9506 54.1332 11.9506 52.9274C11.9506 51.7216 12.9281 50.7443 14.1337 50.7443H18.1178C20.092 50.7443 21.6996 49.1367 21.6996 47.1624V45.3269H4.42216C1.98309 45.3269 0 43.3438 0 40.9047V4.48051ZM4.42216 1.65835C2.86676 1.65835 1.6 2.9251 1.6 4.48051V40.9047C1.6 42.4601 2.86676 43.7269 4.42216 43.7269H23.2996V47.1624C23.2996 50.0203 20.9757 52.3443 18.1178 52.3443H14.1337C13.8117 52.3443 13.5506 52.6054 13.5506 52.9274C13.5506 53.2495 13.8117 53.5106 14.1337 53.5106H47.4663C47.7883 53.5106 48.0494 53.2495 48.0494 52.9274C48.0494 52.6054 47.7883 52.3443 47.4663 52.3443H43.4821C40.6242 52.3443 38.3003 50.0204 38.3003 47.1624V43.727H57.1777C58.7332 43.727 60 42.4603 60 40.9048V4.48051C60 2.92503 58.7334 1.65835 57.178 1.65835H4.42216ZM32.2652 14.9161C32.6938 15.0233 32.9544 15.4576 32.8472 15.8863L28.8381 31.9228C28.7309 32.3514 28.2966 32.612 27.868 32.5049C27.4393 32.3977 27.1787 31.9634 27.2859 31.5347L31.295 15.4982C31.4022 15.0696 31.8365 14.809 32.2652 14.9161ZM23.6338 16.113C23.9547 16.4167 23.9687 16.923 23.665 17.2439L18.1383 23.0844L23.665 28.925C23.9687 29.2459 23.9547 29.7522 23.6338 30.0559C23.3129 30.3596 22.8066 30.3456 22.5029 30.0247L16.4558 23.6343C16.1639 23.3258 16.1639 22.843 16.4558 22.5346L22.5029 16.1442C22.8066 15.8233 23.3129 15.8093 23.6338 16.113ZM36.5327 16.113C36.8536 15.8093 37.3599 15.8233 37.6636 16.1442L43.7107 22.5346C44.0026 22.843 44.0026 23.3258 43.7107 23.6343L37.6636 30.0247C37.3599 30.3456 36.8536 30.3596 36.5327 30.0559C36.2118 29.7522 36.1978 29.2459 36.5014 28.925L42.0282 23.0844L36.5015 17.2439C36.1978 16.923 36.2117 16.4167 36.5327 16.113ZM24.4661 43.7272H37.1342V47.1627C37.1342 48.6276 37.634 49.9764 38.4722 51.0531L39.4775 52.3445H22.123L23.1282 51.0531C23.9664 49.9762 24.4661 48.6276 24.4661 47.1627V43.7272ZM26.0661 45.3272V47.1627C26.0661 48.4509 25.757 49.668 25.2107 50.7445H36.3896C35.8433 49.668 35.5342 48.4508 35.5342 47.1627V45.3272H26.0661Z" fill="black"/>
<path fill-rule="evenodd" clip-rule="evenodd" d="M51.8 6.08442H8.8C7.41929 6.08442 6.3 7.20371 6.3 8.58442V36.5844C6.3 37.9651 7.41929 39.0844 8.8 39.0844H51.8C53.1807 39.0844 54.3 37.9651 54.3 36.5844V8.58442C54.3 7.20371 53.1807 6.08442 51.8 6.08442ZM8.8 4.58442C6.59086 4.58442 4.8 6.37529 4.8 8.58442V36.5844C4.8 38.7936 6.59086 40.5844 8.8 40.5844H51.8C54.0091 40.5844 55.8 38.7936 55.8 36.5844V8.58442C55.8 6.37529 54.0091 4.58442 51.8 4.58442H8.8Z" fill="black"/>
</g>
</svg>
