<svg width="60" height="57" viewBox="0 0 60 57" fill="none" xmlns="http://www.w3.org/2000/svg">
<g id="Layer_1" clip-path="url(#clip0_9_2296)">
<path id="Vector" d="M59.8837 32.3537L58.2112 29.7623L51.4356 19.3294C50.774 18.1899 49.9868 17.7641 48.5379 17.7641H36.987L32.279 12.0239L30.8485 10.2503V7.4476H37.5292C38.056 7.4476 38.4848 7.01876 38.4848 6.49191V2.2679C38.4848 1.74104 38.056 1.31221 37.5292 1.31221H30.8485V1.14068C30.8485 0.714905 30.4718 0.368774 30.0062 0.368774C29.5406 0.368774 29.1638 0.714905 29.1638 1.14068V10.1278L27.6323 12.0269L24.5018 15.8374L22.909 17.7702H10.8465C10.8036 17.7702 10.7607 17.7702 10.7178 17.7764C9.99189 17.8928 9.33332 18.2665 8.76052 18.8821C8.72989 18.9158 8.70232 18.9526 8.67782 18.9894L1.7062 29.7623L0.107265 32.369C-0.0305747 32.5926 -0.0367009 32.8744 0.0919493 33.1041C0.220599 33.3339 0.462584 33.4778 0.726011 33.4778H3.23163L3.2255 55.2687H1.33863C0.869977 55.2687 0.490152 55.6118 0.490152 56.0345C0.490152 56.4572 0.869977 56.8003 1.33863 56.8003H58.4501C58.9188 56.8003 59.2986 56.4572 59.2986 56.0345C59.2986 55.6118 58.9188 55.2687 58.4501 55.2687H56.6797L56.6858 33.4686L59.268 33.4748C59.5345 33.4748 59.7795 33.3308 59.9082 33.0949C60.0368 32.8621 60.0246 32.5773 59.8806 32.3537H59.8837ZM30.8485 3.22358H36.3529C36.4754 3.22358 36.5735 3.3216 36.5735 3.44413V5.31568C36.5735 5.4382 36.4754 5.53622 36.3529 5.53622H30.8485V3.22358ZM23.8769 19.5959C23.8953 19.5805 23.9137 19.5622 23.9321 19.5438L28.2265 14.3212L29.948 12.2322L35.8199 19.3569L35.9731 19.5438C35.9731 19.5438 35.9823 19.556 35.9884 19.5591L45.8914 31.5756L13.9984 31.5634L23.8769 19.5928V19.5959ZM2.83036 31.5634L3.33271 30.767L10.2277 20.1166C10.4667 19.8746 10.7025 19.7337 10.9537 19.6755H16.6756H21.356L11.5418 31.5664H4.7693H2.8273L2.83036 31.5634ZM34.4936 55.2656H25.4268V42.5814C25.4268 42.4588 25.5249 42.3608 25.6474 42.3608H34.27C34.3925 42.3608 34.4906 42.4588 34.4906 42.5814V55.2656H34.4936ZM36.405 55.2656V41.4051C36.405 40.8783 35.9762 40.4494 35.4493 40.4494H24.4712C23.9443 40.4494 23.5155 40.8783 23.5155 41.4051V55.2656H5.13687V33.4656L54.7836 33.4717L54.7775 55.2626H36.4019L36.405 55.2656ZM55.7699 31.5634H48.3572L38.5492 19.6632L48.5379 19.6755C49.2731 19.6755 49.4599 19.7276 49.7877 20.2912L49.803 20.3187C49.803 20.3187 49.8091 20.331 49.8122 20.3341L56.6092 30.7976L57.1085 31.5726L55.7699 31.5603V31.5634Z" fill="black"/>
<path id="Vector_2" d="M29.9571 29.0608C31.2559 29.0608 32.478 28.5554 33.397 27.6365C34.3159 26.7175 34.8213 25.4954 34.8213 24.1966C34.8213 22.8978 34.3159 21.6757 33.397 20.7567C32.478 19.8378 31.2559 19.3324 29.9571 19.3324C28.6583 19.3324 27.4362 19.8378 26.5172 20.7567C25.5983 21.6757 25.0929 22.8978 25.0929 24.1966C25.0929 25.4954 25.5983 26.7175 26.5172 27.6365C27.4362 28.5554 28.6583 29.0608 29.9571 29.0608ZM27.6077 21.8472C28.2356 21.2193 29.0688 20.8731 29.9571 20.8731C30.8454 20.8731 31.6786 21.2193 32.3065 21.8472C32.9344 22.4751 33.2806 23.3083 33.2806 24.1966C33.2806 25.0849 32.9344 25.9181 32.3065 26.546C31.6786 27.1739 30.8454 27.5201 29.9571 27.5201C29.0688 27.5201 28.2356 27.1739 27.6077 26.546C26.9798 25.9181 26.6336 25.0849 26.6336 24.1966C26.6336 23.3083 26.9798 22.4751 27.6077 21.8472Z" fill="black"/>
<path id="Vector_3" d="M48.6573 37.1413C48.4031 36.8902 48.0723 36.7523 47.7231 36.7523H44.4731C44.124 36.7523 43.7931 36.8902 43.542 37.1383C43.2908 37.3925 43.153 37.7233 43.153 38.0725V42.1219C43.153 42.4711 43.2908 42.8019 43.5389 43.0531C43.7931 43.3043 44.124 43.4421 44.4731 43.4421H47.7231C48.0723 43.4421 48.4031 43.3043 48.6543 43.0562C48.9055 42.8019 49.0433 42.4711 49.0433 42.1219V38.0725C49.0433 37.7233 48.9055 37.3925 48.6573 37.1413ZM45.0643 38.6637H47.1319V41.5338H45.0643V38.6637ZM48.397 42.7958C48.4399 42.7529 48.4797 42.7039 48.5134 42.6549C48.4797 42.707 48.4399 42.7529 48.397 42.7958Z" fill="black"/>
<path id="Vector_4" d="M47.7231 46.1958H44.4731C44.124 46.1958 43.7931 46.3336 43.542 46.5817C43.2908 46.836 43.153 47.1668 43.153 47.516V51.5654C43.153 51.9146 43.2908 52.2454 43.5389 52.4966C43.7931 52.7478 44.124 52.8856 44.4731 52.8856H47.7231C48.0723 52.8856 48.4031 52.7478 48.6543 52.4997C48.9055 52.2454 49.0433 51.9146 49.0433 51.5654V47.516C49.0433 47.1637 48.9055 46.8329 48.6573 46.5848C48.4031 46.3336 48.0723 46.1958 47.7231 46.1958ZM47.1319 50.9773H45.0643V48.1072H47.1319V50.9773Z" fill="black"/>
<path id="Vector_5" d="M15.4411 46.1958H12.1912C11.842 46.1958 11.5112 46.3336 11.26 46.5817C11.0088 46.836 10.871 47.1668 10.871 47.516V51.5654C10.871 51.9146 11.0088 52.2454 11.2569 52.4966C11.5112 52.7478 11.842 52.8856 12.1912 52.8856H15.4411C15.7903 52.8856 16.1211 52.7478 16.3723 52.4997C16.6235 52.2454 16.7613 51.9146 16.7613 51.5654V47.516C16.7613 47.1668 16.6235 46.836 16.3754 46.5848C16.1211 46.3336 15.7903 46.1958 15.4411 46.1958ZM14.8499 50.9773H12.7823V48.1072H14.8499V50.9773Z" fill="black"/>
<path id="Vector_6" d="M15.4411 36.7493H12.1912C11.8389 36.7493 11.5081 36.8871 11.26 37.1352C11.0088 37.3864 10.871 37.7172 10.871 38.0695V42.1189C10.871 42.4681 11.0088 42.7989 11.2569 43.0501C11.5112 43.3012 11.842 43.4391 12.1912 43.4391H15.4411C15.7903 43.4391 16.1211 43.3012 16.3723 43.0531C16.6235 42.7989 16.7613 42.4681 16.7613 42.1189V38.0695C16.7613 37.7203 16.6235 37.3895 16.3754 37.1383C16.1211 36.8871 15.7903 36.7493 15.4411 36.7493ZM12.7823 38.6606H14.8499V41.5308H12.7823V38.6606Z" fill="black"/>
<path id="Vector_7" d="M29.5161 25.3361H31.9206C32.3464 25.3361 32.5669 24.941 32.5669 24.552C32.5669 24.3621 32.5148 24.1844 32.4199 24.0496C32.3035 23.8842 32.1258 23.7923 31.9206 23.7923H30.4166V22.2822C30.4166 22.08 30.3247 21.9024 30.1532 21.786C29.7397 21.4981 28.8698 21.6482 28.8698 22.2822V24.6531C28.8698 24.9839 29.0964 25.3361 29.513 25.3361H29.5161Z" fill="black"/>
</g>
<defs>
<clipPath id="clip0_9_2296">
<rect width="60" height="56.4315" fill="white" transform="translate(0 0.368774)"/>
</clipPath>
</defs>
</svg>
