<svg width="60" height="61" viewBox="0 0 60 61" fill="none" xmlns="http://www.w3.org/2000/svg">
<path id="Vector" d="M30.0107 0.526612C18.0069 0.524863 7.15813 7.68003 2.43349 18.7148L2.05957 18.8388L2.20454 19.2737C-4.01617 34.6163 3.37843 52.0968 18.721 58.3175C22.3043 59.7705 26.1349 60.5163 30.0018 60.5142C46.5668 60.5167 59.9975 47.09 60 30.5249C60.0025 13.9599 46.5758 0.528986 30.0107 0.526612ZM53.5374 45.6427L51.9972 44.1036V40.5183C51.999 40.3636 51.9647 40.2106 51.8972 40.0714L47.998 32.284V28.5208C47.998 28.1867 47.8312 27.8745 47.5531 27.689L44.5537 25.6894C44.3187 25.5324 44.0281 25.4823 43.7539 25.5514L40.0806 26.4692L33.911 23.8218L33.0621 17.875L35.4146 15.5235H40.4646L42.1642 18.0779C42.3177 18.3077 42.5595 18.4638 42.8321 18.5089L48.8309 19.5087C48.9916 19.5357 49.1562 19.5225 49.3108 19.4707L54.8356 17.6291C59.4695 26.5216 58.9739 37.217 53.5374 45.6427ZM49.4137 10.3786L47.7881 11.4624L43.256 10.5555L40.3156 9.57671C40.1356 9.51559 39.9419 9.50787 39.7578 9.55472L36.0405 10.4835L34.4109 9.94069L35.6186 7.52514H38.9999C39.155 7.52528 39.308 7.48941 39.4468 7.42019L42.9061 5.69054C45.2883 6.93404 47.4799 8.51272 49.4137 10.3786ZM19.051 4.75873L21.4505 6.3584C21.5685 6.43689 21.7018 6.48937 21.8414 6.51237L26.6864 7.32021L26.2135 8.7349L23.6891 9.57774C23.463 9.65298 23.2712 9.80647 23.1482 10.0106L20.2768 14.7956L15.6647 17.5631L8.86616 18.5338C8.3734 18.6035 8.00699 19.025 8.00633 19.5227V22.522C8.00633 22.7873 8.1118 23.0414 8.29927 23.2289L10.0059 24.9355V26.6532L5.84678 23.8798L4.3381 19.3537C7.2085 12.7951 12.4696 7.57618 19.051 4.75873ZM16.2046 37.539L11.6856 36.6341L10.0059 33.2838V30.9343L13.7312 27.2091L15.1099 29.9675C15.2792 30.3064 15.6257 30.5205 16.0046 30.5204H22.4373L25.1458 35.0345C25.3265 35.3353 25.6516 35.5192 26.0026 35.5194H28.782L28.0821 39.0256L24.2969 42.8108C24.1091 42.9982 24.0034 43.2524 24.003 43.5177V46.0172L20.4037 48.7166C20.1521 48.9055 20.0039 49.2018 20.0039 49.5164V53.1277L18.7601 52.7158L17.0044 48.3247V38.5187C17.0046 38.0436 16.6702 37.6339 16.2046 37.539ZM13.1993 52.9084C3.77259 45.8362 -0.213957 33.6167 3.22832 22.3461L4.05916 24.8376C4.12914 25.0484 4.26737 25.23 4.45208 25.3534L9.43607 28.6757L8.29927 29.8135C8.1118 30.001 8.00633 30.2552 8.00633 30.5204V33.5198C8.00618 33.6748 8.04207 33.8278 8.11128 33.9667L10.1109 37.9658C10.2493 38.2421 10.5077 38.4387 10.8107 38.4987L15.0099 39.3375V48.5166C15.0098 48.6437 15.0339 48.7696 15.0808 48.8876L17.0805 53.8866C17.1899 54.1596 17.4142 54.3707 17.6933 54.4635L20.6927 55.4632C20.793 55.4972 20.8979 55.5147 21.0037 55.5152C21.5558 55.5152 22.0035 55.0676 22.0035 54.5154V50.0163L25.6027 47.3169C25.8543 47.1281 26.0026 46.8318 26.0026 46.5171V43.9316L29.7088 40.2254C29.8482 40.0858 29.9431 39.908 29.9818 39.7145L30.9816 34.7155C31.0898 34.174 30.7386 33.6473 30.1971 33.5391C30.1328 33.5263 30.0674 33.5198 30.0018 33.5198H26.5685L23.8601 29.0057C23.6794 28.7049 23.3541 28.5209 23.0032 28.5208H16.6226L14.9049 25.0745C14.761 24.7868 14.4876 24.5859 14.17 24.5346C13.8526 24.4798 13.5286 24.5845 13.3032 24.8146L12.0055 26.1073V24.5216C12.0055 24.2564 11.9 24.0022 11.7126 23.8148L10.0059 22.1081V20.3895L16.1467 19.5127C16.2785 19.4936 16.4053 19.4483 16.5195 19.3797L21.5186 16.3803C21.6587 16.2961 21.7762 16.1786 21.8605 16.0384L24.6699 11.3564L27.3184 10.4726C27.6174 10.3745 27.8521 10.1399 27.9502 9.84067L28.95 6.8413C29.1232 6.31703 28.8386 5.75153 28.3144 5.57831C28.266 5.56232 28.2164 5.55007 28.1661 5.54158L22.3793 4.57677L21.3626 3.89891C27.6541 1.85109 34.4685 2.10453 40.5905 4.61377L38.7639 5.52557H35.0007C34.62 5.52345 34.2711 5.73791 34.1009 6.07846L32.1013 10.0776C31.855 10.5718 32.0558 11.1722 32.55 11.4185C32.5921 11.4395 32.6356 11.4574 32.6802 11.4724L35.6796 12.4722C35.8595 12.5333 36.0532 12.541 36.2375 12.4941L39.9547 11.5653L42.6781 12.4722C42.7171 12.4861 42.7572 12.4969 42.7981 12.5042L47.797 13.5039C48.057 13.5569 48.3275 13.5036 48.5479 13.356L50.8235 11.8383C51.9434 13.0856 52.9498 14.4303 53.8308 15.8565L48.9119 17.4961L43.5859 16.6083L41.8263 13.9688C41.6419 13.6923 41.3319 13.5256 40.9995 13.5239H35.0007C34.7355 13.5239 34.4813 13.6294 34.2939 13.8169L31.2945 16.8162C31.0718 17.0388 30.9669 17.3534 31.0116 17.665L32.0113 24.6636C32.0617 25.0097 32.2891 25.3042 32.6112 25.4404L39.6098 28.4398C39.8102 28.5267 40.0339 28.5445 40.2457 28.4908L43.8159 27.598L45.9985 29.0557V32.5199C45.9967 32.6747 46.0309 32.8277 46.0984 32.9669L49.9976 40.7543V44.5175C49.9976 44.7827 50.1031 45.0369 50.2906 45.2243L52.3821 47.3169C43.1062 59.681 25.5633 62.1844 13.1993 52.9084Z" fill="black"/>
</svg>
