<svg width="60" height="50" viewBox="0 0 60 50" fill="none" xmlns="http://www.w3.org/2000/svg">
<path id="Vector" fill-rule="evenodd" clip-rule="evenodd" d="M59.4264 11.1873L40.453 3.95374C39.993 3.77841 39.478 4.00913 39.3027 4.46872C39.1273 4.92878 39.358 5.44376 39.8181 5.61908L56.6075 12.02L44.9849 16.4516L30.3676 9.83324C29.919 9.63 29.3912 9.82914 29.1884 10.2773C28.9851 10.7259 29.1843 11.2537 29.6324 11.457L42.6388 17.3461L30 22.1645L3.39249 12.02L30 1.87549L36.557 4.37579C37.0162 4.55066 37.5316 4.32041 37.7073 3.86035C37.8827 3.40076 37.652 2.88578 37.1919 2.71045L30.3177 0.0892983C30.1131 0.0114785 29.8869 0.0110209 29.6823 0.0892983L0.573578 11.1873C0.228424 11.3192 0 11.6506 0 12.02V16.0895C0 16.4589 0.228424 16.7903 0.573578 16.9222L9.66337 20.3875V23.4755C9.66337 23.9676 10.0621 24.3668 10.5542 24.3668C11.0468 24.3668 11.4455 23.9676 11.4455 23.4755V21.0672L29.6823 28.0202C29.7849 28.0591 29.8924 28.0788 30 28.0788C30.1076 28.0788 30.2151 28.0591 30.3177 28.0202L44.0643 22.7793V36.882C39.7485 39.1475 34.9091 40.3615 30 40.3615C23.3002 40.3615 16.7285 38.1029 11.4455 33.9927V27.0401C11.4455 26.548 11.0468 26.1489 10.5542 26.1489C10.0621 26.1489 9.66337 26.548 9.66337 27.0401V34.4243C9.66337 34.6949 9.78609 34.9507 9.9971 35.1196C15.6509 39.6492 22.755 42.1436 30 42.1436C34.8862 42.1436 39.7074 41.0074 44.0643 38.8793V42.486C42.6283 42.8783 41.5695 44.1935 41.5695 45.7522C41.5695 47.6189 43.0884 49.1382 44.9551 49.1382C46.8224 49.1382 48.3412 47.6189 48.3412 45.7522C48.3412 44.1935 47.2824 42.8783 45.8464 42.486V37.9381C47.2989 37.1118 48.6905 36.1716 50.0034 35.1196C50.2144 34.9507 50.3375 34.6949 50.3375 34.4243V20.387L59.4264 16.9217C59.7716 16.7903 60 16.4589 60 16.089V12.02C60 11.6506 59.7716 11.3192 59.4264 11.1873ZM46.5591 45.7522C46.5591 46.6361 45.8395 47.3557 44.9551 47.3557C44.0712 47.3557 43.3516 46.6361 43.3516 45.7522C43.3516 44.8677 44.0712 44.1481 44.9551 44.1481C45.8395 44.1481 46.5591 44.8677 46.5591 45.7522ZM1.78207 13.3137L29.1087 23.7323V25.8939L1.78207 15.4752V13.3137ZM30.8913 25.8939V23.7323L44.0643 18.7097V20.8717L30.8913 25.8939ZM48.555 33.9922C47.6857 34.6688 46.7807 35.2941 45.8464 35.8681V22.0995L48.555 21.0668V33.9922ZM45.8464 20.192V18.0304L58.2179 13.3137V15.4752L45.8464 20.192Z" fill="black"/>
</svg>
