<svg width="62" height="33" viewBox="0 0 62 33" fill="none" xmlns="http://www.w3.org/2000/svg">
<path id="Vector" d="M37.1992 8.19555L36.2018 8.1233L36.2018 8.12347L37.1992 8.19555ZM24.2818 8.19555L25.2793 8.12472L25.2793 8.12461L24.2818 8.19555ZM16.6934 29.8654L17.6736 30.0634L17.6737 30.0632L16.6934 29.8654ZM44.7884 29.8654L43.8076 30.0602L43.8077 30.0607L44.7884 29.8654ZM17.9631 9.94571L16.9657 9.87362L16.9657 9.87363L17.9631 9.94571ZM7.5901 9.94571L6.59261 10.0165L6.59261 10.0165L7.5901 9.94571ZM17.7309 20.6105C18.2117 20.8823 18.8218 20.713 19.0936 20.2322C19.3655 19.7515 19.1961 19.1414 18.7153 18.8695L17.7309 20.6105ZM1.03561 27.6492L0.0554025 27.4512L0.0551714 27.4524L1.03561 27.6492ZM13.0763 30.2677C13.6286 30.2677 14.0763 29.82 14.0763 29.2677C14.0763 28.7154 13.6286 28.2677 13.0763 28.2677V30.2677ZM43.7933 8.97008L44.7907 8.89859V8.89858L43.7933 8.97008ZM54.199 8.97008L55.1965 9.04033L55.1965 9.04027L54.199 8.97008ZM43.3027 19.3133C42.8165 19.5751 42.6346 20.1816 42.8964 20.6678C43.1583 21.1541 43.7647 21.336 44.251 21.0742L43.3027 19.3133ZM60.9644 27.7263L61.9429 27.52L61.9426 27.5188L60.9644 27.7263ZM48.9237 28.2677C48.3714 28.2677 47.9237 28.7154 47.9237 29.2677C47.9237 29.82 48.3714 30.2677 48.9237 30.2677V28.2677ZM36.2018 8.12347C35.9432 11.7007 33.3125 14.2196 30.7405 14.2196V16.2196C34.6076 16.2196 37.8816 12.6256 38.1966 8.26763L36.2018 8.12347ZM30.7405 14.2196C28.1675 14.2196 25.5332 11.7007 25.2793 8.12472L23.2843 8.26639C23.594 12.6276 26.8744 16.2196 30.7405 16.2196V14.2196ZM25.2793 8.12461C25.1507 6.31698 25.7147 4.84173 26.6751 3.82088C27.6382 2.7971 29.0553 2.17151 30.7405 2.17151V0.171509C28.5475 0.171509 26.5885 0.994137 25.2184 2.45048C23.8456 3.90975 23.1193 5.94652 23.2843 8.2665L25.2793 8.12461ZM30.7405 2.17151C34.0416 2.17151 36.4531 4.65371 36.2018 8.1233L38.1965 8.26781C38.5323 3.63243 35.1957 0.171509 30.7405 0.171509V2.17151ZM30.7405 17.3414C23.9447 17.3414 17.3548 21.5322 15.7132 29.6676L17.6737 30.0632C19.105 22.9701 24.781 19.3414 30.7405 19.3414V17.3414ZM15.7133 29.6673C15.569 30.3814 15.6683 31.1272 16.0009 31.7289C16.3388 32.3401 16.9719 32.8692 17.8404 32.8692V30.8692C17.8378 30.8692 17.8412 30.8709 17.8358 30.8673C17.8248 30.8599 17.7903 30.8318 17.7512 30.7612C17.6692 30.6128 17.6144 30.3567 17.6736 30.0634L15.7133 29.6673ZM17.8404 32.8692H43.6415V30.8692H17.8404V32.8692ZM43.6415 32.8692C44.5107 32.8692 45.143 32.3393 45.4802 31.7282C45.812 31.127 45.911 30.3824 45.7692 29.6701L43.8077 30.0607C43.8665 30.3557 43.8113 30.613 43.7292 30.7618C43.6901 30.8326 43.6558 30.8605 43.6452 30.8676C43.6402 30.8709 43.644 30.8692 43.6415 30.8692V32.8692ZM45.7693 29.6706C44.1273 21.403 37.5286 17.3414 30.7405 17.3414V19.3414C36.7095 19.3414 42.3767 22.8553 43.8076 30.0602L45.7693 29.6706ZM16.9657 9.87363C16.7645 12.6577 14.6958 14.6098 12.7766 14.6098V16.6098C16.0009 16.6098 18.7037 13.5709 18.9605 10.0178L16.9657 9.87363ZM12.7766 14.6098C10.8564 14.6098 8.7852 12.6577 8.58759 9.87488L6.59261 10.0165C6.84515 13.5729 9.55333 16.6098 12.7766 16.6098V14.6098ZM8.58759 9.87494C8.39521 7.1635 10.2522 5.29331 12.7766 5.29331V3.29331C9.10457 3.29331 6.31722 6.13508 6.59261 10.0165L8.58759 9.87494ZM12.7766 5.29331C15.2944 5.29331 17.1577 7.21711 16.9657 9.87362L18.9605 10.0178C19.2363 6.20244 16.4552 3.29331 12.7766 3.29331V5.29331ZM18.7153 18.8695C16.7423 17.7539 14.5941 17.3414 12.3834 17.3414V19.3414C14.3437 19.3414 16.1309 19.7058 17.7309 20.6105L18.7153 18.8695ZM12.3834 17.3414C6.81874 17.3414 1.40286 20.7797 0.0554031 27.4512L2.01582 27.8472C3.15271 22.2182 7.65443 19.3414 12.3834 19.3414V17.3414ZM0.0551714 27.4524C-0.068699 28.0694 0.0164164 28.7186 0.309247 29.2477C0.607258 29.7862 1.17516 30.2677 1.96303 30.2677V28.2677C2.00107 28.2677 2.04085 28.2814 2.06665 28.2988C2.08683 28.3123 2.07839 28.3141 2.05916 28.2793C2.0167 28.2026 1.97661 28.0425 2.01605 27.846L0.0551714 27.4524ZM1.96303 30.2677H13.0763V28.2677H1.96303V30.2677ZM42.7958 9.04157C43.0526 12.6238 45.7571 15.6993 48.9961 15.6993V13.6993C47.0755 13.6993 44.9934 11.7264 44.7907 8.89859L42.7958 9.04157ZM48.9961 15.6993C52.2342 15.6993 54.944 12.6259 55.1965 9.04033L53.2014 8.89983C53.0024 11.7264 50.9177 13.6993 48.9961 13.6993V15.6993ZM55.1965 9.04027C55.4717 5.12981 52.6864 2.25271 48.9961 2.25271V4.25271C51.5218 4.25271 53.3955 6.14173 53.2014 8.89989L55.1965 9.04027ZM48.9961 2.25271C45.2993 2.25271 42.5203 5.19789 42.7958 9.04158L44.7907 8.89858C44.597 6.19601 46.477 4.25271 48.9961 4.25271V2.25271ZM44.251 21.0742C45.8552 20.2103 47.6493 19.8617 49.6166 19.8617V17.8617C47.4129 17.8617 45.2717 18.253 43.3027 19.3133L44.251 21.0742ZM49.6166 19.8617C54.3824 19.8617 58.8597 22.6223 59.9861 27.9337L61.9426 27.5188C60.5847 21.1155 55.1444 17.8617 49.6166 17.8617V19.8617ZM59.9859 27.9325C60.0208 28.0982 59.9844 28.228 59.9512 28.2851C59.9365 28.3103 59.9321 28.3059 59.9521 28.2931C59.9766 28.2774 60.0098 28.2677 60.037 28.2677V30.2677C60.8001 30.2677 61.371 29.8224 61.6804 29.2899C61.9825 28.77 62.0713 28.1291 61.9429 27.52L59.9859 27.9325ZM60.037 28.2677H48.9237V30.2677H60.037V28.2677Z" fill="black"/>
</svg>
