<svg width="60" height="68" viewBox="0 0 60 68" fill="none" xmlns="http://www.w3.org/2000/svg">
<g id="Vector">
<path d="M54.1447 27.6864C53.8631 27.1218 53.1771 26.8922 52.6127 27.1737C52.048 27.4551 51.8184 28.141 52.0998 28.7056C53.5225 31.5598 54.2439 34.8202 54.2439 38.396C54.2439 43.4553 51.9199 50.1526 48.1788 55.8742C44.3458 61.736 39.8893 65.2357 36.2576 65.2357C34.7446 65.2357 33.1211 64.997 31.6863 64.5636C29.4478 63.8874 27.0812 63.8874 24.8428 64.5636C23.4078 64.9971 21.7843 65.2357 20.2712 65.2357C16.6395 65.2357 12.183 61.736 8.34999 55.8742C4.60878 50.1526 2.28485 43.4553 2.28485 38.396C2.28485 33.6163 3.60722 29.3201 6.10883 25.9718C8.21349 23.1549 11.1474 21.0916 14.1579 20.3111C16.4072 19.7278 19.373 19.8826 22.7355 20.758C23.103 20.8538 23.479 20.9413 23.8526 21.018C24.4705 21.1447 25.0745 20.7469 25.2015 20.1289C25.3286 19.511 24.9304 18.9071 24.3124 18.78C23.9775 18.7111 23.6407 18.6329 23.3114 18.5472C19.5197 17.5598 16.2472 17.4094 13.5845 18.0995C10.0288 19.0213 6.72394 21.3316 4.27842 24.6044C1.47952 28.3504 0 33.1195 0 38.396C0 43.8753 2.4667 51.0517 6.43775 57.1245C10.7578 63.7312 15.7998 67.5204 20.271 67.5204C22.0268 67.5204 23.8362 67.2542 25.5032 66.7508C27.3092 66.2052 29.2189 66.2052 31.0252 66.7508C32.6924 67.2544 34.5016 67.5204 36.2574 67.5204C40.7286 67.5204 45.7706 63.7312 50.0907 57.1245C54.0614 51.0515 56.5284 43.8753 56.5284 38.396C56.5284 34.4633 55.7266 30.86 54.1447 27.6864Z" fill="black"/>
<path d="M51.7597 23.9751C49.3745 21.0418 46.2438 18.9552 42.9442 18.0996C40.2817 17.4094 37.009 17.5598 33.2172 18.5472C32.3957 18.7612 31.5523 18.9234 30.7101 19.0291C30.0841 19.1078 29.6404 19.6789 29.719 20.305C29.7975 20.9309 30.3696 21.3752 30.9948 21.2961C31.9349 21.1781 32.8763 20.9971 33.7932 20.7582C37.156 19.8827 40.122 19.7283 42.371 20.3113C45.2021 21.0455 47.907 22.8585 49.9869 25.4164C50.2127 25.6941 50.5419 25.8382 50.8739 25.8382C51.1273 25.8382 51.3821 25.7544 51.5938 25.5822C52.0835 25.1841 52.1576 24.4645 51.7597 23.9751Z" fill="black"/>
<path d="M59.473 1.44344C59.0956 1.2021 58.612 1.20367 58.2359 1.44736C56.5954 2.51128 54.7525 2.12104 51.9626 1.53051C51.7201 1.47913 51.473 1.42696 51.221 1.37454C50.6034 1.24629 49.9984 1.64307 49.8702 2.26092C49.742 2.87877 50.1387 3.48342 50.7566 3.61167C51.0056 3.66331 51.2499 3.71508 51.4894 3.7658C53.5851 4.20952 55.4804 4.61074 57.2661 4.26194C56.4071 7.33146 54.1485 13.0265 48.9016 15.0483C44.4646 16.7579 40.2952 14.3611 36.945 12.4352C35.6009 11.6625 34.4135 10.98 33.3582 10.6832C34.547 8.16028 37.4957 3.33844 42.7986 2.93564C44.3416 2.81837 45.8761 2.85642 47.4896 3.0516C48.1164 3.12691 48.6851 2.68097 48.7609 2.05475C48.8368 1.4284 48.3903 0.859185 47.7641 0.78336C46.0006 0.570001 44.3195 0.52882 42.6257 0.657332C39.0002 0.932658 35.7561 2.91211 33.2445 6.38127C31.6362 8.60288 30.8179 10.7514 30.61 11.342L27.6031 15.9083C26.7569 13.3491 25.9175 11.7449 25.85 11.6178C25.554 11.0607 24.8624 10.8488 24.3053 11.1447C23.748 11.4406 23.5363 12.1321 23.8321 12.6893C23.8605 12.7425 26.4957 17.7755 27.0275 24.3702C26.1519 24.272 25.347 24.0711 24.7198 23.787C23.9628 23.4441 23.7276 23.0962 23.7276 23.0083C23.7276 22.3774 23.2162 21.866 22.5853 21.866C21.9543 21.866 21.443 22.3774 21.443 23.0083C21.443 23.6813 21.7462 24.948 23.7771 25.868C24.9943 26.4196 26.5878 26.7233 28.2636 26.7233C29.9401 26.7233 31.5339 26.4196 32.7515 25.8682C34.7824 24.9482 35.0858 23.6815 35.0858 23.0085C35.0858 22.3776 34.5744 21.8661 33.9435 21.8661C33.3126 21.8661 32.8011 22.3776 32.8011 23.0085C32.8011 23.0964 32.5659 23.4441 31.8089 23.787C31.1389 24.0906 30.2654 24.2987 29.3199 24.3885C29.1701 22.3584 28.8371 20.4713 28.4321 18.8037L32.3756 12.8153C32.5101 12.8209 32.7533 12.8629 33.163 13.0248C33.8831 13.3097 34.7745 13.822 35.8066 14.4153C38.4862 15.9556 41.9078 17.9232 45.7527 17.9228C47.0331 17.9228 48.3611 17.7043 49.7233 17.1794C58.272 13.8853 59.9222 3.02794 59.9884 2.56736C60.0521 2.12457 59.8505 1.68464 59.473 1.44344Z" fill="black"/>
</g>
</svg>
