<svg height="1600pt" preserveAspectRatio="xMidYMid meet" viewBox="0 0 1600 1600" width="1600pt" xmlns="http://www.w3.org/2000/svg"><g transform="matrix(.1 0 0 -.1 0 1600)"><path d="m7590 15989c-2270-117-4373-1187-5807-2956-1673-2062-2209-4818-1434-7374 457-1506 1379-2872 2618-3876 2062-1673 4818-2209 7374-1434 1751 531 3299 1685 4319 3220 570 858 962 1791 1170 2788 226 1084 226 2202 0 3286-374 1794-1364 3412-2797 4574-635 515-1376 946-2133 1240-1046 407-2186 590-3310 532zm3447-2566c-17-32-80-187-130-319-19-50-45-110-56-133-12-23-36-81-53-129-16-48-41-105-53-127-13-22-35-79-50-127-14-48-50-138-79-200s-70-158-91-213c-20-55-49-123-65-151-32-58-59-142-52-163 3-9 0-11-8-6-9 5-10 2-5-15s4-21-6-15c-9 6-10 3-5-10 4-10 3-21-1-24-5-3-33-67-63-141s-81-191-113-260-74-165-92-215c-18-49-47-121-65-159-17-38-28-72-23-76 4-4 30-27 57-51s46-37 41-29c-10 16 123-102 263-235 46-44 124-132 172-195s109-140 136-170c103-114 134-159 205-295 40-77 92-166 115-198 23-31 46-72 49-90 8-37 138-384 159-426 19-36 84-253 107-356 10-44 23-125 29-180s15-104 20-109 45-11 87-13c43-2 101-11 128-20 28-9 86-17 130-18s118-12 165-23c47-12 110-23 140-26 132-10 180-16 265-35 50-11 135-25 190-30 55-6 141-17 190-26 50-8 131-19 180-25 50-6 126-20 170-30s134-21 200-24c66-4 138-11 160-16 22-6 114-19 205-31 91-11 237-33 325-48l160-29-85-2c-49-1-77-5-66-9 20-8-141-41-200-41-16 0-60-7-99-16-126-28-379-64-448-64-65 0-226-22-297-40-61-16-362-58-450-64-47-2-99-10-115-16-42-17-250-50-310-50-27 0-102-9-165-20-165-29-461-52-479-37-12 10-13 9-6-3 15-25 6-148-19-260-13-58-32-145-41-195-53-290-327-876-547-1170-101-135-373-443-422-477-17-13-67-54-111-93s-104-90-132-114c-29-23-53-51-53-61s31-83 68-162c65-135 92-201 139-343 11-33 46-121 78-195s77-188 101-253 55-139 68-165 47-112 75-192c29-80 70-184 92-233 21-48 39-93 39-100 0-31 32-116 59-157 51-77 223-537 197-524-6 3-4 0 5-8 9-7 17-17 18-23 4-25 13-45 21-45 4 0 13-12 18-27 6-16 17-45 26-65 9-21 14-38 12-38-3 0-23 26-45 58-21 31-62 80-91 107-28 28-86 100-128 160-42 61-99 137-127 170-29 33-71 87-96 120-24 33-69 88-100 121-32 34-67 82-80 105-12 24-51 73-88 109-67 66-177 205-393 500-119 162-248 322-269 335-6 4-31 39-55 77-25 39-70 94-99 124-30 29-71 78-91 109-20 30-43 55-50 55s-11 6-8 13c3 8-24 45-59 83-34 38-85 98-112 134s-75 93-107 126c-31 34-66 81-78 104s-53 76-91 117c-74 79-113 133-123 169-6 20 0 23 63 39 38 9 100 34 137 56s101 51 142 66c42 15 94 41 116 58 23 17 77 55 121 85 141 94 305 219 358 273 161 163 319 341 359 407 25 41 103 190 172 330 120 243 128 263 167 419 74 299 92 483 76 792-7 139-22 220-82 434-18 66-39 146-45 177-6 32-25 84-42 115-17 32-45 97-63 145s-49 109-68 135c-20 27-51 82-70 123-21 44-56 98-87 130-28 30-69 85-90 122-22 36-59 81-82 99-24 19-98 89-165 156-68 67-147 135-177 152s-80 52-113 77c-99 77-223 148-348 198-66 27-161 68-210 92-66 32-111 47-165 54-41 5-102 19-135 30-35 12-106 25-170 30-60 5-135 14-165 20-30 7-142 12-250 12h-195l-205-46c-299-68-410-101-503-150-45-25-101-49-124-56-24-6-43-15-43-20s-6-7-14-4-17 0-22-7c-4-8-3-10 4-5 7 4 12 5 12 2s-10-10-21-17c-16-8-20-8-14 1s2 9-14 1c-11-7-21-14-21-17s5-2 12 2 8 3 4-5c-4-6-12-9-17-6-5 4-24-5-41-18-18-14-62-42-98-63-36-20-99-65-140-99-41-33-98-78-127-98-28-21-71-61-95-90-23-29-67-79-97-112-29-32-73-89-96-125s-63-87-89-114c-46-48-82-103-78-118 1-5-3-8-10-8-6 0-8-3-5-7 4-3-1-12-11-20-9-8-11-11-4-8 10 5 9-1-2-24-9-17-19-31-22-31-2 0 0 9 6 20s8 20 6 20c-11 0-36-61-30-72 4-6 3-8-3-5-5 3-36-53-68-126-151-341-165-384-190-607-8-69-19-160-25-203-13-94-14-408-1-492 5-33 15-94 21-135 23-153 32-195 52-234 12-23 39-108 60-191 32-120 52-173 100-265 104-197 149-270 202-328 29-32 71-81 94-111 118-151 453-466 544-512 34-17 93-53 130-79 66-46 200-108 401-185 53-20 100-42 104-48s1-7-7-2c-10 6-12 4-6-11 4-10 4-16 1-12-10 10-152-153-262-304-56-75-131-169-168-208-36-40-77-95-91-122s-32-56-42-66c-9-10-33-38-52-62-19-25-66-79-105-121-71-77-116-138-229-310-34-53-100-138-147-190-97-109-150-174-144-180 2-2-5-15-17-29-11-14-16-18-12-10 4 9 3 12-2 7s-10-13-10-18c-1-5-2-13-3-19 0-5-6-10-11-10-20 0-80-63-109-114-16-28-59-84-95-124-37-40-77-95-91-121-13-27-52-80-87-118-183-202-445-530-490-612-10-18-22-30-28-26-5 3-7 0-5-7 3-8-13-34-35-58s-40-48-40-54 11 3 25 19c27 33 31 30 13-10-12-28-20-30-49-15-28 16-23 40 15 80 36 36 91 167 212 507 30 83 70 184 89 224 19 41 35 79 35 87 0 25 88 247 149 376 34 70 85 203 115 295 30 91 77 217 105 279 52 114 149 368 223 586l41 118-64 57c-35 31-107 96-159 146s-117 106-144 125c-28 20-69 65-97 107-27 39-69 88-93 108-25 20-62 62-82 93-21 32-63 89-95 127-31 39-69 95-84 125s-49 93-75 140c-130 233-179 330-195 384-9 33-30 86-46 119-17 32-39 98-49 145-10 48-28 108-39 133-12 26-28 85-37 130-8 46-22 109-31 139s-19 93-22 139l-6 84-40 14c-22 8-85 16-140 19s-140 14-190 25c-49 10-173 30-275 44s-223 32-270 40c-165 30-276 45-341 45-36 0-88 6-115 14-93 28-265 56-302 50-24-4-92 7-198 30-107 24-186 36-237 36-52 0-92 6-126 20-29 11-110 26-198 35-81 9-161 20-178 25-27 7-24 8 25 10 45 2 49 4 25 9-24 6-17 8 40 14 39 4 132 20 208 35 75 16 173 30 217 31 45 1 102 10 132 21 34 11 99 20 183 24 181 10 438 43 514 68 42 13 98 22 165 24 55 2 198 19 316 39s247 39 285 41c39 3 86 9 105 14 28 8 346 60 366 60 3 0 36-29 73-64 38-35 88-74 112-86 24-13 68-46 99-75 47-44 150-112 150-99 0 2-28 23-63 45-34 22-78 57-98 78s-63 52-95 70c-73 42-167 130-155 145 5 6 14 61 21 121 24 223 75 433 126 522 14 24 33 76 44 116 20 81 128 339 168 402 14 22 43 78 65 125 21 46 60 112 86 145s63 83 81 110c18 28 59 79 90 115s77 94 102 130c69 96 214 238 401 390 178 145 186 156 148 208-38 54-111 212-117 254-7 47-116 336-164 433-16 33-50 123-76 200-28 85-60 158-79 185-32 44-70 143-135 345-17 55-49 136-70 180s-66 150-98 235c-33 85-74 184-91 220s-31 74-31 86c0 38-30 119-60 163-29 42-67 147-57 157 7 8 86-103 79-111-4-5-2-5 5-1 18 10 81-51 108-103 13-26 63-95 112-155 96-118 206-262 293-382 30-42 97-121 148-177 93-101 114-128 227-282 32-44 84-111 116-150 31-38 69-90 84-115s56-74 92-109c38-37 73-83 85-110 10-25 50-77 87-116 70-74 157-187 185-243 9-18 24-36 32-39 7-3 14-11 14-18 0-12 68 11 270 93 122 49 426 121 579 138 216 23 534 37 687 30 171-7 601-79 700-116 13-5 96-30 184-55 105-30 179-57 217-80l58-35 3 24c2 14 23 41 52 65 27 22 62 65 79 93 17 29 85 123 151 208 67 85 153 196 191 247 39 50 81 99 95 108 24 16 221 258 284 349 18 27 55 73 81 102s63 77 82 107c19 29 62 83 94 118 55 59 181 224 263 344 19 28 60 78 92 112s74 88 94 119c40 62 130 161 140 152 3-4-1-19-9-35zm-2395-3438c25-9 62-33 83-55 34-35 39-47 43-97 6-79-12-137-56-185-60-64-140-63-232 3-55 40-80 83-80 140 0 89 39 160 104 190 50 23 79 24 138 4zm-1470-231c38-11 74-30 100-54 40-35 42-40 42-91-3-126-86-219-198-219-79 0-131 31-166 100-55 110-17 229 85 265 52 18 67 18 137-1zm224-220c32-14 71-36 86-49 16-13 55-34 87-46 33-11 70-32 82-45 15-16 34-24 55-24 17 0 37-6 43-14 7-8 28-17 48-21 47-8 122-47 147-73 10-12 32-24 50-28 17-3 74-28 126-54s106-51 120-55 36-16 50-25c14-10 54-30 90-45s72-33 80-40 47-26 85-41c39-15 79-35 90-45s61-36 110-59c50-23 108-50 130-60 22-11 65-27 95-36 71-22 120-47 144-73 11-12 45-29 75-37 57-16 175-72 221-104 14-9 49-25 78-35 29-9 86-34 125-55 67-35 74-36 95-22 39 26 98 31 169 15 83-19 126-55 142-120 25-96-16-174-114-219-82-39-142-30-205 30l-35 33-115 1c-63 0-147-6-186-14-85-17-183-29-404-48-91-8-172-17-180-20s-96-13-195-21-197-19-218-24c-25-6-48-5-67 2-25 9-35 8-62-7-25-15-57-20-157-23-68-2-127-6-130-8-2-3 5-26 17-50 12-25 22-55 22-66 0-12 15-47 34-78s41-74 50-96c10-22 26-49 36-60 23-25 95-177 105-224 10-48 34-95 90-181 26-41 65-119 86-172 20-53 46-109 58-124 11-15 21-34 21-43 0-10 5-22 12-29 9-9 7-12-12-13-14-1 6-5 43-10 119-13 180-73 181-174 1-124-113-214-239-191-70 14-132 97-149 201-6 34-3 47 19 78 24 36 24 40 10 68-9 16-24 56-34 89-10 32-34 81-54 107-47 65-137 247-137 277 0 14-11 33-25 44-16 12-25 30-25 47 0 31-13 58-48 100-28 34-56 94-66 145-3 19-17 46-30 60s-26 40-30 58c-3 19-15 46-25 61-11 15-22 38-26 52-3 13-19 39-36 57l-29 32-102-4c-57-3-134-9-173-15-38-6-114-15-167-21-54-5-144-15-200-21-57-7-139-13-184-14-44-2-96-6-115-11-19-4-59-7-90-5-36 2-81-5-125-19-46-14-81-19-106-15-37 7-108-11-108-27 0-17-77-92-107-105-76-31-184-6-236 56-24 29-27 41-27 108 0 89 17 132 68 171 31 24 44 27 113 27 70 0 81-3 121-30 23-17 50-45 59-63 15-28 17-30 22-12 4 17 13 20 56 20 28 0 70 4 93 10 106 23 287 51 328 49 25-1 95 3 157 9 61 5 122 7 135 5 14-3 42 3 64 12 25 11 86 20 169 25 72 5 148 13 170 19s54 8 70 6c45-8 62 7 48 42-46 113-63 148-85 171-32 35-86 153-94 206-8 48-86 212-133 276-64 87-131 236-145 320-3 20-26 62-50 94-52 70-73 126-48 126 10 0 40 14 69 30 52 30 103 96 103 133 0 22 7 22 76-9zm-2903-941c-7-2-19-2-25 0-7 3-2 5 12 5s19-2 13-5zm-56-9c-3-3-12-4-19-1-8 3-5 6 6 6 11 1 17-2 13-5zm-180-30c-3-3-12-4-19-1-8 3-5 6 6 6 11 1 17-2 13-5zm-49-11c-10-2-26-2-35 0-10 3-2 5 17 5s27-2 18-5zm2799-1417c152-71 133-272-34-341-72-30-159-6-206 57s-30 195 34 259c55 55 123 63 206 25zm1093-1387c16-31 26-59 23-63-3-3 1-14 9-23 9-10 29-45 45-79 17-33 53-99 80-145 28-46 64-110 79-141s31-55 36-52c4 3 5-1 2-9-2-7 5-25 16-38 12-13 18-17 14-9s-3 11 1 7c5-4 10-14 11-22 1-7 14-29 28-48 14-18 33-53 41-78 9-24 40-80 69-124s88-147 131-228c42-82 89-163 104-180 15-18 54-81 86-142 65-124 191-342 210-365 7-8 36-60 65-115 28-55 62-114 76-132 13-18 33-53 44-78 13-30 24-44 31-39 8 4 9 3 5-4-4-6 2-24 12-39 51-74 78-123 99-172 12-30 30-62 39-70 13-12 13-8-3 19-28 47-39 85-23 75 17-10 52-93 45-104-5-10 38-89 79-145 32-43 123-201 174-303 27-54 46-82 54-77 7 4 8 3 4-4-7-12 64-146 91-172 10-9 8-4-4 15-27 41-38 63-26 50 27-28 52-68 47-77-3-5 0-16 7-24 7-9 23-40 35-69l21-54-96 7c-53 4-136 6-186 6-49-1-310-1-580-1-269 1-528 1-575 0s-179-1-295-1c-115 0-511 0-880-1-797-3-820-3-1012-2-115 1-293 6-293 8s16 24 36 50c20 27 46 68 57 93 78 175 128 268 200 374 104 153 147 227 232 396 37 74 87 160 111 191s59 85 77 120c59 113 158 292 205 369 25 41 71 122 101 180 31 58 66 119 77 135 31 44 105 169 153 260 24 44 57 98 75 120 36 43 76 116 76 137 0 18 165 314 205 368 19 25 66 106 106 180 39 74 102 182 139 240 36 58 77 122 89 143l24 38 34-48c19-26 48-73 63-104zm528-907c124-213 163-283 172-306 28-75-35 26-125 199-37 72-77 143-88 159-12 16-16 26-9 22 6-4 29-37 50-74zm1141-1974c16-45 3-32-24 25-21 42-22 47-6 27 11-14 25-37 30-52z"/><path d="m10249 12093c-13-16-12-17 4-4 9 7 17 15 17 17 0 8-8 3-21-13z"/><path d="m6210 11326c0-2 8-10 18-17 15-13 16-12 3 4s-21 21-21 13z"/><path d="m9362 11320c0-8 4-26 8-40 6-20 8-21 8-5 0 11-3 29-8 40-5 12-8 14-8 5z"/><path d="m9382 11230c0-14 2-19 5-12 2 6 2 18 0 25-3 6-5 1-5-13z"/><path d="m9392 11175c0-16 2-22 5-12 2 9 2 23 0 30-3 6-5-1-5-18z"/><path d="m7663 11133c9-2 25-2 35 0 9 3 1 5-18 5s-27-2-17-5z"/><path d="m9402 11125c-1-11 3-38 7-60 7-34 9-35 9-10 0 35-15 101-16 70z"/><path d="m7603 11123c9-2 23-2 30 0 6 3-1 5-18 5-16 0-22-2-12-5z"/><path d="m7543 11113c9-2 23-2 30 0 6 3-1 5-18 5-16 0-22-2-12-5z"/><path d="m6601 11094c0-11 3-14 6-6 3 7 2 16-1 19-3 4-6-2-5-13z"/><path d="m7463 11103c9-2 23-2 30 0 6 3-1 5-18 5-16 0-22-2-12-5z"/><path d="m7408 11093c7-3 16-2 19 1 4 3-2 6-13 5-11 0-14-3-6-6z"/><path d="m7368 11083c7-3 16-2 19 1 4 3-2 6-13 5-11 0-14-3-6-6z"/><path d="m7275 11060c-13-5-14-9-5-9 8 0 24 4 35 9 13 5 14 9 5 9-8 0-24-4-35-9z"/><path d="m7152 11023c-24-8-41-17-39-19s28 5 58 15c30 11 47 20 39 19-8 0-34-6-58-15z"/><path d="m9421 11003c-1-26 19-126 25-121 2 2-3 35-10 74-8 38-15 59-15 47z"/><path d="m6927 10932c-87-35-156-66-154-68 4-4 282 107 313 124 40 24-7 7-159-56z"/><path d="m6675 10819c-39-23-100-56-137-75-38-19-68-36-68-39 0-7 139 64 225 114 38 23 65 41 60 41-6 0-42-18-80-41z"/><path d="m5955 10308-40-43 43 40c39 36 47 45 39 45-2 0-21-19-42-42z"/><path d="m2313 8223c15-2 39-2 55 0 15 2 2 4-28 4s-43-2-27-4z"/><path d="m3023 8223c15-2 39-2 55 0 15 2 2 4-28 4s-43-2-27-4z"/><path d="m4048 8223c12-2 32-2 45 0 12 2 2 4-23 4s-35-2-22-4z"/><path d="m4518 8223c28-2 76-2 105 0 28 2 5 3-53 3s-81-1-52-3z"/><path d="m10973 8223c26-2 68-2 95 0 26 2 4 3-48 3s-74-1-47-3z"/><path d="m11333 8223c15-2 37-2 50 0 12 2 0 4-28 4-27 0-38-2-22-4z"/><path d="m2238 8213c7-3 16-2 19 1 4 3-2 6-13 5-11 0-14-3-6-6z"/><path d="m2443 8213c20-2 54-2 75 0 20 2 3 4-38 4s-58-2-37-4z"/><path d="m2848 8213c23-2 61-2 85 0 23 2 4 4-43 4s-66-2-42-4z"/><path d="m3118 8213c6-2 18-2 25 0 6 3 1 5-13 5s-19-2-12-5z"/><path d="m3273 8213c9-2 23-2 30 0 6 3-1 5-18 5-16 0-22-2-12-5z"/><path d="m3388 8213c12-2 30-2 40 0 9 3-1 5-23 4-22 0-30-2-17-4z"/><path d="m3628 8213c39-2 105-2 145 0 39 1 7 3-73 3s-112-2-72-3z"/><path d="m4203 8213c43-2 110-2 150 0 40 1 5 3-78 3-82 0-115-2-72-3z"/><path d="m4703 8213c9-2 25-2 35 0 9 3 1 5-18 5s-27-2-17-5z"/><path d="m5023 8213c9-2 23-2 30 0 6 3-1 5-18 5-16 0-22-2-12-5z"/><path d="m11188 8213c18-2 45-2 60 0s0 4-33 4-45-2-27-4z"/><path d="m11733 8213c9-2 25-2 35 0 9 3 1 5-18 5s-27-2-17-5z"/><path d="m11823 8213c9-2 23-2 30 0 6 3-1 5-18 5-16 0-22-2-12-5z"/><path d="m12018 8213c6-2 18-2 25 0 6 3 1 5-13 5s-19-2-12-5z"/><path d="m12293 8213c9-2 23-2 30 0 6 3-1 5-18 5-16 0-22-2-12-5z"/><path d="m13753 8213c20-2 54-2 75 0 20 2 3 4-38 4s-58-2-37-4z"/><path d="m2163 8203c9-2 23-2 30 0 6 3-1 5-18 5-16 0-22-2-12-5z"/><path d="m3178 8203c12-2 32-2 45 0 12 2 2 4-23 4s-35-2-22-4z"/><path d="m3888 8203c12-2 32-2 45 0 12 2 2 4-23 4s-35-2-22-4z"/><path d="m4883 8203c15-2 39-2 55 0 15 2 2 4-28 4s-43-2-27-4z"/><path d="m11918 8203c12-2 32-2 45 0 12 2 2 4-23 4s-35-2-22-4z"/><path d="m12637 8203c18-2 50-2 70 0 21 2 7 4-32 4-38 0-55-2-38-4z"/><path d="m9840 5027c0-2 15-16 33-33l32-29-29 33c-28 30-36 37-36 29z"/><path d="m10080 4636c0-2 8-10 18-17 15-13 16-12 3 4s-21 21-21 13z"/><path d="m10430 4016c0-2 8-10 18-17 15-13 16-12 3 4s-21 21-21 13z"/><path d="m10640 3660c6-11 13-20 16-20 2 0 0 9-6 20s-13 20-16 20c-2 0 0-9 6-20z"/><path d="m5211 3364c0-11 3-14 6-6 3 7 2 16-1 19-3 4-6-2-5-13z"/><path d="m10850 3277c0-2 15-16 33-33l32-29-29 33c-28 30-36 37-36 29z"/><path d="m5119 3213c-13-16-12-17 4-4 9 7 17 15 17 17 0 8-8 3-21-13z"/><path d="m5085 3159c-4-6-5-12-2-15 2-3 7 2 10 11 7 17 1 20-8 4z"/><path d="m5066 3115c-9-26-7-32 5-12 6 10 9 21 6 23-2 3-7-2-11-11z"/><path d="m7290 9400c0-12 16-50 35-84s46-98 60-142c25-75 70-159 100-184 7-6 23-36 35-68 12-31 30-75 41-98 10-23 19-47 19-55s14-26 32-41c27-22 33-33 33-71 1-29 8-53 23-72 12-15 29-53 38-82 9-30 27-64 40-76 13-11 24-29 24-39 0-9 23-63 52-118 38-75 55-99 66-95 9 3 90 10 181 16s211 14 266 19 174 14 265 20c101 6 191 18 232 29 58 17 76 18 132 8 60-10 67-9 125 17 48 21 70 26 100 21 23-4 70 0 117 10 44 10 115 20 159 24l80 7-45 13c-53 15-199 84-252 119-20 13-71 34-112 47-42 13-88 32-103 43-16 11-39 23-53 27s-67 29-119 56-102 49-111 49c-10 0-67 26-126 57-60 31-159 82-221 113s-121 64-132 74-49 29-84 41c-35 13-86 37-113 54-26 17-61 31-78 31-32 0-137 54-195 100-20 16-52 32-71 36s-67 24-106 45c-39 22-83 39-96 39-44 0-109 29-149 65-22 19-43 35-48 35s-17 7-25 16c-15 14-16 13-16-6z"/><path d="m6413 7925c0-22 2-30 4-17 2 12 2 30 0 40-3 9-5-1-4-23z"/><path d="m8010 5856c0-17 73-145 93-163l22-18-18 22c-10 12-36 54-58 95-21 40-39 69-39 64z"/></g></svg>