<svg width="121" height="112" viewBox="0 0 121 112" fill="none" xmlns="http://www.w3.org/2000/svg">
<g id="apply">
<path id="Vector" d="M43.5985 85.9174C43.5985 90.4535 43.4578 95.0189 43.5985 99.5501C43.7391 104.081 46.7573 107.864 50.9137 108.035C51.4636 108.06 52.0178 108.035 52.5677 108.035H108.131C111.725 108.035 115.284 108.006 117.42 103.876C118.703 101.4 118.418 98.3757 118.418 95.6061C118.418 72.8817 118.418 50.1573 118.418 27.4377V15.1067C118.418 11.8869 118.644 8.69158 116.653 6.02474C114.261 2.82453 110.979 3.10344 107.722 3.10344H52.2778C51.3613 3.10344 50.4235 3.05451 49.5197 3.25024C45.7641 4.07721 43.624 7.8744 43.5942 12.0582C43.5771 14.3825 43.5942 16.7117 43.5942 19.036C43.5942 20.9248 41.0364 20.9297 41.0364 19.036C41.0364 12.8362 40.2989 6.01495 45.4614 2.0465C48.2664 -0.10655 51.4338 0.162581 54.6139 0.162581H86.3047C94.4896 0.167474 102.696 -0.0331508 110.881 0.167474C116.516 0.304486 120.83 5.1048 120.975 11.6129C121.031 14.0595 120.975 16.5159 120.975 18.9626C120.975 43.2235 120.975 67.4844 120.975 91.7453C120.975 94.3143 121.027 96.893 120.975 99.4669C120.843 105.951 116.602 110.81 110.957 110.976C102.96 111.206 94.933 110.976 86.9314 110.976C76.3081 110.976 65.6848 110.976 55.0573 110.976C52.1372 110.976 49.1062 111.299 46.412 109.733C40.4481 106.259 41.0322 99.002 41.0322 92.5429C41.0322 90.6541 43.5899 90.6492 43.5899 92.5429L43.5985 85.9174Z" fill="#4799A9"/>
<g id="Group">
<path id="Vector_2" d="M98.2824 24.8834H58.7395C57.1968 24.8834 57.1928 21.9473 58.7395 21.9473H98.2824C99.8251 21.9473 99.8291 24.8834 98.2824 24.8834Z" fill="#4799A9"/>
<path id="Vector_3" d="M98.2824 46.322H58.7395C57.1968 46.322 57.1928 43.3859 58.7395 43.3859H98.2824C99.8251 43.3859 99.8291 46.322 98.2824 46.322Z" fill="#4799A9"/>
<path id="Vector_4" d="M98.2824 67.7605H72.2402C70.6975 67.7605 70.6935 64.8243 72.2402 64.8243H98.2824C99.8251 64.8243 99.8291 67.7605 98.2824 67.7605Z" fill="#4799A9"/>
<path id="Vector_5" d="M98.2824 89.1942H78.9906C77.4478 89.1942 77.4438 86.2581 78.9906 86.2581H98.2824C99.8251 86.2581 99.8291 89.1942 98.2824 89.1942Z" fill="#4799A9"/>
</g>
<g id="Group_2">
<path id="Vector_6" d="M49.1483 84.5198C56.2007 86.7121 63.2579 88.8995 70.3103 91.0918L68.5119 92.8975C67.1472 87.2895 65.7826 81.6815 64.4179 76.0784L63.5504 72.5208C63.4821 72.2321 63.2823 71.7966 63.3018 71.4981C63.3359 71.0087 63.5357 71.8406 63.5942 71.9042C62.8095 71.0821 62.0395 70.2502 61.2646 69.4232C52.0433 59.5872 42.8221 49.7512 33.596 39.9201C30.1502 36.2451 26.6996 32.5651 23.2538 28.8901C21.8014 27.3388 20.2857 25.9638 17.9609 26.0078C14.4956 26.0714 11.508 30.0107 9.18316 32.252C6.48795 34.8504 6.19553 38.271 8.72503 41.1092C9.68517 42.1907 10.7038 43.2232 11.6932 44.2754C16.065 48.9389 20.4368 53.5975 24.8086 58.2611C33.133 67.1379 41.4623 76.0197 49.7868 84.8966C51.0783 86.2717 49.0118 88.3514 47.7203 86.9714C40.0538 78.7943 32.3873 70.6172 24.7208 62.4402C19.9543 57.3607 15.1926 52.2763 10.426 47.1968C7.26776 43.83 3.17864 40.5122 4.14365 35.3006C4.84548 31.4983 8.26201 29.0907 10.9036 26.595C13.9595 23.7078 17.7416 21.9168 21.8745 23.9476C25.218 25.5919 27.9668 29.6192 30.4427 32.2617C40.4827 42.9688 50.5178 53.6709 60.5579 64.378C62.0785 65.9978 63.6235 67.6028 65.1197 69.2422C66.0409 70.2502 66.2358 71.1751 66.5624 72.5159C68.1512 79.0488 69.7401 85.5817 71.3338 92.1096C71.5873 93.1618 70.632 94.2579 69.5354 93.9154C62.483 91.7231 55.4257 89.5356 48.3734 87.3433C46.5798 86.7855 47.345 83.9521 49.1532 84.51L49.1483 84.5198Z" fill="#4799A9"/>
<path id="Vector_7" d="M31.9679 35.9661C26.6652 40.9771 21.3626 45.9881 16.0647 50.9991C14.6952 52.2959 12.6238 50.221 13.9983 48.9242C19.3009 43.9132 24.6036 38.9023 29.9015 33.8913C31.271 32.5945 33.3423 34.6693 31.9679 35.9661Z" fill="#4799A9"/>
<path id="Vector_8" d="M65.6999 71.9385C60.3972 76.9495 55.0945 81.9605 49.7967 86.9764C48.4271 88.2732 46.3558 86.1983 47.7302 84.9015C53.0329 79.8905 58.3356 74.8796 63.6334 69.8637C65.0029 68.5669 67.0743 70.6418 65.6999 71.9385Z" fill="#4799A9"/>
<path id="Vector_9" d="M24.0143 41.4078C33.8594 51.9093 43.7045 62.4059 53.5495 72.9075C54.9483 74.4 56.3471 75.8876 57.741 77.3801C59.0326 78.7552 56.9661 80.835 55.6745 79.455C45.8294 68.9535 35.9844 58.4569 26.1393 47.9553C24.7405 46.4628 23.3417 44.9752 21.9478 43.4827C20.6563 42.1076 22.7228 40.0278 24.0143 41.4078Z" fill="#4799A9"/>
</g>
</g>
</svg>
