<svg width="105" height="151" viewBox="0 0 105 151" fill="none" xmlns="http://www.w3.org/2000/svg">
<g id="Frame 1000003407">
<g id="Group">
<path id="Vector" d="M1.5 113.444V17.6581C1.5 8.84053 8.70978 1.69385 17.6053 1.69385H76.6578C85.5533 1.69385 92.7631 8.84053 92.7631 17.6581V92.1581" stroke="#4799A9" stroke-width="3" stroke-linecap="round" stroke-linejoin="round"/>
<path id="Vector_2" d="M1.5 17.6581H87.3947" stroke="#4799A9" stroke-width="3" stroke-linecap="round" stroke-linejoin="round"/>
<g id="Group_2">
<path id="Vector_3" d="M71.2896 84.176C71.2896 81.1641 68.6054 78.8546 65.9212 78.8546C63.2369 78.8546 60.5527 81.2386 60.5527 84.176" stroke="#4799A9" stroke-width="3" stroke-linecap="round" stroke-linejoin="round"/>
<g id="Group_3">
<path id="Vector_4" d="M53.2788 137.39C55.5496 144.303 60.1933 150.694 71.2899 150.694" stroke="#4799A9" stroke-width="3" stroke-linecap="round" stroke-linejoin="round"/>
<path id="Vector_5" d="M71.2896 105.462V84.176C71.2896 81.1641 68.6054 78.8546 65.9212 78.8546C63.237 78.8546 60.5528 81.2386 60.5528 84.176V129.408V126.747C60.5528 126.747 60.5528 118.765 57.8686 113.444C56.3923 110.522 51.2547 105.973 47.1318 108.122C42.3807 110.602 48.1196 118.063 49.816 121.426C51.1151 123.996 51.1581 130.925 53.2786 137.39" stroke="#4799A9" stroke-width="3" stroke-linecap="round" stroke-linejoin="round"/>
<path id="Vector_6" d="M71.2896 110.783V105.462C71.2896 102.524 73.9738 100.14 76.658 100.14C79.3422 100.14 82.0264 102.45 82.0264 105.462V113.444" stroke="#4799A9" stroke-width="3" stroke-linecap="round" stroke-linejoin="round"/>
<path id="Vector_7" d="M82.0264 108.122C82.0264 105.185 84.7106 102.801 87.3948 102.801C90.079 102.801 92.7632 105.111 92.7632 108.122V116.105" stroke="#4799A9" stroke-width="3" stroke-linecap="round" stroke-linejoin="round"/>
<path id="Vector_8" d="M92.7632 110.783C92.7632 107.846 95.4474 105.462 98.1316 105.462C100.816 105.462 103.5 107.771 103.5 110.783V129.408" stroke="#4799A9" stroke-width="3" stroke-linecap="round" stroke-linejoin="round"/>
</g>
</g>
<path id="Vector_9" d="M52.5002 81.5153H28.3423V44.2653H65.9212V49.5867" stroke="#4799A9" stroke-width="3" stroke-linecap="round" stroke-linejoin="round"/>
<path id="Vector_10" d="M65.9209 65.551V70.8725" stroke="#4799A9" stroke-width="3" stroke-linecap="round" stroke-linejoin="round"/>
<path id="Vector_11" d="M33.7104 60.2295L47.1315 73.5331L73.9736 49.5867" stroke="#4799A9" stroke-width="3" stroke-linecap="round" stroke-linejoin="round"/>
</g>
</g>
</svg>
