<svg width="102" height="129" viewBox="0 0 102 129" fill="none" xmlns="http://www.w3.org/2000/svg">
<g id="Isolation_Mode" clip-path="url(#clip0_82_292)">
<g id="Group">
<path id="Vector" d="M50.7044 128.078C50.5921 128.078 50.4798 128.068 50.3674 128.043L10.3839 119.351C4.36353 118.042 -0.00341797 112.622 -0.00341797 106.461V31.2154C-0.00341797 27.2066 1.78689 23.461 4.91115 20.9475C8.03191 18.4305 12.0724 17.4757 15.99 18.3287L24.5905 20.1963C25.4435 20.3823 25.9841 21.2213 25.7981 22.0743C25.612 22.9274 24.7695 23.468 23.92 23.2819L15.3195 21.4144C12.3392 20.7685 9.26757 21.4916 6.89453 23.4048C4.5215 25.318 3.15946 28.1649 3.15946 31.2154V106.461C3.15946 111.144 6.48031 115.269 11.0579 116.262L49.1247 124.536V87.4065C49.1247 86.5324 49.8303 85.8269 50.7044 85.8269C51.5785 85.8269 52.2841 86.5324 52.2841 87.4065V126.495C52.2841 126.972 52.0665 127.425 51.6944 127.724C51.41 127.952 51.059 128.075 50.7044 128.075V128.078Z" fill="#4799A9"/>
<path id="Vector_2" d="M50.7042 128.078C50.3461 128.078 49.9951 127.955 49.7143 127.727C49.3422 127.429 49.1245 126.976 49.1245 126.498V87.4101C49.1245 86.536 49.8301 85.8304 50.7042 85.8304C51.5783 85.8304 52.2839 86.536 52.2839 87.4101V124.54L90.3507 116.266C94.9283 115.272 98.2492 111.147 98.2492 106.465V31.2155C98.2492 28.1649 96.8871 25.318 94.5141 23.4048C92.141 21.4916 89.0694 20.765 86.0891 21.4144L79.5317 22.8396C78.6786 23.0222 77.8361 22.4851 77.6536 21.632C77.4711 20.779 78.0081 19.9365 78.8612 19.754L85.4186 18.3287C89.3362 17.4792 93.3767 18.4305 96.4975 20.9475C99.6182 23.4645 101.412 27.2066 101.412 31.2155V106.461C101.412 112.622 97.0416 118.042 91.0247 119.351L51.0412 128.043C50.9289 128.068 50.8165 128.078 50.7042 128.078Z" fill="#4799A9"/>
</g>
<path id="Vector_3" d="M33.0679 79.8311C32.6853 79.8311 32.3167 79.6942 32.0253 79.438C31.6848 79.1396 31.4882 78.7043 31.4882 78.2515V71.8028C31.4882 71.1323 31.9095 70.5356 32.5413 70.3144L44.891 65.9545L43.6764 38.1977L17.5168 47.3388C17.0324 47.5073 16.4988 47.4336 16.081 47.1352C15.6633 46.8368 15.4141 46.3594 15.4141 45.8469V43.3545C15.4141 39.6054 17.4571 36.1582 20.7464 34.3608L44.6101 21.3197L44.6487 17.5144C44.6909 13.4844 45.1086 7.71332 46.8533 3.11469C47.5518 1.27523 49.2825 0.0852051 51.2588 0.0852051C53.2457 0.0852051 54.9834 1.28576 55.6855 3.13926C57.8619 8.89984 58.0971 15.6012 58.1182 17.5179L58.1568 21.3267L81.8134 34.3608C85.0851 36.1617 87.1177 39.6019 87.1177 43.3369V45.8504C87.1177 46.3629 86.8684 46.8438 86.4507 47.1387C86.0329 47.4336 85.4994 47.5108 85.0149 47.3423L58.8554 38.2012L57.6408 65.958L69.9904 70.3179C70.6222 70.5426 71.0435 71.1394 71.0435 71.8063V78.255C71.0435 78.7078 70.8469 79.1431 70.5064 79.4415C70.1659 79.7399 69.7095 79.8803 69.2602 79.8206L51.2588 77.4827L33.2575 79.8206C33.1908 79.8311 33.1206 79.8346 33.0539 79.8346L33.0679 79.8311ZM51.2729 74.3093C51.3396 74.3093 51.4098 74.3128 51.4765 74.3233L67.8982 76.4576V72.9262L55.4994 68.5487C54.843 68.317 54.4182 67.6851 54.4463 66.9901L55.8048 35.9405C55.8259 35.442 56.0821 34.9822 56.4964 34.7013C56.9106 34.4205 57.4301 34.3538 57.904 34.5188L83.9688 43.6248V43.3369C83.9688 40.7533 82.5647 38.3732 80.3004 37.127L55.8364 23.6471C55.3379 23.3733 55.0255 22.8502 55.0185 22.2815L54.9693 17.5495C54.9307 13.8706 54.3234 8.447 52.7402 4.25557C52.3857 3.31829 51.5221 3.24457 51.2659 3.24457C51.0131 3.24457 50.1636 3.31478 49.8125 4.23802C48.2329 8.40136 47.8537 13.7758 47.8151 17.5495L47.766 22.2815C47.759 22.8537 47.4465 23.3768 46.9445 23.6506L22.2699 37.134C19.9951 38.3767 18.5805 40.7603 18.5805 43.3545V43.6248L44.6452 34.5188C45.1191 34.3538 45.6387 34.4205 46.0529 34.7013C46.4671 34.9822 46.7234 35.442 46.7445 35.9405L48.103 66.9901C48.1346 67.6851 47.7063 68.317 47.0499 68.5487L34.6511 72.9262V76.4576L51.0728 74.3233C51.1395 74.3163 51.2097 74.3093 51.2764 74.3093H51.2729Z" fill="#4799A9"/>
</g>
<defs>
<clipPath id="clip0_82_292">
<rect width="101.412" height="128" fill="white" transform="translate(0 0.078125)"/>
</clipPath>
</defs>
</svg>
