<svg width="60" height="24" viewBox="0 0 60 24" fill="none" xmlns="http://www.w3.org/2000/svg">
<path d="M16.1915 20.2612C17.9153 20.2612 19.3482 19.2537 19.9527 18.0672V20.0149H23.1765V3H19.9527V10.0522C19.3034 8.86567 18.1392 8.03731 16.2586 8.03731C13.3258 8.03731 11.1094 10.2985 11.1094 14.1493V14.3284C11.1094 18.2239 13.3482 20.2612 16.1915 20.2612ZM17.1542 17.7313C15.5422 17.7313 14.4228 16.5896 14.4228 14.2612V14.0821C14.4228 11.7537 15.4303 10.5224 17.2437 10.5224C19.0124 10.5224 20.0422 11.709 20.0422 14.0373V14.2164C20.0422 16.5896 18.8556 17.7313 17.1542 17.7313Z" fill="#121A24"/>
<path d="M28.465 20.2612C30.3008 20.2612 31.3307 19.5448 32.0023 18.6045V20.0149H35.159V12.3806C35.159 9.20149 33.1217 8.03731 30.2561 8.03731C27.3904 8.03731 25.1964 9.26866 24.9949 12.0448H28.062C28.1964 11.0373 28.7784 10.3881 30.0546 10.3881C31.5322 10.3881 31.9576 11.1493 31.9576 12.5373V13.0075H30.6367C27.0546 13.0075 24.5471 14.0373 24.5471 16.7687C24.5471 19.2313 26.3382 20.2612 28.465 20.2612ZM29.4277 18C28.2411 18 27.7262 17.4403 27.7262 16.5896C27.7262 15.3358 28.8232 14.9328 30.7038 14.9328H31.9576V15.9179C31.9576 17.2164 30.8605 18 29.4277 18Z" fill="#121A24"/>
<path d="M37.2353 20.0149H40.4592V8.30597H37.2353V20.0149ZM38.8248 6.71642C39.8771 6.71642 40.683 5.95522 40.683 4.94776C40.683 3.9403 39.8771 3.1791 38.8248 3.1791C37.795 3.1791 36.989 3.9403 36.989 4.94776C36.989 5.95522 37.795 6.71642 38.8248 6.71642Z" fill="#121A24"/>
<path d="M42.7324 20.0149H45.9562V3H42.7324V20.0149Z" fill="#121A24"/>
<path d="M52.9225 24L59.2438 8.30597H56.1533L53.5124 15.3358L50.6691 8.30597H47.1766L51.8643 18.8965L49.7835 24H52.9225Z" fill="#121A24"/>
<path d="M0 24H3.14062L12.8075 0H9.74366L0 24Z" fill="url(#paint0_linear)"/>
<defs>
<linearGradient id="paint0_linear" x1="6.66546" y1="-0.167164" x2="6.66546" y2="22.5" gradientUnits="userSpaceOnUse">
<stop stop-color="#1BEBB9"/>
<stop offset="1" stop-color="#FF9254"/>
</linearGradient>
</defs>
</svg>
