<svg width="24" height="24" viewBox="0 0 24 24" fill="none" xmlns="http://www.w3.org/2000/svg">
<path d="M12 9C10.4 9 8.85 9.25 7.4 9.72V12.82C7.4 13.21 7.17 13.56 6.84 13.72C5.86 14.21 4.97 14.84 4.18 15.57C4 15.75 3.75 15.85 3.48 15.85C3.2 15.85 2.95 15.74 2.77 15.56L0.29 13.08C0.11 12.91 0 12.66 0 12.38C0 12.1 0.11 11.85 0.29 11.67C3.34 8.78 7.46 7 12 7C16.54 7 20.66 8.78 23.71 11.67C23.89 11.85 24 12.1 24 12.38C24 12.66 23.89 12.91 23.71 13.09L21.23 15.57C21.05 15.75 20.8 15.86 20.52 15.86C20.25 15.86 20 15.75 19.82 15.58C19.03 14.84 18.13 14.22 17.15 13.73C16.82 13.57 16.59 13.23 16.59 12.83V9.73C15.15 9.25 13.6 9 12 9Z" fill="white"/>
</svg>
