<svg width="16" height="16" viewBox="0 0 16 16" fill="none" xmlns="http://www.w3.org/2000/svg">
<path fill-rule="evenodd" clip-rule="evenodd" d="M8.5 3C8.22386 3 8 3.22386 8 3.5C8 3.77614 8.22386 4 8.5 4H11.2929L6.14645 9.14645C5.95118 9.34171 5.95118 9.65829 6.14645 9.85355C6.34171 10.0488 6.65829 10.0488 6.85355 9.85355L12 4.70711V7.5C12 7.77614 12.2239 8 12.5 8C12.7761 8 13 7.77614 13 7.5V3.5C13 3.22386 12.7761 3 12.5 3H8.5ZM4 6.5C4 5.67157 4.67157 5 5.5 5H6C6.27614 5 6.5 4.77614 6.5 4.5C6.5 4.22386 6.27614 4 6 4H5.5C4.11929 4 3 5.11929 3 6.5V10.5C3 11.8807 4.11929 13 5.5 13H9.5C10.8807 13 12 11.8807 12 10.5V10C12 9.72386 11.7761 9.5 11.5 9.5C11.2239 9.5 11 9.72386 11 10V10.5C11 11.3284 10.3284 12 9.5 12H5.5C4.67157 12 4 11.3284 4 10.5V6.5Z" fill="#121A24"/>
</svg>
