<svg width="24" height="24" viewBox="0 0 24 24" fill="none" xmlns="http://www.w3.org/2000/svg">
<path d="M20.5303 4.53033C20.8232 4.23744 20.8232 3.76256 20.5303 3.46967C20.2374 3.17678 19.7626 3.17678 19.4697 3.46967L14.6168 8.32252L14.6162 8.32164L6.43781 16.5H6.43934L3.46967 19.4697C3.17678 19.7626 3.17678 20.2374 3.46967 20.5303C3.76256 20.8232 4.23744 20.8232 4.53033 20.5303L8.56066 16.5H13C14.1046 16.5 15 15.6046 15 14.5V10.0607L20.5303 4.53033Z" fill="#fff"/>
<path d="M13.2949 7.52159C13.1987 7.50737 13.1002 7.5 13 7.5H5C3.89543 7.5 3 8.39543 3 9.5V14.5C3 15.3978 3.59155 16.1574 4.40614 16.4104L13.2949 7.52159Z" fill="#fff"/>
<path d="M16.5 10.9491C16.5 10.6634 16.6221 10.3914 16.8356 10.2017L19.3356 7.97943C19.9805 7.40618 21 7.86399 21 8.72684V15.2732C21 16.136 19.9805 16.5938 19.3356 16.0206L16.8356 13.7983C16.6221 13.6086 16.5 13.3366 16.5 13.0509V10.9491Z" fill="#fff"/>
</svg>
