<svg width="60" height="60" viewBox="0 0 60 60" fill="none" xmlns="http://www.w3.org/2000/svg">
<path d="M30 0H17C16.4478 0 16 0.447754 16 1V8H1C0.447754 8 0 8.44775 0 9V59C0 59.5522 0.447754 60 1 60H30C30.5522 60 31 59.5522 31 59V1C31 0.447754 30.5522 0 30 0ZM29 52H18V50H29V52ZM2 15H16V45H2V15ZM29 11H18V8H29V11ZM2 47H16V50H2V47ZM18 48V13H29V48H18ZM29 2V6H18V2H29ZM16 10V13H2V10H16ZM2 52H16V58H2V52ZM18 58V54H29V58H18Z" fill="url(#paint0_linear)"/>
<path d="M59.9679 54.7488L47.9679 8.74884C47.901 8.49103 47.734 8.27082 47.5035 8.13654C47.2735 8.00275 46.9996 7.96613 46.7423 8.03498L31.7422 12.035C31.211 12.1766 30.8936 12.7205 31.0323 13.2528L43.0323 59.2527C43.0992 59.5106 43.2667 59.7308 43.4971 59.8646C43.7271 59.9979 44.0011 60.034 44.2579 59.9647L59.2579 55.9647C59.7882 55.8231 60.1051 55.2801 59.9679 54.7488ZM34.8121 19.8187L47.88 16.3348L48.3502 18.1346L35.2833 21.6238L34.8121 19.8187ZM48.8551 20.075L54.6549 42.3226L41.5919 45.8079L35.7921 23.5589L48.8551 20.075ZM55.1642 44.2586L56.1881 48.1829L43.1202 51.6668L42.1002 47.744L55.1642 44.2586ZM46.2862 10.2259L47.3751 14.4007L34.3072 17.8836L33.2193 13.7108L46.2862 10.2259ZM44.7139 57.7757L43.6251 53.6009L56.693 50.116L57.7809 54.2889L44.7139 57.7757Z" fill="url(#paint1_linear)"/>
<path d="M13 18H5C4.44775 18 4 18.4478 4 19V27C4 27.5522 4.44775 28 5 28H13C13.5522 28 14 27.5522 14 27V19C14 18.4478 13.5522 18 13 18ZM12 26H6V20H12V26Z" fill="url(#paint2_linear)"/>
<defs>
<linearGradient id="paint0_linear" x1="0" y1="0" x2="63.9049" y2="23.4035" gradientUnits="userSpaceOnUse">
<stop stop-color="#355EA0"/>
<stop offset="0.2" stop-color="#355EA0"/>
<stop offset="0.846073" stop-color="#5DB9AC"/>
<stop offset="1" stop-color="#38F1E0"/>
</linearGradient>
<linearGradient id="paint1_linear" x1="30.9998" y1="8.00098" x2="89.6363" y2="31.1812" gradientUnits="userSpaceOnUse">
<stop stop-color="#355EA0"/>
<stop offset="0.2" stop-color="#355EA0"/>
<stop offset="0.846073" stop-color="#5DB9AC"/>
<stop offset="1" stop-color="#38F1E0"/>
</linearGradient>
<linearGradient id="paint2_linear" x1="4" y1="18" x2="19.561" y2="29.03" gradientUnits="userSpaceOnUse">
<stop stop-color="#355EA0"/>
<stop offset="0.2" stop-color="#355EA0"/>
<stop offset="0.846073" stop-color="#5DB9AC"/>
<stop offset="1" stop-color="#38F1E0"/>
</linearGradient>
</defs>
</svg>
