<svg width="62" height="57" viewBox="0 0 62 57" fill="none" xmlns="http://www.w3.org/2000/svg">
<path fill-rule="evenodd" clip-rule="evenodd" d="M60.5214 4.91948L57.6724 7.41103L60.5214 9.90309C60.9645 10.2911 61.1161 10.8965 60.9075 11.4452C60.699 11.9939 60.1827 12.3487 59.5916 12.3487H47.8022V26.5093H53.7139C55.5533 26.5093 57.0498 27.9958 57.0498 29.8229V54.842H59.5911C60.1308 54.842 60.5682 55.2766 60.5682 55.8127C60.5682 56.3488 60.1308 56.7833 59.5911 56.7833H1.97715C1.43746 56.7833 1 56.3488 1 55.8127C1 55.2766 1.43746 54.842 1.97715 54.842H4.32314V51.3657C4.32314 49.5381 5.81964 48.052 7.65899 48.052H15.6344C16.1273 48.052 16.5948 48.1591 17.016 48.3506V45.5489C17.016 43.7218 18.5125 42.2352 20.3523 42.2352H28.4075C28.8405 42.2352 29.2753 42.3152 29.663 42.5148V39.6808C29.663 37.1669 30.3913 36.1801 32.4108 36.1801H40.8786C41.4496 36.1801 41.8668 36.2982 42.2614 36.6798V29.8229C42.2614 27.9754 43.6146 26.5093 45.8478 26.5093V1.97065C45.8478 1.43454 46.2853 1 46.825 1C47.3647 1 47.8022 1.43454 47.8022 1.97065V2.47391H59.5921C60.1827 2.47391 60.699 2.82862 60.908 3.37786C61.1161 3.9266 60.9645 4.53142 60.5214 4.91948ZM7.65842 49.9929C6.89651 49.9929 6.27701 50.6083 6.27701 51.3647V54.8416H17.015V51.3647C17.015 50.6083 16.395 49.9929 15.6331 49.9929H7.65842ZM18.9685 51.3663V45.5499C18.9685 44.793 19.5885 44.1776 20.3505 44.1776H28.3251C29.087 44.1776 29.7065 44.793 29.7065 45.5499V54.8431H18.969V51.3663H18.9685ZM55.0934 54.8418V29.8228C55.0934 29.0663 54.4734 28.4504 53.7114 28.4504H46.8334C46.8303 28.4504 46.8268 28.4509 46.8237 28.4509C46.8202 28.4509 46.8166 28.4504 46.8135 28.4504H45.7373C44.9754 28.4504 44.3554 29.0658 44.3554 29.8228V44.1657C44.3554 44.7018 43.9185 45.1364 43.3783 45.1364C42.8387 45.1364 42.4013 44.7018 42.4013 44.1657V39.2998C42.4013 38.5434 41.7818 37.928 41.0199 37.928H33.0452C32.2833 37.928 31.6638 38.5434 31.6638 39.2998V54.8418H42.4013V49.022C42.4013 48.4859 42.8387 48.0513 43.3788 48.0513C43.9185 48.0513 44.3559 48.4859 44.3559 49.022V54.8418H55.0934ZM47.8019 10.4068V4.41564H58.1386L55.9124 6.363C55.6093 6.62827 55.4353 7.01027 55.4353 7.41146C55.4353 7.81266 55.6093 8.19465 55.9124 8.45992L58.1386 10.4073H47.8019V10.4068ZM20.9318 31.7214C12.4727 38.2507 1.7157 43.8374 1.7157 43.8374C1.24469 43.8374 1 43.5914 1 43.1007C1 43.1007 13.5851 35.7228 21.4832 28.6861C27.0283 23.7457 29.5554 20.9856 31.47 18.8944C32.2824 18.0071 32.9845 17.2402 33.7601 16.4783L31.2166 14.0769C31.0406 13.7867 31.2166 13.5349 31.6539 13.5349C31.6539 13.5349 38.3055 13.5771 38.4492 13.5771C38.5929 13.5771 38.7538 13.7193 38.7912 13.8488C38.8286 13.9784 39.0786 20.5194 39.0786 20.5194C39.0967 20.8783 38.8462 21.0859 38.5754 20.9646L36.0447 18.5902C33.6699 20.9698 29.3909 25.192 20.9318 31.7214Z" fill="url(#paint0_linear)"/>
<path d="M57.6724 7.41103L57.5407 7.26048L57.3686 7.41102L57.5407 7.56157L57.6724 7.41103ZM60.5214 4.91948L60.6531 5.07003L60.6532 5.06993L60.5214 4.91948ZM60.5214 9.90309L60.6532 9.75264L60.6531 9.75255L60.5214 9.90309ZM60.9075 11.4452L61.0945 11.5163L60.9075 11.4452ZM47.8022 12.3487V12.1487H47.6022V12.3487H47.8022ZM47.8022 26.5093H47.6022V26.7093H47.8022V26.5093ZM57.0498 54.842H56.8498V55.042H57.0498V54.842ZM4.32314 54.842V55.042H4.52314V54.842H4.32314ZM17.016 48.3506L16.9332 48.5327L17.216 48.6613V48.3506H17.016ZM29.663 42.5148L29.5714 42.6926L29.863 42.8428V42.5148H29.663ZM42.2614 36.6798L42.1224 36.8236L42.4614 37.1514V36.6798H42.2614ZM45.8478 26.5093V26.7093H46.0478V26.5093H45.8478ZM47.8022 2.47391H47.6022V2.67391H47.8022V2.47391ZM60.908 3.37786L61.095 3.30696L61.0949 3.30671L60.908 3.37786ZM6.27701 54.8416H6.07701V55.0416H6.27701V54.8416ZM17.015 54.8416V55.0416H17.215V54.8416H17.015ZM18.9685 51.3663H18.7685V51.5663H18.9685V51.3663ZM29.7065 54.8431V55.0431H29.9065V54.8431H29.7065ZM18.969 54.8431H18.769V55.0431H18.969V54.8431ZM18.969 51.3663H19.169V51.1663H18.969V51.3663ZM55.0934 54.8418V55.0418H55.2934V54.8418H55.0934ZM31.6638 54.8418H31.4638V55.0418H31.6638V54.8418ZM42.4013 54.8418V55.0418H42.6013V54.8418H42.4013ZM44.3559 54.8418H44.1559V55.0418H44.3559V54.8418ZM47.8019 4.41564V4.21564H47.6019V4.41564H47.8019ZM58.1386 4.41564L58.2703 4.56617L58.671 4.21564H58.1386V4.41564ZM55.9124 6.363L55.7807 6.21246L55.7807 6.21249L55.9124 6.363ZM55.9124 8.45992L55.7807 8.61043L55.7807 8.61046L55.9124 8.45992ZM58.1386 10.4073V10.6073H58.671L58.2703 10.2568L58.1386 10.4073ZM47.8019 10.4073H47.6019V10.6073H47.8019V10.4073ZM1.7157 43.8374V44.0374H1.76453L1.80787 44.0149L1.7157 43.8374ZM1 43.1007L0.898852 42.9282L0.8 42.9862V43.1007H1ZM21.4832 28.6861L21.3501 28.5368L21.4832 28.6861ZM31.47 18.8944L31.3225 18.7594L31.47 18.8944ZM33.7601 16.4783L33.9003 16.621L34.0484 16.4755L33.8974 16.3329L33.7601 16.4783ZM31.2166 14.0769L31.0456 14.1807L31.0597 14.2038L31.0793 14.2224L31.2166 14.0769ZM31.6539 13.5349L31.6552 13.3349H31.6539V13.5349ZM38.7912 13.8488L38.9833 13.7934V13.7934L38.7912 13.8488ZM39.0786 20.5194L38.8787 20.527L38.8789 20.5294L39.0786 20.5194ZM38.5754 20.9646L38.4386 21.1104L38.463 21.1334L38.4936 21.1471L38.5754 20.9646ZM36.0447 18.5902L36.1816 18.4444L36.0401 18.3117L35.9032 18.449L36.0447 18.5902ZM57.804 7.56158L60.6531 5.07003L60.3898 4.76893L57.5407 7.26048L57.804 7.56158ZM60.6531 9.75255L57.804 7.26049L57.5407 7.56157L60.3898 10.0536L60.6531 9.75255ZM61.0945 11.5163C61.3328 10.8891 61.1588 10.1955 60.6532 9.75264L60.3897 10.0535C60.7701 10.3868 60.8993 10.9039 60.7206 11.3742L61.0945 11.5163ZM59.5916 12.5487C60.265 12.5487 60.8562 12.1433 61.0945 11.5163L60.7206 11.3742C60.5417 11.8446 60.1003 12.1487 59.5916 12.1487V12.5487ZM47.8022 12.5487H59.5916V12.1487H47.8022V12.5487ZM48.0022 26.5093V12.3487H47.6022V26.5093H48.0022ZM53.7139 26.3093H47.8022V26.7093H53.7139V26.3093ZM57.2498 29.8229C57.2498 27.8841 55.6624 26.3093 53.7139 26.3093V26.7093C55.4441 26.7093 56.8498 28.1075 56.8498 29.8229H57.2498ZM57.2498 54.842V29.8229H56.8498V54.842H57.2498ZM59.5911 54.642H57.0498V55.042H59.5911V54.642ZM60.7682 55.8127C60.7682 55.1648 60.24 54.642 59.5911 54.642V55.042C60.0216 55.042 60.3682 55.3883 60.3682 55.8127H60.7682ZM59.5911 56.9833C60.24 56.9833 60.7682 56.4605 60.7682 55.8127H60.3682C60.3682 56.2371 60.0216 56.5833 59.5911 56.5833V56.9833ZM1.97715 56.9833H59.5911V56.5833H1.97715V56.9833ZM0.8 55.8127C0.8 56.4605 1.32826 56.9833 1.97715 56.9833V56.5833C1.54665 56.5833 1.2 56.2371 1.2 55.8127H0.8ZM1.97715 54.642C1.32826 54.642 0.8 55.1648 0.8 55.8127H1.2C1.2 55.3883 1.54665 55.042 1.97715 55.042V54.642ZM4.32314 54.642H1.97715V55.042H4.32314V54.642ZM4.12314 51.3657V54.842H4.52314V51.3657H4.12314ZM7.65899 47.852C5.71047 47.852 4.12314 49.4263 4.12314 51.3657H4.52314C4.52314 49.6498 5.92882 48.252 7.65899 48.252V47.852ZM15.6344 47.852H7.65899V48.252H15.6344V47.852ZM17.0987 48.1686C16.6522 47.9656 16.1566 47.852 15.6344 47.852V48.252C16.098 48.252 16.5373 48.3527 16.9332 48.5327L17.0987 48.1686ZM16.816 45.5489V48.3506H17.216V45.5489H16.816ZM20.3523 42.0352C18.4033 42.0352 16.816 43.61 16.816 45.5489H17.216C17.216 43.8335 18.6216 42.4352 20.3523 42.4352V42.0352ZM28.4075 42.0352H20.3523V42.4352H28.4075V42.0352ZM29.7545 42.337C29.3321 42.1195 28.8642 42.0352 28.4075 42.0352V42.4352C28.8168 42.4352 29.2185 42.5109 29.5714 42.6926L29.7545 42.337ZM29.463 39.6808V42.5148H29.863V39.6808H29.463ZM32.4108 35.9801C31.3711 35.9801 30.6099 36.2348 30.1215 36.8653C29.644 37.4817 29.463 38.4152 29.463 39.6808H29.863C29.863 38.4325 30.0461 37.6157 30.4377 37.1102C30.8183 36.6188 31.431 36.3801 32.4108 36.3801V35.9801ZM40.8786 35.9801H32.4108V36.3801H40.8786V35.9801ZM42.4004 36.536C41.9581 36.1083 41.485 35.9801 40.8786 35.9801V36.3801C41.4141 36.3801 41.7754 36.4881 42.1224 36.8236L42.4004 36.536ZM42.0614 29.8229V36.6798H42.4614V29.8229H42.0614ZM45.8478 26.3093C44.6864 26.3093 43.7376 26.6914 43.0781 27.3296C42.4188 27.9675 42.0614 28.8492 42.0614 29.8229H42.4614C42.4614 28.9492 42.7806 28.174 43.3562 27.617C43.9316 27.0602 44.7761 26.7093 45.8478 26.7093V26.3093ZM45.6478 1.97065V26.5093H46.0478V1.97065H45.6478ZM46.825 0.8C46.1761 0.8 45.6478 1.32283 45.6478 1.97065H46.0478C46.0478 1.54626 46.3945 1.2 46.825 1.2V0.8ZM48.0022 1.97065C48.0022 1.32283 47.4739 0.8 46.825 0.8V1.2C47.2555 1.2 47.6022 1.54626 47.6022 1.97065H48.0022ZM48.0022 2.47391V1.97065H47.6022V2.47391H48.0022ZM59.5921 2.27391H47.8022V2.67391H59.5921V2.27391ZM61.0949 3.30671C60.8562 2.6794 60.2651 2.27391 59.5921 2.27391V2.67391C60.1002 2.67391 60.5418 2.97784 60.7211 3.44901L61.0949 3.30671ZM60.6532 5.06993C61.1588 4.62709 61.3328 3.93412 61.095 3.30696L60.721 3.44876C60.8993 3.91908 60.7702 4.43575 60.3897 4.76903L60.6532 5.06993ZM6.47701 51.3647C6.47701 50.7201 7.00568 50.1929 7.65842 50.1929V49.7929C6.78734 49.7929 6.07701 50.4966 6.07701 51.3647H6.47701ZM6.47701 54.8416V51.3647H6.07701V54.8416H6.47701ZM17.015 54.6416H6.27701V55.0416H17.015V54.6416ZM16.815 51.3647V54.8416H17.215V51.3647H16.815ZM15.6331 50.1929C16.2859 50.1929 16.815 50.7202 16.815 51.3647H17.215C17.215 50.4965 16.5041 49.7929 15.6331 49.7929V50.1929ZM7.65842 50.1929H15.6331V49.7929H7.65842V50.1929ZM18.7685 45.5499V51.3663H19.1685V45.5499H18.7685ZM20.3505 43.9776C19.4794 43.9776 18.7685 44.6812 18.7685 45.5499H19.1685C19.1685 44.9048 19.6977 44.3776 20.3505 44.3776V43.9776ZM28.3251 43.9776H20.3505V44.3776H28.3251V43.9776ZM29.9065 45.5499C29.9065 44.6813 29.1962 43.9776 28.3251 43.9776V44.3776C28.9778 44.3776 29.5065 44.9047 29.5065 45.5499H29.9065ZM29.9065 54.8431V45.5499H29.5065V54.8431H29.9065ZM18.969 55.0431H29.7065V54.6431H18.969V55.0431ZM18.769 51.3663V54.8431H19.169V51.3663H18.769ZM18.9685 51.5663H18.969V51.1663H18.9685V51.5663ZM54.8934 29.8228V54.8418H55.2934V29.8228H54.8934ZM53.7114 28.6504C54.3642 28.6504 54.8934 29.1781 54.8934 29.8228H55.2934C55.2934 28.9546 54.5825 28.2504 53.7114 28.2504V28.6504ZM46.8334 28.6504H53.7114V28.2504H46.8334V28.6504ZM46.8237 28.6509C46.8298 28.6509 46.8347 28.6507 46.8378 28.6505C46.8407 28.6503 46.8433 28.6501 46.8438 28.6501C46.8449 28.65 46.844 28.6501 46.8427 28.6501C46.8413 28.6502 46.8379 28.6504 46.8334 28.6504V28.2504C46.8273 28.2504 46.8224 28.2506 46.8193 28.2508C46.8164 28.251 46.8138 28.2512 46.8133 28.2512C46.8122 28.2513 46.8131 28.2512 46.8144 28.2512C46.8158 28.2511 46.8192 28.2509 46.8237 28.2509V28.6509ZM46.8135 28.6504C46.809 28.6504 46.8056 28.6502 46.8044 28.6501C46.8033 28.6501 46.8023 28.65 46.8038 28.6501C46.8046 28.6502 46.8072 28.6504 46.8103 28.6505C46.8136 28.6507 46.8182 28.6509 46.8237 28.6509V28.2509C46.8275 28.2509 46.8303 28.251 46.8318 28.2511C46.8331 28.2512 46.834 28.2513 46.8331 28.2512C46.8329 28.2512 46.8302 28.251 46.8275 28.2508C46.8246 28.2506 46.8196 28.2504 46.8135 28.2504V28.6504ZM45.7373 28.6504H46.8135V28.2504H45.7373V28.6504ZM44.5554 29.8228C44.5554 29.1776 45.0845 28.6504 45.7373 28.6504V28.2504C44.8663 28.2504 44.1554 28.954 44.1554 29.8228H44.5554ZM44.5554 44.1657V29.8228H44.1554V44.1657H44.5554ZM43.3783 45.3364C44.0278 45.3364 44.5554 44.8134 44.5554 44.1657H44.1554C44.1554 44.5902 43.8092 44.9364 43.3783 44.9364V45.3364ZM42.2013 44.1657C42.2013 44.8135 42.7295 45.3364 43.3783 45.3364V44.9364C42.9479 44.9364 42.6013 44.5901 42.6013 44.1657H42.2013ZM42.2013 39.2998V44.1657H42.6013V39.2998H42.2013ZM41.0199 38.128C41.6726 38.128 42.2013 38.6552 42.2013 39.2998H42.6013C42.6013 38.4317 41.8909 37.728 41.0199 37.728V38.128ZM33.0452 38.128H41.0199V37.728H33.0452V38.128ZM31.8638 39.2998C31.8638 38.6552 32.3925 38.128 33.0452 38.128V37.728C32.1741 37.728 31.4638 38.4317 31.4638 39.2998H31.8638ZM31.8638 54.8418V39.2998H31.4638V54.8418H31.8638ZM42.4013 54.6418H31.6638V55.0418H42.4013V54.6418ZM42.2013 49.022V54.8418H42.6013V49.022H42.2013ZM43.3788 47.8513C42.7295 47.8513 42.2013 48.3741 42.2013 49.022H42.6013C42.6013 48.5976 42.9478 48.2513 43.3788 48.2513V47.8513ZM44.5559 49.022C44.5559 48.3742 44.0277 47.8513 43.3788 47.8513V48.2513C43.8093 48.2513 44.1559 48.5976 44.1559 49.022H44.5559ZM44.5559 54.8418V49.022H44.1559V54.8418H44.5559ZM55.0934 54.6418H44.3559V55.0418H55.0934V54.6418ZM47.6019 4.41564V10.4068H48.0019V4.41564H47.6019ZM58.1386 4.21564H47.8019V4.61564H58.1386V4.21564ZM56.0441 6.51354L58.2703 4.56617L58.0069 4.2651L55.7807 6.21246L56.0441 6.51354ZM55.6353 7.41146C55.6353 7.06827 55.7841 6.74103 56.0441 6.51351L55.7807 6.21249C55.4344 6.51552 55.2353 6.95226 55.2353 7.41146H55.6353ZM56.0441 8.30942C55.7841 8.0819 55.6353 7.75465 55.6353 7.41146H55.2353C55.2353 7.87066 55.4344 8.3074 55.7807 8.61043L56.0441 8.30942ZM58.2703 10.2568L56.0441 8.30939L55.7807 8.61046L58.0069 10.5578L58.2703 10.2568ZM47.8019 10.6073H58.1386V10.2073H47.8019V10.6073ZM47.6019 10.4068V10.4073H48.0019V10.4068H47.6019ZM1.7157 43.8374C1.80787 44.0149 1.80793 44.0148 1.80802 44.0148C1.80811 44.0147 1.80825 44.0147 1.80842 44.0146C1.80877 44.0144 1.80928 44.0141 1.80995 44.0138C1.81129 44.0131 1.81328 44.0121 1.81592 44.0107C1.8212 44.0079 1.82905 44.0038 1.83943 43.9984C1.86019 43.9876 1.89106 43.9714 1.93164 43.9501C2.01281 43.9074 2.13281 43.844 2.28847 43.7611C2.5998 43.5952 3.05376 43.3511 3.62485 43.0378C4.767 42.4112 6.37785 41.5078 8.2533 40.4001C12.0032 38.1853 16.8152 35.1515 21.054 31.8797L20.8096 31.563C16.5894 34.8205 11.7932 37.8448 8.04988 40.0557C6.17869 41.1608 4.57159 42.0621 3.43246 42.6871C2.86291 42.9996 2.41039 43.2429 2.10039 43.4081C1.94539 43.4906 1.82603 43.5537 1.74549 43.596C1.70522 43.6172 1.67465 43.6332 1.65419 43.6439C1.64396 43.6492 1.63625 43.6533 1.63113 43.6559C1.62856 43.6573 1.62664 43.6583 1.62537 43.6589C1.62473 43.6593 1.62426 43.6595 1.62395 43.6597C1.6238 43.6597 1.62369 43.6598 1.62361 43.6598C1.62354 43.6599 1.62352 43.6599 1.7157 43.8374ZM0.8 43.1007C0.8 43.3768 0.868915 43.6196 1.03819 43.7928C1.20826 43.9669 1.44713 44.0374 1.7157 44.0374V43.6374C1.51326 43.6374 1.39428 43.5849 1.32425 43.5133C1.25343 43.4408 1.2 43.3153 1.2 43.1007H0.8ZM21.3501 28.5368C17.412 32.0454 12.3009 35.6427 8.16974 38.3652C6.10506 39.7259 4.28692 40.8669 2.98504 41.6676C2.33412 42.068 1.81233 42.3833 1.45338 42.5984C1.2739 42.706 1.13515 42.7885 1.04132 42.8441C0.994404 42.8719 0.958724 42.893 0.934804 42.9071C0.922843 42.9141 0.913824 42.9194 0.90781 42.9229C0.904803 42.9247 0.902547 42.926 0.901051 42.9269C0.900303 42.9273 0.899746 42.9277 0.899379 42.9279C0.899195 42.928 0.899063 42.9281 0.898971 42.9281C0.898888 42.9282 0.898852 42.9282 1 43.1007C1.10115 43.2733 1.10121 43.2732 1.10132 43.2732C1.10142 43.2731 1.10157 43.273 1.10177 43.2729C1.10217 43.2727 1.10276 43.2723 1.10354 43.2719C1.1051 43.271 1.10742 43.2696 1.11049 43.2678C1.11664 43.2642 1.12579 43.2588 1.13788 43.2517C1.16207 43.2374 1.19802 43.2162 1.24521 43.1882C1.33959 43.1323 1.47893 43.0494 1.659 42.9415C2.01915 42.7257 2.54227 42.4096 3.19461 42.0083C4.49924 41.2059 6.321 40.0626 8.38985 38.6992C12.5258 35.9736 17.6562 32.3636 21.6162 28.8355L21.3501 28.5368ZM31.3225 18.7594C29.4109 20.8473 26.8887 23.6023 21.3501 28.5368L21.6162 28.8355C27.1679 23.8892 29.7 21.1239 31.6175 19.0295L31.3225 18.7594ZM33.62 16.3356C32.8399 17.1019 32.1343 17.8727 31.3225 18.7594L31.6175 19.0295C32.4305 18.1415 33.1291 17.3785 33.9003 16.621L33.62 16.3356ZM31.0793 14.2224L33.6228 16.6237L33.8974 16.3329L31.3539 13.9315L31.0793 14.2224ZM31.6539 13.3349C31.4055 13.3349 31.1776 13.4058 31.047 13.5748C30.9052 13.7584 30.9286 13.9877 31.0456 14.1807L31.3876 13.9732C31.3286 13.876 31.352 13.8343 31.3635 13.8194C31.3862 13.79 31.465 13.7349 31.6539 13.7349V13.3349ZM38.4492 13.3771C38.3782 13.3771 36.6805 13.3666 34.9989 13.356C34.1585 13.3507 33.3226 13.3455 32.6967 13.3415C32.3838 13.3395 32.1234 13.3379 31.9413 13.3367C31.8502 13.3361 31.7787 13.3357 31.7299 13.3354C31.7055 13.3352 31.6869 13.3351 31.6743 13.335C31.668 13.335 31.6632 13.335 31.66 13.3349C31.6584 13.3349 31.6572 13.3349 31.6564 13.3349C31.656 13.3349 31.6557 13.3349 31.6555 13.3349C31.6554 13.3349 31.6553 13.3349 31.6553 13.3349C31.6552 13.3349 31.6552 13.3349 31.6539 13.5349C31.6526 13.7349 31.6527 13.7349 31.6527 13.7349C31.6528 13.7349 31.6528 13.7349 31.6529 13.7349C31.6531 13.7349 31.6534 13.7349 31.6539 13.7349C31.6547 13.7349 31.6559 13.7349 31.6575 13.7349C31.6607 13.735 31.6654 13.735 31.6717 13.735C31.6843 13.7351 31.703 13.7352 31.7274 13.7354C31.7761 13.7357 31.8477 13.7361 31.9387 13.7367C32.1209 13.7379 32.3813 13.7395 32.6942 13.7415C33.32 13.7455 34.156 13.7507 34.9964 13.756C36.6765 13.7666 38.3765 13.7771 38.4492 13.7771V13.3771ZM38.9833 13.7934C38.9506 13.6798 38.8721 13.5799 38.7872 13.51C38.7027 13.4405 38.583 13.3771 38.4492 13.3771V13.7771C38.4591 13.7771 38.4917 13.7849 38.533 13.8188C38.5738 13.8524 38.5944 13.8883 38.599 13.9043L38.9833 13.7934ZM39.0786 20.5194C39.2785 20.5117 39.2785 20.5117 39.2785 20.5117C39.2785 20.5116 39.2785 20.5115 39.2785 20.5114C39.2784 20.5112 39.2784 20.511 39.2784 20.5106C39.2784 20.5098 39.2783 20.5086 39.2783 20.507C39.2782 20.5039 39.278 20.4992 39.2777 20.493C39.2773 20.4806 39.2766 20.4622 39.2756 20.4382C39.2738 20.3903 39.2711 20.3199 39.2676 20.2304C39.2607 20.0512 39.2508 19.7952 39.2388 19.4875C39.2148 18.8722 39.1824 18.0504 39.1488 17.2246C39.1152 16.3988 39.0804 15.5686 39.0517 14.9367C39.0373 14.6208 39.0244 14.354 39.014 14.1618C39.0087 14.0658 39.0041 13.9877 39.0001 13.931C38.9981 13.9028 38.9962 13.8788 38.9944 13.8601C38.9935 13.8508 38.9908 13.8192 38.9833 13.7934L38.599 13.9043C38.5939 13.8866 38.594 13.8756 38.5962 13.8987C38.5976 13.9123 38.5992 13.9323 38.6011 13.9592C38.6048 14.0126 38.6094 14.0882 38.6146 14.1835C38.6249 14.3739 38.6377 14.6393 38.6521 14.9549C38.6807 15.5858 38.7155 16.4152 38.7491 17.2408C38.7827 18.0664 38.8151 18.888 38.8391 19.5031C38.8511 19.8107 38.861 20.0667 38.8679 20.2458C38.8714 20.3353 38.8741 20.4056 38.8759 20.4536C38.8769 20.4775 38.8776 20.4959 38.878 20.5083C38.8783 20.5145 38.8785 20.5192 38.8786 20.5223C38.8786 20.5239 38.8787 20.525 38.8787 20.5258C38.8787 20.5262 38.8787 20.5265 38.8787 20.5267C38.8787 20.5268 38.8787 20.5269 38.8788 20.527C38.8788 20.527 38.8788 20.527 39.0786 20.5194ZM38.4936 21.1471C38.6952 21.2374 38.9094 21.2091 39.0663 21.0732C39.2174 20.9423 39.2897 20.735 39.2784 20.5093L38.8789 20.5294C38.8856 20.6627 38.8417 20.7386 38.8044 20.7709C38.7728 20.7983 38.7264 20.8131 38.6572 20.7821L38.4936 21.1471ZM35.9079 18.7361L38.4386 21.1104L38.7122 20.8187L36.1816 18.4444L35.9079 18.7361ZM21.054 31.8797C29.5215 25.3438 33.807 21.1155 36.1863 18.7315L35.9032 18.449C33.5328 20.824 29.2603 25.0402 20.8096 31.563L21.054 31.8797Z" fill="url(#paint1_linear)"/>
<defs>
<linearGradient id="paint0_linear" x1="1" y1="1" x2="89.7116" y2="68.6339" gradientUnits="userSpaceOnUse">
<stop stop-color="#355EA0"/>
<stop offset="0.2" stop-color="#355EA0"/>
<stop offset="0.846073" stop-color="#5DB9AC"/>
<stop offset="1" stop-color="#38F1E0"/>
</linearGradient>
<linearGradient id="paint1_linear" x1="1" y1="1" x2="89.7116" y2="68.6339" gradientUnits="userSpaceOnUse">
<stop stop-color="#355EA0"/>
<stop offset="0.2" stop-color="#355EA0"/>
<stop offset="0.846073" stop-color="#5DB9AC"/>
<stop offset="1" stop-color="#38F1E0"/>
</linearGradient>
</defs>
</svg>
