<svg width="60" height="68" viewBox="0 0 60 68" fill="none" xmlns="http://www.w3.org/2000/svg">
<path d="M58.5823 35.9494C57.6842 35.1208 56.4624 34.6091 55.2301 34.545C53.8308 34.4727 52.5197 34.9716 51.5433 35.9485L44.8719 42.5499C44.74 42.3215 44.5894 42.1059 44.4205 41.9058C43.5997 40.9312 42.3995 40.3947 41.0413 40.3947H31.702C29.941 40.3947 28.223 40.1663 26.5961 39.7163C22.3545 38.5431 18.3023 39.4 14.8769 42.196C13.4839 43.3331 12.4677 44.57 11.825 45.4718L10.1505 43.8467C9.93029 43.633 9.63183 43.5117 9.32467 43.5117C8.99874 43.5139 8.69112 43.6462 8.47048 43.8751L0.330068 52.3259C0.112172 52.552 -0.00638833 52.856 -6.46003e-05 53.17C0.00734459 53.4845 0.138723 53.783 0.366231 53.9995L14.1344 67.1094C14.3628 67.3268 14.6558 67.4353 14.9483 67.4353C15.2555 67.4353 15.5626 67.3158 15.7938 67.0787L23.8582 58.8051C24.0784 58.579 24.2006 58.27 24.1947 57.9541C24.1887 57.6428 24.0583 57.3425 23.8349 57.1256L23.1327 56.4444L24.7399 56.2636C25.7122 56.1505 26.7009 56.0933 27.6796 56.0933H41.8891C44.198 56.0933 46.1591 55.5884 47.7182 54.5923C47.7311 54.584 47.7439 54.5754 47.7567 54.5667C48.3152 54.1785 48.8219 53.7184 49.2623 53.1998L58.8378 41.9347C60.4766 40.007 60.374 37.6015 58.5823 35.9494ZM14.9176 64.5958L2.85372 53.1087L9.35259 46.3617L21.346 58.0003L14.9176 64.5958ZM47.4637 51.6713C47.1598 52.0288 46.8114 52.3465 46.4273 52.6157C45.2568 53.3568 43.7302 53.7331 41.8891 53.7331H27.6792C26.6103 53.7331 25.5295 53.7958 24.4716 53.9189L20.9386 54.3153L13.5411 47.1367C14.0552 46.3745 15.0005 45.1427 16.3697 44.0248C19.216 41.7012 22.4451 41.0168 25.9667 41.9914C27.7986 42.4982 29.7281 42.7554 31.702 42.7554H41.0413C42.7185 42.7554 43.1662 44.2084 43.1662 45.0667C43.1662 45.6938 42.9648 46.2907 42.6137 46.7046C42.2329 47.1527 41.6913 47.3798 41.0042 47.3798H32.8743C32.2225 47.3798 31.6942 47.9085 31.6942 48.5603C31.6942 49.2122 32.2225 49.7404 32.8743 49.7404H41.0042C42.3766 49.7404 43.5869 49.2049 44.4127 48.2326C45.0998 47.4242 45.4917 46.3612 45.5246 45.2251L53.2082 37.6221C54.3064 36.5239 56.0221 36.7995 56.982 37.6848C57.4782 38.1425 58.1456 39.1043 57.0392 40.4057L47.4637 51.6713Z" fill="url(#paint0_linear)"/>
<path d="M29.1934 48.2461C29.0447 47.6111 28.4097 47.2179 27.7748 47.3662C27.1404 47.515 26.7462 48.1499 26.8955 48.7849L26.9065 48.8329C27.0342 49.3767 27.5189 49.7439 28.0545 49.7439C28.1438 49.7439 28.2344 49.7338 28.3251 49.7127C28.96 49.564 29.3537 48.9286 29.2049 48.2941L29.1934 48.2461Z" fill="url(#paint1_linear)"/>
<path d="M42.7035 15.2274C42.555 14.9297 42.1933 14.8087 41.8957 14.9571C41.5979 15.1055 41.4769 15.4671 41.6252 15.7648C42.3754 17.2698 42.7558 18.989 42.7558 20.8744C42.7558 23.5421 41.5304 27.0734 39.5578 30.0903C37.5367 33.1812 35.1869 35.0265 33.272 35.0265C32.4741 35.0265 31.6181 34.9006 30.8616 34.6721C29.6813 34.3156 28.4334 34.3156 27.2531 34.6721C26.4965 34.9007 25.6404 35.0265 24.8426 35.0265C22.9277 35.0265 20.5779 33.1811 18.5568 30.0903C16.5841 27.0734 15.3587 23.5421 15.3587 20.8744C15.3587 18.3541 16.056 16.0888 17.3751 14.3234C18.4848 12.8381 20.0318 11.7501 21.6192 11.3385C22.8052 11.031 24.369 11.1126 26.142 11.5742C26.3358 11.6247 26.534 11.6709 26.731 11.7113C27.0568 11.7781 27.3753 11.5684 27.4423 11.2425C27.5093 10.9167 27.2993 10.5983 26.9735 10.5313C26.7969 10.4949 26.6193 10.4537 26.4457 10.4085C24.4464 9.88789 22.7208 9.80855 21.3168 10.1725C19.442 10.6585 17.6994 11.8766 16.4099 13.6023C14.9341 15.5776 14.154 18.0922 14.154 20.8744C14.154 23.7635 15.4546 27.5475 17.5485 30.7496C19.8263 34.2332 22.4849 36.2312 24.8425 36.2312C25.7683 36.2312 26.7224 36.0908 27.6013 35.8253C28.5536 35.5377 29.5606 35.5377 30.513 35.8253C31.3921 36.0909 32.346 36.2312 33.2718 36.2312C35.6294 36.2312 38.288 34.2332 40.5659 30.7496C42.6596 27.5474 43.9604 23.7635 43.9604 20.8744C43.9604 18.8008 43.5376 16.9008 42.7035 15.2274Z" fill="url(#paint2_linear)" stroke="url(#paint3_linear)" stroke-width="0.966614"/>
<path d="M41.1364 13.0563C39.8788 11.5096 38.5374 10.6236 36.7976 10.1725C35.3937 9.80853 33.6681 9.88787 31.6687 10.4085C31.2356 10.5214 30.7909 10.6069 30.3468 10.6626C30.0167 10.7041 29.7828 11.0052 29.8242 11.3353C29.8656 11.6654 30.1673 11.8996 30.4969 11.8579C30.9926 11.7957 31.489 11.7003 31.9725 11.5743C33.7456 11.1127 35.3096 11.0313 36.4954 11.3387C37.9882 11.7258 39.105 12.4675 40.2017 13.8163C40.3207 13.9627 40.4944 14.0387 40.6694 14.0387C40.803 14.0387 40.9374 13.9945 41.049 13.9037C41.3072 13.6938 41.3463 13.3144 41.1364 13.0563Z" fill="url(#paint4_linear)" stroke="url(#paint5_linear)" stroke-width="0.773291"/>
<path d="M45.513 1.39017C45.314 1.26292 45.059 1.26375 44.8607 1.39224C43.9957 1.95323 43.024 1.74746 41.5529 1.43608C41.425 1.40899 41.2948 1.38149 41.1619 1.35385C40.8362 1.28622 40.5173 1.49544 40.4496 1.82122C40.382 2.147 40.5912 2.46582 40.917 2.53344C41.0483 2.56067 41.1771 2.58797 41.3034 2.61471C42.4085 2.84868 43.4078 3.06023 44.3494 2.87632C43.8964 4.49482 43.9767 6.43551 41.2101 7.50157C38.8705 8.40302 35.4009 8.20139 33.6344 7.18592C32.9257 6.77852 32.2996 6.41862 31.7431 6.26214C32.37 4.93186 33.9248 2.38937 36.7209 2.17698C37.5345 2.11515 37.4327 2.24392 38.2834 2.34684C38.6139 2.38654 38.9138 2.15141 38.9538 1.82122C38.9937 1.49096 38.7583 1.19082 38.4281 1.15084C37.4983 1.03834 37.5228 0.907913 36.6297 0.975675C34.7181 1.12085 33.0075 2.16458 31.6832 3.9938C30.8352 5.1652 30.4037 6.29812 30.2941 6.6095L28.7086 9.01722C28.2624 7.66777 27.8198 6.82195 27.7842 6.75495C27.6281 6.46115 27.2635 6.34948 26.9697 6.50548C26.6759 6.66147 26.5642 7.02613 26.7202 7.31993C26.7352 7.34799 28.1247 10.0017 28.4051 13.479C27.9434 13.4273 27.519 13.3213 27.1883 13.1715C26.7891 12.9907 26.6651 12.8073 26.6651 12.7609C26.6651 12.4283 26.3955 12.1586 26.0628 12.1586C25.7301 12.1586 25.4604 12.4283 25.4604 12.7609C25.4604 13.1158 25.6204 13.7837 26.6912 14.2688C27.333 14.5596 28.1732 14.7198 29.0569 14.7198C29.9409 14.7198 30.7812 14.5596 31.4232 14.2689C32.4941 13.7838 32.6541 13.1159 32.6541 12.761C32.6541 12.4283 32.3844 12.1587 32.0518 12.1587C31.7191 12.1587 31.4494 12.4283 31.4494 12.761C31.4494 12.8073 31.3254 12.9907 30.9262 13.1715C30.5729 13.3316 30.1124 13.4413 29.6139 13.4887C29.5349 12.4183 29.3593 11.4232 29.1457 10.5439L31.225 7.38631C31.296 7.38928 31.4242 7.41147 31.6402 7.49681C32.0199 7.64702 32.4899 7.91717 33.0341 8.22999C34.4471 9.04217 36.4091 9.50347 38.4281 9.37916C39.8908 9.2891 39.6501 9.21948 41.3034 8.79962C45.7281 7.67593 45.7499 2.22565 45.7848 1.9828C45.8183 1.74932 45.712 1.51736 45.513 1.39017Z" fill="url(#paint6_linear)" stroke="url(#paint7_linear)" stroke-width="0.579968"/>
<defs>
<linearGradient id="paint0_linear" x1="-0.000305176" y1="34.5381" x2="52.5115" y2="102.425" gradientUnits="userSpaceOnUse">
<stop stop-color="#355EA0"/>
<stop offset="0.2" stop-color="#355EA0"/>
<stop offset="0.846073" stop-color="#5DB9AC"/>
<stop offset="1" stop-color="#38F1E0"/>
</linearGradient>
<linearGradient id="paint1_linear" x1="26.8639" y1="47.335" x2="30.5931" y2="49.9383" gradientUnits="userSpaceOnUse">
<stop stop-color="#355EA0"/>
<stop offset="0.2" stop-color="#355EA0"/>
<stop offset="0.846073" stop-color="#5DB9AC"/>
<stop offset="1" stop-color="#38F1E0"/>
</linearGradient>
<linearGradient id="paint2_linear" x1="14.154" y1="9.94824" x2="56.4858" y2="43.9764" gradientUnits="userSpaceOnUse">
<stop stop-color="#355EA0"/>
<stop offset="0.2" stop-color="#355EA0"/>
<stop offset="0.846073" stop-color="#5DB9AC"/>
<stop offset="1" stop-color="#38F1E0"/>
</linearGradient>
<linearGradient id="paint3_linear" x1="14.154" y1="9.94824" x2="56.4858" y2="43.9764" gradientUnits="userSpaceOnUse">
<stop stop-color="#355EA0"/>
<stop offset="0.2" stop-color="#355EA0"/>
<stop offset="0.846073" stop-color="#5DB9AC"/>
<stop offset="1" stop-color="#38F1E0"/>
</linearGradient>
<linearGradient id="paint4_linear" x1="29.8195" y1="9.94824" x2="35.2413" y2="20.7078" gradientUnits="userSpaceOnUse">
<stop stop-color="#355EA0"/>
<stop offset="0.2" stop-color="#355EA0"/>
<stop offset="0.846073" stop-color="#5DB9AC"/>
<stop offset="1" stop-color="#38F1E0"/>
</linearGradient>
<linearGradient id="paint5_linear" x1="29.8195" y1="9.94824" x2="35.2413" y2="20.7078" gradientUnits="userSpaceOnUse">
<stop stop-color="#355EA0"/>
<stop offset="0.2" stop-color="#355EA0"/>
<stop offset="0.846073" stop-color="#5DB9AC"/>
<stop offset="1" stop-color="#38F1E0"/>
</linearGradient>
<linearGradient id="paint6_linear" x1="25.4604" y1="0.957031" x2="48.1335" y2="24.6975" gradientUnits="userSpaceOnUse">
<stop stop-color="#355EA0"/>
<stop offset="0.2" stop-color="#355EA0"/>
<stop offset="0.846073" stop-color="#5DB9AC"/>
<stop offset="1" stop-color="#38F1E0"/>
</linearGradient>
<linearGradient id="paint7_linear" x1="25.4604" y1="0.957031" x2="48.1335" y2="24.6975" gradientUnits="userSpaceOnUse">
<stop stop-color="#355EA0"/>
<stop offset="0.2" stop-color="#355EA0"/>
<stop offset="0.846073" stop-color="#5DB9AC"/>
<stop offset="1" stop-color="#38F1E0"/>
</linearGradient>
</defs>
</svg>
