<svg xmlns="http://www.w3.org/2000/svg" xmlns:xlink="http://www.w3.org/1999/xlink" height="69.00002" width="48.0000399999999">
  <defs>
    <path id="path-1" opacity="1" fill-rule="evenodd" d="M0 69.00002000000003C0 69.00002000000003 48.0000399999999 2.842170943040401e-14 48.0000399999999 2.842170943040401e-14L0 2.842170943040401e-14C0 2.842170943040401e-14 0 69.00002000000003 0 69.00002000000003Z"/>
    <mask id="mask-2" maskUnits="userSpaceOnUse" maskContentUnits="userSpaceOnUse" x="0" y="2.842170943040401e-14">
      <rect opacity="1" x="0" y="2.842170943040401e-14" width="48.0000399999999" height="69.00002" fill="black"/>
      <use xlink:href="#path-1" fill="white"/>
    </mask>
    <path id="path-3" opacity="1" fill-rule="evenodd" d="M0 54.74381752066119C0 54.74381752066119 38.00003166666659 2.842170943040401e-14 38.00003166666659 2.842170943040401e-14L0 2.842170943040401e-14C0 2.842170943040401e-14 0 54.74381752066119 0 54.74381752066119Z"/>
    <mask id="mask-4" maskUnits="userSpaceOnUse" maskContentUnits="userSpaceOnUse" x="0" y="2.842170943040401e-14">
      <rect opacity="1" x="0" y="2.842170943040401e-14" width="48.0000399999999" height="69.00002" fill="black"/>
      <use xlink:href="#path-3" fill="white"/>
    </mask>
  </defs>
  <g transform="translate(0, -2.842170943040401e-14)" opacity="1">
    <g opacity="1">
      <g opacity="1">
        <use xlink:href="#path-1" fill-opacity="0" stroke="rgb(247,208,71)" stroke-opacity="1" stroke-width="8" stroke-linecap="butt" stroke-linejoin="miter" mask="url(#mask-2)"/>
      </g>
      <g opacity="1">
        <use xlink:href="#path-3" fill-opacity="0" stroke="rgb(247,208,71)" stroke-opacity="1" stroke-width="4" stroke-linecap="butt" stroke-linejoin="miter" mask="url(#mask-4)"/>
      </g>
    </g>
  </g>
</svg>