<?xml version="1.0" encoding="UTF-8"?>
<svg width="36px" height="34px" viewBox="0 0 36 34" version="1.1" xmlns="http://www.w3.org/2000/svg" xmlns:xlink="http://www.w3.org/1999/xlink">
    <!-- Generator: sketchtool 52.6 (67491) - http://www.bohemiancoding.com/sketch -->
    <title>0E470BDF-3D4E-4751-A370-E2C1571CDDA8</title>
    <desc>Created with sketchtool.</desc>
    <g id="LevelUX" stroke="none" stroke-width="1" fill="none" fill-rule="evenodd">
        <g id="4_LevelUI@2x" transform="translate(-1075.000000, -691.000000)" fill="#33ECC9" fill-rule="nonzero">
            <g id="Controls" transform="translate(0.000000, 548.000000)">
                <g id="refresh" transform="translate(1075.663833, 143.000000)">
                    <g id="Group" transform="translate(0.000000, 0.087500)">
                        <path d="M26.0996826,9.79923183 C22.6444113,4.5675399 15.7549609,2.88507354 10.316571,6.08649531 C4.63609854,9.43042396 2.68982495,16.8364394 5.96944724,22.6282937 C9.24906953,28.420148 16.5126615,30.4045839 22.1931339,27.0606552 C23.7435621,26.1479633 25.0441587,24.9173556 26.0350063,23.4496467 C26.7200973,22.4348446 28.0823125,22.1784507 29.0775991,22.8769749 C30.0728857,23.575499 30.324349,24.9644244 29.639258,25.9792264 C28.2813554,27.9906415 26.4979311,29.6780945 24.3809218,30.9243162 C16.6076437,35.5002186 6.66799161,32.7846748 2.18008743,24.8589794 C-2.30781676,16.933284 0.355505,6.79873664 8.12878307,2.22283427 C15.5958188,-2.17279218 25.0618947,0.15982532 29.7742709,7.37581735 L30.727794,4.33562129 C31.0958281,3.16218781 32.3271411,2.51513265 33.4780085,2.89038313 C34.6288759,3.26563361 35.2634877,4.52109001 34.8954536,5.69452349 L31.7256681,15.8010115 L21.847326,13.3288157 C20.6738753,13.0351429 19.9560962,11.8271521 20.2441214,10.6306925 C20.5321465,9.43423303 21.7169068,8.70237975 22.8903574,8.99605249 L26.0996826,9.79923183 Z" id="Combined-Shape"></path>
                    </g>
                </g>
            </g>
        </g>
    </g>
</svg>