<svg xmlns="http://www.w3.org/2000/svg" width="107" height="71" viewBox="0 0 107 71" fill="none">
    <path d="M44.1998 45.7246C43.2238 45.7246 42.2958 45.5486 41.4158 45.1966C40.5518 44.8286 39.8078 44.3166 39.1838 43.6606C38.5758 42.9886 38.1598 42.1966 37.9358 41.2846L40.7918 40.2766C41.0798 41.0926 41.5198 41.7166 42.1118 42.1486C42.7038 42.5646 43.3998 42.7726 44.1998 42.7726C44.8398 42.7726 45.3918 42.6526 45.8558 42.4126C46.3358 42.1726 46.7118 41.8286 46.9838 41.3806C47.2558 40.9166 47.3918 40.3726 47.3918 39.7486C47.3918 39.1246 47.2558 38.5966 46.9838 38.1646C46.7278 37.7166 46.3598 37.3726 45.8798 37.1326C45.3998 36.8926 44.8318 36.7726 44.1758 36.7726C43.8718 36.7726 43.5518 36.8046 43.2158 36.8686C42.8958 36.9326 42.6078 37.0286 42.3518 37.1566L41.6078 35.5966L46.2398 30.3166H38.9438V27.5566H49.9118V30.1246L45.2558 35.5726L45.3038 34.3486C46.3758 34.3646 47.3118 34.5966 48.1118 35.0446C48.9118 35.4926 49.5358 36.1086 49.9838 36.8926C50.4318 37.6766 50.6558 38.5966 50.6558 39.6526C50.6558 40.8046 50.3758 41.8446 49.8158 42.7726C49.2558 43.6846 48.4878 44.4046 47.5118 44.9326C46.5358 45.4606 45.4318 45.7246 44.1998 45.7246Z" fill="#4799A9"/>
    <path d="M60.3357 45.7246C58.9117 45.7246 57.6637 45.3406 56.5917 44.5726C55.5197 43.8046 54.6797 42.7246 54.0717 41.3326C53.4797 39.9406 53.1837 38.3246 53.1837 36.4846C53.1837 34.6286 53.4797 33.0126 54.0717 31.6366C54.6637 30.2606 55.4957 29.1886 56.5677 28.4206C57.6397 27.6526 58.8877 27.2686 60.3117 27.2686C61.7677 27.2686 63.0237 27.6526 64.0797 28.4206C65.1517 29.1886 65.9917 30.2686 66.5997 31.6606C67.2077 33.0366 67.5117 34.6446 67.5117 36.4846C67.5117 38.3246 67.2077 39.9406 66.5997 41.3326C66.0077 42.7086 65.1757 43.7886 64.1037 44.5726C63.0317 45.3406 61.7757 45.7246 60.3357 45.7246ZM60.3597 42.7486C61.1757 42.7486 61.8717 42.5006 62.4477 42.0046C63.0237 41.4926 63.4637 40.7726 63.7677 39.8446C64.0877 38.9006 64.2477 37.7806 64.2477 36.4846C64.2477 35.1886 64.0877 34.0766 63.7677 33.1486C63.4637 32.2046 63.0157 31.4846 62.4237 30.9886C61.8477 30.4926 61.1437 30.2446 60.3117 30.2446C59.5117 30.2446 58.8237 30.4926 58.2477 30.9886C57.6717 31.4846 57.2237 32.2046 56.9037 33.1486C56.5997 34.0766 56.4477 35.1886 56.4477 36.4846C56.4477 37.7646 56.5997 38.8766 56.9037 39.8206C57.2237 40.7486 57.6717 41.4686 58.2477 41.9806C58.8397 42.4926 59.5437 42.7486 60.3597 42.7486Z" fill="#4799A9"/>
    <path d="M53.5605 70.4366C50.6792 70.4366 47.9386 69.0598 46.212 66.743C45.8049 66.1971 45.1258 65.9842 44.5947 66.2378C41.9077 67.5202 38.7544 67.4184 36.1637 65.9639C33.5729 64.5112 31.8427 61.8742 31.5355 58.9134C31.4763 58.336 30.9766 57.8512 30.3974 57.8068C27.4292 57.5791 24.7477 55.9192 23.2266 53.3673C21.7036 50.8155 21.5186 47.6659 22.7288 44.9456C22.9675 44.4089 22.7381 43.7335 22.1811 43.3412C19.792 41.659 18.3375 38.9128 18.2912 35.9964C18.245 33.08 19.6107 30.2894 21.946 28.5314C22.4901 28.1224 22.6992 27.4396 22.442 26.9103C21.1448 24.2289 21.2299 21.0774 22.6696 18.4774C24.1093 15.8774 26.7352 14.1342 29.6961 13.8123C30.2716 13.7493 30.7564 13.2478 30.7971 12.6686C31.0099 9.69853 32.6551 7.00971 35.1977 5.47377C37.8365 3.88046 41.0787 3.71947 43.8674 5.0463C44.5169 5.35533 45.2461 5.15178 45.6421 4.5522C47.3446 1.97627 50.2036 0.438477 53.2848 0.438477C56.2012 0.438477 58.9696 1.84858 60.6906 4.21171C61.0922 4.76131 61.7694 4.98338 62.3024 4.73356C65.0023 3.4789 68.1538 3.61584 70.7297 5.09626C73.3056 6.57668 75.0081 9.2322 75.2839 12.1967C75.3375 12.7741 75.8316 13.2664 76.409 13.3163C79.3754 13.5754 82.0383 15.2631 83.5335 17.8316C85.0288 20.4001 85.1805 23.5497 83.9406 26.2589C83.6964 26.7937 83.9184 27.471 84.4717 27.8689C86.8423 29.5769 88.269 32.3379 88.2838 35.2543C88.2986 38.1708 86.9033 40.9466 84.5513 42.6805C84.0036 43.0839 83.787 43.7631 84.0369 44.296C85.3063 46.9904 85.1861 50.1419 83.7186 52.7271C82.2511 55.3104 79.6067 57.0277 76.644 57.3182C76.0666 57.3756 75.5781 57.8715 75.53 58.4489C75.2857 61.4171 73.6128 64.0875 71.0517 65.5975C68.4906 67.1075 65.341 67.2759 62.6281 66.0509C62.0933 65.8085 61.416 66.0361 61.0218 66.5912C59.3267 68.971 56.5732 70.4107 53.6567 70.4422C53.6253 70.4422 53.592 70.4422 53.5605 70.4422V70.4366ZM45.0629 63.0678C46.4286 63.0678 47.7868 63.7248 48.6714 64.9109C49.8335 66.4709 51.6785 67.3962 53.6253 67.3703C55.5646 67.3499 57.3966 66.3914 58.5255 64.8055C59.7672 63.0604 62.0248 62.4072 63.892 63.2492C65.6981 64.0652 67.7948 63.9524 69.4973 62.9494C71.1997 61.9464 72.3138 60.168 72.4766 58.1917C72.645 56.1505 74.3068 54.461 76.3461 54.2611C78.3187 54.0668 80.0786 52.9251 81.0557 51.2078C82.0328 49.4886 82.1105 47.392 81.2666 45.597C80.3932 43.7446 81.0113 41.4777 82.7359 40.2082C84.3033 39.0535 85.2323 37.2067 85.2212 35.2673C85.2101 33.3279 84.2626 31.4904 82.6841 30.3523C80.9465 29.1013 80.3044 26.8418 81.1574 24.9784C81.9828 23.1759 81.8829 21.0793 80.8873 19.3712C79.8935 17.6632 78.1207 16.5399 76.1462 16.3678C74.1069 16.1902 72.4248 14.5173 72.236 12.478C72.0528 10.5035 70.9203 8.7381 69.2067 7.75177C67.4931 6.76544 65.3965 6.67661 63.5978 7.5112C61.7398 8.37355 59.4766 7.74437 58.2164 6.01227C57.0709 4.43932 55.2297 3.5011 53.2885 3.5011C51.2381 3.5011 49.3357 4.52445 48.2032 6.23989C46.9634 8.11633 44.5873 8.77697 42.5554 7.81284C40.6975 6.93014 38.5416 7.03562 36.7854 8.09597C35.0941 9.11746 33.9985 10.9069 33.8579 12.8851C33.7117 14.9281 32.0666 16.6362 30.031 16.8582C28.0602 17.0729 26.3114 18.2332 25.3547 19.9616C24.3961 21.69 24.3406 23.7885 25.2048 25.5742C26.0968 27.4174 25.5028 29.6917 23.7929 30.9796C22.2384 32.1492 21.3298 34.0071 21.3594 35.9464C21.389 37.8858 22.3587 39.7123 23.9502 40.8337C25.7008 42.0662 26.367 44.3201 25.5342 46.191C24.7274 48.0027 24.8514 50.0974 25.8636 51.7944C26.8758 53.4913 28.6598 54.5961 30.6361 54.7478C32.6773 54.9051 34.3779 56.5595 34.5889 58.5969C34.7924 60.5677 35.9434 62.322 37.6681 63.2899C39.3928 64.2577 41.4895 64.3243 43.2789 63.4694C43.8489 63.1974 44.4596 63.066 45.0684 63.066L45.0629 63.0678Z" fill="#4799A9"/>
    <path d="M53.2866 59.6739C39.8129 59.6739 28.8504 48.7114 28.8504 35.2377C28.8504 21.764 39.8129 10.8033 53.2866 10.8033C66.7603 10.8033 77.7229 21.7658 77.7229 35.2395C77.7229 48.7133 66.7603 59.6758 53.2866 59.6758V59.6739ZM53.2866 13.8678C41.5024 13.8678 31.9167 23.4554 31.9167 35.2377C31.9167 47.02 41.5024 56.6076 53.2866 56.6076C65.0708 56.6076 74.6565 47.02 74.6565 35.2377C74.6565 23.4554 65.0689 13.8678 53.2866 13.8678Z" fill="#4799A9"/>
    <path d="M103.638 53.9318H82.3862C81.5387 53.9318 80.854 53.2452 80.854 52.3995C80.854 51.5538 81.5405 50.8673 82.3862 50.8673H102.901L94.1463 36.3073C93.7503 35.6485 93.7503 34.8306 94.1463 34.1736L102.901 19.6137H82.3862C81.5387 19.6137 80.854 18.9271 80.854 18.0814C80.854 17.2357 81.5405 16.5492 82.3862 16.5492H103.638C104.591 16.5492 105.475 17.0655 105.943 17.8945C106.412 18.7236 106.399 19.7469 105.908 20.5648L97.0831 35.2432L105.908 49.9217C106.399 50.7377 106.413 51.7611 105.943 52.592C105.473 53.4229 104.591 53.9373 103.638 53.9373V53.9318Z" fill="#4799A9"/>
    <path d="M24.1852 53.9317H2.93368C1.98066 53.9317 1.0961 53.4155 0.627918 52.5864C0.157884 51.7574 0.172688 50.734 0.663078 49.9161L9.48826 35.2377L0.663078 20.5593C0.172688 19.7432 0.157884 18.7199 0.627918 17.889C1.09795 17.0599 1.98066 16.5436 2.93368 16.5436H24.1852C25.0309 16.5436 25.7174 17.2302 25.7174 18.0759C25.7174 18.9216 25.0309 19.6081 24.1852 19.6081H3.67019L12.425 34.1681C12.8211 34.8269 12.8211 35.6448 12.425 36.3036L3.67019 50.8636H24.1852C25.0309 50.8636 25.7174 51.5501 25.7174 52.3958C25.7174 53.2415 25.0309 53.9281 24.1852 53.9281V53.9317Z" fill="#4799A9"/>
  </svg>