<svg xmlns="http://www.w3.org/2000/svg" width="79" height="71" viewBox="0 0 79 71" fill="none">
    <path d="M69.2554 65.4385V50.3425H65.7994V47.5585H72.5194V65.4385H69.2554Z" fill="#4799A9" />
    <path
        d="M58.9851 65.4384V62.0784H62.1531V65.4384H58.9851ZM58.9851 55.7424V52.3824H62.1531V55.7424H58.9851Z"
        fill="#4799A9" />
    <path d="M50.5054 65.4385V50.3425H47.0494V47.5585H53.7694V65.4385H50.5054Z" fill="#4799A9" />
    <path fill-rule="evenodd" clip-rule="evenodd"
        d="M35.854 3.52671C17.9715 3.52671 3.94224 17.556 3.94224 35.4385C3.94224 53.321 17.9715 67.3502 35.854 67.3502C36.7068 67.3502 37.3981 68.0416 37.3981 68.8944C37.3981 69.7472 36.7068 70.4385 35.854 70.4385C16.2659 70.4385 0.854004 55.0266 0.854004 35.4385C0.854004 15.8504 16.2659 0.438477 35.854 0.438477C54.2401 0.438477 68.9468 14.0169 70.6825 31.8822L75.9386 26.626C76.5416 26.023 77.5193 26.023 78.1223 26.626C78.7253 27.229 78.7253 28.2067 78.1223 28.8097L70.4017 36.5303C69.7987 37.1333 68.821 37.1333 68.218 36.5303L60.4974 28.8097C59.8944 28.2067 59.8944 27.229 60.4974 26.626C61.1005 26.023 62.0781 26.023 62.6811 26.626L67.5325 31.4774C65.6359 15.5271 52.3929 3.52671 35.854 3.52671ZM35.854 13.3061C36.7068 13.3061 37.3981 13.9974 37.3981 14.8502V35.4385C37.3981 36.0868 36.9931 36.6661 36.3842 36.8887C35.7753 37.1113 35.0922 36.9299 34.674 36.4344L21.8064 21.1888C21.2563 20.5371 21.3387 19.5629 21.9904 19.0129C22.6421 18.4628 23.6163 18.5452 24.1664 19.1969L34.3099 31.215V14.8502C34.3099 13.9974 35.0012 13.3061 35.854 13.3061Z"
        fill="#4799A9" />
</svg>