<svg xmlns="http://www.w3.org/2000/svg" width="141" height="71" viewBox="0 0 141 71" fill="none">
    <path fill-rule="evenodd" clip-rule="evenodd" d="M50.2587 10.0944C50.4169 9.45215 51.0002 9 51.6706 9H121.547C121.993 9 122.414 9.20158 122.689 9.54687C122.965 9.89216 123.064 10.343 122.959 10.7699L110.631 60.905C110.473 61.5476 109.889 62 109.218 62H39.3372C38.8808 62 38.4509 61.7886 38.1764 61.4291C37.9019 61.0697 37.8146 60.604 37.9408 60.1715L40.9681 49.7974C41.1899 49.0371 41.9949 48.5981 42.7661 48.8168C43.5373 49.0355 43.9826 49.8292 43.7608 50.5894L41.2671 59.1351H108.076L119.7 11.8649H52.813L50.7934 20.063C50.6041 20.8317 49.8184 21.3036 49.0386 21.1169C48.2588 20.9302 47.7801 20.1556 47.9695 19.3869L50.2587 10.0944ZM116.114 14.8236C116.582 15.4663 116.433 16.3613 115.781 16.8226L82.1793 40.5984C79.2206 43.1301 74.9394 43.1525 71.9618 40.6184C71.8779 40.5469 71.8025 40.4662 71.7371 40.3778L54.566 17.1515C54.0934 16.5122 54.2359 15.6162 54.8844 15.1502C55.5329 14.6843 56.4418 14.8248 56.9144 15.4641L73.9811 38.5492C75.8637 40.057 78.4747 40.0046 80.3123 38.4022C80.3492 38.37 80.3877 38.3397 80.4277 38.3114L114.087 14.4951C114.739 14.0338 115.646 14.1809 116.114 14.8236ZM24.7827 26.2493C24.7827 25.4582 25.4332 24.8169 26.2357 24.8169H50.5884C51.3909 24.8169 52.0414 25.4582 52.0414 26.2493C52.0414 27.0404 51.3909 27.6817 50.5884 27.6817H26.2357C25.4332 27.6817 24.7827 27.0404 24.7827 26.2493ZM27.8648 35.2812C27.8648 34.4901 28.5153 33.8488 29.3178 33.8488H48.7381C49.5406 33.8488 50.1911 34.4901 50.1911 35.2812C50.1911 36.0723 49.5406 36.7136 48.7381 36.7136H29.3178C28.5153 36.7136 27.8648 36.0723 27.8648 35.2812ZM67.0523 39.5903C67.5442 40.2154 67.4289 41.1152 66.7948 41.6001L46.4469 57.1613C45.8128 57.6462 44.9001 57.5326 44.4082 56.9075C43.9163 56.2824 44.0316 55.3826 44.6657 54.8977L65.0136 39.3365C65.6477 38.8516 66.5604 38.9652 67.0523 39.5903ZM88.0194 40.3508C88.559 39.7652 89.4779 39.7217 90.0719 40.2536L106.719 55.1609C107.313 55.6928 107.357 56.5988 106.818 57.1844C106.278 57.77 105.359 57.8135 104.765 57.2816L88.118 42.3743C87.524 41.8423 87.4799 40.9364 88.0194 40.3508ZM18 44.318C18 43.5269 18.6505 42.8856 19.453 42.8856H46.8879C47.6903 42.8856 48.3409 43.5269 48.3409 44.318C48.3409 45.1091 47.6903 45.7505 46.8879 45.7505H19.453C18.6505 45.7505 18 45.1091 18 44.318Z" fill="#4799A9"/>
  </svg>