<svg xmlns="http://www.w3.org/2000/svg" width="70" height="71" viewBox="0 0 70 71" fill="none">
    <g clip-path="url(#clip0_62_5318)">
      <path d="M57.1989 24.5242C57.2198 24.1159 57.0819 23.723 56.8073 23.4178C56.2416 22.7893 55.2703 22.7377 54.6432 23.3035L37.2825 38.9278L29.09 30.7352C28.8001 30.4454 28.4155 30.2865 28.0058 30.2865C27.5961 30.2865 27.2115 30.4454 26.9216 30.7352C26.6318 31.0251 26.4729 31.4097 26.4729 31.8194C26.4729 32.2291 26.6318 32.6137 26.9216 32.9036L36.1426 42.1246C36.4325 42.4144 36.8171 42.5733 37.2268 42.5733C37.6058 42.5733 37.9696 42.4339 38.2524 42.1803L56.6931 25.5833C56.9969 25.3088 57.1766 24.9339 57.1989 24.5242Z" fill="#4799A9"/>
      <path d="M3.10891 35.4385C3.10891 17.8535 17.4149 3.54745 34.9985 3.54745C41.5691 3.54745 48.01 5.59873 53.3528 9.35709H53.2511C52.394 9.35709 51.6973 10.0539 51.6973 10.9109C51.6973 11.7679 52.394 12.4647 53.2511 12.4647H57.7104C58.5674 12.4647 59.2641 11.7679 59.2641 10.9109V6.45158C59.2641 5.59455 58.5674 4.89779 57.7104 4.89779C56.8533 4.89779 56.1566 5.59455 56.1566 6.45158V7.55665C50.0975 2.95659 42.6407 0.438477 34.9985 0.438477C15.7009 0.438477 -6.10352e-05 16.1394 -6.10352e-05 35.4385C-6.10352e-05 43.0834 2.42051 50.3451 6.99687 56.4376C7.28812 56.8278 7.75217 57.0606 8.23991 57.0606C8.57714 57.0606 8.89905 56.9532 9.17497 56.7484C9.85919 56.2328 9.99715 55.2573 9.48294 54.5717C5.31348 49.0199 3.10891 42.4034 3.10891 35.4385Z" fill="#4799A9"/>
      <path d="M65.9475 19.0799C65.0961 17.4704 64.1039 15.9082 63.0002 14.4395C62.4916 13.7566 61.5161 13.6159 60.8221 14.1287C60.4905 14.3781 60.2759 14.7419 60.2173 15.1543C60.1602 15.5654 60.2647 15.9737 60.5142 16.3054C61.5175 17.6418 62.4219 19.066 63.2009 20.5348C65.6145 25.0944 66.8896 30.2491 66.8896 35.44C66.8896 53.025 52.5822 67.331 34.9972 67.331C28.4266 67.331 21.9843 65.2812 16.6415 61.52H16.7182C17.5752 61.52 18.272 60.8232 18.272 59.9662C18.272 59.1092 17.5752 58.4124 16.7182 58.4124H12.2575C12.2421 58.4124 12.2268 58.4124 12.2143 58.4124H12.2129C12.2129 58.4124 12.2087 58.4124 12.2073 58.4124H12.1934C11.9774 58.4222 11.7642 58.4765 11.5718 58.5713L11.5468 58.5783L11.4715 58.6242C11.4325 58.6465 11.3949 58.6716 11.3517 58.7023L11.3336 58.7148C11.3029 58.7371 11.2736 58.7608 11.2444 58.7859L11.2179 58.8096C11.1984 58.8277 11.1789 58.8458 11.1594 58.8653L11.1301 58.889L11.0897 58.9392C11.066 58.9657 11.0437 58.9935 11.0214 59.0228L11.0089 59.0395C10.9852 59.073 10.9615 59.1064 10.9392 59.1426L10.9183 59.1761C10.9002 59.2067 10.8834 59.2374 10.8681 59.2695C10.8611 59.2848 10.8528 59.3001 10.8458 59.3154C10.8319 59.3447 10.8193 59.3754 10.8082 59.4032C10.8012 59.4213 10.7943 59.4409 10.7873 59.459C10.7775 59.4882 10.7678 59.5175 10.7594 59.5482C10.7538 59.5677 10.7497 59.5872 10.7441 59.6067C10.7371 59.6346 10.7315 59.6624 10.726 59.6931C10.7218 59.714 10.719 59.7363 10.7162 59.7586C10.712 59.7864 10.7092 59.8143 10.7079 59.845C10.7065 59.8645 10.7051 59.884 10.7051 59.9035C10.7051 59.923 10.7037 59.9425 10.7037 59.9634V64.4227C10.7037 65.2798 11.4004 65.9765 12.2575 65.9765C13.1145 65.9765 13.8113 65.2798 13.8113 64.4227V63.2968C19.8759 67.9108 27.3411 70.4372 34.9958 70.4372C54.2948 70.4372 69.9972 54.7363 69.9972 35.4372C69.9972 29.7391 68.5953 24.0827 65.9448 19.0785L65.9475 19.0799Z" fill="#4799A9"/>
      <path d="M34.9999 19.8936C39.9317 19.8936 44.4648 22.1651 47.4386 26.1255C47.925 26.7735 48.814 26.9519 49.5066 26.5408L49.5219 26.5324C49.8815 26.3178 50.1351 25.9597 50.2159 25.55C50.2981 25.1375 50.202 24.7055 49.9498 24.3669C46.4311 19.6288 40.8221 16.8153 34.9414 16.8306C30.1881 16.846 25.6228 18.7509 22.0888 22.1943C18.5534 25.6392 16.5328 30.1528 16.3976 34.9034C16.2541 39.9717 18.1228 44.7668 21.6596 48.4053C25.1992 52.0466 29.9372 54.0519 34.9999 54.0519C45.2619 54.0519 53.6106 45.7033 53.6106 35.4413C53.6106 34.6637 53.5618 33.8805 53.4643 33.1127C53.4002 32.6026 53.0838 32.1693 52.6198 31.9533C52.1585 31.7387 51.6276 31.7749 51.2012 32.0508L51.1719 32.0703C50.6465 32.4103 50.365 33.0096 50.4389 33.6339C50.51 34.2345 50.5448 34.8434 50.5448 35.4441C50.5448 39.7041 48.8489 43.6812 45.7692 46.6439C42.6922 49.6038 38.6496 51.1422 34.384 50.9778C26.3308 50.6656 19.777 44.1132 19.4662 36.06C19.3004 31.7944 20.8402 27.7518 23.8001 24.6748C26.7628 21.5951 30.7399 19.8992 34.9999 19.8992V19.8936Z" fill="#4799A9"/>
    </g>
    <defs>
      <clipPath id="clip0_62_5318">
        <rect width="70" height="70" fill="white" transform="translate(-6.10352e-05 0.438477)"/>
      </clipPath>
    </defs>
  </svg>