<svg xmlns="http://www.w3.org/2000/svg" width="85" height="71" viewBox="0 0 85 71" fill="none">
    <path d="M82.8022 43.3335C84.1896 42.3112 85.0137 40.6735 85.0047 38.9523C84.9958 37.2312 84.1553 35.6024 82.7561 34.595C82.6115 34.4907 82.5415 34.3179 82.5936 34.2016C83.3253 32.6041 83.2344 30.7459 82.3537 29.2304C81.4715 27.7148 79.9009 26.7194 78.1514 26.5659C78.0247 26.5555 77.9085 26.4392 77.8965 26.3126C77.7341 24.5646 76.7297 22.9984 75.2097 22.1252C74.0742 21.4725 72.7509 21.2638 71.4902 21.5067V10.4332C71.4902 4.92245 67.0063 0.438477 61.4956 0.438477H10.7041C5.19335 0.439967 0.709381 4.92394 0.709381 10.4346V43.4751C0.709381 48.9858 5.19335 53.4697 10.7041 53.4697H53.1043L48.1763 63.381C47.8529 64.0307 47.92 64.7952 48.3506 65.3793C48.7813 65.9635 49.4936 66.2525 50.2089 66.1348L54.6854 65.4016L56.803 69.4132C57.1383 70.0466 57.788 70.4385 58.5033 70.4385C58.5107 70.4385 58.5197 70.4385 58.5271 70.4385C59.2513 70.4295 59.9026 70.0212 60.2259 69.3715L65.4773 58.8091L70.7288 69.3715C71.0521 70.0212 71.7018 70.4295 72.4276 70.4385C72.435 70.4385 72.444 70.4385 72.4514 70.4385C73.1667 70.4385 73.8164 70.0481 74.1517 69.4132L76.2693 65.4016L80.7458 66.1348C81.4611 66.2511 82.1734 65.962 82.604 65.3793C83.0347 64.7952 83.1018 64.0307 82.7784 63.381L77.6924 53.1523C77.8727 52.6799 77.9904 52.1807 78.0322 51.6651C78.0426 51.5385 78.1588 51.4207 78.284 51.4088C80.032 51.2374 81.5922 50.2241 82.458 48.6996C83.3238 47.1752 83.3939 45.3154 82.6458 43.7269C82.5906 43.6107 82.6607 43.4378 82.8037 43.332L82.8022 43.3335ZM48.2568 34.5682C48.3134 34.6844 48.2448 34.8573 48.1033 34.9646C46.7263 36.0018 45.9201 37.6484 45.9485 39.3681C45.9768 41.0893 46.8336 42.7091 48.2433 43.7016C48.3879 43.8044 48.4609 43.9758 48.4087 44.092C47.695 45.6969 47.8037 47.5537 48.7023 49.0603C49.1926 49.8814 49.887 50.5445 50.6992 51.0005H13.3611V43.8923C13.3611 42.1711 11.9618 40.7719 10.2406 40.7719H3.17862V13.1378H10.2406C11.9618 13.1378 13.3611 11.7386 13.3611 10.0174V2.90921H58.8401V10.0174C58.8401 11.7386 60.2393 13.1378 61.9605 13.1378H69.0225V20.86C68.0479 20.0136 66.7872 19.5278 65.4759 19.5278C63.6563 19.5278 61.9709 20.4353 60.9665 21.9553C60.8593 22.1192 60.6745 22.1699 60.4971 22.0864C58.852 21.3041 56.9401 21.3994 55.3828 22.3397C53.8822 23.2458 52.9121 24.8328 52.7869 26.5838C52.778 26.7105 52.6632 26.8297 52.5381 26.8431C50.7916 27.0338 49.2433 28.0621 48.3938 29.5955C47.5444 31.1289 47.4938 32.9886 48.2582 34.5697L48.2568 34.5682ZM69.0225 10.4346V10.6686H61.9605C61.6014 10.6686 61.3093 10.3765 61.3093 10.0174V2.90921H61.4971C65.6472 2.90921 69.0225 6.28448 69.0225 10.4346ZM10.7041 2.90921H10.8918V10.0174C10.8918 10.3765 10.5997 10.6686 10.2406 10.6686H3.17862V10.4346C3.17862 6.28448 6.55389 2.90921 10.7041 2.90921ZM3.17862 43.4751V43.2411H10.2406C10.5997 43.2411 10.8918 43.5332 10.8918 43.8923V51.0005H10.7041C6.55389 51.0005 3.17862 47.6237 3.17862 43.4751ZM58.4884 67.3195L56.0385 62.6806L50.8601 63.527L54.9194 55.3623C55.2219 55.6394 55.5572 55.8838 55.9208 56.0895C57.4497 56.9478 59.3095 57.0074 60.895 56.2504C61.0113 56.1953 61.1841 56.2638 61.2899 56.4054C61.7832 57.0685 62.418 57.599 63.1348 57.9716L58.4869 67.318L58.4884 67.3195ZM74.9147 62.6806L72.4648 67.3195L67.8765 58.0908C68.7259 57.7004 69.474 57.0924 70.0284 56.313C70.1312 56.1685 70.3041 56.0954 70.4203 56.1491C72.0207 56.8718 73.879 56.772 75.3901 55.8823C75.627 55.7423 75.849 55.5843 76.0592 55.4129L80.0931 63.5255L74.9147 62.6791V62.6806ZM81.3389 41.3456C80.2451 42.1518 79.8547 43.5958 80.412 44.7805C80.8188 45.6448 80.7816 46.6551 80.3107 47.4822C79.8412 48.3092 78.9933 48.8591 78.0426 48.953C76.7193 49.0826 75.6806 50.1392 75.5719 51.4639C75.4944 52.4162 74.9579 53.2715 74.1368 53.7558C73.3172 54.2387 72.3069 54.2923 71.4366 53.9004C70.2444 53.3624 68.8064 53.7752 68.0181 54.8824C67.5353 55.5605 66.817 55.9896 66.0093 56.094C65.8946 56.1089 65.7769 56.1163 65.6591 56.1178C64.7159 56.1327 63.8411 55.6961 63.2734 54.9331C62.713 54.1805 61.8517 53.7663 60.9829 53.7663C60.5925 53.7663 60.2006 53.8497 59.834 54.0256C58.9712 54.4369 57.9623 54.4041 57.1308 53.9391C56.3008 53.4742 55.7464 52.6278 55.6481 51.6785C55.511 50.3567 54.45 49.3225 53.1237 49.2197C52.1715 49.1467 51.3116 48.6147 50.8243 47.7981C50.3371 46.98 50.2774 45.9711 50.6664 45.0994C51.1984 43.9042 50.7781 42.4677 49.6665 41.6853C48.8886 41.137 48.4341 40.2801 48.4192 39.3323C48.4043 38.3846 48.832 37.5128 49.5905 36.9406C50.6768 36.1225 51.0508 34.674 50.4816 33.4968C50.0658 32.6369 50.0927 31.6266 50.5531 30.7936C51.0136 29.9606 51.857 29.4017 52.8063 29.2989C54.1281 29.1544 55.1563 28.0874 55.2502 26.7611C55.3187 25.8089 55.8448 24.9461 56.6599 24.4543C57.5048 23.9432 58.545 23.8925 59.4391 24.3172C60.7296 24.9312 62.2392 24.5109 63.0275 23.3188C63.5744 22.4932 64.4893 21.9985 65.4773 21.9985C66.4653 21.9985 67.2909 22.4396 67.8512 23.2085C68.6514 24.3068 70.0939 24.7047 71.2801 24.1533C72.1459 23.7509 73.1563 23.7942 73.9818 24.268C74.8074 24.7419 75.3528 25.5928 75.4407 26.5436C75.5644 27.8668 76.615 28.913 77.9383 29.0277C78.889 29.1111 79.7429 29.6521 80.2227 30.4747C80.7011 31.2973 80.7503 32.3076 80.3524 33.1749C79.807 34.3641 80.2123 35.8051 81.3165 36.5993C82.0884 37.1552 82.534 38.018 82.5385 38.9658C82.543 39.9135 82.1078 40.7808 81.3404 41.3456H81.3389Z" fill="#4799A9"/>
    <path d="M65.4759 27.9339C59.4033 27.9339 54.4619 32.8754 54.4619 38.9479C54.4619 45.0204 59.4033 49.9618 65.4759 49.9618C71.5484 49.9618 76.4898 45.0219 76.4898 38.9479C76.4898 32.8739 71.5499 27.9339 65.4759 27.9339ZM65.4759 47.4926C60.7639 47.4926 56.9311 43.6598 56.9311 38.9479C56.9311 34.2359 60.7639 30.4031 65.4759 30.4031C70.1878 30.4031 74.0206 34.2359 74.0206 38.9479C74.0206 43.6598 70.1878 47.4926 65.4759 47.4926Z" fill="#4799A9"/>
    <path d="M28.9216 13.3509H43.2155C43.8965 13.3509 44.4493 12.7981 44.4493 12.1171C44.4493 11.436 43.8965 10.8832 43.2155 10.8832H28.9216C28.2406 10.8832 27.6877 11.436 27.6877 12.1171C27.6877 12.7981 28.2406 13.3509 28.9216 13.3509Z" fill="#4799A9"/>
    <path d="M47.4848 21.848H15.5829C14.9019 21.848 14.3491 22.4008 14.3491 23.0819C14.3491 23.7629 14.9019 24.3157 15.5829 24.3157H47.4848C48.1659 24.3157 48.7187 23.7629 48.7187 23.0819C48.7187 22.4008 48.1659 21.848 47.4848 21.848Z" fill="#4799A9"/>
    <path d="M41.3959 32.2942H15.343C14.662 32.2942 14.1091 32.847 14.1091 33.5281C14.1091 34.2091 14.662 34.7619 15.343 34.7619H41.3959C42.077 34.7619 42.6298 34.2091 42.6298 33.5281C42.6298 32.847 42.077 32.2942 41.3959 32.2942Z" fill="#4799A9"/>
  </svg>