<svg xmlns="http://www.w3.org/2000/svg" width="79" height="71" viewBox="0 0 79 71" fill="none">
    <path d="M10.9365 41.0602C11.1764 41.3068 11.4503 41.4957 11.7582 41.6267C12.0679 41.7576 12.3962 41.8223 12.7364 41.8223H33.2072C33.5474 41.8223 33.8724 41.7576 34.1837 41.6267C34.4916 41.4957 34.7672 41.3068 35.0071 41.0602C35.2486 40.8101 35.4307 40.5294 35.5515 40.2232C35.6722 39.9169 35.725 39.5886 35.7165 39.2398C35.4783 30.4412 33.3382 29.4936 29.1991 27.6614C28.9865 27.5678 28.767 27.4708 28.5458 27.3705C29.6976 26.0622 30.3985 24.344 30.3985 22.4658C30.3985 20.4159 29.5666 18.5581 28.2226 17.2142C26.8787 15.8702 25.0226 15.04 22.9727 15.04C20.9227 15.04 19.0667 15.8702 17.7227 17.2142C16.3787 18.5581 15.5485 20.4159 15.5485 22.4658C15.5485 24.3457 16.246 26.0622 17.3995 27.3705C17.1766 27.4708 16.9589 27.5661 16.7479 27.6614C12.6054 29.4953 10.467 30.4412 10.2305 39.2433C10.2203 39.5886 10.2765 39.9169 10.3939 40.2232C10.5129 40.5294 10.6967 40.8101 10.9399 41.0602H10.9365ZM19.1347 18.6313C20.1163 17.6497 21.4722 17.0424 22.971 17.0424C24.4697 17.0424 25.8256 17.6497 26.8072 18.6313C27.7888 19.6112 28.3961 20.9705 28.3961 22.4675C28.3961 23.9646 27.7905 25.3222 26.8072 26.3038C25.8256 27.2837 24.4697 27.891 22.971 27.891C21.4722 27.891 20.1163 27.2837 19.1347 26.3038C18.1531 25.3222 17.5458 23.9663 17.5458 22.4675C17.5458 20.9688 18.1514 19.6112 19.1347 18.6313ZM17.5492 29.4902C18.0255 29.2809 18.5291 29.0564 19.0837 28.7944C20.2167 29.4902 21.5487 29.8934 22.9727 29.8934C24.3966 29.8934 25.7303 29.4919 26.8616 28.7944C27.4179 29.0564 27.9215 29.2809 28.3961 29.4902C31.7782 30.9872 33.5236 31.7596 33.7261 39.2909V39.2943C33.7278 39.3674 33.7175 39.4389 33.6937 39.4984C33.6716 39.5563 33.6325 39.6141 33.5797 39.6703C33.5236 39.7264 33.4675 39.7672 33.4147 39.791C33.362 39.8132 33.2956 39.8217 33.2106 39.8217H12.7398C12.6548 39.8217 12.585 39.8115 12.5357 39.791C12.4795 39.7672 12.4234 39.7264 12.3673 39.6703C12.3162 39.6141 12.2771 39.5563 12.2533 39.4984C12.2295 39.4372 12.2193 39.3674 12.221 39.2909C12.4234 31.7596 14.1689 30.9872 17.5509 29.4902H17.5492Z" fill="#4799A9"/>
    <path d="M40.6228 38.7244C41.1689 39.2671 41.9174 39.6039 42.7374 39.6039H65.629C66.4507 39.6039 67.1992 39.2654 67.7436 38.721L67.7504 38.7142C68.2948 38.1698 68.6299 37.4229 68.6299 36.603V20.2611C68.6299 19.4394 68.2914 18.6908 67.747 18.1464L67.7419 18.1396C67.1975 17.597 66.449 17.2601 65.629 17.2601H42.7374C41.9157 17.2601 41.1672 17.597 40.6211 18.1413L40.6143 18.1482C40.0716 18.6925 39.7365 19.4411 39.7365 20.2611V36.603C39.7365 37.4229 40.0733 38.1732 40.616 38.7176L40.6211 38.7244H40.6228ZM41.7371 20.2611C41.7371 19.9855 41.8494 19.7354 42.0263 19.5551H42.0297C42.21 19.373 42.4601 19.2607 42.7357 19.2607H65.6273C65.9029 19.2607 66.153 19.373 66.3316 19.5534H66.335C66.5153 19.7354 66.6259 19.9855 66.6259 20.2611V36.603C66.6259 36.8786 66.5136 37.1286 66.335 37.3073L66.3316 37.3107C66.153 37.491 65.9029 37.6016 65.6273 37.6016H42.7357C42.4601 37.6016 42.21 37.491 42.0297 37.3107L42.0263 37.3073C41.8477 37.1286 41.7371 36.8786 41.7371 36.603V20.2611Z" fill="#4799A9"/>
    <path d="M45.2263 23.9H63.1401C63.6913 23.9 64.1387 23.4525 64.1387 22.8997C64.1387 22.3468 63.6913 21.8993 63.1401 21.8993H45.2263C44.6734 21.8993 44.226 22.3468 44.226 22.8997C44.226 23.4525 44.6734 23.9 45.2263 23.9Z" fill="#4799A9"/>
    <path d="M45.2263 29.4323H63.1401C63.6913 29.4323 64.1387 28.9832 64.1387 28.432C64.1387 27.8808 63.6913 27.4317 63.1401 27.4317H45.2263C44.6734 27.4317 44.226 27.8808 44.226 28.432C44.226 28.9832 44.6734 29.4323 45.2263 29.4323Z" fill="#4799A9"/>
    <path d="M45.2263 34.9664H63.1401C63.6913 34.9664 64.1387 34.519 64.1387 33.9661C64.1387 33.4132 63.6913 32.9658 63.1401 32.9658H45.2263C44.6734 32.9658 44.226 33.4132 44.226 33.9661C44.226 34.519 44.6734 34.9664 45.2263 34.9664Z" fill="#4799A9"/>
    <path d="M78.3728 4.3853C78.0496 3.60274 77.5732 2.89844 76.9863 2.31152C76.3994 1.7263 75.6951 1.25166 74.9142 0.925025C74.1606 0.612001 73.3355 0.438477 72.4781 0.438477H6.37387C5.51646 0.438477 4.69137 0.612001 3.93773 0.925025C3.15517 1.25166 2.45087 1.7263 1.86565 2.31152C1.27873 2.89844 0.804088 3.60274 0.477454 4.3853C0.166131 5.14064 -0.00909424 5.96403 -0.00909424 6.82144V50.0443C-0.00909424 50.9017 0.166131 51.7268 0.477454 52.4804C0.792179 53.2324 1.2464 53.9145 1.80951 54.493L1.86565 54.5525C2.45087 55.1394 3.15517 55.6141 3.93773 55.939C4.69137 56.2537 5.51646 56.4272 6.37387 56.4272H24.8406L24.7913 57.1026C24.417 62.2709 24.1703 65.6921 18.1446 66.4951C17.5764 66.5716 17.1698 66.8302 16.8908 67.2045C16.605 67.5872 16.4893 68.0534 16.4893 68.5348C16.4893 69.0163 16.673 69.4603 16.9759 69.7988L17.0473 69.8805C17.3927 70.2241 17.869 70.4385 18.393 70.4385H60.4624C61.0799 70.4385 61.5478 70.1969 61.8778 69.809C62.2112 69.4177 62.3661 68.9057 62.3661 68.3783C62.3661 67.9037 62.1874 67.4647 61.8931 67.1262C61.5988 66.7894 61.1854 66.558 60.7108 66.4951C54.6868 65.6938 54.4384 62.2709 54.0641 57.1026L54.0148 56.4272H72.4815C73.3389 56.4272 74.1623 56.2537 74.9159 55.939C75.6696 55.626 76.3535 55.1701 76.9302 54.6087L76.9914 54.5525C77.5766 53.9673 78.053 53.263 78.3779 52.4804C78.6909 51.7251 78.8662 50.9017 78.8662 50.0443V6.82144C78.8662 5.96403 78.6909 5.13894 78.3779 4.3853H78.3728ZM60.2208 68.4395H18.6311C26.0485 67.3695 26.3411 63.324 26.7817 57.2438L26.8412 56.4289H52.0107L52.0703 57.2438C52.5092 63.324 52.8052 67.3695 60.2208 68.4395ZM76.8604 50.0443C76.8604 50.638 76.743 51.2028 76.5304 51.7149C76.3075 52.2474 75.9809 52.7305 75.5726 53.1388L75.5267 53.1864C75.1303 53.5709 74.6642 53.8839 74.1487 54.0966C73.6366 54.3092 73.0735 54.4266 72.4781 54.4266H6.37387C5.78015 54.4266 5.21535 54.3092 4.70328 54.0966C4.1691 53.8737 3.68765 53.5471 3.27936 53.1388L3.22832 53.0929C2.84725 52.6982 2.53593 52.232 2.31987 51.7149C2.10722 51.2028 1.98984 50.6397 1.98984 50.0443V6.82144C1.98984 6.22772 2.10722 5.66292 2.31987 5.15085C2.54273 4.61837 2.86937 4.13352 3.27766 3.72693C3.68255 3.31864 4.1674 2.992 4.70158 2.76914C5.21364 2.55649 5.77675 2.43911 6.37217 2.43911H72.4764C73.0701 2.43911 73.6349 2.55649 74.147 2.76914C74.6795 2.9903 75.1626 3.31864 75.5709 3.72693C75.9792 4.13522 76.3075 4.61837 76.5287 5.15085C76.7413 5.66292 76.8587 6.22772 76.8587 6.82144V50.0443H76.8604Z" fill="#4799A9"/>
    <path d="M73.6536 6.26174C73.589 6.12565 73.5005 6.00486 73.3967 5.90109H73.3984C73.293 5.79391 73.1654 5.70204 73.0089 5.63059L73.0055 5.62719C72.8439 5.55404 72.6669 5.51321 72.4798 5.51321H6.37387C6.19014 5.51321 6.01322 5.55404 5.84309 5.63229C5.68828 5.70374 5.55899 5.79391 5.45352 5.90109C5.34634 6.00826 5.25617 6.13585 5.18302 6.29067C5.10477 6.46079 5.06564 6.63601 5.06564 6.82144V50.0443C5.06564 50.2297 5.10647 50.4066 5.18302 50.5751C5.25107 50.7231 5.34294 50.8541 5.45352 50.9629C5.5658 51.0752 5.69339 51.1671 5.83969 51.2351C6.00641 51.3117 6.18334 51.3525 6.37387 51.3525H72.4781C72.6601 51.3525 72.8319 51.3117 72.997 51.2385C73.1569 51.1688 73.2913 51.0735 73.3984 50.9646C73.4325 50.9306 73.4631 50.8966 73.4903 50.8575C73.5601 50.7741 73.6213 50.6788 73.6689 50.5734C73.7455 50.4066 73.7863 50.2314 73.7863 50.0426V6.82144C73.7863 6.63601 73.7438 6.45738 73.6689 6.29067L73.6553 6.26345L73.6536 6.26174ZM71.7857 49.3519H7.06457V7.51214H71.7857V49.3519Z" fill="#4799A9"/>
  </svg>