<svg xmlns="http://www.w3.org/2000/svg" width="96" height="72" viewBox="0 0 96 72" fill="none">
    <path d="M67.9118 70.9385V68.4665L72.7598 63.4025C73.7198 62.3945 74.4558 61.5945 74.9678 61.0025C75.4958 60.3945 75.8638 59.8745 76.0718 59.4425C76.2798 59.0105 76.3838 58.5705 76.3838 58.1225C76.3838 57.3705 76.1438 56.7785 75.6638 56.3465C75.1998 55.9145 74.5998 55.6985 73.8638 55.6985C73.0958 55.6985 72.4318 55.9225 71.8718 56.3705C71.3118 56.8025 70.9038 57.4425 70.6478 58.2905L67.7918 57.4025C67.9838 56.4585 68.3758 55.6425 68.9678 54.9545C69.5598 54.2505 70.2798 53.7145 71.1278 53.3465C71.9918 52.9625 72.9038 52.7705 73.8638 52.7705C75.0158 52.7705 76.0238 52.9785 76.8878 53.3945C77.7678 53.8105 78.4478 54.3945 78.9278 55.1465C79.4238 55.8985 79.6718 56.7785 79.6718 57.7865C79.6718 58.4265 79.5518 59.0585 79.3118 59.6825C79.0718 60.3065 78.7118 60.9465 78.2318 61.6025C77.7518 62.2425 77.1278 62.9625 76.3598 63.7625L72.1598 68.1785H79.9118V70.9385H67.9118Z" fill="#4799A9"/>
    <path d="M89.9657 70.9385V67.0025H81.7577V64.2665L89.7737 53.0585H93.1817V64.2665H95.7977V67.0025H93.1817V70.9385H89.9657ZM84.1577 65.4425L83.5817 64.2665H89.9657V55.6265L90.8057 55.8905L84.1577 65.4425Z" fill="#4799A9"/>
    <path d="M18.8438 24.0367L8.98804 19.7821V16.9894L18.8438 12.713V15.6367L11.2856 18.8876V17.8839L18.8438 21.1348V24.0367Z" fill="#4799A9"/>
    <path d="M21.4023 26.9385L28.5311 8.93848H31.6016L24.4728 26.9385H21.4023Z" fill="#4799A9"/>
    <path d="M34.1538 24.0367V21.1348L41.6905 17.8839V18.8876L34.1538 15.6367V12.713L43.988 16.9894V19.7821L34.1538 24.0367Z" fill="#4799A9"/>
    <path fill-rule="evenodd" clip-rule="evenodd" d="M47.9788 1.9107C47.9788 1.37376 48.4141 0.938477 48.951 0.938477H60.2936C60.8305 0.938477 61.2658 1.37376 61.2658 1.9107V21.3551C61.2658 21.8921 60.8305 22.3274 60.2936 22.3274C59.7567 22.3274 59.3214 21.8921 59.3214 21.3551V2.88292H48.951C48.4141 2.88292 47.9788 2.44764 47.9788 1.9107Z" fill="#4799A9"/>
    <path fill-rule="evenodd" clip-rule="evenodd" d="M0.988037 1.9107C0.988037 1.37376 1.42332 0.938477 1.96026 0.938477H44.0899C44.6268 0.938477 45.0621 1.37376 45.0621 1.9107C45.0621 2.44764 44.6268 2.88292 44.0899 2.88292H2.93248V54.4107H32.7473C33.2842 54.4107 33.7195 54.846 33.7195 55.3829C33.7195 55.9199 33.2842 56.3551 32.7473 56.3551H1.96026C1.42332 56.3551 0.988037 55.9199 0.988037 55.3829V1.9107Z" fill="#4799A9"/>
    <path fill-rule="evenodd" clip-rule="evenodd" d="M7.46952 44.0403C7.46952 43.5034 7.9048 43.0681 8.44174 43.0681H18.164C18.7009 43.0681 19.1362 43.5034 19.1362 44.0403C19.1362 44.5773 18.7009 45.0126 18.164 45.0126H8.44174C7.9048 45.0126 7.46952 44.5773 7.46952 44.0403Z" fill="#4799A9"/>
    <path fill-rule="evenodd" clip-rule="evenodd" d="M22.0529 44.0403C22.0529 43.5034 22.4881 43.0681 23.0251 43.0681H27.8862C28.4231 43.0681 28.8584 43.5034 28.8584 44.0403C28.8584 44.5773 28.4231 45.0126 27.8862 45.0126H23.0251C22.4881 45.0126 22.0529 44.5773 22.0529 44.0403Z" fill="#4799A9"/>
    <path fill-rule="evenodd" clip-rule="evenodd" d="M7.46952 37.5588C7.46952 37.0219 7.9048 36.5866 8.44174 36.5866H27.8862C28.4231 36.5866 28.8584 37.0219 28.8584 37.5588C28.8584 38.0958 28.4231 38.5311 27.8862 38.5311H8.44174C7.9048 38.5311 7.46952 38.0958 7.46952 37.5588Z" fill="#4799A9"/>
    <path fill-rule="evenodd" clip-rule="evenodd" d="M75.8098 43.3529C76.1895 42.9732 76.8051 42.9732 77.1848 43.3529L81.3584 47.5265L85.5321 43.3529C85.9117 42.9732 86.5273 42.9732 86.907 43.3529C87.2867 43.7325 87.2867 44.3481 86.907 44.7278L82.0459 49.5889C81.6662 49.9686 81.0506 49.9686 80.6709 49.5889L75.8098 44.7278C75.4302 44.3481 75.4302 43.7325 75.8098 43.3529Z" fill="#4799A9"/>
    <path fill-rule="evenodd" clip-rule="evenodd" d="M60.2936 28.8088C49.0342 28.8088 40.201 37.6421 40.201 48.9014C40.201 60.1608 49.0342 68.994 60.2936 68.994C60.8305 68.994 61.2658 69.4293 61.2658 69.9662C61.2658 70.5032 60.8305 70.9385 60.2936 70.9385C47.9604 70.9385 38.2566 61.2347 38.2566 48.9014C38.2566 36.5682 47.9604 26.8644 60.2936 26.8644C72.6268 26.8644 82.3306 36.5682 82.3306 48.9014C82.3306 49.4384 81.8954 49.8737 81.3584 49.8737C80.8215 49.8737 80.3862 49.4384 80.3862 48.9014C80.3862 37.6421 71.5529 28.8088 60.2936 28.8088Z" fill="#4799A9"/>
    <path fill-rule="evenodd" clip-rule="evenodd" d="M60.2936 34.9663C60.8305 34.9663 61.2658 35.4015 61.2658 35.9385V48.9014C61.2658 49.1593 61.1634 49.4066 60.9811 49.5889L52.8792 57.6908C52.4995 58.0704 51.884 58.0704 51.5043 57.6908C51.1246 57.3111 51.1246 56.6955 51.5043 56.3158L59.3214 48.4987V35.9385C59.3214 35.4015 59.7566 34.9663 60.2936 34.9663Z" fill="#4799A9"/>
    <path fill-rule="evenodd" clip-rule="evenodd" d="M0.488037 1.9107C0.488037 1.09761 1.14717 0.438477 1.96026 0.438477H44.0899C44.903 0.438477 45.5621 1.09761 45.5621 1.9107C45.5621 2.72378 44.903 3.38292 44.0899 3.38292H3.43248V53.9107H32.7473C33.5604 53.9107 34.2195 54.5698 34.2195 55.3829C34.2195 56.196 33.5604 56.8551 32.7473 56.8551H1.96026C1.14717 56.8551 0.488037 56.196 0.488037 55.3829V1.9107ZM1.96026 1.43848C1.69946 1.43848 1.48804 1.6499 1.48804 1.9107V55.3829C1.48804 55.6437 1.69946 55.8551 1.96026 55.8551H32.7473C33.0081 55.8551 33.2195 55.6437 33.2195 55.3829C33.2195 55.1221 33.0081 54.9107 32.7473 54.9107H2.93248C2.65634 54.9107 2.43248 54.6868 2.43248 54.4107V2.88292C2.43248 2.60678 2.65634 2.38292 2.93248 2.38292H44.0899C44.3507 2.38292 44.5621 2.1715 44.5621 1.9107C44.5621 1.6499 44.3507 1.43848 44.0899 1.43848H1.96026ZM47.4788 1.9107C47.4788 1.09761 48.1379 0.438477 48.951 0.438477H60.2936C61.1067 0.438477 61.7658 1.09761 61.7658 1.9107V21.3551C61.7658 22.1682 61.1067 22.8274 60.2936 22.8274C59.4805 22.8274 58.8214 22.1682 58.8214 21.3551V3.38292H48.951C48.1379 3.38292 47.4788 2.72378 47.4788 1.9107ZM48.951 1.43848C48.6902 1.43848 48.4788 1.6499 48.4788 1.9107C48.4788 2.1715 48.6902 2.38292 48.951 2.38292H59.3214C59.5975 2.38292 59.8214 2.60678 59.8214 2.88292V21.3551C59.8214 21.6159 60.0328 21.8274 60.2936 21.8274C60.5544 21.8274 60.7658 21.6159 60.7658 21.3551V1.9107C60.7658 1.6499 60.5544 1.43848 60.2936 1.43848H48.951ZM37.7566 48.9014C37.7566 36.2921 47.6842 26.3644 60.2936 26.3644C71.7729 26.3644 81.0297 34.5924 82.5966 45.5812L85.1785 42.9993C85.7534 42.4244 86.6856 42.4244 87.2605 42.9993C87.8355 43.5742 87.8355 44.5064 87.2605 45.0813L82.4014 49.9405C82.3954 49.9465 82.3893 49.9525 82.3832 49.9584C82.252 50.0856 82.0973 50.1886 81.9261 50.2602C81.7735 50.3241 81.6078 50.3629 81.4342 50.3717C81.4091 50.373 81.3838 50.3737 81.3584 50.3737C81.1588 50.3737 80.9685 50.3339 80.7949 50.262C80.6212 50.1901 80.4585 50.0836 80.3174 49.9425L75.4563 45.0813C74.8813 44.5064 74.8813 43.5742 75.4563 42.9993C76.0312 42.4244 76.9634 42.4244 77.5383 42.9993L79.5071 44.968C77.7324 35.9306 69.9259 29.3088 60.2936 29.3088C49.3104 29.3088 40.701 37.9182 40.701 48.9014C40.701 59.8846 49.3104 68.494 60.2936 68.494C61.1067 68.494 61.7658 69.1532 61.7658 69.9662C61.7658 70.7793 61.1067 71.4385 60.2936 71.4385C47.6842 71.4385 37.7566 61.5108 37.7566 48.9014ZM79.7624 46.6376L76.8312 43.7064C76.6468 43.522 76.3478 43.522 76.1634 43.7064C75.979 43.8908 75.979 44.1898 76.1634 44.3742L79.8701 48.0809C79.851 47.5946 79.8149 47.1133 79.7624 46.6376ZM80.8548 47.73L81.0049 47.8801C81.2001 48.0753 81.5167 48.0753 81.712 47.8801L81.8035 47.7885C81.8215 48.1569 81.8306 48.5279 81.8306 48.9014C81.8306 49.0314 81.7781 49.1492 81.6931 49.2346L81.6923 49.2354C81.6069 49.3208 81.4888 49.3737 81.3584 49.3737C81.228 49.3737 81.11 49.3208 81.0245 49.2353C80.939 49.1499 80.8862 49.0318 80.8862 48.9014C80.8862 48.508 80.8757 48.1175 80.8548 47.73ZM82.8176 48.1101L86.5534 44.3742C86.7378 44.1898 86.7378 43.8908 86.5534 43.7064C86.369 43.522 86.07 43.522 85.8856 43.7064L82.7421 46.85C82.7783 47.2666 82.8035 47.6867 82.8176 48.1101ZM81.701 46.4768C80.5279 35.5974 71.5298 27.3644 60.2936 27.3644C48.2365 27.3644 38.7566 36.8443 38.7566 48.9014C38.7566 60.9585 48.2365 70.4385 60.2936 70.4385C60.5544 70.4385 60.7658 70.2271 60.7658 69.9662C60.7658 69.7055 60.5544 69.494 60.2936 69.494C48.7581 69.494 39.701 60.4369 39.701 48.9014C39.701 37.3659 48.7581 28.3088 60.2936 28.3088C70.9034 28.3088 79.4166 35.9706 80.7146 46.1756L81.3584 46.8194L81.701 46.4768ZM58.8214 35.9385C58.8214 35.1254 59.4805 34.4663 60.2936 34.4663C61.1067 34.4663 61.7658 35.1254 61.7658 35.9385V48.9014C61.7658 49.2919 61.6107 49.6664 61.3346 49.9425L53.2328 58.0443C52.6578 58.6192 51.7257 58.6192 51.1507 58.0443C50.5758 57.4694 50.5758 56.5372 51.1507 55.9623L58.8214 48.2916V35.9385ZM60.2936 35.4663C60.0328 35.4663 59.8214 35.6777 59.8214 35.9385V48.4987C59.8214 48.6313 59.7687 48.7585 59.6749 48.8523L51.8578 56.6694C51.6734 56.8538 51.6734 57.1528 51.8578 57.3372C52.0422 57.5216 52.3412 57.5216 52.5257 57.3372L60.6275 49.2353C60.7161 49.1468 60.7658 49.0267 60.7658 48.9014V35.9385C60.7658 35.6777 60.5544 35.4663 60.2936 35.4663ZM6.96952 37.5588C6.96952 36.7458 7.62866 36.0866 8.44174 36.0866H27.8862C28.6993 36.0866 29.3584 36.7458 29.3584 37.5588C29.3584 38.3719 28.6993 39.0311 27.8862 39.0311H8.44174C7.62866 39.0311 6.96952 38.3719 6.96952 37.5588ZM8.44174 37.0866C8.18094 37.0866 7.96952 37.298 7.96952 37.5588C7.96952 37.8196 8.18094 38.0311 8.44174 38.0311H27.8862C28.147 38.0311 28.3584 37.8196 28.3584 37.5588C28.3584 37.298 28.147 37.0866 27.8862 37.0866H8.44174ZM6.96952 44.0403C6.96952 43.2272 7.62866 42.5681 8.44174 42.5681H18.164C18.9771 42.5681 19.6362 43.2272 19.6362 44.0403C19.6362 44.8534 18.9771 45.5126 18.164 45.5126H8.44174C7.62866 45.5126 6.96952 44.8534 6.96952 44.0403ZM8.44174 43.5681C8.18094 43.5681 7.96952 43.7795 7.96952 44.0403C7.96952 44.3011 8.18094 44.5126 8.44174 44.5126H18.164C18.4248 44.5126 18.6362 44.3011 18.6362 44.0403C18.6362 43.7795 18.4248 43.5681 18.164 43.5681H8.44174ZM21.5529 44.0403C21.5529 43.2272 22.212 42.5681 23.0251 42.5681H27.8862C28.6993 42.5681 29.3584 43.2272 29.3584 44.0403C29.3584 44.8534 28.6993 45.5126 27.8862 45.5126H23.0251C22.212 45.5126 21.5529 44.8534 21.5529 44.0403ZM23.0251 43.5681C22.7643 43.5681 22.5529 43.7795 22.5529 44.0403C22.5529 44.3011 22.7643 44.5126 23.0251 44.5126H27.8862C28.147 44.5126 28.3584 44.3011 28.3584 44.0403C28.3584 43.7795 28.147 43.5681 27.8862 43.5681H23.0251Z" fill="#4799A9"/>
  </svg>