<svg width="597" height="470" viewBox="0 0 597 470" fill="none" xmlns="http://www.w3.org/2000/svg">
<path d="M433.981 451.925H415.901V470H433.981V451.925Z" fill="#BFEFED"/>
<path d="M18.0805 307.3H0V325.387H18.0805V307.3Z" fill="#BFEFED"/>
<path d="M470.143 72.2998H452.062V90.3748H470.143V72.2998Z" fill="#BFEFED"/>
<path d="M560.558 18.075H542.478V36.15H560.558V18.075Z" fill="#BFEFED"/>
<path d="M36.1616 36.1494H18.0811V54.2244H36.1616V36.1494Z" fill="#BFEFED"/>
<path d="M198.897 54.2249H180.817V72.2999H198.897V54.2249Z" fill="#BFEFED"/>
<path d="M596.719 343.462H578.639V361.537H596.719V343.462Z" fill="#6AE8E3"/>
<path d="M596.719 325.387H578.639V343.462H596.719V325.387Z" fill="#6AE8E3"/>
<path d="M596.719 235H578.639V253.075H596.719V235Z" fill="#BFEFED"/>
<path d="M596.719 216.925H578.639V235H596.719V216.925Z" fill="#BFEFED"/>
<path d="M578.639 343.462H560.558V361.537H578.639V343.462Z" fill="#BFEFED"/>
<path d="M578.639 325.387H560.558V343.462H578.639V325.387Z" fill="#6AE8E3"/>
<path d="M578.639 307.3H560.558V325.387H578.639V307.3Z" fill="#6AE8E3"/>
<path d="M578.639 289.225H560.558V307.3H578.639V289.225Z" fill="#6AE8E3"/>
<path d="M578.639 253.075H560.558V271.15H578.639V253.075Z" fill="#BFEFED"/>
<path d="M578.639 235H560.558V253.075H578.639V235Z" fill="#BFEFED"/>
<path d="M578.639 216.925H560.558V235H578.639V216.925Z" fill="#6AE8E3"/>
<path d="M578.639 198.837H560.558V216.925H578.639V198.837Z" fill="#6AE8E3"/>
<path d="M578.639 126.537H560.558V144.612H578.639V126.537Z" fill="#6AE8E3"/>
<path d="M578.639 108.462H560.558V126.537H578.639V108.462Z" fill="#BFEFED"/>
<path d="M578.639 90.3748H560.558V108.462H578.639V90.3748Z" fill="#6AE8E3"/>
<path d="M560.558 343.462H542.478V361.537H560.558V343.462Z" fill="#6AE8E3"/>
<path d="M560.558 325.387H542.478V343.462H560.558V325.387Z" fill="#6AE8E3"/>
<path d="M560.558 307.3H542.478V325.387H560.558V307.3Z" fill="#6AE8E3"/>
<path d="M560.558 289.225H542.478V307.3H560.558V289.225Z" fill="#6AE8E3"/>
<path d="M560.558 271.15H542.478V289.225H560.558V271.15Z" fill="#6AE8E3"/>
<path d="M560.558 253.075H542.478V271.15H560.558V253.075Z" fill="#BFEFED"/>
<path d="M560.558 235H542.478V253.075H560.558V235Z" fill="#6AE8E3"/>
<path d="M560.558 216.925H542.478V235H560.558V216.925Z" fill="#6AE8E3"/>
<path d="M560.558 198.837H542.478V216.925H560.558V198.837Z" fill="#6AE8E3"/>
<path d="M560.558 162.688H542.478V180.763H560.558V162.688Z" fill="#6AE8E3"/>
<path d="M560.558 144.612H542.478V162.687H560.558V144.612Z" fill="#6AE8E3"/>
<path d="M560.558 126.537H542.478V144.612H560.558V126.537Z" fill="#6AE8E3"/>
<path d="M560.558 108.462H542.478V126.537H560.558V108.462Z" fill="#6AE8E3"/>
<path d="M560.558 90.3748H542.478V108.462H560.558V90.3748Z" fill="#6AE8E3"/>
<path d="M560.558 72.2998H542.478V90.3748H560.558V72.2998Z" fill="#6AE8E3"/>
<path d="M560.558 -0.000244141H542.478V18.0748H560.558V-0.000244141Z" fill="#6AE8E3"/>
<path d="M542.477 379.612H524.397V397.687H542.477V379.612Z" fill="#6AE8E3"/>
<path d="M542.477 361.537H524.397V379.612H542.477V361.537Z" fill="#6AE8E3"/>
<path d="M542.477 343.462H524.397V361.537H542.477V343.462Z" fill="#6AE8E3"/>
<path d="M542.477 325.387H524.397V343.462H542.477V325.387Z" fill="#6AE8E3"/>
<path d="M542.477 307.3H524.397V325.387H542.477V307.3Z" fill="#6AE8E3"/>
<path d="M542.477 289.225H524.397V307.3H542.477V289.225Z" fill="#6AE8E3"/>
<path d="M542.477 271.15H524.397V289.225H542.477V271.15Z" fill="#6AE8E3"/>
<path d="M542.477 253.075H524.397V271.15H542.477V253.075Z" fill="#6AE8E3"/>
<path d="M542.477 235H524.397V253.075H542.477V235Z" fill="#6AE8E3"/>
<path d="M542.477 216.925H524.397V235H542.477V216.925Z" fill="#6AE8E3"/>
<path d="M542.477 198.837H524.397V216.925H542.477V198.837Z" fill="#6AE8E3"/>
<path d="M542.477 180.762H524.397V198.837H542.477V180.762Z" fill="#6AE8E3"/>
<path d="M542.477 162.688H524.397V180.763H542.477V162.688Z" fill="#6AE8E3"/>
<path d="M542.477 144.612H524.397V162.687H542.477V144.612Z" fill="#6AE8E3"/>
<path d="M542.477 126.537H524.397V144.612H542.477V126.537Z" fill="#BFEFED"/>
<path d="M542.477 108.462H524.397V126.537H542.477V108.462Z" fill="#6AE8E3"/>
<path d="M542.477 90.3748H524.397V108.462H542.477V90.3748Z" fill="#6AE8E3"/>
<path d="M542.477 72.2998H524.397V90.3748H542.477V72.2998Z" fill="#6AE8E3"/>
<path d="M524.397 379.612H506.304V397.687H524.397V379.612Z" fill="#6AE8E3"/>
<path d="M524.397 361.537H506.304V379.612H524.397V361.537Z" fill="#6AE8E3"/>
<path d="M524.397 343.462H506.304V361.537H524.397V343.462Z" fill="#6AE8E3"/>
<path d="M524.397 325.387H506.304V343.462H524.397V325.387Z" fill="#BFEFED"/>
<path d="M524.397 307.3H506.304V325.387H524.397V307.3Z" fill="#6AE8E3"/>
<path d="M524.397 289.225H506.304V307.3H524.397V289.225Z" fill="#6AE8E3"/>
<path d="M524.397 271.15H506.304V289.225H524.397V271.15Z" fill="#6AE8E3"/>
<path d="M524.397 253.075H506.304V271.15H524.397V253.075Z" fill="#6AE8E3"/>
<path d="M524.397 235H506.304V253.075H524.397V235Z" fill="#6AE8E3"/>
<path d="M524.397 216.925H506.304V235H524.397V216.925Z" fill="#6AE8E3"/>
<path d="M524.397 198.837H506.304V216.925H524.397V198.837Z" fill="#6AE8E3"/>
<path d="M524.397 180.762H506.304V198.837H524.397V180.762Z" fill="#6AE8E3"/>
<path d="M524.397 162.688H506.304V180.763H524.397V162.688Z" fill="#6AE8E3"/>
<path d="M524.397 144.612H506.304V162.687H524.397V144.612Z" fill="#6AE8E3"/>
<path d="M524.397 126.537H506.304V144.612H524.397V126.537Z" fill="#6AE8E3"/>
<path d="M524.397 108.462H506.304V126.537H524.397V108.462Z" fill="#6AE8E3"/>
<path d="M524.397 90.3748H506.304V108.462H524.397V90.3748Z" fill="#6AE8E3"/>
<path d="M524.397 72.2998H506.304V90.3748H524.397V72.2998Z" fill="#BFEFED"/>
<path d="M524.397 54.2249H506.304V72.2999H524.397V54.2249Z" fill="#6AE8E3"/>
<path d="M506.304 397.687H488.224V415.774H506.304V397.687Z" fill="#6AE8E3"/>
<path d="M506.304 379.612H488.224V397.687H506.304V379.612Z" fill="#6AE8E3"/>
<path d="M506.304 361.537H488.224V379.612H506.304V361.537Z" fill="#6AE8E3"/>
<path d="M506.304 343.462H488.224V361.537H506.304V343.462Z" fill="#6AE8E3"/>
<path d="M506.304 325.387H488.224V343.462H506.304V325.387Z" fill="#BFEFED"/>
<path d="M506.304 307.3H488.224V325.387H506.304V307.3Z" fill="#6AE8E3"/>
<path d="M506.304 289.225H488.224V307.3H506.304V289.225Z" fill="#6AE8E3"/>
<path d="M506.304 271.15H488.224V289.225H506.304V271.15Z" fill="#6AE8E3"/>
<path d="M506.304 253.075H488.224V271.15H506.304V253.075Z" fill="#6AE8E3"/>
<path d="M506.304 235H488.224V253.075H506.304V235Z" fill="#6AE8E3"/>
<path d="M506.304 216.925H488.224V235H506.304V216.925Z" fill="#6AE8E3"/>
<path d="M506.304 198.837H488.224V216.925H506.304V198.837Z" fill="#6AE8E3"/>
<path d="M506.304 180.762H488.224V198.837H506.304V180.762Z" fill="#6AE8E3"/>
<path d="M506.304 162.688H488.224V180.763H506.304V162.688Z" fill="#6AE8E3"/>
<path d="M506.304 144.612H488.224V162.687H506.304V144.612Z" fill="#6AE8E3"/>
<path d="M506.304 126.537H488.224V144.612H506.304V126.537Z" fill="#6AE8E3"/>
<path d="M506.304 108.462H488.224V126.537H506.304V108.462Z" fill="#6AE8E3"/>
<path d="M506.304 90.3748H488.224V108.462H506.304V90.3748Z" fill="#6AE8E3"/>
<path d="M506.304 72.2998H488.224V90.3748H506.304V72.2998Z" fill="#6AE8E3"/>
<path d="M506.304 54.2249H488.224V72.2999H506.304V54.2249Z" fill="#6AE8E3"/>
<path d="M488.224 379.612H470.144V397.687H488.224V379.612Z" fill="#6AE8E3"/>
<path d="M488.224 361.537H470.144V379.612H488.224V361.537Z" fill="#6AE8E3"/>
<path d="M488.224 343.462H470.144V361.537H488.224V343.462Z" fill="#6AE8E3"/>
<path d="M488.224 325.387H470.144V343.462H488.224V325.387Z" fill="#BFEFED"/>
<path d="M488.224 307.3H470.144V325.387H488.224V307.3Z" fill="#6AE8E3"/>
<path d="M488.224 289.225H470.144V307.3H488.224V289.225Z" fill="#6AE8E3"/>
<path d="M488.224 271.15H470.144V289.225H488.224V271.15Z" fill="#6AE8E3"/>
<path d="M488.224 253.075H470.144V271.15H488.224V253.075Z" fill="#6AE8E3"/>
<path d="M488.224 235H470.144V253.075H488.224V235Z" fill="#6AE8E3"/>
<path d="M488.224 216.925H470.144V235H488.224V216.925Z" fill="#6AE8E3"/>
<path d="M488.224 198.837H470.144V216.925H488.224V198.837Z" fill="#6AE8E3"/>
<path d="M488.224 180.762H470.144V198.837H488.224V180.762Z" fill="#6AE8E3"/>
<path d="M488.224 162.688H470.144V180.763H488.224V162.688Z" fill="#6AE8E3"/>
<path d="M488.224 144.612H470.144V162.687H488.224V144.612Z" fill="#6AE8E3"/>
<path d="M488.224 126.537H470.144V144.612H488.224V126.537Z" fill="#6AE8E3"/>
<path d="M488.224 108.462H470.144V126.537H488.224V108.462Z" fill="#6AE8E3"/>
<path d="M488.224 90.3748H470.144V108.462H488.224V90.3748Z" fill="#6AE8E3"/>
<path d="M488.224 72.2998H470.144V90.3748H488.224V72.2998Z" fill="#BFEFED"/>
<path d="M470.143 415.775H452.062V433.85H470.143V415.775Z" fill="#6AE8E3"/>
<path d="M470.143 379.612H452.062V397.687H470.143V379.612Z" fill="#6AE8E3"/>
<path d="M470.143 361.537H452.062V379.612H470.143V361.537Z" fill="#6AE8E3"/>
<path d="M470.143 343.462H452.062V361.537H470.143V343.462Z" fill="#6AE8E3"/>
<path d="M470.143 325.387H452.062V343.462H470.143V325.387Z" fill="#6AE8E3"/>
<path d="M470.143 307.3H452.062V325.387H470.143V307.3Z" fill="#6AE8E3"/>
<path d="M470.143 289.225H452.062V307.3H470.143V289.225Z" fill="#6AE8E3"/>
<path d="M470.143 271.15H452.062V289.225H470.143V271.15Z" fill="#6AE8E3"/>
<path d="M470.143 253.075H452.062V271.15H470.143V253.075Z" fill="#6AE8E3"/>
<path d="M470.143 235H452.062V253.075H470.143V235Z" fill="#6AE8E3"/>
<path d="M470.143 216.925H452.062V235H470.143V216.925Z" fill="#6AE8E3"/>
<path d="M470.143 198.837H452.062V216.925H470.143V198.837Z" fill="#6AE8E3"/>
<path d="M470.143 180.762H452.062V198.837H470.143V180.762Z" fill="#6AE8E3"/>
<path d="M470.143 162.688H452.062V180.763H470.143V162.688Z" fill="#6AE8E3"/>
<path d="M470.143 144.612H452.062V162.687H470.143V144.612Z" fill="#6AE8E3"/>
<path d="M470.143 126.537H452.062V144.612H470.143V126.537Z" fill="#6AE8E3"/>
<path d="M470.143 108.462H452.062V126.537H470.143V108.462Z" fill="#6AE8E3"/>
<path d="M470.143 90.3748H452.062V108.462H470.143V90.3748Z" fill="#6AE8E3"/>
<path d="M452.062 379.612H433.982V397.687H452.062V379.612Z" fill="#6AE8E3"/>
<path d="M452.062 361.537H433.982V379.612H452.062V361.537Z" fill="#6AE8E3"/>
<path d="M452.062 343.462H433.982V361.537H452.062V343.462Z" fill="#6AE8E3"/>
<path d="M452.062 325.387H433.982V343.462H452.062V325.387Z" fill="#6AE8E3"/>
<path d="M452.062 307.3H433.982V325.387H452.062V307.3Z" fill="#BFEFED"/>
<path d="M452.062 289.225H433.982V307.3H452.062V289.225Z" fill="#BFEFED"/>
<path d="M452.062 271.15H433.982V289.225H452.062V271.15Z" fill="#6AE8E3"/>
<path d="M452.062 253.075H433.982V271.15H452.062V253.075Z" fill="#6AE8E3"/>
<path d="M452.062 235H433.982V253.075H452.062V235Z" fill="#6AE8E3"/>
<path d="M452.062 216.925H433.982V235H452.062V216.925Z" fill="#6AE8E3"/>
<path d="M452.062 198.837H433.982V216.925H452.062V198.837Z" fill="#6AE8E3"/>
<path d="M452.062 180.762H433.982V198.837H452.062V180.762Z" fill="#6AE8E3"/>
<path d="M452.062 162.688H433.982V180.763H452.062V162.688Z" fill="#6AE8E3"/>
<path d="M452.062 144.612H433.982V162.687H452.062V144.612Z" fill="#6AE8E3"/>
<path d="M452.062 126.537H433.982V144.612H452.062V126.537Z" fill="#6AE8E3"/>
<path d="M452.062 108.462H433.982V126.537H452.062V108.462Z" fill="#6AE8E3"/>
<path d="M452.062 90.3748H433.982V108.462H452.062V90.3748Z" fill="#BFEFED"/>
<path d="M452.062 72.2998H433.982V90.3748H452.062V72.2998Z" fill="#BFEFED"/>
<path d="M452.062 54.2249H433.982V72.2999H452.062V54.2249Z" fill="#BFEFED"/>
<path d="M452.062 36.1494H433.982V54.2244H452.062V36.1494Z" fill="#BFEFED"/>
<path d="M433.981 361.537H415.901V379.612H433.981V361.537Z" fill="#BFEFED"/>
<path d="M433.981 343.462H415.901V361.537H433.981V343.462Z" fill="#6AE8E3"/>
<path d="M433.981 325.387H415.901V343.462H433.981V325.387Z" fill="#6AE8E3"/>
<path d="M433.981 307.3H415.901V325.387H433.981V307.3Z" fill="#6AE8E3"/>
<path d="M433.981 289.225H415.901V307.3H433.981V289.225Z" fill="#6AE8E3"/>
<path d="M433.981 271.15H415.901V289.225H433.981V271.15Z" fill="#6AE8E3"/>
<path d="M433.981 253.075H415.901V271.15H433.981V253.075Z" fill="#6AE8E3"/>
<path d="M433.981 235H415.901V253.075H433.981V235Z" fill="#6AE8E3"/>
<path d="M433.981 216.925H415.901V235H433.981V216.925Z" fill="#6AE8E3"/>
<path d="M433.981 198.837H415.901V216.925H433.981V198.837Z" fill="#6AE8E3"/>
<path d="M433.981 180.762H415.901V198.837H433.981V180.762Z" fill="#6AE8E3"/>
<path d="M433.981 162.688H415.901V180.763H433.981V162.688Z" fill="#6AE8E3"/>
<path d="M433.981 144.612H415.901V162.687H433.981V144.612Z" fill="#6AE8E3"/>
<path d="M433.981 126.537H415.901V144.612H433.981V126.537Z" fill="#6AE8E3"/>
<path d="M433.981 108.462H415.901V126.537H433.981V108.462Z" fill="#6AE8E3"/>
<path d="M433.981 90.3748H415.901V108.462H433.981V90.3748Z" fill="#6AE8E3"/>
<path d="M433.981 72.2998H415.901V90.3748H433.981V72.2998Z" fill="#BFEFED"/>
<path d="M433.981 54.2249H415.901V72.2999H433.981V54.2249Z" fill="#6AE8E3"/>
<path d="M433.981 36.1494H415.901V54.2244H433.981V36.1494Z" fill="#6AE8E3"/>
<path d="M415.902 361.537H397.809V379.612H415.902V361.537Z" fill="#BFEFED"/>
<path d="M415.902 343.462H397.809V361.537H415.902V343.462Z" fill="#6AE8E3"/>
<path d="M415.902 325.387H397.809V343.462H415.902V325.387Z" fill="#6AE8E3"/>
<path d="M415.902 307.3H397.809V325.387H415.902V307.3Z" fill="#6AE8E3"/>
<path d="M415.902 289.225H397.809V307.3H415.902V289.225Z" fill="#6AE8E3"/>
<path d="M415.902 271.15H397.809V289.225H415.902V271.15Z" fill="#6AE8E3"/>
<path d="M415.902 253.075H397.809V271.15H415.902V253.075Z" fill="#6AE8E3"/>
<path d="M415.902 235H397.809V253.075H415.902V235Z" fill="#6AE8E3"/>
<path d="M415.902 216.925H397.809V235H415.902V216.925Z" fill="#6AE8E3"/>
<path d="M415.902 198.837H397.809V216.925H415.902V198.837Z" fill="#6AE8E3"/>
<path d="M415.902 180.762H397.809V198.837H415.902V180.762Z" fill="#6AE8E3"/>
<path d="M415.902 162.688H397.809V180.763H415.902V162.688Z" fill="#6AE8E3"/>
<path d="M415.902 144.612H397.809V162.687H415.902V144.612Z" fill="#6AE8E3"/>
<path d="M415.902 126.537H397.809V144.612H415.902V126.537Z" fill="#6AE8E3"/>
<path d="M415.902 108.462H397.809V126.537H415.902V108.462Z" fill="#6AE8E3"/>
<path d="M415.902 90.3748H397.809V108.462H415.902V90.3748Z" fill="#BFEFED"/>
<path d="M415.902 72.2998H397.809V90.3748H415.902V72.2998Z" fill="#6AE8E3"/>
<path d="M415.902 54.2249H397.809V72.2999H415.902V54.2249Z" fill="#6AE8E3"/>
<path d="M415.902 18.075H397.809V36.15H415.902V18.075Z" fill="#6AE8E3"/>
<path d="M397.808 361.537H379.728V379.612H397.808V361.537Z" fill="#BFEFED"/>
<path d="M397.808 343.462H379.728V361.537H397.808V343.462Z" fill="#6AE8E3"/>
<path d="M397.808 325.387H379.728V343.462H397.808V325.387Z" fill="#6AE8E3"/>
<path d="M397.808 307.3H379.728V325.387H397.808V307.3Z" fill="#6AE8E3"/>
<path d="M397.808 289.225H379.728V307.3H397.808V289.225Z" fill="#6AE8E3"/>
<path d="M397.808 271.15H379.728V289.225H397.808V271.15Z" fill="#6AE8E3"/>
<path d="M397.808 253.075H379.728V271.15H397.808V253.075Z" fill="#6AE8E3"/>
<path d="M397.808 235H379.728V253.075H397.808V235Z" fill="#6AE8E3"/>
<path d="M397.808 216.925H379.728V235H397.808V216.925Z" fill="#6AE8E3"/>
<path d="M397.808 198.837H379.728V216.925H397.808V198.837Z" fill="#6AE8E3"/>
<path d="M397.808 180.762H379.728V198.837H397.808V180.762Z" fill="#6AE8E3"/>
<path d="M397.808 162.688H379.728V180.763H397.808V162.688Z" fill="#6AE8E3"/>
<path d="M397.808 144.612H379.728V162.687H397.808V144.612Z" fill="#6AE8E3"/>
<path d="M397.808 126.537H379.728V144.612H397.808V126.537Z" fill="#6AE8E3"/>
<path d="M397.808 108.462H379.728V126.537H397.808V108.462Z" fill="#6AE8E3"/>
<path d="M397.808 90.3748H379.728V108.462H397.808V90.3748Z" fill="#6AE8E3"/>
<path d="M397.808 72.2998H379.728V90.3748H397.808V72.2998Z" fill="#BFEFED"/>
<path d="M397.808 54.2249H379.728V72.2999H397.808V54.2249Z" fill="#6AE8E3"/>
<path d="M397.808 36.1494H379.728V54.2244H397.808V36.1494Z" fill="#6AE8E3"/>
<path d="M397.808 18.075H379.728V36.15H397.808V18.075Z" fill="#BFEFED"/>
<path d="M379.728 379.612H361.647V397.687H379.728V379.612Z" fill="#6AE8E3"/>
<path d="M379.728 361.537H361.647V379.612H379.728V361.537Z" fill="#BFEFED"/>
<path d="M379.728 343.462H361.647V361.537H379.728V343.462Z" fill="#6AE8E3"/>
<path d="M379.728 325.387H361.647V343.462H379.728V325.387Z" fill="#6AE8E3"/>
<path d="M379.728 307.3H361.647V325.387H379.728V307.3Z" fill="#6AE8E3"/>
<path d="M379.728 289.225H361.647V307.3H379.728V289.225Z" fill="#6AE8E3"/>
<path d="M379.728 271.15H361.647V289.225H379.728V271.15Z" fill="#6AE8E3"/>
<path d="M379.728 253.075H361.647V271.15H379.728V253.075Z" fill="#6AE8E3"/>
<path d="M379.728 235H361.647V253.075H379.728V235Z" fill="#6AE8E3"/>
<path d="M379.728 216.925H361.647V235H379.728V216.925Z" fill="#6AE8E3"/>
<path d="M379.728 198.837H361.647V216.925H379.728V198.837Z" fill="#6AE8E3"/>
<path d="M379.728 180.762H361.647V198.837H379.728V180.762Z" fill="#6AE8E3"/>
<path d="M379.728 162.688H361.647V180.763H379.728V162.688Z" fill="#6AE8E3"/>
<path d="M379.728 144.612H361.647V162.687H379.728V144.612Z" fill="#6AE8E3"/>
<path d="M379.728 126.537H361.647V144.612H379.728V126.537Z" fill="#6AE8E3"/>
<path d="M379.728 108.462H361.647V126.537H379.728V108.462Z" fill="#6AE8E3"/>
<path d="M379.728 90.3748H361.647V108.462H379.728V90.3748Z" fill="#6AE8E3"/>
<path d="M379.728 72.2998H361.647V90.3748H379.728V72.2998Z" fill="#6AE8E3"/>
<path d="M379.728 54.2249H361.647V72.2999H379.728V54.2249Z" fill="#6AE8E3"/>
<path d="M379.728 36.1494H361.647V54.2244H379.728V36.1494Z" fill="#6AE8E3"/>
<path d="M379.728 18.075H361.647V36.15H379.728V18.075Z" fill="#6AE8E3"/>
<path d="M379.728 -0.000244141H361.647V18.0748H379.728V-0.000244141Z" fill="#6AE8E3"/>
<path d="M361.647 379.612H343.567V397.687H361.647V379.612Z" fill="#6AE8E3"/>
<path d="M361.647 361.537H343.567V379.612H361.647V361.537Z" fill="#6AE8E3"/>
<path d="M361.647 343.462H343.567V361.537H361.647V343.462Z" fill="#6AE8E3"/>
<path d="M361.647 325.387H343.567V343.462H361.647V325.387Z" fill="#6AE8E3"/>
<path d="M361.647 307.3H343.567V325.387H361.647V307.3Z" fill="#6AE8E3"/>
<path d="M361.647 289.225H343.567V307.3H361.647V289.225Z" fill="#6AE8E3"/>
<path d="M361.647 271.15H343.567V289.225H361.647V271.15Z" fill="#6AE8E3"/>
<path d="M361.647 253.075H343.567V271.15H361.647V253.075Z" fill="#6AE8E3"/>
<path d="M361.647 235H343.567V253.075H361.647V235Z" fill="#6AE8E3"/>
<path d="M361.647 216.925H343.567V235H361.647V216.925Z" fill="#6AE8E3"/>
<path d="M361.647 198.837H343.567V216.925H361.647V198.837Z" fill="#6AE8E3"/>
<path d="M361.647 180.762H343.567V198.837H361.647V180.762Z" fill="#6AE8E3"/>
<path d="M361.647 162.688H343.567V180.763H361.647V162.688Z" fill="#6AE8E3"/>
<path d="M361.647 144.612H343.567V162.687H361.647V144.612Z" fill="#6AE8E3"/>
<path d="M361.647 126.537H343.567V144.612H361.647V126.537Z" fill="#6AE8E3"/>
<path d="M361.647 108.462H343.567V126.537H361.647V108.462Z" fill="#6AE8E3"/>
<path d="M361.647 90.3748H343.567V108.462H361.647V90.3748Z" fill="#6AE8E3"/>
<path d="M361.647 72.2998H343.567V90.3748H361.647V72.2998Z" fill="#6AE8E3"/>
<path d="M361.647 54.2249H343.567V72.2999H361.647V54.2249Z" fill="#6AE8E3"/>
<path d="M361.647 36.1494H343.567V54.2244H361.647V36.1494Z" fill="#6AE8E3"/>
<path d="M361.647 18.075H343.567V36.15H361.647V18.075Z" fill="#6AE8E3"/>
<path d="M343.567 379.612H325.487V397.687H343.567V379.612Z" fill="#6AE8E3"/>
<path d="M343.567 361.537H325.487V379.612H343.567V361.537Z" fill="#6AE8E3"/>
<path d="M343.567 343.462H325.487V361.537H343.567V343.462Z" fill="#6AE8E3"/>
<path d="M343.567 325.387H325.487V343.462H343.567V325.387Z" fill="#6AE8E3"/>
<path d="M343.567 307.3H325.487V325.387H343.567V307.3Z" fill="#6AE8E3"/>
<path d="M343.567 289.225H325.487V307.3H343.567V289.225Z" fill="#6AE8E3"/>
<path d="M343.567 271.15H325.487V289.225H343.567V271.15Z" fill="#6AE8E3"/>
<path d="M343.567 253.075H325.487V271.15H343.567V253.075Z" fill="#6AE8E3"/>
<path d="M343.567 235H325.487V253.075H343.567V235Z" fill="#6AE8E3"/>
<path d="M343.567 216.925H325.487V235H343.567V216.925Z" fill="#6AE8E3"/>
<path d="M343.567 198.837H325.487V216.925H343.567V198.837Z" fill="#6AE8E3"/>
<path d="M343.567 180.762H325.487V198.837H343.567V180.762Z" fill="#6AE8E3"/>
<path d="M343.567 162.688H325.487V180.763H343.567V162.688Z" fill="#6AE8E3"/>
<path d="M343.567 144.612H325.487V162.687H343.567V144.612Z" fill="#6AE8E3"/>
<path d="M343.567 126.537H325.487V144.612H343.567V126.537Z" fill="#6AE8E3"/>
<path d="M343.567 108.462H325.487V126.537H343.567V108.462Z" fill="#6AE8E3"/>
<path d="M343.567 90.3748H325.487V108.462H343.567V90.3748Z" fill="#6AE8E3"/>
<path d="M343.567 72.2998H325.487V90.3748H343.567V72.2998Z" fill="#6AE8E3"/>
<path d="M343.567 54.2249H325.487V72.2999H343.567V54.2249Z" fill="#6AE8E3"/>
<path d="M343.567 36.1494H325.487V54.2244H343.567V36.1494Z" fill="#6AE8E3"/>
<path d="M325.486 379.612H307.393V397.687H325.486V379.612Z" fill="#BFEFED"/>
<path d="M325.486 361.537H307.393V379.612H325.486V361.537Z" fill="#6AE8E3"/>
<path d="M325.486 343.462H307.393V361.537H325.486V343.462Z" fill="#6AE8E3"/>
<path d="M325.486 325.387H307.393V343.462H325.486V325.387Z" fill="#6AE8E3"/>
<path d="M325.486 307.3H307.393V325.387H325.486V307.3Z" fill="#6AE8E3"/>
<path d="M325.486 289.225H307.393V307.3H325.486V289.225Z" fill="#6AE8E3"/>
<path d="M325.486 271.15H307.393V289.225H325.486V271.15Z" fill="#6AE8E3"/>
<path d="M325.486 253.075H307.393V271.15H325.486V253.075Z" fill="#6AE8E3"/>
<path d="M325.486 235H307.393V253.075H325.486V235Z" fill="#6AE8E3"/>
<path d="M325.486 216.925H307.393V235H325.486V216.925Z" fill="#6AE8E3"/>
<path d="M325.486 198.837H307.393V216.925H325.486V198.837Z" fill="#6AE8E3"/>
<path d="M325.486 180.762H307.393V198.837H325.486V180.762Z" fill="#6AE8E3"/>
<path d="M325.486 162.688H307.393V180.763H325.486V162.688Z" fill="#6AE8E3"/>
<path d="M325.486 144.612H307.393V162.687H325.486V144.612Z" fill="#6AE8E3"/>
<path d="M325.486 126.537H307.393V144.612H325.486V126.537Z" fill="#6AE8E3"/>
<path d="M325.486 108.462H307.393V126.537H325.486V108.462Z" fill="#6AE8E3"/>
<path d="M325.486 90.3748H307.393V108.462H325.486V90.3748Z" fill="#6AE8E3"/>
<path d="M325.486 72.2998H307.393V90.3748H325.486V72.2998Z" fill="#6AE8E3"/>
<path d="M325.486 54.2249H307.393V72.2999H325.486V54.2249Z" fill="#6AE8E3"/>
<path d="M325.486 36.1494H307.393V54.2244H325.486V36.1494Z" fill="#6AE8E3"/>
<path d="M307.394 415.775H289.313V433.85H307.394V415.775Z" fill="#6AE8E3"/>
<path d="M307.394 397.687H289.313V415.774H307.394V397.687Z" fill="#6AE8E3"/>
<path d="M307.394 379.612H289.313V397.687H307.394V379.612Z" fill="#6AE8E3"/>
<path d="M307.394 361.537H289.313V379.612H307.394V361.537Z" fill="#6AE8E3"/>
<path d="M307.394 343.462H289.313V361.537H307.394V343.462Z" fill="#6AE8E3"/>
<path d="M307.394 325.387H289.313V343.462H307.394V325.387Z" fill="#6AE8E3"/>
<path d="M307.394 307.3H289.313V325.387H307.394V307.3Z" fill="#6AE8E3"/>
<path d="M307.394 289.225H289.313V307.3H307.394V289.225Z" fill="#6AE8E3"/>
<path d="M307.394 271.15H289.313V289.225H307.394V271.15Z" fill="#6AE8E3"/>
<path d="M307.394 253.075H289.313V271.15H307.394V253.075Z" fill="#6AE8E3"/>
<path d="M307.394 235H289.313V253.075H307.394V235Z" fill="#6AE8E3"/>
<path d="M307.394 216.925H289.313V235H307.394V216.925Z" fill="#6AE8E3"/>
<path d="M307.394 198.837H289.313V216.925H307.394V198.837Z" fill="#6AE8E3"/>
<path d="M307.394 180.762H289.313V198.837H307.394V180.762Z" fill="#6AE8E3"/>
<path d="M307.394 162.688H289.313V180.763H307.394V162.688Z" fill="#6AE8E3"/>
<path d="M307.394 144.612H289.313V162.687H307.394V144.612Z" fill="#6AE8E3"/>
<path d="M307.394 126.537H289.313V144.612H307.394V126.537Z" fill="#6AE8E3"/>
<path d="M307.394 108.462H289.313V126.537H307.394V108.462Z" fill="#6AE8E3"/>
<path d="M307.394 90.3748H289.313V108.462H307.394V90.3748Z" fill="#6AE8E3"/>
<path d="M307.394 72.2998H289.313V90.3748H307.394V72.2998Z" fill="#6AE8E3"/>
<path d="M307.394 54.2249H289.313V72.2999H307.394V54.2249Z" fill="#6AE8E3"/>
<path d="M289.313 415.775H271.232V433.85H289.313V415.775Z" fill="#6AE8E3"/>
<path d="M289.313 397.687H271.232V415.774H289.313V397.687Z" fill="#6AE8E3"/>
<path d="M289.313 379.612H271.232V397.687H289.313V379.612Z" fill="#6AE8E3"/>
<path d="M289.313 361.537H271.232V379.612H289.313V361.537Z" fill="#6AE8E3"/>
<path d="M289.313 343.462H271.232V361.537H289.313V343.462Z" fill="#6AE8E3"/>
<path d="M289.313 325.387H271.232V343.462H289.313V325.387Z" fill="#6AE8E3"/>
<path d="M289.313 307.3H271.232V325.387H289.313V307.3Z" fill="#6AE8E3"/>
<path d="M289.313 289.225H271.232V307.3H289.313V289.225Z" fill="#6AE8E3"/>
<path d="M289.313 271.15H271.232V289.225H289.313V271.15Z" fill="#6AE8E3"/>
<path d="M289.313 253.075H271.232V271.15H289.313V253.075Z" fill="#6AE8E3"/>
<path d="M289.313 235H271.232V253.075H289.313V235Z" fill="#6AE8E3"/>
<path d="M289.313 216.925H271.232V235H289.313V216.925Z" fill="#6AE8E3"/>
<path d="M289.313 198.837H271.232V216.925H289.313V198.837Z" fill="#6AE8E3"/>
<path d="M289.313 180.762H271.232V198.837H289.313V180.762Z" fill="#6AE8E3"/>
<path d="M289.313 162.688H271.232V180.763H289.313V162.688Z" fill="#6AE8E3"/>
<path d="M289.313 144.612H271.232V162.687H289.313V144.612Z" fill="#6AE8E3"/>
<path d="M289.313 126.537H271.232V144.612H289.313V126.537Z" fill="#6AE8E3"/>
<path d="M289.313 108.462H271.232V126.537H289.313V108.462Z" fill="#6AE8E3"/>
<path d="M289.313 90.3748H271.232V108.462H289.313V90.3748Z" fill="#6AE8E3"/>
<path d="M289.313 72.2998H271.232V90.3748H289.313V72.2998Z" fill="#6AE8E3"/>
<path d="M289.313 54.2249H271.232V72.2999H289.313V54.2249Z" fill="#6AE8E3"/>
<path d="M271.232 397.687H253.151V415.774H271.232V397.687Z" fill="#6AE8E3"/>
<path d="M271.232 379.612H253.151V397.687H271.232V379.612Z" fill="#6AE8E3"/>
<path d="M271.232 361.537H253.151V379.612H271.232V361.537Z" fill="#6AE8E3"/>
<path d="M271.232 343.462H253.151V361.537H271.232V343.462Z" fill="#6AE8E3"/>
<path d="M271.232 325.387H253.151V343.462H271.232V325.387Z" fill="#6AE8E3"/>
<path d="M271.232 307.3H253.151V325.387H271.232V307.3Z" fill="#6AE8E3"/>
<path d="M271.232 289.225H253.151V307.3H271.232V289.225Z" fill="#6AE8E3"/>
<path d="M271.232 271.15H253.151V289.225H271.232V271.15Z" fill="#6AE8E3"/>
<path d="M271.232 253.075H253.151V271.15H271.232V253.075Z" fill="#6AE8E3"/>
<path d="M271.232 235H253.151V253.075H271.232V235Z" fill="#6AE8E3"/>
<path d="M271.232 216.925H253.151V235H271.232V216.925Z" fill="#6AE8E3"/>
<path d="M271.232 198.837H253.151V216.925H271.232V198.837Z" fill="#6AE8E3"/>
<path d="M271.232 180.762H253.151V198.837H271.232V180.762Z" fill="#6AE8E3"/>
<path d="M271.232 162.688H253.151V180.763H271.232V162.688Z" fill="#6AE8E3"/>
<path d="M271.232 144.612H253.151V162.687H271.232V144.612Z" fill="#6AE8E3"/>
<path d="M271.232 126.537H253.151V144.612H271.232V126.537Z" fill="#6AE8E3"/>
<path d="M271.232 108.462H253.151V126.537H271.232V108.462Z" fill="#6AE8E3"/>
<path d="M271.232 90.3748H253.151V108.462H271.232V90.3748Z" fill="#6AE8E3"/>
<path d="M271.232 72.2998H253.151V90.3748H271.232V72.2998Z" fill="#6AE8E3"/>
<path d="M271.232 54.2249H253.151V72.2999H271.232V54.2249Z" fill="#6AE8E3"/>
<path d="M253.151 397.687H235.071V415.774H253.151V397.687Z" fill="#6AE8E3"/>
<path d="M253.151 379.612H235.071V397.687H253.151V379.612Z" fill="#BFEFED"/>
<path d="M253.151 361.537H235.071V379.612H253.151V361.537Z" fill="#6AE8E3"/>
<path d="M253.151 343.462H235.071V361.537H253.151V343.462Z" fill="#6AE8E3"/>
<path d="M253.151 325.387H235.071V343.462H253.151V325.387Z" fill="#6AE8E3"/>
<path d="M253.151 307.3H235.071V325.387H253.151V307.3Z" fill="#6AE8E3"/>
<path d="M253.151 289.225H235.071V307.3H253.151V289.225Z" fill="#6AE8E3"/>
<path d="M253.151 271.15H235.071V289.225H253.151V271.15Z" fill="#6AE8E3"/>
<path d="M253.151 253.075H235.071V271.15H253.151V253.075Z" fill="#6AE8E3"/>
<path d="M253.151 235H235.071V253.075H253.151V235Z" fill="#6AE8E3"/>
<path d="M253.151 216.925H235.071V235H253.151V216.925Z" fill="#6AE8E3"/>
<path d="M253.151 198.837H235.071V216.925H253.151V198.837Z" fill="#6AE8E3"/>
<path d="M253.151 180.762H235.071V198.837H253.151V180.762Z" fill="#6AE8E3"/>
<path d="M253.151 162.688H235.071V180.763H253.151V162.688Z" fill="#6AE8E3"/>
<path d="M253.151 144.612H235.071V162.687H253.151V144.612Z" fill="#6AE8E3"/>
<path d="M253.151 126.537H235.071V144.612H253.151V126.537Z" fill="#6AE8E3"/>
<path d="M253.151 108.462H235.071V126.537H253.151V108.462Z" fill="#6AE8E3"/>
<path d="M253.151 90.3748H235.071V108.462H253.151V90.3748Z" fill="#6AE8E3"/>
<path d="M253.151 72.2998H235.071V90.3748H253.151V72.2998Z" fill="#6AE8E3"/>
<path d="M235.072 397.687H216.991V415.774H235.072V397.687Z" fill="#6AE8E3"/>
<path d="M235.072 379.612H216.991V397.687H235.072V379.612Z" fill="#BFEFED"/>
<path d="M235.072 361.537H216.991V379.612H235.072V361.537Z" fill="#6AE8E3"/>
<path d="M235.072 343.462H216.991V361.537H235.072V343.462Z" fill="#6AE8E3"/>
<path d="M235.072 325.387H216.991V343.462H235.072V325.387Z" fill="#6AE8E3"/>
<path d="M235.072 307.3H216.991V325.387H235.072V307.3Z" fill="#6AE8E3"/>
<path d="M235.072 289.225H216.991V307.3H235.072V289.225Z" fill="#6AE8E3"/>
<path d="M235.072 271.15H216.991V289.225H235.072V271.15Z" fill="#6AE8E3"/>
<path d="M235.072 253.075H216.991V271.15H235.072V253.075Z" fill="#6AE8E3"/>
<path d="M235.072 235H216.991V253.075H235.072V235Z" fill="#6AE8E3"/>
<path d="M235.072 216.925H216.991V235H235.072V216.925Z" fill="#6AE8E3"/>
<path d="M235.072 198.837H216.991V216.925H235.072V198.837Z" fill="#6AE8E3"/>
<path d="M235.072 180.762H216.991V198.837H235.072V180.762Z" fill="#6AE8E3"/>
<path d="M235.072 162.688H216.991V180.763H235.072V162.688Z" fill="#6AE8E3"/>
<path d="M235.072 144.612H216.991V162.687H235.072V144.612Z" fill="#6AE8E3"/>
<path d="M235.072 126.537H216.991V144.612H235.072V126.537Z" fill="#6AE8E3"/>
<path d="M235.072 108.462H216.991V126.537H235.072V108.462Z" fill="#6AE8E3"/>
<path d="M235.072 90.3748H216.991V108.462H235.072V90.3748Z" fill="#6AE8E3"/>
<path d="M235.072 72.2998H216.991V90.3748H235.072V72.2998Z" fill="#6AE8E3"/>
<path d="M235.072 18.075H216.991V36.15H235.072V18.075Z" fill="#6AE8E3"/>
<path d="M235.072 -0.000244141H216.991V18.0748H235.072V-0.000244141Z" fill="#BFEFED"/>
<path d="M216.991 379.612H198.898V397.687H216.991V379.612Z" fill="#BFEFED"/>
<path d="M216.991 361.537H198.898V379.612H216.991V361.537Z" fill="#6AE8E3"/>
<path d="M216.991 343.462H198.898V361.537H216.991V343.462Z" fill="#6AE8E3"/>
<path d="M216.991 325.387H198.898V343.462H216.991V325.387Z" fill="#6AE8E3"/>
<path d="M216.991 307.3H198.898V325.387H216.991V307.3Z" fill="#6AE8E3"/>
<path d="M216.991 289.225H198.898V307.3H216.991V289.225Z" fill="#6AE8E3"/>
<path d="M216.991 271.15H198.898V289.225H216.991V271.15Z" fill="#6AE8E3"/>
<path d="M216.991 253.075H198.898V271.15H216.991V253.075Z" fill="#6AE8E3"/>
<path d="M216.991 235H198.898V253.075H216.991V235Z" fill="#6AE8E3"/>
<path d="M216.991 216.925H198.898V235H216.991V216.925Z" fill="#6AE8E3"/>
<path d="M216.991 198.837H198.898V216.925H216.991V198.837Z" fill="#6AE8E3"/>
<path d="M216.991 180.762H198.898V198.837H216.991V180.762Z" fill="#6AE8E3"/>
<path d="M216.991 162.688H198.898V180.763H216.991V162.688Z" fill="#6AE8E3"/>
<path d="M216.991 144.612H198.898V162.687H216.991V144.612Z" fill="#6AE8E3"/>
<path d="M216.991 126.537H198.898V144.612H216.991V126.537Z" fill="#6AE8E3"/>
<path d="M216.991 108.462H198.898V126.537H216.991V108.462Z" fill="#6AE8E3"/>
<path d="M216.991 90.3748H198.898V108.462H216.991V90.3748Z" fill="#6AE8E3"/>
<path d="M216.991 72.2998H198.898V90.3748H216.991V72.2998Z" fill="#6AE8E3"/>
<path d="M198.897 379.612H180.817V397.687H198.897V379.612Z" fill="#6AE8E3"/>
<path d="M198.897 361.537H180.817V379.612H198.897V361.537Z" fill="#6AE8E3"/>
<path d="M198.897 343.462H180.817V361.537H198.897V343.462Z" fill="#6AE8E3"/>
<path d="M198.897 325.387H180.817V343.462H198.897V325.387Z" fill="#6AE8E3"/>
<path d="M198.897 307.3H180.817V325.387H198.897V307.3Z" fill="#6AE8E3"/>
<path d="M198.897 289.225H180.817V307.3H198.897V289.225Z" fill="#6AE8E3"/>
<path d="M198.897 271.15H180.817V289.225H198.897V271.15Z" fill="#6AE8E3"/>
<path d="M198.897 253.075H180.817V271.15H198.897V253.075Z" fill="#6AE8E3"/>
<path d="M198.897 235H180.817V253.075H198.897V235Z" fill="#6AE8E3"/>
<path d="M198.897 216.925H180.817V235H198.897V216.925Z" fill="#6AE8E3"/>
<path d="M198.897 198.837H180.817V216.925H198.897V198.837Z" fill="#6AE8E3"/>
<path d="M198.897 180.762H180.817V198.837H198.897V180.762Z" fill="#6AE8E3"/>
<path d="M198.897 162.688H180.817V180.763H198.897V162.688Z" fill="#6AE8E3"/>
<path d="M198.897 144.612H180.817V162.687H198.897V144.612Z" fill="#6AE8E3"/>
<path d="M198.897 126.537H180.817V144.612H198.897V126.537Z" fill="#6AE8E3"/>
<path d="M198.897 108.462H180.817V126.537H198.897V108.462Z" fill="#6AE8E3"/>
<path d="M198.897 90.3748H180.817V108.462H198.897V90.3748Z" fill="#6AE8E3"/>
<path d="M198.897 72.2998H180.817V90.3748H198.897V72.2998Z" fill="#BFEFED"/>
<path d="M198.897 36.1494H180.817V54.2244H198.897V36.1494Z" fill="#BFEFED"/>
<path d="M180.818 379.612H162.738V397.687H180.818V379.612Z" fill="#6AE8E3"/>
<path d="M180.818 361.537H162.738V379.612H180.818V361.537Z" fill="#6AE8E3"/>
<path d="M180.818 343.462H162.738V361.537H180.818V343.462Z" fill="#6AE8E3"/>
<path d="M180.818 325.387H162.738V343.462H180.818V325.387Z" fill="#6AE8E3"/>
<path d="M180.818 307.3H162.738V325.387H180.818V307.3Z" fill="#6AE8E3"/>
<path d="M180.818 289.225H162.738V307.3H180.818V289.225Z" fill="#6AE8E3"/>
<path d="M180.818 271.15H162.738V289.225H180.818V271.15Z" fill="#6AE8E3"/>
<path d="M180.818 253.075H162.738V271.15H180.818V253.075Z" fill="#6AE8E3"/>
<path d="M180.818 235H162.738V253.075H180.818V235Z" fill="#6AE8E3"/>
<path d="M180.818 216.925H162.738V235H180.818V216.925Z" fill="#6AE8E3"/>
<path d="M180.818 198.837H162.738V216.925H180.818V198.837Z" fill="#6AE8E3"/>
<path d="M180.818 180.762H162.738V198.837H180.818V180.762Z" fill="#6AE8E3"/>
<path d="M180.818 162.688H162.738V180.763H180.818V162.688Z" fill="#6AE8E3"/>
<path d="M180.818 144.612H162.738V162.687H180.818V144.612Z" fill="#6AE8E3"/>
<path d="M180.818 126.537H162.738V144.612H180.818V126.537Z" fill="#6AE8E3"/>
<path d="M180.818 108.462H162.738V126.537H180.818V108.462Z" fill="#6AE8E3"/>
<path d="M180.818 90.3748H162.738V108.462H180.818V90.3748Z" fill="#6AE8E3"/>
<path d="M180.818 72.2998H162.738V90.3748H180.818V72.2998Z" fill="#6AE8E3"/>
<path d="M180.818 54.2249H162.738V72.2999H180.818V54.2249Z" fill="#6AE8E3"/>
<path d="M180.818 36.1494H162.738V54.2244H180.818V36.1494Z" fill="#6AE8E3"/>
<path d="M162.737 379.612H144.657V397.687H162.737V379.612Z" fill="#6AE8E3"/>
<path d="M162.737 361.537H144.657V379.612H162.737V361.537Z" fill="#6AE8E3"/>
<path d="M162.737 343.462H144.657V361.537H162.737V343.462Z" fill="#6AE8E3"/>
<path d="M162.737 325.387H144.657V343.462H162.737V325.387Z" fill="#6AE8E3"/>
<path d="M162.737 307.3H144.657V325.387H162.737V307.3Z" fill="#BFEFED"/>
<path d="M162.737 289.225H144.657V307.3H162.737V289.225Z" fill="#BFEFED"/>
<path d="M162.737 271.15H144.657V289.225H162.737V271.15Z" fill="#6AE8E3"/>
<path d="M162.737 253.075H144.657V271.15H162.737V253.075Z" fill="#6AE8E3"/>
<path d="M162.737 235H144.657V253.075H162.737V235Z" fill="#6AE8E3"/>
<path d="M162.737 216.925H144.657V235H162.737V216.925Z" fill="#6AE8E3"/>
<path d="M162.737 198.837H144.657V216.925H162.737V198.837Z" fill="#BFEFED"/>
<path d="M162.737 180.762H144.657V198.837H162.737V180.762Z" fill="#BFEFED"/>
<path d="M162.737 162.688H144.657V180.763H162.737V162.688Z" fill="#BFEFED"/>
<path d="M162.737 144.612H144.657V162.687H162.737V144.612Z" fill="#6AE8E3"/>
<path d="M162.737 126.537H144.657V144.612H162.737V126.537Z" fill="#6AE8E3"/>
<path d="M162.737 108.462H144.657V126.537H162.737V108.462Z" fill="#6AE8E3"/>
<path d="M162.737 90.3748H144.657V108.462H162.737V90.3748Z" fill="#6AE8E3"/>
<path d="M162.737 72.2998H144.657V90.3748H162.737V72.2998Z" fill="#6AE8E3"/>
<path d="M162.737 54.2249H144.657V72.2999H162.737V54.2249Z" fill="#6AE8E3"/>
<path d="M162.737 36.1494H144.657V54.2244H162.737V36.1494Z" fill="#6AE8E3"/>
<path d="M162.737 -0.000244141H144.657V18.0748H162.737V-0.000244141Z" fill="#BFEFED"/>
<path d="M144.657 379.612H126.577V397.687H144.657V379.612Z" fill="#6AE8E3"/>
<path d="M144.657 361.537H126.577V379.612H144.657V361.537Z" fill="#BFEFED"/>
<path d="M144.657 343.462H126.577V361.537H144.657V343.462Z" fill="#6AE8E3"/>
<path d="M144.657 325.387H126.577V343.462H144.657V325.387Z" fill="#6AE8E3"/>
<path d="M144.657 307.3H126.577V325.387H144.657V307.3Z" fill="#6AE8E3"/>
<path d="M144.657 289.225H126.577V307.3H144.657V289.225Z" fill="#6AE8E3"/>
<path d="M144.657 271.15H126.577V289.225H144.657V271.15Z" fill="#BFEFED"/>
<path d="M144.657 253.075H126.577V271.15H144.657V253.075Z" fill="#6AE8E3"/>
<path d="M144.657 235H126.577V253.075H144.657V235Z" fill="#6AE8E3"/>
<path d="M144.657 216.925H126.577V235H144.657V216.925Z" fill="#6AE8E3"/>
<path d="M144.657 198.837H126.577V216.925H144.657V198.837Z" fill="#6AE8E3"/>
<path d="M144.657 180.762H126.577V198.837H144.657V180.762Z" fill="#6AE8E3"/>
<path d="M144.657 162.688H126.577V180.763H144.657V162.688Z" fill="#6AE8E3"/>
<path d="M144.657 144.612H126.577V162.687H144.657V144.612Z" fill="#6AE8E3"/>
<path d="M144.657 126.537H126.577V144.612H144.657V126.537Z" fill="#6AE8E3"/>
<path d="M144.657 108.462H126.577V126.537H144.657V108.462Z" fill="#6AE8E3"/>
<path d="M144.657 90.3748H126.577V108.462H144.657V90.3748Z" fill="#6AE8E3"/>
<path d="M144.657 72.2998H126.577V90.3748H144.657V72.2998Z" fill="#BFEFED"/>
<path d="M144.657 54.2249H126.577V72.2999H144.657V54.2249Z" fill="#6AE8E3"/>
<path d="M144.657 36.1494H126.577V54.2244H144.657V36.1494Z" fill="#BFEFED"/>
<path d="M126.576 379.612H108.496V397.687H126.576V379.612Z" fill="#6AE8E3"/>
<path d="M126.576 361.537H108.496V379.612H126.576V361.537Z" fill="#BFEFED"/>
<path d="M126.576 343.462H108.496V361.537H126.576V343.462Z" fill="#BFEFED"/>
<path d="M126.576 325.387H108.496V343.462H126.576V325.387Z" fill="#6AE8E3"/>
<path d="M126.576 307.3H108.496V325.387H126.576V307.3Z" fill="#6AE8E3"/>
<path d="M126.576 289.225H108.496V307.3H126.576V289.225Z" fill="#6AE8E3"/>
<path d="M126.576 271.15H108.496V289.225H126.576V271.15Z" fill="#6AE8E3"/>
<path d="M126.576 253.075H108.496V271.15H126.576V253.075Z" fill="#6AE8E3"/>
<path d="M126.576 235H108.496V253.075H126.576V235Z" fill="#6AE8E3"/>
<path d="M126.576 216.925H108.496V235H126.576V216.925Z" fill="#6AE8E3"/>
<path d="M126.576 198.837H108.496V216.925H126.576V198.837Z" fill="#6AE8E3"/>
<path d="M126.576 180.762H108.496V198.837H126.576V180.762Z" fill="#6AE8E3"/>
<path d="M126.576 162.688H108.496V180.763H126.576V162.688Z" fill="#6AE8E3"/>
<path d="M126.576 144.612H108.496V162.687H126.576V144.612Z" fill="#6AE8E3"/>
<path d="M126.576 126.537H108.496V144.612H126.576V126.537Z" fill="#6AE8E3"/>
<path d="M126.576 108.462H108.496V126.537H126.576V108.462Z" fill="#6AE8E3"/>
<path d="M126.576 90.3748H108.496V108.462H126.576V90.3748Z" fill="#6AE8E3"/>
<path d="M126.576 72.2998H108.496V90.3748H126.576V72.2998Z" fill="#6AE8E3"/>
<path d="M126.576 54.2249H108.496V72.2999H126.576V54.2249Z" fill="#6AE8E3"/>
<path d="M108.495 451.925H90.4023V470H108.495V451.925Z" fill="#6AE8E3"/>
<path d="M108.495 433.85H90.4023V451.925H108.495V433.85Z" fill="#6AE8E3"/>
<path d="M108.495 361.537H90.4023V379.612H108.495V361.537Z" fill="#6AE8E3"/>
<path d="M108.495 343.462H90.4023V361.537H108.495V343.462Z" fill="#BFEFED"/>
<path d="M108.495 325.387H90.4023V343.462H108.495V325.387Z" fill="#6AE8E3"/>
<path d="M108.495 307.3H90.4023V325.387H108.495V307.3Z" fill="#6AE8E3"/>
<path d="M108.495 289.225H90.4023V307.3H108.495V289.225Z" fill="#6AE8E3"/>
<path d="M108.495 271.15H90.4023V289.225H108.495V271.15Z" fill="#6AE8E3"/>
<path d="M108.495 253.075H90.4023V271.15H108.495V253.075Z" fill="#6AE8E3"/>
<path d="M108.495 235H90.4023V253.075H108.495V235Z" fill="#6AE8E3"/>
<path d="M108.495 216.925H90.4023V235H108.495V216.925Z" fill="#6AE8E3"/>
<path d="M108.495 198.837H90.4023V216.925H108.495V198.837Z" fill="#6AE8E3"/>
<path d="M108.495 180.762H90.4023V198.837H108.495V180.762Z" fill="#6AE8E3"/>
<path d="M108.495 162.688H90.4023V180.763H108.495V162.688Z" fill="#6AE8E3"/>
<path d="M108.495 144.612H90.4023V162.687H108.495V144.612Z" fill="#6AE8E3"/>
<path d="M108.495 126.537H90.4023V144.612H108.495V126.537Z" fill="#BFEFED"/>
<path d="M108.495 108.462H90.4023V126.537H108.495V108.462Z" fill="#BFEFED"/>
<path d="M108.495 90.3748H90.4023V108.462H108.495V90.3748Z" fill="#6AE8E3"/>
<path d="M108.495 72.2998H90.4023V90.3748H108.495V72.2998Z" fill="#6AE8E3"/>
<path d="M108.495 54.2249H90.4023V72.2999H108.495V54.2249Z" fill="#6AE8E3"/>
<path d="M90.4023 343.462H72.3218V361.537H90.4023V343.462Z" fill="#6AE8E3"/>
<path d="M90.4023 325.387H72.3218V343.462H90.4023V325.387Z" fill="#6AE8E3"/>
<path d="M90.4023 307.3H72.3218V325.387H90.4023V307.3Z" fill="#6AE8E3"/>
<path d="M90.4023 289.225H72.3218V307.3H90.4023V289.225Z" fill="#6AE8E3"/>
<path d="M90.4023 253.075H72.3218V271.15H90.4023V253.075Z" fill="#6AE8E3"/>
<path d="M90.4023 235H72.3218V253.075H90.4023V235Z" fill="#6AE8E3"/>
<path d="M90.4023 216.925H72.3218V235H90.4023V216.925Z" fill="#BFEFED"/>
<path d="M90.4023 198.837H72.3218V216.925H90.4023V198.837Z" fill="#6AE8E3"/>
<path d="M90.4023 180.762H72.3218V198.837H90.4023V180.762Z" fill="#6AE8E3"/>
<path d="M90.4023 162.688H72.3218V180.763H90.4023V162.688Z" fill="#6AE8E3"/>
<path d="M90.4023 144.612H72.3218V162.687H90.4023V144.612Z" fill="#6AE8E3"/>
<path d="M90.4023 126.537H72.3218V144.612H90.4023V126.537Z" fill="#6AE8E3"/>
<path d="M90.4023 108.462H72.3218V126.537H90.4023V108.462Z" fill="#BFEFED"/>
<path d="M90.4023 90.3748H72.3218V108.462H90.4023V90.3748Z" fill="#BFEFED"/>
<path d="M72.3227 325.387H54.2422V343.462H72.3227V325.387Z" fill="#6AE8E3"/>
<path d="M72.3227 235H54.2422V253.075H72.3227V235Z" fill="#6AE8E3"/>
<path d="M72.3227 216.925H54.2422V235H72.3227V216.925Z" fill="#BFEFED"/>
<path d="M72.3227 198.837H54.2422V216.925H72.3227V198.837Z" fill="#6AE8E3"/>
<path d="M72.3227 180.762H54.2422V198.837H72.3227V180.762Z" fill="#6AE8E3"/>
<path d="M72.3227 162.688H54.2422V180.763H72.3227V162.688Z" fill="#6AE8E3"/>
<path d="M72.3227 144.612H54.2422V162.687H72.3227V144.612Z" fill="#6AE8E3"/>
<path d="M72.3227 126.537H54.2422V144.612H72.3227V126.537Z" fill="#6AE8E3"/>
<path d="M72.3227 108.462H54.2422V126.537H72.3227V108.462Z" fill="#6AE8E3"/>
<path d="M72.3227 90.3748H54.2422V108.462H72.3227V90.3748Z" fill="#6AE8E3"/>
<path d="M72.3227 36.1494H54.2422V54.2244H72.3227V36.1494Z" fill="#6AE8E3"/>
<path d="M54.2416 343.462H36.1611V361.537H54.2416V343.462Z" fill="#6AE8E3"/>
<path d="M54.2416 325.387H36.1611V343.462H54.2416V325.387Z" fill="#6AE8E3"/>
<path d="M54.2416 216.925H36.1611V235H54.2416V216.925Z" fill="#6AE8E3"/>
<path d="M54.2416 198.837H36.1611V216.925H54.2416V198.837Z" fill="#6AE8E3"/>
<path d="M54.2416 180.762H36.1611V198.837H54.2416V180.762Z" fill="#BFEFED"/>
<path d="M54.2416 162.688H36.1611V180.763H54.2416V162.688Z" fill="#BFEFED"/>
<path d="M54.2416 144.612H36.1611V162.687H54.2416V144.612Z" fill="#6AE8E3"/>
<path d="M54.2416 126.537H36.1611V144.612H54.2416V126.537Z" fill="#6AE8E3"/>
<path d="M54.2416 108.462H36.1611V126.537H54.2416V108.462Z" fill="#6AE8E3"/>
<path d="M36.1616 343.462H18.0811V361.537H36.1616V343.462Z" fill="#6AE8E3"/>
<path d="M36.1616 325.387H18.0811V343.462H36.1616V325.387Z" fill="#BFEFED"/>
<path d="M36.1616 216.925H18.0811V235H36.1616V216.925Z" fill="#6AE8E3"/>
<path d="M36.1616 198.837H18.0811V216.925H36.1616V198.837Z" fill="#6AE8E3"/>
<path d="M36.1616 180.762H18.0811V198.837H36.1616V180.762Z" fill="#6AE8E3"/>
<path d="M36.1616 162.688H18.0811V180.763H36.1616V162.688Z" fill="#6AE8E3"/>
</svg>
