<svg fill="none" height="446" viewBox="0 0 502 446" width="502" xmlns="http://www.w3.org/2000/svg"><path d="m-17.9999 204.456h18.555076v18.545h-18.555076z" fill="#bfefed"/><path d="m.554758 297.191h18.540942v18.545h-18.540942z" fill="#bfefed"/><path d="m223.4 427.355h18.541v18.545h-18.541z" fill="#bfefed"/><path d="m55.5461 314h19.9949v20h-19.9949z" fill="#1fbab4"/><path d="m19.0959 315.729h18.5408v18.546h-18.5408z" fill="#bfefed"/><path d="m19.0959 297.191h18.5408v18.545h-18.5408z" fill="#1fbab4"/><path d="m19.0959 278.631h18.5408v18.559h-18.5408z" fill="#bfefed"/><path d="m19.0959 148.812h18.5408v18.545h-18.5408z" fill="#1fbab4"/><path d="m37.63 315.729h18.5409v18.546h-18.5409z" fill="#1fbab4"/><path d="m38.0001 334h18.5409v18.546h-18.5409z" fill="#1fbab4"/><path d="m37.63 297.191h18.5409v18.545h-18.5409z" fill="#1fbab4"/><path d="m37.63 278.631h18.5409v18.559h-18.5409z" fill="#1fbab4"/><path d="m37.63 260.085h18.5409v18.546h-18.5409z" fill="#1fbab4"/><path d="m37.63 223.001h18.5409v18.546h-18.5409z" fill="#1fbab4"/><path d="m56.541 334h20v18.546h-20z" fill="#1fbab4"/><path d="m56.1715 297.191h18.5409v18.545h-18.5409z" fill="#1fbab4"/><path d="m56.1715 278.631h18.5409v18.559h-18.5409z" fill="#1fbab4"/><path d="m56.1715 223.001h18.5409v18.546h-18.5409z" fill="#1fbab4"/><path d="m56.1715 185.91h18.5409v18.546h-18.5409z" fill="#1fbab4"/><path d="m74.7115 352.82h18.5409v18.546h-18.5409z" fill="#1fbab4"/><path d="m74.7115 334.275h18.5409v18.545h-18.5409z" fill="#1fbab4"/><path d="m74.7115 315.729h18.5409v18.546h-18.5409z" fill="#1fbab4"/><path d="m74.7115 297.191h18.5409v18.545h-18.5409z" fill="#1fbab4"/><path d="m74.7115 278.631h18.5409v18.559h-18.5409z" fill="#1fbab4"/><path d="m74.7115 260.085h18.5409v18.546h-18.5409z" fill="#1fbab4"/><path d="m74.7115 241.547h18.5409v18.545h-18.5409z" fill="#1fbab4"/><path d="m74.7115 223.001h18.5409v18.546h-18.5409z" fill="#1fbab4"/><path d="m74.7115 204.456h18.5409v18.545h-18.5409z" fill="#1fbab4"/><path d="m74.7115 185.91h18.5409v18.546h-18.5409z" fill="#bfefed"/><path d="m74.7115 148.812h18.5409v18.545h-18.5409z" fill="#1fbab4"/><path d="m93.2521 334.275h18.5549v18.545h-18.5549z" fill="#1fbab4"/><path d="m93.2521 315.729h18.5549v18.546h-18.5549z" fill="#1fbab4"/><path d="m93.2521 297.191h18.5549v18.545h-18.5549z" fill="#1fbab4"/><path d="m93.2521 278.631h18.5549v18.559h-18.5549z" fill="#1fbab4"/><path d="m93.2521 260.085h18.5549v18.546h-18.5549z" fill="#1fbab4"/><path d="m93.2521 241.547h18.5549v18.545h-18.5549z" fill="#1fbab4"/><path d="m93.2521 223.001h18.5549v18.546h-18.5549z" fill="#1fbab4"/><path d="m93.2521 204.456h18.5549v18.545h-18.5549z" fill="#1fbab4"/><path d="m93.2521 185.91h18.5549v18.546h-18.5549z" fill="#1fbab4"/><path d="m93.2521 167.357h18.5549v18.56h-18.5549z" fill="#bfefed"/><path d="m93.2521 148.812h18.5549v18.545h-18.5549z" fill="#1fbab4"/><path d="m93.2521 74.6366h18.5549v18.5456h-18.5549z" fill="#bfefed"/><path d="m111.8 334.275h18.541v18.545h-18.541z" fill="#1fbab4"/><path d="m111.8 315.729h18.541v18.546h-18.541z" fill="#1fbab4"/><path d="m111.8 297.191h18.541v18.545h-18.541z" fill="#1fbab4"/><path d="m111.8 278.631h18.541v18.559h-18.541z" fill="#1fbab4"/><path d="m111.8 260.085h18.541v18.546h-18.541z" fill="#1fbab4"/><path d="m111.8 241.547h18.541v18.545h-18.541z" fill="#1fbab4"/><path d="m111.8 223.001h18.541v18.546h-18.541z" fill="#1fbab4"/><path d="m111.8 204.456h18.541v18.545h-18.541z" fill="#1fbab4"/><path d="m111.8 185.91h18.541v18.546h-18.541z" fill="#1fbab4"/><path d="m111.8 167.357h18.541v18.56h-18.541z" fill="#1fbab4"/><path d="m111.8 148.812h18.541v18.545h-18.541z" fill="#bfefed"/><path d="m111.8 111.721h18.541v18.545h-18.541z" fill="#1fbab4"/><path d="m111.8 93.1822h18.541v18.5458h-18.541z" fill="#1fbab4"/><path d="m111.8 37.5384h18.541v18.5456h-18.541z" fill="#bfefed"/><path d="m130.342 334.275h18.541v18.545h-18.541z" fill="#1fbab4"/><path d="m130.342 315.729h18.541v18.546h-18.541z" fill="#1fbab4"/><path d="m130.342 297.191h18.541v18.545h-18.541z" fill="#1fbab4"/><path d="m130.342 278.631h18.541v18.559h-18.541z" fill="#1fbab4"/><path d="m130.342 260.085h18.541v18.546h-18.541z" fill="#1fbab4"/><path d="m130.342 241.547h18.541v18.545h-18.541z" fill="#1fbab4"/><path d="m130.342 223.001h18.541v18.546h-18.541z" fill="#1fbab4"/><path d="m130.342 204.456h18.541v18.545h-18.541z" fill="#1fbab4"/><path d="m130.342 185.91h18.541v18.546h-18.541z" fill="#1fbab4"/><path d="m130.342 167.357h18.541v18.56h-18.541z" fill="#1fbab4"/><path d="m130.342 148.812h18.541v18.545h-18.541z" fill="#1fbab4"/><path d="m130.342 130.266h18.541v18.546h-18.541z" fill="#1fbab4"/><path d="m130.342 111.721h18.541v18.545h-18.541z" fill="#1fbab4"/><path d="m130.342 93.1822h18.541v18.5458h-18.541z" fill="#1fbab4"/><path d="m130.342 74.6366h18.541v18.5456h-18.541z" fill="#1fbab4"/><path d="m130.342 56.0769h18.541v18.5597h-18.541z" fill="#1fbab4"/><path d="m130.342 37.5384h18.541v18.5456h-18.541z" fill="#1fbab4"/><path d="m148.882 334.275h18.541v18.545h-18.541z" fill="#1fbab4"/><path d="m148.882 315.729h18.541v18.546h-18.541z" fill="#1fbab4"/><path d="m148.882 297.191h18.541v18.545h-18.541z" fill="#1fbab4"/><path d="m148.882 278.631h18.541v18.559h-18.541z" fill="#1fbab4"/><path d="m148.882 260.085h18.541v18.546h-18.541z" fill="#1fbab4"/><path d="m148.882 241.547h18.541v18.545h-18.541z" fill="#1fbab4"/><path d="m148.882 223.001h18.541v18.546h-18.541z" fill="#1fbab4"/><path d="m148.882 204.456h18.541v18.545h-18.541z" fill="#1fbab4"/><path d="m148.882 185.91h18.541v18.546h-18.541z" fill="#1fbab4"/><path d="m148.882 167.357h18.541v18.56h-18.541z" fill="#1fbab4"/><path d="m148.882 148.812h18.541v18.545h-18.541z" fill="#1fbab4"/><path d="m148.882 130.266h18.541v18.546h-18.541z" fill="#1fbab4"/><path d="m148.882 111.721h18.541v18.545h-18.541z" fill="#1fbab4"/><path d="m148.882 93.1822h18.541v18.5458h-18.541z" fill="#bfefed"/><path d="m148.882 74.6366h18.541v18.5456h-18.541z" fill="#1fbab4"/><path d="m148.882 56.0769h18.541v18.5597h-18.541z" fill="#1fbab4"/><path d="m148.882.447266h18.541v18.545534h-18.541z" fill="#bfefed"/><path d="m167.423 352.82h18.541v18.546h-18.541z" fill="#1fbab4"/><path d="m167.423 334.275h18.541v18.545h-18.541z" fill="#1fbab4"/><path d="m167.423 315.729h18.541v18.546h-18.541z" fill="#1fbab4"/><path d="m167.423 297.191h18.541v18.545h-18.541z" fill="#1fbab4"/><path d="m167.423 278.631h18.541v18.559h-18.541z" fill="#1fbab4"/><path d="m167.423 260.085h18.541v18.546h-18.541z" fill="#1fbab4"/><path d="m167.423 241.547h18.541v18.545h-18.541z" fill="#1fbab4"/><path d="m167.423 223.001h18.541v18.546h-18.541z" fill="#1fbab4"/><path d="m167.423 204.456h18.541v18.545h-18.541z" fill="#1fbab4"/><path d="m167.423 185.91h18.541v18.546h-18.541z" fill="#1fbab4"/><path d="m167.423 167.357h18.541v18.56h-18.541z" fill="#1fbab4"/><path d="m167.423 148.812h18.541v18.545h-18.541z" fill="#1fbab4"/><path d="m167.423 130.266h18.541v18.546h-18.541z" fill="#1fbab4"/><path d="m167.423 111.721h18.541v18.545h-18.541z" fill="#1fbab4"/><path d="m167.423 93.1822h18.541v18.5458h-18.541z" fill="#1fbab4"/><path d="m167.423 74.6366h18.541v18.5456h-18.541z" fill="#1fbab4"/><path d="m167.423 56.0769h18.541v18.5597h-18.541z" fill="#1fbab4"/><path d="m167.423 37.5384h18.541v18.5456h-18.541z" fill="#1fbab4"/><path d="m185.957 352.82h18.555v18.546h-18.555z" fill="#1fbab4"/><path d="m185.957 334.275h18.555v18.545h-18.555z" fill="#1fbab4"/><path d="m185.957 315.729h18.555v18.546h-18.555z" fill="#1fbab4"/><path d="m185.957 297.191h18.555v18.545h-18.555z" fill="#1fbab4"/><path d="m185.957 278.631h18.555v18.559h-18.555z" fill="#1fbab4"/><path d="m185.957 260.085h18.555v18.546h-18.555z" fill="#1fbab4"/><path d="m185.957 241.547h18.555v18.545h-18.555z" fill="#1fbab4"/><path d="m185.957 223.001h18.555v18.546h-18.555z" fill="#1fbab4"/><path d="m185.957 204.456h18.555v18.545h-18.555z" fill="#1fbab4"/><path d="m185.957 185.91h18.555v18.546h-18.555z" fill="#1fbab4"/><path d="m185.957 167.357h18.555v18.56h-18.555z" fill="#1fbab4"/><path d="m185.957 148.812h18.555v18.545h-18.555z" fill="#1fbab4"/><path d="m185.957 130.266h18.555v18.546h-18.555z" fill="#1fbab4"/><path d="m185.957 111.721h18.555v18.545h-18.555z" fill="#1fbab4"/><path d="m185.957 93.1822h18.555v18.5458h-18.555z" fill="#1fbab4"/><path d="m185.957 74.6366h18.555v18.5456h-18.555z" fill="#1fbab4"/><path d="m185.957 56.0769h18.555v18.5597h-18.555z" fill="#bfefed"/><path d="m204.512 352.82h18.541v18.546h-18.541z" fill="#1fbab4"/><path d="m204.512 334.275h18.541v18.545h-18.541z" fill="#1fbab4"/><path d="m204.512 315.729h18.541v18.546h-18.541z" fill="#1fbab4"/><path d="m204.512 297.191h18.541v18.545h-18.541z" fill="#1fbab4"/><path d="m204.512 278.631h18.541v18.559h-18.541z" fill="#1fbab4"/><path d="m204.512 260.085h18.541v18.546h-18.541z" fill="#1fbab4"/><path d="m204.512 241.547h18.541v18.545h-18.541z" fill="#1fbab4"/><path d="m204.512 223.001h18.541v18.546h-18.541z" fill="#1fbab4"/><path d="m204.512 204.456h18.541v18.545h-18.541z" fill="#1fbab4"/><path d="m204.512 185.91h18.541v18.546h-18.541z" fill="#1fbab4"/><path d="m204.512 167.357h18.541v18.56h-18.541z" fill="#1fbab4"/><path d="m204.512 148.812h18.541v18.545h-18.541z" fill="#1fbab4"/><path d="m204.512 130.266h18.541v18.546h-18.541z" fill="#1fbab4"/><path d="m204.512 111.721h18.541v18.545h-18.541z" fill="#bfefed"/><path d="m204.512 93.1822h18.541v18.5458h-18.541z" fill="#1fbab4"/><path d="m204.512 74.6366h18.541v18.5456h-18.541z" fill="#1fbab4"/><path d="m223.053 352.82h18.541v18.546h-18.541z" fill="#1fbab4"/><path d="m223.053 334.275h18.541v18.545h-18.541z" fill="#1fbab4"/><path d="m223.053 315.729h18.541v18.546h-18.541z" fill="#1fbab4"/><path d="m223.053 297.191h18.541v18.545h-18.541z" fill="#1fbab4"/><path d="m223.053 278.631h18.541v18.559h-18.541z" fill="#1fbab4"/><path d="m223.053 260.085h18.541v18.546h-18.541z" fill="#1fbab4"/><path d="m223.053 241.547h18.541v18.545h-18.541z" fill="#1fbab4"/><path d="m223.053 223.001h18.541v18.546h-18.541z" fill="#1fbab4"/><path d="m223.053 204.456h18.541v18.545h-18.541z" fill="#1fbab4"/><path d="m223.053 185.91h18.541v18.546h-18.541z" fill="#1fbab4"/><path d="m223.053 167.357h18.541v18.56h-18.541z" fill="#1fbab4"/><path d="m223.053 148.812h18.541v18.545h-18.541z" fill="#1fbab4"/><path d="m223.053 130.266h18.541v18.546h-18.541z" fill="#1fbab4"/><path d="m223.053 111.721h18.541v18.545h-18.541z" fill="#1fbab4"/><path d="m223.053 93.1822h18.541v18.5458h-18.541z" fill="#bfefed"/><path d="m241.588 352.82h18.54v18.546h-18.54z" fill="#1fbab4"/><path d="m241.588 334.275h18.54v18.545h-18.54z" fill="#1fbab4"/><path d="m241.588 315.729h18.54v18.546h-18.54z" fill="#1fbab4"/><path d="m241.588 297.191h18.54v18.545h-18.54z" fill="#1fbab4"/><path d="m241.588 278.631h18.54v18.559h-18.54z" fill="#1fbab4"/><path d="m241.588 260.085h18.54v18.546h-18.54z" fill="#1fbab4"/><path d="m241.588 241.547h18.54v18.545h-18.54z" fill="#1fbab4"/><path d="m241.588 223.001h18.54v18.546h-18.54z" fill="#1fbab4"/><path d="m241.588 204.456h18.54v18.545h-18.54z" fill="#1fbab4"/><path d="m241.588 185.91h18.54v18.546h-18.54z" fill="#1fbab4"/><path d="m241.588 167.357h18.54v18.56h-18.54z" fill="#1fbab4"/><path d="m241.588 148.812h18.54v18.545h-18.54z" fill="#1fbab4"/><path d="m241.588 130.266h18.54v18.546h-18.54z" fill="#1fbab4"/><path d="m241.588 111.721h18.54v18.545h-18.54z" fill="#1fbab4"/><path d="m241.588 93.1822h18.54v18.5458h-18.54z" fill="#1fbab4"/><path d="m241.588 74.6366h18.54v18.5456h-18.54z" fill="#1fbab4"/><path d="m260.128 352.82h18.54v18.546h-18.54z" fill="#1fbab4"/><path d="m260.128 334.275h18.54v18.545h-18.54z" fill="#1fbab4"/><path d="m260.128 315.729h18.54v18.546h-18.54z" fill="#1fbab4"/><path d="m260.128 297.191h18.54v18.545h-18.54z" fill="#1fbab4"/><path d="m260.128 278.631h18.54v18.559h-18.54z" fill="#1fbab4"/><path d="m260.128 260.085h18.54v18.546h-18.54z" fill="#1fbab4"/><path d="m260.128 241.547h18.54v18.545h-18.54z" fill="#1fbab4"/><path d="m260.128 223.001h18.54v18.546h-18.54z" fill="#1fbab4"/><path d="m260.128 204.456h18.54v18.545h-18.54z" fill="#1fbab4"/><path d="m260.128 185.91h18.54v18.546h-18.54z" fill="#1fbab4"/><path d="m260.128 167.357h18.54v18.56h-18.54z" fill="#1fbab4"/><path d="m260.128 148.812h18.54v18.545h-18.54z" fill="#1fbab4"/><path d="m260.128 130.266h18.54v18.546h-18.54z" fill="#1fbab4"/><path d="m260.128 111.721h18.54v18.545h-18.54z" fill="#1fbab4"/><path d="m260.128 93.1822h18.54v18.5458h-18.54z" fill="#bfefed"/><g fill="#1fbab4"><path d="m260.128 74.6366h18.54v18.5456h-18.54z"/><path d="m260.128 56.0769h18.54v18.5597h-18.54z"/><path d="m278.668 334.275h18.541v18.545h-18.541z"/><path d="m296.96 334.11h18.541v18.545h-18.541z"/><path d="m296.96 351.723h18.541v19.685h-18.541z"/><path d="m315.501 334.11h19.685v18.545h-19.685z"/><path d="m278.668 352.759h18.541v18.545h-18.541z"/><path d="m278.668 315.729h18.541v18.546h-18.541z"/><path d="m278.668 297.191h18.541v18.545h-18.541z"/><path d="m278.668 278.631h18.541v18.559h-18.541z"/><path d="m278.668 260.085h18.541v18.546h-18.541z"/><path d="m278.668 241.547h18.541v18.545h-18.541z"/><path d="m278.668 223.001h18.541v18.546h-18.541z"/><path d="m278.668 204.456h18.541v18.545h-18.541z"/><path d="m278.668 185.91h18.541v18.546h-18.541z"/><path d="m278.668 167.357h18.541v18.56h-18.541z"/><path d="m278.668 148.812h18.541v18.545h-18.541z"/><path d="m278.668 130.266h18.541v18.546h-18.541z"/><path d="m278.668 111.721h18.541v18.545h-18.541z"/><path d="m278.668 93.1822h18.541v18.5458h-18.541z"/><path d="m278.668 74.6366h18.541v18.5456h-18.541z"/><path d="m297.209 315.729h18.555v18.546h-18.555z"/><path d="m297.209 297.191h18.555v18.545h-18.555z"/><path d="m297.209 278.631h18.555v18.559h-18.555z"/><path d="m297.209 260.085h18.555v18.546h-18.555z"/><path d="m297.209 241.547h18.555v18.545h-18.555z"/><path d="m297.209 223.001h18.555v18.546h-18.555z"/><path d="m297.209 204.456h18.555v18.545h-18.555z"/><path d="m297.209 185.91h18.555v18.546h-18.555z"/><path d="m297.209 167.357h18.555v18.56h-18.555z"/><path d="m297.209 148.812h18.555v18.545h-18.555z"/><path d="m297.209 130.266h18.555v18.546h-18.555z"/><path d="m297.209 111.721h18.555v18.545h-18.555z"/><path d="m297.209 93.1822h18.555v18.5458h-18.555z"/><path d="m315.757 315.729h18.541v18.546h-18.541z"/><path d="m315.757 297.191h18.541v18.545h-18.541z"/><path d="m315.757 278.631h18.541v18.559h-18.541z"/><path d="m315.757 260.085h18.541v18.546h-18.541z"/><path d="m315.757 241.547h18.541v18.545h-18.541z"/><path d="m315.757 223.001h18.541v18.546h-18.541z"/><path d="m315.757 204.456h18.541v18.545h-18.541z"/><path d="m315.757 185.91h18.541v18.546h-18.541z"/><path d="m315.757 167.357h18.541v18.56h-18.541z"/><path d="m315.757 148.812h18.541v18.545h-18.541z"/><path d="m315.757 130.266h18.541v18.546h-18.541z"/></g><path d="m315.757 111.721h18.541v18.545h-18.541z" fill="#bfefed"/><path d="m334.298 334.275h18.541v18.545h-18.541z" fill="#1fbab4"/><path d="m334.298 315.729h18.541v18.546h-18.541z" fill="#1fbab4"/><path d="m334.298 297.191h18.541v18.545h-18.541z" fill="#1fbab4"/><path d="m334.298 278.631h18.541v18.559h-18.541z" fill="#1fbab4"/><path d="m334.298 260.085h18.541v18.546h-18.541z" fill="#1fbab4"/><path d="m334.298 241.547h18.541v18.545h-18.541z" fill="#1fbab4"/><path d="m334.298 223.001h18.541v18.546h-18.541z" fill="#1fbab4"/><path d="m334.298 204.456h18.541v18.545h-18.541z" fill="#1fbab4"/><path d="m334.298 185.91h18.541v18.546h-18.541z" fill="#1fbab4"/><path d="m334.298 167.357h18.541v18.56h-18.541z" fill="#1fbab4"/><path d="m334.298 148.812h18.541v18.545h-18.541z" fill="#1fbab4"/><path d="m334.298 130.266h18.541v18.546h-18.541z" fill="#1fbab4"/><path d="m334.298 111.721h18.541v18.545h-18.541z" fill="#1fbab4"/><path d="m334.298 56.0769h18.541v18.5597h-18.541z" fill="#1fbab4"/><path d="m352.84 352.82h18.541v18.546h-18.541z" fill="#bfefed"/><path d="m352.84 334.275h18.541v18.545h-18.541z" fill="#1fbab4"/><path d="m352.84 315.729h18.541v18.546h-18.541z" fill="#1fbab4"/><path d="m352.84 297.191h18.541v18.545h-18.541z" fill="#1fbab4"/><path d="m352.84 278.631h18.541v18.559h-18.541z" fill="#1fbab4"/><path d="m352.84 260.085h18.541v18.546h-18.541z" fill="#1fbab4"/><path d="m352.84 241.547h18.541v18.545h-18.541z" fill="#1fbab4"/><path d="m352.84 223.001h18.541v18.546h-18.541z" fill="#1fbab4"/><path d="m352.84 204.456h18.541v18.545h-18.541z" fill="#1fbab4"/><path d="m352.84 185.91h18.541v18.546h-18.541z" fill="#1fbab4"/><path d="m352.84 167.357h18.541v18.56h-18.541z" fill="#1fbab4"/><path d="m352.84 148.812h18.541v18.545h-18.541z" fill="#1fbab4"/><path d="m352.84 130.266h18.541v18.546h-18.541z" fill="#1fbab4"/><path d="m371.38 352.82h18.541v18.546h-18.541z" fill="#1fbab4"/><path d="m371.38 334.275h18.541v18.545h-18.541z" fill="#1fbab4"/><path d="m371.38 315.729h18.541v18.546h-18.541z" fill="#1fbab4"/><path d="m371.38 297.191h18.541v18.545h-18.541z" fill="#1fbab4"/><path d="m371.38 278.631h18.541v18.559h-18.541z" fill="#1fbab4"/><path d="m371.38 260.085h18.541v18.546h-18.541z" fill="#1fbab4"/><path d="m371.38 241.547h18.541v18.545h-18.541z" fill="#1fbab4"/><path d="m371.38 223.001h18.541v18.546h-18.541z" fill="#1fbab4"/><path d="m371.38 204.456h18.541v18.545h-18.541z" fill="#1fbab4"/><path d="m371.38 185.91h18.541v18.546h-18.541z" fill="#bfefed"/><path d="m371.38 148.812h18.541v18.545h-18.541z" fill="#1fbab4"/><path d="m371.38 130.266h18.541v18.546h-18.541z" fill="#bfefed"/><path d="m371.38 74.6366h18.541v18.5456h-18.541z" fill="#bfefed"/><path d="m371.38 18.9929h18.541v18.5455h-18.541z" fill="#1fbab4"/><path d="m389.914 352.82h18.541v18.546h-18.541z" fill="#1fbab4"/><path d="m389.914 334.275h18.541v18.545h-18.541z" fill="#bfefed"/><path d="m389.914 315.729h18.541v18.546h-18.541z" fill="#1fbab4"/><path d="m389.914 297.191h18.541v18.545h-18.541z" fill="#1fbab4"/><path d="m389.914 278.631h18.541v18.559h-18.541z" fill="#1fbab4"/><path d="m389.914 260.085h18.541v18.546h-18.541z" fill="#1fbab4"/><path d="m389.914 241.547h18.541v18.545h-18.541z" fill="#1fbab4"/><path d="m389.914 223.001h18.541v18.546h-18.541z" fill="#1fbab4"/><path d="m389.914 204.456h18.541v18.545h-18.541z" fill="#1fbab4"/><path d="m389.914 185.91h18.541v18.546h-18.541z" fill="#bfefed"/><path d="m408.455 334.275h18.555v18.545h-18.555z" fill="#1fbab4"/><path d="m408.455 315.729h18.555v18.546h-18.555z" fill="#1fbab4"/><path d="m408.455 297.191h18.555v18.545h-18.555z" fill="#1fbab4"/><path d="m408.455 278.631h18.555v18.559h-18.555z" fill="#1fbab4"/><path d="m408.455 260.085h18.555v18.546h-18.555z" fill="#1fbab4"/><path d="m408.455 241.547h18.555v18.545h-18.555z" fill="#1fbab4"/><path d="m408.455 223.001h18.555v18.546h-18.555z" fill="#bfefed"/><path d="m408.455 204.456h18.555v18.545h-18.555z" fill="#1fbab4"/><path d="m408.455 185.91h18.555v18.546h-18.555z" fill="#1fbab4"/><path d="m427.01 334.275h18.541v18.545h-18.541z" fill="#1fbab4"/><path d="m427.01 315.729h18.541v18.546h-18.541z" fill="#bfefed"/><path d="m427.01 297.191h18.541v18.545h-18.541z" fill="#bfefed"/><path d="m427.01 278.631h18.541v18.559h-18.541z" fill="#1fbab4"/><path d="m427.01 260.085h18.541v18.546h-18.541z" fill="#1fbab4"/><path d="m427.01 223.001h18.541v18.546h-18.541z" fill="#1fbab4"/><path d="m427.01 204.456h18.541v18.545h-18.541z" fill="#1fbab4"/><path d="m427.01 185.91h18.541v18.546h-18.541z" fill="#1fbab4"/><path d="m427.01 130.266h18.541v18.546h-18.541z" fill="#1fbab4"/><path d="m445.544 297.191h18.541v18.545h-18.541z" fill="#1fbab4"/><path d="m445.544 204.456h18.541v18.545h-18.541z" fill="#1fbab4"/><path d="m445.544 185.91h18.541v18.546h-18.541z" fill="#1fbab4"/><path d="m445.544 167.357h18.541v18.56h-18.541z" fill="#1fbab4"/><path d="m464.085 297.191h18.54v18.545h-18.54z" fill="#1fbab4"/><path d="m464.085 185.91h18.54v18.546h-18.54z" fill="#1fbab4"/><path d="m482.626 315.729h18.541v18.546h-18.541z" fill="#1fbab4"/><path d="m278.311 370.372h18.541v19.685h-18.541z" fill="#1fbab4"/><path d="m259.554 370.372h19.685v19.685h-19.685z" fill="#1fbab4"/><path d="m314.573 351.723h18.541v19.685h-18.541z" fill="#1fbab4"/><path d="m259.662 390.057h18.541v18.545h-18.541z" fill="#bfefed"/><path d="m197 410h17.896v17.9h-17.896z" fill="#bfefed"/></svg>