<svg width="563" height="402" viewBox="0 0 563 402" fill="none" xmlns="http://www.w3.org/2000/svg">
<path d="M439.971 38.1904H420.843V57.2857H439.971V38.1904Z" fill="#FCBB00"/>
<path d="M420.85 19.0952H401.707V38.1905H420.85V19.0952Z" fill="#FCBB00"/>
<path d="M535.622 248.245H516.479V267.341H535.622V248.245Z" fill="#FCBB00"/>
<path d="M516.478 306H497.35V325.11H516.478V306Z" fill="#FCBB00"/>
<path d="M516.478 248.245H497.35V267.341H516.478V248.245Z" fill="#FCBB00"/>
<path d="M516.478 229.15H497.35V248.245H516.478V229.15Z" fill="#FCBB00"/>
<path d="M516.478 190.945H497.35V210.055H516.478V190.945Z" fill="#FCBB00"/>
<path d="M497.35 286.428H478.221V305.524H497.35V286.428Z" fill="#FCBB00"/>
<path d="M497.35 248.245H478.221V267.341H497.35V248.245Z" fill="#FCBB00"/>
<path d="M497.35 229.15H478.221V248.245H497.35V229.15Z" fill="#FCBB00"/>
<path d="M497.35 210.055H478.221V229.15H497.35V210.055Z" fill="#FCBB00"/>
<path d="M497.35 190.945H478.221V210.055H497.35V190.945Z" fill="#FCBB00"/>
<path d="M497.35 171.857H478.221V190.952H497.35V171.857Z" fill="#FCBB00"/>
<path d="M497.35 95.4834H478.221V114.579H497.35V95.4834Z" fill="#FCBB00"/>
<path d="M478.229 305.524H459.1V324.634H478.229V305.524Z" fill="#FCBB00"/>
<path d="M497.5 305H478V325.526H497.5V305Z" fill="#FCBB00"/>
<path d="M478.229 324H459.1V344H478.229V324Z" fill="#FCBB00"/>
<path d="M478.229 286.428H459.1V305.524H478.229V286.428Z" fill="#FDDF8F"/>
<path d="M478.229 267.333H459.1V286.429H478.229V267.333Z" fill="#FCBB00"/>
<path d="M478.229 248.245H459.1V267.341H478.229V248.245Z" fill="#FCBB00"/>
<path d="M478.229 229.15H459.1V248.245H478.229V229.15Z" fill="#FCBB00"/>
<path d="M478.229 210.055H459.1V229.15H478.229V210.055Z" fill="#FCBB00"/>
<path d="M478.229 190.945H459.1V210.055H478.229V190.945Z" fill="#FCBB00"/>
<path d="M478.229 171.857H459.1V190.952H478.229V171.857Z" fill="#FCBB00"/>
<path d="M478.229 152.762H459.1V171.857H478.229V152.762Z" fill="#FCBB00"/>
<path d="M478.229 133.667H459.1V152.762H478.229V133.667Z" fill="#FCBB00"/>
<path d="M459.1 362.817H439.971V381.912H459.1V362.817Z" fill="#FCBB00"/>
<path d="M459.1 343.721H439.971V362.817H459.1V343.721Z" fill="#FCBB00"/>
<path d="M459.1 305.524H439.972V324.634H459.1V305.524Z" fill="#FCBB00"/>
<path d="M459.1 324H439.972V344H459.1V324Z" fill="#FCBB00"/>
<path d="M459.1 286.428H439.971V305.524H459.1V286.428Z" fill="#FCBB00"/>
<path d="M459.1 267.333H439.971V286.429H459.1V267.333Z" fill="#FCBB00"/>
<path d="M459.1 248.245H439.971V267.341H459.1V248.245Z" fill="#FCBB00"/>
<path d="M459.1 229.15H439.971V248.245H459.1V229.15Z" fill="#FCBB00"/>
<path d="M459.1 210.055H439.971V229.15H459.1V210.055Z" fill="#FCBB00"/>
<path d="M459.1 190.945H439.971V210.055H459.1V190.945Z" fill="#FCBB00"/>
<path d="M459.1 171.857H439.971V190.952H459.1V171.857Z" fill="#FCBB00"/>
<path d="M459.1 152.762H439.971V171.857H459.1V152.762Z" fill="#FCBB00"/>
<path d="M459.1 133.667H439.971V152.762H459.1V133.667Z" fill="#FCBB00"/>
<path d="M459.1 114.572H439.971V133.667H459.1V114.572Z" fill="#FDDF8F"/>
<path d="M459.1 57.2786H439.971V76.3738H459.1V57.2786Z" fill="#FDDF8F"/>
<path d="M459.1 38.1904H439.971V57.2857H459.1V38.1904Z" fill="#FDDF8F"/>
<path d="M439.971 362.817H420.843V381.912H439.971V362.817Z" fill="#FCBB00"/>
<path d="M439.971 343.721H420.843V362.817H439.971V343.721Z" fill="#FCBB00"/>
<path d="M439.971 324.626H420.843V343.722H439.971V324.626Z" fill="#FCBB00"/>
<path d="M439.971 305.524H420.843V324.634H439.971V305.524Z" fill="#FCBB00"/>
<path d="M439.971 286.428H420.843V305.524H439.971V286.428Z" fill="#FCBB00"/>
<path d="M439.971 267.333H420.843V286.429H439.971V267.333Z" fill="#FCBB00"/>
<path d="M439.971 248.245H420.843V267.341H439.971V248.245Z" fill="#FCBB00"/>
<path d="M439.971 229.15H420.843V248.245H439.971V229.15Z" fill="#FCBB00"/>
<path d="M439.971 210.055H420.843V229.15H439.971V210.055Z" fill="#FCBB00"/>
<path d="M439.971 190.945H420.843V210.055H439.971V190.945Z" fill="#FCBB00"/>
<path d="M439.971 171.857H420.843V190.952H439.971V171.857Z" fill="#FCBB00"/>
<path d="M439.971 152.762H420.843V171.857H439.971V152.762Z" fill="#FCBB00"/>
<path d="M439.971 133.667H420.843V152.762H439.971V133.667Z" fill="#FCBB00"/>
<path d="M439.971 114.572H420.843V133.667H439.971V114.572Z" fill="#FCBB00"/>
<path d="M439.971 95.4834H420.843V114.579H439.971V95.4834Z" fill="#FCBB00"/>
<path d="M439.971 76.3738H420.843V95.4836H439.971V76.3738Z" fill="#FCBB00"/>
<path d="M439.971 57.2786H420.843V76.3738H439.971V57.2786Z" fill="#FDDF8F"/>
<path d="M439.971 19.0952H420.843V38.1905H439.971V19.0952Z" fill="#FDDF8F"/>
<path d="M420.85 362.817H401.707V381.912H420.85V362.817Z" fill="#FCBB00"/>
<path d="M420.85 343.721H401.707V362.817H420.85V343.721Z" fill="#FCBB00"/>
<path d="M420.85 324.626H401.707V343.722H420.85V324.626Z" fill="#FCBB00"/>
<path d="M420.85 305.524H401.707V324.634H420.85V305.524Z" fill="#FCBB00"/>
<path d="M420.85 286.428H401.707V305.524H420.85V286.428Z" fill="#FCBB00"/>
<path d="M420.85 267.333H401.707V286.429H420.85V267.333Z" fill="#FCBB00"/>
<path d="M420.85 248.245H401.707V267.341H420.85V248.245Z" fill="#FCBB00"/>
<path d="M420.85 229.15H401.707V248.245H420.85V229.15Z" fill="#FCBB00"/>
<path d="M420.85 210.055H401.707V229.15H420.85V210.055Z" fill="#FCBB00"/>
<path d="M420.85 190.945H401.707V210.055H420.85V190.945Z" fill="#FCBB00"/>
<path d="M420.85 171.857H401.707V190.952H420.85V171.857Z" fill="#FCBB00"/>
<path d="M420.85 152.762H401.707V171.857H420.85V152.762Z" fill="#FCBB00"/>
<path d="M420.85 133.667H401.707V152.762H420.85V133.667Z" fill="#FCBB00"/>
<path d="M420.85 114.572H401.707V133.667H420.85V114.572Z" fill="#FCBB00"/>
<path d="M420.85 95.4834H401.707V114.579H420.85V95.4834Z" fill="#FCBB00"/>
<path d="M420.85 76.3738H401.707V95.4836H420.85V76.3738Z" fill="#FDDF8F"/>
<path d="M420.85 38.1904H401.707V57.2857H420.85V38.1904Z" fill="#FCBB00"/>
<path d="M420.85 0H401.707V19.0952H420.85V0Z" fill="#FDDF8F"/>
<path d="M401.707 362.817H382.579V381.912H401.707V362.817Z" fill="#FCBB00"/>
<path d="M401.707 343.721H382.579V362.817H401.707V343.721Z" fill="#FCBB00"/>
<path d="M401.707 324.626H382.579V343.722H401.707V324.626Z" fill="#FCBB00"/>
<path d="M401.707 305.524H382.579V324.634H401.707V305.524Z" fill="#FCBB00"/>
<path d="M401.707 286.428H382.579V305.524H401.707V286.428Z" fill="#FCBB00"/>
<path d="M401.707 267.333H382.579V286.429H401.707V267.333Z" fill="#FCBB00"/>
<path d="M401.707 248.245H382.579V267.341H401.707V248.245Z" fill="#FCBB00"/>
<path d="M401.707 229.15H382.579V248.245H401.707V229.15Z" fill="#FCBB00"/>
<path d="M401.707 210.055H382.579V229.15H401.707V210.055Z" fill="#FCBB00"/>
<path d="M401.707 190.945H382.579V210.055H401.707V190.945Z" fill="#FCBB00"/>
<path d="M401.707 171.857H382.579V190.952H401.707V171.857Z" fill="#FCBB00"/>
<path d="M401.707 152.762H382.579V171.857H401.707V152.762Z" fill="#FCBB00"/>
<path d="M401.707 133.667H382.579V152.762H401.707V133.667Z" fill="#FCBB00"/>
<path d="M401.707 114.572H382.579V133.667H401.707V114.572Z" fill="#FCBB00"/>
<path d="M401.707 95.4834H382.579V114.579H401.707V95.4834Z" fill="#FCBB00"/>
<path d="M401.707 76.3738H382.579V95.4836H401.707V76.3738Z" fill="#FCBB00"/>
<path d="M401.707 38.1904H382.579V57.2857H401.707V38.1904Z" fill="#FCBB00"/>
<path d="M401.707 19.0952H382.579V38.1905H401.707V19.0952Z" fill="#FCBB00"/>
<path d="M382.578 381.912H363.45V401.007H382.578V381.912Z" fill="#FCBB00"/>
<path d="M382.578 362.817H363.45V381.912H382.578V362.817Z" fill="#FCBB00"/>
<path d="M382.578 343.721H363.45V362.817H382.578V343.721Z" fill="#FCBB00"/>
<path d="M382.578 324.626H363.45V343.722H382.578V324.626Z" fill="#FCBB00"/>
<path d="M382.578 305.524H363.45V324.634H382.578V305.524Z" fill="#FCBB00"/>
<path d="M382.578 286.428H363.45V305.524H382.578V286.428Z" fill="#FCBB00"/>
<path d="M382.578 267.333H363.45V286.429H382.578V267.333Z" fill="#FCBB00"/>
<path d="M382.578 248.245H363.45V267.341H382.578V248.245Z" fill="#FCBB00"/>
<path d="M382.578 229.15H363.45V248.245H382.578V229.15Z" fill="#FCBB00"/>
<path d="M382.578 210.055H363.45V229.15H382.578V210.055Z" fill="#FCBB00"/>
<path d="M382.578 190.945H363.45V210.055H382.578V190.945Z" fill="#FCBB00"/>
<path d="M382.578 171.857H363.45V190.952H382.578V171.857Z" fill="#FCBB00"/>
<path d="M382.578 152.762H363.45V171.857H382.578V152.762Z" fill="#FCBB00"/>
<path d="M382.578 133.667H363.45V152.762H382.578V133.667Z" fill="#FCBB00"/>
<path d="M382.578 114.572H363.45V133.667H382.578V114.572Z" fill="#FCBB00"/>
<path d="M382.578 95.4834H363.45V114.579H382.578V95.4834Z" fill="#FDDF8F"/>
<path d="M382.578 57.2786H363.45V76.3738H382.578V57.2786Z" fill="#FCBB00"/>
<path d="M363.45 381.912H344.321V401.007H363.45V381.912Z" fill="#FCBB00"/>
<path d="M363.45 362.817H344.321V381.912H363.45V362.817Z" fill="#FCBB00"/>
<path d="M363.45 343.721H344.321V362.817H363.45V343.721Z" fill="#FCBB00"/>
<path d="M363.45 324.626H344.321V343.722H363.45V324.626Z" fill="#FCBB00"/>
<path d="M363.45 305.524H344.321V324.634H363.45V305.524Z" fill="#FCBB00"/>
<path d="M363.45 286.428H344.321V305.524H363.45V286.428Z" fill="#FCBB00"/>
<path d="M363.45 267.333H344.321V286.429H363.45V267.333Z" fill="#FCBB00"/>
<path d="M363.45 248.245H344.321V267.341H363.45V248.245Z" fill="#FCBB00"/>
<path d="M363.45 229.15H344.321V248.245H363.45V229.15Z" fill="#FCBB00"/>
<path d="M363.45 210.055H344.321V229.15H363.45V210.055Z" fill="#FCBB00"/>
<path d="M363.45 190.945H344.321V210.055H363.45V190.945Z" fill="#FCBB00"/>
<path d="M363.45 171.857H344.321V190.952H363.45V171.857Z" fill="#FCBB00"/>
<path d="M363.45 152.762H344.321V171.857H363.45V152.762Z" fill="#FCBB00"/>
<path d="M363.45 133.667H344.321V152.762H363.45V133.667Z" fill="#FCBB00"/>
<path d="M363.45 114.572H344.321V133.667H363.45V114.572Z" fill="#FCBB00"/>
<path d="M363.45 95.4834H344.321V114.579H363.45V95.4834Z" fill="#FCBB00"/>
<path d="M344.321 381.912H325.193V401.007H344.321V381.912Z" fill="#FCBB00"/>
<path d="M344.321 362.817H325.193V381.912H344.321V362.817Z" fill="#FCBB00"/>
<path d="M344.321 343.721H325.193V362.817H344.321V343.721Z" fill="#FCBB00"/>
<path d="M344.321 324.626H325.193V343.722H344.321V324.626Z" fill="#FCBB00"/>
<path d="M344.321 305.524H325.193V324.634H344.321V305.524Z" fill="#FCBB00"/>
<path d="M344.321 286.428H325.193V305.524H344.321V286.428Z" fill="#FCBB00"/>
<path d="M344.321 267.333H325.193V286.429H344.321V267.333Z" fill="#FCBB00"/>
<path d="M344.321 248.245H325.193V267.341H344.321V248.245Z" fill="#FCBB00"/>
<path d="M344.321 229.15H325.193V248.245H344.321V229.15Z" fill="#FCBB00"/>
<path d="M344.321 210.055H325.193V229.15H344.321V210.055Z" fill="#FCBB00"/>
<path d="M344.321 190.945H325.193V210.055H344.321V190.945Z" fill="#FCBB00"/>
<path d="M344.321 171.857H325.193V190.952H344.321V171.857Z" fill="#FCBB00"/>
<path d="M344.321 152.762H325.193V171.857H344.321V152.762Z" fill="#FCBB00"/>
<path d="M344.321 133.667H325.193V152.762H344.321V133.667Z" fill="#FCBB00"/>
<path d="M344.321 114.572H325.193V133.667H344.321V114.572Z" fill="#FCBB00"/>
<path d="M344.321 95.4834H325.193V114.579H344.321V95.4834Z" fill="#FCBB00"/>
<path d="M344.321 76.3738H325.193V95.4836H344.321V76.3738Z" fill="#FCBB00"/>
<path d="M344.321 57.2786H325.193V76.3738H344.321V57.2786Z" fill="#FCBB00"/>
<path d="M344.321 38.1904H325.193V57.2857H344.321V38.1904Z" fill="#FDDF8F"/>
<path d="M325.2 381.912H306.057V401.007H325.2V381.912Z" fill="#FCBB00"/>
<path d="M325.2 362.817H306.057V381.912H325.2V362.817Z" fill="#FCBB00"/>
<path d="M325.2 343.721H306.057V362.817H325.2V343.721Z" fill="#FCBB00"/>
<path d="M325.2 324.626H306.057V343.722H325.2V324.626Z" fill="#FCBB00"/>
<path d="M325.2 305.524H306.057V324.634H325.2V305.524Z" fill="#FCBB00"/>
<path d="M325.2 286.428H306.057V305.524H325.2V286.428Z" fill="#FCBB00"/>
<path d="M325.2 267.333H306.057V286.429H325.2V267.333Z" fill="#FCBB00"/>
<path d="M325.2 248.245H306.057V267.341H325.2V248.245Z" fill="#FCBB00"/>
<path d="M325.2 229.15H306.057V248.245H325.2V229.15Z" fill="#FCBB00"/>
<path d="M325.2 210.055H306.057V229.15H325.2V210.055Z" fill="#FCBB00"/>
<path d="M325.2 190.945H306.057V210.055H325.2V190.945Z" fill="#FCBB00"/>
<path d="M325.2 171.857H306.057V190.952H325.2V171.857Z" fill="#FCBB00"/>
<path d="M325.2 152.762H306.057V171.857H325.2V152.762Z" fill="#FCBB00"/>
<path d="M325.2 133.667H306.057V152.762H325.2V133.667Z" fill="#FCBB00"/>
<path d="M325.2 114.572H306.057V133.667H325.2V114.572Z" fill="#FCBB00"/>
<path d="M325.2 95.4834H306.057V114.579H325.2V95.4834Z" fill="#FCBB00"/>
<path d="M325.2 76.3738H306.057V95.4836H325.2V76.3738Z" fill="#FDDF8F"/>
<path d="M306.057 381.912H286.928V401.007H306.057V381.912Z" fill="#FCBB00"/>
<path d="M306.057 362.817H286.928V381.912H306.057V362.817Z" fill="#FCBB00"/>
<path d="M306.057 343.721H286.928V362.817H306.057V343.721Z" fill="#FCBB00"/>
<path d="M306.057 324.626H286.928V343.722H306.057V324.626Z" fill="#FCBB00"/>
<path d="M306.057 305.524H286.928V324.634H306.057V305.524Z" fill="#FCBB00"/>
<path d="M306.057 286.428H286.928V305.524H306.057V286.428Z" fill="#FCBB00"/>
<path d="M306.057 267.333H286.928V286.429H306.057V267.333Z" fill="#FCBB00"/>
<path d="M306.057 248.245H286.928V267.341H306.057V248.245Z" fill="#FCBB00"/>
<path d="M306.057 229.15H286.928V248.245H306.057V229.15Z" fill="#FCBB00"/>
<path d="M306.057 210.055H286.928V229.15H306.057V210.055Z" fill="#FCBB00"/>
<path d="M306.057 190.945H286.928V210.055H306.057V190.945Z" fill="#FCBB00"/>
<path d="M306.057 171.857H286.928V190.952H306.057V171.857Z" fill="#FCBB00"/>
<path d="M306.057 152.762H286.928V171.857H306.057V152.762Z" fill="#FCBB00"/>
<path d="M306.057 133.667H286.928V152.762H306.057V133.667Z" fill="#FCBB00"/>
<path d="M306.057 114.572H286.928V133.667H306.057V114.572Z" fill="#FCBB00"/>
<path d="M306.057 95.4834H286.928V114.579H306.057V95.4834Z" fill="#FCBB00"/>
<path d="M286.928 381.912H267.8V401.007H286.928V381.912Z" fill="#FCBB00"/>
<path d="M286.928 362.817H267.8V381.912H286.928V362.817Z" fill="#FCBB00"/>
<path d="M286.928 343.721H267.8V362.817H286.928V343.721Z" fill="#FCBB00"/>
<path d="M286.928 324.626H267.8V343.722H286.928V324.626Z" fill="#FCBB00"/>
<path d="M286.928 305.524H267.8V324.634H286.928V305.524Z" fill="#FCBB00"/>
<path d="M286.928 286.428H267.8V305.524H286.928V286.428Z" fill="#FCBB00"/>
<path d="M286.928 267.333H267.8V286.429H286.928V267.333Z" fill="#FCBB00"/>
<path d="M286.928 248.245H267.8V267.341H286.928V248.245Z" fill="#FCBB00"/>
<path d="M286.928 229.15H267.8V248.245H286.928V229.15Z" fill="#FCBB00"/>
<path d="M286.928 210.055H267.8V229.15H286.928V210.055Z" fill="#FCBB00"/>
<path d="M286.928 190.945H267.8V210.055H286.928V190.945Z" fill="#FCBB00"/>
<path d="M286.928 171.857H267.8V190.952H286.928V171.857Z" fill="#FCBB00"/>
<path d="M286.928 152.762H267.8V171.857H286.928V152.762Z" fill="#FCBB00"/>
<path d="M286.928 133.667H267.8V152.762H286.928V133.667Z" fill="#FCBB00"/>
<path d="M286.928 114.572H267.8V133.667H286.928V114.572Z" fill="#FCBB00"/>
<path d="M267.807 381.912H248.679V401.007H267.807V381.912Z" fill="#FCBB00"/>
<path d="M267.807 362.817H248.679V381.912H267.807V362.817Z" fill="#FCBB00"/>
<path d="M267.807 343.721H248.679V362.817H267.807V343.721Z" fill="#FCBB00"/>
<path d="M267.807 324.626H248.679V343.722H267.807V324.626Z" fill="#FCBB00"/>
<path d="M267.807 305.524H248.679V324.634H267.807V305.524Z" fill="#FCBB00"/>
<path d="M267.807 286.428H248.679V305.524H267.807V286.428Z" fill="#FCBB00"/>
<path d="M267.807 267.333H248.679V286.429H267.807V267.333Z" fill="#FCBB00"/>
<path d="M267.807 248.245H248.679V267.341H267.807V248.245Z" fill="#FCBB00"/>
<path d="M267.807 229.15H248.679V248.245H267.807V229.15Z" fill="#FCBB00"/>
<path d="M267.807 210.055H248.679V229.15H267.807V210.055Z" fill="#FCBB00"/>
<path d="M267.807 190.945H248.679V210.055H267.807V190.945Z" fill="#FCBB00"/>
<path d="M267.807 171.857H248.679V190.952H267.807V171.857Z" fill="#FCBB00"/>
<path d="M267.807 152.762H248.679V171.857H267.807V152.762Z" fill="#FCBB00"/>
<path d="M267.807 133.667H248.679V152.762H267.807V133.667Z" fill="#FCBB00"/>
<path d="M267.807 114.572H248.679V133.667H267.807V114.572Z" fill="#FCBB00"/>
<path d="M267.807 95.4834H248.679V114.579H267.807V95.4834Z" fill="#FCBB00"/>
<path d="M248.678 381.912H229.55V401.007H248.678V381.912Z" fill="#FCBB00"/>
<path d="M248.678 362.817H229.55V381.912H248.678V362.817Z" fill="#FCBB00"/>
<path d="M248.678 343.721H229.55V362.817H248.678V343.721Z" fill="#FCBB00"/>
<path d="M248.678 324.626H229.55V343.722H248.678V324.626Z" fill="#FCBB00"/>
<path d="M248.678 305.524H229.55V324.634H248.678V305.524Z" fill="#FCBB00"/>
<path d="M248.678 286.428H229.55V305.524H248.678V286.428Z" fill="#FCBB00"/>
<path d="M248.678 267.333H229.55V286.429H248.678V267.333Z" fill="#FCBB00"/>
<path d="M248.678 248.245H229.55V267.341H248.678V248.245Z" fill="#FCBB00"/>
<path d="M248.678 229.15H229.55V248.245H248.678V229.15Z" fill="#FCBB00"/>
<path d="M248.678 210.055H229.55V229.15H248.678V210.055Z" fill="#FCBB00"/>
<path d="M248.678 190.945H229.55V210.055H248.678V190.945Z" fill="#FCBB00"/>
<path d="M248.678 171.857H229.55V190.952H248.678V171.857Z" fill="#FCBB00"/>
<path d="M248.678 152.762H229.55V171.857H248.678V152.762Z" fill="#FCBB00"/>
<path d="M248.678 133.667H229.55V152.762H248.678V133.667Z" fill="#FCBB00"/>
<path d="M248.678 114.572H229.55V133.667H248.678V114.572Z" fill="#FCBB00"/>
<path d="M248.678 95.4834H229.55V114.579H248.678V95.4834Z" fill="#FCBB00"/>
<path d="M248.678 76.3738H229.55V95.4836H248.678V76.3738Z" fill="#FDDF8F"/>
<path d="M229.55 381.912H210.421V401.007H229.55V381.912Z" fill="#FCBB00"/>
<path d="M229.55 362.817H210.421V381.912H229.55V362.817Z" fill="#FCBB00"/>
<path d="M229.55 343.721H210.421V362.817H229.55V343.721Z" fill="#FCBB00"/>
<path d="M229.55 324.626H210.421V343.722H229.55V324.626Z" fill="#FCBB00"/>
<path d="M229.55 305.524H210.421V324.634H229.55V305.524Z" fill="#FCBB00"/>
<path d="M229.55 286.428H210.421V305.524H229.55V286.428Z" fill="#FCBB00"/>
<path d="M229.55 267.333H210.421V286.429H229.55V267.333Z" fill="#FCBB00"/>
<path d="M229.55 248.245H210.421V267.341H229.55V248.245Z" fill="#FCBB00"/>
<path d="M229.55 229.15H210.421V248.245H229.55V229.15Z" fill="#FCBB00"/>
<path d="M229.55 210.055H210.421V229.15H229.55V210.055Z" fill="#FCBB00"/>
<path d="M229.55 190.945H210.421V210.055H229.55V190.945Z" fill="#FCBB00"/>
<path d="M229.55 171.857H210.421V190.952H229.55V171.857Z" fill="#FCBB00"/>
<path d="M229.55 152.762H210.421V171.857H229.55V152.762Z" fill="#FCBB00"/>
<path d="M229.55 133.667H210.421V152.762H229.55V133.667Z" fill="#FCBB00"/>
<path d="M229.55 114.572H210.421V133.667H229.55V114.572Z" fill="#FCBB00"/>
<path d="M229.55 95.4834H210.421V114.579H229.55V95.4834Z" fill="#FCBB00"/>
<path d="M210.421 381.912H191.278V401.007H210.421V381.912Z" fill="#FCBB00"/>
<path d="M210.421 362.817H191.278V381.912H210.421V362.817Z" fill="#FCBB00"/>
<path d="M210.421 343.721H191.278V362.817H210.421V343.721Z" fill="#FCBB00"/>
<path d="M210.421 324.626H191.278V343.722H210.421V324.626Z" fill="#FCBB00"/>
<path d="M210.421 305.524H191.278V324.634H210.421V305.524Z" fill="#FCBB00"/>
<path d="M210.421 286.428H191.278V305.524H210.421V286.428Z" fill="#FCBB00"/>
<path d="M210.421 267.333H191.278V286.429H210.421V267.333Z" fill="#FCBB00"/>
<path d="M210.421 248.245H191.278V267.341H210.421V248.245Z" fill="#FCBB00"/>
<path d="M210.421 229.15H191.278V248.245H210.421V229.15Z" fill="#FCBB00"/>
<path d="M210.421 210.055H191.278V229.15H210.421V210.055Z" fill="#FCBB00"/>
<path d="M210.421 190.945H191.278V210.055H210.421V190.945Z" fill="#FCBB00"/>
<path d="M210.421 171.857H191.278V190.952H210.421V171.857Z" fill="#FCBB00"/>
<path d="M210.421 152.762H191.278V171.857H210.421V152.762Z" fill="#FCBB00"/>
<path d="M210.421 133.667H191.278V152.762H210.421V133.667Z" fill="#FCBB00"/>
<path d="M191.285 381.912H172.157V401.007H191.285V381.912Z" fill="#FCBB00"/>
<path d="M191.285 362.817H172.157V381.912H191.285V362.817Z" fill="#FCBB00"/>
<path d="M191.285 343.721H172.157V362.817H191.285V343.721Z" fill="#FCBB00"/>
<path d="M191.285 324.626H172.157V343.722H191.285V324.626Z" fill="#FCBB00"/>
<path d="M191.285 305.524H172.157V324.634H191.285V305.524Z" fill="#FCBB00"/>
<path d="M191.285 286.428H172.157V305.524H191.285V286.428Z" fill="#FCBB00"/>
<path d="M191.285 267.333H172.157V286.429H191.285V267.333Z" fill="#FCBB00"/>
<path d="M191.285 248.245H172.157V267.341H191.285V248.245Z" fill="#FCBB00"/>
<path d="M191.285 229.15H172.157V248.245H191.285V229.15Z" fill="#FCBB00"/>
<path d="M191.285 210.055H172.157V229.15H191.285V210.055Z" fill="#FCBB00"/>
<path d="M191.285 190.945H172.157V210.055H191.285V190.945Z" fill="#FCBB00"/>
<path d="M191.285 171.857H172.157V190.952H191.285V171.857Z" fill="#FCBB00"/>
<path d="M191.285 152.762H172.157V171.857H191.285V152.762Z" fill="#FCBB00"/>
<path d="M191.285 133.667H172.157V152.762H191.285V133.667Z" fill="#FDDF8F"/>
<path d="M191.285 114.572H172.157V133.667H191.285V114.572Z" fill="#FCBB00"/>
<path d="M191.285 95.4834H172.157V114.579H191.285V95.4834Z" fill="#FDDF8F"/>
<path d="M191.285 19.0952H172.157V38.1905H191.285V19.0952Z" fill="#FCBB00"/>
<path d="M172.157 381.912H153.028V401.007H172.157V381.912Z" fill="#FCBB00"/>
<path d="M172.157 362.817H153.028V381.912H172.157V362.817Z" fill="#FCBB00"/>
<path d="M172.157 343.721H153.028V362.817H172.157V343.721Z" fill="#FCBB00"/>
<path d="M172.157 324.626H153.028V343.722H172.157V324.626Z" fill="#FCBB00"/>
<path d="M172.157 305.524H153.028V324.634H172.157V305.524Z" fill="#FCBB00"/>
<path d="M172.157 286.428H153.028V305.524H172.157V286.428Z" fill="#FCBB00"/>
<path d="M172.157 267.333H153.028V286.429H172.157V267.333Z" fill="#FCBB00"/>
<path d="M172.157 248.245H153.028V267.341H172.157V248.245Z" fill="#FCBB00"/>
<path d="M172.157 229.15H153.028V248.245H172.157V229.15Z" fill="#FCBB00"/>
<path d="M172.157 210.055H153.028V229.15H172.157V210.055Z" fill="#FCBB00"/>
<path d="M172.157 190.945H153.028V210.055H172.157V190.945Z" fill="#FCBB00"/>
<path d="M172.157 171.857H153.028V190.952H172.157V171.857Z" fill="#FCBB00"/>
<path d="M172.157 152.762H153.028V171.857H172.157V152.762Z" fill="#FCBB00"/>
<path d="M172.157 133.667H153.028V152.762H172.157V133.667Z" fill="#FCBB00"/>
<path d="M172.157 114.572H153.028V133.667H172.157V114.572Z" fill="#FCBB00"/>
<path d="M172.157 95.4834H153.028V114.579H172.157V95.4834Z" fill="#FDDF8F"/>
<path d="M172.157 76.3738H153.028V95.4836H172.157V76.3738Z" fill="#FCBB00"/>
<path d="M153.028 381.912H133.9V401.007H153.028V381.912Z" fill="#FCBB00"/>
<path d="M153.028 362.817H133.9V381.912H153.028V362.817Z" fill="#FCBB00"/>
<path d="M153.028 343.721H133.9V362.817H153.028V343.721Z" fill="#FCBB00"/>
<path d="M153.028 324.626H133.9V343.722H153.028V324.626Z" fill="#FCBB00"/>
<path d="M153.028 305.524H133.9V324.634H153.028V305.524Z" fill="#FCBB00"/>
<path d="M153.028 286.428H133.9V305.524H153.028V286.428Z" fill="#FCBB00"/>
<path d="M153.028 267.333H133.9V286.429H153.028V267.333Z" fill="#FCBB00"/>
<path d="M153.028 248.245H133.9V267.341H153.028V248.245Z" fill="#FCBB00"/>
<path d="M153.028 229.15H133.9V248.245H153.028V229.15Z" fill="#FCBB00"/>
<path d="M153.028 210.055H133.9V229.15H153.028V210.055Z" fill="#FCBB00"/>
<path d="M153.028 190.945H133.9V210.055H153.028V190.945Z" fill="#FCBB00"/>
<path d="M153.028 171.857H133.9V190.952H153.028V171.857Z" fill="#FCBB00"/>
<path d="M153.028 152.762H133.9V171.857H153.028V152.762Z" fill="#FCBB00"/>
<path d="M153.028 133.667H133.9V152.762H153.028V133.667Z" fill="#FCBB00"/>
<path d="M153.028 114.572H133.9V133.667H153.028V114.572Z" fill="#FCBB00"/>
<path d="M153.028 95.4834H133.9V114.579H153.028V95.4834Z" fill="#FCBB00"/>
<path d="M153.028 76.3738H133.9V95.4836H153.028V76.3738Z" fill="#FCBB00"/>
<path d="M153.028 57.2786H133.9V76.3738H153.028V57.2786Z" fill="#FDDF8F"/>
<path d="M153.028 19.0952H133.9V38.1905H153.028V19.0952Z" fill="#FCBB00"/>
<path d="M133.9 381.912H114.771V401.007H133.9V381.912Z" fill="#FDDF8F"/>
<path d="M133.9 362.817H114.771V381.912H133.9V362.817Z" fill="#FCBB00"/>
<path d="M133.9 343.721H114.771V362.817H133.9V343.721Z" fill="#FCBB00"/>
<path d="M133.9 324.626H114.771V343.722H133.9V324.626Z" fill="#FCBB00"/>
<path d="M133.9 305.524H114.771V324.634H133.9V305.524Z" fill="#FCBB00"/>
<path d="M133.9 286.428H114.771V305.524H133.9V286.428Z" fill="#FCBB00"/>
<path d="M133.9 267.333H114.771V286.429H133.9V267.333Z" fill="#FCBB00"/>
<path d="M133.9 248.245H114.771V267.341H133.9V248.245Z" fill="#FCBB00"/>
<path d="M133.9 229.15H114.771V248.245H133.9V229.15Z" fill="#FCBB00"/>
<path d="M133.9 210.055H114.771V229.15H133.9V210.055Z" fill="#FCBB00"/>
<path d="M133.9 190.945H114.771V210.055H133.9V190.945Z" fill="#FCBB00"/>
<path d="M133.9 171.857H114.771V190.952H133.9V171.857Z" fill="#FCBB00"/>
<path d="M133.9 152.762H114.771V171.857H133.9V152.762Z" fill="#FCBB00"/>
<path d="M133.9 133.667H114.771V152.762H133.9V133.667Z" fill="#FDDF8F"/>
<path d="M133.9 114.572H114.771V133.667H133.9V114.572Z" fill="#FCBB00"/>
<path d="M133.9 95.4834H114.771V114.579H133.9V95.4834Z" fill="#FDDF8F"/>
<path d="M133.9 38.1904H114.771V57.2857H133.9V38.1904Z" fill="#FCBB00"/>
<path d="M133.9 19.0952H114.771V38.1905H133.9V19.0952Z" fill="#FDDF8F"/>
<path d="M114.778 381.912H95.6499V401.007H114.778V381.912Z" fill="#FDDF8F"/>
<path d="M114.778 343.721H95.6499V362.817H114.778V343.721Z" fill="#FCBB00"/>
<path d="M114.778 324.626H95.6499V343.722H114.778V324.626Z" fill="#FDDF8F"/>
<path d="M114.778 305.524H95.6499V324.634H114.778V305.524Z" fill="#FCBB00"/>
<path d="M114.778 286.428H95.6499V305.524H114.778V286.428Z" fill="#FCBB00"/>
<path d="M114.778 267.333H95.6499V286.429H114.778V267.333Z" fill="#FCBB00"/>
<path d="M114.778 248.245H95.6499V267.341H114.778V248.245Z" fill="#FCBB00"/>
<path d="M114.778 229.15H95.6499V248.245H114.778V229.15Z" fill="#FCBB00"/>
<path d="M114.778 210.055H95.6499V229.15H114.778V210.055Z" fill="#FCBB00"/>
<path d="M114.778 190.945H95.6499V210.055H114.778V190.945Z" fill="#FCBB00"/>
<path d="M114.778 171.857H95.6499V190.952H114.778V171.857Z" fill="#FCBB00"/>
<path d="M114.778 152.762H95.6499V171.857H114.778V152.762Z" fill="#FCBB00"/>
<path d="M114.778 133.667H95.6499V152.762H114.778V133.667Z" fill="#FCBB00"/>
<path d="M114.778 114.572H95.6499V133.667H114.778V114.572Z" fill="#FCBB00"/>
<path d="M114.778 95.4834H95.6499V114.579H114.778V95.4834Z" fill="#FCBB00"/>
<path d="M114.778 76.3738H95.6499V95.4836H114.778V76.3738Z" fill="#FCBB00"/>
<path d="M114.778 38.1904H95.6499V57.2857H114.778V38.1904Z" fill="#FCBB00"/>
<path d="M95.65 343.721H76.5068V362.817H95.65V343.721Z" fill="#FCBB00"/>
<path d="M95.65 324.626H76.5068V343.722H95.65V324.626Z" fill="#FCBB00"/>
<path d="M95.65 305.524H76.5068V324.634H95.65V305.524Z" fill="#FCBB00"/>
<path d="M95.65 286.428H76.5068V305.524H95.65V286.428Z" fill="#FCBB00"/>
<path d="M95.65 267.333H76.5068V286.429H95.65V267.333Z" fill="#FCBB00"/>
<path d="M95.65 248.245H76.5068V267.341H95.65V248.245Z" fill="#FDDF8F"/>
<path d="M95.65 229.15H76.5068V248.245H95.65V229.15Z" fill="#FCBB00"/>
<path d="M95.65 210.055H76.5068V229.15H95.65V210.055Z" fill="#FCBB00"/>
<path d="M95.65 190.945H76.5068V210.055H95.65V190.945Z" fill="#FCBB00"/>
<path d="M95.65 171.857H76.5068V190.952H95.65V171.857Z" fill="#FCBB00"/>
<path d="M95.65 152.762H76.5068V171.857H95.65V152.762Z" fill="#FCBB00"/>
<path d="M95.65 133.667H76.5068V152.762H95.65V133.667Z" fill="#FCBB00"/>
<path d="M95.65 114.572H76.5068V133.667H95.65V114.572Z" fill="#FCBB00"/>
<path d="M95.65 95.4834H76.5068V114.579H95.65V95.4834Z" fill="#FCBB00"/>
<path d="M95.65 76.3738H76.5068V95.4836H95.65V76.3738Z" fill="#FCBB00"/>
<path d="M76.507 343.721H57.3784V362.817H76.507V343.721Z" fill="#FCBB00"/>
<path d="M76.507 324.626H57.3784V343.722H76.507V324.626Z" fill="#FCBB00"/>
<path d="M76.507 305.524H57.3784V324.634H76.507V305.524Z" fill="#FCBB00"/>
<path d="M76.507 286.428H57.3784V305.524H76.507V286.428Z" fill="#FDDF8F"/>
<path d="M76.507 248.245H57.3784V267.341H76.507V248.245Z" fill="#FCBB00"/>
<path d="M76.507 229.15H57.3784V248.245H76.507V229.15Z" fill="#FCBB00"/>
<path d="M76.507 210.055H57.3784V229.15H76.507V210.055Z" fill="#FCBB00"/>
<path d="M76.507 190.945H57.3784V210.055H76.507V190.945Z" fill="#FCBB00"/>
<path d="M76.507 171.857H57.3784V190.952H76.507V171.857Z" fill="#FCBB00"/>
<path d="M76.507 152.762H57.3784V171.857H76.507V152.762Z" fill="#FDDF8F"/>
<path d="M76.507 133.667H57.3784V152.762H76.507V133.667Z" fill="#FCBB00"/>
<path d="M57.6286 133.667H38.5V152.762H57.6286V133.667Z" fill="#FCBB00"/>
<path d="M76.507 114.572H57.3784V133.667H76.507V114.572Z" fill="#FCBB00"/>
<path d="M76.507 95.4834H57.3784V114.579H76.507V95.4834Z" fill="#FDDF8F"/>
<path d="M57.1286 324.626H38V343.722H57.1286V324.626Z" fill="#FDDF8F"/>
<path d="M57.3854 229.15H38.2568V248.245H57.3854V229.15Z" fill="#FCBB00"/>
<path d="M57.3854 210.055H38.2568V229.15H57.3854V210.055Z" fill="#FCBB00"/>
<path d="M57.3854 190.945H38.2568V210.055H57.3854V190.945Z" fill="#FDDF8F"/>
<path d="M38.257 343H19.1284V362.095H38.257V343Z" fill="#FCBB00"/>
<path d="M19.1286 343H0V362.095H19.1286V343Z" fill="#FCBB00"/>
<path d="M38.257 324.626H19.1284V343.722H38.257V324.626Z" fill="#FCBB00"/>
<path d="M38.257 210.055H19.1284V229.15H38.257V210.055Z" fill="#FDDF8F"/>
<path d="M57.1286 362.095H38V381.19H57.1286V362.095Z" fill="#FCBB00"/>
<path d="M76.1286 362.095H57V381.19H76.1286V362.095Z" fill="#FCBB00"/>
<path d="M57.1286 343H38V362.095H57.1286V343Z" fill="#FDDF8F"/>
</svg>
