<svg fill="none" height="470" viewBox="0 0 597 470" width="597" xmlns="http://www.w3.org/2000/svg"><path d="m433.981 451.925h-18.08v18.075h18.08z" fill="#bfefed"/><path d="m18.0805 307.3h-18.0805v18.087h18.0805z" fill="#bfefed"/><path d="m470.143 72.2998h-18.081v18.075h18.081z" fill="#bfefed"/><path d="m560.558 18.075h-18.08v18.075h18.08z" fill="#bfefed"/><path d="m36.1616 36.1494h-18.0805v18.075h18.0805z" fill="#bfefed"/><path d="m198.897 54.2249h-18.08v18.075h18.08z" fill="#bfefed"/><path d="m596.719 343.462h-18.08v18.075h18.08z" fill="#6ae8e3"/><path d="m596.719 325.387h-18.08v18.075h18.08z" fill="#6ae8e3"/><path d="m596.719 235h-18.08v18.075h18.08z" fill="#bfefed"/><path d="m596.719 216.925h-18.08v18.075h18.08z" fill="#bfefed"/><path d="m578.639 343.462h-18.081v18.075h18.081z" fill="#bfefed"/><path d="m578.639 325.387h-18.081v18.075h18.081z" fill="#6ae8e3"/><path d="m578.639 307.3h-18.081v18.087h18.081z" fill="#6ae8e3"/><path d="m578.639 289.225h-18.081v18.075h18.081z" fill="#6ae8e3"/><path d="m578.639 253.075h-18.081v18.075h18.081z" fill="#bfefed"/><path d="m578.639 235h-18.081v18.075h18.081z" fill="#bfefed"/><path d="m578.639 216.925h-18.081v18.075h18.081z" fill="#6ae8e3"/><path d="m578.639 198.837h-18.081v18.088h18.081z" fill="#6ae8e3"/><path d="m578.639 126.537h-18.081v18.075h18.081z" fill="#6ae8e3"/><path d="m578.639 108.462h-18.081v18.075h18.081z" fill="#bfefed"/><path d="m578.639 90.3748h-18.081v18.0872h18.081z" fill="#6ae8e3"/><path d="m560.558 343.462h-18.08v18.075h18.08z" fill="#6ae8e3"/><path d="m560.558 325.387h-18.08v18.075h18.08z" fill="#6ae8e3"/><path d="m560.558 307.3h-18.08v18.087h18.08z" fill="#6ae8e3"/><path d="m560.558 289.225h-18.08v18.075h18.08z" fill="#6ae8e3"/><path d="m560.558 271.15h-18.08v18.075h18.08z" fill="#6ae8e3"/><path d="m560.558 253.075h-18.08v18.075h18.08z" fill="#bfefed"/><path d="m560.558 235h-18.08v18.075h18.08z" fill="#6ae8e3"/><path d="m560.558 216.925h-18.08v18.075h18.08z" fill="#6ae8e3"/><path d="m560.558 198.837h-18.08v18.088h18.08z" fill="#6ae8e3"/><path d="m560.558 162.688h-18.08v18.075h18.08z" fill="#6ae8e3"/><path d="m560.558 144.612h-18.08v18.075h18.08z" fill="#6ae8e3"/><path d="m560.558 126.537h-18.08v18.075h18.08z" fill="#6ae8e3"/><path d="m560.558 108.462h-18.08v18.075h18.08z" fill="#6ae8e3"/><path d="m560.558 90.3748h-18.08v18.0872h18.08z" fill="#6ae8e3"/><path d="m560.558 72.2998h-18.08v18.075h18.08z" fill="#6ae8e3"/><path d="m560.558-.00024414h-18.08v18.07504414h18.08z" fill="#6ae8e3"/><path d="m542.477 379.612h-18.08v18.075h18.08z" fill="#6ae8e3"/><path d="m542.477 361.537h-18.08v18.075h18.08z" fill="#6ae8e3"/><path d="m542.477 343.462h-18.08v18.075h18.08z" fill="#6ae8e3"/><path d="m542.477 325.387h-18.08v18.075h18.08z" fill="#6ae8e3"/><path d="m542.477 307.3h-18.08v18.087h18.08z" fill="#6ae8e3"/><path d="m542.477 289.225h-18.08v18.075h18.08z" fill="#6ae8e3"/><path d="m542.477 271.15h-18.08v18.075h18.08z" fill="#6ae8e3"/><path d="m542.477 253.075h-18.08v18.075h18.08z" fill="#6ae8e3"/><path d="m542.477 235h-18.08v18.075h18.08z" fill="#6ae8e3"/><path d="m542.477 216.925h-18.08v18.075h18.08z" fill="#6ae8e3"/><path d="m542.477 198.837h-18.08v18.088h18.08z" fill="#6ae8e3"/><path d="m542.477 180.762h-18.08v18.075h18.08z" fill="#6ae8e3"/><path d="m542.477 162.688h-18.08v18.075h18.08z" fill="#6ae8e3"/><path d="m542.477 144.612h-18.08v18.075h18.08z" fill="#6ae8e3"/><path d="m542.477 126.537h-18.08v18.075h18.08z" fill="#bfefed"/><path d="m542.477 108.462h-18.08v18.075h18.08z" fill="#6ae8e3"/><path d="m542.477 90.3748h-18.08v18.0872h18.08z" fill="#6ae8e3"/><path d="m542.477 72.2998h-18.08v18.075h18.08z" fill="#6ae8e3"/><path d="m524.397 379.612h-18.093v18.075h18.093z" fill="#6ae8e3"/><path d="m524.397 361.537h-18.093v18.075h18.093z" fill="#6ae8e3"/><path d="m524.397 343.462h-18.093v18.075h18.093z" fill="#6ae8e3"/><path d="m524.397 325.387h-18.093v18.075h18.093z" fill="#bfefed"/><path d="m524.397 307.3h-18.093v18.087h18.093z" fill="#6ae8e3"/><path d="m524.397 289.225h-18.093v18.075h18.093z" fill="#6ae8e3"/><path d="m524.397 271.15h-18.093v18.075h18.093z" fill="#6ae8e3"/><path d="m524.397 253.075h-18.093v18.075h18.093z" fill="#6ae8e3"/><path d="m524.397 235h-18.093v18.075h18.093z" fill="#6ae8e3"/><path d="m524.397 216.925h-18.093v18.075h18.093z" fill="#6ae8e3"/><path d="m524.397 198.837h-18.093v18.088h18.093z" fill="#6ae8e3"/><path d="m524.397 180.762h-18.093v18.075h18.093z" fill="#6ae8e3"/><path d="m524.397 162.688h-18.093v18.075h18.093z" fill="#6ae8e3"/><path d="m524.397 144.612h-18.093v18.075h18.093z" fill="#6ae8e3"/><path d="m524.397 126.537h-18.093v18.075h18.093z" fill="#6ae8e3"/><path d="m524.397 108.462h-18.093v18.075h18.093z" fill="#6ae8e3"/><path d="m524.397 90.3748h-18.093v18.0872h18.093z" fill="#6ae8e3"/><path d="m524.397 72.2998h-18.093v18.075h18.093z" fill="#bfefed"/><path d="m524.397 54.2249h-18.093v18.075h18.093z" fill="#6ae8e3"/><path d="m506.304 397.687h-18.08v18.087h18.08z" fill="#6ae8e3"/><path d="m506.304 379.612h-18.08v18.075h18.08z" fill="#6ae8e3"/><path d="m506.304 361.537h-18.08v18.075h18.08z" fill="#6ae8e3"/><path d="m506.304 343.462h-18.08v18.075h18.08z" fill="#6ae8e3"/><path d="m506.304 325.387h-18.08v18.075h18.08z" fill="#bfefed"/><path d="m506.304 307.3h-18.08v18.087h18.08z" fill="#6ae8e3"/><path d="m506.304 289.225h-18.08v18.075h18.08z" fill="#6ae8e3"/><path d="m506.304 271.15h-18.08v18.075h18.08z" fill="#6ae8e3"/><path d="m506.304 253.075h-18.08v18.075h18.08z" fill="#6ae8e3"/><path d="m506.304 235h-18.08v18.075h18.08z" fill="#6ae8e3"/><path d="m506.304 216.925h-18.08v18.075h18.08z" fill="#6ae8e3"/><path d="m506.304 198.837h-18.08v18.088h18.08z" fill="#6ae8e3"/><path d="m506.304 180.762h-18.08v18.075h18.08z" fill="#6ae8e3"/><path d="m506.304 162.688h-18.08v18.075h18.08z" fill="#6ae8e3"/><path d="m506.304 144.612h-18.08v18.075h18.08z" fill="#6ae8e3"/><path d="m506.304 126.537h-18.08v18.075h18.08z" fill="#6ae8e3"/><path d="m506.304 108.462h-18.08v18.075h18.08z" fill="#6ae8e3"/><path d="m506.304 90.3748h-18.08v18.0872h18.08z" fill="#6ae8e3"/><path d="m506.304 72.2998h-18.08v18.075h18.08z" fill="#6ae8e3"/><path d="m506.304 54.2249h-18.08v18.075h18.08z" fill="#6ae8e3"/><path d="m488.224 379.612h-18.08v18.075h18.08z" fill="#6ae8e3"/><path d="m488.224 361.537h-18.08v18.075h18.08z" fill="#6ae8e3"/><path d="m488.224 343.462h-18.08v18.075h18.08z" fill="#6ae8e3"/><path d="m488.224 325.387h-18.08v18.075h18.08z" fill="#bfefed"/><path d="m488.224 307.3h-18.08v18.087h18.08z" fill="#6ae8e3"/><path d="m488.224 289.225h-18.08v18.075h18.08z" fill="#6ae8e3"/><path d="m488.224 271.15h-18.08v18.075h18.08z" fill="#6ae8e3"/><path d="m488.224 253.075h-18.08v18.075h18.08z" fill="#6ae8e3"/><path d="m488.224 235h-18.08v18.075h18.08z" fill="#6ae8e3"/><path d="m488.224 216.925h-18.08v18.075h18.08z" fill="#6ae8e3"/><path d="m488.224 198.837h-18.08v18.088h18.08z" fill="#6ae8e3"/><path d="m488.224 180.762h-18.08v18.075h18.08z" fill="#6ae8e3"/><path d="m488.224 162.688h-18.08v18.075h18.08z" fill="#6ae8e3"/><path d="m488.224 144.612h-18.08v18.075h18.08z" fill="#6ae8e3"/><path d="m488.224 126.537h-18.08v18.075h18.08z" fill="#6ae8e3"/><path d="m488.224 108.462h-18.08v18.075h18.08z" fill="#6ae8e3"/><path d="m488.224 90.3748h-18.08v18.0872h18.08z" fill="#6ae8e3"/><path d="m488.224 72.2998h-18.08v18.075h18.08z" fill="#bfefed"/><path d="m470.143 415.775h-18.081v18.075h18.081z" fill="#6ae8e3"/><path d="m470.143 379.612h-18.081v18.075h18.081z" fill="#6ae8e3"/><path d="m470.143 361.537h-18.081v18.075h18.081z" fill="#6ae8e3"/><path d="m470.143 343.462h-18.081v18.075h18.081z" fill="#6ae8e3"/><path d="m470.143 325.387h-18.081v18.075h18.081z" fill="#6ae8e3"/><path d="m470.143 307.3h-18.081v18.087h18.081z" fill="#6ae8e3"/><path d="m470.143 289.225h-18.081v18.075h18.081z" fill="#6ae8e3"/><path d="m470.143 271.15h-18.081v18.075h18.081z" fill="#6ae8e3"/><path d="m470.143 253.075h-18.081v18.075h18.081z" fill="#6ae8e3"/><path d="m470.143 235h-18.081v18.075h18.081z" fill="#6ae8e3"/><path d="m470.143 216.925h-18.081v18.075h18.081z" fill="#6ae8e3"/><path d="m470.143 198.837h-18.081v18.088h18.081z" fill="#6ae8e3"/><path d="m470.143 180.762h-18.081v18.075h18.081z" fill="#6ae8e3"/><path d="m470.143 162.688h-18.081v18.075h18.081z" fill="#6ae8e3"/><path d="m470.143 144.612h-18.081v18.075h18.081z" fill="#6ae8e3"/><path d="m470.143 126.537h-18.081v18.075h18.081z" fill="#6ae8e3"/><path d="m470.143 108.462h-18.081v18.075h18.081z" fill="#6ae8e3"/><path d="m470.143 90.3748h-18.081v18.0872h18.081z" fill="#6ae8e3"/><path d="m452.062 379.612h-18.08v18.075h18.08z" fill="#6ae8e3"/><path d="m452.062 361.537h-18.08v18.075h18.08z" fill="#6ae8e3"/><path d="m452.062 343.462h-18.08v18.075h18.08z" fill="#6ae8e3"/><path d="m452.062 325.387h-18.08v18.075h18.08z" fill="#6ae8e3"/><path d="m452.062 307.3h-18.08v18.087h18.08z" fill="#bfefed"/><path d="m452.062 289.225h-18.08v18.075h18.08z" fill="#bfefed"/><path d="m452.062 271.15h-18.08v18.075h18.08z" fill="#6ae8e3"/><path d="m452.062 253.075h-18.08v18.075h18.08z" fill="#6ae8e3"/><path d="m452.062 235h-18.08v18.075h18.08z" fill="#6ae8e3"/><path d="m452.062 216.925h-18.08v18.075h18.08z" fill="#6ae8e3"/><path d="m452.062 198.837h-18.08v18.088h18.08z" fill="#6ae8e3"/><path d="m452.062 180.762h-18.08v18.075h18.08z" fill="#6ae8e3"/><path d="m452.062 162.688h-18.08v18.075h18.08z" fill="#6ae8e3"/><path d="m452.062 144.612h-18.08v18.075h18.08z" fill="#6ae8e3"/><path d="m452.062 126.537h-18.08v18.075h18.08z" fill="#6ae8e3"/><path d="m452.062 108.462h-18.08v18.075h18.08z" fill="#6ae8e3"/><path d="m452.062 90.3748h-18.08v18.0872h18.08z" fill="#bfefed"/><path d="m452.062 72.2998h-18.08v18.075h18.08z" fill="#bfefed"/><path d="m452.062 54.2249h-18.08v18.075h18.08z" fill="#bfefed"/><path d="m452.062 36.1494h-18.08v18.075h18.08z" fill="#bfefed"/><path d="m433.981 361.537h-18.08v18.075h18.08z" fill="#bfefed"/><path d="m433.981 343.462h-18.08v18.075h18.08z" fill="#6ae8e3"/><path d="m433.981 325.387h-18.08v18.075h18.08z" fill="#6ae8e3"/><path d="m433.981 307.3h-18.08v18.087h18.08z" fill="#6ae8e3"/><path d="m433.981 289.225h-18.08v18.075h18.08z" fill="#6ae8e3"/><path d="m433.981 271.15h-18.08v18.075h18.08z" fill="#6ae8e3"/><path d="m433.981 253.075h-18.08v18.075h18.08z" fill="#6ae8e3"/><path d="m433.981 235h-18.08v18.075h18.08z" fill="#6ae8e3"/><path d="m433.981 216.925h-18.08v18.075h18.08z" fill="#6ae8e3"/><path d="m433.981 198.837h-18.08v18.088h18.08z" fill="#6ae8e3"/><path d="m433.981 180.762h-18.08v18.075h18.08z" fill="#6ae8e3"/><path d="m433.981 162.688h-18.08v18.075h18.08z" fill="#6ae8e3"/><path d="m433.981 144.612h-18.08v18.075h18.08z" fill="#6ae8e3"/><path d="m433.981 126.537h-18.08v18.075h18.08z" fill="#6ae8e3"/><path d="m433.981 108.462h-18.08v18.075h18.08z" fill="#6ae8e3"/><path d="m433.981 90.3748h-18.08v18.0872h18.08z" fill="#6ae8e3"/><path d="m433.981 72.2998h-18.08v18.075h18.08z" fill="#bfefed"/><path d="m433.981 54.2249h-18.08v18.075h18.08z" fill="#6ae8e3"/><path d="m433.981 36.1494h-18.08v18.075h18.08z" fill="#6ae8e3"/><path d="m415.902 361.537h-18.093v18.075h18.093z" fill="#bfefed"/><path d="m415.902 343.462h-18.093v18.075h18.093z" fill="#6ae8e3"/><path d="m415.902 325.387h-18.093v18.075h18.093z" fill="#6ae8e3"/><path d="m415.902 307.3h-18.093v18.087h18.093z" fill="#6ae8e3"/><path d="m415.902 289.225h-18.093v18.075h18.093z" fill="#6ae8e3"/><path d="m415.902 271.15h-18.093v18.075h18.093z" fill="#6ae8e3"/><path d="m415.902 253.075h-18.093v18.075h18.093z" fill="#6ae8e3"/><path d="m415.902 235h-18.093v18.075h18.093z" fill="#6ae8e3"/><path d="m415.902 216.925h-18.093v18.075h18.093z" fill="#6ae8e3"/><path d="m415.902 198.837h-18.093v18.088h18.093z" fill="#6ae8e3"/><path d="m415.902 180.762h-18.093v18.075h18.093z" fill="#6ae8e3"/><path d="m415.902 162.688h-18.093v18.075h18.093z" fill="#6ae8e3"/><path d="m415.902 144.612h-18.093v18.075h18.093z" fill="#6ae8e3"/><path d="m415.902 126.537h-18.093v18.075h18.093z" fill="#6ae8e3"/><path d="m415.902 108.462h-18.093v18.075h18.093z" fill="#6ae8e3"/><path d="m415.902 90.3748h-18.093v18.0872h18.093z" fill="#bfefed"/><path d="m415.902 72.2998h-18.093v18.075h18.093z" fill="#6ae8e3"/><path d="m415.902 54.2249h-18.093v18.075h18.093z" fill="#6ae8e3"/><path d="m415.902 18.075h-18.093v18.075h18.093z" fill="#6ae8e3"/><path d="m397.808 361.537h-18.08v18.075h18.08z" fill="#bfefed"/><path d="m397.808 343.462h-18.08v18.075h18.08z" fill="#6ae8e3"/><path d="m397.808 325.387h-18.08v18.075h18.08z" fill="#6ae8e3"/><path d="m397.808 307.3h-18.08v18.087h18.08z" fill="#6ae8e3"/><path d="m397.808 289.225h-18.08v18.075h18.08z" fill="#6ae8e3"/><path d="m397.808 271.15h-18.08v18.075h18.08z" fill="#6ae8e3"/><path d="m397.808 253.075h-18.08v18.075h18.08z" fill="#6ae8e3"/><path d="m397.808 235h-18.08v18.075h18.08z" fill="#6ae8e3"/><path d="m397.808 216.925h-18.08v18.075h18.08z" fill="#6ae8e3"/><path d="m397.808 198.837h-18.08v18.088h18.08z" fill="#6ae8e3"/><path d="m397.808 180.762h-18.08v18.075h18.08z" fill="#6ae8e3"/><path d="m397.808 162.688h-18.08v18.075h18.08z" fill="#6ae8e3"/><path d="m397.808 144.612h-18.08v18.075h18.08z" fill="#6ae8e3"/><path d="m397.808 126.537h-18.08v18.075h18.08z" fill="#6ae8e3"/><path d="m397.808 108.462h-18.08v18.075h18.08z" fill="#6ae8e3"/><path d="m397.808 90.3748h-18.08v18.0872h18.08z" fill="#6ae8e3"/><path d="m397.808 72.2998h-18.08v18.075h18.08z" fill="#bfefed"/><path d="m397.808 54.2249h-18.08v18.075h18.08z" fill="#6ae8e3"/><path d="m397.808 36.1494h-18.08v18.075h18.08z" fill="#6ae8e3"/><path d="m397.808 18.075h-18.08v18.075h18.08z" fill="#bfefed"/><path d="m379.728 379.612h-18.081v18.075h18.081z" fill="#6ae8e3"/><path d="m379.728 361.537h-18.081v18.075h18.081z" fill="#bfefed"/><path d="m379.728 343.462h-18.081v18.075h18.081z" fill="#6ae8e3"/><path d="m379.728 325.387h-18.081v18.075h18.081z" fill="#6ae8e3"/><path d="m379.728 307.3h-18.081v18.087h18.081z" fill="#6ae8e3"/><path d="m379.728 289.225h-18.081v18.075h18.081z" fill="#6ae8e3"/><path d="m379.728 271.15h-18.081v18.075h18.081z" fill="#6ae8e3"/><path d="m379.728 253.075h-18.081v18.075h18.081z" fill="#6ae8e3"/><path d="m379.728 235h-18.081v18.075h18.081z" fill="#6ae8e3"/><path d="m379.728 216.925h-18.081v18.075h18.081z" fill="#6ae8e3"/><path d="m379.728 198.837h-18.081v18.088h18.081z" fill="#6ae8e3"/><path d="m379.728 180.762h-18.081v18.075h18.081z" fill="#6ae8e3"/><path d="m379.728 162.688h-18.081v18.075h18.081z" fill="#6ae8e3"/><path d="m379.728 144.612h-18.081v18.075h18.081z" fill="#6ae8e3"/><path d="m379.728 126.537h-18.081v18.075h18.081z" fill="#6ae8e3"/><path d="m379.728 108.462h-18.081v18.075h18.081z" fill="#6ae8e3"/><path d="m379.728 90.3748h-18.081v18.0872h18.081z" fill="#6ae8e3"/><path d="m379.728 72.2998h-18.081v18.075h18.081z" fill="#6ae8e3"/><path d="m379.728 54.2249h-18.081v18.075h18.081z" fill="#6ae8e3"/><path d="m379.728 36.1494h-18.081v18.075h18.081z" fill="#6ae8e3"/><path d="m379.728 18.075h-18.081v18.075h18.081z" fill="#6ae8e3"/><path d="m379.728-.00024414h-18.081v18.07504414h18.081z" fill="#6ae8e3"/><path d="m361.647 379.612h-18.08v18.075h18.08z" fill="#6ae8e3"/><path d="m361.647 361.537h-18.08v18.075h18.08z" fill="#6ae8e3"/><path d="m361.647 343.462h-18.08v18.075h18.08z" fill="#6ae8e3"/><path d="m361.647 325.387h-18.08v18.075h18.08z" fill="#6ae8e3"/><path d="m361.647 307.3h-18.08v18.087h18.08z" fill="#6ae8e3"/><path d="m361.647 289.225h-18.08v18.075h18.08z" fill="#6ae8e3"/><path d="m361.647 271.15h-18.08v18.075h18.08z" fill="#6ae8e3"/><path d="m361.647 253.075h-18.08v18.075h18.08z" fill="#6ae8e3"/><path d="m361.647 235h-18.08v18.075h18.08z" fill="#6ae8e3"/><path d="m361.647 216.925h-18.08v18.075h18.08z" fill="#6ae8e3"/><path d="m361.647 198.837h-18.08v18.088h18.08z" fill="#6ae8e3"/><path d="m361.647 180.762h-18.08v18.075h18.08z" fill="#6ae8e3"/><path d="m361.647 162.688h-18.08v18.075h18.08z" fill="#6ae8e3"/><path d="m361.647 144.612h-18.08v18.075h18.08z" fill="#6ae8e3"/><path d="m361.647 126.537h-18.08v18.075h18.08z" fill="#6ae8e3"/><path d="m361.647 108.462h-18.08v18.075h18.08z" fill="#6ae8e3"/><path d="m361.647 90.3748h-18.08v18.0872h18.08z" fill="#6ae8e3"/><path d="m361.647 72.2998h-18.08v18.075h18.08z" fill="#6ae8e3"/><path d="m361.647 54.2249h-18.08v18.075h18.08z" fill="#6ae8e3"/><path d="m361.647 36.1494h-18.08v18.075h18.08z" fill="#6ae8e3"/><path d="m361.647 18.075h-18.08v18.075h18.08z" fill="#6ae8e3"/><path d="m343.567 379.612h-18.08v18.075h18.08z" fill="#6ae8e3"/><path d="m343.567 361.537h-18.08v18.075h18.08z" fill="#6ae8e3"/><path d="m343.567 343.462h-18.08v18.075h18.08z" fill="#6ae8e3"/><path d="m343.567 325.387h-18.08v18.075h18.08z" fill="#6ae8e3"/><path d="m343.567 307.3h-18.08v18.087h18.08z" fill="#6ae8e3"/><path d="m343.567 289.225h-18.08v18.075h18.08z" fill="#6ae8e3"/><path d="m343.567 271.15h-18.08v18.075h18.08z" fill="#6ae8e3"/><path d="m343.567 253.075h-18.08v18.075h18.08z" fill="#6ae8e3"/><path d="m343.567 235h-18.08v18.075h18.08z" fill="#6ae8e3"/><path d="m343.567 216.925h-18.08v18.075h18.08z" fill="#6ae8e3"/><path d="m343.567 198.837h-18.08v18.088h18.08z" fill="#6ae8e3"/><path d="m343.567 180.762h-18.08v18.075h18.08z" fill="#6ae8e3"/><path d="m343.567 162.688h-18.08v18.075h18.08z" fill="#6ae8e3"/><path d="m343.567 144.612h-18.08v18.075h18.08z" fill="#6ae8e3"/><path d="m343.567 126.537h-18.08v18.075h18.08z" fill="#6ae8e3"/><path d="m343.567 108.462h-18.08v18.075h18.08z" fill="#6ae8e3"/><path d="m343.567 90.3748h-18.08v18.0872h18.08z" fill="#6ae8e3"/><path d="m343.567 72.2998h-18.08v18.075h18.08z" fill="#6ae8e3"/><path d="m343.567 54.2249h-18.08v18.075h18.08z" fill="#6ae8e3"/><path d="m343.567 36.1494h-18.08v18.075h18.08z" fill="#6ae8e3"/><path d="m325.486 379.612h-18.093v18.075h18.093z" fill="#bfefed"/><g fill="#6ae8e3"><path d="m325.486 361.537h-18.093v18.075h18.093z"/><path d="m325.486 343.462h-18.093v18.075h18.093z"/><path d="m325.486 325.387h-18.093v18.075h18.093z"/><path d="m325.486 307.3h-18.093v18.087h18.093z"/><path d="m325.486 289.225h-18.093v18.075h18.093z"/><path d="m325.486 271.15h-18.093v18.075h18.093z"/><path d="m325.486 253.075h-18.093v18.075h18.093z"/><path d="m325.486 235h-18.093v18.075h18.093z"/><path d="m325.486 216.925h-18.093v18.075h18.093z"/><path d="m325.486 198.837h-18.093v18.088h18.093z"/><path d="m325.486 180.762h-18.093v18.075h18.093z"/><path d="m325.486 162.688h-18.093v18.075h18.093z"/><path d="m325.486 144.612h-18.093v18.075h18.093z"/><path d="m325.486 126.537h-18.093v18.075h18.093z"/><path d="m325.486 108.462h-18.093v18.075h18.093z"/><path d="m325.486 90.3748h-18.093v18.0872h18.093z"/><path d="m325.486 72.2998h-18.093v18.075h18.093z"/><path d="m325.486 54.2249h-18.093v18.075h18.093z"/><path d="m325.486 36.1494h-18.093v18.075h18.093z"/><path d="m307.394 415.775h-18.081v18.075h18.081z"/><path d="m307.394 397.687h-18.081v18.087h18.081z"/><path d="m307.394 379.612h-18.081v18.075h18.081z"/><path d="m307.394 361.537h-18.081v18.075h18.081z"/><path d="m307.394 343.462h-18.081v18.075h18.081z"/><path d="m307.394 325.387h-18.081v18.075h18.081z"/><path d="m307.394 307.3h-18.081v18.087h18.081z"/><path d="m307.394 289.225h-18.081v18.075h18.081z"/><path d="m307.394 271.15h-18.081v18.075h18.081z"/><path d="m307.394 253.075h-18.081v18.075h18.081z"/><path d="m307.394 235h-18.081v18.075h18.081z"/><path d="m307.394 216.925h-18.081v18.075h18.081z"/><path d="m307.394 198.837h-18.081v18.088h18.081z"/><path d="m307.394 180.762h-18.081v18.075h18.081z"/><path d="m307.394 162.688h-18.081v18.075h18.081z"/><path d="m307.394 144.612h-18.081v18.075h18.081z"/><path d="m307.394 126.537h-18.081v18.075h18.081z"/><path d="m307.394 108.462h-18.081v18.075h18.081z"/><path d="m307.394 90.3748h-18.081v18.0872h18.081z"/><path d="m307.394 72.2998h-18.081v18.075h18.081z"/><path d="m307.394 54.2249h-18.081v18.075h18.081z"/><path d="m289.313 415.775h-18.081v18.075h18.081z"/><path d="m289.313 397.687h-18.081v18.087h18.081z"/><path d="m289.313 379.612h-18.081v18.075h18.081z"/><path d="m289.313 361.537h-18.081v18.075h18.081z"/><path d="m289.313 343.462h-18.081v18.075h18.081z"/><path d="m289.313 325.387h-18.081v18.075h18.081z"/><path d="m289.313 307.3h-18.081v18.087h18.081z"/><path d="m289.313 289.225h-18.081v18.075h18.081z"/><path d="m289.313 271.15h-18.081v18.075h18.081z"/><path d="m289.313 253.075h-18.081v18.075h18.081z"/><path d="m289.313 235h-18.081v18.075h18.081z"/><path d="m289.313 216.925h-18.081v18.075h18.081z"/><path d="m289.313 198.837h-18.081v18.088h18.081z"/><path d="m289.313 180.762h-18.081v18.075h18.081z"/><path d="m289.313 162.688h-18.081v18.075h18.081z"/><path d="m289.313 144.612h-18.081v18.075h18.081z"/><path d="m289.313 126.537h-18.081v18.075h18.081z"/><path d="m289.313 108.462h-18.081v18.075h18.081z"/><path d="m289.313 90.3748h-18.081v18.0872h18.081z"/><path d="m289.313 72.2998h-18.081v18.075h18.081z"/><path d="m289.313 54.2249h-18.081v18.075h18.081z"/><path d="m271.232 397.687h-18.081v18.087h18.081z"/><path d="m271.232 379.612h-18.081v18.075h18.081z"/><path d="m271.232 361.537h-18.081v18.075h18.081z"/><path d="m271.232 343.462h-18.081v18.075h18.081z"/><path d="m271.232 325.387h-18.081v18.075h18.081z"/><path d="m271.232 307.3h-18.081v18.087h18.081z"/><path d="m271.232 289.225h-18.081v18.075h18.081z"/><path d="m271.232 271.15h-18.081v18.075h18.081z"/><path d="m271.232 253.075h-18.081v18.075h18.081z"/><path d="m271.232 235h-18.081v18.075h18.081z"/><path d="m271.232 216.925h-18.081v18.075h18.081z"/><path d="m271.232 198.837h-18.081v18.088h18.081z"/><path d="m271.232 180.762h-18.081v18.075h18.081z"/><path d="m271.232 162.688h-18.081v18.075h18.081z"/><path d="m271.232 144.612h-18.081v18.075h18.081z"/><path d="m271.232 126.537h-18.081v18.075h18.081z"/><path d="m271.232 108.462h-18.081v18.075h18.081z"/><path d="m271.232 90.3748h-18.081v18.0872h18.081z"/><path d="m271.232 72.2998h-18.081v18.075h18.081z"/><path d="m271.232 54.2249h-18.081v18.075h18.081z"/><path d="m253.151 397.687h-18.08v18.087h18.08z"/></g><path d="m253.151 379.612h-18.08v18.075h18.08z" fill="#bfefed"/><path d="m253.151 361.537h-18.08v18.075h18.08z" fill="#6ae8e3"/><path d="m253.151 343.462h-18.08v18.075h18.08z" fill="#6ae8e3"/><path d="m253.151 325.387h-18.08v18.075h18.08z" fill="#6ae8e3"/><path d="m253.151 307.3h-18.08v18.087h18.08z" fill="#6ae8e3"/><path d="m253.151 289.225h-18.08v18.075h18.08z" fill="#6ae8e3"/><path d="m253.151 271.15h-18.08v18.075h18.08z" fill="#6ae8e3"/><path d="m253.151 253.075h-18.08v18.075h18.08z" fill="#6ae8e3"/><path d="m253.151 235h-18.08v18.075h18.08z" fill="#6ae8e3"/><path d="m253.151 216.925h-18.08v18.075h18.08z" fill="#6ae8e3"/><path d="m253.151 198.837h-18.08v18.088h18.08z" fill="#6ae8e3"/><path d="m253.151 180.762h-18.08v18.075h18.08z" fill="#6ae8e3"/><path d="m253.151 162.688h-18.08v18.075h18.08z" fill="#6ae8e3"/><path d="m253.151 144.612h-18.08v18.075h18.08z" fill="#6ae8e3"/><path d="m253.151 126.537h-18.08v18.075h18.08z" fill="#6ae8e3"/><path d="m253.151 108.462h-18.08v18.075h18.08z" fill="#6ae8e3"/><path d="m253.151 90.3748h-18.08v18.0872h18.08z" fill="#6ae8e3"/><path d="m253.151 72.2998h-18.08v18.075h18.08z" fill="#6ae8e3"/><path d="m235.072 397.687h-18.081v18.087h18.081z" fill="#6ae8e3"/><path d="m235.072 379.612h-18.081v18.075h18.081z" fill="#bfefed"/><path d="m235.072 361.537h-18.081v18.075h18.081z" fill="#6ae8e3"/><path d="m235.072 343.462h-18.081v18.075h18.081z" fill="#6ae8e3"/><path d="m235.072 325.387h-18.081v18.075h18.081z" fill="#6ae8e3"/><path d="m235.072 307.3h-18.081v18.087h18.081z" fill="#6ae8e3"/><path d="m235.072 289.225h-18.081v18.075h18.081z" fill="#6ae8e3"/><path d="m235.072 271.15h-18.081v18.075h18.081z" fill="#6ae8e3"/><path d="m235.072 253.075h-18.081v18.075h18.081z" fill="#6ae8e3"/><path d="m235.072 235h-18.081v18.075h18.081z" fill="#6ae8e3"/><path d="m235.072 216.925h-18.081v18.075h18.081z" fill="#6ae8e3"/><path d="m235.072 198.837h-18.081v18.088h18.081z" fill="#6ae8e3"/><path d="m235.072 180.762h-18.081v18.075h18.081z" fill="#6ae8e3"/><path d="m235.072 162.688h-18.081v18.075h18.081z" fill="#6ae8e3"/><path d="m235.072 144.612h-18.081v18.075h18.081z" fill="#6ae8e3"/><path d="m235.072 126.537h-18.081v18.075h18.081z" fill="#6ae8e3"/><path d="m235.072 108.462h-18.081v18.075h18.081z" fill="#6ae8e3"/><path d="m235.072 90.3748h-18.081v18.0872h18.081z" fill="#6ae8e3"/><path d="m235.072 72.2998h-18.081v18.075h18.081z" fill="#6ae8e3"/><path d="m235.072 18.075h-18.081v18.075h18.081z" fill="#6ae8e3"/><path d="m235.072-.00024414h-18.081v18.07504414h18.081z" fill="#bfefed"/><path d="m216.991 379.612h-18.093v18.075h18.093z" fill="#bfefed"/><path d="m216.991 361.537h-18.093v18.075h18.093z" fill="#6ae8e3"/><path d="m216.991 343.462h-18.093v18.075h18.093z" fill="#6ae8e3"/><path d="m216.991 325.387h-18.093v18.075h18.093z" fill="#6ae8e3"/><path d="m216.991 307.3h-18.093v18.087h18.093z" fill="#6ae8e3"/><path d="m216.991 289.225h-18.093v18.075h18.093z" fill="#6ae8e3"/><path d="m216.991 271.15h-18.093v18.075h18.093z" fill="#6ae8e3"/><path d="m216.991 253.075h-18.093v18.075h18.093z" fill="#6ae8e3"/><path d="m216.991 235h-18.093v18.075h18.093z" fill="#6ae8e3"/><path d="m216.991 216.925h-18.093v18.075h18.093z" fill="#6ae8e3"/><path d="m216.991 198.837h-18.093v18.088h18.093z" fill="#6ae8e3"/><path d="m216.991 180.762h-18.093v18.075h18.093z" fill="#6ae8e3"/><path d="m216.991 162.688h-18.093v18.075h18.093z" fill="#6ae8e3"/><path d="m216.991 144.612h-18.093v18.075h18.093z" fill="#6ae8e3"/><path d="m216.991 126.537h-18.093v18.075h18.093z" fill="#6ae8e3"/><path d="m216.991 108.462h-18.093v18.075h18.093z" fill="#6ae8e3"/><path d="m216.991 90.3748h-18.093v18.0872h18.093z" fill="#6ae8e3"/><path d="m216.991 72.2998h-18.093v18.075h18.093z" fill="#6ae8e3"/><path d="m198.897 379.612h-18.08v18.075h18.08z" fill="#6ae8e3"/><path d="m198.897 361.537h-18.08v18.075h18.08z" fill="#6ae8e3"/><path d="m198.897 343.462h-18.08v18.075h18.08z" fill="#6ae8e3"/><path d="m198.897 325.387h-18.08v18.075h18.08z" fill="#6ae8e3"/><path d="m198.897 307.3h-18.08v18.087h18.08z" fill="#6ae8e3"/><path d="m198.897 289.225h-18.08v18.075h18.08z" fill="#6ae8e3"/><path d="m198.897 271.15h-18.08v18.075h18.08z" fill="#6ae8e3"/><path d="m198.897 253.075h-18.08v18.075h18.08z" fill="#6ae8e3"/><path d="m198.897 235h-18.08v18.075h18.08z" fill="#6ae8e3"/><path d="m198.897 216.925h-18.08v18.075h18.08z" fill="#6ae8e3"/><path d="m198.897 198.837h-18.08v18.088h18.08z" fill="#6ae8e3"/><path d="m198.897 180.762h-18.08v18.075h18.08z" fill="#6ae8e3"/><path d="m198.897 162.688h-18.08v18.075h18.08z" fill="#6ae8e3"/><path d="m198.897 144.612h-18.08v18.075h18.08z" fill="#6ae8e3"/><path d="m198.897 126.537h-18.08v18.075h18.08z" fill="#6ae8e3"/><path d="m198.897 108.462h-18.08v18.075h18.08z" fill="#6ae8e3"/><path d="m198.897 90.3748h-18.08v18.0872h18.08z" fill="#6ae8e3"/><path d="m198.897 72.2998h-18.08v18.075h18.08z" fill="#bfefed"/><path d="m198.897 36.1494h-18.08v18.075h18.08z" fill="#bfefed"/><path d="m180.818 379.612h-18.08v18.075h18.08z" fill="#6ae8e3"/><path d="m180.818 361.537h-18.08v18.075h18.08z" fill="#6ae8e3"/><path d="m180.818 343.462h-18.08v18.075h18.08z" fill="#6ae8e3"/><path d="m180.818 325.387h-18.08v18.075h18.08z" fill="#6ae8e3"/><path d="m180.818 307.3h-18.08v18.087h18.08z" fill="#6ae8e3"/><path d="m180.818 289.225h-18.08v18.075h18.08z" fill="#6ae8e3"/><path d="m180.818 271.15h-18.08v18.075h18.08z" fill="#6ae8e3"/><path d="m180.818 253.075h-18.08v18.075h18.08z" fill="#6ae8e3"/><path d="m180.818 235h-18.08v18.075h18.08z" fill="#6ae8e3"/><path d="m180.818 216.925h-18.08v18.075h18.08z" fill="#6ae8e3"/><path d="m180.818 198.837h-18.08v18.088h18.08z" fill="#6ae8e3"/><path d="m180.818 180.762h-18.08v18.075h18.08z" fill="#6ae8e3"/><path d="m180.818 162.688h-18.08v18.075h18.08z" fill="#6ae8e3"/><path d="m180.818 144.612h-18.08v18.075h18.08z" fill="#6ae8e3"/><path d="m180.818 126.537h-18.08v18.075h18.08z" fill="#6ae8e3"/><path d="m180.818 108.462h-18.08v18.075h18.08z" fill="#6ae8e3"/><path d="m180.818 90.3748h-18.08v18.0872h18.08z" fill="#6ae8e3"/><path d="m180.818 72.2998h-18.08v18.075h18.08z" fill="#6ae8e3"/><path d="m180.818 54.2249h-18.08v18.075h18.08z" fill="#6ae8e3"/><path d="m180.818 36.1494h-18.08v18.075h18.08z" fill="#6ae8e3"/><path d="m162.737 379.612h-18.08v18.075h18.08z" fill="#6ae8e3"/><path d="m162.737 361.537h-18.08v18.075h18.08z" fill="#6ae8e3"/><path d="m162.737 343.462h-18.08v18.075h18.08z" fill="#6ae8e3"/><path d="m162.737 325.387h-18.08v18.075h18.08z" fill="#6ae8e3"/><path d="m162.737 307.3h-18.08v18.087h18.08z" fill="#bfefed"/><path d="m162.737 289.225h-18.08v18.075h18.08z" fill="#bfefed"/><path d="m162.737 271.15h-18.08v18.075h18.08z" fill="#6ae8e3"/><path d="m162.737 253.075h-18.08v18.075h18.08z" fill="#6ae8e3"/><path d="m162.737 235h-18.08v18.075h18.08z" fill="#6ae8e3"/><path d="m162.737 216.925h-18.08v18.075h18.08z" fill="#6ae8e3"/><path d="m162.737 198.837h-18.08v18.088h18.08z" fill="#bfefed"/><path d="m162.737 180.762h-18.08v18.075h18.08z" fill="#bfefed"/><path d="m162.737 162.688h-18.08v18.075h18.08z" fill="#bfefed"/><path d="m162.737 144.612h-18.08v18.075h18.08z" fill="#6ae8e3"/><path d="m162.737 126.537h-18.08v18.075h18.08z" fill="#6ae8e3"/><path d="m162.737 108.462h-18.08v18.075h18.08z" fill="#6ae8e3"/><path d="m162.737 90.3748h-18.08v18.0872h18.08z" fill="#6ae8e3"/><path d="m162.737 72.2998h-18.08v18.075h18.08z" fill="#6ae8e3"/><path d="m162.737 54.2249h-18.08v18.075h18.08z" fill="#6ae8e3"/><path d="m162.737 36.1494h-18.08v18.075h18.08z" fill="#6ae8e3"/><path d="m162.737-.00024414h-18.08v18.07504414h18.08z" fill="#bfefed"/><path d="m144.657 379.612h-18.08v18.075h18.08z" fill="#6ae8e3"/><path d="m144.657 361.537h-18.08v18.075h18.08z" fill="#bfefed"/><path d="m144.657 343.462h-18.08v18.075h18.08z" fill="#6ae8e3"/><path d="m144.657 325.387h-18.08v18.075h18.08z" fill="#6ae8e3"/><path d="m144.657 307.3h-18.08v18.087h18.08z" fill="#6ae8e3"/><path d="m144.657 289.225h-18.08v18.075h18.08z" fill="#6ae8e3"/><path d="m144.657 271.15h-18.08v18.075h18.08z" fill="#bfefed"/><path d="m144.657 253.075h-18.08v18.075h18.08z" fill="#6ae8e3"/><path d="m144.657 235h-18.08v18.075h18.08z" fill="#6ae8e3"/><path d="m144.657 216.925h-18.08v18.075h18.08z" fill="#6ae8e3"/><path d="m144.657 198.837h-18.08v18.088h18.08z" fill="#6ae8e3"/><path d="m144.657 180.762h-18.08v18.075h18.08z" fill="#6ae8e3"/><path d="m144.657 162.688h-18.08v18.075h18.08z" fill="#6ae8e3"/><path d="m144.657 144.612h-18.08v18.075h18.08z" fill="#6ae8e3"/><path d="m144.657 126.537h-18.08v18.075h18.08z" fill="#6ae8e3"/><path d="m144.657 108.462h-18.08v18.075h18.08z" fill="#6ae8e3"/><path d="m144.657 90.3748h-18.08v18.0872h18.08z" fill="#6ae8e3"/><path d="m144.657 72.2998h-18.08v18.075h18.08z" fill="#bfefed"/><path d="m144.657 54.2249h-18.08v18.075h18.08z" fill="#6ae8e3"/><path d="m144.657 36.1494h-18.08v18.075h18.08z" fill="#bfefed"/><path d="m126.576 379.612h-18.08v18.075h18.08z" fill="#6ae8e3"/><path d="m126.576 361.537h-18.08v18.075h18.08z" fill="#bfefed"/><path d="m126.576 343.462h-18.08v18.075h18.08z" fill="#bfefed"/><path d="m126.576 325.387h-18.08v18.075h18.08z" fill="#6ae8e3"/><path d="m126.576 307.3h-18.08v18.087h18.08z" fill="#6ae8e3"/><path d="m126.576 289.225h-18.08v18.075h18.08z" fill="#6ae8e3"/><path d="m126.576 271.15h-18.08v18.075h18.08z" fill="#6ae8e3"/><path d="m126.576 253.075h-18.08v18.075h18.08z" fill="#6ae8e3"/><path d="m126.576 235h-18.08v18.075h18.08z" fill="#6ae8e3"/><path d="m126.576 216.925h-18.08v18.075h18.08z" fill="#6ae8e3"/><path d="m126.576 198.837h-18.08v18.088h18.08z" fill="#6ae8e3"/><path d="m126.576 180.762h-18.08v18.075h18.08z" fill="#6ae8e3"/><path d="m126.576 162.688h-18.08v18.075h18.08z" fill="#6ae8e3"/><path d="m126.576 144.612h-18.08v18.075h18.08z" fill="#6ae8e3"/><path d="m126.576 126.537h-18.08v18.075h18.08z" fill="#6ae8e3"/><path d="m126.576 108.462h-18.08v18.075h18.08z" fill="#6ae8e3"/><path d="m126.576 90.3748h-18.08v18.0872h18.08z" fill="#6ae8e3"/><path d="m126.576 72.2998h-18.08v18.075h18.08z" fill="#6ae8e3"/><path d="m126.576 54.2249h-18.08v18.075h18.08z" fill="#6ae8e3"/><path d="m108.495 451.925h-18.0927v18.075h18.0927z" fill="#6ae8e3"/><path d="m108.495 433.85h-18.0927v18.075h18.0927z" fill="#6ae8e3"/><path d="m108.495 361.537h-18.0927v18.075h18.0927z" fill="#6ae8e3"/><path d="m108.495 343.462h-18.0927v18.075h18.0927z" fill="#bfefed"/><path d="m108.495 325.387h-18.0927v18.075h18.0927z" fill="#6ae8e3"/><path d="m108.495 307.3h-18.0927v18.087h18.0927z" fill="#6ae8e3"/><path d="m108.495 289.225h-18.0927v18.075h18.0927z" fill="#6ae8e3"/><path d="m108.495 271.15h-18.0927v18.075h18.0927z" fill="#6ae8e3"/><path d="m108.495 253.075h-18.0927v18.075h18.0927z" fill="#6ae8e3"/><path d="m108.495 235h-18.0927v18.075h18.0927z" fill="#6ae8e3"/><path d="m108.495 216.925h-18.0927v18.075h18.0927z" fill="#6ae8e3"/><path d="m108.495 198.837h-18.0927v18.088h18.0927z" fill="#6ae8e3"/><path d="m108.495 180.762h-18.0927v18.075h18.0927z" fill="#6ae8e3"/><path d="m108.495 162.688h-18.0927v18.075h18.0927z" fill="#6ae8e3"/><path d="m108.495 144.612h-18.0927v18.075h18.0927z" fill="#6ae8e3"/><path d="m108.495 126.537h-18.0927v18.075h18.0927z" fill="#bfefed"/><path d="m108.495 108.462h-18.0927v18.075h18.0927z" fill="#bfefed"/><path d="m108.495 90.3748h-18.0927v18.0872h18.0927z" fill="#6ae8e3"/><path d="m108.495 72.2998h-18.0927v18.075h18.0927z" fill="#6ae8e3"/><path d="m108.495 54.2249h-18.0927v18.075h18.0927z" fill="#6ae8e3"/><path d="m90.4023 343.462h-18.0805v18.075h18.0805z" fill="#6ae8e3"/><path d="m90.4023 325.387h-18.0805v18.075h18.0805z" fill="#6ae8e3"/><path d="m90.4023 307.3h-18.0805v18.087h18.0805z" fill="#6ae8e3"/><path d="m90.4023 289.225h-18.0805v18.075h18.0805z" fill="#6ae8e3"/><path d="m90.4023 253.075h-18.0805v18.075h18.0805z" fill="#6ae8e3"/><path d="m90.4023 235h-18.0805v18.075h18.0805z" fill="#6ae8e3"/><path d="m90.4023 216.925h-18.0805v18.075h18.0805z" fill="#bfefed"/><path d="m90.4023 198.837h-18.0805v18.088h18.0805z" fill="#6ae8e3"/><path d="m90.4023 180.762h-18.0805v18.075h18.0805z" fill="#6ae8e3"/><path d="m90.4023 162.688h-18.0805v18.075h18.0805z" fill="#6ae8e3"/><path d="m90.4023 144.612h-18.0805v18.075h18.0805z" fill="#6ae8e3"/><path d="m90.4023 126.537h-18.0805v18.075h18.0805z" fill="#6ae8e3"/><path d="m90.4023 108.462h-18.0805v18.075h18.0805z" fill="#bfefed"/><path d="m90.4023 90.3748h-18.0805v18.0872h18.0805z" fill="#bfefed"/><path d="m72.3227 325.387h-18.0805v18.075h18.0805z" fill="#6ae8e3"/><path d="m72.3227 235h-18.0805v18.075h18.0805z" fill="#6ae8e3"/><path d="m72.3227 216.925h-18.0805v18.075h18.0805z" fill="#bfefed"/><path d="m72.3227 198.837h-18.0805v18.088h18.0805z" fill="#6ae8e3"/><path d="m72.3227 180.762h-18.0805v18.075h18.0805z" fill="#6ae8e3"/><path d="m72.3227 162.688h-18.0805v18.075h18.0805z" fill="#6ae8e3"/><path d="m72.3227 144.612h-18.0805v18.075h18.0805z" fill="#6ae8e3"/><path d="m72.3227 126.537h-18.0805v18.075h18.0805z" fill="#6ae8e3"/><path d="m72.3227 108.462h-18.0805v18.075h18.0805z" fill="#6ae8e3"/><path d="m72.3227 90.3748h-18.0805v18.0872h18.0805z" fill="#6ae8e3"/><path d="m72.3227 36.1494h-18.0805v18.075h18.0805z" fill="#6ae8e3"/><path d="m54.2416 343.462h-18.0805v18.075h18.0805z" fill="#6ae8e3"/><path d="m54.2416 325.387h-18.0805v18.075h18.0805z" fill="#6ae8e3"/><path d="m54.2416 216.925h-18.0805v18.075h18.0805z" fill="#6ae8e3"/><path d="m54.2416 198.837h-18.0805v18.088h18.0805z" fill="#6ae8e3"/><path d="m54.2416 180.762h-18.0805v18.075h18.0805z" fill="#bfefed"/><path d="m54.2416 162.688h-18.0805v18.075h18.0805z" fill="#bfefed"/><path d="m54.2416 144.612h-18.0805v18.075h18.0805z" fill="#6ae8e3"/><path d="m54.2416 126.537h-18.0805v18.075h18.0805z" fill="#6ae8e3"/><path d="m54.2416 108.462h-18.0805v18.075h18.0805z" fill="#6ae8e3"/><path d="m36.1616 343.462h-18.0805v18.075h18.0805z" fill="#6ae8e3"/><path d="m36.1616 325.387h-18.0805v18.075h18.0805z" fill="#bfefed"/><path d="m36.1616 216.925h-18.0805v18.075h18.0805z" fill="#6ae8e3"/><path d="m36.1616 198.837h-18.0805v18.088h18.0805z" fill="#6ae8e3"/><path d="m36.1616 180.762h-18.0805v18.075h18.0805z" fill="#6ae8e3"/><path d="m36.1616 162.688h-18.0805v18.075h18.0805z" fill="#6ae8e3"/></svg>