<svg width="554" height="377" viewBox="0 0 554 377" fill="none" xmlns="http://www.w3.org/2000/svg">
<path d="M410.971 36.3174H393.108V54.1985H410.971V36.3174Z" fill="#1FBAB4"/>
<path d="M393.114 18.4363H375.238V36.3174H393.114V18.4363Z" fill="#1FBAB4"/>
<path d="M553.874 233.017H536.011V250.898H553.874V233.017Z" fill="#BFEFED"/>
<path d="M500.291 233.017H482.415V250.898H500.291V233.017Z" fill="#1FBAB4"/>
<path d="M482.416 286.653H464.553V304.548H482.416V286.653Z" fill="#1FBAB4"/>
<path d="M482.416 233.017H464.553V250.898H482.416V233.017Z" fill="#1FBAB4"/>
<path d="M482.416 215.136H464.553V233.017H482.416V215.136Z" fill="#1FBAB4"/>
<path d="M482.416 179.36H464.553V197.255H482.416V179.36Z" fill="#1FBAB4"/>
<path d="M464.553 268.772H446.69V286.653H464.553V268.772Z" fill="#1FBAB4"/>
<path d="M464.553 233.017H446.69V250.898H464.553V233.017Z" fill="#1FBAB4"/>
<path d="M464.553 215.136H446.69V233.017H464.553V215.136Z" fill="#1FBAB4"/>
<path d="M464.553 197.254H446.69V215.136H464.553V197.254Z" fill="#1FBAB4"/>
<path d="M464.553 179.36H446.69V197.255H464.553V179.36Z" fill="#1FBAB4"/>
<path d="M464.553 161.485H446.69V179.366H464.553V161.485Z" fill="#1FBAB4"/>
<path d="M464.553 89.9678H446.69V107.849H464.553V89.9678Z" fill="#1FBAB4"/>
<path d="M446.696 286.653H428.833V304.548H446.696V286.653Z" fill="#1FBAB4"/>
<path d="M446.696 268.772H428.833V286.653H446.696V268.772Z" fill="#BFEFED"/>
<path d="M446.696 250.891H428.833V268.772H446.696V250.891Z" fill="#1FBAB4"/>
<path d="M446.696 233.017H428.833V250.898H446.696V233.017Z" fill="#1FBAB4"/>
<path d="M446.696 215.136H428.833V233.017H446.696V215.136Z" fill="#1FBAB4"/>
<path d="M446.696 197.254H428.833V215.136H446.696V197.254Z" fill="#1FBAB4"/>
<path d="M446.696 179.36H428.833V197.255H446.696V179.36Z" fill="#1FBAB4"/>
<path d="M446.696 161.485H428.833V179.366H446.696V161.485Z" fill="#1FBAB4"/>
<path d="M446.696 143.604H428.833V161.486H446.696V143.604Z" fill="#1FBAB4"/>
<path d="M446.696 125.723H428.833V143.604H446.696V125.723Z" fill="#1FBAB4"/>
<path d="M428.834 340.303H410.971V358.184H428.834V340.303Z" fill="#1FBAB4"/>
<path d="M428.834 322.422H410.971V340.304H428.834V322.422Z" fill="#1FBAB4"/>
<path d="M428.834 286.653H410.971V304.548H428.834V286.653Z" fill="#1FBAB4"/>
<path d="M428.834 268.772H410.971V286.653H428.834V268.772Z" fill="#1FBAB4"/>
<path d="M428.834 250.891H410.971V268.772H428.834V250.891Z" fill="#1FBAB4"/>
<path d="M428.834 233.017H410.971V250.898H428.834V233.017Z" fill="#1FBAB4"/>
<path d="M428.834 215.136H410.971V233.017H428.834V215.136Z" fill="#1FBAB4"/>
<path d="M428.834 197.254H410.971V215.136H428.834V197.254Z" fill="#1FBAB4"/>
<path d="M428.834 179.36H410.971V197.255H428.834V179.36Z" fill="#1FBAB4"/>
<path d="M428.834 161.485H410.971V179.366H428.834V161.485Z" fill="#1FBAB4"/>
<path d="M428.834 143.604H410.971V161.486H428.834V143.604Z" fill="#1FBAB4"/>
<path d="M428.834 125.723H410.971V143.604H428.834V125.723Z" fill="#1FBAB4"/>
<path d="M428.834 107.842H410.971V125.723H428.834V107.842Z" fill="#BFEFED"/>
<path d="M428.834 54.1919H410.971V72.073H428.834V54.1919Z" fill="#BFEFED"/>
<path d="M428.834 36.3174H410.971V54.1985H428.834V36.3174Z" fill="#BFEFED"/>
<path d="M410.971 340.303H393.108V358.184H410.971V340.303Z" fill="#1FBAB4"/>
<path d="M410.971 322.422H393.108V340.304H410.971V322.422Z" fill="#1FBAB4"/>
<path d="M410.971 304.542H393.108V322.423H410.971V304.542Z" fill="#1FBAB4"/>
<path d="M410.971 286.653H393.108V304.548H410.971V286.653Z" fill="#1FBAB4"/>
<path d="M410.971 268.772H393.108V286.653H410.971V268.772Z" fill="#1FBAB4"/>
<path d="M410.971 250.891H393.108V268.772H410.971V250.891Z" fill="#1FBAB4"/>
<path d="M410.971 233.017H393.108V250.898H410.971V233.017Z" fill="#1FBAB4"/>
<path d="M410.971 215.136H393.108V233.017H410.971V215.136Z" fill="#1FBAB4"/>
<path d="M410.971 197.254H393.108V215.136H410.971V197.254Z" fill="#1FBAB4"/>
<path d="M410.971 179.36H393.108V197.255H410.971V179.36Z" fill="#1FBAB4"/>
<path d="M410.971 161.485H393.108V179.366H410.971V161.485Z" fill="#1FBAB4"/>
<path d="M410.971 143.604H393.108V161.486H410.971V143.604Z" fill="#1FBAB4"/>
<path d="M410.971 125.723H393.108V143.604H410.971V125.723Z" fill="#1FBAB4"/>
<path d="M410.971 107.842H393.108V125.723H410.971V107.842Z" fill="#1FBAB4"/>
<path d="M410.971 89.9678H393.108V107.849H410.971V89.9678Z" fill="#1FBAB4"/>
<path d="M410.971 72.0728H393.108V89.9675H410.971V72.0728Z" fill="#1FBAB4"/>
<path d="M410.971 54.1919H393.108V72.073H410.971V54.1919Z" fill="#BFEFED"/>
<path d="M410.971 18.4363H393.108V36.3174H410.971V18.4363Z" fill="#BFEFED"/>
<path d="M393.114 340.303H375.238V358.184H393.114V340.303Z" fill="#1FBAB4"/>
<path d="M393.114 322.422H375.238V340.304H393.114V322.422Z" fill="#1FBAB4"/>
<path d="M393.114 304.542H375.238V322.423H393.114V304.542Z" fill="#1FBAB4"/>
<path d="M393.114 286.653H375.238V304.548H393.114V286.653Z" fill="#1FBAB4"/>
<path d="M393.114 268.772H375.238V286.653H393.114V268.772Z" fill="#1FBAB4"/>
<path d="M393.114 250.891H375.238V268.772H393.114V250.891Z" fill="#1FBAB4"/>
<path d="M393.114 233.017H375.238V250.898H393.114V233.017Z" fill="#1FBAB4"/>
<path d="M393.114 215.136H375.238V233.017H393.114V215.136Z" fill="#1FBAB4"/>
<path d="M393.114 197.254H375.238V215.136H393.114V197.254Z" fill="#1FBAB4"/>
<path d="M393.114 179.36H375.238V197.255H393.114V179.36Z" fill="#1FBAB4"/>
<path d="M393.114 161.485H375.238V179.366H393.114V161.485Z" fill="#1FBAB4"/>
<path d="M393.114 143.604H375.238V161.486H393.114V143.604Z" fill="#1FBAB4"/>
<path d="M393.114 125.723H375.238V143.604H393.114V125.723Z" fill="#1FBAB4"/>
<path d="M393.114 107.842H375.238V125.723H393.114V107.842Z" fill="#1FBAB4"/>
<path d="M393.114 89.9678H375.238V107.849H393.114V89.9678Z" fill="#1FBAB4"/>
<path d="M393.114 72.0728H375.238V89.9675H393.114V72.0728Z" fill="#BFEFED"/>
<path d="M393.114 36.3174H375.238V54.1985H393.114V36.3174Z" fill="#1FBAB4"/>
<path d="M393.114 0.555176H375.238V18.4363H393.114V0.555176Z" fill="#BFEFED"/>
<path d="M375.238 340.303H357.375V358.184H375.238V340.303Z" fill="#1FBAB4"/>
<path d="M375.238 322.422H357.375V340.304H375.238V322.422Z" fill="#1FBAB4"/>
<path d="M375.238 304.542H357.375V322.423H375.238V304.542Z" fill="#1FBAB4"/>
<path d="M375.238 286.653H357.375V304.548H375.238V286.653Z" fill="#1FBAB4"/>
<path d="M375.238 268.772H357.375V286.653H375.238V268.772Z" fill="#1FBAB4"/>
<path d="M375.238 250.891H357.375V268.772H375.238V250.891Z" fill="#1FBAB4"/>
<path d="M375.238 233.017H357.375V250.898H375.238V233.017Z" fill="#1FBAB4"/>
<path d="M375.238 215.136H357.375V233.017H375.238V215.136Z" fill="#1FBAB4"/>
<path d="M375.238 197.254H357.375V215.136H375.238V197.254Z" fill="#1FBAB4"/>
<path d="M375.238 179.36H357.375V197.255H375.238V179.36Z" fill="#1FBAB4"/>
<path d="M375.238 161.485H357.375V179.366H375.238V161.485Z" fill="#1FBAB4"/>
<path d="M375.238 143.604H357.375V161.486H375.238V143.604Z" fill="#1FBAB4"/>
<path d="M375.238 125.723H357.375V143.604H375.238V125.723Z" fill="#1FBAB4"/>
<path d="M375.238 107.842H357.375V125.723H375.238V107.842Z" fill="#1FBAB4"/>
<path d="M375.238 89.9678H357.375V107.849H375.238V89.9678Z" fill="#1FBAB4"/>
<path d="M375.238 72.0728H357.375V89.9675H375.238V72.0728Z" fill="#1FBAB4"/>
<path d="M375.238 36.3174H357.375V54.1985H375.238V36.3174Z" fill="#1FBAB4"/>
<path d="M375.238 18.4363H357.375V36.3174H375.238V18.4363Z" fill="#1FBAB4"/>
<path d="M357.376 358.185H339.513V376.066H357.376V358.185Z" fill="#1FBAB4"/>
<path d="M357.376 340.303H339.513V358.184H357.376V340.303Z" fill="#1FBAB4"/>
<path d="M357.376 322.422H339.513V340.304H357.376V322.422Z" fill="#1FBAB4"/>
<path d="M357.376 304.542H339.513V322.423H357.376V304.542Z" fill="#1FBAB4"/>
<path d="M357.376 286.653H339.513V304.548H357.376V286.653Z" fill="#1FBAB4"/>
<path d="M357.376 268.772H339.513V286.653H357.376V268.772Z" fill="#1FBAB4"/>
<path d="M357.376 250.891H339.513V268.772H357.376V250.891Z" fill="#1FBAB4"/>
<path d="M357.376 233.017H339.513V250.898H357.376V233.017Z" fill="#1FBAB4"/>
<path d="M357.376 215.136H339.513V233.017H357.376V215.136Z" fill="#1FBAB4"/>
<path d="M357.376 197.254H339.513V215.136H357.376V197.254Z" fill="#1FBAB4"/>
<path d="M357.376 179.36H339.513V197.255H357.376V179.36Z" fill="#1FBAB4"/>
<path d="M357.376 161.485H339.513V179.366H357.376V161.485Z" fill="#1FBAB4"/>
<path d="M357.376 143.604H339.513V161.486H357.376V143.604Z" fill="#1FBAB4"/>
<path d="M357.376 125.723H339.513V143.604H357.376V125.723Z" fill="#1FBAB4"/>
<path d="M357.376 107.842H339.513V125.723H357.376V107.842Z" fill="#1FBAB4"/>
<path d="M357.376 89.9678H339.513V107.849H357.376V89.9678Z" fill="#BFEFED"/>
<path d="M357.376 54.1919H339.513V72.073H357.376V54.1919Z" fill="#1FBAB4"/>
<path d="M339.512 358.185H321.649V376.066H339.512V358.185Z" fill="#1FBAB4"/>
<path d="M339.512 340.303H321.649V358.184H339.512V340.303Z" fill="#1FBAB4"/>
<path d="M339.512 322.422H321.649V340.304H339.512V322.422Z" fill="#1FBAB4"/>
<path d="M339.512 304.542H321.649V322.423H339.512V304.542Z" fill="#1FBAB4"/>
<path d="M339.512 286.653H321.649V304.548H339.512V286.653Z" fill="#1FBAB4"/>
<path d="M339.512 268.772H321.649V286.653H339.512V268.772Z" fill="#1FBAB4"/>
<path d="M339.512 250.891H321.649V268.772H339.512V250.891Z" fill="#1FBAB4"/>
<path d="M339.512 233.017H321.649V250.898H339.512V233.017Z" fill="#1FBAB4"/>
<path d="M339.512 215.136H321.649V233.017H339.512V215.136Z" fill="#1FBAB4"/>
<path d="M339.512 197.254H321.649V215.136H339.512V197.254Z" fill="#1FBAB4"/>
<path d="M339.512 179.36H321.649V197.255H339.512V179.36Z" fill="#1FBAB4"/>
<path d="M339.512 161.485H321.649V179.366H339.512V161.485Z" fill="#1FBAB4"/>
<path d="M339.512 143.604H321.649V161.486H339.512V143.604Z" fill="#1FBAB4"/>
<path d="M339.512 125.723H321.649V143.604H339.512V125.723Z" fill="#1FBAB4"/>
<path d="M339.512 107.842H321.649V125.723H339.512V107.842Z" fill="#1FBAB4"/>
<path d="M339.512 89.9678H321.649V107.849H339.512V89.9678Z" fill="#1FBAB4"/>
<path d="M321.649 358.185H303.787V376.066H321.649V358.185Z" fill="#1FBAB4"/>
<path d="M321.649 340.303H303.787V358.184H321.649V340.303Z" fill="#1FBAB4"/>
<path d="M321.649 322.422H303.787V340.304H321.649V322.422Z" fill="#1FBAB4"/>
<path d="M321.649 304.542H303.787V322.423H321.649V304.542Z" fill="#1FBAB4"/>
<path d="M321.649 286.653H303.787V304.548H321.649V286.653Z" fill="#1FBAB4"/>
<path d="M321.649 268.772H303.787V286.653H321.649V268.772Z" fill="#1FBAB4"/>
<path d="M321.649 250.891H303.787V268.772H321.649V250.891Z" fill="#1FBAB4"/>
<path d="M321.649 233.017H303.787V250.898H321.649V233.017Z" fill="#1FBAB4"/>
<path d="M321.649 215.136H303.787V233.017H321.649V215.136Z" fill="#1FBAB4"/>
<path d="M321.649 197.254H303.787V215.136H321.649V197.254Z" fill="#1FBAB4"/>
<path d="M321.649 179.36H303.787V197.255H321.649V179.36Z" fill="#1FBAB4"/>
<path d="M321.649 161.485H303.787V179.366H321.649V161.485Z" fill="#1FBAB4"/>
<path d="M321.649 143.604H303.787V161.486H321.649V143.604Z" fill="#1FBAB4"/>
<path d="M321.649 125.723H303.787V143.604H321.649V125.723Z" fill="#1FBAB4"/>
<path d="M321.649 107.842H303.787V125.723H321.649V107.842Z" fill="#1FBAB4"/>
<path d="M321.649 89.9678H303.787V107.849H321.649V89.9678Z" fill="#1FBAB4"/>
<path d="M321.649 72.0728H303.787V89.9675H321.649V72.0728Z" fill="#1FBAB4"/>
<path d="M321.649 54.1919H303.787V72.073H321.649V54.1919Z" fill="#1FBAB4"/>
<path d="M321.649 36.3174H303.787V54.1985H321.649V36.3174Z" fill="#BFEFED"/>
<path d="M303.793 358.185H285.917V376.066H303.793V358.185Z" fill="#1FBAB4"/>
<path d="M303.793 340.303H285.917V358.184H303.793V340.303Z" fill="#1FBAB4"/>
<path d="M303.793 322.422H285.917V340.304H303.793V322.422Z" fill="#1FBAB4"/>
<path d="M303.793 304.542H285.917V322.423H303.793V304.542Z" fill="#1FBAB4"/>
<path d="M303.793 286.653H285.917V304.548H303.793V286.653Z" fill="#1FBAB4"/>
<path d="M303.793 268.772H285.917V286.653H303.793V268.772Z" fill="#1FBAB4"/>
<path d="M303.793 250.891H285.917V268.772H303.793V250.891Z" fill="#1FBAB4"/>
<path d="M303.793 233.017H285.917V250.898H303.793V233.017Z" fill="#1FBAB4"/>
<path d="M303.793 215.136H285.917V233.017H303.793V215.136Z" fill="#1FBAB4"/>
<path d="M303.793 197.254H285.917V215.136H303.793V197.254Z" fill="#1FBAB4"/>
<path d="M303.793 179.36H285.917V197.255H303.793V179.36Z" fill="#1FBAB4"/>
<path d="M303.793 161.485H285.917V179.366H303.793V161.485Z" fill="#1FBAB4"/>
<path d="M303.793 143.604H285.917V161.486H303.793V143.604Z" fill="#1FBAB4"/>
<path d="M303.793 125.723H285.917V143.604H303.793V125.723Z" fill="#1FBAB4"/>
<path d="M303.793 107.842H285.917V125.723H303.793V107.842Z" fill="#1FBAB4"/>
<path d="M303.793 89.9678H285.917V107.849H303.793V89.9678Z" fill="#1FBAB4"/>
<path d="M303.793 72.0728H285.917V89.9675H303.793V72.0728Z" fill="#BFEFED"/>
<path d="M285.917 358.185H268.054V376.066H285.917V358.185Z" fill="#1FBAB4"/>
<path d="M285.917 340.303H268.054V358.184H285.917V340.303Z" fill="#1FBAB4"/>
<path d="M285.917 322.422H268.054V340.304H285.917V322.422Z" fill="#1FBAB4"/>
<path d="M285.917 304.542H268.054V322.423H285.917V304.542Z" fill="#1FBAB4"/>
<path d="M285.917 286.653H268.054V304.548H285.917V286.653Z" fill="#1FBAB4"/>
<path d="M285.917 268.772H268.054V286.653H285.917V268.772Z" fill="#1FBAB4"/>
<path d="M285.917 250.891H268.054V268.772H285.917V250.891Z" fill="#1FBAB4"/>
<path d="M285.917 233.017H268.054V250.898H285.917V233.017Z" fill="#1FBAB4"/>
<path d="M285.917 215.136H268.054V233.017H285.917V215.136Z" fill="#1FBAB4"/>
<path d="M285.917 197.254H268.054V215.136H285.917V197.254Z" fill="#1FBAB4"/>
<path d="M285.917 179.36H268.054V197.255H285.917V179.36Z" fill="#1FBAB4"/>
<path d="M285.917 161.485H268.054V179.366H285.917V161.485Z" fill="#1FBAB4"/>
<path d="M285.917 143.604H268.054V161.486H285.917V143.604Z" fill="#1FBAB4"/>
<path d="M285.917 125.723H268.054V143.604H285.917V125.723Z" fill="#1FBAB4"/>
<path d="M285.917 107.842H268.054V125.723H285.917V107.842Z" fill="#1FBAB4"/>
<path d="M285.917 89.9678H268.054V107.849H285.917V89.9678Z" fill="#1FBAB4"/>
<path d="M268.054 358.185H250.191V376.066H268.054V358.185Z" fill="#1FBAB4"/>
<path d="M268.054 340.303H250.191V358.184H268.054V340.303Z" fill="#1FBAB4"/>
<path d="M268.054 322.422H250.191V340.304H268.054V322.422Z" fill="#1FBAB4"/>
<path d="M268.054 304.542H250.191V322.423H268.054V304.542Z" fill="#1FBAB4"/>
<path d="M268.054 286.653H250.191V304.548H268.054V286.653Z" fill="#1FBAB4"/>
<path d="M268.054 268.772H250.191V286.653H268.054V268.772Z" fill="#1FBAB4"/>
<path d="M268.054 250.891H250.191V268.772H268.054V250.891Z" fill="#1FBAB4"/>
<path d="M268.054 233.017H250.191V250.898H268.054V233.017Z" fill="#1FBAB4"/>
<path d="M268.054 215.136H250.191V233.017H268.054V215.136Z" fill="#1FBAB4"/>
<path d="M268.054 197.254H250.191V215.136H268.054V197.254Z" fill="#1FBAB4"/>
<path d="M268.054 179.36H250.191V197.255H268.054V179.36Z" fill="#1FBAB4"/>
<path d="M268.054 161.485H250.191V179.366H268.054V161.485Z" fill="#1FBAB4"/>
<path d="M268.054 143.604H250.191V161.486H268.054V143.604Z" fill="#1FBAB4"/>
<path d="M268.054 125.723H250.191V143.604H268.054V125.723Z" fill="#1FBAB4"/>
<path d="M268.054 107.842H250.191V125.723H268.054V107.842Z" fill="#1FBAB4"/>
<path d="M250.198 358.185H232.335V376.066H250.198V358.185Z" fill="#1FBAB4"/>
<path d="M250.198 340.303H232.335V358.184H250.198V340.303Z" fill="#1FBAB4"/>
<path d="M250.198 322.422H232.335V340.304H250.198V322.422Z" fill="#1FBAB4"/>
<path d="M250.198 304.542H232.335V322.423H250.198V304.542Z" fill="#1FBAB4"/>
<path d="M250.198 286.653H232.335V304.548H250.198V286.653Z" fill="#1FBAB4"/>
<path d="M250.198 268.772H232.335V286.653H250.198V268.772Z" fill="#1FBAB4"/>
<path d="M250.198 250.891H232.335V268.772H250.198V250.891Z" fill="#1FBAB4"/>
<path d="M250.198 233.017H232.335V250.898H250.198V233.017Z" fill="#1FBAB4"/>
<path d="M250.198 215.136H232.335V233.017H250.198V215.136Z" fill="#1FBAB4"/>
<path d="M250.198 197.254H232.335V215.136H250.198V197.254Z" fill="#1FBAB4"/>
<path d="M250.198 179.36H232.335V197.255H250.198V179.36Z" fill="#1FBAB4"/>
<path d="M250.198 161.485H232.335V179.366H250.198V161.485Z" fill="#1FBAB4"/>
<path d="M250.198 143.604H232.335V161.486H250.198V143.604Z" fill="#1FBAB4"/>
<path d="M250.198 125.723H232.335V143.604H250.198V125.723Z" fill="#1FBAB4"/>
<path d="M250.198 107.842H232.335V125.723H250.198V107.842Z" fill="#1FBAB4"/>
<path d="M250.198 89.9678H232.335V107.849H250.198V89.9678Z" fill="#1FBAB4"/>
<path d="M232.335 358.185H214.472V376.066H232.335V358.185Z" fill="#1FBAB4"/>
<path d="M232.335 340.303H214.472V358.184H232.335V340.303Z" fill="#1FBAB4"/>
<path d="M232.335 322.422H214.472V340.304H232.335V322.422Z" fill="#1FBAB4"/>
<path d="M232.335 304.542H214.472V322.423H232.335V304.542Z" fill="#1FBAB4"/>
<path d="M232.335 286.653H214.472V304.548H232.335V286.653Z" fill="#1FBAB4"/>
<path d="M232.335 268.772H214.472V286.653H232.335V268.772Z" fill="#1FBAB4"/>
<path d="M232.335 250.891H214.472V268.772H232.335V250.891Z" fill="#1FBAB4"/>
<path d="M232.335 233.017H214.472V250.898H232.335V233.017Z" fill="#1FBAB4"/>
<path d="M232.335 215.136H214.472V233.017H232.335V215.136Z" fill="#1FBAB4"/>
<path d="M232.335 197.254H214.472V215.136H232.335V197.254Z" fill="#1FBAB4"/>
<path d="M232.335 179.36H214.472V197.255H232.335V179.36Z" fill="#1FBAB4"/>
<path d="M232.335 161.485H214.472V179.366H232.335V161.485Z" fill="#1FBAB4"/>
<path d="M232.335 143.604H214.472V161.486H232.335V143.604Z" fill="#1FBAB4"/>
<path d="M232.335 125.723H214.472V143.604H232.335V125.723Z" fill="#1FBAB4"/>
<path d="M232.335 107.842H214.472V125.723H232.335V107.842Z" fill="#1FBAB4"/>
<path d="M232.335 89.9678H214.472V107.849H232.335V89.9678Z" fill="#1FBAB4"/>
<path d="M232.335 72.0728H214.472V89.9675H232.335V72.0728Z" fill="#BFEFED"/>
<path d="M214.472 358.185H196.609V376.066H214.472V358.185Z" fill="#1FBAB4"/>
<path d="M214.472 340.303H196.609V358.184H214.472V340.303Z" fill="#1FBAB4"/>
<path d="M214.472 322.422H196.609V340.304H214.472V322.422Z" fill="#1FBAB4"/>
<path d="M214.472 304.542H196.609V322.423H214.472V304.542Z" fill="#1FBAB4"/>
<path d="M214.472 286.653H196.609V304.548H214.472V286.653Z" fill="#1FBAB4"/>
<path d="M214.472 268.772H196.609V286.653H214.472V268.772Z" fill="#1FBAB4"/>
<path d="M214.472 250.891H196.609V268.772H214.472V250.891Z" fill="#1FBAB4"/>
<path d="M214.472 233.017H196.609V250.898H214.472V233.017Z" fill="#1FBAB4"/>
<path d="M214.472 215.136H196.609V233.017H214.472V215.136Z" fill="#1FBAB4"/>
<path d="M214.472 197.254H196.609V215.136H214.472V197.254Z" fill="#1FBAB4"/>
<path d="M214.472 179.36H196.609V197.255H214.472V179.36Z" fill="#1FBAB4"/>
<path d="M214.472 161.485H196.609V179.366H214.472V161.485Z" fill="#1FBAB4"/>
<path d="M214.472 143.604H196.609V161.486H214.472V143.604Z" fill="#1FBAB4"/>
<path d="M214.472 125.723H196.609V143.604H214.472V125.723Z" fill="#1FBAB4"/>
<path d="M214.472 107.842H196.609V125.723H214.472V107.842Z" fill="#1FBAB4"/>
<path d="M214.472 89.9678H196.609V107.849H214.472V89.9678Z" fill="#1FBAB4"/>
<path d="M196.609 358.185H178.733V376.066H196.609V358.185Z" fill="#1FBAB4"/>
<path d="M196.609 340.303H178.733V358.184H196.609V340.303Z" fill="#1FBAB4"/>
<path d="M196.609 322.422H178.733V340.304H196.609V322.422Z" fill="#1FBAB4"/>
<path d="M196.609 304.542H178.733V322.423H196.609V304.542Z" fill="#1FBAB4"/>
<path d="M196.609 286.653H178.733V304.548H196.609V286.653Z" fill="#1FBAB4"/>
<path d="M196.609 268.772H178.733V286.653H196.609V268.772Z" fill="#1FBAB4"/>
<path d="M196.609 250.891H178.733V268.772H196.609V250.891Z" fill="#1FBAB4"/>
<path d="M196.609 233.017H178.733V250.898H196.609V233.017Z" fill="#1FBAB4"/>
<path d="M196.609 215.136H178.733V233.017H196.609V215.136Z" fill="#1FBAB4"/>
<path d="M196.609 197.254H178.733V215.136H196.609V197.254Z" fill="#1FBAB4"/>
<path d="M196.609 179.36H178.733V197.255H196.609V179.36Z" fill="#1FBAB4"/>
<path d="M196.609 161.485H178.733V179.366H196.609V161.485Z" fill="#1FBAB4"/>
<path d="M196.609 143.604H178.733V161.486H196.609V143.604Z" fill="#1FBAB4"/>
<path d="M196.609 125.723H178.733V143.604H196.609V125.723Z" fill="#1FBAB4"/>
<path d="M178.739 358.185H160.876V376.066H178.739V358.185Z" fill="#1FBAB4"/>
<path d="M178.739 340.303H160.876V358.184H178.739V340.303Z" fill="#1FBAB4"/>
<path d="M178.739 322.422H160.876V340.304H178.739V322.422Z" fill="#1FBAB4"/>
<path d="M178.739 304.542H160.876V322.423H178.739V304.542Z" fill="#1FBAB4"/>
<path d="M178.739 286.653H160.876V304.548H178.739V286.653Z" fill="#1FBAB4"/>
<path d="M178.739 268.772H160.876V286.653H178.739V268.772Z" fill="#1FBAB4"/>
<path d="M178.739 250.891H160.876V268.772H178.739V250.891Z" fill="#1FBAB4"/>
<path d="M178.739 233.017H160.876V250.898H178.739V233.017Z" fill="#1FBAB4"/>
<path d="M178.739 215.136H160.876V233.017H178.739V215.136Z" fill="#1FBAB4"/>
<path d="M178.739 197.254H160.876V215.136H178.739V197.254Z" fill="#1FBAB4"/>
<path d="M178.739 179.36H160.876V197.255H178.739V179.36Z" fill="#1FBAB4"/>
<path d="M178.739 161.485H160.876V179.366H178.739V161.485Z" fill="#1FBAB4"/>
<path d="M178.739 143.604H160.876V161.486H178.739V143.604Z" fill="#1FBAB4"/>
<path d="M178.739 125.723H160.876V143.604H178.739V125.723Z" fill="#BFEFED"/>
<path d="M178.739 107.842H160.876V125.723H178.739V107.842Z" fill="#1FBAB4"/>
<path d="M178.739 89.9678H160.876V107.849H178.739V89.9678Z" fill="#BFEFED"/>
<path d="M178.739 18.4363H160.876V36.3174H178.739V18.4363Z" fill="#1FBAB4"/>
<path d="M160.877 358.185H143.014V376.066H160.877V358.185Z" fill="#1FBAB4"/>
<path d="M160.877 340.303H143.014V358.184H160.877V340.303Z" fill="#1FBAB4"/>
<path d="M160.877 322.422H143.014V340.304H160.877V322.422Z" fill="#1FBAB4"/>
<path d="M160.877 304.542H143.014V322.423H160.877V304.542Z" fill="#1FBAB4"/>
<path d="M160.877 286.653H143.014V304.548H160.877V286.653Z" fill="#1FBAB4"/>
<path d="M160.877 268.772H143.014V286.653H160.877V268.772Z" fill="#1FBAB4"/>
<path d="M160.877 250.891H143.014V268.772H160.877V250.891Z" fill="#1FBAB4"/>
<path d="M160.877 233.017H143.014V250.898H160.877V233.017Z" fill="#1FBAB4"/>
<path d="M160.877 215.136H143.014V233.017H160.877V215.136Z" fill="#1FBAB4"/>
<path d="M160.877 197.254H143.014V215.136H160.877V197.254Z" fill="#1FBAB4"/>
<path d="M160.877 179.36H143.014V197.255H160.877V179.36Z" fill="#1FBAB4"/>
<path d="M160.877 161.485H143.014V179.366H160.877V161.485Z" fill="#1FBAB4"/>
<path d="M160.877 143.604H143.014V161.486H160.877V143.604Z" fill="#1FBAB4"/>
<path d="M160.877 125.723H143.014V143.604H160.877V125.723Z" fill="#1FBAB4"/>
<path d="M160.877 107.842H143.014V125.723H160.877V107.842Z" fill="#1FBAB4"/>
<path d="M160.877 89.9678H143.014V107.849H160.877V89.9678Z" fill="#BFEFED"/>
<path d="M160.877 72.0728H143.014V89.9675H160.877V72.0728Z" fill="#1FBAB4"/>
<path d="M143.014 358.185H125.151V376.066H143.014V358.185Z" fill="#1FBAB4"/>
<path d="M143.014 340.303H125.151V358.184H143.014V340.303Z" fill="#1FBAB4"/>
<path d="M143.014 322.422H125.151V340.304H143.014V322.422Z" fill="#1FBAB4"/>
<path d="M143.014 304.542H125.151V322.423H143.014V304.542Z" fill="#1FBAB4"/>
<path d="M143.014 286.653H125.151V304.548H143.014V286.653Z" fill="#1FBAB4"/>
<path d="M143.014 268.772H125.151V286.653H143.014V268.772Z" fill="#1FBAB4"/>
<path d="M143.014 250.891H125.151V268.772H143.014V250.891Z" fill="#1FBAB4"/>
<path d="M143.014 233.017H125.151V250.898H143.014V233.017Z" fill="#1FBAB4"/>
<path d="M143.014 215.136H125.151V233.017H143.014V215.136Z" fill="#1FBAB4"/>
<path d="M143.014 197.254H125.151V215.136H143.014V197.254Z" fill="#1FBAB4"/>
<path d="M143.014 179.36H125.151V197.255H143.014V179.36Z" fill="#1FBAB4"/>
<path d="M143.014 161.485H125.151V179.366H143.014V161.485Z" fill="#1FBAB4"/>
<path d="M143.014 143.604H125.151V161.486H143.014V143.604Z" fill="#1FBAB4"/>
<path d="M143.014 125.723H125.151V143.604H143.014V125.723Z" fill="#1FBAB4"/>
<path d="M143.014 107.842H125.151V125.723H143.014V107.842Z" fill="#1FBAB4"/>
<path d="M143.014 89.9678H125.151V107.849H143.014V89.9678Z" fill="#1FBAB4"/>
<path d="M143.014 72.0728H125.151V89.9675H143.014V72.0728Z" fill="#1FBAB4"/>
<path d="M143.014 54.1919H125.151V72.073H143.014V54.1919Z" fill="#BFEFED"/>
<path d="M143.014 18.4363H125.151V36.3174H143.014V18.4363Z" fill="#1FBAB4"/>
<path d="M125.151 358.185H107.288V376.066H125.151V358.185Z" fill="#BFEFED"/>
<path d="M125.151 340.303H107.288V358.184H125.151V340.303Z" fill="#1FBAB4"/>
<path d="M125.151 322.422H107.288V340.304H125.151V322.422Z" fill="#1FBAB4"/>
<path d="M125.151 304.542H107.288V322.423H125.151V304.542Z" fill="#1FBAB4"/>
<path d="M125.151 286.653H107.288V304.548H125.151V286.653Z" fill="#1FBAB4"/>
<path d="M125.151 268.772H107.288V286.653H125.151V268.772Z" fill="#1FBAB4"/>
<path d="M125.151 250.891H107.288V268.772H125.151V250.891Z" fill="#1FBAB4"/>
<path d="M125.151 233.017H107.288V250.898H125.151V233.017Z" fill="#1FBAB4"/>
<path d="M125.151 215.136H107.288V233.017H125.151V215.136Z" fill="#1FBAB4"/>
<path d="M125.151 197.254H107.288V215.136H125.151V197.254Z" fill="#1FBAB4"/>
<path d="M125.151 179.36H107.288V197.255H125.151V179.36Z" fill="#1FBAB4"/>
<path d="M125.151 161.485H107.288V179.366H125.151V161.485Z" fill="#1FBAB4"/>
<path d="M125.151 143.604H107.288V161.486H125.151V143.604Z" fill="#1FBAB4"/>
<path d="M125.151 125.723H107.288V143.604H125.151V125.723Z" fill="#BFEFED"/>
<path d="M125.151 107.842H107.288V125.723H125.151V107.842Z" fill="#1FBAB4"/>
<path d="M125.151 89.9678H107.288V107.849H125.151V89.9678Z" fill="#BFEFED"/>
<path d="M125.151 36.3174H107.288V54.1985H125.151V36.3174Z" fill="#1FBAB4"/>
<path d="M125.151 18.4363H107.288V36.3174H125.151V18.4363Z" fill="#BFEFED"/>
<path d="M107.295 358.185H89.4321V376.066H107.295V358.185Z" fill="#BFEFED"/>
<path d="M107.295 322.422H89.4321V340.304H107.295V322.422Z" fill="#1FBAB4"/>
<path d="M107.295 304.542H89.4321V322.423H107.295V304.542Z" fill="#BFEFED"/>
<path d="M107.295 286.653H89.4321V304.548H107.295V286.653Z" fill="#1FBAB4"/>
<path d="M107.295 268.772H89.4321V286.653H107.295V268.772Z" fill="#1FBAB4"/>
<path d="M107.295 250.891H89.4321V268.772H107.295V250.891Z" fill="#1FBAB4"/>
<path d="M107.295 233.017H89.4321V250.898H107.295V233.017Z" fill="#1FBAB4"/>
<path d="M107.295 215.136H89.4321V233.017H107.295V215.136Z" fill="#1FBAB4"/>
<path d="M107.295 197.254H89.4321V215.136H107.295V197.254Z" fill="#1FBAB4"/>
<path d="M107.295 179.36H89.4321V197.255H107.295V179.36Z" fill="#1FBAB4"/>
<path d="M107.295 161.485H89.4321V179.366H107.295V161.485Z" fill="#1FBAB4"/>
<path d="M107.295 143.604H89.4321V161.486H107.295V143.604Z" fill="#1FBAB4"/>
<path d="M107.295 125.723H89.4321V143.604H107.295V125.723Z" fill="#1FBAB4"/>
<path d="M107.295 107.842H89.4321V125.723H107.295V107.842Z" fill="#1FBAB4"/>
<path d="M107.295 89.9678H89.4321V107.849H107.295V89.9678Z" fill="#1FBAB4"/>
<path d="M107.295 72.0728H89.4321V89.9675H107.295V72.0728Z" fill="#1FBAB4"/>
<path d="M107.295 36.3174H89.4321V54.1985H107.295V36.3174Z" fill="#1FBAB4"/>
<path d="M89.4322 322.422H71.5557V340.304H89.4322V322.422Z" fill="#1FBAB4"/>
<path d="M89.4322 304.542H71.5557V322.423H89.4322V304.542Z" fill="#1FBAB4"/>
<path d="M89.4322 286.653H71.5557V304.548H89.4322V286.653Z" fill="#1FBAB4"/>
<path d="M89.4322 268.772H71.5557V286.653H89.4322V268.772Z" fill="#1FBAB4"/>
<path d="M89.4322 250.891H71.5557V268.772H89.4322V250.891Z" fill="#1FBAB4"/>
<path d="M89.4322 233.017H71.5557V250.898H89.4322V233.017Z" fill="#BFEFED"/>
<path d="M89.4322 215.136H71.5557V233.017H89.4322V215.136Z" fill="#1FBAB4"/>
<path d="M89.4322 197.254H71.5557V215.136H89.4322V197.254Z" fill="#1FBAB4"/>
<path d="M89.4322 179.36H71.5557V197.255H89.4322V179.36Z" fill="#1FBAB4"/>
<path d="M89.4322 161.485H71.5557V179.366H89.4322V161.485Z" fill="#1FBAB4"/>
<path d="M89.4322 143.604H71.5557V161.486H89.4322V143.604Z" fill="#1FBAB4"/>
<path d="M89.4322 125.723H71.5557V143.604H89.4322V125.723Z" fill="#1FBAB4"/>
<path d="M89.4322 107.842H71.5557V125.723H89.4322V107.842Z" fill="#1FBAB4"/>
<path d="M89.4322 89.9678H71.5557V107.849H89.4322V89.9678Z" fill="#1FBAB4"/>
<path d="M89.4322 72.0728H71.5557V89.9675H89.4322V72.0728Z" fill="#1FBAB4"/>
<path d="M71.5557 322.422H53.6929V340.304H71.5557V322.422Z" fill="#1FBAB4"/>
<path d="M71.5557 304.542H53.6929V322.423H71.5557V304.542Z" fill="#1FBAB4"/>
<path d="M71.5557 286.653H53.6929V304.548H71.5557V286.653Z" fill="#1FBAB4"/>
<path d="M71.5557 268.772H53.6929V286.653H71.5557V268.772Z" fill="#BFEFED"/>
<path d="M71.5557 233.017H53.6929V250.898H71.5557V233.017Z" fill="#1FBAB4"/>
<path d="M71.5557 215.136H53.6929V233.017H71.5557V215.136Z" fill="#1FBAB4"/>
<path d="M71.5557 197.254H53.6929V215.136H71.5557V197.254Z" fill="#1FBAB4"/>
<path d="M71.5557 179.36H53.6929V197.255H71.5557V179.36Z" fill="#1FBAB4"/>
<path d="M71.5557 161.485H53.6929V179.366H71.5557V161.485Z" fill="#1FBAB4"/>
<path d="M71.5557 143.604H53.6929V161.486H71.5557V143.604Z" fill="#BFEFED"/>
<path d="M71.5557 125.723H53.6929V143.604H71.5557V125.723Z" fill="#1FBAB4"/>
<path d="M71.5557 107.842H53.6929V125.723H71.5557V107.842Z" fill="#1FBAB4"/>
<path d="M71.5557 89.9678H53.6929V107.849H71.5557V89.9678Z" fill="#BFEFED"/>
<path d="M53.6998 304.542H35.8369V322.423H53.6998V304.542Z" fill="#BFEFED"/>
<path d="M53.6998 215.136H35.8369V233.017H53.6998V215.136Z" fill="#1FBAB4"/>
<path d="M53.6998 197.254H35.8369V215.136H53.6998V197.254Z" fill="#1FBAB4"/>
<path d="M53.6998 179.36H35.8369V197.255H53.6998V179.36Z" fill="#BFEFED"/>
<path d="M35.8365 322.422H17.9736V340.304H35.8365V322.422Z" fill="#1FBAB4"/>
<path d="M35.8365 304.542H17.9736V322.423H35.8365V304.542Z" fill="#1FBAB4"/>
<path d="M35.8365 197.254H17.9736V215.136H35.8365V197.254Z" fill="#BFEFED"/>
<path d="M17.9737 322.422H0.11084V340.304H17.9737V322.422Z" fill="#1FBAB4"/>
<path d="M17.9737 304.542H0.11084V322.423H17.9737V304.542Z" fill="#BFEFED"/>
</svg>
