<svg fill="none" height="402" viewBox="0 0 563 402" width="563" xmlns="http://www.w3.org/2000/svg"><path d="m439.971 38.1904h-19.128v19.0953h19.128z" fill="#fcbb00"/><path d="m420.85 19.0952h-19.143v19.0953h19.143z" fill="#fcbb00"/><path d="m535.622 248.245h-19.143v19.096h19.143z" fill="#fcbb00"/><path d="m516.478 306h-19.128v19.11h19.128z" fill="#fcbb00"/><path d="m516.478 248.245h-19.128v19.096h19.128z" fill="#fcbb00"/><path d="m516.478 229.15h-19.128v19.095h19.128z" fill="#fcbb00"/><path d="m516.478 190.945h-19.128v19.11h19.128z" fill="#fcbb00"/><path d="m497.35 286.428h-19.129v19.096h19.129z" fill="#fcbb00"/><path d="m497.35 248.245h-19.129v19.096h19.129z" fill="#fcbb00"/><path d="m497.35 229.15h-19.129v19.095h19.129z" fill="#fcbb00"/><path d="m497.35 210.055h-19.129v19.095h19.129z" fill="#fcbb00"/><path d="m497.35 190.945h-19.129v19.11h19.129z" fill="#fcbb00"/><path d="m497.35 171.857h-19.129v19.095h19.129z" fill="#fcbb00"/><path d="m497.35 95.4834h-19.129v19.0956h19.129z" fill="#fcbb00"/><path d="m478.229 305.524h-19.129v19.11h19.129z" fill="#fcbb00"/><path d="m497.5 305h-19.5v20.526h19.5z" fill="#fcbb00"/><path d="m478.229 324h-19.129v20h19.129z" fill="#fcbb00"/><path d="m478.229 286.428h-19.129v19.096h19.129z" fill="#fddf8f"/><path d="m478.229 267.333h-19.129v19.096h19.129z" fill="#fcbb00"/><path d="m478.229 248.245h-19.129v19.096h19.129z" fill="#fcbb00"/><path d="m478.229 229.15h-19.129v19.095h19.129z" fill="#fcbb00"/><path d="m478.229 210.055h-19.129v19.095h19.129z" fill="#fcbb00"/><path d="m478.229 190.945h-19.129v19.11h19.129z" fill="#fcbb00"/><path d="m478.229 171.857h-19.129v19.095h19.129z" fill="#fcbb00"/><path d="m478.229 152.762h-19.129v19.095h19.129z" fill="#fcbb00"/><path d="m478.229 133.667h-19.129v19.095h19.129z" fill="#fcbb00"/><path d="m459.1 362.817h-19.129v19.095h19.129z" fill="#fcbb00"/><path d="m459.1 343.721h-19.129v19.096h19.129z" fill="#fcbb00"/><path d="m459.1 305.524h-19.128v19.11h19.128z" fill="#fcbb00"/><path d="m459.1 324h-19.128v20h19.128z" fill="#fcbb00"/><path d="m459.1 286.428h-19.129v19.096h19.129z" fill="#fcbb00"/><path d="m459.1 267.333h-19.129v19.096h19.129z" fill="#fcbb00"/><path d="m459.1 248.245h-19.129v19.096h19.129z" fill="#fcbb00"/><path d="m459.1 229.15h-19.129v19.095h19.129z" fill="#fcbb00"/><path d="m459.1 210.055h-19.129v19.095h19.129z" fill="#fcbb00"/><path d="m459.1 190.945h-19.129v19.11h19.129z" fill="#fcbb00"/><path d="m459.1 171.857h-19.129v19.095h19.129z" fill="#fcbb00"/><path d="m459.1 152.762h-19.129v19.095h19.129z" fill="#fcbb00"/><path d="m459.1 133.667h-19.129v19.095h19.129z" fill="#fcbb00"/><path d="m459.1 114.572h-19.129v19.095h19.129z" fill="#fddf8f"/><path d="m459.1 57.2786h-19.129v19.0952h19.129z" fill="#fddf8f"/><path d="m459.1 38.1904h-19.129v19.0953h19.129z" fill="#fddf8f"/><path d="m439.971 362.817h-19.128v19.095h19.128z" fill="#fcbb00"/><path d="m439.971 343.721h-19.128v19.096h19.128z" fill="#fcbb00"/><path d="m439.971 324.626h-19.128v19.096h19.128z" fill="#fcbb00"/><path d="m439.971 305.524h-19.128v19.11h19.128z" fill="#fcbb00"/><path d="m439.971 286.428h-19.128v19.096h19.128z" fill="#fcbb00"/><path d="m439.971 267.333h-19.128v19.096h19.128z" fill="#fcbb00"/><path d="m439.971 248.245h-19.128v19.096h19.128z" fill="#fcbb00"/><path d="m439.971 229.15h-19.128v19.095h19.128z" fill="#fcbb00"/><path d="m439.971 210.055h-19.128v19.095h19.128z" fill="#fcbb00"/><path d="m439.971 190.945h-19.128v19.11h19.128z" fill="#fcbb00"/><path d="m439.971 171.857h-19.128v19.095h19.128z" fill="#fcbb00"/><path d="m439.971 152.762h-19.128v19.095h19.128z" fill="#fcbb00"/><path d="m439.971 133.667h-19.128v19.095h19.128z" fill="#fcbb00"/><path d="m439.971 114.572h-19.128v19.095h19.128z" fill="#fcbb00"/><path d="m439.971 95.4834h-19.128v19.0956h19.128z" fill="#fcbb00"/><path d="m439.971 76.3738h-19.128v19.1098h19.128z" fill="#fcbb00"/><path d="m439.971 57.2786h-19.128v19.0952h19.128z" fill="#fddf8f"/><path d="m439.971 19.0952h-19.128v19.0953h19.128z" fill="#fddf8f"/><path d="m420.85 362.817h-19.143v19.095h19.143z" fill="#fcbb00"/><path d="m420.85 343.721h-19.143v19.096h19.143z" fill="#fcbb00"/><path d="m420.85 324.626h-19.143v19.096h19.143z" fill="#fcbb00"/><path d="m420.85 305.524h-19.143v19.11h19.143z" fill="#fcbb00"/><path d="m420.85 286.428h-19.143v19.096h19.143z" fill="#fcbb00"/><path d="m420.85 267.333h-19.143v19.096h19.143z" fill="#fcbb00"/><path d="m420.85 248.245h-19.143v19.096h19.143z" fill="#fcbb00"/><path d="m420.85 229.15h-19.143v19.095h19.143z" fill="#fcbb00"/><path d="m420.85 210.055h-19.143v19.095h19.143z" fill="#fcbb00"/><path d="m420.85 190.945h-19.143v19.11h19.143z" fill="#fcbb00"/><path d="m420.85 171.857h-19.143v19.095h19.143z" fill="#fcbb00"/><path d="m420.85 152.762h-19.143v19.095h19.143z" fill="#fcbb00"/><path d="m420.85 133.667h-19.143v19.095h19.143z" fill="#fcbb00"/><path d="m420.85 114.572h-19.143v19.095h19.143z" fill="#fcbb00"/><path d="m420.85 95.4834h-19.143v19.0956h19.143z" fill="#fcbb00"/><path d="m420.85 76.3738h-19.143v19.1098h19.143z" fill="#fddf8f"/><path d="m420.85 38.1904h-19.143v19.0953h19.143z" fill="#fcbb00"/><path d="m420.85 0h-19.143v19.0952h19.143z" fill="#fddf8f"/><path d="m401.707 362.817h-19.128v19.095h19.128z" fill="#fcbb00"/><path d="m401.707 343.721h-19.128v19.096h19.128z" fill="#fcbb00"/><path d="m401.707 324.626h-19.128v19.096h19.128z" fill="#fcbb00"/><path d="m401.707 305.524h-19.128v19.11h19.128z" fill="#fcbb00"/><path d="m401.707 286.428h-19.128v19.096h19.128z" fill="#fcbb00"/><path d="m401.707 267.333h-19.128v19.096h19.128z" fill="#fcbb00"/><path d="m401.707 248.245h-19.128v19.096h19.128z" fill="#fcbb00"/><path d="m401.707 229.15h-19.128v19.095h19.128z" fill="#fcbb00"/><path d="m401.707 210.055h-19.128v19.095h19.128z" fill="#fcbb00"/><path d="m401.707 190.945h-19.128v19.11h19.128z" fill="#fcbb00"/><path d="m401.707 171.857h-19.128v19.095h19.128z" fill="#fcbb00"/><path d="m401.707 152.762h-19.128v19.095h19.128z" fill="#fcbb00"/><path d="m401.707 133.667h-19.128v19.095h19.128z" fill="#fcbb00"/><path d="m401.707 114.572h-19.128v19.095h19.128z" fill="#fcbb00"/><path d="m401.707 95.4834h-19.128v19.0956h19.128z" fill="#fcbb00"/><path d="m401.707 76.3738h-19.128v19.1098h19.128z" fill="#fcbb00"/><path d="m401.707 38.1904h-19.128v19.0953h19.128z" fill="#fcbb00"/><path d="m401.707 19.0952h-19.128v19.0953h19.128z" fill="#fcbb00"/><path d="m382.578 381.912h-19.128v19.095h19.128z" fill="#fcbb00"/><path d="m382.578 362.817h-19.128v19.095h19.128z" fill="#fcbb00"/><path d="m382.578 343.721h-19.128v19.096h19.128z" fill="#fcbb00"/><path d="m382.578 324.626h-19.128v19.096h19.128z" fill="#fcbb00"/><path d="m382.578 305.524h-19.128v19.11h19.128z" fill="#fcbb00"/><path d="m382.578 286.428h-19.128v19.096h19.128z" fill="#fcbb00"/><path d="m382.578 267.333h-19.128v19.096h19.128z" fill="#fcbb00"/><path d="m382.578 248.245h-19.128v19.096h19.128z" fill="#fcbb00"/><path d="m382.578 229.15h-19.128v19.095h19.128z" fill="#fcbb00"/><path d="m382.578 210.055h-19.128v19.095h19.128z" fill="#fcbb00"/><path d="m382.578 190.945h-19.128v19.11h19.128z" fill="#fcbb00"/><path d="m382.578 171.857h-19.128v19.095h19.128z" fill="#fcbb00"/><path d="m382.578 152.762h-19.128v19.095h19.128z" fill="#fcbb00"/><path d="m382.578 133.667h-19.128v19.095h19.128z" fill="#fcbb00"/><path d="m382.578 114.572h-19.128v19.095h19.128z" fill="#fcbb00"/><path d="m382.578 95.4834h-19.128v19.0956h19.128z" fill="#fddf8f"/><path d="m382.578 57.2786h-19.128v19.0952h19.128z" fill="#fcbb00"/><path d="m363.45 381.912h-19.129v19.095h19.129z" fill="#fcbb00"/><path d="m363.45 362.817h-19.129v19.095h19.129z" fill="#fcbb00"/><path d="m363.45 343.721h-19.129v19.096h19.129z" fill="#fcbb00"/><path d="m363.45 324.626h-19.129v19.096h19.129z" fill="#fcbb00"/><path d="m363.45 305.524h-19.129v19.11h19.129z" fill="#fcbb00"/><path d="m363.45 286.428h-19.129v19.096h19.129z" fill="#fcbb00"/><path d="m363.45 267.333h-19.129v19.096h19.129z" fill="#fcbb00"/><path d="m363.45 248.245h-19.129v19.096h19.129z" fill="#fcbb00"/><path d="m363.45 229.15h-19.129v19.095h19.129z" fill="#fcbb00"/><path d="m363.45 210.055h-19.129v19.095h19.129z" fill="#fcbb00"/><path d="m363.45 190.945h-19.129v19.11h19.129z" fill="#fcbb00"/><path d="m363.45 171.857h-19.129v19.095h19.129z" fill="#fcbb00"/><path d="m363.45 152.762h-19.129v19.095h19.129z" fill="#fcbb00"/><path d="m363.45 133.667h-19.129v19.095h19.129z" fill="#fcbb00"/><path d="m363.45 114.572h-19.129v19.095h19.129z" fill="#fcbb00"/><path d="m363.45 95.4834h-19.129v19.0956h19.129z" fill="#fcbb00"/><path d="m344.321 381.912h-19.128v19.095h19.128z" fill="#fcbb00"/><path d="m344.321 362.817h-19.128v19.095h19.128z" fill="#fcbb00"/><path d="m344.321 343.721h-19.128v19.096h19.128z" fill="#fcbb00"/><path d="m344.321 324.626h-19.128v19.096h19.128z" fill="#fcbb00"/><path d="m344.321 305.524h-19.128v19.11h19.128z" fill="#fcbb00"/><path d="m344.321 286.428h-19.128v19.096h19.128z" fill="#fcbb00"/><path d="m344.321 267.333h-19.128v19.096h19.128z" fill="#fcbb00"/><path d="m344.321 248.245h-19.128v19.096h19.128z" fill="#fcbb00"/><path d="m344.321 229.15h-19.128v19.095h19.128z" fill="#fcbb00"/><path d="m344.321 210.055h-19.128v19.095h19.128z" fill="#fcbb00"/><path d="m344.321 190.945h-19.128v19.11h19.128z" fill="#fcbb00"/><path d="m344.321 171.857h-19.128v19.095h19.128z" fill="#fcbb00"/><path d="m344.321 152.762h-19.128v19.095h19.128z" fill="#fcbb00"/><path d="m344.321 133.667h-19.128v19.095h19.128z" fill="#fcbb00"/><path d="m344.321 114.572h-19.128v19.095h19.128z" fill="#fcbb00"/><path d="m344.321 95.4834h-19.128v19.0956h19.128z" fill="#fcbb00"/><path d="m344.321 76.3738h-19.128v19.1098h19.128z" fill="#fcbb00"/><path d="m344.321 57.2786h-19.128v19.0952h19.128z" fill="#fcbb00"/><path d="m344.321 38.1904h-19.128v19.0953h19.128z" fill="#fddf8f"/><path d="m325.2 381.912h-19.143v19.095h19.143z" fill="#fcbb00"/><path d="m325.2 362.817h-19.143v19.095h19.143z" fill="#fcbb00"/><path d="m325.2 343.721h-19.143v19.096h19.143z" fill="#fcbb00"/><path d="m325.2 324.626h-19.143v19.096h19.143z" fill="#fcbb00"/><path d="m325.2 305.524h-19.143v19.11h19.143z" fill="#fcbb00"/><path d="m325.2 286.428h-19.143v19.096h19.143z" fill="#fcbb00"/><path d="m325.2 267.333h-19.143v19.096h19.143z" fill="#fcbb00"/><path d="m325.2 248.245h-19.143v19.096h19.143z" fill="#fcbb00"/><path d="m325.2 229.15h-19.143v19.095h19.143z" fill="#fcbb00"/><path d="m325.2 210.055h-19.143v19.095h19.143z" fill="#fcbb00"/><path d="m325.2 190.945h-19.143v19.11h19.143z" fill="#fcbb00"/><path d="m325.2 171.857h-19.143v19.095h19.143z" fill="#fcbb00"/><path d="m325.2 152.762h-19.143v19.095h19.143z" fill="#fcbb00"/><path d="m325.2 133.667h-19.143v19.095h19.143z" fill="#fcbb00"/><path d="m325.2 114.572h-19.143v19.095h19.143z" fill="#fcbb00"/><path d="m325.2 95.4834h-19.143v19.0956h19.143z" fill="#fcbb00"/><path d="m325.2 76.3738h-19.143v19.1098h19.143z" fill="#fddf8f"/><g fill="#fcbb00"><path d="m306.057 381.912h-19.129v19.095h19.129z"/><path d="m306.057 362.817h-19.129v19.095h19.129z"/><path d="m306.057 343.721h-19.129v19.096h19.129z"/><path d="m306.057 324.626h-19.129v19.096h19.129z"/><path d="m306.057 305.524h-19.129v19.11h19.129z"/><path d="m306.057 286.428h-19.129v19.096h19.129z"/><path d="m306.057 267.333h-19.129v19.096h19.129z"/><path d="m306.057 248.245h-19.129v19.096h19.129z"/><path d="m306.057 229.15h-19.129v19.095h19.129z"/><path d="m306.057 210.055h-19.129v19.095h19.129z"/><path d="m306.057 190.945h-19.129v19.11h19.129z"/><path d="m306.057 171.857h-19.129v19.095h19.129z"/><path d="m306.057 152.762h-19.129v19.095h19.129z"/><path d="m306.057 133.667h-19.129v19.095h19.129z"/><path d="m306.057 114.572h-19.129v19.095h19.129z"/><path d="m306.057 95.4834h-19.129v19.0956h19.129z"/><path d="m286.928 381.912h-19.128v19.095h19.128z"/><path d="m286.928 362.817h-19.128v19.095h19.128z"/><path d="m286.928 343.721h-19.128v19.096h19.128z"/><path d="m286.928 324.626h-19.128v19.096h19.128z"/><path d="m286.928 305.524h-19.128v19.11h19.128z"/><path d="m286.928 286.428h-19.128v19.096h19.128z"/><path d="m286.928 267.333h-19.128v19.096h19.128z"/><path d="m286.928 248.245h-19.128v19.096h19.128z"/><path d="m286.928 229.15h-19.128v19.095h19.128z"/><path d="m286.928 210.055h-19.128v19.095h19.128z"/><path d="m286.928 190.945h-19.128v19.11h19.128z"/><path d="m286.928 171.857h-19.128v19.095h19.128z"/><path d="m286.928 152.762h-19.128v19.095h19.128z"/><path d="m286.928 133.667h-19.128v19.095h19.128z"/><path d="m286.928 114.572h-19.128v19.095h19.128z"/><path d="m267.807 381.912h-19.128v19.095h19.128z"/><path d="m267.807 362.817h-19.128v19.095h19.128z"/><path d="m267.807 343.721h-19.128v19.096h19.128z"/><path d="m267.807 324.626h-19.128v19.096h19.128z"/><path d="m267.807 305.524h-19.128v19.11h19.128z"/><path d="m267.807 286.428h-19.128v19.096h19.128z"/><path d="m267.807 267.333h-19.128v19.096h19.128z"/><path d="m267.807 248.245h-19.128v19.096h19.128z"/><path d="m267.807 229.15h-19.128v19.095h19.128z"/><path d="m267.807 210.055h-19.128v19.095h19.128z"/><path d="m267.807 190.945h-19.128v19.11h19.128z"/><path d="m267.807 171.857h-19.128v19.095h19.128z"/><path d="m267.807 152.762h-19.128v19.095h19.128z"/><path d="m267.807 133.667h-19.128v19.095h19.128z"/><path d="m267.807 114.572h-19.128v19.095h19.128z"/><path d="m267.807 95.4834h-19.128v19.0956h19.128z"/><path d="m248.678 381.912h-19.128v19.095h19.128z"/><path d="m248.678 362.817h-19.128v19.095h19.128z"/><path d="m248.678 343.721h-19.128v19.096h19.128z"/><path d="m248.678 324.626h-19.128v19.096h19.128z"/><path d="m248.678 305.524h-19.128v19.11h19.128z"/><path d="m248.678 286.428h-19.128v19.096h19.128z"/><path d="m248.678 267.333h-19.128v19.096h19.128z"/><path d="m248.678 248.245h-19.128v19.096h19.128z"/><path d="m248.678 229.15h-19.128v19.095h19.128z"/><path d="m248.678 210.055h-19.128v19.095h19.128z"/><path d="m248.678 190.945h-19.128v19.11h19.128z"/><path d="m248.678 171.857h-19.128v19.095h19.128z"/><path d="m248.678 152.762h-19.128v19.095h19.128z"/><path d="m248.678 133.667h-19.128v19.095h19.128z"/><path d="m248.678 114.572h-19.128v19.095h19.128z"/><path d="m248.678 95.4834h-19.128v19.0956h19.128z"/></g><path d="m248.678 76.3738h-19.128v19.1098h19.128z" fill="#fddf8f"/><path d="m229.55 381.912h-19.129v19.095h19.129z" fill="#fcbb00"/><path d="m229.55 362.817h-19.129v19.095h19.129z" fill="#fcbb00"/><path d="m229.55 343.721h-19.129v19.096h19.129z" fill="#fcbb00"/><path d="m229.55 324.626h-19.129v19.096h19.129z" fill="#fcbb00"/><path d="m229.55 305.524h-19.129v19.11h19.129z" fill="#fcbb00"/><path d="m229.55 286.428h-19.129v19.096h19.129z" fill="#fcbb00"/><path d="m229.55 267.333h-19.129v19.096h19.129z" fill="#fcbb00"/><path d="m229.55 248.245h-19.129v19.096h19.129z" fill="#fcbb00"/><path d="m229.55 229.15h-19.129v19.095h19.129z" fill="#fcbb00"/><path d="m229.55 210.055h-19.129v19.095h19.129z" fill="#fcbb00"/><path d="m229.55 190.945h-19.129v19.11h19.129z" fill="#fcbb00"/><path d="m229.55 171.857h-19.129v19.095h19.129z" fill="#fcbb00"/><path d="m229.55 152.762h-19.129v19.095h19.129z" fill="#fcbb00"/><path d="m229.55 133.667h-19.129v19.095h19.129z" fill="#fcbb00"/><path d="m229.55 114.572h-19.129v19.095h19.129z" fill="#fcbb00"/><path d="m229.55 95.4834h-19.129v19.0956h19.129z" fill="#fcbb00"/><path d="m210.421 381.912h-19.143v19.095h19.143z" fill="#fcbb00"/><path d="m210.421 362.817h-19.143v19.095h19.143z" fill="#fcbb00"/><path d="m210.421 343.721h-19.143v19.096h19.143z" fill="#fcbb00"/><path d="m210.421 324.626h-19.143v19.096h19.143z" fill="#fcbb00"/><path d="m210.421 305.524h-19.143v19.11h19.143z" fill="#fcbb00"/><path d="m210.421 286.428h-19.143v19.096h19.143z" fill="#fcbb00"/><path d="m210.421 267.333h-19.143v19.096h19.143z" fill="#fcbb00"/><path d="m210.421 248.245h-19.143v19.096h19.143z" fill="#fcbb00"/><path d="m210.421 229.15h-19.143v19.095h19.143z" fill="#fcbb00"/><path d="m210.421 210.055h-19.143v19.095h19.143z" fill="#fcbb00"/><path d="m210.421 190.945h-19.143v19.11h19.143z" fill="#fcbb00"/><path d="m210.421 171.857h-19.143v19.095h19.143z" fill="#fcbb00"/><path d="m210.421 152.762h-19.143v19.095h19.143z" fill="#fcbb00"/><path d="m210.421 133.667h-19.143v19.095h19.143z" fill="#fcbb00"/><path d="m191.285 381.912h-19.128v19.095h19.128z" fill="#fcbb00"/><path d="m191.285 362.817h-19.128v19.095h19.128z" fill="#fcbb00"/><path d="m191.285 343.721h-19.128v19.096h19.128z" fill="#fcbb00"/><path d="m191.285 324.626h-19.128v19.096h19.128z" fill="#fcbb00"/><path d="m191.285 305.524h-19.128v19.11h19.128z" fill="#fcbb00"/><path d="m191.285 286.428h-19.128v19.096h19.128z" fill="#fcbb00"/><path d="m191.285 267.333h-19.128v19.096h19.128z" fill="#fcbb00"/><path d="m191.285 248.245h-19.128v19.096h19.128z" fill="#fcbb00"/><path d="m191.285 229.15h-19.128v19.095h19.128z" fill="#fcbb00"/><path d="m191.285 210.055h-19.128v19.095h19.128z" fill="#fcbb00"/><path d="m191.285 190.945h-19.128v19.11h19.128z" fill="#fcbb00"/><path d="m191.285 171.857h-19.128v19.095h19.128z" fill="#fcbb00"/><path d="m191.285 152.762h-19.128v19.095h19.128z" fill="#fcbb00"/><path d="m191.285 133.667h-19.128v19.095h19.128z" fill="#fddf8f"/><path d="m191.285 114.572h-19.128v19.095h19.128z" fill="#fcbb00"/><path d="m191.285 95.4834h-19.128v19.0956h19.128z" fill="#fddf8f"/><path d="m191.285 19.0952h-19.128v19.0953h19.128z" fill="#fcbb00"/><path d="m172.157 381.912h-19.129v19.095h19.129z" fill="#fcbb00"/><path d="m172.157 362.817h-19.129v19.095h19.129z" fill="#fcbb00"/><path d="m172.157 343.721h-19.129v19.096h19.129z" fill="#fcbb00"/><path d="m172.157 324.626h-19.129v19.096h19.129z" fill="#fcbb00"/><path d="m172.157 305.524h-19.129v19.11h19.129z" fill="#fcbb00"/><path d="m172.157 286.428h-19.129v19.096h19.129z" fill="#fcbb00"/><path d="m172.157 267.333h-19.129v19.096h19.129z" fill="#fcbb00"/><path d="m172.157 248.245h-19.129v19.096h19.129z" fill="#fcbb00"/><path d="m172.157 229.15h-19.129v19.095h19.129z" fill="#fcbb00"/><path d="m172.157 210.055h-19.129v19.095h19.129z" fill="#fcbb00"/><path d="m172.157 190.945h-19.129v19.11h19.129z" fill="#fcbb00"/><path d="m172.157 171.857h-19.129v19.095h19.129z" fill="#fcbb00"/><path d="m172.157 152.762h-19.129v19.095h19.129z" fill="#fcbb00"/><path d="m172.157 133.667h-19.129v19.095h19.129z" fill="#fcbb00"/><path d="m172.157 114.572h-19.129v19.095h19.129z" fill="#fcbb00"/><path d="m172.157 95.4834h-19.129v19.0956h19.129z" fill="#fddf8f"/><path d="m172.157 76.3738h-19.129v19.1098h19.129z" fill="#fcbb00"/><path d="m153.028 381.912h-19.128v19.095h19.128z" fill="#fcbb00"/><path d="m153.028 362.817h-19.128v19.095h19.128z" fill="#fcbb00"/><path d="m153.028 343.721h-19.128v19.096h19.128z" fill="#fcbb00"/><path d="m153.028 324.626h-19.128v19.096h19.128z" fill="#fcbb00"/><path d="m153.028 305.524h-19.128v19.11h19.128z" fill="#fcbb00"/><path d="m153.028 286.428h-19.128v19.096h19.128z" fill="#fcbb00"/><path d="m153.028 267.333h-19.128v19.096h19.128z" fill="#fcbb00"/><path d="m153.028 248.245h-19.128v19.096h19.128z" fill="#fcbb00"/><path d="m153.028 229.15h-19.128v19.095h19.128z" fill="#fcbb00"/><path d="m153.028 210.055h-19.128v19.095h19.128z" fill="#fcbb00"/><path d="m153.028 190.945h-19.128v19.11h19.128z" fill="#fcbb00"/><path d="m153.028 171.857h-19.128v19.095h19.128z" fill="#fcbb00"/><path d="m153.028 152.762h-19.128v19.095h19.128z" fill="#fcbb00"/><path d="m153.028 133.667h-19.128v19.095h19.128z" fill="#fcbb00"/><path d="m153.028 114.572h-19.128v19.095h19.128z" fill="#fcbb00"/><path d="m153.028 95.4834h-19.128v19.0956h19.128z" fill="#fcbb00"/><path d="m153.028 76.3738h-19.128v19.1098h19.128z" fill="#fcbb00"/><path d="m153.028 57.2786h-19.128v19.0952h19.128z" fill="#fddf8f"/><path d="m153.028 19.0952h-19.128v19.0953h19.128z" fill="#fcbb00"/><path d="m133.9 381.912h-19.129v19.095h19.129z" fill="#fddf8f"/><path d="m133.9 362.817h-19.129v19.095h19.129z" fill="#fcbb00"/><path d="m133.9 343.721h-19.129v19.096h19.129z" fill="#fcbb00"/><path d="m133.9 324.626h-19.129v19.096h19.129z" fill="#fcbb00"/><path d="m133.9 305.524h-19.129v19.11h19.129z" fill="#fcbb00"/><path d="m133.9 286.428h-19.129v19.096h19.129z" fill="#fcbb00"/><path d="m133.9 267.333h-19.129v19.096h19.129z" fill="#fcbb00"/><path d="m133.9 248.245h-19.129v19.096h19.129z" fill="#fcbb00"/><path d="m133.9 229.15h-19.129v19.095h19.129z" fill="#fcbb00"/><path d="m133.9 210.055h-19.129v19.095h19.129z" fill="#fcbb00"/><path d="m133.9 190.945h-19.129v19.11h19.129z" fill="#fcbb00"/><path d="m133.9 171.857h-19.129v19.095h19.129z" fill="#fcbb00"/><path d="m133.9 152.762h-19.129v19.095h19.129z" fill="#fcbb00"/><path d="m133.9 133.667h-19.129v19.095h19.129z" fill="#fddf8f"/><path d="m133.9 114.572h-19.129v19.095h19.129z" fill="#fcbb00"/><path d="m133.9 95.4834h-19.129v19.0956h19.129z" fill="#fddf8f"/><path d="m133.9 38.1904h-19.129v19.0953h19.129z" fill="#fcbb00"/><path d="m133.9 19.0952h-19.129v19.0953h19.129z" fill="#fddf8f"/><path d="m114.778 381.912h-19.1281v19.095h19.1281z" fill="#fddf8f"/><path d="m114.778 343.721h-19.1281v19.096h19.1281z" fill="#fcbb00"/><path d="m114.778 324.626h-19.1281v19.096h19.1281z" fill="#fddf8f"/><path d="m114.778 305.524h-19.1281v19.11h19.1281z" fill="#fcbb00"/><path d="m114.778 286.428h-19.1281v19.096h19.1281z" fill="#fcbb00"/><path d="m114.778 267.333h-19.1281v19.096h19.1281z" fill="#fcbb00"/><path d="m114.778 248.245h-19.1281v19.096h19.1281z" fill="#fcbb00"/><path d="m114.778 229.15h-19.1281v19.095h19.1281z" fill="#fcbb00"/><path d="m114.778 210.055h-19.1281v19.095h19.1281z" fill="#fcbb00"/><path d="m114.778 190.945h-19.1281v19.11h19.1281z" fill="#fcbb00"/><path d="m114.778 171.857h-19.1281v19.095h19.1281z" fill="#fcbb00"/><path d="m114.778 152.762h-19.1281v19.095h19.1281z" fill="#fcbb00"/><path d="m114.778 133.667h-19.1281v19.095h19.1281z" fill="#fcbb00"/><path d="m114.778 114.572h-19.1281v19.095h19.1281z" fill="#fcbb00"/><path d="m114.778 95.4834h-19.1281v19.0956h19.1281z" fill="#fcbb00"/><path d="m114.778 76.3738h-19.1281v19.1098h19.1281z" fill="#fcbb00"/><path d="m114.778 38.1904h-19.1281v19.0953h19.1281z" fill="#fcbb00"/><path d="m95.65 343.721h-19.1432v19.096h19.1432z" fill="#fcbb00"/><path d="m95.65 324.626h-19.1432v19.096h19.1432z" fill="#fcbb00"/><path d="m95.65 305.524h-19.1432v19.11h19.1432z" fill="#fcbb00"/><path d="m95.65 286.428h-19.1432v19.096h19.1432z" fill="#fcbb00"/><path d="m95.65 267.333h-19.1432v19.096h19.1432z" fill="#fcbb00"/><path d="m95.65 248.245h-19.1432v19.096h19.1432z" fill="#fddf8f"/><path d="m95.65 229.15h-19.1432v19.095h19.1432z" fill="#fcbb00"/><path d="m95.65 210.055h-19.1432v19.095h19.1432z" fill="#fcbb00"/><path d="m95.65 190.945h-19.1432v19.11h19.1432z" fill="#fcbb00"/><path d="m95.65 171.857h-19.1432v19.095h19.1432z" fill="#fcbb00"/><path d="m95.65 152.762h-19.1432v19.095h19.1432z" fill="#fcbb00"/><path d="m95.65 133.667h-19.1432v19.095h19.1432z" fill="#fcbb00"/><path d="m95.65 114.572h-19.1432v19.095h19.1432z" fill="#fcbb00"/><path d="m95.65 95.4834h-19.1432v19.0956h19.1432z" fill="#fcbb00"/><path d="m95.65 76.3738h-19.1432v19.1098h19.1432z" fill="#fcbb00"/><path d="m76.507 343.721h-19.1286v19.096h19.1286z" fill="#fcbb00"/><path d="m76.507 324.626h-19.1286v19.096h19.1286z" fill="#fcbb00"/><path d="m76.507 305.524h-19.1286v19.11h19.1286z" fill="#fcbb00"/><path d="m76.507 286.428h-19.1286v19.096h19.1286z" fill="#fddf8f"/><path d="m76.507 248.245h-19.1286v19.096h19.1286z" fill="#fcbb00"/><path d="m76.507 229.15h-19.1286v19.095h19.1286z" fill="#fcbb00"/><path d="m76.507 210.055h-19.1286v19.095h19.1286z" fill="#fcbb00"/><path d="m76.507 190.945h-19.1286v19.11h19.1286z" fill="#fcbb00"/><path d="m76.507 171.857h-19.1286v19.095h19.1286z" fill="#fcbb00"/><path d="m76.507 152.762h-19.1286v19.095h19.1286z" fill="#fddf8f"/><path d="m76.507 133.667h-19.1286v19.095h19.1286z" fill="#fcbb00"/><path d="m57.6286 133.667h-19.1286v19.095h19.1286z" fill="#fcbb00"/><path d="m76.507 114.572h-19.1286v19.095h19.1286z" fill="#fcbb00"/><path d="m76.507 95.4834h-19.1286v19.0956h19.1286z" fill="#fddf8f"/><path d="m57.1286 324.626h-19.1286v19.096h19.1286z" fill="#fddf8f"/><path d="m57.3854 229.15h-19.1286v19.095h19.1286z" fill="#fcbb00"/><path d="m57.3854 210.055h-19.1286v19.095h19.1286z" fill="#fcbb00"/><path d="m57.3854 190.945h-19.1286v19.11h19.1286z" fill="#fddf8f"/><path d="m38.257 343h-19.1286v19.095h19.1286z" fill="#fcbb00"/><path d="m19.1286 343h-19.1286v19.095h19.1286z" fill="#fcbb00"/><path d="m38.257 324.626h-19.1286v19.096h19.1286z" fill="#fcbb00"/><path d="m38.257 210.055h-19.1286v19.095h19.1286z" fill="#fddf8f"/><path d="m57.1286 362.095h-19.1286v19.095h19.1286z" fill="#fcbb00"/><path d="m76.1286 362.095h-19.1286v19.095h19.1286z" fill="#fcbb00"/><path d="m57.1286 343h-19.1286v19.095h19.1286z" fill="#fddf8f"/></svg>