<svg width="812" height="485" viewBox="0 0 812 485" fill="none" xmlns="http://www.w3.org/2000/svg">
<path d="M24.597 110.242H0V88.2135H24.597V110.242Z" fill="#BFEFED"/>
<path d="M639.592 396.441H614.995V374.428H639.592V396.441Z" fill="#BFEFED"/>
<path d="M762.594 462.48H737.997V440.467H762.594V462.48Z" fill="#BFEFED"/>
<path d="M49.1942 440.468H24.5972V418.455H49.1942V440.468Z" fill="#BFEFED"/>
<path d="M270.585 418.455H245.988V396.442H270.585V418.455Z" fill="#BFEFED"/>
<path d="M811.788 66.2001H787.191V44.1872H811.788V66.2001Z" fill="#6AE8E3"/>
<path d="M811.788 88.2135H787.191V66.2004H811.788V88.2135Z" fill="#6AE8E3"/>
<path d="M811.788 198.293H787.191V176.28H811.788V198.293Z" fill="#BFEFED"/>
<path d="M811.788 220.306H787.191V198.293H811.788V220.306Z" fill="#BFEFED"/>
<path d="M787.191 66.2001H762.594V44.1872H787.191V66.2001Z" fill="#BFEFED"/>
<path d="M787.191 88.2135H762.594V66.2004H787.191V88.2135Z" fill="#6AE8E3"/>
<path d="M787.191 110.242H762.594V88.2135H787.191V110.242Z" fill="#6AE8E3"/>
<path d="M787.191 132.255H762.594V110.242H787.191V132.255Z" fill="#6AE8E3"/>
<path d="M787.191 176.281H762.594V154.268H787.191V176.281Z" fill="#BFEFED"/>
<path d="M787.191 198.293H762.594V176.28H787.191V198.293Z" fill="#BFEFED"/>
<path d="M787.191 220.306H762.594V198.293H787.191V220.306Z" fill="#6AE8E3"/>
<path d="M787.191 242.335H762.594V220.307H787.191V242.335Z" fill="#6AE8E3"/>
<path d="M787.191 330.387H762.594V308.374H787.191V330.387Z" fill="#6AE8E3"/>
<path d="M787.191 352.4H762.594V330.387H787.191V352.4Z" fill="#BFEFED"/>
<path d="M787.191 374.428H762.594V352.4H787.191V374.428Z" fill="#6AE8E3"/>
<path d="M762.594 66.2001H737.997V44.1872H762.594V66.2001Z" fill="#6AE8E3"/>
<path d="M762.594 88.2135H737.997V66.2004H762.594V88.2135Z" fill="#6AE8E3"/>
<path d="M762.594 110.242H737.997V88.2135H762.594V110.242Z" fill="#6AE8E3"/>
<path d="M762.594 132.255H737.997V110.242H762.594V132.255Z" fill="#6AE8E3"/>
<path d="M762.594 154.268H737.997V132.255H762.594V154.268Z" fill="#6AE8E3"/>
<path d="M762.594 176.281H737.997V154.268H762.594V176.281Z" fill="#BFEFED"/>
<path d="M762.594 198.293H737.997V176.28H762.594V198.293Z" fill="#6AE8E3"/>
<path d="M762.594 220.306H737.997V198.293H762.594V220.306Z" fill="#6AE8E3"/>
<path d="M762.594 242.335H737.997V220.307H762.594V242.335Z" fill="#6AE8E3"/>
<path d="M762.594 286.361H737.997V264.348H762.594V286.361Z" fill="#6AE8E3"/>
<path d="M762.594 308.374H737.997V286.361H762.594V308.374Z" fill="#6AE8E3"/>
<path d="M762.594 330.387H737.997V308.374H762.594V330.387Z" fill="#6AE8E3"/>
<path d="M762.594 352.4H737.997V330.387H762.594V352.4Z" fill="#6AE8E3"/>
<path d="M762.594 374.428H737.997V352.4H762.594V374.428Z" fill="#6AE8E3"/>
<path d="M762.594 396.441H737.997V374.428H762.594V396.441Z" fill="#6AE8E3"/>
<path d="M762.594 484.493H737.997V462.48H762.594V484.493Z" fill="#6AE8E3"/>
<path d="M737.996 44.1873H713.399V22.1742H737.996V44.1873Z" fill="#6AE8E3"/>
<path d="M737.996 66.2001H713.399V44.1872H737.996V66.2001Z" fill="#6AE8E3"/>
<path d="M737.996 88.2135H713.399V66.2004H737.996V88.2135Z" fill="#6AE8E3"/>
<path d="M737.996 110.242H713.399V88.2135H737.996V110.242Z" fill="#6AE8E3"/>
<path d="M737.996 132.255H713.399V110.242H737.996V132.255Z" fill="#6AE8E3"/>
<path d="M737.996 154.268H713.399V132.255H737.996V154.268Z" fill="#6AE8E3"/>
<path d="M737.996 176.281H713.399V154.268H737.996V176.281Z" fill="#6AE8E3"/>
<path d="M737.996 198.293H713.399V176.28H737.996V198.293Z" fill="#6AE8E3"/>
<path d="M737.996 220.306H713.399V198.293H737.996V220.306Z" fill="#6AE8E3"/>
<path d="M737.996 242.335H713.399V220.307H737.996V242.335Z" fill="#6AE8E3"/>
<path d="M737.996 264.348H713.399V242.335H737.996V264.348Z" fill="#6AE8E3"/>
<path d="M737.996 286.361H713.399V264.348H737.996V286.361Z" fill="#6AE8E3"/>
<path d="M737.996 308.374H713.399V286.361H737.996V308.374Z" fill="#6AE8E3"/>
<path d="M737.996 330.387H713.399V308.374H737.996V330.387Z" fill="#BFEFED"/>
<path d="M737.996 352.4H713.399V330.387H737.996V352.4Z" fill="#6AE8E3"/>
<path d="M737.996 374.428H713.399V352.4H737.996V374.428Z" fill="#6AE8E3"/>
<path d="M737.996 396.441H713.399V374.428H737.996V396.441Z" fill="#6AE8E3"/>
<path d="M713.4 88.2135H688.786V66.2004H713.4V88.2135Z" fill="#BFEFED"/>
<path d="M713.4 110.242H688.786V88.2135H713.4V110.242Z" fill="#6AE8E3"/>
<path d="M713.4 132.255H688.786V110.242H713.4V132.255Z" fill="#6AE8E3"/>
<path d="M713.4 154.268H688.786V132.255H713.4V154.268Z" fill="#6AE8E3"/>
<path d="M713.4 176.281H688.786V154.268H713.4V176.281Z" fill="#6AE8E3"/>
<path d="M713.4 198.293H688.786V176.28H713.4V198.293Z" fill="#6AE8E3"/>
<path d="M713.4 220.306H688.786V198.293H713.4V220.306Z" fill="#6AE8E3"/>
<path d="M713.4 242.335H688.786V220.307H713.4V242.335Z" fill="#6AE8E3"/>
<path d="M713.4 264.348H688.786V242.335H713.4V264.348Z" fill="#6AE8E3"/>
<path d="M713.4 286.361H688.786V264.348H713.4V286.361Z" fill="#6AE8E3"/>
<path d="M713.4 308.374H688.786V286.361H713.4V308.374Z" fill="#6AE8E3"/>
<path d="M713.4 330.387H688.786V308.374H713.4V330.387Z" fill="#6AE8E3"/>
<path d="M713.4 352.4H688.786V330.387H713.4V352.4Z" fill="#6AE8E3"/>
<path d="M713.4 374.428H688.786V352.4H713.4V374.428Z" fill="#6AE8E3"/>
<path d="M713.4 396.441H688.786V374.428H713.4V396.441Z" fill="#BFEFED"/>
<path d="M713.4 418.455H688.786V396.442H713.4V418.455Z" fill="#6AE8E3"/>
<path d="M688.786 66.2001H664.189V44.1872H688.786V66.2001Z" fill="#6AE8E3"/>
<path d="M688.786 88.2135H664.189V66.2004H688.786V88.2135Z" fill="#BFEFED"/>
<path d="M688.786 110.242H664.189V88.2135H688.786V110.242Z" fill="#6AE8E3"/>
<path d="M688.786 132.255H664.189V110.242H688.786V132.255Z" fill="#6AE8E3"/>
<path d="M688.786 154.268H664.189V132.255H688.786V154.268Z" fill="#6AE8E3"/>
<path d="M688.786 176.281H664.189V154.268H688.786V176.281Z" fill="#6AE8E3"/>
<path d="M688.786 198.293H664.189V176.28H688.786V198.293Z" fill="#6AE8E3"/>
<path d="M688.786 220.306H664.189V198.293H688.786V220.306Z" fill="#6AE8E3"/>
<path d="M688.786 242.335H664.189V220.307H688.786V242.335Z" fill="#6AE8E3"/>
<path d="M688.786 264.348H664.189V242.335H688.786V264.348Z" fill="#6AE8E3"/>
<path d="M688.786 286.361H664.189V264.348H688.786V286.361Z" fill="#6AE8E3"/>
<path d="M688.786 308.374H664.189V286.361H688.786V308.374Z" fill="#6AE8E3"/>
<path d="M688.786 330.387H664.189V308.374H688.786V330.387Z" fill="#6AE8E3"/>
<path d="M688.786 352.4H664.189V330.387H688.786V352.4Z" fill="#6AE8E3"/>
<path d="M688.786 374.428H664.189V352.4H688.786V374.428Z" fill="#6AE8E3"/>
<path d="M688.786 396.441H664.189V374.428H688.786V396.441Z" fill="#6AE8E3"/>
<path d="M688.786 418.455H664.189V396.442H688.786V418.455Z" fill="#6AE8E3"/>
<path d="M664.189 44.1873H639.592V22.1742H664.189V44.1873Z" fill="#6AE8E3"/>
<path d="M664.189 66.2001H639.592V44.1872H664.189V66.2001Z" fill="#6AE8E3"/>
<path d="M664.189 88.2135H639.592V66.2004H664.189V88.2135Z" fill="#BFEFED"/>
<path d="M664.189 110.242H639.592V88.2135H664.189V110.242Z" fill="#6AE8E3"/>
<path d="M664.189 132.255H639.592V110.242H664.189V132.255Z" fill="#6AE8E3"/>
<path d="M664.189 154.268H639.592V132.255H664.189V154.268Z" fill="#6AE8E3"/>
<path d="M664.189 176.281H639.592V154.268H664.189V176.281Z" fill="#6AE8E3"/>
<path d="M664.189 198.293H639.592V176.28H664.189V198.293Z" fill="#6AE8E3"/>
<path d="M664.189 220.306H639.592V198.293H664.189V220.306Z" fill="#6AE8E3"/>
<path d="M664.189 242.335H639.592V220.307H664.189V242.335Z" fill="#6AE8E3"/>
<path d="M664.189 264.348H639.592V242.335H664.189V264.348Z" fill="#6AE8E3"/>
<path d="M664.189 286.361H639.592V264.348H664.189V286.361Z" fill="#6AE8E3"/>
<path d="M664.189 308.374H639.592V286.361H664.189V308.374Z" fill="#6AE8E3"/>
<path d="M664.189 330.387H639.592V308.374H664.189V330.387Z" fill="#6AE8E3"/>
<path d="M664.189 352.4H639.592V330.387H664.189V352.4Z" fill="#6AE8E3"/>
<path d="M664.189 374.428H639.592V352.4H664.189V374.428Z" fill="#6AE8E3"/>
<path d="M664.189 396.441H639.592V374.428H664.189V396.441Z" fill="#BFEFED"/>
<path d="M639.592 66.2001H614.995V44.1872H639.592V66.2001Z" fill="#6AE8E3"/>
<path d="M639.592 88.2135H614.995V66.2004H639.592V88.2135Z" fill="#6AE8E3"/>
<path d="M639.592 110.242H614.995V88.2135H639.592V110.242Z" fill="#6AE8E3"/>
<path d="M639.592 132.255H614.995V110.242H639.592V132.255Z" fill="#6AE8E3"/>
<path d="M639.592 154.268H614.995V132.255H639.592V154.268Z" fill="#6AE8E3"/>
<path d="M639.592 176.281H614.995V154.268H639.592V176.281Z" fill="#6AE8E3"/>
<path d="M639.592 198.293H614.995V176.28H639.592V198.293Z" fill="#6AE8E3"/>
<path d="M639.592 220.306H614.995V198.293H639.592V220.306Z" fill="#6AE8E3"/>
<path d="M639.592 242.335H614.995V220.307H639.592V242.335Z" fill="#6AE8E3"/>
<path d="M639.592 264.348H614.995V242.335H639.592V264.348Z" fill="#6AE8E3"/>
<path d="M639.592 286.361H614.995V264.348H639.592V286.361Z" fill="#6AE8E3"/>
<path d="M639.592 308.374H614.995V286.361H639.592V308.374Z" fill="#6AE8E3"/>
<path d="M639.592 330.387H614.995V308.374H639.592V330.387Z" fill="#6AE8E3"/>
<path d="M639.592 352.4H614.995V330.387H639.592V352.4Z" fill="#6AE8E3"/>
<path d="M639.592 374.428H614.995V352.4H639.592V374.428Z" fill="#6AE8E3"/>
<path d="M614.994 22.1744H590.396V0.161377H614.994V22.1744Z" fill="#6AE8E3"/>
<path d="M614.994 66.2001H590.396V44.1872H614.994V66.2001Z" fill="#6AE8E3"/>
<path d="M614.994 88.2135H590.396V66.2004H614.994V88.2135Z" fill="#6AE8E3"/>
<path d="M614.994 110.242H590.396V88.2135H614.994V110.242Z" fill="#BFEFED"/>
<path d="M614.994 132.255H590.396V110.242H614.994V132.255Z" fill="#BFEFED"/>
<path d="M614.994 154.268H590.396V132.255H614.994V154.268Z" fill="#6AE8E3"/>
<path d="M614.994 176.281H590.396V154.268H614.994V176.281Z" fill="#6AE8E3"/>
<path d="M614.994 198.293H590.396V176.28H614.994V198.293Z" fill="#6AE8E3"/>
<path d="M614.994 220.306H590.396V198.293H614.994V220.306Z" fill="#6AE8E3"/>
<path d="M614.994 242.335H590.396V220.307H614.994V242.335Z" fill="#6AE8E3"/>
<path d="M614.994 264.348H590.396V242.335H614.994V264.348Z" fill="#6AE8E3"/>
<path d="M614.994 286.361H590.396V264.348H614.994V286.361Z" fill="#6AE8E3"/>
<path d="M614.994 308.374H590.396V286.361H614.994V308.374Z" fill="#6AE8E3"/>
<path d="M614.994 330.387H590.396V308.374H614.994V330.387Z" fill="#6AE8E3"/>
<path d="M614.994 352.4H590.396V330.387H614.994V352.4Z" fill="#6AE8E3"/>
<path d="M614.994 374.428H590.396V352.4H614.994V374.428Z" fill="#BFEFED"/>
<path d="M614.994 396.441H590.396V374.428H614.994V396.441Z" fill="#BFEFED"/>
<path d="M614.994 418.455H590.396V396.442H614.994V418.455Z" fill="#BFEFED"/>
<path d="M614.994 440.468H590.396V418.455H614.994V440.468Z" fill="#BFEFED"/>
<path d="M590.397 44.1873H565.8V22.1742H590.397V44.1873Z" fill="#BFEFED"/>
<path d="M590.397 66.2001H565.8V44.1872H590.397V66.2001Z" fill="#6AE8E3"/>
<path d="M590.397 88.2135H565.8V66.2004H590.397V88.2135Z" fill="#6AE8E3"/>
<path d="M590.397 110.242H565.8V88.2135H590.397V110.242Z" fill="#6AE8E3"/>
<path d="M590.397 132.255H565.8V110.242H590.397V132.255Z" fill="#6AE8E3"/>
<path d="M590.397 154.268H565.8V132.255H590.397V154.268Z" fill="#6AE8E3"/>
<path d="M590.397 176.281H565.8V154.268H590.397V176.281Z" fill="#6AE8E3"/>
<path d="M590.397 198.293H565.8V176.28H590.397V198.293Z" fill="#6AE8E3"/>
<path d="M590.397 220.306H565.8V198.293H590.397V220.306Z" fill="#6AE8E3"/>
<path d="M590.397 242.335H565.8V220.307H590.397V242.335Z" fill="#6AE8E3"/>
<path d="M590.397 264.348H565.8V242.335H590.397V264.348Z" fill="#6AE8E3"/>
<path d="M590.397 286.361H565.8V264.348H590.397V286.361Z" fill="#6AE8E3"/>
<path d="M590.397 308.374H565.8V286.361H590.397V308.374Z" fill="#6AE8E3"/>
<path d="M590.397 330.387H565.8V308.374H590.397V330.387Z" fill="#6AE8E3"/>
<path d="M590.397 352.4H565.8V330.387H590.397V352.4Z" fill="#6AE8E3"/>
<path d="M590.397 374.428H565.8V352.4H590.397V374.428Z" fill="#6AE8E3"/>
<path d="M590.397 396.441H565.8V374.428H590.397V396.441Z" fill="#BFEFED"/>
<path d="M590.397 418.455H565.8V396.442H590.397V418.455Z" fill="#6AE8E3"/>
<path d="M590.397 440.468H565.8V418.455H590.397V440.468Z" fill="#6AE8E3"/>
<path d="M565.801 44.1873H541.187V22.1742H565.801V44.1873Z" fill="#BFEFED"/>
<path d="M565.801 88.2135H541.187V66.2004H565.801V88.2135Z" fill="#6AE8E3"/>
<path d="M565.801 110.242H541.187V88.2135H565.801V110.242Z" fill="#6AE8E3"/>
<path d="M565.801 132.255H541.187V110.242H565.801V132.255Z" fill="#6AE8E3"/>
<path d="M565.801 154.268H541.187V132.255H565.801V154.268Z" fill="#6AE8E3"/>
<path d="M565.801 176.281H541.187V154.268H565.801V176.281Z" fill="#6AE8E3"/>
<path d="M565.801 198.293H541.187V176.28H565.801V198.293Z" fill="#6AE8E3"/>
<path d="M565.801 220.306H541.187V198.293H565.801V220.306Z" fill="#6AE8E3"/>
<path d="M565.801 242.335H541.187V220.307H565.801V242.335Z" fill="#6AE8E3"/>
<path d="M565.801 264.348H541.187V242.335H565.801V264.348Z" fill="#6AE8E3"/>
<path d="M565.801 286.361H541.187V264.348H565.801V286.361Z" fill="#6AE8E3"/>
<path d="M565.801 308.374H541.187V286.361H565.801V308.374Z" fill="#6AE8E3"/>
<path d="M565.801 330.387H541.187V308.374H565.801V330.387Z" fill="#6AE8E3"/>
<path d="M565.801 352.4H541.187V330.387H565.801V352.4Z" fill="#6AE8E3"/>
<path d="M565.801 374.428H541.187V352.4H565.801V374.428Z" fill="#BFEFED"/>
<path d="M565.801 396.441H541.187V374.428H565.801V396.441Z" fill="#6AE8E3"/>
<path d="M565.801 418.455H541.187V396.442H565.801V418.455Z" fill="#6AE8E3"/>
<path d="M565.801 462.48H541.187V440.467H565.801V462.48Z" fill="#6AE8E3"/>
<path d="M541.187 44.1873H516.59V22.1742H541.187V44.1873Z" fill="#BFEFED"/>
<path d="M541.187 66.2001H516.59V44.1872H541.187V66.2001Z" fill="#6AE8E3"/>
<path d="M541.187 88.2135H516.59V66.2004H541.187V88.2135Z" fill="#6AE8E3"/>
<path d="M541.187 110.242H516.59V88.2135H541.187V110.242Z" fill="#6AE8E3"/>
<path d="M541.187 132.255H516.59V110.242H541.187V132.255Z" fill="#6AE8E3"/>
<path d="M541.187 154.268H516.59V132.255H541.187V154.268Z" fill="#6AE8E3"/>
<path d="M541.187 176.281H516.59V154.268H541.187V176.281Z" fill="#6AE8E3"/>
<path d="M541.187 198.293H516.59V176.28H541.187V198.293Z" fill="#6AE8E3"/>
<path d="M541.187 220.306H516.59V198.293H541.187V220.306Z" fill="#6AE8E3"/>
<path d="M541.187 242.335H516.59V220.307H541.187V242.335Z" fill="#6AE8E3"/>
<path d="M541.187 264.348H516.59V242.335H541.187V264.348Z" fill="#6AE8E3"/>
<path d="M541.187 286.361H516.59V264.348H541.187V286.361Z" fill="#6AE8E3"/>
<path d="M541.187 308.374H516.59V286.361H541.187V308.374Z" fill="#6AE8E3"/>
<path d="M541.187 330.387H516.59V308.374H541.187V330.387Z" fill="#6AE8E3"/>
<path d="M541.187 352.4H516.59V330.387H541.187V352.4Z" fill="#6AE8E3"/>
<path d="M541.187 374.428H516.59V352.4H541.187V374.428Z" fill="#6AE8E3"/>
<path d="M541.187 396.441H516.59V374.428H541.187V396.441Z" fill="#BFEFED"/>
<path d="M541.187 418.455H516.59V396.442H541.187V418.455Z" fill="#6AE8E3"/>
<path d="M541.187 440.468H516.59V418.455H541.187V440.468Z" fill="#6AE8E3"/>
<path d="M541.187 462.48H516.59V440.467H541.187V462.48Z" fill="#BFEFED"/>
<path d="M516.59 66.2001H491.993V44.1872H516.59V66.2001Z" fill="#6AE8E3"/>
<path d="M516.59 88.2135H491.993V66.2004H516.59V88.2135Z" fill="#6AE8E3"/>
<path d="M516.59 110.242H491.993V88.2135H516.59V110.242Z" fill="#6AE8E3"/>
<path d="M516.59 132.255H491.993V110.242H516.59V132.255Z" fill="#6AE8E3"/>
<path d="M516.59 154.268H491.993V132.255H516.59V154.268Z" fill="#6AE8E3"/>
<path d="M516.59 176.281H491.993V154.268H516.59V176.281Z" fill="#6AE8E3"/>
<path d="M516.59 198.293H491.993V176.28H516.59V198.293Z" fill="#6AE8E3"/>
<path d="M516.59 220.306H491.993V198.293H516.59V220.306Z" fill="#6AE8E3"/>
<path d="M516.59 242.335H491.993V220.307H516.59V242.335Z" fill="#6AE8E3"/>
<path d="M516.59 264.348H491.993V242.335H516.59V264.348Z" fill="#6AE8E3"/>
<path d="M516.59 286.361H491.993V264.348H516.59V286.361Z" fill="#6AE8E3"/>
<path d="M516.59 308.374H491.993V286.361H516.59V308.374Z" fill="#6AE8E3"/>
<path d="M516.59 330.387H491.993V308.374H516.59V330.387Z" fill="#6AE8E3"/>
<path d="M516.59 352.4H491.993V330.387H516.59V352.4Z" fill="#6AE8E3"/>
<path d="M516.59 374.428H491.993V352.4H516.59V374.428Z" fill="#6AE8E3"/>
<path d="M516.59 396.441H491.993V374.428H516.59V396.441Z" fill="#6AE8E3"/>
<path d="M516.59 418.455H491.993V396.442H516.59V418.455Z" fill="#6AE8E3"/>
<path d="M516.59 440.468H491.993V418.455H516.59V440.468Z" fill="#6AE8E3"/>
<path d="M516.59 462.48H491.993V440.467H516.59V462.48Z" fill="#6AE8E3"/>
<path d="M516.59 484.493H491.993V462.48H516.59V484.493Z" fill="#6AE8E3"/>
<path d="M491.992 66.2001H467.395V44.1872H491.992V66.2001Z" fill="#6AE8E3"/>
<path d="M491.992 88.2135H467.395V66.2004H491.992V88.2135Z" fill="#6AE8E3"/>
<path d="M491.992 110.242H467.395V88.2135H491.992V110.242Z" fill="#6AE8E3"/>
<path d="M491.992 132.255H467.395V110.242H491.992V132.255Z" fill="#6AE8E3"/>
<path d="M491.992 154.268H467.395V132.255H491.992V154.268Z" fill="#6AE8E3"/>
<path d="M491.992 176.281H467.395V154.268H491.992V176.281Z" fill="#6AE8E3"/>
<path d="M491.992 198.293H467.395V176.28H491.992V198.293Z" fill="#6AE8E3"/>
<path d="M491.992 220.306H467.395V198.293H491.992V220.306Z" fill="#6AE8E3"/>
<path d="M491.992 242.335H467.395V220.307H491.992V242.335Z" fill="#6AE8E3"/>
<path d="M491.992 264.348H467.395V242.335H491.992V264.348Z" fill="#6AE8E3"/>
<path d="M491.992 286.361H467.395V264.348H491.992V286.361Z" fill="#6AE8E3"/>
<path d="M491.992 308.374H467.395V286.361H491.992V308.374Z" fill="#6AE8E3"/>
<path d="M491.992 330.387H467.395V308.374H491.992V330.387Z" fill="#6AE8E3"/>
<path d="M491.992 352.4H467.395V330.387H491.992V352.4Z" fill="#6AE8E3"/>
<path d="M491.992 374.428H467.395V352.4H491.992V374.428Z" fill="#6AE8E3"/>
<path d="M491.992 396.441H467.395V374.428H491.992V396.441Z" fill="#6AE8E3"/>
<path d="M491.992 418.455H467.395V396.442H491.992V418.455Z" fill="#6AE8E3"/>
<path d="M491.992 440.468H467.395V418.455H491.992V440.468Z" fill="#6AE8E3"/>
<path d="M491.992 462.48H467.395V440.467H491.992V462.48Z" fill="#6AE8E3"/>
<path d="M467.395 66.2001H442.798V44.1872H467.395V66.2001Z" fill="#6AE8E3"/>
<path d="M467.395 88.2135H442.798V66.2004H467.395V88.2135Z" fill="#6AE8E3"/>
<path d="M467.395 110.242H442.798V88.2135H467.395V110.242Z" fill="#6AE8E3"/>
<path d="M467.395 132.255H442.798V110.242H467.395V132.255Z" fill="#6AE8E3"/>
<path d="M467.395 154.268H442.798V132.255H467.395V154.268Z" fill="#6AE8E3"/>
<path d="M467.395 176.281H442.798V154.268H467.395V176.281Z" fill="#6AE8E3"/>
<path d="M467.395 198.293H442.798V176.28H467.395V198.293Z" fill="#6AE8E3"/>
<path d="M467.395 220.306H442.798V198.293H467.395V220.306Z" fill="#6AE8E3"/>
<path d="M467.395 242.335H442.798V220.307H467.395V242.335Z" fill="#6AE8E3"/>
<path d="M467.395 264.348H442.798V242.335H467.395V264.348Z" fill="#6AE8E3"/>
<path d="M467.395 286.361H442.798V264.348H467.395V286.361Z" fill="#6AE8E3"/>
<path d="M467.395 308.374H442.798V286.361H467.395V308.374Z" fill="#6AE8E3"/>
<path d="M467.395 330.387H442.798V308.374H467.395V330.387Z" fill="#6AE8E3"/>
<path d="M467.395 352.4H442.798V330.387H467.395V352.4Z" fill="#6AE8E3"/>
<path d="M467.395 374.428H442.798V352.4H467.395V374.428Z" fill="#6AE8E3"/>
<path d="M467.395 396.441H442.798V374.428H467.395V396.441Z" fill="#6AE8E3"/>
<path d="M467.395 418.455H442.798V396.442H467.395V418.455Z" fill="#6AE8E3"/>
<path d="M467.395 440.468H442.798V418.455H467.395V440.468Z" fill="#6AE8E3"/>
<path d="M442.798 44.1873H418.184V22.1742H442.798V44.1873Z" fill="#6AE8E3"/>
<path d="M442.798 66.2001H418.184V44.1872H442.798V66.2001Z" fill="#6AE8E3"/>
<path d="M442.798 88.2135H418.184V66.2004H442.798V88.2135Z" fill="#6AE8E3"/>
<path d="M442.798 110.242H418.184V88.2135H442.798V110.242Z" fill="#6AE8E3"/>
<path d="M442.798 132.255H418.184V110.242H442.798V132.255Z" fill="#6AE8E3"/>
<path d="M442.798 154.268H418.184V132.255H442.798V154.268Z" fill="#6AE8E3"/>
<path d="M442.798 176.281H418.184V154.268H442.798V176.281Z" fill="#6AE8E3"/>
<path d="M442.798 198.293H418.184V176.28H442.798V198.293Z" fill="#6AE8E3"/>
<path d="M442.798 220.306H418.184V198.293H442.798V220.306Z" fill="#6AE8E3"/>
<path d="M442.798 242.335H418.184V220.307H442.798V242.335Z" fill="#6AE8E3"/>
<path d="M442.798 264.348H418.184V242.335H442.798V264.348Z" fill="#6AE8E3"/>
<path d="M442.798 286.361H418.184V264.348H442.798V286.361Z" fill="#6AE8E3"/>
<path d="M442.798 308.374H418.184V286.361H442.798V308.374Z" fill="#6AE8E3"/>
<path d="M442.798 330.387H418.184V308.374H442.798V330.387Z" fill="#6AE8E3"/>
<path d="M442.798 352.4H418.184V330.387H442.798V352.4Z" fill="#6AE8E3"/>
<path d="M442.798 374.428H418.184V352.4H442.798V374.428Z" fill="#6AE8E3"/>
<path d="M442.798 396.441H418.184V374.428H442.798V396.441Z" fill="#6AE8E3"/>
<path d="M442.798 418.455H418.184V396.442H442.798V418.455Z" fill="#6AE8E3"/>
<path d="M442.798 440.468H418.184V418.455H442.798V440.468Z" fill="#6AE8E3"/>
<path d="M418.185 44.1873H393.588V22.1742H418.185V44.1873Z" fill="#6AE8E3"/>
<path d="M418.185 66.2001H393.588V44.1872H418.185V66.2001Z" fill="#6AE8E3"/>
<path d="M418.185 88.2135H393.588V66.2004H418.185V88.2135Z" fill="#6AE8E3"/>
<path d="M418.185 110.242H393.588V88.2135H418.185V110.242Z" fill="#6AE8E3"/>
<path d="M418.185 132.255H393.588V110.242H418.185V132.255Z" fill="#6AE8E3"/>
<path d="M418.185 154.268H393.588V132.255H418.185V154.268Z" fill="#6AE8E3"/>
<path d="M418.185 176.281H393.588V154.268H418.185V176.281Z" fill="#6AE8E3"/>
<path d="M418.185 198.293H393.588V176.28H418.185V198.293Z" fill="#6AE8E3"/>
<path d="M418.185 220.306H393.588V198.293H418.185V220.306Z" fill="#6AE8E3"/>
<path d="M418.185 242.335H393.588V220.307H418.185V242.335Z" fill="#6AE8E3"/>
<path d="M418.185 264.348H393.588V242.335H418.185V264.348Z" fill="#6AE8E3"/>
<path d="M418.185 286.361H393.588V264.348H418.185V286.361Z" fill="#6AE8E3"/>
<path d="M418.185 308.374H393.588V286.361H418.185V308.374Z" fill="#6AE8E3"/>
<path d="M418.185 330.387H393.588V308.374H418.185V330.387Z" fill="#6AE8E3"/>
<path d="M418.185 352.4H393.588V330.387H418.185V352.4Z" fill="#6AE8E3"/>
<path d="M418.185 374.428H393.588V352.4H418.185V374.428Z" fill="#6AE8E3"/>
<path d="M418.185 396.441H393.588V374.428H418.185V396.441Z" fill="#6AE8E3"/>
<path d="M418.185 418.455H393.588V396.442H418.185V418.455Z" fill="#6AE8E3"/>
<path d="M393.586 66.2001H368.989V44.1872H393.586V66.2001Z" fill="#6AE8E3"/>
<path d="M393.586 88.2135H368.989V66.2004H393.586V88.2135Z" fill="#6AE8E3"/>
<path d="M393.586 110.242H368.989V88.2135H393.586V110.242Z" fill="#6AE8E3"/>
<path d="M393.586 132.255H368.989V110.242H393.586V132.255Z" fill="#6AE8E3"/>
<path d="M393.586 154.268H368.989V132.255H393.586V154.268Z" fill="#6AE8E3"/>
<path d="M393.586 176.281H368.989V154.268H393.586V176.281Z" fill="#6AE8E3"/>
<path d="M393.586 198.293H368.989V176.28H393.586V198.293Z" fill="#6AE8E3"/>
<path d="M393.586 220.306H368.989V198.293H393.586V220.306Z" fill="#6AE8E3"/>
<path d="M393.586 242.335H368.989V220.307H393.586V242.335Z" fill="#6AE8E3"/>
<path d="M393.586 264.348H368.989V242.335H393.586V264.348Z" fill="#6AE8E3"/>
<path d="M393.586 286.361H368.989V264.348H393.586V286.361Z" fill="#6AE8E3"/>
<path d="M393.586 308.374H368.989V286.361H393.586V308.374Z" fill="#6AE8E3"/>
<path d="M393.586 330.387H368.989V308.374H393.586V330.387Z" fill="#6AE8E3"/>
<path d="M393.586 352.4H368.989V330.387H393.586V352.4Z" fill="#6AE8E3"/>
<path d="M393.586 374.428H368.989V352.4H393.586V374.428Z" fill="#6AE8E3"/>
<path d="M393.586 396.441H368.989V374.428H393.586V396.441Z" fill="#6AE8E3"/>
<path d="M393.586 418.455H368.989V396.442H393.586V418.455Z" fill="#6AE8E3"/>
<path d="M368.99 66.2001H344.393V44.1872H368.99V66.2001Z" fill="#6AE8E3"/>
<path d="M368.99 88.2135H344.393V66.2004H368.99V88.2135Z" fill="#6AE8E3"/>
<path d="M368.99 110.242H344.393V88.2135H368.99V110.242Z" fill="#6AE8E3"/>
<path d="M368.99 132.255H344.393V110.242H368.99V132.255Z" fill="#6AE8E3"/>
<path d="M368.99 154.268H344.393V132.255H368.99V154.268Z" fill="#6AE8E3"/>
<path d="M368.99 176.281H344.393V154.268H368.99V176.281Z" fill="#6AE8E3"/>
<path d="M368.99 198.293H344.393V176.28H368.99V198.293Z" fill="#6AE8E3"/>
<path d="M368.99 220.306H344.393V198.293H368.99V220.306Z" fill="#6AE8E3"/>
<path d="M368.99 242.335H344.393V220.307H368.99V242.335Z" fill="#6AE8E3"/>
<path d="M368.99 264.348H344.393V242.335H368.99V264.348Z" fill="#6AE8E3"/>
<path d="M368.99 286.361H344.393V264.348H368.99V286.361Z" fill="#6AE8E3"/>
<path d="M368.99 308.374H344.393V286.361H368.99V308.374Z" fill="#6AE8E3"/>
<path d="M368.99 330.387H344.393V308.374H368.99V330.387Z" fill="#6AE8E3"/>
<path d="M368.99 352.4H344.393V330.387H368.99V352.4Z" fill="#6AE8E3"/>
<path d="M368.99 374.428H344.393V352.4H368.99V374.428Z" fill="#6AE8E3"/>
<path d="M368.99 396.441H344.393V374.428H368.99V396.441Z" fill="#6AE8E3"/>
<path d="M368.99 418.455H344.393V396.442H368.99V418.455Z" fill="#6AE8E3"/>
<path d="M344.392 66.2001H319.795V44.1872H344.392V66.2001Z" fill="#6AE8E3"/>
<path d="M344.392 88.2135H319.795V66.2004H344.392V88.2135Z" fill="#6AE8E3"/>
<path d="M344.392 110.242H319.795V88.2135H344.392V110.242Z" fill="#6AE8E3"/>
<path d="M344.392 132.255H319.795V110.242H344.392V132.255Z" fill="#6AE8E3"/>
<path d="M344.392 154.268H319.795V132.255H344.392V154.268Z" fill="#6AE8E3"/>
<path d="M344.392 176.281H319.795V154.268H344.392V176.281Z" fill="#6AE8E3"/>
<path d="M344.392 198.293H319.795V176.28H344.392V198.293Z" fill="#6AE8E3"/>
<path d="M344.392 220.306H319.795V198.293H344.392V220.306Z" fill="#6AE8E3"/>
<path d="M344.392 242.335H319.795V220.307H344.392V242.335Z" fill="#6AE8E3"/>
<path d="M344.392 264.348H319.795V242.335H344.392V264.348Z" fill="#6AE8E3"/>
<path d="M344.392 286.361H319.795V264.348H344.392V286.361Z" fill="#6AE8E3"/>
<path d="M344.392 308.374H319.795V286.361H344.392V308.374Z" fill="#6AE8E3"/>
<path d="M344.392 330.387H319.795V308.374H344.392V330.387Z" fill="#6AE8E3"/>
<path d="M344.392 352.4H319.795V330.387H344.392V352.4Z" fill="#6AE8E3"/>
<path d="M344.392 374.428H319.795V352.4H344.392V374.428Z" fill="#6AE8E3"/>
<path d="M344.392 396.441H319.795V374.428H344.392V396.441Z" fill="#6AE8E3"/>
<path d="M319.795 44.1873H295.198V22.1742H319.795V44.1873Z" fill="#6AE8E3"/>
<path d="M319.795 88.2135H295.198V66.2004H319.795V88.2135Z" fill="#6AE8E3"/>
<path d="M319.795 110.242H295.198V88.2135H319.795V110.242Z" fill="#6AE8E3"/>
<path d="M319.795 132.255H295.198V110.242H319.795V132.255Z" fill="#6AE8E3"/>
<path d="M319.795 154.268H295.198V132.255H319.795V154.268Z" fill="#6AE8E3"/>
<path d="M319.795 176.281H295.198V154.268H319.795V176.281Z" fill="#6AE8E3"/>
<path d="M319.795 198.293H295.198V176.28H319.795V198.293Z" fill="#6AE8E3"/>
<path d="M319.795 220.306H295.198V198.293H319.795V220.306Z" fill="#6AE8E3"/>
<path d="M319.795 242.335H295.198V220.307H319.795V242.335Z" fill="#6AE8E3"/>
<path d="M319.795 264.348H295.198V242.335H319.795V264.348Z" fill="#6AE8E3"/>
<path d="M319.795 286.361H295.198V264.348H319.795V286.361Z" fill="#6AE8E3"/>
<path d="M319.795 308.374H295.198V286.361H319.795V308.374Z" fill="#6AE8E3"/>
<path d="M319.795 330.387H295.198V308.374H319.795V330.387Z" fill="#6AE8E3"/>
<path d="M319.795 352.4H295.198V330.387H319.795V352.4Z" fill="#6AE8E3"/>
<path d="M319.795 374.428H295.198V352.4H319.795V374.428Z" fill="#6AE8E3"/>
<path d="M319.795 396.441H295.198V374.428H319.795V396.441Z" fill="#6AE8E3"/>
<path d="M319.795 462.48H295.198V440.467H319.795V462.48Z" fill="#6AE8E3"/>
<path d="M319.795 484.493H295.198V462.48H319.795V484.493Z" fill="#BFEFED"/>
<path d="M295.199 66.2001H270.585V44.1872H295.199V66.2001Z" fill="#6AE8E3"/>
<path d="M295.199 88.2135H270.585V66.2004H295.199V88.2135Z" fill="#6AE8E3"/>
<path d="M295.199 110.242H270.585V88.2135H295.199V110.242Z" fill="#6AE8E3"/>
<path d="M295.199 132.255H270.585V110.242H295.199V132.255Z" fill="#6AE8E3"/>
<path d="M295.199 154.268H270.585V132.255H295.199V154.268Z" fill="#6AE8E3"/>
<path d="M295.199 176.281H270.585V154.268H295.199V176.281Z" fill="#6AE8E3"/>
<path d="M295.199 198.293H270.585V176.28H295.199V198.293Z" fill="#6AE8E3"/>
<path d="M295.199 220.306H270.585V198.293H295.199V220.306Z" fill="#6AE8E3"/>
<path d="M295.199 242.335H270.585V220.307H295.199V242.335Z" fill="#6AE8E3"/>
<path d="M295.199 264.348H270.585V242.335H295.199V264.348Z" fill="#6AE8E3"/>
<path d="M295.199 286.361H270.585V264.348H295.199V286.361Z" fill="#6AE8E3"/>
<path d="M295.199 308.374H270.585V286.361H295.199V308.374Z" fill="#6AE8E3"/>
<path d="M295.199 330.387H270.585V308.374H295.199V330.387Z" fill="#6AE8E3"/>
<path d="M295.199 352.4H270.585V330.387H295.199V352.4Z" fill="#6AE8E3"/>
<path d="M295.199 374.428H270.585V352.4H295.199V374.428Z" fill="#6AE8E3"/>
<path d="M295.199 396.441H270.585V374.428H295.199V396.441Z" fill="#6AE8E3"/>
<path d="M270.585 66.2001H245.988V44.1872H270.585V66.2001Z" fill="#6AE8E3"/>
<path d="M270.585 88.2135H245.988V66.2004H270.585V88.2135Z" fill="#6AE8E3"/>
<path d="M270.585 110.242H245.988V88.2135H270.585V110.242Z" fill="#6AE8E3"/>
<path d="M270.585 132.255H245.988V110.242H270.585V132.255Z" fill="#6AE8E3"/>
<path d="M270.585 154.268H245.988V132.255H270.585V154.268Z" fill="#6AE8E3"/>
<path d="M270.585 176.281H245.988V154.268H270.585V176.281Z" fill="#6AE8E3"/>
<path d="M270.585 198.293H245.988V176.28H270.585V198.293Z" fill="#6AE8E3"/>
<path d="M270.585 220.306H245.988V198.293H270.585V220.306Z" fill="#6AE8E3"/>
<path d="M270.585 242.335H245.988V220.307H270.585V242.335Z" fill="#6AE8E3"/>
<path d="M270.585 264.348H245.988V242.335H270.585V264.348Z" fill="#6AE8E3"/>
<path d="M270.585 286.361H245.988V264.348H270.585V286.361Z" fill="#6AE8E3"/>
<path d="M270.585 308.374H245.988V286.361H270.585V308.374Z" fill="#6AE8E3"/>
<path d="M270.585 330.387H245.988V308.374H270.585V330.387Z" fill="#6AE8E3"/>
<path d="M270.585 352.4H245.988V330.387H270.585V352.4Z" fill="#6AE8E3"/>
<path d="M270.585 374.428H245.988V352.4H270.585V374.428Z" fill="#6AE8E3"/>
<path d="M270.585 396.441H245.988V374.428H270.585V396.441Z" fill="#BFEFED"/>
<path d="M270.585 440.468H245.988V418.455H270.585V440.468Z" fill="#BFEFED"/>
<path d="M245.988 44.1873H221.391V22.1742H245.988V44.1873Z" fill="#6AE8E3"/>
<path d="M245.988 66.2001H221.391V44.1872H245.988V66.2001Z" fill="#6AE8E3"/>
<path d="M245.988 88.2135H221.391V66.2004H245.988V88.2135Z" fill="#6AE8E3"/>
<path d="M245.988 110.242H221.391V88.2135H245.988V110.242Z" fill="#6AE8E3"/>
<path d="M245.988 132.255H221.391V110.242H245.988V132.255Z" fill="#6AE8E3"/>
<path d="M245.988 154.268H221.391V132.255H245.988V154.268Z" fill="#6AE8E3"/>
<path d="M245.988 176.281H221.391V154.268H245.988V176.281Z" fill="#6AE8E3"/>
<path d="M245.988 198.293H221.391V176.28H245.988V198.293Z" fill="#6AE8E3"/>
<path d="M245.988 220.306H221.391V198.293H245.988V220.306Z" fill="#6AE8E3"/>
<path d="M245.988 242.335H221.391V220.307H245.988V242.335Z" fill="#6AE8E3"/>
<path d="M245.988 264.348H221.391V242.335H245.988V264.348Z" fill="#6AE8E3"/>
<path d="M245.988 286.361H221.391V264.348H245.988V286.361Z" fill="#6AE8E3"/>
<path d="M245.988 308.374H221.391V286.361H245.988V308.374Z" fill="#6AE8E3"/>
<path d="M245.988 330.387H221.391V308.374H245.988V330.387Z" fill="#6AE8E3"/>
<path d="M245.988 352.4H221.391V330.387H245.988V352.4Z" fill="#6AE8E3"/>
<path d="M245.988 374.428H221.391V352.4H245.988V374.428Z" fill="#6AE8E3"/>
<path d="M245.988 396.441H221.391V374.428H245.988V396.441Z" fill="#6AE8E3"/>
<path d="M245.988 418.455H221.391V396.442H245.988V418.455Z" fill="#6AE8E3"/>
<path d="M245.988 440.468H221.391V418.455H245.988V440.468Z" fill="#6AE8E3"/>
<path d="M221.39 66.2001H196.793V44.1872H221.39V66.2001Z" fill="#6AE8E3"/>
<path d="M221.39 88.2135H196.793V66.2004H221.39V88.2135Z" fill="#6AE8E3"/>
<path d="M221.39 110.242H196.793V88.2135H221.39V110.242Z" fill="#BFEFED"/>
<path d="M221.39 132.255H196.793V110.242H221.39V132.255Z" fill="#BFEFED"/>
<path d="M221.39 154.268H196.793V132.255H221.39V154.268Z" fill="#6AE8E3"/>
<path d="M221.39 176.281H196.793V154.268H221.39V176.281Z" fill="#6AE8E3"/>
<path d="M221.39 198.293H196.793V176.28H221.39V198.293Z" fill="#6AE8E3"/>
<path d="M221.39 220.306H196.793V198.293H221.39V220.306Z" fill="#6AE8E3"/>
<path d="M221.39 242.335H196.793V220.307H221.39V242.335Z" fill="#BFEFED"/>
<path d="M221.39 264.348H196.793V242.335H221.39V264.348Z" fill="#BFEFED"/>
<path d="M221.39 286.361H196.793V264.348H221.39V286.361Z" fill="#BFEFED"/>
<path d="M221.39 308.374H196.793V286.361H221.39V308.374Z" fill="#6AE8E3"/>
<path d="M221.39 330.387H196.793V308.374H221.39V330.387Z" fill="#6AE8E3"/>
<path d="M221.39 352.4H196.793V330.387H221.39V352.4Z" fill="#6AE8E3"/>
<path d="M221.39 374.428H196.793V352.4H221.39V374.428Z" fill="#6AE8E3"/>
<path d="M221.39 396.441H196.793V374.428H221.39V396.441Z" fill="#6AE8E3"/>
<path d="M221.39 418.455H196.793V396.442H221.39V418.455Z" fill="#6AE8E3"/>
<path d="M221.39 440.468H196.793V418.455H221.39V440.468Z" fill="#6AE8E3"/>
<path d="M221.39 484.493H196.793V462.48H221.39V484.493Z" fill="#BFEFED"/>
<path d="M196.794 44.1873H172.197V22.1742H196.794V44.1873Z" fill="#BFEFED"/>
<path d="M196.794 66.2001H172.197V44.1872H196.794V66.2001Z" fill="#6AE8E3"/>
<path d="M196.794 88.2135H172.197V66.2004H196.794V88.2135Z" fill="#6AE8E3"/>
<path d="M196.794 110.242H172.197V88.2135H196.794V110.242Z" fill="#6AE8E3"/>
<path d="M196.794 132.255H172.197V110.242H196.794V132.255Z" fill="#6AE8E3"/>
<path d="M196.794 154.268H172.197V132.255H196.794V154.268Z" fill="#BFEFED"/>
<path d="M196.794 176.281H172.197V154.268H196.794V176.281Z" fill="#6AE8E3"/>
<path d="M196.794 198.293H172.197V176.28H196.794V198.293Z" fill="#6AE8E3"/>
<path d="M196.794 220.306H172.197V198.293H196.794V220.306Z" fill="#6AE8E3"/>
<path d="M196.794 242.335H172.197V220.307H196.794V242.335Z" fill="#6AE8E3"/>
<path d="M196.794 264.348H172.197V242.335H196.794V264.348Z" fill="#6AE8E3"/>
<path d="M196.794 286.361H172.197V264.348H196.794V286.361Z" fill="#6AE8E3"/>
<path d="M196.794 308.374H172.197V286.361H196.794V308.374Z" fill="#6AE8E3"/>
<path d="M196.794 330.387H172.197V308.374H196.794V330.387Z" fill="#6AE8E3"/>
<path d="M196.794 352.4H172.197V330.387H196.794V352.4Z" fill="#6AE8E3"/>
<path d="M196.794 374.428H172.197V352.4H196.794V374.428Z" fill="#6AE8E3"/>
<path d="M196.794 396.441H172.197V374.428H196.794V396.441Z" fill="#BFEFED"/>
<path d="M196.794 418.455H172.197V396.442H196.794V418.455Z" fill="#6AE8E3"/>
<path d="M196.794 440.468H172.197V418.455H196.794V440.468Z" fill="#BFEFED"/>
<path d="M172.196 22.1744H147.599V0.161377H172.196V22.1744Z" fill="#6AE8E3"/>
<path d="M172.196 44.1873H147.599V22.1742H172.196V44.1873Z" fill="#BFEFED"/>
<path d="M172.196 66.2001H147.599V44.1872H172.196V66.2001Z" fill="#BFEFED"/>
<path d="M172.196 88.2135H147.599V66.2004H172.196V88.2135Z" fill="#6AE8E3"/>
<path d="M172.196 110.242H147.599V88.2135H172.196V110.242Z" fill="#6AE8E3"/>
<path d="M172.196 132.255H147.599V110.242H172.196V132.255Z" fill="#6AE8E3"/>
<path d="M172.196 154.268H147.599V132.255H172.196V154.268Z" fill="#6AE8E3"/>
<path d="M172.196 176.281H147.599V154.268H172.196V176.281Z" fill="#6AE8E3"/>
<path d="M172.196 198.293H147.599V176.28H172.196V198.293Z" fill="#6AE8E3"/>
<path d="M172.196 220.306H147.599V198.293H172.196V220.306Z" fill="#6AE8E3"/>
<path d="M172.196 242.335H147.599V220.307H172.196V242.335Z" fill="#6AE8E3"/>
<path d="M172.196 264.348H147.599V242.335H172.196V264.348Z" fill="#6AE8E3"/>
<path d="M172.196 286.361H147.599V264.348H172.196V286.361Z" fill="#6AE8E3"/>
<path d="M172.196 308.374H147.599V286.361H172.196V308.374Z" fill="#6AE8E3"/>
<path d="M172.196 330.387H147.599V308.374H172.196V330.387Z" fill="#6AE8E3"/>
<path d="M172.196 352.4H147.599V330.387H172.196V352.4Z" fill="#6AE8E3"/>
<path d="M172.196 374.428H147.599V352.4H172.196V374.428Z" fill="#6AE8E3"/>
<path d="M172.196 396.441H147.599V374.428H172.196V396.441Z" fill="#6AE8E3"/>
<path d="M172.196 418.455H147.599V396.442H172.196V418.455Z" fill="#6AE8E3"/>
<path d="M147.599 44.1873H122.985V22.1742H147.599V44.1873Z" fill="#6AE8E3"/>
<path d="M147.599 66.2001H122.985V44.1872H147.599V66.2001Z" fill="#BFEFED"/>
<path d="M147.599 88.2135H122.985V66.2004H147.599V88.2135Z" fill="#6AE8E3"/>
<path d="M147.599 110.242H122.985V88.2135H147.599V110.242Z" fill="#6AE8E3"/>
<path d="M147.599 132.255H122.985V110.242H147.599V132.255Z" fill="#6AE8E3"/>
<path d="M147.599 154.268H122.985V132.255H147.599V154.268Z" fill="#6AE8E3"/>
<path d="M147.599 176.281H122.985V154.268H147.599V176.281Z" fill="#6AE8E3"/>
<path d="M147.599 198.293H122.985V176.28H147.599V198.293Z" fill="#6AE8E3"/>
<path d="M147.599 220.306H122.985V198.293H147.599V220.306Z" fill="#6AE8E3"/>
<path d="M147.599 242.335H122.985V220.307H147.599V242.335Z" fill="#6AE8E3"/>
<path d="M147.599 264.348H122.985V242.335H147.599V264.348Z" fill="#6AE8E3"/>
<path d="M147.599 286.361H122.985V264.348H147.599V286.361Z" fill="#6AE8E3"/>
<path d="M147.599 308.374H122.985V286.361H147.599V308.374Z" fill="#6AE8E3"/>
<path d="M147.599 330.387H122.985V308.374H147.599V330.387Z" fill="#BFEFED"/>
<path d="M147.599 352.4H122.985V330.387H147.599V352.4Z" fill="#BFEFED"/>
<path d="M147.599 374.428H122.985V352.4H147.599V374.428Z" fill="#6AE8E3"/>
<path d="M147.599 396.441H122.985V374.428H147.599V396.441Z" fill="#6AE8E3"/>
<path d="M147.599 418.455H122.985V396.442H147.599V418.455Z" fill="#6AE8E3"/>
<path d="M122.985 88.2135H98.3882V66.2004H122.985V88.2135Z" fill="#6AE8E3"/>
<path d="M122.985 110.242H98.3882V88.2135H122.985V110.242Z" fill="#6AE8E3"/>
<path d="M122.985 132.255H98.3882V110.242H122.985V132.255Z" fill="#6AE8E3"/>
<path d="M122.985 176.281H98.3882V154.268H122.985V176.281Z" fill="#6AE8E3"/>
<path d="M122.985 198.293H98.3882V176.28H122.985V198.293Z" fill="#6AE8E3"/>
<path d="M122.985 220.306H98.3882V198.293H122.985V220.306Z" fill="#BFEFED"/>
<path d="M122.985 242.335H98.3882V220.307H122.985V242.335Z" fill="#6AE8E3"/>
<path d="M122.985 264.348H98.3882V242.335H122.985V264.348Z" fill="#6AE8E3"/>
<path d="M122.985 286.361H98.3882V264.348H122.985V286.361Z" fill="#6AE8E3"/>
<path d="M122.985 308.374H98.3882V286.361H122.985V308.374Z" fill="#6AE8E3"/>
<path d="M122.985 330.387H98.3882V308.374H122.985V330.387Z" fill="#6AE8E3"/>
<path d="M122.985 352.4H98.3882V330.387H122.985V352.4Z" fill="#BFEFED"/>
<path d="M122.985 374.428H98.3882V352.4H122.985V374.428Z" fill="#BFEFED"/>
<path d="M98.3886 88.2135H73.7915V66.2004H98.3886V88.2135Z" fill="#6AE8E3"/>
<path d="M98.3886 198.293H73.7915V176.28H98.3886V198.293Z" fill="#6AE8E3"/>
<path d="M98.3886 220.306H73.7915V198.293H98.3886V220.306Z" fill="#BFEFED"/>
<path d="M98.3886 242.335H73.7915V220.307H98.3886V242.335Z" fill="#6AE8E3"/>
<path d="M98.3886 264.348H73.7915V242.335H98.3886V264.348Z" fill="#6AE8E3"/>
<path d="M98.3886 286.361H73.7915V264.348H98.3886V286.361Z" fill="#6AE8E3"/>
<path d="M98.3886 308.374H73.7915V286.361H98.3886V308.374Z" fill="#6AE8E3"/>
<path d="M98.3886 330.387H73.7915V308.374H98.3886V330.387Z" fill="#6AE8E3"/>
<path d="M98.3886 352.4H73.7915V330.387H98.3886V352.4Z" fill="#6AE8E3"/>
<path d="M98.3886 374.428H73.7915V352.4H98.3886V374.428Z" fill="#6AE8E3"/>
<path d="M98.3886 440.468H73.7915V418.455H98.3886V440.468Z" fill="#6AE8E3"/>
<path d="M73.7919 88.2135H49.1948V66.2004H73.7919V88.2135Z" fill="#6AE8E3"/>
<path d="M73.7919 220.306H49.1948V198.293H73.7919V220.306Z" fill="#6AE8E3"/>
<path d="M73.7919 242.335H49.1948V220.307H73.7919V242.335Z" fill="#6AE8E3"/>
<path d="M73.7919 264.348H49.1948V242.335H73.7919V264.348Z" fill="#BFEFED"/>
<path d="M73.7919 286.361H49.1948V264.348H73.7919V286.361Z" fill="#BFEFED"/>
<path d="M73.7919 308.374H49.1948V286.361H73.7919V308.374Z" fill="#6AE8E3"/>
<path d="M73.7919 330.387H49.1948V308.374H73.7919V330.387Z" fill="#6AE8E3"/>
<path d="M73.7919 352.4H49.1948V330.387H73.7919V352.4Z" fill="#6AE8E3"/>
<path d="M49.1942 66.2001H24.5972V44.1872H49.1942V66.2001Z" fill="#6AE8E3"/>
<path d="M49.1942 88.2135H24.5972V66.2004H49.1942V88.2135Z" fill="#BFEFED"/>
<path d="M49.1942 220.306H24.5972V198.293H49.1942V220.306Z" fill="#6AE8E3"/>
<path d="M49.1942 242.335H24.5972V220.307H49.1942V242.335Z" fill="#6AE8E3"/>
<path d="M49.1942 264.348H24.5972V242.335H49.1942V264.348Z" fill="#6AE8E3"/>
<path d="M49.1942 286.361H24.5972V264.348H49.1942V286.361Z" fill="#6AE8E3"/>
</svg>
