<svg fill="none" height="377" viewBox="0 0 554 377" width="554" xmlns="http://www.w3.org/2000/svg"><path d="m410.971 36.3174h-17.863v17.8811h17.863z" fill="#1fbab4"/><path d="m393.114 18.4363h-17.876v17.8811h17.876z" fill="#1fbab4"/><path d="m553.874 233.017h-17.863v17.881h17.863z" fill="#bfefed"/><path d="m500.291 233.017h-17.876v17.881h17.876z" fill="#1fbab4"/><path d="m482.416 286.653h-17.863v17.895h17.863z" fill="#1fbab4"/><path d="m482.416 233.017h-17.863v17.881h17.863z" fill="#1fbab4"/><path d="m482.416 215.136h-17.863v17.881h17.863z" fill="#1fbab4"/><path d="m482.416 179.36h-17.863v17.895h17.863z" fill="#1fbab4"/><path d="m464.553 268.772h-17.863v17.881h17.863z" fill="#1fbab4"/><path d="m464.553 233.017h-17.863v17.881h17.863z" fill="#1fbab4"/><path d="m464.553 215.136h-17.863v17.881h17.863z" fill="#1fbab4"/><path d="m464.553 197.254h-17.863v17.882h17.863z" fill="#1fbab4"/><path d="m464.553 179.36h-17.863v17.895h17.863z" fill="#1fbab4"/><path d="m464.553 161.485h-17.863v17.881h17.863z" fill="#1fbab4"/><path d="m464.553 89.9678h-17.863v17.8812h17.863z" fill="#1fbab4"/><path d="m446.696 286.653h-17.863v17.895h17.863z" fill="#1fbab4"/><path d="m446.696 268.772h-17.863v17.881h17.863z" fill="#bfefed"/><path d="m446.696 250.891h-17.863v17.881h17.863z" fill="#1fbab4"/><path d="m446.696 233.017h-17.863v17.881h17.863z" fill="#1fbab4"/><path d="m446.696 215.136h-17.863v17.881h17.863z" fill="#1fbab4"/><path d="m446.696 197.254h-17.863v17.882h17.863z" fill="#1fbab4"/><path d="m446.696 179.36h-17.863v17.895h17.863z" fill="#1fbab4"/><path d="m446.696 161.485h-17.863v17.881h17.863z" fill="#1fbab4"/><path d="m446.696 143.604h-17.863v17.882h17.863z" fill="#1fbab4"/><path d="m446.696 125.723h-17.863v17.881h17.863z" fill="#1fbab4"/><path d="m428.834 340.303h-17.863v17.881h17.863z" fill="#1fbab4"/><path d="m428.834 322.422h-17.863v17.882h17.863z" fill="#1fbab4"/><path d="m428.834 286.653h-17.863v17.895h17.863z" fill="#1fbab4"/><path d="m428.834 268.772h-17.863v17.881h17.863z" fill="#1fbab4"/><path d="m428.834 250.891h-17.863v17.881h17.863z" fill="#1fbab4"/><path d="m428.834 233.017h-17.863v17.881h17.863z" fill="#1fbab4"/><path d="m428.834 215.136h-17.863v17.881h17.863z" fill="#1fbab4"/><path d="m428.834 197.254h-17.863v17.882h17.863z" fill="#1fbab4"/><path d="m428.834 179.36h-17.863v17.895h17.863z" fill="#1fbab4"/><path d="m428.834 161.485h-17.863v17.881h17.863z" fill="#1fbab4"/><path d="m428.834 143.604h-17.863v17.882h17.863z" fill="#1fbab4"/><path d="m428.834 125.723h-17.863v17.881h17.863z" fill="#1fbab4"/><path d="m428.834 107.842h-17.863v17.881h17.863z" fill="#bfefed"/><path d="m428.834 54.1919h-17.863v17.8811h17.863z" fill="#bfefed"/><path d="m428.834 36.3174h-17.863v17.8811h17.863z" fill="#bfefed"/><path d="m410.971 340.303h-17.863v17.881h17.863z" fill="#1fbab4"/><path d="m410.971 322.422h-17.863v17.882h17.863z" fill="#1fbab4"/><path d="m410.971 304.542h-17.863v17.881h17.863z" fill="#1fbab4"/><path d="m410.971 286.653h-17.863v17.895h17.863z" fill="#1fbab4"/><path d="m410.971 268.772h-17.863v17.881h17.863z" fill="#1fbab4"/><path d="m410.971 250.891h-17.863v17.881h17.863z" fill="#1fbab4"/><path d="m410.971 233.017h-17.863v17.881h17.863z" fill="#1fbab4"/><path d="m410.971 215.136h-17.863v17.881h17.863z" fill="#1fbab4"/><path d="m410.971 197.254h-17.863v17.882h17.863z" fill="#1fbab4"/><path d="m410.971 179.36h-17.863v17.895h17.863z" fill="#1fbab4"/><path d="m410.971 161.485h-17.863v17.881h17.863z" fill="#1fbab4"/><path d="m410.971 143.604h-17.863v17.882h17.863z" fill="#1fbab4"/><path d="m410.971 125.723h-17.863v17.881h17.863z" fill="#1fbab4"/><path d="m410.971 107.842h-17.863v17.881h17.863z" fill="#1fbab4"/><path d="m410.971 89.9678h-17.863v17.8812h17.863z" fill="#1fbab4"/><path d="m410.971 72.0728h-17.863v17.8947h17.863z" fill="#1fbab4"/><path d="m410.971 54.1919h-17.863v17.8811h17.863z" fill="#bfefed"/><path d="m410.971 18.4363h-17.863v17.8811h17.863z" fill="#bfefed"/><path d="m393.114 340.303h-17.876v17.881h17.876z" fill="#1fbab4"/><path d="m393.114 322.422h-17.876v17.882h17.876z" fill="#1fbab4"/><path d="m393.114 304.542h-17.876v17.881h17.876z" fill="#1fbab4"/><path d="m393.114 286.653h-17.876v17.895h17.876z" fill="#1fbab4"/><path d="m393.114 268.772h-17.876v17.881h17.876z" fill="#1fbab4"/><path d="m393.114 250.891h-17.876v17.881h17.876z" fill="#1fbab4"/><path d="m393.114 233.017h-17.876v17.881h17.876z" fill="#1fbab4"/><path d="m393.114 215.136h-17.876v17.881h17.876z" fill="#1fbab4"/><path d="m393.114 197.254h-17.876v17.882h17.876z" fill="#1fbab4"/><path d="m393.114 179.36h-17.876v17.895h17.876z" fill="#1fbab4"/><path d="m393.114 161.485h-17.876v17.881h17.876z" fill="#1fbab4"/><path d="m393.114 143.604h-17.876v17.882h17.876z" fill="#1fbab4"/><path d="m393.114 125.723h-17.876v17.881h17.876z" fill="#1fbab4"/><path d="m393.114 107.842h-17.876v17.881h17.876z" fill="#1fbab4"/><path d="m393.114 89.9678h-17.876v17.8812h17.876z" fill="#1fbab4"/><path d="m393.114 72.0728h-17.876v17.8947h17.876z" fill="#bfefed"/><path d="m393.114 36.3174h-17.876v17.8811h17.876z" fill="#1fbab4"/><path d="m393.114.555176h-17.876v17.881124h17.876z" fill="#bfefed"/><path d="m375.238 340.303h-17.863v17.881h17.863z" fill="#1fbab4"/><path d="m375.238 322.422h-17.863v17.882h17.863z" fill="#1fbab4"/><path d="m375.238 304.542h-17.863v17.881h17.863z" fill="#1fbab4"/><path d="m375.238 286.653h-17.863v17.895h17.863z" fill="#1fbab4"/><path d="m375.238 268.772h-17.863v17.881h17.863z" fill="#1fbab4"/><path d="m375.238 250.891h-17.863v17.881h17.863z" fill="#1fbab4"/><path d="m375.238 233.017h-17.863v17.881h17.863z" fill="#1fbab4"/><path d="m375.238 215.136h-17.863v17.881h17.863z" fill="#1fbab4"/><path d="m375.238 197.254h-17.863v17.882h17.863z" fill="#1fbab4"/><path d="m375.238 179.36h-17.863v17.895h17.863z" fill="#1fbab4"/><path d="m375.238 161.485h-17.863v17.881h17.863z" fill="#1fbab4"/><path d="m375.238 143.604h-17.863v17.882h17.863z" fill="#1fbab4"/><path d="m375.238 125.723h-17.863v17.881h17.863z" fill="#1fbab4"/><path d="m375.238 107.842h-17.863v17.881h17.863z" fill="#1fbab4"/><path d="m375.238 89.9678h-17.863v17.8812h17.863z" fill="#1fbab4"/><path d="m375.238 72.0728h-17.863v17.8947h17.863z" fill="#1fbab4"/><path d="m375.238 36.3174h-17.863v17.8811h17.863z" fill="#1fbab4"/><path d="m375.238 18.4363h-17.863v17.8811h17.863z" fill="#1fbab4"/><path d="m357.376 358.185h-17.863v17.881h17.863z" fill="#1fbab4"/><path d="m357.376 340.303h-17.863v17.881h17.863z" fill="#1fbab4"/><path d="m357.376 322.422h-17.863v17.882h17.863z" fill="#1fbab4"/><path d="m357.376 304.542h-17.863v17.881h17.863z" fill="#1fbab4"/><path d="m357.376 286.653h-17.863v17.895h17.863z" fill="#1fbab4"/><path d="m357.376 268.772h-17.863v17.881h17.863z" fill="#1fbab4"/><path d="m357.376 250.891h-17.863v17.881h17.863z" fill="#1fbab4"/><path d="m357.376 233.017h-17.863v17.881h17.863z" fill="#1fbab4"/><path d="m357.376 215.136h-17.863v17.881h17.863z" fill="#1fbab4"/><path d="m357.376 197.254h-17.863v17.882h17.863z" fill="#1fbab4"/><path d="m357.376 179.36h-17.863v17.895h17.863z" fill="#1fbab4"/><path d="m357.376 161.485h-17.863v17.881h17.863z" fill="#1fbab4"/><path d="m357.376 143.604h-17.863v17.882h17.863z" fill="#1fbab4"/><path d="m357.376 125.723h-17.863v17.881h17.863z" fill="#1fbab4"/><path d="m357.376 107.842h-17.863v17.881h17.863z" fill="#1fbab4"/><path d="m357.376 89.9678h-17.863v17.8812h17.863z" fill="#bfefed"/><path d="m357.376 54.1919h-17.863v17.8811h17.863z" fill="#1fbab4"/><path d="m339.512 358.185h-17.863v17.881h17.863z" fill="#1fbab4"/><path d="m339.512 340.303h-17.863v17.881h17.863z" fill="#1fbab4"/><path d="m339.512 322.422h-17.863v17.882h17.863z" fill="#1fbab4"/><path d="m339.512 304.542h-17.863v17.881h17.863z" fill="#1fbab4"/><path d="m339.512 286.653h-17.863v17.895h17.863z" fill="#1fbab4"/><path d="m339.512 268.772h-17.863v17.881h17.863z" fill="#1fbab4"/><path d="m339.512 250.891h-17.863v17.881h17.863z" fill="#1fbab4"/><path d="m339.512 233.017h-17.863v17.881h17.863z" fill="#1fbab4"/><path d="m339.512 215.136h-17.863v17.881h17.863z" fill="#1fbab4"/><path d="m339.512 197.254h-17.863v17.882h17.863z" fill="#1fbab4"/><path d="m339.512 179.36h-17.863v17.895h17.863z" fill="#1fbab4"/><path d="m339.512 161.485h-17.863v17.881h17.863z" fill="#1fbab4"/><path d="m339.512 143.604h-17.863v17.882h17.863z" fill="#1fbab4"/><path d="m339.512 125.723h-17.863v17.881h17.863z" fill="#1fbab4"/><path d="m339.512 107.842h-17.863v17.881h17.863z" fill="#1fbab4"/><path d="m339.512 89.9678h-17.863v17.8812h17.863z" fill="#1fbab4"/><path d="m321.649 358.185h-17.862v17.881h17.862z" fill="#1fbab4"/><path d="m321.649 340.303h-17.862v17.881h17.862z" fill="#1fbab4"/><path d="m321.649 322.422h-17.862v17.882h17.862z" fill="#1fbab4"/><path d="m321.649 304.542h-17.862v17.881h17.862z" fill="#1fbab4"/><path d="m321.649 286.653h-17.862v17.895h17.862z" fill="#1fbab4"/><path d="m321.649 268.772h-17.862v17.881h17.862z" fill="#1fbab4"/><path d="m321.649 250.891h-17.862v17.881h17.862z" fill="#1fbab4"/><path d="m321.649 233.017h-17.862v17.881h17.862z" fill="#1fbab4"/><path d="m321.649 215.136h-17.862v17.881h17.862z" fill="#1fbab4"/><path d="m321.649 197.254h-17.862v17.882h17.862z" fill="#1fbab4"/><path d="m321.649 179.36h-17.862v17.895h17.862z" fill="#1fbab4"/><path d="m321.649 161.485h-17.862v17.881h17.862z" fill="#1fbab4"/><path d="m321.649 143.604h-17.862v17.882h17.862z" fill="#1fbab4"/><path d="m321.649 125.723h-17.862v17.881h17.862z" fill="#1fbab4"/><path d="m321.649 107.842h-17.862v17.881h17.862z" fill="#1fbab4"/><path d="m321.649 89.9678h-17.862v17.8812h17.862z" fill="#1fbab4"/><path d="m321.649 72.0728h-17.862v17.8947h17.862z" fill="#1fbab4"/><path d="m321.649 54.1919h-17.862v17.8811h17.862z" fill="#1fbab4"/><path d="m321.649 36.3174h-17.862v17.8811h17.862z" fill="#bfefed"/><path d="m303.793 358.185h-17.876v17.881h17.876z" fill="#1fbab4"/><path d="m303.793 340.303h-17.876v17.881h17.876z" fill="#1fbab4"/><path d="m303.793 322.422h-17.876v17.882h17.876z" fill="#1fbab4"/><path d="m303.793 304.542h-17.876v17.881h17.876z" fill="#1fbab4"/><path d="m303.793 286.653h-17.876v17.895h17.876z" fill="#1fbab4"/><path d="m303.793 268.772h-17.876v17.881h17.876z" fill="#1fbab4"/><path d="m303.793 250.891h-17.876v17.881h17.876z" fill="#1fbab4"/><path d="m303.793 233.017h-17.876v17.881h17.876z" fill="#1fbab4"/><path d="m303.793 215.136h-17.876v17.881h17.876z" fill="#1fbab4"/><path d="m303.793 197.254h-17.876v17.882h17.876z" fill="#1fbab4"/><path d="m303.793 179.36h-17.876v17.895h17.876z" fill="#1fbab4"/><path d="m303.793 161.485h-17.876v17.881h17.876z" fill="#1fbab4"/><path d="m303.793 143.604h-17.876v17.882h17.876z" fill="#1fbab4"/><path d="m303.793 125.723h-17.876v17.881h17.876z" fill="#1fbab4"/><path d="m303.793 107.842h-17.876v17.881h17.876z" fill="#1fbab4"/><path d="m303.793 89.9678h-17.876v17.8812h17.876z" fill="#1fbab4"/><path d="m303.793 72.0728h-17.876v17.8947h17.876z" fill="#bfefed"/><g fill="#1fbab4"><path d="m285.917 358.185h-17.863v17.881h17.863z"/><path d="m285.917 340.303h-17.863v17.881h17.863z"/><path d="m285.917 322.422h-17.863v17.882h17.863z"/><path d="m285.917 304.542h-17.863v17.881h17.863z"/><path d="m285.917 286.653h-17.863v17.895h17.863z"/><path d="m285.917 268.772h-17.863v17.881h17.863z"/><path d="m285.917 250.891h-17.863v17.881h17.863z"/><path d="m285.917 233.017h-17.863v17.881h17.863z"/><path d="m285.917 215.136h-17.863v17.881h17.863z"/><path d="m285.917 197.254h-17.863v17.882h17.863z"/><path d="m285.917 179.36h-17.863v17.895h17.863z"/><path d="m285.917 161.485h-17.863v17.881h17.863z"/><path d="m285.917 143.604h-17.863v17.882h17.863z"/><path d="m285.917 125.723h-17.863v17.881h17.863z"/><path d="m285.917 107.842h-17.863v17.881h17.863z"/><path d="m285.917 89.9678h-17.863v17.8812h17.863z"/><path d="m268.054 358.185h-17.863v17.881h17.863z"/><path d="m268.054 340.303h-17.863v17.881h17.863z"/><path d="m268.054 322.422h-17.863v17.882h17.863z"/><path d="m268.054 304.542h-17.863v17.881h17.863z"/><path d="m268.054 286.653h-17.863v17.895h17.863z"/><path d="m268.054 268.772h-17.863v17.881h17.863z"/><path d="m268.054 250.891h-17.863v17.881h17.863z"/><path d="m268.054 233.017h-17.863v17.881h17.863z"/><path d="m268.054 215.136h-17.863v17.881h17.863z"/><path d="m268.054 197.254h-17.863v17.882h17.863z"/><path d="m268.054 179.36h-17.863v17.895h17.863z"/><path d="m268.054 161.485h-17.863v17.881h17.863z"/><path d="m268.054 143.604h-17.863v17.882h17.863z"/><path d="m268.054 125.723h-17.863v17.881h17.863z"/><path d="m268.054 107.842h-17.863v17.881h17.863z"/><path d="m250.198 358.185h-17.863v17.881h17.863z"/><path d="m250.198 340.303h-17.863v17.881h17.863z"/><path d="m250.198 322.422h-17.863v17.882h17.863z"/><path d="m250.198 304.542h-17.863v17.881h17.863z"/><path d="m250.198 286.653h-17.863v17.895h17.863z"/><path d="m250.198 268.772h-17.863v17.881h17.863z"/><path d="m250.198 250.891h-17.863v17.881h17.863z"/><path d="m250.198 233.017h-17.863v17.881h17.863z"/><path d="m250.198 215.136h-17.863v17.881h17.863z"/><path d="m250.198 197.254h-17.863v17.882h17.863z"/><path d="m250.198 179.36h-17.863v17.895h17.863z"/><path d="m250.198 161.485h-17.863v17.881h17.863z"/><path d="m250.198 143.604h-17.863v17.882h17.863z"/><path d="m250.198 125.723h-17.863v17.881h17.863z"/><path d="m250.198 107.842h-17.863v17.881h17.863z"/><path d="m250.198 89.9678h-17.863v17.8812h17.863z"/><path d="m232.335 358.185h-17.863v17.881h17.863z"/><path d="m232.335 340.303h-17.863v17.881h17.863z"/><path d="m232.335 322.422h-17.863v17.882h17.863z"/><path d="m232.335 304.542h-17.863v17.881h17.863z"/><path d="m232.335 286.653h-17.863v17.895h17.863z"/><path d="m232.335 268.772h-17.863v17.881h17.863z"/><path d="m232.335 250.891h-17.863v17.881h17.863z"/><path d="m232.335 233.017h-17.863v17.881h17.863z"/><path d="m232.335 215.136h-17.863v17.881h17.863z"/><path d="m232.335 197.254h-17.863v17.882h17.863z"/><path d="m232.335 179.36h-17.863v17.895h17.863z"/><path d="m232.335 161.485h-17.863v17.881h17.863z"/><path d="m232.335 143.604h-17.863v17.882h17.863z"/><path d="m232.335 125.723h-17.863v17.881h17.863z"/><path d="m232.335 107.842h-17.863v17.881h17.863z"/><path d="m232.335 89.9678h-17.863v17.8812h17.863z"/></g><path d="m232.335 72.0728h-17.863v17.8947h17.863z" fill="#bfefed"/><path d="m214.472 358.185h-17.863v17.881h17.863z" fill="#1fbab4"/><path d="m214.472 340.303h-17.863v17.881h17.863z" fill="#1fbab4"/><path d="m214.472 322.422h-17.863v17.882h17.863z" fill="#1fbab4"/><path d="m214.472 304.542h-17.863v17.881h17.863z" fill="#1fbab4"/><path d="m214.472 286.653h-17.863v17.895h17.863z" fill="#1fbab4"/><path d="m214.472 268.772h-17.863v17.881h17.863z" fill="#1fbab4"/><path d="m214.472 250.891h-17.863v17.881h17.863z" fill="#1fbab4"/><path d="m214.472 233.017h-17.863v17.881h17.863z" fill="#1fbab4"/><path d="m214.472 215.136h-17.863v17.881h17.863z" fill="#1fbab4"/><path d="m214.472 197.254h-17.863v17.882h17.863z" fill="#1fbab4"/><path d="m214.472 179.36h-17.863v17.895h17.863z" fill="#1fbab4"/><path d="m214.472 161.485h-17.863v17.881h17.863z" fill="#1fbab4"/><path d="m214.472 143.604h-17.863v17.882h17.863z" fill="#1fbab4"/><path d="m214.472 125.723h-17.863v17.881h17.863z" fill="#1fbab4"/><path d="m214.472 107.842h-17.863v17.881h17.863z" fill="#1fbab4"/><path d="m214.472 89.9678h-17.863v17.8812h17.863z" fill="#1fbab4"/><path d="m196.609 358.185h-17.876v17.881h17.876z" fill="#1fbab4"/><path d="m196.609 340.303h-17.876v17.881h17.876z" fill="#1fbab4"/><path d="m196.609 322.422h-17.876v17.882h17.876z" fill="#1fbab4"/><path d="m196.609 304.542h-17.876v17.881h17.876z" fill="#1fbab4"/><path d="m196.609 286.653h-17.876v17.895h17.876z" fill="#1fbab4"/><path d="m196.609 268.772h-17.876v17.881h17.876z" fill="#1fbab4"/><path d="m196.609 250.891h-17.876v17.881h17.876z" fill="#1fbab4"/><path d="m196.609 233.017h-17.876v17.881h17.876z" fill="#1fbab4"/><path d="m196.609 215.136h-17.876v17.881h17.876z" fill="#1fbab4"/><path d="m196.609 197.254h-17.876v17.882h17.876z" fill="#1fbab4"/><path d="m196.609 179.36h-17.876v17.895h17.876z" fill="#1fbab4"/><path d="m196.609 161.485h-17.876v17.881h17.876z" fill="#1fbab4"/><path d="m196.609 143.604h-17.876v17.882h17.876z" fill="#1fbab4"/><path d="m196.609 125.723h-17.876v17.881h17.876z" fill="#1fbab4"/><path d="m178.739 358.185h-17.863v17.881h17.863z" fill="#1fbab4"/><path d="m178.739 340.303h-17.863v17.881h17.863z" fill="#1fbab4"/><path d="m178.739 322.422h-17.863v17.882h17.863z" fill="#1fbab4"/><path d="m178.739 304.542h-17.863v17.881h17.863z" fill="#1fbab4"/><path d="m178.739 286.653h-17.863v17.895h17.863z" fill="#1fbab4"/><path d="m178.739 268.772h-17.863v17.881h17.863z" fill="#1fbab4"/><path d="m178.739 250.891h-17.863v17.881h17.863z" fill="#1fbab4"/><path d="m178.739 233.017h-17.863v17.881h17.863z" fill="#1fbab4"/><path d="m178.739 215.136h-17.863v17.881h17.863z" fill="#1fbab4"/><path d="m178.739 197.254h-17.863v17.882h17.863z" fill="#1fbab4"/><path d="m178.739 179.36h-17.863v17.895h17.863z" fill="#1fbab4"/><path d="m178.739 161.485h-17.863v17.881h17.863z" fill="#1fbab4"/><path d="m178.739 143.604h-17.863v17.882h17.863z" fill="#1fbab4"/><path d="m178.739 125.723h-17.863v17.881h17.863z" fill="#bfefed"/><path d="m178.739 107.842h-17.863v17.881h17.863z" fill="#1fbab4"/><path d="m178.739 89.9678h-17.863v17.8812h17.863z" fill="#bfefed"/><path d="m178.739 18.4363h-17.863v17.8811h17.863z" fill="#1fbab4"/><path d="m160.877 358.185h-17.863v17.881h17.863z" fill="#1fbab4"/><path d="m160.877 340.303h-17.863v17.881h17.863z" fill="#1fbab4"/><path d="m160.877 322.422h-17.863v17.882h17.863z" fill="#1fbab4"/><path d="m160.877 304.542h-17.863v17.881h17.863z" fill="#1fbab4"/><path d="m160.877 286.653h-17.863v17.895h17.863z" fill="#1fbab4"/><path d="m160.877 268.772h-17.863v17.881h17.863z" fill="#1fbab4"/><path d="m160.877 250.891h-17.863v17.881h17.863z" fill="#1fbab4"/><path d="m160.877 233.017h-17.863v17.881h17.863z" fill="#1fbab4"/><path d="m160.877 215.136h-17.863v17.881h17.863z" fill="#1fbab4"/><path d="m160.877 197.254h-17.863v17.882h17.863z" fill="#1fbab4"/><path d="m160.877 179.36h-17.863v17.895h17.863z" fill="#1fbab4"/><path d="m160.877 161.485h-17.863v17.881h17.863z" fill="#1fbab4"/><path d="m160.877 143.604h-17.863v17.882h17.863z" fill="#1fbab4"/><path d="m160.877 125.723h-17.863v17.881h17.863z" fill="#1fbab4"/><path d="m160.877 107.842h-17.863v17.881h17.863z" fill="#1fbab4"/><path d="m160.877 89.9678h-17.863v17.8812h17.863z" fill="#bfefed"/><path d="m160.877 72.0728h-17.863v17.8947h17.863z" fill="#1fbab4"/><path d="m143.014 358.185h-17.863v17.881h17.863z" fill="#1fbab4"/><path d="m143.014 340.303h-17.863v17.881h17.863z" fill="#1fbab4"/><path d="m143.014 322.422h-17.863v17.882h17.863z" fill="#1fbab4"/><path d="m143.014 304.542h-17.863v17.881h17.863z" fill="#1fbab4"/><path d="m143.014 286.653h-17.863v17.895h17.863z" fill="#1fbab4"/><path d="m143.014 268.772h-17.863v17.881h17.863z" fill="#1fbab4"/><path d="m143.014 250.891h-17.863v17.881h17.863z" fill="#1fbab4"/><path d="m143.014 233.017h-17.863v17.881h17.863z" fill="#1fbab4"/><path d="m143.014 215.136h-17.863v17.881h17.863z" fill="#1fbab4"/><path d="m143.014 197.254h-17.863v17.882h17.863z" fill="#1fbab4"/><path d="m143.014 179.36h-17.863v17.895h17.863z" fill="#1fbab4"/><path d="m143.014 161.485h-17.863v17.881h17.863z" fill="#1fbab4"/><path d="m143.014 143.604h-17.863v17.882h17.863z" fill="#1fbab4"/><path d="m143.014 125.723h-17.863v17.881h17.863z" fill="#1fbab4"/><path d="m143.014 107.842h-17.863v17.881h17.863z" fill="#1fbab4"/><path d="m143.014 89.9678h-17.863v17.8812h17.863z" fill="#1fbab4"/><path d="m143.014 72.0728h-17.863v17.8947h17.863z" fill="#1fbab4"/><path d="m143.014 54.1919h-17.863v17.8811h17.863z" fill="#bfefed"/><path d="m143.014 18.4363h-17.863v17.8811h17.863z" fill="#1fbab4"/><path d="m125.151 358.185h-17.863v17.881h17.863z" fill="#bfefed"/><path d="m125.151 340.303h-17.863v17.881h17.863z" fill="#1fbab4"/><path d="m125.151 322.422h-17.863v17.882h17.863z" fill="#1fbab4"/><path d="m125.151 304.542h-17.863v17.881h17.863z" fill="#1fbab4"/><path d="m125.151 286.653h-17.863v17.895h17.863z" fill="#1fbab4"/><path d="m125.151 268.772h-17.863v17.881h17.863z" fill="#1fbab4"/><path d="m125.151 250.891h-17.863v17.881h17.863z" fill="#1fbab4"/><path d="m125.151 233.017h-17.863v17.881h17.863z" fill="#1fbab4"/><path d="m125.151 215.136h-17.863v17.881h17.863z" fill="#1fbab4"/><path d="m125.151 197.254h-17.863v17.882h17.863z" fill="#1fbab4"/><path d="m125.151 179.36h-17.863v17.895h17.863z" fill="#1fbab4"/><path d="m125.151 161.485h-17.863v17.881h17.863z" fill="#1fbab4"/><path d="m125.151 143.604h-17.863v17.882h17.863z" fill="#1fbab4"/><path d="m125.151 125.723h-17.863v17.881h17.863z" fill="#bfefed"/><path d="m125.151 107.842h-17.863v17.881h17.863z" fill="#1fbab4"/><path d="m125.151 89.9678h-17.863v17.8812h17.863z" fill="#bfefed"/><path d="m125.151 36.3174h-17.863v17.8811h17.863z" fill="#1fbab4"/><path d="m125.151 18.4363h-17.863v17.8811h17.863z" fill="#bfefed"/><path d="m107.295 358.185h-17.8629v17.881h17.8629z" fill="#bfefed"/><path d="m107.295 322.422h-17.8629v17.882h17.8629z" fill="#1fbab4"/><path d="m107.295 304.542h-17.8629v17.881h17.8629z" fill="#bfefed"/><path d="m107.295 286.653h-17.8629v17.895h17.8629z" fill="#1fbab4"/><path d="m107.295 268.772h-17.8629v17.881h17.8629z" fill="#1fbab4"/><path d="m107.295 250.891h-17.8629v17.881h17.8629z" fill="#1fbab4"/><path d="m107.295 233.017h-17.8629v17.881h17.8629z" fill="#1fbab4"/><path d="m107.295 215.136h-17.8629v17.881h17.8629z" fill="#1fbab4"/><path d="m107.295 197.254h-17.8629v17.882h17.8629z" fill="#1fbab4"/><path d="m107.295 179.36h-17.8629v17.895h17.8629z" fill="#1fbab4"/><path d="m107.295 161.485h-17.8629v17.881h17.8629z" fill="#1fbab4"/><path d="m107.295 143.604h-17.8629v17.882h17.8629z" fill="#1fbab4"/><path d="m107.295 125.723h-17.8629v17.881h17.8629z" fill="#1fbab4"/><path d="m107.295 107.842h-17.8629v17.881h17.8629z" fill="#1fbab4"/><path d="m107.295 89.9678h-17.8629v17.8812h17.8629z" fill="#1fbab4"/><path d="m107.295 72.0728h-17.8629v17.8947h17.8629z" fill="#1fbab4"/><path d="m107.295 36.3174h-17.8629v17.8811h17.8629z" fill="#1fbab4"/><path d="m89.4322 322.422h-17.8765v17.882h17.8765z" fill="#1fbab4"/><path d="m89.4322 304.542h-17.8765v17.881h17.8765z" fill="#1fbab4"/><path d="m89.4322 286.653h-17.8765v17.895h17.8765z" fill="#1fbab4"/><path d="m89.4322 268.772h-17.8765v17.881h17.8765z" fill="#1fbab4"/><path d="m89.4322 250.891h-17.8765v17.881h17.8765z" fill="#1fbab4"/><path d="m89.4322 233.017h-17.8765v17.881h17.8765z" fill="#bfefed"/><path d="m89.4322 215.136h-17.8765v17.881h17.8765z" fill="#1fbab4"/><path d="m89.4322 197.254h-17.8765v17.882h17.8765z" fill="#1fbab4"/><path d="m89.4322 179.36h-17.8765v17.895h17.8765z" fill="#1fbab4"/><path d="m89.4322 161.485h-17.8765v17.881h17.8765z" fill="#1fbab4"/><path d="m89.4322 143.604h-17.8765v17.882h17.8765z" fill="#1fbab4"/><path d="m89.4322 125.723h-17.8765v17.881h17.8765z" fill="#1fbab4"/><path d="m89.4322 107.842h-17.8765v17.881h17.8765z" fill="#1fbab4"/><path d="m89.4322 89.9678h-17.8765v17.8812h17.8765z" fill="#1fbab4"/><path d="m89.4322 72.0728h-17.8765v17.8947h17.8765z" fill="#1fbab4"/><path d="m71.5557 322.422h-17.8628v17.882h17.8628z" fill="#1fbab4"/><path d="m71.5557 304.542h-17.8628v17.881h17.8628z" fill="#1fbab4"/><path d="m71.5557 286.653h-17.8628v17.895h17.8628z" fill="#1fbab4"/><path d="m71.5557 268.772h-17.8628v17.881h17.8628z" fill="#bfefed"/><path d="m71.5557 233.017h-17.8628v17.881h17.8628z" fill="#1fbab4"/><path d="m71.5557 215.136h-17.8628v17.881h17.8628z" fill="#1fbab4"/><path d="m71.5557 197.254h-17.8628v17.882h17.8628z" fill="#1fbab4"/><path d="m71.5557 179.36h-17.8628v17.895h17.8628z" fill="#1fbab4"/><path d="m71.5557 161.485h-17.8628v17.881h17.8628z" fill="#1fbab4"/><path d="m71.5557 143.604h-17.8628v17.882h17.8628z" fill="#bfefed"/><path d="m71.5557 125.723h-17.8628v17.881h17.8628z" fill="#1fbab4"/><path d="m71.5557 107.842h-17.8628v17.881h17.8628z" fill="#1fbab4"/><path d="m71.5557 89.9678h-17.8628v17.8812h17.8628z" fill="#bfefed"/><path d="m53.6998 304.542h-17.8629v17.881h17.8629z" fill="#bfefed"/><path d="m53.6998 215.136h-17.8629v17.881h17.8629z" fill="#1fbab4"/><path d="m53.6998 197.254h-17.8629v17.882h17.8629z" fill="#1fbab4"/><path d="m53.6998 179.36h-17.8629v17.895h17.8629z" fill="#bfefed"/><path d="m35.8365 322.422h-17.8629v17.882h17.8629z" fill="#1fbab4"/><path d="m35.8365 304.542h-17.8629v17.881h17.8629z" fill="#1fbab4"/><path d="m35.8365 197.254h-17.8629v17.882h17.8629z" fill="#bfefed"/><path d="m17.9737 322.422h-17.86286v17.882h17.86286z" fill="#1fbab4"/><path d="m17.9737 304.542h-17.86286v17.881h17.86286z" fill="#bfefed"/></svg>