<svg width="502" height="446" viewBox="0 0 502 446" fill="none" xmlns="http://www.w3.org/2000/svg">
<path d="M-17.9999 204.456H0.555176V223.001H-17.9999V204.456Z" fill="#BFEFED"/>
<path d="M0.554758 297.191H19.0957V315.736H0.554758V297.191Z" fill="#BFEFED"/>
<path d="M223.4 427.355H241.941V445.9H223.4V427.355Z" fill="#BFEFED"/>
<path d="M55.5461 314H75.541V334H55.5461V314Z" fill="#1FBAB4"/>
<path d="M19.0959 315.729H37.6367V334.275H19.0959V315.729Z" fill="#BFEFED"/>
<path d="M19.0959 297.191H37.6367V315.736H19.0959V297.191Z" fill="#1FBAB4"/>
<path d="M19.0959 278.631H37.6367V297.19H19.0959V278.631Z" fill="#BFEFED"/>
<path d="M19.0959 148.812H37.6367V167.357H19.0959V148.812Z" fill="#1FBAB4"/>
<path d="M37.63 315.729H56.1709V334.275H37.63V315.729Z" fill="#1FBAB4"/>
<path d="M38.0001 334H56.541V352.546H38.0001V334Z" fill="#1FBAB4"/>
<path d="M37.63 297.191H56.1709V315.736H37.63V297.191Z" fill="#1FBAB4"/>
<path d="M37.63 278.631H56.1709V297.19H37.63V278.631Z" fill="#1FBAB4"/>
<path d="M37.63 260.085H56.1709V278.631H37.63V260.085Z" fill="#1FBAB4"/>
<path d="M37.63 223.001H56.1709V241.547H37.63V223.001Z" fill="#1FBAB4"/>
<path d="M56.541 334H76.541V352.546H56.541V334Z" fill="#1FBAB4"/>
<path d="M56.1715 297.191H74.7124V315.736H56.1715V297.191Z" fill="#1FBAB4"/>
<path d="M56.1715 278.631H74.7124V297.19H56.1715V278.631Z" fill="#1FBAB4"/>
<path d="M56.1715 223.001H74.7124V241.547H56.1715V223.001Z" fill="#1FBAB4"/>
<path d="M56.1715 185.91H74.7124V204.456H56.1715V185.91Z" fill="#1FBAB4"/>
<path d="M74.7115 352.82H93.2524V371.366H74.7115V352.82Z" fill="#1FBAB4"/>
<path d="M74.7115 334.275H93.2524V352.82H74.7115V334.275Z" fill="#1FBAB4"/>
<path d="M74.7115 315.729H93.2524V334.275H74.7115V315.729Z" fill="#1FBAB4"/>
<path d="M74.7115 297.191H93.2524V315.736H74.7115V297.191Z" fill="#1FBAB4"/>
<path d="M74.7115 278.631H93.2524V297.19H74.7115V278.631Z" fill="#1FBAB4"/>
<path d="M74.7115 260.085H93.2524V278.631H74.7115V260.085Z" fill="#1FBAB4"/>
<path d="M74.7115 241.547H93.2524V260.092H74.7115V241.547Z" fill="#1FBAB4"/>
<path d="M74.7115 223.001H93.2524V241.547H74.7115V223.001Z" fill="#1FBAB4"/>
<path d="M74.7115 204.456H93.2524V223.001H74.7115V204.456Z" fill="#1FBAB4"/>
<path d="M74.7115 185.91H93.2524V204.456H74.7115V185.91Z" fill="#BFEFED"/>
<path d="M74.7115 148.812H93.2524V167.357H74.7115V148.812Z" fill="#1FBAB4"/>
<path d="M93.2521 334.275H111.807V352.82H93.2521V334.275Z" fill="#1FBAB4"/>
<path d="M93.2521 315.729H111.807V334.275H93.2521V315.729Z" fill="#1FBAB4"/>
<path d="M93.2521 297.191H111.807V315.736H93.2521V297.191Z" fill="#1FBAB4"/>
<path d="M93.2521 278.631H111.807V297.19H93.2521V278.631Z" fill="#1FBAB4"/>
<path d="M93.2521 260.085H111.807V278.631H93.2521V260.085Z" fill="#1FBAB4"/>
<path d="M93.2521 241.547H111.807V260.092H93.2521V241.547Z" fill="#1FBAB4"/>
<path d="M93.2521 223.001H111.807V241.547H93.2521V223.001Z" fill="#1FBAB4"/>
<path d="M93.2521 204.456H111.807V223.001H93.2521V204.456Z" fill="#1FBAB4"/>
<path d="M93.2521 185.91H111.807V204.456H93.2521V185.91Z" fill="#1FBAB4"/>
<path d="M93.2521 167.357H111.807V185.917H93.2521V167.357Z" fill="#BFEFED"/>
<path d="M93.2521 148.812H111.807V167.357H93.2521V148.812Z" fill="#1FBAB4"/>
<path d="M93.2521 74.6366H111.807V93.1822H93.2521V74.6366Z" fill="#BFEFED"/>
<path d="M111.8 334.275H130.341V352.82H111.8V334.275Z" fill="#1FBAB4"/>
<path d="M111.8 315.729H130.341V334.275H111.8V315.729Z" fill="#1FBAB4"/>
<path d="M111.8 297.191H130.341V315.736H111.8V297.191Z" fill="#1FBAB4"/>
<path d="M111.8 278.631H130.341V297.19H111.8V278.631Z" fill="#1FBAB4"/>
<path d="M111.8 260.085H130.341V278.631H111.8V260.085Z" fill="#1FBAB4"/>
<path d="M111.8 241.547H130.341V260.092H111.8V241.547Z" fill="#1FBAB4"/>
<path d="M111.8 223.001H130.341V241.547H111.8V223.001Z" fill="#1FBAB4"/>
<path d="M111.8 204.456H130.341V223.001H111.8V204.456Z" fill="#1FBAB4"/>
<path d="M111.8 185.91H130.341V204.456H111.8V185.91Z" fill="#1FBAB4"/>
<path d="M111.8 167.357H130.341V185.917H111.8V167.357Z" fill="#1FBAB4"/>
<path d="M111.8 148.812H130.341V167.357H111.8V148.812Z" fill="#BFEFED"/>
<path d="M111.8 111.721H130.341V130.266H111.8V111.721Z" fill="#1FBAB4"/>
<path d="M111.8 93.1822H130.341V111.728H111.8V93.1822Z" fill="#1FBAB4"/>
<path d="M111.8 37.5384H130.341V56.084H111.8V37.5384Z" fill="#BFEFED"/>
<path d="M130.342 334.275H148.883V352.82H130.342V334.275Z" fill="#1FBAB4"/>
<path d="M130.342 315.729H148.883V334.275H130.342V315.729Z" fill="#1FBAB4"/>
<path d="M130.342 297.191H148.883V315.736H130.342V297.191Z" fill="#1FBAB4"/>
<path d="M130.342 278.631H148.883V297.19H130.342V278.631Z" fill="#1FBAB4"/>
<path d="M130.342 260.085H148.883V278.631H130.342V260.085Z" fill="#1FBAB4"/>
<path d="M130.342 241.547H148.883V260.092H130.342V241.547Z" fill="#1FBAB4"/>
<path d="M130.342 223.001H148.883V241.547H130.342V223.001Z" fill="#1FBAB4"/>
<path d="M130.342 204.456H148.883V223.001H130.342V204.456Z" fill="#1FBAB4"/>
<path d="M130.342 185.91H148.883V204.456H130.342V185.91Z" fill="#1FBAB4"/>
<path d="M130.342 167.357H148.883V185.917H130.342V167.357Z" fill="#1FBAB4"/>
<path d="M130.342 148.812H148.883V167.357H130.342V148.812Z" fill="#1FBAB4"/>
<path d="M130.342 130.266H148.883V148.812H130.342V130.266Z" fill="#1FBAB4"/>
<path d="M130.342 111.721H148.883V130.266H130.342V111.721Z" fill="#1FBAB4"/>
<path d="M130.342 93.1822H148.883V111.728H130.342V93.1822Z" fill="#1FBAB4"/>
<path d="M130.342 74.6366H148.883V93.1822H130.342V74.6366Z" fill="#1FBAB4"/>
<path d="M130.342 56.0769H148.883V74.6366H130.342V56.0769Z" fill="#1FBAB4"/>
<path d="M130.342 37.5384H148.883V56.084H130.342V37.5384Z" fill="#1FBAB4"/>
<path d="M148.882 334.275H167.423V352.82H148.882V334.275Z" fill="#1FBAB4"/>
<path d="M148.882 315.729H167.423V334.275H148.882V315.729Z" fill="#1FBAB4"/>
<path d="M148.882 297.191H167.423V315.736H148.882V297.191Z" fill="#1FBAB4"/>
<path d="M148.882 278.631H167.423V297.19H148.882V278.631Z" fill="#1FBAB4"/>
<path d="M148.882 260.085H167.423V278.631H148.882V260.085Z" fill="#1FBAB4"/>
<path d="M148.882 241.547H167.423V260.092H148.882V241.547Z" fill="#1FBAB4"/>
<path d="M148.882 223.001H167.423V241.547H148.882V223.001Z" fill="#1FBAB4"/>
<path d="M148.882 204.456H167.423V223.001H148.882V204.456Z" fill="#1FBAB4"/>
<path d="M148.882 185.91H167.423V204.456H148.882V185.91Z" fill="#1FBAB4"/>
<path d="M148.882 167.357H167.423V185.917H148.882V167.357Z" fill="#1FBAB4"/>
<path d="M148.882 148.812H167.423V167.357H148.882V148.812Z" fill="#1FBAB4"/>
<path d="M148.882 130.266H167.423V148.812H148.882V130.266Z" fill="#1FBAB4"/>
<path d="M148.882 111.721H167.423V130.266H148.882V111.721Z" fill="#1FBAB4"/>
<path d="M148.882 93.1822H167.423V111.728H148.882V93.1822Z" fill="#BFEFED"/>
<path d="M148.882 74.6366H167.423V93.1822H148.882V74.6366Z" fill="#1FBAB4"/>
<path d="M148.882 56.0769H167.423V74.6366H148.882V56.0769Z" fill="#1FBAB4"/>
<path d="M148.882 0.447266H167.423V18.9928H148.882V0.447266Z" fill="#BFEFED"/>
<path d="M167.423 352.82H185.964V371.366H167.423V352.82Z" fill="#1FBAB4"/>
<path d="M167.423 334.275H185.964V352.82H167.423V334.275Z" fill="#1FBAB4"/>
<path d="M167.423 315.729H185.964V334.275H167.423V315.729Z" fill="#1FBAB4"/>
<path d="M167.423 297.191H185.964V315.736H167.423V297.191Z" fill="#1FBAB4"/>
<path d="M167.423 278.631H185.964V297.19H167.423V278.631Z" fill="#1FBAB4"/>
<path d="M167.423 260.085H185.964V278.631H167.423V260.085Z" fill="#1FBAB4"/>
<path d="M167.423 241.547H185.964V260.092H167.423V241.547Z" fill="#1FBAB4"/>
<path d="M167.423 223.001H185.964V241.547H167.423V223.001Z" fill="#1FBAB4"/>
<path d="M167.423 204.456H185.964V223.001H167.423V204.456Z" fill="#1FBAB4"/>
<path d="M167.423 185.91H185.964V204.456H167.423V185.91Z" fill="#1FBAB4"/>
<path d="M167.423 167.357H185.964V185.917H167.423V167.357Z" fill="#1FBAB4"/>
<path d="M167.423 148.812H185.964V167.357H167.423V148.812Z" fill="#1FBAB4"/>
<path d="M167.423 130.266H185.964V148.812H167.423V130.266Z" fill="#1FBAB4"/>
<path d="M167.423 111.721H185.964V130.266H167.423V111.721Z" fill="#1FBAB4"/>
<path d="M167.423 93.1822H185.964V111.728H167.423V93.1822Z" fill="#1FBAB4"/>
<path d="M167.423 74.6366H185.964V93.1822H167.423V74.6366Z" fill="#1FBAB4"/>
<path d="M167.423 56.0769H185.964V74.6366H167.423V56.0769Z" fill="#1FBAB4"/>
<path d="M167.423 37.5384H185.964V56.084H167.423V37.5384Z" fill="#1FBAB4"/>
<path d="M185.957 352.82H204.512V371.366H185.957V352.82Z" fill="#1FBAB4"/>
<path d="M185.957 334.275H204.512V352.82H185.957V334.275Z" fill="#1FBAB4"/>
<path d="M185.957 315.729H204.512V334.275H185.957V315.729Z" fill="#1FBAB4"/>
<path d="M185.957 297.191H204.512V315.736H185.957V297.191Z" fill="#1FBAB4"/>
<path d="M185.957 278.631H204.512V297.19H185.957V278.631Z" fill="#1FBAB4"/>
<path d="M185.957 260.085H204.512V278.631H185.957V260.085Z" fill="#1FBAB4"/>
<path d="M185.957 241.547H204.512V260.092H185.957V241.547Z" fill="#1FBAB4"/>
<path d="M185.957 223.001H204.512V241.547H185.957V223.001Z" fill="#1FBAB4"/>
<path d="M185.957 204.456H204.512V223.001H185.957V204.456Z" fill="#1FBAB4"/>
<path d="M185.957 185.91H204.512V204.456H185.957V185.91Z" fill="#1FBAB4"/>
<path d="M185.957 167.357H204.512V185.917H185.957V167.357Z" fill="#1FBAB4"/>
<path d="M185.957 148.812H204.512V167.357H185.957V148.812Z" fill="#1FBAB4"/>
<path d="M185.957 130.266H204.512V148.812H185.957V130.266Z" fill="#1FBAB4"/>
<path d="M185.957 111.721H204.512V130.266H185.957V111.721Z" fill="#1FBAB4"/>
<path d="M185.957 93.1822H204.512V111.728H185.957V93.1822Z" fill="#1FBAB4"/>
<path d="M185.957 74.6366H204.512V93.1822H185.957V74.6366Z" fill="#1FBAB4"/>
<path d="M185.957 56.0769H204.512V74.6366H185.957V56.0769Z" fill="#BFEFED"/>
<path d="M204.512 352.82H223.053V371.366H204.512V352.82Z" fill="#1FBAB4"/>
<path d="M204.512 334.275H223.053V352.82H204.512V334.275Z" fill="#1FBAB4"/>
<path d="M204.512 315.729H223.053V334.275H204.512V315.729Z" fill="#1FBAB4"/>
<path d="M204.512 297.191H223.053V315.736H204.512V297.191Z" fill="#1FBAB4"/>
<path d="M204.512 278.631H223.053V297.19H204.512V278.631Z" fill="#1FBAB4"/>
<path d="M204.512 260.085H223.053V278.631H204.512V260.085Z" fill="#1FBAB4"/>
<path d="M204.512 241.547H223.053V260.092H204.512V241.547Z" fill="#1FBAB4"/>
<path d="M204.512 223.001H223.053V241.547H204.512V223.001Z" fill="#1FBAB4"/>
<path d="M204.512 204.456H223.053V223.001H204.512V204.456Z" fill="#1FBAB4"/>
<path d="M204.512 185.91H223.053V204.456H204.512V185.91Z" fill="#1FBAB4"/>
<path d="M204.512 167.357H223.053V185.917H204.512V167.357Z" fill="#1FBAB4"/>
<path d="M204.512 148.812H223.053V167.357H204.512V148.812Z" fill="#1FBAB4"/>
<path d="M204.512 130.266H223.053V148.812H204.512V130.266Z" fill="#1FBAB4"/>
<path d="M204.512 111.721H223.053V130.266H204.512V111.721Z" fill="#BFEFED"/>
<path d="M204.512 93.1822H223.053V111.728H204.512V93.1822Z" fill="#1FBAB4"/>
<path d="M204.512 74.6366H223.053V93.1822H204.512V74.6366Z" fill="#1FBAB4"/>
<path d="M223.053 352.82H241.594V371.366H223.053V352.82Z" fill="#1FBAB4"/>
<path d="M223.053 334.275H241.594V352.82H223.053V334.275Z" fill="#1FBAB4"/>
<path d="M223.053 315.729H241.594V334.275H223.053V315.729Z" fill="#1FBAB4"/>
<path d="M223.053 297.191H241.594V315.736H223.053V297.191Z" fill="#1FBAB4"/>
<path d="M223.053 278.631H241.594V297.19H223.053V278.631Z" fill="#1FBAB4"/>
<path d="M223.053 260.085H241.594V278.631H223.053V260.085Z" fill="#1FBAB4"/>
<path d="M223.053 241.547H241.594V260.092H223.053V241.547Z" fill="#1FBAB4"/>
<path d="M223.053 223.001H241.594V241.547H223.053V223.001Z" fill="#1FBAB4"/>
<path d="M223.053 204.456H241.594V223.001H223.053V204.456Z" fill="#1FBAB4"/>
<path d="M223.053 185.91H241.594V204.456H223.053V185.91Z" fill="#1FBAB4"/>
<path d="M223.053 167.357H241.594V185.917H223.053V167.357Z" fill="#1FBAB4"/>
<path d="M223.053 148.812H241.594V167.357H223.053V148.812Z" fill="#1FBAB4"/>
<path d="M223.053 130.266H241.594V148.812H223.053V130.266Z" fill="#1FBAB4"/>
<path d="M223.053 111.721H241.594V130.266H223.053V111.721Z" fill="#1FBAB4"/>
<path d="M223.053 93.1822H241.594V111.728H223.053V93.1822Z" fill="#BFEFED"/>
<path d="M241.588 352.82H260.128V371.366H241.588V352.82Z" fill="#1FBAB4"/>
<path d="M241.588 334.275H260.128V352.82H241.588V334.275Z" fill="#1FBAB4"/>
<path d="M241.588 315.729H260.128V334.275H241.588V315.729Z" fill="#1FBAB4"/>
<path d="M241.588 297.191H260.128V315.736H241.588V297.191Z" fill="#1FBAB4"/>
<path d="M241.588 278.631H260.128V297.19H241.588V278.631Z" fill="#1FBAB4"/>
<path d="M241.588 260.085H260.128V278.631H241.588V260.085Z" fill="#1FBAB4"/>
<path d="M241.588 241.547H260.128V260.092H241.588V241.547Z" fill="#1FBAB4"/>
<path d="M241.588 223.001H260.128V241.547H241.588V223.001Z" fill="#1FBAB4"/>
<path d="M241.588 204.456H260.128V223.001H241.588V204.456Z" fill="#1FBAB4"/>
<path d="M241.588 185.91H260.128V204.456H241.588V185.91Z" fill="#1FBAB4"/>
<path d="M241.588 167.357H260.128V185.917H241.588V167.357Z" fill="#1FBAB4"/>
<path d="M241.588 148.812H260.128V167.357H241.588V148.812Z" fill="#1FBAB4"/>
<path d="M241.588 130.266H260.128V148.812H241.588V130.266Z" fill="#1FBAB4"/>
<path d="M241.588 111.721H260.128V130.266H241.588V111.721Z" fill="#1FBAB4"/>
<path d="M241.588 93.1822H260.128V111.728H241.588V93.1822Z" fill="#1FBAB4"/>
<path d="M241.588 74.6366H260.128V93.1822H241.588V74.6366Z" fill="#1FBAB4"/>
<path d="M260.128 352.82H278.668V371.366H260.128V352.82Z" fill="#1FBAB4"/>
<path d="M260.128 334.275H278.668V352.82H260.128V334.275Z" fill="#1FBAB4"/>
<path d="M260.128 315.729H278.668V334.275H260.128V315.729Z" fill="#1FBAB4"/>
<path d="M260.128 297.191H278.668V315.736H260.128V297.191Z" fill="#1FBAB4"/>
<path d="M260.128 278.631H278.668V297.19H260.128V278.631Z" fill="#1FBAB4"/>
<path d="M260.128 260.085H278.668V278.631H260.128V260.085Z" fill="#1FBAB4"/>
<path d="M260.128 241.547H278.668V260.092H260.128V241.547Z" fill="#1FBAB4"/>
<path d="M260.128 223.001H278.668V241.547H260.128V223.001Z" fill="#1FBAB4"/>
<path d="M260.128 204.456H278.668V223.001H260.128V204.456Z" fill="#1FBAB4"/>
<path d="M260.128 185.91H278.668V204.456H260.128V185.91Z" fill="#1FBAB4"/>
<path d="M260.128 167.357H278.668V185.917H260.128V167.357Z" fill="#1FBAB4"/>
<path d="M260.128 148.812H278.668V167.357H260.128V148.812Z" fill="#1FBAB4"/>
<path d="M260.128 130.266H278.668V148.812H260.128V130.266Z" fill="#1FBAB4"/>
<path d="M260.128 111.721H278.668V130.266H260.128V111.721Z" fill="#1FBAB4"/>
<path d="M260.128 93.1822H278.668V111.728H260.128V93.1822Z" fill="#BFEFED"/>
<path d="M260.128 74.6366H278.668V93.1822H260.128V74.6366Z" fill="#1FBAB4"/>
<path d="M260.128 56.0769H278.668V74.6366H260.128V56.0769Z" fill="#1FBAB4"/>
<path d="M278.668 334.275H297.209V352.82H278.668V334.275Z" fill="#1FBAB4"/>
<path d="M296.96 334.11H315.501V352.655H296.96V334.11Z" fill="#1FBAB4"/>
<path d="M296.96 351.723H315.501V371.408H296.96V351.723Z" fill="#1FBAB4"/>
<path d="M315.501 334.11H335.186V352.655H315.501V334.11Z" fill="#1FBAB4"/>
<path d="M278.668 352.759H297.209V371.304H278.668V352.759Z" fill="#1FBAB4"/>
<path d="M278.668 315.729H297.209V334.275H278.668V315.729Z" fill="#1FBAB4"/>
<path d="M278.668 297.191H297.209V315.736H278.668V297.191Z" fill="#1FBAB4"/>
<path d="M278.668 278.631H297.209V297.19H278.668V278.631Z" fill="#1FBAB4"/>
<path d="M278.668 260.085H297.209V278.631H278.668V260.085Z" fill="#1FBAB4"/>
<path d="M278.668 241.547H297.209V260.092H278.668V241.547Z" fill="#1FBAB4"/>
<path d="M278.668 223.001H297.209V241.547H278.668V223.001Z" fill="#1FBAB4"/>
<path d="M278.668 204.456H297.209V223.001H278.668V204.456Z" fill="#1FBAB4"/>
<path d="M278.668 185.91H297.209V204.456H278.668V185.91Z" fill="#1FBAB4"/>
<path d="M278.668 167.357H297.209V185.917H278.668V167.357Z" fill="#1FBAB4"/>
<path d="M278.668 148.812H297.209V167.357H278.668V148.812Z" fill="#1FBAB4"/>
<path d="M278.668 130.266H297.209V148.812H278.668V130.266Z" fill="#1FBAB4"/>
<path d="M278.668 111.721H297.209V130.266H278.668V111.721Z" fill="#1FBAB4"/>
<path d="M278.668 93.1822H297.209V111.728H278.668V93.1822Z" fill="#1FBAB4"/>
<path d="M278.668 74.6366H297.209V93.1822H278.668V74.6366Z" fill="#1FBAB4"/>
<path d="M297.209 315.729H315.764V334.275H297.209V315.729Z" fill="#1FBAB4"/>
<path d="M297.209 297.191H315.764V315.736H297.209V297.191Z" fill="#1FBAB4"/>
<path d="M297.209 278.631H315.764V297.19H297.209V278.631Z" fill="#1FBAB4"/>
<path d="M297.209 260.085H315.764V278.631H297.209V260.085Z" fill="#1FBAB4"/>
<path d="M297.209 241.547H315.764V260.092H297.209V241.547Z" fill="#1FBAB4"/>
<path d="M297.209 223.001H315.764V241.547H297.209V223.001Z" fill="#1FBAB4"/>
<path d="M297.209 204.456H315.764V223.001H297.209V204.456Z" fill="#1FBAB4"/>
<path d="M297.209 185.91H315.764V204.456H297.209V185.91Z" fill="#1FBAB4"/>
<path d="M297.209 167.357H315.764V185.917H297.209V167.357Z" fill="#1FBAB4"/>
<path d="M297.209 148.812H315.764V167.357H297.209V148.812Z" fill="#1FBAB4"/>
<path d="M297.209 130.266H315.764V148.812H297.209V130.266Z" fill="#1FBAB4"/>
<path d="M297.209 111.721H315.764V130.266H297.209V111.721Z" fill="#1FBAB4"/>
<path d="M297.209 93.1822H315.764V111.728H297.209V93.1822Z" fill="#1FBAB4"/>
<path d="M315.757 315.729H334.298V334.275H315.757V315.729Z" fill="#1FBAB4"/>
<path d="M315.757 297.191H334.298V315.736H315.757V297.191Z" fill="#1FBAB4"/>
<path d="M315.757 278.631H334.298V297.19H315.757V278.631Z" fill="#1FBAB4"/>
<path d="M315.757 260.085H334.298V278.631H315.757V260.085Z" fill="#1FBAB4"/>
<path d="M315.757 241.547H334.298V260.092H315.757V241.547Z" fill="#1FBAB4"/>
<path d="M315.757 223.001H334.298V241.547H315.757V223.001Z" fill="#1FBAB4"/>
<path d="M315.757 204.456H334.298V223.001H315.757V204.456Z" fill="#1FBAB4"/>
<path d="M315.757 185.91H334.298V204.456H315.757V185.91Z" fill="#1FBAB4"/>
<path d="M315.757 167.357H334.298V185.917H315.757V167.357Z" fill="#1FBAB4"/>
<path d="M315.757 148.812H334.298V167.357H315.757V148.812Z" fill="#1FBAB4"/>
<path d="M315.757 130.266H334.298V148.812H315.757V130.266Z" fill="#1FBAB4"/>
<path d="M315.757 111.721H334.298V130.266H315.757V111.721Z" fill="#BFEFED"/>
<path d="M334.298 334.275H352.839V352.82H334.298V334.275Z" fill="#1FBAB4"/>
<path d="M334.298 315.729H352.839V334.275H334.298V315.729Z" fill="#1FBAB4"/>
<path d="M334.298 297.191H352.839V315.736H334.298V297.191Z" fill="#1FBAB4"/>
<path d="M334.298 278.631H352.839V297.19H334.298V278.631Z" fill="#1FBAB4"/>
<path d="M334.298 260.085H352.839V278.631H334.298V260.085Z" fill="#1FBAB4"/>
<path d="M334.298 241.547H352.839V260.092H334.298V241.547Z" fill="#1FBAB4"/>
<path d="M334.298 223.001H352.839V241.547H334.298V223.001Z" fill="#1FBAB4"/>
<path d="M334.298 204.456H352.839V223.001H334.298V204.456Z" fill="#1FBAB4"/>
<path d="M334.298 185.91H352.839V204.456H334.298V185.91Z" fill="#1FBAB4"/>
<path d="M334.298 167.357H352.839V185.917H334.298V167.357Z" fill="#1FBAB4"/>
<path d="M334.298 148.812H352.839V167.357H334.298V148.812Z" fill="#1FBAB4"/>
<path d="M334.298 130.266H352.839V148.812H334.298V130.266Z" fill="#1FBAB4"/>
<path d="M334.298 111.721H352.839V130.266H334.298V111.721Z" fill="#1FBAB4"/>
<path d="M334.298 56.0769H352.839V74.6366H334.298V56.0769Z" fill="#1FBAB4"/>
<path d="M352.84 352.82H371.381V371.366H352.84V352.82Z" fill="#BFEFED"/>
<path d="M352.84 334.275H371.381V352.82H352.84V334.275Z" fill="#1FBAB4"/>
<path d="M352.84 315.729H371.381V334.275H352.84V315.729Z" fill="#1FBAB4"/>
<path d="M352.84 297.191H371.381V315.736H352.84V297.191Z" fill="#1FBAB4"/>
<path d="M352.84 278.631H371.381V297.19H352.84V278.631Z" fill="#1FBAB4"/>
<path d="M352.84 260.085H371.381V278.631H352.84V260.085Z" fill="#1FBAB4"/>
<path d="M352.84 241.547H371.381V260.092H352.84V241.547Z" fill="#1FBAB4"/>
<path d="M352.84 223.001H371.381V241.547H352.84V223.001Z" fill="#1FBAB4"/>
<path d="M352.84 204.456H371.381V223.001H352.84V204.456Z" fill="#1FBAB4"/>
<path d="M352.84 185.91H371.381V204.456H352.84V185.91Z" fill="#1FBAB4"/>
<path d="M352.84 167.357H371.381V185.917H352.84V167.357Z" fill="#1FBAB4"/>
<path d="M352.84 148.812H371.381V167.357H352.84V148.812Z" fill="#1FBAB4"/>
<path d="M352.84 130.266H371.381V148.812H352.84V130.266Z" fill="#1FBAB4"/>
<path d="M371.38 352.82H389.921V371.366H371.38V352.82Z" fill="#1FBAB4"/>
<path d="M371.38 334.275H389.921V352.82H371.38V334.275Z" fill="#1FBAB4"/>
<path d="M371.38 315.729H389.921V334.275H371.38V315.729Z" fill="#1FBAB4"/>
<path d="M371.38 297.191H389.921V315.736H371.38V297.191Z" fill="#1FBAB4"/>
<path d="M371.38 278.631H389.921V297.19H371.38V278.631Z" fill="#1FBAB4"/>
<path d="M371.38 260.085H389.921V278.631H371.38V260.085Z" fill="#1FBAB4"/>
<path d="M371.38 241.547H389.921V260.092H371.38V241.547Z" fill="#1FBAB4"/>
<path d="M371.38 223.001H389.921V241.547H371.38V223.001Z" fill="#1FBAB4"/>
<path d="M371.38 204.456H389.921V223.001H371.38V204.456Z" fill="#1FBAB4"/>
<path d="M371.38 185.91H389.921V204.456H371.38V185.91Z" fill="#BFEFED"/>
<path d="M371.38 148.812H389.921V167.357H371.38V148.812Z" fill="#1FBAB4"/>
<path d="M371.38 130.266H389.921V148.812H371.38V130.266Z" fill="#BFEFED"/>
<path d="M371.38 74.6366H389.921V93.1822H371.38V74.6366Z" fill="#BFEFED"/>
<path d="M371.38 18.9929H389.921V37.5384H371.38V18.9929Z" fill="#1FBAB4"/>
<path d="M389.914 352.82H408.455V371.366H389.914V352.82Z" fill="#1FBAB4"/>
<path d="M389.914 334.275H408.455V352.82H389.914V334.275Z" fill="#BFEFED"/>
<path d="M389.914 315.729H408.455V334.275H389.914V315.729Z" fill="#1FBAB4"/>
<path d="M389.914 297.191H408.455V315.736H389.914V297.191Z" fill="#1FBAB4"/>
<path d="M389.914 278.631H408.455V297.19H389.914V278.631Z" fill="#1FBAB4"/>
<path d="M389.914 260.085H408.455V278.631H389.914V260.085Z" fill="#1FBAB4"/>
<path d="M389.914 241.547H408.455V260.092H389.914V241.547Z" fill="#1FBAB4"/>
<path d="M389.914 223.001H408.455V241.547H389.914V223.001Z" fill="#1FBAB4"/>
<path d="M389.914 204.456H408.455V223.001H389.914V204.456Z" fill="#1FBAB4"/>
<path d="M389.914 185.91H408.455V204.456H389.914V185.91Z" fill="#BFEFED"/>
<path d="M408.455 334.275H427.01V352.82H408.455V334.275Z" fill="#1FBAB4"/>
<path d="M408.455 315.729H427.01V334.275H408.455V315.729Z" fill="#1FBAB4"/>
<path d="M408.455 297.191H427.01V315.736H408.455V297.191Z" fill="#1FBAB4"/>
<path d="M408.455 278.631H427.01V297.19H408.455V278.631Z" fill="#1FBAB4"/>
<path d="M408.455 260.085H427.01V278.631H408.455V260.085Z" fill="#1FBAB4"/>
<path d="M408.455 241.547H427.01V260.092H408.455V241.547Z" fill="#1FBAB4"/>
<path d="M408.455 223.001H427.01V241.547H408.455V223.001Z" fill="#BFEFED"/>
<path d="M408.455 204.456H427.01V223.001H408.455V204.456Z" fill="#1FBAB4"/>
<path d="M408.455 185.91H427.01V204.456H408.455V185.91Z" fill="#1FBAB4"/>
<path d="M427.01 334.275H445.551V352.82H427.01V334.275Z" fill="#1FBAB4"/>
<path d="M427.01 315.729H445.551V334.275H427.01V315.729Z" fill="#BFEFED"/>
<path d="M427.01 297.191H445.551V315.736H427.01V297.191Z" fill="#BFEFED"/>
<path d="M427.01 278.631H445.551V297.19H427.01V278.631Z" fill="#1FBAB4"/>
<path d="M427.01 260.085H445.551V278.631H427.01V260.085Z" fill="#1FBAB4"/>
<path d="M427.01 223.001H445.551V241.547H427.01V223.001Z" fill="#1FBAB4"/>
<path d="M427.01 204.456H445.551V223.001H427.01V204.456Z" fill="#1FBAB4"/>
<path d="M427.01 185.91H445.551V204.456H427.01V185.91Z" fill="#1FBAB4"/>
<path d="M427.01 130.266H445.551V148.812H427.01V130.266Z" fill="#1FBAB4"/>
<path d="M445.544 297.191H464.085V315.736H445.544V297.191Z" fill="#1FBAB4"/>
<path d="M445.544 204.456H464.085V223.001H445.544V204.456Z" fill="#1FBAB4"/>
<path d="M445.544 185.91H464.085V204.456H445.544V185.91Z" fill="#1FBAB4"/>
<path d="M445.544 167.357H464.085V185.917H445.544V167.357Z" fill="#1FBAB4"/>
<path d="M464.085 297.191H482.625V315.736H464.085V297.191Z" fill="#1FBAB4"/>
<path d="M464.085 185.91H482.625V204.456H464.085V185.91Z" fill="#1FBAB4"/>
<path d="M482.626 315.729H501.167V334.275H482.626V315.729Z" fill="#1FBAB4"/>
<path d="M278.311 370.372H296.852V390.057H278.311V370.372Z" fill="#1FBAB4"/>
<path d="M259.554 370.372H279.239V390.057H259.554V370.372Z" fill="#1FBAB4"/>
<path d="M314.573 351.723H333.114V371.408H314.573V351.723Z" fill="#1FBAB4"/>
<path d="M259.662 390.057H278.203V408.602H259.662V390.057Z" fill="#BFEFED"/>
<path d="M197 410H214.896V427.9H197V410Z" fill="#BFEFED"/>
</svg>
