<svg fill="none" height="474" viewBox="0 0 637 474" width="637" xmlns="http://www.w3.org/2000/svg"><path d="m200.474 18.5496h18.182v-18.176206l-18.182-.000002z" fill="#fddf8f"/><path d="m.450268 200.337h18.194232v-18.177h-18.194231z" fill="#fddf8f"/><path d="m618.703 163.984h18.182v-18.188h-18.182z" fill="#fddf8f"/><path d="m164.111 400.299h18.181v-18.176h-18.181z" fill="#fddf8f"/><path d="m73.1898 454.828h18.1818v-18.176h-18.1818z" fill="#fddf8f"/><path d="m600.521 436.652h18.182v-18.176h-18.182z" fill="#fddf8f"/><path d="m436.873 418.476h18.182v-18.177h-18.182z" fill="#fddf8f"/><path d="m36.8261 127.619h18.1817v-18.176h-18.1817z" fill="#fcbb00"/><path d="m36.8261 145.795h18.1817v-18.176h-18.1817z" fill="#fcbb00"/><path d="m36.8261 236.689h18.1817v-18.176h-18.1817z" fill="#fddf8f"/><path d="m36.8261 254.865h18.1817v-18.176h-18.1817z" fill="#fddf8f"/><path d="m55.0082 127.619h18.1817v-18.176h-18.1816z" fill="#fddf8f"/><path d="m55.0082 145.795h18.1817v-18.176h-18.1816z" fill="#fcbb00"/><path d="m55.0082 163.984h18.1817v-18.188h-18.1816z" fill="#fcbb00"/><path d="m55.0082 182.16h18.1817v-18.176h-18.1816z" fill="#fcbb00"/><path d="m55.0082 218.513h18.1817v-18.176h-18.1816z" fill="#fddf8f"/><path d="m55.0082 236.689h18.1817v-18.176h-18.1816z" fill="#fddf8f"/><path d="m55.0082 254.865h18.1817v-18.176h-18.1816z" fill="#fcbb00"/><path d="m55.0082 273.054h18.1817v-18.189h-18.1816z" fill="#fcbb00"/><path d="m55.0082 345.758h18.1817v-18.176h-18.1816z" fill="#fcbb00"/><path d="m55.0082 363.934h18.1817v-18.176h-18.1816z" fill="#fddf8f"/><path d="m55.0082 382.123h18.1817v-18.188h-18.1816z" fill="#fcbb00"/><path d="m73.1898 127.619h18.1818v-18.176h-18.1818z" fill="#fcbb00"/><path d="m73.1898 145.795h18.1818v-18.176h-18.1818z" fill="#fcbb00"/><path d="m73.1898 163.984h18.1818v-18.188h-18.1818z" fill="#fcbb00"/><path d="m73.1898 182.16h18.1818v-18.176h-18.1818z" fill="#fcbb00"/><path d="m73.1898 200.337h18.1818v-18.177h-18.1818z" fill="#fcbb00"/><path d="m73.1898 218.513h18.1818v-18.176h-18.1818z" fill="#fddf8f"/><path d="m73.1898 236.689h18.1818v-18.176h-18.1818z" fill="#fcbb00"/><path d="m73.1898 254.865h18.1818v-18.176h-18.1818z" fill="#fcbb00"/><path d="m73.1898 273.054h18.1818v-18.189h-18.1818z" fill="#fcbb00"/><path d="m73.1898 309.406h18.1818v-18.176h-18.1818z" fill="#fcbb00"/><path d="m73.1898 327.582h18.1818v-18.176h-18.1818z" fill="#fcbb00"/><path d="m73.1898 345.758h18.1818v-18.176h-18.1818z" fill="#fcbb00"/><path d="m73.1898 363.934h18.1818v-18.176h-18.1818z" fill="#fcbb00"/><path d="m73.1898 382.123h18.1818v-18.188h-18.1818z" fill="#fcbb00"/><path d="m73.1898 400.299h18.1818v-18.176h-18.1818z" fill="#fcbb00"/><path d="m73.1898 473.004h18.1818v-18.176h-18.1818z" fill="#fcbb00"/><path d="m91.3716 91.2671h18.1814v-18.1762h-18.1814z" fill="#fcbb00"/><path d="m91.3716 109.443h18.1814v-18.1758h-18.1814z" fill="#fcbb00"/><path d="m91.3716 127.619h18.1814v-18.176h-18.1814z" fill="#fcbb00"/><path d="m91.3716 145.795h18.1814v-18.176h-18.1814z" fill="#fcbb00"/><path d="m91.3716 163.984h18.1814v-18.188h-18.1814z" fill="#fcbb00"/><path d="m91.3716 182.16h18.1814v-18.176h-18.1814z" fill="#fcbb00"/><path d="m91.3716 200.337h18.1814v-18.177h-18.1814z" fill="#fcbb00"/><path d="m91.3716 218.513h18.1814v-18.176h-18.1814z" fill="#fcbb00"/><path d="m91.3716 236.689h18.1814v-18.176h-18.1814z" fill="#fcbb00"/><path d="m91.3716 254.865h18.1814v-18.176h-18.1814z" fill="#fcbb00"/><path d="m91.3716 273.054h18.1814v-18.189h-18.1814z" fill="#fcbb00"/><path d="m91.3716 291.23h18.1814v-18.176h-18.1814z" fill="#fcbb00"/><path d="m91.3716 309.406h18.1814v-18.176h-18.1814z" fill="#fcbb00"/><path d="m91.3716 327.582h18.1814v-18.176h-18.1814z" fill="#fcbb00"/><path d="m91.3716 345.758h18.1814v-18.176h-18.1814z" fill="#fddf8f"/><path d="m91.3716 363.934h18.1814v-18.176h-18.1814z" fill="#fcbb00"/><path d="m91.3716 382.123h18.1814v-18.188h-18.1814z" fill="#fcbb00"/><path d="m91.3716 400.299h18.1814v-18.176h-18.1814z" fill="#fcbb00"/><path d="m109.553 91.2671h18.195v-18.1762h-18.195z" fill="#fcbb00"/><path d="m109.553 109.443h18.195v-18.1761h-18.195z" fill="#fcbb00"/><path d="m109.553 127.619h18.195v-18.176h-18.195z" fill="#fcbb00"/><path d="m109.553 145.795h18.195v-18.176h-18.195z" fill="#fddf8f"/><path d="m109.553 163.984h18.195v-18.188h-18.195z" fill="#fcbb00"/><path d="m109.553 182.16h18.195v-18.176h-18.195z" fill="#fcbb00"/><path d="m109.553 200.337h18.195v-18.177h-18.195z" fill="#fcbb00"/><path d="m109.553 218.513h18.195v-18.176h-18.195z" fill="#fcbb00"/><path d="m109.553 236.689h18.195v-18.176h-18.195z" fill="#fcbb00"/><path d="m109.553 254.865h18.195v-18.176h-18.195z" fill="#fcbb00"/><path d="m109.553 273.054h18.195v-18.189h-18.195z" fill="#fcbb00"/><path d="m109.553 291.23h18.195v-18.176h-18.195z" fill="#fcbb00"/><path d="m109.553 309.406h18.195v-18.176h-18.195z" fill="#fcbb00"/><path d="m109.553 327.582h18.195v-18.176h-18.195z" fill="#fcbb00"/><path d="m109.553 345.758h18.195v-18.176h-18.195z" fill="#fcbb00"/><path d="m109.553 363.934h18.195v-18.176h-18.195z" fill="#fcbb00"/><path d="m109.553 382.123h18.195v-18.188h-18.195z" fill="#fcbb00"/><path d="m109.553 400.299h18.195v-18.176h-18.195z" fill="#fddf8f"/><path d="m109.553 418.476h18.195v-18.177h-18.195z" fill="#fcbb00"/><path d="m127.747 73.0908h18.182v-18.1887h-18.182z" fill="#fcbb00"/><path d="m127.747 91.2671h18.182v-18.1762h-18.182z" fill="#fcbb00"/><path d="m127.747 109.443h18.182v-18.1761h-18.182z" fill="#fcbb00"/><path d="m127.747 127.619h18.182v-18.176h-18.182z" fill="#fcbb00"/><path d="m127.747 145.795h18.182v-18.176h-18.182z" fill="#fddf8f"/><path d="m127.747 163.984h18.182v-18.188h-18.182z" fill="#fcbb00"/><path d="m127.747 182.16h18.182v-18.176h-18.182z" fill="#fcbb00"/><path d="m127.747 200.337h18.182v-18.177h-18.182z" fill="#fcbb00"/><path d="m127.747 218.513h18.182v-18.176h-18.182z" fill="#fcbb00"/><path d="m127.747 236.689h18.182v-18.176h-18.182z" fill="#fcbb00"/><path d="m127.747 254.865h18.182v-18.176h-18.182z" fill="#fcbb00"/><path d="m127.747 273.054h18.182v-18.189h-18.182z" fill="#fcbb00"/><path d="m127.747 291.23h18.182v-18.176h-18.182z" fill="#fcbb00"/><path d="m127.747 309.406h18.182v-18.176h-18.182z" fill="#fcbb00"/><path d="m127.747 327.582h18.182v-18.176h-18.182z" fill="#fcbb00"/><path d="m127.747 345.758h18.182v-18.176h-18.182z" fill="#fcbb00"/><path d="m127.747 363.934h18.182v-18.176h-18.182z" fill="#fcbb00"/><path d="m127.747 382.123h18.182v-18.188h-18.182z" fill="#fcbb00"/><path d="m127.747 400.299h18.182v-18.176h-18.182z" fill="#fcbb00"/><path d="m127.747 418.476h18.182v-18.177h-18.182z" fill="#fcbb00"/><path d="m145.929 91.2671h18.182v-18.1762h-18.182z" fill="#fcbb00"/><path d="m145.929 109.443h18.182v-18.1761h-18.182z" fill="#fcbb00"/><path d="m145.929 127.619h18.182v-18.176h-18.182z" fill="#fcbb00"/><path d="m145.929 145.795h18.182v-18.176h-18.182z" fill="#fddf8f"/><path d="m145.929 163.984h18.182v-18.188h-18.182z" fill="#fcbb00"/><path d="m145.929 182.16h18.182v-18.176h-18.182z" fill="#fcbb00"/><path d="m145.929 200.336h18.182v-18.176h-18.182z" fill="#fcbb00"/><path d="m145.929 218.513h18.182v-18.176h-18.182z" fill="#fcbb00"/><path d="m145.929 236.689h18.182v-18.176h-18.182z" fill="#fcbb00"/><path d="m145.929 254.865h18.182v-18.176h-18.182z" fill="#fcbb00"/><path d="m145.929 273.054h18.182v-18.189h-18.182z" fill="#fcbb00"/><path d="m145.929 291.23h18.182v-18.176h-18.182z" fill="#fcbb00"/><path d="m145.929 309.406h18.182v-18.176h-18.182z" fill="#fcbb00"/><path d="m145.929 327.582h18.182v-18.176h-18.182z" fill="#fcbb00"/><path d="m145.929 345.758h18.182v-18.176h-18.182z" fill="#fcbb00"/><path d="m145.929 363.934h18.182v-18.176h-18.182z" fill="#fcbb00"/><path d="m145.929 382.123h18.182v-18.188h-18.182z" fill="#fcbb00"/><path d="m145.929 400.299h18.182v-18.176h-18.182z" fill="#fddf8f"/><path d="m164.111 54.9019h18.181v-18.1762h-18.181z" fill="#fcbb00"/><path d="m164.111 91.2671h18.181v-18.1762h-18.181z" fill="#fcbb00"/><path d="m164.111 109.443h18.181v-18.1761h-18.181z" fill="#fcbb00"/><path d="m164.111 127.619h18.181v-18.176h-18.181z" fill="#fcbb00"/><path d="m164.111 145.795h18.181v-18.176h-18.181z" fill="#fcbb00"/><path d="m164.111 163.984h18.181v-18.188h-18.181z" fill="#fcbb00"/><path d="m164.111 182.16h18.181v-18.176h-18.181z" fill="#fcbb00"/><path d="m164.111 200.336h18.181v-18.176h-18.181z" fill="#fcbb00"/><path d="m164.111 218.513h18.181v-18.176h-18.181z" fill="#fcbb00"/><path d="m164.111 236.689h18.181v-18.176h-18.181z" fill="#fcbb00"/><path d="m164.111 254.865h18.181v-18.176h-18.181z" fill="#fcbb00"/><path d="m164.111 273.054h18.181v-18.189h-18.181z" fill="#fcbb00"/><path d="m164.111 291.23h18.181v-18.176h-18.181z" fill="#fcbb00"/><path d="m164.111 309.406h18.181v-18.176h-18.181z" fill="#fcbb00"/><path d="m164.111 327.582h18.181v-18.176h-18.181z" fill="#fcbb00"/><path d="m164.111 345.758h18.181v-18.176h-18.181z" fill="#fcbb00"/><path d="m164.111 363.934h18.181v-18.176h-18.181z" fill="#fcbb00"/><path d="m164.111 382.123h18.181v-18.188h-18.181z" fill="#fcbb00"/><path d="m182.292 91.2671h18.182v-18.1762h-18.182z" fill="#fcbb00"/><path d="m182.292 109.443h18.182v-18.1761h-18.182z" fill="#fcbb00"/><path d="m182.292 127.619h18.182v-18.176h-18.182z" fill="#fcbb00"/><path d="m182.292 145.795h18.182v-18.176h-18.182z" fill="#fcbb00"/><path d="m182.292 163.984h18.182v-18.188h-18.182z" fill="#fddf8f"/><path d="m182.292 182.16h18.182v-18.176h-18.182z" fill="#fddf8f"/><path d="m182.292 200.336h18.182v-18.176h-18.182z" fill="#fcbb00"/><path d="m182.292 218.513h18.182v-18.176h-18.182z" fill="#fcbb00"/><path d="m182.292 236.689h18.182v-18.176h-18.182z" fill="#fcbb00"/><path d="m182.292 254.865h18.182v-18.176h-18.182z" fill="#fcbb00"/><path d="m182.292 273.054h18.182v-18.189h-18.182z" fill="#fcbb00"/><path d="m182.292 291.23h18.182v-18.176h-18.182z" fill="#fcbb00"/><path d="m182.292 309.406h18.182v-18.176h-18.182z" fill="#fcbb00"/><path d="m182.292 327.582h18.182v-18.176h-18.182z" fill="#fcbb00"/><path d="m182.292 345.758h18.182v-18.176h-18.182z" fill="#fcbb00"/><path d="m182.292 363.934h18.182v-18.176h-18.182z" fill="#fcbb00"/><path d="m182.292 382.123h18.182v-18.188h-18.182z" fill="#fddf8f"/><path d="m182.292 400.299h18.182v-18.176h-18.182z" fill="#fddf8f"/><path d="m182.292 418.476h18.182v-18.177h-18.182z" fill="#fddf8f"/><path d="m182.292 436.652h18.182v-18.176h-18.182z" fill="#fddf8f"/><path d="m200.474 109.443h18.182v-18.1761h-18.182z" fill="#fddf8f"/><path d="m200.474 127.619h18.182v-18.176h-18.182z" fill="#fcbb00"/><path d="m200.474 145.795h18.182v-18.176h-18.182z" fill="#fcbb00"/><path d="m200.474 163.984h18.182v-18.188h-18.182z" fill="#fcbb00"/><path d="m200.474 182.16h18.182v-18.176h-18.182z" fill="#fcbb00"/><path d="m200.474 200.336h18.182v-18.176h-18.182z" fill="#fcbb00"/><path d="m200.474 218.513h18.182v-18.176h-18.182z" fill="#fcbb00"/><path d="m200.474 236.689h18.182v-18.176h-18.182z" fill="#fcbb00"/><path d="m200.474 254.865h18.182v-18.176h-18.182z" fill="#fcbb00"/><path d="m200.474 273.054h18.182v-18.189h-18.182z" fill="#fcbb00"/><path d="m200.474 291.23h18.182v-18.176h-18.182z" fill="#fcbb00"/><path d="m200.474 309.406h18.182v-18.176h-18.182z" fill="#fcbb00"/><path d="m200.474 327.582h18.182v-18.176h-18.182z" fill="#fcbb00"/><path d="m200.474 345.758h18.182v-18.176h-18.182z" fill="#fcbb00"/><path d="m200.474 363.934h18.182v-18.176h-18.182z" fill="#fcbb00"/><path d="m200.474 382.123h18.182v-18.188h-18.182z" fill="#fcbb00"/><path d="m200.474 400.299h18.182v-18.176h-18.182z" fill="#fddf8f"/><path d="m200.474 418.476h18.182v-18.177h-18.182z" fill="#fcbb00"/><path d="m200.474 436.652h18.182v-18.176h-18.182z" fill="#fcbb00"/><path d="m218.655 109.443h18.195v-18.1761h-18.195z" fill="#fddf8f"/><path d="m218.655 127.619h18.195v-18.176h-18.195z" fill="#fcbb00"/><path d="m218.655 145.795h18.195v-18.176h-18.195z" fill="#fcbb00"/><path d="m218.655 163.984h18.195v-18.188h-18.195z" fill="#fcbb00"/><path d="m218.655 182.16h18.195v-18.176h-18.195z" fill="#fcbb00"/><path d="m218.655 200.336h18.195v-18.176h-18.195z" fill="#fcbb00"/><path d="m218.655 218.513h18.195v-18.176h-18.195z" fill="#fcbb00"/><path d="m218.655 236.689h18.195v-18.176h-18.195z" fill="#fcbb00"/><path d="m218.655 254.865h18.195v-18.176h-18.195z" fill="#fcbb00"/><path d="m218.655 273.054h18.195v-18.189h-18.195z" fill="#fcbb00"/><path d="m218.655 291.23h18.195v-18.176h-18.195z" fill="#fcbb00"/><path d="m218.655 309.406h18.195v-18.176h-18.195z" fill="#fcbb00"/><path d="m218.655 327.582h18.195v-18.176h-18.195z" fill="#fcbb00"/><path d="m218.655 345.758h18.195v-18.176h-18.195z" fill="#fcbb00"/><path d="m218.655 363.934h18.195v-18.176h-18.195z" fill="#fcbb00"/><path d="m218.655 382.123h18.195v-18.188h-18.195z" fill="#fddf8f"/><path d="m218.655 400.3h18.195v-18.177h-18.195z" fill="#fcbb00"/><path d="m218.655 418.476h18.195v-18.177h-18.195z" fill="#fcbb00"/><path d="m218.655 454.828h18.195v-18.176h-18.195z" fill="#fcbb00"/><path d="m236.85 109.443h18.182v-18.1761h-18.182z" fill="#fddf8f"/><path d="m236.85 127.619h18.182v-18.176h-18.182z" fill="#fcbb00"/><path d="m236.85 145.795h18.182v-18.176h-18.182z" fill="#fcbb00"/><path d="m236.85 163.984h18.182v-18.188h-18.182z" fill="#fcbb00"/><path d="m236.85 182.16h18.182v-18.176h-18.182z" fill="#fcbb00"/><path d="m236.85 200.336h18.182v-18.176h-18.182z" fill="#fcbb00"/><path d="m236.85 218.513h18.182v-18.176h-18.182z" fill="#fcbb00"/><path d="m236.85 236.689h18.182v-18.176h-18.182z" fill="#fcbb00"/><path d="m236.85 254.865h18.182v-18.176h-18.182z" fill="#fcbb00"/><path d="m236.85 273.054h18.182v-18.189h-18.182z" fill="#fcbb00"/><path d="m236.85 291.23h18.182v-18.176h-18.182z" fill="#fcbb00"/><path d="m236.85 309.406h18.182v-18.176h-18.182z" fill="#fcbb00"/><path d="m236.85 327.582h18.182v-18.176h-18.182z" fill="#fcbb00"/><path d="m236.85 345.758h18.182v-18.176h-18.182z" fill="#fcbb00"/><path d="m236.85 363.934h18.182v-18.176h-18.182z" fill="#fcbb00"/><path d="m236.85 382.123h18.182v-18.188h-18.182z" fill="#fcbb00"/><path d="m236.85 400.3h18.182v-18.177h-18.182z" fill="#fddf8f"/><path d="m236.85 418.476h18.182v-18.177h-18.182z" fill="#fcbb00"/><path d="m236.85 436.652h18.182v-18.176h-18.182z" fill="#fcbb00"/><path d="m236.85 454.828h18.182v-18.176h-18.182z" fill="#fddf8f"/><path d="m255.032 91.2671h18.181v-18.1762h-18.181z" fill="#fcbb00"/><path d="m255.032 109.443h18.181v-18.1761h-18.181z" fill="#fddf8f"/><path d="m255.032 127.619h18.181v-18.176h-18.181z" fill="#fcbb00"/><path d="m255.032 145.795h18.181v-18.176h-18.181z" fill="#fcbb00"/><path d="m255.032 163.984h18.181v-18.188h-18.181z" fill="#fcbb00"/><path d="m255.032 182.16h18.181v-18.176h-18.181z" fill="#fcbb00"/><path d="m255.032 200.336h18.181v-18.176h-18.181z" fill="#fcbb00"/><path d="m255.032 218.513h18.181v-18.176h-18.181z" fill="#fcbb00"/><path d="m255.032 236.689h18.181v-18.176h-18.181z" fill="#fcbb00"/><path d="m255.032 254.865h18.181v-18.176h-18.181z" fill="#fcbb00"/><path d="m255.032 273.054h18.181v-18.189h-18.181z" fill="#fcbb00"/><path d="m255.032 291.23h18.181v-18.176h-18.181z" fill="#fcbb00"/><path d="m255.032 309.406h18.181v-18.176h-18.181z" fill="#fcbb00"/><path d="m255.032 327.582h18.181v-18.176h-18.181z" fill="#fcbb00"/><path d="m255.032 345.758h18.181v-18.176h-18.181z" fill="#fcbb00"/><path d="m255.032 363.934h18.181v-18.176h-18.181z" fill="#fcbb00"/><path d="m255.032 382.123h18.181v-18.188h-18.181z" fill="#fcbb00"/><path d="m255.032 400.3h18.181v-18.177h-18.181z" fill="#fcbb00"/><path d="m255.032 418.476h18.181v-18.177h-18.181z" fill="#fcbb00"/><path d="m255.032 436.652h18.181v-18.176h-18.181z" fill="#fcbb00"/><path d="m255.032 454.828h18.181v-18.176h-18.181z" fill="#fcbb00"/><path d="m255.032 473.004h18.181v-18.176h-18.181z" fill="#fcbb00"/><path d="m273.213 91.2671h18.182v-18.1762h-18.182z" fill="#fcbb00"/><path d="m273.213 109.443h18.182v-18.1758h-18.182z" fill="#fcbb00"/><path d="m273.213 127.619h18.182v-18.176h-18.182z" fill="#fcbb00"/><path d="m273.213 145.795h18.182v-18.176h-18.182z" fill="#fcbb00"/><path d="m273.213 163.984h18.182v-18.188h-18.182z" fill="#fcbb00"/><path d="m273.213 182.16h18.182v-18.176h-18.182z" fill="#fcbb00"/><path d="m273.213 200.337h18.182v-18.177h-18.182z" fill="#fcbb00"/><path d="m273.213 218.513h18.182v-18.176h-18.182z" fill="#fcbb00"/><path d="m273.213 236.689h18.182v-18.176h-18.182z" fill="#fcbb00"/><path d="m273.213 254.865h18.182v-18.176h-18.182z" fill="#fcbb00"/><path d="m273.213 273.054h18.182v-18.189h-18.182z" fill="#fcbb00"/><path d="m273.213 291.23h18.182v-18.176h-18.182z" fill="#fcbb00"/><path d="m273.213 309.406h18.182v-18.176h-18.182z" fill="#fcbb00"/><path d="m273.213 327.582h18.182v-18.176h-18.182z" fill="#fcbb00"/><path d="m273.213 345.758h18.182v-18.176h-18.182z" fill="#fcbb00"/><path d="m273.213 363.934h18.182v-18.176h-18.182z" fill="#fcbb00"/><path d="m273.213 382.123h18.182v-18.188h-18.182z" fill="#fcbb00"/><path d="m273.213 400.3h18.182v-18.177h-18.182z" fill="#fcbb00"/><path d="m273.213 418.476h18.182v-18.177h-18.182z" fill="#fcbb00"/><path d="m273.213 436.652h18.182v-18.176h-18.182z" fill="#fcbb00"/><path d="m273.213 454.828h18.182v-18.176h-18.182z" fill="#fcbb00"/><path d="m291.395 91.2671h18.182v-18.1762h-18.182z" fill="#fcbb00"/><path d="m291.395 109.443h18.182v-18.1758h-18.182z" fill="#fcbb00"/><path d="m291.395 127.619h18.182v-18.176h-18.182z" fill="#fcbb00"/><path d="m291.395 145.795h18.182v-18.176h-18.182z" fill="#fcbb00"/><path d="m291.395 163.984h18.182v-18.188h-18.182z" fill="#fcbb00"/><path d="m291.395 182.16h18.182v-18.176h-18.182z" fill="#fcbb00"/><path d="m291.395 200.337h18.182v-18.177h-18.182z" fill="#fcbb00"/><path d="m291.395 218.513h18.182v-18.176h-18.182z" fill="#fcbb00"/><path d="m291.395 236.689h18.182v-18.176h-18.182z" fill="#fcbb00"/><path d="m291.395 254.865h18.182v-18.176h-18.182z" fill="#fcbb00"/><path d="m291.395 273.054h18.182v-18.189h-18.182z" fill="#fcbb00"/><path d="m291.395 291.23h18.182v-18.176h-18.182z" fill="#fcbb00"/><path d="m291.395 309.406h18.182v-18.176h-18.182z" fill="#fcbb00"/><path d="m291.395 327.582h18.182v-18.176h-18.182z" fill="#fcbb00"/><path d="m291.395 345.759h18.182v-18.177h-18.182z" fill="#fcbb00"/><path d="m291.395 363.934h18.182v-18.176h-18.182z" fill="#fcbb00"/><path d="m291.395 382.123h18.182v-18.188h-18.182z" fill="#fcbb00"/><path d="m291.395 400.3h18.182v-18.177h-18.182z" fill="#fcbb00"/><path d="m291.395 418.476h18.182v-18.177h-18.182z" fill="#fcbb00"/><path d="m291.395 436.652h18.182v-18.176h-18.182z" fill="#fcbb00"/><path d="m309.577 91.2671h18.194v-18.1762h-18.194z" fill="#fddf8f"/><g fill="#fcbb00"><path d="m309.577 109.443h18.194v-18.1758h-18.194z"/><path d="m309.577 127.619h18.194v-18.176h-18.194z"/><path d="m309.577 145.795h18.194v-18.176h-18.194z"/><path d="m309.577 163.984h18.194v-18.188h-18.194z"/><path d="m309.577 182.16h18.194v-18.176h-18.194z"/><path d="m309.577 200.337h18.194v-18.177h-18.194z"/><path d="m309.577 218.513h18.194v-18.176h-18.194z"/><path d="m309.577 236.689h18.194v-18.176h-18.194z"/><path d="m309.577 254.865h18.194v-18.176h-18.194z"/><path d="m309.577 273.054h18.194v-18.189h-18.194z"/><path d="m309.577 291.23h18.194v-18.176h-18.194z"/><path d="m309.577 309.406h18.194v-18.176h-18.194z"/><path d="m309.577 327.582h18.194v-18.176h-18.194z"/><path d="m309.577 345.759h18.194v-18.177h-18.194z"/><path d="m309.577 363.934h18.194v-18.176h-18.194z"/><path d="m309.577 382.123h18.194v-18.188h-18.194z"/><path d="m309.577 400.3h18.194v-18.177h-18.194z"/><path d="m309.577 418.476h18.194v-18.177h-18.194z"/><path d="m309.577 436.652h18.194v-18.176h-18.194z"/><path d="m327.771 54.9021h18.182v-18.1761h-18.182z"/><path d="m327.771 73.0908h18.182v-18.1887h-18.182z"/><path d="m327.771 91.2671h18.182v-18.1762h-18.182z"/><path d="m327.771 109.443h18.182v-18.1758h-18.182z"/><path d="m327.771 127.619h18.182v-18.176h-18.182z"/><path d="m327.771 145.795h18.182v-18.176h-18.182z"/><path d="m327.771 163.984h18.182v-18.188h-18.182z"/><path d="m327.771 182.16h18.182v-18.176h-18.182z"/><path d="m327.771 200.337h18.182v-18.177h-18.182z"/><path d="m327.771 218.513h18.182v-18.176h-18.182z"/><path d="m327.771 236.689h18.182v-18.176h-18.182z"/><path d="m327.771 254.865h18.182v-18.176h-18.182z"/><path d="m327.771 273.054h18.182v-18.189h-18.182z"/><path d="m327.771 291.23h18.182v-18.176h-18.182z"/><path d="m327.771 309.406h18.182v-18.176h-18.182z"/><path d="m327.771 327.582h18.182v-18.176h-18.182z"/><path d="m327.771 345.759h18.182v-18.177h-18.182z"/><path d="m327.771 363.934h18.182v-18.176h-18.182z"/><path d="m327.771 382.123h18.182v-18.188h-18.182z"/><path d="m327.771 400.3h18.182v-18.177h-18.182z"/><path d="m327.771 418.476h18.182v-18.177h-18.182z"/><path d="m345.953 54.9021h18.181v-18.1761h-18.181z"/><path d="m345.953 73.0908h18.181v-18.1887h-18.181z"/><path d="m345.953 91.2671h18.181v-18.1762h-18.181z"/><path d="m345.953 109.443h18.181v-18.1758h-18.181z"/><path d="m345.953 127.619h18.181v-18.176h-18.181z"/><path d="m345.953 145.795h18.181v-18.176h-18.181z"/><path d="m345.953 163.984h18.181v-18.188h-18.181z"/><path d="m345.953 182.16h18.181v-18.176h-18.181z"/><path d="m345.953 200.337h18.181v-18.177h-18.181z"/><path d="m345.953 218.513h18.181v-18.176h-18.181z"/><path d="m345.953 236.689h18.181v-18.176h-18.181z"/><path d="m345.953 254.865h18.181v-18.176h-18.181z"/><path d="m345.953 273.054h18.181v-18.189h-18.181z"/><path d="m345.953 291.23h18.181v-18.176h-18.181z"/><path d="m345.953 309.406h18.181v-18.176h-18.181z"/><path d="m345.953 327.582h18.181v-18.176h-18.181z"/><path d="m345.953 345.759h18.181v-18.177h-18.181z"/><path d="m345.953 363.934h18.181v-18.176h-18.181z"/><path d="m345.953 382.123h18.181v-18.188h-18.181z"/><path d="m345.953 400.3h18.181v-18.177h-18.181z"/><path d="m345.953 418.476h18.181v-18.177h-18.181z"/><path d="m364.134 73.0908h18.182v-18.1887h-18.182z"/><path d="m364.134 91.2671h18.182v-18.1762h-18.182z"/><path d="m364.134 109.443h18.182v-18.1758h-18.182z"/><path d="m364.134 127.619h18.182v-18.176h-18.182z"/><path d="m364.134 145.795h18.182v-18.176h-18.182z"/><path d="m364.134 163.984h18.182v-18.188h-18.182z"/><path d="m364.134 182.16h18.182v-18.176h-18.182z"/><path d="m364.134 200.337h18.182v-18.177h-18.182z"/><path d="m364.134 218.513h18.182v-18.176h-18.182z"/><path d="m364.134 236.689h18.182v-18.176h-18.182z"/><path d="m364.134 254.865h18.182v-18.176h-18.182z"/><path d="m364.134 273.054h18.182v-18.189h-18.182z"/><path d="m364.134 291.23h18.182v-18.176h-18.182z"/><path d="m364.134 309.406h18.182v-18.176h-18.182z"/><path d="m364.134 327.582h18.182v-18.176h-18.182z"/><path d="m364.134 345.759h18.182v-18.177h-18.182z"/><path d="m364.134 363.934h18.182v-18.176h-18.182z"/><path d="m364.134 382.123h18.182v-18.188h-18.182z"/><path d="m364.134 400.3h18.182v-18.177h-18.182z"/><path d="m364.134 418.476h18.182v-18.177h-18.182z"/><path d="m382.316 73.0908h18.182v-18.1887h-18.182z"/></g><path d="m382.316 91.2671h18.182v-18.1762h-18.182z" fill="#fddf8f"/><path d="m382.316 109.443h18.182v-18.1758h-18.182z" fill="#fcbb00"/><path d="m382.316 127.619h18.182v-18.176h-18.182z" fill="#fcbb00"/><path d="m382.316 145.795h18.182v-18.176h-18.182z" fill="#fcbb00"/><path d="m382.316 163.984h18.182v-18.188h-18.182z" fill="#fcbb00"/><path d="m382.316 182.16h18.182v-18.176h-18.182z" fill="#fcbb00"/><path d="m382.316 200.337h18.182v-18.177h-18.182z" fill="#fcbb00"/><path d="m382.316 218.513h18.182v-18.176h-18.182z" fill="#fcbb00"/><path d="m382.316 236.689h18.182v-18.176h-18.182z" fill="#fcbb00"/><path d="m382.316 254.865h18.182v-18.176h-18.182z" fill="#fcbb00"/><path d="m382.316 273.054h18.182v-18.189h-18.182z" fill="#fcbb00"/><path d="m382.316 291.23h18.182v-18.176h-18.182z" fill="#fcbb00"/><path d="m382.316 309.406h18.182v-18.176h-18.182z" fill="#fcbb00"/><path d="m382.316 327.582h18.182v-18.176h-18.182z" fill="#fcbb00"/><path d="m382.316 345.759h18.182v-18.177h-18.182z" fill="#fcbb00"/><path d="m382.316 363.934h18.182v-18.176h-18.182z" fill="#fcbb00"/><path d="m382.316 382.123h18.182v-18.188h-18.182z" fill="#fcbb00"/><path d="m382.316 400.3h18.182v-18.177h-18.182z" fill="#fcbb00"/><path d="m400.498 73.0908h18.182v-18.1887h-18.182z" fill="#fcbb00"/><path d="m400.498 91.2671h18.182v-18.1762h-18.182z" fill="#fddf8f"/><path d="m400.498 109.443h18.182v-18.1758h-18.182z" fill="#fcbb00"/><path d="m400.498 127.619h18.182v-18.176h-18.182z" fill="#fcbb00"/><path d="m400.498 145.795h18.182v-18.176h-18.182z" fill="#fcbb00"/><path d="m400.498 163.984h18.182v-18.188h-18.182z" fill="#fcbb00"/><path d="m400.498 182.16h18.182v-18.176h-18.182z" fill="#fcbb00"/><path d="m400.498 200.337h18.182v-18.177h-18.182z" fill="#fcbb00"/><path d="m400.498 218.513h18.182v-18.176h-18.182z" fill="#fcbb00"/><path d="m400.498 236.689h18.182v-18.176h-18.182z" fill="#fcbb00"/><path d="m400.498 254.865h18.182v-18.176h-18.182z" fill="#fcbb00"/><path d="m400.498 273.054h18.182v-18.189h-18.182z" fill="#fcbb00"/><path d="m400.498 291.23h18.182v-18.176h-18.182z" fill="#fcbb00"/><path d="m400.498 309.406h18.182v-18.176h-18.182z" fill="#fcbb00"/><path d="m400.498 327.582h18.182v-18.176h-18.182z" fill="#fcbb00"/><path d="m400.498 345.759h18.182v-18.177h-18.182z" fill="#fcbb00"/><path d="m400.498 363.934h18.182v-18.176h-18.182z" fill="#fcbb00"/><path d="m400.498 382.123h18.182v-18.188h-18.182z" fill="#fcbb00"/><path d="m400.498 400.3h18.182v-18.177h-18.182z" fill="#fcbb00"/><path d="m400.498 454.828h18.182v-18.176h-18.182z" fill="#fcbb00"/><path d="m400.498 473.004h18.182v-18.176h-18.182z" fill="#fddf8f"/><path d="m418.68 91.2671h18.194v-18.1762h-18.194z" fill="#fddf8f"/><path d="m418.68 109.443h18.194v-18.1758h-18.194z" fill="#fcbb00"/><path d="m418.68 127.619h18.194v-18.176h-18.194z" fill="#fcbb00"/><path d="m418.68 145.795h18.194v-18.176h-18.194z" fill="#fcbb00"/><path d="m418.68 163.984h18.194v-18.188h-18.194z" fill="#fcbb00"/><path d="m418.68 182.16h18.194v-18.176h-18.194z" fill="#fcbb00"/><path d="m418.68 200.337h18.194v-18.177h-18.194z" fill="#fcbb00"/><path d="m418.68 218.513h18.194v-18.176h-18.194z" fill="#fcbb00"/><path d="m418.68 236.689h18.194v-18.176h-18.194z" fill="#fcbb00"/><path d="m418.68 254.865h18.194v-18.176h-18.194z" fill="#fcbb00"/><path d="m418.68 273.054h18.194v-18.189h-18.194z" fill="#fcbb00"/><path d="m418.68 291.23h18.194v-18.176h-18.194z" fill="#fcbb00"/><path d="m418.68 309.406h18.194v-18.176h-18.194z" fill="#fcbb00"/><path d="m418.68 327.582h18.194v-18.176h-18.194z" fill="#fcbb00"/><path d="m418.68 345.759h18.194v-18.177h-18.194z" fill="#fcbb00"/><path d="m418.68 363.934h18.194v-18.176h-18.194z" fill="#fcbb00"/><path d="m418.68 382.123h18.194v-18.188h-18.194z" fill="#fcbb00"/><path d="m418.68 400.3h18.194v-18.177h-18.194z" fill="#fcbb00"/><path d="m436.873 91.2671h18.182v-18.1762h-18.182z" fill="#fcbb00"/><path d="m436.873 109.443h18.182v-18.1758h-18.182z" fill="#fcbb00"/><path d="m436.873 127.619h18.182v-18.176h-18.182z" fill="#fcbb00"/><path d="m436.873 145.795h18.182v-18.176h-18.182z" fill="#fcbb00"/><path d="m436.873 163.984h18.182v-18.188h-18.182z" fill="#fcbb00"/><path d="m436.873 182.16h18.182v-18.176h-18.182z" fill="#fcbb00"/><path d="m436.873 200.337h18.182v-18.177h-18.182z" fill="#fcbb00"/><path d="m436.873 218.513h18.182v-18.176h-18.182z" fill="#fcbb00"/><path d="m436.873 236.689h18.182v-18.176h-18.182z" fill="#fcbb00"/><path d="m436.873 254.865h18.182v-18.176h-18.182z" fill="#fcbb00"/><path d="m436.873 273.054h18.182v-18.189h-18.182z" fill="#fcbb00"/><path d="m436.873 291.23h18.182v-18.176h-18.182z" fill="#fcbb00"/><path d="m436.873 309.406h18.182v-18.176h-18.182z" fill="#fcbb00"/><path d="m436.873 327.582h18.182v-18.176h-18.182z" fill="#fcbb00"/><path d="m436.873 345.759h18.182v-18.177h-18.182z" fill="#fcbb00"/><path d="m436.873 363.934h18.182v-18.176h-18.182z" fill="#fcbb00"/><path d="m436.873 382.123h18.182v-18.188h-18.182z" fill="#fcbb00"/><path d="m436.873 400.3h18.182v-18.177h-18.182z" fill="#fddf8f"/><path d="m436.873 436.652h18.182v-18.176h-18.182z" fill="#fddf8f"/><path d="m455.055 91.2671h18.182v-18.1762h-18.182z" fill="#fcbb00"/><path d="m455.055 109.443h18.182v-18.1761h-18.182z" fill="#fcbb00"/><path d="m455.055 127.619h18.182v-18.176h-18.182z" fill="#fcbb00"/><path d="m455.055 145.795h18.182v-18.176h-18.182z" fill="#fcbb00"/><path d="m455.055 163.984h18.182v-18.188h-18.182z" fill="#fcbb00"/><path d="m455.055 182.16h18.182v-18.176h-18.182z" fill="#fcbb00"/><path d="m455.055 200.337h18.182v-18.177h-18.182z" fill="#fcbb00"/><path d="m455.055 218.513h18.182v-18.176h-18.182z" fill="#fcbb00"/><path d="m455.055 236.689h18.182v-18.176h-18.182z" fill="#fcbb00"/><path d="m455.055 254.865h18.182v-18.176h-18.182z" fill="#fcbb00"/><path d="m455.055 273.054h18.182v-18.189h-18.182z" fill="#fcbb00"/><path d="m455.055 291.23h18.182v-18.176h-18.182z" fill="#fcbb00"/><path d="m455.055 309.406h18.182v-18.176h-18.182z" fill="#fcbb00"/><path d="m455.055 327.582h18.182v-18.176h-18.182z" fill="#fcbb00"/><path d="m455.055 345.759h18.182v-18.177h-18.182z" fill="#fcbb00"/><path d="m455.055 363.935h18.182v-18.177h-18.182z" fill="#fcbb00"/><path d="m455.055 382.124h18.182v-18.189h-18.182z" fill="#fcbb00"/><path d="m455.055 400.3h18.182v-18.177h-18.182z" fill="#fcbb00"/><path d="m455.055 418.476h18.182v-18.177h-18.182z" fill="#fcbb00"/><path d="m455.055 436.652h18.182v-18.176h-18.182z" fill="#fcbb00"/><path d="m473.237 91.2671h18.181v-18.1762h-18.181z" fill="#fcbb00"/><path d="m473.237 109.443h18.181v-18.1761h-18.181z" fill="#fcbb00"/><path d="m473.237 127.619h18.181v-18.176h-18.181z" fill="#fcbb00"/><path d="m473.237 145.795h18.181v-18.176h-18.181z" fill="#fcbb00"/><path d="m473.237 163.984h18.181v-18.188h-18.181z" fill="#fddf8f"/><path d="m473.237 182.16h18.181v-18.176h-18.181z" fill="#fddf8f"/><path d="m473.237 200.337h18.181v-18.177h-18.181z" fill="#fcbb00"/><path d="m473.237 218.513h18.181v-18.176h-18.181z" fill="#fcbb00"/><path d="m473.237 236.689h18.181v-18.176h-18.181z" fill="#fcbb00"/><path d="m473.237 254.865h18.181v-18.176h-18.181z" fill="#fcbb00"/><path d="m473.237 273.054h18.181v-18.189h-18.181z" fill="#fddf8f"/><path d="m473.237 291.23h18.181v-18.176h-18.181z" fill="#fddf8f"/><path d="m473.237 309.406h18.181v-18.176h-18.181z" fill="#fddf8f"/><path d="m473.237 327.582h18.181v-18.176h-18.181z" fill="#fcbb00"/><path d="m473.237 345.759h18.181v-18.177h-18.181z" fill="#fcbb00"/><path d="m473.237 363.935h18.181v-18.177h-18.181z" fill="#fcbb00"/><path d="m473.237 382.124h18.181v-18.189h-18.181z" fill="#fcbb00"/><path d="m473.237 400.3h18.181v-18.177h-18.181z" fill="#fcbb00"/><path d="m473.237 418.476h18.181v-18.177h-18.181z" fill="#fcbb00"/><path d="m473.237 436.652h18.181v-18.176h-18.181z" fill="#fcbb00"/><path d="m473.237 473.004h18.181v-18.176h-18.181z" fill="#fddf8f"/><path d="m491.419 91.2671h18.182v-18.1762h-18.182z" fill="#fcbb00"/><path d="m491.419 109.443h18.182v-18.1761h-18.182z" fill="#fddf8f"/><path d="m491.419 127.619h18.182v-18.176h-18.182z" fill="#fcbb00"/><path d="m491.419 145.795h18.182v-18.176h-18.182z" fill="#fcbb00"/><path d="m491.419 163.984h18.182v-18.188h-18.182z" fill="#fcbb00"/><path d="m491.419 182.16h18.182v-18.176h-18.182z" fill="#fcbb00"/><path d="m491.419 200.336h18.182v-18.176h-18.182z" fill="#fddf8f"/><path d="m491.419 218.513h18.182v-18.176h-18.182z" fill="#fcbb00"/><path d="m491.419 236.689h18.182v-18.176h-18.182z" fill="#fcbb00"/><path d="m491.419 254.865h18.182v-18.176h-18.182z" fill="#fcbb00"/><path d="m491.419 273.054h18.182v-18.189h-18.182z" fill="#fcbb00"/><path d="m491.419 291.23h18.182v-18.176h-18.182z" fill="#fcbb00"/><path d="m491.419 309.406h18.182v-18.176h-18.182z" fill="#fcbb00"/><path d="m491.419 327.582h18.182v-18.176h-18.182z" fill="#fcbb00"/><path d="m491.419 345.759h18.182v-18.177h-18.182z" fill="#fcbb00"/><path d="m491.419 363.935h18.182v-18.177h-18.182z" fill="#fcbb00"/><path d="m491.419 382.124h18.182v-18.189h-18.182z" fill="#fcbb00"/><path d="m491.419 400.3h18.182v-18.177h-18.182z" fill="#fddf8f"/><path d="m491.419 418.476h18.182v-18.177h-18.182z" fill="#fcbb00"/><path d="m491.419 436.652h18.182v-18.176h-18.182z" fill="#fddf8f"/><path d="m509.601 91.2671h18.181v-18.1762h-18.181z" fill="#fcbb00"/><path d="m509.601 109.443h18.181v-18.1761h-18.181z" fill="#fddf8f"/><path d="m509.601 127.619h18.181v-18.176h-18.181z" fill="#fddf8f"/><path d="m509.601 145.795h18.181v-18.176h-18.181z" fill="#fcbb00"/><path d="m509.601 163.984h18.181v-18.188h-18.181z" fill="#fcbb00"/><path d="m509.601 182.16h18.181v-18.176h-18.181z" fill="#fcbb00"/><path d="m509.601 200.336h18.181v-18.176h-18.181z" fill="#fcbb00"/><path d="m509.601 218.513h18.181v-18.176h-18.181z" fill="#fcbb00"/><path d="m509.601 236.689h18.181v-18.176h-18.181z" fill="#fcbb00"/><path d="m509.601 254.865h18.181v-18.176h-18.181z" fill="#fcbb00"/><path d="m509.601 273.054h18.181v-18.189h-18.181z" fill="#fcbb00"/><path d="m509.601 291.23h18.181v-18.176h-18.181z" fill="#fcbb00"/><path d="m509.601 309.406h18.181v-18.176h-18.181z" fill="#fcbb00"/><path d="m509.601 327.582h18.181v-18.176h-18.181z" fill="#fcbb00"/><path d="m509.601 345.759h18.181v-18.177h-18.181z" fill="#fcbb00"/><path d="m509.601 363.935h18.181v-18.177h-18.181z" fill="#fcbb00"/><path d="m509.601 382.124h18.181v-18.189h-18.181z" fill="#fcbb00"/><path d="m509.601 400.3h18.181v-18.177h-18.181z" fill="#fcbb00"/><path d="m509.601 418.476h18.181v-18.177h-18.181z" fill="#fcbb00"/><path d="m527.782 109.443h18.195v-18.1761h-18.195z" fill="#fcbb00"/><path d="m527.782 127.619h18.195v-18.176h-18.195z" fill="#fddf8f"/><path d="m527.782 145.795h18.195v-18.176h-18.195z" fill="#fcbb00"/><path d="m527.782 163.984h18.195v-18.188h-18.195z" fill="#fcbb00"/><path d="m527.782 182.16h18.195v-18.176h-18.195z" fill="#fcbb00"/><path d="m527.782 200.336h18.195v-18.176h-18.195z" fill="#fcbb00"/><path d="m527.782 218.513h18.195v-18.176h-18.195z" fill="#fcbb00"/><path d="m527.782 236.689h18.195v-18.176h-18.195z" fill="#fcbb00"/><path d="m527.782 254.865h18.195v-18.176h-18.195z" fill="#fcbb00"/><path d="m527.782 273.054h18.195v-18.189h-18.195z" fill="#fcbb00"/><path d="m527.782 291.23h18.195v-18.176h-18.195z" fill="#fcbb00"/><path d="m527.782 309.406h18.195v-18.176h-18.195z" fill="#fcbb00"/><path d="m527.782 327.582h18.195v-18.176h-18.195z" fill="#fcbb00"/><path d="m527.782 345.759h18.195v-18.177h-18.195z" fill="#fddf8f"/><path d="m527.782 363.935h18.195v-18.177h-18.195z" fill="#fddf8f"/><path d="m527.782 382.124h18.195v-18.189h-18.195z" fill="#fcbb00"/><path d="m527.782 400.3h18.195v-18.177h-18.195z" fill="#fcbb00"/><path d="m527.782 418.476h18.195v-18.177h-18.195z" fill="#fcbb00"/><path d="m545.977 127.619h18.181v-18.176h-18.181z" fill="#fcbb00"/><path d="m545.977 145.795h18.181v-18.176h-18.181z" fill="#fcbb00"/><path d="m545.977 163.984h18.181v-18.188h-18.181z" fill="#fcbb00"/><path d="m545.977 182.16h18.181v-18.176h-18.181z" fill="#fcbb00"/><path d="m545.977 218.513h18.181v-18.176h-18.181z" fill="#fcbb00"/><path d="m545.977 236.689h18.181v-18.176h-18.181z" fill="#fcbb00"/><path d="m545.977 254.865h18.181v-18.176h-18.181z" fill="#fddf8f"/><path d="m545.977 273.054h18.181v-18.189h-18.181z" fill="#fcbb00"/><path d="m545.977 291.23h18.181v-18.176h-18.181z" fill="#fcbb00"/><path d="m545.977 309.406h18.181v-18.176h-18.181z" fill="#fcbb00"/><path d="m545.977 327.582h18.181v-18.176h-18.181z" fill="#fcbb00"/><path d="m545.977 345.759h18.181v-18.177h-18.181z" fill="#fcbb00"/><path d="m545.977 363.935h18.181v-18.177h-18.181z" fill="#fddf8f"/><path d="m545.977 382.124h18.181v-18.189h-18.181z" fill="#fddf8f"/><path d="m564.158 145.795h18.182v-18.176h-18.182z" fill="#fcbb00"/><path d="m564.158 236.689h18.181v-18.176h-18.181z" fill="#fcbb00"/><path d="m564.158 254.865h18.181v-18.176h-18.181z" fill="#fddf8f"/><path d="m564.158 273.054h18.181v-18.189h-18.181z" fill="#fcbb00"/><path d="m564.158 291.23h18.181v-18.176h-18.181z" fill="#fcbb00"/><path d="m564.158 309.406h18.181v-18.176h-18.181z" fill="#fcbb00"/><path d="m564.158 327.582h18.181v-18.176h-18.181z" fill="#fcbb00"/><path d="m564.158 345.759h18.181v-18.177h-18.181z" fill="#fcbb00"/><path d="m564.158 363.935h18.181v-18.177h-18.181z" fill="#fcbb00"/><path d="m564.158 382.124h18.181v-18.189h-18.181z" fill="#fcbb00"/><path d="m564.158 436.652h18.181v-18.176h-18.181z" fill="#fcbb00"/><path d="m582.34 127.619h18.181v-18.176h-18.181z" fill="#fcbb00"/><path d="m582.34 145.795h18.181v-18.176h-18.181z" fill="#fcbb00"/><path d="m582.34 254.865h18.181v-18.176h-18.181z" fill="#fcbb00"/><path d="m582.34 273.054h18.181v-18.189h-18.181z" fill="#fcbb00"/><path d="m582.34 291.23h18.181v-18.176h-18.181z" fill="#fddf8f"/><path d="m582.34 309.406h18.181v-18.176h-18.181z" fill="#fddf8f"/><path d="m582.34 327.582h18.181v-18.176h-18.181z" fill="#fcbb00"/><path d="m582.34 345.759h18.181v-18.177h-18.181z" fill="#fcbb00"/><path d="m582.34 363.935h18.181v-18.177h-18.181z" fill="#fcbb00"/><path d="m600.521 127.619h18.182v-18.176h-18.182z" fill="#fcbb00"/><path d="m600.521 145.795h18.182v-18.176h-18.182z" fill="#fddf8f"/><path d="m600.521 254.865h18.182v-18.176h-18.182z" fill="#fcbb00"/><path d="m600.521 273.054h18.182v-18.189h-18.182z" fill="#fcbb00"/><path d="m600.521 291.23h18.182v-18.176h-18.182z" fill="#fcbb00"/><path d="m600.521 309.406h18.182v-18.176h-18.182z" fill="#fcbb00"/></svg>