<svg width="637" height="474" viewBox="0 0 637 474" fill="none" xmlns="http://www.w3.org/2000/svg">
<path d="M200.474 18.5496L218.656 18.5496L218.656 0.373394L200.474 0.373392L200.474 18.5496Z" fill="#FDDF8F"/>
<path d="M0.450268 200.337L18.6445 200.337L18.6445 182.16L0.450269 182.16L0.450268 200.337Z" fill="#FDDF8F"/>
<path d="M618.703 163.984L636.885 163.984L636.885 145.796L618.703 145.796L618.703 163.984Z" fill="#FDDF8F"/>
<path d="M164.111 400.299L182.292 400.299L182.292 382.123L164.111 382.123L164.111 400.299Z" fill="#FDDF8F"/>
<path d="M73.1898 454.828L91.3716 454.828L91.3716 436.652L73.1898 436.652L73.1898 454.828Z" fill="#FDDF8F"/>
<path d="M600.521 436.652L618.703 436.652L618.703 418.476L600.521 418.476L600.521 436.652Z" fill="#FDDF8F"/>
<path d="M436.873 418.476L455.055 418.476L455.055 400.299L436.873 400.299L436.873 418.476Z" fill="#FDDF8F"/>
<path d="M36.8261 127.619L55.0078 127.619L55.0078 109.443L36.8261 109.443L36.8261 127.619Z" fill="#FCBB00"/>
<path d="M36.8261 145.795L55.0078 145.795L55.0078 127.619L36.8261 127.619L36.8261 145.795Z" fill="#FCBB00"/>
<path d="M36.8261 236.689L55.0078 236.689L55.0078 218.513L36.8261 218.513L36.8261 236.689Z" fill="#FDDF8F"/>
<path d="M36.8261 254.865L55.0078 254.865L55.0078 236.689L36.8261 236.689L36.8261 254.865Z" fill="#FDDF8F"/>
<path d="M55.0082 127.619L73.1899 127.619L73.1899 109.443L55.0083 109.443L55.0082 127.619Z" fill="#FDDF8F"/>
<path d="M55.0082 145.795L73.1899 145.795L73.1899 127.619L55.0083 127.619L55.0082 145.795Z" fill="#FCBB00"/>
<path d="M55.0082 163.984L73.1899 163.984L73.1899 145.796L55.0083 145.796L55.0082 163.984Z" fill="#FCBB00"/>
<path d="M55.0082 182.16L73.1899 182.16L73.1899 163.984L55.0083 163.984L55.0082 182.16Z" fill="#FCBB00"/>
<path d="M55.0082 218.513L73.1899 218.513L73.1899 200.337L55.0083 200.337L55.0082 218.513Z" fill="#FDDF8F"/>
<path d="M55.0082 236.689L73.1899 236.689L73.1899 218.513L55.0083 218.513L55.0082 236.689Z" fill="#FDDF8F"/>
<path d="M55.0082 254.865L73.1899 254.865L73.1899 236.689L55.0083 236.689L55.0082 254.865Z" fill="#FCBB00"/>
<path d="M55.0082 273.054L73.1899 273.054L73.1899 254.865L55.0083 254.865L55.0082 273.054Z" fill="#FCBB00"/>
<path d="M55.0082 345.758L73.1899 345.758L73.1899 327.582L55.0083 327.582L55.0082 345.758Z" fill="#FCBB00"/>
<path d="M55.0082 363.934L73.1899 363.934L73.1899 345.758L55.0083 345.758L55.0082 363.934Z" fill="#FDDF8F"/>
<path d="M55.0082 382.123L73.1899 382.123L73.1899 363.935L55.0083 363.935L55.0082 382.123Z" fill="#FCBB00"/>
<path d="M73.1898 127.619L91.3716 127.619L91.3716 109.443L73.1898 109.443L73.1898 127.619Z" fill="#FCBB00"/>
<path d="M73.1898 145.795L91.3716 145.795L91.3716 127.619L73.1898 127.619L73.1898 145.795Z" fill="#FCBB00"/>
<path d="M73.1898 163.984L91.3716 163.984L91.3716 145.796L73.1898 145.796L73.1898 163.984Z" fill="#FCBB00"/>
<path d="M73.1898 182.16L91.3716 182.16L91.3716 163.984L73.1898 163.984L73.1898 182.16Z" fill="#FCBB00"/>
<path d="M73.1898 200.337L91.3716 200.337L91.3716 182.16L73.1898 182.16L73.1898 200.337Z" fill="#FCBB00"/>
<path d="M73.1898 218.513L91.3716 218.513L91.3716 200.337L73.1898 200.337L73.1898 218.513Z" fill="#FDDF8F"/>
<path d="M73.1898 236.689L91.3716 236.689L91.3716 218.513L73.1898 218.513L73.1898 236.689Z" fill="#FCBB00"/>
<path d="M73.1898 254.865L91.3716 254.865L91.3716 236.689L73.1898 236.689L73.1898 254.865Z" fill="#FCBB00"/>
<path d="M73.1898 273.054L91.3716 273.054L91.3716 254.865L73.1898 254.865L73.1898 273.054Z" fill="#FCBB00"/>
<path d="M73.1898 309.406L91.3716 309.406L91.3716 291.23L73.1898 291.23L73.1898 309.406Z" fill="#FCBB00"/>
<path d="M73.1898 327.582L91.3716 327.582L91.3716 309.406L73.1898 309.406L73.1898 327.582Z" fill="#FCBB00"/>
<path d="M73.1898 345.758L91.3716 345.758L91.3716 327.582L73.1898 327.582L73.1898 345.758Z" fill="#FCBB00"/>
<path d="M73.1898 363.934L91.3716 363.934L91.3716 345.758L73.1898 345.758L73.1898 363.934Z" fill="#FCBB00"/>
<path d="M73.1898 382.123L91.3716 382.123L91.3716 363.935L73.1898 363.935L73.1898 382.123Z" fill="#FCBB00"/>
<path d="M73.1898 400.299L91.3716 400.299L91.3716 382.123L73.1898 382.123L73.1898 400.299Z" fill="#FCBB00"/>
<path d="M73.1898 473.004L91.3716 473.004L91.3716 454.828L73.1898 454.828L73.1898 473.004Z" fill="#FCBB00"/>
<path d="M91.3716 91.2671L109.553 91.2671L109.553 73.0909L91.3716 73.0909L91.3716 91.2671Z" fill="#FCBB00"/>
<path d="M91.3716 109.443L109.553 109.443L109.553 91.2672L91.3716 91.2672L91.3716 109.443Z" fill="#FCBB00"/>
<path d="M91.3716 127.619L109.553 127.619L109.553 109.443L91.3716 109.443L91.3716 127.619Z" fill="#FCBB00"/>
<path d="M91.3716 145.795L109.553 145.795L109.553 127.619L91.3716 127.619L91.3716 145.795Z" fill="#FCBB00"/>
<path d="M91.3716 163.984L109.553 163.984L109.553 145.796L91.3716 145.796L91.3716 163.984Z" fill="#FCBB00"/>
<path d="M91.3716 182.16L109.553 182.16L109.553 163.984L91.3716 163.984L91.3716 182.16Z" fill="#FCBB00"/>
<path d="M91.3716 200.337L109.553 200.337L109.553 182.16L91.3716 182.16L91.3716 200.337Z" fill="#FCBB00"/>
<path d="M91.3716 218.513L109.553 218.513L109.553 200.337L91.3716 200.337L91.3716 218.513Z" fill="#FCBB00"/>
<path d="M91.3716 236.689L109.553 236.689L109.553 218.513L91.3716 218.513L91.3716 236.689Z" fill="#FCBB00"/>
<path d="M91.3716 254.865L109.553 254.865L109.553 236.689L91.3716 236.689L91.3716 254.865Z" fill="#FCBB00"/>
<path d="M91.3716 273.054L109.553 273.054L109.553 254.865L91.3716 254.865L91.3716 273.054Z" fill="#FCBB00"/>
<path d="M91.3716 291.23L109.553 291.23L109.553 273.054L91.3716 273.054L91.3716 291.23Z" fill="#FCBB00"/>
<path d="M91.3716 309.406L109.553 309.406L109.553 291.23L91.3716 291.23L91.3716 309.406Z" fill="#FCBB00"/>
<path d="M91.3716 327.582L109.553 327.582L109.553 309.406L91.3716 309.406L91.3716 327.582Z" fill="#FCBB00"/>
<path d="M91.3716 345.758L109.553 345.758L109.553 327.582L91.3716 327.582L91.3716 345.758Z" fill="#FDDF8F"/>
<path d="M91.3716 363.934L109.553 363.934L109.553 345.758L91.3716 345.758L91.3716 363.934Z" fill="#FCBB00"/>
<path d="M91.3716 382.123L109.553 382.123L109.553 363.935L91.3716 363.935L91.3716 382.123Z" fill="#FCBB00"/>
<path d="M91.3716 400.299L109.553 400.299L109.553 382.123L91.3716 382.123L91.3716 400.299Z" fill="#FCBB00"/>
<path d="M109.553 91.2671L127.748 91.2671L127.748 73.0909L109.553 73.0909L109.553 91.2671Z" fill="#FCBB00"/>
<path d="M109.553 109.443L127.748 109.443L127.748 91.2669L109.553 91.2669L109.553 109.443Z" fill="#FCBB00"/>
<path d="M109.553 127.619L127.748 127.619L127.748 109.443L109.553 109.443L109.553 127.619Z" fill="#FCBB00"/>
<path d="M109.553 145.795L127.748 145.795L127.748 127.619L109.553 127.619L109.553 145.795Z" fill="#FDDF8F"/>
<path d="M109.553 163.984L127.748 163.984L127.748 145.796L109.553 145.796L109.553 163.984Z" fill="#FCBB00"/>
<path d="M109.553 182.16L127.748 182.16L127.748 163.984L109.553 163.984L109.553 182.16Z" fill="#FCBB00"/>
<path d="M109.553 200.337L127.748 200.337L127.748 182.16L109.553 182.16L109.553 200.337Z" fill="#FCBB00"/>
<path d="M109.553 218.513L127.748 218.513L127.748 200.337L109.553 200.337L109.553 218.513Z" fill="#FCBB00"/>
<path d="M109.553 236.689L127.748 236.689L127.748 218.513L109.553 218.513L109.553 236.689Z" fill="#FCBB00"/>
<path d="M109.553 254.865L127.748 254.865L127.748 236.689L109.553 236.689L109.553 254.865Z" fill="#FCBB00"/>
<path d="M109.553 273.054L127.748 273.054L127.748 254.865L109.553 254.865L109.553 273.054Z" fill="#FCBB00"/>
<path d="M109.553 291.23L127.748 291.23L127.748 273.054L109.553 273.054L109.553 291.23Z" fill="#FCBB00"/>
<path d="M109.553 309.406L127.748 309.406L127.748 291.23L109.553 291.23L109.553 309.406Z" fill="#FCBB00"/>
<path d="M109.553 327.582L127.748 327.582L127.748 309.406L109.553 309.406L109.553 327.582Z" fill="#FCBB00"/>
<path d="M109.553 345.758L127.748 345.758L127.748 327.582L109.553 327.582L109.553 345.758Z" fill="#FCBB00"/>
<path d="M109.553 363.934L127.748 363.934L127.748 345.758L109.553 345.758L109.553 363.934Z" fill="#FCBB00"/>
<path d="M109.553 382.123L127.748 382.123L127.748 363.935L109.553 363.935L109.553 382.123Z" fill="#FCBB00"/>
<path d="M109.553 400.299L127.748 400.299L127.748 382.123L109.553 382.123L109.553 400.299Z" fill="#FDDF8F"/>
<path d="M109.553 418.476L127.748 418.476L127.748 400.299L109.553 400.299L109.553 418.476Z" fill="#FCBB00"/>
<path d="M127.747 73.0908L145.929 73.0908L145.929 54.9021L127.747 54.9021L127.747 73.0908Z" fill="#FCBB00"/>
<path d="M127.747 91.2671L145.929 91.2671L145.929 73.0909L127.747 73.0909L127.747 91.2671Z" fill="#FCBB00"/>
<path d="M127.747 109.443L145.929 109.443L145.929 91.2669L127.747 91.2669L127.747 109.443Z" fill="#FCBB00"/>
<path d="M127.747 127.619L145.929 127.619L145.929 109.443L127.747 109.443L127.747 127.619Z" fill="#FCBB00"/>
<path d="M127.747 145.795L145.929 145.795L145.929 127.619L127.747 127.619L127.747 145.795Z" fill="#FDDF8F"/>
<path d="M127.747 163.984L145.929 163.984L145.929 145.796L127.747 145.796L127.747 163.984Z" fill="#FCBB00"/>
<path d="M127.747 182.16L145.929 182.16L145.929 163.984L127.747 163.984L127.747 182.16Z" fill="#FCBB00"/>
<path d="M127.747 200.337L145.929 200.337L145.929 182.16L127.747 182.16L127.747 200.337Z" fill="#FCBB00"/>
<path d="M127.747 218.513L145.929 218.513L145.929 200.337L127.747 200.337L127.747 218.513Z" fill="#FCBB00"/>
<path d="M127.747 236.689L145.929 236.689L145.929 218.513L127.747 218.513L127.747 236.689Z" fill="#FCBB00"/>
<path d="M127.747 254.865L145.929 254.865L145.929 236.689L127.747 236.689L127.747 254.865Z" fill="#FCBB00"/>
<path d="M127.747 273.054L145.929 273.054L145.929 254.865L127.747 254.865L127.747 273.054Z" fill="#FCBB00"/>
<path d="M127.747 291.23L145.929 291.23L145.929 273.054L127.747 273.054L127.747 291.23Z" fill="#FCBB00"/>
<path d="M127.747 309.406L145.929 309.406L145.929 291.23L127.747 291.23L127.747 309.406Z" fill="#FCBB00"/>
<path d="M127.747 327.582L145.929 327.582L145.929 309.406L127.747 309.406L127.747 327.582Z" fill="#FCBB00"/>
<path d="M127.747 345.758L145.929 345.758L145.929 327.582L127.747 327.582L127.747 345.758Z" fill="#FCBB00"/>
<path d="M127.747 363.934L145.929 363.934L145.929 345.758L127.747 345.758L127.747 363.934Z" fill="#FCBB00"/>
<path d="M127.747 382.123L145.929 382.123L145.929 363.935L127.747 363.935L127.747 382.123Z" fill="#FCBB00"/>
<path d="M127.747 400.299L145.929 400.299L145.929 382.123L127.747 382.123L127.747 400.299Z" fill="#FCBB00"/>
<path d="M127.747 418.476L145.929 418.476L145.929 400.299L127.747 400.299L127.747 418.476Z" fill="#FCBB00"/>
<path d="M145.929 91.2671L164.111 91.2671L164.111 73.0909L145.929 73.0909L145.929 91.2671Z" fill="#FCBB00"/>
<path d="M145.929 109.443L164.111 109.443L164.111 91.2669L145.929 91.2669L145.929 109.443Z" fill="#FCBB00"/>
<path d="M145.929 127.619L164.111 127.619L164.111 109.443L145.929 109.443L145.929 127.619Z" fill="#FCBB00"/>
<path d="M145.929 145.795L164.111 145.795L164.111 127.619L145.929 127.619L145.929 145.795Z" fill="#FDDF8F"/>
<path d="M145.929 163.984L164.111 163.984L164.111 145.796L145.929 145.796L145.929 163.984Z" fill="#FCBB00"/>
<path d="M145.929 182.16L164.111 182.16L164.111 163.984L145.929 163.984L145.929 182.16Z" fill="#FCBB00"/>
<path d="M145.929 200.336L164.111 200.336L164.111 182.16L145.929 182.16L145.929 200.336Z" fill="#FCBB00"/>
<path d="M145.929 218.513L164.111 218.513L164.111 200.337L145.929 200.337L145.929 218.513Z" fill="#FCBB00"/>
<path d="M145.929 236.689L164.111 236.689L164.111 218.513L145.929 218.513L145.929 236.689Z" fill="#FCBB00"/>
<path d="M145.929 254.865L164.111 254.865L164.111 236.689L145.929 236.689L145.929 254.865Z" fill="#FCBB00"/>
<path d="M145.929 273.054L164.111 273.054L164.111 254.865L145.929 254.865L145.929 273.054Z" fill="#FCBB00"/>
<path d="M145.929 291.23L164.111 291.23L164.111 273.054L145.929 273.054L145.929 291.23Z" fill="#FCBB00"/>
<path d="M145.929 309.406L164.111 309.406L164.111 291.23L145.929 291.23L145.929 309.406Z" fill="#FCBB00"/>
<path d="M145.929 327.582L164.111 327.582L164.111 309.406L145.929 309.406L145.929 327.582Z" fill="#FCBB00"/>
<path d="M145.929 345.758L164.111 345.758L164.111 327.582L145.929 327.582L145.929 345.758Z" fill="#FCBB00"/>
<path d="M145.929 363.934L164.111 363.934L164.111 345.758L145.929 345.758L145.929 363.934Z" fill="#FCBB00"/>
<path d="M145.929 382.123L164.111 382.123L164.111 363.935L145.929 363.935L145.929 382.123Z" fill="#FCBB00"/>
<path d="M145.929 400.299L164.111 400.299L164.111 382.123L145.929 382.123L145.929 400.299Z" fill="#FDDF8F"/>
<path d="M164.111 54.9019L182.292 54.9019L182.292 36.7257L164.111 36.7257L164.111 54.9019Z" fill="#FCBB00"/>
<path d="M164.111 91.2671L182.292 91.2671L182.292 73.0909L164.111 73.0909L164.111 91.2671Z" fill="#FCBB00"/>
<path d="M164.111 109.443L182.292 109.443L182.292 91.2669L164.111 91.2669L164.111 109.443Z" fill="#FCBB00"/>
<path d="M164.111 127.619L182.292 127.619L182.292 109.443L164.111 109.443L164.111 127.619Z" fill="#FCBB00"/>
<path d="M164.111 145.795L182.292 145.795L182.292 127.619L164.111 127.619L164.111 145.795Z" fill="#FCBB00"/>
<path d="M164.111 163.984L182.292 163.984L182.292 145.796L164.111 145.796L164.111 163.984Z" fill="#FCBB00"/>
<path d="M164.111 182.16L182.292 182.16L182.292 163.984L164.111 163.984L164.111 182.16Z" fill="#FCBB00"/>
<path d="M164.111 200.336L182.292 200.336L182.292 182.16L164.111 182.16L164.111 200.336Z" fill="#FCBB00"/>
<path d="M164.111 218.513L182.292 218.513L182.292 200.337L164.111 200.337L164.111 218.513Z" fill="#FCBB00"/>
<path d="M164.111 236.689L182.292 236.689L182.292 218.513L164.111 218.513L164.111 236.689Z" fill="#FCBB00"/>
<path d="M164.111 254.865L182.292 254.865L182.292 236.689L164.111 236.689L164.111 254.865Z" fill="#FCBB00"/>
<path d="M164.111 273.054L182.292 273.054L182.292 254.865L164.111 254.865L164.111 273.054Z" fill="#FCBB00"/>
<path d="M164.111 291.23L182.292 291.23L182.292 273.054L164.111 273.054L164.111 291.23Z" fill="#FCBB00"/>
<path d="M164.111 309.406L182.292 309.406L182.292 291.23L164.111 291.23L164.111 309.406Z" fill="#FCBB00"/>
<path d="M164.111 327.582L182.292 327.582L182.292 309.406L164.111 309.406L164.111 327.582Z" fill="#FCBB00"/>
<path d="M164.111 345.758L182.292 345.758L182.292 327.582L164.111 327.582L164.111 345.758Z" fill="#FCBB00"/>
<path d="M164.111 363.934L182.292 363.934L182.292 345.758L164.111 345.758L164.111 363.934Z" fill="#FCBB00"/>
<path d="M164.111 382.123L182.292 382.123L182.292 363.935L164.111 363.935L164.111 382.123Z" fill="#FCBB00"/>
<path d="M182.292 91.2671L200.474 91.2671L200.474 73.0909L182.292 73.0909L182.292 91.2671Z" fill="#FCBB00"/>
<path d="M182.292 109.443L200.474 109.443L200.474 91.2669L182.292 91.2669L182.292 109.443Z" fill="#FCBB00"/>
<path d="M182.292 127.619L200.474 127.619L200.474 109.443L182.292 109.443L182.292 127.619Z" fill="#FCBB00"/>
<path d="M182.292 145.795L200.474 145.795L200.474 127.619L182.292 127.619L182.292 145.795Z" fill="#FCBB00"/>
<path d="M182.292 163.984L200.474 163.984L200.474 145.796L182.292 145.796L182.292 163.984Z" fill="#FDDF8F"/>
<path d="M182.292 182.16L200.474 182.16L200.474 163.984L182.292 163.984L182.292 182.16Z" fill="#FDDF8F"/>
<path d="M182.292 200.336L200.474 200.336L200.474 182.16L182.292 182.16L182.292 200.336Z" fill="#FCBB00"/>
<path d="M182.292 218.513L200.474 218.513L200.474 200.337L182.292 200.337L182.292 218.513Z" fill="#FCBB00"/>
<path d="M182.292 236.689L200.474 236.689L200.474 218.513L182.292 218.513L182.292 236.689Z" fill="#FCBB00"/>
<path d="M182.292 254.865L200.474 254.865L200.474 236.689L182.292 236.689L182.292 254.865Z" fill="#FCBB00"/>
<path d="M182.292 273.054L200.474 273.054L200.474 254.865L182.292 254.865L182.292 273.054Z" fill="#FCBB00"/>
<path d="M182.292 291.23L200.474 291.23L200.474 273.054L182.292 273.054L182.292 291.23Z" fill="#FCBB00"/>
<path d="M182.292 309.406L200.474 309.406L200.474 291.23L182.292 291.23L182.292 309.406Z" fill="#FCBB00"/>
<path d="M182.292 327.582L200.474 327.582L200.474 309.406L182.292 309.406L182.292 327.582Z" fill="#FCBB00"/>
<path d="M182.292 345.758L200.474 345.758L200.474 327.582L182.292 327.582L182.292 345.758Z" fill="#FCBB00"/>
<path d="M182.292 363.934L200.474 363.934L200.474 345.758L182.292 345.758L182.292 363.934Z" fill="#FCBB00"/>
<path d="M182.292 382.123L200.474 382.123L200.474 363.935L182.292 363.935L182.292 382.123Z" fill="#FDDF8F"/>
<path d="M182.292 400.299L200.474 400.299L200.474 382.123L182.292 382.123L182.292 400.299Z" fill="#FDDF8F"/>
<path d="M182.292 418.476L200.474 418.476L200.474 400.299L182.292 400.299L182.292 418.476Z" fill="#FDDF8F"/>
<path d="M182.292 436.652L200.474 436.652L200.474 418.476L182.292 418.476L182.292 436.652Z" fill="#FDDF8F"/>
<path d="M200.474 109.443L218.656 109.443L218.656 91.2669L200.474 91.2669L200.474 109.443Z" fill="#FDDF8F"/>
<path d="M200.474 127.619L218.656 127.619L218.656 109.443L200.474 109.443L200.474 127.619Z" fill="#FCBB00"/>
<path d="M200.474 145.795L218.656 145.795L218.656 127.619L200.474 127.619L200.474 145.795Z" fill="#FCBB00"/>
<path d="M200.474 163.984L218.656 163.984L218.656 145.796L200.474 145.796L200.474 163.984Z" fill="#FCBB00"/>
<path d="M200.474 182.16L218.656 182.16L218.656 163.984L200.474 163.984L200.474 182.16Z" fill="#FCBB00"/>
<path d="M200.474 200.336L218.656 200.336L218.656 182.16L200.474 182.16L200.474 200.336Z" fill="#FCBB00"/>
<path d="M200.474 218.513L218.656 218.513L218.656 200.337L200.474 200.337L200.474 218.513Z" fill="#FCBB00"/>
<path d="M200.474 236.689L218.656 236.689L218.656 218.513L200.474 218.513L200.474 236.689Z" fill="#FCBB00"/>
<path d="M200.474 254.865L218.656 254.865L218.656 236.689L200.474 236.689L200.474 254.865Z" fill="#FCBB00"/>
<path d="M200.474 273.054L218.656 273.054L218.656 254.865L200.474 254.865L200.474 273.054Z" fill="#FCBB00"/>
<path d="M200.474 291.23L218.656 291.23L218.656 273.054L200.474 273.054L200.474 291.23Z" fill="#FCBB00"/>
<path d="M200.474 309.406L218.656 309.406L218.656 291.23L200.474 291.23L200.474 309.406Z" fill="#FCBB00"/>
<path d="M200.474 327.582L218.656 327.582L218.656 309.406L200.474 309.406L200.474 327.582Z" fill="#FCBB00"/>
<path d="M200.474 345.758L218.656 345.758L218.656 327.582L200.474 327.582L200.474 345.758Z" fill="#FCBB00"/>
<path d="M200.474 363.934L218.656 363.934L218.656 345.758L200.474 345.758L200.474 363.934Z" fill="#FCBB00"/>
<path d="M200.474 382.123L218.656 382.123L218.656 363.935L200.474 363.935L200.474 382.123Z" fill="#FCBB00"/>
<path d="M200.474 400.299L218.656 400.299L218.656 382.123L200.474 382.123L200.474 400.299Z" fill="#FDDF8F"/>
<path d="M200.474 418.476L218.656 418.476L218.656 400.299L200.474 400.299L200.474 418.476Z" fill="#FCBB00"/>
<path d="M200.474 436.652L218.656 436.652L218.656 418.476L200.474 418.476L200.474 436.652Z" fill="#FCBB00"/>
<path d="M218.655 109.443L236.85 109.443L236.85 91.2669L218.655 91.2669L218.655 109.443Z" fill="#FDDF8F"/>
<path d="M218.655 127.619L236.85 127.619L236.85 109.443L218.655 109.443L218.655 127.619Z" fill="#FCBB00"/>
<path d="M218.655 145.795L236.85 145.795L236.85 127.619L218.655 127.619L218.655 145.795Z" fill="#FCBB00"/>
<path d="M218.655 163.984L236.85 163.984L236.85 145.796L218.655 145.796L218.655 163.984Z" fill="#FCBB00"/>
<path d="M218.655 182.16L236.85 182.16L236.85 163.984L218.655 163.984L218.655 182.16Z" fill="#FCBB00"/>
<path d="M218.655 200.336L236.85 200.336L236.85 182.16L218.655 182.16L218.655 200.336Z" fill="#FCBB00"/>
<path d="M218.655 218.513L236.85 218.513L236.85 200.337L218.655 200.337L218.655 218.513Z" fill="#FCBB00"/>
<path d="M218.655 236.689L236.85 236.689L236.85 218.513L218.655 218.513L218.655 236.689Z" fill="#FCBB00"/>
<path d="M218.655 254.865L236.85 254.865L236.85 236.689L218.655 236.689L218.655 254.865Z" fill="#FCBB00"/>
<path d="M218.655 273.054L236.85 273.054L236.85 254.865L218.655 254.865L218.655 273.054Z" fill="#FCBB00"/>
<path d="M218.655 291.23L236.85 291.23L236.85 273.054L218.655 273.054L218.655 291.23Z" fill="#FCBB00"/>
<path d="M218.655 309.406L236.85 309.406L236.85 291.23L218.655 291.23L218.655 309.406Z" fill="#FCBB00"/>
<path d="M218.655 327.582L236.85 327.582L236.85 309.406L218.655 309.406L218.655 327.582Z" fill="#FCBB00"/>
<path d="M218.655 345.758L236.85 345.758L236.85 327.582L218.655 327.582L218.655 345.758Z" fill="#FCBB00"/>
<path d="M218.655 363.934L236.85 363.934L236.85 345.758L218.655 345.758L218.655 363.934Z" fill="#FCBB00"/>
<path d="M218.655 382.123L236.85 382.123L236.85 363.935L218.655 363.935L218.655 382.123Z" fill="#FDDF8F"/>
<path d="M218.655 400.3L236.85 400.3L236.85 382.123L218.655 382.123L218.655 400.3Z" fill="#FCBB00"/>
<path d="M218.655 418.476L236.85 418.476L236.85 400.299L218.655 400.299L218.655 418.476Z" fill="#FCBB00"/>
<path d="M218.655 454.828L236.85 454.828L236.85 436.652L218.655 436.652L218.655 454.828Z" fill="#FCBB00"/>
<path d="M236.85 109.443L255.032 109.443L255.032 91.2669L236.85 91.2669L236.85 109.443Z" fill="#FDDF8F"/>
<path d="M236.85 127.619L255.032 127.619L255.032 109.443L236.85 109.443L236.85 127.619Z" fill="#FCBB00"/>
<path d="M236.85 145.795L255.032 145.795L255.032 127.619L236.85 127.619L236.85 145.795Z" fill="#FCBB00"/>
<path d="M236.85 163.984L255.032 163.984L255.032 145.796L236.85 145.796L236.85 163.984Z" fill="#FCBB00"/>
<path d="M236.85 182.16L255.032 182.16L255.032 163.984L236.85 163.984L236.85 182.16Z" fill="#FCBB00"/>
<path d="M236.85 200.336L255.032 200.336L255.032 182.16L236.85 182.16L236.85 200.336Z" fill="#FCBB00"/>
<path d="M236.85 218.513L255.032 218.513L255.032 200.337L236.85 200.337L236.85 218.513Z" fill="#FCBB00"/>
<path d="M236.85 236.689L255.032 236.689L255.032 218.513L236.85 218.513L236.85 236.689Z" fill="#FCBB00"/>
<path d="M236.85 254.865L255.032 254.865L255.032 236.689L236.85 236.689L236.85 254.865Z" fill="#FCBB00"/>
<path d="M236.85 273.054L255.032 273.054L255.032 254.865L236.85 254.865L236.85 273.054Z" fill="#FCBB00"/>
<path d="M236.85 291.23L255.032 291.23L255.032 273.054L236.85 273.054L236.85 291.23Z" fill="#FCBB00"/>
<path d="M236.85 309.406L255.032 309.406L255.032 291.23L236.85 291.23L236.85 309.406Z" fill="#FCBB00"/>
<path d="M236.85 327.582L255.032 327.582L255.032 309.406L236.85 309.406L236.85 327.582Z" fill="#FCBB00"/>
<path d="M236.85 345.758L255.032 345.758L255.032 327.582L236.85 327.582L236.85 345.758Z" fill="#FCBB00"/>
<path d="M236.85 363.934L255.032 363.934L255.032 345.758L236.85 345.758L236.85 363.934Z" fill="#FCBB00"/>
<path d="M236.85 382.123L255.032 382.123L255.032 363.935L236.85 363.935L236.85 382.123Z" fill="#FCBB00"/>
<path d="M236.85 400.3L255.032 400.3L255.032 382.123L236.85 382.123L236.85 400.3Z" fill="#FDDF8F"/>
<path d="M236.85 418.476L255.032 418.476L255.032 400.299L236.85 400.299L236.85 418.476Z" fill="#FCBB00"/>
<path d="M236.85 436.652L255.032 436.652L255.032 418.476L236.85 418.476L236.85 436.652Z" fill="#FCBB00"/>
<path d="M236.85 454.828L255.032 454.828L255.032 436.652L236.85 436.652L236.85 454.828Z" fill="#FDDF8F"/>
<path d="M255.032 91.2671L273.213 91.2671L273.213 73.0909L255.032 73.0909L255.032 91.2671Z" fill="#FCBB00"/>
<path d="M255.032 109.443L273.213 109.443L273.213 91.2669L255.032 91.2669L255.032 109.443Z" fill="#FDDF8F"/>
<path d="M255.032 127.619L273.213 127.619L273.213 109.443L255.032 109.443L255.032 127.619Z" fill="#FCBB00"/>
<path d="M255.032 145.795L273.213 145.795L273.213 127.619L255.032 127.619L255.032 145.795Z" fill="#FCBB00"/>
<path d="M255.032 163.984L273.213 163.984L273.213 145.796L255.032 145.796L255.032 163.984Z" fill="#FCBB00"/>
<path d="M255.032 182.16L273.213 182.16L273.213 163.984L255.032 163.984L255.032 182.16Z" fill="#FCBB00"/>
<path d="M255.032 200.336L273.213 200.336L273.213 182.16L255.032 182.16L255.032 200.336Z" fill="#FCBB00"/>
<path d="M255.032 218.513L273.213 218.513L273.213 200.337L255.032 200.337L255.032 218.513Z" fill="#FCBB00"/>
<path d="M255.032 236.689L273.213 236.689L273.213 218.513L255.032 218.513L255.032 236.689Z" fill="#FCBB00"/>
<path d="M255.032 254.865L273.213 254.865L273.213 236.689L255.032 236.689L255.032 254.865Z" fill="#FCBB00"/>
<path d="M255.032 273.054L273.213 273.054L273.213 254.865L255.032 254.865L255.032 273.054Z" fill="#FCBB00"/>
<path d="M255.032 291.23L273.213 291.23L273.213 273.054L255.032 273.054L255.032 291.23Z" fill="#FCBB00"/>
<path d="M255.032 309.406L273.213 309.406L273.213 291.23L255.032 291.23L255.032 309.406Z" fill="#FCBB00"/>
<path d="M255.032 327.582L273.213 327.582L273.213 309.406L255.032 309.406L255.032 327.582Z" fill="#FCBB00"/>
<path d="M255.032 345.758L273.213 345.758L273.213 327.582L255.032 327.582L255.032 345.758Z" fill="#FCBB00"/>
<path d="M255.032 363.934L273.213 363.934L273.213 345.758L255.032 345.758L255.032 363.934Z" fill="#FCBB00"/>
<path d="M255.032 382.123L273.213 382.123L273.213 363.935L255.032 363.935L255.032 382.123Z" fill="#FCBB00"/>
<path d="M255.032 400.3L273.213 400.3L273.213 382.123L255.032 382.123L255.032 400.3Z" fill="#FCBB00"/>
<path d="M255.032 418.476L273.213 418.476L273.213 400.299L255.032 400.299L255.032 418.476Z" fill="#FCBB00"/>
<path d="M255.032 436.652L273.213 436.652L273.213 418.476L255.032 418.476L255.032 436.652Z" fill="#FCBB00"/>
<path d="M255.032 454.828L273.213 454.828L273.213 436.652L255.032 436.652L255.032 454.828Z" fill="#FCBB00"/>
<path d="M255.032 473.004L273.213 473.004L273.213 454.828L255.032 454.828L255.032 473.004Z" fill="#FCBB00"/>
<path d="M273.213 91.2671L291.395 91.2671L291.395 73.0909L273.213 73.0909L273.213 91.2671Z" fill="#FCBB00"/>
<path d="M273.213 109.443L291.395 109.443L291.395 91.2672L273.213 91.2672L273.213 109.443Z" fill="#FCBB00"/>
<path d="M273.213 127.619L291.395 127.619L291.395 109.443L273.213 109.443L273.213 127.619Z" fill="#FCBB00"/>
<path d="M273.213 145.795L291.395 145.795L291.395 127.619L273.213 127.619L273.213 145.795Z" fill="#FCBB00"/>
<path d="M273.213 163.984L291.395 163.984L291.395 145.796L273.213 145.796L273.213 163.984Z" fill="#FCBB00"/>
<path d="M273.213 182.16L291.395 182.16L291.395 163.984L273.213 163.984L273.213 182.16Z" fill="#FCBB00"/>
<path d="M273.213 200.337L291.395 200.337L291.395 182.16L273.213 182.16L273.213 200.337Z" fill="#FCBB00"/>
<path d="M273.213 218.513L291.395 218.513L291.395 200.337L273.213 200.337L273.213 218.513Z" fill="#FCBB00"/>
<path d="M273.213 236.689L291.395 236.689L291.395 218.513L273.213 218.513L273.213 236.689Z" fill="#FCBB00"/>
<path d="M273.213 254.865L291.395 254.865L291.395 236.689L273.213 236.689L273.213 254.865Z" fill="#FCBB00"/>
<path d="M273.213 273.054L291.395 273.054L291.395 254.865L273.213 254.865L273.213 273.054Z" fill="#FCBB00"/>
<path d="M273.213 291.23L291.395 291.23L291.395 273.054L273.213 273.054L273.213 291.23Z" fill="#FCBB00"/>
<path d="M273.213 309.406L291.395 309.406L291.395 291.23L273.213 291.23L273.213 309.406Z" fill="#FCBB00"/>
<path d="M273.213 327.582L291.395 327.582L291.395 309.406L273.213 309.406L273.213 327.582Z" fill="#FCBB00"/>
<path d="M273.213 345.758L291.395 345.758L291.395 327.582L273.213 327.582L273.213 345.758Z" fill="#FCBB00"/>
<path d="M273.213 363.934L291.395 363.934L291.395 345.758L273.213 345.758L273.213 363.934Z" fill="#FCBB00"/>
<path d="M273.213 382.123L291.395 382.123L291.395 363.935L273.213 363.935L273.213 382.123Z" fill="#FCBB00"/>
<path d="M273.213 400.3L291.395 400.3L291.395 382.123L273.213 382.123L273.213 400.3Z" fill="#FCBB00"/>
<path d="M273.213 418.476L291.395 418.476L291.395 400.299L273.213 400.299L273.213 418.476Z" fill="#FCBB00"/>
<path d="M273.213 436.652L291.395 436.652L291.395 418.476L273.213 418.476L273.213 436.652Z" fill="#FCBB00"/>
<path d="M273.213 454.828L291.395 454.828L291.395 436.652L273.213 436.652L273.213 454.828Z" fill="#FCBB00"/>
<path d="M291.395 91.2671L309.577 91.2671L309.577 73.0909L291.395 73.0909L291.395 91.2671Z" fill="#FCBB00"/>
<path d="M291.395 109.443L309.577 109.443L309.577 91.2672L291.395 91.2672L291.395 109.443Z" fill="#FCBB00"/>
<path d="M291.395 127.619L309.577 127.619L309.577 109.443L291.395 109.443L291.395 127.619Z" fill="#FCBB00"/>
<path d="M291.395 145.795L309.577 145.795L309.577 127.619L291.395 127.619L291.395 145.795Z" fill="#FCBB00"/>
<path d="M291.395 163.984L309.577 163.984L309.577 145.796L291.395 145.796L291.395 163.984Z" fill="#FCBB00"/>
<path d="M291.395 182.16L309.577 182.16L309.577 163.984L291.395 163.984L291.395 182.16Z" fill="#FCBB00"/>
<path d="M291.395 200.337L309.577 200.337L309.577 182.16L291.395 182.16L291.395 200.337Z" fill="#FCBB00"/>
<path d="M291.395 218.513L309.577 218.513L309.577 200.337L291.395 200.337L291.395 218.513Z" fill="#FCBB00"/>
<path d="M291.395 236.689L309.577 236.689L309.577 218.513L291.395 218.513L291.395 236.689Z" fill="#FCBB00"/>
<path d="M291.395 254.865L309.577 254.865L309.577 236.689L291.395 236.689L291.395 254.865Z" fill="#FCBB00"/>
<path d="M291.395 273.054L309.577 273.054L309.577 254.865L291.395 254.865L291.395 273.054Z" fill="#FCBB00"/>
<path d="M291.395 291.23L309.577 291.23L309.577 273.054L291.395 273.054L291.395 291.23Z" fill="#FCBB00"/>
<path d="M291.395 309.406L309.577 309.406L309.577 291.23L291.395 291.23L291.395 309.406Z" fill="#FCBB00"/>
<path d="M291.395 327.582L309.577 327.582L309.577 309.406L291.395 309.406L291.395 327.582Z" fill="#FCBB00"/>
<path d="M291.395 345.759L309.577 345.759L309.577 327.582L291.395 327.582L291.395 345.759Z" fill="#FCBB00"/>
<path d="M291.395 363.934L309.577 363.934L309.577 345.758L291.395 345.758L291.395 363.934Z" fill="#FCBB00"/>
<path d="M291.395 382.123L309.577 382.123L309.577 363.935L291.395 363.935L291.395 382.123Z" fill="#FCBB00"/>
<path d="M291.395 400.3L309.577 400.3L309.577 382.123L291.395 382.123L291.395 400.3Z" fill="#FCBB00"/>
<path d="M291.395 418.476L309.577 418.476L309.577 400.299L291.395 400.299L291.395 418.476Z" fill="#FCBB00"/>
<path d="M291.395 436.652L309.577 436.652L309.577 418.476L291.395 418.476L291.395 436.652Z" fill="#FCBB00"/>
<path d="M309.577 91.2671L327.771 91.2671L327.771 73.0909L309.577 73.0909L309.577 91.2671Z" fill="#FDDF8F"/>
<path d="M309.577 109.443L327.771 109.443L327.771 91.2672L309.577 91.2672L309.577 109.443Z" fill="#FCBB00"/>
<path d="M309.577 127.619L327.771 127.619L327.771 109.443L309.577 109.443L309.577 127.619Z" fill="#FCBB00"/>
<path d="M309.577 145.795L327.771 145.795L327.771 127.619L309.577 127.619L309.577 145.795Z" fill="#FCBB00"/>
<path d="M309.577 163.984L327.771 163.984L327.771 145.796L309.577 145.796L309.577 163.984Z" fill="#FCBB00"/>
<path d="M309.577 182.16L327.771 182.16L327.771 163.984L309.577 163.984L309.577 182.16Z" fill="#FCBB00"/>
<path d="M309.577 200.337L327.771 200.337L327.771 182.16L309.577 182.16L309.577 200.337Z" fill="#FCBB00"/>
<path d="M309.577 218.513L327.771 218.513L327.771 200.337L309.577 200.337L309.577 218.513Z" fill="#FCBB00"/>
<path d="M309.577 236.689L327.771 236.689L327.771 218.513L309.577 218.513L309.577 236.689Z" fill="#FCBB00"/>
<path d="M309.577 254.865L327.771 254.865L327.771 236.689L309.577 236.689L309.577 254.865Z" fill="#FCBB00"/>
<path d="M309.577 273.054L327.771 273.054L327.771 254.865L309.577 254.865L309.577 273.054Z" fill="#FCBB00"/>
<path d="M309.577 291.23L327.771 291.23L327.771 273.054L309.577 273.054L309.577 291.23Z" fill="#FCBB00"/>
<path d="M309.577 309.406L327.771 309.406L327.771 291.23L309.577 291.23L309.577 309.406Z" fill="#FCBB00"/>
<path d="M309.577 327.582L327.771 327.582L327.771 309.406L309.577 309.406L309.577 327.582Z" fill="#FCBB00"/>
<path d="M309.577 345.759L327.771 345.759L327.771 327.582L309.577 327.582L309.577 345.759Z" fill="#FCBB00"/>
<path d="M309.577 363.934L327.771 363.934L327.771 345.758L309.577 345.758L309.577 363.934Z" fill="#FCBB00"/>
<path d="M309.577 382.123L327.771 382.123L327.771 363.935L309.577 363.935L309.577 382.123Z" fill="#FCBB00"/>
<path d="M309.577 400.3L327.771 400.3L327.771 382.123L309.577 382.123L309.577 400.3Z" fill="#FCBB00"/>
<path d="M309.577 418.476L327.771 418.476L327.771 400.299L309.577 400.299L309.577 418.476Z" fill="#FCBB00"/>
<path d="M309.577 436.652L327.771 436.652L327.771 418.476L309.577 418.476L309.577 436.652Z" fill="#FCBB00"/>
<path d="M327.771 54.9021L345.953 54.9021L345.953 36.726L327.771 36.726L327.771 54.9021Z" fill="#FCBB00"/>
<path d="M327.771 73.0908L345.953 73.0908L345.953 54.9021L327.771 54.9021L327.771 73.0908Z" fill="#FCBB00"/>
<path d="M327.771 91.2671L345.953 91.2671L345.953 73.0909L327.771 73.0909L327.771 91.2671Z" fill="#FCBB00"/>
<path d="M327.771 109.443L345.953 109.443L345.953 91.2672L327.771 91.2672L327.771 109.443Z" fill="#FCBB00"/>
<path d="M327.771 127.619L345.953 127.619L345.953 109.443L327.771 109.443L327.771 127.619Z" fill="#FCBB00"/>
<path d="M327.771 145.795L345.953 145.795L345.953 127.619L327.771 127.619L327.771 145.795Z" fill="#FCBB00"/>
<path d="M327.771 163.984L345.953 163.984L345.953 145.796L327.771 145.796L327.771 163.984Z" fill="#FCBB00"/>
<path d="M327.771 182.16L345.953 182.16L345.953 163.984L327.771 163.984L327.771 182.16Z" fill="#FCBB00"/>
<path d="M327.771 200.337L345.953 200.337L345.953 182.16L327.771 182.16L327.771 200.337Z" fill="#FCBB00"/>
<path d="M327.771 218.513L345.953 218.513L345.953 200.337L327.771 200.337L327.771 218.513Z" fill="#FCBB00"/>
<path d="M327.771 236.689L345.953 236.689L345.953 218.513L327.771 218.513L327.771 236.689Z" fill="#FCBB00"/>
<path d="M327.771 254.865L345.953 254.865L345.953 236.689L327.771 236.689L327.771 254.865Z" fill="#FCBB00"/>
<path d="M327.771 273.054L345.953 273.054L345.953 254.865L327.771 254.865L327.771 273.054Z" fill="#FCBB00"/>
<path d="M327.771 291.23L345.953 291.23L345.953 273.054L327.771 273.054L327.771 291.23Z" fill="#FCBB00"/>
<path d="M327.771 309.406L345.953 309.406L345.953 291.23L327.771 291.23L327.771 309.406Z" fill="#FCBB00"/>
<path d="M327.771 327.582L345.953 327.582L345.953 309.406L327.771 309.406L327.771 327.582Z" fill="#FCBB00"/>
<path d="M327.771 345.759L345.953 345.759L345.953 327.582L327.771 327.582L327.771 345.759Z" fill="#FCBB00"/>
<path d="M327.771 363.934L345.953 363.934L345.953 345.758L327.771 345.758L327.771 363.934Z" fill="#FCBB00"/>
<path d="M327.771 382.123L345.953 382.123L345.953 363.935L327.771 363.935L327.771 382.123Z" fill="#FCBB00"/>
<path d="M327.771 400.3L345.953 400.3L345.953 382.123L327.771 382.123L327.771 400.3Z" fill="#FCBB00"/>
<path d="M327.771 418.476L345.953 418.476L345.953 400.299L327.771 400.299L327.771 418.476Z" fill="#FCBB00"/>
<path d="M345.953 54.9021L364.134 54.9021L364.134 36.726L345.953 36.726L345.953 54.9021Z" fill="#FCBB00"/>
<path d="M345.953 73.0908L364.134 73.0908L364.134 54.9021L345.953 54.9021L345.953 73.0908Z" fill="#FCBB00"/>
<path d="M345.953 91.2671L364.134 91.2671L364.134 73.0909L345.953 73.0909L345.953 91.2671Z" fill="#FCBB00"/>
<path d="M345.953 109.443L364.134 109.443L364.134 91.2672L345.953 91.2672L345.953 109.443Z" fill="#FCBB00"/>
<path d="M345.953 127.619L364.134 127.619L364.134 109.443L345.953 109.443L345.953 127.619Z" fill="#FCBB00"/>
<path d="M345.953 145.795L364.134 145.795L364.134 127.619L345.953 127.619L345.953 145.795Z" fill="#FCBB00"/>
<path d="M345.953 163.984L364.134 163.984L364.134 145.796L345.953 145.796L345.953 163.984Z" fill="#FCBB00"/>
<path d="M345.953 182.16L364.134 182.16L364.134 163.984L345.953 163.984L345.953 182.16Z" fill="#FCBB00"/>
<path d="M345.953 200.337L364.134 200.337L364.134 182.16L345.953 182.16L345.953 200.337Z" fill="#FCBB00"/>
<path d="M345.953 218.513L364.134 218.513L364.134 200.337L345.953 200.337L345.953 218.513Z" fill="#FCBB00"/>
<path d="M345.953 236.689L364.134 236.689L364.134 218.513L345.953 218.513L345.953 236.689Z" fill="#FCBB00"/>
<path d="M345.953 254.865L364.134 254.865L364.134 236.689L345.953 236.689L345.953 254.865Z" fill="#FCBB00"/>
<path d="M345.953 273.054L364.134 273.054L364.134 254.865L345.953 254.865L345.953 273.054Z" fill="#FCBB00"/>
<path d="M345.953 291.23L364.134 291.23L364.134 273.054L345.953 273.054L345.953 291.23Z" fill="#FCBB00"/>
<path d="M345.953 309.406L364.134 309.406L364.134 291.23L345.953 291.23L345.953 309.406Z" fill="#FCBB00"/>
<path d="M345.953 327.582L364.134 327.582L364.134 309.406L345.953 309.406L345.953 327.582Z" fill="#FCBB00"/>
<path d="M345.953 345.759L364.134 345.759L364.134 327.582L345.953 327.582L345.953 345.759Z" fill="#FCBB00"/>
<path d="M345.953 363.934L364.134 363.934L364.134 345.758L345.953 345.758L345.953 363.934Z" fill="#FCBB00"/>
<path d="M345.953 382.123L364.134 382.123L364.134 363.935L345.953 363.935L345.953 382.123Z" fill="#FCBB00"/>
<path d="M345.953 400.3L364.134 400.3L364.134 382.123L345.953 382.123L345.953 400.3Z" fill="#FCBB00"/>
<path d="M345.953 418.476L364.134 418.476L364.134 400.299L345.953 400.299L345.953 418.476Z" fill="#FCBB00"/>
<path d="M364.134 73.0908L382.316 73.0908L382.316 54.9021L364.134 54.9021L364.134 73.0908Z" fill="#FCBB00"/>
<path d="M364.134 91.2671L382.316 91.2671L382.316 73.0909L364.134 73.0909L364.134 91.2671Z" fill="#FCBB00"/>
<path d="M364.134 109.443L382.316 109.443L382.316 91.2672L364.134 91.2672L364.134 109.443Z" fill="#FCBB00"/>
<path d="M364.134 127.619L382.316 127.619L382.316 109.443L364.134 109.443L364.134 127.619Z" fill="#FCBB00"/>
<path d="M364.134 145.795L382.316 145.795L382.316 127.619L364.134 127.619L364.134 145.795Z" fill="#FCBB00"/>
<path d="M364.134 163.984L382.316 163.984L382.316 145.796L364.134 145.796L364.134 163.984Z" fill="#FCBB00"/>
<path d="M364.134 182.16L382.316 182.16L382.316 163.984L364.134 163.984L364.134 182.16Z" fill="#FCBB00"/>
<path d="M364.134 200.337L382.316 200.337L382.316 182.16L364.134 182.16L364.134 200.337Z" fill="#FCBB00"/>
<path d="M364.134 218.513L382.316 218.513L382.316 200.337L364.134 200.337L364.134 218.513Z" fill="#FCBB00"/>
<path d="M364.134 236.689L382.316 236.689L382.316 218.513L364.134 218.513L364.134 236.689Z" fill="#FCBB00"/>
<path d="M364.134 254.865L382.316 254.865L382.316 236.689L364.134 236.689L364.134 254.865Z" fill="#FCBB00"/>
<path d="M364.134 273.054L382.316 273.054L382.316 254.865L364.134 254.865L364.134 273.054Z" fill="#FCBB00"/>
<path d="M364.134 291.23L382.316 291.23L382.316 273.054L364.134 273.054L364.134 291.23Z" fill="#FCBB00"/>
<path d="M364.134 309.406L382.316 309.406L382.316 291.23L364.134 291.23L364.134 309.406Z" fill="#FCBB00"/>
<path d="M364.134 327.582L382.316 327.582L382.316 309.406L364.134 309.406L364.134 327.582Z" fill="#FCBB00"/>
<path d="M364.134 345.759L382.316 345.759L382.316 327.582L364.134 327.582L364.134 345.759Z" fill="#FCBB00"/>
<path d="M364.134 363.934L382.316 363.934L382.316 345.758L364.134 345.758L364.134 363.934Z" fill="#FCBB00"/>
<path d="M364.134 382.123L382.316 382.123L382.316 363.935L364.134 363.935L364.134 382.123Z" fill="#FCBB00"/>
<path d="M364.134 400.3L382.316 400.3L382.316 382.123L364.134 382.123L364.134 400.3Z" fill="#FCBB00"/>
<path d="M364.134 418.476L382.316 418.476L382.316 400.299L364.134 400.299L364.134 418.476Z" fill="#FCBB00"/>
<path d="M382.316 73.0908L400.498 73.0908L400.498 54.9021L382.316 54.9021L382.316 73.0908Z" fill="#FCBB00"/>
<path d="M382.316 91.2671L400.498 91.2671L400.498 73.0909L382.316 73.0909L382.316 91.2671Z" fill="#FDDF8F"/>
<path d="M382.316 109.443L400.498 109.443L400.498 91.2672L382.316 91.2672L382.316 109.443Z" fill="#FCBB00"/>
<path d="M382.316 127.619L400.498 127.619L400.498 109.443L382.316 109.443L382.316 127.619Z" fill="#FCBB00"/>
<path d="M382.316 145.795L400.498 145.795L400.498 127.619L382.316 127.619L382.316 145.795Z" fill="#FCBB00"/>
<path d="M382.316 163.984L400.498 163.984L400.498 145.796L382.316 145.796L382.316 163.984Z" fill="#FCBB00"/>
<path d="M382.316 182.16L400.498 182.16L400.498 163.984L382.316 163.984L382.316 182.16Z" fill="#FCBB00"/>
<path d="M382.316 200.337L400.498 200.337L400.498 182.16L382.316 182.16L382.316 200.337Z" fill="#FCBB00"/>
<path d="M382.316 218.513L400.498 218.513L400.498 200.337L382.316 200.337L382.316 218.513Z" fill="#FCBB00"/>
<path d="M382.316 236.689L400.498 236.689L400.498 218.513L382.316 218.513L382.316 236.689Z" fill="#FCBB00"/>
<path d="M382.316 254.865L400.498 254.865L400.498 236.689L382.316 236.689L382.316 254.865Z" fill="#FCBB00"/>
<path d="M382.316 273.054L400.498 273.054L400.498 254.865L382.316 254.865L382.316 273.054Z" fill="#FCBB00"/>
<path d="M382.316 291.23L400.498 291.23L400.498 273.054L382.316 273.054L382.316 291.23Z" fill="#FCBB00"/>
<path d="M382.316 309.406L400.498 309.406L400.498 291.23L382.316 291.23L382.316 309.406Z" fill="#FCBB00"/>
<path d="M382.316 327.582L400.498 327.582L400.498 309.406L382.316 309.406L382.316 327.582Z" fill="#FCBB00"/>
<path d="M382.316 345.759L400.498 345.759L400.498 327.582L382.316 327.582L382.316 345.759Z" fill="#FCBB00"/>
<path d="M382.316 363.934L400.498 363.934L400.498 345.758L382.316 345.758L382.316 363.934Z" fill="#FCBB00"/>
<path d="M382.316 382.123L400.498 382.123L400.498 363.935L382.316 363.935L382.316 382.123Z" fill="#FCBB00"/>
<path d="M382.316 400.3L400.498 400.3L400.498 382.123L382.316 382.123L382.316 400.3Z" fill="#FCBB00"/>
<path d="M400.498 73.0908L418.68 73.0908L418.68 54.9021L400.498 54.9021L400.498 73.0908Z" fill="#FCBB00"/>
<path d="M400.498 91.2671L418.68 91.2671L418.68 73.0909L400.498 73.0909L400.498 91.2671Z" fill="#FDDF8F"/>
<path d="M400.498 109.443L418.68 109.443L418.68 91.2672L400.498 91.2672L400.498 109.443Z" fill="#FCBB00"/>
<path d="M400.498 127.619L418.68 127.619L418.68 109.443L400.498 109.443L400.498 127.619Z" fill="#FCBB00"/>
<path d="M400.498 145.795L418.68 145.795L418.68 127.619L400.498 127.619L400.498 145.795Z" fill="#FCBB00"/>
<path d="M400.498 163.984L418.68 163.984L418.68 145.796L400.498 145.796L400.498 163.984Z" fill="#FCBB00"/>
<path d="M400.498 182.16L418.68 182.16L418.68 163.984L400.498 163.984L400.498 182.16Z" fill="#FCBB00"/>
<path d="M400.498 200.337L418.68 200.337L418.68 182.16L400.498 182.16L400.498 200.337Z" fill="#FCBB00"/>
<path d="M400.498 218.513L418.68 218.513L418.68 200.337L400.498 200.337L400.498 218.513Z" fill="#FCBB00"/>
<path d="M400.498 236.689L418.68 236.689L418.68 218.513L400.498 218.513L400.498 236.689Z" fill="#FCBB00"/>
<path d="M400.498 254.865L418.68 254.865L418.68 236.689L400.498 236.689L400.498 254.865Z" fill="#FCBB00"/>
<path d="M400.498 273.054L418.68 273.054L418.68 254.865L400.498 254.865L400.498 273.054Z" fill="#FCBB00"/>
<path d="M400.498 291.23L418.68 291.23L418.68 273.054L400.498 273.054L400.498 291.23Z" fill="#FCBB00"/>
<path d="M400.498 309.406L418.68 309.406L418.68 291.23L400.498 291.23L400.498 309.406Z" fill="#FCBB00"/>
<path d="M400.498 327.582L418.68 327.582L418.68 309.406L400.498 309.406L400.498 327.582Z" fill="#FCBB00"/>
<path d="M400.498 345.759L418.68 345.759L418.68 327.582L400.498 327.582L400.498 345.759Z" fill="#FCBB00"/>
<path d="M400.498 363.934L418.68 363.934L418.68 345.758L400.498 345.758L400.498 363.934Z" fill="#FCBB00"/>
<path d="M400.498 382.123L418.68 382.123L418.68 363.935L400.498 363.935L400.498 382.123Z" fill="#FCBB00"/>
<path d="M400.498 400.3L418.68 400.3L418.68 382.123L400.498 382.123L400.498 400.3Z" fill="#FCBB00"/>
<path d="M400.498 454.828L418.68 454.828L418.68 436.652L400.498 436.652L400.498 454.828Z" fill="#FCBB00"/>
<path d="M400.498 473.004L418.68 473.004L418.68 454.828L400.498 454.828L400.498 473.004Z" fill="#FDDF8F"/>
<path d="M418.68 91.2671L436.874 91.2671L436.874 73.0909L418.68 73.0909L418.68 91.2671Z" fill="#FDDF8F"/>
<path d="M418.68 109.443L436.874 109.443L436.874 91.2672L418.68 91.2672L418.68 109.443Z" fill="#FCBB00"/>
<path d="M418.68 127.619L436.874 127.619L436.874 109.443L418.68 109.443L418.68 127.619Z" fill="#FCBB00"/>
<path d="M418.68 145.795L436.874 145.795L436.874 127.619L418.68 127.619L418.68 145.795Z" fill="#FCBB00"/>
<path d="M418.68 163.984L436.874 163.984L436.874 145.796L418.68 145.796L418.68 163.984Z" fill="#FCBB00"/>
<path d="M418.68 182.16L436.874 182.16L436.874 163.984L418.68 163.984L418.68 182.16Z" fill="#FCBB00"/>
<path d="M418.68 200.337L436.874 200.337L436.874 182.16L418.68 182.16L418.68 200.337Z" fill="#FCBB00"/>
<path d="M418.68 218.513L436.874 218.513L436.874 200.337L418.68 200.337L418.68 218.513Z" fill="#FCBB00"/>
<path d="M418.68 236.689L436.874 236.689L436.874 218.513L418.68 218.513L418.68 236.689Z" fill="#FCBB00"/>
<path d="M418.68 254.865L436.874 254.865L436.874 236.689L418.68 236.689L418.68 254.865Z" fill="#FCBB00"/>
<path d="M418.68 273.054L436.874 273.054L436.874 254.865L418.68 254.865L418.68 273.054Z" fill="#FCBB00"/>
<path d="M418.68 291.23L436.874 291.23L436.874 273.054L418.68 273.054L418.68 291.23Z" fill="#FCBB00"/>
<path d="M418.68 309.406L436.874 309.406L436.874 291.23L418.68 291.23L418.68 309.406Z" fill="#FCBB00"/>
<path d="M418.68 327.582L436.874 327.582L436.874 309.406L418.68 309.406L418.68 327.582Z" fill="#FCBB00"/>
<path d="M418.68 345.759L436.874 345.759L436.874 327.582L418.68 327.582L418.68 345.759Z" fill="#FCBB00"/>
<path d="M418.68 363.934L436.874 363.934L436.874 345.758L418.68 345.758L418.68 363.934Z" fill="#FCBB00"/>
<path d="M418.68 382.123L436.874 382.123L436.874 363.935L418.68 363.935L418.68 382.123Z" fill="#FCBB00"/>
<path d="M418.68 400.3L436.874 400.3L436.874 382.123L418.68 382.123L418.68 400.3Z" fill="#FCBB00"/>
<path d="M436.873 91.2671L455.055 91.2671L455.055 73.0909L436.873 73.0909L436.873 91.2671Z" fill="#FCBB00"/>
<path d="M436.873 109.443L455.055 109.443L455.055 91.2672L436.873 91.2672L436.873 109.443Z" fill="#FCBB00"/>
<path d="M436.873 127.619L455.055 127.619L455.055 109.443L436.873 109.443L436.873 127.619Z" fill="#FCBB00"/>
<path d="M436.873 145.795L455.055 145.795L455.055 127.619L436.873 127.619L436.873 145.795Z" fill="#FCBB00"/>
<path d="M436.873 163.984L455.055 163.984L455.055 145.796L436.873 145.796L436.873 163.984Z" fill="#FCBB00"/>
<path d="M436.873 182.16L455.055 182.16L455.055 163.984L436.873 163.984L436.873 182.16Z" fill="#FCBB00"/>
<path d="M436.873 200.337L455.055 200.337L455.055 182.16L436.873 182.16L436.873 200.337Z" fill="#FCBB00"/>
<path d="M436.873 218.513L455.055 218.513L455.055 200.337L436.873 200.337L436.873 218.513Z" fill="#FCBB00"/>
<path d="M436.873 236.689L455.055 236.689L455.055 218.513L436.873 218.513L436.873 236.689Z" fill="#FCBB00"/>
<path d="M436.873 254.865L455.055 254.865L455.055 236.689L436.873 236.689L436.873 254.865Z" fill="#FCBB00"/>
<path d="M436.873 273.054L455.055 273.054L455.055 254.865L436.873 254.865L436.873 273.054Z" fill="#FCBB00"/>
<path d="M436.873 291.23L455.055 291.23L455.055 273.054L436.873 273.054L436.873 291.23Z" fill="#FCBB00"/>
<path d="M436.873 309.406L455.055 309.406L455.055 291.23L436.873 291.23L436.873 309.406Z" fill="#FCBB00"/>
<path d="M436.873 327.582L455.055 327.582L455.055 309.406L436.873 309.406L436.873 327.582Z" fill="#FCBB00"/>
<path d="M436.873 345.759L455.055 345.759L455.055 327.582L436.873 327.582L436.873 345.759Z" fill="#FCBB00"/>
<path d="M436.873 363.934L455.055 363.934L455.055 345.758L436.873 345.758L436.873 363.934Z" fill="#FCBB00"/>
<path d="M436.873 382.123L455.055 382.123L455.055 363.935L436.873 363.935L436.873 382.123Z" fill="#FCBB00"/>
<path d="M436.873 400.3L455.055 400.3L455.055 382.123L436.873 382.123L436.873 400.3Z" fill="#FDDF8F"/>
<path d="M436.873 436.652L455.055 436.652L455.055 418.476L436.873 418.476L436.873 436.652Z" fill="#FDDF8F"/>
<path d="M455.055 91.2671L473.237 91.2671L473.237 73.0909L455.055 73.0909L455.055 91.2671Z" fill="#FCBB00"/>
<path d="M455.055 109.443L473.237 109.443L473.237 91.2669L455.055 91.2669L455.055 109.443Z" fill="#FCBB00"/>
<path d="M455.055 127.619L473.237 127.619L473.237 109.443L455.055 109.443L455.055 127.619Z" fill="#FCBB00"/>
<path d="M455.055 145.795L473.237 145.795L473.237 127.619L455.055 127.619L455.055 145.795Z" fill="#FCBB00"/>
<path d="M455.055 163.984L473.237 163.984L473.237 145.796L455.055 145.796L455.055 163.984Z" fill="#FCBB00"/>
<path d="M455.055 182.16L473.237 182.16L473.237 163.984L455.055 163.984L455.055 182.16Z" fill="#FCBB00"/>
<path d="M455.055 200.337L473.237 200.337L473.237 182.16L455.055 182.16L455.055 200.337Z" fill="#FCBB00"/>
<path d="M455.055 218.513L473.237 218.513L473.237 200.337L455.055 200.337L455.055 218.513Z" fill="#FCBB00"/>
<path d="M455.055 236.689L473.237 236.689L473.237 218.513L455.055 218.513L455.055 236.689Z" fill="#FCBB00"/>
<path d="M455.055 254.865L473.237 254.865L473.237 236.689L455.055 236.689L455.055 254.865Z" fill="#FCBB00"/>
<path d="M455.055 273.054L473.237 273.054L473.237 254.865L455.055 254.865L455.055 273.054Z" fill="#FCBB00"/>
<path d="M455.055 291.23L473.237 291.23L473.237 273.054L455.055 273.054L455.055 291.23Z" fill="#FCBB00"/>
<path d="M455.055 309.406L473.237 309.406L473.237 291.23L455.055 291.23L455.055 309.406Z" fill="#FCBB00"/>
<path d="M455.055 327.582L473.237 327.582L473.237 309.406L455.055 309.406L455.055 327.582Z" fill="#FCBB00"/>
<path d="M455.055 345.759L473.237 345.759L473.237 327.582L455.055 327.582L455.055 345.759Z" fill="#FCBB00"/>
<path d="M455.055 363.935L473.237 363.935L473.237 345.758L455.055 345.758L455.055 363.935Z" fill="#FCBB00"/>
<path d="M455.055 382.124L473.237 382.124L473.237 363.935L455.055 363.935L455.055 382.124Z" fill="#FCBB00"/>
<path d="M455.055 400.3L473.237 400.3L473.237 382.123L455.055 382.123L455.055 400.3Z" fill="#FCBB00"/>
<path d="M455.055 418.476L473.237 418.476L473.237 400.299L455.055 400.299L455.055 418.476Z" fill="#FCBB00"/>
<path d="M455.055 436.652L473.237 436.652L473.237 418.476L455.055 418.476L455.055 436.652Z" fill="#FCBB00"/>
<path d="M473.237 91.2671L491.418 91.2671L491.418 73.0909L473.237 73.0909L473.237 91.2671Z" fill="#FCBB00"/>
<path d="M473.237 109.443L491.418 109.443L491.418 91.2669L473.237 91.2669L473.237 109.443Z" fill="#FCBB00"/>
<path d="M473.237 127.619L491.418 127.619L491.418 109.443L473.237 109.443L473.237 127.619Z" fill="#FCBB00"/>
<path d="M473.237 145.795L491.418 145.795L491.418 127.619L473.237 127.619L473.237 145.795Z" fill="#FCBB00"/>
<path d="M473.237 163.984L491.418 163.984L491.418 145.796L473.237 145.796L473.237 163.984Z" fill="#FDDF8F"/>
<path d="M473.237 182.16L491.418 182.16L491.418 163.984L473.237 163.984L473.237 182.16Z" fill="#FDDF8F"/>
<path d="M473.237 200.337L491.418 200.337L491.418 182.16L473.237 182.16L473.237 200.337Z" fill="#FCBB00"/>
<path d="M473.237 218.513L491.418 218.513L491.418 200.337L473.237 200.337L473.237 218.513Z" fill="#FCBB00"/>
<path d="M473.237 236.689L491.418 236.689L491.418 218.513L473.237 218.513L473.237 236.689Z" fill="#FCBB00"/>
<path d="M473.237 254.865L491.418 254.865L491.418 236.689L473.237 236.689L473.237 254.865Z" fill="#FCBB00"/>
<path d="M473.237 273.054L491.418 273.054L491.418 254.865L473.237 254.865L473.237 273.054Z" fill="#FDDF8F"/>
<path d="M473.237 291.23L491.418 291.23L491.418 273.054L473.237 273.054L473.237 291.23Z" fill="#FDDF8F"/>
<path d="M473.237 309.406L491.418 309.406L491.418 291.23L473.237 291.23L473.237 309.406Z" fill="#FDDF8F"/>
<path d="M473.237 327.582L491.418 327.582L491.418 309.406L473.237 309.406L473.237 327.582Z" fill="#FCBB00"/>
<path d="M473.237 345.759L491.418 345.759L491.418 327.582L473.237 327.582L473.237 345.759Z" fill="#FCBB00"/>
<path d="M473.237 363.935L491.418 363.935L491.418 345.758L473.237 345.758L473.237 363.935Z" fill="#FCBB00"/>
<path d="M473.237 382.124L491.418 382.124L491.418 363.935L473.237 363.935L473.237 382.124Z" fill="#FCBB00"/>
<path d="M473.237 400.3L491.418 400.3L491.418 382.123L473.237 382.123L473.237 400.3Z" fill="#FCBB00"/>
<path d="M473.237 418.476L491.418 418.476L491.418 400.299L473.237 400.299L473.237 418.476Z" fill="#FCBB00"/>
<path d="M473.237 436.652L491.418 436.652L491.418 418.476L473.237 418.476L473.237 436.652Z" fill="#FCBB00"/>
<path d="M473.237 473.004L491.418 473.004L491.418 454.828L473.237 454.828L473.237 473.004Z" fill="#FDDF8F"/>
<path d="M491.419 91.2671L509.601 91.2671L509.601 73.0909L491.419 73.0909L491.419 91.2671Z" fill="#FCBB00"/>
<path d="M491.419 109.443L509.601 109.443L509.601 91.2669L491.419 91.2669L491.419 109.443Z" fill="#FDDF8F"/>
<path d="M491.419 127.619L509.601 127.619L509.601 109.443L491.419 109.443L491.419 127.619Z" fill="#FCBB00"/>
<path d="M491.419 145.795L509.601 145.795L509.601 127.619L491.419 127.619L491.419 145.795Z" fill="#FCBB00"/>
<path d="M491.419 163.984L509.601 163.984L509.601 145.796L491.419 145.796L491.419 163.984Z" fill="#FCBB00"/>
<path d="M491.419 182.16L509.601 182.16L509.601 163.984L491.419 163.984L491.419 182.16Z" fill="#FCBB00"/>
<path d="M491.419 200.336L509.601 200.336L509.601 182.16L491.419 182.16L491.419 200.336Z" fill="#FDDF8F"/>
<path d="M491.419 218.513L509.601 218.513L509.601 200.337L491.419 200.337L491.419 218.513Z" fill="#FCBB00"/>
<path d="M491.419 236.689L509.601 236.689L509.601 218.513L491.419 218.513L491.419 236.689Z" fill="#FCBB00"/>
<path d="M491.419 254.865L509.601 254.865L509.601 236.689L491.419 236.689L491.419 254.865Z" fill="#FCBB00"/>
<path d="M491.419 273.054L509.601 273.054L509.601 254.865L491.419 254.865L491.419 273.054Z" fill="#FCBB00"/>
<path d="M491.419 291.23L509.601 291.23L509.601 273.054L491.419 273.054L491.419 291.23Z" fill="#FCBB00"/>
<path d="M491.419 309.406L509.601 309.406L509.601 291.23L491.419 291.23L491.419 309.406Z" fill="#FCBB00"/>
<path d="M491.419 327.582L509.601 327.582L509.601 309.406L491.419 309.406L491.419 327.582Z" fill="#FCBB00"/>
<path d="M491.419 345.759L509.601 345.759L509.601 327.582L491.419 327.582L491.419 345.759Z" fill="#FCBB00"/>
<path d="M491.419 363.935L509.601 363.935L509.601 345.758L491.419 345.758L491.419 363.935Z" fill="#FCBB00"/>
<path d="M491.419 382.124L509.601 382.124L509.601 363.935L491.419 363.935L491.419 382.124Z" fill="#FCBB00"/>
<path d="M491.419 400.3L509.601 400.3L509.601 382.123L491.419 382.123L491.419 400.3Z" fill="#FDDF8F"/>
<path d="M491.419 418.476L509.601 418.476L509.601 400.299L491.419 400.299L491.419 418.476Z" fill="#FCBB00"/>
<path d="M491.419 436.652L509.601 436.652L509.601 418.476L491.419 418.476L491.419 436.652Z" fill="#FDDF8F"/>
<path d="M509.601 91.2671L527.782 91.2671L527.782 73.0909L509.601 73.0909L509.601 91.2671Z" fill="#FCBB00"/>
<path d="M509.601 109.443L527.782 109.443L527.782 91.2669L509.601 91.2669L509.601 109.443Z" fill="#FDDF8F"/>
<path d="M509.601 127.619L527.782 127.619L527.782 109.443L509.601 109.443L509.601 127.619Z" fill="#FDDF8F"/>
<path d="M509.601 145.795L527.782 145.795L527.782 127.619L509.601 127.619L509.601 145.795Z" fill="#FCBB00"/>
<path d="M509.601 163.984L527.782 163.984L527.782 145.796L509.601 145.796L509.601 163.984Z" fill="#FCBB00"/>
<path d="M509.601 182.16L527.782 182.16L527.782 163.984L509.601 163.984L509.601 182.16Z" fill="#FCBB00"/>
<path d="M509.601 200.336L527.782 200.336L527.782 182.16L509.601 182.16L509.601 200.336Z" fill="#FCBB00"/>
<path d="M509.601 218.513L527.782 218.513L527.782 200.337L509.601 200.337L509.601 218.513Z" fill="#FCBB00"/>
<path d="M509.601 236.689L527.782 236.689L527.782 218.513L509.601 218.513L509.601 236.689Z" fill="#FCBB00"/>
<path d="M509.601 254.865L527.782 254.865L527.782 236.689L509.601 236.689L509.601 254.865Z" fill="#FCBB00"/>
<path d="M509.601 273.054L527.782 273.054L527.782 254.865L509.601 254.865L509.601 273.054Z" fill="#FCBB00"/>
<path d="M509.601 291.23L527.782 291.23L527.782 273.054L509.601 273.054L509.601 291.23Z" fill="#FCBB00"/>
<path d="M509.601 309.406L527.782 309.406L527.782 291.23L509.601 291.23L509.601 309.406Z" fill="#FCBB00"/>
<path d="M509.601 327.582L527.782 327.582L527.782 309.406L509.601 309.406L509.601 327.582Z" fill="#FCBB00"/>
<path d="M509.601 345.759L527.782 345.759L527.782 327.582L509.601 327.582L509.601 345.759Z" fill="#FCBB00"/>
<path d="M509.601 363.935L527.782 363.935L527.782 345.758L509.601 345.758L509.601 363.935Z" fill="#FCBB00"/>
<path d="M509.601 382.124L527.782 382.124L527.782 363.935L509.601 363.935L509.601 382.124Z" fill="#FCBB00"/>
<path d="M509.601 400.3L527.782 400.3L527.782 382.123L509.601 382.123L509.601 400.3Z" fill="#FCBB00"/>
<path d="M509.601 418.476L527.782 418.476L527.782 400.299L509.601 400.299L509.601 418.476Z" fill="#FCBB00"/>
<path d="M527.782 109.443L545.977 109.443L545.977 91.2669L527.782 91.2669L527.782 109.443Z" fill="#FCBB00"/>
<path d="M527.782 127.619L545.977 127.619L545.977 109.443L527.782 109.443L527.782 127.619Z" fill="#FDDF8F"/>
<path d="M527.782 145.795L545.977 145.795L545.977 127.619L527.782 127.619L527.782 145.795Z" fill="#FCBB00"/>
<path d="M527.782 163.984L545.977 163.984L545.977 145.796L527.782 145.796L527.782 163.984Z" fill="#FCBB00"/>
<path d="M527.782 182.16L545.977 182.16L545.977 163.984L527.782 163.984L527.782 182.16Z" fill="#FCBB00"/>
<path d="M527.782 200.336L545.977 200.336L545.977 182.16L527.782 182.16L527.782 200.336Z" fill="#FCBB00"/>
<path d="M527.782 218.513L545.977 218.513L545.977 200.337L527.782 200.337L527.782 218.513Z" fill="#FCBB00"/>
<path d="M527.782 236.689L545.977 236.689L545.977 218.513L527.782 218.513L527.782 236.689Z" fill="#FCBB00"/>
<path d="M527.782 254.865L545.977 254.865L545.977 236.689L527.782 236.689L527.782 254.865Z" fill="#FCBB00"/>
<path d="M527.782 273.054L545.977 273.054L545.977 254.865L527.782 254.865L527.782 273.054Z" fill="#FCBB00"/>
<path d="M527.782 291.23L545.977 291.23L545.977 273.054L527.782 273.054L527.782 291.23Z" fill="#FCBB00"/>
<path d="M527.782 309.406L545.977 309.406L545.977 291.23L527.782 291.23L527.782 309.406Z" fill="#FCBB00"/>
<path d="M527.782 327.582L545.977 327.582L545.977 309.406L527.782 309.406L527.782 327.582Z" fill="#FCBB00"/>
<path d="M527.782 345.759L545.977 345.759L545.977 327.582L527.782 327.582L527.782 345.759Z" fill="#FDDF8F"/>
<path d="M527.782 363.935L545.977 363.935L545.977 345.758L527.782 345.758L527.782 363.935Z" fill="#FDDF8F"/>
<path d="M527.782 382.124L545.977 382.124L545.977 363.935L527.782 363.935L527.782 382.124Z" fill="#FCBB00"/>
<path d="M527.782 400.3L545.977 400.3L545.977 382.123L527.782 382.123L527.782 400.3Z" fill="#FCBB00"/>
<path d="M527.782 418.476L545.977 418.476L545.977 400.299L527.782 400.299L527.782 418.476Z" fill="#FCBB00"/>
<path d="M545.977 127.619L564.158 127.619L564.158 109.443L545.977 109.443L545.977 127.619Z" fill="#FCBB00"/>
<path d="M545.977 145.795L564.158 145.795L564.158 127.619L545.977 127.619L545.977 145.795Z" fill="#FCBB00"/>
<path d="M545.977 163.984L564.158 163.984L564.158 145.796L545.977 145.796L545.977 163.984Z" fill="#FCBB00"/>
<path d="M545.977 182.16L564.158 182.16L564.158 163.984L545.977 163.984L545.977 182.16Z" fill="#FCBB00"/>
<path d="M545.977 218.513L564.158 218.513L564.158 200.337L545.977 200.337L545.977 218.513Z" fill="#FCBB00"/>
<path d="M545.977 236.689L564.158 236.689L564.158 218.513L545.977 218.513L545.977 236.689Z" fill="#FCBB00"/>
<path d="M545.977 254.865L564.158 254.865L564.158 236.689L545.977 236.689L545.977 254.865Z" fill="#FDDF8F"/>
<path d="M545.977 273.054L564.158 273.054L564.158 254.865L545.977 254.865L545.977 273.054Z" fill="#FCBB00"/>
<path d="M545.977 291.23L564.158 291.23L564.158 273.054L545.977 273.054L545.977 291.23Z" fill="#FCBB00"/>
<path d="M545.977 309.406L564.158 309.406L564.158 291.23L545.977 291.23L545.977 309.406Z" fill="#FCBB00"/>
<path d="M545.977 327.582L564.158 327.582L564.158 309.406L545.977 309.406L545.977 327.582Z" fill="#FCBB00"/>
<path d="M545.977 345.759L564.158 345.759L564.158 327.582L545.977 327.582L545.977 345.759Z" fill="#FCBB00"/>
<path d="M545.977 363.935L564.158 363.935L564.158 345.758L545.977 345.758L545.977 363.935Z" fill="#FDDF8F"/>
<path d="M545.977 382.124L564.158 382.124L564.158 363.935L545.977 363.935L545.977 382.124Z" fill="#FDDF8F"/>
<path d="M564.158 145.795L582.34 145.795L582.34 127.619L564.158 127.619L564.158 145.795Z" fill="#FCBB00"/>
<path d="M564.158 236.689L582.339 236.689L582.339 218.513L564.158 218.513L564.158 236.689Z" fill="#FCBB00"/>
<path d="M564.158 254.865L582.339 254.865L582.339 236.689L564.158 236.689L564.158 254.865Z" fill="#FDDF8F"/>
<path d="M564.158 273.054L582.339 273.054L582.339 254.865L564.158 254.865L564.158 273.054Z" fill="#FCBB00"/>
<path d="M564.158 291.23L582.339 291.23L582.339 273.054L564.158 273.054L564.158 291.23Z" fill="#FCBB00"/>
<path d="M564.158 309.406L582.339 309.406L582.339 291.23L564.158 291.23L564.158 309.406Z" fill="#FCBB00"/>
<path d="M564.158 327.582L582.339 327.582L582.339 309.406L564.158 309.406L564.158 327.582Z" fill="#FCBB00"/>
<path d="M564.158 345.759L582.339 345.759L582.339 327.582L564.158 327.582L564.158 345.759Z" fill="#FCBB00"/>
<path d="M564.158 363.935L582.339 363.935L582.339 345.758L564.158 345.758L564.158 363.935Z" fill="#FCBB00"/>
<path d="M564.158 382.124L582.339 382.124L582.339 363.935L564.158 363.935L564.158 382.124Z" fill="#FCBB00"/>
<path d="M564.158 436.652L582.339 436.652L582.339 418.476L564.158 418.476L564.158 436.652Z" fill="#FCBB00"/>
<path d="M582.34 127.619L600.521 127.619L600.521 109.443L582.34 109.443L582.34 127.619Z" fill="#FCBB00"/>
<path d="M582.34 145.795L600.521 145.795L600.521 127.619L582.34 127.619L582.34 145.795Z" fill="#FCBB00"/>
<path d="M582.34 254.865L600.521 254.865L600.521 236.689L582.34 236.689L582.34 254.865Z" fill="#FCBB00"/>
<path d="M582.34 273.054L600.521 273.054L600.521 254.865L582.34 254.865L582.34 273.054Z" fill="#FCBB00"/>
<path d="M582.34 291.23L600.521 291.23L600.521 273.054L582.34 273.054L582.34 291.23Z" fill="#FDDF8F"/>
<path d="M582.34 309.406L600.521 309.406L600.521 291.23L582.34 291.23L582.34 309.406Z" fill="#FDDF8F"/>
<path d="M582.34 327.582L600.521 327.582L600.521 309.406L582.34 309.406L582.34 327.582Z" fill="#FCBB00"/>
<path d="M582.34 345.759L600.521 345.759L600.521 327.582L582.34 327.582L582.34 345.759Z" fill="#FCBB00"/>
<path d="M582.34 363.935L600.521 363.935L600.521 345.758L582.34 345.758L582.34 363.935Z" fill="#FCBB00"/>
<path d="M600.521 127.619L618.703 127.619L618.703 109.443L600.521 109.443L600.521 127.619Z" fill="#FCBB00"/>
<path d="M600.521 145.795L618.703 145.795L618.703 127.619L600.521 127.619L600.521 145.795Z" fill="#FDDF8F"/>
<path d="M600.521 254.865L618.703 254.865L618.703 236.689L600.521 236.689L600.521 254.865Z" fill="#FCBB00"/>
<path d="M600.521 273.054L618.703 273.054L618.703 254.865L600.521 254.865L600.521 273.054Z" fill="#FCBB00"/>
<path d="M600.521 291.23L618.703 291.23L618.703 273.054L600.521 273.054L600.521 291.23Z" fill="#FCBB00"/>
<path d="M600.521 309.406L618.703 309.406L618.703 291.23L600.521 291.23L600.521 309.406Z" fill="#FCBB00"/>
</svg>
