<svg fill="none" height="485" viewBox="0 0 812 485" width="812" xmlns="http://www.w3.org/2000/svg"><path d="m24.597 110.242h-24.597v-22.0285h24.597z" fill="#bfefed"/><path d="m639.592 396.441h-24.597v-22.013h24.597z" fill="#bfefed"/><path d="m762.594 462.48h-24.597v-22.013h24.597z" fill="#bfefed"/><path d="m49.1942 440.468h-24.597v-22.013h24.597z" fill="#bfefed"/><path d="m270.585 418.455h-24.597v-22.013h24.597z" fill="#bfefed"/><path d="m811.788 66.2001h-24.597v-22.0129h24.597z" fill="#6ae8e3"/><path d="m811.788 88.2135h-24.597v-22.0131h24.597z" fill="#6ae8e3"/><path d="m811.788 198.293h-24.597v-22.013h24.597z" fill="#bfefed"/><path d="m811.788 220.306h-24.597v-22.013h24.597z" fill="#bfefed"/><path d="m787.191 66.2001h-24.597v-22.0129h24.597z" fill="#bfefed"/><path d="m787.191 88.2135h-24.597v-22.0131h24.597z" fill="#6ae8e3"/><path d="m787.191 110.242h-24.597v-22.0285h24.597z" fill="#6ae8e3"/><path d="m787.191 132.255h-24.597v-22.013h24.597z" fill="#6ae8e3"/><path d="m787.191 176.281h-24.597v-22.013h24.597z" fill="#bfefed"/><path d="m787.191 198.293h-24.597v-22.013h24.597z" fill="#bfefed"/><path d="m787.191 220.306h-24.597v-22.013h24.597z" fill="#6ae8e3"/><path d="m787.191 242.335h-24.597v-22.028h24.597z" fill="#6ae8e3"/><path d="m787.191 330.387h-24.597v-22.013h24.597z" fill="#6ae8e3"/><path d="m787.191 352.4h-24.597v-22.013h24.597z" fill="#bfefed"/><path d="m787.191 374.428h-24.597v-22.028h24.597z" fill="#6ae8e3"/><path d="m762.594 66.2001h-24.597v-22.0129h24.597z" fill="#6ae8e3"/><path d="m762.594 88.2135h-24.597v-22.0131h24.597z" fill="#6ae8e3"/><path d="m762.594 110.242h-24.597v-22.0285h24.597z" fill="#6ae8e3"/><path d="m762.594 132.255h-24.597v-22.013h24.597z" fill="#6ae8e3"/><path d="m762.594 154.268h-24.597v-22.013h24.597z" fill="#6ae8e3"/><path d="m762.594 176.281h-24.597v-22.013h24.597z" fill="#bfefed"/><path d="m762.594 198.293h-24.597v-22.013h24.597z" fill="#6ae8e3"/><path d="m762.594 220.306h-24.597v-22.013h24.597z" fill="#6ae8e3"/><path d="m762.594 242.335h-24.597v-22.028h24.597z" fill="#6ae8e3"/><path d="m762.594 286.361h-24.597v-22.013h24.597z" fill="#6ae8e3"/><path d="m762.594 308.374h-24.597v-22.013h24.597z" fill="#6ae8e3"/><path d="m762.594 330.387h-24.597v-22.013h24.597z" fill="#6ae8e3"/><path d="m762.594 352.4h-24.597v-22.013h24.597z" fill="#6ae8e3"/><path d="m762.594 374.428h-24.597v-22.028h24.597z" fill="#6ae8e3"/><path d="m762.594 396.441h-24.597v-22.013h24.597z" fill="#6ae8e3"/><path d="m762.594 484.493h-24.597v-22.013h24.597z" fill="#6ae8e3"/><path d="m737.996 44.1873h-24.597v-22.0131h24.597z" fill="#6ae8e3"/><path d="m737.996 66.2001h-24.597v-22.0129h24.597z" fill="#6ae8e3"/><path d="m737.996 88.2135h-24.597v-22.0131h24.597z" fill="#6ae8e3"/><path d="m737.996 110.242h-24.597v-22.0285h24.597z" fill="#6ae8e3"/><path d="m737.996 132.255h-24.597v-22.013h24.597z" fill="#6ae8e3"/><path d="m737.996 154.268h-24.597v-22.013h24.597z" fill="#6ae8e3"/><path d="m737.996 176.281h-24.597v-22.013h24.597z" fill="#6ae8e3"/><path d="m737.996 198.293h-24.597v-22.013h24.597z" fill="#6ae8e3"/><path d="m737.996 220.306h-24.597v-22.013h24.597z" fill="#6ae8e3"/><path d="m737.996 242.335h-24.597v-22.028h24.597z" fill="#6ae8e3"/><path d="m737.996 264.348h-24.597v-22.013h24.597z" fill="#6ae8e3"/><path d="m737.996 286.361h-24.597v-22.013h24.597z" fill="#6ae8e3"/><path d="m737.996 308.374h-24.597v-22.013h24.597z" fill="#6ae8e3"/><path d="m737.996 330.387h-24.597v-22.013h24.597z" fill="#bfefed"/><path d="m737.996 352.4h-24.597v-22.013h24.597z" fill="#6ae8e3"/><path d="m737.996 374.428h-24.597v-22.028h24.597z" fill="#6ae8e3"/><path d="m737.996 396.441h-24.597v-22.013h24.597z" fill="#6ae8e3"/><path d="m713.4 88.2135h-24.614v-22.0131h24.614z" fill="#bfefed"/><path d="m713.4 110.242h-24.614v-22.0285h24.614z" fill="#6ae8e3"/><path d="m713.4 132.255h-24.614v-22.013h24.614z" fill="#6ae8e3"/><path d="m713.4 154.268h-24.614v-22.013h24.614z" fill="#6ae8e3"/><path d="m713.4 176.281h-24.614v-22.013h24.614z" fill="#6ae8e3"/><path d="m713.4 198.293h-24.614v-22.013h24.614z" fill="#6ae8e3"/><path d="m713.4 220.306h-24.614v-22.013h24.614z" fill="#6ae8e3"/><path d="m713.4 242.335h-24.614v-22.028h24.614z" fill="#6ae8e3"/><path d="m713.4 264.348h-24.614v-22.013h24.614z" fill="#6ae8e3"/><path d="m713.4 286.361h-24.614v-22.013h24.614z" fill="#6ae8e3"/><path d="m713.4 308.374h-24.614v-22.013h24.614z" fill="#6ae8e3"/><path d="m713.4 330.387h-24.614v-22.013h24.614z" fill="#6ae8e3"/><path d="m713.4 352.4h-24.614v-22.013h24.614z" fill="#6ae8e3"/><path d="m713.4 374.428h-24.614v-22.028h24.614z" fill="#6ae8e3"/><path d="m713.4 396.441h-24.614v-22.013h24.614z" fill="#bfefed"/><path d="m713.4 418.455h-24.614v-22.013h24.614z" fill="#6ae8e3"/><path d="m688.786 66.2001h-24.597v-22.0129h24.597z" fill="#6ae8e3"/><path d="m688.786 88.2135h-24.597v-22.0131h24.597z" fill="#bfefed"/><path d="m688.786 110.242h-24.597v-22.0285h24.597z" fill="#6ae8e3"/><path d="m688.786 132.255h-24.597v-22.013h24.597z" fill="#6ae8e3"/><path d="m688.786 154.268h-24.597v-22.013h24.597z" fill="#6ae8e3"/><path d="m688.786 176.281h-24.597v-22.013h24.597z" fill="#6ae8e3"/><path d="m688.786 198.293h-24.597v-22.013h24.597z" fill="#6ae8e3"/><path d="m688.786 220.306h-24.597v-22.013h24.597z" fill="#6ae8e3"/><path d="m688.786 242.335h-24.597v-22.028h24.597z" fill="#6ae8e3"/><path d="m688.786 264.348h-24.597v-22.013h24.597z" fill="#6ae8e3"/><path d="m688.786 286.361h-24.597v-22.013h24.597z" fill="#6ae8e3"/><path d="m688.786 308.374h-24.597v-22.013h24.597z" fill="#6ae8e3"/><path d="m688.786 330.387h-24.597v-22.013h24.597z" fill="#6ae8e3"/><path d="m688.786 352.4h-24.597v-22.013h24.597z" fill="#6ae8e3"/><path d="m688.786 374.428h-24.597v-22.028h24.597z" fill="#6ae8e3"/><path d="m688.786 396.441h-24.597v-22.013h24.597z" fill="#6ae8e3"/><path d="m688.786 418.455h-24.597v-22.013h24.597z" fill="#6ae8e3"/><path d="m664.189 44.1873h-24.597v-22.0131h24.597z" fill="#6ae8e3"/><path d="m664.189 66.2001h-24.597v-22.0129h24.597z" fill="#6ae8e3"/><path d="m664.189 88.2135h-24.597v-22.0131h24.597z" fill="#bfefed"/><path d="m664.189 110.242h-24.597v-22.0285h24.597z" fill="#6ae8e3"/><path d="m664.189 132.255h-24.597v-22.013h24.597z" fill="#6ae8e3"/><path d="m664.189 154.268h-24.597v-22.013h24.597z" fill="#6ae8e3"/><path d="m664.189 176.281h-24.597v-22.013h24.597z" fill="#6ae8e3"/><path d="m664.189 198.293h-24.597v-22.013h24.597z" fill="#6ae8e3"/><path d="m664.189 220.306h-24.597v-22.013h24.597z" fill="#6ae8e3"/><path d="m664.189 242.335h-24.597v-22.028h24.597z" fill="#6ae8e3"/><path d="m664.189 264.348h-24.597v-22.013h24.597z" fill="#6ae8e3"/><path d="m664.189 286.361h-24.597v-22.013h24.597z" fill="#6ae8e3"/><path d="m664.189 308.374h-24.597v-22.013h24.597z" fill="#6ae8e3"/><path d="m664.189 330.387h-24.597v-22.013h24.597z" fill="#6ae8e3"/><path d="m664.189 352.4h-24.597v-22.013h24.597z" fill="#6ae8e3"/><path d="m664.189 374.428h-24.597v-22.028h24.597z" fill="#6ae8e3"/><path d="m664.189 396.441h-24.597v-22.013h24.597z" fill="#bfefed"/><path d="m639.592 66.2001h-24.597v-22.0129h24.597z" fill="#6ae8e3"/><path d="m639.592 88.2135h-24.597v-22.0131h24.597z" fill="#6ae8e3"/><path d="m639.592 110.242h-24.597v-22.0285h24.597z" fill="#6ae8e3"/><path d="m639.592 132.255h-24.597v-22.013h24.597z" fill="#6ae8e3"/><path d="m639.592 154.268h-24.597v-22.013h24.597z" fill="#6ae8e3"/><path d="m639.592 176.281h-24.597v-22.013h24.597z" fill="#6ae8e3"/><path d="m639.592 198.293h-24.597v-22.013h24.597z" fill="#6ae8e3"/><path d="m639.592 220.306h-24.597v-22.013h24.597z" fill="#6ae8e3"/><path d="m639.592 242.335h-24.597v-22.028h24.597z" fill="#6ae8e3"/><path d="m639.592 264.348h-24.597v-22.013h24.597z" fill="#6ae8e3"/><path d="m639.592 286.361h-24.597v-22.013h24.597z" fill="#6ae8e3"/><path d="m639.592 308.374h-24.597v-22.013h24.597z" fill="#6ae8e3"/><path d="m639.592 330.387h-24.597v-22.013h24.597z" fill="#6ae8e3"/><path d="m639.592 352.4h-24.597v-22.013h24.597z" fill="#6ae8e3"/><path d="m639.592 374.428h-24.597v-22.028h24.597z" fill="#6ae8e3"/><path d="m614.994 22.1744h-24.598v-22.013023h24.598z" fill="#6ae8e3"/><path d="m614.994 66.2001h-24.598v-22.0129h24.598z" fill="#6ae8e3"/><path d="m614.994 88.2135h-24.598v-22.0131h24.598z" fill="#6ae8e3"/><path d="m614.994 110.242h-24.598v-22.0285h24.598z" fill="#bfefed"/><path d="m614.994 132.255h-24.598v-22.013h24.598z" fill="#bfefed"/><path d="m614.994 154.268h-24.598v-22.013h24.598z" fill="#6ae8e3"/><path d="m614.994 176.281h-24.598v-22.013h24.598z" fill="#6ae8e3"/><path d="m614.994 198.293h-24.598v-22.013h24.598z" fill="#6ae8e3"/><path d="m614.994 220.306h-24.598v-22.013h24.598z" fill="#6ae8e3"/><path d="m614.994 242.335h-24.598v-22.028h24.598z" fill="#6ae8e3"/><path d="m614.994 264.348h-24.598v-22.013h24.598z" fill="#6ae8e3"/><path d="m614.994 286.361h-24.598v-22.013h24.598z" fill="#6ae8e3"/><path d="m614.994 308.374h-24.598v-22.013h24.598z" fill="#6ae8e3"/><path d="m614.994 330.387h-24.598v-22.013h24.598z" fill="#6ae8e3"/><path d="m614.994 352.4h-24.598v-22.013h24.598z" fill="#6ae8e3"/><path d="m614.994 374.428h-24.598v-22.028h24.598z" fill="#bfefed"/><path d="m614.994 396.441h-24.598v-22.013h24.598z" fill="#bfefed"/><path d="m614.994 418.455h-24.598v-22.013h24.598z" fill="#bfefed"/><path d="m614.994 440.468h-24.598v-22.013h24.598z" fill="#bfefed"/><path d="m590.397 44.1873h-24.597v-22.0131h24.597z" fill="#bfefed"/><path d="m590.397 66.2001h-24.597v-22.0129h24.597z" fill="#6ae8e3"/><path d="m590.397 88.2135h-24.597v-22.0131h24.597z" fill="#6ae8e3"/><path d="m590.397 110.242h-24.597v-22.0285h24.597z" fill="#6ae8e3"/><path d="m590.397 132.255h-24.597v-22.013h24.597z" fill="#6ae8e3"/><path d="m590.397 154.268h-24.597v-22.013h24.597z" fill="#6ae8e3"/><path d="m590.397 176.281h-24.597v-22.013h24.597z" fill="#6ae8e3"/><path d="m590.397 198.293h-24.597v-22.013h24.597z" fill="#6ae8e3"/><path d="m590.397 220.306h-24.597v-22.013h24.597z" fill="#6ae8e3"/><path d="m590.397 242.335h-24.597v-22.028h24.597z" fill="#6ae8e3"/><path d="m590.397 264.348h-24.597v-22.013h24.597z" fill="#6ae8e3"/><path d="m590.397 286.361h-24.597v-22.013h24.597z" fill="#6ae8e3"/><path d="m590.397 308.374h-24.597v-22.013h24.597z" fill="#6ae8e3"/><path d="m590.397 330.387h-24.597v-22.013h24.597z" fill="#6ae8e3"/><path d="m590.397 352.4h-24.597v-22.013h24.597z" fill="#6ae8e3"/><path d="m590.397 374.428h-24.597v-22.028h24.597z" fill="#6ae8e3"/><path d="m590.397 396.441h-24.597v-22.013h24.597z" fill="#bfefed"/><path d="m590.397 418.455h-24.597v-22.013h24.597z" fill="#6ae8e3"/><path d="m590.397 440.468h-24.597v-22.013h24.597z" fill="#6ae8e3"/><path d="m565.801 44.1873h-24.614v-22.0131h24.614z" fill="#bfefed"/><path d="m565.801 88.2135h-24.614v-22.0131h24.614z" fill="#6ae8e3"/><path d="m565.801 110.242h-24.614v-22.0285h24.614z" fill="#6ae8e3"/><path d="m565.801 132.255h-24.614v-22.013h24.614z" fill="#6ae8e3"/><path d="m565.801 154.268h-24.614v-22.013h24.614z" fill="#6ae8e3"/><path d="m565.801 176.281h-24.614v-22.013h24.614z" fill="#6ae8e3"/><path d="m565.801 198.293h-24.614v-22.013h24.614z" fill="#6ae8e3"/><path d="m565.801 220.306h-24.614v-22.013h24.614z" fill="#6ae8e3"/><path d="m565.801 242.335h-24.614v-22.028h24.614z" fill="#6ae8e3"/><path d="m565.801 264.348h-24.614v-22.013h24.614z" fill="#6ae8e3"/><path d="m565.801 286.361h-24.614v-22.013h24.614z" fill="#6ae8e3"/><path d="m565.801 308.374h-24.614v-22.013h24.614z" fill="#6ae8e3"/><path d="m565.801 330.387h-24.614v-22.013h24.614z" fill="#6ae8e3"/><path d="m565.801 352.4h-24.614v-22.013h24.614z" fill="#6ae8e3"/><path d="m565.801 374.428h-24.614v-22.028h24.614z" fill="#bfefed"/><path d="m565.801 396.441h-24.614v-22.013h24.614z" fill="#6ae8e3"/><path d="m565.801 418.455h-24.614v-22.013h24.614z" fill="#6ae8e3"/><path d="m565.801 462.48h-24.614v-22.013h24.614z" fill="#6ae8e3"/><path d="m541.187 44.1873h-24.597v-22.0131h24.597z" fill="#bfefed"/><path d="m541.187 66.2001h-24.597v-22.0129h24.597z" fill="#6ae8e3"/><path d="m541.187 88.2135h-24.597v-22.0131h24.597z" fill="#6ae8e3"/><path d="m541.187 110.242h-24.597v-22.0285h24.597z" fill="#6ae8e3"/><path d="m541.187 132.255h-24.597v-22.013h24.597z" fill="#6ae8e3"/><path d="m541.187 154.268h-24.597v-22.013h24.597z" fill="#6ae8e3"/><path d="m541.187 176.281h-24.597v-22.013h24.597z" fill="#6ae8e3"/><path d="m541.187 198.293h-24.597v-22.013h24.597z" fill="#6ae8e3"/><path d="m541.187 220.306h-24.597v-22.013h24.597z" fill="#6ae8e3"/><path d="m541.187 242.335h-24.597v-22.028h24.597z" fill="#6ae8e3"/><path d="m541.187 264.348h-24.597v-22.013h24.597z" fill="#6ae8e3"/><path d="m541.187 286.361h-24.597v-22.013h24.597z" fill="#6ae8e3"/><path d="m541.187 308.374h-24.597v-22.013h24.597z" fill="#6ae8e3"/><path d="m541.187 330.387h-24.597v-22.013h24.597z" fill="#6ae8e3"/><path d="m541.187 352.4h-24.597v-22.013h24.597z" fill="#6ae8e3"/><path d="m541.187 374.428h-24.597v-22.028h24.597z" fill="#6ae8e3"/><path d="m541.187 396.441h-24.597v-22.013h24.597z" fill="#bfefed"/><path d="m541.187 418.455h-24.597v-22.013h24.597z" fill="#6ae8e3"/><path d="m541.187 440.468h-24.597v-22.013h24.597z" fill="#6ae8e3"/><path d="m541.187 462.48h-24.597v-22.013h24.597z" fill="#bfefed"/><g fill="#6ae8e3"><path d="m516.59 66.2001h-24.597v-22.0129h24.597z"/><path d="m516.59 88.2135h-24.597v-22.0131h24.597z"/><path d="m516.59 110.242h-24.597v-22.0285h24.597z"/><path d="m516.59 132.255h-24.597v-22.013h24.597z"/><path d="m516.59 154.268h-24.597v-22.013h24.597z"/><path d="m516.59 176.281h-24.597v-22.013h24.597z"/><path d="m516.59 198.293h-24.597v-22.013h24.597z"/><path d="m516.59 220.306h-24.597v-22.013h24.597z"/><path d="m516.59 242.335h-24.597v-22.028h24.597z"/><path d="m516.59 264.348h-24.597v-22.013h24.597z"/><path d="m516.59 286.361h-24.597v-22.013h24.597z"/><path d="m516.59 308.374h-24.597v-22.013h24.597z"/><path d="m516.59 330.387h-24.597v-22.013h24.597z"/><path d="m516.59 352.4h-24.597v-22.013h24.597z"/><path d="m516.59 374.428h-24.597v-22.028h24.597z"/><path d="m516.59 396.441h-24.597v-22.013h24.597z"/><path d="m516.59 418.455h-24.597v-22.013h24.597z"/><path d="m516.59 440.468h-24.597v-22.013h24.597z"/><path d="m516.59 462.48h-24.597v-22.013h24.597z"/><path d="m516.59 484.493h-24.597v-22.013h24.597z"/><path d="m491.992 66.2001h-24.597v-22.0129h24.597z"/><path d="m491.992 88.2135h-24.597v-22.0131h24.597z"/><path d="m491.992 110.242h-24.597v-22.0285h24.597z"/><path d="m491.992 132.255h-24.597v-22.013h24.597z"/><path d="m491.992 154.268h-24.597v-22.013h24.597z"/><path d="m491.992 176.281h-24.597v-22.013h24.597z"/><path d="m491.992 198.293h-24.597v-22.013h24.597z"/><path d="m491.992 220.306h-24.597v-22.013h24.597z"/><path d="m491.992 242.335h-24.597v-22.028h24.597z"/><path d="m491.992 264.348h-24.597v-22.013h24.597z"/><path d="m491.992 286.361h-24.597v-22.013h24.597z"/><path d="m491.992 308.374h-24.597v-22.013h24.597z"/><path d="m491.992 330.387h-24.597v-22.013h24.597z"/><path d="m491.992 352.4h-24.597v-22.013h24.597z"/><path d="m491.992 374.428h-24.597v-22.028h24.597z"/><path d="m491.992 396.441h-24.597v-22.013h24.597z"/><path d="m491.992 418.455h-24.597v-22.013h24.597z"/><path d="m491.992 440.468h-24.597v-22.013h24.597z"/><path d="m491.992 462.48h-24.597v-22.013h24.597z"/><path d="m467.395 66.2001h-24.597v-22.0129h24.597z"/><path d="m467.395 88.2135h-24.597v-22.0131h24.597z"/><path d="m467.395 110.242h-24.597v-22.0285h24.597z"/><path d="m467.395 132.255h-24.597v-22.013h24.597z"/><path d="m467.395 154.268h-24.597v-22.013h24.597z"/><path d="m467.395 176.281h-24.597v-22.013h24.597z"/><path d="m467.395 198.293h-24.597v-22.013h24.597z"/><path d="m467.395 220.306h-24.597v-22.013h24.597z"/><path d="m467.395 242.335h-24.597v-22.028h24.597z"/><path d="m467.395 264.348h-24.597v-22.013h24.597z"/><path d="m467.395 286.361h-24.597v-22.013h24.597z"/><path d="m467.395 308.374h-24.597v-22.013h24.597z"/><path d="m467.395 330.387h-24.597v-22.013h24.597z"/><path d="m467.395 352.4h-24.597v-22.013h24.597z"/><path d="m467.395 374.428h-24.597v-22.028h24.597z"/><path d="m467.395 396.441h-24.597v-22.013h24.597z"/><path d="m467.395 418.455h-24.597v-22.013h24.597z"/><path d="m467.395 440.468h-24.597v-22.013h24.597z"/><path d="m442.798 44.1873h-24.614v-22.0131h24.614z"/><path d="m442.798 66.2001h-24.614v-22.0129h24.614z"/><path d="m442.798 88.2135h-24.614v-22.0131h24.614z"/><path d="m442.798 110.242h-24.614v-22.0285h24.614z"/><path d="m442.798 132.255h-24.614v-22.013h24.614z"/><path d="m442.798 154.268h-24.614v-22.013h24.614z"/><path d="m442.798 176.281h-24.614v-22.013h24.614z"/><path d="m442.798 198.293h-24.614v-22.013h24.614z"/><path d="m442.798 220.306h-24.614v-22.013h24.614z"/><path d="m442.798 242.335h-24.614v-22.028h24.614z"/><path d="m442.798 264.348h-24.614v-22.013h24.614z"/><path d="m442.798 286.361h-24.614v-22.013h24.614z"/><path d="m442.798 308.374h-24.614v-22.013h24.614z"/><path d="m442.798 330.387h-24.614v-22.013h24.614z"/><path d="m442.798 352.4h-24.614v-22.013h24.614z"/><path d="m442.798 374.428h-24.614v-22.028h24.614z"/><path d="m442.798 396.441h-24.614v-22.013h24.614z"/><path d="m442.798 418.455h-24.614v-22.013h24.614z"/><path d="m442.798 440.468h-24.614v-22.013h24.614z"/><path d="m418.185 44.1873h-24.597v-22.0131h24.597z"/><path d="m418.185 66.2001h-24.597v-22.0129h24.597z"/><path d="m418.185 88.2135h-24.597v-22.0131h24.597z"/><path d="m418.185 110.242h-24.597v-22.0285h24.597z"/><path d="m418.185 132.255h-24.597v-22.013h24.597z"/><path d="m418.185 154.268h-24.597v-22.013h24.597z"/><path d="m418.185 176.281h-24.597v-22.013h24.597z"/><path d="m418.185 198.293h-24.597v-22.013h24.597z"/><path d="m418.185 220.306h-24.597v-22.013h24.597z"/><path d="m418.185 242.335h-24.597v-22.028h24.597z"/><path d="m418.185 264.348h-24.597v-22.013h24.597z"/><path d="m418.185 286.361h-24.597v-22.013h24.597z"/><path d="m418.185 308.374h-24.597v-22.013h24.597z"/><path d="m418.185 330.387h-24.597v-22.013h24.597z"/><path d="m418.185 352.4h-24.597v-22.013h24.597z"/><path d="m418.185 374.428h-24.597v-22.028h24.597z"/><path d="m418.185 396.441h-24.597v-22.013h24.597z"/><path d="m418.185 418.455h-24.597v-22.013h24.597z"/><path d="m393.586 66.2001h-24.597v-22.0129h24.597z"/><path d="m393.586 88.2135h-24.597v-22.0131h24.597z"/><path d="m393.586 110.242h-24.597v-22.0285h24.597z"/><path d="m393.586 132.255h-24.597v-22.013h24.597z"/><path d="m393.586 154.268h-24.597v-22.013h24.597z"/><path d="m393.586 176.281h-24.597v-22.013h24.597z"/><path d="m393.586 198.293h-24.597v-22.013h24.597z"/><path d="m393.586 220.306h-24.597v-22.013h24.597z"/><path d="m393.586 242.335h-24.597v-22.028h24.597z"/><path d="m393.586 264.348h-24.597v-22.013h24.597z"/><path d="m393.586 286.361h-24.597v-22.013h24.597z"/><path d="m393.586 308.374h-24.597v-22.013h24.597z"/><path d="m393.586 330.387h-24.597v-22.013h24.597z"/><path d="m393.586 352.4h-24.597v-22.013h24.597z"/><path d="m393.586 374.428h-24.597v-22.028h24.597z"/><path d="m393.586 396.441h-24.597v-22.013h24.597z"/><path d="m393.586 418.455h-24.597v-22.013h24.597z"/><path d="m368.99 66.2001h-24.597v-22.0129h24.597z"/><path d="m368.99 88.2135h-24.597v-22.0131h24.597z"/><path d="m368.99 110.242h-24.597v-22.0285h24.597z"/><path d="m368.99 132.255h-24.597v-22.013h24.597z"/><path d="m368.99 154.268h-24.597v-22.013h24.597z"/><path d="m368.99 176.281h-24.597v-22.013h24.597z"/><path d="m368.99 198.293h-24.597v-22.013h24.597z"/><path d="m368.99 220.306h-24.597v-22.013h24.597z"/><path d="m368.99 242.335h-24.597v-22.028h24.597z"/><path d="m368.99 264.348h-24.597v-22.013h24.597z"/><path d="m368.99 286.361h-24.597v-22.013h24.597z"/><path d="m368.99 308.374h-24.597v-22.013h24.597z"/><path d="m368.99 330.387h-24.597v-22.013h24.597z"/><path d="m368.99 352.4h-24.597v-22.013h24.597z"/><path d="m368.99 374.428h-24.597v-22.028h24.597z"/><path d="m368.99 396.441h-24.597v-22.013h24.597z"/><path d="m368.99 418.455h-24.597v-22.013h24.597z"/><path d="m344.392 66.2001h-24.597v-22.0129h24.597z"/><path d="m344.392 88.2135h-24.597v-22.0131h24.597z"/><path d="m344.392 110.242h-24.597v-22.0285h24.597z"/><path d="m344.392 132.255h-24.597v-22.013h24.597z"/><path d="m344.392 154.268h-24.597v-22.013h24.597z"/><path d="m344.392 176.281h-24.597v-22.013h24.597z"/><path d="m344.392 198.293h-24.597v-22.013h24.597z"/><path d="m344.392 220.306h-24.597v-22.013h24.597z"/><path d="m344.392 242.335h-24.597v-22.028h24.597z"/><path d="m344.392 264.348h-24.597v-22.013h24.597z"/><path d="m344.392 286.361h-24.597v-22.013h24.597z"/><path d="m344.392 308.374h-24.597v-22.013h24.597z"/><path d="m344.392 330.387h-24.597v-22.013h24.597z"/><path d="m344.392 352.4h-24.597v-22.013h24.597z"/><path d="m344.392 374.428h-24.597v-22.028h24.597z"/><path d="m344.392 396.441h-24.597v-22.013h24.597z"/><path d="m319.795 44.1873h-24.597v-22.0131h24.597z"/><path d="m319.795 88.2135h-24.597v-22.0131h24.597z"/><path d="m319.795 110.242h-24.597v-22.0285h24.597z"/><path d="m319.795 132.255h-24.597v-22.013h24.597z"/><path d="m319.795 154.268h-24.597v-22.013h24.597z"/><path d="m319.795 176.281h-24.597v-22.013h24.597z"/><path d="m319.795 198.293h-24.597v-22.013h24.597z"/><path d="m319.795 220.306h-24.597v-22.013h24.597z"/><path d="m319.795 242.335h-24.597v-22.028h24.597z"/><path d="m319.795 264.348h-24.597v-22.013h24.597z"/><path d="m319.795 286.361h-24.597v-22.013h24.597z"/><path d="m319.795 308.374h-24.597v-22.013h24.597z"/><path d="m319.795 330.387h-24.597v-22.013h24.597z"/><path d="m319.795 352.4h-24.597v-22.013h24.597z"/><path d="m319.795 374.428h-24.597v-22.028h24.597z"/><path d="m319.795 396.441h-24.597v-22.013h24.597z"/><path d="m319.795 462.48h-24.597v-22.013h24.597z"/></g><path d="m319.795 484.493h-24.597v-22.013h24.597z" fill="#bfefed"/><path d="m295.199 66.2001h-24.614v-22.0129h24.614z" fill="#6ae8e3"/><path d="m295.199 88.2135h-24.614v-22.0131h24.614z" fill="#6ae8e3"/><path d="m295.199 110.242h-24.614v-22.0285h24.614z" fill="#6ae8e3"/><path d="m295.199 132.255h-24.614v-22.013h24.614z" fill="#6ae8e3"/><path d="m295.199 154.268h-24.614v-22.013h24.614z" fill="#6ae8e3"/><path d="m295.199 176.281h-24.614v-22.013h24.614z" fill="#6ae8e3"/><path d="m295.199 198.293h-24.614v-22.013h24.614z" fill="#6ae8e3"/><path d="m295.199 220.306h-24.614v-22.013h24.614z" fill="#6ae8e3"/><path d="m295.199 242.335h-24.614v-22.028h24.614z" fill="#6ae8e3"/><path d="m295.199 264.348h-24.614v-22.013h24.614z" fill="#6ae8e3"/><path d="m295.199 286.361h-24.614v-22.013h24.614z" fill="#6ae8e3"/><path d="m295.199 308.374h-24.614v-22.013h24.614z" fill="#6ae8e3"/><path d="m295.199 330.387h-24.614v-22.013h24.614z" fill="#6ae8e3"/><path d="m295.199 352.4h-24.614v-22.013h24.614z" fill="#6ae8e3"/><path d="m295.199 374.428h-24.614v-22.028h24.614z" fill="#6ae8e3"/><path d="m295.199 396.441h-24.614v-22.013h24.614z" fill="#6ae8e3"/><path d="m270.585 66.2001h-24.597v-22.0129h24.597z" fill="#6ae8e3"/><path d="m270.585 88.2135h-24.597v-22.0131h24.597z" fill="#6ae8e3"/><path d="m270.585 110.242h-24.597v-22.0285h24.597z" fill="#6ae8e3"/><path d="m270.585 132.255h-24.597v-22.013h24.597z" fill="#6ae8e3"/><path d="m270.585 154.268h-24.597v-22.013h24.597z" fill="#6ae8e3"/><path d="m270.585 176.281h-24.597v-22.013h24.597z" fill="#6ae8e3"/><path d="m270.585 198.293h-24.597v-22.013h24.597z" fill="#6ae8e3"/><path d="m270.585 220.306h-24.597v-22.013h24.597z" fill="#6ae8e3"/><path d="m270.585 242.335h-24.597v-22.028h24.597z" fill="#6ae8e3"/><path d="m270.585 264.348h-24.597v-22.013h24.597z" fill="#6ae8e3"/><path d="m270.585 286.361h-24.597v-22.013h24.597z" fill="#6ae8e3"/><path d="m270.585 308.374h-24.597v-22.013h24.597z" fill="#6ae8e3"/><path d="m270.585 330.387h-24.597v-22.013h24.597z" fill="#6ae8e3"/><path d="m270.585 352.4h-24.597v-22.013h24.597z" fill="#6ae8e3"/><path d="m270.585 374.428h-24.597v-22.028h24.597z" fill="#6ae8e3"/><path d="m270.585 396.441h-24.597v-22.013h24.597z" fill="#bfefed"/><path d="m270.585 440.468h-24.597v-22.013h24.597z" fill="#bfefed"/><path d="m245.988 44.1873h-24.597v-22.0131h24.597z" fill="#6ae8e3"/><path d="m245.988 66.2001h-24.597v-22.0129h24.597z" fill="#6ae8e3"/><path d="m245.988 88.2135h-24.597v-22.0131h24.597z" fill="#6ae8e3"/><path d="m245.988 110.242h-24.597v-22.0285h24.597z" fill="#6ae8e3"/><path d="m245.988 132.255h-24.597v-22.013h24.597z" fill="#6ae8e3"/><path d="m245.988 154.268h-24.597v-22.013h24.597z" fill="#6ae8e3"/><path d="m245.988 176.281h-24.597v-22.013h24.597z" fill="#6ae8e3"/><path d="m245.988 198.293h-24.597v-22.013h24.597z" fill="#6ae8e3"/><path d="m245.988 220.306h-24.597v-22.013h24.597z" fill="#6ae8e3"/><path d="m245.988 242.335h-24.597v-22.028h24.597z" fill="#6ae8e3"/><path d="m245.988 264.348h-24.597v-22.013h24.597z" fill="#6ae8e3"/><path d="m245.988 286.361h-24.597v-22.013h24.597z" fill="#6ae8e3"/><path d="m245.988 308.374h-24.597v-22.013h24.597z" fill="#6ae8e3"/><path d="m245.988 330.387h-24.597v-22.013h24.597z" fill="#6ae8e3"/><path d="m245.988 352.4h-24.597v-22.013h24.597z" fill="#6ae8e3"/><path d="m245.988 374.428h-24.597v-22.028h24.597z" fill="#6ae8e3"/><path d="m245.988 396.441h-24.597v-22.013h24.597z" fill="#6ae8e3"/><path d="m245.988 418.455h-24.597v-22.013h24.597z" fill="#6ae8e3"/><path d="m245.988 440.468h-24.597v-22.013h24.597z" fill="#6ae8e3"/><path d="m221.39 66.2001h-24.597v-22.0129h24.597z" fill="#6ae8e3"/><path d="m221.39 88.2135h-24.597v-22.0131h24.597z" fill="#6ae8e3"/><path d="m221.39 110.242h-24.597v-22.0285h24.597z" fill="#bfefed"/><path d="m221.39 132.255h-24.597v-22.013h24.597z" fill="#bfefed"/><path d="m221.39 154.268h-24.597v-22.013h24.597z" fill="#6ae8e3"/><path d="m221.39 176.281h-24.597v-22.013h24.597z" fill="#6ae8e3"/><path d="m221.39 198.293h-24.597v-22.013h24.597z" fill="#6ae8e3"/><path d="m221.39 220.306h-24.597v-22.013h24.597z" fill="#6ae8e3"/><path d="m221.39 242.335h-24.597v-22.028h24.597z" fill="#bfefed"/><path d="m221.39 264.348h-24.597v-22.013h24.597z" fill="#bfefed"/><path d="m221.39 286.361h-24.597v-22.013h24.597z" fill="#bfefed"/><path d="m221.39 308.374h-24.597v-22.013h24.597z" fill="#6ae8e3"/><path d="m221.39 330.387h-24.597v-22.013h24.597z" fill="#6ae8e3"/><path d="m221.39 352.4h-24.597v-22.013h24.597z" fill="#6ae8e3"/><path d="m221.39 374.428h-24.597v-22.028h24.597z" fill="#6ae8e3"/><path d="m221.39 396.441h-24.597v-22.013h24.597z" fill="#6ae8e3"/><path d="m221.39 418.455h-24.597v-22.013h24.597z" fill="#6ae8e3"/><path d="m221.39 440.468h-24.597v-22.013h24.597z" fill="#6ae8e3"/><path d="m221.39 484.493h-24.597v-22.013h24.597z" fill="#bfefed"/><path d="m196.794 44.1873h-24.597v-22.0131h24.597z" fill="#bfefed"/><path d="m196.794 66.2001h-24.597v-22.0129h24.597z" fill="#6ae8e3"/><path d="m196.794 88.2135h-24.597v-22.0131h24.597z" fill="#6ae8e3"/><path d="m196.794 110.242h-24.597v-22.0285h24.597z" fill="#6ae8e3"/><path d="m196.794 132.255h-24.597v-22.013h24.597z" fill="#6ae8e3"/><path d="m196.794 154.268h-24.597v-22.013h24.597z" fill="#bfefed"/><path d="m196.794 176.281h-24.597v-22.013h24.597z" fill="#6ae8e3"/><path d="m196.794 198.293h-24.597v-22.013h24.597z" fill="#6ae8e3"/><path d="m196.794 220.306h-24.597v-22.013h24.597z" fill="#6ae8e3"/><path d="m196.794 242.335h-24.597v-22.028h24.597z" fill="#6ae8e3"/><path d="m196.794 264.348h-24.597v-22.013h24.597z" fill="#6ae8e3"/><path d="m196.794 286.361h-24.597v-22.013h24.597z" fill="#6ae8e3"/><path d="m196.794 308.374h-24.597v-22.013h24.597z" fill="#6ae8e3"/><path d="m196.794 330.387h-24.597v-22.013h24.597z" fill="#6ae8e3"/><path d="m196.794 352.4h-24.597v-22.013h24.597z" fill="#6ae8e3"/><path d="m196.794 374.428h-24.597v-22.028h24.597z" fill="#6ae8e3"/><path d="m196.794 396.441h-24.597v-22.013h24.597z" fill="#bfefed"/><path d="m196.794 418.455h-24.597v-22.013h24.597z" fill="#6ae8e3"/><path d="m196.794 440.468h-24.597v-22.013h24.597z" fill="#bfefed"/><path d="m172.196 22.1744h-24.597v-22.013023h24.597z" fill="#6ae8e3"/><path d="m172.196 44.1873h-24.597v-22.0131h24.597z" fill="#bfefed"/><path d="m172.196 66.2001h-24.597v-22.0129h24.597z" fill="#bfefed"/><path d="m172.196 88.2135h-24.597v-22.0131h24.597z" fill="#6ae8e3"/><path d="m172.196 110.242h-24.597v-22.0285h24.597z" fill="#6ae8e3"/><path d="m172.196 132.255h-24.597v-22.013h24.597z" fill="#6ae8e3"/><path d="m172.196 154.268h-24.597v-22.013h24.597z" fill="#6ae8e3"/><path d="m172.196 176.281h-24.597v-22.013h24.597z" fill="#6ae8e3"/><path d="m172.196 198.293h-24.597v-22.013h24.597z" fill="#6ae8e3"/><path d="m172.196 220.306h-24.597v-22.013h24.597z" fill="#6ae8e3"/><path d="m172.196 242.335h-24.597v-22.028h24.597z" fill="#6ae8e3"/><path d="m172.196 264.348h-24.597v-22.013h24.597z" fill="#6ae8e3"/><path d="m172.196 286.361h-24.597v-22.013h24.597z" fill="#6ae8e3"/><path d="m172.196 308.374h-24.597v-22.013h24.597z" fill="#6ae8e3"/><path d="m172.196 330.387h-24.597v-22.013h24.597z" fill="#6ae8e3"/><path d="m172.196 352.4h-24.597v-22.013h24.597z" fill="#6ae8e3"/><path d="m172.196 374.428h-24.597v-22.028h24.597z" fill="#6ae8e3"/><path d="m172.196 396.441h-24.597v-22.013h24.597z" fill="#6ae8e3"/><path d="m172.196 418.455h-24.597v-22.013h24.597z" fill="#6ae8e3"/><path d="m147.599 44.1873h-24.614v-22.0131h24.614z" fill="#6ae8e3"/><path d="m147.599 66.2001h-24.614v-22.0129h24.614z" fill="#bfefed"/><path d="m147.599 88.2135h-24.614v-22.0131h24.614z" fill="#6ae8e3"/><path d="m147.599 110.242h-24.614v-22.0285h24.614z" fill="#6ae8e3"/><path d="m147.599 132.255h-24.614v-22.013h24.614z" fill="#6ae8e3"/><path d="m147.599 154.268h-24.614v-22.013h24.614z" fill="#6ae8e3"/><path d="m147.599 176.281h-24.614v-22.013h24.614z" fill="#6ae8e3"/><path d="m147.599 198.293h-24.614v-22.013h24.614z" fill="#6ae8e3"/><path d="m147.599 220.306h-24.614v-22.013h24.614z" fill="#6ae8e3"/><path d="m147.599 242.335h-24.614v-22.028h24.614z" fill="#6ae8e3"/><path d="m147.599 264.348h-24.614v-22.013h24.614z" fill="#6ae8e3"/><path d="m147.599 286.361h-24.614v-22.013h24.614z" fill="#6ae8e3"/><path d="m147.599 308.374h-24.614v-22.013h24.614z" fill="#6ae8e3"/><path d="m147.599 330.387h-24.614v-22.013h24.614z" fill="#bfefed"/><path d="m147.599 352.4h-24.614v-22.013h24.614z" fill="#bfefed"/><path d="m147.599 374.428h-24.614v-22.028h24.614z" fill="#6ae8e3"/><path d="m147.599 396.441h-24.614v-22.013h24.614z" fill="#6ae8e3"/><path d="m147.599 418.455h-24.614v-22.013h24.614z" fill="#6ae8e3"/><path d="m122.985 88.2135h-24.5968v-22.0131h24.5968z" fill="#6ae8e3"/><path d="m122.985 110.242h-24.5968v-22.0285h24.5968z" fill="#6ae8e3"/><path d="m122.985 132.255h-24.5968v-22.013h24.5968z" fill="#6ae8e3"/><path d="m122.985 176.281h-24.5968v-22.013h24.5968z" fill="#6ae8e3"/><path d="m122.985 198.293h-24.5968v-22.013h24.5968z" fill="#6ae8e3"/><path d="m122.985 220.306h-24.5968v-22.013h24.5968z" fill="#bfefed"/><path d="m122.985 242.335h-24.5968v-22.028h24.5968z" fill="#6ae8e3"/><path d="m122.985 264.348h-24.5968v-22.013h24.5968z" fill="#6ae8e3"/><path d="m122.985 286.361h-24.5968v-22.013h24.5968z" fill="#6ae8e3"/><path d="m122.985 308.374h-24.5968v-22.013h24.5968z" fill="#6ae8e3"/><path d="m122.985 330.387h-24.5968v-22.013h24.5968z" fill="#6ae8e3"/><path d="m122.985 352.4h-24.5968v-22.013h24.5968z" fill="#bfefed"/><path d="m122.985 374.428h-24.5968v-22.028h24.5968z" fill="#bfefed"/><path d="m98.3886 88.2135h-24.5971v-22.0131h24.5971z" fill="#6ae8e3"/><path d="m98.3886 198.293h-24.5971v-22.013h24.5971z" fill="#6ae8e3"/><path d="m98.3886 220.306h-24.5971v-22.013h24.5971z" fill="#bfefed"/><path d="m98.3886 242.335h-24.5971v-22.028h24.5971z" fill="#6ae8e3"/><path d="m98.3886 264.348h-24.5971v-22.013h24.5971z" fill="#6ae8e3"/><path d="m98.3886 286.361h-24.5971v-22.013h24.5971z" fill="#6ae8e3"/><path d="m98.3886 308.374h-24.5971v-22.013h24.5971z" fill="#6ae8e3"/><path d="m98.3886 330.387h-24.5971v-22.013h24.5971z" fill="#6ae8e3"/><path d="m98.3886 352.4h-24.5971v-22.013h24.5971z" fill="#6ae8e3"/><path d="m98.3886 374.428h-24.5971v-22.028h24.5971z" fill="#6ae8e3"/><path d="m98.3886 440.468h-24.5971v-22.013h24.5971z" fill="#6ae8e3"/><path d="m73.7919 88.2135h-24.5971v-22.0131h24.5971z" fill="#6ae8e3"/><path d="m73.7919 220.306h-24.5971v-22.013h24.5971z" fill="#6ae8e3"/><path d="m73.7919 242.335h-24.5971v-22.028h24.5971z" fill="#6ae8e3"/><path d="m73.7919 264.348h-24.5971v-22.013h24.5971z" fill="#bfefed"/><path d="m73.7919 286.361h-24.5971v-22.013h24.5971z" fill="#bfefed"/><path d="m73.7919 308.374h-24.5971v-22.013h24.5971z" fill="#6ae8e3"/><path d="m73.7919 330.387h-24.5971v-22.013h24.5971z" fill="#6ae8e3"/><path d="m73.7919 352.4h-24.5971v-22.013h24.5971z" fill="#6ae8e3"/><path d="m49.1942 66.2001h-24.597v-22.0129h24.597z" fill="#6ae8e3"/><path d="m49.1942 88.2135h-24.597v-22.0131h24.597z" fill="#bfefed"/><path d="m49.1942 220.306h-24.597v-22.013h24.597z" fill="#6ae8e3"/><path d="m49.1942 242.335h-24.597v-22.028h24.597z" fill="#6ae8e3"/><path d="m49.1942 264.348h-24.597v-22.013h24.597z" fill="#6ae8e3"/><path d="m49.1942 286.361h-24.597v-22.013h24.597z" fill="#6ae8e3"/></svg>