<svg enable-background="new 0 0 692 406.3" viewBox="0 0 692 406.3" xmlns="http://www.w3.org/2000/svg"><path d="m1.7 6h30v3.7h35.6v-3.7h33.7l4 3.7 3.7-5.4h46.6l6 2.7 2.4-4.7h125l4 7.4 3.3-7.4 69.3-2.3 3.4 4.8 2.6-4.8 94.4 1.7 5.3 3.1 2-4.8 63 2 4.7 3 2.6-2 5.4 2.7 3-4.4h3.6l2.4 6 6-5 52.3-.6.7 4.3h34l.6-5.7 39.7 2.4 1 397.3-148.7.3-3.6-5-2.4 4-6-1.3-2.3 3-2.7-3-48.3 5.7-9.3-6-10 5.3-2.4-3-9 4-118.3 1 .3-7.3-7.3 6-84.3-1.4-3.4-6.6-4 6.6-40.3 3-4.3-5.3-2 4.3-6-2.3-3 2.7-107.4-1-6-5.4-2 5.4-5-.4-1 3-4.3-5-3.3 3-45.7-.6z" fill="#0ff"/></svg>