<svg width="40" height="40" viewBox="0 0 40 40" fill="none" xmlns="http://www.w3.org/2000/svg">
<g id="Group">
<g id="Group_2">
<g id="Group_3">
<path id="Vector" d="M38.3264 24.9983H36.6601V4.86915L27.512 1.71981L16.9642 5.7773C16.7725 5.85228 16.5559 5.85228 16.3643 5.7773L6.66632 2.04474V19.991H5V0.836658C5 0.561715 5.13331 0.303436 5.35826 0.153467C5.58321 0.00349804 5.87482 -0.0381599 6.12476 0.0618192L16.6559 4.11098L27.1954 0.0618192C27.3787 -0.00483356 27.5786 -0.0131652 27.7619 0.0534876L37.7598 3.49444C38.0931 3.61108 38.3181 3.92768 38.3181 4.28594V25.0066L38.3264 24.9983Z" fill="#4799A9"/>
<path id="Vector_2" d="M17.4974 5.0025H15.8311V23.332H17.4974V5.0025Z" fill="#4799A9"/>
<path id="Vector_3" d="M28.3284 0.83667H26.6621V23.332H28.3284V0.83667Z" fill="#4799A9"/>
<path id="Vector_4" d="M36.9516 22.1156L32.2859 18.1164L26.7787 16.7417L21.2549 12.0843L23.846 6.26052L29.5198 5.55233L32.5775 2.27802L33.7939 3.41111L30.328 7.13534L24.9874 7.80186L23.2878 11.6177L27.5619 15.217L33.0691 16.5917L38.0347 20.8491L36.9516 22.1156Z" fill="#4799A9"/>
<path id="Vector_5" d="M9.03259 19.0246L5.67495 18.358L5.99156 16.7167L8.0328 17.125L9.31587 14.1839L11.6237 12.9675L11.2655 11.3595L8.33274 8.42676L6.03321 9.00164L5.6333 7.38531L8.84096 6.57715L12.7901 10.5263L13.5233 13.8506L10.6073 15.3836L9.03259 19.0246Z" fill="#4799A9"/>
</g>
</g>
<g id="Group_4">
<path id="Vector_6" d="M16.6639 34.163H11.665C8.2407 34.163 5.51626 32.9466 3.83328 31.9218C3.28339 31.5886 2.89181 31.072 2.71685 30.4638L2.17529 28.5642L3.77496 28.106L4.31651 30.0056C4.37483 30.2055 4.50814 30.3805 4.69977 30.4971C6.19945 31.4136 8.63228 32.4967 11.665 32.4967H16.6639V34.163Z" fill="#4799A9"/>
<path id="Vector_7" d="M33.6105 34.163H24.1625C24.0542 34.163 23.9459 34.138 23.8459 34.0964L23.2794 33.8631L23.9209 32.3217L24.3375 32.4967H33.6189C34.6687 32.4967 35.7101 32.3134 36.7016 31.9635L37.7847 31.5802C38.0846 31.4719 38.2929 31.222 38.3262 30.897C38.3679 30.5804 38.2262 30.2805 37.9596 30.0972L36.9765 29.439C36.7016 29.2557 36.4516 29.0474 36.1933 28.8308C35.3685 28.1476 34.5853 27.4977 32.4941 27.4977H8.34081C8.19084 27.4977 8.0492 27.4561 7.9159 27.3811C5.0165 25.6731 3.06691 22.7654 2.40038 21.6656H1.94214L3.21688 26.1314L1.61721 26.5896L0.0342077 21.0574C-0.0407767 20.8075 0.00920958 20.5325 0.16751 20.3242C0.32581 20.1159 0.567429 19.991 0.83404 19.991H2.87528C3.18355 19.991 3.46683 20.1576 3.60846 20.4325C3.62513 20.4659 5.53306 23.9485 8.56576 25.8231H32.4858C35.1769 25.8231 36.3266 26.7729 37.2515 27.5394C37.4681 27.7144 37.6764 27.8893 37.9013 28.0476L38.8844 28.7058C39.6759 29.2307 40.0925 30.1472 39.9759 31.097C39.8592 32.0385 39.2344 32.8216 38.3346 33.1466L37.2515 33.5298C36.0767 33.9464 34.8519 34.163 33.6105 34.163Z" fill="#4799A9"/>
<path id="Vector_8" d="M13.9561 39.9952H11.3566C11.0317 39.9952 10.7317 39.8035 10.5984 39.5036C10.4651 39.2037 10.5151 38.8537 10.7317 38.6121L18.1552 30.2639L19.4049 31.372L13.2146 38.3372H13.9561C14.2727 38.3372 14.5893 38.2455 14.8559 38.0706L27.2533 30.0972L28.1531 31.4969L15.7557 39.4703C15.2141 39.8202 14.5976 40.0035 13.9561 40.0035V39.9952Z" fill="#4799A9"/>
<path id="Vector_9" d="M5.8331 27.4978H0.000976562V29.1641H5.8331V27.4978Z" fill="#4799A9"/>
</g>
</g>
</svg>
