<svg width="70" height="70" viewBox="0 0 70 70" fill="none" xmlns="http://www.w3.org/2000/svg">
<g id="flight" clip-path="url(#clip0_21_3758)">
<path id="Vector" d="M25.7206 54.0578C26.4274 53.3212 27.378 52.7281 28.1525 52.0538C29.122 51.2143 30.0672 50.3477 30.9933 49.4621C32.1226 48.3843 33.2113 47.2685 34.3135 46.1636C34.9147 45.5597 35.524 44.9639 36.128 44.3654C39.2288 41.289 42.3296 38.2152 45.4304 35.1388C51.6402 28.9805 57.8743 22.8492 64.057 16.6611C67.8213 12.8941 69.4895 7.8326 69.6222 2.57881C69.7089 -0.928232 65.8227 0.0494063 63.6697 0.390632C59.8134 0.999963 56.2115 2.78192 53.5088 5.62547C48.2848 11.1203 43.3479 16.9238 38.2809 22.5622C32.7726 28.6907 27.1099 34.719 21.7423 40.9721C20.2176 42.7459 18.7634 44.5793 17.4174 46.494C16.8135 47.3525 18.2217 48.1649 18.8202 47.3146C21.5176 43.4771 24.7294 40.0703 27.8573 36.5876L36.1361 27.3745C42.0046 20.8425 47.8759 14.3105 53.7444 7.77844C54.6787 6.74122 55.6266 5.74733 56.764 4.91593C59.6265 2.82254 62.8248 2.15363 66.2344 1.62825C66.9493 1.51722 67.7049 1.30057 67.9432 2.2755C68.0515 2.71963 67.9269 3.21522 67.8809 3.66206C67.7401 5.01884 67.6426 6.38916 67.3257 7.71886C66.6406 10.6084 65.1646 13.2353 63.0767 15.3423C57.4925 20.9833 51.8027 26.5269 46.167 32.1165C40.6208 37.6194 35.1828 43.274 29.5011 48.6388C28.6833 49.4107 27.8519 50.1689 27.0015 50.9056C26.227 51.5772 25.2737 52.173 24.5696 52.9096C23.8655 53.6462 24.9921 54.8134 25.7179 54.0578H25.7206Z" fill="#4799A9"/>
<path id="Vector_2" d="M18.3357 46.1204C14.7826 45.5489 11.2296 44.9802 7.67378 44.4088C7.2811 44.3465 6.98592 44.4603 6.75572 44.7825C5.84579 46.0527 4.93586 47.3201 4.02321 48.5902C3.77677 48.9368 3.9528 49.5137 4.31569 49.7005C8.35082 51.8074 12.3832 53.9171 16.4184 56.024C17.3446 56.5088 18.1678 55.106 17.2389 54.6212C13.2065 52.5143 9.17139 50.4046 5.13626 48.2977L5.42874 49.408C6.33867 48.1379 7.24861 46.8705 8.16125 45.6004L7.24319 45.9741C10.7963 46.5455 14.3493 47.1142 17.9051 47.6857C18.9288 47.8509 19.3675 46.2856 18.3384 46.1176L18.3357 46.1204Z" fill="#4799A9"/>
<path id="Vector_3" d="M24.5722 52.9069C24.1335 53.3619 24.4612 54.1635 24.5722 54.697L25.3549 58.3909C25.7774 60.3922 26.2025 62.3963 26.625 64.3976L26.8335 63.6068C25.6122 64.579 24.3881 65.5512 23.1667 66.5235L24.4422 66.6887C22.1376 62.7646 19.833 58.8378 17.5284 54.9137C17.0003 54.0119 15.5948 54.8297 16.1256 55.7342C18.4302 59.661 20.7348 63.5851 23.0394 67.5092C23.3292 68.0021 23.9115 67.994 24.315 67.6744C25.5363 66.7022 26.7604 65.73 27.9818 64.7578C28.212 64.5763 28.2472 64.2297 28.1903 63.967C27.4347 60.4004 26.6819 56.8337 25.9263 53.2671L25.7178 54.0579C26.4436 53.3023 25.2953 52.1514 24.5695 52.9069H24.5722Z" fill="#4799A9"/>
<path id="Vector_4" d="M48.6372 11.4399C44.6183 11.4778 40.5967 11.5157 36.5778 11.5536L37.1519 12.9402C37.8615 12.1955 38.5683 11.4507 39.2778 10.706C39.5757 10.3945 39.6028 9.86645 39.2778 9.55772C38.2866 8.61529 37.2982 7.67286 36.307 6.73043C35.9956 6.43253 35.4675 6.40545 35.1587 6.73043C33.6557 8.30927 31.9198 9.815 30.5847 11.5347C30.5603 11.5672 30.3139 11.7703 30.3247 11.8082C30.2868 11.6592 31.0532 11.7703 30.7093 11.6078C30.3653 11.4453 29.4554 11.6186 29.0573 11.624C27.9253 11.6349 26.7933 11.6457 25.6586 11.6565L26.2327 13.0431C27.0018 12.2334 27.7736 11.4236 28.5428 10.6139C28.8407 10.3025 28.8677 9.77438 28.5428 9.46565C27.5516 8.52322 26.5631 7.58078 25.5719 6.63835C25.2605 6.34046 24.7324 6.31337 24.4237 6.63835C22.9261 8.21178 21.4285 9.7825 19.9336 11.3559C19.9038 11.3884 19.3622 11.903 19.3784 11.9382C19.2295 11.6403 20.4238 11.7784 19.4488 11.7134C18.4739 11.6484 17.3852 11.7324 16.3697 11.7432L8.40232 11.819C7.89048 11.8244 7.28928 11.7378 6.78286 11.8353C6.05166 11.9734 5.64544 12.7696 5.2013 13.3166C3.66579 15.2123 2.13027 17.1107 0.594756 19.0064C0.237281 19.4479 0.302277 20.2197 0.95223 20.3632C5.45316 21.3598 9.95138 22.3591 14.4523 23.3557L22.0297 25.0347C22.314 25.097 22.6011 25.1783 22.8909 25.2243C22.9938 25.2406 23.484 25.3949 23.0615 25.2243C23.8279 25.5303 24.5672 26.0557 25.2903 26.4538C27.6843 27.7754 30.081 29.0942 32.475 30.4158C33.3903 30.9222 34.2109 29.5194 33.2955 29.013C31.1859 27.8485 29.0763 26.6867 26.9666 25.5222C25.7209 24.8343 24.4778 23.9136 23.075 23.6021C17.7075 22.4133 12.34 21.2217 6.97513 20.0328C5.11193 19.6212 3.25144 19.2068 1.38824 18.7952L1.74572 20.152C3.08895 18.4919 4.43219 16.8318 5.77814 15.1717C5.91896 14.9957 7.42468 13.3979 7.34344 13.2381C7.51676 13.5874 6.32247 13.3735 7.17554 13.452C7.57634 13.4899 8.00423 13.4439 8.40503 13.4412L16.3724 13.3654C17.5721 13.3545 19.7332 13.7851 20.6919 12.9131C22.4251 11.3397 23.9606 9.47919 25.5746 7.78389H24.4264C25.4176 8.72633 26.406 9.66876 27.3972 10.6112V9.46294C26.6281 10.2727 25.8563 11.0824 25.0872 11.8921C24.6105 12.3931 24.9436 13.2868 25.6613 13.2787C26.8366 13.2679 28.012 13.257 29.1873 13.2462C30.0295 13.2381 30.9151 13.4141 31.5759 12.8481C33.2874 11.3884 34.7552 9.50627 36.3097 7.87597H35.1615C36.1526 8.8184 37.1411 9.76084 38.1323 10.7033V9.55502C37.4227 10.2998 36.7159 11.0445 36.0064 11.7892C35.5298 12.2902 35.8629 13.1839 36.5805 13.1758C40.5994 13.1379 44.621 13.1 48.6399 13.0621C49.6852 13.0512 49.6879 11.4263 48.6399 11.4372L48.6372 11.4399Z" fill="#4799A9"/>
<path id="Vector_5" d="M57.4707 21.4329C57.6305 25.4491 57.793 29.4679 57.9528 33.4841C57.9799 34.1639 58.8356 34.589 59.3394 34.0582L61.4652 31.824H60.317C61.3082 32.7665 62.2966 33.7089 63.2878 34.6513V33.5031C61.7252 35.1442 59.9812 36.7149 58.554 38.4752C58.0097 39.1468 58.2074 39.9105 58.2426 40.7473L58.3888 44.3952C58.4159 45.0749 59.2717 45.5001 59.7754 44.9693C60.5445 44.1596 61.3163 43.3499 62.0854 42.5401H60.9372C61.9283 43.4826 62.9168 44.425 63.908 45.3674V44.2192C62.4104 45.7926 60.9128 47.3633 59.4179 48.9368C59.0144 49.3592 58.6677 49.6409 58.6217 50.2475C58.5621 51.0572 58.6894 51.9293 58.7219 52.7417C58.8302 55.439 58.9386 58.1363 59.0442 60.8336C59.0658 61.3536 58.8573 62.6914 59.1362 63.1409C59.3285 63.4497 59.2256 62.5885 59.3719 62.6887C59.3664 62.686 59.1931 62.8485 59.1931 62.8485C58.8384 63.0164 58.4755 63.4903 58.1857 63.7503C56.3685 65.3779 54.5487 67.0055 52.7315 68.6303L54.0883 68.9878C52.8452 64.4571 51.6049 59.9264 50.3619 55.3984C49.6903 52.9475 49.0186 50.4966 48.347 48.0458C47.995 46.7621 47.3965 45.8468 46.6896 44.6985C45.2327 42.3397 43.7757 39.9782 42.3187 37.6194C41.7689 36.7312 40.3634 37.5463 40.9159 38.44C42.1589 40.4549 43.402 42.467 44.645 44.4819C45.2408 45.446 45.8339 46.4155 46.4324 47.3769C46.6436 47.7154 46.4811 47.4067 46.5028 47.4662C46.5786 47.6666 46.6192 47.8887 46.6761 48.0972C48.1304 53.4052 49.5873 58.7131 51.0416 64.0211C51.5345 65.822 52.0301 67.6229 52.523 69.4238C52.6909 70.0386 53.4329 70.1821 53.8797 69.7813C55.4721 68.3568 57.0618 66.9323 58.6542 65.5106C59.2364 64.9906 60.0353 64.4734 60.5093 63.8505C60.8667 63.382 60.7503 62.8701 60.7286 62.3096L60.4253 54.6834L60.2872 51.2089C60.2791 50.9733 60.3549 50.4966 60.2493 50.2827C60.2412 50.2637 60.2601 50.1202 60.2439 50.1121C60.4984 50.2015 59.6481 50.8135 60.1762 50.4994C60.5851 50.2583 60.9642 49.6707 61.2892 49.3294L62.9006 47.6368C63.6209 46.8813 64.3386 46.1257 65.0589 45.3701C65.3568 45.0587 65.3839 44.5306 65.0589 44.2219C64.0678 43.2795 63.0793 42.337 62.0881 41.3946C61.7767 41.0967 61.2486 41.0696 60.9399 41.3946C60.1708 42.2043 59.3989 43.0141 58.6298 43.8238L60.0164 44.3979L59.8864 41.1319C59.8674 40.6363 59.9785 39.878 59.8187 39.4095C59.6481 38.9112 59.8025 39.8455 59.5939 39.748C59.6102 39.7562 59.8593 39.4664 59.8674 39.461C61.5086 38.0202 62.9331 36.2383 64.4415 34.6567C64.7394 34.3453 64.7665 33.8172 64.4415 33.5085C63.4503 32.5661 62.4618 31.6236 61.4707 30.6812C61.1592 30.3833 60.6311 30.3562 60.3224 30.6812L58.1965 32.9154L59.5831 33.4895C59.4233 29.4734 59.2608 25.4545 59.101 21.4383C59.0604 20.3957 57.4355 20.3903 57.4762 21.4383L57.4707 21.4329Z" fill="#4799A9"/>
<path id="Vector_6" d="M7.3972 29.8552C8.33964 28.8641 9.28207 27.8756 10.2245 26.8844C10.9449 26.1261 9.79932 24.9752 9.07625 25.7362C8.13382 26.7273 7.19139 27.7158 6.24895 28.707C5.52859 29.4653 6.67413 30.6162 7.3972 29.8552Z" fill="#4799A9"/>
<path id="Vector_7" d="M11.8171 36.5795C14.0243 34.2613 16.2314 31.9432 18.4385 29.625C19.1589 28.8667 18.0134 27.7158 17.2903 28.4768C15.0831 30.7949 12.876 33.1131 10.6689 35.4313C9.94851 36.1895 11.0941 37.3405 11.8171 36.5795Z" fill="#4799A9"/>
<path id="Vector_8" d="M43.9084 64.6088C44.8509 63.6176 45.7933 62.6291 46.7357 61.6379C47.4561 60.8797 46.3106 59.7287 45.5875 60.4897C44.6451 61.4809 43.7026 62.4693 42.7602 63.4605C42.0398 64.2188 43.1854 65.3698 43.9084 64.6088Z" fill="#4799A9"/>
<path id="Vector_9" d="M36.9758 60.5276C39.183 58.2095 41.3901 55.8913 43.5972 53.5731C44.3176 52.8148 43.172 51.6639 42.449 52.4249C40.2418 54.743 38.0347 57.0612 35.8276 59.3794C35.1072 60.1377 36.2527 61.2886 36.9758 60.5276Z" fill="#4799A9"/>
<path id="Vector_10" d="M57.2326 8.86449C58.5271 10.0967 59.8243 11.3316 61.1188 12.5638C61.8771 13.2842 63.028 12.1386 62.267 11.4156C60.9726 10.1834 59.6754 8.94844 58.3809 7.71624C57.6226 6.99587 56.4716 8.14142 57.2326 8.86449Z" fill="#4799A9"/>
</g>
<defs>
<clipPath id="clip0_21_3758">
<rect width="69.2444" height="70" fill="white" transform="translate(0.37793 0.00341797)"/>
</clipPath>
</defs>
</svg>
