<svg width="40" height="40" viewBox="0 0 40 40" fill="none" xmlns="http://www.w3.org/2000/svg">
<g id="Group">
<g id="Group_2">
<path id="Vector" d="M13.5938 18.8058L12.5156 20.0763L14.1545 21.4672L15.2327 20.1967L13.5938 18.8058Z" fill="#4799A9"/>
<path id="Vector_2" d="M10.8318 17.4998C10.8318 17.4998 10.7568 17.4998 10.7235 17.4998C10.4985 17.4665 10.2986 17.3498 10.1653 17.1665L7.59912 13.6673L8.94051 12.6841L10.9984 15.4836L11.1317 15.3753C11.3233 15.2253 11.5733 15.1586 11.8066 15.2086L13.2146 15.4919L14.356 15.6335L14.7643 15.1586L14.9976 14.0505C15.0559 13.7673 15.2559 13.534 15.5308 13.4423L16.7389 13.0007L17.1888 12.3426L17.2804 11.5261C17.3138 11.2511 17.4721 11.0178 17.7137 10.8845L18.3552 10.5429C18.4219 10.5013 18.5052 10.4763 18.5802 10.4596L19.1384 10.343L18.7718 9.89306L18.4969 9.80142L17.922 10.0514L17.0971 10.6096C16.8972 10.7429 16.6389 10.7845 16.4056 10.7179C16.1723 10.6512 15.9724 10.4846 15.8724 10.2597L15.1725 8.73497C15.0892 8.54334 15.0726 8.33505 15.1392 8.1351L15.4475 7.1603C15.4725 7.06865 15.5225 6.98534 15.5808 6.91035L16.4973 5.70227L15.9141 5.0774C15.7891 4.94409 15.7141 4.76913 15.6891 4.58584L15.4808 2.48627L17.1388 2.31964L17.3221 4.13593L18.1969 5.06074C18.4719 5.36067 18.4969 5.81058 18.2552 6.13551L16.9972 7.7935L16.8305 8.31839L16.9888 8.65999L17.0638 8.61C17.1055 8.585 17.1555 8.56001 17.1971 8.53501L18.1386 8.12676C18.3302 8.04345 18.5385 8.03512 18.7385 8.10177L19.5466 8.37671C19.6966 8.4267 19.8299 8.51835 19.9299 8.64332L20.6214 9.50148L21.3546 10.2846C21.5629 10.5096 21.6295 10.8179 21.5379 11.1095C21.4462 11.4011 21.2046 11.6094 20.913 11.6677L19.0467 12.0509L18.8968 12.1259L18.8301 12.7175C18.8135 12.8508 18.7635 12.9841 18.6885 13.1007L17.9636 14.1422C17.8636 14.2838 17.722 14.3921 17.5637 14.4504L16.5389 14.8254L16.3556 15.6919C16.3306 15.8335 16.264 15.9585 16.1723 16.0668L15.3308 17.0499C15.1475 17.2582 14.8726 17.3665 14.5977 17.3332L12.9563 17.1249L11.8649 16.9083L11.3567 17.3082C11.2067 17.4248 11.0234 17.4915 10.8401 17.4915L10.8318 17.4998Z" fill="#4799A9"/>
<path id="Vector_3" d="M21.8046 23.7735L21.3047 22.9654L20.1049 22.8821C19.9633 22.8737 19.83 22.8237 19.705 22.7488L17.6888 21.4324L16.6057 21.3241C16.4307 21.3074 16.2724 21.2324 16.1391 21.1241L15.8475 20.8658L15.4226 21.2824L14.931 23.057V23.3653L13.2563 23.3153V22.9154C13.273 22.8487 13.2813 22.7904 13.298 22.7321L13.8895 20.6159C13.9312 20.4826 14.0062 20.3576 14.1062 20.2576L15.2309 19.1412C15.5392 18.8329 16.0391 18.8162 16.364 19.1079L17.0389 19.6994L18.0553 19.7994C18.1887 19.816 18.3136 19.8577 18.4303 19.9327L20.4299 21.2407L21.8379 21.3407C22.1045 21.3574 22.3461 21.5074 22.4878 21.7323L23.2126 22.9071L21.7962 23.7819L21.8046 23.7735Z" fill="#4799A9"/>
<path id="Vector_4" d="M36.5681 24.0401L35.1434 23.1737C36.4848 20.9658 37.193 18.4246 37.193 15.8335C37.193 8.02681 30.836 1.6698 23.0293 1.6698C15.2226 1.6698 8.85724 8.02681 8.85724 15.8335C8.85724 18.3663 9.5321 20.8408 10.8068 23.007L9.3738 23.8568C7.94909 21.4323 7.19092 18.6579 7.19092 15.8335C7.19092 7.102 14.2978 0.003479 23.021 0.003479C31.7441 0.003479 38.851 7.102 38.851 15.8335C38.851 18.7329 38.0595 21.574 36.5598 24.0401H36.5681Z" fill="#4799A9"/>
<path id="Vector_5" d="M33.7688 21.6823C33.6771 21.6823 33.5855 21.6656 33.4938 21.6323L31.9441 21.0824C31.6942 20.9908 31.4942 20.7908 31.4193 20.5325L31.1027 19.4578L29.3447 18.1247L27.5451 16.5667C27.3784 16.4251 27.2784 16.2168 27.2618 16.0002L27.1118 14.0172C27.1118 13.9756 27.1118 13.9339 27.1118 13.8839L27.2618 11.9927C27.2868 11.726 27.4284 11.4844 27.6617 11.3511L30.6944 9.50984C30.861 9.40986 31.061 9.36821 31.261 9.40153L32.8606 9.65981L34.4936 9.37654L35.71 8.21844L36.8598 9.42653L35.4601 10.7596C35.3434 10.8762 35.1935 10.9512 35.0268 10.9762L33.0106 11.3261C32.9189 11.3428 32.8273 11.3428 32.7356 11.3261L31.3026 11.0928L28.8948 12.5509L28.7781 13.9506L28.9031 15.5253L30.3945 16.825L32.3274 18.283C32.469 18.3913 32.5773 18.5413 32.6273 18.7163L32.8939 19.6411L33.5271 19.866L34.1354 19.2245L34.7352 17.4415C34.8769 17.0083 35.3434 16.775 35.7767 16.9166L38.0345 17.6415L37.5263 19.2245L36.0516 18.7496L35.6517 19.9327C35.61 20.0493 35.5517 20.1493 35.4684 20.2409L34.3603 21.4157C34.202 21.5823 33.9771 21.674 33.7521 21.674L33.7688 21.6823Z" fill="#4799A9"/>
<path id="Vector_6" d="M26.4286 9.59316C26.3286 9.59316 26.237 9.57649 26.1453 9.54317C25.9204 9.45985 25.7454 9.28489 25.6537 9.05993L25.2538 8.04348C25.2122 7.9435 25.1955 7.83519 25.1955 7.72688L25.2288 5.81061C25.2288 5.81061 25.2288 5.75229 25.2288 5.71896L25.3455 4.76916L23.9541 1.23656L25.5038 0.628357L26.9701 4.36091C27.0201 4.49422 27.0368 4.62752 27.0201 4.76916L26.8785 5.8856L26.8452 7.56858L29.7945 5.96058L30.611 3.17783L32.2107 3.6444L31.2942 6.76041C31.2359 6.97703 31.086 7.152 30.8943 7.26031L26.8035 9.49318C26.6785 9.55983 26.5452 9.59316 26.4036 9.59316H26.4286Z" fill="#4799A9"/>
</g>
<g id="Group_3">
<path id="Vector_7" d="M16.6639 34.163H11.665C8.2407 34.163 5.51626 32.9466 3.83328 31.9218C3.2834 31.5886 2.89181 31.072 2.71685 30.4638L2.17529 28.5642L3.77496 28.106L4.31651 30.0056C4.37483 30.2055 4.50814 30.3805 4.69977 30.4971C6.19945 31.4136 8.62395 32.4967 11.665 32.4967H16.6639V34.163Z" fill="#4799A9"/>
<path id="Vector_8" d="M33.6105 34.163H24.1625C24.0542 34.163 23.9459 34.138 23.8459 34.0964L23.2794 33.8631L23.9209 32.3217L24.3375 32.4967H33.6189C34.6687 32.4967 35.7101 32.3134 36.7016 31.9635L37.7847 31.5802C38.0846 31.4719 38.2929 31.222 38.3262 30.897C38.3679 30.5804 38.2263 30.2805 37.9596 30.0972L36.9765 29.439C36.7016 29.2557 36.4516 29.0474 36.1933 28.8308C35.3685 28.1476 34.5853 27.4977 32.4941 27.4977H8.33248C8.18251 27.4977 8.04087 27.4561 7.90757 27.3811C5.00817 25.6731 3.05858 22.7654 2.39205 21.6656H1.93381L3.20855 26.1314L1.60888 26.5896L0.0342069 21.0574C-0.0407774 20.8075 0.00921215 20.5325 0.167513 20.3242C0.325813 20.1159 0.567429 19.991 0.83404 19.991H2.87528C3.18355 19.991 3.46683 20.1576 3.60846 20.4325C3.62513 20.4659 5.53306 23.9485 8.56576 25.8231H32.4858C35.1769 25.8231 36.3266 26.7729 37.2515 27.5394C37.4681 27.7144 37.6764 27.8893 37.9013 28.0476L38.8844 28.7058C39.6759 29.2307 40.0925 30.1472 39.9759 31.097C39.8592 32.0385 39.2344 32.8216 38.3346 33.1466L37.2515 33.5298C36.0767 33.9464 34.852 34.163 33.6105 34.163Z" fill="#4799A9"/>
<path id="Vector_9" d="M13.9561 39.9952H11.3566C11.0317 39.9952 10.7317 39.8035 10.5984 39.5036C10.4651 39.2037 10.5151 38.8537 10.7317 38.6121L18.1552 30.2639L19.4049 31.372L13.2146 38.3372H13.9561C14.2727 38.3372 14.5893 38.2455 14.8559 38.0706L27.2533 30.0972L28.1531 31.4969L15.7557 39.4703C15.2141 39.8202 14.5976 40.0035 13.9561 40.0035V39.9952Z" fill="#4799A9"/>
<path id="Vector_10" d="M5.8331 27.4977H0.000976562V29.1641H5.8331V27.4977Z" fill="#4799A9"/>
</g>
</g>
</svg>
