<svg width="98" height="70" viewBox="0 0 98 70" fill="none" xmlns="http://www.w3.org/2000/svg">
<g id="hotel" clip-path="url(#clip0_21_3769)">
<path id="Vector" d="M66.1648 62.4598H35.3289C34.3537 62.4598 33.3412 62.3851 32.366 62.4598C32.0111 62.486 32.1418 62.811 32.2465 62.2469C32.5939 60.4198 32.2465 58.178 32.2465 56.3248V18.6963C32.2465 13.2749 32.0111 7.7937 32.2465 2.3723C32.2539 2.19669 32.31 2.05097 32.1418 2.21163C31.9177 2.4246 32.3847 2.28636 32.5454 2.31625C33.5579 2.49559 34.7722 2.31625 35.7997 2.31625C39.8611 2.31625 43.9225 2.31625 47.9839 2.31625H64.8122C65.1485 2.31625 65.496 2.3424 65.8285 2.31625C66.2321 2.28636 66.0789 2.41713 65.9481 2.12943C66.0826 2.4246 65.9481 3.11582 65.9481 3.42967V61.7275C65.9481 61.9069 66.0079 62.2244 65.9481 62.4C65.8024 62.8148 66.105 62.4299 65.8622 62.4972C64.4722 62.8746 65.0626 65.0379 66.46 64.6605C68.642 64.0702 68.1899 61.7425 68.1899 59.9864V3.04483C68.1899 2.48065 68.2459 1.88284 68.0255 1.34854C67.5472 0.194019 66.4936 0.0894023 65.4325 0.074457C62.1632 0.0296212 58.8939 0.074457 55.6246 0.074457C50.9318 0.074457 46.2427 0.074457 41.5499 0.074457C38.531 0.074457 35.4672 -0.0862048 32.452 0.074457C30.3185 0.186547 30.0047 1.62129 30.0047 3.37363V11.2909C30.0047 27.6821 30.0047 44.0734 30.0047 60.4609C30.0047 62.1908 29.6759 64.4476 32.0559 64.7016C34.4359 64.9557 36.9206 64.7016 39.282 64.7016C47.6551 64.7016 56.0282 64.7016 64.4013 64.7016H66.1648C67.607 64.7016 67.6108 62.4598 66.1648 62.4598Z" fill="#4799A9"/>
<path id="Vector_2" d="M54.354 62.4598H43.8475L44.9684 63.5807V50.7576L43.8475 51.8785H54.354L53.2331 50.7576V63.5807C53.2331 65.0229 55.4749 65.0266 55.4749 63.5807V50.7576C55.4749 50.1523 54.963 49.6367 54.354 49.6367H43.8475C43.2422 49.6367 42.7266 50.1486 42.7266 50.7576V63.5807C42.7266 64.186 43.2384 64.7016 43.8475 64.7016H54.354C55.7962 64.7016 55.8 62.4598 54.354 62.4598Z" fill="#4799A9"/>
<g id="Group">
<g id="Group_2">
<path id="Vector_3" d="M45.6785 43.681H38.5384L39.6593 44.8019V36.993L38.5384 38.1139H45.6785L44.5576 36.993V44.8019C44.5576 46.2441 46.7994 46.2478 46.7994 44.8019V36.993C46.7994 36.3877 46.2875 35.8721 45.6785 35.8721H38.5384C37.9331 35.8721 37.4175 36.3839 37.4175 36.993V44.8019C37.4175 45.4072 37.9294 45.9228 38.5384 45.9228H45.6785C47.1207 45.9228 47.1244 43.681 45.6785 43.681Z" fill="#4799A9"/>
<path id="Vector_4" d="M45.6785 31.2652H38.5384L39.6593 32.3861V24.5772L38.5384 25.6981H45.6785L44.5576 24.5772V32.3861C44.5576 33.8283 46.7994 33.8321 46.7994 32.3861V24.5772C46.7994 23.9719 46.2875 23.4563 45.6785 23.4563H38.5384C37.9331 23.4563 37.4175 23.9682 37.4175 24.5772V32.3861C37.4175 32.9914 37.9294 33.507 38.5384 33.507H45.6785C47.1207 33.507 47.1244 31.2652 45.6785 31.2652Z" fill="#4799A9"/>
<path id="Vector_5" d="M45.6785 18.8531H38.5384L39.6593 19.974V12.1651L38.5384 13.286H45.6785L44.5576 12.1651V19.974C44.5576 21.4162 46.7994 21.42 46.7994 19.974V12.1651C46.7994 11.5598 46.2875 11.0442 45.6785 11.0442H38.5384C37.9331 11.0442 37.4175 11.5561 37.4175 12.1651V19.974C37.4175 20.5793 37.9294 21.0949 38.5384 21.0949H45.6785C47.1207 21.0949 47.1244 18.8531 45.6785 18.8531Z" fill="#4799A9"/>
</g>
<g id="Group_3">
<path id="Vector_6" d="M59.6599 43.681H52.5198L53.6407 44.8019V36.993L52.5198 38.1139H59.6599L58.539 36.993V44.8019C58.539 46.2441 60.7808 46.2478 60.7808 44.8019V36.993C60.7808 36.3877 60.269 35.8721 59.6599 35.8721H52.5198C51.9145 35.8721 51.3989 36.3839 51.3989 36.993V44.8019C51.3989 45.4072 51.9108 45.9228 52.5198 45.9228H59.6599C61.1022 45.9228 61.1059 43.681 59.6599 43.681Z" fill="#4799A9"/>
<path id="Vector_7" d="M59.6599 31.2652H52.5198L53.6407 32.3861V24.5772L52.5198 25.6981H59.6599L58.539 24.5772V32.3861C58.539 33.8283 60.7808 33.8321 60.7808 32.3861V24.5772C60.7808 23.9719 60.269 23.4563 59.6599 23.4563H52.5198C51.9145 23.4563 51.3989 23.9682 51.3989 24.5772V32.3861C51.3989 32.9914 51.9108 33.507 52.5198 33.507H59.6599C61.1022 33.507 61.1059 31.2652 59.6599 31.2652Z" fill="#4799A9"/>
<path id="Vector_8" d="M59.6599 18.8531H52.5198L53.6407 19.974V12.1651L52.5198 13.286H59.6599L58.539 12.1651V19.974C58.539 21.4162 60.7808 21.42 60.7808 19.974V12.1651C60.7808 11.5598 60.269 11.0442 59.6599 11.0442H52.5198C51.9145 11.0442 51.3989 11.5561 51.3989 12.1651V19.974C51.3989 20.5793 51.9108 21.0949 52.5198 21.0949H59.6599C61.1022 21.0949 61.1059 18.8531 59.6599 18.8531Z" fill="#4799A9"/>
</g>
</g>
<g id="Group_4">
<path id="Vector_9" d="M85.5564 52.8313H78.4163L79.5372 53.9522V46.1432L78.4163 47.2641H85.5564L84.4355 46.1432V53.9522C84.4355 55.3944 86.6773 55.3981 86.6773 53.9522V46.1432C86.6773 45.538 86.1654 45.0223 85.5564 45.0223H78.4163C77.811 45.0223 77.2954 45.5342 77.2954 46.1432V53.9522C77.2954 54.5574 77.8073 55.073 78.4163 55.073H85.5564C86.9986 55.073 87.0024 52.8313 85.5564 52.8313Z" fill="#4799A9"/>
<path id="Vector_10" d="M85.5564 40.4193H78.4163L79.5372 41.5402V33.7312L78.4163 34.8521H85.5564L84.4355 33.7312V41.5402C84.4355 42.9824 86.6773 42.9861 86.6773 41.5402V33.7312C86.6773 33.126 86.1654 32.6104 85.5564 32.6104H78.4163C77.811 32.6104 77.2954 33.1222 77.2954 33.7312V41.5402C77.2954 42.1454 77.8073 42.6611 78.4163 42.6611H85.5564C86.9986 42.6611 87.0024 40.4193 85.5564 40.4193Z" fill="#4799A9"/>
<path id="Vector_11" d="M93.0326 62.4598H70.9397L72.0606 63.5807V12.5313L70.9397 13.6522H93.0326L91.9117 12.5313V63.5769C91.9117 65.0191 94.1535 65.0229 94.1535 63.5769V12.5313C94.1535 11.926 93.6416 11.4104 93.0326 11.4104H70.9397C70.3345 11.4104 69.8188 11.9223 69.8188 12.5313V63.5769C69.8188 64.1822 70.3307 64.6978 70.9397 64.6978H93.0326C94.4748 64.6978 94.4786 62.456 93.0326 62.456V62.4598Z" fill="#4799A9"/>
<path id="Vector_12" d="M85.5564 28.0072H78.4163L79.5372 29.1281V21.3191L78.4163 22.44H85.5564L84.4355 21.3191V29.1281C84.4355 30.5703 86.6773 30.574 86.6773 29.1281V21.3191C86.6773 20.7139 86.1654 20.1982 85.5564 20.1982H78.4163C77.811 20.1982 77.2954 20.7101 77.2954 21.3191V29.1281C77.2954 29.7333 77.8073 30.2489 78.4163 30.2489H85.5564C86.9986 30.2489 87.0024 28.0072 85.5564 28.0072Z" fill="#4799A9"/>
</g>
<g id="Group_5">
<path id="Vector_13" d="M12.6458 55.073H19.7859C20.3912 55.073 20.9068 54.5612 20.9068 53.9522V46.1432C20.9068 45.538 20.3949 45.0223 19.7859 45.0223H12.6458C12.0405 45.0223 11.5249 45.5342 11.5249 46.1432V53.9522C11.5249 55.3944 13.7667 55.3981 13.7667 53.9522V46.1432L12.6458 47.2641H19.7859L18.665 46.1432V53.9522L19.7859 52.8313H12.6458C11.2036 52.8313 11.1998 55.073 12.6458 55.073Z" fill="#4799A9"/>
<path id="Vector_14" d="M12.6458 42.6611H19.7859C20.3912 42.6611 20.9068 42.1492 20.9068 41.5402V33.7312C20.9068 33.126 20.3949 32.6104 19.7859 32.6104H12.6458C12.0405 32.6104 11.5249 33.1222 11.5249 33.7312V41.5402C11.5249 42.9824 13.7667 42.9861 13.7667 41.5402V33.7312L12.6458 34.8521H19.7859L18.665 33.7312V41.5402L19.7859 40.4193H12.6458C11.2036 40.4193 11.1998 42.6611 12.6458 42.6611Z" fill="#4799A9"/>
<path id="Vector_15" d="M5.16924 64.7016H27.2621C27.8674 64.7016 28.383 64.1897 28.383 63.5807V12.5313C28.383 11.926 27.8711 11.4104 27.2621 11.4104H5.16924C4.56395 11.4104 4.04834 11.9223 4.04834 12.5313V63.5769C4.04834 65.0192 6.29013 65.0229 6.29013 63.5769V12.5313L5.16924 13.6522H27.2621L26.1412 12.5313V63.5769L27.2621 62.456H5.16924C3.72702 62.456 3.72328 64.6978 5.16924 64.6978V64.7016Z" fill="#4799A9"/>
<path id="Vector_16" d="M12.6458 30.2489H19.7859C20.3912 30.2489 20.9068 29.7371 20.9068 29.1281V21.3191C20.9068 20.7139 20.3949 20.1982 19.7859 20.1982H12.6458C12.0405 20.1982 11.5249 20.7101 11.5249 21.3191V29.1281C11.5249 30.5703 13.7667 30.574 13.7667 29.1281V21.3191L12.6458 22.44H19.7859L18.665 21.3191V29.1281L19.7859 28.0072H12.6458C11.2036 28.0072 11.1998 30.2489 12.6458 30.2489Z" fill="#4799A9"/>
</g>
<path id="Vector_17" d="M1.70563 70.0034H96.4961C97.9383 70.0034 97.9421 67.7616 96.4961 67.7616H1.70563C0.263405 67.7616 0.259669 70.0034 1.70563 70.0034Z" fill="#4799A9"/>
</g>
<defs>
<clipPath id="clip0_21_3769">
<rect width="96.9576" height="70" fill="white" transform="translate(0.62207 0.00341797)"/>
</clipPath>
</defs>
</svg>
