<svg width="106" height="70" viewBox="0 0 106 70" fill="none" xmlns="http://www.w3.org/2000/svg">
<g id="meal" clip-path="url(#clip0_20_3728)">
<g id="Group">
<path id="Vector" d="M11.8849 65.1965H7.6268C7.2019 65.1965 6.79277 65.0173 6.47607 64.6905C6.05342 64.2554 5.82237 63.6017 5.84265 62.8962L6.81193 28.2208C3.09711 26.4208 0.62207 21.4426 0.62207 15.7035C0.62207 12.2457 1.52823 8.9817 3.17488 6.51229C4.90268 3.92003 7.24022 2.49316 9.75584 2.49316C12.2715 2.49316 14.6101 3.92003 16.3368 6.51229C17.9823 8.9817 18.8896 12.2457 18.8896 15.7035C18.8896 21.4426 16.4146 26.4208 12.6997 28.2219L13.669 62.8984C13.6893 63.6028 13.4583 64.2565 13.0356 64.6916C12.7189 65.0173 12.3098 65.1965 11.8849 65.1965ZM7.8432 63.2332H11.6685C11.6899 63.17 11.709 63.0754 11.7057 62.9536L10.7285 27.9773C10.7127 27.3563 11.07 26.7962 11.6392 26.5482C14.751 25.1935 16.9251 20.7336 16.9251 15.7035C16.9251 12.6289 16.1362 9.75149 14.7025 7.60104C13.3512 5.57344 11.5941 4.45652 9.75471 4.45652C7.91533 4.45652 6.15823 5.57344 4.80688 7.60104C3.37325 9.75149 2.5843 12.6289 2.5843 15.7035C2.5843 20.7336 4.75841 25.1935 7.87138 26.5482C8.44055 26.7962 8.79783 27.3563 8.78205 27.9762L7.80488 62.9525C7.8015 63.0742 7.82066 63.1689 7.84207 63.2332H7.8432Z" fill="#4799A9"/>
<g id="Group_2">
<path id="Vector_2" d="M98.1381 65.0151H98.0299C97.0381 65.0151 96.1105 64.6251 95.4174 63.9162C94.7242 63.2073 94.3534 62.2707 94.3748 61.2788L95.0522 30.6507C95.0488 28.8677 94.1731 28.0844 93.0641 27.0937C91.9066 26.0591 90.4673 24.7719 90.4673 22.191V3.65856C90.4673 3.11644 90.9068 2.67688 91.449 2.67688C91.9911 2.67688 92.4306 3.11644 92.4306 3.65856V22.191C92.4306 23.8928 93.2872 24.6592 94.3726 25.6296C95.5504 26.6823 97.0156 27.992 97.0156 30.6609C97.0156 30.6676 97.0156 30.6755 97.0156 30.6823L96.3382 61.3217C96.328 61.7804 96.4994 62.2143 96.8206 62.5434C97.1418 62.8714 97.5712 63.0517 98.0299 63.0517H98.1381C98.598 63.0517 99.0274 62.8714 99.3486 62.5423C99.6698 62.2143 99.8411 61.7804 99.8298 61.3228L99.1525 30.6834C99.1525 30.6767 99.1525 30.6688 99.1525 30.662C99.1525 27.9931 100.618 26.6835 101.795 25.6308C102.881 24.6615 103.737 23.8951 103.737 22.1921V3.65856C103.737 3.11644 104.177 2.67688 104.719 2.67688C105.261 2.67688 105.701 3.11644 105.701 3.65856V22.191C105.701 24.7719 104.26 26.0602 103.104 27.0937C101.996 28.0844 101.119 28.8677 101.116 30.6496L101.793 61.2777C101.816 62.2684 101.446 63.205 100.753 63.9139C100.059 64.624 99.1311 65.0139 98.1381 65.0139V65.0151Z" fill="#4799A9"/>
<path id="Vector_3" d="M95.5686 19.9661C95.0265 19.9661 94.5869 19.5266 94.5869 18.9845V3.71605C94.5869 3.17393 95.0265 2.73438 95.5686 2.73438C96.1107 2.73438 96.5503 3.17393 96.5503 3.71605V18.9845C96.5503 19.5266 96.1107 19.9661 95.5686 19.9661Z" fill="#4799A9"/>
<path id="Vector_4" d="M100.114 19.9661C99.5719 19.9661 99.1323 19.5266 99.1323 18.9845V3.71605C99.1323 3.17393 99.5719 2.73438 100.114 2.73438C100.656 2.73438 101.096 3.17393 101.096 3.71605V18.9845C101.096 19.5266 100.656 19.9661 100.114 19.9661Z" fill="#4799A9"/>
</g>
</g>
<g id="Group_3">
<path id="Vector_5" d="M54.0396 70.0034C44.6905 70.0034 35.9016 66.363 29.2914 59.7516C22.6811 53.1402 19.0396 44.3513 19.0396 35.0023C19.0396 25.6533 22.68 16.8644 29.2914 10.2541C35.9028 3.64385 44.6905 0.00341797 54.0396 0.00341797C63.3886 0.00341797 72.1775 3.64385 78.7877 10.2552C85.398 16.8666 89.0396 25.6555 89.0396 35.0034C89.0396 44.3513 85.3991 53.1413 78.7877 59.7527C72.1763 66.3641 63.3875 70.0045 54.0396 70.0045V70.0034ZM54.0396 1.96677C35.8227 1.96677 21.0029 16.7866 21.0029 35.0034C21.0029 53.2202 35.8227 68.0401 54.0396 68.0401C72.2564 68.0401 87.0762 53.2202 87.0762 35.0034C87.0762 16.7866 72.2564 1.96677 54.0396 1.96677Z" fill="#4799A9"/>
<path id="Vector_6" d="M54.0397 61.7702C46.8896 61.7702 40.1677 58.9864 35.1128 53.9303C30.0579 48.8743 27.2729 42.1525 27.2729 35.0035C27.2729 27.8545 30.0568 21.1326 35.1128 16.0766C40.1689 11.0206 46.8907 8.23669 54.0397 8.23669C61.1887 8.23669 67.9117 11.0206 72.9666 16.0766C78.0226 21.1326 80.8065 27.8533 80.8065 35.0035C80.8065 42.1536 78.0226 48.8754 72.9666 53.9303C67.9105 58.9864 61.1887 61.7702 54.0397 61.7702ZM54.0397 10.2C40.3627 10.2 29.2363 21.3265 29.2363 35.0035C29.2363 48.6804 40.3627 59.8069 54.0397 59.8069C67.7167 59.8069 78.8431 48.6804 78.8431 35.0035C78.8431 21.3265 67.7167 10.2 54.0397 10.2Z" fill="#4799A9"/>
</g>
</g>
<defs>
<clipPath id="clip0_20_3728">
<rect width="105.079" height="70" fill="white" transform="translate(0.62207 0.00341797)"/>
</clipPath>
</defs>
</svg>
