<svg xmlns="http://www.w3.org/2000/svg" width="30" height="30" viewBox="0 0 30 30" fill="none">
    <path
        d="M7.50003 2.00948C4.40698 3.79525 2.05261 6.62607 0.860408 9.99276C-0.331798 13.3594 -0.283603 17.0411 0.996325 20.3754C2.27625 23.7097 4.70391 26.4779 7.84265 28.1821C10.9814 29.8863 14.6252 30.4146 18.1187 29.6721C21.6122 28.9295 24.7261 26.9648 26.9003 24.1313C29.0745 21.2978 30.1664 17.7815 29.9795 14.2148C29.7926 10.6482 28.3391 7.26525 25.8806 4.67454C23.4222 2.08383 20.1199 0.45536 16.568 0.0820312L15 14.9999L7.50003 2.00948Z"
        fill="#7A65FC" />
    <circle cx="15" cy="15" r="14" transform="rotate(180 15 15)" stroke="#7A65FC" stroke-width="2" />
</svg>