<svg width="31" height="30" viewBox="0 0 31 30" fill="none" xmlns="http://www.w3.org/2000/svg">
<g id="Group 1">
<path id="Ellipse 1" d="M0.500003 15C0.500003 17.9667 1.37974 20.8668 3.02796 23.3336C4.67618 25.8003 7.01886 27.7229 9.75975 28.8582C12.5006 29.9935 15.5166 30.2906 18.4264 29.7118C21.3361 29.133 24.0088 27.7044 26.1066 25.6066C28.2044 23.5088 29.633 20.8361 30.2118 17.9264C30.7906 15.0166 30.4935 12.0006 29.3582 9.25975C28.2229 6.51886 26.3003 4.17618 23.8336 2.52796C21.3668 0.879739 18.4667 4.86668e-06 15.5 5.12604e-06L15.5 15L0.500003 15Z" fill="#7A65FC"/>
<circle id="Ellipse 2" cx="15.5" cy="15" r="14" transform="rotate(180 15.5 15)" stroke="#7A65FC" stroke-width="2"/>
</g>
</svg>
