<svg width="31" height="30" viewBox="0 0 31 30" fill="none" xmlns="http://www.w3.org/2000/svg">
<g id="Group 1">
<path id="Ellipse 1" d="M15.25 3.99357e-06C18.0163 3.96058e-06 20.7288 0.764996 23.0875 2.2104C25.4462 3.65581 27.3592 5.72532 28.6151 8.19015C29.871 10.655 30.4208 13.4191 30.2038 16.1769C29.9867 18.9347 29.0113 21.5788 27.3853 23.8168C25.7592 26.0548 23.546 27.7996 20.9903 28.8582C18.4345 29.9168 15.6358 30.2481 12.9035 29.8153C10.1712 29.3826 7.61182 28.2027 5.50828 26.4061C3.40475 24.6095 1.839 22.2662 0.984156 19.6353L15.25 15L15.25 3.99357e-06Z" fill="#7A65FC"/>
<circle id="Ellipse 2" cx="15.25" cy="15" r="14" transform="rotate(180 15.25 15)" stroke="#7A65FC" stroke-width="2"/>
</g>
</svg>
