<svg width="31" height="30" viewBox="0 0 31 30" fill="none" xmlns="http://www.w3.org/2000/svg">
<g id="Group 1">
<path id="Ellipse 1" d="M15.75 3.99357e-06C18.1172 3.96534e-06 20.4507 0.56024 22.5599 1.63491C24.669 2.70957 26.4939 4.26816 27.8853 6.18322C29.2766 8.09829 30.195 10.3155 30.5653 12.6535C30.9356 14.9915 30.7473 17.384 30.0158 19.6353C29.2844 21.8866 28.0304 23.9328 26.3566 25.6066C24.6828 27.2804 22.6366 28.5344 20.3853 29.2658C18.134 29.9973 15.7415 30.1856 13.4035 29.8153C11.0655 29.445 8.84829 28.5266 6.93322 27.1353L15.75 15L15.75 3.99357e-06Z" fill="#7A65FC"/>
<circle id="Ellipse 2" cx="15.75" cy="15" r="14" transform="rotate(180 15.75 15)" stroke="#7A65FC" stroke-width="2"/>
</g>
</svg>
