<svg width="31" height="30" viewBox="0 0 31 30" fill="none" xmlns="http://www.w3.org/2000/svg">
<g id="Group 1">
<path id="Ellipse 1" d="M15.75 30C17.7198 30 19.6704 29.612 21.4903 28.8582C23.3101 28.1044 24.9637 26.9995 26.3566 25.6066C27.7495 24.2137 28.8544 22.5601 29.6082 20.7402C30.362 18.9204 30.75 16.9698 30.75 15C30.75 13.0302 30.362 11.0796 29.6082 9.25975C28.8544 7.43986 27.7495 5.78628 26.3566 4.3934C24.9637 3.00052 23.3101 1.89563 21.4903 1.14181C19.6704 0.387986 17.7198 -7.41775e-07 15.75 -6.55671e-07L15.75 15L15.75 30Z" fill="#7A65FC"/>
<circle id="Ellipse 2" cx="15.75" cy="15" r="14" transform="rotate(180 15.75 15)" stroke="#7A65FC" stroke-width="2"/>
</g>
</svg>
