<svg width="50" height="41" viewBox="0 0 50 41" fill="none" xmlns="http://www.w3.org/2000/svg">
<path d="M35 3H43.75C45.7812 3 47.5 4.71875 47.5 6.75V28C48.8281 28 50 29.1719 50 30.5C50 31.9062 48.8281 33 47.5 33H43.75H27.5V38C27.5 39.4062 26.3281 40.5 25 40.5C23.5938 40.5 22.5 39.4062 22.5 38V33H6.25H2.5C1.09375 33 0 31.9062 0 30.5C0 29.1719 1.09375 28 2.5 28V6.75C2.5 4.71875 4.14062 3 6.25 3H15C15 1.67188 16.0938 0.5 17.5 0.5C18.8281 0.5 20 1.67188 20 3H30C30 1.67188 31.0938 0.5 32.5 0.5C33.8281 0.5 35 1.67188 35 3ZM25 28H42.5V8H35V10.5C36.3281 10.5 37.5 11.6719 37.5 13C37.5 14.4062 36.3281 15.5 35 15.5H32.5H30C28.5938 15.5 27.5 14.4062 27.5 13C27.5 11.6719 28.5938 10.5 30 10.5V8H20V10.5C21.3281 10.5 22.5 11.6719 22.5 13C22.5 14.4062 21.3281 15.5 20 15.5H17.5H15C13.5938 15.5 12.5 14.4062 12.5 13C12.5 11.6719 13.5938 10.5 15 10.5V8H7.5V28H25Z" fill="white"/>
</svg>
