<svg width="52" height="42" viewBox="0 0 52 42" fill="none" xmlns="http://www.w3.org/2000/svg">
<path d="M31.625 1.15625C32.9531 1.54688 33.7344 2.875 33.3438 4.20312L23.3438 39.2031C22.9531 40.5312 21.625 41.3125 20.2969 40.9219C18.9688 40.5312 18.1875 39.2031 18.5781 37.875L28.5781 2.875C28.9688 1.54688 30.2969 0.765625 31.625 1.15625ZM37.9531 10.5312C38.8906 9.51562 40.5312 9.51562 41.4688 10.5312L50.2188 19.2812C51.2344 20.2188 51.2344 21.8594 50.2188 22.7969L41.4688 31.5469C40.5312 32.5625 38.8906 32.5625 37.9531 31.5469C36.9375 30.6094 36.9375 28.9688 37.9531 28.0312L44.9062 21L37.9531 14.0469C36.9375 13.1094 36.9375 11.4688 37.9531 10.5312ZM13.9688 10.5312C14.9844 11.4688 14.9844 13.1094 13.9688 14.0469L7.01562 21L13.9688 28.0312C14.9844 28.9688 14.9844 30.6094 13.9688 31.5469C13.0312 32.5625 11.3906 32.5625 10.4531 31.5469L1.70312 22.7969C0.6875 21.8594 0.6875 20.2188 1.70312 19.2812L10.4531 10.5312C11.3906 9.51562 13.0312 9.51562 13.9688 10.5312Z" fill="#F6F6F8"/>
</svg>
