<svg width="46" height="42" viewBox="0 0 46 42" fill="none" xmlns="http://www.w3.org/2000/svg">
<path d="M44.1719 8.5L24.4062 28.2656L18.2344 22.0938L38 2.32812C39.7188 0.609375 42.4531 0.609375 44.1719 2.32812C45.8906 4.04688 45.8906 6.78125 44.1719 8.5ZM16.5156 23.8125L22.6875 29.9844C22.8438 30.7656 23 31.4688 23 32.25C23 37.0938 19.0156 41 14.25 41H3C1.59375 41 0.5 39.9062 0.5 38.5C0.5 37.1719 1.59375 36 3 36H3.3125C4.71875 36 5.65625 34.5938 5.5 33.1875C5.5 32.875 5.5 32.5625 5.5 32.25C5.5 27.4844 9.40625 23.5 14.25 23.5C15.0312 23.5 15.7344 23.6562 16.5156 23.8125ZM23.7812 13.0312L15.6562 21.1562C15.1875 21.0781 14.7188 21 14.25 21C14.1719 21 14.0938 21 14.0156 21L4.40625 11.4688C2.45312 9.51562 2.45312 6.3125 4.40625 4.35938L6.28125 2.5625C8.23438 0.609375 11.3594 0.609375 13.3125 2.5625L23.7812 13.0312ZM25.5 32.4844C25.5 32.4062 25.5 32.3281 25.5 32.25C25.5 31.7812 25.4219 31.3125 25.3438 30.8438L33.5469 22.7188L39.4062 28.6562C39.9531 29.125 40.3438 29.8281 40.5 30.5312L42.8438 38.6562C43 39.2812 42.8438 39.9844 42.375 40.4531C41.9062 41 41.2031 41.1562 40.5 40.9219L32.375 38.6562C31.6719 38.4219 31.0469 38.0312 30.5 37.5625L25.5 32.4844Z" fill="#F6F6F8"/>
</svg>
