<svg width="40" height="40" viewBox="0 0 40 40" fill="none" xmlns="http://www.w3.org/2000/svg">
<path d="M2.5 2.5C3.82812 2.5 5 3.67188 5 5V31.25C5 31.9531 5.54688 32.5 6.25 32.5H37.5C38.8281 32.5 40 33.6719 40 35C40 36.4062 38.8281 37.5 37.5 37.5H6.25C2.73438 37.5 0 34.7656 0 31.25V5C0 3.67188 1.09375 2.5 2.5 2.5ZM12.5 17.5C13.8281 17.5 15 18.6719 15 20V25C15 26.4062 13.8281 27.5 12.5 27.5C11.0938 27.5 10 26.4062 10 25V20C10 18.6719 11.0938 17.5 12.5 17.5ZM22.5 12.5V25C22.5 26.4062 21.3281 27.5 20 27.5C18.5938 27.5 17.5 26.4062 17.5 25V12.5C17.5 11.1719 18.5938 10 20 10C21.3281 10 22.5 11.1719 22.5 12.5ZM27.5 15C28.8281 15 30 16.1719 30 17.5V25C30 26.4062 28.8281 27.5 27.5 27.5C26.0938 27.5 25 26.4062 25 25V17.5C25 16.1719 26.0938 15 27.5 15ZM37.5 7.5V25C37.5 26.4062 36.3281 27.5 35 27.5C33.5938 27.5 32.5 26.4062 32.5 25V7.5C32.5 6.17188 33.5938 5 35 5C36.3281 5 37.5 6.17188 37.5 7.5Z" fill="#F6F6F8"/>
</svg>
