<svg width="41" height="40" viewBox="0 0 41 40" fill="none" xmlns="http://www.w3.org/2000/svg">
<path d="M8.3125 32.1875V32.1094C8.46875 32.2656 9.64062 33.125 13.3125 31.875C14.1719 31.6406 15.0312 31.25 15.8906 30.8594C14.7969 29.9219 13.7031 28.9062 12.6094 27.8906C11.5938 26.7969 10.5781 25.7031 9.64062 24.6094C9.25 25.4688 8.85938 26.3281 8.625 27.1875C7.375 30.8594 8.23438 32.0312 8.3125 32.1875ZM12.4531 20C13.5469 21.4844 14.7969 22.8906 16.2031 24.2969C17.6094 25.7031 19.0156 26.9531 20.5 28.0469C21.9062 26.9531 23.3125 25.7031 24.7188 24.2969C26.2031 22.8906 27.375 21.4844 28.4688 20C27.375 18.5938 26.2031 17.1875 24.7188 15.7812C23.3125 14.2969 21.9062 13.125 20.5 12.0312C19.0156 13.125 17.6094 14.2969 16.2031 15.7812C14.7969 17.1875 13.5469 18.5938 12.4531 20ZM15.8906 9.21875C15.0312 8.82812 14.1719 8.4375 13.3906 8.20312C9.64062 6.95312 8.46875 7.8125 8.39062 7.89062C8.23438 8.04688 7.375 9.21875 8.625 12.8906C8.85938 13.75 9.25 14.6094 9.64062 15.4688C10.5781 14.375 11.5938 13.2812 12.6094 12.1875C13.7031 11.1719 14.7969 10.1562 15.8906 9.21875ZM20.5 6.01562C26.9062 2.1875 33.0781 1.32812 36.125 4.375C39.1719 7.42188 38.3125 13.5938 34.4844 20C38.3125 26.4844 39.1719 32.6562 36.125 35.7031C33.0781 38.75 26.9062 37.8906 20.5 34.0625C14.0156 37.8906 7.84375 38.75 4.79688 35.7031C1.75 32.6562 2.60938 26.4844 6.4375 20C2.60938 13.5938 1.75 7.42188 4.79688 4.375C7.84375 1.32812 14.0156 2.1875 20.5 6.01562ZM25.0312 9.21875C26.125 10.1562 27.2188 11.1719 28.3125 12.1875C29.3281 13.2812 30.3438 14.375 31.2812 15.4688C31.6719 14.6094 32.0625 13.75 32.2969 12.8906C33.5469 9.21875 32.6875 8.04688 32.6094 7.89062C32.4531 7.8125 31.2812 6.95312 27.6094 8.20312C26.75 8.4375 25.8906 8.82812 25.0312 9.21875ZM31.2812 24.6094C30.3438 25.7031 29.3281 26.7969 28.3125 27.8906C27.2188 28.9062 26.125 29.9219 25.0312 30.8594C25.8906 31.25 26.75 31.6406 27.6094 31.875C31.2812 33.125 32.4531 32.2656 32.6094 32.1875C32.6875 32.0312 33.5469 30.8594 32.2969 27.1875C32.0625 26.3281 31.6719 25.4688 31.2812 24.6094ZM23 20C23 21.4062 21.8281 22.5 20.5 22.5C19.0938 22.5 18 21.4062 18 20C18 18.6719 19.0938 17.5 20.5 17.5C21.8281 17.5 23 18.6719 23 20Z" fill="#F6F6F8"/>
</svg>
