<svg width="46" height="40" viewBox="0 0 46 40" fill="none" xmlns="http://www.w3.org/2000/svg">
<path d="M5.5 5H40.5C43.2344 5 45.5 7.26562 45.5 10V30C45.5 32.8125 43.2344 35 40.5 35H5.5C2.6875 35 0.5 32.8125 0.5 30V10C0.5 7.26562 2.6875 5 5.5 5ZM6.75 10C6.04688 10 5.5 10.625 5.5 11.25V13.75C5.5 14.4531 6.04688 15 6.75 15H9.25C9.875 15 10.5 14.4531 10.5 13.75V11.25C10.5 10.625 9.875 10 9.25 10H6.75ZM5.5 18.75V21.25C5.5 21.9531 6.04688 22.5 6.75 22.5H9.25C9.875 22.5 10.5 21.9531 10.5 21.25V18.75C10.5 18.125 9.875 17.5 9.25 17.5H6.75C6.04688 17.5 5.5 18.125 5.5 18.75ZM6.75 25C6.04688 25 5.5 25.625 5.5 26.25V28.75C5.5 29.4531 6.04688 30 6.75 30H9.25C9.875 30 10.5 29.4531 10.5 28.75V26.25C10.5 25.625 9.875 25 9.25 25H6.75ZM13 11.25V13.75C13 14.4531 13.5469 15 14.25 15H16.75C17.375 15 18 14.4531 18 13.75V11.25C18 10.625 17.375 10 16.75 10H14.25C13.5469 10 13 10.625 13 11.25ZM14.25 17.5C13.5469 17.5 13 18.125 13 18.75V21.25C13 21.9531 13.5469 22.5 14.25 22.5H16.75C17.375 22.5 18 21.9531 18 21.25V18.75C18 18.125 17.375 17.5 16.75 17.5H14.25ZM13 26.25V28.75C13 29.4531 13.5469 30 14.25 30H31.75C32.375 30 33 29.4531 33 28.75V26.25C33 25.625 32.375 25 31.75 25H14.25C13.5469 25 13 25.625 13 26.25ZM21.75 10C21.0469 10 20.5 10.625 20.5 11.25V13.75C20.5 14.4531 21.0469 15 21.75 15H24.25C24.875 15 25.5 14.4531 25.5 13.75V11.25C25.5 10.625 24.875 10 24.25 10H21.75ZM20.5 18.75V21.25C20.5 21.9531 21.0469 22.5 21.75 22.5H24.25C24.875 22.5 25.5 21.9531 25.5 21.25V18.75C25.5 18.125 24.875 17.5 24.25 17.5H21.75C21.0469 17.5 20.5 18.125 20.5 18.75ZM29.25 10C28.5469 10 28 10.625 28 11.25V13.75C28 14.4531 28.5469 15 29.25 15H31.75C32.375 15 33 14.4531 33 13.75V11.25C33 10.625 32.375 10 31.75 10H29.25ZM28 18.75V21.25C28 21.9531 28.5469 22.5 29.25 22.5H31.75C32.375 22.5 33 21.9531 33 21.25V18.75C33 18.125 32.375 17.5 31.75 17.5H29.25C28.5469 17.5 28 18.125 28 18.75ZM36.75 10C36.0469 10 35.5 10.625 35.5 11.25V13.75C35.5 14.4531 36.0469 15 36.75 15H39.25C39.875 15 40.5 14.4531 40.5 13.75V11.25C40.5 10.625 39.875 10 39.25 10H36.75ZM35.5 18.75V21.25C35.5 21.9531 36.0469 22.5 36.75 22.5H39.25C39.875 22.5 40.5 21.9531 40.5 21.25V18.75C40.5 18.125 39.875 17.5 39.25 17.5H36.75C36.0469 17.5 35.5 18.125 35.5 18.75ZM36.75 25C36.0469 25 35.5 25.625 35.5 26.25V28.75C35.5 29.4531 36.0469 30 36.75 30H39.25C39.875 30 40.5 29.4531 40.5 28.75V26.25C40.5 25.625 39.875 25 39.25 25H36.75Z" fill="#F6F6F8"/>
</svg>
