<svg width="18" height="15" viewBox="0 0 18 15" fill="none" xmlns="http://www.w3.org/2000/svg">
<path fill-rule="evenodd" clip-rule="evenodd" d="M17.1403 1.08862H0V14.9999H17.136L17.1403 1.08862ZM2.13555 3.21976H14.9909V12.8699H2.13555V3.21976Z" fill="#656565"/>
<path d="M4.27271 1.0764V3.21849C4.27271 3.81297 4.75463 4.29489 5.34911 4.29489C5.94359 4.29489 6.42551 3.81297 6.42551 3.21849V1.0764C6.42551 0.481921 5.94359 0 5.34911 0C4.75463 0 4.27271 0.481921 4.27271 1.0764Z" fill="#656565"/>
<path d="M10.699 1.0764V3.21849C10.699 3.81297 11.1809 4.29489 11.7754 4.29489C12.3699 4.29489 12.8518 3.81297 12.8518 3.21849V1.0764C12.8518 0.481921 12.3699 0 11.7754 0C11.1809 0 10.699 0.481921 10.699 1.0764Z" fill="#656565"/>
<path d="M11.0142 7.19276C11.4346 7.61312 12.1161 7.61312 12.5365 7.19276C12.9569 6.7724 12.9569 6.09086 12.5365 5.6705C12.1161 5.25013 11.4346 5.25013 11.0142 5.6705C10.5939 6.09086 10.5939 6.7724 11.0142 7.19276Z" fill="#656565"/>
<path d="M7.80111 7.19276C8.22147 7.61312 8.90301 7.61312 9.32337 7.19276C9.74373 6.7724 9.74373 6.09086 9.32337 5.6705C8.90301 5.25013 8.22147 5.25013 7.80111 5.6705C7.38075 6.09086 7.38075 6.7724 7.80111 7.19276Z" fill="#656565"/>
<path d="M4.58798 7.19276C5.00834 7.61312 5.68988 7.61312 6.11024 7.19276C6.5306 6.7724 6.5306 6.09086 6.11024 5.6705C5.68988 5.25013 5.00834 5.25013 4.58798 5.6705C4.16761 6.09086 4.16761 6.7724 4.58798 7.19276Z" fill="#656565"/>
<path d="M10.699 9.64476C10.699 10.2392 11.1809 10.7212 11.7754 10.7212C12.3699 10.7212 12.8518 10.2392 12.8518 9.64476C12.8518 9.05028 12.3699 8.56836 11.7754 8.56836C11.1809 8.56836 10.699 9.05028 10.699 9.64476Z" fill="#656565"/>
<path d="M7.48584 9.64476C7.48584 10.2392 7.96776 10.7212 8.56224 10.7212C9.15672 10.7212 9.63864 10.2392 9.63864 9.64476C9.63864 9.05028 9.15672 8.56836 8.56224 8.56836C7.96776 8.56836 7.48584 9.05028 7.48584 9.64476Z" fill="#656565"/>
<path d="M4.27271 9.64476C4.27271 10.2392 4.75463 10.7212 5.34911 10.7212C5.94359 10.7212 6.42551 10.2392 6.42551 9.64476C6.42551 9.05028 5.94359 8.56836 5.34911 8.56836C4.75463 8.56836 4.27271 9.05028 4.27271 9.64476Z" fill="#656565"/>
</svg>
