<svg width="10" height="8" viewBox="0 0 10 8" fill="none" xmlns="http://www.w3.org/2000/svg">
<path fill-rule="evenodd" clip-rule="evenodd" d="M4.0192 7.83961C6.17717 5.3663 7.57205 3.77767 8.20385 3.07371C8.76131 2.45258 9.2916 1.90894 9.79472 1.44277V1.44277C9.99318 1.25889 10.0165 0.935531 9.84672 0.720535C9.84585 0.719434 9.84498 0.718337 9.8441 0.717244C9.73444 0.580705 9.58895 0.430196 9.40764 0.265716C9.3969 0.255972 9.38626 0.246354 9.37573 0.236862C8.99276 -0.108228 8.42835 -0.0723215 8.0853 0.318956L3.64568 5.38266C3.16199 4.77394 2.72337 4.26054 2.32982 3.84247C2.01296 3.50585 1.71176 3.21662 1.42621 2.97477L1.42621 2.97477C1.28626 2.85625 1.0968 2.83269 0.935711 2.91379C0.769183 2.99762 0.614278 3.11694 0.470996 3.27174C0.332076 3.42182 0.198072 3.61176 0.0689848 3.84154L0.0689762 3.84153C-0.0624166 4.07542 -0.000810112 4.37989 0.208844 4.53279C0.583786 4.80623 1.04616 5.22985 1.59595 5.80366C2.20934 6.44383 2.78068 7.11347 3.30998 7.8126L3.30998 7.81259C3.47559 8.03133 3.77352 8.06321 3.97543 7.88381C3.99087 7.87009 4.00549 7.85533 4.0192 7.83961Z" fill="#476FB1"/>
</svg>
