<svg width="17" height="20" viewBox="0 0 17 20" fill="none" xmlns="http://www.w3.org/2000/svg">
<path d="M13.8534 8.33337H5.5201C5.3361 8.33337 5.18677 8.48237 5.18677 8.66671C5.18677 8.85104 5.3361 9.00004 5.5201 9.00004H13.8534C14.0374 9.00004 14.1868 8.85104 14.1868 8.66671C14.1868 8.48237 14.0374 8.33337 13.8534 8.33337Z" fill="black"/>
<path d="M5.5201 6.33329H8.85343C9.03743 6.33329 9.18677 6.18429 9.18677 5.99996C9.18677 5.81563 9.03743 5.66663 8.85343 5.66663H5.5201C5.3361 5.66663 5.18677 5.81563 5.18677 5.99996C5.18677 6.18429 5.3361 6.33329 5.5201 6.33329Z" fill="black"/>
<path d="M13.8534 11H5.5201C5.3361 11 5.18677 11.149 5.18677 11.3333C5.18677 11.5177 5.3361 11.6667 5.5201 11.6667H13.8534C14.0374 11.6667 14.1868 11.5177 14.1868 11.3333C14.1868 11.149 14.0374 11 13.8534 11Z" fill="black"/>
<path d="M13.8534 13.6666H5.5201C5.3361 13.6666 5.18677 13.8156 5.18677 14C5.18677 14.1843 5.3361 14.3333 5.5201 14.3333H13.8534C14.0374 14.3333 14.1868 14.1843 14.1868 14C14.1868 13.8156 14.0374 13.6666 13.8534 13.6666Z" fill="black"/>
<path d="M13.8534 16.3334H5.5201C5.3361 16.3334 5.18677 16.4824 5.18677 16.6667C5.18677 16.851 5.3361 17 5.5201 17H13.8534C14.0374 17 14.1868 16.851 14.1868 16.6667C14.1868 16.4824 14.0374 16.3334 13.8534 16.3334Z" fill="black"/>
<path d="M15.1868 4.862V0H0.853516V18.3333H2.52018V20H16.8535V6.52867L15.1868 4.862ZM12.1868 2.80467L15.1868 5.80467L15.7155 6.33333H12.1868V2.80467ZM1.52018 17.6667V0.666667H14.5202V4.19533L11.9915 1.66667H2.52018V17.6667H1.52018ZM3.18685 19.3333V18.3333V2.33333H11.5202V7H16.1868V19.3333H3.18685Z" fill="black"/>
</svg>
