<svg width="20" height="16" viewBox="0 0 20 16" fill="none" xmlns="http://www.w3.org/2000/svg">
<path d="M1.91961 4.98631C2.1726 5.16484 2.93523 5.69507 4.20753 6.57673C5.47986 7.45839 6.45456 8.13725 7.13165 8.61334C7.20604 8.66552 7.36409 8.77896 7.60587 8.95382C7.84769 9.12879 8.04861 9.27018 8.2085 9.37804C8.36849 9.48585 8.56192 9.6068 8.78896 9.74068C9.01592 9.87445 9.22987 9.97507 9.43076 10.0417C9.63168 10.1088 9.81768 10.1421 9.98878 10.1421H10H10.0113C10.1824 10.1421 10.3684 10.1088 10.5694 10.0417C10.7702 9.97507 10.9843 9.87433 11.2111 9.74068C11.438 9.60664 11.6314 9.48581 11.7914 9.37804C11.9514 9.27018 12.1522 9.12879 12.3941 8.95382C12.6358 8.77881 12.794 8.66552 12.8684 8.61334C13.5528 8.13725 15.2941 6.92812 18.0916 4.98608C18.6347 4.60678 19.0885 4.1491 19.453 3.61336C19.8178 3.07785 20 2.51607 20 1.92834C20 1.4372 19.8232 1.01677 19.4697 0.667102C19.1163 0.317354 18.6977 0.142578 18.2142 0.142578H1.78564C1.21276 0.142578 0.771892 0.336001 0.463112 0.722846C0.154371 1.10977 0 1.5934 0 2.17371C0 2.64245 0.204681 3.1504 0.613847 3.69725C1.02297 4.24413 1.45837 4.67386 1.91961 4.98631Z" fill="#476FB1"/>
<path d="M18.8838 6.17993C16.4436 7.83156 14.5907 9.11516 13.3259 10.0304C12.9018 10.3428 12.5578 10.5867 12.2936 10.7614C12.0294 10.9363 11.678 11.1148 11.2389 11.297C10.8 11.4795 10.391 11.5705 10.0114 11.5705H10H9.98882C9.60936 11.5705 9.20008 11.4795 8.76116 11.297C8.32225 11.1148 7.97063 10.9363 7.70649 10.7614C7.44243 10.5867 7.09827 10.3428 6.67421 10.0304C5.66969 9.29388 3.82076 8.01021 1.12735 6.17993C0.703131 5.89738 0.327388 5.57351 0 5.20898V14.0703C0 14.5617 0.174776 14.9819 0.524524 15.3316C0.874193 15.6814 1.29466 15.8563 1.78576 15.8563H18.2144C18.7054 15.8563 19.1258 15.6814 19.4755 15.3316C19.8253 14.9818 20 14.5618 20 14.0703V5.20898C19.68 5.56596 19.3081 5.88983 18.8838 6.17993Z" fill="#476FB1"/>
</svg>
