<svg width="25" height="25" viewBox="0 0 25 25" fill="none" xmlns="http://www.w3.org/2000/svg">
<path d="M12.5 0H7.08333C6.85323 0 6.66667 0.186564 6.66667 0.416667V3.33333H0.416667C0.186564 3.33333 0 3.5199 0 3.75V24.5833C0 24.8134 0.186564 25 0.416667 25H12.5C12.7301 25 12.9167 24.8134 12.9167 24.5833V0.416667C12.9167 0.186564 12.7301 0 12.5 0ZM12.0833 21.6667H7.5V20.8333H12.0833V21.6667ZM0.833333 6.25H6.66667V18.75H0.833333V6.25ZM12.0833 4.58333H7.5V3.33333H12.0833V4.58333ZM0.833333 19.5833H6.66667V20.8333H0.833333V19.5833ZM7.5 20V5.41667H12.0833V20H7.5ZM12.0833 0.833333V2.5H7.5V0.833333H12.0833ZM6.66667 4.16667V5.41667H0.833333V4.16667H6.66667ZM0.833333 21.6667H6.66667V24.1667H0.833333V21.6667ZM7.5 24.1667V22.5H12.0833V24.1667H7.5Z" fill="black"/>
<path d="M24.9866 22.8123L19.9865 3.6456C19.9587 3.53817 19.8891 3.44642 19.7931 3.39047C19.6972 3.33472 19.5831 3.31946 19.4759 3.34815L13.2259 5.01482C13.0045 5.07382 12.8723 5.30046 12.9301 5.52222L17.9301 24.6889C17.9579 24.7963 18.0277 24.8881 18.1237 24.9438C18.2196 24.9994 18.3337 25.0144 18.4407 24.9855L24.6907 23.3189C24.9117 23.2599 25.0437 23.0336 24.9866 22.8123ZM14.505 8.25802L19.9499 6.8064L20.1458 7.55632L14.7013 9.01018L14.505 8.25802ZM20.3562 8.36483L22.7728 17.6347L17.3299 19.0869L14.9133 9.81645L20.3562 8.36483ZM22.985 18.4413L23.4116 20.0765L17.9667 21.5281L17.5417 19.8936L22.985 18.4413ZM19.2859 4.26103L19.7396 6.00054L14.2946 7.45175L13.8413 5.71306L19.2859 4.26103ZM18.6307 24.0735L18.1771 22.334L23.622 20.8819L24.0753 22.6206L18.6307 24.0735Z" fill="black"/>
<path d="M5.41663 7.5H2.08329C1.85319 7.5 1.66663 7.68656 1.66663 7.91667V11.25C1.66663 11.4801 1.85319 11.6667 2.08329 11.6667H5.41663C5.64673 11.6667 5.83329 11.4801 5.83329 11.25V7.91667C5.83329 7.68656 5.64673 7.5 5.41663 7.5ZM4.99996 10.8333H2.49996V8.33333H4.99996V10.8333Z" fill="black"/>
</svg>
