<?xml version="1.0" encoding="utf-8"?>
<!-- Generator: Adobe Illustrator 27.5.0, SVG Export Plug-In . SVG Version: 6.00 Build 0)  -->
<svg version="1.1" xmlns="http://www.w3.org/2000/svg" xmlns:xlink="http://www.w3.org/1999/xlink" x="0px" y="0px"
	 viewBox="0 0 600 600" style="enable-background:new 0 0 600 600;" xml:space="preserve">
<g id="background">
</g>
<g id="objects">
	<g>
		<g>
			<g>
				<ellipse style="fill:#DBDBDB;" cx="300" cy="534.793" rx="104.588" ry="14.208"/>
			</g>
		</g>
		<g>
			<path style="fill:#FDC10D;" d="M435.995,186.014c0.22,30.926-9.883,59.482-27.068,82.433
				c-21.043,28.103-32.929,61.996-32.929,97.104v4.452c0,16.569-13.431,30-30,30h-92c-16.569,0-30-13.431-30-30v-2.959
				c0-35.773-11.975-70.352-33.29-99.082c-16.783-22.622-26.71-50.631-26.71-80.96c0-75.441,61.428-136.537,136.995-135.996
				C375.022,51.536,435.469,111.985,435.995,186.014z"/>
			<path style="fill:#575553;" d="M355.998,418.003h-112c-3.314,0-6-2.686-6-6v-6c0-3.314,2.686-6,6-6h112c3.314,0,6,2.686,6,6v6
				C361.998,415.316,359.312,418.003,355.998,418.003z"/>
			<path style="fill:#575553;" d="M355.998,436.003h-112c-3.314,0-6-2.686-6-6v-6c0-3.314,2.686-6,6-6h112c3.314,0,6,2.686,6,6v6
				C361.998,433.316,359.312,436.003,355.998,436.003z"/>
			<path style="fill:#575553;" d="M355.998,454.003h-112c-3.314,0-6-2.686-6-6v-6c0-3.314,2.686-6,6-6h112c3.314,0,6,2.686,6,6v6
				C361.998,451.316,359.312,454.003,355.998,454.003z"/>
			<path style="fill:#575553;" d="M355.998,472.003h-112c-3.314,0-6-2.686-6-6v-6c0-3.314,2.686-6,6-6h112c3.314,0,6,2.686,6,6v6
				C361.998,469.316,359.312,472.003,355.998,472.003z"/>
			<path style="fill:#575553;" d="M335.851,490.003h-71.706c-5.646,0-10.885-2.68-13.829-7.075l-7.318-10.925h114l-7.318,10.925
				C346.736,487.322,341.497,490.003,335.851,490.003z"/>
			<path style="fill:#575553;" d="M313.16,507.003h-26.324c-6.524,0-12.603-2.94-16.147-7.808l-6.691-9.192h72l-6.691,9.192
				C325.763,504.063,319.684,507.003,313.16,507.003z"/>
			<path style="fill:#423F3C;" d="M335.998,490.003l-6.69,9.19c-3.55,4.87-9.62,7.81-16.15,7.81h-26.32
				c-4.94,0-9.61-1.68-13.13-4.61c2.5,1.04,5.28,1.61,8.13,1.61h26.32c6.53,0,12.6-2.94,16.15-7.81l4.51-6.19H335.998z"/>
			<path style="fill:#EAA60F;" d="M435.998,186.013c0.22,30.93-9.89,59.48-27.07,82.43c-21.04,28.11-32.93,62-32.93,97.11v4.45
				c0,16.57-13.43,30-30,30h-92c-16.57,0-30-13.43-30-30v-2.96c0-1.53-0.02-3.06-0.08-4.59c5.79,7.36,15.31,15.55,29.08,15.55
				c24.87,0,48.17-8.37,66.86-22.74c18.68-14.38,32.76-34.76,39.16-58.8c4.46-16.76,11.737-33.687,18.98-50.46
				c38-88,8-206-135.73-182.17c17.8-8.37,37.72-12.98,58.72-12.83C375.018,51.533,435.468,111.983,435.998,186.013z"/>
			<path style="fill:#423F3C;" d="M361.998,406.003v6c0,3.31-2.69,6-6,6h-112c-3.31,0-6-2.69-6-6v-0.81c0.88,0.52,1.9,0.81,3,0.81
				h112c3.31,0,6-2.69,6-6v-5.19C360.788,401.843,361.998,403.783,361.998,406.003z"/>
			<path style="fill:#423F3C;" d="M361.998,424.003v6c0,3.31-2.69,6-6,6h-112c-3.31,0-6-2.69-6-6v-0.81c0.88,0.52,1.9,0.81,3,0.81
				h112c3.31,0,6-2.69,6-6v-5.19C360.788,419.843,361.998,421.783,361.998,424.003z"/>
			<path style="fill:#423F3C;" d="M361.998,442.003v6c0,3.31-2.69,6-6,6h-112c-3.31,0-6-2.69-6-6v-0.81c0.88,0.52,1.9,0.81,3,0.81
				h112c3.31,0,6-2.69,6-6v-5.19C360.788,437.843,361.998,439.783,361.998,442.003z"/>
			<path style="fill:#423F3C;" d="M361.998,460.003v6c0,3.31-2.69,6-6,6h-112c-3.31,0-6-2.69-6-6v-0.81c0.88,0.52,1.9,0.81,3,0.81
				h112c3.31,0,6-2.69,6-6v-5.19C360.788,455.843,361.998,457.783,361.998,460.003z"/>
			<path style="fill:#423F3C;" d="M356.998,472.003l-7.32,10.92c-2.94,4.4-8.18,7.08-13.83,7.08h-71.7
				c-5.65,0-10.89-2.68-13.83-7.08l-0.1-0.14c2.07,0.79,4.33,1.22,6.67,1.22h74.22c5.85,0,11.27-2.68,14.32-7.08l3.41-4.92H356.998z
				"/>
			<path style="fill:#8E8A86;" d="M264.998,407.003h-21c-1.105,0-2-0.895-2-2l0,0c0-1.105,0.895-2,2-2h21c1.105,0,2,0.895,2,2l0,0
				C266.998,406.107,266.103,407.003,264.998,407.003z"/>
			<path style="fill:#8E8A86;" d="M264.998,425.003h-21c-1.105,0-2-0.895-2-2l0,0c0-1.105,0.895-2,2-2h21c1.105,0,2,0.895,2,2l0,0
				C266.998,424.107,266.103,425.003,264.998,425.003z"/>
			<path style="fill:#8E8A86;" d="M264.998,443.003h-21c-1.105,0-2-0.895-2-2l0,0c0-1.105,0.895-2,2-2h21c1.105,0,2,0.895,2,2l0,0
				C266.998,442.107,266.103,443.003,264.998,443.003z"/>
			<path style="fill:#8E8A86;" d="M264.998,461.003h-21c-1.105,0-2-0.895-2-2l0,0c0-1.105,0.895-2,2-2h21c1.105,0,2,0.895,2,2l0,0
				C266.998,460.107,266.103,461.003,264.998,461.003z"/>
			<path style="fill:#8E8A86;" d="M274.998,479.003h-21c-1.105,0-2-0.895-2-2l0,0c0-1.105,0.895-2,2-2h21c1.105,0,2,0.895,2,2l0,0
				C276.998,478.107,276.103,479.003,274.998,479.003z"/>
			<path style="fill:#8E8A86;" d="M294.998,496.003h-21c-1.105,0-2-0.895-2-2l0,0c0-1.105,0.895-2,2-2h21c1.105,0,2,0.895,2,2l0,0
				C296.998,495.107,296.103,496.003,294.998,496.003z"/>
			<path style="fill:#FFE67D;" d="M242,285c0,0-100.101-55.825-42.511-159.922c1.906-3.446,6.164-4.826,9.724-3.144l22.259,10.511
				c3.875,1.83,5.408,6.53,3.371,10.3C225.474,160.092,206.19,210.197,242,285z"/>
			<path style="fill:#FFE67D;" d="M215.412,108.706l22.549,11.274c2.292,1.146,5.062,0.543,6.676-1.447
				c3.118-3.847,8.937-10.334,17.103-16.539c3.179-2.416,2.728-7.333-0.82-9.164l-20.567-10.615
				c-1.549-0.799-3.379-0.809-4.939-0.032c-4.599,2.291-14.425,8.047-21.968,18.422
				C211.461,103.334,212.394,107.197,215.412,108.706z"/>
		</g>
	</g>
</g>
</svg>
