<svg width="80" height="80" viewBox="0 0 80 80" fill="none" xmlns="http://www.w3.org/2000/svg">
<rect width="80" height="80" rx="10" fill="#3EA1BF"/>
<path fill-rule="evenodd" clip-rule="evenodd" d="M25 15C21.6863 15 19 17.6863 19 21V59C19 62.3137 21.6863 65 25 65H55C58.3137 65 61 62.3137 61 59V21C61 17.6863 58.3137 15 55 15H25ZM26.6962 56.0957C26.3869 56.0957 26.1362 56.0051 25.9442 55.8237C25.7629 55.6317 25.6722 55.3757 25.6722 55.0557V45.6957C25.6722 45.3864 25.7576 45.1464 25.9282 44.9757C26.1096 44.8051 26.3549 44.7197 26.6642 44.7197H30.6002C31.8056 44.7197 32.7442 45.0237 33.4162 45.6317C34.0882 46.2291 34.4242 47.0717 34.4242 48.1597C34.4242 49.2477 34.0882 50.0957 33.4162 50.7037C32.7442 51.3117 31.8056 51.6157 30.6002 51.6157H27.7362V55.0557C27.7362 55.3757 27.6402 55.6317 27.4482 55.8237C27.2669 56.0051 27.0162 56.0957 26.6962 56.0957ZM30.3442 50.0317C31.7629 50.0317 32.4722 49.4131 32.4722 48.1757C32.4722 46.9384 31.7629 46.3197 30.3442 46.3197H27.7362V50.0317H30.3442ZM36.9267 55.9997C36.6174 55.9997 36.3721 55.9144 36.1907 55.7437C36.0201 55.5731 35.9347 55.3331 35.9347 55.0237V45.6957C35.9347 45.3864 36.0201 45.1464 36.1907 44.9757C36.3721 44.8051 36.6174 44.7197 36.9267 44.7197H40.0947C41.9401 44.7197 43.3694 45.2157 44.3827 46.2077C45.4067 47.1891 45.9187 48.5704 45.9187 50.3517C45.9187 52.1437 45.4067 53.5357 44.3827 54.5277C43.3694 55.5091 41.9401 55.9997 40.0947 55.9997H36.9267ZM39.9667 54.3197C42.5587 54.3197 43.8547 52.9971 43.8547 50.3517C43.8547 47.7171 42.5587 46.3997 39.9667 46.3997H37.9987V54.3197H39.9667ZM47.9692 55.8077C48.1612 55.9997 48.4119 56.0957 48.7212 56.0957C49.0306 56.0957 49.2759 55.9997 49.4572 55.8077C49.6386 55.6157 49.7292 55.3651 49.7292 55.0557V51.0877H53.9852C54.6359 51.0877 54.9612 50.8157 54.9612 50.2717C54.9612 49.7171 54.6359 49.4397 53.9852 49.4397H49.7292V46.3677H54.3052C54.9559 46.3677 55.2812 46.0957 55.2812 45.5517C55.2812 44.9971 54.9559 44.7197 54.3052 44.7197H48.6892C48.3799 44.7197 48.1346 44.8051 47.9532 44.9757C47.7826 45.1464 47.6972 45.3864 47.6972 45.6957V55.0557C47.6972 55.3651 47.7879 55.6157 47.9692 55.8077Z" fill="#1C85A5"/>
</svg>
