<svg width="25" height="25" viewBox="0 0 25 25" fill="none" xmlns="http://www.w3.org/2000/svg">
<path fill-rule="evenodd" clip-rule="evenodd" d="M11.0529 17.8064C14.3027 14.0816 16.4034 11.6891 17.3549 10.629C18.1944 9.69356 18.993 8.87484 19.7507 8.17279V8.17279C20.0496 7.89587 20.0847 7.4089 19.8291 7.08512C19.8277 7.08346 19.8264 7.08181 19.8251 7.08016C19.66 6.87453 19.4409 6.64787 19.1678 6.40017C19.1516 6.38549 19.1356 6.37101 19.1197 6.35671C18.543 5.83701 17.693 5.89108 17.1764 6.48034L10.4904 14.1062C9.76192 13.1895 9.10136 12.4163 8.50869 11.7867C8.0315 11.2798 7.57789 10.8442 7.14786 10.48L7.14786 10.48C6.9371 10.3015 6.65178 10.266 6.40917 10.3881C6.15838 10.5144 5.9251 10.6941 5.70932 10.9272C5.5001 11.1532 5.29829 11.4393 5.10389 11.7853L5.10388 11.7853C4.906 12.1375 4.99878 12.5961 5.31452 12.8263C5.87917 13.2381 6.5755 13.8761 7.40349 14.7402C8.32724 15.7043 9.18767 16.7128 9.98479 17.7657L9.9848 17.7657C10.2342 18.0951 10.6829 18.1431 10.987 17.8729C11.0102 17.8523 11.0322 17.83 11.0529 17.8064Z" fill="#656565"/>
</svg>
