<svg width="20" height="20" viewBox="0 0 20 20" fill="none" xmlns="http://www.w3.org/2000/svg">
<path d="M19.3721 7.40637C18.6312 6.78472 17.5227 6.88198 16.9022 7.62145L15.2344 9.59505V3.87211C15.2344 3.39246 15.0349 2.92795 14.6872 2.59767L12.4614 0.48337C12.1333 0.171683 11.7034 0 11.2508 0H1.75781C0.788572 0 0 0.788572 0 1.75781V18.2422C0 19.2114 0.788572 20 1.75781 20H13.4766C14.4458 20 15.2344 19.2114 15.2344 18.2422V15.0405C15.3064 14.9552 19.5753 9.89873 19.5887 9.88283C20.2132 9.1386 20.1164 8.03092 19.3721 7.40637ZM11.7188 1.39417C14.0631 3.62109 13.8966 3.45832 13.9405 3.51566H11.7188V1.39417ZM14.0625 18.2422C14.0625 18.5653 13.7996 18.8281 13.4765 18.8281H1.75781C1.43472 18.8281 1.17186 18.5653 1.17186 18.2422V1.75781C1.17186 1.43472 1.43472 1.17186 1.75781 1.17186H10.5469V4.10153C10.5469 4.42513 10.8092 4.68748 11.1328 4.68748H14.0625V10.9817C13.8108 11.2795 11.7899 13.671 11.5714 13.9294C11.3969 14.1374 11.2713 14.3869 11.2083 14.6509L10.6637 16.9305C10.6122 17.1464 10.687 17.3729 10.857 17.5155C11.0272 17.6583 11.2633 17.6925 11.4667 17.6043L13.6171 16.6722C13.7786 16.6022 13.9292 16.5071 14.0625 16.3928V18.2422ZM12.6688 14.4465L13.5664 15.1996L13.3668 15.436C13.3087 15.5053 13.2341 15.561 13.1511 15.597L12.0759 16.063L12.3482 14.9233C12.3692 14.8352 12.411 14.7521 12.4679 14.6843L12.6688 14.4465ZM14.3223 14.3042L13.4252 13.5514C13.5162 13.4437 16.4603 9.95978 16.6639 9.71888L17.5592 10.4701L14.3223 14.3042ZM18.6922 9.1282L18.3152 9.5747L17.4204 8.82382L17.7986 8.37627C18.0052 8.13006 18.3732 8.09795 18.6188 8.30405C18.8693 8.51417 18.8969 8.88422 18.6922 9.1282Z" fill="#131B25"/>
<path d="M8.78908 3.51562H2.9297C2.6061 3.51562 2.34375 3.77797 2.34375 4.10158C2.34375 4.42518 2.6061 4.68753 2.9297 4.68753H8.78908C9.11268 4.68753 9.37503 4.42518 9.37503 4.10158C9.37503 3.77797 9.11268 3.51562 8.78908 3.51562Z" fill="#131B25"/>
<path d="M12.3047 7.07031H2.9297C2.6061 7.07031 2.34375 7.33266 2.34375 7.65626C2.34375 7.97986 2.6061 8.24221 2.9297 8.24221H12.3047C12.6283 8.24221 12.8907 7.97986 12.8907 7.65626C12.8907 7.33266 12.6283 7.07031 12.3047 7.07031Z" fill="#131B25"/>
<path d="M12.3047 10.5859H2.9297C2.6061 10.5859 2.34375 10.8483 2.34375 11.1719C2.34375 11.4955 2.6061 11.7578 2.9297 11.7578H12.3047C12.6283 11.7578 12.8907 11.4955 12.8907 11.1719C12.8907 10.8482 12.6283 10.5859 12.3047 10.5859Z" fill="#131B25"/>
<path d="M8.78908 14.1016H2.9297C2.6061 14.1016 2.34375 14.3639 2.34375 14.6875C2.34375 15.0111 2.6061 15.2735 2.9297 15.2735H8.78908C9.11268 15.2735 9.37503 15.0111 9.37503 14.6875C9.37503 14.3639 9.11268 14.1016 8.78908 14.1016Z" fill="#131B25"/>
</svg>
