<svg width="15" height="4" viewBox="0 0 15 4" fill="none" xmlns="http://www.w3.org/2000/svg">
<path fill-rule="evenodd" clip-rule="evenodd" d="M11.215 1.89252C11.215 2.93772 12.0623 3.78503 13.1075 3.78503C14.1527 3.78503 15 2.93772 15 1.89252C15 0.847309 14.1527 0 13.1075 0C12.0623 0 11.215 0.847309 11.215 1.89252Z" fill="#476FB1"/>
<path fill-rule="evenodd" clip-rule="evenodd" d="M5.60754 1.89252C5.60754 2.93772 6.45485 3.78503 7.50006 3.78503C8.54527 3.78503 9.39258 2.93772 9.39258 1.89252C9.39258 0.847309 8.54527 0 7.50006 0C6.45485 0 5.60754 0.847309 5.60754 1.89252Z" fill="#476FB1"/>
<path fill-rule="evenodd" clip-rule="evenodd" d="M9.53674e-07 1.89252C9.53674e-07 2.93772 0.84731 3.78503 1.89252 3.78503C2.93773 3.78503 3.78503 2.93772 3.78503 1.89252C3.78503 0.847309 2.93773 0 1.89252 0C0.84731 0 9.53674e-07 0.847309 9.53674e-07 1.89252Z" fill="#476FB1"/>
</svg>
