<svg xmlns="http://www.w3.org/2000/svg" width="31" height="21" viewBox="0 0 31 21" fill="none">
    <path d="M5.36308 18.2118V7.76044C5.65863 7.76044 5.77838 7.76044 6.96791 7.76044H9.51274C10.0921 7.76044 10.5617 7.3652 10.5617 6.79401C10.5617 6.22281 10.0921 5.75977 9.51274 5.75977H5.36308C4.24213 5.75977 3.33398 6.65519 3.33398 7.76044V18.2216C3.33398 19.3269 4.24213 20.2223 5.36308 20.2223H15.8838C17.0037 20.2223 17.9129 19.3266 17.9129 18.2216V14.0116C17.9129 13.4404 17.4432 12.9773 16.8639 12.9773C16.2846 12.9773 15.815 13.4404 15.815 14.0116V18.2118H5.36308Z" fill="#131B25"/>
    <path d="M17.9118 7.27559L17.919 10.5177C17.915 11.093 18.3413 11.5273 18.9165 11.5233C19.4918 11.5192 19.9614 11.0496 19.9654 10.4743L20.0137 3.63671L13.1836 3.61966C12.6084 3.62486 12.1397 4.0954 12.1368 4.67064C12.1338 5.24589 12.6031 5.66354 13.1784 5.65834L16.5719 5.69023L11.063 11.1991C10.6534 11.6087 10.6488 12.2682 11.0526 12.6721C11.4565 13.076 12.116 13.0714 12.5257 12.6618L17.9118 7.27559Z" fill="#131B25"/>
    </svg>