<svg width="33" height="39" viewBox="0 0 33 39" fill="none" xmlns="http://www.w3.org/2000/svg">
<path d="M27.1431 5.71428H12.8574C9.70144 5.71428 7.14307 8.27265 7.14307 11.4286V33.2773C7.14307 36.4332 9.70144 38.9916 12.8574 38.9916H27.1431C30.299 38.9916 32.8574 36.4332 32.8574 33.2773V11.4286C32.8574 8.27265 30.299 5.71428 27.1431 5.71428Z" fill="#C2A030"/>
<path d="M20 0H5.71429C2.55837 0 0 2.55837 0 5.71429V27.563C0 30.7189 2.55837 33.2773 5.71429 33.2773H20C23.1559 33.2773 25.7143 30.7189 25.7143 27.563V5.71429C25.7143 2.55837 23.1559 0 20 0Z" fill="#F7D047"/>
</svg>
