<svg width="80" height="80" viewBox="0 0 80 80" fill="none" xmlns="http://www.w3.org/2000/svg">
<rect width="80" height="80" rx="10" fill="#379B8D"/>
<path fill-rule="evenodd" clip-rule="evenodd" d="M48.2891 18C40.7288 18 34.5781 24.1507 34.5781 31.7109C34.5781 32.77 34.699 33.8187 34.9382 34.8415L17 52.7797V63H28.25V58.0781H33.1719V53.1562H38.0938V48.2344H41.9859L45.1586 45.0618C46.1813 45.301 47.2302 45.4219 48.2891 45.4219C55.8493 45.4219 62 39.2712 62 31.7109C62 24.1507 55.8493 18 48.2891 18ZM53.4286 28.1786C53.4286 29.6579 52.2293 30.8571 50.75 30.8571C49.2706 30.8571 48.0714 29.6579 48.0714 28.1786C48.0714 26.6992 49.2706 25.5 50.75 25.5C52.2293 25.5 53.4286 26.6992 53.4286 28.1786Z" fill="#157A6C"/>
</svg>
