<svg width="23" height="20" viewBox="0 0 23 20" fill="none" xmlns="http://www.w3.org/2000/svg">
    <path
        d="M20.5804 3.58305H15.9664V2.66636C15.9664 1.65526 15.1387 0.833008 14.1208 0.833008H8.58391C7.56604 0.833008 6.73828 1.65521 6.73828 2.66636V3.58301H2.12426C1.10634 3.58305 0.278625 4.40526 0.278625 5.41636V17.333C0.278625 18.3441 1.10634 19.1664 2.12426 19.1664H20.5805C21.5983 19.1664 22.4261 18.3441 22.4261 17.333V5.41636C22.4261 4.40526 21.5983 3.58305 20.5804 3.58305ZM7.66112 2.66636C7.66112 2.16104 8.07522 1.7497 8.58391 1.7497H14.1208C14.6295 1.7497 15.0436 2.16104 15.0436 2.66636V3.58301H7.66112V2.66636ZM21.5033 17.333C21.5033 17.8384 21.0892 18.2497 20.5805 18.2497H2.12426C1.61556 18.2497 1.20146 17.8384 1.20146 17.333V10.6614C1.47402 10.8193 1.7866 10.9164 2.12426 10.9164H9.50675V12.2914C9.50675 12.5447 9.71313 12.7497 9.96817 12.7497H12.7366C12.9916 12.7497 13.198 12.5447 13.198 12.2914V10.9164H20.5805C20.9182 10.9164 21.2308 10.8193 21.5033 10.6614V17.333H21.5033ZM10.4295 11.833V9.9997H12.2752V11.833H10.4295ZM21.5033 9.08305C21.5033 9.58836 21.0892 9.9997 20.5805 9.9997H13.198V9.54136C13.198 9.28801 12.9916 9.08301 12.7366 9.08301H9.96813C9.71309 9.08301 9.50671 9.28801 9.50671 9.54136V9.9997H2.12426C1.61556 9.9997 1.20146 9.58836 1.20146 9.08305V5.4164C1.20146 4.91109 1.61556 4.49975 2.12426 4.49975H20.5805C21.0892 4.49975 21.5033 4.91109 21.5033 5.4164V9.08305Z"
        fill="#F7D047" />
</svg>