<svg width="23" height="22" viewBox="0 0 23 22" fill="none" xmlns="http://www.w3.org/2000/svg">
<g clip-path="url(#clip0)">
<path d="M21.8253 1.07422C20.1571 1.07422 1.90219 1.07422 0.975632 1.07422C0.617294 1.07422 0.326782 1.3628 0.326782 1.71875C0.326782 2.0747 0.617294 2.36328 0.975632 2.36328H2.53287V20.2812C2.53287 20.4971 2.64175 20.6987 2.82282 20.8182C3.00415 20.9378 3.23354 20.9589 3.43347 20.8753L7.29123 19.2618L11.149 20.8753C11.3099 20.9426 11.4915 20.9426 11.6526 20.8753L15.5101 19.2618L19.3675 20.8753C19.5678 20.959 19.7972 20.9376 19.9782 20.8182C20.1593 20.6987 20.2681 20.4972 20.2681 20.2813V2.36328H21.8254C22.1837 2.36328 22.4742 2.0747 22.4742 1.71875C22.4742 1.3628 22.1837 1.07422 21.8253 1.07422ZM18.9704 19.3105L15.7618 17.9684C15.6008 17.9011 15.4192 17.9011 15.2582 17.9684L11.4007 19.5819L7.54294 17.9684C7.38198 17.9011 7.20035 17.9011 7.03939 17.9684L3.83057 19.3105V2.36328H18.9704V19.3105Z" fill="white"/>
<path d="M14.6433 4.51172H8.15544C7.79714 4.51172 7.50665 4.8003 7.50665 5.15625C7.50665 5.5122 7.79714 5.80078 8.15544 5.80078H14.6433C15.0016 5.80078 15.2921 5.5122 15.2921 5.15625C15.2921 4.8003 15.0016 4.51172 14.6433 4.51172Z" fill="white"/>
<path d="M16.1571 9.66797H10.1018C9.74349 9.66797 9.453 9.95655 9.453 10.3125C9.453 10.6685 9.74349 10.957 10.1018 10.957H16.1571C16.5154 10.957 16.8059 10.6685 16.8059 10.3125C16.8059 9.95655 16.5154 9.66797 16.1571 9.66797Z" fill="white"/>
<path d="M6.72815 11.1719C7.2059 11.1719 7.59319 10.7871 7.59319 10.3125C7.59319 9.83788 7.2059 9.45312 6.72815 9.45312C6.25039 9.45312 5.8631 9.83788 5.8631 10.3125C5.8631 10.7871 6.25039 11.1719 6.72815 11.1719Z" fill="white"/>
<path d="M16.1571 13.1055H10.1018C9.74349 13.1055 9.453 13.394 9.453 13.75C9.453 14.106 9.74349 14.3945 10.1018 14.3945H16.1571C16.5154 14.3945 16.8059 14.106 16.8059 13.75C16.8059 13.394 16.5154 13.1055 16.1571 13.1055Z" fill="white"/>
<path d="M6.72815 14.6094C7.2059 14.6094 7.59319 14.2246 7.59319 13.75C7.59319 13.2754 7.2059 12.8906 6.72815 12.8906C6.25039 12.8906 5.8631 13.2754 5.8631 13.75C5.8631 14.2246 6.25039 14.6094 6.72815 14.6094Z" fill="white"/>
</g>
<defs>
<clipPath id="clip0">
<rect x="0.326782" width="22.1474" height="22" fill="white"/>
</clipPath>
</defs>
</svg>
