<?xml version="1.0" encoding="utf-8"?>
<!-- Generator: Adobe Illustrator 27.7.0, SVG Export Plug-In . SVG Version: 6.00 Build 0)  -->
<svg version="1.1" id="Layer_1" xmlns="http://www.w3.org/2000/svg" xmlns:xlink="http://www.w3.org/1999/xlink" x="0px" y="0px"
	 viewBox="0 0 256 256" style="enable-background:new 0 0 256 256;" xml:space="preserve">
<style type="text/css">
	.st0{fill:#379B8D;}
</style>
<g transform="translate(1.4065934065934016 1.4065934065934016) scale(2.81 2.81)">
	<path class="st0" d="M45,0C20.1,0,0,20.1,0,45s20.1,45,45,45s45-20.1,45-45S69.9,0,45,0z M71.5,34.3H57.6l4.7-4.7
		c-2.9-3.1-6.6-5.3-10.7-6.4c-5.9-1.6-12-0.8-17.2,2.3c-5.3,3-9,7.9-10.6,13.8s-0.8,12,2.3,17.2c3,5.3,7.9,9,13.8,10.6
		c9.8,2.6,20.2-1.6,25.4-10.3l5.6,3.3c-5.3,8.9-15,14.2-25.1,14.2c-2.5,0-5-0.3-7.5-1c-7.5-2-13.8-6.9-17.7-13.6
		c-3.9-6.8-4.9-14.6-2.9-22.2s6.9-13.8,13.6-17.7c6.8-3.9,14.6-4.9,22.2-2.9c5.2,1.4,9.9,4.2,13.6,8.1l4.6-4.6L71.5,34.3L71.5,34.3z
		"/>
</g>
</svg>
