<svg width="33" height="20" viewBox="0 0 33 20" fill="none" xmlns="http://www.w3.org/2000/svg">
<path d="M0.64453 0.0742188H21.3554C21.7114 0.0742188 22 0.362796 22 0.718749C22 1.0747 21.7114 1.36328 21.3555 1.36328H19.8086V19.2813C19.8086 19.4972 19.7005 19.6987 19.5206 19.8182C19.3408 19.9376 19.1129 19.959 18.9139 19.8753L15.0822 18.2618L11.2504 19.8753C11.0904 19.9426 10.91 19.9426 10.7502 19.8753L6.91808 18.2618L3.08601 19.8753C2.88741 19.9589 2.65955 19.9378 2.47942 19.8182C2.29955 19.6987 2.1914 19.4971 2.1914 19.2812V1.36328H0.64453C0.288578 1.36328 0 1.0747 0 0.718749C0 0.362796 0.288578 0.0742188 0.64453 0.0742188Z" fill="#ADADAD"/>
<path d="M14.2226 3.51172H7.77734C7.42139 3.51172 7.13281 3.8003 7.13281 4.15625C7.13281 4.5122 7.42139 4.80078 7.77734 4.80078H14.2226C14.5786 4.80078 14.8672 4.5122 14.8672 4.15625C14.8672 3.8003 14.5786 3.51172 14.2226 3.51172Z" fill="white"/>
<path d="M15.7265 8.66797H9.71094C9.35498 8.66797 9.06641 8.95655 9.06641 9.3125C9.06641 9.66845 9.35498 9.95703 9.71094 9.95703H15.7265C16.0825 9.95703 16.3711 9.66845 16.3711 9.3125C16.3711 8.95655 16.0825 8.66797 15.7265 8.66797Z" fill="white"/>
<path d="M6.35937 10.1719C6.83399 10.1719 7.21875 9.78712 7.21875 9.3125C7.21875 8.83788 6.83399 8.45312 6.35937 8.45312C5.88475 8.45312 5.5 8.83788 5.5 9.3125C5.5 9.78712 5.88475 10.1719 6.35937 10.1719Z" fill="white"/>
<path d="M15.7265 12.1055H9.71094C9.35498 12.1055 9.06641 12.394 9.06641 12.75C9.06641 13.106 9.35498 13.3945 9.71094 13.3945H15.7265C16.0825 13.3945 16.3711 13.106 16.3711 12.75C16.3711 12.394 16.0825 12.1055 15.7265 12.1055Z" fill="white"/>
<path d="M6.35937 13.6094C6.83399 13.6094 7.21875 13.2246 7.21875 12.75C7.21875 12.2754 6.83399 11.8906 6.35937 11.8906C5.88475 11.8906 5.5 12.2754 5.5 12.75C5.5 13.2246 5.88475 13.6094 6.35937 13.6094Z" fill="white"/>
<circle cx="27.5" cy="10.5" r="5" fill="#ADADAD" stroke="#ADADAD"/>
<line x1="24" y1="10.5" x2="31" y2="10.5" stroke="#FFF5D1"/>
<line x1="27.5" y1="14" x2="27.5" y2="7" stroke="#FFF5D1"/>
</svg>
