<svg width="25" height="25" viewBox="0 0 25 25" fill="none" xmlns="http://www.w3.org/2000/svg">
<path d="M18.7487 14.8231V18.7072C18.7487 18.7375 18.7496 18.7615 18.7193 18.7615H6.31242C6.2821 18.7615 6.25815 18.7375 6.25815 18.7072V14.8132C6.25815 14.2369 5.7908 13.7978 5.21447 13.7978C4.63815 13.7978 4.18359 14.2369 4.18359 14.8132V18.6296C4.18359 19.8126 5.05852 20.7709 6.24148 20.7709H18.7193C19.9022 20.7709 20.8274 19.8126 20.8274 18.6296V14.8231C20.8274 14.2467 20.3651 13.7795 19.7887 13.7795C19.2124 13.7795 18.7487 14.2467 18.7487 14.8231Z" fill="#379B8D"/>
<path d="M11.4587 12.9039L9.83892 11.3511C9.42289 10.9523 8.76231 10.9662 8.36348 11.3823C7.96465 11.7983 7.97859 12.4589 8.39462 12.8577L12.4694 16.764L16.7467 12.8766C17.1732 12.489 17.2047 11.829 16.8171 11.4026C16.4294 10.9761 15.7695 10.9445 15.343 11.3322L13.5457 12.9656L13.5457 5.29716C13.5457 4.72658 13.0785 4.26404 12.5022 4.26404C11.9259 4.26404 11.4587 4.72658 11.4587 5.29716L11.4587 12.9039Z" fill="#379B8D"/>
</svg>
