<svg width="22" height="22" viewBox="0 0 22 22" fill="none" xmlns="http://www.w3.org/2000/svg">
<path fill-rule="evenodd" clip-rule="evenodd" d="M21.6159 2.40525L20.5944 3.29855L21.6159 4.19203C21.7747 4.33116 21.8291 4.54818 21.7543 4.74492C21.6795 4.94166 21.4944 5.06884 21.2825 5.06884H17.0556V10.1458H19.1752C19.8346 10.1458 20.3712 10.6788 20.3712 11.3339V20.304H21.2823C21.4758 20.304 21.6326 20.4598 21.6326 20.652C21.6326 20.8442 21.4758 21 21.2823 21H0.625974C0.432476 21 0.275635 20.8442 0.275635 20.652C0.275635 20.4598 0.432476 20.304 0.625974 20.304H1.46708V19.0576C1.46708 18.4024 2.00362 17.8696 2.66308 17.8696H5.52251C5.69923 17.8696 5.86683 17.908 6.01784 17.9766V16.9721C6.01784 16.317 6.55438 15.7841 7.21403 15.7841H10.102C10.2573 15.7841 10.4132 15.8127 10.5522 15.8843V14.8682C10.5522 13.9669 10.8133 13.6131 11.5373 13.6131H14.5733C14.778 13.6131 14.9276 13.6555 15.0691 13.7923V11.3339C15.0691 10.6715 15.5543 10.1458 16.3549 10.1458V1.34801C16.3549 1.1558 16.5118 1 16.7053 1C16.8988 1 17.0556 1.1558 17.0556 1.34801V1.52844H21.2827C21.4944 1.52844 21.6795 1.65562 21.7545 1.85254C21.8291 2.04927 21.7747 2.26612 21.6159 2.40525ZM2.66285 18.5656C2.38969 18.5656 2.16758 18.7862 2.16758 19.0574V20.304H6.01747V19.0574C6.01747 18.7862 5.79517 18.5656 5.52201 18.5656H2.66285ZM6.71793 19.0575V16.9721C6.71793 16.7008 6.94023 16.4801 7.21339 16.4801H10.0725C10.3457 16.4801 10.5678 16.7008 10.5678 16.9721V20.304H6.71812V19.0575H6.71793ZM19.6697 20.304V11.3339C19.6697 11.0628 19.4474 10.8419 19.1743 10.8419H16.7083L16.7048 10.8421L16.7012 10.8419H16.3153C16.0421 10.8419 15.8198 11.0626 15.8198 11.3339V16.4763C15.8198 16.6685 15.6632 16.8243 15.4695 16.8243C15.2761 16.8243 15.1192 16.6685 15.1192 16.4763V14.7318C15.1192 14.4606 14.8971 14.2399 14.624 14.2399H11.7648C11.4916 14.2399 11.2695 14.4606 11.2695 14.7318V20.304H15.1192V18.2175C15.1192 18.0252 15.2761 17.8694 15.4697 17.8694C15.6632 17.8694 15.82 18.0252 15.82 18.2175V20.304H19.6697ZM17.0555 4.37261V2.22461H20.7615L19.9634 2.9228C19.8547 3.01791 19.7923 3.15486 19.7923 3.2987C19.7923 3.44254 19.8547 3.5795 19.9634 3.67461L20.7615 4.3728H17.0555V4.37261ZM7.42179 12.0143C4.38895 14.3552 0.532233 16.3582 0.532233 16.3582C0.363362 16.3582 0.275635 16.27 0.275635 16.0941C0.275635 16.0941 4.78776 13.4489 7.61946 10.9261C9.60757 9.15477 10.5136 8.16517 11.2 7.41542C11.4913 7.09729 11.743 6.82234 12.0211 6.54918L11.1092 5.68822C11.0461 5.58417 11.1092 5.49388 11.266 5.49388C11.266 5.49388 13.6508 5.50902 13.7023 5.50902C13.7538 5.50902 13.8115 5.55998 13.8249 5.60643C13.8383 5.65289 13.928 7.99803 13.928 7.99803C13.9344 8.1267 13.8446 8.20115 13.7475 8.15764L12.8402 7.30637C11.9888 8.1595 10.4546 9.67331 7.42179 12.0143Z" fill="#0b63bc"/>
<path d="M20.5944 3.29855L20.4627 3.148L20.2906 3.29853L20.4627 3.44909L20.5944 3.29855ZM21.6159 2.40525L21.7475 2.5558L21.7476 2.5557L21.6159 2.40525ZM21.6159 4.19203L21.7476 4.04158L21.7475 4.04149L21.6159 4.19203ZM21.7543 4.74492L21.5673 4.67387V4.67387L21.7543 4.74492ZM17.0556 5.06884V4.86884H16.8556V5.06884H17.0556ZM17.0556 10.1458H16.8556V10.3458H17.0556V10.1458ZM20.3712 20.304H20.1712V20.504H20.3712V20.304ZM1.46708 20.304V20.504H1.66708V20.304H1.46708ZM6.01784 17.9766L5.93506 18.1587L6.21784 18.2873V17.9766H6.01784ZM10.5522 15.8843L10.4606 16.0621L10.7522 16.2123V15.8843H10.5522ZM15.0691 13.7923L14.9301 13.9361L15.2691 14.2639V13.7923H15.0691ZM16.3549 10.1458V10.3458H16.5549V10.1458H16.3549ZM17.0556 1.52844H16.8556V1.72844H17.0556V1.52844ZM21.7545 1.85254L21.9415 1.78163L21.9414 1.78139L21.7545 1.85254ZM2.16758 20.304H1.96758V20.504H2.16758V20.304ZM6.01747 20.304V20.504H6.21746V20.304H6.01747ZM6.71793 19.0575H6.51793V19.2575H6.71793V19.0575ZM10.5678 20.304V20.504H10.7678V20.304H10.5678ZM6.71812 20.304H6.51812V20.504H6.71812V20.304ZM6.71812 19.0575H6.91812V18.8575H6.71812V19.0575ZM19.6697 20.304V20.504H19.8697V20.304H19.6697ZM16.7083 10.8419V10.6416L16.6978 10.6422L16.7083 10.8419ZM16.7048 10.8421L16.6949 11.0419L16.7051 11.0424L16.7153 11.0418L16.7048 10.8421ZM16.7012 10.8419L16.7111 10.6419H16.7012V10.8419ZM11.2695 20.304H11.0695V20.504H11.2695V20.304ZM15.1192 20.304V20.504H15.3192V20.304H15.1192ZM15.82 20.304H15.62V20.504H15.82V20.304ZM17.0555 2.22461V2.02461H16.8555V2.22461H17.0555ZM20.7615 2.22461L20.8932 2.37514L21.2939 2.02461H20.7615V2.22461ZM19.9634 2.9228L19.8317 2.77226L19.8317 2.77229L19.9634 2.9228ZM19.9634 3.67461L19.8317 3.82512L19.8317 3.82514L19.9634 3.67461ZM20.7615 4.3728V4.5728H21.2939L20.8932 4.22226L20.7615 4.3728ZM17.0555 4.3728H16.8555V4.5728H17.0555V4.3728ZM0.532233 16.3582V16.5582H0.581071L0.624413 16.5357L0.532233 16.3582ZM7.42179 12.0143L7.54399 12.1726L7.42179 12.0143ZM0.275635 16.0941L0.174486 15.9216L0.0756348 15.9795V16.0941H0.275635ZM7.61946 10.9261L7.75251 11.0754L7.61946 10.9261ZM11.2 7.41542L11.3476 7.55048L11.2 7.41542ZM12.0211 6.54918L12.1613 6.69186L12.3094 6.54633L12.1584 6.40376L12.0211 6.54918ZM11.1092 5.68822L10.9382 5.79195L10.9522 5.81508L10.9719 5.83364L11.1092 5.68822ZM11.266 5.49388L11.2673 5.29388H11.266V5.49388ZM13.8249 5.60643L13.6328 5.66188L13.6328 5.66189L13.8249 5.60643ZM13.928 7.99803L13.7281 8.00567L13.7282 8.00809L13.928 7.99803ZM13.7475 8.15764L13.6107 8.30349L13.6352 8.32643L13.6658 8.34015L13.7475 8.15764ZM12.8402 7.30637L12.9771 7.16051L12.8356 7.02783L12.6987 7.16509L12.8402 7.30637ZM20.726 3.4491L21.7475 2.5558L21.4842 2.2547L20.4627 3.148L20.726 3.4491ZM21.7475 4.04149L20.7261 3.14801L20.4627 3.44909L21.4842 4.34256L21.7475 4.04149ZM21.9412 4.81598C22.0458 4.54076 21.969 4.23551 21.7476 4.04158L21.4841 4.34247C21.5804 4.4268 21.6123 4.5556 21.5673 4.67387L21.9412 4.81598ZM21.2825 5.26884C21.5768 5.26884 21.8367 5.09097 21.9412 4.81598L21.5673 4.67387C21.5223 4.79236 21.412 4.86884 21.2825 4.86884V5.26884ZM17.0556 5.26884H21.2825V4.86884H17.0556V5.26884ZM17.2556 10.1458V5.06884H16.8556V10.1458H17.2556ZM19.1752 9.94585H17.0556V10.3458H19.1752V9.94585ZM20.5712 11.3339C20.5712 10.5671 19.9438 9.94585 19.1752 9.94585V10.3458C19.7254 10.3458 20.1712 10.7905 20.1712 11.3339H20.5712ZM20.5712 20.304V11.3339H20.1712V20.304H20.5712ZM21.2823 20.104H20.3712V20.504H21.2823V20.104ZM21.8326 20.652C21.8326 20.3481 21.585 20.104 21.2823 20.104V20.504C21.3666 20.504 21.4326 20.5715 21.4326 20.652H21.8326ZM21.2823 21.2C21.585 21.2 21.8326 20.9559 21.8326 20.652H21.4326C21.4326 20.7325 21.3666 20.8 21.2823 20.8V21.2ZM0.625974 21.2H21.2823V20.8H0.625974V21.2ZM0.0756348 20.652C0.0756348 20.9559 0.32328 21.2 0.625974 21.2V20.8C0.541672 20.8 0.475635 20.7325 0.475635 20.652H0.0756348ZM0.625974 20.104C0.32328 20.104 0.0756348 20.3481 0.0756348 20.652H0.475635C0.475635 20.5715 0.541672 20.504 0.625974 20.504V20.104ZM1.46708 20.104H0.625974V20.504H1.46708V20.104ZM1.26708 19.0576V20.304H1.66708V19.0576H1.26708ZM2.66308 17.6696C1.89445 17.6696 1.26708 18.2906 1.26708 19.0576H1.66708C1.66708 18.5141 2.1128 18.0696 2.66308 18.0696V17.6696ZM5.52251 17.6696H2.66308V18.0696H5.52251V17.6696ZM6.10062 17.7946C5.92428 17.7144 5.72851 17.6696 5.52251 17.6696V18.0696C5.66996 18.0696 5.80939 18.1016 5.93506 18.1587L6.10062 17.7946ZM5.81784 16.9721V17.9766H6.21784V16.9721H5.81784ZM7.21403 15.5841C6.44521 15.5841 5.81784 16.2053 5.81784 16.9721H6.21784C6.21784 16.4288 6.66356 15.9841 7.21403 15.9841V15.5841ZM10.102 15.5841H7.21403V15.9841H10.102V15.5841ZM10.6437 15.7065C10.47 15.617 10.281 15.5841 10.102 15.5841V15.9841C10.2336 15.9841 10.3564 16.0085 10.4606 16.0621L10.6437 15.7065ZM10.3522 14.8682V15.8843H10.7522V14.8682H10.3522ZM11.5373 13.4131C11.1454 13.4131 10.8248 13.5095 10.6151 13.7802C10.4164 14.0368 10.3522 14.4089 10.3522 14.8682H10.7522C10.7522 14.4262 10.8185 14.1708 10.9314 14.0252C11.0333 13.8936 11.2053 13.8131 11.5373 13.8131V13.4131ZM14.5733 13.4131H11.5373V13.8131H14.5733V13.4131ZM15.2081 13.6485C15.019 13.4656 14.8134 13.4131 14.5733 13.4131V13.8131C14.7426 13.8131 14.8362 13.8453 14.9301 13.9361L15.2081 13.6485ZM14.8691 11.3339V13.7923H15.2691V11.3339H14.8691ZM16.3549 9.94585C15.9097 9.94585 15.5361 10.0928 15.2727 10.3477C15.0095 10.6024 14.8691 10.9527 14.8691 11.3339H15.2691C15.2691 11.0527 15.3713 10.8089 15.5508 10.6352C15.7301 10.4617 15.9995 10.3458 16.3549 10.3458V9.94585ZM16.1549 1.34801V10.1458H16.5549V1.34801H16.1549ZM16.7053 0.8C16.4026 0.8 16.1549 1.04408 16.1549 1.34801H16.5549C16.5549 1.26751 16.621 1.2 16.7053 1.2V0.8ZM17.2556 1.34801C17.2556 1.04408 17.008 0.8 16.7053 0.8V1.2C16.7896 1.2 16.8556 1.26751 16.8556 1.34801H17.2556ZM17.2556 1.52844V1.34801H16.8556V1.52844H17.2556ZM21.2827 1.32844H17.0556V1.72844H21.2827V1.32844ZM21.9414 1.78139C21.8367 1.5064 21.5769 1.32844 21.2827 1.32844V1.72844C21.4119 1.72844 21.5223 1.80483 21.5675 1.92368L21.9414 1.78139ZM21.7476 2.5557C21.969 2.36179 22.0458 2.05679 21.9415 1.78163L21.5675 1.92344C21.6123 2.04176 21.5804 2.17045 21.4841 2.2548L21.7476 2.5557ZM2.36758 19.0574C2.36758 18.8979 2.49885 18.7656 2.66285 18.7656V18.3656C2.28052 18.3656 1.96758 18.6745 1.96758 19.0574H2.36758ZM2.36758 20.304V19.0574H1.96758V20.304H2.36758ZM6.01747 20.104H2.16758V20.504H6.01747V20.104ZM5.81747 19.0574V20.304H6.21746V19.0574H5.81747ZM5.52201 18.7656C5.6861 18.7656 5.81747 18.898 5.81747 19.0574H6.21746C6.21746 18.6744 5.90424 18.3656 5.52201 18.3656V18.7656ZM2.66285 18.7656H5.52201V18.3656H2.66285V18.7656ZM6.51793 16.9721V19.0575H6.91793V16.9721H6.51793ZM7.21339 16.2801C6.83111 16.2801 6.51793 16.589 6.51793 16.9721H6.91793C6.91793 16.8125 7.04934 16.6801 7.21339 16.6801V16.2801ZM10.0725 16.2801H7.21339V16.6801H10.0725V16.2801ZM10.7678 16.9721C10.7678 16.5891 10.4549 16.2801 10.0725 16.2801V16.6801C10.2365 16.6801 10.3678 16.8125 10.3678 16.9721H10.7678ZM10.7678 20.304V16.9721H10.3678V20.304H10.7678ZM6.71812 20.504H10.5678V20.104H6.71812V20.504ZM6.51812 19.0575V20.304H6.91812V19.0575H6.51812ZM6.71793 19.2575H6.71812V18.8575H6.71793V19.2575ZM19.4697 11.3339V20.304H19.8697V11.3339H19.4697ZM19.1743 11.0419C19.3383 11.0419 19.4697 11.1745 19.4697 11.3339H19.8697C19.8697 10.951 19.5566 10.6419 19.1743 10.6419V11.0419ZM16.7083 11.0419H19.1743V10.6419H16.7083V11.0419ZM16.7153 11.0418L16.7187 11.0416L16.6978 10.6422L16.6944 10.6424L16.7153 11.0418ZM16.6912 11.0417L16.6949 11.0419L16.7147 10.6423L16.7111 10.6422L16.6912 11.0417ZM16.3153 11.0419H16.7012V10.6419H16.3153V11.0419ZM16.0198 11.3339C16.0198 11.1744 16.1512 11.0419 16.3153 11.0419V10.6419C15.933 10.6419 15.6198 10.9508 15.6198 11.3339H16.0198ZM16.0198 16.4763V11.3339H15.6198V16.4763H16.0198ZM15.4695 17.0243C15.7725 17.0243 16.0198 16.7802 16.0198 16.4763H15.6198C15.6198 16.5569 15.5539 16.6243 15.4695 16.6243V17.0243ZM14.9192 16.4763C14.9192 16.7802 15.1668 17.0243 15.4695 17.0243V16.6243C15.3853 16.6243 15.3192 16.5568 15.3192 16.4763H14.9192ZM14.9192 14.7318V16.4763H15.3192V14.7318H14.9192ZM14.624 14.4399C14.788 14.4399 14.9192 14.5723 14.9192 14.7318H15.3192C15.3192 14.3488 15.0063 14.0399 14.624 14.0399V14.4399ZM11.7648 14.4399H14.624V14.0399H11.7648V14.4399ZM11.4695 14.7318C11.4695 14.5723 11.6008 14.4399 11.7648 14.4399V14.0399C11.3825 14.0399 11.0695 14.3488 11.0695 14.7318H11.4695ZM11.4695 20.304V14.7318H11.0695V20.304H11.4695ZM15.1192 20.104H11.2695V20.504H15.1192V20.104ZM14.9192 18.2175V20.304H15.3192V18.2175H14.9192ZM15.4697 17.6694C15.1669 17.6694 14.9192 17.9135 14.9192 18.2175H15.3192C15.3192 18.137 15.3852 18.0694 15.4697 18.0694V17.6694ZM16.02 18.2175C16.02 17.9135 15.7724 17.6694 15.4697 17.6694V18.0694C15.554 18.0694 15.62 18.1369 15.62 18.2175H16.02ZM16.02 20.304V18.2175H15.62V20.304H16.02ZM19.6697 20.104H15.82V20.504H19.6697V20.104ZM16.8555 2.22461V4.37261H17.2555V2.22461H16.8555ZM20.7615 2.02461H17.0555V2.42461H20.7615V2.02461ZM20.095 3.07333L20.8932 2.37514L20.6299 2.07407L19.8317 2.77226L20.095 3.07333ZM19.9923 3.2987C19.9923 3.21287 20.0295 3.13066 20.0951 3.07331L19.8317 2.77229C19.6798 2.90515 19.5923 3.09686 19.5923 3.2987H19.9923ZM20.0951 3.5241C20.0295 3.46675 19.9923 3.38454 19.9923 3.2987H19.5923C19.5923 3.50055 19.6798 3.69225 19.8317 3.82512L20.0951 3.5241ZM20.8932 4.22226L20.095 3.52407L19.8317 3.82514L20.6299 4.52333L20.8932 4.22226ZM17.0555 4.5728H20.7615V4.1728H17.0555V4.5728ZM16.8555 4.37261V4.3728H17.2555V4.37261H16.8555ZM0.532233 16.3582C0.624413 16.5357 0.624441 16.5357 0.624484 16.5357C0.624518 16.5357 0.624576 16.5356 0.624643 16.5356C0.624779 16.5355 0.624973 16.5354 0.625226 16.5353C0.625731 16.535 0.626469 16.5346 0.627438 16.5341C0.629377 16.5331 0.63224 16.5316 0.63601 16.5297C0.64355 16.5257 0.654715 16.5199 0.669364 16.5122C0.698661 16.4968 0.741893 16.4739 0.797916 16.4441C0.90996 16.3844 1.07318 16.2966 1.27843 16.184C1.68889 15.9588 2.26763 15.6343 2.9414 15.2363C4.28798 14.441 6.01827 13.3503 7.54399 12.1726L7.29958 11.856C5.79246 13.0193 4.07798 14.1005 2.73799 14.8919C2.06848 15.2873 1.49348 15.6098 1.08604 15.8333C0.88233 15.9451 0.720551 16.0321 0.609833 16.0911C0.554475 16.1206 0.511887 16.1431 0.483208 16.1581C0.468869 16.1657 0.458008 16.1714 0.450768 16.1751C0.447148 16.177 0.444433 16.1785 0.442641 16.1794C0.441745 16.1799 0.44108 16.1802 0.440648 16.1804C0.440432 16.1805 0.440274 16.1806 0.440175 16.1807C0.440126 16.1807 0.440095 16.1807 0.44007 16.1807C0.440054 16.1807 0.440053 16.1807 0.532233 16.3582ZM0.0756348 16.0941C0.0756348 16.2128 0.10531 16.3375 0.197576 16.4319C0.290638 16.5272 0.414734 16.5582 0.532233 16.5582V16.1582C0.480862 16.1582 0.476658 16.1452 0.483639 16.1523C0.489823 16.1587 0.475635 16.1514 0.475635 16.0941H0.0756348ZM7.48642 10.7767C6.08153 12.0284 4.25519 13.3141 2.77561 14.2892C2.0367 14.7761 1.38599 15.1845 0.920116 15.471C0.687201 15.6143 0.500545 15.7271 0.372233 15.804C0.308079 15.8424 0.258515 15.8719 0.225053 15.8917C0.208321 15.9016 0.195616 15.9091 0.187125 15.9142C0.18288 15.9167 0.179688 15.9185 0.177574 15.9198C0.176517 15.9204 0.175729 15.9209 0.175213 15.9212C0.174955 15.9213 0.174766 15.9214 0.174644 15.9215C0.174584 15.9215 0.174544 15.9216 0.174514 15.9216C0.174492 15.9216 0.174486 15.9216 0.275635 16.0941C0.376783 16.2667 0.376812 16.2666 0.376859 16.2666C0.376897 16.2666 0.376961 16.2666 0.377037 16.2665C0.377191 16.2664 0.377413 16.2663 0.377703 16.2661C0.378283 16.2658 0.379136 16.2653 0.380258 16.2646C0.382503 16.2633 0.385826 16.2613 0.390205 16.2588C0.398961 16.2536 0.411938 16.2459 0.428946 16.2359C0.462962 16.2157 0.513104 16.1859 0.577859 16.1471C0.707365 16.0695 0.895342 15.9559 1.12968 15.8117C1.59832 15.5235 2.25263 15.1129 2.99571 14.6232C4.48012 13.6449 6.32569 12.3466 7.75251 11.0754L7.48642 10.7767ZM11.0525 7.28037C10.3691 8.02688 9.46795 9.01131 7.48642 10.7767L7.75251 11.0754C9.74719 9.29824 10.6582 8.30346 11.3476 7.55048L11.0525 7.28037ZM11.881 6.4065C11.5985 6.684 11.3432 6.9629 11.0525 7.28037L11.3476 7.55048C11.6394 7.23167 11.8876 6.96068 12.1613 6.69186L11.881 6.4065ZM10.9719 5.83364L11.8838 6.69461L12.1584 6.40376L11.2465 5.54279L10.9719 5.83364ZM11.266 5.29388C11.1578 5.29388 11.0283 5.32434 10.9469 5.42976C10.8542 5.54967 10.8776 5.69207 10.9382 5.79195L11.2802 5.58448C11.2783 5.58141 11.2845 5.59015 11.285 5.60955C11.2855 5.63121 11.2782 5.6551 11.2634 5.67431C11.2498 5.69185 11.2368 5.69685 11.2365 5.69694C11.2364 5.69697 11.2452 5.69388 11.266 5.69388V5.29388ZM13.7023 5.30902C13.6774 5.30902 13.0695 5.30524 12.4661 5.30145C12.1648 5.29956 11.8651 5.29767 11.6407 5.29625C11.5285 5.29554 11.4351 5.29495 11.3698 5.29453C11.3372 5.29433 11.3115 5.29416 11.294 5.29405C11.2853 5.294 11.2786 5.29396 11.2741 5.29393C11.2718 5.29391 11.2701 5.2939 11.269 5.29389C11.2684 5.29389 11.268 5.29389 11.2677 5.29389C11.2675 5.29389 11.2674 5.29388 11.2674 5.29388C11.2673 5.29388 11.2673 5.29388 11.2673 5.29388C11.2673 5.29388 11.2673 5.29388 11.266 5.49388C11.2647 5.69388 11.2647 5.69388 11.2647 5.69388C11.2648 5.69388 11.2648 5.69388 11.2648 5.69388C11.2649 5.69388 11.265 5.69388 11.2651 5.69388C11.2654 5.69388 11.2659 5.69388 11.2664 5.69389C11.2676 5.69389 11.2693 5.6939 11.2716 5.69392C11.2761 5.69395 11.2828 5.69399 11.2915 5.69405C11.309 5.69416 11.3346 5.69432 11.3673 5.69453C11.4326 5.69494 11.526 5.69553 11.6381 5.69624C11.8625 5.69766 12.1622 5.69955 12.4636 5.70144C13.0654 5.70522 13.6757 5.70902 13.7023 5.70902V5.30902ZM14.0171 5.55099C13.9963 5.47896 13.9496 5.42258 13.905 5.38588C13.8609 5.34956 13.79 5.30902 13.7023 5.30902V5.70902C13.6827 5.70902 13.6691 5.70433 13.6626 5.70158C13.656 5.69872 13.6523 5.69599 13.6508 5.69473C13.6492 5.69343 13.6472 5.6915 13.6447 5.68805C13.6426 5.68505 13.637 5.67659 13.6328 5.66188L14.0171 5.55099ZM13.928 7.99803C14.1278 7.99039 14.1278 7.99038 14.1278 7.99036C14.1278 7.99034 14.1278 7.99031 14.1278 7.99028C14.1278 7.99021 14.1278 7.9901 14.1278 7.98996C14.1278 7.98967 14.1278 7.98925 14.1278 7.98868C14.1277 7.98755 14.1276 7.98587 14.1276 7.98364C14.1274 7.9792 14.1271 7.97261 14.1268 7.96401C14.1261 7.94681 14.1252 7.92158 14.1239 7.88946C14.1215 7.82522 14.1179 7.7334 14.1136 7.62307C14.105 7.40243 14.0933 7.10771 14.0813 6.81152C14.0693 6.5154 14.0568 6.21752 14.0465 5.99064C14.0413 5.87728 14.0367 5.78115 14.0329 5.71166C14.031 5.67704 14.0293 5.64821 14.0278 5.62686C14.027 5.61634 14.0263 5.60643 14.0255 5.59807C14.0251 5.59398 14.0245 5.5889 14.0238 5.58363C14.0236 5.58216 14.0218 5.5675 14.0171 5.55098L13.6328 5.66189C13.6269 5.64157 13.6261 5.62402 13.6273 5.6367C13.6276 5.63993 13.6281 5.64583 13.6288 5.65503C13.6301 5.67315 13.6316 5.69945 13.6335 5.73341C13.6372 5.80106 13.6417 5.89576 13.6469 6.0088C13.6571 6.2347 13.6696 6.53181 13.6816 6.82778C13.6937 7.12368 13.7053 7.41816 13.7139 7.63868C13.7182 7.74893 13.7218 7.84069 13.7242 7.90488C13.7255 7.93697 13.7264 7.96218 13.7271 7.97935C13.7274 7.98794 13.7277 7.99452 13.7279 7.99895C13.7279 8.00117 13.728 8.00285 13.728 8.00398C13.7281 8.00454 13.7281 8.00496 13.7281 8.00524C13.7281 8.00539 13.7281 8.00549 13.7281 8.00556C13.7281 8.0056 13.7281 8.00562 13.7281 8.00564C13.7281 8.00566 13.7281 8.00567 13.928 7.99803ZM13.6658 8.34015C13.7805 8.39158 13.9111 8.37709 14.0075 8.29358C14.0983 8.21499 14.1333 8.09854 14.1277 7.98797L13.7282 8.00809C13.7291 8.02619 13.7225 8.0113 13.7457 7.99123C13.7573 7.98113 13.7734 7.97323 13.7917 7.97084C13.8099 7.96846 13.8232 7.97238 13.8293 7.97513L13.6658 8.34015ZM12.7034 7.45222L13.6107 8.30349L13.8844 8.01178L12.9771 7.16051L12.7034 7.45222ZM7.54399 12.1726C10.5853 9.82513 12.1259 8.30524 12.9818 7.44765L12.6987 7.16509C11.8517 8.01375 10.324 9.52148 7.29958 11.856L7.54399 12.1726Z" fill="#0b63bc"/>
</svg>
