<svg width="80" height="80" viewBox="0 0 80 80" fill="none" xmlns="http://www.w3.org/2000/svg">
<rect width="80" height="80" rx="10" fill="#D4B235"/>
<path fill-rule="evenodd" clip-rule="evenodd" d="M18.0185 18H61.9817C63.6461 18 65 19.3541 65 21.0185V51.3721C65 53.0365 63.6458 54.3906 61.9814 54.3906H46.9169V56.5868C46.9169 58.6002 48.555 60.2382 50.5684 60.2382H53.8885C54.5251 60.2382 55.0412 60.7543 55.0412 61.3909C55.0412 62.0275 54.5251 62.5435 53.8885 62.5435H26.1115C25.4749 62.5435 24.9588 62.0275 24.9588 61.3909C24.9588 60.7543 25.4749 60.2382 26.1115 60.2382H29.4315C31.4449 60.2382 33.083 58.6002 33.083 56.5868V54.3905H18.0185C16.3541 54.3905 15 53.0364 15 51.372V21.0185C15 19.3541 16.3541 18 18.0185 18ZM17.5 45H62.5V50.5C62.5 51.0523 62.0523 51.5 61.5 51.5H18.5C17.9477 51.5 17.5 51.0523 17.5 50.5V45ZM41.2442 48.244C41.2442 48.931 40.6873 49.4879 40.0003 49.4879C39.3133 49.4879 38.7563 48.931 38.7563 48.244C38.7563 47.5569 39.3133 47 40.0003 47C40.6873 47 41.2442 47.5569 41.2442 48.244ZM41.9765 25.9411C41.5263 25.491 40.7967 25.491 40.3463 25.9411L32.2004 34.087C31.7503 34.5371 31.7503 35.267 32.2004 35.7172C32.4256 35.9423 32.7204 36.0548 33.0155 36.0548C33.3106 36.0548 33.6055 35.9423 33.8306 35.7172L41.9765 27.5713C42.4266 27.1212 42.4266 26.3913 41.9765 25.9411ZM45.1745 30.6617C45.625 30.2117 46.3546 30.2117 46.8046 30.6618C47.2547 31.1119 47.2547 31.8418 46.8046 32.2919L43.5595 35.5368C43.3344 35.7619 43.0393 35.8744 42.7444 35.8744C42.4494 35.8744 42.1545 35.7619 41.9294 35.5368C41.4793 35.0867 41.4793 34.3568 41.9294 33.9066L45.1745 30.6617Z" fill="#AC8E1E"/>
</svg>
