<svg width="33" height="20" viewBox="0 0 33 20" fill="none" xmlns="http://www.w3.org/2000/svg">
<path fill-rule="evenodd" clip-rule="evenodd" d="M21.3554 0H0.64453C0.288578 0 0 0.288578 0 0.64453C0 1.00048 0.288578 1.28906 0.64453 1.28906H2.1914V19.207C2.1914 19.4229 2.29955 19.6245 2.47942 19.7439C2.65955 19.8636 2.88741 19.8847 3.08601 19.801L6.91808 18.1876L10.7502 19.801C10.91 19.8684 11.0904 19.8684 11.2504 19.801L15.0822 18.1876L18.9139 19.801C19.1129 19.8848 19.3408 19.8634 19.5206 19.744C19.7005 19.6245 19.8086 19.423 19.8086 19.207V1.28906H21.3555C21.7114 1.28906 22 1.00048 22 0.64453C22 0.288578 21.7114 0 21.3554 0ZM7.77734 3.4375H14.2226C14.5786 3.4375 14.8672 3.72608 14.8672 4.08203C14.8672 4.43798 14.5786 4.72656 14.2226 4.72656H7.77734C7.42139 4.72656 7.13281 4.43798 7.13281 4.08203C7.13281 3.72608 7.42139 3.4375 7.77734 3.4375ZM15.7265 8.59375H9.71094C9.35498 8.59375 9.06641 8.88233 9.06641 9.23828C9.06641 9.59423 9.35498 9.88281 9.71094 9.88281H15.7265C16.0825 9.88281 16.3711 9.59423 16.3711 9.23828C16.3711 8.88233 16.0825 8.59375 15.7265 8.59375ZM7.21875 9.23828C7.21875 9.7129 6.83399 10.0977 6.35937 10.0977C5.88475 10.0977 5.5 9.7129 5.5 9.23828C5.5 8.76366 5.88475 8.37891 6.35937 8.37891C6.83399 8.37891 7.21875 8.76366 7.21875 9.23828ZM15.7265 12.0312H9.71094C9.35498 12.0312 9.06641 12.3198 9.06641 12.6758C9.06641 13.0317 9.35498 13.3203 9.71094 13.3203H15.7265C16.0825 13.3203 16.3711 13.0317 16.3711 12.6758C16.3711 12.3198 16.0825 12.0312 15.7265 12.0312ZM7.21875 12.6758C7.21875 13.1504 6.83399 13.5352 6.35937 13.5352C5.88475 13.5352 5.5 13.1504 5.5 12.6758C5.5 12.2012 5.88475 11.8164 6.35937 11.8164C6.83399 11.8164 7.21875 12.2012 7.21875 12.6758Z" fill="#5DB9AC"/>
<mask id="path-2-inside-1" fill="white">
<path fill-rule="evenodd" clip-rule="evenodd" d="M33 10.4258C33 13.4633 30.5376 15.9258 27.5 15.9258C24.4624 15.9258 22 13.4633 22 10.4258C22 7.38822 24.4624 4.92578 27.5 4.92578C30.5376 4.92578 33 7.38822 33 10.4258ZM27 10.9258H24V9.92578H27V6.92578H28V9.92578H31V10.9258H28V13.9258H27V10.9258Z"/>
</mask>
<path fill-rule="evenodd" clip-rule="evenodd" d="M33 10.4258C33 13.4633 30.5376 15.9258 27.5 15.9258C24.4624 15.9258 22 13.4633 22 10.4258C22 7.38822 24.4624 4.92578 27.5 4.92578C30.5376 4.92578 33 7.38822 33 10.4258ZM27 10.9258H24V9.92578H27V6.92578H28V9.92578H31V10.9258H28V13.9258H27V10.9258Z" fill="#5DB9AC"/>
<path d="M24 10.9258H23V11.9258H24V10.9258ZM27 10.9258H28V9.92578H27V10.9258ZM24 9.92578V8.92578H23V9.92578H24ZM27 9.92578V10.9258H28V9.92578H27ZM27 6.92578V5.92578H26V6.92578H27ZM28 6.92578H29V5.92578H28V6.92578ZM28 9.92578H27V10.9258H28V9.92578ZM31 9.92578H32V8.92578H31V9.92578ZM31 10.9258V11.9258H32V10.9258H31ZM28 10.9258V9.92578H27V10.9258H28ZM28 13.9258V14.9258H29V13.9258H28ZM27 13.9258H26V14.9258H27V13.9258ZM27.5 16.9258C31.0899 16.9258 34 14.0156 34 10.4258H32C32 12.9111 29.9853 14.9258 27.5 14.9258V16.9258ZM21 10.4258C21 14.0156 23.9101 16.9258 27.5 16.9258V14.9258C25.0147 14.9258 23 12.9111 23 10.4258H21ZM27.5 3.92578C23.9101 3.92578 21 6.83593 21 10.4258H23C23 7.9405 25.0147 5.92578 27.5 5.92578V3.92578ZM34 10.4258C34 6.83593 31.0899 3.92578 27.5 3.92578V5.92578C29.9853 5.92578 32 7.9405 32 10.4258H34ZM24 11.9258H27V9.92578H24V11.9258ZM23 9.92578V10.9258H25V9.92578H23ZM27 8.92578H24V10.9258H27V8.92578ZM28 9.92578V6.92578H26V9.92578H28ZM27 7.92578H28V5.92578H27V7.92578ZM27 6.92578V9.92578H29V6.92578H27ZM31 8.92578H28V10.9258H31V8.92578ZM32 10.9258V9.92578H30V10.9258H32ZM28 11.9258H31V9.92578H28V11.9258ZM27 10.9258V13.9258H29V10.9258H27ZM28 12.9258H27V14.9258H28V12.9258ZM28 13.9258V10.9258H26V13.9258H28Z" fill="#5DB9AC" mask="url(#path-2-inside-1)"/>
</svg>
