<svg width="31" height="21" viewBox="0 0 31 21" fill="none" xmlns="http://www.w3.org/2000/svg">
<path d="M5.36279 18.2118V7.76044C5.65834 7.76044 5.77809 7.76044 6.96763 7.76044H9.51246C10.0918 7.76044 10.5614 7.3652 10.5614 6.79401C10.5614 6.22281 10.0918 5.75977 9.51246 5.75977H5.36279C4.24185 5.75977 3.3337 6.65519 3.3337 7.76044V18.2216C3.3337 19.3269 4.24185 20.2223 5.36279 20.2223H15.8835C17.0034 20.2223 17.9126 19.3266 17.9126 18.2216V14.0116C17.9126 13.4404 17.4429 12.9773 16.8636 12.9773C16.2843 12.9773 15.8147 13.4404 15.8147 14.0116V18.2118H5.36279Z" fill="#131B25"/>
<path d="M17.9111 7.27559L17.9183 10.5177C17.9143 11.093 18.3405 11.5273 18.9158 11.5233C19.4911 11.5192 19.9607 11.0496 19.9647 10.4743L20.013 3.63671L13.1829 3.61966C12.6077 3.62486 12.139 4.0954 12.1361 4.67064C12.1331 5.24589 12.6024 5.66354 13.1777 5.65834L16.5712 5.69023L11.0623 11.1991C10.6527 11.6087 10.648 12.2682 11.0519 12.6721C11.4558 13.076 12.1153 13.0714 12.525 12.6618L17.9111 7.27559Z" fill="#131B25"/>
</svg>
