<svg width="13" height="16" viewBox="0 0 13 16" fill="none" xmlns="http://www.w3.org/2000/svg">
<path fill-rule="evenodd" clip-rule="evenodd" d="M0.240762 4.3858C-0.118661 4.80513 -0.0700991 5.43643 0.349227 5.79585C0.768553 6.15527 1.39985 6.10671 1.75927 5.68738L3.00003 4.23984L3.00003 12.5366C3.00003 13.0889 3.44774 13.5366 4.00003 13.5366C4.55231 13.5366 5.00003 13.0889 5.00003 12.5366L5.00003 4.23986L6.24076 5.68738C6.60018 6.10671 7.23148 6.15527 7.65081 5.79585C8.07014 5.43642 8.1187 4.80512 7.75927 4.3858L4.75927 0.885799L4.00002 0L3.24076 0.885799L0.240762 4.3858Z" fill="#413C55"/>
<path fill-rule="evenodd" clip-rule="evenodd" d="M7.58803 7.08898C7.04517 6.98737 6.52273 7.34507 6.42113 7.88793C6.31952 8.43079 6.67723 8.95323 7.22009 9.05484L8.35971 9.26814L3.72479 11.9441C3.24649 12.2203 3.08262 12.8318 3.35876 13.3101C3.6349 13.7884 4.24649 13.9523 4.72479 13.6762L9.35972 11.0002L8.97463 12.0938C8.79119 12.6147 9.06479 13.1857 9.58572 13.3692C10.1067 13.5526 10.6777 13.279 10.8611 12.7581L12.144 9.11468L12.5315 8.01424L11.3848 7.79961L7.58803 7.08898Z" fill="#413C55"/>
</svg>
