<svg width="16" height="16" viewBox="0 0 16 16" fill="none" xmlns="http://www.w3.org/2000/svg">
<circle cx="8" cy="8" r="8" fill="#476FB1"/>
<path d="M8.05147 3.96C8.99547 3.96 9.74347 4.14 10.2955 4.5C10.8555 4.86 11.1355 5.404 11.1355 6.132C11.1355 7.476 10.3755 8.232 8.85547 8.4L8.73547 9.432H6.98347L6.87547 7.608C7.61147 7.552 8.13947 7.428 8.45947 7.236C8.77947 7.036 8.93947 6.772 8.93947 6.444C8.93947 6.18 8.85147 5.976 8.67547 5.832C8.50747 5.688 8.25147 5.616 7.90747 5.616C7.55547 5.616 7.27547 5.72 7.06747 5.928C6.85947 6.128 6.73947 6.428 6.70747 6.828L4.73947 6.072C4.83547 5.432 5.15147 4.92 5.68747 4.536C6.23147 4.152 7.01947 3.96 8.05147 3.96ZM7.87147 10.068C8.23147 10.068 8.51147 10.156 8.71147 10.332C8.91947 10.508 9.02347 10.756 9.02347 11.076C9.02347 11.396 8.91947 11.648 8.71147 11.832C8.51147 12.008 8.23147 12.096 7.87147 12.096C7.50347 12.096 7.21547 12.008 7.00747 11.832C6.80747 11.648 6.70747 11.396 6.70747 11.076C6.70747 10.756 6.80747 10.508 7.00747 10.332C7.21547 10.156 7.50347 10.068 7.87147 10.068Z" fill="#F7D047"/>
</svg>
