<svg xmlns="http://www.w3.org/2000/svg" width="30" height="20" viewBox="0 0 30 20" fill="none">
    <path fill-rule="evenodd" clip-rule="evenodd"
        d="M7.82961 0.591461C4.99835 0.591461 3.19799 2.9161 2.1342 5.72857C1.05213 8.58938 0.591797 12.2735 0.591797 15.6829C0.591797 16.3961 0.749511 17.4015 1.18581 18.2573C1.62894 19.1265 2.43623 19.9614 3.73204 19.9614C4.80053 19.9614 5.69777 19.5295 6.49723 18.9734C7.05387 18.5862 7.61863 18.0956 8.17646 17.611L8.1765 17.6109C8.39398 17.422 8.61041 17.234 8.8249 17.0534C10.3976 15.729 12.1908 14.498 15.0003 14.498C17.8099 14.498 19.6031 15.729 21.1758 17.0534C21.3903 17.234 21.6067 17.422 21.8242 17.6109L21.8242 17.611C22.382 18.0956 22.9468 18.5862 23.5034 18.9734C24.3029 19.5295 25.2001 19.9614 26.2686 19.9614C27.5644 19.9614 28.3717 19.1265 28.8149 18.2573C29.2512 17.4015 29.4089 16.3961 29.4089 15.6829C29.4089 12.2735 28.9485 8.58938 27.8665 5.72857C26.8027 2.9161 25.0023 0.591461 22.1711 0.591461C20.1698 0.591461 19.1361 0.963333 18.1907 1.32352L18.1209 1.35012C17.2829 1.66979 16.5292 1.95731 15.0003 1.95731C13.4714 1.95731 12.7177 1.66979 11.8798 1.35012L11.81 1.32352C10.8645 0.963333 9.83088 0.591461 7.82961 0.591461ZM15.0003 3.45731C13.1959 3.45731 12.2429 3.09393 11.3349 2.74769L11.276 2.72525C10.4288 2.40252 9.58443 2.09146 7.82961 2.09146C5.9942 2.09146 4.55065 3.57983 3.5372 6.25923C2.54203 8.89029 2.0918 12.3769 2.0918 15.6829C2.0918 16.2218 2.21864 16.9806 2.52217 17.576C2.81888 18.158 3.20671 18.4614 3.73204 18.4614C4.37087 18.4614 4.96753 18.2103 5.64063 17.742C6.12734 17.4035 6.59611 16.9961 7.12542 16.5362L7.12545 16.5362L7.12551 16.5361C7.35623 16.3356 7.59846 16.1251 7.8587 15.906C9.52989 14.4987 11.6636 12.998 15.0003 12.998C18.3371 12.998 20.4708 14.4987 22.142 15.906C22.4022 16.1251 22.6443 16.3355 22.875 16.536L22.8752 16.5362L22.8753 16.5362C23.4046 16.9961 23.8733 17.4035 24.36 17.742C25.0331 18.2103 25.6298 18.4614 26.2686 18.4614C26.794 18.4614 27.1818 18.158 27.4785 17.576C27.782 16.9806 27.9089 16.2218 27.9089 15.6829C27.9089 12.3769 27.4586 8.89029 26.4635 6.25923C25.45 3.57983 24.0065 2.09146 22.1711 2.09146C20.4162 2.09146 19.5718 2.40252 18.7246 2.72525L18.6658 2.74769C17.7577 3.09393 16.8048 3.45731 15.0003 3.45731Z"
        fill="#F7D047" />
    <mask id="path-2-inside-1_6022_40461" fill="white">
        <path fill-rule="evenodd" clip-rule="evenodd"
            d="M9.25688 4C8.17993 4 7.30688 4.87305 7.30688 5.95V6.55H6.70586C5.62891 6.55 4.75586 7.42304 4.75586 8.5C4.75586 9.57695 5.62891 10.45 6.70586 10.45H7.30688V11.05C7.30688 12.127 8.17993 13 9.25688 13C10.3338 13 11.2069 12.127 11.2069 11.05V10.45H11.8059C12.8828 10.45 13.7559 9.57695 13.7559 8.5C13.7559 7.42304 12.8828 6.55 11.8059 6.55H11.2069V5.95C11.2069 4.87305 10.3338 4 9.25688 4Z" />
    </mask>
    <path
        d="M7.30688 6.55V7.75H8.50688V6.55H7.30688ZM7.30688 10.45H8.50688V9.25H7.30688V10.45ZM11.2069 10.45V9.25H10.0069V10.45H11.2069ZM11.2069 6.55H10.0069V7.75H11.2069V6.55ZM8.50688 5.95C8.50688 5.53579 8.84267 5.2 9.25688 5.2V2.8C7.51719 2.8 6.10688 4.2103 6.10688 5.95H8.50688ZM8.50688 6.55V5.95H6.10688V6.55H8.50688ZM6.70586 7.75H7.30688V5.35H6.70586V7.75ZM5.95586 8.5C5.95586 8.08578 6.29165 7.75 6.70586 7.75V5.35C4.96616 5.35 3.55586 6.7603 3.55586 8.5H5.95586ZM6.70586 9.25C6.29165 9.25 5.95586 8.91421 5.95586 8.5H3.55586C3.55586 10.2397 4.96617 11.65 6.70586 11.65V9.25ZM7.30688 9.25H6.70586V11.65H7.30688V9.25ZM8.50688 11.05V10.45H6.10688V11.05H8.50688ZM9.25688 11.8C8.84267 11.8 8.50688 11.4642 8.50688 11.05H6.10688C6.10688 12.7897 7.51719 14.2 9.25688 14.2V11.8ZM10.0069 11.05C10.0069 11.4642 9.6711 11.8 9.25688 11.8V14.2C10.9966 14.2 12.4069 12.7897 12.4069 11.05H10.0069ZM10.0069 10.45V11.05H12.4069V10.45H10.0069ZM11.8059 9.25H11.2069V11.65H11.8059V9.25ZM12.5559 8.5C12.5559 8.91421 12.2201 9.25 11.8059 9.25V11.65C13.5456 11.65 14.9559 10.2397 14.9559 8.5H12.5559ZM11.8059 7.75C12.2201 7.75 12.5559 8.08578 12.5559 8.5H14.9559C14.9559 6.7603 13.5456 5.35 11.8059 5.35V7.75ZM11.2069 7.75H11.8059V5.35H11.2069V7.75ZM10.0069 5.95V6.55H12.4069V5.95H10.0069ZM9.25688 5.2C9.6711 5.2 10.0069 5.53579 10.0069 5.95H12.4069C12.4069 4.2103 10.9966 2.8 9.25688 2.8V5.2Z"
        fill="#F7D047" mask="url(#path-2-inside-1_6022_40461)" />
    <circle cx="20.63" cy="5.59676" r="1.59676" fill="#F7D047" />
    <circle cx="20.63" cy="11.4032" r="1.59676" fill="#F7D047" />
    <circle cx="17.7266" cy="8.49996" r="1.59676" fill="#F7D047" />
    <circle cx="23.5333" cy="8.49996" r="1.59676" fill="#F7D047" />
</svg>