<svg width="22" height="20" viewBox="0 0 22 20" fill="none" xmlns="http://www.w3.org/2000/svg">
<path fill-rule="evenodd" clip-rule="evenodd" d="M20.8405 2.30649L19.8908 3.13701L20.8405 3.9677C20.9882 4.09705 21.0387 4.29883 20.9692 4.48174C20.8997 4.66465 20.7276 4.78289 20.5305 4.78289H16.6007V9.50309H18.5713C19.1844 9.50309 19.6833 9.99861 19.6833 10.6076V18.9473H20.5304C20.7103 18.9473 20.8561 19.0922 20.8561 19.2709C20.8561 19.4496 20.7103 19.5944 20.5304 19.5944H1.32572C1.14582 19.5944 1 19.4496 1 19.2709C1 19.0922 1.14582 18.9473 1.32572 18.9473H2.10771V17.7886C2.10771 17.1794 2.60655 16.684 3.21966 16.684H5.87814C6.04244 16.684 6.19826 16.7197 6.33865 16.7835V15.8496C6.33865 15.2406 6.83749 14.7451 7.45077 14.7451H10.1358C10.2802 14.7451 10.4251 14.7717 10.5543 14.8383V13.8936C10.5543 13.0556 10.7971 12.7267 11.4703 12.7267H14.2929C14.4832 12.7267 14.6223 12.7661 14.7538 12.8933V10.6076C14.7538 9.9918 15.2049 9.50309 15.9493 9.50309V1.32355C15.9493 1.14485 16.0951 1 16.275 1C16.4549 1 16.6007 1.14485 16.6007 1.32355V1.4913H20.5307C20.7276 1.4913 20.8997 1.60954 20.9693 1.79262C21.0387 1.97553 20.9882 2.17714 20.8405 2.30649ZM3.22005 17.331C2.96607 17.331 2.75957 17.5361 2.75957 17.7882V18.9472H6.3389V17.7882C6.3389 17.5361 6.13223 17.331 5.87826 17.331H3.22005ZM6.98872 17.7883V15.8495C6.98872 15.5972 7.19539 15.3921 7.44936 15.3921H10.1076C10.3615 15.3921 10.568 15.5972 10.568 15.8495V18.9473H6.98889V17.7883H6.98872ZM19.0314 18.9473V10.6076C19.0314 10.3554 18.8247 10.1501 18.5707 10.1501H16.278L16.2748 10.1503L16.2714 10.1501H15.9127C15.6587 10.1501 15.452 10.3553 15.452 10.6076V15.3886C15.452 15.5673 15.3064 15.7121 15.1263 15.7121C14.9465 15.7121 14.8007 15.5673 14.8007 15.3886V13.7666C14.8007 13.5145 14.5942 13.3093 14.3402 13.3093H11.682C11.428 13.3093 11.2215 13.5145 11.2215 13.7666V18.9473H14.8007V17.0073C14.8007 16.8286 14.9465 16.6838 15.1265 16.6838C15.3064 16.6838 15.4522 16.8286 15.4522 17.0073V18.9473H19.0314ZM16.6001 4.13559V2.13855H20.0456L19.3036 2.78767C19.2025 2.87609 19.1445 3.00342 19.1445 3.13715C19.1445 3.27089 19.2025 3.39822 19.3036 3.48664L20.0456 4.13576H16.6001V4.13559ZM7.64394 11.2402C4.82424 13.4167 1.23856 15.2789 1.23856 15.2789C1.08156 15.2789 1 15.1969 1 15.0334C1 15.0334 5.19502 12.5741 7.82772 10.2285C9.67611 8.58169 10.5185 7.66163 11.1567 6.96457C11.4275 6.6688 11.6615 6.41317 11.92 6.15921L11.0722 5.35875C11.0135 5.26202 11.0722 5.17807 11.218 5.17807C11.218 5.17807 13.4352 5.19215 13.4831 5.19215C13.531 5.19215 13.5846 5.23953 13.5971 5.28272C13.6095 5.32591 13.6929 7.50624 13.6929 7.50624C13.6989 7.62587 13.6154 7.69508 13.5251 7.65463L12.6816 6.86318C11.89 7.65636 10.4636 9.06378 7.64394 11.2402Z" fill="#131B25"/>
<path d="M19.8908 3.13701L19.7591 2.98646L19.587 3.137L19.7591 3.28755L19.8908 3.13701ZM20.8405 2.30649L20.9721 2.45705L20.9723 2.45694L20.8405 2.30649ZM20.8405 3.9677L20.9723 3.81725L20.9722 3.81716L20.8405 3.9677ZM20.9692 4.48174L21.1561 4.55279V4.55279L20.9692 4.48174ZM16.6007 4.78289V4.58289H16.4007V4.78289H16.6007ZM16.6007 9.50309H16.4007V9.70309H16.6007V9.50309ZM19.6833 18.9473H19.4833V19.1473H19.6833V18.9473ZM2.10771 18.9473V19.1473H2.30771V18.9473H2.10771ZM6.33865 16.7835L6.25587 16.9656L6.53865 17.0942V16.7835H6.33865ZM10.5543 14.8383L10.4628 15.0161L10.7543 15.1662V14.8383H10.5543ZM14.7538 12.8933L14.6148 13.037L14.9538 13.3648V12.8933H14.7538ZM15.9493 9.50309V9.70309H16.1493V9.50309H15.9493ZM16.6007 1.4913H16.4007V1.6913H16.6007V1.4913ZM20.9693 1.79262L21.1563 1.72172L21.1563 1.72147L20.9693 1.79262ZM2.75957 18.9472H2.55957V19.1472H2.75957V18.9472ZM6.3389 18.9472V19.1472H6.5389V18.9472H6.3389ZM6.98872 17.7883H6.78872V17.9883H6.98872V17.7883ZM10.568 18.9473V19.1473H10.768V18.9473H10.568ZM6.98889 18.9473H6.78889V19.1473H6.98889V18.9473ZM6.98889 17.7883H7.18889V17.5883H6.98889V17.7883ZM19.0314 18.9473V19.1473H19.2314V18.9473H19.0314ZM16.278 10.1501V9.94986L16.2676 9.95041L16.278 10.1501ZM16.2748 10.1503L16.2649 10.3501L16.2751 10.3506L16.2853 10.35L16.2748 10.1503ZM16.2714 10.1501L16.2814 9.95014H16.2714V10.1501ZM11.2215 18.9473H11.0215V19.1473H11.2215V18.9473ZM14.8007 18.9473V19.1473H15.0007V18.9473H14.8007ZM15.4522 18.9473H15.2522V19.1473H15.4522V18.9473ZM16.6001 2.13855V1.93855H16.4001V2.13855H16.6001ZM20.0456 2.13855L20.1773 2.28908L20.5781 1.93855H20.0456V2.13855ZM19.3036 2.78767L19.1719 2.63713L19.1719 2.63716L19.3036 2.78767ZM19.3036 3.48664L19.1719 3.63715L19.1719 3.63718L19.3036 3.48664ZM20.0456 4.13576V4.33576H20.5781L20.1773 3.98523L20.0456 4.13576ZM16.6001 4.13576H16.4001V4.33576H16.6001V4.13576ZM1.23856 15.2789V15.4789H1.2874L1.33074 15.4564L1.23856 15.2789ZM7.64394 11.2402L7.76614 11.3986L7.64394 11.2402ZM1 15.0334L0.898852 14.8608L0.8 14.9188V15.0334H1ZM7.82772 10.2285L7.96076 10.3778L7.82772 10.2285ZM11.1567 6.96457L11.3042 7.09963L11.1567 6.96457ZM11.92 6.15921L12.0602 6.30189L12.2084 6.15636L12.0573 6.01379L11.92 6.15921ZM11.0722 5.35875L10.9012 5.46249L10.9152 5.48561L10.9349 5.50418L11.0722 5.35875ZM11.218 5.17807L11.2192 4.97807H11.218V5.17807ZM13.5971 5.28272L13.4049 5.33817L13.4049 5.33817L13.5971 5.28272ZM13.6929 7.50624L13.493 7.51388L13.4931 7.5163L13.6929 7.50624ZM13.5251 7.65463L13.3883 7.80048L13.4127 7.82342L13.4433 7.83714L13.5251 7.65463ZM12.6816 6.86318L12.8184 6.71733L12.677 6.58465L12.54 6.7219L12.6816 6.86318ZM20.0225 3.28756L20.9721 2.45705L20.7088 2.15594L19.7591 2.98646L20.0225 3.28756ZM20.9722 3.81716L20.0225 2.98647L19.7591 3.28755L20.7088 4.11823L20.9722 3.81716ZM21.1561 4.55279C21.2555 4.2914 21.1825 4.0014 20.9723 3.81725L20.7087 4.11815C20.7938 4.1927 20.8219 4.30625 20.7822 4.41069L21.1561 4.55279ZM20.5305 4.98289C20.8099 4.98289 21.0569 4.81396 21.1561 4.55279L20.7822 4.41068C20.7424 4.51534 20.6452 4.58289 20.5305 4.58289V4.98289ZM16.6007 4.98289H20.5305V4.58289H16.6007V4.98289ZM16.8007 9.50309V4.78289H16.4007V9.50309H16.8007ZM18.5713 9.30309H16.6007V9.70309H18.5713V9.30309ZM19.8833 10.6076C19.8833 9.88689 19.2936 9.30309 18.5713 9.30309V9.70309C19.0752 9.70309 19.4833 10.1103 19.4833 10.6076H19.8833ZM19.8833 18.9473V10.6076H19.4833V18.9473H19.8833ZM20.5304 18.7473H19.6833V19.1473H20.5304V18.7473ZM21.0561 19.2709C21.0561 18.9805 20.8195 18.7473 20.5304 18.7473V19.1473C20.6011 19.1473 20.6561 19.2039 20.6561 19.2709H21.0561ZM20.5304 19.7944C20.8195 19.7944 21.0561 19.5613 21.0561 19.2709H20.6561C20.6561 19.3379 20.6011 19.3944 20.5304 19.3944V19.7944ZM1.32572 19.7944H20.5304V19.3944H1.32572V19.7944ZM0.8 19.2709C0.8 19.5613 1.03662 19.7944 1.32572 19.7944V19.3944C1.25501 19.3944 1.2 19.3379 1.2 19.2709H0.8ZM1.32572 18.7473C1.03662 18.7473 0.8 18.9805 0.8 19.2709H1.2C1.2 19.2039 1.25501 19.1473 1.32572 19.1473V18.7473ZM2.10771 18.7473H1.32572V19.1473H2.10771V18.7473ZM1.90771 17.7886V18.9473H2.30771V17.7886H1.90771ZM3.21966 16.484C2.49737 16.484 1.90771 17.0676 1.90771 17.7886H2.30771C2.30771 17.2911 2.71572 16.884 3.21966 16.884V16.484ZM5.87814 16.484H3.21966V16.884H5.87814V16.484ZM6.42143 16.6015C6.25571 16.5261 6.07171 16.484 5.87814 16.484V16.884C6.01316 16.884 6.14082 16.9133 6.25587 16.9656L6.42143 16.6015ZM6.13865 15.8496V16.7835H6.53865V15.8496H6.13865ZM7.45077 14.5451C6.72831 14.5451 6.13865 15.1288 6.13865 15.8496H6.53865C6.53865 15.3523 6.94666 14.9451 7.45077 14.9451V14.5451ZM10.1358 14.5451H7.45077V14.9451H10.1358V14.5451ZM10.6459 14.6605C10.4819 14.576 10.3039 14.5451 10.1358 14.5451V14.9451C10.2565 14.9451 10.3683 14.9675 10.4628 15.0161L10.6459 14.6605ZM10.3543 13.8936V14.8383H10.7543V13.8936H10.3543ZM11.4703 12.5267C11.1037 12.5267 10.8005 12.6169 10.6017 12.8734C10.4139 13.1159 10.3543 13.466 10.3543 13.8936H10.7543C10.7543 13.4833 10.8161 13.2499 10.918 13.1184C11.0089 13.001 11.1636 12.9267 11.4703 12.9267V12.5267ZM14.2929 12.5267H11.4703V12.9267H14.2929V12.5267ZM14.8928 12.7495C14.7136 12.5762 14.5186 12.5267 14.2929 12.5267V12.9267C14.4478 12.9267 14.5309 12.9559 14.6148 13.037L14.8928 12.7495ZM14.5538 10.6076V12.8933H14.9538V10.6076H14.5538ZM15.9493 9.30309C15.5322 9.30309 15.1812 9.44083 14.9333 9.6807C14.6856 9.92035 14.5538 10.2497 14.5538 10.6076H14.9538C14.9538 10.3497 15.0475 10.1268 15.2115 9.96816C15.3752 9.80971 15.6219 9.70309 15.9493 9.70309V9.30309ZM15.7493 1.32355V9.50309H16.1493V1.32355H15.7493ZM16.275 0.8C15.9859 0.8 15.7493 1.03313 15.7493 1.32355H16.1493C16.1493 1.25656 16.2043 1.2 16.275 1.2V0.8ZM16.8007 1.32355C16.8007 1.03313 16.5641 0.8 16.275 0.8V1.2C16.3457 1.2 16.4007 1.25656 16.4007 1.32355H16.8007ZM16.8007 1.4913V1.32355H16.4007V1.4913H16.8007ZM20.5307 1.2913H16.6007V1.6913H20.5307V1.2913ZM21.1563 1.72147C21.0569 1.46032 20.81 1.2913 20.5307 1.2913V1.6913C20.6451 1.6913 20.7425 1.75876 20.7824 1.86377L21.1563 1.72147ZM20.9723 2.45694C21.1825 2.27281 21.2554 1.98305 21.1563 1.72172L20.7823 1.86352C20.8219 1.96802 20.7938 2.08147 20.7087 2.15604L20.9723 2.45694ZM2.95957 17.7882C2.95957 17.6479 3.07524 17.531 3.22005 17.531V17.131C2.85691 17.131 2.55957 17.4244 2.55957 17.7882H2.95957ZM2.95957 18.9472V17.7882H2.55957V18.9472H2.95957ZM6.3389 18.7472H2.75957V19.1472H6.3389V18.7472ZM6.1389 17.7882V18.9472H6.5389V17.7882H6.1389ZM5.87826 17.531C6.02316 17.531 6.1389 17.648 6.1389 17.7882H6.5389C6.5389 17.4243 6.2413 17.131 5.87826 17.131V17.531ZM3.22005 17.531H5.87826V17.131H3.22005V17.531ZM6.78872 15.8495V17.7883H7.18872V15.8495H6.78872ZM7.44936 15.1921C7.08627 15.1921 6.78872 15.4854 6.78872 15.8495H7.18872C7.18872 15.709 7.3045 15.5921 7.44936 15.5921V15.1921ZM10.1076 15.1921H7.44936V15.5921H10.1076V15.1921ZM10.768 15.8495C10.768 15.4855 10.4708 15.1921 10.1076 15.1921V15.5921C10.2523 15.5921 10.368 15.7089 10.368 15.8495H10.768ZM10.768 18.9473V15.8495H10.368V18.9473H10.768ZM6.98889 19.1473H10.568V18.7472H6.98889V19.1473ZM6.78889 17.7883V18.9473H7.18889V17.7883H6.78889ZM6.98872 17.9883H6.98889V17.5883H6.98872V17.9883ZM18.8314 10.6076V18.9473H19.2314V10.6076H18.8314ZM18.5707 10.3501C18.7155 10.3501 18.8314 10.4672 18.8314 10.6076H19.2314C19.2314 10.2437 18.9338 9.95014 18.5707 9.95014V10.3501ZM16.278 10.3501H18.5707V9.95014H16.278V10.3501ZM16.2853 10.35L16.2885 10.3499L16.2676 9.95041L16.2643 9.95058L16.2853 10.35ZM16.2615 10.3499L16.2649 10.3501L16.2847 9.95055L16.2814 9.95038L16.2615 10.3499ZM15.9127 10.3501H16.2714V9.95014H15.9127V10.3501ZM15.652 10.6076C15.652 10.4671 15.7678 10.3501 15.9127 10.3501V9.95014C15.5496 9.95014 15.252 10.2435 15.252 10.6076H15.652ZM15.652 15.3886V10.6076H15.252V15.3886H15.652ZM15.1263 15.9121C15.4157 15.9121 15.652 15.6789 15.652 15.3886H15.252C15.252 15.4556 15.1971 15.5121 15.1263 15.5121V15.9121ZM14.6007 15.3886C14.6007 15.679 14.8372 15.9121 15.1263 15.9121V15.5121C15.0557 15.5121 15.0007 15.4556 15.0007 15.3886H14.6007ZM14.6007 13.7666V15.3886H15.0007V13.7666H14.6007ZM14.3402 13.5093C14.485 13.5093 14.6007 13.6262 14.6007 13.7666H15.0007C15.0007 13.4027 14.7033 13.1093 14.3402 13.1093V13.5093ZM11.682 13.5093H14.3402V13.1093H11.682V13.5093ZM11.4215 13.7666C11.4215 13.6262 11.5372 13.5093 11.682 13.5093V13.1093C11.3188 13.1093 11.0215 13.4027 11.0215 13.7666H11.4215ZM11.4215 18.9473V13.7666H11.0215V18.9473H11.4215ZM14.8007 18.7473H11.2215V19.1473H14.8007V18.7473ZM14.6007 17.0073V18.9473H15.0007V17.0073H14.6007ZM15.1265 16.4838C14.8373 16.4838 14.6007 16.7169 14.6007 17.0073H15.0007C15.0007 16.9404 15.0556 16.8838 15.1265 16.8838V16.4838ZM15.6522 17.0073C15.6522 16.7169 15.4156 16.4838 15.1265 16.4838V16.8838C15.1972 16.8838 15.2522 16.9403 15.2522 17.0073H15.6522ZM15.6522 18.9473V17.0073H15.2522V18.9473H15.6522ZM19.0314 18.7473H15.4522V19.1473H19.0314V18.7473ZM16.4001 2.13855V4.13559H16.8001V2.13855H16.4001ZM20.0456 1.93855H16.6001V2.33855H20.0456V1.93855ZM19.4352 2.9382L20.1773 2.28908L19.914 1.98801L19.1719 2.63713L19.4352 2.9382ZM19.3445 3.13715C19.3445 3.06143 19.3774 2.98884 19.4353 2.93817L19.1719 2.63716C19.0277 2.76334 18.9445 2.94542 18.9445 3.13715H19.3445ZM19.4353 3.33613C19.3774 3.28547 19.3445 3.21288 19.3445 3.13715H18.9445C18.9445 3.32889 19.0277 3.51097 19.1719 3.63715L19.4353 3.33613ZM20.1773 3.98523L19.4352 3.33611L19.1719 3.63718L19.914 4.2863L20.1773 3.98523ZM16.6001 4.33576H20.0456V3.93576H16.6001V4.33576ZM16.4001 4.13559V4.13576H16.8001V4.13559H16.4001ZM1.23856 15.2789C1.33074 15.4564 1.33077 15.4564 1.33081 15.4564C1.33084 15.4563 1.3309 15.4563 1.33096 15.4563C1.33109 15.4562 1.33127 15.4561 1.33151 15.456C1.33198 15.4557 1.33267 15.4554 1.33357 15.4549C1.33538 15.454 1.33805 15.4526 1.34156 15.4507C1.34858 15.4471 1.35897 15.4416 1.3726 15.4345C1.39986 15.4201 1.44008 15.3989 1.49219 15.3711C1.5964 15.3156 1.7482 15.234 1.93908 15.1293C2.3208 14.9198 2.859 14.618 3.48557 14.2479C4.73775 13.5084 6.34699 12.494 7.76614 11.3986L7.52173 11.0819C6.12118 12.163 4.52774 13.1679 3.28216 13.9035C2.65985 14.2711 2.12539 14.5708 1.74669 14.7786C1.55735 14.8824 1.40699 14.9633 1.3041 15.0181C1.25266 15.0455 1.21309 15.0664 1.18644 15.0804C1.17312 15.0874 1.16304 15.0927 1.15632 15.0962C1.15296 15.098 1.15044 15.0993 1.14878 15.1002C1.14795 15.1006 1.14733 15.1009 1.14693 15.1011C1.14673 15.1012 1.14659 15.1013 1.14649 15.1013C1.14645 15.1014 1.14642 15.1014 1.1464 15.1014C1.14639 15.1014 1.14639 15.1014 1.23856 15.2789ZM0.8 15.0334C0.8 15.1458 0.828134 15.2659 0.917375 15.3572C1.00741 15.4494 1.127 15.4789 1.23856 15.4789V15.0789C1.21619 15.0789 1.20449 15.0759 1.20021 15.0744C1.19688 15.0733 1.19953 15.0737 1.20344 15.0777C1.21265 15.0871 1.2 15.0844 1.2 15.0334H0.8ZM7.69467 10.0792C6.38929 11.2422 4.69198 12.4371 3.31654 13.3435C2.62971 13.7961 2.02486 14.1757 1.59182 14.4421C1.37533 14.5752 1.20184 14.6801 1.08258 14.7515C1.02296 14.7873 0.976899 14.8147 0.945808 14.8331C0.930262 14.8423 0.918459 14.8493 0.910575 14.8539C0.906632 14.8562 0.90367 14.858 0.901708 14.8591C0.900728 14.8597 0.899998 14.8601 0.899521 14.8604C0.899282 14.8606 0.899107 14.8607 0.898995 14.8607C0.898939 14.8608 0.898903 14.8608 0.898875 14.8608C0.898856 14.8608 0.898852 14.8608 1 15.0334C1.10115 15.2059 1.10118 15.2059 1.10122 15.2058C1.10126 15.2058 1.10132 15.2058 1.10139 15.2057C1.10153 15.2057 1.10174 15.2055 1.10201 15.2054C1.10255 15.2051 1.10335 15.2046 1.10439 15.204C1.10648 15.2028 1.10958 15.2009 1.11365 15.1985C1.1218 15.1937 1.13388 15.1866 1.1497 15.1772C1.18135 15.1585 1.22798 15.1307 1.28821 15.0946C1.40866 15.0225 1.58347 14.9168 1.80139 14.7828C2.23719 14.5147 2.84564 14.1329 3.53665 13.6775C4.9169 12.7679 6.63345 11.5604 7.96076 10.3778L7.69467 10.0792ZM11.0092 6.82952C10.3739 7.52334 9.53648 8.43822 7.69467 10.0792L7.96076 10.3778C9.81573 8.72515 10.663 7.79992 11.3042 7.09963L11.0092 6.82952ZM11.7799 6.01653C11.5169 6.27483 11.2793 6.53441 11.0092 6.82952L11.3042 7.09963C11.5756 6.80318 11.8061 6.55151 12.0602 6.30189L11.7799 6.01653ZM10.9349 5.50418L11.7827 6.30464L12.0573 6.01379L11.2095 5.21333L10.9349 5.50418ZM11.218 4.97807C11.1153 4.97807 10.9897 5.00695 10.9102 5.10986C10.8194 5.22727 10.8428 5.36626 10.9012 5.46249L11.2432 5.25502C11.2424 5.25378 11.2492 5.26429 11.2497 5.28531C11.2502 5.30859 11.2425 5.33396 11.2267 5.35441C11.2122 5.37321 11.1977 5.37923 11.1955 5.38003C11.1935 5.38077 11.1999 5.37807 11.218 5.37807V4.97807ZM13.4831 4.99215C13.4599 4.99215 12.8949 4.98864 12.3338 4.98511C12.0537 4.98336 11.775 4.9816 11.5664 4.98028C11.4621 4.97962 11.3753 4.97907 11.3146 4.97868C11.2842 4.97849 11.2604 4.97834 11.2441 4.97824C11.236 4.97818 11.2298 4.97814 11.2256 4.97812C11.2235 4.97811 11.2219 4.97809 11.2208 4.97809C11.2203 4.97808 11.2199 4.97808 11.2196 4.97808C11.2195 4.97808 11.2194 4.97808 11.2193 4.97808C11.2193 4.97808 11.2193 4.97808 11.2193 4.97808C11.2192 4.97808 11.2192 4.97808 11.218 5.17807C11.2167 5.37807 11.2167 5.37807 11.2167 5.37807C11.2167 5.37807 11.2168 5.37807 11.2168 5.37807C11.2169 5.37807 11.217 5.37807 11.2171 5.37807C11.2174 5.37807 11.2178 5.37808 11.2183 5.37808C11.2194 5.37809 11.221 5.3781 11.2231 5.37811C11.2273 5.37814 11.2335 5.37818 11.2416 5.37823C11.2579 5.37833 11.2817 5.37848 11.3121 5.37867C11.3728 5.37906 11.4596 5.37961 11.5639 5.38027C11.7725 5.38159 12.0511 5.38335 12.3313 5.38511C12.8908 5.38862 13.4583 5.39215 13.4831 5.39215V4.99215ZM13.7892 5.22727C13.7689 5.15688 13.7235 5.10221 13.6804 5.06681C13.6379 5.0318 13.5689 4.99215 13.4831 4.99215V5.39215C13.4625 5.39215 13.448 5.38724 13.4407 5.3841C13.4331 5.38086 13.4286 5.37757 13.4263 5.37567C13.4239 5.37371 13.4212 5.37103 13.4181 5.36678C13.4154 5.36299 13.4094 5.35369 13.4049 5.33817L13.7892 5.22727ZM13.6929 7.50624C13.8927 7.4986 13.8927 7.49859 13.8927 7.49857C13.8927 7.49855 13.8927 7.49853 13.8927 7.49849C13.8927 7.49843 13.8927 7.49833 13.8927 7.49819C13.8927 7.49793 13.8927 7.49753 13.8927 7.49701C13.8926 7.49596 13.8926 7.49439 13.8925 7.49232C13.8923 7.48819 13.8921 7.48206 13.8918 7.47407C13.8912 7.45808 13.8903 7.43462 13.8891 7.40476C13.8868 7.34503 13.8835 7.25966 13.8795 7.15708C13.8715 6.95194 13.8607 6.67793 13.8495 6.40254C13.8383 6.12722 13.8267 5.85025 13.8171 5.63928C13.8123 5.53388 13.808 5.44445 13.8045 5.37979C13.8027 5.34758 13.8011 5.32068 13.7997 5.30072C13.799 5.29089 13.7983 5.28154 13.7975 5.27358C13.7971 5.2697 13.7966 5.26479 13.7959 5.25965C13.7957 5.25831 13.794 5.24374 13.7892 5.22727L13.4049 5.33817C13.399 5.31776 13.3982 5.29994 13.3994 5.31221C13.3996 5.31504 13.4001 5.32038 13.4007 5.32889C13.4019 5.34562 13.4033 5.36999 13.4051 5.40154C13.4085 5.46437 13.4127 5.55236 13.4175 5.65744C13.427 5.86743 13.4386 6.14364 13.4498 6.4188C13.461 6.6939 13.4718 6.96767 13.4798 7.17269C13.4838 7.27519 13.4871 7.3605 13.4894 7.42018C13.4906 7.45001 13.4915 7.47344 13.4921 7.48941C13.4924 7.4974 13.4926 7.50351 13.4928 7.50764C13.4929 7.5097 13.4929 7.51126 13.493 7.5123C13.493 7.51283 13.493 7.51322 13.493 7.51348C13.493 7.51361 13.493 7.51371 13.493 7.51378C13.493 7.51381 13.493 7.51383 13.493 7.51385C13.493 7.51387 13.493 7.51388 13.6929 7.50624ZM13.4433 7.83714C13.5547 7.88704 13.682 7.87309 13.7761 7.79164C13.8644 7.71511 13.898 7.60222 13.8926 7.49618L13.4931 7.5163C13.4938 7.52988 13.4886 7.51141 13.5142 7.48929C13.527 7.47816 13.5445 7.46961 13.5644 7.46702C13.5841 7.46444 13.5991 7.46861 13.6069 7.47212L13.4433 7.83714ZM12.5447 7.00904L13.3883 7.80048L13.662 7.50877L12.8184 6.71733L12.5447 7.00904ZM7.76614 11.3986C10.5943 9.2156 12.0271 7.8021 12.8231 7.00447L12.54 6.7219C11.7529 7.51062 10.333 8.91196 7.52173 11.0819L7.76614 11.3986Z" fill="#131B25"/>
</svg>
