<svg width="35" height="30" viewBox="0 0 35 30" fill="none" xmlns="http://www.w3.org/2000/svg">
<path d="M22.5482 13.4906C21.9899 13.4906 21.5385 13.0382 21.5385 12.4809V8.44246C21.5385 6.21519 19.7273 4.40406 17.5001 4.40406C15.2728 4.40406 13.4617 6.21519 13.4617 8.44246V12.4809C13.4617 13.0382 13.0102 13.4906 12.4519 13.4906C11.8936 13.4906 11.4424 13.0382 11.4424 12.4809V8.44246C11.4424 5.10156 14.1592 2.38477 17.5001 2.38477C20.841 2.38477 23.5578 5.10156 23.5578 8.44246V12.4809C23.5578 13.0382 23.1065 13.4906 22.5482 13.4906Z" fill="#D8D8D8"/>
<path d="M24.315 11.4712H10.6852C9.4333 11.4712 8.41357 12.4898 8.41357 13.7428V24.3438C8.41357 25.5968 9.4333 26.6154 10.6852 26.6154H24.315C25.5669 26.6154 26.5867 25.5968 26.5867 24.3438V13.7428C26.5867 12.4898 25.5669 11.4712 24.315 11.4712Z" fill="#ADADAD"/>
</svg>
