<svg width="25" height="25" viewBox="0 0 25 25" fill="none" xmlns="http://www.w3.org/2000/svg">
<path d="M17.7406 13.3658C17.7406 15.4066 16.466 17.1556 14.6658 17.9524V18.974H10.3372V17.9325C8.51214 17.1531 7.25578 15.3958 7.26322 13.3476C7.27231 10.7233 9.44696 8.50155 12.1729 8.34202C15.2138 8.16266 17.7406 10.482 17.7406 13.3658Z" fill="#656565"/>
<path d="M10.3359 18.9736H14.6646V21.607H10.3359V18.9736Z" fill="#656565"/>
<path d="M12.4997 6.5649C12.3682 6.5649 12.242 6.51265 12.149 6.41964C12.056 6.32664 12.0038 6.2005 12.0038 6.06897V3.49593C12.0038 3.3644 12.056 3.23826 12.149 3.14525C12.242 3.05225 12.3682 3 12.4997 3C12.6312 3 12.7574 3.05225 12.8504 3.14525C12.9434 3.23826 12.9956 3.3644 12.9956 3.49593V6.06897C12.9956 6.2005 12.9434 6.32664 12.8504 6.41964C12.7574 6.51265 12.6312 6.5649 12.4997 6.5649Z" fill="#656565"/>
<path d="M5.17396 13.6039H2.49593C2.3644 13.6039 2.23826 13.5517 2.14525 13.4587C2.05225 13.3657 2 13.2395 2 13.108C2 12.9765 2.05225 12.8503 2.14525 12.7573C2.23826 12.6643 2.3644 12.6121 2.49593 12.6121H5.17396C5.30548 12.6121 5.43163 12.6643 5.52463 12.7573C5.61764 12.8503 5.66989 12.9765 5.66989 13.108C5.66989 13.2395 5.61764 13.3657 5.52463 13.4587C5.43163 13.5517 5.30548 13.6039 5.17396 13.6039Z" fill="#656565"/>
<path d="M22.5041 13.6039H19.8269C19.6953 13.6039 19.5692 13.5517 19.4762 13.4587C19.3832 13.3657 19.3309 13.2395 19.3309 13.108C19.3309 12.9765 19.3832 12.8503 19.4762 12.7573C19.5692 12.6643 19.6953 12.6121 19.8269 12.6121H22.5041C22.6356 12.6121 22.7617 12.6643 22.8547 12.7573C22.9477 12.8503 23 12.9765 23 13.108C23 13.2395 22.9477 13.3657 22.8547 13.4587C22.7617 13.5517 22.6356 13.6039 22.5041 13.6039Z" fill="#656565"/>
<path d="M7.3368 8.623C7.20964 8.62321 7.0873 8.57436 6.99526 8.48662L5.08856 6.67482C4.99321 6.58423 4.93774 6.45946 4.93437 6.32798C4.931 6.19649 4.98 6.06905 5.07059 5.9737C5.16118 5.87834 5.28594 5.82287 5.41743 5.8195C5.54891 5.81613 5.67635 5.86513 5.77171 5.95572L7.67858 7.76752C7.75049 7.83583 7.80026 7.92414 7.82147 8.02103C7.84268 8.11792 7.83434 8.21895 7.79754 8.31106C7.76075 8.40317 7.69717 8.48212 7.61504 8.53773C7.53291 8.59334 7.43599 8.62304 7.3368 8.623Z" fill="#656565"/>
<path d="M17.6632 8.62319C17.564 8.62319 17.4672 8.59348 17.3851 8.53787C17.303 8.48226 17.2394 8.40331 17.2026 8.31123C17.1658 8.21914 17.1575 8.11814 17.1787 8.02127C17.1999 7.9244 17.2496 7.8361 17.3215 7.76779L19.2283 5.95599C19.3237 5.86539 19.4512 5.81638 19.5826 5.81974C19.7141 5.82311 19.8389 5.87857 19.9295 5.97393C20.0201 6.06928 20.0691 6.19673 20.0658 6.32822C20.0624 6.45972 20.0069 6.58449 19.9116 6.67509L18.0047 8.48681C17.9127 8.57449 17.7903 8.62333 17.6632 8.62319Z" fill="#656565"/>
</svg>
