<svg xmlns="http://www.w3.org/2000/svg" width="22" height="22" viewBox="0 0 22 22" fill="none">
    <g clip-path="url(#clip0_6284_29373)">
        <path
            d="M11 1H6.66667C6.48258 1 6.33333 1.14925 6.33333 1.33333V3.66667H1.33333C1.14925 3.66667 1 3.81592 1 4V20.6667C1 20.8507 1.14925 21 1.33333 21H11C11.1841 21 11.3333 20.8507 11.3333 20.6667V1.33333C11.3333 1.14925 11.1841 1 11 1ZM10.6667 18.3333H7V17.6667H10.6667V18.3333ZM1.66667 6H6.33333V16H1.66667V6ZM10.6667 4.66667H7V3.66667H10.6667V4.66667ZM1.66667 16.6667H6.33333V17.6667H1.66667V16.6667ZM7 17V5.33333H10.6667V17H7ZM10.6667 1.66667V3H7V1.66667H10.6667ZM6.33333 4.33333V5.33333H1.66667V4.33333H6.33333ZM1.66667 18.3333H6.33333V20.3333H1.66667V18.3333ZM7 20.3333V19H10.6667V20.3333H7Z"
            fill="#F7D047" stroke="#F7D047" stroke-width="0.5" />
        <path
            d="M20.99 19.2496L16.99 3.91628C16.9677 3.83034 16.9121 3.75694 16.8352 3.71218C16.7586 3.66758 16.6673 3.65538 16.5815 3.67833L11.5815 5.01166C11.4044 5.05886 11.2986 5.24017 11.3448 5.41758L15.3448 20.7509C15.3671 20.8369 15.423 20.9103 15.4998 20.9549C15.5764 20.9993 15.6678 21.0113 15.7534 20.9882L20.7534 19.6549C20.9301 19.6077 21.0358 19.4267 20.99 19.2496ZM12.6048 7.60622L16.9607 6.44493L17.1175 7.04486L12.7618 8.20795L12.6048 7.60622ZM17.2858 7.69167L19.219 15.1075L14.8647 16.2693L12.9314 8.85297L17.2858 7.69167ZM19.3888 15.7529L19.7301 17.061L15.3741 18.2223L15.0341 16.9147L19.3888 15.7529ZM16.4295 4.40863L16.7924 5.80023L12.4365 6.9612L12.0738 5.57025L16.4295 4.40863ZM15.9054 20.2586L15.5424 18.867L19.8984 17.7053L20.261 19.0963L15.9054 20.2586Z"
            fill="#F7D047" stroke="#F7D047" stroke-width="0.5" />
        <path
            d="M5.33399 7H2.66732C2.48324 7 2.33398 7.14925 2.33398 7.33333V10C2.33398 10.1841 2.48324 10.3333 2.66732 10.3333H5.33399C5.51807 10.3333 5.66732 10.1841 5.66732 10V7.33333C5.66732 7.14925 5.51807 7 5.33399 7ZM5.00065 9.66667H3.00065V7.66667H5.00065V9.66667Z"
            fill="#F7D047" stroke="#F7D047" stroke-width="0.3" />
    </g>
    <defs>
        <clipPath id="clip0_6284_29373">
            <rect width="22" height="22" fill="white" />
        </clipPath>
    </defs>
</svg>