<svg width="25" height="25" viewBox="0 0 25 25" fill="none" xmlns="http://www.w3.org/2000/svg">
<path fill-rule="evenodd" clip-rule="evenodd" d="M14.628 10.3166C14.5369 9.43695 14.036 8.67912 13.3217 8.23128C13.3406 6.9965 14.346 6.00039 15.5854 6C16.8368 6 17.851 7.01424 17.851 8.2656C17.851 9.51677 16.8368 10.531 15.5854 10.531C15.2426 10.531 14.9193 10.4527 14.628 10.3166ZM14.1034 10.6043C14.1034 11.8555 13.0892 12.8699 11.8378 12.8699C10.5867 12.8699 9.57185 11.8557 9.57185 10.6045C9.57185 9.35337 10.5867 8.33894 11.8378 8.33894C13.089 8.33894 14.1034 9.35318 14.1034 10.6043ZM12.7987 13.0245H10.8762C9.27669 13.0245 7.9754 14.326 7.9754 15.9255V18.2765L7.98137 18.3133L8.14331 18.364C9.66978 18.841 10.9959 19 12.0875 19C14.2195 19 15.4552 18.3922 15.5314 18.3534L15.6827 18.2769H15.6989V15.9255C15.6995 14.326 14.3982 13.0245 12.7987 13.0245ZM14.6396 10.6857H16.5472C18.1465 10.6857 19.4478 11.9869 19.4478 13.5863V15.9381H19.4316L19.2803 16.0148C19.2088 16.0506 18.1234 16.5845 16.2399 16.6535V15.929C16.2399 14.3717 15.1997 13.0532 13.7779 12.6305C14.2932 12.1362 14.619 11.4489 14.6396 10.6857ZM7.86248 10.5313C8.30569 10.5313 8.71805 10.402 9.06738 10.1816C9.17842 9.45734 9.56669 8.82443 10.1213 8.39337C10.122 8.38062 10.1229 8.36791 10.1237 8.35521C10.1257 8.32563 10.1277 8.29607 10.1277 8.26613C10.1277 7.01477 9.11326 6.00053 7.86248 6.00053C6.61093 6.00053 5.59688 7.01477 5.59688 8.26613C5.59688 9.51691 6.61093 10.5313 7.86248 10.5313ZM9.0359 10.6965C9.05962 11.4551 9.38426 12.1387 9.89707 12.6305C8.4749 13.0536 7.43503 14.3717 7.43464 15.929V16.639C6.48537 16.5835 5.39248 16.4073 4.16791 16.025L4.00598 15.9739L4 15.9377V13.5863C4 11.9869 5.30129 10.6857 6.90082 10.6857H8.82307C8.89001 10.6857 8.95513 10.6905 9.02073 10.6953C9.02579 10.6957 9.03084 10.6961 9.0359 10.6965Z" fill="#656565"/>
</svg>
