<svg width="35" height="30" viewBox="0 0 35 30" fill="none" xmlns="http://www.w3.org/2000/svg">
<path d="M22.5482 13.4906C21.9899 13.4906 21.5384 13.0382 21.5384 12.4809V8.44246C21.5384 6.21519 19.7273 4.40406 17.5 4.40406C15.2727 4.40406 13.4616 6.21519 13.4616 8.44246V12.4809C13.4616 13.0382 13.0102 13.4906 12.4519 13.4906C11.8936 13.4906 11.4423 13.0382 11.4423 12.4809V8.44246C11.4423 5.10156 14.1591 2.38477 17.5 2.38477C20.8409 2.38477 23.5577 5.10156 23.5577 8.44246V12.4809C23.5577 13.0382 23.1064 13.4906 22.5482 13.4906Z" fill="#D8D8D8"/>
<path d="M24.3149 11.4712H10.6851C9.43317 11.4712 8.41345 12.4898 8.41345 13.7428V24.3438C8.41345 25.5968 9.43317 26.6154 10.6851 26.6154H24.3149C25.5668 26.6154 26.5865 25.5968 26.5865 24.3438V13.7428C26.5865 12.4898 25.5668 11.4712 24.3149 11.4712Z" fill="url(#paint0_linear)"/>
<defs>
<linearGradient id="paint0_linear" x1="10.5362" y1="31.6635" x2="31.398" y2="16.8324" gradientUnits="userSpaceOnUse">
<stop stop-color="#D1B147"/>
<stop offset="0.2" stop-color="#D1B147"/>
<stop offset="0.903988" stop-color="#F7D047"/>
<stop offset="1" stop-color="#F7D047"/>
</linearGradient>
</defs>
</svg>
