<svg width="22" height="23" viewBox="0 0 22 23" fill="none" xmlns="http://www.w3.org/2000/svg">
<path d="M6.48828 13.1406C7.20021 13.1406 7.77734 12.5635 7.77734 11.8516C7.77734 11.1396 7.20021 10.5625 6.48828 10.5625C5.77635 10.5625 5.19922 11.1396 5.19922 11.8516C5.19922 12.5635 5.77635 13.1406 6.48828 13.1406Z" fill="#5DB9AC"/>
<path d="M14.2227 17.0078C14.9346 17.0078 15.5117 16.4307 15.5117 15.7188C15.5117 15.0068 14.9346 14.4297 14.2227 14.4297C13.5107 14.4297 12.9336 15.0068 12.9336 15.7188C12.9336 16.4307 13.5107 17.0078 14.2227 17.0078Z" fill="#5DB9AC"/>
<path d="M14.2227 9.27344C14.9346 9.27344 15.5117 8.6963 15.5117 7.98438C15.5117 7.27245 14.9346 6.69531 14.2227 6.69531C13.5107 6.69531 12.9336 7.27245 12.9336 7.98438C12.9336 8.6963 13.5107 9.27344 14.2227 9.27344Z" fill="#5DB9AC"/>
<path d="M11 0.851562C4.95816 0.851562 0 5.80973 0 11.8516C0 17.8934 4.95816 22.8516 11 22.8516C17.0418 22.8516 22 17.8934 22 11.8516C22 5.80973 17.0418 0.851562 11 0.851562ZM9.05034 12.0101L12.3365 13.9739C12.8077 13.4648 13.4757 13.1406 14.2227 13.1406C15.6445 13.1406 16.8008 14.2969 16.8008 15.7188C16.8008 17.1406 15.6445 18.2969 14.2227 18.2969C12.8008 18.2969 11.6445 17.1406 11.6445 15.7188C11.6445 15.508 11.677 15.3061 11.7249 15.1099L8.63964 13.2662C8.1782 13.9658 7.38749 14.4297 6.48828 14.4297C5.0664 14.4297 3.91016 13.2734 3.91016 11.8516C3.91016 10.4297 5.0664 9.27344 6.48828 9.27344C7.2982 9.27344 8.01307 9.65612 8.48598 10.2419L11.6917 8.45097C11.6638 8.29916 11.6445 8.14418 11.6445 7.98438C11.6445 6.5625 12.8008 5.40625 14.2227 5.40625C15.6445 5.40625 16.8008 6.5625 16.8008 7.98438C16.8008 9.40625 15.6445 10.5625 14.2227 10.5625C13.424 10.5625 12.7182 10.19 12.2449 9.61822L9.02258 11.4184C9.0964 11.8509 9.05618 11.9157 9.05034 12.0101Z" fill="#5DB9AC"/>
</svg>
