<svg width="25" height="25" viewBox="0 0 25 25" fill="none" xmlns="http://www.w3.org/2000/svg">
<path d="M18.7487 14.8231V18.7072C18.7487 18.7375 18.7496 18.7615 18.7193 18.7615H6.31242C6.2821 18.7615 6.25815 18.7375 6.25815 18.7072V14.8132C6.25815 14.2369 5.7908 13.7978 5.21447 13.7978C4.63815 13.7978 4.18359 14.2369 4.18359 14.8132V18.6296C4.18359 19.8126 5.05852 20.7709 6.24148 20.7709H18.7193C19.9022 20.7709 20.8274 19.8126 20.8274 18.6296V14.8231C20.8274 14.2467 20.3651 13.7795 19.7887 13.7795C19.2124 13.7795 18.7487 14.2467 18.7487 14.8231Z" fill="#379B8D"/>
<path d="M11.4587 8.12407L9.83892 9.67684C9.42289 10.0757 8.76231 10.0617 8.36348 9.6457C7.96465 9.22966 7.97859 8.56909 8.39462 8.17026L12.4694 4.26392L16.7467 8.15131C17.1732 8.53893 17.2047 9.19891 16.8171 9.6254C16.4294 10.0519 15.7695 10.0834 15.343 9.69579L13.5457 8.06234L13.5457 15.7308C13.5457 16.3014 13.0785 16.7639 12.5022 16.7639C11.9259 16.7639 11.4587 16.3014 11.4587 15.7308L11.4587 8.12407Z" fill="#379B8D"/>
</svg>
