<?xml version="1.0" standalone="no"?>
<!DOCTYPE svg PUBLIC "-//W3C//DTD SVG 20010904//EN"
 "http://www.w3.org/TR/2001/REC-SVG-20010904/DTD/svg10.dtd">
<svg version="1.0" xmlns="http://www.w3.org/2000/svg"
 width="26.0000000pt" height="24.2000000pt" viewBox="0 0 260.00000 242.00000"
 preserveAspectRatio="xMidYMid meet">

<g transform="translate(0.000000,242.000000) scale(0.100000,-0.100000)"
fill="#F9F9FF" stroke="none">
<path d="M660 2395 c0 -7 4 -16 115 -300 36 -93 72 -185 79 -203 12 -34 12
-34 -51 -95 -106 -102 -191 -261 -209 -390 -4 -26 -10 -49 -13 -52 -8 -5 -264
-46 -441 -71 l-124 -18 59 -12 c33 -7 112 -20 175 -29 63 -9 151 -23 196 -31
44 -8 92 -14 107 -14 21 0 28 -6 32 -27 20 -97 43 -167 76 -233 39 -77 143
-211 179 -230 11 -6 20 -17 20 -24 0 -8 -34 -101 -76 -207 -42 -107 -87 -225
-100 -264 l-24 -70 27 34 c42 53 136 175 216 281 39 52 105 138 146 190 41 52
78 100 83 106 5 7 -14 22 -57 43 -122 60 -224 176 -270 306 -20 56 -25 90 -25
171 0 164 48 285 156 391 260 255 671 180 835 -151 l44 -89 0 -136 c0 -126 -2
-141 -28 -209 -47 -120 -148 -227 -265 -283 -56 -27 -61 -32 -50 -48 7 -9 72
-93 143 -185 72 -93 171 -223 222 -289 110 -143 120 -154 98 -102 -9 22 -39
96 -65 165 -70 183 -89 232 -105 265 -33 73 -32 77 45 155 100 103 187 269
204 391 l7 46 147 22 c81 12 170 26 197 31 28 5 91 14 140 21 102 15 116 10
-124 43 -69 9 -128 19 -131 21 -4 2 -47 9 -96 15 -138 17 -129 12 -149 93 -36
151 -105 275 -209 377 -31 30 -56 60 -56 66 0 12 48 138 120 314 56 137 81
212 75 218 -3 3 -5 1 -5 -5 0 -6 -15 -29 -32 -51 -18 -22 -96 -121 -172 -219
l-139 -180 -71 25 c-135 47 -361 40 -469 -15 -16 -8 -30 -13 -31 -11 -2 2 -82
106 -179 232 -98 125 -177 225 -177 221z"/>
<path d="M1378 1659 c-21 -12 -24 -59 -6 -77 7 -7 24 -12 38 -12 34 0 50 17
50 52 0 40 -43 60 -82 37z"/>
<path d="M1083 1608 c-19 -25 -21 -46 -7 -67 8 -11 21 -21 28 -21 16 0 140
-250 129 -261 -4 -4 -63 -12 -130 -18 -108 -10 -125 -9 -151 6 -28 16 -31 16
-56 0 -32 -22 -34 -60 -4 -81 29 -21 44 -20 67 3 15 15 44 22 123 31 57 6 120
13 141 16 l38 6 54 -115 c45 -95 53 -120 48 -150 -7 -44 9 -67 46 -67 35 0 51
17 51 52 0 20 -7 32 -24 39 -16 8 -39 44 -75 122 -28 62 -51 115 -51 120 0 4
17 7 37 7 20 0 95 7 166 16 117 14 130 14 146 0 21 -19 62 -21 79 -4 17 17 15
63 -2 78 -8 6 -25 10 -38 9 -33 -4 -52 4 -253 101 -99 48 -201 97 -227 109
-32 15 -48 29 -48 42 0 33 -67 53 -87 27z m469 -272 c37 -17 67 -33 68 -36 0
-9 -324 -39 -332 -31 -11 10 -118 229 -118 241 0 5 71 -25 158 -67 86 -41 187
-89 224 -107z"/>
<path d="M1038 1029 c-25 -14 -23 -62 3 -85 19 -17 23 -17 47 -3 32 17 40 59
17 83 -19 18 -42 20 -67 5z"/>
<path d="M1215 618 c-43 -79 -120 -215 -170 -303 -51 -88 -108 -190 -129 -227
l-37 -68 421 0 c231 0 420 2 420 4 0 3 -24 47 -54 98 -124 215 -305 537 -330
586 -14 28 -30 52 -34 52 -5 0 -44 -64 -87 -142z"/>
</g>
</svg>