<svg width="22" height="22" viewBox="0 0 22 22" fill="none" xmlns="http://www.w3.org/2000/svg">
<path d="M20.0002 11L11.0002 2L2.00024 11L11.0002 20L20.0002 11Z" fill="#413C55" stroke="white" stroke-width="2"/>
<path fill-rule="evenodd" clip-rule="evenodd" d="M7.29107 8.08557H14.1797C14.3261 8.08557 14.4447 8.20419 14.4447 8.35052V13.3868C14.4447 13.5331 14.3261 13.6517 14.1797 13.6517H13.1055C13.0327 13.6517 12.9632 13.6817 12.9131 13.7345L11.077 15.6733C10.9764 15.7796 10.8087 15.7841 10.7025 15.6835C10.6643 15.6474 10.6377 15.6007 10.6262 15.5494L10.245 13.8584C10.2178 13.7376 10.1105 13.6517 9.98658 13.6517H7.29107C7.14474 13.6517 7.02612 13.5331 7.02612 13.3868V8.35052C7.02612 8.20419 7.14474 8.08557 7.29107 8.08557Z" fill="white"/>
</svg>
