<svg width="22" height="22" viewBox="0 0 22 22" fill="none" xmlns="http://www.w3.org/2000/svg">
<path d="M16.375 6.28125C17.0654 6.28125 17.625 5.72161 17.625 5.03125C17.625 4.34089 17.0654 3.78125 16.375 3.78125C15.6846 3.78125 15.125 4.34089 15.125 5.03125C15.125 5.72161 15.6846 6.28125 16.375 6.28125Z" fill="#131B25"/>
<path d="M15.2969 0C11.6007 0 8.59375 3.007 8.59375 6.70312C8.59375 7.2209 8.65283 7.7336 8.76979 8.23363L0 17.0034V22H5.5V19.5938H7.90625V17.1875H10.3125V14.7812H12.2153L13.7664 13.2302C14.2664 13.3472 14.7792 13.4062 15.2969 13.4062C18.993 13.4062 22 10.3993 22 6.70312C22 3.007 18.993 0 15.2969 0ZM15.2969 11.6875C14.7775 11.6875 14.2653 11.6078 13.7745 11.4506L13.2753 11.2906L11.5034 13.0625H8.59375V15.4688H6.1875V17.875H3.78125V20.2812H1.71875V17.7153L10.7094 8.72472L10.5495 8.22551C10.3922 7.73476 10.3125 7.22257 10.3125 6.70312C10.3125 3.95471 12.5485 1.71875 15.2969 1.71875C18.0453 1.71875 20.2812 3.95471 20.2812 6.70312C20.2812 9.45154 18.0453 11.6875 15.2969 11.6875Z" fill="#131B25"/>
</svg>
