<svg width="22" height="22" viewBox="0 0 22 22" fill="none" xmlns="http://www.w3.org/2000/svg">
<path d="M8.87586 8.33969L8.93485 8.2807L8.91585 8.19946C8.80152 7.7107 8.74375 7.20946 8.74375 6.70312C8.74375 3.08984 11.6836 0.15 15.2969 0.15C18.9102 0.15 21.85 3.08984 21.85 6.70312C21.85 10.3164 18.9102 13.2563 15.2969 13.2563C14.7906 13.2563 14.2893 13.1985 13.8006 13.0842L13.7193 13.0651L13.6603 13.1241L12.1532 14.6313H10.3125H10.1625V14.7812V17.0375H7.90625H7.75625V17.1875V19.4438H5.5H5.35V19.5938V21.85H0.15V17.0656L8.87586 8.33969ZM11.5034 13.2125H11.5656L11.6095 13.1686L13.3166 11.4614L13.7287 11.5934C14.2344 11.7554 14.7621 11.8375 15.2969 11.8375C18.1281 11.8375 20.4312 9.53438 20.4312 6.70312C20.4312 3.87187 18.1281 1.56875 15.2969 1.56875C12.4656 1.56875 10.1625 3.87187 10.1625 6.70312C10.1625 7.23798 10.2446 7.76561 10.4066 8.27127C10.4066 8.27128 10.4066 8.27128 10.4066 8.27128L10.5386 8.68335L1.61268 17.6093L1.56875 17.6532V17.7153V20.2812V20.4312H1.71875H3.78125H3.93125V20.2812V18.025H6.1875H6.3375V17.875V15.6187H8.59375H8.74375V15.4688V13.2125H11.5034Z" fill="#131B25" stroke="#5DB9AC" stroke-width="0.3"/>
</svg>
