<svg width="20" height="18" viewBox="0 0 20 18" fill="none" xmlns="http://www.w3.org/2000/svg">
<path d="M18.7927 0H1.20739C0.541643 0 0 0.541643 0 1.20739V13.3488C0 14.0145 0.541643 14.5562 1.20739 14.5562H7.23319V15.4347C7.23319 16.2401 6.57796 16.8953 5.7726 16.8953H4.44459C4.18998 16.8953 3.98353 17.1017 3.98353 17.3564C3.98353 17.611 4.18998 17.8174 4.44459 17.8174H15.5554C15.81 17.8174 16.0165 17.611 16.0165 17.3564C16.0165 17.1017 15.81 16.8953 15.5554 16.8953H14.2274C13.422 16.8953 12.7668 16.2401 12.7668 15.4347V14.5562H18.7926C19.4583 14.5562 20 14.0146 20 13.3488V1.20739C20 0.541643 19.4584 0 18.7927 0ZM7.65315 16.8954C7.96745 16.4916 8.15538 15.9849 8.15538 15.4348V14.5563H11.8447V15.4348C11.8447 15.9849 12.0327 16.4917 12.347 16.8954H7.65315ZM19.078 13.3488C19.078 13.5061 18.95 13.6342 18.7927 13.6342H1.20739C1.05008 13.6342 0.922074 13.5062 0.922074 13.3488V10.9257H19.078V13.3488ZM19.078 10.0035H0.922113V1.20739C0.922113 1.05008 1.05008 0.922074 1.20743 0.922074H18.7927C18.95 0.922074 19.078 1.05004 19.078 1.20739V10.0035Z" fill="#FFFFFF"/>
<path d="M10.0001 12.7774C10.2749 12.7774 10.4977 12.5546 10.4977 12.2798C10.4977 12.005 10.2749 11.7822 10.0001 11.7822C9.72534 11.7822 9.50256 12.005 9.50256 12.2798C9.50256 12.5546 9.72534 12.7774 10.0001 12.7774Z" fill="#FFFFFF"/>
<path d="M10.7906 3.17605C10.6105 2.99601 10.3187 2.99601 10.1385 3.17605L6.88015 6.43442C6.70011 6.61446 6.70011 6.90641 6.88015 7.08649C6.97023 7.17653 7.08816 7.22153 7.20621 7.22153C7.32426 7.22153 7.44219 7.17653 7.53223 7.08649L10.7906 3.82812C10.9706 3.64808 10.9706 3.35612 10.7906 3.17605Z" fill="#FFFFFF"/>
<path d="M12.7218 5.06472C12.5418 4.88468 12.25 4.88468 12.0698 5.06468L10.7717 6.36266C10.5917 6.54274 10.5917 6.83469 10.7717 7.01473C10.8618 7.10477 10.9798 7.14977 11.0978 7.14977C11.2157 7.14977 11.3337 7.10477 11.4238 7.01473L12.7218 5.71676C12.9019 5.53672 12.9019 5.24476 12.7218 5.06472Z" fill="#FFFFFF"/>
</svg>
