<svg width="22" height="22" viewBox="0 0 22 22" fill="none" xmlns="http://www.w3.org/2000/svg">
<path d="M19.8003 11L10.8003 2L1.80029 11L10.8003 20L19.8003 11Z" fill="#413C55" stroke="white" stroke-width="2"/>
<path d="M7.88065 10.9948C8.61229 10.9948 9.20539 10.4017 9.20539 9.67008C9.20539 8.93844 8.61229 8.34534 7.88065 8.34534C7.14902 8.34534 6.55591 8.93844 6.55591 9.67008C6.55591 10.4017 7.14902 10.9948 7.88065 10.9948Z" fill="white"/>
<path d="M14.2395 8.87524H10.5302C10.0912 8.87524 9.73535 9.23111 9.73535 9.67009C9.73535 10.1091 10.0912 10.4649 10.5302 10.4649H14.2395C14.6785 10.4649 15.0343 10.1091 15.0343 9.67009C15.0343 9.23111 14.6785 8.87524 14.2395 8.87524Z" fill="white"/>
<path d="M14.2395 12.0547H10.5302C10.0912 12.0547 9.73535 12.4106 9.73535 12.8495C9.73535 13.2885 10.0912 13.6444 10.5302 13.6444H14.2395C14.6785 13.6444 15.0343 13.2885 15.0343 12.8495C15.0343 12.4106 14.6785 12.0547 14.2395 12.0547Z" fill="white"/>
<path d="M7.88065 14.1743C8.61229 14.1743 9.20539 13.5812 9.20539 12.8495C9.20539 12.1179 8.61229 11.5248 7.88065 11.5248C7.14902 11.5248 6.55591 12.1179 6.55591 12.8495C6.55591 13.5812 7.14902 14.1743 7.88065 14.1743Z" fill="white"/>
</svg>
