<svg width="80" height="80" viewBox="0 0 80 80" fill="none" xmlns="http://www.w3.org/2000/svg">
<rect width="80" height="80" rx="10" fill="#E96950"/>
<path fill-rule="evenodd" clip-rule="evenodd" d="M22 22C16.4772 22 12 26.4772 12 32V48C12 53.5228 16.4772 58 22 58H58C63.5228 58 68 53.5228 68 48V32C68 26.4772 63.5229 22 58 22H22ZM46.0378 40.5777C46.533 40.1775 46.533 39.4225 46.0378 39.0223L38.1286 32.6293C37.4747 32.1008 36.5 32.5662 36.5 33.4071V46.1929C36.5 47.0338 37.4747 47.4992 38.1286 46.9706L46.0378 40.5777Z" fill="#BE3E25"/>
</svg>
