<svg width="31" height="21" viewBox="0 0 31 21" fill="none" xmlns="http://www.w3.org/2000/svg">
<path d="M5.36277 18.2118V7.76044C5.65832 7.76044 5.77807 7.76044 6.9676 7.76044H9.51244C10.0917 7.76044 10.5614 7.3652 10.5614 6.79401C10.5614 6.22281 10.0917 5.75977 9.51244 5.75977H5.36277C4.24183 5.75977 3.33368 6.65519 3.33368 7.76044V18.2216C3.33368 19.3269 4.24183 20.2223 5.36277 20.2223H15.8835C17.0034 20.2223 17.9125 19.3266 17.9125 18.2216V14.0116C17.9125 13.4404 17.4429 12.9773 16.8636 12.9773C16.2843 12.9773 15.8147 13.4404 15.8147 14.0116V18.2118H5.36277Z" fill="#476FB1"/>
<path d="M17.9111 7.27559L17.9183 10.5177C17.9142 11.093 18.3405 11.5273 18.9158 11.5233C19.491 11.5192 19.9607 11.0496 19.9647 10.4743L20.0129 3.63671L13.1829 3.61966C12.6076 3.62486 12.1389 4.0954 12.136 4.67064C12.1331 5.24589 12.6024 5.66354 13.1776 5.65834L16.5712 5.69023L11.0623 11.1991C10.6527 11.6087 10.648 12.2682 11.0519 12.6721C11.4558 13.076 12.1153 13.0714 12.5249 12.6618L17.9111 7.27559Z" fill="#476FB1"/>
</svg>
