<svg width="171" height="136" viewBox="0 0 171 136" fill="none" xmlns="http://www.w3.org/2000/svg">
<g id="Vector">
<path d="M56.0043 129.741H9.12927C7.21165 129.741 5.66691 128.197 5.66691 126.279V70.7746C5.66691 68.857 7.21165 67.3122 9.12927 67.3122H56.0043C57.9219 67.3122 59.4666 68.857 59.4666 70.7746V84.7306C59.4666 85.4763 58.8807 86.0622 58.135 86.0622C57.3892 86.0622 56.8033 85.4763 56.8033 84.7306V70.7746C56.8033 70.3484 56.4304 69.9756 56.0043 69.9756H9.12927C8.70313 69.9756 8.33026 70.3484 8.33026 70.7746V126.279C8.33026 126.705 8.70313 127.078 9.12927 127.078H56.0043C56.4304 127.078 56.8033 126.705 56.8033 126.279V123.083C56.8033 122.337 57.3892 121.751 58.135 121.751C58.8807 121.751 59.4666 122.337 59.4666 123.083V126.279C59.4666 128.197 57.9219 129.741 56.0043 129.741Z" fill="black"/>
<path d="M59.0938 135.867H6.09304C3.00355 135.867 0.5 133.363 0.5 130.274V66.8861C0.5 63.7966 3.00355 61.2931 6.09304 61.2931H17.3324V58.683C17.3324 57.6709 18.1847 56.8186 19.1967 56.8186H26.5476C27.027 53.8889 29.5306 51.6517 32.62 51.6517C35.7095 51.6517 38.2131 53.8889 38.6925 56.8186H46.0434C47.0554 56.8186 47.9077 57.6709 47.9077 58.683V61.2931H59.147C62.2365 61.2931 64.7401 63.7966 64.7401 66.8861V77.0601C64.7401 77.8058 64.1542 78.3918 63.4084 78.3918C62.6627 78.3918 62.0767 77.8058 62.0767 77.0601V66.8861C62.0767 65.2881 60.7451 63.9564 59.147 63.9564H45.1911V59.482H35.9226L36.0291 58.0438C36.0291 57.9372 36.0291 57.8307 36.0291 57.7774C36.0291 55.8598 34.4844 54.3151 32.5668 54.3151C30.6492 54.3151 29.1044 55.8598 29.1044 57.7774C29.1044 57.884 29.1044 57.9905 29.1044 58.0438L29.211 59.482H19.9425V63.9564H6.09304C4.49503 63.9564 3.16335 65.2881 3.16335 66.8861V130.274C3.16335 131.872 4.49503 133.204 6.09304 133.204H59.0938C60.6918 133.204 62.0235 131.872 62.0235 130.274V114.72C62.0235 113.974 62.6094 113.388 63.3552 113.388C64.1009 113.388 64.6868 113.974 64.6868 114.72V130.274C64.6868 133.31 62.1833 135.867 59.0938 135.867Z" fill="black"/>
<path d="M58.9872 115.785L49.3459 110.672L72.1975 67.3655C72.8367 66.1404 73.9553 65.2348 75.287 64.8087C76.6186 64.3825 78.0569 64.5423 79.282 65.1815L79.6016 65.3414C80.8267 65.9806 81.7323 67.0992 82.1584 68.4308C82.5846 69.7625 82.4248 71.2007 81.7856 72.4259L58.9872 115.785ZM52.9148 109.553L57.8686 112.163L79.4951 71.2007C79.8147 70.5615 79.8679 69.8691 79.6549 69.2299C79.4418 68.5374 79.0157 68.0047 78.3765 67.6851L78.0569 67.5253C77.4177 67.2057 76.7252 67.1524 76.086 67.3655C75.3935 67.5786 74.8608 68.0047 74.5412 68.6439L52.9148 109.553Z" fill="black"/>
<path d="M50.9972 120.526C50.7841 120.526 50.571 120.473 50.358 120.366C49.9318 120.153 49.6655 119.727 49.6655 119.248L49.3459 110.512C49.3459 110.032 49.559 109.606 49.9851 109.34C50.4112 109.074 50.8907 109.074 51.3168 109.287L59.0405 113.388C59.4667 113.601 59.733 114.027 59.733 114.507C59.733 114.986 59.5199 115.412 59.0938 115.679L51.6897 120.313C51.4766 120.473 51.2635 120.526 50.9972 120.526ZM52.1158 112.696L52.2756 116.797L55.7912 114.613L52.1158 112.696Z" fill="black"/>
<path d="M16.9595 82.0672C16.5867 82.0672 16.2671 81.9074 16.0007 81.6943L12.2188 77.9124C11.6861 77.3797 11.6861 76.5274 12.2188 76.048C12.7514 75.5154 13.6037 75.5154 14.0831 76.048L16.9595 78.8179L22.1797 73.5977C22.7124 73.0651 23.5646 73.0651 24.044 73.5977C24.5767 74.1304 24.5767 74.9827 24.044 75.4621L17.8651 81.6411C17.652 81.9074 17.3324 82.0672 16.9595 82.0672Z" fill="black"/>
<path d="M50.6243 79.2973H30.3828C29.6371 79.2973 29.0512 78.7114 29.0512 77.9656C29.0512 77.2199 29.6371 76.634 30.3828 76.634H50.6243C51.3701 76.634 51.956 77.2199 51.956 77.9656C51.956 78.7114 51.3701 79.2973 50.6243 79.2973Z" fill="black"/>
<path d="M16.9595 112.909C16.5867 112.909 16.2671 112.749 16.0007 112.536L12.2188 108.754C11.6861 108.221 11.6861 107.369 12.2188 106.89C12.7514 106.357 13.6037 106.357 14.0831 106.89L16.9595 109.713L22.1797 104.493C22.7124 103.96 23.5646 103.96 24.044 104.493C24.5767 105.025 24.5767 105.878 24.044 106.357L17.8651 112.536C17.652 112.802 17.3324 112.909 16.9595 112.909Z" fill="black"/>
<path d="M50.6243 120.633H30.3828C29.6371 120.633 29.0512 120.047 29.0512 119.301C29.0512 118.555 29.6371 117.969 30.3828 117.969H50.6243C51.3701 117.969 51.956 118.555 51.956 119.301C51.956 120.047 51.3701 120.633 50.6243 120.633Z" fill="black"/>
<path d="M44.6051 110.299H30.3296C29.5838 110.299 28.9979 109.713 28.9979 108.967C28.9979 108.221 29.5838 107.635 30.3296 107.635H44.6051C45.3509 107.635 45.9368 108.221 45.9368 108.967C45.9368 109.713 45.3509 110.299 44.6051 110.299Z" fill="black"/>
<path d="M50.6243 99.965H30.3828C29.6371 99.965 29.0512 99.379 29.0512 98.6333C29.0512 97.8875 29.6371 97.3016 30.3828 97.3016H50.6243C51.3701 97.3016 51.956 97.8875 51.956 98.6333C51.956 99.379 51.3701 99.965 50.6243 99.965Z" fill="black"/>
<path d="M50.6243 89.6311H30.3828C29.6371 89.6311 29.0512 89.0452 29.0512 88.2995C29.0512 87.5537 29.6371 86.9678 30.3828 86.9678H50.6243C51.3701 86.9678 51.956 87.5537 51.956 88.2995C51.956 89.0452 51.3701 89.6311 50.6243 89.6311Z" fill="black"/>
<path d="M20.4219 92.188C20.1556 92.188 19.8892 92.0814 19.6761 91.8684L13.2841 85.4763C12.858 85.0502 12.858 84.411 13.2841 83.9848C13.7102 83.5587 14.3494 83.5587 14.7756 83.9848L21.1676 90.3769C21.5938 90.803 21.5938 91.4422 21.1676 91.8684C20.9546 92.0814 20.6882 92.188 20.4219 92.188Z" fill="black"/>
<path d="M14.0298 92.188C13.7635 92.188 13.4972 92.0814 13.2841 91.8684C12.858 91.4422 12.858 90.803 13.2841 90.3769L19.6761 83.9848C20.1023 83.5587 20.7415 83.5587 21.1676 83.9848C21.5938 84.411 21.5938 85.0502 21.1676 85.4763L14.7756 91.8684C14.5625 92.0814 14.2962 92.188 14.0298 92.188Z" fill="black"/>
<path d="M20.4219 103.534C20.1556 103.534 19.8892 103.427 19.6761 103.214L13.2841 96.8222C12.858 96.396 12.858 95.7569 13.2841 95.3307C13.7102 94.9046 14.3494 94.9046 14.7756 95.3307L21.1676 101.723C21.5938 102.149 21.5938 102.788 21.1676 103.214C20.9546 103.427 20.6882 103.534 20.4219 103.534Z" fill="black"/>
<path d="M14.0298 103.534C13.7635 103.534 13.4972 103.427 13.2841 103.214C12.858 102.788 12.858 102.149 13.2841 101.723L19.6761 95.3307C20.1023 94.9046 20.7415 94.9046 21.1676 95.3307C21.5938 95.7569 21.5938 96.396 21.1676 96.8222L14.7756 103.214C14.5625 103.427 14.2962 103.534 14.0298 103.534Z" fill="black"/>
<path d="M20.4219 123.083C20.1556 123.083 19.8892 122.976 19.6761 122.763L13.2841 116.371C12.858 115.945 12.858 115.306 13.2841 114.88C13.7102 114.454 14.3494 114.454 14.7756 114.88L21.1676 121.272C21.5938 121.698 21.5938 122.337 21.1676 122.763C20.9546 122.976 20.6882 123.083 20.4219 123.083Z" fill="black"/>
<path d="M14.0298 123.083C13.7635 123.083 13.4972 122.976 13.2841 122.763C12.858 122.337 12.858 121.698 13.2841 121.272L19.6761 114.88C20.1023 114.454 20.7415 114.454 21.1676 114.88C21.5938 115.306 21.5938 115.945 21.1676 116.371L14.7756 122.763C14.5625 122.976 14.2962 123.083 14.0298 123.083Z" fill="black"/>
<path d="M144.161 78.4451H97.2863C95.3687 78.4451 93.8239 76.9003 93.8239 74.9827V19.4784C93.8239 17.5608 95.3687 16.016 97.2863 16.016H144.161C146.079 16.016 147.624 17.5608 147.624 19.4784V33.4344C147.624 34.1801 147.038 34.766 146.292 34.766C145.546 34.766 144.96 34.1801 144.96 33.4344V19.4784C144.96 19.0523 144.587 18.6794 144.161 18.6794H97.2863C96.8601 18.6794 96.4873 19.0523 96.4873 19.4784V74.9827C96.4873 75.4088 96.8601 75.7817 97.2863 75.7817H144.161C144.587 75.7817 144.96 75.4088 144.96 74.9827V71.7867C144.96 71.0409 145.546 70.455 146.292 70.455C147.038 70.455 147.624 71.0409 147.624 71.7867V74.9827C147.624 76.847 146.026 78.4451 144.161 78.4451Z" fill="black"/>
<path d="M147.198 84.5175H94.1968C91.1073 84.5175 88.6037 82.0139 88.6037 78.9245V15.5366C88.6037 12.4471 91.1073 9.94359 94.1968 9.94359H105.436V7.3335C105.436 6.32143 106.288 5.46916 107.3 5.46916H114.651C115.131 2.53947 117.634 0.302246 120.724 0.302246C123.813 0.302246 126.317 2.53947 126.796 5.46916H134.147C135.159 5.46916 136.011 6.32143 136.011 7.3335V9.94359H147.251C150.34 9.94359 152.844 12.4471 152.844 15.5366V25.7106C152.844 26.4564 152.258 27.0423 151.512 27.0423C150.766 27.0423 150.18 26.4564 150.18 25.7106V15.5366C150.18 13.9386 148.849 12.6069 147.251 12.6069H133.348V8.13251H124.026L124.133 6.6943C124.133 6.58776 124.133 6.53449 124.133 6.42796C124.133 4.51035 122.588 2.9656 120.671 2.9656C118.753 2.9656 117.208 4.51035 117.208 6.42796C117.208 6.53449 117.208 6.64103 117.208 6.6943L117.315 8.13251H108.046V12.6069H94.1968C92.5988 12.6069 91.2671 13.9386 91.2671 15.5366V78.9245C91.2671 80.5225 92.5988 81.8541 94.1968 81.8541H147.198C148.796 81.8541 150.127 80.5225 150.127 78.9245V63.3705C150.127 62.6247 150.713 62.0388 151.459 62.0388C152.205 62.0388 152.791 62.6247 152.791 63.3705V78.9245C152.791 82.0139 150.287 84.5175 147.198 84.5175Z" fill="black"/>
<path d="M147.091 64.4358L137.45 59.3222L160.301 16.016C160.94 14.7909 162.059 13.8854 163.391 13.4592C164.722 13.0331 166.161 13.1929 167.386 13.8321L167.705 13.9919C168.93 14.6311 169.836 15.7497 170.262 17.0814C170.688 18.4131 170.529 19.8513 169.889 21.0764L147.091 64.4358ZM141.072 58.2568L146.026 60.8669L167.652 19.9045C167.972 19.2653 168.025 18.5729 167.812 17.9336C167.599 17.2412 167.173 16.7085 166.533 16.3889L166.214 16.2291C165.575 15.9095 164.882 15.8562 164.243 16.0693C163.551 16.2824 163.018 16.7085 162.698 17.3477L141.072 58.2568Z" fill="black"/>
<path d="M139.154 69.1766C138.941 69.1766 138.728 69.1233 138.515 69.0168C138.089 68.8037 137.823 68.3776 137.823 67.8982L137.503 59.1624C137.503 58.683 137.716 58.2568 138.142 57.9905C138.568 57.7242 139.048 57.7242 139.474 57.9372L147.198 62.0388C147.624 62.2519 147.89 62.678 147.89 63.1574C147.89 63.6368 147.677 64.0629 147.251 64.3293L139.847 68.9635C139.634 69.1233 139.367 69.1766 139.154 69.1766ZM140.22 61.3463L140.379 65.4479L143.895 63.2639L140.22 61.3463Z" fill="black"/>
<path d="M105.117 30.7177C104.744 30.7177 104.424 30.5579 104.158 30.3449L100.376 26.5629C99.8431 26.0302 99.8431 25.178 100.376 24.6986C100.908 24.1659 101.761 24.1659 102.24 24.6986L105.063 27.5217L110.283 22.3016C110.816 21.7689 111.668 21.7689 112.148 22.3016C112.68 22.8342 112.68 23.6865 112.148 24.1659L105.969 30.3449C105.809 30.5579 105.436 30.7177 105.117 30.7177Z" fill="black"/>
<path d="M105.117 40.9983C104.744 40.9983 104.424 40.8385 104.158 40.6254L100.376 36.8435C99.8431 36.3108 99.8431 35.4585 100.376 34.9791C100.908 34.4464 101.761 34.4464 102.24 34.9791L105.063 37.8023L110.283 32.5821C110.816 32.0494 111.668 32.0494 112.148 32.5821C112.68 33.1148 112.68 33.967 112.148 34.4464L105.969 40.6254C105.809 40.8385 105.436 40.9983 105.117 40.9983Z" fill="black"/>
<path d="M105.117 51.2788C104.744 51.2788 104.424 51.119 104.158 50.906L100.376 47.124C99.8431 46.5913 99.8431 45.7391 100.376 45.2597C100.908 44.727 101.761 44.727 102.24 45.2597L105.063 48.0828L110.283 42.8626C110.816 42.33 111.668 42.33 112.148 42.8626C112.68 43.3953 112.68 44.2476 112.148 44.727L105.969 50.906C105.809 51.1723 105.436 51.2788 105.117 51.2788Z" fill="black"/>
<path d="M138.728 27.9479H118.487C117.741 27.9479 117.155 27.3619 117.155 26.6162C117.155 25.8704 117.741 25.2845 118.487 25.2845H138.728C139.474 25.2845 140.06 25.8704 140.06 26.6162C140.06 27.3619 139.474 27.9479 138.728 27.9479Z" fill="black"/>
<path d="M105.117 61.5594C104.744 61.5594 104.424 61.3996 104.158 61.1865L100.376 57.4046C99.8431 56.8719 99.8431 56.0196 100.376 55.5402C100.908 55.0075 101.761 55.0075 102.24 55.5402L105.063 58.3634L110.283 53.1432C110.816 52.6105 111.668 52.6105 112.148 53.1432C112.68 53.6759 112.68 54.5281 112.148 55.0075L105.969 61.1865C105.809 61.4529 105.436 61.5594 105.117 61.5594Z" fill="black"/>
<path d="M138.728 69.2831H118.487C117.741 69.2831 117.155 68.6972 117.155 67.9514C117.155 67.2057 117.741 66.6198 118.487 66.6198H138.728C139.474 66.6198 140.06 67.2057 140.06 67.9514C140.06 68.6972 139.474 69.2831 138.728 69.2831Z" fill="black"/>
<path d="M132.762 58.9493H118.487C117.741 58.9493 117.155 58.3634 117.155 57.6176C117.155 56.8719 117.741 56.2859 118.487 56.2859H132.762C133.508 56.2859 134.094 56.8719 134.094 57.6176C134.094 58.3634 133.508 58.9493 132.762 58.9493Z" fill="black"/>
<path d="M138.728 48.6155H118.487C117.741 48.6155 117.155 48.0296 117.155 47.2838C117.155 46.5381 117.741 45.9521 118.487 45.9521H138.728C139.474 45.9521 140.06 46.5381 140.06 47.2838C140.06 48.0296 139.474 48.6155 138.728 48.6155Z" fill="black"/>
<path d="M138.728 38.2817H118.487C117.741 38.2817 117.155 37.6957 117.155 36.95C117.155 36.2043 117.741 35.6183 118.487 35.6183H138.728C139.474 35.6183 140.06 36.2043 140.06 36.95C140.06 37.6957 139.474 38.2817 138.728 38.2817Z" fill="black"/>
<path d="M108.526 71.7334C108.259 71.7334 107.993 71.6269 107.78 71.4138L101.388 65.0218C100.962 64.5956 100.962 63.9564 101.388 63.5303C101.814 63.1041 102.453 63.1041 102.879 63.5303L109.271 69.9223C109.697 70.3485 109.697 70.9877 109.271 71.4138C109.112 71.6269 108.792 71.7334 108.526 71.7334Z" fill="black"/>
<path d="M102.134 71.7334C101.867 71.7334 101.601 71.6269 101.388 71.4138C100.962 70.9877 100.962 70.3485 101.388 69.9223L107.78 63.5303C108.206 63.1041 108.845 63.1041 109.271 63.5303C109.697 63.9564 109.697 64.5956 109.271 65.0218L102.879 71.4138C102.72 71.6269 102.4 71.7334 102.134 71.7334Z" fill="black"/>
<path d="M5.96612 31.3191H1.52608V28.8065H5.96612V24.332H8.4787V28.8065H12.9187V31.3191H8.4787V35.7362H5.96612V31.3191Z" fill="black"/>
<path d="M33.0882 34.8642H31.069V38.3405H27.6041V34.8642H20.445V32.3975L27.7992 21.5671H31.069V32.1107H33.0882V34.8642ZM27.6041 32.1107V29.2654C27.6041 28.7912 27.6233 28.1028 27.6615 27.2003C27.6997 26.2977 27.7303 25.7738 27.7533 25.6285H27.6615C27.3785 26.2557 27.0381 26.8676 26.6404 27.4642L23.5657 32.1107H27.6041Z" fill="black"/>
<path d="M36.0712 38.3405L42.3699 24.573H34.0978V21.59H46.133V23.8158L39.7884 38.3405H36.0712Z" fill="black"/>
<path d="M50.5042 26.5922C50.5042 27.5636 50.5883 28.2902 50.7566 28.7721C50.9325 29.2463 51.2117 29.4834 51.5941 29.4834C52.3284 29.4834 52.6955 28.5197 52.6955 26.5922C52.6955 24.6801 52.3284 23.724 51.5941 23.724C51.2117 23.724 50.9325 23.9611 50.7566 24.4353C50.5883 24.9019 50.5042 25.6208 50.5042 26.5922ZM55.5867 26.5693C55.5867 28.3285 55.2463 29.6517 54.5656 30.5389C53.8849 31.4185 52.8867 31.8583 51.5712 31.8583C50.3091 31.8583 49.3339 31.407 48.6456 30.5045C47.9572 29.5943 47.613 28.2826 47.613 26.5693C47.613 23.0738 48.9324 21.3261 51.5712 21.3261C52.8638 21.3261 53.8543 21.7812 54.5427 22.6914C55.2387 23.5939 55.5867 24.8866 55.5867 26.5693ZM63.4801 21.5671L54.1755 38.3405H51.422L60.7266 21.5671H63.4801ZM62.2525 33.2924C62.2525 34.2638 62.3366 34.9904 62.5049 35.4723C62.6808 35.9465 62.96 36.1836 63.3424 36.1836C64.0767 36.1836 64.4438 35.2199 64.4438 33.2924C64.4438 31.3803 64.0767 30.4242 63.3424 30.4242C62.96 30.4242 62.6808 30.6613 62.5049 31.1355C62.3366 31.6021 62.2525 32.321 62.2525 33.2924ZM67.335 33.2695C67.335 35.021 66.9947 36.3404 66.3139 37.2277C65.6332 38.1073 64.6351 38.547 63.3195 38.547C62.0575 38.547 61.0823 38.0958 60.3939 37.1932C59.7055 36.2831 59.3613 34.9751 59.3613 33.2695C59.3613 29.774 60.6807 28.0263 63.3195 28.0263C64.6121 28.0263 65.6026 28.4814 66.291 29.3916C66.987 30.2942 67.335 31.5868 67.335 33.2695Z" fill="black"/>
<path d="M88.2841 132.192C87.9645 132.192 87.5917 132.085 87.3253 131.819C86.7927 131.286 86.7927 130.434 87.3253 129.954L117.528 99.7519H111.082C110.337 99.7519 109.751 99.1659 109.751 98.4202C109.751 97.6745 110.337 97.0885 111.082 97.0885H120.724C120.777 97.0885 120.777 97.0885 120.83 97.0885C121.097 97.0885 121.363 97.1951 121.523 97.3549C121.576 97.4081 121.629 97.4614 121.736 97.5147C121.949 97.7277 122.055 98.0473 122.055 98.3669V107.795C122.055 108.541 121.47 109.127 120.724 109.127C119.978 109.127 119.392 108.541 119.392 107.795V101.616L89.1897 131.819C88.9233 132.032 88.6037 132.192 88.2841 132.192Z" fill="black"/>
</g>
</svg>
