<svg width="171" height="162" viewBox="0 0 171 162" fill="none" xmlns="http://www.w3.org/2000/svg">
<g id="Vector">
<path d="M119.156 99.0093H115.918V90.1449L115.95 88.6885L116.002 87.0958C115.464 87.6337 115.09 87.9865 114.881 88.1541L113.12 89.5686L111.559 87.6197L116.494 83.6905H119.156V99.0093Z" fill="black"/>
<path d="M133.521 87.1168C133.521 88.0738 133.231 88.8876 132.651 89.5581C132.072 90.2287 131.258 90.6898 130.21 90.9412V91.0041C131.446 91.1578 132.382 91.535 133.018 92.1357C133.654 92.7295 133.972 93.5328 133.972 94.5456C133.972 96.0195 133.437 97.1686 132.368 97.9929C131.3 98.8102 129.773 99.2188 127.79 99.2188C126.127 99.2188 124.653 98.9429 123.368 98.3911V95.6354C123.962 95.9357 124.615 96.1802 125.327 96.3688C126.04 96.5574 126.745 96.6517 127.444 96.6517C128.513 96.6517 129.302 96.4701 129.812 96.1069C130.322 95.7436 130.577 95.1604 130.577 94.357C130.577 93.6376 130.283 93.1276 129.697 92.8273C129.11 92.5269 128.174 92.3767 126.888 92.3767H125.725V89.8934H126.909C128.097 89.8934 128.963 89.7398 129.508 89.4324C130.06 89.1181 130.336 88.5837 130.336 87.8293C130.336 86.6697 129.609 86.09 128.156 86.09C127.653 86.09 127.14 86.1738 126.616 86.3414C126.099 86.5091 125.523 86.799 124.887 87.2111L123.389 84.9793C124.786 83.9734 126.452 83.4705 128.387 83.4705C129.973 83.4705 131.223 83.7918 132.138 84.4344C133.06 85.0771 133.521 85.9712 133.521 87.1168Z" fill="black"/>
<path d="M143.569 83.6905L137.859 99.0093H134.957L140.667 83.6905H143.569Z" fill="black"/>
<path d="M152.539 99.0093H149.301V90.1449L149.332 88.6885L149.385 87.0958C148.847 87.6337 148.473 87.9865 148.264 88.1541L146.503 89.5686L144.942 87.6197L149.877 83.6905H152.539V99.0093Z" fill="black"/>
<path d="M158.312 99.0093L164.064 86.4357H156.51V83.7115H167.501V85.7442L161.707 99.0093H158.312Z" fill="black"/>
<path d="M13.8841 153.257C13.8841 155.932 13.444 157.912 12.5638 159.198C11.6907 160.483 10.3425 161.126 8.51936 161.126C6.75208 161.126 5.41789 160.462 4.51678 159.135C3.62267 157.808 3.17561 155.848 3.17561 153.257C3.17561 150.553 3.61219 148.563 4.48535 147.284C5.35851 145.999 6.70318 145.356 8.51936 145.356C10.2866 145.356 11.6208 146.027 12.5219 147.368C13.43 148.709 13.8841 150.672 13.8841 153.257ZM6.39234 153.257C6.39234 155.136 6.553 156.484 6.87432 157.301C7.20263 158.112 7.75098 158.517 8.51936 158.517C9.27377 158.517 9.81862 158.105 10.1539 157.28C10.4892 156.456 10.6569 155.115 10.6569 153.257C10.6569 151.378 10.4857 150.03 10.1434 149.212C9.80814 148.388 9.26678 147.976 8.51936 147.976C7.75796 147.976 7.21311 148.388 6.8848 149.212C6.55649 150.03 6.39234 151.378 6.39234 153.257Z" fill="black"/>
<path d="M25.6298 149.024C25.6298 149.981 25.34 150.794 24.7602 151.465C24.1804 152.136 23.3666 152.597 22.3188 152.848V152.911C23.5552 153.065 24.4912 153.442 25.1269 154.043C25.7626 154.636 26.0804 155.44 26.0804 156.453C26.0804 157.926 25.546 159.076 24.4773 159.9C23.4085 160.717 21.8822 161.126 19.8984 161.126C18.2359 161.126 16.762 160.85 15.4767 160.298V157.542C16.0705 157.843 16.7236 158.087 17.4361 158.276C18.1486 158.464 18.8541 158.559 19.5526 158.559C20.6214 158.559 21.4107 158.377 21.9206 158.014C22.4306 157.65 22.6855 157.067 22.6855 156.264C22.6855 155.544 22.3922 155.035 21.8054 154.734C21.2186 154.434 20.2826 154.284 18.9973 154.284H17.8342V151.8H19.0183C20.2058 151.8 21.0719 151.647 21.6168 151.339C22.1686 151.025 22.4445 150.491 22.4445 149.736C22.4445 148.577 21.7181 147.997 20.2651 147.997C19.7622 147.997 19.2488 148.081 18.7249 148.248C18.208 148.416 17.6317 148.706 16.996 149.118L15.4977 146.886C16.8947 145.88 18.5607 145.377 20.4956 145.377C22.0813 145.377 23.3317 145.699 24.2468 146.341C25.1688 146.984 25.6298 147.878 25.6298 149.024Z" fill="black"/>
<path d="M35.6782 145.597L29.9677 160.916H27.0653L32.7758 145.597H35.6782Z" fill="black"/>
<path d="M44.6473 160.916H41.4096V152.052L41.4411 150.595L41.4934 149.003C40.9556 149.541 40.5819 149.893 40.3723 150.061L38.612 151.475L37.0508 149.527L41.9859 145.597H44.6473V160.916Z" fill="black"/>
<path d="M54.4756 151.13C55.9565 151.13 57.1335 151.545 58.0067 152.377C58.8868 153.208 59.3269 154.346 59.3269 155.792C59.3269 157.504 58.7995 158.821 57.7447 159.743C56.69 160.665 55.1811 161.126 53.2183 161.126C51.5139 161.126 50.1378 160.85 49.09 160.298V157.5C49.6418 157.794 50.2844 158.035 51.0179 158.223C51.7514 158.405 52.4464 158.496 53.103 158.496C55.0799 158.496 56.0683 157.685 56.0683 156.065C56.0683 154.521 55.0449 153.749 52.9982 153.749C52.628 153.749 52.2194 153.788 51.7723 153.864C51.3253 153.934 50.962 154.011 50.6826 154.095L49.3938 153.403L49.9701 145.597H58.2791V148.343H52.8096L52.5267 151.35L52.8935 151.276C53.3196 151.179 53.8469 151.13 54.4756 151.13Z" fill="black"/>
<path d="M15.2784 33.0006H11.2234V30.7059H15.2784V26.6195H17.5731V30.7059H21.628V33.0006H17.5731V37.0346H15.2784V33.0006Z" fill="black"/>
<path d="M28.994 29.6267C30.4749 29.6267 31.6519 30.0423 32.5251 30.8736C33.4052 31.7048 33.8453 32.8434 33.8453 34.2894C33.8453 36.0008 33.3179 37.3175 32.2631 38.2396C31.2083 39.1616 29.6995 39.6227 27.7367 39.6227C26.0322 39.6227 24.6561 39.3467 23.6083 38.7949V35.9973C24.1602 36.2907 24.8028 36.5317 25.5363 36.7203C26.2697 36.9019 26.9648 36.9927 27.6214 36.9927C29.5982 36.9927 30.5867 36.1824 30.5867 34.5618C30.5867 33.0181 29.5633 32.2462 27.5166 32.2462C27.1464 32.2462 26.7378 32.2846 26.2907 32.3614C25.8436 32.4313 25.4804 32.5081 25.201 32.592L23.9122 31.9004L24.4885 24.0943H32.7975V26.8396H27.328L27.0451 29.8467L27.4118 29.7734C27.8379 29.6756 28.3653 29.6267 28.994 29.6267Z" fill="black"/>
<path d="M35.5742 32.9063C35.5742 29.8747 36.2133 27.6184 37.4916 26.1375C38.7769 24.6567 40.6979 23.9162 43.2545 23.9162C44.1277 23.9162 44.8122 23.9686 45.3082 24.0734V26.6614C44.6865 26.5217 44.0718 26.4519 43.4641 26.4519C42.3534 26.4519 41.4453 26.6195 40.7398 26.9548C40.0413 27.2901 39.5174 27.7861 39.1681 28.4427C38.8188 29.0993 38.6128 30.0318 38.5499 31.2403H38.6861C39.3777 30.0528 40.4848 29.459 42.0076 29.459C43.3767 29.459 44.449 29.8886 45.2243 30.7478C45.9997 31.607 46.3874 32.7945 46.3874 34.3103C46.3874 35.9449 45.9264 37.2407 45.0043 38.1977C44.0823 39.1477 42.8039 39.6227 41.1694 39.6227C40.0378 39.6227 39.0493 39.3607 38.2041 38.8368C37.3659 38.3129 36.7163 37.548 36.2552 36.5421C35.8012 35.5363 35.5742 34.3243 35.5742 32.9063ZM41.1065 37.0346C41.7981 37.0346 42.3289 36.8041 42.6992 36.3431C43.0694 35.875 43.2545 35.2114 43.2545 34.3522C43.2545 33.6048 43.0799 33.0181 42.7306 32.592C42.3883 32.1589 41.8679 31.9423 41.1694 31.9423C40.5128 31.9423 39.9505 32.1554 39.4824 32.5815C39.0214 33.0076 38.7909 33.5035 38.7909 34.0693C38.7909 34.9006 39.0074 35.6026 39.4405 36.1754C39.8806 36.7482 40.4359 37.0346 41.1065 37.0346Z" fill="black"/>
<path d="M50.3795 28.6837C50.3795 29.5708 50.4563 30.2344 50.61 30.6745C50.7707 31.1076 51.0256 31.3241 51.3749 31.3241C52.0455 31.3241 52.3808 30.444 52.3808 28.6837C52.3808 26.9374 52.0455 26.0642 51.3749 26.0642C51.0256 26.0642 50.7707 26.2807 50.61 26.7138C50.4563 27.1399 50.3795 27.7965 50.3795 28.6837ZM55.0212 28.6627C55.0212 30.2693 54.7104 31.4778 54.0887 32.2881C53.467 33.0914 52.5554 33.4931 51.3539 33.4931C50.2014 33.4931 49.3107 33.0809 48.6821 32.2567C48.0534 31.4254 47.7391 30.2274 47.7391 28.6627C47.7391 25.4704 48.944 23.8743 51.3539 23.8743C52.5345 23.8743 53.4391 24.2899 54.0677 25.1212C54.7034 25.9454 55.0212 27.126 55.0212 28.6627ZM62.23 24.0943L53.7324 39.4131H51.2177L59.7153 24.0943H62.23ZM61.1089 34.8028C61.1089 35.6899 61.1857 36.3535 61.3394 36.7936C61.5001 37.2267 61.7551 37.4432 62.1043 37.4432C62.7749 37.4432 63.1102 36.5631 63.1102 34.8028C63.1102 33.0565 62.7749 32.1833 62.1043 32.1833C61.7551 32.1833 61.5001 32.3999 61.3394 32.833C61.1857 33.2591 61.1089 33.9157 61.1089 34.8028ZM65.7506 34.7818C65.7506 36.3815 65.4398 37.5864 64.8181 38.3967C64.1964 39.2 63.2848 39.6017 62.0834 39.6017C60.9308 39.6017 60.0402 39.1896 59.4115 38.3653C58.7828 37.5341 58.4685 36.3396 58.4685 34.7818C58.4685 31.5896 59.6734 29.9934 62.0834 29.9934C63.2639 29.9934 64.1685 30.4091 64.7971 31.2403C65.4328 32.0646 65.7506 33.2451 65.7506 34.7818Z" fill="black"/>
<path d="M9.46116 137.698C13.6867 137.698 17.1122 134.273 17.1122 130.047C17.1122 125.822 13.6867 122.396 9.46116 122.396C5.2356 122.396 1.81011 125.822 1.81011 130.047C1.81011 134.273 5.2356 137.698 9.46116 137.698Z" fill="black"/>
<path d="M9.46116 138.956C4.53514 138.956 0.5 134.921 0.5 129.995C0.5 125.069 4.48274 121.034 9.46116 121.034C14.4396 121.034 18.4223 125.069 18.4223 129.995C18.4223 134.921 14.3872 138.956 9.46116 138.956ZM9.46116 123.706C6.00247 123.706 3.12022 126.536 3.12022 130.047C3.12022 133.558 5.95006 136.388 9.46116 136.388C12.9199 136.388 15.8021 133.558 15.8021 130.047C15.8021 126.536 12.9199 123.706 9.46116 123.706Z" fill="black"/>
<path d="M29.8989 137.698C34.1244 137.698 37.5499 134.273 37.5499 130.047C37.5499 125.822 34.1244 122.396 29.8989 122.396C25.6733 122.396 22.2478 125.822 22.2478 130.047C22.2478 134.273 25.6733 137.698 29.8989 137.698Z" fill="black"/>
<path d="M29.8989 138.956C24.9729 138.956 20.9377 134.921 20.9377 129.995C20.9377 125.069 24.9205 121.034 29.8989 121.034C34.8773 121.034 38.86 125.069 38.86 129.995C38.86 134.921 34.8249 138.956 29.8989 138.956ZM29.8989 123.706C26.4402 123.706 23.558 126.536 23.558 130.047C23.558 133.558 26.3878 136.388 29.8989 136.388C33.3576 136.388 36.2398 133.558 36.2398 130.047C36.2398 126.536 33.41 123.706 29.8989 123.706Z" fill="black"/>
<path d="M50.389 137.698C54.6146 137.698 58.0401 134.273 58.0401 130.047C58.0401 125.822 54.6146 122.396 50.389 122.396C46.1635 122.396 42.738 125.822 42.738 130.047C42.738 134.273 46.1635 137.698 50.389 137.698Z" fill="black"/>
<path d="M50.389 138.956C45.463 138.956 41.4279 134.921 41.4279 129.995C41.4279 125.069 45.463 121.034 50.389 121.034C55.315 121.034 59.3502 125.069 59.3502 129.995C59.3502 134.921 55.315 138.956 50.389 138.956ZM50.389 123.706C46.9303 123.706 44.0481 126.536 44.0481 130.047C44.0481 133.558 46.8779 136.388 50.389 136.388C53.8477 136.388 56.73 133.558 56.73 130.047C56.73 126.536 53.8477 123.706 50.389 123.706Z" fill="black"/>
<path d="M9.46116 118.728C4.53514 118.728 0.5 114.693 0.5 109.767C0.5 104.841 4.48274 100.806 9.46116 100.806C14.4396 100.806 18.4223 104.841 18.4223 109.767C18.4223 114.693 14.3872 118.728 9.46116 118.728ZM9.46116 103.478C6.00247 103.478 3.12022 106.308 3.12022 109.819C3.12022 113.33 5.95006 116.16 9.46116 116.16C12.9199 116.16 15.8021 113.33 15.8021 109.819C15.8021 106.308 12.9199 103.478 9.46116 103.478Z" fill="black"/>
<path d="M29.8989 118.728C24.9729 118.728 20.9377 114.693 20.9377 109.767C20.9377 104.841 24.9205 100.806 29.8989 100.806C34.8773 100.806 38.86 104.841 38.86 109.767C38.86 114.693 34.8249 118.728 29.8989 118.728ZM29.8989 103.478C26.4402 103.478 23.558 106.308 23.558 109.819C23.558 113.33 26.3878 116.16 29.8989 116.16C33.3576 116.16 36.2398 113.33 36.2398 109.819C36.2398 106.308 33.41 103.478 29.8989 103.478Z" fill="black"/>
<path d="M50.389 118.728C45.463 118.728 41.4279 114.693 41.4279 109.767C41.4279 104.841 45.463 100.806 50.389 100.806C55.315 100.806 59.3502 104.841 59.3502 109.767C59.3502 114.693 55.315 118.728 50.389 118.728ZM50.389 103.478C46.9303 103.478 44.0481 106.308 44.0481 109.819C44.0481 113.33 46.8779 116.16 50.389 116.16C53.8477 116.16 56.73 113.33 56.73 109.819C56.73 106.308 53.8477 103.478 50.389 103.478Z" fill="black"/>
<path d="M70.8268 118.728C65.9007 118.728 61.8656 114.693 61.8656 109.767C61.8656 104.841 65.9007 100.806 70.8268 100.806C75.7528 100.806 79.7879 104.841 79.7879 109.767C79.7879 114.693 75.7528 118.728 70.8268 118.728ZM70.8268 103.478C67.3681 103.478 64.4858 106.308 64.4858 109.819C64.4858 113.33 67.3157 116.16 70.8268 116.16C74.2854 116.16 77.1677 113.33 77.1677 109.819C77.1677 106.308 74.3378 103.478 70.8268 103.478Z" fill="black"/>
<path d="M9.46116 98.7619C4.53514 98.7619 0.5 94.7268 0.5 89.8007C0.5 84.8747 4.48274 80.8396 9.46116 80.8396C14.4396 80.8396 18.4223 84.8223 18.4223 89.8007C18.3699 94.7268 14.3872 98.7619 9.46116 98.7619ZM9.46116 83.4598C6.00247 83.4598 3.12022 86.2896 3.12022 89.8007C3.12022 93.2594 5.95006 96.1417 9.46116 96.1417C12.9199 96.1417 15.8021 93.3118 15.8021 89.8007C15.7497 86.342 12.9199 83.4598 9.46116 83.4598Z" fill="black"/>
<path d="M29.8989 98.7619C24.9729 98.7619 20.9377 94.7268 20.9377 89.8007C20.9377 84.8747 24.9205 80.8396 29.8989 80.8396C34.8773 80.8396 38.86 84.8223 38.86 89.8007C38.86 94.7268 34.8249 98.7619 29.8989 98.7619ZM29.8989 83.4598C26.4402 83.4598 23.558 86.2896 23.558 89.8007C23.558 93.2594 26.3878 96.1417 29.8989 96.1417C33.3576 96.1417 36.2398 93.3118 36.2398 89.8007C36.2398 86.342 33.41 83.4598 29.8989 83.4598Z" fill="black"/>
<path d="M50.389 98.7619C45.463 98.7619 41.4279 94.7268 41.4279 89.8007C41.4279 84.8747 45.463 80.8396 50.389 80.8396C55.315 80.8396 59.3502 84.8223 59.3502 89.8007C59.2978 94.7268 55.315 98.7619 50.389 98.7619ZM50.389 83.4598C46.9303 83.4598 44.0481 86.2896 44.0481 89.8007C44.0481 93.2594 46.8779 96.1417 50.389 96.1417C53.8477 96.1417 56.73 93.3118 56.73 89.8007C56.6776 86.342 53.8477 83.4598 50.389 83.4598Z" fill="black"/>
<path d="M70.8268 98.7619C65.9007 98.7619 61.8656 94.7268 61.8656 89.8007C61.8656 84.8747 65.9007 80.8396 70.8268 80.8396C75.7528 80.8396 79.7879 84.8223 79.7879 89.8007C79.7879 94.7268 75.7528 98.7619 70.8268 98.7619ZM70.8268 83.4598C67.3681 83.4598 64.4858 86.2896 64.4858 89.8007C64.4858 93.2594 67.3157 96.1417 70.8268 96.1417C74.2854 96.1417 77.1677 93.3118 77.1677 89.8007C77.1677 86.342 74.3378 83.4598 70.8268 83.4598Z" fill="black"/>
<path d="M9.46116 78.7434C4.53514 78.7434 0.5 74.7083 0.5 69.7822C0.5 64.8562 4.48274 60.8211 9.46116 60.8211C14.4396 60.8211 18.4223 64.8562 18.4223 69.7822C18.4223 74.7083 14.3872 78.7434 9.46116 78.7434ZM9.46116 63.4937C6.00247 63.4937 3.12022 66.3236 3.12022 69.8346C3.12022 73.3457 5.95006 76.1756 9.46116 76.1756C12.9199 76.1756 15.8021 73.3457 15.8021 69.8346C15.8021 66.3236 12.9199 63.4937 9.46116 63.4937Z" fill="black"/>
<path d="M29.8989 78.7434C24.9729 78.7434 20.9377 74.7083 20.9377 69.7822C20.9377 64.8562 24.9205 60.8211 29.8989 60.8211C34.8773 60.8211 38.86 64.9086 38.86 69.8346C38.86 74.7607 34.8249 78.7434 29.8989 78.7434ZM29.8989 63.4937C26.4402 63.4937 23.558 66.3236 23.558 69.8346C23.558 73.3457 26.3878 76.1756 29.8989 76.1756C33.3576 76.1756 36.2398 73.3457 36.2398 69.8346C36.2398 66.3236 33.41 63.4937 29.8989 63.4937Z" fill="black"/>
<path d="M50.389 78.7434C45.463 78.7434 41.4279 74.7083 41.4279 69.7822C41.4279 64.8562 45.463 60.8211 50.389 60.8211C55.315 60.8211 59.2978 64.9086 59.2978 69.8346C59.2978 74.7607 55.315 78.7434 50.389 78.7434ZM50.389 63.4937C46.9303 63.4937 44.0481 66.3236 44.0481 69.8346C44.0481 73.3457 46.8779 76.1756 50.389 76.1756C53.8477 76.1756 56.73 73.3457 56.73 69.8346C56.73 66.3236 53.8477 63.4937 50.389 63.4937Z" fill="black"/>
<path d="M70.8268 78.7434C65.9007 78.7434 61.8656 74.7083 61.8656 69.7822C61.8656 64.8562 65.9007 60.8211 70.8268 60.8211C75.7528 60.8211 79.7879 64.8562 79.7879 69.7822C79.7879 74.7083 75.7528 78.7434 70.8268 78.7434ZM70.8268 63.4937C67.3681 63.4937 64.4858 66.3236 64.4858 69.8346C64.4858 73.3457 67.3157 76.1756 70.8268 76.1756C74.2854 76.1756 77.1677 73.3457 77.1677 69.8346C77.1677 66.3236 74.3378 63.4937 70.8268 63.4937Z" fill="black"/>
<path d="M100.173 96.4561C104.399 96.4561 107.824 93.0306 107.824 88.8051C107.824 84.5795 104.399 81.154 100.173 81.154C95.9477 81.154 92.5222 84.5795 92.5222 88.8051C92.5222 93.0306 95.9477 96.4561 100.173 96.4561Z" fill="black"/>
<path d="M100.173 97.7662C95.2472 97.7662 91.2121 93.7311 91.2121 88.8051C91.2121 83.879 95.2472 79.8439 100.173 79.8439C105.099 79.8439 109.134 83.879 109.134 88.8051C109.134 93.7311 105.099 97.7662 100.173 97.7662ZM100.173 82.5165C96.7145 82.5165 93.8323 85.3464 93.8323 88.8575C93.8323 92.3686 96.6621 95.1984 100.173 95.1984C103.632 95.1984 106.514 92.3686 106.514 88.8575C106.514 85.3464 103.632 82.5165 100.173 82.5165Z" fill="black"/>
<path d="M120.611 77.1713C124.837 77.1713 128.262 73.7458 128.262 69.5202C128.262 65.2947 124.837 61.8692 120.611 61.8692C116.385 61.8692 112.96 65.2947 112.96 69.5202C112.96 73.7458 116.385 77.1713 120.611 77.1713Z" fill="black"/>
<path d="M120.611 78.4814C115.685 78.4814 111.65 74.4462 111.65 69.5202C111.65 64.5942 115.685 60.5591 120.611 60.5591C125.537 60.5591 129.572 64.5418 129.572 69.5202C129.572 74.4462 125.537 78.4814 120.611 78.4814ZM120.611 63.2317C117.152 63.2317 114.27 66.0615 114.27 69.5726C114.27 73.0313 117.1 75.9136 120.611 75.9136C124.122 75.9136 126.952 73.0837 126.952 69.5726C126.952 66.0615 124.122 63.2317 120.611 63.2317Z" fill="black"/>
<path d="M141.101 77.1713C145.327 77.1713 148.752 73.7458 148.752 69.5202C148.752 65.2947 145.327 61.8692 141.101 61.8692C136.876 61.8692 133.45 65.2947 133.45 69.5202C133.45 73.7458 136.876 77.1713 141.101 77.1713Z" fill="black"/>
<path d="M141.101 78.4814C136.175 78.4814 132.14 74.4462 132.14 69.5202C132.14 64.5942 136.175 60.5591 141.101 60.5591C146.027 60.5591 150.062 64.5418 150.062 69.5202C150.01 74.4462 146.027 78.4814 141.101 78.4814ZM141.101 63.2317C137.642 63.2317 134.76 66.0615 134.76 69.5726C134.76 73.0313 137.59 75.9136 141.101 75.9136C144.612 75.9136 147.442 73.0837 147.442 69.5726C147.39 66.0615 144.56 63.2317 141.101 63.2317Z" fill="black"/>
<path d="M161.539 77.1713C165.764 77.1713 169.19 73.7458 169.19 69.5202C169.19 65.2947 165.764 61.8692 161.539 61.8692C157.313 61.8692 153.888 65.2947 153.888 69.5202C153.888 73.7458 157.313 77.1713 161.539 77.1713Z" fill="black"/>
<path d="M161.539 78.4814C156.613 78.4814 152.578 74.4462 152.578 69.5202C152.578 64.5942 156.613 60.5591 161.539 60.5591C166.465 60.5591 170.5 64.5418 170.5 69.5202C170.5 74.4462 166.517 78.4814 161.539 78.4814ZM161.539 63.2317C158.08 63.2317 155.198 66.0615 155.198 69.5726C155.198 73.0313 158.028 75.9136 161.539 75.9136C165.05 75.9136 167.88 73.0837 167.88 69.5726C167.88 66.0615 165.05 63.2317 161.539 63.2317Z" fill="black"/>
<path d="M100.173 76.49C104.399 76.49 107.824 73.0645 107.824 68.839C107.824 64.6134 104.399 61.1879 100.173 61.1879C95.9477 61.1879 92.5222 64.6134 92.5222 68.839C92.5222 73.0645 95.9477 76.49 100.173 76.49Z" fill="black"/>
<path d="M100.173 77.8001C95.2472 77.8001 91.2121 73.765 91.2121 68.839C91.2121 63.913 95.2472 59.8778 100.173 59.8778C105.099 59.8778 109.134 63.8605 109.134 68.839C109.082 73.765 105.099 77.8001 100.173 77.8001ZM100.173 62.498C96.7145 62.498 93.8323 65.3279 93.8323 68.839C93.8323 72.2977 96.6621 75.1799 100.173 75.1799C103.632 75.1799 106.514 72.3501 106.514 68.839C106.462 65.3803 103.632 62.498 100.173 62.498Z" fill="black"/>
<path d="M120.611 57.2052C124.837 57.2052 128.262 53.7797 128.262 49.5541C128.262 45.3286 124.837 41.9031 120.611 41.9031C116.385 41.9031 112.96 45.3286 112.96 49.5541C112.96 53.7797 116.385 57.2052 120.611 57.2052Z" fill="black"/>
<path d="M120.611 58.5153C115.685 58.5153 111.65 54.4802 111.65 49.5541C111.65 44.6281 115.685 40.593 120.611 40.593C125.537 40.593 129.572 44.6281 129.572 49.5541C129.572 54.4802 125.537 58.5153 120.611 58.5153ZM120.611 43.2656C117.152 43.2656 114.27 46.0954 114.27 49.6065C114.27 53.1176 117.1 55.9475 120.611 55.9475C124.122 55.9475 126.952 53.1176 126.952 49.6065C126.952 46.0954 124.122 43.2656 120.611 43.2656Z" fill="black"/>
<path d="M141.101 57.2052C145.327 57.2052 148.752 53.7797 148.752 49.5541C148.752 45.3286 145.327 41.9031 141.101 41.9031C136.876 41.9031 133.45 45.3286 133.45 49.5541C133.45 53.7797 136.876 57.2052 141.101 57.2052Z" fill="black"/>
<path d="M141.101 58.5153C136.175 58.5153 132.14 54.4802 132.14 49.5541C132.14 44.6281 136.175 40.593 141.101 40.593C146.027 40.593 150.062 44.6281 150.062 49.5541C150.062 54.4802 146.027 58.5153 141.101 58.5153ZM141.101 43.2656C137.642 43.2656 134.76 46.0954 134.76 49.6065C134.76 53.1176 137.59 55.9475 141.101 55.9475C144.612 55.9475 147.442 53.1176 147.442 49.6065C147.442 46.0954 144.56 43.2656 141.101 43.2656Z" fill="black"/>
<path d="M161.539 57.2052C165.764 57.2052 169.19 53.7797 169.19 49.5541C169.19 45.3286 165.764 41.9031 161.539 41.9031C157.313 41.9031 153.888 45.3286 153.888 49.5541C153.888 53.7797 157.313 57.2052 161.539 57.2052Z" fill="black"/>
<path d="M161.539 58.5153C156.613 58.5153 152.578 54.4802 152.578 49.5541C152.578 44.6281 156.613 40.593 161.539 40.593C166.465 40.593 170.5 44.6281 170.5 49.5541C170.5 54.4802 166.517 58.5153 161.539 58.5153ZM161.539 43.2656C158.08 43.2656 155.198 46.0954 155.198 49.6065C155.198 53.1176 158.028 55.9475 161.539 55.9475C165.05 55.9475 167.88 53.1176 167.88 49.6065C167.88 46.0954 165.05 43.2656 161.539 43.2656Z" fill="black"/>
<path d="M100.173 56.5239C104.399 56.5239 107.824 53.0984 107.824 48.8729C107.824 44.6473 104.399 41.2218 100.173 41.2218C95.9477 41.2218 92.5222 44.6473 92.5222 48.8729C92.5222 53.0984 95.9477 56.5239 100.173 56.5239Z" fill="black"/>
<path d="M100.173 57.7816C95.2472 57.7816 91.2121 53.7465 91.2121 48.8205C91.2121 43.8945 95.2472 39.8593 100.173 39.8593C105.099 39.8593 109.082 43.9469 109.082 48.8729C109.082 53.7989 105.099 57.7816 100.173 57.7816ZM100.173 42.5319C96.7145 42.5319 93.8323 45.3618 93.8323 48.8729C93.8323 52.384 96.6621 55.2138 100.173 55.2138C103.632 55.2138 106.514 52.384 106.514 48.8729C106.514 45.3618 103.632 42.5319 100.173 42.5319Z" fill="black"/>
<path d="M120.611 37.2391C124.837 37.2391 128.262 33.8136 128.262 29.588C128.262 25.3625 124.837 21.937 120.611 21.937C116.385 21.937 112.96 25.3625 112.96 29.588C112.96 33.8136 116.385 37.2391 120.611 37.2391Z" fill="black"/>
<path d="M120.611 38.4968C115.685 38.4968 111.65 34.4617 111.65 29.5356C111.65 24.6096 115.685 20.5745 120.611 20.5745C125.537 20.5745 129.572 24.6096 129.572 29.5356C129.572 34.4617 125.537 38.4968 120.611 38.4968ZM120.611 23.2471C117.152 23.2471 114.27 26.077 114.27 29.588C114.27 33.0991 117.1 35.929 120.611 35.929C124.122 35.929 126.952 33.0991 126.952 29.588C126.952 26.077 124.122 23.2471 120.611 23.2471Z" fill="black"/>
<path d="M161.539 37.2391C165.764 37.2391 169.19 33.8136 169.19 29.588C169.19 25.3625 165.764 21.937 161.539 21.937C157.313 21.937 153.888 25.3625 153.888 29.588C153.888 33.8136 157.313 37.2391 161.539 37.2391Z" fill="black"/>
<path d="M161.539 38.4968C156.613 38.4968 152.578 34.4617 152.578 29.5356C152.578 24.6096 156.613 20.5745 161.539 20.5745C166.465 20.5745 170.5 24.6096 170.5 29.5356C170.5 34.4617 166.517 38.4968 161.539 38.4968ZM161.539 23.2471C158.08 23.2471 155.198 26.077 155.198 29.588C155.198 33.0991 158.028 35.929 161.539 35.929C165.05 35.929 167.88 33.0991 167.88 29.588C167.88 26.077 165.05 23.2471 161.539 23.2471Z" fill="black"/>
<path d="M141.101 37.3963C145.327 37.3963 148.752 33.9708 148.752 29.7453C148.752 25.5197 145.327 22.0942 141.101 22.0942C136.876 22.0942 133.45 25.5197 133.45 29.7453C133.45 33.9708 136.876 37.3963 141.101 37.3963Z" fill="black"/>
<path d="M141.101 38.654C136.175 38.654 132.14 34.6713 132.14 29.6929C132.14 24.7144 136.175 20.7317 141.101 20.7317C146.027 20.7317 150.062 24.7668 150.062 29.6929C150.062 34.6189 146.027 38.654 141.101 38.654ZM141.101 23.4043C137.642 23.4043 134.76 26.2342 134.76 29.7453C134.76 33.204 137.59 36.0862 141.101 36.0862C144.612 36.0862 147.442 33.2564 147.442 29.7453C147.39 26.2342 144.56 23.4043 141.101 23.4043Z" fill="black"/>
<path d="M100.173 36.715C104.399 36.715 107.824 33.2896 107.824 29.064C107.824 24.8384 104.399 21.413 100.173 21.413C95.9477 21.413 92.5222 24.8384 92.5222 29.064C92.5222 33.2896 95.9477 36.715 100.173 36.715Z" fill="black"/>
<path d="M100.173 37.9728C95.2472 37.9728 91.2121 33.9376 91.2121 29.0116C91.2121 24.0856 95.2472 20.0504 100.173 20.0504C105.099 20.0504 109.134 24.0856 109.134 29.0116C109.134 33.9376 105.099 37.9728 100.173 37.9728ZM100.173 22.7231C96.7145 22.7231 93.8323 25.5529 93.8323 29.064C93.8323 32.5751 96.6621 35.4049 100.173 35.4049C103.632 35.4049 106.514 32.5751 106.514 29.064C106.514 25.5529 103.632 22.7231 100.173 22.7231Z" fill="black"/>
<path d="M100.173 18.5307C95.2472 18.5307 91.2121 14.548 91.2121 9.56956C91.2121 4.59114 95.2472 0.608398 100.173 0.608398C105.099 0.608398 109.082 4.64354 109.082 9.56956C109.082 14.4956 105.099 18.5307 100.173 18.5307ZM100.173 3.28103C96.7145 3.28103 93.8323 6.11086 93.8323 9.62196C93.8323 13.0807 96.6621 15.9629 100.173 15.9629C103.632 15.9629 106.514 13.1331 106.514 9.62196C106.462 6.11086 103.632 3.28103 100.173 3.28103Z" fill="black"/>
<path d="M120.611 18.5831C115.685 18.5831 111.65 14.6004 111.65 9.62196C111.65 4.64354 115.685 0.660804 120.611 0.660804C125.537 0.660804 129.572 4.69594 129.572 9.62196C129.572 14.548 125.537 18.5831 120.611 18.5831ZM120.611 3.33343C117.152 3.33343 114.27 6.16327 114.27 9.67437C114.27 13.1331 117.1 16.0153 120.611 16.0153C124.122 16.0153 126.952 13.1855 126.952 9.67437C126.952 6.16327 124.122 3.33343 120.611 3.33343Z" fill="black"/>
<path d="M141.101 18.6355C136.175 18.6355 132.14 14.6528 132.14 9.67437C132.14 4.69594 136.175 0.713208 141.101 0.713208C146.027 0.713208 150.062 4.74835 150.062 9.67437C150.062 14.6004 146.027 18.6355 141.101 18.6355ZM141.101 3.38583C137.642 3.38583 134.76 6.21567 134.76 9.72677C134.76 13.1855 137.59 16.0677 141.101 16.0677C144.612 16.0677 147.442 13.2379 147.442 9.72677C147.39 6.21567 144.56 3.38583 141.101 3.38583Z" fill="black"/>
<path d="M161.539 18.6879C156.613 18.6879 152.578 14.7052 152.578 9.72677C152.578 4.74835 156.613 0.765611 161.539 0.765611C166.465 0.765611 170.5 4.80075 170.5 9.72677C170.5 14.6528 166.517 18.6879 161.539 18.6879ZM161.539 3.43824C158.08 3.43824 155.198 6.26808 155.198 9.77918C155.198 13.2379 158.028 16.1201 161.539 16.1201C165.05 16.1201 167.88 13.2903 167.88 9.77918C167.88 6.26808 165.05 3.43824 161.539 3.43824Z" fill="black"/>
<path d="M79.4735 155.83C79.159 155.83 78.7922 155.726 78.5302 155.464C78.0062 154.939 78.0062 154.101 78.5302 153.629L119.772 112.387H109.973C109.239 112.387 108.663 111.811 108.663 111.077C108.663 110.343 109.239 109.767 109.973 109.767H122.917C122.969 109.767 122.969 109.767 123.022 109.767C123.284 109.767 123.546 109.872 123.703 110.029C123.755 110.081 123.86 110.134 123.912 110.186C124.122 110.396 124.227 110.71 124.227 111.025V123.654C124.227 124.388 123.65 124.964 122.917 124.964C122.183 124.964 121.607 124.388 121.607 123.654V114.221L80.3644 155.464C80.1547 155.726 79.7879 155.83 79.4735 155.83Z" fill="black"/>
</g>
</svg>
