<svg width="27" height="23" viewBox="0 0 27 23" fill="none" xmlns="http://www.w3.org/2000/svg">
<path d="M7.54626 15.0089C7.54626 15.2328 7.728 15.4146 7.95189 15.4146H9.5745C9.7984 15.4146 9.98013 15.2328 9.98013 15.0089V12.5751C9.98013 12.3512 9.7984 12.1694 9.5745 12.1694H7.95194C7.72804 12.1694 7.54631 12.3512 7.54631 12.5751V15.0089H7.54626ZM8.35757 12.9807H9.16887V14.6033H8.35757V12.9807Z" fill="white"/>
<path d="M7.95189 11.0337H9.57445C9.79835 11.0337 9.98008 10.852 9.98008 10.6281V8.1942C9.98008 7.97031 9.79835 7.78857 9.57445 7.78857H7.95189C7.728 7.78857 7.54626 7.97031 7.54626 8.1942V10.6281C7.54622 10.852 7.72795 11.0337 7.95189 11.0337ZM8.35752 8.59983H9.16882V10.2224H8.35752V8.59983Z" fill="white"/>
<path d="M1.42672 8.62277L13.1437 4.12378L24.8607 8.62277C24.926 8.66213 24.9983 8.68076 25.0692 8.68076C25.2071 8.68076 25.3414 8.6106 25.4173 8.48401C25.5329 8.29172 25.4704 8.04268 25.2786 7.92745L13.5494 3.42119V0.811303H15.5776V1.62261H14.3607C14.1368 1.62261 13.955 1.80434 13.955 2.02823C13.955 2.25213 14.1368 2.43386 14.3607 2.43386H15.9832C16.2071 2.43386 16.3888 2.25213 16.3888 2.02823V0.405628C16.3888 0.181732 16.2071 0 15.9832 0H13.1437C12.9198 0 12.7381 0.181732 12.7381 0.405628V3.42119L1.00892 7.9275C0.817067 8.04268 0.754604 8.29177 0.870213 8.48405C0.984965 8.67591 1.23482 8.73837 1.42672 8.62277Z" fill="white"/>
<path d="M3.32665 22.716H22.9598C23.1837 22.716 23.3654 22.5343 23.3654 22.3104C23.3654 22.0865 23.1837 21.9048 22.9598 21.9048H16.3884V17.8484H16.794C17.0179 17.8484 17.1996 17.6666 17.1996 17.4427C17.1996 17.2188 17.0179 17.0371 16.794 17.0371H9.49245C9.26855 17.0371 9.08682 17.2188 9.08682 17.4427C9.08682 17.6666 9.26855 17.8484 9.49245 17.8484H9.89808V21.9047H3.32665C3.10275 21.9047 2.92102 22.0865 2.92102 22.3104C2.92102 22.5343 3.10275 22.716 3.32665 22.716ZM13.5489 20.2822C13.7728 20.2822 13.9545 20.1004 13.9545 19.8766C13.9545 19.6527 13.7728 19.4709 13.5489 19.4709V17.8484H15.5771V21.9047H13.5489V20.2822ZM10.7094 17.8483H12.7376V19.4709C12.5137 19.4709 12.332 19.6526 12.332 19.8765C12.332 20.1004 12.5137 20.2821 12.7376 20.2821V21.9047H10.7094V17.8483Z" fill="white"/>
<path d="M12.0093 15.0089C12.0093 15.2328 12.191 15.4146 12.4149 15.4146H14.0375C14.2614 15.4146 14.4431 15.2328 14.4431 15.0089V12.5751C14.4431 12.3512 14.2614 12.1694 14.0375 12.1694H12.4149C12.191 12.1694 12.0093 12.3512 12.0093 12.5751V15.0089ZM12.8205 12.9807H13.6318V14.6033H12.8205V12.9807Z" fill="white"/>
<path d="M16.5525 15.0089C16.5525 15.2328 16.7342 15.4146 16.9581 15.4146H18.5807C18.8046 15.4146 18.9863 15.2328 18.9863 15.0089V12.5751C18.9863 12.3512 18.8046 12.1694 18.5807 12.1694H16.9581C16.7342 12.1694 16.5525 12.3512 16.5525 12.5751V15.0089ZM17.3637 12.9807H18.1751V14.6033H17.3637V12.9807Z" fill="white"/>
<path d="M23.204 21.0223V9.15721C23.204 8.93891 23.0222 8.76172 22.7983 8.76172C22.5744 8.76172 22.3927 8.93891 22.3927 9.15721V21.0223C22.3927 21.2406 22.5744 21.4178 22.7983 21.4178C23.0222 21.4178 23.204 21.2406 23.204 21.0223Z" fill="white"/>
<path d="M3.73325 21.0223V9.15721C3.73325 8.93891 3.55152 8.76172 3.32762 8.76172C3.10373 8.76172 2.922 8.93891 2.922 9.15721V21.0223C2.922 21.2406 3.10373 21.4178 3.32762 21.4178C3.55152 21.4178 3.73325 21.2406 3.73325 21.0223Z" fill="white"/>
<path d="M12.4149 11.0337H14.0375C14.2614 11.0337 14.4431 10.852 14.4431 10.6281V8.1942C14.4431 7.97031 14.2614 7.78857 14.0375 7.78857H12.4149C12.191 7.78857 12.0093 7.97031 12.0093 8.1942V10.6281C12.0093 10.852 12.191 11.0337 12.4149 11.0337ZM12.8205 8.59983H13.6318V10.2224H12.8205V8.59983Z" fill="white"/>
<path d="M16.9581 11.0337H18.5807C18.8046 11.0337 18.9863 10.852 18.9863 10.6281V8.1942C18.9863 7.97031 18.8046 7.78857 18.5807 7.78857H16.9581C16.7342 7.78857 16.5525 7.97031 16.5525 8.1942V10.6281C16.5525 10.852 16.7342 11.0337 16.9581 11.0337ZM17.3637 8.59983H18.1751V10.2224H17.3637V8.59983Z" fill="white"/>
</svg>
