<svg width="24" height="24" viewBox="0 0 24 24" fill="none" xmlns="http://www.w3.org/2000/svg">
<g clip-path="url(#clip0)">
<path d="M23.5998 3.80029H0.400219C0.179297 3.80029 0 3.97959 0 4.20046V18.2221C0 18.443 0.179297 18.6223 0.400219 18.6223H3.60187V19.7989C3.60187 20.0198 3.78117 20.1991 4.00209 20.1991H20.0104C20.2313 20.1991 20.4106 20.0198 20.4106 19.7989V18.6223H23.5998C23.8208 18.6223 24 18.443 24 18.2221V4.20046C24 3.97959 23.8207 3.80029 23.5998 3.80029ZM22.6353 4.60068L21.8633 5.3819H2.16553L1.3747 4.60068H22.6353ZM20.0103 13.7862H15.6081C15.518 13.7862 15.4388 13.8214 15.372 13.8719C15.3748 13.7438 15.3235 13.6169 15.2123 13.5369L14.1013 12.7413C14.0136 12.6785 13.9043 12.6532 13.7983 12.6728C13.6922 12.6916 13.5982 12.7525 13.5374 12.8413L11.6756 15.5763C11.5531 15.756 11.5967 16.0001 11.7732 16.1266L11.8713 16.1966H2.40122V6.18225H21.6112V16.197H20.4105V14.1864C20.4105 13.9655 20.2312 13.7862 20.0103 13.7862ZM19.6101 14.5867V16.1971H16.0082V14.5867H19.6101ZM15.2078 14.2373V16.1971H13.8735L15.2078 14.2373ZM13.0167 16.0334L12.5569 15.704L13.9684 13.6305L14.4283 13.9599L13.0167 16.0334ZM0.800438 5.15859L1.60088 5.94942V16.4236L0.800438 17.2336V5.15859ZM19.6101 19.3987H4.40227V18.6224H19.6101V19.3987ZM20.0103 17.8219H4.00205H1.34428L2.15869 16.9975H15.608H20.0103H21.8372L22.6717 17.8219H20.0103ZM23.1996 17.218L22.4115 16.4396V5.96578L23.1996 5.16815V17.218Z" fill="#F7D047"/>
</g>
<defs>
<clipPath id="clip0">
<rect width="24" height="24" fill="white"/>
</clipPath>
</defs>
</svg>
