<svg width="23" height="22" viewBox="0 0 23 22" fill="none" xmlns="http://www.w3.org/2000/svg">
<g clip-path="url(#clip0)">
<path d="M21.4985 1.07422C19.8303 1.07422 1.57541 1.07422 0.648849 1.07422C0.290512 1.07422 0 1.3628 0 1.71875C0 2.0747 0.290512 2.36328 0.648849 2.36328H2.20609V20.2812C2.20609 20.4971 2.31497 20.6987 2.49604 20.8182C2.67737 20.9378 2.90676 20.9589 3.10669 20.8753L6.96445 19.2618L10.8222 20.8753C10.9832 20.9426 11.1648 20.9426 11.3258 20.8753L15.1833 19.2618L19.0407 20.8753C19.241 20.959 19.4704 20.9376 19.6514 20.8182C19.8325 20.6987 19.9414 20.4972 19.9414 20.2813V2.36328H21.4986C21.8569 2.36328 22.1474 2.0747 22.1474 1.71875C22.1474 1.3628 21.8569 1.07422 21.4985 1.07422ZM18.6436 19.3105L15.435 17.9684C15.274 17.9011 15.0925 17.9011 14.9314 17.9684L11.0739 19.5819L7.21616 17.9684C7.0552 17.9011 6.87357 17.9011 6.71261 17.9684L3.50379 19.3105V2.36328H18.6436V19.3105Z" fill="#F7D047"/>
<path d="M14.3165 4.51172H7.82866C7.47035 4.51172 7.17987 4.8003 7.17987 5.15625C7.17987 5.5122 7.47035 5.80078 7.82866 5.80078H14.3165C14.6748 5.80078 14.9653 5.5122 14.9653 5.15625C14.9653 4.8003 14.6748 4.51172 14.3165 4.51172Z" fill="#F7D047"/>
<path d="M15.8303 9.66797H9.77501C9.4167 9.66797 9.12622 9.95655 9.12622 10.3125C9.12622 10.6685 9.4167 10.957 9.77501 10.957H15.8303C16.1886 10.957 16.4791 10.6685 16.4791 10.3125C16.4791 9.95655 16.1886 9.66797 15.8303 9.66797Z" fill="#F7D047"/>
<path d="M6.40136 11.1719C6.87912 11.1719 7.26641 10.7871 7.26641 10.3125C7.26641 9.83788 6.87912 9.45312 6.40136 9.45312C5.92361 9.45312 5.53632 9.83788 5.53632 10.3125C5.53632 10.7871 5.92361 11.1719 6.40136 11.1719Z" fill="#F7D047"/>
<path d="M15.8303 13.1055H9.77501C9.4167 13.1055 9.12622 13.394 9.12622 13.75C9.12622 14.106 9.4167 14.3945 9.77501 14.3945H15.8303C16.1886 14.3945 16.4791 14.106 16.4791 13.75C16.4791 13.394 16.1886 13.1055 15.8303 13.1055Z" fill="#F7D047"/>
<path d="M6.40136 14.6094C6.87912 14.6094 7.26641 14.2246 7.26641 13.75C7.26641 13.2754 6.87912 12.8906 6.40136 12.8906C5.92361 12.8906 5.53632 13.2754 5.53632 13.75C5.53632 14.2246 5.92361 14.6094 6.40136 14.6094Z" fill="#F7D047"/>
</g>
<defs>
<clipPath id="clip0">
<rect width="22.1474" height="22" fill="white"/>
</clipPath>
</defs>
</svg>
