<svg width="15" height="18" viewBox="0 0 15 18" fill="none" xmlns="http://www.w3.org/2000/svg">
<g clip-path="url(#clip0)">
<path d="M11.6667 4.41672C11.6667 6.7179 9.80115 8.58328 7.49997 8.58328C5.19879 8.58328 3.33325 6.7179 3.33325 4.41672C3.33325 2.11554 5.19879 0.25 7.49997 0.25C9.80115 0.25 11.6667 2.11554 11.6667 4.41672Z" fill="#545B64"/>
<path d="M11.0417 10.25H3.95828C1.77582 10.25 0 12.0258 0 14.2083V17.125C0 17.47 0.279999 17.75 0.625 17.75H14.375C14.72 17.75 15 17.47 15 17.125V14.2083C15 12.0258 13.2242 10.25 11.0417 10.25Z" fill="#545B64"/>
</g>
<defs>
<clipPath id="clip0">
<rect width="15" height="18" fill="white"/>
</clipPath>
</defs>
</svg>
