<svg width="20" height="20" viewBox="0 0 20 20" fill="none" xmlns="http://www.w3.org/2000/svg">
<g clip-path="url(#clip0)">
<path d="M1.91961 6.98631C2.1726 7.16484 2.93523 7.69507 4.20753 8.57673C5.47986 9.45839 6.45456 10.1372 7.13165 10.6133C7.20604 10.6655 7.36409 10.779 7.60587 10.9538C7.84769 11.1288 8.04861 11.2702 8.2085 11.378C8.36849 11.4858 8.56192 11.6068 8.78896 11.7407C9.01592 11.8745 9.22987 11.9751 9.43076 12.0417C9.63168 12.1088 9.81768 12.1421 9.98878 12.1421H10H10.0113C10.1824 12.1421 10.3684 12.1088 10.5694 12.0417C10.7702 11.9751 10.9843 11.8743 11.2111 11.7407C11.438 11.6066 11.6314 11.4858 11.7914 11.378C11.9514 11.2702 12.1522 11.1288 12.3941 10.9538C12.6358 10.7788 12.794 10.6655 12.8684 10.6133C13.5528 10.1372 15.2941 8.92812 18.0916 6.98608C18.6347 6.60678 19.0885 6.1491 19.453 5.61336C19.8178 5.07785 20 4.51607 20 3.92834C20 3.4372 19.8232 3.01677 19.4697 2.6671C19.1163 2.31735 18.6977 2.14258 18.2142 2.14258H1.78564C1.21276 2.14258 0.771892 2.336 0.463112 2.72285C0.154371 3.10977 0 3.5934 0 4.17371C0 4.64245 0.204681 5.1504 0.613847 5.69725C1.02297 6.24413 1.45837 6.67386 1.91961 6.98631Z" fill="#545B64"/>
<path d="M18.8838 8.18042C16.4436 9.83205 14.5907 11.1156 13.3259 12.0309C12.9018 12.3433 12.5578 12.5872 12.2936 12.7619C12.0294 12.9367 11.678 13.1153 11.2389 13.2975C10.8 13.48 10.391 13.571 10.0114 13.571H10H9.98882C9.60936 13.571 9.20008 13.48 8.76116 13.2975C8.32225 13.1153 7.97063 12.9367 7.70649 12.7619C7.44243 12.5872 7.09827 12.3433 6.67421 12.0309C5.66969 11.2944 3.82076 10.0107 1.12735 8.18042C0.703131 7.89787 0.327388 7.574 0 7.20947V16.0708C0 16.5622 0.174776 16.9824 0.524524 17.3321C0.874193 17.6819 1.29466 17.8568 1.78576 17.8568H18.2144C18.7054 17.8568 19.1258 17.6819 19.4755 17.3321C19.8253 16.9823 20 16.5622 20 16.0708V7.20947C19.68 7.56645 19.3081 7.89032 18.8838 8.18042Z" fill="#545B64"/>
</g>
<defs>
<clipPath id="clip0">
<rect width="20" height="20" fill="white"/>
</clipPath>
</defs>
</svg>
