<svg height="189.30641" preserveAspectRatio="xMidYMid" viewBox="0 0 300.7879 141.9798" width="401.05054" xmlns="http://www.w3.org/2000/svg" zoomAndPan="magnify"><g transform="translate(-655.20961 -417.86255)"><path d="m890.64453 463.67578c-8.93359-24.57031-44.53906-35.30859-71.15625-21.67578-12.36328-33.16406-49.34766-31.85547-60.28906 2.11719-23.04688-11.00391-51.5625 1.82031-55.61328 25.52734-27.00391.0937-48.41016 15.57422-48.36328 34.1875.0547 20.85156 27.48046 36.36719 56.71093 32.05859 13.69141 26.73047 68.54688 32.59375 94.76563 9.89844 20.05078 22.625 68.54687 16.77735 76.85937-9.48437 31.74219 10.20312 72.36719-4.69141 72.36719-35.40235 0-28.22265-34.46094-43.35937-65.28125-37.22656" fill="#e3f2ff"/><path d="m890.64453 463.67578c-8.93359-24.57031-44.53906-35.30859-71.15625-21.67578-12.36328-33.16406-49.34766-31.85547-60.28906 2.11719-23.04688-11.00391-51.5625 1.82031-55.61328 25.52734-27.00391.0937-48.41016 15.57422-48.36328 34.1875.0547 20.85156 27.48046 36.36719 56.71093 32.05859 13.69141 26.73047 68.54688 32.59375 94.76563 9.89844 20.05078 22.625 68.54687 16.77735 76.85937-9.48437 31.74219 10.20312 72.36719-4.69141 72.36719-35.40235 0-28.22265-34.46094-43.35937-65.28125-37.22656" fill="#e3f2ff"/><path d="m703.35547 469.64844c-1.6211 3.02734-2.78516 6.32422-3.39844 9.875-19.09766.0586-35.48828 7.42578-43.94922 18.11328 4.07031-15.67969 23.51953-27.82813 47.34766-27.98828" fill="#fff"/><path d="m954.57031 491.55469c-11.83203-15.5586-37.38672-22.70703-60.90234-18.10157-9.25-24.99609-46.1211-35.91406-73.67969-22.04687-12.81641-33.73438-51.11328-32.39844-62.44141 2.14453-20.10937-9.42578-44.25781-1.64062-53.84375 15.47656 4.4375-23.32031 32.65625-35.82031 55.50391-24.91406 10.94141-33.97266 47.91797-35.28125 60.28906-2.11328 26.60938-13.625 62.21094-2.89063 71.14844 21.67578 27.22266-5.41016 57.27734 5.75781 63.92578 27.87891" fill="#fff"/><path d="m703.70312 469.02734c-.0508.20703-.0859.40625-.12109.6211h-.22656c.10547-.21485.22656-.41407.34765-.6211" fill="#e3f2ff"/><g fill="#b6d5f0"><path d="m883.55469 536.29687c-8.26953 26.19922-56.74219 32.17969-76.86328 9.49219-26.25 22.73047-81.10547 16.78516-94.75782-9.89844-32.38672 4.80079-62.48047-14.86718-55.78125-38.76953 5.03907 17.5625 29.8711 29.41407 55.78125 25.57422 7.125 13.92578 27.42578 23.96485 51.36328 23.96485 17.76954 0 33.78907-15.65235 43.64844-24.19141 7.5 8.45312 20.42188 24.19141 35.42969 24.19141 20.09766 0 36.92187-10.0625 41.17969-23.5586 29.28906 9.42188 66.33203-2.51953 71.71093-28.79687 6.92579 33.85547-36.69921 53.2539-71.71093 41.99218"/><path d="m732.57422 513.73828c-14.69531 22.55078-43.39453 23.73828-59.92969 2.64453 18.92578 9.8125 41.94141 8.80078 59.92969-2.64453"/><path d="m837.83203 511.25781c-14.69922 22.55469-43.39453 23.74219-59.93359 2.64844 18.92968 9.8125 41.9414 8.79687 59.93359-2.64844"/></g><path d="m740.30859 490.14453c14.69922-22.55078 43.39844-23.74219 59.9336-2.64844-18.92578-9.8125-41.94141-8.79687-59.9336 2.64844" fill="#fff"/><path d="m706.71094 460.8125c14.47656-22.69531 43.16015-24.16797 59.90625-3.23438-19.02344-9.625-42.02735-8.38671-59.90625 3.23438" fill="#fff"/></g></svg>