<svg height="189.02272" preserveAspectRatio="xMidYMid" viewBox="0 0 394.97987 141.76703" width="526.63983" xmlns="http://www.w3.org/2000/svg" zoomAndPan="magnify"><path d="m330.75185 75.909648c15.5625-26.48047-29.19141-50.95312-69.33203-38.58203-22.8086-50.35937-113.81641-49.52734-135.28516 1.06641-27.304691-26.44531-73.640631-6.95313-73.101561 31.63672-23.62891-8.62891-52.85156989 3.03515-52.85156989 21.88281 0 22.035162 38.73046989 32.937502 61.28124989 17.617192 16.46485 32.21875 85.222661 43.20312 126.671881 19.46093 23.79687 15.55079 65.66016 17.05469 92.86328 3.6875 46.85938 14.8086 113.91016.33594 113.91016-25.5039 0-16.226562-28.08985-29.582032-64.15625-31.265632" fill="#e3f2ff"/><path d="m331.70888 74.124498c-.27735-21.59766-37.46875-38.08203-71.32031-27.47657-22.44141-50.3515601-111.97266-49.5273401-133.09766 1.07422-26.86328-26.44922-72.453131-6.95703-71.917971 31.63672-23.85937-8.85547-53.2499999 3.70703-51.9687499 22.949222-14.3007801-21.347662 19.1874999-43.390622 49.6289099-32.277342-.53516-38.59375 45.79687-58.08203 73.105471-31.63282 21.46093-50.59765 112.47656-51.42968 135.28515-1.07421 39.24219-12.08594 82.88672 11.03125 70.28516 36.80078" fill="#fff"/><path d="m391.71669 116.59715c0-15.14843-22.04687-24.132812-36.96094-27.738282-8.43359-2.03515-17.41797-3.21094-26.15234-3.6289 1.52734-2.48047 2.73047-5.88672 3.03906-9.27735 44.03516 2.30469 73.48047 21.60938 60.07422 40.644532" fill="#fff"/><g fill="#b6d5f0"><path d="m394.88466 107.937c-1.38281 25.2539-67.15234 39.49609-113.88672 24.74609-27.26953 13.38672-69.10156 11.82422-92.86328-3.69531-41.47266 23.75-110.222661 12.75-126.671881-19.45313-19.54687 13.28907-52.4765599 7.10938-59.9101499-10.828122 15.2968699 4.835942 36.4531199 4.132812 49.8749999-1.63281 17.65625 21.820312 91.519531 29.289062 136.003901 13.183592 25.79688 19.73047 70.8086 19.83984 99.72657 2.50391 33.23437 17.13671 81.58203 13.28125 107.72656-4.82422"/><path d="m208.25185 92.433088c-4.88672 25.695312-30.21485 37.347662-52.83594 24.480472 20.60937 1.84375 40.89844-7.55859 52.83594-24.480472"/><path d="m319.25575 103.91747c-17.14062 19.73828-44.88281 17.04687-57.96484-5.468752 16.88672 11.976562 39.14062 14.078122 57.96484 5.468752"/><path d="m176.74403 73.663558c-17.14453 19.73828-44.89062 17.04687-57.96875-5.46875 16.88282 11.97656 39.14454 14.07812 57.96875 5.46875"/></g><path d="m185.52919 48.147928c17.14063-19.73828 44.88672-17.04687 57.96484 5.46875-16.88281-11.97656-39.14453-14.07812-57.96484-5.46875" fill="#fff"/><path d="m354.75575 88.858868c-19.83593-4.78515-36.61718-6.86328-54.54297 2.5625 14.70704-18.98047 39.47657-19.60156 54.54297-2.5625" fill="#fff"/></svg>