<svg height="166.77556" preserveAspectRatio="xMidYMid" viewBox="0 0 286.36725 125.08166" width="381.823" xmlns="http://www.w3.org/2000/svg" zoomAndPan="magnify"><path d="m250.08986 72.437253c.2305-23.875-24.3633-42.7071-53.6758-41.8906-13.3437-39.2110002-82.1718-41.2461-98.957005-2.7696-33.88672-9.1875-73.01953 23.7071-69.21484 58.1289-49.76953 10.6797-29.4453095 39.175797 27.95312 39.175797 24.63282 0 45.546925-5.9219 53.132825-14.1562 17.2891 18.5195 55.1016 18.9336 73.1992.832 11.7305 2.9922 24.5586 2.5469 35.9844-1.3477 29.0078 8.8086 67.8555-.9648 67.8555-17.499997 0-10.2343-15.6602-18.7343-36.2774-20.4726" fill="#e3f2ff"/><path d="m272.77346 107.93335c9.8789-11.226597-5.0469-23.624997-29.6914-25.707097 0-23.5586-24.7656-38.7382-48.457-37.8046-12.0664-35.4610002-74.1953-37.1875002-89.3203-2.504-13.621105-3.6914-37.269575-5.0117-50.707075 6.1915-13.55469 11.2968-16.51953 21.0273-26.36328 37.7968-3.79688-34.3906 35.30078-67.3203 69.22265-58.1289 16.777305-38.4414 85.609405-36.4804002 98.957005 2.7656 29.4571-.5195 53.6758 17.6407 53.6758 41.8946 35.3672 2.9922 48.6641 23.7422 22.6836 35.496097" fill="#fff"/><path d="m242.30866 113.71065c-8.7657 0-16.9336-1.2187-23.793-3.3047-11.4414 3.9141-24.3086 4.336-35.9883 1.3438-18.0976 18.1015-55.8984 17.6953-73.2031-.8281-20.613305 22.414-109.32423453 16.5781-109.32423453-6.8204 0-6.273397 7.35938003-11.890597 19.02343953-15.718697-12.2890595 13.742197 11.84375 28.703097 47.16015 28.703097 22.07034 0 40.812545-6 47.605445-14.3398 15.4493 18.7148 49.3008 19.2265 65.5821.8398 10.539 3.0391 21.9922 2.582 32.2422-1.3672 33.039 11.3438 72.0859-7.167897 57.8828-25.660097 32.7578 12.1133 14.6484 37.152297-27.1875 37.152297" fill="#b6d5f0"/><path d="m137.13286 116.08175c-23.5039 2.3477-41.875005-16.914097-38.464905-40.136697 5.304705 18.6055 20.074305 34.019497 38.464905 40.136697" fill="#b6d5f0"/><path d="m224.01566 97.417653c-14.5469 18.574297-41.1953 18.511797-55.6602 0 17.1407 9.031297 38.5157 9.035197 55.6602 0" fill="#b6d5f0"/><g fill="#fff"><path d="m32.722685 98.675553c-11.53125-20.4454-1.11328-44.6797 21.875-50.5664-15.1211 12.0039-23.54688 31.4179-21.875 50.5664"/><path d="m121.71486 65.077853c17.3125-28.5 51.2774-29.8437 70.9297-3.0977-22.4414-12.4921-49.6758-11.3164-70.9297 3.0977"/><path d="m46.769555 53.925553c17.3125-28.4961 51.2813-29.836 70.929705-3.0899-22.437505-12.4961-49.675795-11.3203-70.929705 3.0899"/></g></svg>