<svg fill="none" height="470" viewBox="0 0 620 470" width="620" xmlns="http://www.w3.org/2000/svg"><mask id="a" fill="#fff"><path clip-rule="evenodd" d="m262.548 107c-11.887-60.9769-65.593-107-130.048-107-73.1777 0-132.5 59.3223-132.5 132.5 0 68.962 52.6844 125.619 120 131.918v142.582c0 11.046 8.954 20 20 20h365.076c6.793 24.786 29.481 43 56.424 43 32.309 0 58.5-26.191 58.5-58.5 0-.953-.023-1.9-.068-2.841.045-.547.068-1.1.068-1.659v-280c0-11.046-8.954-20-20-20z" fill="#fff" fill-rule="evenodd"/></mask><g fill="#0e4c60"><path clip-rule="evenodd" d="m262.548 107c-11.887-60.9769-65.593-107-130.048-107-73.1777 0-132.5 59.3223-132.5 132.5 0 68.962 52.6844 125.619 120 131.918v142.582c0 11.046 8.954 20 20 20h365.076c6.793 24.786 29.481 43 56.424 43 32.309 0 58.5-26.191 58.5-58.5 0-.953-.023-1.9-.068-2.841.045-.547.068-1.1.068-1.659v-280c0-11.046-8.954-20-20-20z" fill-rule="evenodd"/><path d="m262.548 107-9.815 1.913 1.577 8.087h8.238zm-142.548 157.418h10v-9.108l-9.068-.848zm385.076 162.582 9.644-2.643-2.017-7.357h-7.627zm114.856-18.341-9.966-.819-.053.648.031.649zm-347.568-303.572c-12.786-65.5844-70.533-115.087-139.864-115.087v20c59.579 0 109.244 42.5436 120.233 98.913zm-139.864-115.087c-78.7006 0-142.5 63.7994-142.5 142.5h20c0-67.6549 54.8451-122.5 122.5-122.5zm-142.5 142.5c0 74.173 56.6617 135.099 129.068 141.875l1.864-19.913c-62.2249-5.823-110.932-58.21-110.932-121.962zm140 274.5v-142.582h-20v142.582zm10 10c-5.523 0-10-4.477-10-10h-20c0 16.569 13.431 30 30 30zm365.076 0h-365.076v20h365.076zm-9.645 12.643c7.954 29.019 34.507 50.357 66.069 50.357v-20c-22.323 0-41.147-15.09-46.78-35.643zm66.069 50.357c37.831 0 68.5-30.668 68.5-68.5h-20c0 26.786-21.714 48.5-48.5 48.5zm68.5-68.5c0-1.112-.027-2.219-.079-3.319l-19.977.956c.037.782.056 1.57.056 2.363zm-20-4.5c0 .285-.012.565-.034.84l19.933 1.637c.067-.819.101-1.645.101-2.477zm0-280v280h20v-280zm-10-10c5.523 0 10 4.477 10 10h20c0-16.569-13.432-30-30-30zm-337.452 0h337.452v-20h-337.452z" mask="url(#a)"/></g></svg>
