<svg fill="none" height="370" viewBox="0 0 683 370" width="683" xmlns="http://www.w3.org/2000/svg"><mask id="a" fill="#fff"><path clip-rule="evenodd" d="m563 232.948c1.162.035 2.329.052 3.5.052 64.341 0 116.5-52.159 116.5-116.5 0-64.3412-52.159-116.5-116.5-116.5-39.62 0-74.621 19.7782-95.668 50h-387.832c-11.0457 0-20 8.9543-20 20v127.602c-36.4235 10.772-63 44.482-63 84.398 0 45.395 34.373 82.763 78.512 87.494 1.4427.331 2.9449.506 4.488.506h5 455c11.046 0 20-8.954 20-20z" fill="#fff" fill-rule="evenodd"/></mask><g fill="#fcbb00"><path clip-rule="evenodd" d="m563 232.948c1.162.035 2.329.052 3.5.052 64.341 0 116.5-52.159 116.5-116.5 0-64.3412-52.159-116.5-116.5-116.5-39.62 0-74.621 19.7782-95.668 50h-387.832c-11.0457 0-20 8.9543-20 20v127.602c-36.4235 10.772-63 44.482-63 84.398 0 45.395 34.373 82.763 78.512 87.494 1.4427.331 2.9449.506 4.488.506h5 455c11.046 0 20-8.954 20-20z" fill-rule="evenodd"/><path d="m563 232.948.295-9.995-10.295-.304v10.299zm-92.168-182.948v10h5.222l2.984-4.2851zm-407.832 147.602 2.8361 9.589 7.1639-2.119v-7.47zm15.512 171.892 2.2347-9.747-.5786-.132-.5902-.064zm487.988-146.494c-1.072 0-2.141-.016-3.205-.047l-.59 19.991c1.261.037 2.526.056 3.795.056zm106.5-106.5c0 58.818-47.682 106.5-106.5 106.5v20c69.864 0 126.5-56.636 126.5-126.5zm-106.5-106.5c58.818 0 106.5 47.6817 106.5 106.5h20c0-69.864-56.636-126.5-126.5-126.5zm-87.462 45.7149c19.257-27.6522 51.251-45.7149 87.462-45.7149v-20c-43.03 0-81.038 21.4936-103.874 54.2851zm-396.038 4.2851h387.832v-20h-387.832zm-10 10c0-5.5228 4.4772-10 10-10v-20c-16.5685 0-30 13.4315-30 30zm0 127.602v-127.602h-20v127.602zm-63 84.398c0-35.366 23.5448-65.258 55.8361-74.809l-5.6722-19.179c-40.5558 11.995-70.1639 49.521-70.1639 93.988zm69.5779 77.551c-39.1125-4.192-69.5779-37.321-69.5779-77.551h-20c0 50.561 38.2807 92.167 87.4461 97.438zm3.4221.449c-.7858 0-1.5385-.089-2.2533-.253l-4.4695 19.495c2.1707.497 4.4225.758 6.7228.758zm5 0h-5v20h5zm455 0h-455v20h455zm10-10c0 5.523-4.477 10-10 10v20c16.569 0 30-13.431 30-30zm0-117.052v117.052h20v-117.052z" mask="url(#a)"/></g></svg>
