<svg fill="none" height="354" viewBox="0 0 667 354" width="667" xmlns="http://www.w3.org/2000/svg"><mask id="a" fill="#fff"><path clip-rule="evenodd" d="m119 0c-11.046 0-20 8.95431-20 20v135.001c-54.7223.269-99 44.713-99 99.499 0 54.952 44.5477 99.5 99.5 99.5 29.869 0 56.663-13.161 74.902-34h404.598c11.046 0 20-8.954 20-20v-68.109c37.904-2.076 68-33.469 68-71.891s-30.096-69.8152-68-71.8908v-68.1092c0-11.04569-8.954-20-20-20z" fill="#fff" fill-rule="evenodd"/></mask><g fill="#20572b"><path clip-rule="evenodd" d="m119 0c-11.046 0-20 8.95431-20 20v135.001c-54.7223.269-99 44.713-99 99.499 0 54.952 44.5477 99.5 99.5 99.5 29.869 0 56.663-13.161 74.902-34h404.598c11.046 0 20-8.954 20-20v-68.109c37.904-2.076 68-33.469 68-71.891s-30.096-69.8152-68-71.8908v-68.1092c0-11.04569-8.954-20-20-20z" fill-rule="evenodd"/><path d="m99 155.001.0492 10 9.9508-.049v-9.951zm75.402 164.999v-10h-4.537l-2.988 3.414zm424.598-88.109-.547-9.985-9.453.517v9.468zm0-143.7818h-10v9.4674l9.453.5177zm-490-68.1092c0-5.5228 4.477-10 10-10v-20c-16.569 0-30 13.43146-30 30zm0 135.001v-135.001h-20v135.001zm-10.0492-10c-60.2232.297-108.9508 49.207-108.9508 109.499h20c0-49.279 39.8278-89.257 89.0492-89.499zm-108.9508 109.499c0 60.475 49.0248 109.5 109.5 109.5v-20c-49.4295 0-89.5-40.071-89.5-89.5zm109.5 109.5c32.872 0 62.37-14.498 82.427-37.414l-15.05-13.172c-16.42 18.762-40.512 30.586-67.377 30.586zm479.5-54h-404.598v20h404.598zm10-10c0 5.523-4.477 10-10 10v20c16.569 0 30-13.431 30-30zm0-68.109v68.109h20v-68.109zm10.547 9.985c43.177-2.364 77.453-38.114 77.453-81.876h-20c0 33.083-25.916 60.119-58.547 61.906zm77.453-81.876c0-43.762-34.276-79.5115-77.453-81.8758l-1.094 19.9701c32.631 1.7868 58.547 28.8227 58.547 61.9057zm-88-140v68.1092h20v-68.1092zm-10-10c5.523 0 10 4.4772 10 10h20c0-16.56855-13.432-30-30-30zm-460 0h460v-20h-460z" mask="url(#a)"/></g></svg>
