<svg fill="none" height="201" viewBox="0 0 33 201" width="33" xmlns="http://www.w3.org/2000/svg"><linearGradient id="a" gradientUnits="userSpaceOnUse" x1="16.5" x2="16.5" y1="16" y2="185"><stop offset="0" stop-color="#114e58"/><stop offset="1" stop-color="#0e4c60"/></linearGradient><path d="m33 185c0 8.837-7.1634 16-16 16-8.83656 0-16-7.163-16-16s7.16344-16 16-16c8.8366 0 16 7.163 16 16zm-1-169c0 8.8366-7.1634 16-16 16-8.83656 0-16-7.1634-16-16 0-8.83656 7.16344-16 16-16 8.8366 0 16 7.16344 16 16zm-18.0624 158.455c-.0099-1.657 1.3253-3.008 2.9821-3.017 1.6569-.01 3.0079 1.325 3.0177 2.982zm5.8748-21.16c.0099 1.657-1.3253 3.008-2.9821 3.017-1.6569.01-3.0079-1.325-3.0177-2.982zm-6.1248-21.09c-.0099-1.657 1.3253-3.008 2.9821-3.017 1.6569-.01 3.0079 1.325 3.0177 2.982zm5.8748-21.16c.0099 1.657-1.3253 3.008-2.9821 3.017-1.6569.01-3.0079-1.325-3.0177-2.982zm-6.1248-21.0897c-.0099-1.6569 1.3253-3.0079 2.9821-3.0177 1.6569-.0098 3.0079 1.3253 3.0177 2.9822zm5.8748-21.1605c.0099 1.6568-1.3253 3.0078-2.9821 3.0176-1.6569.0099-3.0079-1.3253-3.0177-2.9821zm-6.1248-21.0895c-.0099-1.6569 1.3253-3.0079 2.9821-3.0177 1.6569-.0099 3.0079 1.3253 3.0177 2.9821zm5.8748-21.1606c.0099 1.6569-1.3253 3.0079-2.9821 3.0177-1.6569.0099-3.0079-1.3253-3.0177-2.9821zm-5.0623 158.4733-.0625-10.563 5.9998-.035.0625 10.562zm-.1875-31.688-.125-21.125 5.9998-.035.125 21.125zm-.25-42.25-.0625-10.562 5.9998-.036.0625 10.563zm-.0625-10.562-.0625-10.5627 5.9998-.0355.0625 10.5622zm-.1875-31.6877-.125-21.125 5.9998-.0356.125 21.1251zm-.25-42.25-.0625-10.5625 5.9998-.0356.0625 10.5625z" fill="url(#a)"/></svg>
