<svg fill="none" height="334" viewBox="0 0 356 334" width="356" xmlns="http://www.w3.org/2000/svg"><linearGradient id="a" gradientUnits="userSpaceOnUse" x1="340" x2="24.4164" y1="6.63138" y2="291.872"><stop offset=".0709472" stop-color="#fcbb00"/><stop offset=".92431" stop-color="#20572b"/></linearGradient><path d="m324 16c0 8.8366 7.163 16 16 16s16-7.1634 16-16c0-8.83656-7.163-16-16-16s-16 7.16344-16 16zm-324 302c0 8.837 7.16344 16 16 16 8.8366 0 16-7.163 16-16s-7.1634-16-16-16c-8.83656 0-16 7.163-16 16zm25.4091-4.669c1.212-1.13 1.2788-3.028.1491-4.24s-3.0281-1.279-4.2401-.149zm10.6363-18.116c-1.212 1.129-1.2787 3.028-.149 4.24s3.028 1.278 4.24.149zm18.8183-9.339c1.212-1.129 1.2787-3.028.149-4.24s-3.028-1.278-4.24-.149zm10.6362-18.116c-1.212 1.13-1.2787 3.028-.149 4.24s3.0281 1.279 4.2401.149zm18.8183-9.338c1.212-1.13 1.2787-3.028.149-4.24s-3.028-1.279-4.24-.149zm10.6363-18.117c-1.212 1.13-1.2787 3.029-.149 4.241s3.028 1.278 4.24.149zm18.8185-9.338c1.212-1.129 1.278-3.028.149-4.24-1.13-1.212-3.028-1.278-4.24-.149zm10.636-18.116c-1.212 1.13-1.279 3.028-.149 4.24s3.028 1.279 4.24.149zm18.818-9.338c1.212-1.13 1.279-3.028.149-4.24-1.129-1.212-3.028-1.279-4.24-.149zm10.637-18.117c-1.212 1.13-1.279 3.028-.149 4.24 1.129 1.212 3.028 1.279 4.24.149zm18.818-9.338c1.212-1.13 1.279-3.028.149-4.24s-3.028-1.279-4.24-.149zm10.636-18.116c-1.212 1.13-1.279 3.028-.149 4.24s3.028 1.279 4.24.149zm18.818-9.338c1.212-1.13 1.279-3.028.149-4.24-1.129-1.212-3.028-1.279-4.24-.149zm10.637-18.117c-1.212 1.13-1.279 3.028-.149 4.24 1.129 1.212 3.028 1.279 4.24.149zm18.818-9.338c1.212-1.13 1.279-3.028.149-4.24s-3.028-1.279-4.24-.149zm10.636-18.116c-1.212 1.129-1.279 3.028-.149 4.24s3.028 1.278 4.24.149zm18.819-9.3385c1.211-1.1297 1.278-3.028.149-4.24-1.13-1.212-3.029-1.2787-4.241-.149zm10.636-18.1163c-1.212 1.1297-1.279 3.028-.149 4.24 1.129 1.212 3.028 1.2788 4.24.1491zm18.818-9.3382c1.212-1.1297 1.279-3.028.149-4.24s-3.028-1.2787-4.24-.149zm10.636-18.1163c-1.212 1.1297-1.278 3.028-.149 4.24 1.13 1.212 3.028 1.2787 4.24.149zm18.819-9.3382c1.212-1.1297 1.278-3.0281.149-4.2401-1.13-1.212-3.028-1.2787-4.24-.149zm10.636-18.1164c-1.212 1.1298-1.279 3.0281-.149 4.2401s3.028 1.2787 4.24.149zm-312.5455 299.5259 7.3636-6.864-4.091-4.389-7.3636 6.863zm22.0909-20.591 14.7273-13.728-4.091-4.389-14.7273 13.728zm29.4546-27.455 14.7272-13.727-4.091-4.389-14.7273 13.727zm29.4545-27.454 14.7275-13.728-4.091-4.389-14.7275 13.727zm29.4545-27.455 14.727-13.727-4.091-4.389-14.727 13.727zm29.455-27.455 14.727-13.727-4.091-4.389-14.727 13.727zm29.454-27.454 14.727-13.727-4.091-4.389-14.727 13.727zm29.455-27.455 14.727-13.727-4.091-4.389-14.727 13.727zm29.454-27.454 14.728-13.7275-4.092-4.389-14.727 13.7275zm29.455-27.4547 14.727-13.7273-4.091-4.389-14.727 13.7272zm29.454-27.4546 14.728-13.7272-4.091-4.3891-14.728 13.7273zm29.455-27.4545 7.364-6.8637-4.092-4.389-7.363 6.8636z" fill="url(#a)"/></svg>
