<svg fill="none" height="321" viewBox="0 0 435 321" width="435" xmlns="http://www.w3.org/2000/svg">
    <filter id="a" color-interpolation-filters="sRGB" filterUnits="userSpaceOnUse" height="321" width="435" x="0" y="0">
        <feBlend in="SourceGraphic" in2="effect1_dropShadow_325_141" mode="normal" result="shape"/>
    </filter>
    <linearGradient id="b" gradientUnits="userSpaceOnUse" x1="35.438" x2="423.382" y1="38.6426" y2="266.402">
        <stop offset="0" stop-color="#0e4c60"/>
        <stop offset="1" stop-color="#fcbb00"/>
    </linearGradient>
    <g filter="url(#a)">
        <path d="m4 16c0 8.8366 7.1634 16 16 16s16-7.1634 16-16c0-8.83656-7.1634-16-16-16s-16 7.16344-16 16zm395 281c0 8.837 7.163 16 16 16s16-7.163 16-16-7.163-16-16-16-16 7.163-16 16zm-109.498-220.503-.657 2.9272zm13.266 10.1015 2.647-1.412zm-273.8-65.5107c1.6166.3629 3.2213-.6535 3.5842-2.2701s-.6534-3.2214-2.27-3.5842zm20.5643-1.5331c-1.6166-.3629-3.2213.6534-3.5842 2.27-.3629 1.6167.6534 3.2214 2.27 3.5843zm17.936 10.1755c1.6166.3629 3.2213-.6535 3.5842-2.2701s-.6534-3.2213-2.27-3.5842zm20.5643-1.5331c-1.6166-.3629-3.2213.6534-3.5842 2.2701-.3629 1.6166.6534 3.2213 2.27 3.5842zm17.9364 10.1755c1.616.3629 3.221-.6534 3.584-2.2701.363-1.6166-.654-3.2213-2.27-3.5842zm20.564-1.5331c-1.617-.3629-3.221.6535-3.584 2.2701s.653 3.2213 2.27 3.5842zm17.936 10.1756c1.617.3629 3.221-.6535 3.584-2.2701s-.653-3.2214-2.27-3.5843zm20.564-1.5331c-1.616-.3629-3.221.6534-3.584 2.27-.363 1.6167.653 3.2214 2.27 3.5843zm17.936 10.1755c1.617.3629 3.222-.6535 3.584-2.2701.363-1.6166-.653-3.2213-2.27-3.5842zm20.565-1.5331c-1.617-.3629-3.222.6534-3.585 2.2701-.363 1.6166.654 3.2213 2.27 3.5842zm17.936 10.1755c1.616.3629 3.221-.6534 3.584-2.2701.363-1.6166-.654-3.2213-2.27-3.5842zm20.564-1.5331c-1.617-.3629-3.221.6535-3.584 2.2701s.653 3.2213 2.27 3.5842zm17.936 10.1756c1.616.3629 3.221-.6535 3.584-2.2701s-.653-3.2214-2.27-3.5843zm20.564-1.5331c-1.616-.3629-3.221.6534-3.584 2.27-.363 1.6167.653 3.2214 2.27 3.5843zm24.263 25.3678c.78 1.4619 2.597 2.0149 4.059 1.2351s2.015-2.5971 1.235-4.0589zm14.647 14.7099c-.78-1.462-2.597-2.015-4.059-1.235-1.462.779-2.015 2.597-1.235 4.059zm4.059 20.357c.78 1.462 2.597 2.015 4.059 1.235s2.014-2.597 1.235-4.059zm14.646 14.71c-.779-1.462-2.597-2.015-4.059-1.235-1.461.779-2.014 2.597-1.235 4.059zm4.059 20.357c.78 1.462 2.597 2.015 4.059 1.235s2.015-2.597 1.235-4.059zm14.647 14.71c-.78-1.462-2.597-2.015-4.059-1.235-1.462.779-2.015 2.597-1.235 4.058zm4.058 20.357c.78 1.462 2.597 2.015 4.059 1.235s2.015-2.597 1.235-4.059zm14.647 14.709c-.78-1.461-2.597-2.014-4.059-1.235-1.462.78-2.015 2.597-1.235 4.059zm4.059 20.358c.78 1.462 2.597 2.015 4.059 1.235 1.461-.78 2.014-2.597 1.235-4.059zm14.646 14.709c-.779-1.461-2.597-2.014-4.059-1.235-1.461.78-2.014 2.597-1.235 4.059zm4.059 20.358c.78 1.462 2.597 2.015 4.059 1.235s2.015-2.597 1.235-4.059zm14.647 14.709c-.78-1.462-2.597-2.015-4.059-1.235s-2.015 2.597-1.235 4.059zm-393.6281-267.8938 9.6251 2.1606 1.3142-5.8543-9.6251-2.1607zm28.8752 6.4818 19.2502 4.3212 1.3142-5.8543-19.2502-4.3212zm38.5003 8.6424 19.2506 4.3212 1.314-5.8543-19.2504-4.3212zm38.5006 8.6424 19.25 4.3213 1.314-5.8544-19.25-4.3212zm38.5 8.6425 19.25 4.3212 1.314-5.8543-19.25-4.3212zm38.5 8.6424 19.251 4.3212 1.314-5.8543-19.25-4.3212zm38.501 8.6424 19.25 4.3213 1.314-5.8544-19.25-4.3212zm38.5 8.6425 9.625 2.1606 1.314-5.8543-9.625-2.1606zm9.625 2.1606c4.829 1.0841 8.947 4.2191 11.276 8.5862l5.294-2.8239c-3.152-5.9084-8.722-10.1499-15.256-11.6166zm11.276 8.5862 4.676 8.7667 5.294-2.8238-4.676-8.7668zm14.029 26.3006 9.353 17.533 5.294-2.824-9.353-17.533zm18.705 35.067 9.353 17.533 5.294-2.824-9.353-17.533zm18.706 35.066 9.352 17.534 5.294-2.824-9.352-17.533zm18.705 35.067 9.353 17.534 5.294-2.824-9.353-17.534zm18.705 35.067 9.353 17.534 5.294-2.824-9.353-17.534zm18.706 35.067 4.676 8.767 5.294-2.824-4.676-8.767z"
              fill="url(#b)"/>
    </g>
</svg>
