<svg fill="none" height="375" viewBox="0 0 89 375" width="89" xmlns="http://www.w3.org/2000/svg"><linearGradient id="a" gradientUnits="userSpaceOnUse" x1="73" x2="-25.9364" y1="5.35948" y2="19.211"><stop offset=".0709472" stop-color="#fcbb00"/><stop offset=".92431" stop-color="#20572b"/></linearGradient><path d="m57 16c0 8.8366 7.1634 16 16 16s16-7.1634 16-16c0-8.83656-7.1634-16-16-16s-16 7.16344-16 16zm-57 343c0 8.837 7.16344 16 16 16 8.8366 0 16-7.163 16-16s-7.1634-16-16-16c-8.83656 0-16 7.163-16 16zm20.5427-9.036c.2717-1.634-.8331-3.18-2.4676-3.451-1.6344-.272-3.1796.833-3.4512 2.467zm-2.7521-20.039c-.2716 1.634.8332 3.179 2.4676 3.451s3.1796-.833 3.4512-2.468zm9.0855-18.072c.2716-1.635-.8332-3.18-2.4676-3.451-1.6345-.272-3.1796.833-3.4512 2.467zm-2.7522-20.039c-.2716 1.634.8332 3.179 2.4676 3.451 1.6345.272 3.1796-.833 3.4512-2.468zm9.0855-18.072c.2716-1.635-.8332-3.18-2.4676-3.451-1.6344-.272-3.1796.833-3.4512 2.467zm-2.7521-20.039c-.2717 1.634.8331 3.179 2.4676 3.451 1.6344.271 3.1796-.833 3.4512-2.468zm9.0854-18.072c.2717-1.635-.8331-3.18-2.4676-3.452-1.6344-.271-3.1796.834-3.4512 2.468zm-2.7521-20.039c-.2716 1.634.8332 3.179 2.4676 3.451 1.6344.271 3.1796-.833 3.4512-2.468zm9.0855-18.072c.2716-1.635-.8332-3.18-2.4676-3.452-1.6345-.271-3.1796.834-3.4513 2.468zm-2.7522-20.04c-.2716 1.635.8332 3.18 2.4676 3.452 1.6345.271 3.1796-.834 3.4512-2.468zm9.0855-18.072c.2716-1.634-.8332-3.179-2.4676-3.451-1.6344-.271-3.1796.833-3.4512 2.468zm-2.7522-20.039c-.2716 1.635.8332 3.18 2.4677 3.452 1.6344.271 3.1796-.834 3.4512-2.468zm9.0855-18.072c.2717-1.634-.8331-3.179-2.4676-3.451-1.6344-.271-3.1796.833-3.4512 2.468zm-2.7521-20.039c-.2716 1.635.8332 3.18 2.4676 3.451 1.6344.272 3.1796-.833 3.4512-2.467zm9.0855-18.0717c.2716-1.6345-.8332-3.1796-2.4676-3.4513-1.6345-.2716-3.1796.8332-3.4512 2.4677zm-2.7522-20.0392c-.2716 1.6344.8332 3.1796 2.4676 3.4512 1.6345.2716 3.1796-.8332 3.4512-2.4676zm9.0855-18.072c.2716-1.6344-.8332-3.1796-2.4676-3.4512s-3.1796.8332-3.4512 2.4676zm-2.7521-20.0391c-.2717 1.6344.8331 3.1796 2.4676 3.4512 1.6344.2716 3.1796-.8332 3.4512-2.4676zm-49.4979 334.456 1.5833-9.528-5.9188-.984-1.5833 9.528zm4.75-28.584 3.1667-19.055-5.9188-.984-3.1667 19.056zm6.3333-38.111 3.1667-19.055-5.9188-.984-3.1667 19.056zm6.3334-38.111 3.1666-19.055-5.9188-.984-3.1666 19.056zm6.3333-38.111 3.1667-19.055-5.9189-.984-3.1666 19.056zm6.3333-38.111 3.1667-19.056-5.9188-.983-3.1667 19.055zm6.3334-38.111 3.1666-19.056-5.9188-.983-3.1667 19.055zm6.3333-38.111 3.1667-19.0557-5.9188-.9836-3.1667 19.0553zm6.3333-38.1113 3.1667-19.0556-5.9188-.9836-3.1667 19.0556zm6.3334-38.1111 1.5833-9.5278-5.9188-.9836-1.5833 9.5278z" fill="url(#a)"/></svg>
