<svg fill="none" height="182" viewBox="0 0 32 182" width="32" xmlns="http://www.w3.org/2000/svg"><linearGradient id="a" gradientUnits="userSpaceOnUse" x1="16.5" x2="16.5" y1="16" y2="166"><stop offset="0" stop-color="#0e4c60"/><stop offset=".802083" stop-color="#114e56"/></linearGradient><path d="m-.00000656 166c-.00000038 8.837 7.16344656 16 16.00000656 16 8.8365 0 16-7.163 16-16s-7.1634-16-16-16c-8.83656 0-16.00000617 7.163-16.00000656 16zm.00000656-150c-.00000039 8.8366 7.16344 16 16 16 8.8366 0 16-7.1634 16-16 0-8.83656-7.1634-15.99999961-16-16-8.83656-.00000039-15.99999961 7.16344-16 16zm13 9.375c0 1.6569 1.3431 3 3 3s3-1.3431 3-3zm6 18.75c0-1.6569-1.3431-3-3-3s-3 1.3431-3 3zm-6 18.75c0 1.6569 1.3431 3 3 3s3-1.3431 3-3zm6 18.75c0-1.6569-1.3431-3-3-3s-3 1.3431-3 3zm-6 18.75c0 1.657 1.3431 3 3 3s3-1.343 3-3zm6 18.75c0-1.657-1.3432-3-3-3-1.6569 0-3 1.343-3 3zm-6 18.75c0 1.657 1.3431 3 3 3 1.6568 0 3-1.343 3-3zm6 18.75c0-1.657-1.3432-3-3-3-1.6569 0-3 1.343-3 3zm-6-140.625v9.375h6v-9.375zm0 28.125v18.75h6v-18.75zm0 37.5v9.375h6v-9.375zm0 9.375v9.375h6v-9.375zm0 28.125v18.75h6v-18.75zm0 37.5v9.375h6v-9.375z" fill="url(#a)"/></svg>
