<svg fill="none" height="406" viewBox="0 0 264 406" width="264" xmlns="http://www.w3.org/2000/svg"><linearGradient id="a" gradientUnits="userSpaceOnUse" x1="23.4705" x2="268.448" y1="30.3845" y2="63.1981"><stop offset=".143722" stop-color="#20572b"/><stop offset=".802083" stop-color="#0e4c60"/></linearGradient><path d="m0 16c0 8.8366 7.16344 16 16 16 8.8366 0 16-7.1634 16-16 0-8.83656-7.1634-16-16-16-8.83656 0-16 7.16344-16 16zm232 374c0 8.837 7.163 16 16 16s16-7.163 16-16-7.163-16-16-16-16 7.163-16 16zm-165.9891-89.439 1.3232-2.692zm-51.5857-274.5066c.2376 1.6397 1.7594 2.7764 3.3992 2.5389 1.6397-.2376 2.7764-1.7594 2.5388-3.3992zm8.7265 18.3883c-.2375-1.6398-1.7593-2.7765-3.3991-2.5389-1.6397.2375-2.7764 1.7594-2.5389 3.3991zm-3.1495 20.1087c.2376 1.6398 1.7594 2.7765 3.3991 2.5389 1.6398-.2375 2.7765-1.7594 2.5389-3.3991zm8.7265 18.3883c-.2375-1.6397-1.7594-2.7764-3.3991-2.5389-1.6398.2376-2.7765 1.7594-2.5389 3.3991zm-3.1495 20.1083c.2375 1.64 1.7594 2.777 3.3991 2.539 1.6397-.237 2.7764-1.759 2.5389-3.399zm8.7265 18.389c-.2376-1.64-1.7594-2.777-3.3991-2.539-1.6398.237-2.7765 1.759-2.5389 3.399zm-3.1496 20.109c.2376 1.639 1.7594 2.776 3.3992 2.538 1.6397-.237 2.7764-1.759 2.5389-3.399zm8.7265 18.388c-.2375-1.64-1.7593-2.777-3.3991-2.539-1.6397.237-2.7764 1.759-2.5389 3.399zm-3.1495 20.109c.2376 1.639 1.7594 2.776 3.3991 2.538 1.6398-.237 2.7765-1.759 2.5389-3.399zm8.7265 18.388c-.2375-1.64-1.7594-2.777-3.3991-2.539s-2.7764 1.759-2.5389 3.399zm-3.1495 20.109c.2375 1.639 1.7594 2.776 3.3991 2.539 1.6397-.238 2.7765-1.76 2.5389-3.4zm8.7265 18.388c-.2376-1.64-1.7594-2.776-3.3991-2.539-1.6398.238-2.7765 1.759-2.5389 3.399zm-3.1495 20.109c.2375 1.639 1.7593 2.776 3.3991 2.539 1.6397-.238 2.7764-1.76 2.5389-3.4zm8.7265 18.388c-.2376-1.64-1.7594-2.776-3.3992-2.539-1.6397.238-2.7764 1.759-2.5389 3.399zm17.1736 32.301c1.4869.731 3.2848.118 4.0156-1.369s.1177-3.285-1.3693-4.016zm20.8452 3.559c-1.4869-.731-3.2848-.118-4.0156 1.369s-.1177 3.285 1.3693 4.016zm15.5526 14.328c1.487.731 3.285.118 4.016-1.369.73-1.487.117-3.285-1.37-4.015zm20.845 3.56c-1.487-.731-3.285-.118-4.015 1.369-.731 1.487-.118 3.285 1.369 4.015zm15.553 14.328c1.487.731 3.285.118 4.015-1.369.731-1.487.118-3.285-1.369-4.016zm20.845 3.559c-1.487-.731-3.285-.118-4.016 1.369-.73 1.487-.117 3.285 1.37 4.016zm15.553 14.329c1.487.731 3.284.118 4.015-1.369s.118-3.285-1.369-4.016zm20.845 3.559c-1.487-.731-3.285-.118-4.016 1.369-.73 1.487-.117 3.285 1.37 4.016zm15.552 14.329c1.487.73 3.285.117 4.016-1.37s.118-3.284-1.369-4.015zm20.846 3.559c-1.487-.731-3.285-.118-4.016 1.369s-.118 3.285 1.369 4.015zm-227.193-366.4059 1.3942 9.6243 5.938-.8603-1.3942-9.6242zm4.1827 28.8728 2.7885 19.2485 5.938-.8602-2.7885-19.2485zm5.577 38.497 2.7885 19.2481 5.938-.86-2.7885-19.2483zm5.577 38.4971 2.7884 19.249 5.9381-.861-2.7885-19.248zm5.5769 38.497 2.7885 19.249 5.938-.861-2.7885-19.248zm5.577 38.497 2.7885 19.249 5.938-.861-2.7885-19.248zm5.577 38.497 2.7885 19.249 5.938-.861-2.7885-19.248zm5.5769 38.497 1.3943 9.624 5.938-.86-1.3942-9.624zm1.3943 9.624c1.0878 7.509 5.8086 13.998 12.6179 17.345l2.6464-5.385c-5.033-2.473-8.5223-7.27-9.3263-12.82zm12.6179 17.345 9.0995 4.472 2.6463-5.385-9.0994-4.472zm27.2984 13.416 18.1989 8.943 2.646-5.384-18.1986-8.944zm36.3979 17.887 18.199 8.944 2.646-5.385-18.199-8.943zm36.398 17.888 18.199 8.944 2.646-5.385-18.199-8.944zm36.398 17.888 18.198 8.944 2.647-5.385-18.199-8.944zm36.397 17.887 9.1 4.472 2.646-5.384-9.099-4.472z" fill="url(#a)"/></svg>
