<svg fill="none" height="378" viewBox="0 0 147 378" width="147" xmlns="http://www.w3.org/2000/svg"><linearGradient id="a" gradientUnits="userSpaceOnUse" x1="20.4946" x2="169.499" y1="43.8802" y2="64.5643"><stop offset="0" stop-color="#0e4c60"/><stop offset="1" stop-color="#fcbb00"/></linearGradient><path d="m0 16c0 8.8366 7.16344 16 16 16 8.8366 0 16-7.1634 16-16 0-8.83656-7.1634-16-16-16-8.83656 0-16 7.16344-16 16zm115 346c0 8.837 7.163 16 16 16s16-7.163 16-16-7.163-16-16-16-16 7.163-16 16zm-23.1108-273.9522 2.0655-2.1757zm-71.6306-63.8681c1.2015 1.1407 3.1004 1.0914 4.2412-.1102 1.1407-1.2016 1.0914-3.1004-.1102-4.2412zm16.7792 7.6566c-1.2016-1.1408-3.1004-1.0915-4.2412.1101-1.1407 1.2016-1.0914 3.1004.1101 4.2412zm8.5171 16.3593c1.2016 1.1407 3.1005 1.0914 4.2413-.1102 1.1407-1.2015 1.0914-3.1004-.1102-4.2412zm16.7793 7.6566c-1.2016-1.1408-3.1004-1.0915-4.2412.1101s-1.0915 3.1005.1101 4.2412zm8.5171 16.3593c1.2016 1.1408 3.1005 1.0915 4.2412-.1101 1.1408-1.2016 1.0915-3.1005-.1101-4.2412zm16.7793 7.6566c-1.2016-1.1407-3.1004-1.0914-4.2412.1102s-1.0915 3.1004.1101 4.2412zm8.5346 29.9119c.2073 1.644 1.708 2.809 3.3518 2.601 1.644-.207 2.808-1.708 2.601-3.351zm8.3128 17.96c-.207-1.644-1.708-2.808-3.352-2.601-1.6437.208-2.8082 1.708-2.6009 3.352zm-3.593 19.462c.207 1.644 1.708 2.808 3.352 2.601s2.808-1.708 2.601-3.352zm8.313 17.96c-.208-1.644-1.708-2.809-3.352-2.601-1.644.207-2.808 1.708-2.601 3.352zm-3.593 19.461c.207 1.644 1.708 2.809 3.352 2.601 1.643-.207 2.808-1.708 2.601-3.351zm8.312 17.96c-.207-1.644-1.708-2.808-3.351-2.601-1.644.208-2.809 1.708-2.601 3.352zm-3.593 19.462c.208 1.644 1.708 2.808 3.352 2.601s2.809-1.708 2.601-3.352zm8.313 17.96c-.207-1.644-1.708-2.809-3.352-2.601-1.643.207-2.808 1.708-2.601 3.352zm-3.593 19.461c.208 1.644 1.708 2.809 3.352 2.601 1.644-.207 2.808-1.708 2.601-3.351zm8.313 17.96c-.207-1.644-1.708-2.808-3.352-2.601-1.644.208-2.808 1.708-2.601 3.352zm-3.593 19.462c.207 1.644 1.708 2.808 3.352 2.601 1.644-.208 2.808-1.708 2.601-3.352zm8.313 17.96c-.208-1.644-1.708-2.809-3.352-2.601-1.644.207-2.808 1.708-2.601 3.352zm-3.593 19.461c.207 1.644 1.708 2.809 3.352 2.601 1.643-.207 2.808-1.708 2.601-3.352zm8.312 17.96c-.207-1.644-1.708-2.808-3.351-2.601-1.644.208-2.809 1.708-2.601 3.352zm-118.8615-334.0933 6.3241 6.004 4.131-4.3514-6.3241-6.004zm18.9722 18.0119 12.6482 12.008 4.1311-4.3514-12.6482-12.0079zm25.2964 24.0159 12.6482 12.008 4.1311-4.3513-12.6482-12.008zm25.2964 24.016 6.3241 6.004 4.1311-4.3514-6.3241-6.004zm6.3241 6.004c2.8467 2.7026 4.6705 6.307 5.1617 10.2015l5.9527-.7508c-.664-5.269-3.1319-10.1456-6.9833-13.8021zm5.1617 10.2015 1.1799 9.355 5.9528-.75-1.18-9.3558zm3.5398 28.066 2.3599 18.711 5.953-.751-2.36-18.711zm4.7199 37.422 2.36 18.71 5.953-.75-2.36-18.711zm4.72 37.421 2.359 18.711 5.953-.751-2.36-18.711zm4.719 37.422 2.36 18.71 5.953-.75-2.36-18.711zm4.72 37.421 2.36 18.711 5.953-.751-2.36-18.711zm4.72 37.422 2.36 18.71 5.953-.751-2.36-18.71zm4.72 37.421 1.18 9.355 5.952-.75-1.18-9.356z" fill="url(#a)"/></svg>
