<svg fill="none" height="350" viewBox="0 0 730 350" width="730" xmlns="http://www.w3.org/2000/svg"><linearGradient id="a" gradientUnits="userSpaceOnUse" x1="38.4759" x2="651.122" y1="28.2307" y2="318.598"><stop offset=".143722" stop-color="#20572b"/><stop offset=".802083" stop-color="#0e4c60"/></linearGradient><path d="m0 16c0 8.8366 7.16344 16 16 16 8.8366 0 16-7.1634 16-16 0-8.83656-7.1634-16-16-16-8.83656 0-16 7.16344-16 16zm698 318c0 8.837 7.163 16 16 16s16-7.163 16-16-7.163-16-16-16-16 7.163-16 16zm-549.698-78.569-.413 2.971zm-130.086-228.5315c.7558 1.4744 2.5637 2.057 4.0381 1.3012 1.4745-.7558 2.057-2.5638 1.3012-4.0382zm15.1106 16.325c-.7558-1.4744-2.5637-2.0569-4.0382-1.3012-1.4744.7558-2.057 2.5638-1.3012 4.0382zm4.4319 21.7991c.7558 1.4744 2.5638 2.0569 4.0382 1.3011s2.057-2.5637 1.3012-4.0381zm15.1107 16.325c-.7558-1.4744-2.5638-2.057-4.0382-1.3012s-2.057 2.5637-1.3012 4.0382zm4.4319 21.7994c.7558 1.474 2.5638 2.057 4.0382 1.301s2.057-2.564 1.3012-4.038zm15.1107 16.325c-.7558-1.475-2.5638-2.057-4.0382-1.302-1.4744.756-2.057 2.564-1.3012 4.039zm4.4319 21.799c.7558 1.474 2.5637 2.057 4.0382 1.301 1.4744-.756 2.057-2.564 1.3012-4.038zm15.1107 16.325c-.7558-1.475-2.5638-2.057-4.0382-1.302-1.4745.756-2.057 2.564-1.3012 4.039zm4.4319 21.799c.7558 1.474 2.5637 2.057 4.0377 1.301 1.475-.756 2.057-2.564 1.302-4.038zm15.1107 16.325c-.756-1.475-2.564-2.057-4.038-1.301-1.475.755-2.057 2.563-1.301 4.038zm4.432 21.799c.756 1.474 2.564 2.057 4.038 1.301s2.057-2.564 1.301-4.038zm15.111 16.325c-.756-1.475-2.564-2.057-4.039-1.301-1.474.755-2.057 2.563-1.301 4.038zm26.951 25.96c1.641.228 3.156-.917 3.384-2.558.228-1.642-.917-3.157-2.559-3.385zm21.029-3.137c-1.641-.228-3.156.918-3.384 2.559s.917 3.156 2.559 3.384zm19.378 8.749c1.641.228 3.156-.917 3.384-2.558s-.917-3.157-2.559-3.385zm21.029-3.136c-1.641-.228-3.156.917-3.384 2.558s.917 3.157 2.559 3.384zm19.378 8.748c1.641.228 3.156-.917 3.384-2.558s-.917-3.157-2.559-3.384zm21.029-3.136c-1.641-.228-3.156.917-3.384 2.558s.917 3.157 2.559 3.385zm19.378 8.749c1.641.228 3.156-.918 3.384-2.559s-.917-3.156-2.559-3.384zm21.029-3.137c-1.641-.228-3.156.917-3.384 2.558-.228 1.642.917 3.157 2.559 3.385zm19.378 8.749c1.641.228 3.156-.918 3.384-2.559s-.917-3.156-2.559-3.384zm21.029-3.137c-1.641-.228-3.156.917-3.384 2.559-.228 1.641.917 3.156 2.559 3.384zm19.378 8.749c1.641.228 3.156-.918 3.384-2.559s-.917-3.156-2.559-3.384zm21.029-3.137c-1.641-.228-3.156.918-3.384 2.559s.917 3.156 2.559 3.384zm19.378 8.749c1.641.228 3.156-.918 3.384-2.559s-.917-3.156-2.559-3.384zm21.029-3.137c-1.641-.228-3.156.918-3.384 2.559s.917 3.156 2.559 3.384zm19.378 8.749c1.641.228 3.156-.918 3.384-2.559s-.917-3.156-2.559-3.384zm21.029-3.137c-1.641-.228-3.156.918-3.384 2.559s.917 3.156 2.559 3.384zm19.378 8.749c1.641.228 3.156-.918 3.384-2.559s-.917-3.156-2.559-3.384zm21.029-3.137c-1.641-.228-3.156.918-3.384 2.559s.917 3.156 2.559 3.384zm19.378 8.749c1.641.228 3.156-.918 3.384-2.559s-.917-3.156-2.559-3.384zm21.029-3.137c-1.641-.228-3.156.918-3.384 2.559s.917 3.156 2.559 3.384zm19.378 8.749c1.641.228 3.156-.918 3.384-2.559s-.917-3.156-2.559-3.384zm21.029-3.137c-1.641-.228-3.156.918-3.384 2.559s.917 3.156 2.559 3.384zm19.378 8.749c1.641.228 3.156-.917 3.384-2.559.228-1.641-.917-3.156-2.559-3.384zm21.029-3.137c-1.641-.228-3.156.918-3.384 2.559s.917 3.156 2.559 3.384zm19.378 8.749c1.641.228 3.156-.917 3.384-2.558.228-1.642-.917-3.157-2.559-3.385zm21.029-3.137c-1.641-.228-3.156.918-3.384 2.559s.917 3.156 2.559 3.384zm19.378 8.749c1.641.228 3.156-.917 3.384-2.558s-.917-3.157-2.559-3.385zm21.029-3.136c-1.641-.228-3.156.917-3.384 2.558s.917 3.157 2.559 3.384zm-690.9807-312.2575 4.8857 9.531 5.3393-2.737-4.8856-9.531zm14.6569 28.593 9.7713 19.0621 5.3394-2.737-9.7713-19.0621zm19.5426 38.1241 9.7713 19.0624 5.3394-2.737-9.7713-19.0624zm19.5426 38.1244 9.7713 19.062 5.3394-2.737-9.7713-19.062zm19.5426 38.124 9.7713 19.062 5.3397-2.737-9.7716-19.062zm19.543 38.124 9.771 19.062 5.339-2.737-9.771-19.062zm19.542 38.124 4.886 9.531 5.339-2.737-4.885-9.531zm4.886 9.531c3.42 6.672 9.877 11.258 17.303 12.289l.826-5.943c-5.489-.762-10.262-4.152-12.79-9.083zm17.303 12.289 10.102 1.403.825-5.943-10.101-1.403zm30.306 4.209 20.203 2.806.825-5.943-20.203-2.806zm40.407 5.612 20.203 2.806.825-5.942-20.203-2.806zm40.407 5.613 20.203 2.806.825-5.943-20.203-2.806zm40.407 5.612 20.203 2.806.825-5.943-20.203-2.806zm40.407 5.612 20.203 2.806.825-5.943-20.203-2.806zm40.407 5.612 20.203 2.806.825-5.943-20.203-2.806zm40.407 5.612 20.203 2.806.825-5.943-20.203-2.806zm40.407 5.612 20.203 2.806.825-5.943-20.203-2.806zm40.407 5.612 20.203 2.806.825-5.943-20.203-2.806zm40.407 5.612 20.203 2.806.825-5.943-20.203-2.806zm40.407 5.612 20.203 2.806.825-5.943-20.203-2.806zm40.407 5.612 20.203 2.806.825-5.943-20.203-2.806zm40.407 5.612 20.203 2.806.825-5.943-20.203-2.806zm40.407 5.612 10.101 1.403.826-5.942-10.102-1.403z" fill="url(#a)"/></svg>
