<svg xmlns="http://www.w3.org/2000/svg" xmlns:xlink="http://www.w3.org/1999/xlink" width="512" zoomAndPan="magnify" viewBox="0 0 384 383.999986" height="512" preserveAspectRatio="xMidYMid meet" version="1.0"><defs><clipPath id="1acc3cf367"><path d="M 15 6 L 368.878906 6 L 368.878906 181 L 15 181 Z M 15 6 " clip-rule="nonzero"/></clipPath></defs><g clip-path="url(#1acc3cf367)"><path fill="#ffffff" d="M 133.214844 180.917969 L 35.453125 180.917969 C 18.6875 180.910156 15.128906 180.757812 15.117188 164.175781 L 15.078125 106.285156 C 14.980469 92.726562 25.75 93.542969 35.730469 93.539062 L 128.148438 93.484375 C 126.363281 93.183594 124.585938 92.085938 122.878906 91.414062 L 117.035156 89.078125 C 108.9375 85.777344 100.363281 82.332031 93.148438 77.339844 C 64.855469 57.765625 68.292969 17.847656 103.929688 8.753906 C 138.230469 0.0078125 164.714844 23.554688 181.382812 51.578125 L 186.988281 61.578125 C 188.617188 64.699219 190.140625 67.910156 192.035156 70.882812 C 192.53125 70.398438 192.828125 69.636719 193.160156 69.023438 L 199.851562 56.664062 C 213.359375 33.34375 234.015625 7.308594 263.644531 7.023438 C 266.371094 7.003906 269.207031 6.894531 271.914062 7.152344 C 298.496094 9.679688 318.460938 32.953125 306.734375 58.984375 C 299.824219 74.335938 285.410156 81.472656 270.65625 87.375 L 254.847656 93.550781 L 346.894531 93.542969 C 356.269531 93.546875 368.890625 92.203125 368.964844 105.390625 L 368.996094 164.636719 C 369.015625 171.539062 368.742188 179.597656 359.503906 180.847656 C 358.039062 181.046875 356.4375 180.917969 354.949219 180.921875 L 222.675781 180.914062 L 222.707031 106.015625 L 161.46875 105.914062 L 161.457031 180.914062 Z M 114.925781 26.515625 C 94.882812 27.546875 83.804688 45.246094 101.429688 60.226562 C 109.210938 66.835938 125.066406 71.601562 134.652344 74.703125 L 159.257812 82.375 L 177.121094 87.210938 C 172.566406 82.011719 169.085938 76.0625 165.257812 70.328125 C 155.703125 56.003906 139.769531 31.757812 122.316406 26.976562 C 120.171875 26.386719 117.152344 26.394531 114.925781 26.515625 Z M 265.789062 26.496094 C 251.132812 28.09375 240.398438 41.609375 231.792969 52.3125 L 206.578125 87.558594 L 226.988281 81.558594 C 241.683594 77.113281 256.5625 73.203125 270.660156 67.015625 C 278.027344 63.78125 284.59375 60.546875 288.519531 53.140625 C 297.964844 35.316406 281.703125 25.269531 265.789062 26.496094 Z M 265.789062 26.496094 " fill-opacity="1" fill-rule="nonzero"/></g><path fill="#ffffff" d="M 348.027344 207.621094 L 347.878906 362.789062 C 347.070312 373.40625 339.371094 382.496094 328.519531 383.535156 C 323.707031 384 318.589844 383.671875 313.753906 383.671875 L 70.007812 383.664062 C 64.929688 383.664062 59.59375 383.996094 54.554688 383.523438 C 44.949219 382.636719 37.222656 373.542969 36.128906 364.277344 C 35.839844 361.828125 36.042969 359.125 36.046875 356.652344 L 36.054688 207.917969 C 36.054688 204.042969 35.878906 200.078125 36.242188 196.222656 L 161.394531 196.347656 C 161.585938 198.1875 161.445312 200.164062 161.449219 202.019531 L 161.472656 371.402344 L 222.671875 371.402344 L 222.632812 196.304688 L 347.941406 196.265625 C 348.328125 199.9375 348.023438 203.917969 348.027344 207.621094 Z M 348.027344 207.621094 " fill-opacity="1" fill-rule="nonzero"/></svg>