<svg xmlns="http://www.w3.org/2000/svg" xmlns:xlink="http://www.w3.org/1999/xlink" width="1120" zoomAndPan="magnify" viewBox="0 0 840 839.999992" height="1120" preserveAspectRatio="xMidYMid meet" version="1.0"><defs><clipPath id="5c9cf908b1"><path d="M 0.117188 139 L 840 139 L 840 700 L 0.117188 700 Z M 0.117188 139 " clip-rule="nonzero"/></clipPath></defs><path fill="#ffffff" d="M 560.03125 769.882812 L 490.042969 769.882812 L 490.042969 699.890625 L 350.0625 699.890625 L 350.0625 769.882812 L 280.074219 769.882812 C 260.757812 769.882812 245.078125 785.558594 245.078125 804.875 C 245.078125 824.195312 260.757812 839.871094 280.074219 839.871094 L 560.03125 839.871094 C 579.382812 839.871094 595.027344 824.195312 595.027344 804.875 C 595.027344 785.558594 579.382812 769.882812 560.03125 769.882812 Z M 560.03125 769.882812 " fill-opacity="1" fill-rule="nonzero"/><g clip-path="url(#5c9cf908b1)"><path fill="#ffffff" d="M 778.746094 332.449219 L 770 332.449219 L 770 629.902344 L 70.105469 629.902344 L 70.105469 209.96875 L 367.5625 209.96875 L 367.5625 139.980469 L 61.359375 139.980469 C 27.765625 139.980469 0.117188 167.625 0.117188 201.21875 L 0.117188 638.652344 C 0.117188 672.246094 27.765625 699.890625 61.359375 699.890625 L 778.746094 699.890625 C 812.339844 699.890625 839.988281 672.246094 839.988281 638.652344 L 839.988281 314.601562 C 822.140625 325.800781 801.140625 332.449219 778.746094 332.449219 Z M 778.746094 332.449219 " fill-opacity="1" fill-rule="nonzero"/></g><path fill="#ffffff" d="M 455.046875 419.933594 C 455.046875 458.585938 423.710938 489.925781 385.058594 489.925781 C 346.40625 489.925781 315.070312 458.585938 315.070312 419.933594 C 315.070312 381.285156 346.40625 349.945312 385.058594 349.945312 C 423.710938 349.945312 455.046875 381.285156 455.046875 419.933594 Z M 455.046875 419.933594 " fill-opacity="1" fill-rule="nonzero"/><path fill="#ffffff" d="M 525.035156 621.15625 L 525.035156 629.902344 L 245.078125 629.902344 L 245.078125 621.15625 C 245.078125 567.960938 288.121094 524.917969 341.316406 524.917969 L 428.800781 524.917969 C 481.992188 524.917969 525.035156 567.960938 525.035156 621.15625 Z M 525.035156 621.15625 " fill-opacity="1" fill-rule="nonzero"/><path fill="#ffffff" d="M 778.746094 0 L 481.292969 0 C 447.519531 0 420.054688 27.46875 420.054688 61.242188 L 420.054688 218.714844 C 420.054688 252.488281 447.519531 279.957031 481.292969 279.957031 L 525.035156 279.957031 L 525.035156 358.695312 C 525.035156 369.511719 531.683594 379.234375 541.765625 383.15625 C 544.839844 384.34375 548.097656 384.941406 551.28125 384.941406 C 558.492188 384.941406 565.558594 381.96875 570.632812 376.441406 L 659.070312 279.957031 L 778.746094 279.957031 C 812.519531 279.957031 839.988281 252.488281 839.988281 218.714844 L 839.988281 61.242188 C 839.988281 27.46875 812.519531 0 778.746094 0 Z M 542.535156 166.222656 C 528.042969 166.222656 516.289062 154.46875 516.289062 139.980469 C 516.289062 125.488281 528.042969 113.734375 542.535156 113.734375 C 557.023438 113.734375 568.78125 125.488281 568.78125 139.980469 C 568.78125 154.46875 557.023438 166.222656 542.535156 166.222656 Z M 630.019531 166.222656 C 615.53125 166.222656 603.773438 154.46875 603.773438 139.980469 C 603.773438 125.488281 615.53125 113.734375 630.019531 113.734375 C 644.511719 113.734375 656.265625 125.488281 656.265625 139.980469 C 656.265625 154.46875 644.511719 166.222656 630.019531 166.222656 Z M 717.507812 166.222656 C 703.015625 166.222656 691.261719 154.46875 691.261719 139.980469 C 691.261719 125.488281 703.015625 113.734375 717.507812 113.734375 C 731.996094 113.734375 743.753906 125.488281 743.753906 139.980469 C 743.753906 154.46875 731.996094 166.222656 717.507812 166.222656 Z M 717.507812 166.222656 " fill-opacity="1" fill-rule="nonzero"/></svg>