<svg xmlns="http://www.w3.org/2000/svg" xmlns:xlink="http://www.w3.org/1999/xlink" width="1120" zoomAndPan="magnify" viewBox="0 0 840 839.999992" height="1120" preserveAspectRatio="xMidYMid meet" version="1.0"><defs><clipPath id="164009f65c"><path d="M 135 430.515625 L 779 430.515625 L 779 785.359375 L 135 785.359375 Z M 135 430.515625 " clip-rule="nonzero"/></clipPath><clipPath id="1b8cc76862"><path d="M 3 58 L 649 58 L 649 499 L 3 499 Z M 3 58 " clip-rule="nonzero"/></clipPath><clipPath id="8e4ad4614a"><path d="M -79.953125 215.25 L 539.738281 -22.535156 L 648.289062 260.351562 L 28.59375 498.140625 Z M -79.953125 215.25 " clip-rule="nonzero"/></clipPath><clipPath id="a491498959"><path d="M -79.953125 215.25 L 539.738281 -22.535156 L 777.527344 597.15625 L 157.832031 834.945312 Z M -79.953125 215.25 " clip-rule="nonzero"/></clipPath><clipPath id="1e1c6878ad"><path d="M 648.558594 331.390625 L 681 331.390625 L 681 411 L 648.558594 411 Z M 648.558594 331.390625 " clip-rule="nonzero"/></clipPath><clipPath id="285118468a"><path d="M 621.398438 120.464844 L 839.648438 120.464844 L 839.648438 399.464844 L 621.398438 399.464844 Z M 621.398438 120.464844 " clip-rule="nonzero"/></clipPath><clipPath id="4a2c893cbf"><path d="M 607.246094 71.996094 L 712.246094 71.996094 L 712.246094 205.496094 L 607.246094 205.496094 Z M 607.246094 71.996094 " clip-rule="nonzero"/></clipPath><clipPath id="ec0909c4f1"><path d="M 742.929688 308.886719 L 838 308.886719 L 838 429.636719 L 742.929688 429.636719 Z M 742.929688 308.886719 " clip-rule="nonzero"/></clipPath><clipPath id="03dbb3e148"><path d="M 564.292969 278.695312 L 661.792969 278.695312 L 661.792969 403 L 564.292969 403 Z M 564.292969 278.695312 " clip-rule="nonzero"/></clipPath><clipPath id="dc6cc77ff4"><path d="M 507.359375 340.84375 L 556.109375 340.84375 L 556.109375 403 L 507.359375 403 Z M 507.359375 340.84375 " clip-rule="nonzero"/></clipPath></defs><g clip-path="url(#164009f65c)"><path fill="#ffffff" d="M 363.46875 121.347656 C 342.191406 121.347656 320.878906 129.449219 304.703125 145.59375 C 272.359375 177.886719 272.359375 230.605469 304.703125 262.898438 C 314.144531 272.324219 327.660156 278.378906 343.101562 283.847656 C 344.066406 284.191406 345.0625 284.523438 346.042969 284.855469 L 185.359375 284.855469 C 156.699219 284.855469 135.253906 311.4375 135.253906 341.917969 L 135.253906 370.648438 C 135.253906 394.867188 148.796875 416.609375 168.738281 424.523438 L 168.738281 721.191406 C 168.738281 757.644531 198.324219 787.382812 234.679688 787.382812 L 676.847656 787.382812 C 713.203125 787.382812 742.8125 757.644531 742.8125 721.191406 L 742.8125 425.332031 C 763.949219 418.1875 778.496094 395.746094 778.496094 370.648438 L 778.496094 341.917969 C 778.496094 311.4375 757.050781 284.855469 728.390625 284.855469 L 565.511719 284.855469 C 566.488281 284.523438 567.460938 284.1875 568.425781 283.847656 C 583.871094 278.378906 597.40625 272.324219 606.847656 262.898438 C 639.195312 230.605469 639.195312 177.886719 606.847656 145.59375 C 590.675781 129.449219 569.359375 121.347656 548.082031 121.347656 C 526.804688 121.347656 505.515625 129.449219 489.339844 145.59375 C 479.898438 155.019531 473.804688 168.480469 468.324219 183.902344 C 463.269531 198.132812 459.144531 213.984375 455.765625 229.234375 C 452.386719 213.984375 448.28125 198.128906 443.226562 183.902344 C 437.746094 168.480469 431.652344 155.019531 422.210938 145.59375 C 406.039062 129.449219 384.746094 121.347656 363.46875 121.347656 Z M 363.46875 144.226562 C 378.828125 144.226562 394.234375 150.09375 406.015625 161.855469 C 410.554688 166.382812 416.648438 177.671875 421.605469 191.617188 C 426.5625 205.566406 430.769531 222.125 434.164062 237.914062 C 439.21875 261.390625 440.410156 272.859375 441.703125 282.410156 C 432.109375 281.117188 420.6875 279.890625 397.203125 274.851562 C 381.390625 271.460938 364.792969 267.175781 350.820312 262.226562 C 336.847656 257.277344 325.523438 251.167969 320.988281 246.636719 C 297.425781 223.113281 297.425781 185.378906 320.988281 161.855469 C 332.769531 150.09375 348.109375 144.226562 363.46875 144.226562 Z M 548.082031 144.226562 C 563.441406 144.226562 578.78125 150.09375 590.5625 161.855469 C 614.125 185.378906 614.125 223.113281 590.5625 246.636719 C 586.027344 251.167969 574.683594 257.277344 560.710938 262.226562 C 546.738281 267.175781 530.164062 271.460938 514.351562 274.851562 C 490.824219 279.902344 479.324219 281.121094 469.761719 282.410156 C 471.054688 272.859375 472.332031 261.390625 477.386719 237.914062 C 480.785156 222.125 484.992188 205.566406 489.945312 191.617188 C 494.902344 177.671875 501 166.382812 505.535156 161.855469 C 517.316406 150.09375 532.722656 144.226562 548.082031 144.226562 Z M 185.359375 307.847656 L 397.785156 307.847656 L 397.785156 404.742188 L 185.359375 404.742188 C 171.265625 404.742188 158.21875 390.695312 158.21875 370.648438 L 158.21875 341.917969 C 158.21875 321.867188 171.265625 307.847656 185.359375 307.847656 Z M 420.753906 307.847656 L 454.417969 307.847656 C 454.5 307.855469 454.582031 307.863281 454.667969 307.871094 C 454.785156 307.878906 454.90625 307.886719 455.023438 307.890625 C 455.625 307.925781 456.222656 307.910156 456.820312 307.847656 C 456.84375 307.847656 456.863281 307.847656 456.886719 307.847656 L 490.777344 307.847656 L 490.777344 764.414062 L 420.753906 764.414062 Z M 513.765625 307.847656 L 728.390625 307.847656 C 742.484375 307.847656 755.53125 321.867188 755.53125 341.917969 L 755.53125 370.648438 C 755.53125 389.09375 744.496094 402.410156 731.753906 404.425781 C 731.597656 404.414062 731.441406 404.40625 731.285156 404.402344 L 728.234375 404.402344 C 727.484375 404.445312 726.742188 404.554688 726.011719 404.742188 L 513.765625 404.742188 Z M 191.707031 427.707031 L 397.785156 427.707031 L 397.785156 764.414062 L 234.679688 764.414062 C 210.722656 764.414062 191.707031 745.375 191.707031 721.191406 Z M 513.765625 427.707031 L 719.84375 427.707031 L 719.84375 721.191406 C 719.84375 745.375 700.808594 764.414062 676.847656 764.414062 L 513.765625 764.414062 Z M 513.765625 427.707031 " fill-opacity="1" fill-rule="evenodd"/></g><path stroke-linecap="butt" transform="matrix(0.75, 0, 0, 0.75, 204.533153, 409.639223)" fill="none" stroke-linejoin="miter" d="M -0.00253794 14.00187 L 717.862082 14.00187 " stroke="#ffffff" stroke-width="28" stroke-opacity="1" stroke-miterlimit="4"/><g clip-path="url(#1b8cc76862)"><g clip-path="url(#8e4ad4614a)"><g clip-path="url(#a491498959)"><path fill="#ffffff" d="M 141.390625 130.039062 C 121.523438 137.660156 104.527344 152.859375 95.210938 173.726562 C 76.582031 215.464844 95.46875 264.683594 137.238281 283.246094 C 149.425781 288.664062 164.210938 289.472656 180.589844 289.046875 C 181.613281 289.023438 182.660156 288.976562 183.695312 288.9375 L 33.679688 346.5 C 6.917969 356.769531 -3.578125 389.269531 7.339844 417.722656 L 17.632812 444.550781 C 26.308594 467.160156 46.742188 482.609375 68.195312 482.851562 L 174.476562 759.832031 C 187.535156 793.863281 225.8125 811.027344 259.753906 798.003906 L 672.574219 639.597656 C 706.519531 626.570312 723.507812 588.199219 710.449219 554.167969 L 604.457031 277.945312 C 621.632812 263.703125 627.175781 237.539062 618.183594 214.109375 L 607.890625 187.285156 C 596.972656 158.828125 567.425781 141.695312 540.667969 151.960938 L 388.597656 210.3125 C 389.394531 209.648438 390.179688 208.992188 390.957031 208.328125 C 403.417969 197.6875 413.886719 187.1875 419.324219 175.003906 C 437.953125 133.265625 419.070312 84.046875 377.300781 65.484375 C 356.417969 56.203125 333.617188 56.277344 313.75 63.902344 C 293.886719 71.523438 276.910156 86.710938 267.59375 107.582031 C 262.15625 119.765625 261.289062 134.515625 261.695312 150.875 C 262.074219 165.972656 263.902344 182.25 266.210938 197.695312 C 257.59375 184.671875 248.082031 171.339844 238.265625 159.867188 C 227.621094 147.433594 217.109375 137.046875 204.917969 131.628906 C 184.035156 122.347656 161.253906 122.414062 141.390625 130.039062 Z M 149.585938 151.398438 C 163.925781 145.894531 180.414062 145.851562 195.625 152.613281 C 201.484375 155.21875 211.21875 163.570312 220.84375 174.816406 C 230.464844 186.0625 240.324219 200.015625 249.152344 213.539062 C 262.28125 233.648438 267.5 243.925781 272.132812 252.382812 C 262.714844 254.613281 251.609375 257.558594 227.878906 261.269531 C 211.898438 263.765625 194.867188 265.710938 180.046875 266.097656 C 165.230469 266.480469 152.472656 264.832031 146.613281 262.230469 C 116.1875 248.707031 102.671875 213.480469 116.242188 183.074219 C 123.027344 167.875 135.246094 156.898438 149.585938 151.398438 Z M 321.945312 85.261719 C 336.289062 79.757812 352.710938 79.738281 367.921875 86.5 C 398.347656 100.023438 411.867188 135.25 398.296875 165.65625 C 395.683594 171.507812 387.28125 181.277344 376.007812 190.902344 C 364.738281 200.53125 350.796875 210.46875 337.25 219.300781 C 317.09375 232.441406 306.792969 237.703125 298.328125 242.332031 C 296.113281 232.949219 293.199219 221.785156 289.503906 198.054688 C 287.023438 182.097656 285.015625 165.132812 284.648438 150.335938 C 284.277344 135.539062 285.925781 122.816406 288.539062 116.960938 C 295.324219 101.761719 307.605469 90.761719 321.945312 85.261719 Z M 41.914062 367.964844 L 240.242188 291.863281 L 274.953125 382.328125 L 76.625 458.429688 C 63.46875 463.476562 46.257812 455.039062 39.074219 436.320312 L 28.78125 409.496094 C 21.601562 390.777344 28.757812 373.015625 41.914062 367.964844 Z M 261.683594 283.636719 L 293.117188 271.574219 C 293.195312 271.554688 293.277344 271.53125 293.355469 271.507812 C 293.46875 271.472656 293.585938 271.4375 293.699219 271.402344 C 294.269531 271.214844 294.824219 270.988281 295.359375 270.71875 C 295.378906 270.710938 295.402344 270.703125 295.421875 270.691406 L 295.652344 270.605469 L 327.0625 258.550781 L 490.628906 684.8125 L 425.25 709.898438 L 300.527344 384.863281 Z M 348.523438 250.3125 L 548.902344 173.425781 C 562.0625 168.375 579.265625 176.792969 586.445312 195.511719 L 596.738281 222.335938 C 603.347656 239.558594 597.816406 255.941406 586.644531 262.390625 C 586.492188 262.4375 586.34375 262.484375 586.195312 262.535156 L 583.347656 263.628906 C 582.660156 263.9375 582.011719 264.308594 581.398438 264.742188 L 383.238281 340.777344 Z M 90.78125 477.597656 L 283.183594 403.769531 L 403.804688 718.128906 L 251.527344 776.558594 C 229.160156 785.144531 204.585938 774.179688 195.921875 751.601562 Z M 391.464844 362.21875 L 583.867188 288.390625 L 689.007812 562.398438 C 697.667969 584.976562 686.714844 609.570312 664.347656 618.152344 L 512.089844 676.578125 Z M 391.464844 362.21875 " fill-opacity="1" fill-rule="evenodd"/></g></g></g><path stroke-linecap="butt" transform="matrix(0.70022, -0.268686, 0.268686, 0.70022, 254.188409, 389.929013)" fill="none" stroke-linejoin="miter" d="M 0.000519688 13.501387 L 217.863125 13.4979 " stroke="#ffffff" stroke-width="27" stroke-opacity="1" stroke-miterlimit="4"/><g clip-path="url(#1e1c6878ad)"><path fill="#ffffff" d="M 576.507812 339.144531 C 564.6875 327.722656 546.308594 312.472656 525.167969 314.613281 C 524.308594 310.800781 535.84375 310.054688 538.148438 308.269531 C 544.996094 305.84375 550.960938 301.847656 557.179688 298.199219 C 582.699219 278.476562 593.164062 245.203125 594.921875 214.152344 C 593.609375 187.074219 610.835938 280.96875 642.507812 294.480469 C 650.984375 300.039062 660.238281 303.972656 669.441406 307.769531 C 679.082031 310.375 688.34375 311.601562 671.375 313.546875 C 628.457031 324.757812 607.015625 364.152344 603.738281 408.90625 C 600.246094 420.113281 598.609375 381.503906 595.90625 376.667969 C 591.503906 362.710938 585.527344 349.332031 576.507812 339.144531 Z M 576.507812 339.144531 " fill-opacity="1" fill-rule="nonzero"/></g><path fill="#ffffff" d="M 669.246094 387.980469 C 667.347656 379.84375 665.164062 370.582031 655.941406 368.25 C 655.019531 367.933594 655.226562 367.121094 656.09375 366.847656 C 665.101562 365.734375 666.046875 352.765625 669.902344 350.074219 C 669.707031 360.507812 681.292969 364.40625 686.390625 368.910156 C 675.769531 369.160156 672.367188 381.015625 669.246094 387.980469 Z M 669.246094 387.980469 " fill-opacity="1" fill-rule="nonzero"/><g clip-path="url(#285118468a)"><path fill="#ffffff" d="M 730.699219 120.464844 C 749.046875 201.675781 758.679688 241.570312 839.890625 259.917969 C 758.683594 278.265625 749.050781 318.160156 730.699219 399.371094 C 712.351562 318.160156 702.71875 278.265625 621.507812 259.917969 C 702.71875 241.570312 712.351562 201.675781 730.699219 120.464844 Z M 730.699219 120.464844 " fill-opacity="1" fill-rule="nonzero"/></g><g clip-path="url(#4a2c893cbf)"><path fill="#ffffff" d="M 659.683594 71.996094 C 668.484375 110.960938 673.105469 130.105469 712.070312 138.90625 C 673.109375 147.707031 668.488281 166.851562 659.683594 205.8125 C 650.878906 166.851562 646.257812 147.707031 607.292969 138.90625 C 646.257812 130.105469 650.878906 110.960938 659.683594 71.996094 Z M 659.683594 71.996094 " fill-opacity="1" fill-rule="nonzero"/></g><g clip-path="url(#ec0909c4f1)"><path fill="#ffffff" d="M 790.367188 308.886719 C 798.328125 344.140625 802.511719 361.457031 837.761719 369.421875 C 802.511719 377.386719 798.332031 394.703125 790.367188 429.953125 C 782.402344 394.703125 778.21875 377.386719 742.96875 369.421875 C 778.21875 361.457031 782.402344 344.140625 790.367188 308.886719 Z M 790.367188 308.886719 " fill-opacity="1" fill-rule="nonzero"/></g><g clip-path="url(#03dbb3e148)"><path fill="#ffffff" d="M 613 278.695312 C 621.175781 314.886719 625.46875 332.664062 661.660156 340.839844 C 625.472656 349.015625 621.179688 366.792969 613 402.984375 C 604.824219 366.792969 600.53125 349.015625 564.34375 340.839844 C 600.53125 332.664062 604.824219 314.886719 613 278.695312 Z M 613 278.695312 " fill-opacity="1" fill-rule="nonzero"/></g><g clip-path="url(#dc6cc77ff4)"><path fill="#ffffff" d="M 531.710938 340.84375 C 535.800781 358.941406 537.945312 367.828125 556.042969 371.917969 C 537.949219 376.003906 535.800781 384.894531 531.710938 402.988281 C 527.625 384.894531 525.476562 376.003906 507.382812 371.917969 C 525.476562 367.828125 527.625 358.941406 531.710938 340.84375 Z M 531.710938 340.84375 " fill-opacity="1" fill-rule="nonzero"/></g></svg>