<svg xmlns="http://www.w3.org/2000/svg" xmlns:xlink="http://www.w3.org/1999/xlink" width="1120" zoomAndPan="magnify" viewBox="0 0 840 839.999992" height="1120" preserveAspectRatio="xMidYMid meet" version="1.0"><path fill="#ffffff" d="M 698.957031 340.535156 L 656.117188 340.535156 L 656.117188 236.375 C 656.285156 106.007812 550.277344 0 419.910156 0 C 289.542969 0 183.535156 106.007812 183.535156 236.375 L 183.535156 340.535156 L 140.863281 340.535156 C 123.894531 340.535156 110.117188 354.3125 110.117188 371.28125 L 110.117188 809.425781 C 110.117188 826.222656 123.894531 840 140.863281 840 L 699.125 840 C 716.09375 840 729.871094 826.222656 729.871094 809.257812 L 729.871094 371.28125 C 729.703125 354.3125 715.925781 340.535156 698.957031 340.535156 Z M 245.023438 236.375 C 245.023438 139.945312 323.480469 61.488281 419.910156 61.488281 C 516.34375 61.488281 594.800781 139.945312 594.800781 236.375 L 594.800781 340.535156 L 245.023438 340.535156 Z M 450.65625 612.359375 L 450.65625 693.167969 C 450.65625 710.136719 436.878906 723.910156 419.910156 723.910156 C 402.941406 723.910156 389.167969 710.136719 389.167969 693.167969 L 389.167969 612.359375 C 368 601.273438 353.550781 579.097656 353.550781 553.726562 C 353.550781 517.105469 383.285156 487.535156 419.742188 487.535156 C 456.367188 487.535156 485.933594 517.273438 485.933594 553.726562 C 486.269531 579.097656 471.824219 601.273438 450.65625 612.359375 Z M 450.65625 612.359375 " fill-opacity="1" fill-rule="nonzero"/></svg>