<?xml version="1.0" encoding="UTF-8" standalone="no"?><svg xmlns="http://www.w3.org/2000/svg" xmlns:xlink="http://www.w3.org/1999/xlink" fill="#ffffff" height="472.1" preserveAspectRatio="xMidYMid meet" version="1" viewBox="0.0 0.0 500.0 472.1" width="500" zoomAndPan="magnify"><g id="change1_1"><path d="M484.4,0H15.6C7,0,0,7,0,15.6v440.9c0,8.6,7,15.6,15.6,15.6h468.8c8.6,0,15.6-7,15.6-15.6V15.6C500,7,493,0,484.4,0z M468.8,440.9H31.3V31.3h437.5V440.9z M94.7,247.1c-6.1-6.1-6.1-16,0-22.1l77.3-77.3c6.1-6.1,16-6.1,22.1,0c6.1,6.1,6.1,16,0,22.1 l-66.3,66.3l66.3,66.3c6.1,6.1,6.1,16,0,22.1c-3,3.1-7,4.6-11,4.6s-8-1.5-11-4.6L94.7,247.1z M305.9,302.4l66.3-66.3l-66.3-66.3 c-6.1-6.1-6.1-16,0-22.1c6.1-6.1,16-6.1,22.1,0l77.3,77.3c6.1,6.1,6.1,16,0,22.1L328,324.5c-3,3.1-7,4.6-11,4.6s-8-1.5-11-4.6 C299.8,318.4,299.8,308.5,305.9,302.4z M210.8,321.4l40.4-177.6c1.9-8.4,10.3-13.7,18.7-11.8c8.4,1.9,13.7,10.3,11.8,18.7 l-40.4,177.6c-1.6,7.2-8.1,12.2-15.2,12.2c-1.1,0-2.3-0.1-3.5-0.4C214.2,338.2,208.9,329.8,210.8,321.4z" fill="inherit"/></g></svg>