<svg fill="#fff" height="472.1" preserveAspectRatio="xMidYMid meet" viewBox="0 0 500 472.1" width="500" xmlns="http://www.w3.org/2000/svg" zoomAndPan="magnify"><path d="m484.4 0h-468.8c-8.6 0-15.6 7-15.6 15.6v440.9c0 8.6 7 15.6 15.6 15.6h468.8c8.6 0 15.6-7 15.6-15.6v-440.9c0-8.6-7-15.6-15.6-15.6zm-15.6 440.9h-437.5v-409.6h437.5zm-374.1-193.8c-6.1-6.1-6.1-16 0-22.1l77.3-77.3c6.1-6.1 16-6.1 22.1 0s6.1 16 0 22.1l-66.3 66.3 66.3 66.3c6.1 6.1 6.1 16 0 22.1-3 3.1-7 4.6-11 4.6s-8-1.5-11-4.6zm211.2 55.3 66.3-66.3-66.3-66.3c-6.1-6.1-6.1-16 0-22.1s16-6.1 22.1 0l77.3 77.3c6.1 6.1 6.1 16 0 22.1l-77.3 77.4c-3 3.1-7 4.6-11 4.6s-8-1.5-11-4.6c-6.2-6.1-6.2-16-.1-22.1zm-95.1 19 40.4-177.6c1.9-8.4 10.3-13.7 18.7-11.8s13.7 10.3 11.8 18.7l-40.4 177.6c-1.6 7.2-8.1 12.2-15.2 12.2-1.1 0-2.3-.1-3.5-.4-8.4-1.9-13.7-10.3-11.8-18.7z" fill="#fff"/></svg>