<?xml version="1.0" encoding="UTF-8" standalone="no"?><svg xmlns="http://www.w3.org/2000/svg" xmlns:xlink="http://www.w3.org/1999/xlink" clip-rule="evenodd" fill="#000000" fill-rule="evenodd" height="58" preserveAspectRatio="xMidYMid meet" stroke-linejoin="round" stroke-miterlimit="2" version="1" viewBox="3.0 3.0 58.0 58.0" width="58" zoomAndPan="magnify"><g><g id="change1_1"><path d="M104.002,279L75.016,279C73.359,279 72.016,280.343 72.016,282L72.016,334C72.016,335.657 73.359,337 75.016,337C81.715,337 103.317,337 110.016,337C110.812,337 111.575,336.684 112.137,336.121C112.7,335.559 113.016,334.796 113.016,334L113.016,311.731L128.536,296.211C129.473,295.273 130,294.001 130,292.675C130,291.349 129.473,290.078 128.536,289.14C128.535,289.139 128.534,289.138 128.533,289.137C127.595,288.199 126.323,287.673 124.997,287.673C123.671,287.673 122.399,288.199 121.462,289.137L121.462,289.137L113.016,297.583L113.016,288.013C113.016,287.747 112.911,287.493 112.723,287.305L104.741,279.327C104.558,279.126 104.294,279 104.002,279ZM103.002,281L75.016,281C74.464,281 74.016,281.448 74.016,282C74.016,282 74.016,334 74.016,334C74.016,334.552 74.464,335 75.016,335C81.715,335 103.317,335 110.016,335C110.281,335 110.535,334.895 110.723,334.707C110.911,334.52 111.016,334.265 111.016,334L111.016,313.731L103.315,321.432C103.246,321.5 103.168,321.559 103.082,321.605L90.946,328.14C86.139,332.847 80.74,331.375 79.155,327.726C77.913,324.868 78.55,321.023 81.341,318.579C83.317,316.849 84.866,316.097 86.972,314.619C89.376,312.931 91.195,310.438 91.478,305.084L91.118,305.084C90.132,305.084 89.186,304.693 88.489,303.995C87.791,303.298 87.4,302.352 87.4,301.366L87.4,301.365C87.4,300.098 86.945,298.874 86.118,297.914C84.815,296.445 84.032,294.518 84.032,292.411C84.032,287.772 87.831,284 92.516,284C97.201,284 101,287.772 101,292.411C101,294.517 100.218,296.443 98.926,297.919C98.198,298.763 97.759,299.814 97.664,300.917C97.652,301.066 97.639,301.493 97.627,301.555C97.581,302.472 97.196,303.343 96.543,303.995C95.846,304.693 94.9,305.084 93.914,305.084L93.481,305.084C93.176,311.414 90.93,314.284 88.121,316.256C86.081,317.688 84.573,318.407 82.659,320.083C80.568,321.915 80.059,324.787 80.989,326.929C82.139,329.576 86.046,330.125 89.536,326.721L96.068,314.591C96.114,314.505 96.172,314.427 96.241,314.358L111.019,299.58C111.017,299.553 111.016,299.527 111.016,299.5L111.016,289.013L104.002,289.013C103.45,289.013 103.002,288.565 103.002,288.013L103.002,281ZM98.499,329L97.999,329C97.447,329 96.999,329.448 96.999,330C96.999,330.552 97.447,331 97.999,331L98.499,331L98.499,331.5C98.499,332.052 98.947,332.5 99.499,332.5C100.051,332.5 100.499,332.052 100.499,331.5L100.499,331L100.999,331C101.551,331 101.999,330.552 101.999,330C101.999,329.448 101.551,329 100.999,329L100.499,329L100.499,328.5C100.499,327.948 100.051,327.5 99.499,327.5C98.947,327.5 98.499,327.948 98.499,328.5L98.499,329ZM92.806,324.867L95.54,323.394C95.187,322.898 94.768,322.474 94.284,322.121L92.806,324.867ZM97.759,315.668L95.239,320.348C96.062,320.9 96.753,321.597 97.312,322.44L102.004,319.914L102.466,319.452L99.582,318.875C99.186,318.796 98.877,318.487 98.797,318.091L98.221,315.207L97.759,315.668ZM121.754,297.333L101.806,317.281L104.166,317.752L123.037,298.881C122.633,298.345 122.205,297.828 121.754,297.333ZM118.791,294.636L99.92,313.507L100.392,315.866L120.34,295.919C119.844,295.468 119.328,295.04 118.791,294.636ZM80,307L79,307C78.448,307 78,307.448 78,308C78,308.552 78.448,309 79,309L80,309L80,310C80,310.552 80.448,311 81,311C81.552,311 82,310.552 82,310L82,309L83,309C83.552,309 84,308.552 84,308C84,307.448 83.552,307 83,307L82,307L82,306C82,305.448 81.552,305 81,305C80.448,305 80,305.448 80,306L80,307ZM93.514,303.084L93.914,303.084C94.37,303.084 94.807,302.903 95.129,302.581C95.451,302.259 95.632,301.822 95.632,301.366L95.664,300.854C95.774,299.293 96.385,297.803 97.413,296.612C97.415,296.61 97.416,296.608 97.418,296.606C98.403,295.482 99,294.015 99,292.411C99,288.87 96.092,286 92.516,286C88.94,286 86.032,288.87 86.032,292.411C86.032,294.013 86.627,295.477 87.619,296.592C87.622,296.596 87.625,296.6 87.629,296.604C88.771,297.927 89.4,299.617 89.4,301.365L89.4,301.366C89.4,301.822 89.581,302.259 89.903,302.581C90.225,302.903 90.662,303.084 91.118,303.084L91.514,303.084L91.501,294.528L90.449,293.835C89.989,293.531 89.861,292.91 90.165,292.449C90.469,291.989 91.09,291.861 91.551,292.165L92.516,292.802L93.481,292.165C93.942,291.861 94.563,291.989 94.867,292.449C95.171,292.91 95.043,293.531 94.582,293.835L93.501,294.548L93.514,303.084ZM124.464,297.454L127.121,294.797C127.684,294.234 128,293.471 128,292.675C128,291.88 127.684,291.117 127.121,290.554C127.12,290.553 127.119,290.552 127.119,290.551C126.556,289.989 125.793,289.673 124.997,289.673C124.202,289.673 123.439,289.989 122.876,290.551L120.218,293.209C121.81,294.436 123.237,295.863 124.464,297.454ZM78.506,286.013L78,286.013C77.448,286.013 77,286.461 77,287.013C77,287.565 77.448,288.013 78,288.013L78.506,288.013L78.506,288.519C78.506,289.071 78.954,289.519 79.506,289.519C80.058,289.519 80.506,289.071 80.506,288.519L80.506,288.013L81.013,288.013C81.565,288.013 82.013,287.565 82.013,287.013C82.013,286.461 81.565,286.013 81.013,286.013L80.506,286.013L80.506,285.506C80.506,284.954 80.058,284.506 79.506,284.506C78.954,284.506 78.506,284.954 78.506,285.506L78.506,286.013ZM109.601,287.013L105.002,282.415L105.002,287.013L109.601,287.013Z" fill="#ffffff" transform="translate(-69 -276)"/></g></g></svg>