<svg clip-rule="evenodd" fill-rule="evenodd" height="58" preserveAspectRatio="xMidYMid meet" stroke-linejoin="round" stroke-miterlimit="2" viewBox="3 3 58 58" width="58" xmlns="http://www.w3.org/2000/svg" zoomAndPan="magnify"><path d="m104.002 279h-28.986c-1.657 0-3 1.343-3 3v52c0 1.657 1.343 3 3 3h35c.796 0 1.559-.316 2.121-.879.563-.562.879-1.325.879-2.121v-22.269l15.52-15.52c.937-.938 1.464-2.21 1.464-3.536s-.527-2.597-1.464-3.535c-.001-.001-.002-.002-.003-.003-.938-.938-2.21-1.464-3.536-1.464s-2.598.526-3.535 1.464l-8.446 8.446v-9.57c0-.266-.105-.52-.293-.708l-7.982-7.978c-.183-.201-.447-.327-.739-.327zm-1 2h-27.986c-.552 0-1 .448-1 1v52c0 .552.448 1 1 1h35c.265 0 .519-.105.707-.293.188-.187.293-.442.293-.707v-20.269l-7.701 7.701c-.069.068-.147.127-.233.173l-12.136 6.535c-4.807 4.707-10.206 3.235-11.791-.414-1.242-2.858-.605-6.703 2.186-9.147 1.976-1.73 3.525-2.482 5.631-3.96 2.404-1.688 4.223-4.181 4.506-9.535h-.36c-.986 0-1.932-.391-2.629-1.089-.698-.697-1.089-1.643-1.089-2.629v-.001c0-1.267-.455-2.491-1.282-3.451-1.303-1.469-2.086-3.396-2.086-5.503 0-4.639 3.799-8.411 8.484-8.411s8.484 3.772 8.484 8.411c0 2.106-.782 4.032-2.074 5.508-.728.844-1.167 1.895-1.262 2.998-.012.149-.025.576-.037.638-.046.917-.431 1.788-1.084 2.44-.697.698-1.643 1.089-2.629 1.089h-.433c-.305 6.33-2.551 9.2-5.36 11.172-2.04 1.432-3.548 2.151-5.462 3.827-2.091 1.832-2.6 4.704-1.67 6.846 1.15 2.647 5.057 3.196 8.547-.208l6.532-12.13c.046-.086.104-.164.173-.233l14.778-14.778c-.002-.027-.003-.053-.003-.08v-10.487h-7.014c-.552 0-1-.448-1-1zm-4.503 48h-.5c-.552 0-1 .448-1 1s.448 1 1 1h.5v.5c0 .552.448 1 1 1s1-.448 1-1v-.5h.5c.552 0 1-.448 1-1s-.448-1-1-1h-.5v-.5c0-.552-.448-1-1-1s-1 .448-1 1zm-5.693-4.133 2.734-1.473c-.353-.496-.772-.92-1.256-1.273zm4.953-9.199-2.52 4.68c.823.552 1.514 1.249 2.073 2.092l4.692-2.526.462-.462-2.884-.577c-.396-.079-.705-.388-.785-.784l-.576-2.884zm23.995-18.335-19.948 19.948 2.36.471 18.871-18.871c-.404-.536-.832-1.053-1.283-1.548zm-2.963-2.697-18.871 18.871.472 2.359 19.948-19.947c-.496-.451-1.012-.879-1.549-1.283zm-38.791 12.364h-1c-.552 0-1 .448-1 1s.448 1 1 1h1v1c0 .552.448 1 1 1s1-.448 1-1v-1h1c.552 0 1-.448 1-1s-.448-1-1-1h-1v-1c0-.552-.448-1-1-1s-1 .448-1 1zm13.514-3.916h.4c.456 0 .893-.181 1.215-.503s.503-.759.503-1.215l.032-.512c.11-1.561.721-3.051 1.749-4.242.002-.002.003-.004.005-.006.985-1.124 1.582-2.591 1.582-4.195 0-3.541-2.908-6.411-6.484-6.411s-6.484 2.87-6.484 6.411c0 1.602.595 3.066 1.587 4.181.003.004.006.008.01.012 1.142 1.323 1.771 3.013 1.771 4.761v.001c0 .456.181.893.503 1.215s.759.503 1.215.503h.396l-.013-8.556-1.052-.693c-.46-.304-.588-.925-.284-1.386.304-.46.925-.588 1.386-.284l.965.637.965-.637c.461-.304 1.082-.176 1.386.284.304.461.176 1.082-.285 1.386l-1.081.713zm30.95-5.63 2.657-2.657c.563-.563.879-1.326.879-2.122 0-.795-.316-1.558-.879-2.121-.001-.001-.002-.002-.002-.003-.563-.562-1.326-.878-2.122-.878-.795 0-1.558.316-2.121.878l-2.658 2.658c1.592 1.227 3.019 2.654 4.246 4.245zm-45.958-11.441h-.506c-.552 0-1 .448-1 1s.448 1 1 1h.506v.506c0 .552.448 1 1 1s1-.448 1-1v-.506h.507c.552 0 1-.448 1-1s-.448-1-1-1h-.507v-.507c0-.552-.448-1-1-1s-1 .448-1 1zm31.095 1-4.599-4.598v4.598z" fill="#fff" transform="translate(-69 -276)"/></svg>