<?xml version="1.0" encoding="UTF-8" standalone="no"?><svg xmlns="http://www.w3.org/2000/svg" xmlns:xlink="http://www.w3.org/1999/xlink" fill="#ffffff" height="64" preserveAspectRatio="xMidYMid meet" version="1" viewBox="0.0 0.0 64.0 64.0" width="64" zoomAndPan="magnify"><g id="change1_1"><path d="M56.8,64c-2.7,0-5.2-1.5-6.4-4l-4-8H17.6l-4,8c-1.2,2.4-3.7,4-6.4,4c-4,0-7.2-3.2-7.2-7.2c0-8,1.6-15.7,4.9-23L6,31.3 c1.4-3.2,4.7-5.3,8.2-5.3H26c0.3,0,0.5,0.1,0.7,0.3l1.7,1.7h7.2l1.7-1.7c0.2-0.2,0.4-0.3,0.7-0.3h11.8c3.6,0,6.8,2.1,8.2,5.3 l1.1,2.4c3.2,7.3,4.9,15,4.9,23C64,60.8,60.8,64,56.8,64z M17,50h30c0.4,0,0.7,0.2,0.9,0.6l4.3,8.6c0.9,1.8,2.7,2.9,4.6,2.9 c2.9,0,5.2-2.3,5.2-5.2c0-7.7-1.6-15.2-4.7-22.2l-1.1-2.4c-1.1-2.5-3.6-4.2-6.4-4.2H38.4l-1.7,1.7C36.5,29.9,36.3,30,36,30h-8 c-0.3,0-0.5-0.1-0.7-0.3L25.6,28H14.2c-2.8,0-5.3,1.6-6.4,4.2c0,0,0,0,0,0l-1.1,2.4C3.6,41.6,2,49.1,2,56.8C2,59.7,4.3,62,7.2,62 c2,0,3.8-1.1,4.6-2.9l4.3-8.6C16.3,50.2,16.6,50,17,50z M6.9,31.8L6.9,31.8L6.9,31.8z"/><path d="M35,46h-6c-0.6,0-1-0.4-1-1s0.4-1,1-1h6c0.6,0,1,0.4,1,1S35.6,46,35,46z"/><path d="M32,26c-0.6,0-1-0.4-1-1c0-1.1-0.9-2-2-2h-6c-1.7,0-3-1.3-3-3v-3c0-0.6,0.4-1,1-1s1,0.4,1,1v3c0,0.6,0.4,1,1,1h6 c1.2,0,2.3,0.5,3,1.4c0.7-0.8,1.8-1.4,3-1.4h6c0.6,0,1-0.4,1-1v-3c0-0.6,0.4-1,1-1s1,0.4,1,1v3c0,1.7-1.3,3-3,3h-6 c-1.1,0-2,0.9-2,2C33,25.6,32.6,26,32,26z"/><path d="M23.5,6.7C23.8,6.2,24,5.6,24,5V3c0-1.7-1.3-3-3-3s-3,1.3-3,3v2c0,0.6,0.2,1.2,0.5,1.7C17,7.5,16,9.1,16,11v2 c0,0.6,0.4,1,1,1h8c0.6,0,1-0.4,1-1v-2C26,9.1,25,7.5,23.5,6.7z M20,5V3c0-0.6,0.4-1,1-1s1,0.4,1,1v2c0,0.6-0.4,1-1,1S20,5.6,20,5z M24,12h-6v-1c0-1.7,1.3-3,3-3s3,1.3,3,3V12z"/><path d="M39,14h8c0.6,0,1-0.4,1-1v-2c0-1.9-1-3.5-2.5-4.3C45.8,6.2,46,5.6,46,5V3c0-1.7-1.3-3-3-3s-3,1.3-3,3v2 c0,0.6,0.2,1.2,0.5,1.7C39,7.5,38,9.1,38,11v2C38,13.6,38.4,14,39,14z"/><path d="M19,46c-1.7,0-3-1.3-3-3v-1h-1c-1.7,0-3-1.3-3-3s1.3-3,3-3h1v-1c0-1.7,1.3-3,3-3s3,1.3,3,3v1h1c1.7,0,3,1.3,3,3s-1.3,3-3,3 h-1v1C22,44.7,20.7,46,19,46z"/><circle cx="45" cy="35" r="2"/><circle cx="45" cy="43" r="2"/><circle cx="41" cy="39" r="2"/><circle cx="49" cy="39" r="2"/></g></svg>