<svg fill="#fff" height="64" preserveAspectRatio="xMidYMid meet" viewBox="0 0 64 64" width="64" xmlns="http://www.w3.org/2000/svg" zoomAndPan="magnify"><path d="m56.8 64c-2.7 0-5.2-1.5-6.4-4l-4-8h-28.8l-4 8c-1.2 2.4-3.7 4-6.4 4-4 0-7.2-3.2-7.2-7.2 0-8 1.6-15.7 4.9-23l1.1-2.5c1.4-3.2 4.7-5.3 8.2-5.3h11.8c.3 0 .5.1.7.3l1.7 1.7h7.2l1.7-1.7c.2-.2.4-.3.7-.3h11.8c3.6 0 6.8 2.1 8.2 5.3l1.1 2.4c3.2 7.3 4.9 15 4.9 23 0 4.1-3.2 7.3-7.2 7.3zm-39.8-14h30c.4 0 .7.2.9.6l4.3 8.6c.9 1.8 2.7 2.9 4.6 2.9 2.9 0 5.2-2.3 5.2-5.2 0-7.7-1.6-15.2-4.7-22.2l-1.1-2.4c-1.1-2.5-3.6-4.2-6.4-4.2h-11.4l-1.7 1.7c-.2.1-.4.2-.7.2h-8c-.3 0-.5-.1-.7-.3l-1.7-1.7h-11.4c-2.8 0-5.3 1.6-6.4 4.2l-1.1 2.4c-3.1 7-4.7 14.5-4.7 22.2 0 2.9 2.3 5.2 5.2 5.2 2 0 3.8-1.1 4.6-2.9l4.3-8.6c.2-.3.5-.5.9-.5z"/><path d="m35 46h-6c-.6 0-1-.4-1-1s.4-1 1-1h6c.6 0 1 .4 1 1s-.4 1-1 1z"/><path d="m32 26c-.6 0-1-.4-1-1 0-1.1-.9-2-2-2h-6c-1.7 0-3-1.3-3-3v-3c0-.6.4-1 1-1s1 .4 1 1v3c0 .6.4 1 1 1h6c1.2 0 2.3.5 3 1.4.7-.8 1.8-1.4 3-1.4h6c.6 0 1-.4 1-1v-3c0-.6.4-1 1-1s1 .4 1 1v3c0 1.7-1.3 3-3 3h-6c-1.1 0-2 .9-2 2 0 .6-.4 1-1 1z"/><path d="m23.5 6.7c.3-.5.5-1.1.5-1.7v-2c0-1.7-1.3-3-3-3s-3 1.3-3 3v2c0 .6.2 1.2.5 1.7-1.5.8-2.5 2.4-2.5 4.3v2c0 .6.4 1 1 1h8c.6 0 1-.4 1-1v-2c0-1.9-1-3.5-2.5-4.3zm-3.5-1.7v-2c0-.6.4-1 1-1s1 .4 1 1v2c0 .6-.4 1-1 1s-1-.4-1-1zm4 7h-6v-1c0-1.7 1.3-3 3-3s3 1.3 3 3z"/><path d="m39 14h8c.6 0 1-.4 1-1v-2c0-1.9-1-3.5-2.5-4.3.3-.5.5-1.1.5-1.7v-2c0-1.7-1.3-3-3-3s-3 1.3-3 3v2c0 .6.2 1.2.5 1.7-1.5.8-2.5 2.4-2.5 4.3v2c0 .6.4 1 1 1z"/><path d="m19 46c-1.7 0-3-1.3-3-3v-1h-1c-1.7 0-3-1.3-3-3s1.3-3 3-3h1v-1c0-1.7 1.3-3 3-3s3 1.3 3 3v1h1c1.7 0 3 1.3 3 3s-1.3 3-3 3h-1v1c0 1.7-1.3 3-3 3z"/><circle cx="45" cy="35" r="2"/><circle cx="45" cy="43" r="2"/><circle cx="41" cy="39" r="2"/><circle cx="49" cy="39" r="2"/></svg>