<svg height="198.45787mm" viewBox="0 0 198.32878 198.45787" width="198.32878mm" xmlns="http://www.w3.org/2000/svg" xmlns:xlink="http://www.w3.org/1999/xlink"><filter id="a" color-interpolation-filters="sRGB" height="1.024325" width="1.024285" x="-.012143" y="-.012162"><feGaussianBlur stdDeviation=".61842471"/></filter><linearGradient id="b" gradientUnits="userSpaceOnUse" x1="98.516356" x2="60.66802" y1="154.990304" y2="43.804084"><stop offset="0" stop-color="#9aa9b3"/><stop offset=".03041848" stop-color="#93a3ae"/><stop offset=".34907225" stop-color="#91a1ad"/><stop offset=".92352939" stop-color="#fefefe"/></linearGradient><filter id="c" color-interpolation-filters="sRGB" height="1.061371" width="1.060526" x="-.026083" y="-.026087"><feFlood flood-color="#fff" result="flood"/><feComposite in="flood" in2="SourceGraphic" operator="out" result="composite1"/><feGaussianBlur in="composite1" result="blur" stdDeviation="1.3"/><feOffset dx="1" dy="1.1" result="offset"/><feComposite in="offset" in2="SourceGraphic" operator="atop" result="composite2"/></filter><path d="m29.003436 34.91201-25.9759045 96.15726 96.7075785 25.87704 25.52361-96.341501zm26.551623 45.352399 26.614821 7.020533-7.168498 26.850848-26.616371-7.02208z" fill-opacity=".53" filter="url(#a)" transform="matrix(1.5633965 0 0 1.5633965 -1.67284 -50.450943)"/><path d="m29.482863 35.390088-25.2928598 94.149092 94.3263528 25.45112 25.291274-94.149081-47.162384-12.726353zm24.87662 43.037911 26.327943 7.24236-7.047693 26.280461-26.32952-7.24394z" fill="url(#b)" filter="url(#c)" stroke-width=".810333" transform="matrix(1.5633965 0 0 1.5633965 -1.67284 -50.450943)"/></svg>