<?xml version="1.0" encoding="UTF-8" standalone="no"?>
<!DOCTYPE svg PUBLIC "-//W3C//DTD SVG 1.1//EN" "http://www.w3.org/Graphics/SVG/1.1/DTD/svg11.dtd">
<svg width="100%" height="100%" viewBox="0 0 3384 784" version="1.1" xmlns="http://www.w3.org/2000/svg" xmlns:xlink="http://www.w3.org/1999/xlink" xml:space="preserve" xmlns:serif="http://www.serif.com/" style="fill-rule:evenodd;clip-rule:evenodd;stroke-linejoin:round;stroke-miterlimit:2;">
    <g transform="matrix(4.16667,0,0,4.16667,0,0)">
        <path d="M27.323,26.53L2.168,26.53L2.168,72.935C10.786,72.324 19.17,71.894 27.323,71.641L27.323,26.53Z" style="fill:rgb(165,222,242);fill-rule:nonzero;"/>
        <path d="M53.446,71.436L53.446,0.909L32.977,0.909L32.977,71.48C39.979,71.335 46.793,71.326 53.446,71.436Z" style="fill:rgb(104,154,201);fill-rule:nonzero;"/>
        <path d="M94.032,37.515L59.112,37.515L59.112,71.565C71.329,71.906 82.966,72.669 94.032,73.845L94.032,37.515Z" style="fill:rgb(181,217,147);fill-rule:nonzero;"/>
        <path d="M125.763,9.396L99.439,9.396L99.439,74.449C108.601,75.551 117.372,76.926 125.763,78.565L125.763,9.396Z" style="fill:rgb(165,222,242);fill-rule:nonzero;"/>
        <path d="M160.718,31.419L130.96,31.419L130.96,79.624C141.475,81.858 151.385,84.49 160.718,87.507L160.718,31.419Z" style="fill:rgb(104,154,201);fill-rule:nonzero;"/>
        <path d="M27.323,71.647C19.17,71.9 10.786,72.329 2.168,72.941L2.168,120.382C10.793,119.754 19.177,119.301 27.323,119.015L27.323,71.647Z" style="fill:rgb(79,200,232);fill-rule:nonzero;"/>
        <path d="M53.446,118.674L53.446,71.441C46.793,71.33 39.979,71.341 32.977,71.486L32.977,118.835C39.981,118.654 46.794,118.608 53.446,118.674Z" style="fill:rgb(0,105,170);fill-rule:nonzero;"/>
        <path d="M94.032,73.85C82.966,72.675 71.329,71.911 59.112,71.571L59.112,118.763C71.34,119.015 82.976,119.678 94.032,120.727L94.032,73.85Z" style="fill:rgb(122,193,66);fill-rule:nonzero;"/>
        <path d="M125.763,78.571C117.372,76.931 108.601,75.556 99.439,74.456L99.439,121.276C108.612,122.267 117.381,123.528 125.763,125.035L125.763,78.571Z" style="fill:rgb(79,200,232);fill-rule:nonzero;"/>
        <path d="M160.718,87.512C151.385,84.495 141.475,81.864 130.96,79.63L130.96,126.02C141.494,128.086 151.406,130.546 160.718,133.371L160.718,87.512Z" style="fill:rgb(0,105,170);fill-rule:nonzero;"/>
        <path d="M147.462,188C147.462,188 125.694,132.453 0,131.015C170.587,112.462 220.255,187.941 220.255,187.941L147.462,188Z" style="fill:rgb(165,222,242);fill-rule:nonzero;"/>
        <path d="M509.181,96.809C508.972,99.109 508.972,100.154 508.835,102.175L508.486,102.663C496.08,102.663 495.033,102.663 481.929,102.872L481.513,102.383C481.653,96.739 481.862,88.375 481.862,76.179C481.862,65.445 481.653,59.521 481.304,53.946L481.792,53.458C485.556,53.388 486.253,53.388 489.807,53.249L490.226,53.667C489.527,66.699 489.527,83.427 489.527,85.099C489.527,90.466 489.596,93.324 489.667,96.6C497.404,96.6 499.494,96.53 508.764,96.251L509.181,96.809Z" style="fill:rgb(0,105,170);fill-rule:nonzero;"/>
        <path d="M489.733,53.323C486.766,53.473 485.818,53.491 483.245,53.537L481.794,53.563L481.379,54.019C481.745,59.303 481.968,65.137 481.968,76.179C481.968,88.235 481.76,96.632 481.624,102.188L481.618,102.387L481.976,102.765C495.035,102.557 496.062,102.557 508.486,102.557L508.747,102.112C508.782,101.399 508.815,100.773 508.846,100.164C508.897,99.17 508.947,98.227 509.078,96.8L508.68,96.314L507.971,96.381C499.464,96.637 497.18,96.705 489.667,96.705L489.565,96.705L489.548,95.908C489.484,92.914 489.422,90.086 489.422,85.099C489.422,82.027 489.455,66.068 490.121,53.662L489.733,53.323ZM481.882,102.977L481.433,102.452L481.414,102.184C481.549,96.627 481.756,88.232 481.756,76.179C481.756,65.142 481.532,59.312 481.199,53.951L481.715,53.384L483.241,53.326C485.812,53.28 486.76,53.262 489.803,53.144L490.299,53.593C489.667,66.074 489.633,82.028 489.633,85.099C489.633,90.084 489.694,92.91 489.758,95.905L489.77,96.494C497.198,96.493 499.5,96.425 507.965,96.169L508.762,96.145L509.267,96.746C509.158,98.241 509.107,99.184 509.056,100.175C509.025,100.785 508.992,101.412 508.939,102.182L508.571,102.723C496.05,102.767 495.035,102.767 481.931,102.976L481.882,102.977Z" style="fill:rgb(0,105,170);fill-rule:nonzero;"/>
        <path d="M527.371,53.737C527.163,58.405 527.022,63.912 527.022,75.9C527.022,89.282 527.163,94.996 527.579,102.175L527.163,102.663C524.096,102.732 523.119,102.732 519.425,102.872L519.008,102.383C519.146,98.132 519.284,94.44 519.284,85.448C519.284,74.925 519.284,64.47 518.797,54.015L519.146,53.458C522.213,53.458 523.328,53.458 526.881,53.249L527.371,53.737Z" style="fill:rgb(0,105,170);fill-rule:nonzero;"/>
        <path d="M526.808,53.323C523.331,53.563 522.19,53.563 519.146,53.563L518.887,54.071C519.39,64.468 519.39,75.133 519.39,85.448C519.39,93.954 519.267,97.718 519.135,101.701L519.112,102.387L519.468,102.764C522.228,102.66 523.464,102.635 525.216,102.598L527.159,102.557L527.5,102.105C527.042,94.758 526.917,88.864 526.917,75.9C526.917,63.956 527.055,58.399 527.265,53.731L526.808,53.323ZM519.379,102.978L518.926,102.452L518.924,101.694C519.055,97.713 519.179,93.951 519.179,85.448C519.179,75.136 519.179,64.472 518.693,54.02L519.057,53.402C522.187,53.353 523.325,53.353 526.876,53.144L527.445,53.662C527.267,58.405 527.128,63.96 527.128,75.9C527.128,88.859 527.252,94.751 527.684,102.168L527.242,102.731L525.222,102.809C523.46,102.846 522.219,102.872 519.429,102.976L519.379,102.978Z" style="fill:rgb(0,105,170);fill-rule:nonzero;"/>
        <path d="M548.556,80.36C548.556,88.306 548.556,89.49 548.835,97.087L550.16,97.087C555.385,97.087 559.638,97.157 562.355,96.041C565.7,94.786 567.584,91.86 567.584,88.375C567.584,80.221 558.592,80.151 555.248,80.151C554.618,80.151 553.993,80.151 550.229,80.29L548.556,80.36ZM548.556,74.507C554.831,74.575 559.638,74.507 562.566,72.205C564.309,70.741 565.423,68.442 565.423,66.142C565.423,64.261 564.656,62.448 563.471,61.194C561.033,58.824 556.713,58.824 555.107,58.824C552.879,58.824 550.718,58.894 548.556,59.032L548.556,74.507ZM541.03,102.872L540.681,102.383C540.821,99.038 540.891,95.832 540.891,89.49C540.891,86.493 540.962,71.928 540.962,68.651C540.962,61.334 540.751,57.57 540.472,53.946L540.821,53.458L550.16,53.318C551.554,53.249 553.714,53.249 555.596,53.249C559.707,53.249 564.099,53.388 567.584,55.408C570.163,56.873 573.09,59.8 573.09,64.958C573.09,67.397 572.393,74.366 562.704,76.736C564.309,76.806 566.608,76.875 569.117,77.991C575.11,80.64 575.738,85.936 575.738,88.515C575.738,94.927 571.766,99.456 566.189,101.478C562.498,102.802 558.802,102.802 553.297,102.802L541.03,102.872Z" style="fill:rgb(0,105,170);fill-rule:nonzero;"/>
        <path d="M548.662,74.403C549.423,74.41 550.162,74.415 550.88,74.415C556.391,74.415 560.059,74.041 562.502,72.121C564.237,70.663 565.318,68.371 565.318,66.142C565.318,64.364 564.599,62.541 563.393,61.266C560.99,58.928 556.716,58.928 555.107,58.928C552.922,58.928 550.812,58.995 548.662,59.132L548.662,74.403ZM550.88,74.627C550.129,74.627 549.355,74.62 548.554,74.611L548.451,74.61L548.451,58.934L548.548,58.928C550.738,58.787 552.882,58.719 555.107,58.719C556.74,58.719 561.076,58.719 563.546,61.118C564.789,62.433 565.529,64.311 565.529,66.142C565.529,68.432 564.419,70.786 562.634,72.285C560.14,74.245 556.435,74.627 550.88,74.627ZM548.936,96.982L551.872,96.982C556.505,96.982 559.967,96.907 562.316,95.944C565.548,94.732 567.478,91.903 567.478,88.375C567.478,80.256 558.27,80.256 555.248,80.256C554.631,80.256 553.995,80.256 550.235,80.395L548.662,80.461C548.662,88.248 548.662,89.509 548.936,96.982ZM551.872,97.194L548.734,97.192L548.73,97.091C548.451,89.492 548.451,88.277 548.451,80.36L548.451,80.259L550.223,80.185C553.991,80.046 554.63,80.046 555.248,80.046C558.325,80.046 567.689,80.046 567.689,88.375C567.689,91.994 565.71,94.898 562.392,96.14C560.012,97.118 556.531,97.194 551.872,97.194ZM555.596,53.354C553.703,53.354 551.556,53.354 550.164,53.424L540.823,53.563L540.558,54.007C540.88,57.853 541.067,61.681 541.067,68.651C541.067,70.325 541.047,74.95 541.03,79.471C541.012,83.795 540.995,88.025 540.995,89.49C540.995,96.084 540.919,99.212 540.786,102.388L541.08,102.765L553.296,102.696C558.826,102.696 562.478,102.696 566.154,101.38C572.089,99.227 575.63,94.418 575.63,88.515C575.63,85.08 574.495,80.483 569.074,78.087C566.656,77.012 564.452,76.917 562.842,76.847L562.7,76.841L562.678,76.634C571.98,74.359 572.985,67.71 572.985,64.958C572.985,59.423 569.567,56.657 567.531,55.5C564.116,53.52 559.762,53.354 555.596,53.354ZM540.975,102.977L540.593,102.445C540.709,99.206 540.784,96.08 540.784,89.49C540.784,88.025 540.801,83.795 540.819,79.47C540.837,74.949 540.854,70.325 540.854,68.651C540.854,61.687 540.668,57.864 540.367,53.953L540.733,53.396L550.158,53.213C551.55,53.144 553.701,53.144 555.596,53.144C559.792,53.144 564.176,53.311 567.636,55.317C569.711,56.496 573.194,59.316 573.194,64.958C573.194,67.693 572.223,74.2 563.405,76.662C564.965,76.74 566.974,76.922 569.16,77.894C574.684,80.336 575.842,85.018 575.842,88.515C575.842,94.511 572.247,99.393 566.226,101.576C562.515,102.907 558.845,102.907 553.297,102.907L540.975,102.977Z" style="fill:rgb(0,105,170);fill-rule:nonzero;"/>
        <path d="M606.542,73.321C608.284,71.858 609.189,69.697 609.189,67.467C609.189,66.003 608.84,64.261 607.865,62.657C605.634,59.242 601.873,59.032 596.644,59.032C595.739,59.032 594.482,59.032 592.114,59.103C592.044,67.187 592.044,68.303 592.114,76.039C597.41,76.109 603.196,76.248 606.542,73.321ZM592.324,102.663C588.35,102.663 588.28,102.663 584.657,102.872L584.238,102.383C584.449,95.623 584.519,88.793 584.519,82.032C584.519,66.421 584.238,60.916 583.822,53.946L584.238,53.458L585.98,53.458C587.236,53.458 590.651,53.388 593.019,53.388L597.272,53.318C601.105,53.318 604.798,53.318 608.214,54.504C613.582,56.315 616.995,60.149 616.995,66.84C616.995,72.415 613.999,78.061 605.077,80.499C606.263,82.103 611.698,90.047 612.953,91.86C615.115,94.927 616.09,96.321 620.409,102.035L620.13,102.732C618.738,102.732 617.275,102.732 615.88,102.802C614.418,102.872 612.953,102.941 611.49,103.08L611.003,102.732C610.722,102.244 610.444,101.756 610.165,101.268C608.143,97.714 605.774,94.368 603.545,90.954C599.364,84.612 598.943,83.914 597.272,81.685C595.112,81.754 594.693,81.824 592.254,81.754C592.254,85.586 592.324,96.321 592.743,102.175L592.324,102.663Z" style="fill:rgb(0,105,170);fill-rule:nonzero;"/>
        <path d="M592.219,75.934L592.435,75.937C593.25,75.948 594.072,75.96 594.893,75.96C599.294,75.96 603.743,75.63 606.472,73.241C608.131,71.846 609.084,69.741 609.084,67.467C609.084,65.788 608.619,64.099 607.775,62.712C605.603,59.387 601.959,59.138 596.644,59.138C595.753,59.138 594.521,59.138 592.219,59.205C592.149,67.165 592.149,68.321 592.219,75.934ZM594.893,76.17C594.072,76.17 593.248,76.159 592.433,76.149L592.008,76.143L592.008,76.04C591.94,68.3 591.94,67.191 592.008,59.102L592.008,59.001L592.112,58.997C594.482,58.928 595.737,58.928 596.644,58.928C602.027,58.928 605.722,59.183 607.955,62.599C608.819,64.022 609.297,65.75 609.297,67.467C609.297,69.804 608.316,71.968 606.608,73.401C603.829,75.835 599.333,76.17 594.893,76.17ZM597.268,81.579C598.753,83.484 599.286,84.292 601.839,88.176L603.633,90.896C604.248,91.838 604.873,92.774 605.5,93.712C607.119,96.134 608.792,98.641 610.256,101.216L611.092,102.68L611.517,102.972C612.972,102.836 614.447,102.764 615.875,102.696C617.248,102.629 618.677,102.628 620.058,102.628L620.312,101.996C616.102,96.513 615.07,95.047 613.013,92.128L611.355,89.726C609.312,86.754 605.893,81.779 604.992,80.562L604.902,80.439L605.049,80.397C615.35,77.581 616.889,70.695 616.889,66.84C616.889,60.672 613.96,56.553 608.18,54.603C604.781,53.424 601.134,53.424 597.272,53.424L593.021,53.493C591.648,53.493 589.928,53.516 588.479,53.536C587.423,53.551 586.509,53.563 585.98,53.563L584.238,53.563L583.899,54.014C584.359,61.167 584.622,66.665 584.622,82.032C584.622,89.666 584.533,96.324 584.343,102.387L584.737,102.803C588.278,102.557 588.352,102.557 592.324,102.557L592.661,102.105C592.25,96.784 592.147,86.801 592.147,81.754L592.147,81.645L592.255,81.649C594.098,81.702 594.789,81.674 595.951,81.628L597.268,81.579ZM611.461,103.189L610.94,102.817L610.074,101.321C608.613,98.75 606.939,96.248 605.323,93.83C604.697,92.891 604.072,91.954 603.455,91.012L601.665,88.292C599.111,84.413 598.581,83.605 597.188,81.747L595.959,81.838C594.813,81.885 594.131,81.91 592.359,81.862C592.361,86.94 592.464,96.815 592.846,102.167L592.404,102.731C588.358,102.767 588.284,102.767 584.663,102.976L584.159,102.452C584.32,96.32 584.412,89.664 584.412,82.032C584.412,66.671 584.149,61.176 583.716,53.951L584.159,53.389L585.98,53.353C586.509,53.353 587.42,53.341 588.475,53.326C589.926,53.305 591.648,53.283 593.019,53.283L597.27,53.213L597.305,53.213C601.173,53.213 604.826,53.216 608.249,54.403C614.122,56.386 617.099,60.57 617.099,66.84C617.099,70.736 615.557,77.681 605.255,80.56C606.267,81.951 609.421,86.539 611.529,89.607L613.186,92.006C615.242,94.925 616.274,96.389 620.493,101.971L620.205,102.838L620.13,102.838C618.728,102.838 617.277,102.838 615.886,102.907C614.447,102.975 612.959,103.046 611.5,103.185L611.461,103.189Z" style="fill:rgb(0,105,170);fill-rule:nonzero;"/>
        <path d="M637.344,82.032C639.575,82.032 641.805,82.103 644.036,82.103C646.404,82.103 648.913,82.032 651.354,82.032L644.661,58.475L637.344,82.032ZM651.143,54.921C653.444,62.588 656.093,71.23 658.185,77.851C660.343,84.541 663.829,95.276 665.919,101.965L665.642,102.523C662.015,102.593 660.484,102.663 657.556,102.802L657.069,102.314C655.326,95.762 654.768,93.881 652.957,87.608C650.168,87.608 647.452,87.539 644.661,87.539C641.596,87.539 638.388,87.608 635.603,87.608C633.581,94.16 633.162,95.832 631.489,102.035L631.002,102.523C628.006,102.523 627.308,102.523 623.824,102.732L623.546,102.244C623.754,101.478 624.033,100.782 624.311,100.084C626.961,92.557 629.539,85.03 632.048,77.503C636.23,65.167 637.763,60.637 639.785,53.946L640.34,53.458C645.22,53.388 645.847,53.388 650.308,53.179L650.797,53.667L651.143,54.921Z" style="fill:rgb(0,105,170);fill-rule:nonzero;"/>
        <path d="M637.487,81.928C638.556,81.929 639.624,81.945 640.693,81.962C642.982,81.998 645.266,81.996 647.639,81.962C648.832,81.946 650.029,81.929 651.214,81.928L644.657,58.845L637.487,81.928ZM644.036,82.208C642.92,82.208 641.805,82.19 640.689,82.173C639.575,82.155 638.459,82.137 637.344,82.137L637.202,82.137L644.669,58.106L651.492,82.137L651.354,82.137C650.125,82.137 648.88,82.156 647.643,82.174C646.423,82.191 645.213,82.208 644.036,82.208ZM644.661,87.433C646.055,87.433 647.434,87.45 648.81,87.469C650.185,87.486 651.562,87.504 652.957,87.504L653.035,87.504L653.469,89.006C654.954,94.135 655.565,96.259 657.171,102.288L657.595,102.694C660.574,102.553 662.065,102.486 665.576,102.42L665.825,101.918C664.076,96.419 661.405,88.155 659.256,81.513L658.084,77.884C656.074,71.524 653.444,62.951 651.043,54.951L650.695,53.695L650.234,53.253C646.108,53.481 645.352,53.492 641.147,53.552L640.342,53.563L639.853,54.024C637.845,60.729 636.293,65.306 632.147,77.537C629.638,85.062 627.034,92.661 624.41,100.118C624.135,100.806 623.853,101.513 623.647,102.272L623.879,102.624C627.314,102.418 628.034,102.418 631.002,102.418L631.415,101.961L631.896,100.123C633.172,95.378 633.7,93.414 635.502,87.578L635.525,87.504L635.603,87.504C636.963,87.504 638.423,87.486 639.918,87.47C641.486,87.45 643.092,87.433 644.661,87.433ZM657.515,102.909L656.993,102.388C655.365,96.316 654.751,94.194 653.269,89.064L652.878,87.714C651.509,87.714 650.16,87.696 648.808,87.678C645.88,87.641 642.88,87.645 639.92,87.68C638.451,87.698 637.017,87.714 635.679,87.714C633.898,93.489 633.371,95.455 632.098,100.177L631.592,102.063L631.078,102.597C628.02,102.629 627.312,102.629 623.83,102.838L623.765,102.842L623.454,102.297C623.654,101.444 623.937,100.734 624.214,100.045C626.836,92.592 629.44,84.995 631.947,77.47C636.093,65.241 637.644,60.665 639.684,53.914L640.272,53.379L641.145,53.341C645.344,53.281 646.102,53.27 650.304,53.074L650.871,53.593L651.245,54.894C653.644,62.89 656.274,71.461 658.283,77.82L659.458,81.449C661.604,88.09 664.274,96.355 666.02,101.933L665.708,102.628L665.644,102.629C662.073,102.696 660.584,102.763 657.56,102.907L657.515,102.909Z" style="fill:rgb(0,105,170);fill-rule:nonzero;"/>
        <path d="M696.093,73.321C697.838,71.858 698.743,69.697 698.743,67.467C698.743,66.003 698.396,64.261 697.421,62.657C695.188,59.242 691.424,59.032 686.198,59.032C685.293,59.032 684.036,59.032 681.668,59.103C681.599,67.187 681.599,68.303 681.668,76.039C686.964,76.109 692.749,76.248 696.093,73.321ZM681.876,102.663C677.904,102.663 677.834,102.663 674.209,102.872L673.792,102.383C674.003,95.623 674.073,88.793 674.073,82.032C674.073,66.421 673.792,60.916 673.373,53.946L673.792,53.458L675.536,53.458C676.788,53.458 680.205,53.388 682.575,53.388L686.826,53.318C690.659,53.318 694.352,53.318 697.767,54.504C703.133,56.315 706.548,60.149 706.548,66.84C706.548,72.415 703.552,78.061 694.63,80.499C695.817,82.103 701.252,90.047 702.508,91.86C704.669,94.927 705.642,96.321 709.963,102.035L709.686,102.732C708.292,102.732 706.829,102.732 705.434,102.802C703.969,102.872 702.508,102.941 701.044,103.08L700.554,102.732C700.276,102.244 700,101.756 699.718,101.268C697.697,97.714 695.328,94.368 693.097,90.954C688.918,84.612 688.499,83.914 686.826,81.685C684.666,81.754 684.247,81.824 681.807,81.754C681.807,85.586 681.876,96.321 682.295,102.175L681.876,102.663Z" style="fill:rgb(0,105,170);fill-rule:nonzero;"/>
        <path d="M681.771,75.934L681.989,75.937C682.801,75.948 683.625,75.96 684.447,75.96C688.847,75.96 693.297,75.63 696.025,73.241C697.685,71.846 698.637,69.741 698.637,67.467C698.637,65.787 698.174,64.098 697.329,62.712C695.159,59.387 691.512,59.138 686.198,59.138C685.306,59.138 684.073,59.138 681.771,59.205C681.703,67.165 681.703,68.321 681.771,75.934ZM684.447,76.17C683.623,76.17 682.799,76.159 681.987,76.149L681.562,76.143L681.56,76.04C681.494,68.3 681.494,67.191 681.56,59.102L681.562,59.001L681.666,58.997C684.034,58.928 685.293,58.928 686.198,58.928C691.581,58.928 695.277,59.183 697.505,62.599C698.616,64.421 698.85,66.251 698.85,67.467C698.85,69.804 697.868,71.968 696.162,73.401C693.382,75.835 688.888,76.17 684.447,76.17ZM686.822,81.579C688.308,83.484 688.839,84.291 691.393,88.172L693.187,90.896C693.803,91.839 694.428,92.776 695.055,93.716C696.674,96.137 698.345,98.642 699.81,101.216L700.648,102.68L701.071,102.972C702.526,102.836 704.001,102.764 705.428,102.696C706.801,102.629 708.229,102.628 709.614,102.628L709.868,101.996C705.664,96.522 704.631,95.058 702.577,92.142L700.913,89.732C698.868,86.758 695.447,81.779 694.547,80.562L694.456,80.439L694.603,80.397C704.906,77.581 706.445,70.695 706.445,66.84C706.445,60.672 703.513,56.553 697.734,54.603C694.335,53.424 690.686,53.424 686.826,53.424L682.575,53.493C681.204,53.493 679.482,53.516 678.031,53.536C676.977,53.551 676.063,53.563 675.536,53.563L673.792,53.563L673.455,54.014C673.915,61.173 674.177,66.674 674.177,82.032C674.177,89.655 674.084,96.314 673.897,102.387L674.291,102.803C677.83,102.557 677.908,102.557 681.876,102.557L682.214,102.105C681.716,95.55 681.701,83.146 681.701,81.754L681.701,81.645L681.809,81.649C683.656,81.702 684.341,81.674 685.505,81.628L686.822,81.579ZM701.014,103.189L700.492,102.817L699.628,101.321C698.167,98.751 696.495,96.251 694.88,93.832C694.253,92.894 693.626,91.955 693.01,91.012L691.216,88.288C688.667,84.412 688.134,83.605 686.74,81.747L685.514,81.838C684.369,81.885 683.683,81.91 681.915,81.862C681.915,86.945 682.018,96.824 682.4,102.167L681.956,102.731C677.914,102.767 677.838,102.767 674.216,102.976L673.711,102.452C673.874,96.308 673.965,89.653 673.965,82.032C673.965,66.679 673.703,61.181 673.27,53.951L673.711,53.389L675.536,53.353C676.061,53.353 676.973,53.341 678.029,53.326C679.48,53.305 681.202,53.283 682.575,53.283L686.826,53.213L686.859,53.213C690.727,53.213 694.381,53.216 697.804,54.403C703.675,56.387 706.653,60.57 706.653,66.84C706.653,70.736 705.111,77.681 694.806,80.56C695.821,81.952 698.976,86.543 701.087,89.612L702.748,92.021C704.802,94.936 705.834,96.398 710.048,101.971L709.756,102.838L709.686,102.838C708.282,102.838 706.831,102.838 705.438,102.907C704.001,102.975 702.514,103.046 701.053,103.185L701.014,103.189Z" style="fill:rgb(0,105,170);fill-rule:nonzero;"/>
        <path d="M726.828,53.737C726.62,58.405 726.479,63.912 726.479,75.9C726.479,89.282 726.62,94.996 727.039,102.175L726.62,102.663C723.553,102.732 722.578,102.732 718.882,102.872L718.465,102.383C718.604,98.132 718.744,94.44 718.744,85.448C718.744,74.925 718.744,64.47 718.257,54.015L718.604,53.458C721.67,53.458 722.786,53.458 726.341,53.249L726.828,53.737Z" style="fill:rgb(0,105,170);fill-rule:nonzero;"/>
        <path d="M726.267,53.323C722.79,53.563 721.648,53.563 718.604,53.563L718.344,54.071C718.849,64.468 718.849,75.133 718.849,85.448C718.849,93.917 718.726,97.674 718.594,101.648L718.571,102.387L718.925,102.764C721.687,102.66 722.922,102.635 724.675,102.598L726.618,102.557L726.957,102.105C726.499,94.744 726.374,88.849 726.374,75.9C726.374,63.975 726.514,58.414 726.724,53.731L726.267,53.323ZM718.836,102.978L718.385,102.452L718.383,101.642C718.514,97.669 718.639,93.914 718.639,85.448C718.639,75.136 718.639,64.472 718.152,54.02L718.514,53.402C721.644,53.353 722.784,53.353 726.336,53.144L726.904,53.662C726.724,58.42 726.585,63.979 726.585,75.9C726.585,88.845 726.711,94.738 727.143,102.168L726.7,102.731L724.681,102.809C722.919,102.846 721.679,102.872 718.886,102.976L718.836,102.978Z" style="fill:rgb(0,105,170);fill-rule:nonzero;"/>
        <path d="M770.109,96.948C769.9,99.318 769.9,99.804 769.76,102.175L769.271,102.663C755.68,102.663 753.52,102.732 740.278,102.872L739.929,102.383C740.14,96.877 740.348,93.115 740.348,80.36C740.348,68.651 740.348,61.961 739.859,53.946L740.278,53.458C754.007,53.388 756.726,53.388 769.549,53.249L769.968,53.737C769.76,55.826 769.622,56.664 769.481,59.173L769.063,59.66C760.073,59.382 757.075,59.382 748.224,59.312C748.015,65.724 748.015,67.744 748.015,74.157C756.587,74.227 759.236,74.157 767.738,74.018L768.087,74.507C767.806,76.946 767.806,77.642 767.738,79.872L767.321,80.36C759.236,80.151 757.494,80.151 748.015,80.151C747.876,88.236 747.945,90.187 748.015,96.809C758.538,96.809 760.699,96.809 769.692,96.459L770.109,96.948Z" style="fill:rgb(0,105,170);fill-rule:nonzero;"/>
        <path d="M769.47,53.318C758.655,53.472 755.053,53.49 745.789,53.536L740.28,53.563L739.941,54.014C740.454,61.958 740.454,68.495 740.454,80.36C740.454,91.732 740.292,95.862 740.103,100.642L740.035,102.388L740.331,102.765L747.776,102.682C755.071,102.598 758.733,102.557 769.271,102.557L769.686,102.1L769.739,100.657C769.807,99.425 769.847,98.703 770.004,96.939L769.61,96.528C760.701,96.913 758.515,96.913 748.015,96.913L747.912,96.913L747.878,93.871C747.823,89.379 747.792,86.904 747.91,80.149L747.912,80.046L748.015,80.046C757.525,80.046 759.238,80.046 767.323,80.255L767.658,79.803L767.65,79.289C767.705,77.519 767.728,76.712 767.982,74.494L767.652,74.079L765.182,74.166C758.563,74.277 755.665,74.326 748.013,74.262L747.91,74.262L747.91,74.157C747.91,67.678 747.91,65.722 748.119,59.309L748.121,59.206L750.68,59.226C757.738,59.279 760.958,59.304 769.067,59.555L769.402,59.104C769.478,57.324 769.581,56.379 769.712,55.184C769.758,54.751 769.807,54.282 769.863,53.725L769.47,53.318ZM740.224,102.977L739.846,102.444L739.892,100.634C740.082,95.855 740.244,91.727 740.244,80.36C740.244,68.499 740.244,61.964 739.756,53.951L740.199,53.389L745.789,53.325C755.051,53.28 758.653,53.262 769.549,53.144L770.048,53.667C770.017,54.305 769.966,54.772 769.92,55.208C769.792,56.4 769.69,57.342 769.587,59.179L769.144,59.729C760.954,59.515 757.734,59.49 750.678,59.437L748.325,59.418C748.121,65.713 748.119,67.695 748.119,74.052C755.69,74.116 758.59,74.066 765.18,73.955L767.736,73.913L768.172,74.446C767.939,76.728 767.916,77.479 767.861,79.295L767.843,79.875L767.401,80.429C759.264,80.257 757.533,80.256 748.119,80.256C748.004,86.93 748.033,89.401 748.088,93.869L748.119,96.704C758.528,96.704 760.727,96.701 769.688,96.355L770.189,96.878C770.058,98.719 770.017,99.439 769.951,100.669L769.865,102.18L769.345,102.736C758.733,102.767 755.073,102.809 747.778,102.894L740.224,102.977Z" style="fill:rgb(0,105,170);fill-rule:nonzero;"/>
        <path d="M799.727,74.784C804.815,77.015 811.574,79.942 811.574,88.863C811.574,96.669 805.791,103.708 793.663,103.708C786.275,103.708 781.535,101.478 779.864,100.642L779.586,100.154C779.864,97.714 779.934,96.391 780.14,93.741L780.839,93.462C782.582,94.648 786.626,97.574 793.106,97.574C800.284,97.574 803.282,93.881 803.282,89.699C803.282,84.821 799.238,82.939 794.709,81.197L791.222,79.663C786.275,77.363 779.656,74.366 779.656,65.863C779.656,63.284 780.351,60.637 781.814,58.546C785.02,53.946 790.805,52.412 796.451,52.412C801.96,52.412 805.301,53.458 808.997,54.643L809.345,55.2C809.067,57.848 808.997,58.824 808.787,61.334L808.229,61.612C805.232,60.078 801.96,58.405 796.731,58.405C790.946,58.405 787.321,61.124 787.321,65.237C787.321,68.372 789.413,69.837 790.876,70.741C791.781,71.301 792.06,71.439 796.242,73.25L799.727,74.784Z" style="fill:rgb(0,105,170);fill-rule:nonzero;"/>
        <path d="M780.242,93.81L780.115,95.477C779.991,97.125 779.901,98.316 779.689,100.166L779.956,100.589C783.964,102.575 788.592,103.602 793.663,103.602C806.805,103.602 811.469,95.663 811.469,88.863C811.469,80.049 804.694,77.078 799.747,74.909L796.199,73.348C791.972,71.516 791.731,71.392 790.821,70.831C789.65,70.107 787.215,68.601 787.215,65.237C787.215,61.022 790.95,58.301 796.731,58.301C801.99,58.301 805.331,60.009 808.278,61.518L808.74,61.24L808.767,60.301C808.918,58.489 809.003,57.446 809.241,55.188L808.908,54.698C805.397,53.599 802.027,52.517 796.451,52.517C791.748,52.517 785.408,53.574 781.902,58.606C780.52,60.577 779.758,63.155 779.758,65.863C779.758,74.22 786.333,77.275 791.132,79.504L791.269,79.567L794.752,81.099C799.473,82.917 803.387,84.819 803.387,89.699C803.387,93.557 800.685,97.68 793.106,97.68C786.822,97.68 782.874,94.98 780.974,93.682L780.78,93.55L780.242,93.81ZM793.663,103.812C788.559,103.812 783.9,102.777 779.815,100.738L779.492,100.206C779.691,98.294 779.78,97.107 779.905,95.46L780.044,93.669L780.8,93.365L781.093,93.508C782.973,94.794 786.888,97.47 793.106,97.47C799.412,97.47 803.176,94.565 803.176,89.699C803.176,84.952 799.324,83.085 794.67,81.295L791.041,79.695C786.193,77.441 779.55,74.356 779.55,65.863C779.55,63.113 780.322,60.492 781.728,58.485C785.287,53.379 791.7,52.307 796.451,52.307C802.06,52.307 805.444,53.393 809.028,54.541L809.433,55.144C809.212,57.466 809.128,58.508 808.977,60.318L808.892,61.343L808.276,61.706C805.255,60.208 801.938,58.511 796.731,58.511C791.078,58.511 787.425,61.15 787.425,65.237C787.425,68.091 789.109,69.526 790.932,70.652C791.83,71.207 792.07,71.329 796.285,73.154L799.768,74.688C804.833,76.907 811.679,79.91 811.679,88.863C811.679,95.76 806.962,103.812 793.663,103.812Z" style="fill:rgb(0,105,170);fill-rule:nonzero;"/>
        <path d="M213.575,73.33C215.272,74.107 217.11,74.955 219.019,76.369C222.767,79.269 224.323,83.581 224.323,87.612C224.323,93.621 221.778,98.994 215.839,101.894C211.595,103.873 206.222,104.086 204.101,104.086C198.797,104.086 194.628,102.884 193.001,102.316C192.223,102.104 191.446,101.752 190.668,101.47L190.243,100.903L190.739,90.934L191.446,90.722C193.496,92.348 197.101,95.176 203.535,95.176C209.687,95.176 212.02,91.994 212.02,89.308C212.02,85.561 208.273,83.794 203.394,81.743L201.061,80.682C197.101,78.773 190.455,75.662 190.455,67.107C190.455,59.542 195.051,52.048 208.342,52.048C215.202,52.048 218.383,53.391 221.423,54.664L221.778,55.158L221.212,64.421L220.576,64.703C217.96,62.936 214.778,60.744 209.404,60.744C204.737,60.744 202.687,63.501 202.687,65.694C202.687,68.875 205.798,70.148 211.737,72.622L213.575,73.33Z" style="fill:rgb(0,105,170);fill-rule:nonzero;"/>
        <path d="M274.378,53.321L274.165,74.319L274.165,81.531C274.023,90.511 273.74,94.612 269.993,98.572C264.761,104.086 256.984,104.086 254.438,104.086C244.964,104.086 239.52,100.55 236.833,96.733C234.359,93.339 233.934,89.521 233.722,81.884L233.722,76.653C233.652,65.623 233.652,63.643 233.369,53.532L233.793,53.108C238.601,53.178 240.227,53.178 246.237,52.896L246.59,53.321C246.449,60.32 246.378,65.764 246.378,71.491C246.378,75.239 246.378,78.986 246.52,82.733C246.661,87.187 247.085,89.662 248.145,91.5C249.701,93.974 252.46,95.248 255.358,95.248C257.691,95.248 260.023,94.469 261.579,92.702C263.488,90.439 263.701,87.046 263.701,79.621C263.701,70.925 263.347,62.228 262.994,53.532L263.419,53.108C267.449,53.178 268.862,53.178 274.023,52.896L274.378,53.321Z" style="fill:rgb(0,105,170);fill-rule:nonzero;"/>
        <path d="M297.774,75.38C301.309,75.309 303.854,75.167 305.835,73.966C308.45,72.339 308.945,69.723 308.945,67.744C308.945,61.521 303.501,61.521 300.743,61.521C299.753,61.521 298.763,61.521 297.774,61.593L297.774,75.38ZM297.631,83.723C297.704,92.137 297.774,94.399 298.339,102.599L297.915,103.024C292.117,102.954 290.986,103.024 285.825,103.236L285.4,102.811C285.613,96.945 285.683,93.762 285.683,87.187C285.683,67.955 285.4,60.603 285.118,53.462L285.47,53.037L294.097,53.037L299.046,52.967C307.318,52.825 311.136,52.896 314.813,54.805C320.611,57.845 321.46,64.28 321.46,67.39C321.46,76.369 315.025,79.339 311.843,80.753C313.611,83.864 314.742,85.773 317.005,89.379C322.095,97.51 322.873,98.572 325.56,102.034L325.136,102.884C322.945,102.884 320.681,102.954 318.49,103.024C316.298,103.096 314.177,103.236 311.985,103.379L311.419,103.024C306.894,93.762 305.835,91.641 301.096,83.581L297.631,83.723Z" style="fill:rgb(0,105,170);fill-rule:nonzero;"/>
        <path d="M344.716,75.38C348.252,75.309 350.797,75.167 352.777,73.966C355.393,72.339 355.888,69.723 355.888,67.744C355.888,61.521 350.443,61.521 347.686,61.521C346.696,61.521 345.706,61.521 344.716,61.593L344.716,75.38ZM344.575,83.723C344.646,92.137 344.716,94.399 345.282,102.599L344.858,103.024C339.06,102.954 337.929,103.024 332.768,103.236L332.343,102.811C332.555,96.945 332.626,93.762 332.626,87.187C332.626,67.955 332.343,60.603 332.061,53.462L332.414,53.037L341.04,53.037L345.989,52.967C354.261,52.825 358.08,52.896 361.756,54.805C367.554,57.845 368.402,64.28 368.402,67.39C368.402,76.369 361.968,79.339 358.787,80.753C360.554,83.864 361.685,85.773 363.949,89.379C369.039,97.51 369.815,98.572 372.503,102.034L372.079,102.884C369.887,102.884 367.624,102.954 365.432,103.024C363.241,103.096 361.12,103.236 358.927,103.379L358.362,103.024C353.837,93.762 352.777,91.641 348.04,83.581L344.575,83.723Z" style="fill:rgb(0,105,170);fill-rule:nonzero;"/>
        <path d="M413.295,93.974L412.8,102.599L412.235,103.024L381.126,103.024L380.77,102.741C380.983,95.319 381.126,90.864 381.126,81.955C381.126,63.007 380.983,60.39 380.559,53.532L380.983,53.108L412.023,53.108L412.376,53.391L411.88,61.593L411.528,62.017C402.972,61.805 401.345,61.805 393.356,61.805L393.356,73.046L410.466,72.764L410.821,73.187L410.396,81.178L409.902,81.601L393.356,81.601L393.498,93.974C402.547,93.974 404.527,93.905 412.87,93.48L413.295,93.974Z" style="fill:rgb(0,105,170);fill-rule:nonzero;"/>
        <path d="M446.538,103.024C441.518,103.024 439.962,103.024 434.022,103.236L433.67,102.811C434.094,94.469 434.165,91.359 434.165,84.359L434.165,82.096C433.105,80.259 432.114,78.42 431.124,76.582C429.287,73.33 419.882,57.35 417.832,53.674L418.044,53.108C423.983,53.037 425.469,52.967 431.478,52.614L431.973,52.967C434.094,57.492 435.085,59.613 436.356,62.158C437.063,63.501 440.669,70.36 441.448,71.915C444.417,66.117 446.326,62.371 450.426,53.532L450.85,53.108C455.164,53.108 456.578,53.108 461.88,52.896L462.164,53.391L446.538,81.814C446.538,90.864 446.608,93.409 446.963,102.599L446.538,103.024Z" style="fill:rgb(0,105,170);fill-rule:nonzero;"/>
        <path d="M244.348,137.18C244.111,136.851 243.825,136.514 243.488,136.17C243.151,135.825 242.765,135.515 242.329,135.242C241.892,134.971 241.396,134.747 240.84,134.573C240.286,134.401 239.672,134.314 238.998,134.314C237.962,134.314 237.003,134.545 236.118,135.01C235.236,135.474 234.459,136.088 233.787,136.851C233.112,137.617 232.525,138.494 232.026,139.486C231.525,140.477 231.112,141.501 230.783,142.556C230.457,143.609 230.214,144.664 230.061,145.709C229.906,146.756 229.83,147.723 229.83,148.615C229.83,149.761 229.946,150.707 230.184,151.454C230.42,152.2 230.729,152.785 231.112,153.213C231.495,153.643 231.93,153.941 232.422,154.115C232.914,154.286 233.414,154.373 233.922,154.373C234.814,154.373 235.723,154.139 236.651,153.678C237.58,153.213 238.454,152.54 239.272,151.657C240.089,150.776 240.823,149.693 241.467,148.408C242.115,147.127 242.602,145.666 242.928,144.029L244.348,137.18ZM232.831,157.975C231.683,157.975 230.665,157.772 229.774,157.365C228.882,156.952 228.127,156.366 227.507,155.6C226.889,154.838 226.418,153.918 226.09,152.843C225.763,151.771 225.597,150.58 225.597,149.267C225.597,147.74 225.731,146.218 225.994,144.7C226.256,143.18 226.642,141.734 227.153,140.36C227.664,138.984 228.291,137.708 229.037,136.525C229.785,135.342 230.637,134.32 231.603,133.454C232.566,132.591 233.653,131.912 234.865,131.423C236.074,130.93 237.325,130.685 238.616,130.685C240.108,130.685 241.382,130.981 242.436,131.571C243.492,132.163 244.31,132.968 244.892,133.987L245.004,133.987L248.387,117.776L252.618,117.776L245.63,151.317C245.576,151.608 245.532,151.894 245.495,152.174C245.458,152.458 245.438,152.691 245.438,152.873C245.438,153.31 245.558,153.628 245.794,153.826C246.031,154.027 246.467,154.128 247.103,154.128C247.324,154.128 247.6,154.115 247.935,154.088C248.274,154.06 248.595,154.018 248.905,153.963L248.169,157.459C247.896,157.53 247.522,157.587 247.048,157.635C246.577,157.679 246.104,157.705 245.63,157.705C244.121,157.705 243.028,157.349 242.355,156.638C241.682,155.93 241.365,154.727 241.4,153.036L241.291,153.036C240.673,153.946 240.005,154.716 239.287,155.342C238.565,155.971 237.839,156.479 237.101,156.871C236.365,157.263 235.632,157.543 234.904,157.718C234.177,157.89 233.485,157.975 232.831,157.975Z" style="fill:rgb(19,124,183);fill-rule:nonzero;"/>
        <path d="M259.959,125.335L260.914,120.669L265.361,120.669L264.408,125.335L259.959,125.335ZM253.437,157.295L258.812,131.365L263.044,131.365L257.667,157.295L253.437,157.295Z" style="fill:rgb(19,124,183);fill-rule:nonzero;"/>
        <path d="M272.076,138.326C272.076,138.889 272.191,139.377 272.417,139.787C272.645,140.195 272.951,140.55 273.332,140.85C273.714,141.15 274.158,141.411 274.669,141.627C275.178,141.846 275.714,142.058 276.279,142.256C277.06,142.529 277.851,142.825 278.654,143.142C279.455,143.46 280.183,143.87 280.838,144.369C281.493,144.872 282.028,145.505 282.449,146.267C282.865,147.032 283.076,148.013 283.076,149.216C283.076,150.654 282.806,151.917 282.269,153.01C281.733,154.102 280.988,155.013 280.033,155.752C279.077,156.49 277.939,157.044 276.621,157.417C275.3,157.789 273.86,157.975 272.296,157.975C270.892,157.975 269.48,157.826 268.051,157.524C266.622,157.224 265.5,156.83 264.679,156.339L265.471,152.791C266.436,153.21 267.486,153.578 268.625,153.896C269.759,154.214 270.985,154.373 272.296,154.373C273.714,154.373 274.855,154.203 275.72,153.868C276.585,153.531 277.257,153.121 277.74,152.641C278.222,152.161 278.54,151.653 278.693,151.127C278.849,150.597 278.926,150.142 278.926,149.761C278.926,149.053 278.764,148.461 278.436,147.986C278.106,147.513 277.68,147.113 277.153,146.787C276.624,146.459 276.024,146.173 275.351,145.928C274.678,145.681 273.987,145.43 273.278,145.175C272.603,144.922 271.94,144.636 271.285,144.315C270.631,144 270.051,143.606 269.553,143.142C269.052,142.679 268.647,142.107 268.338,141.424C268.03,140.74 267.874,139.909 267.874,138.928C267.874,137.526 268.128,136.311 268.637,135.283C269.148,134.255 269.834,133.4 270.699,132.718C271.563,132.036 272.558,131.527 273.687,131.19C274.815,130.852 276.006,130.685 277.263,130.685C278.008,130.685 278.746,130.735 279.472,130.834C280.2,130.935 280.902,131.065 281.574,131.229C282.248,131.395 282.879,131.58 283.471,131.791C284.061,131.999 284.584,132.223 285.041,132.459L284.304,135.951C283.212,135.479 282.088,135.084 280.933,134.764C279.778,134.448 278.627,134.287 277.479,134.287C276.609,134.287 275.834,134.391 275.159,134.602C274.487,134.811 273.922,135.094 273.467,135.447C273.014,135.802 272.668,136.224 272.432,136.717C272.194,137.207 272.076,137.744 272.076,138.326Z" style="fill:rgb(19,124,183);fill-rule:nonzero;"/>
        <path d="M308.704,135.734C307.829,135.333 306.87,135.006 305.823,134.752C304.776,134.495 303.797,134.369 302.888,134.369C301.671,134.369 300.555,134.587 299.547,135.025C298.536,135.462 297.654,136.038 296.898,136.758C296.143,137.475 295.497,138.299 294.96,139.224C294.423,140.154 293.986,141.113 293.651,142.107C293.314,143.098 293.068,144.076 292.914,145.041C292.758,146.005 292.682,146.887 292.682,147.688C292.682,148.963 292.835,150.023 293.144,150.882C293.455,151.735 293.886,152.413 294.444,152.913C294.996,153.415 295.661,153.77 296.432,153.978C297.208,154.187 298.048,154.291 298.959,154.291C300.251,154.291 301.505,154.125 302.726,153.788C303.945,153.449 304.97,153.056 305.81,152.599L305.045,156.474C304.68,156.677 304.244,156.866 303.733,157.049C303.225,157.229 302.67,157.388 302.068,157.524C301.468,157.663 300.845,157.772 300.2,157.853C299.555,157.934 298.905,157.975 298.248,157.975C296.939,157.975 295.693,157.794 294.51,157.431C293.326,157.066 292.288,156.479 291.385,155.67C290.485,154.86 289.77,153.824 289.243,152.56C288.714,151.295 288.451,149.761 288.451,147.963C288.451,146.742 288.571,145.478 288.806,144.166C289.043,142.857 289.41,141.555 289.911,140.264C290.412,138.972 291.044,137.75 291.808,136.593C292.573,135.438 293.486,134.422 294.551,133.551C295.615,132.677 296.838,131.981 298.222,131.462C299.604,130.943 301.132,130.685 302.807,130.685C303.463,130.685 304.106,130.731 304.745,130.819C305.381,130.912 305.985,131.026 306.56,131.162C307.133,131.3 307.671,131.453 308.171,131.626C308.67,131.8 309.092,131.968 309.44,132.131L308.704,135.734Z" style="fill:rgb(19,124,183);fill-rule:nonzero;"/>
        <path d="M325.431,134.287C324.376,134.287 323.413,134.486 322.539,134.886C321.664,135.287 320.873,135.83 320.164,136.512C319.453,137.192 318.832,137.991 318.296,138.9C317.758,139.808 317.307,140.773 316.944,141.791C316.58,142.81 316.306,143.855 316.124,144.93C315.942,146.005 315.854,147.043 315.854,148.041C315.854,148.988 315.957,149.851 316.165,150.635C316.378,151.417 316.699,152.085 317.135,152.641C317.572,153.195 318.128,153.623 318.8,153.923C319.472,154.223 320.264,154.373 321.172,154.373C322.212,154.373 323.17,154.173 324.052,153.772C324.935,153.373 325.733,152.833 326.442,152.15C327.148,151.467 327.774,150.677 328.311,149.775C328.847,148.873 329.297,147.918 329.662,146.895C330.026,145.878 330.297,144.832 330.48,143.756C330.663,142.682 330.755,141.638 330.755,140.619C330.755,139.655 330.65,138.786 330.441,138.013C330.23,137.239 329.907,136.576 329.473,136.018C329.036,135.466 328.48,135.037 327.807,134.737C327.132,134.437 326.34,134.287 325.431,134.287ZM334.983,140.89C334.983,142.019 334.866,143.23 334.629,144.52C334.391,145.812 334.029,147.09 333.539,148.356C333.047,149.62 332.422,150.836 331.669,151.998C330.914,153.163 330.01,154.187 328.966,155.068C327.918,155.953 326.728,156.658 325.39,157.184C324.052,157.713 322.547,157.975 320.873,157.975C319.49,157.975 318.226,157.764 317.083,157.334C315.935,156.907 314.961,156.276 314.16,155.438C313.359,154.601 312.738,153.578 312.291,152.369C311.844,151.159 311.622,149.77 311.622,148.205C311.622,147.057 311.737,145.831 311.963,144.52C312.189,143.21 312.549,141.905 313.041,140.605C313.531,139.305 314.157,138.058 314.911,136.866C315.665,135.675 316.562,134.619 317.597,133.702C318.636,132.781 319.827,132.049 321.172,131.503C322.521,130.958 324.021,130.685 325.676,130.685C327.078,130.685 328.347,130.899 329.484,131.326C330.622,131.753 331.599,132.388 332.419,133.237C333.238,134.082 333.87,135.141 334.315,136.416C334.759,137.689 334.983,139.18 334.983,140.89Z" style="fill:rgb(19,124,183);fill-rule:nonzero;"/>
        <path d="M344.154,131.365L347.019,145.369C347.328,146.914 347.588,148.242 347.797,149.353C348.005,150.461 348.174,151.454 348.301,152.327L348.412,152.327C348.83,151.472 349.323,150.531 349.885,149.502C350.447,148.473 351.059,147.378 351.714,146.213L360.063,131.365L364.923,131.365L349.668,157.295L345.655,157.295L339.976,131.365L344.154,131.365Z" style="fill:rgb(19,124,183);fill-rule:nonzero;"/>
        <path d="M370.273,142.392C372.274,142.392 374.066,142.293 375.649,142.092C377.233,141.892 378.567,141.588 379.661,141.178C380.755,140.767 381.589,140.241 382.172,139.595C382.754,138.949 383.046,138.162 383.046,137.234C383.046,136.851 382.964,136.483 382.799,136.131C382.635,135.774 382.389,135.462 382.063,135.186C381.737,134.913 381.333,134.695 380.847,134.532C380.365,134.369 379.816,134.287 379.197,134.287C378.161,134.287 377.172,134.477 376.236,134.859C375.297,135.242 374.443,135.788 373.669,136.498C372.897,137.207 372.219,138.062 371.636,139.063C371.055,140.062 370.599,141.173 370.273,142.392ZM387.276,137.397C387.276,139.016 386.874,140.373 386.074,141.466C385.272,142.556 384.114,143.438 382.593,144.11C381.077,144.784 379.214,145.282 377.013,145.599C374.812,145.917 372.302,146.114 369.48,146.187C369.464,146.388 369.449,146.589 369.442,146.787C369.432,146.988 369.427,147.207 369.427,147.442C369.427,149.808 370.018,151.536 371.202,152.627C372.382,153.718 374.158,154.263 376.522,154.263C377.139,154.263 377.782,154.223 378.446,154.139C379.111,154.06 379.77,153.941 380.423,153.788C381.08,153.633 381.712,153.457 382.323,153.256C382.931,153.056 383.481,152.835 383.974,152.599L383.21,156.474C382.281,156.892 381.184,157.25 379.921,157.54C378.655,157.829 377.286,157.975 375.815,157.975C373.958,157.975 372.359,157.722 371.023,157.213C369.686,156.704 368.585,155.989 367.72,155.068C366.856,154.15 366.219,153.059 365.81,151.795C365.4,150.531 365.195,149.144 365.195,147.634C365.195,146.25 365.334,144.867 365.605,143.483C365.878,142.102 366.283,140.783 366.82,139.527C367.357,138.271 368.022,137.106 368.811,136.033C369.603,134.96 370.518,134.027 371.555,133.237C372.591,132.446 373.753,131.822 375.034,131.365C376.318,130.912 377.705,130.685 379.197,130.685C380.271,130.685 381.293,130.815 382.266,131.08C383.241,131.343 384.098,131.753 384.845,132.308C385.591,132.863 386.184,133.562 386.621,134.41C387.055,135.256 387.276,136.253 387.276,137.397Z" style="fill:rgb(19,124,183);fill-rule:nonzero;"/>
        <path d="M407.744,134.971C407.181,134.896 406.627,134.859 406.079,134.859C404.804,134.859 403.661,135.075 402.64,135.502C401.622,135.93 400.737,136.512 399.992,137.249C399.246,137.986 398.633,138.851 398.153,139.841C397.669,140.833 397.308,141.884 397.073,142.993L394.098,157.295L389.869,157.295L395.273,131.365L398.739,131.365L398.739,134.886L398.847,134.886C399.285,134.305 399.765,133.76 400.293,133.249C400.821,132.739 401.412,132.294 402.067,131.912C402.721,131.53 403.437,131.229 404.21,131.012C404.984,130.794 405.824,130.685 406.733,130.685C407.06,130.685 407.38,130.698 407.69,130.725C407.997,130.752 408.298,130.794 408.591,130.847L407.744,134.971Z" style="fill:rgb(19,124,183);fill-rule:nonzero;"/>
        <path d="M446.111,135.734C445.237,135.333 444.276,135.006 443.228,134.752C442.184,134.495 441.205,134.369 440.297,134.369C439.078,134.369 437.964,134.587 436.954,135.025C435.941,135.462 435.061,136.038 434.307,136.758C433.551,137.475 432.905,138.299 432.367,139.224C431.833,140.154 431.395,141.113 431.058,142.107C430.722,143.098 430.477,144.076 430.322,145.041C430.166,146.005 430.089,146.887 430.089,147.688C430.089,148.963 430.244,150.023 430.553,150.882C430.861,151.735 431.296,152.413 431.852,152.913C432.406,153.415 433.068,153.77 433.841,153.978C434.617,154.187 435.457,154.291 436.368,154.291C437.66,154.291 438.914,154.125 440.133,153.788C441.352,153.449 442.378,153.056 443.216,152.599L442.453,156.474C442.089,156.677 441.653,156.866 441.14,157.049C440.633,157.229 440.077,157.388 439.477,157.524C438.877,157.663 438.254,157.772 437.607,157.853C436.962,157.934 436.313,157.975 435.657,157.975C434.346,157.975 433.099,157.794 431.917,157.431C430.734,157.066 429.694,156.479 428.793,155.67C427.89,154.86 427.177,153.824 426.652,152.56C426.122,151.295 425.857,149.761 425.857,147.963C425.857,146.742 425.978,145.478 426.214,144.166C426.451,142.857 426.817,141.555 427.32,140.264C427.82,138.972 428.452,137.75 429.217,136.593C429.979,135.438 430.894,134.422 431.96,133.551C433.023,132.677 434.245,131.981 435.631,131.462C437.01,130.943 438.54,130.685 440.215,130.685C440.872,130.685 441.514,130.731 442.153,130.819C442.789,130.912 443.392,131.026 443.966,131.162C444.542,131.3 445.077,131.453 445.58,131.626C446.08,131.8 446.501,131.968 446.847,132.131L446.111,135.734Z" style="fill:rgb(19,124,183);fill-rule:nonzero;"/>
        <path d="M462.84,134.287C461.783,134.287 460.82,134.486 459.946,134.886C459.071,135.287 458.28,135.83 457.573,136.512C456.862,137.192 456.241,137.991 455.703,138.9C455.166,139.808 454.715,140.773 454.351,141.791C453.989,142.81 453.714,143.855 453.533,144.93C453.352,146.005 453.26,147.043 453.26,148.041C453.26,148.988 453.366,149.851 453.574,150.635C453.782,151.417 454.107,152.085 454.544,152.641C454.982,153.195 455.536,153.623 456.21,153.923C456.881,154.223 457.671,154.373 458.58,154.373C459.62,154.373 460.577,154.173 461.461,153.772C462.343,153.373 463.14,152.833 463.849,152.15C464.556,151.467 465.183,150.677 465.721,149.775C466.253,148.873 466.707,147.918 467.069,146.895C467.435,145.878 467.704,144.832 467.887,143.756C468.068,142.682 468.164,141.638 468.164,140.619C468.164,139.655 468.056,138.786 467.848,138.013C467.639,137.239 467.314,136.576 466.88,136.018C466.442,135.466 465.888,135.037 465.213,134.737C464.541,134.437 463.748,134.287 462.84,134.287ZM472.39,140.89C472.39,142.019 472.274,143.23 472.036,144.52C471.8,145.812 471.436,147.09 470.947,148.356C470.455,149.62 469.83,150.836 469.076,151.998C468.32,153.163 467.418,154.187 466.374,155.068C465.328,155.953 464.137,156.658 462.799,157.184C461.461,157.713 459.955,157.975 458.28,157.975C456.899,157.975 455.632,157.764 454.489,157.334C453.342,156.907 452.368,156.276 451.565,155.438C450.767,154.601 450.145,153.578 449.7,152.369C449.252,151.159 449.029,149.77 449.029,148.205C449.029,147.057 449.142,145.831 449.368,144.52C449.598,143.21 449.957,141.905 450.45,140.605C450.938,139.305 451.563,138.058 452.317,136.866C453.073,135.675 453.969,134.619 455.005,133.702C456.042,132.781 457.236,132.049 458.58,131.503C459.928,130.958 461.429,130.685 463.086,130.685C464.486,130.685 465.755,130.899 466.892,131.326C468.029,131.753 469.007,132.388 469.826,133.237C470.645,134.082 471.279,135.141 471.722,136.416C472.167,137.689 472.39,139.18 472.39,140.89Z" style="fill:rgb(19,124,183);fill-rule:nonzero;"/>
        <path d="M479.896,157.295L475.668,157.295L481.069,131.365L484.534,131.365L484.534,134.886L484.645,134.886C485.755,133.578 487.062,132.548 488.56,131.804C490.064,131.057 491.75,130.685 493.625,130.685C494.664,130.685 495.612,130.826 496.477,131.108C497.339,131.39 498.078,131.795 498.687,132.32C499.297,132.85 499.775,133.504 500.12,134.287C500.466,135.068 500.639,135.961 500.639,136.961C500.639,137.671 500.579,138.426 500.461,139.224C500.341,140.028 500.193,140.847 500.012,141.684L496.763,157.295L492.534,157.295L495.861,141.193C496.153,139.864 496.299,138.771 496.299,137.916C496.299,137.261 496.202,136.701 496.011,136.237C495.822,135.774 495.551,135.402 495.209,135.119C494.862,134.836 494.449,134.629 493.967,134.49C493.483,134.356 492.959,134.287 492.398,134.287C491.178,134.287 490.041,134.511 488.985,134.955C487.929,135.402 486.993,136.015 486.176,136.798C485.354,137.582 484.663,138.5 484.097,139.555C483.535,140.611 483.128,141.755 482.871,142.993L479.896,157.295Z" style="fill:rgb(19,124,183);fill-rule:nonzero;"/>
        <path d="M508.827,157.295L504.597,157.295L510,131.365L513.466,131.365L513.466,134.886L513.576,134.886C514.684,133.578 515.989,132.548 517.491,131.804C518.992,131.057 520.679,130.685 522.552,130.685C523.591,130.685 524.541,130.826 525.405,131.108C526.268,131.39 527.006,131.795 527.616,132.32C528.226,132.85 528.703,133.504 529.049,134.287C529.394,135.068 529.57,135.961 529.57,136.961C529.57,137.671 529.509,138.426 529.392,139.224C529.272,140.028 529.122,140.847 528.939,141.684L525.692,157.295L521.463,157.295L524.792,141.193C525.082,139.864 525.228,138.771 525.228,137.916C525.228,137.261 525.132,136.701 524.942,136.237C524.753,135.774 524.482,135.402 524.137,135.119C523.791,134.836 523.375,134.629 522.893,134.49C522.412,134.356 521.888,134.287 521.327,134.287C520.107,134.287 518.966,134.511 517.916,134.955C516.857,135.402 515.922,136.015 515.103,136.798C514.284,137.582 513.593,138.5 513.03,139.555C512.465,140.611 512.054,141.755 511.803,142.993L508.827,157.295Z" style="fill:rgb(19,124,183);fill-rule:nonzero;"/>
        <path d="M539.421,142.392C541.422,142.392 543.214,142.293 544.795,142.092C546.379,141.892 547.716,141.588 548.807,141.178C549.9,140.767 550.738,140.241 551.32,139.595C551.901,138.949 552.193,138.162 552.193,137.234C552.193,136.851 552.109,136.483 551.946,136.131C551.784,135.774 551.539,135.462 551.21,135.186C550.884,134.913 550.477,134.695 549.996,134.532C549.512,134.369 548.964,134.287 548.346,134.287C547.307,134.287 546.32,134.477 545.383,134.859C544.442,135.242 543.591,135.788 542.818,136.498C542.045,137.207 541.367,138.062 540.782,139.063C540.202,140.062 539.748,141.173 539.421,142.392ZM556.422,137.397C556.422,139.016 556.023,140.373 555.222,141.466C554.422,142.556 553.258,143.438 551.741,144.11C550.223,144.784 548.362,145.282 546.163,145.599C543.96,145.917 541.449,146.114 538.626,146.187C538.61,146.388 538.596,146.589 538.587,146.787C538.579,146.988 538.573,147.207 538.573,147.442C538.573,149.808 539.166,151.536 540.347,152.627C541.53,153.718 543.304,154.263 545.67,154.263C546.287,154.263 546.929,154.223 547.592,154.139C548.258,154.06 548.919,153.941 549.573,153.788C550.227,153.633 550.861,153.457 551.47,153.256C552.078,153.056 552.63,152.835 553.121,152.599L552.355,156.474C551.429,156.892 550.333,157.25 549.069,157.54C547.802,157.829 546.435,157.975 544.961,157.975C543.104,157.975 541.506,157.722 540.171,157.213C538.835,156.704 537.73,155.989 536.869,155.068C536.002,154.15 535.369,153.059 534.956,151.795C534.548,150.531 534.344,149.144 534.344,147.634C534.344,146.25 534.481,144.867 534.754,143.483C535.026,142.102 535.431,140.783 535.968,139.527C536.503,138.271 537.169,137.106 537.962,136.033C538.751,134.96 539.666,134.027 540.703,133.237C541.741,132.446 542.9,131.822 544.183,131.365C545.464,130.912 546.854,130.685 548.346,130.685C549.418,130.685 550.44,130.815 551.414,131.08C552.39,131.343 553.249,131.753 553.995,132.308C554.741,132.863 555.332,133.562 555.765,134.41C556.204,135.256 556.422,136.253 556.422,137.397Z" style="fill:rgb(19,124,183);fill-rule:nonzero;"/>
        <path d="M580.084,135.734C579.214,135.333 578.253,135.006 577.207,134.752C576.158,134.495 575.182,134.369 574.273,134.369C573.051,134.369 571.937,134.587 570.928,135.025C569.92,135.462 569.035,136.038 568.281,136.758C567.527,137.475 566.879,138.299 566.342,139.224C565.807,140.154 565.371,141.113 565.034,142.107C564.697,143.098 564.45,144.076 564.296,145.041C564.141,146.005 564.066,146.887 564.066,147.688C564.066,148.963 564.219,150.023 564.527,150.882C564.838,151.735 565.267,152.413 565.825,152.913C566.378,153.415 567.042,153.77 567.815,153.978C568.59,154.187 569.43,154.291 570.341,154.291C571.633,154.291 572.887,154.125 574.107,153.788C575.327,153.449 576.355,153.056 577.193,152.599L576.427,156.474C576.065,156.677 575.629,156.866 575.118,157.049C574.606,157.229 574.052,157.388 573.453,157.524C572.853,157.663 572.227,157.772 571.583,157.853C570.936,157.934 570.288,157.975 569.63,157.975C568.32,157.975 567.075,157.794 565.895,157.431C564.711,157.066 563.669,156.479 562.768,155.67C561.867,154.86 561.154,153.824 560.624,152.56C560.097,151.295 559.835,149.761 559.835,147.963C559.835,146.742 559.952,145.478 560.187,144.166C560.425,142.857 560.794,141.555 561.294,140.264C561.795,138.972 562.425,137.75 563.193,136.593C563.955,135.438 564.868,134.422 565.933,133.551C566.998,132.677 568.222,131.981 569.605,131.462C570.989,130.943 572.515,130.685 574.189,130.685C574.843,130.685 575.49,130.731 576.128,130.819C576.762,130.912 577.37,131.026 577.943,131.162C578.515,131.3 579.053,131.453 579.551,131.626C580.054,131.8 580.475,131.968 580.82,132.131L580.084,135.734Z" style="fill:rgb(19,124,183);fill-rule:nonzero;"/>
        <path d="M596.023,157.459C595.585,157.582 594.958,157.705 594.139,157.811C593.324,157.92 592.504,157.975 591.681,157.975C589.392,157.975 587.719,157.517 586.662,156.599C585.608,155.68 585.078,154.418 585.078,152.818C585.078,152.218 585.17,151.462 585.35,150.552L588.575,134.997L583.548,134.997L584.314,131.365L589.334,131.365L590.81,124.271L595.067,124.271L593.594,131.365L600.445,131.365L599.707,134.997L592.831,134.997L589.801,149.513C589.708,149.988 589.636,150.398 589.582,150.744C589.525,151.09 589.502,151.427 589.502,151.753C589.502,152.699 589.751,153.36 590.252,153.732C590.753,154.107 591.599,154.291 592.803,154.291C593.348,154.291 593.998,154.242 594.754,154.139C595.507,154.043 596.177,153.918 596.759,153.772L596.023,157.459Z" style="fill:rgb(19,124,183);fill-rule:nonzero;"/>
        <path d="M623.362,125.335L624.319,120.669L628.766,120.669L627.809,125.335L623.362,125.335ZM616.839,157.295L622.216,131.365L626.446,131.365L621.07,157.295L616.839,157.295Z" style="fill:rgb(19,124,183);fill-rule:nonzero;"/>
        <path d="M632.997,157.295L628.766,157.295L634.17,131.365L637.636,131.365L637.636,134.886L637.746,134.886C638.854,133.578 640.159,132.548 641.663,131.804C643.161,131.057 644.849,130.685 646.723,130.685C647.762,130.685 648.713,130.826 649.578,131.108C650.44,131.39 651.176,131.795 651.787,132.32C652.396,132.85 652.874,133.504 653.22,134.287C653.565,135.068 653.738,135.961 653.738,136.961C653.738,137.671 653.679,138.426 653.561,139.224C653.442,140.028 653.292,140.847 653.109,141.684L649.864,157.295L645.63,157.295L648.962,141.193C649.254,139.864 649.4,138.771 649.4,137.916C649.4,137.261 649.302,136.701 649.112,136.237C648.919,135.774 648.654,135.402 648.307,135.119C647.963,134.836 647.547,134.629 647.064,134.49C646.582,134.356 646.059,134.287 645.497,134.287C644.277,134.287 643.141,134.511 642.086,134.955C641.028,135.402 640.091,136.015 639.271,136.798C638.455,137.582 637.763,138.5 637.2,139.555C636.635,140.611 636.224,141.755 635.971,142.993L632.997,157.295Z" style="fill:rgb(19,124,183);fill-rule:nonzero;"/>
        <path d="M664.409,138.326C664.409,138.889 664.524,139.377 664.748,139.787C664.975,140.195 665.282,140.55 665.666,140.85C666.047,141.15 666.493,141.411 667.002,141.627C667.513,141.846 668.047,142.058 668.613,142.256C669.393,142.529 670.186,142.825 670.985,143.142C671.786,143.46 672.514,143.87 673.169,144.369C673.825,144.872 674.359,145.505 674.78,146.267C675.199,147.032 675.409,148.013 675.409,149.216C675.409,150.654 675.14,151.917 674.604,153.01C674.065,154.102 673.321,155.013 672.364,155.752C671.41,156.49 670.272,157.044 668.954,157.417C667.634,157.789 666.191,157.975 664.627,157.975C663.228,157.975 661.812,157.826 660.384,157.524C658.955,157.224 657.833,156.83 657.012,156.339L657.805,152.791C658.765,153.21 659.818,153.578 660.955,153.896C662.092,154.214 663.318,154.373 664.627,154.373C666.047,154.373 667.188,154.203 668.051,153.868C668.919,153.531 669.589,153.121 670.072,152.641C670.554,152.161 670.874,151.653 671.028,151.127C671.179,150.597 671.259,150.142 671.259,149.761C671.259,149.053 671.094,148.461 670.769,147.986C670.439,147.513 670.013,147.113 669.487,146.787C668.958,146.459 668.357,146.173 667.683,145.928C667.011,145.681 666.318,145.43 665.611,145.175C664.935,144.922 664.272,144.636 663.618,144.315C662.962,144 662.383,143.606 661.884,143.142C661.381,142.679 660.978,142.107 660.671,141.424C660.361,140.74 660.207,139.909 660.207,138.928C660.207,137.526 660.461,136.311 660.97,135.283C661.479,134.255 662.167,133.4 663.03,132.718C663.896,132.036 664.892,131.527 666.018,131.19C667.146,130.852 668.338,130.685 669.594,130.685C670.34,130.685 671.077,130.735 671.805,130.834C672.532,130.935 673.233,131.065 673.907,131.229C674.579,131.395 675.212,131.58 675.804,131.791C676.394,131.999 676.917,132.223 677.373,132.459L676.638,135.951C675.543,135.479 674.42,135.084 673.266,134.764C672.111,134.448 670.96,134.287 669.812,134.287C668.94,134.287 668.165,134.391 667.493,134.602C666.82,134.811 666.255,135.094 665.799,135.447C665.345,135.802 664.999,136.224 664.763,136.717C664.526,137.207 664.409,137.744 664.409,138.326Z" style="fill:rgb(19,124,183);fill-rule:nonzero;"/>
        <path d="M685.422,152.189C686.025,152.791 686.74,153.305 687.58,153.732C688.417,154.159 689.461,154.373 690.717,154.373C691.81,154.373 692.796,154.139 693.678,153.678C694.56,153.213 695.353,152.599 696.052,151.834C696.752,151.071 697.358,150.194 697.868,149.202C698.377,148.211 698.796,147.192 699.123,146.146C699.45,145.099 699.697,144.056 699.861,143.018C700.025,141.982 700.106,141.039 700.106,140.182C700.106,139.037 699.992,138.086 699.765,137.33C699.538,136.576 699.23,135.972 698.839,135.528C698.445,135.084 697.995,134.769 697.486,134.587C696.978,134.406 696.448,134.314 695.903,134.314C695.049,134.314 694.166,134.55 693.255,135.025C692.346,135.497 691.481,136.175 690.665,137.056C689.846,137.939 689.112,139.026 688.467,140.318C687.821,141.61 687.324,143.073 686.979,144.713L685.422,152.189ZM689,134.913L689.108,134.913C689.726,134.133 690.359,133.472 691.004,132.936C691.65,132.398 692.305,131.962 692.969,131.626C693.633,131.289 694.297,131.048 694.962,130.904C695.627,130.757 696.267,130.685 696.886,130.685C698.069,130.685 699.123,130.899 700.051,131.326C700.981,131.753 701.764,132.371 702.399,133.182C703.034,133.992 703.517,134.971 703.846,136.115C704.172,137.261 704.336,138.561 704.336,140.017C704.336,141.382 704.213,142.78 703.969,144.21C703.721,145.638 703.349,147.013 702.851,148.342C702.348,149.67 701.729,150.92 700.995,152.096C700.258,153.27 699.397,154.286 698.414,155.153C697.432,156.015 696.332,156.704 695.112,157.213C693.89,157.722 692.554,157.975 691.101,157.975C689.736,157.975 688.524,157.767 687.47,157.349C686.415,156.929 685.542,156.366 684.852,155.654L684.741,155.654L681.742,169.985L677.508,169.985L685.532,131.365L689,131.365L689,134.913Z" style="fill:rgb(19,124,183);fill-rule:nonzero;"/>
        <path d="M714.408,125.335L715.363,120.669L719.811,120.669L718.855,125.335L714.408,125.335ZM707.884,157.295L713.26,131.365L717.492,131.365L712.113,157.295L707.884,157.295Z" style="fill:rgb(19,124,183);fill-rule:nonzero;"/>
        <path d="M737.685,134.971C737.121,134.896 736.568,134.859 736.022,134.859C734.748,134.859 733.603,135.075 732.584,135.502C731.563,135.93 730.681,136.512 729.937,137.249C729.191,137.986 728.577,138.851 728.094,139.841C727.611,140.833 727.253,141.884 727.015,142.993L724.043,157.295L719.811,157.295L725.215,131.365L728.68,131.365L728.68,134.886L728.79,134.886C729.226,134.305 729.709,133.76 730.237,133.249C730.764,132.739 731.355,132.294 732.009,131.912C732.666,131.53 733.38,131.229 734.152,131.012C734.925,130.794 735.767,130.685 736.676,130.685C737.005,130.685 737.323,130.698 737.633,130.725C737.943,130.752 738.243,130.794 738.535,130.847L737.685,134.971Z" style="fill:rgb(19,124,183);fill-rule:nonzero;"/>
        <path d="M743.473,142.392C745.473,142.392 747.265,142.293 748.847,142.092C750.431,141.892 751.769,141.588 752.862,141.178C753.953,140.767 754.789,140.241 755.373,139.595C755.955,138.949 756.244,138.162 756.244,137.234C756.244,136.851 756.164,136.483 755.998,136.131C755.837,135.774 755.591,135.462 755.263,135.186C754.934,134.913 754.529,134.695 754.048,134.532C753.565,134.369 753.015,134.287 752.396,134.287C751.36,134.287 750.373,134.477 749.435,134.859C748.499,135.242 747.643,135.788 746.87,136.498C746.096,137.207 745.419,138.062 744.839,139.063C744.254,140.062 743.798,141.173 743.473,142.392ZM760.474,137.397C760.474,139.016 760.075,140.373 759.276,141.466C758.474,142.556 757.315,143.438 755.796,144.11C754.274,144.784 752.416,145.282 750.214,145.599C748.013,145.917 745.501,146.114 742.682,146.187C742.663,146.388 742.649,146.589 742.639,146.787C742.63,146.988 742.626,147.207 742.626,147.442C742.626,149.808 743.217,151.536 744.4,152.627C745.583,153.718 747.357,154.263 749.722,154.263C750.341,154.263 750.982,154.223 751.648,154.139C752.31,154.06 752.971,153.941 753.624,153.788C754.282,153.633 754.911,153.457 755.523,153.256C756.132,153.056 756.679,152.835 757.172,152.599L756.409,156.474C755.48,156.892 754.385,157.25 753.121,157.54C751.855,157.829 750.487,157.975 749.011,157.975C747.157,157.975 745.559,157.722 744.223,157.213C742.884,156.704 741.786,155.989 740.922,155.068C740.058,154.15 739.42,153.059 739.012,151.795C738.599,150.531 738.396,149.144 738.396,147.634C738.396,146.25 738.533,144.867 738.803,143.483C739.081,142.102 739.482,140.783 740.019,139.527C740.557,138.271 741.219,137.106 742.01,136.033C742.804,134.96 743.718,134.027 744.755,133.237C745.793,132.446 746.952,131.822 748.236,131.365C749.519,130.912 750.906,130.685 752.396,130.685C753.469,130.685 754.494,130.815 755.468,131.08C756.44,131.343 757.301,131.753 758.047,132.308C758.792,132.863 759.385,133.562 759.82,134.41C760.258,135.256 760.474,136.253 760.474,137.397Z" style="fill:rgb(19,124,183);fill-rule:nonzero;"/>
        <path d="M419.173,145.351C419.173,147.325 417.572,148.93 415.597,148.93C413.62,148.93 412.019,147.325 412.019,145.351C412.019,143.379 413.62,141.771 415.597,141.771C417.572,141.771 419.173,143.379 419.173,145.351Z" style="fill:rgb(19,124,183);"/>
        <path d="M610.331,145.351C610.331,147.325 608.729,148.93 606.758,148.93C604.779,148.93 603.176,147.325 603.176,145.351C603.176,143.379 604.779,141.771 606.758,141.771C608.729,141.771 610.331,143.379 610.331,145.351Z" style="fill:rgb(19,124,183);"/>
    </g>
</svg>
