<svg width="248" height="60" viewBox="0 0 248 60" fill="none" xmlns="http://www.w3.org/2000/svg">
<path fill-rule="evenodd" clip-rule="evenodd" d="M0 0H219.335L248 30L219.335 60H0L29.4312 30L0 0Z" fill="#1C478E"/>
<path d="M91.28 34.336V37H79.064V21.16H90.944V23.824H82.376V27.76H89.12V30.304H82.376V34.336H91.28ZM102.228 37L99.5155 32.632L96.7555 37H93.0835L97.4995 30.928L93.2995 25H97.0915L99.6595 29.2L102.228 25H105.924L101.676 30.928L105.996 37H102.228ZM115.756 24.76C117.356 24.76 118.612 25.312 119.524 26.416C120.436 27.504 120.892 29.024 120.892 30.976C120.892 32.944 120.436 34.48 119.524 35.584C118.612 36.688 117.356 37.24 115.756 37.24C114.892 37.24 114.14 37.048 113.5 36.664C112.86 36.264 112.356 35.72 111.988 35.032V42.04H108.7V25H111.604L111.724 27.376C112.076 26.576 112.596 25.944 113.284 25.48C113.988 25 114.812 24.76 115.756 24.76ZM114.772 34.72C115.668 34.72 116.364 34.4 116.86 33.76C117.356 33.12 117.604 32.2 117.604 31C117.604 29.8 117.356 28.88 116.86 28.24C116.364 27.6 115.668 27.28 114.772 27.28C113.972 27.28 113.324 27.56 112.828 28.12C112.332 28.664 112.052 29.448 111.988 30.472V31.528C112.052 32.536 112.332 33.32 112.828 33.88C113.324 34.44 113.972 34.72 114.772 34.72ZM127.593 33.184C127.593 33.76 127.673 34.16 127.833 34.384C128.009 34.608 128.321 34.72 128.769 34.72C129.041 34.72 129.273 34.704 129.465 34.672C129.673 34.624 129.913 34.552 130.185 34.456L129.897 36.736C129.641 36.896 129.305 37.016 128.889 37.096C128.473 37.192 128.065 37.24 127.665 37.24C126.497 37.24 125.641 36.96 125.097 36.4C124.569 35.824 124.305 34.912 124.305 33.664V19.744H127.593V33.184ZM138.097 24.76C140.033 24.76 141.537 25.312 142.609 26.416C143.697 27.52 144.241 29.048 144.241 31C144.241 32.952 143.697 34.48 142.609 35.584C141.537 36.688 140.033 37.24 138.097 37.24C136.161 37.24 134.649 36.688 133.561 35.584C132.489 34.48 131.953 32.952 131.953 31C131.953 29.048 132.489 27.52 133.561 26.416C134.649 25.312 136.161 24.76 138.097 24.76ZM138.097 27.208C137.169 27.208 136.457 27.528 135.961 28.168C135.481 28.792 135.241 29.736 135.241 31C135.241 32.264 135.481 33.216 135.961 33.856C136.457 34.48 137.169 34.792 138.097 34.792C139.025 34.792 139.729 34.48 140.209 33.856C140.705 33.216 140.953 32.264 140.953 31C140.953 29.736 140.705 28.792 140.209 28.168C139.729 27.528 139.025 27.208 138.097 27.208ZM154.414 24.76C154.974 24.76 155.406 24.848 155.71 25.024L155.302 27.904C154.934 27.664 154.43 27.544 153.79 27.544C153.006 27.544 152.326 27.832 151.75 28.408C151.19 28.968 150.91 29.76 150.91 30.784V37H147.622V25H150.478L150.694 27.352C151.35 25.624 152.59 24.76 154.414 24.76ZM169.28 30.952C169.28 31.4 169.248 31.832 169.184 32.248H160.688C161.024 33.944 162.024 34.792 163.688 34.792C164.376 34.792 164.944 34.664 165.392 34.408C165.84 34.152 166.152 33.784 166.328 33.304L169.016 34.288C168.632 35.248 167.984 35.984 167.072 36.496C166.176 36.992 165.048 37.24 163.688 37.24C161.704 37.24 160.168 36.696 159.08 35.608C157.992 34.504 157.448 32.968 157.448 31C157.448 29.032 157.976 27.504 159.032 26.416C160.088 25.312 161.576 24.76 163.496 24.76C165.352 24.76 166.776 25.296 167.768 26.368C168.776 27.44 169.28 28.968 169.28 30.952ZM163.472 27.184C162.672 27.184 162.032 27.416 161.552 27.88C161.088 28.344 160.792 29.032 160.664 29.944H166.256C166.128 29.048 165.824 28.368 165.344 27.904C164.864 27.424 164.24 27.184 163.472 27.184Z" fill="white"/>
</svg>
