<svg width="247" height="60" viewBox="0 0 247 60" fill="none" xmlns="http://www.w3.org/2000/svg">
<path fill-rule="evenodd" clip-rule="evenodd" d="M0 0H218.451L247 30L218.451 60H0L29.3125 30L0 0Z" fill="#356FCD"/>
<path d="M78.28 34.336V37H66.064V21.16H77.944V23.824H69.376V27.76H76.12V30.304H69.376V34.336H78.28ZM84.7155 33.184C84.7155 33.76 84.7955 34.16 84.9555 34.384C85.1315 34.608 85.4435 34.72 85.8915 34.72C86.1635 34.72 86.3955 34.704 86.5875 34.672C86.7955 34.624 87.0355 34.552 87.3075 34.456L87.0195 36.736C86.7635 36.896 86.4275 37.016 86.0115 37.096C85.5955 37.192 85.1875 37.24 84.7875 37.24C83.6195 37.24 82.7635 36.96 82.2195 36.4C81.6915 35.824 81.4275 34.912 81.4275 33.664V19.744H84.7155V33.184ZM100.691 35.008C101.027 35.008 101.299 34.976 101.507 34.912L101.267 36.904C100.819 37.128 100.299 37.24 99.707 37.24C98.171 37.24 97.251 36.64 96.947 35.44C96.595 36.032 96.051 36.48 95.315 36.784C94.579 37.088 93.707 37.24 92.699 37.24C91.531 37.24 90.619 36.976 89.963 36.448C89.307 35.92 88.979 35.16 88.979 34.168C88.979 32.216 90.539 30.952 93.659 30.376L96.539 29.824V29.248C96.539 28.608 96.355 28.104 95.987 27.736C95.635 27.352 95.139 27.16 94.499 27.16C93.763 27.16 93.163 27.32 92.699 27.64C92.235 27.96 91.915 28.48 91.739 29.2L89.123 28.096C89.379 27.056 89.955 26.24 90.851 25.648C91.747 25.056 92.915 24.76 94.355 24.76C96.067 24.76 97.403 25.136 98.363 25.888C99.323 26.624 99.803 27.72 99.803 29.176V34.096C99.803 34.416 99.875 34.648 100.019 34.792C100.163 34.936 100.387 35.008 100.691 35.008ZM93.731 35.008C94.435 35.008 95.075 34.84 95.651 34.504C96.243 34.152 96.539 33.68 96.539 33.088V31.84L93.971 32.416C93.427 32.544 93.019 32.72 92.747 32.944C92.491 33.152 92.363 33.448 92.363 33.832C92.363 34.216 92.483 34.512 92.723 34.72C92.963 34.912 93.299 35.008 93.731 35.008ZM111.12 24.76C112.72 24.76 113.976 25.312 114.888 26.416C115.8 27.52 116.256 29.056 116.256 31.024C116.256 32.976 115.8 34.504 114.888 35.608C113.976 36.696 112.72 37.24 111.12 37.24C110.176 37.24 109.352 37.008 108.648 36.544C107.96 36.064 107.44 35.424 107.088 34.624L106.968 37H104.064V19.744H107.352V26.968C107.72 26.28 108.224 25.744 108.864 25.36C109.504 24.96 110.256 24.76 111.12 24.76ZM110.136 34.72C111.032 34.72 111.728 34.4 112.224 33.76C112.72 33.12 112.968 32.2 112.968 31C112.968 29.8 112.72 28.88 112.224 28.24C111.728 27.6 111.032 27.28 110.136 27.28C109.336 27.28 108.688 27.56 108.192 28.12C107.696 28.68 107.416 29.464 107.352 30.472V31.528C107.416 32.552 107.696 33.344 108.192 33.904C108.688 34.448 109.336 34.72 110.136 34.72ZM125.238 24.76C127.174 24.76 128.678 25.312 129.75 26.416C130.838 27.52 131.382 29.048 131.382 31C131.382 32.952 130.838 34.48 129.75 35.584C128.678 36.688 127.174 37.24 125.238 37.24C123.302 37.24 121.79 36.688 120.702 35.584C119.63 34.48 119.094 32.952 119.094 31C119.094 29.048 119.63 27.52 120.702 26.416C121.79 25.312 123.302 24.76 125.238 24.76ZM125.238 27.208C124.31 27.208 123.598 27.528 123.102 28.168C122.622 28.792 122.382 29.736 122.382 31C122.382 32.264 122.622 33.216 123.102 33.856C123.598 34.48 124.31 34.792 125.238 34.792C126.166 34.792 126.87 34.48 127.35 33.856C127.846 33.216 128.094 32.264 128.094 31C128.094 29.736 127.846 28.792 127.35 28.168C126.87 27.528 126.166 27.208 125.238 27.208ZM141.554 24.76C142.114 24.76 142.546 24.848 142.85 25.024L142.442 27.904C142.074 27.664 141.57 27.544 140.93 27.544C140.146 27.544 139.466 27.832 138.89 28.408C138.33 28.968 138.05 29.76 138.05 30.784V37H134.762V25H137.618L137.834 27.352C138.49 25.624 139.73 24.76 141.554 24.76ZM156.204 35.008C156.54 35.008 156.812 34.976 157.02 34.912L156.78 36.904C156.332 37.128 155.812 37.24 155.22 37.24C153.684 37.24 152.764 36.64 152.46 35.44C152.108 36.032 151.564 36.48 150.828 36.784C150.092 37.088 149.22 37.24 148.212 37.24C147.044 37.24 146.132 36.976 145.476 36.448C144.82 35.92 144.492 35.16 144.492 34.168C144.492 32.216 146.052 30.952 149.172 30.376L152.052 29.824V29.248C152.052 28.608 151.868 28.104 151.5 27.736C151.148 27.352 150.652 27.16 150.012 27.16C149.276 27.16 148.676 27.32 148.212 27.64C147.748 27.96 147.428 28.48 147.252 29.2L144.636 28.096C144.892 27.056 145.468 26.24 146.364 25.648C147.26 25.056 148.428 24.76 149.868 24.76C151.58 24.76 152.916 25.136 153.876 25.888C154.836 26.624 155.316 27.72 155.316 29.176V34.096C155.316 34.416 155.388 34.648 155.532 34.792C155.676 34.936 155.9 35.008 156.204 35.008ZM149.244 35.008C149.948 35.008 150.588 34.84 151.164 34.504C151.756 34.152 152.052 33.68 152.052 33.088V31.84L149.484 32.416C148.94 32.544 148.532 32.72 148.26 32.944C148.004 33.152 147.876 33.448 147.876 33.832C147.876 34.216 147.996 34.512 148.236 34.72C148.476 34.912 148.812 35.008 149.244 35.008ZM167.341 36.256C166.957 36.56 166.469 36.8 165.877 36.976C165.301 37.152 164.693 37.24 164.053 37.24C161.381 37.24 160.045 36.032 160.045 33.616V27.448H157.861V25H160.045V22.24L163.333 21.328V25H167.221V27.448H163.333V33.088C163.333 34.192 163.885 34.744 164.989 34.744C165.693 34.744 166.309 34.52 166.837 34.072L167.341 36.256ZM181.166 30.952C181.166 31.4 181.134 31.832 181.07 32.248H172.574C172.91 33.944 173.91 34.792 175.574 34.792C176.262 34.792 176.83 34.664 177.278 34.408C177.726 34.152 178.038 33.784 178.214 33.304L180.902 34.288C180.518 35.248 179.87 35.984 178.958 36.496C178.062 36.992 176.934 37.24 175.574 37.24C173.59 37.24 172.054 36.696 170.966 35.608C169.878 34.504 169.334 32.968 169.334 31C169.334 29.032 169.862 27.504 170.918 26.416C171.974 25.312 173.462 24.76 175.382 24.76C177.238 24.76 178.662 25.296 179.654 26.368C180.662 27.44 181.166 28.968 181.166 30.952ZM175.358 27.184C174.558 27.184 173.918 27.416 173.438 27.88C172.974 28.344 172.678 29.032 172.55 29.944H178.142C178.014 29.048 177.71 28.368 177.23 27.904C176.75 27.424 176.126 27.184 175.358 27.184Z" fill="white"/>
</svg>
