<svg width="248" height="60" viewBox="0 0 248 60" fill="none" xmlns="http://www.w3.org/2000/svg">
<path fill-rule="evenodd" clip-rule="evenodd" d="M0 0H219.335L248 30L219.335 60H0L29.4312 30L0 0Z" fill="#0D316C"/>
<path d="M94.28 34.336V37H82.064V21.16H93.944V23.824H85.376V27.76H92.12V30.304H85.376V34.336H94.28ZM104.628 24.76C105.924 24.76 106.964 25.136 107.748 25.888C108.548 26.64 108.948 27.72 108.948 29.128V37H105.66V30.088C105.66 28.264 104.948 27.352 103.524 27.352C102.756 27.352 102.1 27.624 101.556 28.168C101.028 28.712 100.764 29.544 100.764 30.664V37H97.4755V25H100.428L100.524 27.136C100.924 26.352 101.476 25.76 102.18 25.36C102.884 24.96 103.7 24.76 104.628 24.76ZM120.191 34.744C121.503 34.744 122.511 35.032 123.215 35.608C123.935 36.184 124.295 37.008 124.295 38.08C124.295 39.36 123.703 40.36 122.519 41.08C121.335 41.8 119.775 42.16 117.839 42.16C115.839 42.16 114.351 41.896 113.375 41.368C112.415 40.84 111.935 40.12 111.935 39.208C111.935 38.664 112.119 38.192 112.487 37.792C112.855 37.392 113.399 37.104 114.119 36.928C113.575 36.704 113.143 36.392 112.823 35.992C112.503 35.576 112.343 35.088 112.343 34.528C112.343 33.952 112.511 33.456 112.847 33.04C113.183 32.624 113.647 32.312 114.239 32.104C113.631 31.752 113.167 31.304 112.847 30.76C112.527 30.2 112.367 29.56 112.367 28.84C112.367 27.576 112.855 26.584 113.831 25.864C114.823 25.128 116.167 24.76 117.863 24.76C118.727 24.76 119.535 24.864 120.287 25.072C120.495 24.128 120.895 23.392 121.487 22.864C122.095 22.32 122.911 22.08 123.935 22.144L124.367 24.496C124.255 24.48 124.087 24.472 123.863 24.472C123.271 24.472 122.775 24.576 122.375 24.784C121.991 24.992 121.719 25.272 121.559 25.624C122.151 25.976 122.599 26.424 122.903 26.968C123.223 27.512 123.383 28.136 123.383 28.84C123.383 30.088 122.887 31.08 121.895 31.816C120.919 32.536 119.575 32.896 117.863 32.896C117.079 32.896 116.359 32.824 115.703 32.68C115.079 32.84 114.767 33.2 114.767 33.76C114.767 34.08 114.887 34.328 115.127 34.504C115.367 34.664 115.703 34.744 116.135 34.744H120.191ZM117.863 26.824C117.223 26.824 116.695 27.008 116.279 27.376C115.879 27.744 115.679 28.224 115.679 28.816C115.679 29.424 115.879 29.912 116.279 30.28C116.695 30.648 117.223 30.832 117.863 30.832C118.519 30.832 119.047 30.648 119.447 30.28C119.863 29.912 120.071 29.424 120.071 28.816C120.071 28.224 119.863 27.744 119.447 27.376C119.047 27.008 118.519 26.824 117.863 26.824ZM118.103 39.904C119.223 39.904 120.087 39.76 120.695 39.472C121.303 39.2 121.607 38.848 121.607 38.416C121.607 38.08 121.463 37.824 121.175 37.648C120.903 37.488 120.447 37.408 119.807 37.408H116.543C115.215 37.408 114.551 37.768 114.551 38.488C114.551 38.936 114.847 39.28 115.439 39.52C116.031 39.776 116.919 39.904 118.103 39.904ZM137.853 35.008C138.189 35.008 138.461 34.976 138.669 34.912L138.429 36.904C137.981 37.128 137.461 37.24 136.869 37.24C135.333 37.24 134.413 36.64 134.109 35.44C133.757 36.032 133.213 36.48 132.477 36.784C131.741 37.088 130.869 37.24 129.861 37.24C128.693 37.24 127.781 36.976 127.125 36.448C126.469 35.92 126.141 35.16 126.141 34.168C126.141 32.216 127.701 30.952 130.821 30.376L133.701 29.824V29.248C133.701 28.608 133.517 28.104 133.149 27.736C132.797 27.352 132.301 27.16 131.661 27.16C130.925 27.16 130.325 27.32 129.861 27.64C129.397 27.96 129.077 28.48 128.901 29.2L126.285 28.096C126.541 27.056 127.117 26.24 128.013 25.648C128.909 25.056 130.077 24.76 131.517 24.76C133.229 24.76 134.565 25.136 135.525 25.888C136.485 26.624 136.965 27.72 136.965 29.176V34.096C136.965 34.416 137.037 34.648 137.181 34.792C137.325 34.936 137.549 35.008 137.853 35.008ZM130.893 35.008C131.597 35.008 132.237 34.84 132.813 34.504C133.405 34.152 133.701 33.68 133.701 33.088V31.84L131.133 32.416C130.589 32.544 130.181 32.72 129.909 32.944C129.653 33.152 129.525 33.448 129.525 33.832C129.525 34.216 129.645 34.512 129.885 34.72C130.125 34.912 130.461 35.008 130.893 35.008ZM148.592 34.744C149.904 34.744 150.912 35.032 151.616 35.608C152.336 36.184 152.696 37.008 152.696 38.08C152.696 39.36 152.104 40.36 150.92 41.08C149.736 41.8 148.176 42.16 146.24 42.16C144.24 42.16 142.752 41.896 141.776 41.368C140.816 40.84 140.336 40.12 140.336 39.208C140.336 38.664 140.52 38.192 140.888 37.792C141.256 37.392 141.8 37.104 142.52 36.928C141.976 36.704 141.544 36.392 141.224 35.992C140.904 35.576 140.744 35.088 140.744 34.528C140.744 33.952 140.912 33.456 141.248 33.04C141.584 32.624 142.048 32.312 142.64 32.104C142.032 31.752 141.568 31.304 141.248 30.76C140.928 30.2 140.768 29.56 140.768 28.84C140.768 27.576 141.256 26.584 142.232 25.864C143.224 25.128 144.568 24.76 146.264 24.76C147.128 24.76 147.936 24.864 148.688 25.072C148.896 24.128 149.296 23.392 149.888 22.864C150.496 22.32 151.312 22.08 152.336 22.144L152.768 24.496C152.656 24.48 152.488 24.472 152.264 24.472C151.672 24.472 151.176 24.576 150.776 24.784C150.392 24.992 150.12 25.272 149.96 25.624C150.552 25.976 151 26.424 151.304 26.968C151.624 27.512 151.784 28.136 151.784 28.84C151.784 30.088 151.288 31.08 150.296 31.816C149.32 32.536 147.976 32.896 146.264 32.896C145.48 32.896 144.76 32.824 144.104 32.68C143.48 32.84 143.168 33.2 143.168 33.76C143.168 34.08 143.288 34.328 143.528 34.504C143.768 34.664 144.104 34.744 144.536 34.744H148.592ZM146.264 26.824C145.624 26.824 145.096 27.008 144.68 27.376C144.28 27.744 144.08 28.224 144.08 28.816C144.08 29.424 144.28 29.912 144.68 30.28C145.096 30.648 145.624 30.832 146.264 30.832C146.92 30.832 147.448 30.648 147.848 30.28C148.264 29.912 148.472 29.424 148.472 28.816C148.472 28.224 148.264 27.744 147.848 27.376C147.448 27.008 146.92 26.824 146.264 26.824ZM146.504 39.904C147.624 39.904 148.488 39.76 149.096 39.472C149.704 39.2 150.008 38.848 150.008 38.416C150.008 38.08 149.864 37.824 149.576 37.648C149.304 37.488 148.848 37.408 148.208 37.408H144.944C143.616 37.408 142.952 37.768 142.952 38.488C142.952 38.936 143.248 39.28 143.84 39.52C144.432 39.776 145.32 39.904 146.504 39.904ZM166.494 30.952C166.494 31.4 166.462 31.832 166.398 32.248H157.902C158.238 33.944 159.238 34.792 160.902 34.792C161.59 34.792 162.158 34.664 162.606 34.408C163.054 34.152 163.366 33.784 163.542 33.304L166.23 34.288C165.846 35.248 165.198 35.984 164.286 36.496C163.39 36.992 162.262 37.24 160.902 37.24C158.918 37.24 157.382 36.696 156.294 35.608C155.206 34.504 154.662 32.968 154.662 31C154.662 29.032 155.19 27.504 156.246 26.416C157.302 25.312 158.79 24.76 160.71 24.76C162.566 24.76 163.99 25.296 164.982 26.368C165.99 27.44 166.494 28.968 166.494 30.952ZM160.686 27.184C159.886 27.184 159.246 27.416 158.766 27.88C158.302 28.344 158.006 29.032 157.878 29.944H163.47C163.342 29.048 163.038 28.368 162.558 27.904C162.078 27.424 161.454 27.184 160.686 27.184Z" fill="white"/>
</svg>
