<svg width="248" height="60" viewBox="0 0 248 60" fill="none" xmlns="http://www.w3.org/2000/svg">
<path fill-rule="evenodd" clip-rule="evenodd" d="M0 0H219.335L248 30L219.335 60H0L29.4312 30L0 0Z" fill="#34EDCA"/>
<path d="M93.28 34.336V37H81.064V21.16H92.944V23.824H84.376V27.76H91.12V30.304H84.376V34.336H93.28ZM104.228 37L101.516 32.632L98.7555 37H95.0835L99.4995 30.928L95.2995 25H99.0915L101.66 29.2L104.228 25H107.924L103.676 30.928L107.996 37H104.228ZM117.756 24.76C119.356 24.76 120.612 25.312 121.524 26.416C122.436 27.504 122.892 29.024 122.892 30.976C122.892 32.944 122.436 34.48 121.524 35.584C120.612 36.688 119.356 37.24 117.756 37.24C116.892 37.24 116.14 37.048 115.5 36.664C114.86 36.264 114.356 35.72 113.988 35.032V42.04H110.7V25H113.604L113.724 27.376C114.076 26.576 114.596 25.944 115.284 25.48C115.988 25 116.812 24.76 117.756 24.76ZM116.772 34.72C117.668 34.72 118.364 34.4 118.86 33.76C119.356 33.12 119.604 32.2 119.604 31C119.604 29.8 119.356 28.88 118.86 28.24C118.364 27.6 117.668 27.28 116.772 27.28C115.972 27.28 115.324 27.56 114.828 28.12C114.332 28.664 114.052 29.448 113.988 30.472V31.528C114.052 32.536 114.332 33.32 114.828 33.88C115.324 34.44 115.972 34.72 116.772 34.72ZM129.593 33.184C129.593 33.76 129.673 34.16 129.833 34.384C130.009 34.608 130.321 34.72 130.769 34.72C131.041 34.72 131.273 34.704 131.465 34.672C131.673 34.624 131.913 34.552 132.185 34.456L131.897 36.736C131.641 36.896 131.305 37.016 130.889 37.096C130.473 37.192 130.065 37.24 129.665 37.24C128.497 37.24 127.641 36.96 127.097 36.4C126.569 35.824 126.305 34.912 126.305 33.664V19.744H129.593V33.184ZM145.569 35.008C145.905 35.008 146.177 34.976 146.385 34.912L146.145 36.904C145.697 37.128 145.177 37.24 144.585 37.24C143.049 37.24 142.129 36.64 141.825 35.44C141.473 36.032 140.929 36.48 140.193 36.784C139.457 37.088 138.585 37.24 137.577 37.24C136.409 37.24 135.497 36.976 134.841 36.448C134.185 35.92 133.857 35.16 133.857 34.168C133.857 32.216 135.417 30.952 138.537 30.376L141.417 29.824V29.248C141.417 28.608 141.233 28.104 140.865 27.736C140.513 27.352 140.017 27.16 139.377 27.16C138.641 27.16 138.041 27.32 137.577 27.64C137.113 27.96 136.793 28.48 136.617 29.2L134.001 28.096C134.257 27.056 134.833 26.24 135.729 25.648C136.625 25.056 137.793 24.76 139.233 24.76C140.945 24.76 142.281 25.136 143.241 25.888C144.201 26.624 144.681 27.72 144.681 29.176V34.096C144.681 34.416 144.753 34.648 144.897 34.792C145.041 34.936 145.265 35.008 145.569 35.008ZM138.609 35.008C139.313 35.008 139.953 34.84 140.529 34.504C141.121 34.152 141.417 33.68 141.417 33.088V31.84L138.849 32.416C138.305 32.544 137.897 32.72 137.625 32.944C137.369 33.152 137.241 33.448 137.241 33.832C137.241 34.216 137.361 34.512 137.601 34.72C137.841 34.912 138.177 35.008 138.609 35.008ZM150.598 23.272C149.238 23.272 148.558 22.688 148.558 21.52C148.558 20.336 149.238 19.744 150.598 19.744C151.958 19.744 152.638 20.336 152.638 21.52C152.638 22.688 151.958 23.272 150.598 23.272ZM152.23 37H148.942V25H152.23V37ZM163.428 24.76C164.724 24.76 165.764 25.136 166.548 25.888C167.348 26.64 167.748 27.72 167.748 29.128V37H164.46V30.088C164.46 28.264 163.748 27.352 162.324 27.352C161.556 27.352 160.9 27.624 160.356 28.168C159.828 28.712 159.564 29.544 159.564 30.664V37H156.276V25H159.228L159.324 27.136C159.724 26.352 160.276 25.76 160.98 25.36C161.684 24.96 162.5 24.76 163.428 24.76Z" fill="#0D316C"/>
</svg>
