<svg width="248" height="60" viewBox="0 0 248 60" fill="none" xmlns="http://www.w3.org/2000/svg">
<path fill-rule="evenodd" clip-rule="evenodd" d="M0 0H219.335L248 30L219.335 60H0L29.4312 30L0 0Z" fill="#3E82EF"/>
<path d="M85.28 34.336V37H73.064V21.16H84.944V23.824H76.376V27.76H83.12V30.304H76.376V34.336H85.28ZM99.2868 25L94.7268 37H90.9348L86.3748 25H89.9028L92.8548 34.696L95.8788 25H99.2868ZM112.379 35.008C112.715 35.008 112.987 34.976 113.195 34.912L112.955 36.904C112.507 37.128 111.987 37.24 111.395 37.24C109.859 37.24 108.939 36.64 108.635 35.44C108.283 36.032 107.739 36.48 107.003 36.784C106.267 37.088 105.395 37.24 104.387 37.24C103.219 37.24 102.307 36.976 101.651 36.448C100.995 35.92 100.667 35.16 100.667 34.168C100.667 32.216 102.227 30.952 105.347 30.376L108.227 29.824V29.248C108.227 28.608 108.043 28.104 107.675 27.736C107.323 27.352 106.827 27.16 106.187 27.16C105.451 27.16 104.851 27.32 104.387 27.64C103.923 27.96 103.603 28.48 103.427 29.2L100.811 28.096C101.067 27.056 101.643 26.24 102.539 25.648C103.435 25.056 104.603 24.76 106.043 24.76C107.755 24.76 109.091 25.136 110.051 25.888C111.011 26.624 111.491 27.72 111.491 29.176V34.096C111.491 34.416 111.563 34.648 111.707 34.792C111.851 34.936 112.075 35.008 112.379 35.008ZM105.419 35.008C106.123 35.008 106.763 34.84 107.339 34.504C107.931 34.152 108.227 33.68 108.227 33.088V31.84L105.659 32.416C105.115 32.544 104.707 32.72 104.435 32.944C104.179 33.152 104.051 33.448 104.051 33.832C104.051 34.216 104.171 34.512 104.411 34.72C104.651 34.912 104.987 35.008 105.419 35.008ZM118.992 33.184C118.992 33.76 119.072 34.16 119.232 34.384C119.408 34.608 119.72 34.72 120.168 34.72C120.44 34.72 120.672 34.704 120.864 34.672C121.072 34.624 121.312 34.552 121.584 34.456L121.296 36.736C121.04 36.896 120.704 37.016 120.288 37.096C119.872 37.192 119.464 37.24 119.064 37.24C117.896 37.24 117.04 36.96 116.496 36.4C115.968 35.824 115.704 34.912 115.704 33.664V19.744H118.992V33.184ZM135.376 25V37H132.448L132.328 34.936C131.56 36.472 130.16 37.24 128.128 37.24C126.832 37.24 125.8 36.896 125.032 36.208C124.28 35.504 123.904 34.416 123.904 32.944V25H127.192V32.104C127.192 33.032 127.368 33.688 127.72 34.072C128.072 34.456 128.592 34.648 129.28 34.648C130.112 34.648 130.784 34.384 131.296 33.856C131.824 33.312 132.088 32.504 132.088 31.432V25H135.376ZM150.363 35.008C150.699 35.008 150.971 34.976 151.179 34.912L150.939 36.904C150.491 37.128 149.971 37.24 149.379 37.24C147.843 37.24 146.923 36.64 146.619 35.44C146.267 36.032 145.723 36.48 144.987 36.784C144.251 37.088 143.379 37.24 142.371 37.24C141.203 37.24 140.291 36.976 139.635 36.448C138.979 35.92 138.651 35.16 138.651 34.168C138.651 32.216 140.211 30.952 143.331 30.376L146.211 29.824V29.248C146.211 28.608 146.027 28.104 145.659 27.736C145.307 27.352 144.811 27.16 144.171 27.16C143.435 27.16 142.835 27.32 142.371 27.64C141.907 27.96 141.587 28.48 141.411 29.2L138.795 28.096C139.051 27.056 139.627 26.24 140.523 25.648C141.419 25.056 142.587 24.76 144.027 24.76C145.739 24.76 147.075 25.136 148.035 25.888C148.995 26.624 149.475 27.72 149.475 29.176V34.096C149.475 34.416 149.547 34.648 149.691 34.792C149.835 34.936 150.059 35.008 150.363 35.008ZM143.403 35.008C144.107 35.008 144.747 34.84 145.323 34.504C145.915 34.152 146.211 33.68 146.211 33.088V31.84L143.643 32.416C143.099 32.544 142.691 32.72 142.419 32.944C142.163 33.152 142.035 33.448 142.035 33.832C142.035 34.216 142.155 34.512 142.395 34.72C142.635 34.912 142.971 35.008 143.403 35.008ZM161.5 36.256C161.116 36.56 160.628 36.8 160.036 36.976C159.46 37.152 158.852 37.24 158.212 37.24C155.54 37.24 154.204 36.032 154.204 33.616V27.448H152.02V25H154.204V22.24L157.492 21.328V25H161.38V27.448H157.492V33.088C157.492 34.192 158.044 34.744 159.148 34.744C159.852 34.744 160.468 34.52 160.996 34.072L161.5 36.256ZM175.325 30.952C175.325 31.4 175.293 31.832 175.229 32.248H166.733C167.069 33.944 168.069 34.792 169.733 34.792C170.421 34.792 170.989 34.664 171.437 34.408C171.885 34.152 172.197 33.784 172.373 33.304L175.061 34.288C174.677 35.248 174.029 35.984 173.117 36.496C172.221 36.992 171.093 37.24 169.733 37.24C167.749 37.24 166.213 36.696 165.125 35.608C164.037 34.504 163.493 32.968 163.493 31C163.493 29.032 164.021 27.504 165.077 26.416C166.133 25.312 167.621 24.76 169.541 24.76C171.397 24.76 172.821 25.296 173.813 26.368C174.821 27.44 175.325 28.968 175.325 30.952ZM169.517 27.184C168.717 27.184 168.077 27.416 167.597 27.88C167.133 28.344 166.837 29.032 166.709 29.944H172.301C172.173 29.048 171.869 28.368 171.389 27.904C170.909 27.424 170.285 27.184 169.517 27.184Z" fill="white"/>
</svg>
