<?xml version="1.0" standalone="no"?>
<!DOCTYPE svg PUBLIC "-//W3C//DTD SVG 1.1//EN" "http://www.w3.org/Graphics/SVG/1.1/DTD/svg11.dtd">
<svg xmlns="http://www.w3.org/2000/svg">
<defs >
<font id="VT323" horiz-adv-x="400" ><font-face
    font-family="VT323"
    units-per-em="1000"
    panose-1="0 0 5 9 0 0 0 0 0 0"
    ascent="800"
    descent="-200"
    alphabetic="0" />
<glyph unicode=" " glyph-name="space" />
<glyph unicode="!" glyph-name="exclam" d="M244 464T244 440Q244 417 240 400Q244 384 244 360Q244 337 240 320Q244 304 244 280Q244 257 240 240Q244 224 244 200Q244 177 240 160H160Q156 177 156 200Q156 224 160 240Q156 257 156 280Q156 304 160 320Q156
337 156 360Q156 384 160 400Q156 417 156 440Q156 464 160 480Q156 497 156 520Q156 544 160 560H240Q244 544 244 520Q244 497 240 480Q244 464 244 440ZM240 80Q244 64 244 40Q244 17 240 0H160Q156 17 156 40Q156 64 160 80H240Z" />
<glyph unicode="&quot;" glyph-name="quotedbl" d="M164 624T164 600Q164 577 160 560Q164 544 164 520Q164 497 160 480H80Q76 497 76 520Q76 544 80 560Q76 577 76 600Q76 624 80 640H160Q164 624 164 600ZM324 577T320 560Q324 544 324 520Q324 497 320 480H240Q236
497 236 520Q236 544 240 560Q236 577 236 600Q236 624 240 640H320Q324 624 324 600Q324 577 320 560Z" />
<glyph unicode="#" glyph-name="numbersign" d="M360 240Q364 224 364 200Q364 177 360 160H310Q314 144 314 120Q314 97 310 80H230Q226 97 226 120Q226 144 230 160H170Q174 144 174 120Q174 97 170 80H90Q86 97 86 120Q86 144 90 160H40Q36 177 36 200Q36 224
40 240H90Q86 257 86 280Q86 304 90 320Q86 337 86 360Q86 384 90 400H40Q36 417 36 440Q36 464 40 480H90Q86 497 86 520Q86 544 90 560H170Q174 544 174 520Q174 497 170 480H230Q226 497 226 520Q226 544 230 560H310Q314 544 314 520Q314 497 310 480H360Q364
464 364 440Q364 417 360 400H310Q314 384 314 360Q314 337 310 320Q314 304 314 280Q314 257 310 240H360ZM226 257T226 280Q226 304 230 320Q226 337 226 360Q226 384 230 400H170Q174 384 174 360Q174 337 170 320Q174 304 174 280Q174 257 170 240H230Q226
257 226 280Z" />
<glyph unicode="$" glyph-name="dollar" d="M364 224T364 200Q364 177 360 160Q364 144 364 120Q364 97 360 80H320Q324 64 324 40Q324 17 320 0H230Q234 -16 234 -40Q234 -63 230 -80H170Q166 -63 166 -40Q166 -16 170 0H80Q76 17 76 40Q76 64 80 80H40Q36 97
36 120Q36 144 40 160H120Q124 144 124 120Q124 97 120 80H170Q166 97 166 120Q166 144 170 160Q166 177 166 200Q166 224 170 240H80Q76 257 76 280Q76 304 80 320H40Q36 337 36 360Q36 384 40 400Q36 417 36 440Q36 464 40 480H80Q76 497 76 520Q76 544 80 560H170Q166
577 166 600Q166 624 170 640H230Q234 624 234 600Q234 577 230 560H320Q324 544 324 520Q324 497 320 480H360Q364 464 364 440Q364 417 360 400H280Q276 417 276 440Q276 464 280 480H230Q234 464 234 440Q234 417 230 400Q234 384 234 360Q234 337 230 320H320Q324
304 324 280Q324 257 320 240H360Q364 224 364 200ZM170 320Q166 337 166 360Q166 384 170 400Q166 417 166 440Q166 464 170 480H120Q124 464 124 440Q124 417 120 400Q124 384 124 360Q124 337 120 320H170ZM276 97T276 120Q276 144 280 160Q276 177 276 200Q276
224 280 240H230Q234 224 234 200Q234 177 230 160Q234 144 234 120Q234 97 230 80H280Q276 97 276 120Z" />
<glyph unicode="%" glyph-name="percent" d="M185 240Q189 224 189 200Q189 177 185 160H145Q149 144 149 120Q149 97 145 80H100Q104 64 104 40Q104 17 100 0H40Q36 17 36 40Q36 64 40 80H85Q81 97 81 120Q81 144 85 160H125Q121 177 121 200Q121 224 125 240H170Q166
257 166 280Q166 304 170 320H215Q211 337 211 360Q211 384 215 400H255Q251 417 251 440Q251 464 255 480H300Q296 497 296 520Q296 544 300 560H360Q364 544 364 520Q364 497 360 480H315Q319 464 319 440Q319 417 315 400H275Q279 384 279 360Q279 337 275 320H230Q234
304 234 280Q234 257 230 240H185ZM40 400Q36 417 36 440Q36 464 40 480H75Q71 497 71 520Q71 544 75 560H155Q159 544 159 520Q159 497 155 480H190Q194 464 194 440Q194 417 190 400H155Q159 384 159 360Q159 337 155 320H75Q71 337 71 360Q71 384 75 400H40ZM100
480Q104 464 104 440Q104 417 100 400H130Q126 417 126 440Q126 464 130 480H100ZM360 160Q364 144 364 120Q364 97 360 80H325Q329 64 329 40Q329 17 325 0H245Q241 17 241 40Q241 64 245 80H210Q206 97 206 120Q206 144 210 160H245Q241 177 241 200Q241 224
245 240H325Q329 224 329 200Q329 177 325 160H360ZM300 80Q296 97 296 120Q296 144 300 160H270Q274 144 274 120Q274 97 270 80H300Z" />
<glyph unicode="&amp;" glyph-name="ampersand" d="M364 257T360 240H310Q314 224 314 200Q314 177 310 160H340Q344 144 344 120Q344 97 340 80H360Q364 64 364 40Q364 17 360 0H280Q276 17 276 40Q276 64 280 80Q276 97 276 120Q276 144 280 160H250Q254 144
254 120Q254 97 250 80H220Q224 64 224 40Q224 17 220 0H80Q76 17 76 40Q76 64 80 80H40Q36 97 36 120Q36 144 40 160Q36 177 36 200Q36 224 40 240H80Q76 257 76 280Q76 304 80 320H120Q116 337 116 360Q116 384 120 400H80Q76 417 76 440Q76 464 80 480H120Q116
497 116 520Q116 544 120 560H240Q244 544 244 520Q244 497 240 480H280Q284 464 284 440Q284 417 280 400H220Q216 417 216 440Q216 464 220 480H140Q144 464 144 440Q144 417 140 400H220Q224 384 224 360Q224 337 220 320H250Q254 304 254 280Q254 257 250 240H300Q296
257 296 280Q296 304 300 320Q296 337 296 360Q296 384 300 400H360Q364 384 364 360Q364 337 360 320Q364 304 364 280Q364 257 360 240ZM220 160Q216 177 216 200Q216 224 220 240H190Q186 257 186 280Q186 304 190 320H160Q164 304 164 280Q164 257 160 240H120Q124
224 124 200Q124 177 120 160Q124 144 124 120Q124 97 120 80H190Q186 97 186 120Q186 144 190 160H220Z" />
<glyph unicode="&apos;" glyph-name="quotesingle" d="M244 577T240 560Q244 544 244 520Q244 497 240 480H160Q156 497 156 520Q156 544 160 560Q156 577 156 600Q156 624 160 640H240Q244 624 244 600Q244 577 240 560Z" />
<glyph unicode="(" glyph-name="parenleft" d="M289 577T285 560H235Q231 577 231 600Q231 624 235 640H285Q289 624 289 600Q289 577 285 560ZM239 64T239 40Q239 17 235 0H185Q181 17 181 40Q181 64 185 80H160Q156 97 156 120Q156 144 160 160H130Q126 177
126 200Q126 224 130 240Q126 257 126 280Q126 304 130 320Q126 337 126 360Q126 384 130 400H160Q156 417 156 440Q156 464 160 480H185Q181 497 181 520Q181 544 185 560H235Q239 544 239 520Q239 497 235 480H210Q214 464 214 440Q214 417 210 400Q214 384 214
360Q214 337 210 320Q214 304 214 280Q214 257 210 240Q214 224 214 200Q214 177 210 160Q214 144 214 120Q214 97 210 80H235Q239 64 239 40ZM285 0Q289 -16 289 -40Q289 -63 285 -80H235Q231 -63 231 -40Q231 -16 235 0H285Z" />
<glyph unicode=")" glyph-name="parenright" d="M169 624T169 600Q169 577 165 560H115Q111 577 111 600Q111 624 115 640H165Q169 624 169 600ZM274 304T274 280Q274 257 270 240Q274 224 274 200Q274 177 270 160H240Q244 144 244 120Q244 97 240 80H215Q219
64 219 40Q219 17 215 0H165Q161 17 161 40Q161 64 165 80H190Q186 97 186 120Q186 144 190 160Q186 177 186 200Q186 224 190 240Q186 257 186 280Q186 304 190 320Q186 337 186 360Q186 384 190 400Q186 417 186 440Q186 464 190 480H165Q161 497 161 520Q161
544 165 560H215Q219 544 219 520Q219 497 215 480H240Q244 464 244 440Q244 417 240 400H270Q274 384 274 360Q274 337 270 320Q274 304 274 280ZM111 -16T115 0H165Q169 -16 169 -40Q169 -63 165 -80H115Q111 -63 111 -40Q111 -16 115 0Z" />
<glyph unicode="*" glyph-name="asterisk" d="M264 304T264 280Q264 257 260 240H230Q234 224 234 200Q234 177 230 160Q234 144 234 120Q234 97 230 80H170Q166 97 166 120Q166 144 170 160Q166 177 166 200Q166 224 170 240H140Q136 257 136 280Q136 304 140
320H170Q166 337 166 360Q166 384 170 400Q166 417 166 440Q166 464 170 480H230Q234 464 234 440Q234 417 230 400Q234 384 234 360Q234 337 230 320H260Q264 304 264 280ZM144 384T144 360Q144 337 140 320H60Q56 337 56 360Q56 384 60 400H140Q144 384 144 360ZM344
337T340 320H260Q256 337 256 360Q256 384 260 400H340Q344 384 344 360Q344 337 340 320ZM56 224T60 240H140Q144 224 144 200Q144 177 140 160H60Q56 177 56 200Q56 224 60 240ZM340 240Q344 224 344 200Q344 177 340 160H260Q256 177 256 200Q256 224 260 240H340Z"
/>
<glyph unicode="+" glyph-name="plus" d="M344 257T340 240H240Q244 224 244 200Q244 177 240 160Q244 144 244 120Q244 97 240 80H160Q156 97 156 120Q156 144 160 160Q156 177 156 200Q156 224 160 240H60Q56 257 56 280Q56 304 60 320H160Q156 337 156 360Q156
384 160 400Q156 417 156 440Q156 464 160 480H240Q244 464 244 440Q244 417 240 400Q244 384 244 360Q244 337 240 320H340Q344 304 344 280Q344 257 340 240Z" />
<glyph unicode="," glyph-name="comma" d="M254 64T254 40Q254 17 250 0Q254 -16 254 -40Q254 -63 250 -80H210Q214 -96 214 -120Q214 -143 210 -160H150Q146 -143 146 -120Q146 -96 150 -80H190Q186 -63 186 -40Q186 -16 190 0H150Q146 17 146 40Q146 64 150
80Q146 97 146 120Q146 144 150 160H250Q254 144 254 120Q254 97 250 80Q254 64 254 40Z" />
<glyph unicode="-" glyph-name="hyphen" d="M300 320Q304 304 304 280Q304 257 300 240H100Q96 257 96 280Q96 304 100 320H300Z" />
<glyph unicode="." glyph-name="period" d="M254 97T250 80Q254 64 254 40Q254 17 250 0H150Q146 17 146 40Q146 64 150 80Q146 97 146 120Q146 144 150 160H250Q254 144 254 120Q254 97 250 80Z" />
<glyph unicode="/" glyph-name="slash" d="M364 577T360 560H330Q334 544 334 520Q334 497 330 480H300Q304 464 304 440Q304 417 300 400H270Q274 384 274 360Q274 337 270 320H240Q244 304 244 280Q244 257 240 240H210Q214 224 214 200Q214 177 210 160H180Q184
144 184 120Q184 97 180 80H150Q154 64 154 40Q154 17 150 0H120Q124 -16 124 -40Q124 -63 120 -80H40Q36 -63 36 -40Q36 -16 40 0H70Q66 17 66 40Q66 64 70 80H100Q96 97 96 120Q96 144 100 160H130Q126 177 126 200Q126 224 130 240H160Q156 257 156 280Q156
304 160 320H190Q186 337 186 360Q186 384 190 400H220Q216 417 216 440Q216 464 220 480H250Q246 497 246 520Q246 544 250 560H280Q276 577 276 600Q276 624 280 640H360Q364 624 364 600Q364 577 360 560Z" />
<glyph unicode="0" glyph-name="zero" d="M254 497T250 480H150Q146 497 146 520Q146 544 150 560H250Q254 544 254 520Q254 497 250 480ZM154 144T154 120Q154 97 150 80H100Q96 97 96 120Q96 144 100 160H70Q66 177 66 200Q66 224 70 240Q66 257 66 280Q66 304
70 320Q66 337 66 360Q66 384 70 400H100Q96 417 96 440Q96 464 100 480H150Q154 464 154 440Q154 417 150 400Q154 384 154 360Q154 337 150 320Q154 304 154 280Q154 257 150 240Q154 224 154 200Q154 177 150 160Q154 144 154 120ZM334 304T334 280Q334 257
330 240Q334 224 334 200Q334 177 330 160H300Q304 144 304 120Q304 97 300 80H250Q246 97 246 120Q246 144 250 160Q246 177 246 200Q246 224 250 240Q246 257 246 280Q246 304 250 320Q246 337 246 360Q246 384 250 400Q246 417 246 440Q246 464 250 480H300Q304
464 304 440Q304 417 300 400H330Q334 384 334 360Q334 337 330 320Q334 304 334 280ZM146 64T150 80H250Q254 64 254 40Q254 17 250 0H150Q146 17 146 40Q146 64 150 80Z" />
<glyph unicode="1" glyph-name="one" d="M324 64T324 40Q324 17 320 0H80Q76 17 76 40Q76 64 80 80H160Q156 97 156 120Q156 144 160 160Q156 177 156 200Q156 224 160 240Q156 257 156 280Q156 304 160 320Q156 337 156 360Q156 384 160 400H100Q96 417 96 440Q96
464 100 480H160Q156 497 156 520Q156 544 160 560H240Q244 544 244 520Q244 497 240 480Q244 464 244 440Q244 417 240 400Q244 384 244 360Q244 337 240 320Q244 304 244 280Q244 257 240 240Q244 224 244 200Q244 177 240 160Q244 144 244 120Q244 97 240 80H320Q324
64 324 40Z" />
<glyph unicode="2" glyph-name="two" d="M344 337T340 320H290Q294 304 294 280Q294 257 290 240H240Q244 224 244 200Q244 177 240 160H190Q194 144 194 120Q194 97 190 80H340Q344 64 344 40Q344 17 340 0H60Q56 17 56 40Q56 64 60 80H110Q106 97 106 120Q106
144 110 160H160Q156 177 156 200Q156 224 160 240H210Q206 257 206 280Q206 304 210 320H260Q256 337 256 360Q256 384 260 400Q256 417 256 440Q256 464 260 480H120Q124 464 124 440Q124 417 120 400H60Q56 417 56 440Q56 464 60 480H100Q96 497 96 520Q96 544
100 560H300Q304 544 304 520Q304 497 300 480H340Q344 464 344 440Q344 417 340 400Q344 384 344 360Q344 337 340 320Z" />
<glyph unicode="3" glyph-name="three" d="M344 337T340 320H300Q304 304 304 280Q304 257 300 240H340Q344 224 344 200Q344 177 340 160Q344 144 344 120Q344 97 340 80H300Q304 64 304 40Q304 17 300 0H100Q96 17 96 40Q96 64 100 80H60Q56 97 56 120Q56 144
60 160H140Q144 144 144 120Q144 97 140 80H260Q256 97 256 120Q256 144 260 160Q256 177 256 200Q256 224 260 240H160Q156 257 156 280Q156 304 160 320H260Q256 337 256 360Q256 384 260 400Q256 417 256 440Q256 464 260 480H140Q144 464 144 440Q144 417 140
400H60Q56 417 56 440Q56 464 60 480H100Q96 497 96 520Q96 544 100 560H300Q304 544 304 520Q304 497 300 480H340Q344 464 344 440Q344 417 340 400Q344 384 344 360Q344 337 340 320Z" />
<glyph unicode="4" glyph-name="four" d="M364 177T360 160H320Q324 144 324 120Q324 97 320 80Q324 64 324 40Q324 17 320 0H240Q236 17 236 40Q236 64 240 80Q236 97 236 120Q236 144 240 160H40Q36 177 36 200Q36 224 40 240H70Q66 257 66 280Q66 304 70 320H100Q96
337 96 360Q96 384 100 400H130Q126 417 126 440Q126 464 130 480H180Q184 464 184 440Q184 417 180 400H150Q154 384 154 360Q154 337 150 320H120Q124 304 124 280Q124 257 120 240H240Q236 257 236 280Q236 304 240 320Q236 337 236 360Q236 384 240 400Q236
417 236 440Q236 464 240 480H180Q176 497 176 520Q176 544 180 560H320Q324 544 324 520Q324 497 320 480Q324 464 324 440Q324 417 320 400Q324 384 324 360Q324 337 320 320Q324 304 324 280Q324 257 320 240H360Q364 224 364 200Q364 177 360 160Z" />
<glyph unicode="5" glyph-name="five" d="M144 337T140 320H170Q174 304 174 280Q174 257 170 240H60Q56 257 56 280Q56 304 60 320Q56 337 56 360Q56 384 60 400Q56 417 56 440Q56 464 60 480Q56 497 56 520Q56 544 60 560H330Q334 544 334 520Q334 497 330 480H140Q144
464 144 440Q144 417 140 400Q144 384 144 360Q144 337 140 320ZM364 177T360 160H330Q334 144 334 120Q334 97 330 80H280Q284 64 284 40Q284 17 280 0H100Q96 17 96 40Q96 64 100 80H60Q56 97 56 120Q56 144 60 160H120Q124 144 124 120Q124 97 120 80H250Q246
97 246 120Q246 144 250 160H280Q276 177 276 200Q276 224 280 240H250Q246 257 246 280Q246 304 250 320H170Q166 337 166 360Q166 384 170 400H280Q284 384 284 360Q284 337 280 320H330Q334 304 334 280Q334 257 330 240H360Q364 224 364 200Q364 177 360 160Z"
/>
<glyph unicode="6" glyph-name="six" d="M309 497T305 480H165Q161 497 161 520Q161 544 165 560H305Q309 544 309 520Q309 497 305 480ZM169 144T169 120Q169 97 165 80H85Q81 97 81 120Q81 144 85 160H55Q51 177 51 200Q51 224 55 240Q51 257 51 280Q51 304
55 320Q51 337 51 360Q51 384 55 400H85Q81 417 81 440Q81 464 85 480H165Q169 464 169 440Q169 417 165 400H135Q139 384 139 360Q139 337 135 320Q139 304 139 280Q139 257 135 240H165Q169 224 169 200Q169 177 165 160Q169 144 169 120ZM349 177T345 160Q349
144 349 120Q349 97 345 80H285Q289 64 289 40Q289 17 285 0H165Q161 17 161 40Q161 64 165 80H265Q261 97 261 120Q261 144 265 160Q261 177 261 200Q261 224 265 240H165Q161 257 161 280Q161 304 165 320H305Q309 304 309 280Q309 257 305 240H345Q349 224 349
200Q349 177 345 160Z" />
<glyph unicode="7" glyph-name="seven" d="M344 497T340 480Q344 464 344 440Q344 417 340 400H310Q314 384 314 360Q314 337 310 320H280Q284 304 284 280Q284 257 280 240H250Q254 224 254 200Q254 177 250 160H220Q224 144 224 120Q224 97 220 80H190Q194 64
194 40Q194 17 190 0H110Q106 17 106 40Q106 64 110 80H140Q136 97 136 120Q136 144 140 160H170Q166 177 166 200Q166 224 170 240H200Q196 257 196 280Q196 304 200 320H230Q226 337 226 360Q226 384 230 400H260Q256 417 256 440Q256 464 260 480H60Q56 497
56 520Q56 544 60 560H340Q344 544 344 520Q344 497 340 480Z" />
<glyph unicode="8" glyph-name="eight" d="M334 337T330 320H280Q284 304 284 280Q284 257 280 240H330Q334 224 334 200Q334 177 330 160Q334 144 334 120Q334 97 330 80H280Q284 64 284 40Q284 17 280 0H120Q116 17 116 40Q116 64 120 80H70Q66 97 66 120Q66
144 70 160Q66 177 66 200Q66 224 70 240H120Q116 257 116 280Q116 304 120 320H70Q66 337 66 360Q66 384 70 400Q66 417 66 440Q66 464 70 480H120Q116 497 116 520Q116 544 120 560H280Q284 544 284 520Q284 497 280 480H330Q334 464 334 440Q334 417 330 400Q334
384 334 360Q334 337 330 320ZM246 337T246 360Q246 384 250 400Q246 417 246 440Q246 464 250 480H150Q154 464 154 440Q154 417 150 400Q154 384 154 360Q154 337 150 320H250Q246 337 246 360ZM246 177T246 200Q246 224 250 240H150Q154 224 154 200Q154 177
150 160Q154 144 154 120Q154 97 150 80H250Q246 97 246 120Q246 144 250 160Q246 177 246 200Z" />
<glyph unicode="9" glyph-name="nine" d="M139 337T135 320H235Q239 304 239 280Q239 257 235 240H95Q91 257 91 280Q91 304 95 320H55Q51 337 51 360Q51 384 55 400Q51 417 51 440Q51 464 55 480H115Q111 497 111 520Q111 544 115 560H235Q239 544 239 520Q239
497 235 480H135Q139 464 139 440Q139 417 135 400Q139 384 139 360Q139 337 135 320ZM349 304T349 280Q349 257 345 240Q349 224 349 200Q349 177 345 160H315Q319 144 319 120Q319 97 315 80H235Q231 97 231 120Q231 144 235 160H265Q261 177 261 200Q261 224
265 240Q261 257 261 280Q261 304 265 320H235Q231 337 231 360Q231 384 235 400Q231 417 231 440Q231 464 235 480H315Q319 464 319 440Q319 417 315 400H345Q349 384 349 360Q349 337 345 320Q349 304 349 280ZM91 64T95 80H235Q239 64 239 40Q239 17 235 0H95Q91
17 91 40Q91 64 95 80Z" />
<glyph unicode=":" glyph-name="colon" d="M254 417T250 400Q254 384 254 360Q254 337 250 320H150Q146 337 146 360Q146 384 150 400Q146 417 146 440Q146 464 150 480H250Q254 464 254 440Q254 417 250 400ZM254 144T254 120Q254 97 250 80Q254 64 254 40Q254
17 250 0H150Q146 17 146 40Q146 64 150 80Q146 97 146 120Q146 144 150 160H250Q254 144 254 120Z" />
<glyph unicode=";" glyph-name="semicolon" d="M254 417T250 400Q254 384 254 360Q254 337 250 320H150Q146 337 146 360Q146 384 150 400Q146 417 146 440Q146 464 150 480H250Q254 464 254 440Q254 417 250 400ZM254 144T254 120Q254 97 250 80Q254 64 254 40Q254
17 250 0Q254 -16 254 -40Q254 -63 250 -80H210Q214 -96 214 -120Q214 -143 210 -160H150Q146 -143 146 -120Q146 -96 150 -80H190Q186 -63 186 -40Q186 -16 190 0H150Q146 17 146 40Q146 64 150 80Q146 97 146 120Q146 144 150 160H250Q254 144 254 120Z" />
<glyph unicode="&lt;" glyph-name="less" d="M315 80Q319 64 319 40Q319 17 315 0H235Q231 17 231 40Q231 64 235 80H185Q181 97 181 120Q181 144 185 160H135Q131 177 131 200Q131 224 135 240H85Q81 257 81 280Q81 304 85 320H135Q131 337 131 360Q131 384 135
400H185Q181 417 181 440Q181 464 185 480H235Q231 497 231 520Q231 544 235 560H315Q319 544 319 520Q319 497 315 480H265Q269 464 269 440Q269 417 265 400H215Q219 384 219 360Q219 337 215 320H165Q169 304 169 280Q169 257 165 240H215Q219 224 219 200Q219
177 215 160H265Q269 144 269 120Q269 97 265 80H315Z" />
<glyph unicode="=" glyph-name="equal" d="M76 337T76 360Q76 384 80 400H320Q324 384 324 360Q324 337 320 320H80Q76 337 76 360ZM324 224T324 200Q324 177 320 160H80Q76 177 76 200Q76 224 80 240H320Q324 224 324 200Z" />
<glyph unicode="&gt;" glyph-name="greater" d="M319 257T315 240H265Q269 224 269 200Q269 177 265 160H215Q219 144 219 120Q219 97 215 80H165Q169 64 169 40Q169 17 165 0H85Q81 17 81 40Q81 64 85 80H135Q131 97 131 120Q131 144 135 160H185Q181 177 181
200Q181 224 185 240H235Q231 257 231 280Q231 304 235 320H185Q181 337 181 360Q181 384 185 400H135Q131 417 131 440Q131 464 135 480H85Q81 497 81 520Q81 544 85 560H165Q169 544 169 520Q169 497 165 480H215Q219 464 219 440Q219 417 215 400H265Q269 384
269 360Q269 337 265 320H315Q319 304 319 280Q319 257 315 240Z" />
<glyph unicode="?" glyph-name="question" d="M344 417T340 400Q344 384 344 360Q344 337 340 320H290Q294 304 294 280Q294 257 290 240H240Q244 224 244 200Q244 177 240 160H160Q156 177 156 200Q156 224 160 240H210Q206 257 206 280Q206 304 210 320H260Q256
337 256 360Q256 384 260 400Q256 417 256 440Q256 464 260 480H120Q124 464 124 440Q124 417 120 400H40Q36 417 36 440Q36 464 40 480H100Q96 497 96 520Q96 544 100 560H300Q304 544 304 520Q304 497 300 480H340Q344 464 344 440Q344 417 340 400ZM240 80Q244
64 244 40Q244 17 240 0H160Q156 17 156 40Q156 64 160 80H240Z" />
<glyph unicode="@" glyph-name="at" d="M364 384T364 360Q364 337 360 320Q364 304 364 280Q364 257 360 240Q364 224 364 200Q364 177 360 160H200Q196 177 196 200Q196 224 200 240H170Q166 257 166 280Q166 304 170 320Q166 337 166 360Q166 384 170 400H200Q196
417 196 440Q196 464 200 480H240Q236 497 236 520Q236 544 240 560H140Q144 544 144 520Q144 497 140 480H100Q104 464 104 440Q104 417 100 400Q104 384 104 360Q104 337 100 320Q104 304 104 280Q104 257 100 240Q104 224 104 200Q104 177 100 160H140Q144 144
144 120Q144 97 140 80H320Q324 64 324 40Q324 17 320 0H120Q116 17 116 40Q116 64 120 80H80Q76 97 76 120Q76 144 80 160H40Q36 177 36 200Q36 224 40 240Q36 257 36 280Q36 304 40 320Q36 337 36 360Q36 384 40 400Q36 417 36 440Q36 464 40 480H80Q76 497 76
520Q76 544 80 560H120Q116 577 116 600Q116 624 120 640H280Q284 624 284 600Q284 577 280 560H320Q324 544 324 520Q324 497 320 480H360Q364 464 364 440Q364 417 360 400Q364 384 364 360ZM296 257T296 280Q296 304 300 320Q296 337 296 360Q296 384 300 400H230Q234
384 234 360Q234 337 230 320Q234 304 234 280Q234 257 230 240H300Q296 257 296 280Z" />
<glyph unicode="A" glyph-name="A" d="M364 97T360 80Q364 64 364 40Q364 17 360 0H280Q276 17 276 40Q276 64 280 80Q276 97 276 120Q276 144 280 160H120Q124 144 124 120Q124 97 120 80Q124 64 124 40Q124 17 120 0H40Q36 17 36 40Q36 64 40 80Q36 97 36 120Q36
144 40 160H70Q66 177 66 200Q66 224 70 240Q66 257 66 280Q66 304 70 320H90Q86 337 86 360Q86 384 90 400H120Q116 417 116 440Q116 464 120 480H140Q136 497 136 520Q136 544 140 560H260Q264 544 264 520Q264 497 260 480H280Q284 464 284 440Q284 417 280
400H310Q314 384 314 360Q314 337 310 320H330Q334 304 334 280Q334 257 330 240Q334 224 334 200Q334 177 330 160H360Q364 144 364 120Q364 97 360 80ZM246 257T246 280Q246 304 250 320H230Q226 337 226 360Q226 384 230 400H170Q174 384 174 360Q174 337 170
320H150Q154 304 154 280Q154 257 150 240H250Q246 257 246 280Z" />
<glyph unicode="B" glyph-name="B" d="M364 337T360 320H320Q324 304 324 280Q324 257 320 240H360Q364 224 364 200Q364 177 360 160Q364 144 364 120Q364 97 360 80H320Q324 64 324 40Q324 17 320 0H40Q36 17 36 40Q36 64 40 80Q36 97 36 120Q36 144 40 160Q36
177 36 200Q36 224 40 240Q36 257 36 280Q36 304 40 320Q36 337 36 360Q36 384 40 400Q36 417 36 440Q36 464 40 480Q36 497 36 520Q36 544 40 560H320Q324 544 324 520Q324 497 320 480H360Q364 464 364 440Q364 417 360 400Q364 384 364 360Q364 337 360 320ZM276
337T276 360Q276 384 280 400Q276 417 276 440Q276 464 280 480H120Q124 464 124 440Q124 417 120 400Q124 384 124 360Q124 337 120 320H280Q276 337 276 360ZM276 177T276 200Q276 224 280 240H120Q124 224 124 200Q124 177 120 160Q124 144 124 120Q124 97 120
80H280Q276 97 276 120Q276 144 280 160Q276 177 276 200Z" />
<glyph unicode="C" glyph-name="C" d="M360 160Q364 144 364 120Q364 97 360 80H320Q324 64 324 40Q324 17 320 0H120Q116 17 116 40Q116 64 120 80H80Q76 97 76 120Q76 144 80 160H40Q36 177 36 200Q36 224 40 240Q36 257 36 280Q36 304 40 320Q36 337 36 360Q36
384 40 400H80Q76 417 76 440Q76 464 80 480H120Q116 497 116 520Q116 544 120 560H320Q324 544 324 520Q324 497 320 480H360Q364 464 364 440Q364 417 360 400H280Q276 417 276 440Q276 464 280 480H160Q164 464 164 440Q164 417 160 400H120Q124 384 124 360Q124
337 120 320Q124 304 124 280Q124 257 120 240Q124 224 124 200Q124 177 120 160H160Q164 144 164 120Q164 97 160 80H280Q276 97 276 120Q276 144 280 160H360Z" />
<glyph unicode="D" glyph-name="D" d="M364 304T364 280Q364 257 360 240Q364 224 364 200Q364 177 360 160H320Q324 144 324 120Q324 97 320 80H280Q284 64 284 40Q284 17 280 0H40Q36 17 36 40Q36 64 40 80Q36 97 36 120Q36 144 40 160Q36 177 36 200Q36 224
40 240Q36 257 36 280Q36 304 40 320Q36 337 36 360Q36 384 40 400Q36 417 36 440Q36 464 40 480Q36 497 36 520Q36 544 40 560H280Q284 544 284 520Q284 497 280 480H320Q324 464 324 440Q324 417 320 400H360Q364 384 364 360Q364 337 360 320Q364 304 364 280ZM276
177T276 200Q276 224 280 240Q276 257 276 280Q276 304 280 320Q276 337 276 360Q276 384 280 400H240Q236 417 236 440Q236 464 240 480H120Q124 464 124 440Q124 417 120 400Q124 384 124 360Q124 337 120 320Q124 304 124 280Q124 257 120 240Q124 224 124 200Q124
177 120 160Q124 144 124 120Q124 97 120 80H240Q236 97 236 120Q236 144 240 160H280Q276 177 276 200Z" />
<glyph unicode="E" glyph-name="E" d="M160 240Q164 224 164 200Q164 177 160 160Q164 144 164 120Q164 97 160 80H320Q324 64 324 40Q324 17 320 0H80Q76 17 76 40Q76 64 80 80Q76 97 76 120Q76 144 80 160Q76 177 76 200Q76 224 80 240Q76 257 76 280Q76 304
80 320Q76 337 76 360Q76 384 80 400Q76 417 76 440Q76 464 80 480Q76 497 76 520Q76 544 80 560H320Q324 544 324 520Q324 497 320 480H160Q164 464 164 440Q164 417 160 400Q164 384 164 360Q164 337 160 320H320Q324 304 324 280Q324 257 320 240H160Z" />
<glyph unicode="F" glyph-name="F" d="M324 304T324 280Q324 257 320 240H160Q164 224 164 200Q164 177 160 160Q164 144 164 120Q164 97 160 80Q164 64 164 40Q164 17 160 0H80Q76 17 76 40Q76 64 80 80Q76 97 76 120Q76 144 80 160Q76 177 76 200Q76 224 80
240Q76 257 76 280Q76 304 80 320Q76 337 76 360Q76 384 80 400Q76 417 76 440Q76 464 80 480Q76 497 76 520Q76 544 80 560H320Q324 544 324 520Q324 497 320 480H160Q164 464 164 440Q164 417 160 400Q164 384 164 360Q164 337 160 320H320Q324 304 324 280Z"
/>
<glyph unicode="G" glyph-name="G" d="M364 304T364 280Q364 257 360 240Q364 224 364 200Q364 177 360 160Q364 144 364 120Q364 97 360 80H320Q324 64 324 40Q324 17 320 0H120Q116 17 116 40Q116 64 120 80H80Q76 97 76 120Q76 144 80 160H40Q36 177 36 200Q36
224 40 240Q36 257 36 280Q36 304 40 320Q36 337 36 360Q36 384 40 400H80Q76 417 76 440Q76 464 80 480H120Q116 497 116 520Q116 544 120 560H320Q324 544 324 520Q324 497 320 480H360Q364 464 364 440Q364 417 360 400H280Q276 417 276 440Q276 464 280 480H160Q164
464 164 440Q164 417 160 400H120Q124 384 124 360Q124 337 120 320Q124 304 124 280Q124 257 120 240Q124 224 124 200Q124 177 120 160H160Q164 144 164 120Q164 97 160 80H280Q276 97 276 120Q276 144 280 160Q276 177 276 200Q276 224 280 240H220Q216 257
216 280Q216 304 220 320H360Q364 304 364 280Z" />
<glyph unicode="H" glyph-name="H" d="M364 464T364 440Q364 417 360 400Q364 384 364 360Q364 337 360 320Q364 304 364 280Q364 257 360 240Q364 224 364 200Q364 177 360 160Q364 144 364 120Q364 97 360 80Q364 64 364 40Q364 17 360 0H280Q276 17 276 40Q276
64 280 80Q276 97 276 120Q276 144 280 160Q276 177 276 200Q276 224 280 240H120Q124 224 124 200Q124 177 120 160Q124 144 124 120Q124 97 120 80Q124 64 124 40Q124 17 120 0H40Q36 17 36 40Q36 64 40 80Q36 97 36 120Q36 144 40 160Q36 177 36 200Q36 224
40 240Q36 257 36 280Q36 304 40 320Q36 337 36 360Q36 384 40 400Q36 417 36 440Q36 464 40 480Q36 497 36 520Q36 544 40 560H120Q124 544 124 520Q124 497 120 480Q124 464 124 440Q124 417 120 400Q124 384 124 360Q124 337 120 320H280Q276 337 276 360Q276
384 280 400Q276 417 276 440Q276 464 280 480Q276 497 276 520Q276 544 280 560H360Q364 544 364 520Q364 497 360 480Q364 464 364 440Z" />
<glyph unicode="I" glyph-name="I" d="M300 80Q304 64 304 40Q304 17 300 0H100Q96 17 96 40Q96 64 100 80H160Q156 97 156 120Q156 144 160 160Q156 177 156 200Q156 224 160 240Q156 257 156 280Q156 304 160 320Q156 337 156 360Q156 384 160 400Q156 417 156
440Q156 464 160 480H100Q96 497 96 520Q96 544 100 560H300Q304 544 304 520Q304 497 300 480H240Q244 464 244 440Q244 417 240 400Q244 384 244 360Q244 337 240 320Q244 304 244 280Q244 257 240 240Q244 224 244 200Q244 177 240 160Q244 144 244 120Q244
97 240 80H300Z" />
<glyph unicode="J" glyph-name="J" d="M344 497T340 480H280Q284 464 284 440Q284 417 280 400Q284 384 284 360Q284 337 280 320Q284 304 284 280Q284 257 280 240Q284 224 284 200Q284 177 280 160Q284 144 284 120Q284 97 280 80H240Q244 64 244 40Q244 17
240 0H80Q76 17 76 40Q76 64 80 80H40Q36 97 36 120Q36 144 40 160H120Q124 144 124 120Q124 97 120 80H200Q196 97 196 120Q196 144 200 160Q196 177 196 200Q196 224 200 240Q196 257 196 280Q196 304 200 320Q196 337 196 360Q196 384 200 400Q196 417 196 440Q196
464 200 480H140Q136 497 136 520Q136 544 140 560H340Q344 544 344 520Q344 497 340 480Z" />
<glyph unicode="K" glyph-name="K" d="M360 80Q364 64 364 40Q364 17 360 0H280Q276 17 276 40Q276 64 280 80H250Q246 97 246 120Q246 144 250 160H190Q186 177 186 200Q186 224 190 240H120Q124 224 124 200Q124 177 120 160Q124 144 124 120Q124 97 120 80Q124
64 124 40Q124 17 120 0H40Q36 17 36 40Q36 64 40 80Q36 97 36 120Q36 144 40 160Q36 177 36 200Q36 224 40 240Q36 257 36 280Q36 304 40 320Q36 337 36 360Q36 384 40 400Q36 417 36 440Q36 464 40 480Q36 497 36 520Q36 544 40 560H120Q124 544 124 520Q124
497 120 480Q124 464 124 440Q124 417 120 400Q124 384 124 360Q124 337 120 320H190Q186 337 186 360Q186 384 190 400H250Q246 417 246 440Q246 464 250 480H280Q276 497 276 520Q276 544 280 560H360Q364 544 364 520Q364 497 360 480H330Q334 464 334 440Q334
417 330 400H270Q274 384 274 360Q274 337 270 320H220Q224 304 224 280Q224 257 220 240H270Q274 224 274 200Q274 177 270 160H330Q334 144 334 120Q334 97 330 80H360Z" />
<glyph unicode="L" glyph-name="L" d="M364 64T364 40Q364 17 360 0H80Q76 17 76 40Q76 64 80 80Q76 97 76 120Q76 144 80 160Q76 177 76 200Q76 224 80 240Q76 257 76 280Q76 304 80 320Q76 337 76 360Q76 384 80 400Q76 417 76 440Q76 464 80 480Q76 497 76
520Q76 544 80 560H160Q164 544 164 520Q164 497 160 480Q164 464 164 440Q164 417 160 400Q164 384 164 360Q164 337 160 320Q164 304 164 280Q164 257 160 240Q164 224 164 200Q164 177 160 160Q164 144 164 120Q164 97 160 80H360Q364 64 364 40Z" />
<glyph unicode="M" glyph-name="M" d="M364 464T364 440Q364 417 360 400Q364 384 364 360Q364 337 360 320Q364 304 364 280Q364 257 360 240Q364 224 364 200Q364 177 360 160Q364 144 364 120Q364 97 360 80Q364 64 364 40Q364 17 360 0H280Q276 17 276 40Q276
64 280 80Q276 97 276 120Q276 144 280 160Q276 177 276 200Q276 224 280 240Q276 257 276 280Q276 304 280 320Q276 337 276 360Q276 384 280 400H250Q254 384 254 360Q254 337 250 320Q254 304 254 280Q254 257 250 240H230Q234 224 234 200Q234 177 230 160Q234
144 234 120Q234 97 230 80H170Q166 97 166 120Q166 144 170 160Q166 177 166 200Q166 224 170 240H150Q146 257 146 280Q146 304 150 320Q146 337 146 360Q146 384 150 400H120Q124 384 124 360Q124 337 120 320Q124 304 124 280Q124 257 120 240Q124 224 124
200Q124 177 120 160Q124 144 124 120Q124 97 120 80Q124 64 124 40Q124 17 120 0H40Q36 17 36 40Q36 64 40 80Q36 97 36 120Q36 144 40 160Q36 177 36 200Q36 224 40 240Q36 257 36 280Q36 304 40 320Q36 337 36 360Q36 384 40 400Q36 417 36 440Q36 464 40 480Q36
497 36 520Q36 544 40 560H140Q144 544 144 520Q144 497 140 480H170Q174 464 174 440Q174 417 170 400H185Q189 384 189 360Q189 337 185 320H215Q211 337 211 360Q211 384 215 400H230Q226 417 226 440Q226 464 230 480H260Q256 497 256 520Q256 544 260 560H360Q364
544 364 520Q364 497 360 480Q364 464 364 440Z" />
<glyph unicode="N" glyph-name="N" d="M364 464T364 440Q364 417 360 400Q364 384 364 360Q364 337 360 320Q364 304 364 280Q364 257 360 240Q364 224 364 200Q364 177 360 160Q364 144 364 120Q364 97 360 80Q364 64 364 40Q364 17 360 0H280Q276 17 276 40Q276
64 280 80H230Q226 97 226 120Q226 144 230 160H200Q196 177 196 200Q196 224 200 240H160Q156 257 156 280Q156 304 160 320H120Q124 304 124 280Q124 257 120 240Q124 224 124 200Q124 177 120 160Q124 144 124 120Q124 97 120 80Q124 64 124 40Q124 17 120 0H40Q36
17 36 40Q36 64 40 80Q36 97 36 120Q36 144 40 160Q36 177 36 200Q36 224 40 240Q36 257 36 280Q36 304 40 320Q36 337 36 360Q36 384 40 400Q36 417 36 440Q36 464 40 480Q36 497 36 520Q36 544 40 560H140Q144 544 144 520Q144 497 140 480H170Q174 464 174 440Q174
417 170 400H200Q204 384 204 360Q204 337 200 320H240Q244 304 244 280Q244 257 240 240H280Q276 257 276 280Q276 304 280 320Q276 337 276 360Q276 384 280 400Q276 417 276 440Q276 464 280 480Q276 497 276 520Q276 544 280 560H360Q364 544 364 520Q364 497
360 480Q364 464 364 440Z" />
<glyph unicode="O" glyph-name="O" d="M364 304T364 280Q364 257 360 240Q364 224 364 200Q364 177 360 160H330Q334 144 334 120Q334 97 330 80H280Q284 64 284 40Q284 17 280 0H120Q116 17 116 40Q116 64 120 80H70Q66 97 66 120Q66 144 70 160H40Q36 177 36
200Q36 224 40 240Q36 257 36 280Q36 304 40 320Q36 337 36 360Q36 384 40 400H70Q66 417 66 440Q66 464 70 480H120Q116 497 116 520Q116 544 120 560H280Q284 544 284 520Q284 497 280 480H330Q334 464 334 440Q334 417 330 400H360Q364 384 364 360Q364 337
360 320Q364 304 364 280ZM276 177T276 200Q276 224 280 240Q276 257 276 280Q276 304 280 320Q276 337 276 360Q276 384 280 400H250Q246 417 246 440Q246 464 250 480H150Q154 464 154 440Q154 417 150 400H120Q124 384 124 360Q124 337 120 320Q124 304 124
280Q124 257 120 240Q124 224 124 200Q124 177 120 160H150Q154 144 154 120Q154 97 150 80H250Q246 97 246 120Q246 144 250 160H280Q276 177 276 200Z" />
<glyph unicode="P" glyph-name="P" d="M364 417T360 400Q364 384 364 360Q364 337 360 320H320Q324 304 324 280Q324 257 320 240H120Q124 224 124 200Q124 177 120 160Q124 144 124 120Q124 97 120 80Q124 64 124 40Q124 17 120 0H40Q36 17 36 40Q36 64 40 80Q36
97 36 120Q36 144 40 160Q36 177 36 200Q36 224 40 240Q36 257 36 280Q36 304 40 320Q36 337 36 360Q36 384 40 400Q36 417 36 440Q36 464 40 480Q36 497 36 520Q36 544 40 560H320Q324 544 324 520Q324 497 320 480H360Q364 464 364 440Q364 417 360 400ZM276
337T276 360Q276 384 280 400Q276 417 276 440Q276 464 280 480H120Q124 464 124 440Q124 417 120 400Q124 384 124 360Q124 337 120 320H280Q276 337 276 360Z" />
<glyph unicode="Q" glyph-name="Q" d="M364 304T364 280Q364 257 360 240Q364 224 364 200Q364 177 360 160H330Q334 144 334 120Q334 97 330 80H280Q284 64 284 40Q284 17 280 0H320Q324 -16 324 -40Q324 -63 320 -80H360Q364 -96 364 -120Q364 -143 360 -160H280Q276
-143 276 -120Q276 -96 280 -80H240Q236 -63 236 -40Q236 -16 240 0H120Q116 17 116 40Q116 64 120 80H70Q66 97 66 120Q66 144 70 160H40Q36 177 36 200Q36 224 40 240Q36 257 36 280Q36 304 40 320Q36 337 36 360Q36 384 40 400H70Q66 417 66 440Q66 464 70 480H120Q116
497 116 520Q116 544 120 560H280Q284 544 284 520Q284 497 280 480H330Q334 464 334 440Q334 417 330 400H360Q364 384 364 360Q364 337 360 320Q364 304 364 280ZM276 177T276 200Q276 224 280 240Q276 257 276 280Q276 304 280 320Q276 337 276 360Q276 384
280 400H250Q246 417 246 440Q246 464 250 480H150Q154 464 154 440Q154 417 150 400H120Q124 384 124 360Q124 337 120 320Q124 304 124 280Q124 257 120 240Q124 224 124 200Q124 177 120 160H150Q154 144 154 120Q154 97 150 80H250Q246 97 246 120Q246 144
250 160H280Q276 177 276 200Z" />
<glyph unicode="R" glyph-name="R" d="M360 80Q364 64 364 40Q364 17 360 0H280Q276 17 276 40Q276 64 280 80H250Q246 97 246 120Q246 144 250 160H220Q216 177 216 200Q216 224 220 240H120Q124 224 124 200Q124 177 120 160Q124 144 124 120Q124 97 120 80Q124
64 124 40Q124 17 120 0H40Q36 17 36 40Q36 64 40 80Q36 97 36 120Q36 144 40 160Q36 177 36 200Q36 224 40 240Q36 257 36 280Q36 304 40 320Q36 337 36 360Q36 384 40 400Q36 417 36 440Q36 464 40 480Q36 497 36 520Q36 544 40 560H320Q324 544 324 520Q324
497 320 480H360Q364 464 364 440Q364 417 360 400H340Q344 384 344 360Q344 337 340 320H280Q284 304 284 280Q284 257 280 240H300Q304 224 304 200Q304 177 300 160H330Q334 144 334 120Q334 97 330 80H360ZM256 337T256 360Q256 384 260 400Q256 417 256 440Q256
464 260 480H120Q124 464 124 440Q124 417 120 400Q124 384 124 360Q124 337 120 320H260Q256 337 256 360Z" />
<glyph unicode="S" glyph-name="S" d="M364 224T364 200Q364 177 360 160Q364 144 364 120Q364 97 360 80H320Q324 64 324 40Q324 17 320 0H80Q76 17 76 40Q76 64 80 80H40Q36 97 36 120Q36 144 40 160H120Q124 144 124 120Q124 97 120 80H280Q276 97 276 120Q276
144 280 160Q276 177 276 200Q276 224 280 240H80Q76 257 76 280Q76 304 80 320H40Q36 337 36 360Q36 384 40 400Q36 417 36 440Q36 464 40 480H80Q76 497 76 520Q76 544 80 560H320Q324 544 324 520Q324 497 320 480H360Q364 464 364 440Q364 417 360 400H280Q276
417 276 440Q276 464 280 480H120Q124 464 124 440Q124 417 120 400Q124 384 124 360Q124 337 120 320H320Q324 304 324 280Q324 257 320 240H360Q364 224 364 200Z" />
<glyph unicode="T" glyph-name="T" d="M364 497T360 480H240Q244 464 244 440Q244 417 240 400Q244 384 244 360Q244 337 240 320Q244 304 244 280Q244 257 240 240Q244 224 244 200Q244 177 240 160Q244 144 244 120Q244 97 240 80Q244 64 244 40Q244 17 240
0H160Q156 17 156 40Q156 64 160 80Q156 97 156 120Q156 144 160 160Q156 177 156 200Q156 224 160 240Q156 257 156 280Q156 304 160 320Q156 337 156 360Q156 384 160 400Q156 417 156 440Q156 464 160 480H40Q36 497 36 520Q36 544 40 560H360Q364 544 364 520Q364
497 360 480Z" />
<glyph unicode="U" glyph-name="U" d="M364 464T364 440Q364 417 360 400Q364 384 364 360Q364 337 360 320Q364 304 364 280Q364 257 360 240Q364 224 364 200Q364 177 360 160Q364 144 364 120Q364 97 360 80H320Q324 64 324 40Q324 17 320 0H80Q76 17 76 40Q76
64 80 80H40Q36 97 36 120Q36 144 40 160Q36 177 36 200Q36 224 40 240Q36 257 36 280Q36 304 40 320Q36 337 36 360Q36 384 40 400Q36 417 36 440Q36 464 40 480Q36 497 36 520Q36 544 40 560H120Q124 544 124 520Q124 497 120 480Q124 464 124 440Q124 417 120
400Q124 384 124 360Q124 337 120 320Q124 304 124 280Q124 257 120 240Q124 224 124 200Q124 177 120 160Q124 144 124 120Q124 97 120 80H280Q276 97 276 120Q276 144 280 160Q276 177 276 200Q276 224 280 240Q276 257 276 280Q276 304 280 320Q276 337 276
360Q276 384 280 400Q276 417 276 440Q276 464 280 480Q276 497 276 520Q276 544 280 560H360Q364 544 364 520Q364 497 360 480Q364 464 364 440Z" />
<glyph unicode="V" glyph-name="V" d="M364 464T364 440Q364 417 360 400Q364 384 364 360Q364 337 360 320H330Q334 304 334 280Q334 257 330 240H300Q304 224 304 200Q304 177 300 160H280Q284 144 284 120Q284 97 280 80H240Q244 64 244 40Q244 17 240 0H160Q156
17 156 40Q156 64 160 80H120Q116 97 116 120Q116 144 120 160H100Q96 177 96 200Q96 224 100 240H70Q66 257 66 280Q66 304 70 320H40Q36 337 36 360Q36 384 40 400Q36 417 36 440Q36 464 40 480Q36 497 36 520Q36 544 40 560H120Q124 544 124 520Q124 497 120
480Q124 464 124 440Q124 417 120 400Q124 384 124 360Q124 337 120 320H150Q154 304 154 280Q154 257 150 240H180Q184 224 184 200Q184 177 180 160H220Q216 177 216 200Q216 224 220 240H250Q246 257 246 280Q246 304 250 320H280Q276 337 276 360Q276 384 280
400Q276 417 276 440Q276 464 280 480Q276 497 276 520Q276 544 280 560H360Q364 544 364 520Q364 497 360 480Q364 464 364 440Z" />
<glyph unicode="W" glyph-name="W" d="M364 464T364 440Q364 417 360 400Q364 384 364 360Q364 337 360 320Q364 304 364 280Q364 257 360 240H330Q334 224 334 200Q334 177 330 160Q334 144 334 120Q334 97 330 80H310Q314 64 314 40Q314 17 310 0H250Q246 17
246 40Q246 64 250 80H230Q226 97 226 120Q226 144 230 160H170Q174 144 174 120Q174 97 170 80H150Q154 64 154 40Q154 17 150 0H90Q86 17 86 40Q86 64 90 80H70Q66 97 66 120Q66 144 70 160Q66 177 66 200Q66 224 70 240H40Q36 257 36 280Q36 304 40 320Q36 337
36 360Q36 384 40 400Q36 417 36 440Q36 464 40 480Q36 497 36 520Q36 544 40 560H120Q124 544 124 520Q124 497 120 480Q124 464 124 440Q124 417 120 400Q124 384 124 360Q124 337 120 320Q124 304 124 280Q124 257 120 240Q124 224 124 200Q124 177 120 160H150Q146
177 146 200Q146 224 150 240H170Q166 257 166 280Q166 304 170 320Q166 337 166 360Q166 384 170 400Q166 417 166 440Q166 464 170 480Q166 497 166 520Q166 544 170 560H230Q234 544 234 520Q234 497 230 480Q234 464 234 440Q234 417 230 400Q234 384 234 360Q234
337 230 320Q234 304 234 280Q234 257 230 240H250Q254 224 254 200Q254 177 250 160H280Q276 177 276 200Q276 224 280 240Q276 257 276 280Q276 304 280 320Q276 337 276 360Q276 384 280 400Q276 417 276 440Q276 464 280 480Q276 497 276 520Q276 544 280 560H360Q364
544 364 520Q364 497 360 480Q364 464 364 440Z" />
<glyph unicode="X" glyph-name="X" d="M360 80Q364 64 364 40Q364 17 360 0H280Q276 17 276 40Q276 64 280 80H250Q246 97 246 120Q246 144 250 160H230Q226 177 226 200Q226 224 230 240H170Q174 224 174 200Q174 177 170 160H150Q154 144 154 120Q154 97 150
80H120Q124 64 124 40Q124 17 120 0H40Q36 17 36 40Q36 64 40 80H70Q66 97 66 120Q66 144 70 160H110Q106 177 106 200Q106 224 110 240H140Q136 257 136 280Q136 304 140 320H110Q106 337 106 360Q106 384 110 400H70Q66 417 66 440Q66 464 70 480H40Q36 497 36
520Q36 544 40 560H120Q124 544 124 520Q124 497 120 480H150Q154 464 154 440Q154 417 150 400H170Q174 384 174 360Q174 337 170 320H230Q226 337 226 360Q226 384 230 400H250Q246 417 246 440Q246 464 250 480H280Q276 497 276 520Q276 544 280 560H360Q364
544 364 520Q364 497 360 480H330Q334 464 334 440Q334 417 330 400H290Q294 384 294 360Q294 337 290 320H260Q264 304 264 280Q264 257 260 240H290Q294 224 294 200Q294 177 290 160H330Q334 144 334 120Q334 97 330 80H360Z" />
<glyph unicode="Y" glyph-name="Y" d="M364 497T360 480Q364 464 364 440Q364 417 360 400H320Q324 384 324 360Q324 337 320 320H280Q284 304 284 280Q284 257 280 240H240Q244 224 244 200Q244 177 240 160Q244 144 244 120Q244 97 240 80Q244 64 244 40Q244
17 240 0H160Q156 17 156 40Q156 64 160 80Q156 97 156 120Q156 144 160 160Q156 177 156 200Q156 224 160 240H120Q116 257 116 280Q116 304 120 320H80Q76 337 76 360Q76 384 80 400H40Q36 417 36 440Q36 464 40 480Q36 497 36 520Q36 544 40 560H120Q124 544
124 520Q124 497 120 480Q124 464 124 440Q124 417 120 400H160Q164 384 164 360Q164 337 160 320H240Q236 337 236 360Q236 384 240 400H280Q276 417 276 440Q276 464 280 480Q276 497 276 520Q276 544 280 560H360Q364 544 364 520Q364 497 360 480Z" />
<glyph unicode="Z" glyph-name="Z" d="M344 417T340 400H310Q314 384 314 360Q314 337 310 320H250Q254 304 254 280Q254 257 250 240H190Q194 224 194 200Q194 177 190 160H140Q144 144 144 120Q144 97 140 80H340Q344 64 344 40Q344 17 340 0H60Q56 17 56 40Q56
64 60 80Q56 97 56 120Q56 144 60 160H110Q106 177 106 200Q106 224 110 240H170Q166 257 166 280Q166 304 170 320H230Q226 337 226 360Q226 384 230 400H260Q256 417 256 440Q256 464 260 480H60Q56 497 56 520Q56 544 60 560H340Q344 544 344 520Q344 497 340
480Q344 464 344 440Q344 417 340 400Z" />
<glyph unicode="[" glyph-name="bracketleft" d="M280 0Q284 -16 284 -40Q284 -63 280 -80H140Q136 -63 136 -40Q136 -16 140 0Q136 17 136 40Q136 64 140 80Q136 97 136 120Q136 144 140 160Q136 177 136 200Q136 224 140 240Q136 257 136 280Q136 304 140 320Q136
337 136 360Q136 384 140 400Q136 417 136 440Q136 464 140 480Q136 497 136 520Q136 544 140 560Q136 577 136 600Q136 624 140 640H280Q284 624 284 600Q284 577 280 560H220Q224 544 224 520Q224 497 220 480Q224 464 224 440Q224 417 220 400Q224 384 224 360Q224
337 220 320Q224 304 224 280Q224 257 220 240Q224 224 224 200Q224 177 220 160Q224 144 224 120Q224 97 220 80Q224 64 224 40Q224 17 220 0H280Z" />
<glyph unicode="\" glyph-name="backslash" d="M364 -16T364 -40Q364 -63 360 -80H280Q276 -63 276 -40Q276 -16 280 0H250Q246 17 246 40Q246 64 250 80H220Q216 97 216 120Q216 144 220 160H190Q186 177 186 200Q186 224 190 240H160Q156 257 156 280Q156 304
160 320H130Q126 337 126 360Q126 384 130 400H100Q96 417 96 440Q96 464 100 480H70Q66 497 66 520Q66 544 70 560H40Q36 577 36 600Q36 624 40 640H120Q124 624 124 600Q124 577 120 560H150Q154 544 154 520Q154 497 150 480H180Q184 464 184 440Q184 417 180
400H210Q214 384 214 360Q214 337 210 320H240Q244 304 244 280Q244 257 240 240H270Q274 224 274 200Q274 177 270 160H300Q304 144 304 120Q304 97 300 80H330Q334 64 334 40Q334 17 330 0H360Q364 -16 364 -40Z" />
<glyph unicode="]" glyph-name="bracketright" d="M264 544T264 520Q264 497 260 480Q264 464 264 440Q264 417 260 400Q264 384 264 360Q264 337 260 320Q264 304 264 280Q264 257 260 240Q264 224 264 200Q264 177 260 160Q264 144 264 120Q264 97 260 80Q264
64 264 40Q264 17 260 0Q264 -16 264 -40Q264 -63 260 -80H120Q116 -63 116 -40Q116 -16 120 0H180Q176 17 176 40Q176 64 180 80Q176 97 176 120Q176 144 180 160Q176 177 176 200Q176 224 180 240Q176 257 176 280Q176 304 180 320Q176 337 176 360Q176 384 180
400Q176 417 176 440Q176 464 180 480Q176 497 176 520Q176 544 180 560H120Q116 577 116 600Q116 624 120 640H260Q264 624 264 600Q264 577 260 560Q264 544 264 520Z" />
<glyph unicode="^" glyph-name="asciicircum" d="M364 304T364 280Q364 257 360 240H280Q276 257 276 280Q276 304 280 320H240Q236 337 236 360Q236 384 240 400H160Q164 384 164 360Q164 337 160 320H120Q124 304 124 280Q124 257 120 240H40Q36 257 36 280Q36
304 40 320H80Q76 337 76 360Q76 384 80 400H120Q116 417 116 440Q116 464 120 480H160Q156 497 156 520Q156 544 160 560H240Q244 544 244 520Q244 497 240 480H280Q284 464 284 440Q284 417 280 400H320Q324 384 324 360Q324 337 320 320H360Q364 304 364 280Z"
/>
<glyph unicode="_" glyph-name="underscore" d="M364 64T364 40Q364 17 360 0H40Q36 17 36 40Q36 64 40 80H360Q364 64 364 40Z" />
<glyph unicode="`" glyph-name="grave" d="M244 544T244 520Q244 497 240 480H160Q156 497 156 520Q156 544 160 560H120Q116 577 116 600Q116 624 120 640H200Q204 624 204 600Q204 577 200 560H240Q244 544 244 520Z" />
<glyph unicode="a" glyph-name="a" d="M364 64T364 40Q364 17 360 0H280Q276 17 276 40Q276 64 280 80H240Q236 97 236 120Q236 144 240 160H120Q124 144 124 120Q124 97 120 80H240Q244 64 244 40Q244 17 240 0H80Q76 17 76 40Q76 64 80 80H40Q36 97 36 120Q36
144 40 160H80Q76 177 76 200Q76 224 80 240H240Q236 257 236 280Q236 304 240 320H100Q96 337 96 360Q96 384 100 400H280Q284 384 284 360Q284 337 280 320H320Q324 304 324 280Q324 257 320 240Q324 224 324 200Q324 177 320 160Q324 144 324 120Q324 97 320
80H360Q364 64 364 40Z" />
<glyph unicode="b" glyph-name="b" d="M124 144T124 120Q124 97 120 80H80Q84 64 84 40Q84 17 80 0H40Q36 17 36 40Q36 64 40 80Q36 97 36 120Q36 144 40 160Q36 177 36 200Q36 224 40 240Q36 257 36 280Q36 304 40 320Q36 337 36 360Q36 384 40 400Q36 417 36
440Q36 464 40 480Q36 497 36 520Q36 544 40 560H120Q124 544 124 520Q124 497 120 480Q124 464 124 440Q124 417 120 400Q124 384 124 360Q124 337 120 320H160Q164 304 164 280Q164 257 160 240H120Q124 224 124 200Q124 177 120 160Q124 144 124 120ZM364 177T360
160H320Q324 144 324 120Q324 97 320 80H240Q236 97 236 120Q236 144 240 160H280Q276 177 276 200Q276 224 280 240H240Q236 257 236 280Q236 304 240 320H160Q156 337 156 360Q156 384 160 400H280Q284 384 284 360Q284 337 280 320H320Q324 304 324 280Q324
257 320 240H360Q364 224 364 200Q364 177 360 160ZM116 64T120 80H240Q244 64 244 40Q244 17 240 0H120Q116 17 116 40Q116 64 120 80Z" />
<glyph unicode="c" glyph-name="c" d="M360 160Q364 144 364 120Q364 97 360 80H320Q324 64 324 40Q324 17 320 0H120Q116 17 116 40Q116 64 120 80H80Q76 97 76 120Q76 144 80 160H40Q36 177 36 200Q36 224 40 240H80Q76 257 76 280Q76 304 80 320H120Q116 337
116 360Q116 384 120 400H320Q324 384 324 360Q324 337 320 320H360Q364 304 364 280Q364 257 360 240H280Q276 257 276 280Q276 304 280 320H160Q164 304 164 280Q164 257 160 240H120Q124 224 124 200Q124 177 120 160H160Q164 144 164 120Q164 97 160 80H280Q276
97 276 120Q276 144 280 160H360Z" />
<glyph unicode="d" glyph-name="d" d="M364 464T364 440Q364 417 360 400Q364 384 364 360Q364 337 360 320Q364 304 364 280Q364 257 360 240Q364 224 364 200Q364 177 360 160Q364 144 364 120Q364 97 360 80Q364 64 364 40Q364 17 360 0H280Q276 17 276 40Q276
64 280 80H250Q246 97 246 120Q246 144 250 160H280Q276 177 276 200Q276 224 280 240H250Q246 257 246 280Q246 304 250 320H280Q276 337 276 360Q276 384 280 400Q276 417 276 440Q276 464 280 480Q276 497 276 520Q276 544 280 560H360Q364 544 364 520Q364
497 360 480Q364 464 364 440ZM234 337T230 320H130Q134 304 134 280Q134 257 130 240H100Q104 224 104 200Q104 177 100 160H130Q134 144 134 120Q134 97 130 80H230Q234 64 234 40Q234 17 230 0H120Q116 17 116 40Q116 64 120 80H70Q66 97 66 120Q66 144 70 160H40Q36
177 36 200Q36 224 40 240H70Q66 257 66 280Q66 304 70 320H120Q116 337 116 360Q116 384 120 400H230Q234 384 234 360Q234 337 230 320Z" />
<glyph unicode="e" glyph-name="e" d="M364 257T360 240Q364 224 364 200Q364 177 360 160H150Q154 144 154 120Q154 97 150 80H320Q324 64 324 40Q324 17 320 0H120Q116 17 116 40Q116 64 120 80H70Q66 97 66 120Q66 144 70 160H40Q36 177 36 200Q36 224 40 240H70Q66
257 66 280Q66 304 70 320H120Q116 337 116 360Q116 384 120 400H320Q324 384 324 360Q324 337 320 320H360Q364 304 364 280Q364 257 360 240ZM276 257T276 280Q276 304 280 320H150Q154 304 154 280Q154 257 150 240H280Q276 257 276 280Z" />
<glyph unicode="f" glyph-name="f" d="M320 400Q324 384 324 360Q324 337 320 320H200Q204 304 204 280Q204 257 200 240Q204 224 204 200Q204 177 200 160Q204 144 204 120Q204 97 200 80H280Q284 64 284 40Q284 17 280 0H80Q76 17 76 40Q76 64 80 80H120Q116
97 116 120Q116 144 120 160Q116 177 116 200Q116 224 120 240Q116 257 116 280Q116 304 120 320H80Q76 337 76 360Q76 384 80 400H120Q116 417 116 440Q116 464 120 480H160Q156 497 156 520Q156 544 160 560H320Q324 544 324 520Q324 497 320 480H200Q204 464
204 440Q204 417 200 400H320Z" />
<glyph unicode="g" glyph-name="g" d="M364 304T364 280Q364 257 360 240Q364 224 364 200Q364 177 360 160Q364 144 364 120Q364 97 360 80Q364 64 364 40Q364 17 360 0H320Q324 -16 324 -40Q324 -63 320 -80H280Q284 -96 284 -120Q284 -143 280 -160H120Q116
-143 116 -120Q116 -96 120 -80H240Q236 -63 236 -40Q236 -16 240 0H280Q276 17 276 40Q276 64 280 80H240Q236 97 236 120Q236 144 240 160H280Q276 177 276 200Q276 224 280 240Q276 257 276 280Q276 304 280 320H150Q154 304 154 280Q154 257 150 240H120Q124
224 124 200Q124 177 120 160H150Q154 144 154 120Q154 97 150 80H240Q244 64 244 40Q244 17 240 0H120Q116 17 116 40Q116 64 120 80H70Q66 97 66 120Q66 144 70 160H40Q36 177 36 200Q36 224 40 240H70Q66 257 66 280Q66 304 70 320H120Q116 337 116 360Q116
384 120 400H360Q364 384 364 360Q364 337 360 320Q364 304 364 280Z" />
<glyph unicode="h" glyph-name="h" d="M124 337T120 320H150Q154 304 154 280Q154 257 150 240H120Q124 224 124 200Q124 177 120 160Q124 144 124 120Q124 97 120 80Q124 64 124 40Q124 17 120 0H40Q36 17 36 40Q36 64 40 80Q36 97 36 120Q36 144 40 160Q36 177
36 200Q36 224 40 240Q36 257 36 280Q36 304 40 320Q36 337 36 360Q36 384 40 400Q36 417 36 440Q36 464 40 480Q36 497 36 520Q36 544 40 560H120Q124 544 124 520Q124 497 120 480Q124 464 124 440Q124 417 120 400Q124 384 124 360Q124 337 120 320ZM364 224T364
200Q364 177 360 160Q364 144 364 120Q364 97 360 80Q364 64 364 40Q364 17 360 0H280Q276 17 276 40Q276 64 280 80Q276 97 276 120Q276 144 280 160Q276 177 276 200Q276 224 280 240Q276 257 276 280Q276 304 280 320H150Q146 337 146 360Q146 384 150 400H310Q314
384 314 360Q314 337 310 320H360Q364 304 364 280Q364 257 360 240Q364 224 364 200Z" />
<glyph unicode="i" glyph-name="i" d="M160 480Q156 497 156 520Q156 544 160 560H240Q244 544 244 520Q244 497 240 480H160ZM324 64T324 40Q324 17 320 0H80Q76 17 76 40Q76 64 80 80H160Q156 97 156 120Q156 144 160 160Q156 177 156 200Q156 224 160 240Q156
257 156 280Q156 304 160 320H100Q96 337 96 360Q96 384 100 400H240Q244 384 244 360Q244 337 240 320Q244 304 244 280Q244 257 240 240Q244 224 244 200Q244 177 240 160Q244 144 244 120Q244 97 240 80H320Q324 64 324 40Z" />
<glyph unicode="j" glyph-name="j" d="M200 480Q196 497 196 520Q196 544 200 560H280Q284 544 284 520Q284 497 280 480H200ZM284 384T284 360Q284 337 280 320Q284 304 284 280Q284 257 280 240Q284 224 284 200Q284 177 280 160Q284 144 284 120Q284 97 280
80Q284 64 284 40Q284 17 280 0H240Q244 -16 244 -40Q244 -63 240 -80H200Q204 -96 204 -120Q204 -143 200 -160H80Q76 -143 76 -120Q76 -96 80 -80H160Q156 -63 156 -40Q156 -16 160 0H200Q196 17 196 40Q196 64 200 80Q196 97 196 120Q196 144 200 160Q196 177
196 200Q196 224 200 240Q196 257 196 280Q196 304 200 320H120Q116 337 116 360Q116 384 120 400H280Q284 384 284 360Z" />
<glyph unicode="k" glyph-name="k" d="M364 64T364 40Q364 17 360 0H220Q216 17 216 40Q216 64 220 80H180Q176 97 176 120Q176 144 180 160H120Q124 144 124 120Q124 97 120 80Q124 64 124 40Q124 17 120 0H40Q36 17 36 40Q36 64 40 80Q36 97 36 120Q36 144 40
160Q36 177 36 200Q36 224 40 240Q36 257 36 280Q36 304 40 320Q36 337 36 360Q36 384 40 400Q36 417 36 440Q36 464 40 480Q36 497 36 520Q36 544 40 560H120Q124 544 124 520Q124 497 120 480Q124 464 124 440Q124 417 120 400Q124 384 124 360Q124 337 120 320Q124
304 124 280Q124 257 120 240H180Q176 257 176 280Q176 304 180 320H220Q216 337 216 360Q216 384 220 400H340Q344 384 344 360Q344 337 340 320H260Q264 304 264 280Q264 257 260 240H220Q224 224 224 200Q224 177 220 160H260Q264 144 264 120Q264 97 260 80H360Q364
64 364 40Z" />
<glyph unicode="l" glyph-name="l" d="M324 64T324 40Q324 17 320 0H80Q76 17 76 40Q76 64 80 80H160Q156 97 156 120Q156 144 160 160Q156 177 156 200Q156 224 160 240Q156 257 156 280Q156 304 160 320Q156 337 156 360Q156 384 160 400Q156 417 156 440Q156
464 160 480H100Q96 497 96 520Q96 544 100 560H240Q244 544 244 520Q244 497 240 480Q244 464 244 440Q244 417 240 400Q244 384 244 360Q244 337 240 320Q244 304 244 280Q244 257 240 240Q244 224 244 200Q244 177 240 160Q244 144 244 120Q244 97 240 80H320Q324
64 324 40Z" />
<glyph unicode="m" glyph-name="m" d="M94 337T90 320H120Q124 304 124 280Q124 257 120 240Q124 224 124 200Q124 177 120 160Q124 144 124 120Q124 97 120 80Q124 64 124 40Q124 17 120 0H40Q36 17 36 40Q36 64 40 80Q36 97 36 120Q36 144 40 160Q36 177 36
200Q36 224 40 240Q36 257 36 280Q36 304 40 320Q36 337 36 360Q36 384 40 400H90Q94 384 94 360Q94 337 90 320ZM204 337T200 320H230Q234 304 234 280Q234 257 230 240Q234 224 234 200Q234 177 230 160Q234 144 234 120Q234 97 230 80Q234 64 234 40Q234 17
230 0H170Q166 17 166 40Q166 64 170 80Q166 97 166 120Q166 144 170 160Q166 177 166 200Q166 224 170 240Q166 257 166 280Q166 304 170 320H120Q116 337 116 360Q116 384 120 400H200Q204 384 204 360Q204 337 200 320ZM364 224T364 200Q364 177 360 160Q364
144 364 120Q364 97 360 80Q364 64 364 40Q364 17 360 0H280Q276 17 276 40Q276 64 280 80Q276 97 276 120Q276 144 280 160Q276 177 276 200Q276 224 280 240Q276 257 276 280Q276 304 280 320H230Q226 337 226 360Q226 384 230 400H320Q324 384 324 360Q324 337
320 320H360Q364 304 364 280Q364 257 360 240Q364 224 364 200Z" />
<glyph unicode="n" glyph-name="n" d="M114 337T110 320H150Q154 304 154 280Q154 257 150 240H120Q124 224 124 200Q124 177 120 160Q124 144 124 120Q124 97 120 80Q124 64 124 40Q124 17 120 0H40Q36 17 36 40Q36 64 40 80Q36 97 36 120Q36 144 40 160Q36 177
36 200Q36 224 40 240Q36 257 36 280Q36 304 40 320Q36 337 36 360Q36 384 40 400H110Q114 384 114 360Q114 337 110 320ZM364 224T364 200Q364 177 360 160Q364 144 364 120Q364 97 360 80Q364 64 364 40Q364 17 360 0H280Q276 17 276 40Q276 64 280 80Q276 97
276 120Q276 144 280 160Q276 177 276 200Q276 224 280 240Q276 257 276 280Q276 304 280 320H150Q146 337 146 360Q146 384 150 400H310Q314 384 314 360Q314 337 310 320H360Q364 304 364 280Q364 257 360 240Q364 224 364 200Z" />
<glyph unicode="o" glyph-name="o" d="M364 177T360 160H330Q334 144 334 120Q334 97 330 80H280Q284 64 284 40Q284 17 280 0H120Q116 17 116 40Q116 64 120 80H70Q66 97 66 120Q66 144 70 160H40Q36 177 36 200Q36 224 40 240H70Q66 257 66 280Q66 304 70 320H120Q116
337 116 360Q116 384 120 400H280Q284 384 284 360Q284 337 280 320H330Q334 304 334 280Q334 257 330 240H360Q364 224 364 200Q364 177 360 160ZM280 160Q276 177 276 200Q276 224 280 240H250Q246 257 246 280Q246 304 250 320H150Q154 304 154 280Q154 257
150 240H120Q124 224 124 200Q124 177 120 160H150Q154 144 154 120Q154 97 150 80H250Q246 97 246 120Q246 144 250 160H280Z" />
<glyph unicode="p" glyph-name="p" d="M364 177T360 160H320Q324 144 324 120Q324 97 320 80H280Q284 64 284 40Q284 17 280 0H120Q124 -16 124 -40Q124 -63 120 -80Q124 -96 124 -120Q124 -143 120 -160H40Q36 -143 36 -120Q36 -96 40 -80Q36 -63 36 -40Q36 -16
40 0Q36 17 36 40Q36 64 40 80Q36 97 36 120Q36 144 40 160Q36 177 36 200Q36 224 40 240Q36 257 36 280Q36 304 40 320Q36 337 36 360Q36 384 40 400H120Q124 384 124 360Q124 337 120 320H160Q164 304 164 280Q164 257 160 240H120Q124 224 124 200Q124 177 120
160Q124 144 124 120Q124 97 120 80H240Q236 97 236 120Q236 144 240 160H280Q276 177 276 200Q276 224 280 240H240Q236 257 236 280Q236 304 240 320H160Q156 337 156 360Q156 384 160 400H280Q284 384 284 360Q284 337 280 320H320Q324 304 324 280Q324 257
320 240H360Q364 224 364 200Q364 177 360 160Z" />
<glyph unicode="q" glyph-name="q" d="M364 304T364 280Q364 257 360 240Q364 224 364 200Q364 177 360 160Q364 144 364 120Q364 97 360 80Q364 64 364 40Q364 17 360 0Q364 -16 364 -40Q364 -63 360 -80Q364 -96 364 -120Q364 -143 360 -160H280Q276 -143 276
-120Q276 -96 280 -80Q276 -63 276 -40Q276 -16 280 0Q276 17 276 40Q276 64 280 80H240Q236 97 236 120Q236 144 240 160H280Q276 177 276 200Q276 224 280 240Q276 257 276 280Q276 304 280 320H160Q164 304 164 280Q164 257 160 240H120Q124 224 124 200Q124
177 120 160H160Q164 144 164 120Q164 97 160 80H240Q244 64 244 40Q244 17 240 0H120Q116 17 116 40Q116 64 120 80H80Q76 97 76 120Q76 144 80 160H40Q36 177 36 200Q36 224 40 240H80Q76 257 76 280Q76 304 80 320H120Q116 337 116 360Q116 384 120 400H360Q364
384 364 360Q364 337 360 320Q364 304 364 280Z" />
<glyph unicode="r" glyph-name="r" d="M364 304T364 280Q364 257 360 240H280Q276 257 276 280Q276 304 280 320H210Q214 304 214 280Q214 257 210 240H180Q184 224 184 200Q184 177 180 160Q184 144 184 120Q184 97 180 80H240Q244 64 244 40Q244 17 240 0H40Q36
17 36 40Q36 64 40 80H100Q96 97 96 120Q96 144 100 160Q96 177 96 200Q96 224 100 240Q96 257 96 280Q96 304 100 320H40Q36 337 36 360Q36 384 40 400H140Q144 384 144 360Q144 337 140 320H180Q176 337 176 360Q176 384 180 400H330Q334 384 334 360Q334 337
330 320H360Q364 304 364 280Z" />
<glyph unicode="s" glyph-name="s" d="M344 97T340 80H300Q304 64 304 40Q304 17 300 0H80Q76 17 76 40Q76 64 80 80H260Q256 97 256 120Q256 144 260 160H100Q96 177 96 200Q96 224 100 240H60Q56 257 56 280Q56 304 60 320H100Q96 337 96 360Q96 384 100 400H320Q324
384 324 360Q324 337 320 320H140Q144 304 144 280Q144 257 140 240H300Q304 224 304 200Q304 177 300 160H340Q344 144 344 120Q344 97 340 80Z" />
<glyph unicode="t" glyph-name="t" d="M320 80Q324 64 324 40Q324 17 320 0H160Q156 17 156 40Q156 64 160 80H120Q116 97 116 120Q116 144 120 160Q116 177 116 200Q116 224 120 240Q116 257 116 280Q116 304 120 320H40Q36 337 36 360Q36 384 40 400H120Q116
417 116 440Q116 464 120 480Q116 497 116 520Q116 544 120 560H200Q204 544 204 520Q204 497 200 480Q204 464 204 440Q204 417 200 400H320Q324 384 324 360Q324 337 320 320H200Q204 304 204 280Q204 257 200 240Q204 224 204 200Q204 177 200 160Q204 144 204
120Q204 97 200 80H320Z" />
<glyph unicode="u" glyph-name="u" d="M154 97T150 80H250Q254 64 254 40Q254 17 250 0H90Q86 17 86 40Q86 64 90 80H40Q36 97 36 120Q36 144 40 160Q36 177 36 200Q36 224 40 240Q36 257 36 280Q36 304 40 320Q36 337 36 360Q36 384 40 400H120Q124 384 124 360Q124
337 120 320Q124 304 124 280Q124 257 120 240Q124 224 124 200Q124 177 120 160H150Q154 144 154 120Q154 97 150 80ZM364 304T364 280Q364 257 360 240Q364 224 364 200Q364 177 360 160Q364 144 364 120Q364 97 360 80Q364 64 364 40Q364 17 360 0H280Q276 17
276 40Q276 64 280 80H250Q246 97 246 120Q246 144 250 160H280Q276 177 276 200Q276 224 280 240Q276 257 276 280Q276 304 280 320Q276 337 276 360Q276 384 280 400H360Q364 384 364 360Q364 337 360 320Q364 304 364 280Z" />
<glyph unicode="v" glyph-name="v" d="M364 337T360 320H330Q334 304 334 280Q334 257 330 240H300Q304 224 304 200Q304 177 300 160H280Q284 144 284 120Q284 97 280 80H240Q244 64 244 40Q244 17 240 0H160Q156 17 156 40Q156 64 160 80H120Q116 97 116 120Q116
144 120 160H100Q96 177 96 200Q96 224 100 240H70Q66 257 66 280Q66 304 70 320H40Q36 337 36 360Q36 384 40 400H120Q124 384 124 360Q124 337 120 320H150Q154 304 154 280Q154 257 150 240H180Q184 224 184 200Q184 177 180 160H220Q216 177 216 200Q216 224
220 240H250Q246 257 246 280Q246 304 250 320H280Q276 337 276 360Q276 384 280 400H360Q364 384 364 360Q364 337 360 320Z" />
<glyph unicode="w" glyph-name="w" d="M364 337T360 320Q364 304 364 280Q364 257 360 240H330Q334 224 334 200Q334 177 330 160Q334 144 334 120Q334 97 330 80H310Q314 64 314 40Q314 17 310 0H250Q246 17 246 40Q246 64 250 80H230Q226 97 226 120Q226 144
230 160H170Q174 144 174 120Q174 97 170 80H150Q154 64 154 40Q154 17 150 0H90Q86 17 86 40Q86 64 90 80H70Q66 97 66 120Q66 144 70 160Q66 177 66 200Q66 224 70 240H40Q36 257 36 280Q36 304 40 320Q36 337 36 360Q36 384 40 400H120Q124 384 124 360Q124
337 120 320Q124 304 124 280Q124 257 120 240Q124 224 124 200Q124 177 120 160H150Q146 177 146 200Q146 224 150 240H170Q166 257 166 280Q166 304 170 320Q166 337 166 360Q166 384 170 400H230Q234 384 234 360Q234 337 230 320Q234 304 234 280Q234 257 230
240H250Q254 224 254 200Q254 177 250 160H280Q276 177 276 200Q276 224 280 240Q276 257 276 280Q276 304 280 320Q276 337 276 360Q276 384 280 400H360Q364 384 364 360Q364 337 360 320Z" />
<glyph unicode="x" glyph-name="x" d="M340 80Q344 64 344 40Q344 17 340 0H260Q256 17 256 40Q256 64 260 80H230Q226 97 226 120Q226 144 230 160H180Q184 144 184 120Q184 97 180 80H140Q144 64 144 40Q144 17 140 0H60Q56 17 56 40Q56 64 60 80H100Q96 97
96 120Q96 144 100 160H140Q136 177 136 200Q136 224 140 240H100Q96 257 96 280Q96 304 100 320H60Q56 337 56 360Q56 384 60 400H140Q144 384 144 360Q144 337 140 320H180Q184 304 184 280Q184 257 180 240H230Q226 257 226 280Q226 304 230 320H260Q256 337
256 360Q256 384 260 400H340Q344 384 344 360Q344 337 340 320H310Q314 304 314 280Q314 257 310 240H260Q264 224 264 200Q264 177 260 160H310Q314 144 314 120Q314 97 310 80H340Z" />
<glyph unicode="y" glyph-name="y" d="M364 337T360 320H330Q334 304 334 280Q334 257 330 240H300Q304 224 304 200Q304 177 300 160H280Q284 144 284 120Q284 97 280 80H250Q254 64 254 40Q254 17 250 0H230Q234 -16 234 -40Q234 -63 230 -80H190Q194 -96 194
-120Q194 -143 190 -160H70Q66 -143 66 -120Q66 -96 70 -80H150Q146 -63 146 -40Q146 -16 150 0Q146 17 146 40Q146 64 150 80H110Q106 97 106 120Q106 144 110 160H90Q86 177 86 200Q86 224 90 240H60Q56 257 56 280Q56 304 60 320H30Q26 337 26 360Q26 384 30
400H110Q114 384 114 360Q114 337 110 320H140Q144 304 144 280Q144 257 140 240H170Q174 224 174 200Q174 177 170 160Q174 144 174 120Q174 97 170 80H200Q196 97 196 120Q196 144 200 160H220Q216 177 216 200Q216 224 220 240H250Q246 257 246 280Q246 304
250 320H280Q276 337 276 360Q276 384 280 400H360Q364 384 364 360Q364 337 360 320Z" />
<glyph unicode="z" glyph-name="z" d="M304 257T300 240H220Q216 257 216 280Q216 304 220 320H60Q56 337 56 360Q56 384 60 400H340Q344 384 344 360Q344 337 340 320H300Q304 304 304 280Q304 257 300 240ZM224 177T220 160H140Q136 177 136 200Q136 224 140
240H220Q224 224 224 200Q224 177 220 160ZM344 64T344 40Q344 17 340 0H60Q56 17 56 40Q56 64 60 80Q56 97 56 120Q56 144 60 160H140Q144 144 144 120Q144 97 140 80H340Q344 64 344 40Z" />
<glyph unicode="{" glyph-name="braceleft" d="M320 0Q324 -16 324 -40Q324 -63 320 -80H200Q196 -63 196 -40Q196 -16 200 0H160Q156 17 156 40Q156 64 160 80Q156 97 156 120Q156 144 160 160Q156 177 156 200Q156 224 160 240H80Q76 257 76 280Q76 304 80 320H160Q156
337 156 360Q156 384 160 400Q156 417 156 440Q156 464 160 480Q156 497 156 520Q156 544 160 560H200Q196 577 196 600Q196 624 200 640H320Q324 624 324 600Q324 577 320 560H240Q244 544 244 520Q244 497 240 480Q244 464 244 440Q244 417 240 400Q244 384 244
360Q244 337 240 320H200Q204 304 204 280Q204 257 200 240H240Q244 224 244 200Q244 177 240 160Q244 144 244 120Q244 97 240 80Q244 64 244 40Q244 17 240 0H320Z" />
<glyph unicode="|" glyph-name="bar" d="M244 544T244 520Q244 497 240 480Q244 464 244 440Q244 417 240 400Q244 384 244 360Q244 337 240 320Q244 304 244 280Q244 257 240 240Q244 224 244 200Q244 177 240 160Q244 144 244 120Q244 97 240 80Q244 64 244
40Q244 17 240 0Q244 -16 244 -40Q244 -63 240 -80H160Q156 -63 156 -40Q156 -16 160 0Q156 17 156 40Q156 64 160 80Q156 97 156 120Q156 144 160 160Q156 177 156 200Q156 224 160 240Q156 257 156 280Q156 304 160 320Q156 337 156 360Q156 384 160 400Q156
417 156 440Q156 464 160 480Q156 497 156 520Q156 544 160 560Q156 577 156 600Q156 624 160 640H240Q244 624 244 600Q244 577 240 560Q244 544 244 520Z" />
<glyph unicode="}" glyph-name="braceright" d="M324 257T320 240H240Q244 224 244 200Q244 177 240 160Q244 144 244 120Q244 97 240 80Q244 64 244 40Q244 17 240 0H200Q204 -16 204 -40Q204 -63 200 -80H80Q76 -63 76 -40Q76 -16 80 0H160Q156 17 156 40Q156
64 160 80Q156 97 156 120Q156 144 160 160Q156 177 156 200Q156 224 160 240H200Q196 257 196 280Q196 304 200 320H160Q156 337 156 360Q156 384 160 400Q156 417 156 440Q156 464 160 480Q156 497 156 520Q156 544 160 560H80Q76 577 76 600Q76 624 80 640H200Q204
624 204 600Q204 577 200 560H240Q244 544 244 520Q244 497 240 480Q244 464 244 440Q244 417 240 400Q244 384 244 360Q244 337 240 320H320Q324 304 324 280Q324 257 320 240Z" />
<glyph unicode="~" glyph-name="asciitilde" d="M364 417T360 400Q364 384 364 360Q364 337 360 320H330Q334 304 334 280Q334 257 330 240H300Q304 224 304 200Q304 177 300 160H200Q196 177 196 200Q196 224 200 240H170Q166 257 166 280Q166 304 170 320H120Q124
304 124 280Q124 257 120 240H100Q104 224 104 200Q104 177 100 160H40Q36 177 36 200Q36 224 40 240Q36 257 36 280Q36 304 40 320H70Q66 337 66 360Q66 384 70 400H100Q96 417 96 440Q96 464 100 480H200Q204 464 204 440Q204 417 200 400H230Q234 384 234 360Q234
337 230 320H280Q276 337 276 360Q276 384 280 400H300Q296 417 296 440Q296 464 300 480H360Q364 464 364 440Q364 417 360 400Z" />
<glyph unicode="&#xa0;" glyph-name="uni00A0" />
<glyph unicode="&#xa1;" glyph-name="exclamdown" d="M160 400Q156 417 156 440Q156 464 160 480H240Q244 464 244 440Q244 417 240 400H160ZM244 304T244 280Q244 257 240 240Q244 224 244 200Q244 177 240 160Q244 144 244 120Q244 97 240 80Q244 64 244 40Q244
17 240 0Q244 -16 244 -40Q244 -63 240 -80H160Q156 -63 156 -40Q156 -16 160 0Q156 17 156 40Q156 64 160 80Q156 97 156 120Q156 144 160 160Q156 177 156 200Q156 224 160 240Q156 257 156 280Q156 304 160 320H240Q244 304 244 280Z" />
<glyph unicode="&#xa2;" glyph-name="cent" d="M360 240Q364 224 364 200Q364 177 360 160H320Q324 144 324 120Q324 97 320 80H230Q234 64 234 40Q234 17 230 0Q234 -16 234 -40Q234 -63 230 -80H170Q166 -63 166 -40Q166 -16 170 0Q166 17 166 40Q166 64 170
80H80Q76 97 76 120Q76 144 80 160H40Q36 177 36 200Q36 224 40 240Q36 257 36 280Q36 304 40 320Q36 337 36 360Q36 384 40 400H80Q76 417 76 440Q76 464 80 480H170Q166 497 166 520Q166 544 170 560Q166 577 166 600Q166 624 170 640H230Q234 624 234 600Q234
577 230 560Q234 544 234 520Q234 497 230 480H320Q324 464 324 440Q324 417 320 400H360Q364 384 364 360Q364 337 360 320H280Q276 337 276 360Q276 384 280 400H120Q124 384 124 360Q124 337 120 320Q124 304 124 280Q124 257 120 240Q124 224 124 200Q124 177
120 160H280Q276 177 276 200Q276 224 280 240H360Z" />
<glyph unicode="&#xa3;" glyph-name="sterling" d="M184 144T184 120Q184 97 180 80H140Q144 64 144 40Q144 17 140 0H40Q36 17 36 40Q36 64 40 80H100Q96 97 96 120Q96 144 100 160Q96 177 96 200Q96 224 100 240H40Q36 257 36 280Q36 304 40 320H100Q96 337
96 360Q96 384 100 400Q96 417 96 440Q96 464 100 480H140Q136 497 136 520Q136 544 140 560H300Q304 544 304 520Q304 497 300 480H340Q344 464 344 440Q344 417 340 400H280Q276 417 276 440Q276 464 280 480H180Q184 464 184 440Q184 417 180 400Q184 384 184
360Q184 337 180 320H240Q244 304 244 280Q244 257 240 240H180Q184 224 184 200Q184 177 180 160Q184 144 184 120ZM364 97T360 80H340Q344 64 344 40Q344 17 340 0H180Q176 17 176 40Q176 64 180 80H300Q296 97 296 120Q296 144 300 160H360Q364 144 364 120Q364
97 360 80Z" />
<glyph unicode="&#xa4;" glyph-name="currency" d="M364 177T360 160H320Q324 144 324 120Q324 97 320 80H360Q364 64 364 40Q364 17 360 0H300Q296 17 296 40Q296 64 300 80H250Q254 64 254 40Q254 17 250 0H150Q146 17 146 40Q146 64 150 80H100Q104 64 104
40Q104 17 100 0H40Q36 17 36 40Q36 64 40 80H80Q76 97 76 120Q76 144 80 160H40Q36 177 36 200Q36 224 40 240H80Q76 257 76 280Q76 304 80 320H40Q36 337 36 360Q36 384 40 400H100Q104 384 104 360Q104 337 100 320H150Q146 337 146 360Q146 384 150 400H250Q254
384 254 360Q254 337 250 320H300Q296 337 296 360Q296 384 300 400H360Q364 384 364 360Q364 337 360 320H320Q324 304 324 280Q324 257 320 240H360Q364 224 364 200Q364 177 360 160ZM280 160Q276 177 276 200Q276 224 280 240H240Q236 257 236 280Q236 304
240 320H160Q164 304 164 280Q164 257 160 240H120Q124 224 124 200Q124 177 120 160H160Q164 144 164 120Q164 97 160 80H240Q236 97 236 120Q236 144 240 160H280Z" />
<glyph unicode="&#xa5;" glyph-name="yen" d="M364 497T360 480H340Q344 464 344 440Q344 417 340 400H300Q304 384 304 360Q304 337 300 320H340Q344 304 344 280Q344 257 340 240H240Q244 224 244 200Q244 177 240 160H340Q344 144 344 120Q344 97 340 80H240Q244
64 244 40Q244 17 240 0H160Q156 17 156 40Q156 64 160 80H60Q56 97 56 120Q56 144 60 160H160Q156 177 156 200Q156 224 160 240H60Q56 257 56 280Q56 304 60 320H100Q96 337 96 360Q96 384 100 400H60Q56 417 56 440Q56 464 60 480H40Q36 497 36 520Q36 544 40
560H140Q144 544 144 520Q144 497 140 480Q144 464 144 440Q144 417 140 400H180Q184 384 184 360Q184 337 180 320H220Q216 337 216 360Q216 384 220 400H260Q256 417 256 440Q256 464 260 480Q256 497 256 520Q256 544 260 560H360Q364 544 364 520Q364 497 360
480Z" />
<glyph unicode="&#xa6;" glyph-name="brokenbar" d="M244 544T244 520Q244 497 240 480Q244 464 244 440Q244 417 240 400Q244 384 244 360Q244 337 240 320H160Q156 337 156 360Q156 384 160 400Q156 417 156 440Q156 464 160 480Q156 497 156 520Q156 544 160
560Q156 577 156 600Q156 624 160 640H240Q244 624 244 600Q244 577 240 560Q244 544 244 520ZM244 224T244 200Q244 177 240 160Q244 144 244 120Q244 97 240 80Q244 64 244 40Q244 17 240 0Q244 -16 244 -40Q244 -63 240 -80H160Q156 -63 156 -40Q156 -16 160
0Q156 17 156 40Q156 64 160 80Q156 97 156 120Q156 144 160 160Q156 177 156 200Q156 224 160 240H240Q244 224 244 200Z" />
<glyph unicode="&#xa7;" glyph-name="section" d="M344 17T340 0H300Q304 -16 304 -40Q304 -63 300 -80H70Q66 -63 66 -40Q66 -16 70 0H260Q256 17 256 40Q256 64 260 80H140Q136 97 136 120Q136 144 140 160H70Q66 177 66 200Q66 224 70 240Q66 257 66 280Q66
304 70 320H100Q96 337 96 360Q96 384 100 400H60Q56 417 56 440Q56 464 60 480H100Q96 497 96 520Q96 544 100 560H330Q334 544 334 520Q334 497 330 480H140Q144 464 144 440Q144 417 140 400H260Q264 384 264 360Q264 337 260 320H330Q334 304 334 280Q334 257
330 240Q334 224 334 200Q334 177 330 160H300Q304 144 304 120Q304 97 300 80H340Q344 64 344 40Q344 17 340 0ZM270 160Q266 177 266 200Q266 224 270 240H230Q226 257 226 280Q226 304 230 320H130Q134 304 134 280Q134 257 130 240H170Q174 224 174 200Q174
177 170 160H270Z" />
<glyph unicode="&#xa8;" glyph-name="dieresis" d="M160 560Q164 544 164 520Q164 497 160 480H80Q76 497 76 520Q76 544 80 560H160ZM320 560Q324 544 324 520Q324 497 320 480H240Q236 497 236 520Q236 544 240 560H320Z" />
<glyph unicode="&#xa9;" glyph-name="copyright" d="M284 577T280 560H120Q116 577 116 600Q116 624 120 640H280Q284 624 284 600Q284 577 280 560ZM124 64T124 40Q124 17 120 0H70Q66 17 66 40Q66 64 70 80H40Q36 97 36 120Q36 144 40 160Q36 177 36 200Q36
224 40 240Q36 257 36 280Q36 304 40 320Q36 337 36 360Q36 384 40 400Q36 417 36 440Q36 464 40 480H70Q66 497 66 520Q66 544 70 560H120Q124 544 124 520Q124 497 120 480H90Q94 464 94 440Q94 417 90 400Q94 384 94 360Q94 337 90 320Q94 304 94 280Q94 257
90 240Q94 224 94 200Q94 177 90 160Q94 144 94 120Q94 97 90 80H120Q124 64 124 40ZM364 384T364 360Q364 337 360 320Q364 304 364 280Q364 257 360 240Q364 224 364 200Q364 177 360 160Q364 144 364 120Q364 97 360 80H330Q334 64 334 40Q334 17 330 0H280Q276
17 276 40Q276 64 280 80H310Q306 97 306 120Q306 144 310 160Q306 177 306 200Q306 224 310 240Q306 257 306 280Q306 304 310 320Q306 337 306 360Q306 384 310 400Q306 417 306 440Q306 464 310 480H280Q276 497 276 520Q276 544 280 560H330Q334 544 334 520Q334
497 330 480H360Q364 464 364 440Q364 417 360 400Q364 384 364 360ZM254 417T250 400H185Q189 384 189 360Q189 337 185 320Q189 304 189 280Q189 257 185 240Q189 224 189 200Q189 177 185 160H250Q254 144 254 120Q254 97 250 80H150Q146 97 146 120Q146 144
150 160H135Q131 177 131 200Q131 224 135 240Q131 257 131 280Q131 304 135 320Q131 337 131 360Q131 384 135 400H150Q146 417 146 440Q146 464 150 480H250Q254 464 254 440Q254 417 250 400ZM116 -16T120 0H280Q284 -16 284 -40Q284 -63 280 -80H120Q116 -63
116 -40Q116 -16 120 0Z" />
<glyph unicode="&#xaa;" glyph-name="ordfeminine" d="M314 384T314 360Q314 337 310 320Q314 304 314 280Q314 257 310 240Q314 224 314 200Q314 177 310 160H120Q116 177 116 200Q116 224 120 240H90Q86 257 86 280Q86 304 90 320H120Q116 337 116 360Q116 384
120 400H250Q246 417 246 440Q246 464 250 480H140Q136 497 136 520Q136 544 140 560H280Q284 544 284 520Q284 497 280 480H310Q314 464 314 440Q314 417 310 400Q314 384 314 360ZM246 257T246 280Q246 304 250 320H150Q154 304 154 280Q154 257 150 240H250Q246
257 246 280ZM314 64T314 40Q314 17 310 0H90Q86 17 86 40Q86 64 90 80H310Q314 64 314 40Z" />
<glyph unicode="&#xab;" glyph-name="guillemotleft" d="M184 337T180 320H140Q144 304 144 280Q144 257 140 240H100Q104 224 104 200Q104 177 100 160H140Q144 144 144 120Q144 97 140 80H180Q184 64 184 40Q184 17 180 0H120Q116 17 116 40Q116 64 120 80H80Q76
97 76 120Q76 144 80 160H40Q36 177 36 200Q36 224 40 240H80Q76 257 76 280Q76 304 80 320H120Q116 337 116 360Q116 384 120 400H180Q184 384 184 360Q184 337 180 320ZM360 80Q364 64 364 40Q364 17 360 0H300Q296 17 296 40Q296 64 300 80H260Q256 97 256 120Q256
144 260 160H220Q216 177 216 200Q216 224 220 240H260Q256 257 256 280Q256 304 260 320H300Q296 337 296 360Q296 384 300 400H360Q364 384 364 360Q364 337 360 320H320Q324 304 324 280Q324 257 320 240H280Q284 224 284 200Q284 177 280 160H320Q324 144 324
120Q324 97 320 80H360Z" />
<glyph unicode="&#xac;" glyph-name="logicalnot" d="M364 224T364 200Q364 177 360 160Q364 144 364 120Q364 97 360 80H280Q276 97 276 120Q276 144 280 160Q276 177 276 200Q276 224 280 240H40Q36 257 36 280Q36 304 40 320H360Q364 304 364 280Q364 257 360
240Q364 224 364 200Z" />
<glyph unicode="&#xad;" glyph-name="uni00AD" d="M300 320Q304 304 304 280Q304 257 300 240H100Q96 257 96 280Q96 304 100 320H300Z" />
<glyph unicode="&#xae;" glyph-name="registered" d="M284 577T280 560H120Q116 577 116 600Q116 624 120 640H280Q284 624 284 600Q284 577 280 560ZM124 64T124 40Q124 17 120 0H70Q66 17 66 40Q66 64 70 80H40Q36 97 36 120Q36 144 40 160Q36 177 36 200Q36
224 40 240Q36 257 36 280Q36 304 40 320Q36 337 36 360Q36 384 40 400Q36 417 36 440Q36 464 40 480H70Q66 497 66 520Q66 544 70 560H120Q124 544 124 520Q124 497 120 480H90Q94 464 94 440Q94 417 90 400Q94 384 94 360Q94 337 90 320Q94 304 94 280Q94 257
90 240Q94 224 94 200Q94 177 90 160Q94 144 94 120Q94 97 90 80H120Q124 64 124 40ZM364 384T364 360Q364 337 360 320Q364 304 364 280Q364 257 360 240Q364 224 364 200Q364 177 360 160Q364 144 364 120Q364 97 360 80H330Q334 64 334 40Q334 17 330 0H280Q276
17 276 40Q276 64 280 80H310Q306 97 306 120Q306 144 310 160Q306 177 306 200Q306 224 310 240Q306 257 306 280Q306 304 310 320Q306 337 306 360Q306 384 310 400Q306 417 306 440Q306 464 310 480H280Q276 497 276 520Q276 544 280 560H330Q334 544 334 520Q334
497 330 480H360Q364 464 364 440Q364 417 360 400Q364 384 364 360ZM269 337T265 320H235Q239 304 239 280Q239 257 235 240H265Q269 224 269 200Q269 177 265 160Q269 144 269 120Q269 97 265 80H215Q211 97 211 120Q211 144 215 160Q211 177 211 200Q211 224
215 240H185Q189 224 189 200Q189 177 185 160Q189 144 189 120Q189 97 185 80H135Q131 97 131 120Q131 144 135 160Q131 177 131 200Q131 224 135 240Q131 257 131 280Q131 304 135 320Q131 337 131 360Q131 384 135 400Q131 417 131 440Q131 464 135 480H235Q239
464 239 440Q239 417 235 400H265Q269 384 269 360Q269 337 265 320ZM215 320Q211 337 211 360Q211 384 215 400H185Q189 384 189 360Q189 337 185 320H215ZM116 -16T120 0H280Q284 -16 284 -40Q284 -63 280 -80H120Q116 -63 116 -40Q116 -16 120 0Z" />
<glyph unicode="&#xaf;" glyph-name="overscore" d="M324 544T324 520Q324 497 320 480H80Q76 497 76 520Q76 544 80 560H320Q324 544 324 520Z" />
<glyph unicode="&#xb0;" glyph-name="degree" d="M314 497T310 480Q314 464 314 440Q314 417 310 400H280Q284 384 284 360Q284 337 280 320H120Q116 337 116 360Q116 384 120 400H90Q86 417 86 440Q86 464 90 480Q86 497 86 520Q86 544 90 560H120Q116 577 116
600Q116 624 120 640H280Q284 624 284 600Q284 577 280 560H310Q314 544 314 520Q314 497 310 480ZM246 417T246 440Q246 464 250 480Q246 497 246 520Q246 544 250 560H150Q154 544 154 520Q154 497 150 480Q154 464 154 440Q154 417 150 400H250Q246 417 246
440Z" />
<glyph unicode="&#xb1;" glyph-name="plusminus" d="M60 320Q56 337 56 360Q56 384 60 400H160Q156 417 156 440Q156 464 160 480Q156 497 156 520Q156 544 160 560H240Q244 544 244 520Q244 497 240 480Q244 464 244 440Q244 417 240 400H340Q344 384 344 360Q344
337 340 320H240Q244 304 244 280Q244 257 240 240Q244 224 244 200Q244 177 240 160H160Q156 177 156 200Q156 224 160 240Q156 257 156 280Q156 304 160 320H60ZM344 64T344 40Q344 17 340 0H60Q56 17 56 40Q56 64 60 80H340Q344 64 344 40Z" />
<glyph unicode="&#xb2;" glyph-name="uni00B2" d="M280 320Q284 304 284 280Q284 257 280 240H120Q116 257 116 280Q116 304 120 320H160Q156 337 156 360Q156 384 160 400H190Q186 417 186 440Q186 464 190 480H220Q216 497 216 520Q216 544 220 560H120Q116
577 116 600Q116 624 120 640H250Q254 624 254 600Q254 577 250 560H280Q284 544 284 520Q284 497 280 480H250Q254 464 254 440Q254 417 250 400H220Q224 384 224 360Q224 337 220 320H280Z" />
<glyph unicode="&#xb3;" glyph-name="uni00B3" d="M280 400Q284 384 284 360Q284 337 280 320H250Q254 304 254 280Q254 257 250 240H120Q116 257 116 280Q116 304 120 320H220Q216 337 216 360Q216 384 220 400H150Q146 417 146 440Q146 464 150 480H220Q216
497 216 520Q216 544 220 560H120Q116 577 116 600Q116 624 120 640H250Q254 624 254 600Q254 577 250 560H280Q284 544 284 520Q284 497 280 480H250Q254 464 254 440Q254 417 250 400H280Z" />
<glyph unicode="&#xb4;" glyph-name="acute" d="M284 577T280 560H240Q244 544 244 520Q244 497 240 480H160Q156 497 156 520Q156 544 160 560H200Q196 577 196 600Q196 624 200 640H280Q284 624 284 600Q284 577 280 560Z" />
<glyph unicode="&#xb5;" glyph-name="uni00B5" d="M154 144T154 120Q154 97 150 80H120Q124 64 124 40Q124 17 120 0Q124 -16 124 -40Q124 -63 120 -80H80Q84 -96 84 -120Q84 -143 80 -160H0Q-4 -143 -4 -120Q-4 -96 0 -80H40Q36 -63 36 -40Q36 -16 40 0Q36 17
36 40Q36 64 40 80H70Q66 97 66 120Q66 144 70 160Q66 177 66 200Q66 224 70 240H100Q96 257 96 280Q96 304 100 320Q96 337 96 360Q96 384 100 400H180Q184 384 184 360Q184 337 180 320Q184 304 184 280Q184 257 180 240H150Q154 224 154 200Q154 177 150 160Q154
144 154 120ZM364 257T360 240H330Q334 224 334 200Q334 177 330 160Q334 144 334 120Q334 97 330 80H360Q364 64 364 40Q364 17 360 0H280Q276 17 276 40Q276 64 280 80H250Q246 97 246 120Q246 144 250 160Q246 177 246 200Q246 224 250 240H280Q276 257 276
280Q276 304 280 320Q276 337 276 360Q276 384 280 400H360Q364 384 364 360Q364 337 360 320Q364 304 364 280Q364 257 360 240ZM146 64T150 80H250Q254 64 254 40Q254 17 250 0H150Q146 17 146 40Q146 64 150 80Z" />
<glyph unicode="&#xb6;" glyph-name="paragraph" d="M364 577T360 560H320Q324 544 324 520Q324 497 320 480Q324 464 324 440Q324 417 320 400Q324 384 324 360Q324 337 320 320Q324 304 324 280Q324 257 320 240Q324 224 324 200Q324 177 320 160Q324 144 324
120Q324 97 320 80Q324 64 324 40Q324 17 320 0Q324 -16 324 -40Q324 -63 320 -80H260Q256 -63 256 -40Q256 -16 260 0Q256 17 256 40Q256 64 260 80Q256 97 256 120Q256 144 260 160Q256 177 256 200Q256 224 260 240Q256 257 256 280Q256 304 260 320Q256 337
256 360Q256 384 260 400Q256 417 256 440Q256 464 260 480Q256 497 256 520Q256 544 260 560H200Q204 544 204 520Q204 497 200 480Q204 464 204 440Q204 417 200 400Q204 384 204 360Q204 337 200 320Q204 304 204 280Q204 257 200 240Q204 224 204 200Q204 177
200 160Q204 144 204 120Q204 97 200 80Q204 64 204 40Q204 17 200 0Q204 -16 204 -40Q204 -63 200 -80H140Q136 -63 136 -40Q136 -16 140 0Q136 17 136 40Q136 64 140 80Q136 97 136 120Q136 144 140 160H120Q116 177 116 200Q116 224 120 240H80Q76 257 76 280Q76
304 80 320H40Q36 337 36 360Q36 384 40 400Q36 417 36 440Q36 464 40 480H80Q76 497 76 520Q76 544 80 560H120Q116 577 116 600Q116 624 120 640H360Q364 624 364 600Q364 577 360 560Z" />
<glyph unicode="&#xb7;" glyph-name="middot" d="M254 257T250 240Q254 224 254 200Q254 177 250 160H150Q146 177 146 200Q146 224 150 240Q146 257 146 280Q146 304 150 320H250Q254 304 254 280Q254 257 250 240Z" />
<glyph unicode="&#xb8;" glyph-name="cedilla" d="M264 -63T260 -80H230Q234 -96 234 -120Q234 -143 230 -160H150Q146 -143 146 -120Q146 -96 150 -80H200Q196 -63 196 -40Q196 -16 200 0H260Q264 -16 264 -40Q264 -63 260 -80Z" />
<glyph unicode="&#xb9;" glyph-name="uni00B9" d="M234 544T234 520Q234 497 230 480Q234 464 234 440Q234 417 230 400Q234 384 234 360Q234 337 230 320Q234 304 234 280Q234 257 230 240H170Q166 257 166 280Q166 304 170 320Q166 337 166 360Q166 384 170
400Q166 417 166 440Q166 464 170 480H130Q126 497 126 520Q126 544 130 560H170Q166 577 166 600Q166 624 170 640H230Q234 624 234 600Q234 577 230 560Q234 544 234 520Z" />
<glyph unicode="&#xba;" glyph-name="ordmasculine" d="M314 384T314 360Q314 337 310 320Q314 304 314 280Q314 257 310 240H280Q284 224 284 200Q284 177 280 160H120Q116 177 116 200Q116 224 120 240H90Q86 257 86 280Q86 304 90 320Q86 337 86 360Q86 384
90 400Q86 417 86 440Q86 464 90 480H120Q116 497 116 520Q116 544 120 560H280Q284 544 284 520Q284 497 280 480H310Q314 464 314 440Q314 417 310 400Q314 384 314 360ZM246 257T246 280Q246 304 250 320Q246 337 246 360Q246 384 250 400Q246 417 246 440Q246
464 250 480H150Q154 464 154 440Q154 417 150 400Q154 384 154 360Q154 337 150 320Q154 304 154 280Q154 257 150 240H250Q246 257 246 280ZM314 64T314 40Q314 17 310 0H90Q86 17 86 40Q86 64 90 80H310Q314 64 314 40Z" />
<glyph unicode="&#xbb;" glyph-name="guillemotright" d="M180 240Q184 224 184 200Q184 177 180 160H140Q144 144 144 120Q144 97 140 80H100Q104 64 104 40Q104 17 100 0H40Q36 17 36 40Q36 64 40 80H80Q76 97 76 120Q76 144 80 160H120Q116 177 116 200Q116
224 120 240H80Q76 257 76 280Q76 304 80 320H40Q36 337 36 360Q36 384 40 400H100Q104 384 104 360Q104 337 100 320H140Q144 304 144 280Q144 257 140 240H180ZM364 177T360 160H320Q324 144 324 120Q324 97 320 80H280Q284 64 284 40Q284 17 280 0H220Q216 17
216 40Q216 64 220 80H260Q256 97 256 120Q256 144 260 160H300Q296 177 296 200Q296 224 300 240H260Q256 257 256 280Q256 304 260 320H220Q216 337 216 360Q216 384 220 400H280Q284 384 284 360Q284 337 280 320H320Q324 304 324 280Q324 257 320 240H360Q364
224 364 200Q364 177 360 160Z" />
<glyph unicode="&#xbc;" glyph-name="onequarter" d="M129 304T129 280Q129 257 125 240H65Q61 257 61 280Q61 304 65 320Q61 337 61 360Q61 384 65 400Q61 417 61 440Q61 464 65 480H25Q21 497 21 520Q21 544 25 560H65Q61 577 61 600Q61 624 65 640H125Q129
624 129 600Q129 577 125 560Q129 544 129 520Q129 497 125 480Q129 464 129 440Q129 417 125 400Q129 384 129 360Q129 337 125 320Q129 304 129 280ZM185 240Q189 224 189 200Q189 177 185 160H155Q159 144 159 120Q159 97 155 80H95Q91 97 91 120Q91 144 95
160H125Q121 177 121 200Q121 224 125 240H155Q151 257 151 280Q151 304 155 320H185Q181 337 181 360Q181 384 185 400H215Q211 417 211 440Q211 464 215 480H245Q241 497 241 520Q241 544 245 560H305Q309 544 309 520Q309 497 305 480H275Q279 464 279 440Q279
417 275 400H245Q249 384 249 360Q249 337 245 320H215Q219 304 219 280Q219 257 215 240H185ZM384 17T380 0H360Q364 -16 364 -40Q364 -63 360 -80H300Q296 -63 296 -40Q296 -16 300 0H200Q196 17 196 40Q196 64 200 80H220Q216 97 216 120Q216 144 220 160H240Q236
177 236 200Q236 224 240 240H260Q256 257 256 280Q256 304 260 320H360Q364 304 364 280Q364 257 360 240Q364 224 364 200Q364 177 360 160Q364 144 364 120Q364 97 360 80H380Q384 64 384 40Q384 17 380 0ZM264 144T264 120Q264 97 260 80H300Q296 97 296 120Q296
144 300 160Q296 177 296 200Q296 224 300 240H280Q284 224 284 200Q284 177 280 160H260Q264 144 264 120Z" />
<glyph unicode="&#xbd;" glyph-name="onehalf" d="M129 304T129 280Q129 257 125 240H65Q61 257 61 280Q61 304 65 320Q61 337 61 360Q61 384 65 400Q61 417 61 440Q61 464 65 480H25Q21 497 21 520Q21 544 25 560H65Q61 577 61 600Q61 624 65 640H125Q129 624
129 600Q129 577 125 560Q129 544 129 520Q129 497 125 480Q129 464 129 440Q129 417 125 400Q129 384 129 360Q129 337 125 320Q129 304 129 280ZM360 80Q364 64 364 40Q364 17 360 0H200Q196 17 196 40Q196 64 200 80H240Q236 97 236 120Q236 144 240 160H270Q266
177 266 200Q266 224 270 240H300Q296 257 296 280Q296 304 300 320H215Q219 304 219 280Q219 257 215 240H185Q189 224 189 200Q189 177 185 160H155Q159 144 159 120Q159 97 155 80H95Q91 97 91 120Q91 144 95 160H125Q121 177 121 200Q121 224 125 240H155Q151
257 151 280Q151 304 155 320H185Q181 337 181 360Q181 384 185 400H215Q211 417 211 440Q211 464 215 480H245Q241 497 241 520Q241 544 245 560H305Q309 544 309 520Q309 497 305 480H275Q279 464 279 440Q279 417 275 400H330Q334 384 334 360Q334 337 330 320H360Q364
304 364 280Q364 257 360 240H330Q334 224 334 200Q334 177 330 160H300Q304 144 304 120Q304 97 300 80H360Z" />
<glyph unicode="&#xbe;" glyph-name="threequarters" d="M185 240Q189 224 189 200Q189 177 185 160H155Q159 144 159 120Q159 97 155 80H95Q91 97 91 120Q91 144 95 160H125Q121 177 121 200Q121 224 125 240H40Q36 257 36 280Q36 304 40 320H140Q136 337 136
360Q136 384 140 400H70Q66 417 66 440Q66 464 70 480H140Q136 497 136 520Q136 544 140 560H40Q36 577 36 600Q36 624 40 640H170Q174 624 174 600Q174 577 170 560H200Q204 544 204 520Q204 497 200 480H170Q174 464 174 440Q174 417 170 400H215Q211 417 211
440Q211 464 215 480H245Q241 497 241 520Q241 544 245 560H305Q309 544 309 520Q309 497 305 480H275Q279 464 279 440Q279 417 275 400H245Q249 384 249 360Q249 337 245 320H215Q219 304 219 280Q219 257 215 240H185ZM384 17T380 0H360Q364 -16 364 -40Q364
-63 360 -80H300Q296 -63 296 -40Q296 -16 300 0H200Q196 17 196 40Q196 64 200 80H220Q216 97 216 120Q216 144 220 160H240Q236 177 236 200Q236 224 240 240H260Q256 257 256 280Q256 304 260 320H360Q364 304 364 280Q364 257 360 240Q364 224 364 200Q364
177 360 160Q364 144 364 120Q364 97 360 80H380Q384 64 384 40Q384 17 380 0ZM264 144T264 120Q264 97 260 80H300Q296 97 296 120Q296 144 300 160Q296 177 296 200Q296 224 300 240H280Q284 224 284 200Q284 177 280 160H260Q264 144 264 120Z" />
<glyph unicode="&#xbf;" glyph-name="questiondown" d="M140 400Q136 417 136 440Q136 464 140 480H220Q224 464 224 440Q224 417 220 400H140ZM344 17T340 0H280Q284 -16 284 -40Q284 -63 280 -80H80Q76 -63 76 -40Q76 -16 80 0H40Q36 17 36 40Q36 64 40 80Q36
97 36 120Q36 144 40 160H90Q86 177 86 200Q86 224 90 240H140Q136 257 136 280Q136 304 140 320H220Q224 304 224 280Q224 257 220 240H170Q174 224 174 200Q174 177 170 160H120Q124 144 124 120Q124 97 120 80Q124 64 124 40Q124 17 120 0H260Q256 17 256 40Q256
64 260 80H340Q344 64 344 40Q344 17 340 0Z" />
<glyph unicode="&#xc0;" glyph-name="Agrave" d="M120 720Q116 737 116 760Q116 784 120 800H200Q204 784 204 760Q204 737 200 720H240Q244 704 244 680Q244 657 240 640H160Q156 657 156 680Q156 704 160 720H120ZM364 97T360 80Q364 64 364 40Q364 17 360 0H280Q276
17 276 40Q276 64 280 80Q276 97 276 120Q276 144 280 160H120Q124 144 124 120Q124 97 120 80Q124 64 124 40Q124 17 120 0H40Q36 17 36 40Q36 64 40 80Q36 97 36 120Q36 144 40 160H70Q66 177 66 200Q66 224 70 240Q66 257 66 280Q66 304 70 320H90Q86 337 86
360Q86 384 90 400H120Q116 417 116 440Q116 464 120 480H140Q136 497 136 520Q136 544 140 560H260Q264 544 264 520Q264 497 260 480H280Q284 464 284 440Q284 417 280 400H310Q314 384 314 360Q314 337 310 320H330Q334 304 334 280Q334 257 330 240Q334 224
334 200Q334 177 330 160H360Q364 144 364 120Q364 97 360 80ZM246 257T246 280Q246 304 250 320H230Q226 337 226 360Q226 384 230 400H170Q174 384 174 360Q174 337 170 320H150Q154 304 154 280Q154 257 150 240H250Q246 257 246 280Z" />
<glyph unicode="&#xc1;" glyph-name="Aacute" d="M160 640Q156 657 156 680Q156 704 160 720H200Q196 737 196 760Q196 784 200 800H280Q284 784 284 760Q284 737 280 720H240Q244 704 244 680Q244 657 240 640H160ZM364 97T360 80Q364 64 364 40Q364 17 360 0H280Q276
17 276 40Q276 64 280 80Q276 97 276 120Q276 144 280 160H120Q124 144 124 120Q124 97 120 80Q124 64 124 40Q124 17 120 0H40Q36 17 36 40Q36 64 40 80Q36 97 36 120Q36 144 40 160H70Q66 177 66 200Q66 224 70 240Q66 257 66 280Q66 304 70 320H90Q86 337 86
360Q86 384 90 400H120Q116 417 116 440Q116 464 120 480H140Q136 497 136 520Q136 544 140 560H260Q264 544 264 520Q264 497 260 480H280Q284 464 284 440Q284 417 280 400H310Q314 384 314 360Q314 337 310 320H330Q334 304 334 280Q334 257 330 240Q334 224
334 200Q334 177 330 160H360Q364 144 364 120Q364 97 360 80ZM246 257T246 280Q246 304 250 320H230Q226 337 226 360Q226 384 230 400H170Q174 384 174 360Q174 337 170 320H150Q154 304 154 280Q154 257 150 240H250Q246 257 246 280Z" />
<glyph unicode="&#xc2;" glyph-name="Acircumflex" d="M364 97T360 80Q364 64 364 40Q364 17 360 0H280Q276 17 276 40Q276 64 280 80Q276 97 276 120Q276 144 280 160H120Q124 144 124 120Q124 97 120 80Q124 64 124 40Q124 17 120 0H40Q36 17 36 40Q36 64 40
80Q36 97 36 120Q36 144 40 160H70Q66 177 66 200Q66 224 70 240Q66 257 66 280Q66 304 70 320H90Q86 337 86 360Q86 384 90 400H120Q116 417 116 440Q116 464 120 480H140Q136 497 136 520Q136 544 140 560H260Q264 544 264 520Q264 497 260 480H280Q284 464 284
440Q284 417 280 400H310Q314 384 314 360Q314 337 310 320H330Q334 304 334 280Q334 257 330 240Q334 224 334 200Q334 177 330 160H360Q364 144 364 120Q364 97 360 80ZM246 257T246 280Q246 304 250 320H230Q226 337 226 360Q226 384 230 400H170Q174 384 174
360Q174 337 170 320H150Q154 304 154 280Q154 257 150 240H250Q246 257 246 280ZM314 704T314 680Q314 657 310 640H230Q226 657 226 680Q226 704 230 720H170Q174 704 174 680Q174 657 170 640H90Q86 657 86 680Q86 704 90 720H140Q136 737 136 760Q136 784 140
800H260Q264 784 264 760Q264 737 260 720H310Q314 704 314 680Z" />
<glyph unicode="&#xc3;" glyph-name="Atilde" d="M364 97T360 80Q364 64 364 40Q364 17 360 0H280Q276 17 276 40Q276 64 280 80Q276 97 276 120Q276 144 280 160H120Q124 144 124 120Q124 97 120 80Q124 64 124 40Q124 17 120 0H40Q36 17 36 40Q36 64 40 80Q36
97 36 120Q36 144 40 160H70Q66 177 66 200Q66 224 70 240Q66 257 66 280Q66 304 70 320H90Q86 337 86 360Q86 384 90 400H120Q116 417 116 440Q116 464 120 480H140Q136 497 136 520Q136 544 140 560H260Q264 544 264 520Q264 497 260 480H280Q284 464 284 440Q284
417 280 400H310Q314 384 314 360Q314 337 310 320H330Q334 304 334 280Q334 257 330 240Q334 224 334 200Q334 177 330 160H360Q364 144 364 120Q364 97 360 80ZM246 257T246 280Q246 304 250 320H230Q226 337 226 360Q226 384 230 400H170Q174 384 174 360Q174
337 170 320H150Q154 304 154 280Q154 257 150 240H250Q246 257 246 280ZM224 737T220 720H300Q304 704 304 680Q304 657 300 640H180Q176 657 176 680Q176 704 180 720H100Q96 737 96 760Q96 784 100 800H220Q224 784 224 760Q224 737 220 720ZM364 737T360 720H300Q296
737 296 760Q296 784 300 800H360Q364 784 364 760Q364 737 360 720ZM36 704T40 720H100Q104 704 104 680Q104 657 100 640H40Q36 657 36 680Q36 704 40 720Z" />
<glyph unicode="&#xc4;" glyph-name="Adieresis" d="M80 640Q76 657 76 680Q76 704 80 720H160Q164 704 164 680Q164 657 160 640H80ZM240 640Q236 657 236 680Q236 704 240 720H320Q324 704 324 680Q324 657 320 640H240ZM364 97T360 80Q364 64 364 40Q364 17
360 0H280Q276 17 276 40Q276 64 280 80Q276 97 276 120Q276 144 280 160H120Q124 144 124 120Q124 97 120 80Q124 64 124 40Q124 17 120 0H40Q36 17 36 40Q36 64 40 80Q36 97 36 120Q36 144 40 160H70Q66 177 66 200Q66 224 70 240Q66 257 66 280Q66 304 70 320H90Q86
337 86 360Q86 384 90 400H120Q116 417 116 440Q116 464 120 480H140Q136 497 136 520Q136 544 140 560H260Q264 544 264 520Q264 497 260 480H280Q284 464 284 440Q284 417 280 400H310Q314 384 314 360Q314 337 310 320H330Q334 304 334 280Q334 257 330 240Q334
224 334 200Q334 177 330 160H360Q364 144 364 120Q364 97 360 80ZM246 257T246 280Q246 304 250 320H230Q226 337 226 360Q226 384 230 400H170Q174 384 174 360Q174 337 170 320H150Q154 304 154 280Q154 257 150 240H250Q246 257 246 280Z" />
<glyph unicode="&#xc5;" glyph-name="Aring" d="M364 97T360 80Q364 64 364 40Q364 17 360 0H280Q276 17 276 40Q276 64 280 80Q276 97 276 120Q276 144 280 160H120Q124 144 124 120Q124 97 120 80Q124 64 124 40Q124 17 120 0H40Q36 17 36 40Q36 64 40 80Q36
97 36 120Q36 144 40 160H70Q66 177 66 200Q66 224 70 240Q66 257 66 280Q66 304 70 320H90Q86 337 86 360Q86 384 90 400H120Q116 417 116 440Q116 464 120 480H140Q136 497 136 520Q136 544 140 560H260Q264 544 264 520Q264 497 260 480H280Q284 464 284 440Q284
417 280 400H310Q314 384 314 360Q314 337 310 320H330Q334 304 334 280Q334 257 330 240Q334 224 334 200Q334 177 330 160H360Q364 144 364 120Q364 97 360 80ZM246 257T246 280Q246 304 250 320H230Q226 337 226 360Q226 384 230 400H170Q174 384 174 360Q174
337 170 320H150Q154 304 154 280Q154 257 150 240H250Q246 257 246 280ZM314 737T310 720H280Q284 704 284 680Q284 657 280 640H120Q116 657 116 680Q116 704 120 720H90Q86 737 86 760Q86 784 90 800H120Q116 817 116 840Q116 864 120 880H280Q284 864 284 840Q284
817 280 800H310Q314 784 314 760Q314 737 310 720ZM250 720Q246 737 246 760Q246 784 250 800H150Q154 784 154 760Q154 737 150 720H250Z" />
<glyph unicode="&#xc6;" glyph-name="AE" d="M364 257T360 240H280Q284 224 284 200Q284 177 280 160Q284 144 284 120Q284 97 280 80H360Q364 64 364 40Q364 17 360 0H200Q196 17 196 40Q196 64 200 80Q196 97 196 120Q196 144 200 160H120Q124 144 124 120Q124
97 120 80Q124 64 124 40Q124 17 120 0H40Q36 17 36 40Q36 64 40 80Q36 97 36 120Q36 144 40 160Q36 177 36 200Q36 224 40 240H60Q56 257 56 280Q56 304 60 320Q56 337 56 360Q56 384 60 400H80Q76 417 76 440Q76 464 80 480H100Q96 497 96 520Q96 544 100 560H360Q364
544 364 520Q364 497 360 480H280Q284 464 284 440Q284 417 280 400Q284 384 284 360Q284 337 280 320H360Q364 304 364 280Q364 257 360 240ZM200 240Q196 257 196 280Q196 304 200 320Q196 337 196 360Q196 384 200 400Q196 417 196 440Q196 464 200 480H140Q144
464 144 440Q144 417 140 400Q144 384 144 360Q144 337 140 320Q144 304 144 280Q144 257 140 240H200Z" />
<glyph unicode="&#xc7;" glyph-name="Ccedilla" d="M360 160Q364 144 364 120Q364 97 360 80H320Q324 64 324 40Q324 17 320 0H120Q116 17 116 40Q116 64 120 80H80Q76 97 76 120Q76 144 80 160H40Q36 177 36 200Q36 224 40 240Q36 257 36 280Q36 304 40 320Q36
337 36 360Q36 384 40 400H80Q76 417 76 440Q76 464 80 480H120Q116 497 116 520Q116 544 120 560H320Q324 544 324 520Q324 497 320 480H360Q364 464 364 440Q364 417 360 400H280Q276 417 276 440Q276 464 280 480H160Q164 464 164 440Q164 417 160 400H120Q124
384 124 360Q124 337 120 320Q124 304 124 280Q124 257 120 240Q124 224 124 200Q124 177 120 160H160Q164 144 164 120Q164 97 160 80H280Q276 97 276 120Q276 144 280 160H360ZM264 -63T260 -80H230Q234 -96 234 -120Q234 -143 230 -160H150Q146 -143 146 -120Q146
-96 150 -80H200Q196 -63 196 -40Q196 -16 200 0H260Q264 -16 264 -40Q264 -63 260 -80Z" />
<glyph unicode="&#xc8;" glyph-name="Egrave" d="M120 720Q116 737 116 760Q116 784 120 800H200Q204 784 204 760Q204 737 200 720H240Q244 704 244 680Q244 657 240 640H160Q156 657 156 680Q156 704 160 720H120ZM160 240Q164 224 164 200Q164 177 160 160Q164
144 164 120Q164 97 160 80H320Q324 64 324 40Q324 17 320 0H80Q76 17 76 40Q76 64 80 80Q76 97 76 120Q76 144 80 160Q76 177 76 200Q76 224 80 240Q76 257 76 280Q76 304 80 320Q76 337 76 360Q76 384 80 400Q76 417 76 440Q76 464 80 480Q76 497 76 520Q76 544
80 560H320Q324 544 324 520Q324 497 320 480H160Q164 464 164 440Q164 417 160 400Q164 384 164 360Q164 337 160 320H320Q324 304 324 280Q324 257 320 240H160Z" />
<glyph unicode="&#xc9;" glyph-name="Eacute" d="M160 640Q156 657 156 680Q156 704 160 720H200Q196 737 196 760Q196 784 200 800H280Q284 784 284 760Q284 737 280 720H240Q244 704 244 680Q244 657 240 640H160ZM160 240Q164 224 164 200Q164 177 160 160Q164
144 164 120Q164 97 160 80H320Q324 64 324 40Q324 17 320 0H80Q76 17 76 40Q76 64 80 80Q76 97 76 120Q76 144 80 160Q76 177 76 200Q76 224 80 240Q76 257 76 280Q76 304 80 320Q76 337 76 360Q76 384 80 400Q76 417 76 440Q76 464 80 480Q76 497 76 520Q76 544
80 560H320Q324 544 324 520Q324 497 320 480H160Q164 464 164 440Q164 417 160 400Q164 384 164 360Q164 337 160 320H320Q324 304 324 280Q324 257 320 240H160Z" />
<glyph unicode="&#xca;" glyph-name="Ecircumflex" d="M160 240Q164 224 164 200Q164 177 160 160Q164 144 164 120Q164 97 160 80H320Q324 64 324 40Q324 17 320 0H80Q76 17 76 40Q76 64 80 80Q76 97 76 120Q76 144 80 160Q76 177 76 200Q76 224 80 240Q76 257
76 280Q76 304 80 320Q76 337 76 360Q76 384 80 400Q76 417 76 440Q76 464 80 480Q76 497 76 520Q76 544 80 560H320Q324 544 324 520Q324 497 320 480H160Q164 464 164 440Q164 417 160 400Q164 384 164 360Q164 337 160 320H320Q324 304 324 280Q324 257 320
240H160ZM314 704T314 680Q314 657 310 640H230Q226 657 226 680Q226 704 230 720H170Q174 704 174 680Q174 657 170 640H90Q86 657 86 680Q86 704 90 720H140Q136 737 136 760Q136 784 140 800H260Q264 784 264 760Q264 737 260 720H310Q314 704 314 680Z" />
<glyph unicode="&#xcb;" glyph-name="Edieresis" d="M80 640Q76 657 76 680Q76 704 80 720H160Q164 704 164 680Q164 657 160 640H80ZM240 640Q236 657 236 680Q236 704 240 720H320Q324 704 324 680Q324 657 320 640H240ZM160 480Q164 464 164 440Q164 417 160
400Q164 384 164 360Q164 337 160 320H320Q324 304 324 280Q324 257 320 240H160Q164 224 164 200Q164 177 160 160Q164 144 164 120Q164 97 160 80H320Q324 64 324 40Q324 17 320 0H80Q76 17 76 40Q76 64 80 80Q76 97 76 120Q76 144 80 160Q76 177 76 200Q76 224
80 240Q76 257 76 280Q76 304 80 320Q76 337 76 360Q76 384 80 400Q76 417 76 440Q76 464 80 480Q76 497 76 520Q76 544 80 560H320Q324 544 324 520Q324 497 320 480H160Z" />
<glyph unicode="&#xcc;" glyph-name="Igrave" d="M120 720Q116 737 116 760Q116 784 120 800H200Q204 784 204 760Q204 737 200 720H240Q244 704 244 680Q244 657 240 640H160Q156 657 156 680Q156 704 160 720H120ZM300 80Q304 64 304 40Q304 17 300 0H100Q96
17 96 40Q96 64 100 80H160Q156 97 156 120Q156 144 160 160Q156 177 156 200Q156 224 160 240Q156 257 156 280Q156 304 160 320Q156 337 156 360Q156 384 160 400Q156 417 156 440Q156 464 160 480H100Q96 497 96 520Q96 544 100 560H300Q304 544 304 520Q304
497 300 480H240Q244 464 244 440Q244 417 240 400Q244 384 244 360Q244 337 240 320Q244 304 244 280Q244 257 240 240Q244 224 244 200Q244 177 240 160Q244 144 244 120Q244 97 240 80H300Z" />
<glyph unicode="&#xcd;" glyph-name="Iacute" d="M160 640Q156 657 156 680Q156 704 160 720H200Q196 737 196 760Q196 784 200 800H280Q284 784 284 760Q284 737 280 720H240Q244 704 244 680Q244 657 240 640H160ZM300 80Q304 64 304 40Q304 17 300 0H100Q96
17 96 40Q96 64 100 80H160Q156 97 156 120Q156 144 160 160Q156 177 156 200Q156 224 160 240Q156 257 156 280Q156 304 160 320Q156 337 156 360Q156 384 160 400Q156 417 156 440Q156 464 160 480H100Q96 497 96 520Q96 544 100 560H300Q304 544 304 520Q304
497 300 480H240Q244 464 244 440Q244 417 240 400Q244 384 244 360Q244 337 240 320Q244 304 244 280Q244 257 240 240Q244 224 244 200Q244 177 240 160Q244 144 244 120Q244 97 240 80H300Z" />
<glyph unicode="&#xce;" glyph-name="Icircumflex" d="M300 80Q304 64 304 40Q304 17 300 0H100Q96 17 96 40Q96 64 100 80H160Q156 97 156 120Q156 144 160 160Q156 177 156 200Q156 224 160 240Q156 257 156 280Q156 304 160 320Q156 337 156 360Q156 384 160
400Q156 417 156 440Q156 464 160 480H100Q96 497 96 520Q96 544 100 560H300Q304 544 304 520Q304 497 300 480H240Q244 464 244 440Q244 417 240 400Q244 384 244 360Q244 337 240 320Q244 304 244 280Q244 257 240 240Q244 224 244 200Q244 177 240 160Q244
144 244 120Q244 97 240 80H300ZM314 704T314 680Q314 657 310 640H230Q226 657 226 680Q226 704 230 720H170Q174 704 174 680Q174 657 170 640H90Q86 657 86 680Q86 704 90 720H140Q136 737 136 760Q136 784 140 800H260Q264 784 264 760Q264 737 260 720H310Q314
704 314 680Z" />
<glyph unicode="&#xcf;" glyph-name="Idieresis" d="M164 657T160 640H80Q76 657 76 680Q76 704 80 720H160Q164 704 164 680Q164 657 160 640ZM324 704T324 680Q324 657 320 640H240Q236 657 236 680Q236 704 240 720H320Q324 704 324 680ZM304 497T300 480H240Q244
464 244 440Q244 417 240 400Q244 384 244 360Q244 337 240 320Q244 304 244 280Q244 257 240 240Q244 224 244 200Q244 177 240 160Q244 144 244 120Q244 97 240 80H300Q304 64 304 40Q304 17 300 0H100Q96 17 96 40Q96 64 100 80H160Q156 97 156 120Q156 144
160 160Q156 177 156 200Q156 224 160 240Q156 257 156 280Q156 304 160 320Q156 337 156 360Q156 384 160 400Q156 417 156 440Q156 464 160 480H100Q96 497 96 520Q96 544 100 560H300Q304 544 304 520Q304 497 300 480Z" />
<glyph unicode="&#xd0;" glyph-name="Eth" d="M364 304T364 280Q364 257 360 240Q364 224 364 200Q364 177 360 160H320Q324 144 324 120Q324 97 320 80H280Q284 64 284 40Q284 17 280 0H40Q36 17 36 40Q36 64 40 80H80Q76 97 76 120Q76 144 80 160Q76 177 76
200Q76 224 80 240H40Q36 257 36 280Q36 304 40 320H80Q76 337 76 360Q76 384 80 400Q76 417 76 440Q76 464 80 480H40Q36 497 36 520Q36 544 40 560H280Q284 544 284 520Q284 497 280 480H320Q324 464 324 440Q324 417 320 400H360Q364 384 364 360Q364 337 360
320Q364 304 364 280ZM276 177T276 200Q276 224 280 240Q276 257 276 280Q276 304 280 320Q276 337 276 360Q276 384 280 400H240Q236 417 236 440Q236 464 240 480H160Q164 464 164 440Q164 417 160 400Q164 384 164 360Q164 337 160 320H200Q204 304 204 280Q204
257 200 240H160Q164 224 164 200Q164 177 160 160Q164 144 164 120Q164 97 160 80H240Q236 97 236 120Q236 144 240 160H280Q276 177 276 200Z" />
<glyph unicode="&#xd1;" glyph-name="Ntilde" d="M364 464T364 440Q364 417 360 400Q364 384 364 360Q364 337 360 320Q364 304 364 280Q364 257 360 240Q364 224 364 200Q364 177 360 160Q364 144 364 120Q364 97 360 80Q364 64 364 40Q364 17 360 0H280Q276
17 276 40Q276 64 280 80H230Q226 97 226 120Q226 144 230 160H200Q196 177 196 200Q196 224 200 240H160Q156 257 156 280Q156 304 160 320H120Q124 304 124 280Q124 257 120 240Q124 224 124 200Q124 177 120 160Q124 144 124 120Q124 97 120 80Q124 64 124 40Q124
17 120 0H40Q36 17 36 40Q36 64 40 80Q36 97 36 120Q36 144 40 160Q36 177 36 200Q36 224 40 240Q36 257 36 280Q36 304 40 320Q36 337 36 360Q36 384 40 400Q36 417 36 440Q36 464 40 480Q36 497 36 520Q36 544 40 560H140Q144 544 144 520Q144 497 140 480H170Q174
464 174 440Q174 417 170 400H200Q204 384 204 360Q204 337 200 320H240Q244 304 244 280Q244 257 240 240H280Q276 257 276 280Q276 304 280 320Q276 337 276 360Q276 384 280 400Q276 417 276 440Q276 464 280 480Q276 497 276 520Q276 544 280 560H360Q364 544
364 520Q364 497 360 480Q364 464 364 440ZM224 737T220 720H300Q304 704 304 680Q304 657 300 640H180Q176 657 176 680Q176 704 180 720H100Q96 737 96 760Q96 784 100 800H220Q224 784 224 760Q224 737 220 720ZM364 737T360 720H300Q296 737 296 760Q296 784
300 800H360Q364 784 364 760Q364 737 360 720ZM36 704T40 720H100Q104 704 104 680Q104 657 100 640H40Q36 657 36 680Q36 704 40 720Z" />
<glyph unicode="&#xd2;" glyph-name="Ograve" d="M120 720Q116 737 116 760Q116 784 120 800H200Q204 784 204 760Q204 737 200 720H240Q244 704 244 680Q244 657 240 640H160Q156 657 156 680Q156 704 160 720H120ZM364 304T364 280Q364 257 360 240Q364 224
364 200Q364 177 360 160H330Q334 144 334 120Q334 97 330 80H280Q284 64 284 40Q284 17 280 0H120Q116 17 116 40Q116 64 120 80H70Q66 97 66 120Q66 144 70 160H40Q36 177 36 200Q36 224 40 240Q36 257 36 280Q36 304 40 320Q36 337 36 360Q36 384 40 400H70Q66
417 66 440Q66 464 70 480H120Q116 497 116 520Q116 544 120 560H280Q284 544 284 520Q284 497 280 480H330Q334 464 334 440Q334 417 330 400H360Q364 384 364 360Q364 337 360 320Q364 304 364 280ZM276 177T276 200Q276 224 280 240Q276 257 276 280Q276 304
280 320Q276 337 276 360Q276 384 280 400H250Q246 417 246 440Q246 464 250 480H150Q154 464 154 440Q154 417 150 400H120Q124 384 124 360Q124 337 120 320Q124 304 124 280Q124 257 120 240Q124 224 124 200Q124 177 120 160H150Q154 144 154 120Q154 97 150
80H250Q246 97 246 120Q246 144 250 160H280Q276 177 276 200Z" />
<glyph unicode="&#xd3;" glyph-name="Oacute" d="M160 640Q156 657 156 680Q156 704 160 720H200Q196 737 196 760Q196 784 200 800H280Q284 784 284 760Q284 737 280 720H240Q244 704 244 680Q244 657 240 640H160ZM364 304T364 280Q364 257 360 240Q364 224
364 200Q364 177 360 160H330Q334 144 334 120Q334 97 330 80H280Q284 64 284 40Q284 17 280 0H120Q116 17 116 40Q116 64 120 80H70Q66 97 66 120Q66 144 70 160H40Q36 177 36 200Q36 224 40 240Q36 257 36 280Q36 304 40 320Q36 337 36 360Q36 384 40 400H70Q66
417 66 440Q66 464 70 480H120Q116 497 116 520Q116 544 120 560H280Q284 544 284 520Q284 497 280 480H330Q334 464 334 440Q334 417 330 400H360Q364 384 364 360Q364 337 360 320Q364 304 364 280ZM276 177T276 200Q276 224 280 240Q276 257 276 280Q276 304
280 320Q276 337 276 360Q276 384 280 400H250Q246 417 246 440Q246 464 250 480H150Q154 464 154 440Q154 417 150 400H120Q124 384 124 360Q124 337 120 320Q124 304 124 280Q124 257 120 240Q124 224 124 200Q124 177 120 160H150Q154 144 154 120Q154 97 150
80H250Q246 97 246 120Q246 144 250 160H280Q276 177 276 200Z" />
<glyph unicode="&#xd4;" glyph-name="Ocircumflex" d="M364 304T364 280Q364 257 360 240Q364 224 364 200Q364 177 360 160H330Q334 144 334 120Q334 97 330 80H280Q284 64 284 40Q284 17 280 0H120Q116 17 116 40Q116 64 120 80H70Q66 97 66 120Q66 144 70 160H40Q36
177 36 200Q36 224 40 240Q36 257 36 280Q36 304 40 320Q36 337 36 360Q36 384 40 400H70Q66 417 66 440Q66 464 70 480H120Q116 497 116 520Q116 544 120 560H280Q284 544 284 520Q284 497 280 480H330Q334 464 334 440Q334 417 330 400H360Q364 384 364 360Q364
337 360 320Q364 304 364 280ZM276 177T276 200Q276 224 280 240Q276 257 276 280Q276 304 280 320Q276 337 276 360Q276 384 280 400H250Q246 417 246 440Q246 464 250 480H150Q154 464 154 440Q154 417 150 400H120Q124 384 124 360Q124 337 120 320Q124 304
124 280Q124 257 120 240Q124 224 124 200Q124 177 120 160H150Q154 144 154 120Q154 97 150 80H250Q246 97 246 120Q246 144 250 160H280Q276 177 276 200ZM314 704T314 680Q314 657 310 640H230Q226 657 226 680Q226 704 230 720H170Q174 704 174 680Q174 657
170 640H90Q86 657 86 680Q86 704 90 720H140Q136 737 136 760Q136 784 140 800H260Q264 784 264 760Q264 737 260 720H310Q314 704 314 680Z" />
<glyph unicode="&#xd5;" glyph-name="Otilde" d="M364 304T364 280Q364 257 360 240Q364 224 364 200Q364 177 360 160H330Q334 144 334 120Q334 97 330 80H280Q284 64 284 40Q284 17 280 0H120Q116 17 116 40Q116 64 120 80H70Q66 97 66 120Q66 144 70 160H40Q36
177 36 200Q36 224 40 240Q36 257 36 280Q36 304 40 320Q36 337 36 360Q36 384 40 400H70Q66 417 66 440Q66 464 70 480H120Q116 497 116 520Q116 544 120 560H280Q284 544 284 520Q284 497 280 480H330Q334 464 334 440Q334 417 330 400H360Q364 384 364 360Q364
337 360 320Q364 304 364 280ZM276 177T276 200Q276 224 280 240Q276 257 276 280Q276 304 280 320Q276 337 276 360Q276 384 280 400H250Q246 417 246 440Q246 464 250 480H150Q154 464 154 440Q154 417 150 400H120Q124 384 124 360Q124 337 120 320Q124 304
124 280Q124 257 120 240Q124 224 124 200Q124 177 120 160H150Q154 144 154 120Q154 97 150 80H250Q246 97 246 120Q246 144 250 160H280Q276 177 276 200ZM224 737T220 720H300Q304 704 304 680Q304 657 300 640H180Q176 657 176 680Q176 704 180 720H100Q96
737 96 760Q96 784 100 800H220Q224 784 224 760Q224 737 220 720ZM364 737T360 720H300Q296 737 296 760Q296 784 300 800H360Q364 784 364 760Q364 737 360 720ZM36 704T40 720H100Q104 704 104 680Q104 657 100 640H40Q36 657 36 680Q36 704 40 720Z" />
<glyph unicode="&#xd6;" glyph-name="Odieresis" d="M80 640Q76 657 76 680Q76 704 80 720H160Q164 704 164 680Q164 657 160 640H80ZM240 640Q236 657 236 680Q236 704 240 720H320Q324 704 324 680Q324 657 320 640H240ZM364 304T364 280Q364 257 360 240Q364
224 364 200Q364 177 360 160H330Q334 144 334 120Q334 97 330 80H280Q284 64 284 40Q284 17 280 0H120Q116 17 116 40Q116 64 120 80H70Q66 97 66 120Q66 144 70 160H40Q36 177 36 200Q36 224 40 240Q36 257 36 280Q36 304 40 320Q36 337 36 360Q36 384 40 400H70Q66
417 66 440Q66 464 70 480H120Q116 497 116 520Q116 544 120 560H280Q284 544 284 520Q284 497 280 480H330Q334 464 334 440Q334 417 330 400H360Q364 384 364 360Q364 337 360 320Q364 304 364 280ZM276 177T276 200Q276 224 280 240Q276 257 276 280Q276 304
280 320Q276 337 276 360Q276 384 280 400H250Q246 417 246 440Q246 464 250 480H150Q154 464 154 440Q154 417 150 400H120Q124 384 124 360Q124 337 120 320Q124 304 124 280Q124 257 120 240Q124 224 124 200Q124 177 120 160H150Q154 144 154 120Q154 97 150
80H250Q246 97 246 120Q246 144 250 160H280Q276 177 276 200Z" />
<glyph unicode="&#xd7;" glyph-name="multiply" d="M320 160Q324 144 324 120Q324 97 320 80H260Q256 97 256 120Q256 144 260 160H230Q226 177 226 200Q226 224 230 240H170Q174 224 174 200Q174 177 170 160H140Q144 144 144 120Q144 97 140 80H80Q76 97 76
120Q76 144 80 160H110Q106 177 106 200Q106 224 110 240H150Q146 257 146 280Q146 304 150 320Q146 337 146 360Q146 384 150 400H110Q106 417 106 440Q106 464 110 480H80Q76 497 76 520Q76 544 80 560H140Q144 544 144 520Q144 497 140 480H170Q174 464 174
440Q174 417 170 400H230Q226 417 226 440Q226 464 230 480H260Q256 497 256 520Q256 544 260 560H320Q324 544 324 520Q324 497 320 480H290Q294 464 294 440Q294 417 290 400H250Q254 384 254 360Q254 337 250 320Q254 304 254 280Q254 257 250 240H290Q294 224
294 200Q294 177 290 160H320Z" />
<glyph unicode="&#xd8;" glyph-name="Oslash" d="M364 464T364 440Q364 417 360 400Q364 384 364 360Q364 337 360 320Q364 304 364 280Q364 257 360 240Q364 224 364 200Q364 177 360 160H330Q334 144 334 120Q334 97 330 80H280Q284 64 284 40Q284 17 280 0H120Q124
-16 124 -40Q124 -63 120 -80H40Q36 -63 36 -40Q36 -16 40 0H70Q66 17 66 40Q66 64 70 80H40Q36 97 36 120Q36 144 40 160Q36 177 36 200Q36 224 40 240Q36 257 36 280Q36 304 40 320Q36 337 36 360Q36 384 40 400H70Q66 417 66 440Q66 464 70 480H120Q116 497
116 520Q116 544 120 560H280Q276 577 276 600Q276 624 280 640H360Q364 624 364 600Q364 577 360 560H330Q334 544 334 520Q334 497 330 480H360Q364 464 364 440ZM124 224T124 200Q124 177 120 160H155Q151 177 151 200Q151 224 155 240H175Q171 257 171 280Q171
304 175 320H195Q191 337 191 360Q191 384 195 400H230Q226 417 226 440Q226 464 230 480H150Q154 464 154 440Q154 417 150 400H120Q124 384 124 360Q124 337 120 320Q124 304 124 280Q124 257 120 240Q124 224 124 200ZM276 337T276 360Q276 384 280 400H245Q249
384 249 360Q249 337 245 320H225Q229 304 229 280Q229 257 225 240H205Q209 224 209 200Q209 177 205 160H170Q174 144 174 120Q174 97 170 80H250Q246 97 246 120Q246 144 250 160H280Q276 177 276 200Q276 224 280 240Q276 257 276 280Q276 304 280 320Q276
337 276 360Z" />
<glyph unicode="&#xd9;" glyph-name="Ugrave" d="M120 720Q116 737 116 760Q116 784 120 800H200Q204 784 204 760Q204 737 200 720H240Q244 704 244 680Q244 657 240 640H160Q156 657 156 680Q156 704 160 720H120ZM364 464T364 440Q364 417 360 400Q364 384
364 360Q364 337 360 320Q364 304 364 280Q364 257 360 240Q364 224 364 200Q364 177 360 160Q364 144 364 120Q364 97 360 80H320Q324 64 324 40Q324 17 320 0H80Q76 17 76 40Q76 64 80 80H40Q36 97 36 120Q36 144 40 160Q36 177 36 200Q36 224 40 240Q36 257
36 280Q36 304 40 320Q36 337 36 360Q36 384 40 400Q36 417 36 440Q36 464 40 480Q36 497 36 520Q36 544 40 560H120Q124 544 124 520Q124 497 120 480Q124 464 124 440Q124 417 120 400Q124 384 124 360Q124 337 120 320Q124 304 124 280Q124 257 120 240Q124
224 124 200Q124 177 120 160Q124 144 124 120Q124 97 120 80H280Q276 97 276 120Q276 144 280 160Q276 177 276 200Q276 224 280 240Q276 257 276 280Q276 304 280 320Q276 337 276 360Q276 384 280 400Q276 417 276 440Q276 464 280 480Q276 497 276 520Q276
544 280 560H360Q364 544 364 520Q364 497 360 480Q364 464 364 440Z" />
<glyph unicode="&#xda;" glyph-name="Uacute" d="M160 640Q156 657 156 680Q156 704 160 720H200Q196 737 196 760Q196 784 200 800H280Q284 784 284 760Q284 737 280 720H240Q244 704 244 680Q244 657 240 640H160ZM364 464T364 440Q364 417 360 400Q364 384
364 360Q364 337 360 320Q364 304 364 280Q364 257 360 240Q364 224 364 200Q364 177 360 160Q364 144 364 120Q364 97 360 80H320Q324 64 324 40Q324 17 320 0H80Q76 17 76 40Q76 64 80 80H40Q36 97 36 120Q36 144 40 160Q36 177 36 200Q36 224 40 240Q36 257
36 280Q36 304 40 320Q36 337 36 360Q36 384 40 400Q36 417 36 440Q36 464 40 480Q36 497 36 520Q36 544 40 560H120Q124 544 124 520Q124 497 120 480Q124 464 124 440Q124 417 120 400Q124 384 124 360Q124 337 120 320Q124 304 124 280Q124 257 120 240Q124
224 124 200Q124 177 120 160Q124 144 124 120Q124 97 120 80H280Q276 97 276 120Q276 144 280 160Q276 177 276 200Q276 224 280 240Q276 257 276 280Q276 304 280 320Q276 337 276 360Q276 384 280 400Q276 417 276 440Q276 464 280 480Q276 497 276 520Q276
544 280 560H360Q364 544 364 520Q364 497 360 480Q364 464 364 440Z" />
<glyph unicode="&#xdb;" glyph-name="Ucircumflex" d="M364 464T364 440Q364 417 360 400Q364 384 364 360Q364 337 360 320Q364 304 364 280Q364 257 360 240Q364 224 364 200Q364 177 360 160Q364 144 364 120Q364 97 360 80H320Q324 64 324 40Q324 17 320 0H80Q76
17 76 40Q76 64 80 80H40Q36 97 36 120Q36 144 40 160Q36 177 36 200Q36 224 40 240Q36 257 36 280Q36 304 40 320Q36 337 36 360Q36 384 40 400Q36 417 36 440Q36 464 40 480Q36 497 36 520Q36 544 40 560H120Q124 544 124 520Q124 497 120 480Q124 464 124 440Q124
417 120 400Q124 384 124 360Q124 337 120 320Q124 304 124 280Q124 257 120 240Q124 224 124 200Q124 177 120 160Q124 144 124 120Q124 97 120 80H280Q276 97 276 120Q276 144 280 160Q276 177 276 200Q276 224 280 240Q276 257 276 280Q276 304 280 320Q276
337 276 360Q276 384 280 400Q276 417 276 440Q276 464 280 480Q276 497 276 520Q276 544 280 560H360Q364 544 364 520Q364 497 360 480Q364 464 364 440ZM314 704T314 680Q314 657 310 640H230Q226 657 226 680Q226 704 230 720H170Q174 704 174 680Q174 657
170 640H90Q86 657 86 680Q86 704 90 720H140Q136 737 136 760Q136 784 140 800H260Q264 784 264 760Q264 737 260 720H310Q314 704 314 680Z" />
<glyph unicode="&#xdc;" glyph-name="Udieresis" d="M80 640Q76 657 76 680Q76 704 80 720H160Q164 704 164 680Q164 657 160 640H80ZM240 640Q236 657 236 680Q236 704 240 720H320Q324 704 324 680Q324 657 320 640H240ZM364 464T364 440Q364 417 360 400Q364
384 364 360Q364 337 360 320Q364 304 364 280Q364 257 360 240Q364 224 364 200Q364 177 360 160Q364 144 364 120Q364 97 360 80H320Q324 64 324 40Q324 17 320 0H80Q76 17 76 40Q76 64 80 80H40Q36 97 36 120Q36 144 40 160Q36 177 36 200Q36 224 40 240Q36
257 36 280Q36 304 40 320Q36 337 36 360Q36 384 40 400Q36 417 36 440Q36 464 40 480Q36 497 36 520Q36 544 40 560H120Q124 544 124 520Q124 497 120 480Q124 464 124 440Q124 417 120 400Q124 384 124 360Q124 337 120 320Q124 304 124 280Q124 257 120 240Q124
224 124 200Q124 177 120 160Q124 144 124 120Q124 97 120 80H280Q276 97 276 120Q276 144 280 160Q276 177 276 200Q276 224 280 240Q276 257 276 280Q276 304 280 320Q276 337 276 360Q276 384 280 400Q276 417 276 440Q276 464 280 480Q276 497 276 520Q276
544 280 560H360Q364 544 364 520Q364 497 360 480Q364 464 364 440Z" />
<glyph unicode="&#xdd;" glyph-name="Yacute" d="M160 640Q156 657 156 680Q156 704 160 720H200Q196 737 196 760Q196 784 200 800H280Q284 784 284 760Q284 737 280 720H240Q244 704 244 680Q244 657 240 640H160ZM364 497T360 480Q364 464 364 440Q364 417
360 400H320Q324 384 324 360Q324 337 320 320H280Q284 304 284 280Q284 257 280 240H240Q244 224 244 200Q244 177 240 160Q244 144 244 120Q244 97 240 80Q244 64 244 40Q244 17 240 0H160Q156 17 156 40Q156 64 160 80Q156 97 156 120Q156 144 160 160Q156 177
156 200Q156 224 160 240H120Q116 257 116 280Q116 304 120 320H80Q76 337 76 360Q76 384 80 400H40Q36 417 36 440Q36 464 40 480Q36 497 36 520Q36 544 40 560H120Q124 544 124 520Q124 497 120 480Q124 464 124 440Q124 417 120 400H160Q164 384 164 360Q164
337 160 320H240Q236 337 236 360Q236 384 240 400H280Q276 417 276 440Q276 464 280 480Q276 497 276 520Q276 544 280 560H360Q364 544 364 520Q364 497 360 480Z" />
<glyph unicode="&#xde;" glyph-name="Thorn" d="M364 257T360 240H330Q334 224 334 200Q334 177 330 160H280Q284 144 284 120Q284 97 280 80H160Q164 64 164 40Q164 17 160 0H40Q36 17 36 40Q36 64 40 80H80Q76 97 76 120Q76 144 80 160Q76 177 76 200Q76 224
80 240Q76 257 76 280Q76 304 80 320Q76 337 76 360Q76 384 80 400Q76 417 76 440Q76 464 80 480H40Q36 497 36 520Q36 544 40 560H160Q164 544 164 520Q164 497 160 480H280Q284 464 284 440Q284 417 280 400H330Q334 384 334 360Q334 337 330 320H360Q364 304
364 280Q364 257 360 240ZM280 240Q276 257 276 280Q276 304 280 320H250Q246 337 246 360Q246 384 250 400H160Q164 384 164 360Q164 337 160 320Q164 304 164 280Q164 257 160 240Q164 224 164 200Q164 177 160 160H250Q246 177 246 200Q246 224 250 240H280Z"
/>
<glyph unicode="&#xdf;" glyph-name="germandbls" d="M364 337T360 320H320Q324 304 324 280Q324 257 320 240H360Q364 224 364 200Q364 177 360 160Q364 144 364 120Q364 97 360 80H320Q324 64 324 40Q324 17 320 0H200Q196 17 196 40Q196 64 200 80H280Q276
97 276 120Q276 144 280 160Q276 177 276 200Q276 224 280 240H200Q196 257 196 280Q196 304 200 320H280Q276 337 276 360Q276 384 280 400Q276 417 276 440Q276 464 280 480H160Q164 464 164 440Q164 417 160 400Q164 384 164 360Q164 337 160 320Q164 304 164
280Q164 257 160 240Q164 224 164 200Q164 177 160 160Q164 144 164 120Q164 97 160 80Q164 64 164 40Q164 17 160 0H40Q36 17 36 40Q36 64 40 80H80Q76 97 76 120Q76 144 80 160Q76 177 76 200Q76 224 80 240Q76 257 76 280Q76 304 80 320H40Q36 337 36 360Q36
384 40 400H80Q76 417 76 440Q76 464 80 480H120Q116 497 116 520Q116 544 120 560H320Q324 544 324 520Q324 497 320 480H360Q364 464 364 440Q364 417 360 400Q364 384 364 360Q364 337 360 320Z" />
<glyph unicode="&#xe0;" glyph-name="agrave" d="M120 560Q116 577 116 600Q116 624 120 640H200Q204 624 204 600Q204 577 200 560H240Q244 544 244 520Q244 497 240 480H160Q156 497 156 520Q156 544 160 560H120ZM364 64T364 40Q364 17 360 0H280Q276 17 276
40Q276 64 280 80H240Q236 97 236 120Q236 144 240 160H120Q124 144 124 120Q124 97 120 80H240Q244 64 244 40Q244 17 240 0H80Q76 17 76 40Q76 64 80 80H40Q36 97 36 120Q36 144 40 160H80Q76 177 76 200Q76 224 80 240H240Q236 257 236 280Q236 304 240 320H100Q96
337 96 360Q96 384 100 400H280Q284 384 284 360Q284 337 280 320H320Q324 304 324 280Q324 257 320 240Q324 224 324 200Q324 177 320 160Q324 144 324 120Q324 97 320 80H360Q364 64 364 40Z" />
<glyph unicode="&#xe1;" glyph-name="aacute" d="M160 480Q156 497 156 520Q156 544 160 560H200Q196 577 196 600Q196 624 200 640H280Q284 624 284 600Q284 577 280 560H240Q244 544 244 520Q244 497 240 480H160ZM364 64T364 40Q364 17 360 0H280Q276 17 276
40Q276 64 280 80H240Q236 97 236 120Q236 144 240 160H120Q124 144 124 120Q124 97 120 80H240Q244 64 244 40Q244 17 240 0H80Q76 17 76 40Q76 64 80 80H40Q36 97 36 120Q36 144 40 160H80Q76 177 76 200Q76 224 80 240H240Q236 257 236 280Q236 304 240 320H100Q96
337 96 360Q96 384 100 400H280Q284 384 284 360Q284 337 280 320H320Q324 304 324 280Q324 257 320 240Q324 224 324 200Q324 177 320 160Q324 144 324 120Q324 97 320 80H360Q364 64 364 40Z" />
<glyph unicode="&#xe2;" glyph-name="acircumflex" d="M364 64T364 40Q364 17 360 0H280Q276 17 276 40Q276 64 280 80H240Q236 97 236 120Q236 144 240 160H120Q124 144 124 120Q124 97 120 80H240Q244 64 244 40Q244 17 240 0H80Q76 17 76 40Q76 64 80 80H40Q36
97 36 120Q36 144 40 160H80Q76 177 76 200Q76 224 80 240H240Q236 257 236 280Q236 304 240 320H100Q96 337 96 360Q96 384 100 400H280Q284 384 284 360Q284 337 280 320H320Q324 304 324 280Q324 257 320 240Q324 224 324 200Q324 177 320 160Q324 144 324 120Q324
97 320 80H360Q364 64 364 40ZM314 544T314 520Q314 497 310 480H230Q226 497 226 520Q226 544 230 560H170Q174 544 174 520Q174 497 170 480H90Q86 497 86 520Q86 544 90 560H140Q136 577 136 600Q136 624 140 640H260Q264 624 264 600Q264 577 260 560H310Q314
544 314 520Z" />
<glyph unicode="&#xe3;" glyph-name="atilde" d="M364 64T364 40Q364 17 360 0H280Q276 17 276 40Q276 64 280 80H240Q236 97 236 120Q236 144 240 160H120Q124 144 124 120Q124 97 120 80H240Q244 64 244 40Q244 17 240 0H80Q76 17 76 40Q76 64 80 80H40Q36 97
36 120Q36 144 40 160H80Q76 177 76 200Q76 224 80 240H240Q236 257 236 280Q236 304 240 320H100Q96 337 96 360Q96 384 100 400H280Q284 384 284 360Q284 337 280 320H320Q324 304 324 280Q324 257 320 240Q324 224 324 200Q324 177 320 160Q324 144 324 120Q324
97 320 80H360Q364 64 364 40ZM224 577T220 560H300Q304 544 304 520Q304 497 300 480H180Q176 497 176 520Q176 544 180 560H100Q96 577 96 600Q96 624 100 640H220Q224 624 224 600Q224 577 220 560ZM364 577T360 560H300Q296 577 296 600Q296 624 300 640H360Q364
624 364 600Q364 577 360 560ZM36 544T40 560H100Q104 544 104 520Q104 497 100 480H40Q36 497 36 520Q36 544 40 560Z" />
<glyph unicode="&#xe4;" glyph-name="adieresis" d="M80 480Q76 497 76 520Q76 544 80 560H160Q164 544 164 520Q164 497 160 480H80ZM240 480Q236 497 236 520Q236 544 240 560H320Q324 544 324 520Q324 497 320 480H240ZM364 64T364 40Q364 17 360 0H280Q276
17 276 40Q276 64 280 80H240Q236 97 236 120Q236 144 240 160H120Q124 144 124 120Q124 97 120 80H240Q244 64 244 40Q244 17 240 0H80Q76 17 76 40Q76 64 80 80H40Q36 97 36 120Q36 144 40 160H80Q76 177 76 200Q76 224 80 240H240Q236 257 236 280Q236 304 240
320H100Q96 337 96 360Q96 384 100 400H280Q284 384 284 360Q284 337 280 320H320Q324 304 324 280Q324 257 320 240Q324 224 324 200Q324 177 320 160Q324 144 324 120Q324 97 320 80H360Q364 64 364 40Z" />
<glyph unicode="&#xe5;" glyph-name="aring" d="M364 64T364 40Q364 17 360 0H280Q276 17 276 40Q276 64 280 80H240Q236 97 236 120Q236 144 240 160H120Q124 144 124 120Q124 97 120 80H240Q244 64 244 40Q244 17 240 0H80Q76 17 76 40Q76 64 80 80H40Q36 97
36 120Q36 144 40 160H80Q76 177 76 200Q76 224 80 240H240Q236 257 236 280Q236 304 240 320H100Q96 337 96 360Q96 384 100 400H280Q284 384 284 360Q284 337 280 320H320Q324 304 324 280Q324 257 320 240Q324 224 324 200Q324 177 320 160Q324 144 324 120Q324
97 320 80H360Q364 64 364 40ZM314 577T310 560H280Q284 544 284 520Q284 497 280 480H120Q116 497 116 520Q116 544 120 560H90Q86 577 86 600Q86 624 90 640H120Q116 657 116 680Q116 704 120 720H280Q284 704 284 680Q284 657 280 640H310Q314 624 314 600Q314
577 310 560ZM250 560Q246 577 246 600Q246 624 250 640H150Q154 624 154 600Q154 577 150 560H250Z" />
<glyph unicode="&#xe6;" glyph-name="ae" d="M364 177T360 160H260Q264 144 264 120Q264 97 260 80H360Q364 64 364 40Q364 17 360 0H240Q236 17 236 40Q236 64 240 80H200Q204 64 204 40Q204 17 200 0H80Q76 17 76 40Q76 64 80 80H40Q36 97 36 120Q36 144 40
160H80Q76 177 76 200Q76 224 80 240H180Q176 257 176 280Q176 304 180 320H100Q96 337 96 360Q96 384 100 400H200Q204 384 204 360Q204 337 200 320H240Q236 337 236 360Q236 384 240 400H340Q344 384 344 360Q344 337 340 320H360Q364 304 364 280Q364 257 360
240Q364 224 364 200Q364 177 360 160ZM320 240Q316 257 316 280Q316 304 320 320H260Q264 304 264 280Q264 257 260 240H320ZM180 80Q176 97 176 120Q176 144 180 160H120Q124 144 124 120Q124 97 120 80H180Z" />
<glyph unicode="&#xe7;" glyph-name="ccedilla" d="M360 160Q364 144 364 120Q364 97 360 80H320Q324 64 324 40Q324 17 320 0H120Q116 17 116 40Q116 64 120 80H80Q76 97 76 120Q76 144 80 160H40Q36 177 36 200Q36 224 40 240H80Q76 257 76 280Q76 304 80 320H120Q116
337 116 360Q116 384 120 400H320Q324 384 324 360Q324 337 320 320H360Q364 304 364 280Q364 257 360 240H280Q276 257 276 280Q276 304 280 320H160Q164 304 164 280Q164 257 160 240H120Q124 224 124 200Q124 177 120 160H160Q164 144 164 120Q164 97 160 80H280Q276
97 276 120Q276 144 280 160H360ZM264 -63T260 -80H230Q234 -96 234 -120Q234 -143 230 -160H150Q146 -143 146 -120Q146 -96 150 -80H200Q196 -63 196 -40Q196 -16 200 0H260Q264 -16 264 -40Q264 -63 260 -80Z" />
<glyph unicode="&#xe8;" glyph-name="egrave" d="M140 560Q136 577 136 600Q136 624 140 640H220Q224 624 224 600Q224 577 220 560H260Q264 544 264 520Q264 497 260 480H180Q176 497 176 520Q176 544 180 560H140ZM364 257T360 240Q364 224 364 200Q364 177
360 160H150Q154 144 154 120Q154 97 150 80H320Q324 64 324 40Q324 17 320 0H120Q116 17 116 40Q116 64 120 80H70Q66 97 66 120Q66 144 70 160H40Q36 177 36 200Q36 224 40 240H70Q66 257 66 280Q66 304 70 320H120Q116 337 116 360Q116 384 120 400H320Q324
384 324 360Q324 337 320 320H360Q364 304 364 280Q364 257 360 240ZM276 257T276 280Q276 304 280 320H150Q154 304 154 280Q154 257 150 240H280Q276 257 276 280Z" />
<glyph unicode="&#xe9;" glyph-name="eacute" d="M180 480Q176 497 176 520Q176 544 180 560H220Q216 577 216 600Q216 624 220 640H300Q304 624 304 600Q304 577 300 560H260Q264 544 264 520Q264 497 260 480H180ZM364 257T360 240Q364 224 364 200Q364 177
360 160H150Q154 144 154 120Q154 97 150 80H320Q324 64 324 40Q324 17 320 0H120Q116 17 116 40Q116 64 120 80H70Q66 97 66 120Q66 144 70 160H40Q36 177 36 200Q36 224 40 240H70Q66 257 66 280Q66 304 70 320H120Q116 337 116 360Q116 384 120 400H320Q324
384 324 360Q324 337 320 320H360Q364 304 364 280Q364 257 360 240ZM276 257T276 280Q276 304 280 320H150Q154 304 154 280Q154 257 150 240H280Q276 257 276 280Z" />
<glyph unicode="&#xea;" glyph-name="ecircumflex" d="M364 257T360 240Q364 224 364 200Q364 177 360 160H150Q154 144 154 120Q154 97 150 80H320Q324 64 324 40Q324 17 320 0H120Q116 17 116 40Q116 64 120 80H70Q66 97 66 120Q66 144 70 160H40Q36 177 36
200Q36 224 40 240H70Q66 257 66 280Q66 304 70 320H120Q116 337 116 360Q116 384 120 400H320Q324 384 324 360Q324 337 320 320H360Q364 304 364 280Q364 257 360 240ZM276 257T276 280Q276 304 280 320H150Q154 304 154 280Q154 257 150 240H280Q276 257 276
280ZM334 544T334 520Q334 497 330 480H250Q246 497 246 520Q246 544 250 560H190Q194 544 194 520Q194 497 190 480H110Q106 497 106 520Q106 544 110 560H160Q156 577 156 600Q156 624 160 640H280Q284 624 284 600Q284 577 280 560H330Q334 544 334 520Z" />
<glyph unicode="&#xeb;" glyph-name="edieresis" d="M100 480Q96 497 96 520Q96 544 100 560H180Q184 544 184 520Q184 497 180 480H100ZM260 480Q256 497 256 520Q256 544 260 560H340Q344 544 344 520Q344 497 340 480H260ZM364 257T360 240Q364 224 364 200Q364
177 360 160H150Q154 144 154 120Q154 97 150 80H320Q324 64 324 40Q324 17 320 0H120Q116 17 116 40Q116 64 120 80H70Q66 97 66 120Q66 144 70 160H40Q36 177 36 200Q36 224 40 240H70Q66 257 66 280Q66 304 70 320H120Q116 337 116 360Q116 384 120 400H320Q324
384 324 360Q324 337 320 320H360Q364 304 364 280Q364 257 360 240ZM276 257T276 280Q276 304 280 320H150Q154 304 154 280Q154 257 150 240H280Q276 257 276 280Z" />
<glyph unicode="&#xec;" glyph-name="igrave" d="M120 560Q116 577 116 600Q116 624 120 640H200Q204 624 204 600Q204 577 200 560H240Q244 544 244 520Q244 497 240 480H160Q156 497 156 520Q156 544 160 560H120ZM324 64T324 40Q324 17 320 0H80Q76 17 76 40Q76
64 80 80H160Q156 97 156 120Q156 144 160 160Q156 177 156 200Q156 224 160 240Q156 257 156 280Q156 304 160 320H100Q96 337 96 360Q96 384 100 400H240Q244 384 244 360Q244 337 240 320Q244 304 244 280Q244 257 240 240Q244 224 244 200Q244 177 240 160Q244
144 244 120Q244 97 240 80H320Q324 64 324 40Z" />
<glyph unicode="&#xed;" glyph-name="iacute" d="M160 480Q156 497 156 520Q156 544 160 560H200Q196 577 196 600Q196 624 200 640H280Q284 624 284 600Q284 577 280 560H240Q244 544 244 520Q244 497 240 480H160ZM324 64T324 40Q324 17 320 0H80Q76 17 76 40Q76
64 80 80H160Q156 97 156 120Q156 144 160 160Q156 177 156 200Q156 224 160 240Q156 257 156 280Q156 304 160 320H100Q96 337 96 360Q96 384 100 400H240Q244 384 244 360Q244 337 240 320Q244 304 244 280Q244 257 240 240Q244 224 244 200Q244 177 240 160Q244
144 244 120Q244 97 240 80H320Q324 64 324 40Z" />
<glyph unicode="&#xee;" glyph-name="icircumflex" d="M324 64T324 40Q324 17 320 0H80Q76 17 76 40Q76 64 80 80H160Q156 97 156 120Q156 144 160 160Q156 177 156 200Q156 224 160 240Q156 257 156 280Q156 304 160 320H100Q96 337 96 360Q96 384 100 400H240Q244
384 244 360Q244 337 240 320Q244 304 244 280Q244 257 240 240Q244 224 244 200Q244 177 240 160Q244 144 244 120Q244 97 240 80H320Q324 64 324 40ZM314 544T314 520Q314 497 310 480H230Q226 497 226 520Q226 544 230 560H170Q174 544 174 520Q174 497 170
480H90Q86 497 86 520Q86 544 90 560H140Q136 577 136 600Q136 624 140 640H260Q264 624 264 600Q264 577 260 560H310Q314 544 314 520Z" />
<glyph unicode="&#xef;" glyph-name="idieresis" d="M80 480Q76 497 76 520Q76 544 80 560H160Q164 544 164 520Q164 497 160 480H80ZM240 480Q236 497 236 520Q236 544 240 560H320Q324 544 324 520Q324 497 320 480H240ZM320 80Q324 64 324 40Q324 17 320 0H80Q76
17 76 40Q76 64 80 80H160Q156 97 156 120Q156 144 160 160Q156 177 156 200Q156 224 160 240Q156 257 156 280Q156 304 160 320H100Q96 337 96 360Q96 384 100 400H240Q244 384 244 360Q244 337 240 320Q244 304 244 280Q244 257 240 240Q244 224 244 200Q244
177 240 160Q244 144 244 120Q244 97 240 80H320Z" />
<glyph unicode="&#xf0;" glyph-name="eth" d="M364 304T364 280Q364 257 360 240Q364 224 364 200Q364 177 360 160Q364 144 364 120Q364 97 360 80H320Q324 64 324 40Q324 17 320 0H120Q116 17 116 40Q116 64 120 80H70Q66 97 66 120Q66 144 70 160H40Q36 177
36 200Q36 224 40 240H70Q66 257 66 280Q66 304 70 320H120Q116 337 116 360Q116 384 120 400H150Q146 417 146 440Q146 464 150 480H190Q186 497 186 520Q186 544 190 560H120Q116 577 116 600Q116 624 120 640H250Q246 657 246 680Q246 704 250 720H310Q314 704
314 680Q314 657 310 640H280Q284 624 284 600Q284 577 280 560H310Q314 544 314 520Q314 497 310 480H340Q344 464 344 440Q344 417 340 400H360Q364 384 364 360Q364 337 360 320Q364 304 364 280ZM214 464T214 440Q214 417 210 400H280Q276 417 276 440Q276
464 280 480H210Q214 464 214 440ZM276 177T276 200Q276 224 280 240Q276 257 276 280Q276 304 280 320H150Q154 304 154 280Q154 257 150 240H120Q124 224 124 200Q124 177 120 160H150Q154 144 154 120Q154 97 150 80H280Q276 97 276 120Q276 144 280 160Q276
177 276 200Z" />
<glyph unicode="&#xf1;" glyph-name="ntilde" d="M114 337T110 320H150Q154 304 154 280Q154 257 150 240H120Q124 224 124 200Q124 177 120 160Q124 144 124 120Q124 97 120 80Q124 64 124 40Q124 17 120 0H40Q36 17 36 40Q36 64 40 80Q36 97 36 120Q36 144 40
160Q36 177 36 200Q36 224 40 240Q36 257 36 280Q36 304 40 320Q36 337 36 360Q36 384 40 400H110Q114 384 114 360Q114 337 110 320ZM364 224T364 200Q364 177 360 160Q364 144 364 120Q364 97 360 80Q364 64 364 40Q364 17 360 0H280Q276 17 276 40Q276 64 280
80Q276 97 276 120Q276 144 280 160Q276 177 276 200Q276 224 280 240Q276 257 276 280Q276 304 280 320H150Q146 337 146 360Q146 384 150 400H310Q314 384 314 360Q314 337 310 320H360Q364 304 364 280Q364 257 360 240Q364 224 364 200ZM224 577T220 560H300Q304
544 304 520Q304 497 300 480H180Q176 497 176 520Q176 544 180 560H100Q96 577 96 600Q96 624 100 640H220Q224 624 224 600Q224 577 220 560ZM364 577T360 560H300Q296 577 296 600Q296 624 300 640H360Q364 624 364 600Q364 577 360 560ZM36 544T40 560H100Q104
544 104 520Q104 497 100 480H40Q36 497 36 520Q36 544 40 560Z" />
<glyph unicode="&#xf2;" glyph-name="ograve" d="M120 560Q116 577 116 600Q116 624 120 640H200Q204 624 204 600Q204 577 200 560H240Q244 544 244 520Q244 497 240 480H160Q156 497 156 520Q156 544 160 560H120ZM364 177T360 160H330Q334 144 334 120Q334
97 330 80H280Q284 64 284 40Q284 17 280 0H120Q116 17 116 40Q116 64 120 80H70Q66 97 66 120Q66 144 70 160H40Q36 177 36 200Q36 224 40 240H70Q66 257 66 280Q66 304 70 320H120Q116 337 116 360Q116 384 120 400H280Q284 384 284 360Q284 337 280 320H330Q334
304 334 280Q334 257 330 240H360Q364 224 364 200Q364 177 360 160ZM280 160Q276 177 276 200Q276 224 280 240H250Q246 257 246 280Q246 304 250 320H150Q154 304 154 280Q154 257 150 240H120Q124 224 124 200Q124 177 120 160H150Q154 144 154 120Q154 97 150
80H250Q246 97 246 120Q246 144 250 160H280Z" />
<glyph unicode="&#xf3;" glyph-name="oacute" d="M160 480Q156 497 156 520Q156 544 160 560H200Q196 577 196 600Q196 624 200 640H280Q284 624 284 600Q284 577 280 560H240Q244 544 244 520Q244 497 240 480H160ZM364 177T360 160H330Q334 144 334 120Q334
97 330 80H280Q284 64 284 40Q284 17 280 0H120Q116 17 116 40Q116 64 120 80H70Q66 97 66 120Q66 144 70 160H40Q36 177 36 200Q36 224 40 240H70Q66 257 66 280Q66 304 70 320H120Q116 337 116 360Q116 384 120 400H280Q284 384 284 360Q284 337 280 320H330Q334
304 334 280Q334 257 330 240H360Q364 224 364 200Q364 177 360 160ZM280 160Q276 177 276 200Q276 224 280 240H250Q246 257 246 280Q246 304 250 320H150Q154 304 154 280Q154 257 150 240H120Q124 224 124 200Q124 177 120 160H150Q154 144 154 120Q154 97 150
80H250Q246 97 246 120Q246 144 250 160H280Z" />
<glyph unicode="&#xf4;" glyph-name="ocircumflex" d="M364 177T360 160H330Q334 144 334 120Q334 97 330 80H280Q284 64 284 40Q284 17 280 0H120Q116 17 116 40Q116 64 120 80H70Q66 97 66 120Q66 144 70 160H40Q36 177 36 200Q36 224 40 240H70Q66 257 66 280Q66
304 70 320H120Q116 337 116 360Q116 384 120 400H280Q284 384 284 360Q284 337 280 320H330Q334 304 334 280Q334 257 330 240H360Q364 224 364 200Q364 177 360 160ZM280 160Q276 177 276 200Q276 224 280 240H250Q246 257 246 280Q246 304 250 320H150Q154 304
154 280Q154 257 150 240H120Q124 224 124 200Q124 177 120 160H150Q154 144 154 120Q154 97 150 80H250Q246 97 246 120Q246 144 250 160H280ZM314 544T314 520Q314 497 310 480H230Q226 497 226 520Q226 544 230 560H170Q174 544 174 520Q174 497 170 480H90Q86
497 86 520Q86 544 90 560H140Q136 577 136 600Q136 624 140 640H260Q264 624 264 600Q264 577 260 560H310Q314 544 314 520Z" />
<glyph unicode="&#xf5;" glyph-name="otilde" d="M364 177T360 160H330Q334 144 334 120Q334 97 330 80H280Q284 64 284 40Q284 17 280 0H120Q116 17 116 40Q116 64 120 80H70Q66 97 66 120Q66 144 70 160H40Q36 177 36 200Q36 224 40 240H70Q66 257 66 280Q66
304 70 320H120Q116 337 116 360Q116 384 120 400H280Q284 384 284 360Q284 337 280 320H330Q334 304 334 280Q334 257 330 240H360Q364 224 364 200Q364 177 360 160ZM280 160Q276 177 276 200Q276 224 280 240H250Q246 257 246 280Q246 304 250 320H150Q154 304
154 280Q154 257 150 240H120Q124 224 124 200Q124 177 120 160H150Q154 144 154 120Q154 97 150 80H250Q246 97 246 120Q246 144 250 160H280ZM224 577T220 560H300Q304 544 304 520Q304 497 300 480H180Q176 497 176 520Q176 544 180 560H100Q96 577 96 600Q96
624 100 640H220Q224 624 224 600Q224 577 220 560ZM364 577T360 560H300Q296 577 296 600Q296 624 300 640H360Q364 624 364 600Q364 577 360 560ZM36 544T40 560H100Q104 544 104 520Q104 497 100 480H40Q36 497 36 520Q36 544 40 560Z" />
<glyph unicode="&#xf6;" glyph-name="odieresis" d="M80 480Q76 497 76 520Q76 544 80 560H160Q164 544 164 520Q164 497 160 480H80ZM240 480Q236 497 236 520Q236 544 240 560H320Q324 544 324 520Q324 497 320 480H240ZM364 177T360 160H330Q334 144 334 120Q334
97 330 80H280Q284 64 284 40Q284 17 280 0H120Q116 17 116 40Q116 64 120 80H70Q66 97 66 120Q66 144 70 160H40Q36 177 36 200Q36 224 40 240H70Q66 257 66 280Q66 304 70 320H120Q116 337 116 360Q116 384 120 400H280Q284 384 284 360Q284 337 280 320H330Q334
304 334 280Q334 257 330 240H360Q364 224 364 200Q364 177 360 160ZM280 160Q276 177 276 200Q276 224 280 240H250Q246 257 246 280Q246 304 250 320H150Q154 304 154 280Q154 257 150 240H120Q124 224 124 200Q124 177 120 160H150Q154 144 154 120Q154 97 150
80H250Q246 97 246 120Q246 144 250 160H280Z" />
<glyph unicode="&#xf7;" glyph-name="divide" d="M156 417T156 440Q156 464 160 480Q156 497 156 520Q156 544 160 560H240Q244 544 244 520Q244 497 240 480Q244 464 244 440Q244 417 240 400H160Q156 417 156 440ZM324 304T324 280Q324 257 320 240H80Q76 257
76 280Q76 304 80 320H320Q324 304 324 280ZM244 144T244 120Q244 97 240 80Q244 64 244 40Q244 17 240 0H160Q156 17 156 40Q156 64 160 80Q156 97 156 120Q156 144 160 160H240Q244 144 244 120Z" />
<glyph unicode="&#xf8;" glyph-name="oslash" d="M364 177T360 160H330Q334 144 334 120Q334 97 330 80H280Q284 64 284 40Q284 17 280 0H140Q144 -16 144 -40Q144 -63 140 -80H60Q56 -63 56 -40Q56 -16 60 0H100Q96 17 96 40Q96 64 100 80H70Q66 97 66 120Q66
144 70 160H40Q36 177 36 200Q36 224 40 240H70Q66 257 66 280Q66 304 70 320H120Q116 337 116 360Q116 384 120 400H260Q256 417 256 440Q256 464 260 480H340Q344 464 344 440Q344 417 340 400H300Q304 384 304 360Q304 337 300 320H330Q334 304 334 280Q334
257 330 240H360Q364 224 364 200Q364 177 360 160ZM280 160Q276 177 276 200Q276 224 280 240H230Q226 257 226 280Q226 304 230 320H150Q154 304 154 280Q154 257 150 240H120Q124 224 124 200Q124 177 120 160H170Q174 144 174 120Q174 97 170 80H250Q246 97
246 120Q246 144 250 160H280ZM234 177T230 160H170Q166 177 166 200Q166 224 170 240H230Q234 224 234 200Q234 177 230 160Z" />
<glyph unicode="&#xf9;" glyph-name="ugrave" d="M120 560Q116 577 116 600Q116 624 120 640H200Q204 624 204 600Q204 577 200 560H240Q244 544 244 520Q244 497 240 480H160Q156 497 156 520Q156 544 160 560H120ZM154 97T150 80H250Q254 64 254 40Q254 17 250
0H90Q86 17 86 40Q86 64 90 80H40Q36 97 36 120Q36 144 40 160Q36 177 36 200Q36 224 40 240Q36 257 36 280Q36 304 40 320Q36 337 36 360Q36 384 40 400H120Q124 384 124 360Q124 337 120 320Q124 304 124 280Q124 257 120 240Q124 224 124 200Q124 177 120 160H150Q154
144 154 120Q154 97 150 80ZM364 304T364 280Q364 257 360 240Q364 224 364 200Q364 177 360 160Q364 144 364 120Q364 97 360 80Q364 64 364 40Q364 17 360 0H280Q276 17 276 40Q276 64 280 80H250Q246 97 246 120Q246 144 250 160H280Q276 177 276 200Q276 224
280 240Q276 257 276 280Q276 304 280 320Q276 337 276 360Q276 384 280 400H360Q364 384 364 360Q364 337 360 320Q364 304 364 280Z" />
<glyph unicode="&#xfa;" glyph-name="uacute" d="M160 480Q156 497 156 520Q156 544 160 560H200Q196 577 196 600Q196 624 200 640H280Q284 624 284 600Q284 577 280 560H240Q244 544 244 520Q244 497 240 480H160ZM154 97T150 80H250Q254 64 254 40Q254 17 250
0H90Q86 17 86 40Q86 64 90 80H40Q36 97 36 120Q36 144 40 160Q36 177 36 200Q36 224 40 240Q36 257 36 280Q36 304 40 320Q36 337 36 360Q36 384 40 400H120Q124 384 124 360Q124 337 120 320Q124 304 124 280Q124 257 120 240Q124 224 124 200Q124 177 120 160H150Q154
144 154 120Q154 97 150 80ZM364 304T364 280Q364 257 360 240Q364 224 364 200Q364 177 360 160Q364 144 364 120Q364 97 360 80Q364 64 364 40Q364 17 360 0H280Q276 17 276 40Q276 64 280 80H250Q246 97 246 120Q246 144 250 160H280Q276 177 276 200Q276 224
280 240Q276 257 276 280Q276 304 280 320Q276 337 276 360Q276 384 280 400H360Q364 384 364 360Q364 337 360 320Q364 304 364 280Z" />
<glyph unicode="&#xfb;" glyph-name="ucircumflex" d="M154 97T150 80H250Q254 64 254 40Q254 17 250 0H90Q86 17 86 40Q86 64 90 80H40Q36 97 36 120Q36 144 40 160Q36 177 36 200Q36 224 40 240Q36 257 36 280Q36 304 40 320Q36 337 36 360Q36 384 40 400H120Q124
384 124 360Q124 337 120 320Q124 304 124 280Q124 257 120 240Q124 224 124 200Q124 177 120 160H150Q154 144 154 120Q154 97 150 80ZM364 304T364 280Q364 257 360 240Q364 224 364 200Q364 177 360 160Q364 144 364 120Q364 97 360 80Q364 64 364 40Q364 17
360 0H280Q276 17 276 40Q276 64 280 80H250Q246 97 246 120Q246 144 250 160H280Q276 177 276 200Q276 224 280 240Q276 257 276 280Q276 304 280 320Q276 337 276 360Q276 384 280 400H360Q364 384 364 360Q364 337 360 320Q364 304 364 280ZM314 544T314 520Q314
497 310 480H230Q226 497 226 520Q226 544 230 560H170Q174 544 174 520Q174 497 170 480H90Q86 497 86 520Q86 544 90 560H140Q136 577 136 600Q136 624 140 640H260Q264 624 264 600Q264 577 260 560H310Q314 544 314 520Z" />
<glyph unicode="&#xfc;" glyph-name="udieresis" d="M80 480Q76 497 76 520Q76 544 80 560H160Q164 544 164 520Q164 497 160 480H80ZM240 480Q236 497 236 520Q236 544 240 560H320Q324 544 324 520Q324 497 320 480H240ZM154 97T150 80H250Q254 64 254 40Q254
17 250 0H90Q86 17 86 40Q86 64 90 80H40Q36 97 36 120Q36 144 40 160Q36 177 36 200Q36 224 40 240Q36 257 36 280Q36 304 40 320Q36 337 36 360Q36 384 40 400H120Q124 384 124 360Q124 337 120 320Q124 304 124 280Q124 257 120 240Q124 224 124 200Q124 177
120 160H150Q154 144 154 120Q154 97 150 80ZM364 304T364 280Q364 257 360 240Q364 224 364 200Q364 177 360 160Q364 144 364 120Q364 97 360 80Q364 64 364 40Q364 17 360 0H280Q276 17 276 40Q276 64 280 80H250Q246 97 246 120Q246 144 250 160H280Q276 177
276 200Q276 224 280 240Q276 257 276 280Q276 304 280 320Q276 337 276 360Q276 384 280 400H360Q364 384 364 360Q364 337 360 320Q364 304 364 280Z" />
<glyph unicode="&#xfd;" glyph-name="yacute" d="M160 480Q156 497 156 520Q156 544 160 560H200Q196 577 196 600Q196 624 200 640H280Q284 624 284 600Q284 577 280 560H240Q244 544 244 520Q244 497 240 480H160ZM364 337T360 320H330Q334 304 334 280Q334
257 330 240H300Q304 224 304 200Q304 177 300 160H280Q284 144 284 120Q284 97 280 80H250Q254 64 254 40Q254 17 250 0H230Q234 -16 234 -40Q234 -63 230 -80H190Q194 -96 194 -120Q194 -143 190 -160H70Q66 -143 66 -120Q66 -96 70 -80H150Q146 -63 146 -40Q146
-16 150 0Q146 17 146 40Q146 64 150 80H110Q106 97 106 120Q106 144 110 160H90Q86 177 86 200Q86 224 90 240H60Q56 257 56 280Q56 304 60 320H30Q26 337 26 360Q26 384 30 400H110Q114 384 114 360Q114 337 110 320H140Q144 304 144 280Q144 257 140 240H170Q174
224 174 200Q174 177 170 160Q174 144 174 120Q174 97 170 80H200Q196 97 196 120Q196 144 200 160H220Q216 177 216 200Q216 224 220 240H250Q246 257 246 280Q246 304 250 320H280Q276 337 276 360Q276 384 280 400H360Q364 384 364 360Q364 337 360 320Z" />
<glyph unicode="&#xfe;" glyph-name="thorn" d="M364 177T360 160H320Q324 144 324 120Q324 97 320 80H280Q284 64 284 40Q284 17 280 0H120Q124 -16 124 -40Q124 -63 120 -80Q124 -96 124 -120Q124 -143 120 -160H40Q36 -143 36 -120Q36 -96 40 -80Q36 -63 36
-40Q36 -16 40 0Q36 17 36 40Q36 64 40 80Q36 97 36 120Q36 144 40 160Q36 177 36 200Q36 224 40 240Q36 257 36 280Q36 304 40 320Q36 337 36 360Q36 384 40 400Q36 417 36 440Q36 464 40 480Q36 497 36 520Q36 544 40 560H120Q124 544 124 520Q124 497 120 480Q124
464 124 440Q124 417 120 400H280Q284 384 284 360Q284 337 280 320H320Q324 304 324 280Q324 257 320 240H360Q364 224 364 200Q364 177 360 160ZM280 160Q276 177 276 200Q276 224 280 240H240Q236 257 236 280Q236 304 240 320H120Q124 304 124 280Q124 257
120 240Q124 224 124 200Q124 177 120 160Q124 144 124 120Q124 97 120 80H240Q236 97 236 120Q236 144 240 160H280Z" />
<glyph unicode="&#xff;" glyph-name="ydieresis" d="M80 480Q76 497 76 520Q76 544 80 560H160Q164 544 164 520Q164 497 160 480H80ZM240 480Q236 497 236 520Q236 544 240 560H320Q324 544 324 520Q324 497 320 480H240ZM364 337T360 320H330Q334 304 334 280Q334
257 330 240H300Q304 224 304 200Q304 177 300 160H280Q284 144 284 120Q284 97 280 80H250Q254 64 254 40Q254 17 250 0H230Q234 -16 234 -40Q234 -63 230 -80H190Q194 -96 194 -120Q194 -143 190 -160H70Q66 -143 66 -120Q66 -96 70 -80H150Q146 -63 146 -40Q146
-16 150 0Q146 17 146 40Q146 64 150 80H110Q106 97 106 120Q106 144 110 160H90Q86 177 86 200Q86 224 90 240H60Q56 257 56 280Q56 304 60 320H30Q26 337 26 360Q26 384 30 400H110Q114 384 114 360Q114 337 110 320H140Q144 304 144 280Q144 257 140 240H170Q174
224 174 200Q174 177 170 160Q174 144 174 120Q174 97 170 80H200Q196 97 196 120Q196 144 200 160H220Q216 177 216 200Q216 224 220 240H250Q246 257 246 280Q246 304 250 320H280Q276 337 276 360Q276 384 280 400H360Q364 384 364 360Q364 337 360 320Z" />
<glyph unicode="&#x2013;" glyph-name="endash" d="M364 304T364 280Q364 257 360 240H40Q36 257 36 280Q36 304 40 320H360Q364 304 364 280Z" />
<glyph unicode="&#x2014;" glyph-name="emdash" d="M364 304T364 280Q364 257 360 240H40Q36 257 36 280Q36 304 40 320H360Q364 304 364 280Z" />
<glyph unicode="&#x2018;" glyph-name="quoteleft" d="M254 544T254 520Q254 497 250 480Q254 464 254 440Q254 417 250 400H150Q146 417 146 440Q146 464 150 480Q146 497 146 520Q146 544 150 560Q146 577 146 600Q146 624 150 640H190Q186 657 186 680Q186
704 190 720H250Q254 704 254 680Q254 657 250 640H210Q214 624 214 600Q214 577 210 560H250Q254 544 254 520Z" />
<glyph unicode="&#x2019;" glyph-name="quoteright" d="M254 624T254 600Q254 577 250 560Q254 544 254 520Q254 497 250 480H210Q214 464 214 440Q214 417 210 400H150Q146 417 146 440Q146 464 150 480H190Q186 497 186 520Q186 544 190 560H150Q146 577 146
600Q146 624 150 640Q146 657 146 680Q146 704 150 720H250Q254 704 254 680Q254 657 250 640Q254 624 254 600Z" />
<glyph unicode="&#x201a;" glyph-name="quotesinglbase" d="M254 64T254 40Q254 17 250 0Q254 -16 254 -40Q254 -63 250 -80H210Q214 -96 214 -120Q214 -143 210 -160H150Q146 -143 146 -120Q146 -96 150 -80H190Q186 -63 186 -40Q186 -16 190 0H150Q146 17 146
40Q146 64 150 80Q146 97 146 120Q146 144 150 160H250Q254 144 254 120Q254 97 250 80Q254 64 254 40Z" />
<glyph unicode="&#x201c;" glyph-name="quotedblleft" d="M174 657T170 640H130Q134 624 134 600Q134 577 130 560H170Q174 544 174 520Q174 497 170 480Q174 464 174 440Q174 417 170 400H70Q66 417 66 440Q66 464 70 480Q66 497 66 520Q66 544 70 560Q66 577
66 600Q66 624 70 640H110Q106 657 106 680Q106 704 110 720H170Q174 704 174 680Q174 657 170 640ZM334 544T334 520Q334 497 330 480Q334 464 334 440Q334 417 330 400H230Q226 417 226 440Q226 464 230 480Q226 497 226 520Q226 544 230 560Q226 577 226 600Q226
624 230 640H270Q266 657 266 680Q266 704 270 720H330Q334 704 334 680Q334 657 330 640H290Q294 624 294 600Q294 577 290 560H330Q334 544 334 520Z" />
<glyph unicode="&#x201d;" glyph-name="quotedblright" d="M174 704T174 680Q174 657 170 640Q174 624 174 600Q174 577 170 560Q174 544 174 520Q174 497 170 480H130Q134 464 134 440Q134 417 130 400H70Q66 417 66 440Q66 464 70 480H110Q106 497 106 520Q106
544 110 560H70Q66 577 66 600Q66 624 70 640Q66 657 66 680Q66 704 70 720H170Q174 704 174 680ZM334 624T334 600Q334 577 330 560Q334 544 334 520Q334 497 330 480H290Q294 464 294 440Q294 417 290 400H230Q226 417 226 440Q226 464 230 480H270Q266 497 266
520Q266 544 270 560H230Q226 577 226 600Q226 624 230 640Q226 657 226 680Q226 704 230 720H330Q334 704 334 680Q334 657 330 640Q334 624 334 600Z" />
<glyph unicode="&#x201e;" glyph-name="quotedblbase" d="M174 144T174 120Q174 97 170 80Q174 64 174 40Q174 17 170 0Q174 -16 174 -40Q174 -63 170 -80H130Q134 -96 134 -120Q134 -143 130 -160H70Q66 -143 66 -120Q66 -96 70 -80H110Q106 -63 106 -40Q106
-16 110 0H70Q66 17 66 40Q66 64 70 80Q66 97 66 120Q66 144 70 160H170Q174 144 174 120ZM334 64T334 40Q334 17 330 0Q334 -16 334 -40Q334 -63 330 -80H290Q294 -96 294 -120Q294 -143 290 -160H230Q226 -143 226 -120Q226 -96 230 -80H270Q266 -63 266 -40Q266
-16 270 0H230Q226 17 226 40Q226 64 230 80Q226 97 226 120Q226 144 230 160H330Q334 144 334 120Q334 97 330 80Q334 64 334 40Z" />
<glyph unicode="&#x2022;" glyph-name="bullet" d="M284 257T280 240Q284 224 284 200Q284 177 280 160H120Q116 177 116 200Q116 224 120 240Q116 257 116 280Q116 304 120 320H280Q284 304 284 280Q284 257 280 240Z" />
<glyph unicode="&#x2039;" glyph-name="guilsinglleft" d="M285 80Q289 64 289 40Q289 17 285 0H205Q201 17 201 40Q201 64 205 80H145Q141 97 141 120Q141 144 145 160H115Q111 177 111 200Q111 224 115 240H145Q141 257 141 280Q141 304 145 320H205Q201 337
201 360Q201 384 205 400H285Q289 384 289 360Q289 337 285 320H225Q229 304 229 280Q229 257 225 240H175Q179 224 179 200Q179 177 175 160H225Q229 144 229 120Q229 97 225 80H285Z" />
<glyph unicode="&#x203a;" glyph-name="guilsinglright" d="M289 177T285 160H255Q259 144 259 120Q259 97 255 80H195Q199 64 199 40Q199 17 195 0H115Q111 17 111 40Q111 64 115 80H175Q171 97 171 120Q171 144 175 160H225Q221 177 221 200Q221 224 225 240H175Q171
257 171 280Q171 304 175 320H115Q111 337 111 360Q111 384 115 400H195Q199 384 199 360Q199 337 195 320H255Q259 304 259 280Q259 257 255 240H285Q289 224 289 200Q289 177 285 160Z" />
</font>
</defs>
</svg>
