<svg width="20" height="22" viewBox="0 0 20 22" fill="none" xmlns="http://www.w3.org/2000/svg">
<path d="M18.4775 16.3736L10.4435 20.7395C10.1447 20.9019 9.78388 20.9013 9.48563 20.7379L1.51958 16.3742C1.19919 16.1987 1 15.8625 1 15.4972V3.08293C1 2.63528 1.29646 2.24147 1.73083 2.13324C3.59714 1.6682 6.99654 1 9.96414 1C12.9352 1 16.3754 1.66977 18.2654 2.13488C18.7015 2.2422 19 2.63692 19 3.08603V15.4949C19 15.8614 18.7995 16.1986 18.4775 16.3736Z" stroke="#131B25"/>
<path d="M4 9H16V14.7327L9.88406 18L4 14.7327V9Z" stroke="#131B25"/>
<path d="M12.0455 3.13503C11.8654 2.95499 11.5736 2.95499 11.3934 3.13503L8.13503 6.3934C7.95499 6.57344 7.95499 6.86539 8.13503 7.04547C8.22511 7.13551 8.34304 7.18051 8.46109 7.18051C8.57913 7.18051 8.69706 7.13551 8.7871 7.04547L12.0455 3.7871C12.2255 3.60706 12.2255 3.31511 12.0455 3.13503Z" fill="#131B25"/>
<path d="M13.9767 5.02322C13.7967 4.84318 13.5049 4.84318 13.3247 5.02318L12.0266 6.32115C11.8466 6.50123 11.8466 6.79319 12.0266 6.97322C12.1167 7.06326 12.2346 7.10826 12.3526 7.10826C12.4706 7.10826 12.5886 7.06326 12.6787 6.97322L13.9767 5.67525C14.1568 5.49521 14.1568 5.20326 13.9767 5.02322Z" fill="#131B25"/>
<path d="M8.08511 3.13503C7.90511 2.95499 7.61328 2.955 7.43308 3.135L6.13503 4.43297C5.95499 4.61305 5.95499 4.905 6.13503 5.08504C6.22507 5.17508 6.34304 5.22008 6.46105 5.22008C6.57901 5.22008 6.69702 5.17508 6.78706 5.08504L8.08511 3.78707C8.26515 3.60703 8.26515 3.31507 8.08511 3.13503Z" fill="#131B25"/>
</svg>
