<svg fill="none" height="20" viewBox="0 0 30 20" width="30" xmlns="http://www.w3.org/2000/svg" xmlns:xlink="http://www.w3.org/1999/xlink"><mask id="a" fill="#000" height="7" maskUnits="userSpaceOnUse" width="7" x="4.65918" y="3.93311"><path d="m4.65918 3.93311h7v7h-7z" fill="#fff"/><path clip-rule="evenodd" d="m8.47635 4.93311c1.54945 0 2.81715 1.3003 2.81715 2.88956 0 1.58927-1.2677 2.88953-2.81715 2.88953-1.54944 0-2.81717-1.30026-2.81717-2.88953 0-1.58926 1.26773-2.88956 2.81717-2.88956zm-2.25377 2.88958c0 1.27141 1.01418 2.31161 2.25373 2.31161 1.23956 0 2.25379-1.0402 2.25379-2.31161s-1.01423-2.31166-2.25379-2.31166c-1.23955 0-2.25373 1.04025-2.25373 2.31166z" fill="#000" fill-rule="evenodd"/></mask><path clip-rule="evenodd" d="m12.4197 11.1456 2.0847 3.7565c.0563.0867.0563.2022-.0141.2889-.0422.0867-.1408.1445-.2394.1445h-2.2538l-1.0283 1.8782c-.0422.0867-.1408.1445-.2394.1445s-.1831-.0578-.2395-.1445l-2.01425-3.5686-2.01428 3.5253c-.04225.0867-.14086.1445-.23946.1445s-.18311-.0578-.23946-.1445l-1.02826-1.8349h-2.25374c-.0986 0-.18312-.0578-.23946-.1445-.04226-.0867-.05634-.2022 0-.2889l2.09879-3.8143c-.23946-.1011-.3944-.3467-.36623-.6068l.18312-1.34362-.88741-.98246c-.1972-.24561-.18312-.59236.01408-.79463l.88741-.95355-.15494-1.32921c-.02817-.31785.16903-.59236.46483-.65015l1.28181-.23116.63387-1.17028c.07043-.13003.18311-.23116.32397-.27451.14086-.04334.29581-.02889.42258.04335l1.15504.57791 1.18321-.56347h.01409c.28171-.11558.59159 0 .71839.27451l.6198 1.17028 1.2818.26006c.2817.05779.4789.34675.4507.6357l-.1831 1.34365.8874.98246c.1972.24561.1831.59236-.0141.79463l-.8874.95355.155 1.32924c.0141.26-.1127.4912-.324.5923zm-7.05701 3.7565.87332 1.5459 1.90159-3.3953-.28171-.5056-.57752.2745h-.01409c-.28172.1156-.59161 0-.71838-.2745l-.61978-1.1703-.80289-.1445-1.94385 3.5253h1.94385c.0986 0 .18311.0578.23946.1445zm1.69028-2.6006h-.01409l-.61977-1.1992c-.08452-.1445-.22538-.2601-.39441-.2745l-1.2959-.2456.18312-1.32922c.02817-.17337-.02817-.3612-.14086-.47678l-.87332-.98245.88741-.95356c.12677-.13003.18311-.3034.15494-.47678l-.15494-1.31475s0-.01445.01408-.0289l1.28182-.23116c.15494-.0289.30988-.13003.3944-.28896l.63386-1.17028 1.15504.57792c.15495.08668.35215.08668.50709 0l1.16913-.54902h.01409l.61974 1.19917c.0845.14448.2254.26006.3804.27451l1.2818.26006-.1832 1.3292c-.0281.17338.0282.3612.1409.47678l.8874.98245-.9015.95356c-.1268.13003-.1831.30341-.1549.47678l.1549 1.32923-1.2677.2167c-.1549.0289-.3099.13-.3944.2889l-.63387 1.1703-1.15504-.5779c-.15495-.0867-.35215-.0867-.50709 0zm4.54973 2.6006c.0423-.0867.1409-.1445.2395-.1445h1.9438l-1.9298-3.4819-.8451.1589-.6339 1.1703c-.0986.1878-.2958.2889-.49297.2889-.08451 0-.16903-.0144-.25355-.0578l-1.15504-.5779-.0986.0434.30989.5634c.02817.0289.04226.0578.05635.1012l1.98612 3.5252z" fill="#000" fill-rule="evenodd"/><path d="m14.5044 14.9021-.0877.0486.0039.0059zm-2.0847-3.7565-.0432-.0902-.0958.0459.0516.0929zm2.0706 4.0454-.0776-.063-.0072.0089-.0051.0103zm-2.4932.1445v-.1h-.0592l-.0285.052zm-1.0283 1.8782-.0878-.0481-.002.0043zm-.4789 0-.0872.0493.0034.0052zm-2.01425-3.5686.08709-.0491-.08656-.1534-.08736.1529zm-2.01428 3.5253-.08701-.0497-.00288.0059zm-.47892 0-.08742.049.00358.0055zm-1.02826-1.8349.08723-.0489-.02864-.0511h-.05859zm-2.4932-.1445-.09057.0442.00672.0103zm0-.2889.08407.0546.00354-.0064zm2.09879-3.8143.08761.0482.05348-.0971-.10218-.0432zm-.36623-.6068-.09912-.0135-.0003.0028zm.18312-1.34362.09908.0135.00628-.04605-.03115-.03448zm-.88741-.98246-.07811.06272.0039.00431zm.01408-.79463.07162.06983.00159-.0017zm.88741-.95355.07321.06812.03147-.03382-.00535-.04588zm-.15494-1.32921-.09965.00884.00032.00274zm.46483-.65015-.01775-.09842-.00142.00028zm1.28181-.23116.01775.09841.0473-.00853.02288-.04226zm.63387-1.17028-.08793-.04763zm.32397-.27451.02941.09558zm.42258.04335-.04958.08701.00483.00242zm1.15504.57791-.04475.08943.04366.02185.04408-.021zm1.18321-.56347v-.1h-.0226l-.0204.00972zm.01409 0v.1h.01971l.01824-.00748zm.71839.27451-.0909.04199.0025.00481zm.6198 1.17028-.0884.0468.0221.0418.0464.0094zm1.2818.26006.0201-.09796-.0002-.00005zm.4507.6357.0992.01352.0004-.00381zm-.1831 1.34365-.0991-.0135-.0063.04605.0312.03448zm.8874.98246.0781-.06272-.0039-.00431zm-.0141.79463-.0716-.06983-.0016.0017zm-.8874.95355-.0732-.06812-.0315.03382.0054.04588zm.155 1.32924.1-.0055-.0007-.0061zm-6.50769 5.8947-.08707.0492.08745.1548.08687-.1551zm-.87332-1.5459.08723-.0493-.00339-.0052zm2.77491-1.8494.08725.0489.0273-.0487-.02719-.0488zm-.28171-.5056.08735-.0487-.04562-.0819-.08466.0403zm-.57752.2745v.1h.02255l.02037-.0097zm-.01409 0v-.1h-.01972l-.01824.0075zm-.71838-.2745.09092-.042-.00255-.0048zm-.61978-1.1703.08837-.0468-.02277-.043-.04789-.0086zm-.80289-.1445.01771-.0984-.07063-.0127-.03465.0628zm-1.94385 3.5253-.08757-.0483-.08177.1483h.16934zm3.8595-2.4561-.08883.0459.02795.0541h.06088zm.01409 0v.1h.02284l.02058-.0099zm-.63386-1.1992.08895-.046-.00264-.0045zm-.39441-.2745-.01872.0988.01021.0008zm-1.2959-.2456-.09906-.0137-.01298.0942.09342.0177zm.18312-1.32922-.09873-.01604-.00033.00239zm-.14086-.47678-.07482.06651.00322.0033zm-.87332-.98245-.07321-.06813-.06196.06658.06043.06799zm.88741-.95356-.07162-.06983-.00159.0017zm.15494-.47678-.09941.01172.00071.00432zm-.15494-1.31475h-.10069l.00137.0117zm.01408-.0289-.01774-.09841-.03151.00568-.02235.02292zm1.28182-.23116.01774.09841.00059-.00011zm.3944-.28896-.08793-.04763-.00036.00068zm.63386-1.17028.04475-.08943-.08657-.04331-.04611.08512zm1.15504.57792.04888-.08737-.00413-.00206zm.50709 0-.04261-.09075-.00621.00348zm1.16913-.54902v-.1h-.02231l-.0202.00948zm.01409 0 .08884-.04591-.028-.05409h-.06084zm.61974 1.19917-.0889.04598.0026.00451zm.3804.27451.02-.09857-.0108-.001zm1.2818.26006.099.01365.0128-.09299-.092-.01866zm-.1832 1.3292.0988.01605.0003-.0024zm.1409.47678.0743-.06708-.0027-.00273zm.8874.98245.0727.0687.0635-.06715-.062-.06858zm-.9015.95356.0716.06982.0011-.00112zm-.1549.47678.0994-.01159-.0007-.00445zm.1549 1.32923.0169.0985.0934-.0159-.011-.0942zm-1.2677.2167-.0169-.0986-.0014.0003zm-.3944.2889.0879.0477.0004-.0007zm-.63387 1.1703-.04475.0895.08657.0433.04611-.0852zm-1.15504-.5779-.04888.0874.00413.002zm-.50709 0 .04349.0903.00533-.003zm3.3806 3.1641.0877.0482.0022-.0044zm2.1833-.1445v.1h.1698l-.0823-.1485zm-1.9298-3.4819.0875-.0485-.035-.0631-.0709.0133zm-.8451.1589-.0185-.0983-.0468.0088-.0226.0419zm-.6339 1.1703-.0879-.0477-.0006.0012zm-.74652.2311.04564-.0889-.00089-.0005zm-1.15504-.5779.04475-.0894-.042-.021-.04299.0189zm-.0986.0434-.04024-.0916-.10004.044.05266.0958zm.30989.5634-.08762.0482.00654.0119.00948.0097zm.05635.1012-.09511.0309.00309.0095.00489.0087zm1.98612 3.5252-.0871.0491.0882.1566.0865-.1575zm3.8624-1.6378-2.0847-3.7564-.1748.0971 2.0847 3.7564zm-.0239.4006c.0997-.1227.0987-.286.0203-.4065l-.1676.109c.0343.0528.0333.1207-.0079.1714zm-.317.1814c.1337 0 .269-.0769.3293-.2007l-.1798-.0876c-.0242.0496-.0861.0883-.1495.0883zm-2.2538 0h2.2538v-.2h-2.2538zm-.9405 1.8262 1.0282-1.8782-.1754-.096-1.0283 1.8782zm-.3272.1965c.1337 0 .269-.0769.3293-.2007l-.1797-.0876c-.0242.0496-.0862.0883-.1496.0883zm-.3233-.19c.0695.1069.1821.19.3233.19v-.2c-.0561 0-.1124-.0325-.1556-.099zm-2.01753-3.5739 2.01423 3.5686.1742-.0983-2.01426-3.5686zm-1.84037 3.5257 2.01428-3.5253-.17366-.0992-2.01427 3.5253zm-.32629.1949c.13374 0 .26902-.0769.32935-.2007l-.17978-.0876c-.02418.0496-.0861.0883-.14957.0883zm-.3233-.19c.06947.1069.18214.19.3233.19v-.2c-.05603 0-.1124-.0325-.15561-.099zm-1.03166-1.8405 1.02827 1.8349.17447-.0978-1.02827-1.8349zm-2.1665.0511h2.25374v-.2h-2.25374zm-.32331-.19c.06948.1069.18215.19.32331.19v-.2c-.05604 0-.1124-.0325-.15561-.099zm0-.3979c-.08281.1274-.05668.2833-.00604.3872l.17978-.0876c-.03387-.0695-.03592-.1447-.00604-.1906zm2.09503-3.808-2.09879 3.8143.17522.0964 2.09879-3.8143zm-.37804-.5693c-.03323.3067.14927.5925.42675.7097l.07781-.1843c-.20144-.0851-.32883-.2905-.30572-.5039zm.18345-1.34643-.18311 1.34363.19816.027.18312-1.34362zm-.86253-.90192.88741.98246.14842-.13406-.88741-.98246zm.01669-.93146c-.23535.2414-.24666.64532-.02046.92704l.15595-.12521c-.1682-.2095-.15133-.49908.00772-.66222zm.88581-.95188-.88741.95356.14641.13625.88741-.95356zm-.18107-1.2495.15494 1.3292.19866-.02315-.15494-1.3292zm.54499-.75987c-.35011.0684-.57759.39251-.54527.75712l.19922-.01765c-.02403-.2711.14289-.496.3844-.54318zm1.28324-.23144-1.28182.23117.0355.19682 1.28181-.23116zm.56368-1.11949-.63387 1.17028.17586.09525.63387-1.17027zm.38249-.32246c-.16909.05204-.30128.17253-.38249.32246l.17586.09526c.05965-.11013.15283-.19191.26545-.22656zm.5015.05204c-.152-.08661-.33566-.10307-.5015-.05204l.05882.19116c.11588-.03566.24211-.02322.34366.03465zm1.15027.57537-1.15504-.57792-.08949.17887 1.15504.57791zm1.09547-.56432-1.18321.56346.08599.18057 1.18322-.56346zm.05709-.00972h-.01409v.2h.01409zm.80919.33259c-.1502-.32509-.5179-.46018-.84715-.3251l.07591.18503c.23421-.09609.48624-.00001.58964.22392zm.6173 1.1654-.6197-1.17028-.1768.0936.6198 1.17028zm1.2134.20885-1.2819-.26006-.0397.19601 1.2818.26006zm.5304.74342c.0327-.33547-.1942-.67443-.5302-.74337l-.0402.19592c.2273.04664.3949.28559.3713.52804zm-.1836 1.34745.1831-1.34365-.1982-.02701-.1831 1.34365zm.8625.90192-.8874-.98246-.1484.13406.8874.98246zm-.0167.93146c.2354-.2414.2467-.64532.0205-.92704l-.156.12521c.1682.2095.1514.49908-.0077.66222zm-.8858.95188.8874-.95356-.1464-.13625-.8874.95356zm.1811 1.24951-.155-1.32921-.1986.02315.1549 1.32916zm-.3801.6941c.2526-.1209.3966-.3931.3806-.6879l-.1997.0108c.0122.2253-.0973.4154-.2673.4967zm-6.13982 5.163-.87332-1.5459-.17414.0984.87332 1.5459zm1.72727-3.3949-1.90159 3.3952.1745.0978 1.90159-3.3953zm-.28182-.4082.28171.5057.17472-.0973-.28172-.5057zm-.44724.3162.57752-.2745-.08585-.1806-.57752.2745zm-.05701.0097h.01409v-.2h-.01409zm-.80917-.3326c.15014.3251.5179.4602.84713.3251l-.07592-.185c-.23421.0961-.48622 0-.58963-.224zm-.61736-1.1654.61978 1.1703.17674-.0936-.61978-1.1703zm-.73223-.0929.80289.1445.03542-.1968-.80289-.1445zm-1.83857 3.4752 1.94385-3.5253-.17514-.0966-1.94385 3.5253zm1.85628-.1483h-1.94385v.2h1.94385zm.3233.19c-.06947-.1069-.18214-.19-.3233-.19v.2c.05604 0 .1124.0325.15561.099zm1.59235-2.4461h.01409v-.2h-.01409zm-.70861-1.2533.61978 1.1992.17767-.0918-.61978-1.1992zm-.31408-.2208c.12736.0109.24314.0998.3166.2254l.17263-.101c-.09557-.1634-.2615-.3056-.4722-.3236zm-1.30601-.247 1.2959.2456.03724-.1965-1.29589-.2456zm.10268-1.44107-.18312 1.32917.19813.0273.18311-1.32917zm-.1134-.39332c.08877.09106.13726.24625.11375.39093l.19742.03208c.03283-.20207-.03137-.42252-.16797-.56263zm-.87646-.98582.87332.98245.14948-.13288-.87332-.98245zm.88894-1.08813-.88741.95356.14641.13625.88741-.95355zm.12945-.39261c.02288.14085-.02232.2827-.12784.39093l.1432.13962c.14802-.15183.2155-.35673.18205-.56263zm-.15556-1.31909.15495 1.31475.19862-.0234-.15494-1.31476zm.0418-.11041c-.01907.01957-.02994.04065-.03583.05877-.00289.00891-.00454.01695-.00548.02366-.00046.00336-.00076.00643-.00093.00914-.00009.00136-.00015.00264-.00019.00383-.00002.00059-.00003.00117-.00004.00172 0 .00027-.00001.00054-.00001.00081v.00039.0002.00009c0 .00005 0 .0001.1.0001s.1.00004.1.00009v.0001.00019c0 .00012 0 .00025-.00001.00037v.00075c-.00001.0005-.00002.00099-.00004.00147-.00003.00098-.00007.00193-.00014.00286-.00012.00187-.0003.0037-.00055.00548-.00049.00355-.00126.00708-.0024.01056-.00236.00728-.00619.01393-.01117.01904zm1.33567-.25977-1.28181.23117.03549.19682 1.28181-.23116zm.32386-.23749c-.06915.13003-.1971.21385-.32445.2376l.03667.19661c.18254-.03404.36448-.15249.46436-.34031zm.63422-1.17095-.63386 1.17027.17586.09526.63386-1.17028zm1.28772.53611-1.15504-.57792-.08949.17886 1.15504.57792zm.41352.00216c-.12461.06971-.28483.06971-.40944 0l-.09765.17454c.18528.10366.41946.10366.60474 0zm1.17544-.55227-1.16912.54902.08501.18103 1.16913-.54901zm.0566-.00948h-.01409v.2h.01409zm.70864 1.25326-.6198-1.19917-.17768.09182.61978 1.19917zm.3007.22085c-.1124-.01048-.2289-.09832-.3032-.22543l-.1727.10098c.0947.16185.2599.30518.4574.32359zm1.2924.26163-1.2818-.26006-.0397.196 1.2818.26006zm-.1039 1.44085.1831-1.3292-.1981-.0273-.1831 1.3292zm.1134.39332c-.0888-.09105-.1373-.24625-.1137-.39093l-.1975-.03208c-.0328.20207.0314.42252.168.56263zm.89.98523-.8874-.98245-.1484.13406.8874.98245zm-.903 1.08929.9015-.95356-.1454-.13739-.9014.95355zm-.1289.39204c-.0229-.14085.0223-.28269.1278-.39093l-.1432-.13962c-.148.15183-.2155.35673-.182.56263zm.1555 1.33367-.1549-1.32921-.1986.02316.1549 1.32925zm-1.3502.3269 1.2678-.2168-.0337-.1971-1.2678.2167zm-.3229.2373c.0691-.13.1971-.2139.3244-.2376l-.0366-.1966c-.1826.034-.3645.1525-.4644.3403zm-.63424 1.1709.63384-1.1702-.1758-.0953-.6339 1.1703zm-1.28772-.5361 1.15504.578.08949-.1789-1.15504-.5779zm-.41352-.0021c.12461-.0697.28483-.0697.40944 0l.09765-.1746c-.18528-.1036-.41946-.1036-.60474 0zm-1.17453.5663 1.16912-.5635-.08683-.1802-1.16913.5635zm4.74581 2.266c-.1338 0-.2691.0769-.3294.2007l.1798.0876c.0242-.0496.0861-.0883.1496-.0883zm1.9438 0h-1.9438v.2h1.9438zm-2.0172-3.3334 1.9297 3.4819.175-.097-1.9298-3.4819zm-.7392.2087.8451-.1589-.0369-.1966-.8452.1589zm-.5644 1.1196.6338-1.1703-.1758-.0952-.6339 1.1703zm-.58097.3413c.22967 0 .46357-.1178.58157-.3424l-.1771-.093c-.0793.151-.2398.2354-.40447.2354zm-.29918-.0688c.10168.0522.20262.0688.29918.0688v-.2c-.07247 0-.14056-.0122-.20791-.0467zm-1.15415-.5774 1.15504.5779.08949-.1789-1.15504-.5779zm-.01361.0454.0986-.0433-.08049-.1831-.0986.0433zm.35727.4238-.30989-.5635-.17525.0964.30989.5634zm.06382.1184c-.01664-.0512-.03691-.096-.07985-.1401l-.1432.1396c.01341.0138.02131.0268.03284.0623zm1.97812 3.5071-1.9861-3.5253-.17425.0982 1.98615 3.5252zm.6986-1.5884-.8734 1.5893.1753.0963.8733-1.5893z" fill="#000"/><path clip-rule="evenodd" d="m8.47635 4.93311c1.54945 0 2.81715 1.3003 2.81715 2.88956 0 1.58927-1.2677 2.88953-2.81715 2.88953-1.54944 0-2.81717-1.30026-2.81717-2.88953 0-1.58926 1.26773-2.88956 2.81717-2.88956zm-2.25377 2.88958c0 1.27141 1.01418 2.31161 2.25373 2.31161 1.23956 0 2.25379-1.0402 2.25379-2.31161s-1.01423-2.31166-2.25379-2.31166c-1.23955 0-2.25373 1.04025-2.25373 2.31166z" fill="#000" fill-rule="evenodd"/><path d="m11.4935 7.82267c0-1.6949-1.3525-3.08956-3.01715-3.08956v.4c1.43423 0 2.61715 1.20594 2.61715 2.68956zm-3.01715 3.08953c1.66465 0 3.01715-1.39462 3.01715-3.08953h-.4c0 1.48362-1.18292 2.68953-2.61715 2.68953zm-3.01717-3.08953c0 1.69491 1.35252 3.08953 3.01717 3.08953v-.4c-1.43423 0-2.61717-1.20591-2.61717-2.68953zm3.01717-3.08956c-1.66465 0-3.01717 1.39466-3.01717 3.08956h.4c0-1.48362 1.18294-2.68956 2.61717-2.68956zm-.00004 5.20123c-1.12434 0-2.05373-.94588-2.05373-2.11165h-.4c0 1.37705 1.09897 2.51161 2.45373 2.51161zm2.05379-2.11165c0 1.16577-.92944 2.11165-2.05379 2.11165v.39996c1.35477 0 2.45379-1.13456 2.45379-2.51161zm-2.05379-2.11166c1.12435 0 2.05379.94589 2.05379 2.11166h.4c0-1.37705-1.09902-2.51166-2.45379-2.51166zm-2.05373 2.11166c0-1.16577.92939-2.11166 2.05373-2.11166v-.4c-1.35476 0-2.45373 1.13461-2.45373 2.51166z" fill="#000" mask="url(#a)"/><g stroke="#000"><path d="m15.7578 5.25732h10.9091" stroke-linejoin="round"/><path d="m15.7578 7.68164h10.9091" stroke-linejoin="round"/><path d="m15.7578 10.106h10.9091" stroke-linejoin="round"/><path d="m15.7578 12.5303h5.4546" stroke-linejoin="round"/><rect height="19" rx="1.5" width="29" x=".5" y=".5"/></g></svg>