<svg width="23" height="22" viewBox="0 0 23 22" fill="none" xmlns="http://www.w3.org/2000/svg">
<path fill-rule="evenodd" clip-rule="evenodd" d="M22.3402 2.40525L21.3188 3.29855L22.3402 4.19203C22.4991 4.33116 22.5534 4.54818 22.4786 4.74492C22.4039 4.94166 22.2188 5.06884 22.0068 5.06884H17.78V10.1458H19.8995C20.559 10.1458 21.0955 10.6788 21.0955 11.3339V20.304H22.0067C22.2002 20.304 22.357 20.4598 22.357 20.652C22.357 20.8442 22.2002 21 22.0067 21H1.35034C1.15684 21 1 20.8442 1 20.652C1 20.4598 1.15684 20.304 1.35034 20.304H2.19144V19.0576C2.19144 18.4024 2.72799 17.8696 3.38745 17.8696H6.24688C6.4236 17.8696 6.5912 17.908 6.7422 17.9766V16.9721C6.7422 16.317 7.27875 15.7841 7.93839 15.7841H10.8264C10.9817 15.7841 11.1376 15.8127 11.2765 15.8843V14.8682C11.2765 13.9669 11.5377 13.6131 12.2617 13.6131H15.2977C15.5024 13.6131 15.652 13.6555 15.7935 13.7923V11.3339C15.7935 10.6715 16.2786 10.1458 17.0793 10.1458V1.34801C17.0793 1.1558 17.2361 1 17.4296 1C17.6231 1 17.78 1.1558 17.78 1.34801V1.52844H22.007C22.2188 1.52844 22.4039 1.65562 22.4788 1.85254C22.5534 2.04927 22.4991 2.26612 22.3402 2.40525ZM3.38722 18.5656C3.11405 18.5656 2.89194 18.7862 2.89194 19.0574V20.304H6.74183V19.0574C6.74183 18.7862 6.51954 18.5656 6.24637 18.5656H3.38722ZM7.4423 19.0575V16.9721C7.4423 16.7008 7.66459 16.4801 7.93776 16.4801H10.7969C11.0701 16.4801 11.2922 16.7008 11.2922 16.9721V20.304H7.44248V19.0575H7.4423ZM20.3941 20.304V11.3339C20.3941 11.0628 20.1718 10.8419 19.8986 10.8419H17.4326L17.4292 10.8421L17.4255 10.8419H17.0397C16.7665 10.8419 16.5442 11.0626 16.5442 11.3339V16.4763C16.5442 16.6685 16.3876 16.8243 16.1939 16.8243C16.0004 16.8243 15.8436 16.6685 15.8436 16.4763V14.7318C15.8436 14.4606 15.6215 14.2399 15.3483 14.2399H12.4892C12.216 14.2399 11.9939 14.4606 11.9939 14.7318V20.304H15.8436V18.2175C15.8436 18.0252 16.0004 17.8694 16.1941 17.8694C16.3876 17.8694 16.5444 18.0252 16.5444 18.2175V20.304H20.3941ZM17.7799 4.37261V2.22461H21.4859L20.6877 2.9228C20.579 3.01791 20.5167 3.15486 20.5167 3.2987C20.5167 3.44254 20.579 3.5795 20.6877 3.67461L21.4859 4.3728H17.7799V4.37261ZM8.14615 12.0143C5.11331 14.3552 1.2566 16.3582 1.2566 16.3582C1.08773 16.3582 1 16.27 1 16.0941C1 16.0941 5.51213 13.4489 8.34383 10.9261C10.3319 9.15477 11.238 8.16517 11.9244 7.41542C12.2157 7.09729 12.4674 6.82234 12.7455 6.54918L11.8336 5.68822C11.7704 5.58417 11.8336 5.49388 11.9903 5.49388C11.9903 5.49388 14.3751 5.50902 14.4267 5.50902C14.4782 5.50902 14.5359 5.55998 14.5493 5.60643C14.5627 5.65289 14.6523 7.99803 14.6523 7.99803C14.6588 8.1267 14.569 8.20115 14.4719 8.15764L13.5646 7.30637C12.7131 8.1595 11.179 9.67331 8.14615 12.0143Z" fill="#476FB1"/>
<path d="M21.3188 3.29855L21.1871 3.148L21.015 3.29853L21.1871 3.44909L21.3188 3.29855ZM22.3402 2.40525L22.4719 2.5558L22.472 2.5557L22.3402 2.40525ZM22.3402 4.19203L22.472 4.04158L22.4719 4.04149L22.3402 4.19203ZM22.4786 4.74492L22.2917 4.67387V4.67387L22.4786 4.74492ZM17.78 5.06884V4.86884H17.58V5.06884H17.78ZM17.78 10.1458H17.58V10.3458H17.78V10.1458ZM21.0955 20.304H20.8955V20.504H21.0955V20.304ZM2.19144 20.304V20.504H2.39144V20.304H2.19144ZM6.7422 17.9766L6.65942 18.1587L6.9422 18.2873V17.9766H6.7422ZM11.2765 15.8843L11.185 16.0621L11.4765 16.2123V15.8843H11.2765ZM15.7935 13.7923L15.6544 13.9361L15.9935 14.2639V13.7923H15.7935ZM17.0793 10.1458V10.3458H17.2793V10.1458H17.0793ZM17.78 1.52844H17.58V1.72844H17.78V1.52844ZM22.4788 1.85254L22.6658 1.78163L22.6657 1.78139L22.4788 1.85254ZM2.89194 20.304H2.69194V20.504H2.89194V20.304ZM6.74183 20.304V20.504H6.94183V20.304H6.74183ZM7.4423 19.0575H7.2423V19.2575H7.4423V19.0575ZM11.2922 20.304V20.504H11.4922V20.304H11.2922ZM7.44248 20.304H7.24248V20.504H7.44248V20.304ZM7.44248 19.0575H7.64248V18.8575H7.44248V19.0575ZM20.3941 20.304V20.504H20.5941V20.304H20.3941ZM17.4326 10.8419V10.6416L17.4222 10.6422L17.4326 10.8419ZM17.4292 10.8421L17.4192 11.0419L17.4294 11.0424L17.4396 11.0418L17.4292 10.8421ZM17.4255 10.8419L17.4355 10.6419H17.4255V10.8419ZM11.9939 20.304H11.7939V20.504H11.9939V20.304ZM15.8436 20.304V20.504H16.0436V20.304H15.8436ZM16.5444 20.304H16.3444V20.504H16.5444V20.304ZM17.7799 2.22461V2.02461H17.5799V2.22461H17.7799ZM21.4859 2.22461L21.6176 2.37514L22.0183 2.02461H21.4859V2.22461ZM20.6877 2.9228L20.5561 2.77226L20.556 2.77229L20.6877 2.9228ZM20.6877 3.67461L20.556 3.82512L20.5561 3.82514L20.6877 3.67461ZM21.4859 4.3728V4.5728H22.0183L21.6176 4.22226L21.4859 4.3728ZM17.7799 4.3728H17.5799V4.5728H17.7799V4.3728ZM1.2566 16.3582V16.5582H1.30544L1.34878 16.5357L1.2566 16.3582ZM8.14615 12.0143L8.26836 12.1726L8.14615 12.0143ZM1 16.0941L0.898852 15.9216L0.8 15.9795V16.0941H1ZM8.34383 10.9261L8.47687 11.0754L8.34383 10.9261ZM11.9244 7.41542L12.0719 7.55048L11.9244 7.41542ZM12.7455 6.54918L12.8856 6.69186L13.0338 6.54633L12.8828 6.40376L12.7455 6.54918ZM11.8336 5.68822L11.6626 5.79195L11.6766 5.81508L11.6963 5.83364L11.8336 5.68822ZM11.9903 5.49388L11.9916 5.29388H11.9903V5.49388ZM14.5493 5.60643L14.3571 5.66188L14.3571 5.66189L14.5493 5.60643ZM14.6523 7.99803L14.4525 8.00567L14.4526 8.00809L14.6523 7.99803ZM14.4719 8.15764L14.3351 8.30349L14.3595 8.32643L14.3901 8.34015L14.4719 8.15764ZM13.5646 7.30637L13.7014 7.16051L13.56 7.02783L13.423 7.16509L13.5646 7.30637ZM21.4504 3.4491L22.4719 2.5558L22.2086 2.2547L21.1871 3.148L21.4504 3.4491ZM22.4719 4.04149L21.4504 3.14801L21.1871 3.44909L22.2085 4.34256L22.4719 4.04149ZM22.6656 4.81598C22.7702 4.54076 22.6934 4.23551 22.472 4.04158L22.2084 4.34247C22.3047 4.4268 22.3366 4.5556 22.2917 4.67387L22.6656 4.81598ZM22.0068 5.26884C22.3011 5.26884 22.5611 5.09097 22.6656 4.81598L22.2917 4.67387C22.2467 4.79236 22.1364 4.86884 22.0068 4.86884V5.26884ZM17.78 5.26884H22.0068V4.86884H17.78V5.26884ZM17.98 10.1458V5.06884H17.58V10.1458H17.98ZM19.8995 9.94585H17.78V10.3458H19.8995V9.94585ZM21.2955 11.3339C21.2955 10.5671 20.6682 9.94585 19.8995 9.94585V10.3458C20.4498 10.3458 20.8955 10.7905 20.8955 11.3339H21.2955ZM21.2955 20.304V11.3339H20.8955V20.304H21.2955ZM22.0067 20.104H21.0955V20.504H22.0067V20.104ZM22.557 20.652C22.557 20.3481 22.3094 20.104 22.0067 20.104V20.504C22.091 20.504 22.157 20.5715 22.157 20.652H22.557ZM22.0067 21.2C22.3094 21.2 22.557 20.9559 22.557 20.652H22.157C22.157 20.7325 22.091 20.8 22.0067 20.8V21.2ZM1.35034 21.2H22.0067V20.8H1.35034V21.2ZM0.8 20.652C0.8 20.9559 1.04765 21.2 1.35034 21.2V20.8C1.26604 20.8 1.2 20.7325 1.2 20.652H0.8ZM1.35034 20.104C1.04765 20.104 0.8 20.3481 0.8 20.652H1.2C1.2 20.5715 1.26604 20.504 1.35034 20.504V20.104ZM2.19144 20.104H1.35034V20.504H2.19144V20.104ZM1.99144 19.0576V20.304H2.39144V19.0576H1.99144ZM3.38745 17.6696C2.61881 17.6696 1.99144 18.2906 1.99144 19.0576H2.39144C2.39144 18.5141 2.83716 18.0696 3.38745 18.0696V17.6696ZM6.24688 17.6696H3.38745V18.0696H6.24688V17.6696ZM6.82499 17.7946C6.64864 17.7144 6.45287 17.6696 6.24688 17.6696V18.0696C6.39432 18.0696 6.53376 18.1016 6.65942 18.1587L6.82499 17.7946ZM6.5422 16.9721V17.9766H6.9422V16.9721H6.5422ZM7.93839 15.5841C7.16957 15.5841 6.5422 16.2053 6.5422 16.9721H6.9422C6.9422 16.4288 7.38792 15.9841 7.93839 15.9841V15.5841ZM10.8264 15.5841H7.93839V15.9841H10.8264V15.5841ZM11.3681 15.7065C11.1943 15.617 11.0053 15.5841 10.8264 15.5841V15.9841C10.958 15.9841 11.0808 16.0085 11.185 16.0621L11.3681 15.7065ZM11.0765 14.8682V15.8843H11.4765V14.8682H11.0765ZM12.2617 13.4131C11.8698 13.4131 11.5492 13.5095 11.3395 13.7802C11.1407 14.0368 11.0765 14.4089 11.0765 14.8682H11.4765C11.4765 14.4262 11.5429 14.1708 11.6557 14.0252C11.7576 13.8936 11.9296 13.8131 12.2617 13.8131V13.4131ZM15.2977 13.4131H12.2617V13.8131H15.2977V13.4131ZM15.9325 13.6485C15.7433 13.4656 15.5378 13.4131 15.2977 13.4131V13.8131C15.467 13.8131 15.5606 13.8453 15.6544 13.9361L15.9325 13.6485ZM15.5935 11.3339V13.7923H15.9935V11.3339H15.5935ZM17.0793 9.94585C16.6341 9.94585 16.2605 10.0928 15.997 10.3477C15.7338 10.6024 15.5935 10.9527 15.5935 11.3339H15.9935C15.9935 11.0527 16.0957 10.8089 16.2752 10.6352C16.4545 10.4617 16.7238 10.3458 17.0793 10.3458V9.94585ZM16.8793 1.34801V10.1458H17.2793V1.34801H16.8793ZM17.4296 0.8C17.1269 0.8 16.8793 1.04408 16.8793 1.34801H17.2793C17.2793 1.26751 17.3453 1.2 17.4296 1.2V0.8ZM17.98 1.34801C17.98 1.04408 17.7323 0.8 17.4296 0.8V1.2C17.5139 1.2 17.58 1.26751 17.58 1.34801H17.98ZM17.98 1.52844V1.34801H17.58V1.52844H17.98ZM22.007 1.32844H17.78V1.72844H22.007V1.32844ZM22.6657 1.78139C22.5611 1.5064 22.3012 1.32844 22.007 1.32844V1.72844C22.1363 1.72844 22.2467 1.80483 22.2919 1.92368L22.6657 1.78139ZM22.472 2.5557C22.6934 2.36179 22.7702 2.05679 22.6658 1.78163L22.2918 1.92344C22.3367 2.04176 22.3048 2.17045 22.2084 2.2548L22.472 2.5557ZM3.09194 19.0574C3.09194 18.8979 3.22322 18.7656 3.38722 18.7656V18.3656C3.00488 18.3656 2.69194 18.6745 2.69194 19.0574H3.09194ZM3.09194 20.304V19.0574H2.69194V20.304H3.09194ZM6.74183 20.104H2.89194V20.504H6.74183V20.104ZM6.54183 19.0574V20.304H6.94183V19.0574H6.54183ZM6.24637 18.7656C6.41047 18.7656 6.54183 18.898 6.54183 19.0574H6.94183C6.94183 18.6744 6.62861 18.3656 6.24637 18.3656V18.7656ZM3.38722 18.7656H6.24637V18.3656H3.38722V18.7656ZM7.2423 16.9721V19.0575H7.6423V16.9721H7.2423ZM7.93776 16.2801C7.55547 16.2801 7.2423 16.589 7.2423 16.9721H7.6423C7.6423 16.8125 7.77371 16.6801 7.93776 16.6801V16.2801ZM10.7969 16.2801H7.93776V16.6801H10.7969V16.2801ZM11.4922 16.9721C11.4922 16.5891 11.1793 16.2801 10.7969 16.2801V16.6801C10.9609 16.6801 11.0922 16.8125 11.0922 16.9721H11.4922ZM11.4922 20.304V16.9721H11.0922V20.304H11.4922ZM7.44248 20.504H11.2922V20.104H7.44248V20.504ZM7.24248 19.0575V20.304H7.64248V19.0575H7.24248ZM7.4423 19.2575H7.44248V18.8575H7.4423V19.2575ZM20.1941 11.3339V20.304H20.5941V11.3339H20.1941ZM19.8986 11.0419C20.0626 11.0419 20.1941 11.1745 20.1941 11.3339H20.5941C20.5941 10.951 20.281 10.6419 19.8986 10.6419V11.0419ZM17.4326 11.0419H19.8986V10.6419H17.4326V11.0419ZM17.4396 11.0418L17.4431 11.0416L17.4222 10.6422L17.4187 10.6424L17.4396 11.0418ZM17.4156 11.0417L17.4192 11.0419L17.4391 10.6423L17.4355 10.6422L17.4156 11.0417ZM17.0397 11.0419H17.4255V10.6419H17.0397V11.0419ZM16.7442 11.3339C16.7442 11.1744 16.8756 11.0419 17.0397 11.0419V10.6419C16.6574 10.6419 16.3442 10.9508 16.3442 11.3339H16.7442ZM16.7442 16.4763V11.3339H16.3442V16.4763H16.7442ZM16.1939 17.0243C16.4968 17.0243 16.7442 16.7802 16.7442 16.4763H16.3442C16.3442 16.5569 16.2783 16.6243 16.1939 16.6243V17.0243ZM15.6436 16.4763C15.6436 16.7802 15.8912 17.0243 16.1939 17.0243V16.6243C16.1096 16.6243 16.0436 16.5568 16.0436 16.4763H15.6436ZM15.6436 14.7318V16.4763H16.0436V14.7318H15.6436ZM15.3483 14.4399C15.5123 14.4399 15.6436 14.5723 15.6436 14.7318H16.0436C16.0436 14.3488 15.7307 14.0399 15.3483 14.0399V14.4399ZM12.4892 14.4399H15.3483V14.0399H12.4892V14.4399ZM12.1939 14.7318C12.1939 14.5723 12.3252 14.4399 12.4892 14.4399V14.0399C12.1068 14.0399 11.7939 14.3488 11.7939 14.7318H12.1939ZM12.1939 20.304V14.7318H11.7939V20.304H12.1939ZM15.8436 20.104H11.9939V20.504H15.8436V20.104ZM15.6436 18.2175V20.304H16.0436V18.2175H15.6436ZM16.1941 17.6694C15.8913 17.6694 15.6436 17.9135 15.6436 18.2175H16.0436C16.0436 18.137 16.1096 18.0694 16.1941 18.0694V17.6694ZM16.7444 18.2175C16.7444 17.9135 16.4968 17.6694 16.1941 17.6694V18.0694C16.2783 18.0694 16.3444 18.1369 16.3444 18.2175H16.7444ZM16.7444 20.304V18.2175H16.3444V20.304H16.7444ZM20.3941 20.104H16.5444V20.504H20.3941V20.104ZM17.5799 2.22461V4.37261H17.9799V2.22461H17.5799ZM21.4859 2.02461H17.7799V2.42461H21.4859V2.02461ZM20.8194 3.07333L21.6176 2.37514L21.3542 2.07407L20.5561 2.77226L20.8194 3.07333ZM20.7167 3.2987C20.7167 3.21287 20.7539 3.13066 20.8194 3.07331L20.556 2.77229C20.4042 2.90515 20.3167 3.09686 20.3167 3.2987H20.7167ZM20.8194 3.5241C20.7539 3.46675 20.7167 3.38454 20.7167 3.2987H20.3167C20.3167 3.50055 20.4042 3.69225 20.556 3.82512L20.8194 3.5241ZM21.6176 4.22226L20.8194 3.52407L20.5561 3.82514L21.3542 4.52333L21.6176 4.22226ZM17.7799 4.5728H21.4859V4.1728H17.7799V4.5728ZM17.5799 4.37261V4.3728H17.9799V4.37261H17.5799ZM1.2566 16.3582C1.34878 16.5357 1.34881 16.5357 1.34885 16.5357C1.34888 16.5357 1.34894 16.5356 1.34901 16.5356C1.34914 16.5355 1.34934 16.5354 1.34959 16.5353C1.3501 16.535 1.35083 16.5346 1.3518 16.5341C1.35374 16.5331 1.35661 16.5316 1.36038 16.5297C1.36791 16.5257 1.37908 16.5199 1.39373 16.5122C1.42303 16.4968 1.46626 16.4739 1.52228 16.4441C1.63432 16.3844 1.79755 16.2966 2.00279 16.184C2.41326 15.9588 2.992 15.6343 3.66577 15.2363C5.01235 14.441 6.74264 13.3503 8.26836 12.1726L8.02395 11.856C6.51683 13.0193 4.80234 14.1005 3.46235 14.8919C2.79284 15.2873 2.21785 15.6098 1.8104 15.8333C1.6067 15.9451 1.44492 16.0321 1.3342 16.0911C1.27884 16.1206 1.23625 16.1431 1.20757 16.1581C1.19323 16.1657 1.18237 16.1714 1.17513 16.1751C1.17151 16.177 1.1688 16.1785 1.16701 16.1794C1.16611 16.1799 1.16545 16.1802 1.16501 16.1804C1.1648 16.1805 1.16464 16.1806 1.16454 16.1807C1.16449 16.1807 1.16446 16.1807 1.16444 16.1807C1.16442 16.1807 1.16442 16.1807 1.2566 16.3582ZM0.8 16.0941C0.8 16.2128 0.829675 16.3375 0.921941 16.4319C1.015 16.5272 1.1391 16.5582 1.2566 16.5582V16.1582C1.20523 16.1582 1.20102 16.1452 1.208 16.1523C1.21419 16.1587 1.2 16.1514 1.2 16.0941H0.8ZM8.21078 10.7767C6.80589 12.0284 4.97956 13.3141 3.49997 14.2892C2.76106 14.7761 2.11036 15.1845 1.64448 15.471C1.41157 15.6143 1.22491 15.7271 1.0966 15.804C1.03244 15.8424 0.98288 15.8719 0.949418 15.8917C0.932687 15.9016 0.919981 15.9091 0.91149 15.9142C0.907245 15.9167 0.904053 15.9185 0.901939 15.9198C0.900882 15.9204 0.900094 15.9209 0.899578 15.9212C0.899321 15.9213 0.899131 15.9214 0.89901 15.9215C0.898949 15.9215 0.89891 15.9216 0.898879 15.9216C0.898857 15.9216 0.898852 15.9216 1 16.0941C1.10115 16.2667 1.10118 16.2666 1.10122 16.2666C1.10126 16.2666 1.10133 16.2666 1.1014 16.2665C1.10156 16.2664 1.10178 16.2663 1.10207 16.2661C1.10265 16.2658 1.1035 16.2653 1.10462 16.2646C1.10687 16.2633 1.11019 16.2613 1.11457 16.2588C1.12333 16.2536 1.1363 16.2459 1.15331 16.2359C1.18733 16.2157 1.23747 16.1859 1.30222 16.1471C1.43173 16.0695 1.61971 15.9559 1.85405 15.8117C2.32268 15.5235 2.97699 15.1129 3.72008 14.6232C5.20448 13.6449 7.05006 12.3466 8.47687 11.0754L8.21078 10.7767ZM11.7769 7.28037C11.0934 8.02688 10.1923 9.01131 8.21078 10.7767L8.47687 11.0754C10.4716 9.29824 11.3825 8.30346 12.0719 7.55048L11.7769 7.28037ZM12.6053 6.4065C12.3228 6.684 12.0676 6.9629 11.7769 7.28037L12.0719 7.55048C12.3638 7.23167 12.612 6.96068 12.8856 6.69186L12.6053 6.4065ZM11.6963 5.83364L12.6082 6.69461L12.8828 6.40376L11.9709 5.54279L11.6963 5.83364ZM11.9903 5.29388C11.8822 5.29388 11.7527 5.32434 11.6712 5.42976C11.5786 5.54967 11.602 5.69207 11.6626 5.79195L12.0046 5.58448C12.0027 5.58141 12.0089 5.59015 12.0093 5.60955C12.0098 5.63121 12.0026 5.6551 11.9878 5.67431C11.9742 5.69185 11.9611 5.69685 11.9609 5.69694C11.9608 5.69697 11.9695 5.69388 11.9903 5.69388V5.29388ZM14.4267 5.30902C14.4017 5.30902 13.7938 5.30524 13.1904 5.30145C12.8891 5.29956 12.5894 5.29767 12.365 5.29625C12.2529 5.29554 12.1595 5.29495 12.0942 5.29453C12.0615 5.29433 12.0359 5.29416 12.0184 5.29405C12.0097 5.294 12.003 5.29396 11.9985 5.29393C11.9962 5.29391 11.9945 5.2939 11.9933 5.29389C11.9928 5.29389 11.9923 5.29389 11.9921 5.29389C11.9919 5.29389 11.9918 5.29388 11.9917 5.29388C11.9917 5.29388 11.9917 5.29388 11.9916 5.29388C11.9916 5.29388 11.9916 5.29388 11.9903 5.49388C11.9891 5.69388 11.9891 5.69388 11.9891 5.69388C11.9891 5.69388 11.9892 5.69388 11.9892 5.69388C11.9893 5.69388 11.9894 5.69388 11.9895 5.69388C11.9898 5.69388 11.9902 5.69388 11.9908 5.69389C11.992 5.69389 11.9937 5.6939 11.9959 5.69392C12.0004 5.69395 12.0071 5.69399 12.0159 5.69405C12.0334 5.69416 12.059 5.69432 12.0917 5.69453C12.157 5.69494 12.2503 5.69553 12.3625 5.69624C12.5869 5.69766 12.8866 5.69955 13.1879 5.70144C13.7898 5.70522 14.4001 5.70902 14.4267 5.70902V5.30902ZM14.7414 5.55099C14.7207 5.47896 14.6739 5.42258 14.6294 5.38588C14.5852 5.34956 14.5144 5.30902 14.4267 5.30902V5.70902C14.407 5.70902 14.3934 5.70433 14.387 5.70158C14.3803 5.69872 14.3767 5.69599 14.3752 5.69473C14.3736 5.69343 14.3716 5.6915 14.3691 5.68805C14.367 5.68505 14.3614 5.67659 14.3571 5.66188L14.7414 5.55099ZM14.6523 7.99803C14.8522 7.99039 14.8522 7.99038 14.8522 7.99036C14.8522 7.99034 14.8522 7.99031 14.8522 7.99028C14.8522 7.99021 14.8522 7.9901 14.8522 7.98996C14.8522 7.98967 14.8521 7.98925 14.8521 7.98868C14.8521 7.98755 14.852 7.98587 14.8519 7.98364C14.8518 7.9792 14.8515 7.97261 14.8512 7.96401C14.8505 7.94681 14.8495 7.92158 14.8483 7.88946C14.8458 7.82522 14.8423 7.7334 14.838 7.62307C14.8293 7.40243 14.8177 7.10771 14.8057 6.81152C14.7936 6.5154 14.7811 6.21752 14.7708 5.99064C14.7657 5.87728 14.761 5.78115 14.7573 5.71166C14.7554 5.67704 14.7537 5.64821 14.7521 5.62686C14.7514 5.61634 14.7506 5.60643 14.7498 5.59807C14.7494 5.59398 14.7489 5.5889 14.7482 5.58363C14.748 5.58216 14.7462 5.5675 14.7414 5.55098L14.3571 5.66189C14.3513 5.64157 14.3505 5.62402 14.3517 5.6367C14.352 5.63993 14.3525 5.64583 14.3531 5.65503C14.3544 5.67315 14.356 5.69945 14.3578 5.73341C14.3615 5.80106 14.3661 5.89576 14.3712 6.0088C14.3815 6.2347 14.394 6.53181 14.406 6.82778C14.418 7.12368 14.4297 7.41816 14.4383 7.63868C14.4426 7.74893 14.4461 7.84069 14.4486 7.90488C14.4498 7.93697 14.4508 7.96218 14.4515 7.97935C14.4518 7.98794 14.452 7.99452 14.4522 7.99895C14.4523 8.00117 14.4524 8.00285 14.4524 8.00398C14.4524 8.00454 14.4524 8.00496 14.4525 8.00524C14.4525 8.00539 14.4525 8.00549 14.4525 8.00556C14.4525 8.0056 14.4525 8.00562 14.4525 8.00564C14.4525 8.00566 14.4525 8.00567 14.6523 7.99803ZM14.3901 8.34015C14.5049 8.39158 14.6355 8.37709 14.7319 8.29358C14.8226 8.21499 14.8576 8.09854 14.8521 7.98797L14.4526 8.00809C14.4535 8.02619 14.4468 8.0113 14.47 7.99123C14.4817 7.98113 14.4978 7.97323 14.5161 7.97084C14.5342 7.96846 14.5476 7.97238 14.5537 7.97513L14.3901 8.34015ZM13.4277 7.45222L14.3351 8.30349L14.6088 8.01178L13.7014 7.16051L13.4277 7.45222ZM8.26836 12.1726C11.3096 9.82513 12.8503 8.30524 13.7061 7.44765L13.423 7.16509C12.576 8.01375 11.0484 9.52148 8.02395 11.856L8.26836 12.1726Z" fill="#476FB1"/>
</svg>
