<svg width="24" height="22" viewBox="0 0 24 22" fill="none" xmlns="http://www.w3.org/2000/svg">
<path d="M22.0947 0.9H2.35529C1.55276 0.9 0.9 1.55276 0.9 2.35529V15.984C0.9 16.7865 1.55276 17.4393 2.35529 17.4393H9.01924V18.3254C9.01924 19.1742 8.32851 19.8649 7.47973 19.8649H5.98904C5.64802 19.8649 5.3715 20.1414 5.3715 20.4825C5.3715 20.8235 5.64802 21.1 5.98904 21.1H18.4609C18.8019 21.1 19.0784 20.8235 19.0784 20.4825C19.0784 20.1414 18.8019 19.8649 18.4609 19.8649H16.9702C16.1214 19.8649 15.4307 19.1742 15.4307 18.3254V17.4393H22.0946C22.8971 17.4393 23.5499 16.7866 23.5499 15.984V2.35529C23.5499 1.55277 22.8973 0.9 22.0947 0.9ZM14.6638 19.865H9.78624C10.0815 19.4243 10.2544 18.8948 10.2544 18.3255V17.4394H14.1957V18.3255C14.1957 18.8948 14.3686 19.4243 14.6638 19.865ZM22.315 15.984C22.315 16.1054 22.2161 16.2043 22.0947 16.2043H2.35529C2.23393 16.2043 2.13503 16.1054 2.13503 15.984V13.364H22.315V15.984ZM22.315 12.1289H2.13507V2.35529C2.13507 2.23393 2.23395 2.13503 2.35533 2.13503H22.0947C22.2161 2.13503 22.315 2.23393 22.315 2.35529V12.1289Z" fill="#131B25" stroke="black" stroke-width="0.2"/>
<path d="M12.2255 15.4427C12.5892 15.4427 12.8841 15.1478 12.8841 14.7841C12.8841 14.4204 12.5892 14.1256 12.2255 14.1256C11.8618 14.1256 11.567 14.4204 11.567 14.7841C11.567 15.1478 11.8618 15.4427 12.2255 15.4427Z" fill="#131B25" stroke="#131B25" stroke-width="0.2"/>
<path d="M13.183 4.49493L13.183 4.49491C12.9418 4.25377 12.551 4.25379 12.3097 4.4949L12.3097 4.49492L8.65215 8.15244C8.411 8.39359 8.41101 8.78462 8.65214 9.0258L8.65216 9.02582C8.77277 9.14638 8.9309 9.20668 9.08886 9.20668C9.24681 9.20668 9.40495 9.14638 9.52552 9.02581L13.183 5.36829C13.4242 5.12714 13.4242 4.73611 13.183 4.49493Z" fill="#131B25" stroke="black" stroke-width="0.2"/>
<path d="M14.4774 6.61451L14.4774 6.61447C14.7187 6.37345 15.1096 6.37339 15.3507 6.61456C15.3507 6.61456 15.3507 6.61456 15.3507 6.61456L14.4774 6.61451ZM14.4774 6.61451L13.0203 8.07148L13.0203 8.07149C12.7792 8.31268 12.7792 8.70371 13.0203 8.94486C13.1409 9.06543 13.2991 9.12573 13.457 9.12573C13.6148 9.12573 13.7731 9.06544 13.8936 8.94486L14.4774 6.61451Z" fill="#131B25" stroke="black" stroke-width="0.2"/>
</svg>
