<svg xmlns="http://www.w3.org/2000/svg" width="67" height="71" viewBox="0 0 67 71" fill="none">
    <path fill-rule="evenodd" clip-rule="evenodd" d="M33.5 9.06543C33.9105 9.06543 34.2864 9.29528 34.4735 9.66066L38.2747 17.0837L46.7753 18.2633C47.1926 18.3212 47.5395 18.6135 47.6672 19.0149C47.795 19.4163 47.6809 19.8554 47.3739 20.1438L41.2436 25.9037L42.6977 34.029C42.7708 34.4373 42.6066 34.8518 42.2738 35.0993C41.9409 35.3469 41.4967 35.3848 41.1267 35.1973L33.5 31.3326L25.8733 35.1973C25.5033 35.3848 25.0591 35.3469 24.7262 35.0993C24.3934 34.8518 24.2292 34.4373 24.3023 34.029L25.7564 25.9037L19.6261 20.1438C19.3191 19.8554 19.205 19.4163 19.3328 19.0149C19.4606 18.6135 19.8075 18.3212 20.2247 18.2633L28.7253 17.0837L32.5265 9.66066C32.7136 9.29528 33.0895 9.06543 33.5 9.06543ZM33.5 12.5589L30.413 18.5874C30.2504 18.9049 29.9431 19.1232 29.5898 19.1722L22.7908 20.1157L27.6864 24.7156C27.956 24.9689 28.0793 25.3413 28.0141 25.7054L26.8422 32.254L33.0056 29.1308C33.3164 28.9733 33.6836 28.9733 33.9944 29.1308L40.1578 32.254L38.9859 25.7054C38.9207 25.3413 39.044 24.9689 39.3136 24.7156L44.2092 20.1157L37.4102 19.1722C37.0569 19.1232 36.7496 18.9049 36.587 18.5874L33.5 12.5589Z" fill="url(#paint0_linear_62_5615)"/>
    <path fill-rule="evenodd" clip-rule="evenodd" d="M12.7188 1.40918C12.7188 0.805118 13.2084 0.31543 13.8125 0.31543H53.1875C53.7916 0.31543 54.2812 0.805118 54.2812 1.40918V28.3291C54.2812 39.4686 44.9372 48.4404 33.5 48.4404C22.0628 48.4404 12.7188 39.4686 12.7188 28.3291V1.40918ZM14.9062 2.50293V28.3291C14.9062 38.1896 23.1989 46.2529 33.5 46.2529C43.8011 46.2529 52.0938 38.1896 52.0938 28.3291V2.50293H14.9062Z" fill="url(#paint1_linear_62_5615)"/>
    <path fill-rule="evenodd" clip-rule="evenodd" d="M19.2764 59.5128C20.3007 58.0617 21.973 57.1904 23.752 57.1904H43.2617C45.0344 57.1904 46.7117 58.0432 47.7403 59.5171L54.084 68.5952C54.3176 68.9293 54.3458 69.3657 54.1574 69.7272C53.969 70.0887 53.5952 70.3154 53.1875 70.3154H13.8125C13.4046 70.3154 13.0306 70.0885 12.8423 69.7267C12.654 69.3649 12.6826 68.9284 12.9166 68.5943L19.274 59.5162L19.2764 59.5128ZM21.0646 60.7728C21.0642 60.7733 21.0638 60.7738 21.0635 60.7743L15.9137 68.1279H51.0889L45.9467 60.7694C45.3347 59.8921 44.3326 59.3779 43.2617 59.3779H23.752C22.6878 59.3779 21.681 59.9006 21.0646 60.7728Z" fill="url(#paint2_linear_62_5615)"/>
    <path fill-rule="evenodd" clip-rule="evenodd" d="M52.0938 3.59668C52.0938 2.99262 52.5834 2.50293 53.1875 2.50293H63.0312C64.8384 2.50293 66.3125 3.97699 66.3125 5.78418V23.5029C66.3125 28.4701 62.5088 32.5292 57.6415 33.0666C57.0411 33.1329 56.5006 32.6999 56.4343 32.0995C56.368 31.4991 56.801 30.9586 57.4015 30.8923C61.2022 30.4727 64.125 27.3131 64.125 23.5029V5.78418C64.125 5.18512 63.6303 4.69043 63.0312 4.69043H53.1875C52.5834 4.69043 52.0938 4.20074 52.0938 3.59668Z" fill="url(#paint3_linear_62_5615)"/>
    <path fill-rule="evenodd" clip-rule="evenodd" d="M0.6875 5.78418C0.6875 3.97699 2.16156 2.50293 3.96875 2.50293H13.8125C14.4166 2.50293 14.9062 2.99262 14.9062 3.59668C14.9062 4.20074 14.4166 4.69043 13.8125 4.69043H3.96875C3.36969 4.69043 2.875 5.18512 2.875 5.78418V23.5029C2.875 27.5976 6.24993 30.9404 10.4629 30.9404H13.8125C14.4166 30.9404 14.9062 31.4301 14.9062 32.0342C14.9062 32.6382 14.4166 33.1279 13.8125 33.1279H10.4629C5.07819 33.1279 0.6875 28.8418 0.6875 23.5029V5.78418Z" fill="url(#paint4_linear_62_5615)"/>
    <path fill-rule="evenodd" clip-rule="evenodd" d="M17.5313 62.6592C17.5313 62.0551 18.0209 61.5654 18.625 61.5654H42.25C42.8541 61.5654 43.3438 62.0551 43.3438 62.6592C43.3438 63.2632 42.8541 63.7529 42.25 63.7529H18.625C18.0209 63.7529 17.5313 63.2632 17.5313 62.6592Z" fill="url(#paint5_linear_62_5615)"/>
    <path fill-rule="evenodd" clip-rule="evenodd" d="M38.9688 46.2529C39.5728 46.2529 40.0625 46.7426 40.0625 47.3467V57.1904C40.0625 57.7945 39.5728 58.2842 38.9688 58.2842C38.3647 58.2842 37.875 57.7945 37.875 57.1904V47.3467C37.875 46.7426 38.3647 46.2529 38.9688 46.2529Z" fill="url(#paint6_linear_62_5615)"/>
    <path fill-rule="evenodd" clip-rule="evenodd" d="M28.0312 46.2529C28.6353 46.2529 29.125 46.7426 29.125 47.3467V57.1904C29.125 57.7945 28.6353 58.2842 28.0312 58.2842C27.4272 58.2842 26.9375 57.7945 26.9375 57.1904V47.3467C26.9375 46.7426 27.4272 46.2529 28.0312 46.2529Z" fill="url(#paint7_linear_62_5615)"/>
    <defs>
      <linearGradient id="paint0_linear_62_5615" x1="66" y1="69.877" x2="-13" y2="-0.123043" gradientUnits="userSpaceOnUse">
        <stop stop-color="#DDD96F"/>
        <stop offset="1" stop-color="#FFB800"/>
      </linearGradient>
      <linearGradient id="paint1_linear_62_5615" x1="66" y1="69.877" x2="-13" y2="-0.123043" gradientUnits="userSpaceOnUse">
        <stop stop-color="#DDD96F"/>
        <stop offset="1" stop-color="#FFB800"/>
      </linearGradient>
      <linearGradient id="paint2_linear_62_5615" x1="66" y1="69.877" x2="-13" y2="-0.123043" gradientUnits="userSpaceOnUse">
        <stop stop-color="#DDD96F"/>
        <stop offset="1" stop-color="#FFB800"/>
      </linearGradient>
      <linearGradient id="paint3_linear_62_5615" x1="66" y1="69.877" x2="-13" y2="-0.123043" gradientUnits="userSpaceOnUse">
        <stop stop-color="#DDD96F"/>
        <stop offset="1" stop-color="#FFB800"/>
      </linearGradient>
      <linearGradient id="paint4_linear_62_5615" x1="66" y1="69.877" x2="-13" y2="-0.123043" gradientUnits="userSpaceOnUse">
        <stop stop-color="#DDD96F"/>
        <stop offset="1" stop-color="#FFB800"/>
      </linearGradient>
      <linearGradient id="paint5_linear_62_5615" x1="66" y1="69.877" x2="-13" y2="-0.123043" gradientUnits="userSpaceOnUse">
        <stop stop-color="#DDD96F"/>
        <stop offset="1" stop-color="#FFB800"/>
      </linearGradient>
      <linearGradient id="paint6_linear_62_5615" x1="66" y1="69.877" x2="-13" y2="-0.123043" gradientUnits="userSpaceOnUse">
        <stop stop-color="#DDD96F"/>
        <stop offset="1" stop-color="#FFB800"/>
      </linearGradient>
      <linearGradient id="paint7_linear_62_5615" x1="66" y1="69.877" x2="-13" y2="-0.123043" gradientUnits="userSpaceOnUse">
        <stop stop-color="#DDD96F"/>
        <stop offset="1" stop-color="#FFB800"/>
      </linearGradient>
    </defs>
  </svg>