<svg xmlns="http://www.w3.org/2000/svg" width="66" height="71" viewBox="0 0 66 71" fill="none">
    <path fill-rule="evenodd" clip-rule="evenodd" d="M33 9.06543C33.4105 9.06543 33.7864 9.29528 33.9735 9.66066L37.7747 17.0837L46.2753 18.2633C46.6926 18.3212 47.0395 18.6135 47.1672 19.0149C47.295 19.4163 47.1809 19.8554 46.8739 20.1438L40.7436 25.9037L42.1977 34.029C42.2708 34.4373 42.1066 34.8518 41.7738 35.0993C41.4409 35.3469 40.9967 35.3848 40.6267 35.1973L33 31.3326L25.3733 35.1973C25.0033 35.3848 24.5591 35.3469 24.2262 35.0993C23.8934 34.8518 23.7292 34.4373 23.8023 34.029L25.2564 25.9037L19.1261 20.1438C18.8191 19.8554 18.705 19.4163 18.8328 19.0149C18.9606 18.6135 19.3075 18.3212 19.7247 18.2633L28.2253 17.0837L32.0265 9.66066C32.2136 9.29528 32.5895 9.06543 33 9.06543ZM33 12.5589L29.913 18.5874C29.7504 18.9049 29.4431 19.1232 29.0898 19.1722L22.2908 20.1157L27.1864 24.7156C27.456 24.9689 27.5793 25.3413 27.5141 25.7054L26.3422 32.254L32.5056 29.1308C32.8164 28.9733 33.1836 28.9733 33.4944 29.1308L39.6578 32.254L38.4859 25.7054C38.4207 25.3413 38.544 24.9689 38.8136 24.7156L43.7092 20.1157L36.9102 19.1722C36.5569 19.1232 36.2496 18.9049 36.087 18.5874L33 12.5589Z" fill="url(#paint0_linear_62_5607)"/>
    <path fill-rule="evenodd" clip-rule="evenodd" d="M12.2188 1.40918C12.2188 0.805118 12.7084 0.31543 13.3125 0.31543H52.6875C53.2916 0.31543 53.7812 0.805118 53.7812 1.40918V28.3291C53.7812 39.4686 44.4372 48.4404 33 48.4404C21.5628 48.4404 12.2188 39.4686 12.2188 28.3291V1.40918ZM14.4062 2.50293V28.3291C14.4062 38.1896 22.6989 46.2529 33 46.2529C43.3011 46.2529 51.5938 38.1896 51.5938 28.3291V2.50293H14.4062Z" fill="url(#paint1_linear_62_5607)"/>
    <path fill-rule="evenodd" clip-rule="evenodd" d="M18.7764 59.5128C19.8007 58.0617 21.473 57.1904 23.252 57.1904H42.7617C44.5344 57.1904 46.2117 58.0432 47.2403 59.5171L53.584 68.5952C53.8176 68.9293 53.8458 69.3657 53.6574 69.7272C53.469 70.0887 53.0952 70.3154 52.6875 70.3154H13.3125C12.9046 70.3154 12.5306 70.0885 12.3423 69.7267C12.154 69.3649 12.1826 68.9284 12.4166 68.5943L18.774 59.5162L18.7764 59.5128ZM20.5646 60.7728C20.5642 60.7733 20.5638 60.7738 20.5635 60.7743L15.4137 68.1279H50.5889L45.4467 60.7694C44.8347 59.8921 43.8326 59.3779 42.7617 59.3779H23.252C22.1878 59.3779 21.181 59.9006 20.5646 60.7728Z" fill="url(#paint2_linear_62_5607)"/>
    <path fill-rule="evenodd" clip-rule="evenodd" d="M51.5938 3.59668C51.5938 2.99262 52.0834 2.50293 52.6875 2.50293H62.5312C64.3384 2.50293 65.8125 3.97699 65.8125 5.78418V23.5029C65.8125 28.4701 62.0088 32.5292 57.1415 33.0666C56.5411 33.1329 56.0006 32.6999 55.9343 32.0995C55.868 31.4991 56.301 30.9586 56.9015 30.8923C60.7022 30.4727 63.625 27.3131 63.625 23.5029V5.78418C63.625 5.18512 63.1303 4.69043 62.5312 4.69043H52.6875C52.0834 4.69043 51.5938 4.20074 51.5938 3.59668Z" fill="url(#paint3_linear_62_5607)"/>
    <path fill-rule="evenodd" clip-rule="evenodd" d="M0.1875 5.78418C0.1875 3.97699 1.66156 2.50293 3.46875 2.50293H13.3125C13.9166 2.50293 14.4062 2.99262 14.4062 3.59668C14.4062 4.20074 13.9166 4.69043 13.3125 4.69043H3.46875C2.86969 4.69043 2.375 5.18512 2.375 5.78418V23.5029C2.375 27.5976 5.74993 30.9404 9.96289 30.9404H13.3125C13.9166 30.9404 14.4062 31.4301 14.4062 32.0342C14.4062 32.6382 13.9166 33.1279 13.3125 33.1279H9.96289C4.57819 33.1279 0.1875 28.8418 0.1875 23.5029V5.78418Z" fill="url(#paint4_linear_62_5607)"/>
    <path fill-rule="evenodd" clip-rule="evenodd" d="M17.0313 62.6592C17.0313 62.0551 17.5209 61.5654 18.125 61.5654H41.75C42.3541 61.5654 42.8438 62.0551 42.8438 62.6592C42.8438 63.2632 42.3541 63.7529 41.75 63.7529H18.125C17.5209 63.7529 17.0313 63.2632 17.0313 62.6592Z" fill="url(#paint5_linear_62_5607)"/>
    <path fill-rule="evenodd" clip-rule="evenodd" d="M38.4688 46.2529C39.0728 46.2529 39.5625 46.7426 39.5625 47.3467V57.1904C39.5625 57.7945 39.0728 58.2842 38.4688 58.2842C37.8647 58.2842 37.375 57.7945 37.375 57.1904V47.3467C37.375 46.7426 37.8647 46.2529 38.4688 46.2529Z" fill="url(#paint6_linear_62_5607)"/>
    <path fill-rule="evenodd" clip-rule="evenodd" d="M27.5312 46.2529C28.1353 46.2529 28.625 46.7426 28.625 47.3467V57.1904C28.625 57.7945 28.1353 58.2842 27.5312 58.2842C26.9272 58.2842 26.4375 57.7945 26.4375 57.1904V47.3467C26.4375 46.7426 26.9272 46.2529 27.5312 46.2529Z" fill="url(#paint7_linear_62_5607)"/>
    <defs>
      <linearGradient id="paint0_linear_62_5607" x1="1.36524e-06" y1="-0.123048" x2="66" y2="79.377" gradientUnits="userSpaceOnUse">
        <stop stop-color="#51B6D5"/>
        <stop offset="1" stop-color="#BCBCBC"/>
      </linearGradient>
      <linearGradient id="paint1_linear_62_5607" x1="1.36524e-06" y1="-0.123048" x2="66" y2="79.377" gradientUnits="userSpaceOnUse">
        <stop stop-color="#51B6D5"/>
        <stop offset="1" stop-color="#BCBCBC"/>
      </linearGradient>
      <linearGradient id="paint2_linear_62_5607" x1="1.36524e-06" y1="-0.123048" x2="66" y2="79.377" gradientUnits="userSpaceOnUse">
        <stop stop-color="#51B6D5"/>
        <stop offset="1" stop-color="#BCBCBC"/>
      </linearGradient>
      <linearGradient id="paint3_linear_62_5607" x1="1.36524e-06" y1="-0.123048" x2="66" y2="79.377" gradientUnits="userSpaceOnUse">
        <stop stop-color="#51B6D5"/>
        <stop offset="1" stop-color="#BCBCBC"/>
      </linearGradient>
      <linearGradient id="paint4_linear_62_5607" x1="1.36524e-06" y1="-0.123048" x2="66" y2="79.377" gradientUnits="userSpaceOnUse">
        <stop stop-color="#51B6D5"/>
        <stop offset="1" stop-color="#BCBCBC"/>
      </linearGradient>
      <linearGradient id="paint5_linear_62_5607" x1="1.36524e-06" y1="-0.123048" x2="66" y2="79.377" gradientUnits="userSpaceOnUse">
        <stop stop-color="#51B6D5"/>
        <stop offset="1" stop-color="#BCBCBC"/>
      </linearGradient>
      <linearGradient id="paint6_linear_62_5607" x1="1.36524e-06" y1="-0.123048" x2="66" y2="79.377" gradientUnits="userSpaceOnUse">
        <stop stop-color="#51B6D5"/>
        <stop offset="1" stop-color="#BCBCBC"/>
      </linearGradient>
      <linearGradient id="paint7_linear_62_5607" x1="1.36524e-06" y1="-0.123048" x2="66" y2="79.377" gradientUnits="userSpaceOnUse">
        <stop stop-color="#51B6D5"/>
        <stop offset="1" stop-color="#BCBCBC"/>
      </linearGradient>
    </defs>
  </svg>