<?xml version="1.0" standalone="no"?>
<!DOCTYPE svg PUBLIC "-//W3C//DTD SVG 20010904//EN"
 "http://www.w3.org/TR/2001/REC-SVG-20010904/DTD/svg10.dtd">
<svg version="1.0" xmlns="http://www.w3.org/2000/svg"
 width="1000.000000pt" height="1000.000000pt" viewBox="0 0 1000.000000 1000.000000"
 preserveAspectRatio="xMidYMid meet">
<metadata>
Created by potrace 1.14, written by Peter Selinger 2001-2017
</metadata>
<g transform="translate(0.000000,1000.000000) scale(0.100000,-0.100000)"
fill="#000000" stroke="none">
<path d="M4630 8663 c-25 -2 -94 -10 -155 -18 -60 -8 -137 -17 -170 -20 -245
-24 -591 -113 -677 -175 -15 -11 -51 -31 -80 -46 -144 -70 -152 -75 -301 -184
-34 -25 -102 -72 -150 -105 -49 -32 -93 -67 -98 -77 -5 -9 -28 -22 -52 -29
-54 -14 -64 -23 -73 -62 -8 -41 -22 -57 -62 -74 -24 -10 -38 -26 -56 -66 -12
-28 -44 -83 -69 -120 -26 -38 -47 -73 -47 -78 0 -6 -22 -45 -50 -88 -27 -42
-57 -95 -66 -116 -9 -22 -40 -76 -70 -120 -33 -50 -56 -95 -60 -120 -6 -45
-41 -150 -60 -180 -17 -28 -42 -128 -48 -200 -10 -100 -16 -134 -53 -285 -49
-200 -50 -339 -3 -551 26 -116 35 -238 21 -281 -8 -23 -21 -37 -41 -45 -54
-20 -55 -29 -55 -515 0 -245 2 -449 5 -451 3 -3 25 -8 50 -12 24 -4 48 -9 51
-11 4 -2 12 -42 19 -89 7 -47 16 -87 20 -90 4 -3 25 -7 45 -10 21 -2 39 -6 41
-8 2 -2 7 -31 10 -65 l7 -62 43 0 c43 0 74 -19 74 -45 0 -19 18 -28 65 -35 29
-4 43 -11 52 -30 7 -15 28 -31 55 -40 38 -13 47 -23 78 -83 19 -37 50 -80 68
-96 17 -17 32 -35 32 -40 0 -20 40 -51 63 -51 30 0 52 -25 65 -71 5 -20 32
-68 60 -108 36 -51 52 -84 56 -118 13 -96 16 -103 40 -103 39 0 84 -20 89 -41
3 -10 20 -26 39 -33 46 -20 61 -40 89 -120 13 -38 32 -74 41 -80 12 -7 18 -23
18 -47 0 -34 -3 -37 -35 -43 -30 -6 -35 -11 -36 -34 0 -15 -2 -70 -5 -122 l-5
-95 -77 -76 -77 -76 -74 -7 c-102 -9 -121 -15 -121 -37 0 -14 -14 -22 -56 -35
-39 -11 -58 -22 -61 -35 -5 -19 -12 -22 -82 -33 -19 -3 -44 -17 -57 -31 -13
-14 -33 -25 -46 -25 -33 0 -50 -14 -62 -51 -9 -26 -19 -36 -47 -44 -48 -13
-66 -29 -79 -71 -8 -24 -18 -34 -33 -35 -12 0 -35 -2 -52 -4 -16 -1 -70 -5
-120 -9 -118 -8 -125 -10 -170 -40 -21 -14 -48 -27 -61 -27 -13 -1 -27 -2 -31
-3 -5 -1 -30 -5 -56 -10 -38 -6 -51 -13 -60 -33 -7 -15 -31 -34 -62 -48 -40
-17 -54 -30 -64 -56 -23 -63 -39 -84 -75 -104 -41 -23 -42 -26 -51 -120 -11
-136 -23 -160 -81 -171 -24 -4 -35 -13 -39 -28 -2 -11 -6 -112 -9 -224 l-6
-203 -32 -33 c-67 -67 -63 -48 -64 -321 0 -137 3 -262 8 -277 7 -21 18 -28 49
-33 l40 -7 -2 -156 c-2 -206 -19 -331 -52 -376 -8 -10 -31 -22 -53 -26 -21 -4
1438 -8 3244 -9 l3282 -1 0 65 0 65 -36 0 c-54 0 -74 15 -74 55 0 51 -15 81
-47 93 -16 5 -36 16 -44 24 -8 8 -40 26 -72 41 -37 17 -60 34 -66 50 -5 13
-12 349 -15 748 -3 398 -7 730 -8 737 -1 7 -17 12 -43 12 -25 0 -48 6 -54 14
-7 8 -17 69 -24 135 l-11 121 -43 0 c-48 0 -53 6 -69 85 -9 38 -11 40 -57 49
-38 7 -48 13 -53 32 -8 31 -32 44 -83 44 -34 0 -41 3 -41 19 0 31 -28 51 -70
51 -33 0 -39 4 -49 30 -10 29 -12 30 -78 31 -37 0 -75 2 -83 3 -8 2 -93 7
-188 10 -95 4 -185 9 -200 12 -15 2 -42 7 -61 10 -37 6 -113 64 -129 98 -8 18
-6 25 9 34 15 10 19 24 19 66 0 59 7 66 62 66 25 0 32 6 45 38 12 33 21 40 56
48 39 8 42 12 56 59 15 56 24 65 66 65 45 0 55 12 61 66 8 62 16 72 69 79 42
7 43 7 49 56 9 69 12 74 56 94 46 21 70 64 70 124 0 45 18 61 70 61 38 0 46
19 49 114 1 38 4 73 7 78 3 4 23 8 44 8 55 0 66 16 69 97 3 94 6 102 50 109
21 3 44 10 51 14 17 11 18 22 24 475 7 465 14 707 22 755 3 19 15 63 26 97 21
68 28 72 130 88 44 7 47 11 62 79 11 50 12 51 51 54 22 2 44 7 48 11 4 5 10
101 13 214 l4 206 -50 7 c-28 4 -52 10 -55 14 -2 4 -10 48 -16 97 l-12 91 -39
5 c-22 3 -42 7 -44 10 -9 9 -13 55 -19 262 -4 116 -8 234 -9 263 -3 60 -6 64
-63 81 l-43 12 -1 62 c0 34 -2 82 -4 107 -1 25 -4 80 -6 123 -4 85 -7 91 -67
100 -19 3 -35 7 -37 9 -5 5 -13 73 -21 171 -6 80 -8 87 -28 88 -77 3 -86 18
-86 142 0 119 -8 137 -58 137 -50 0 -59 8 -67 55 -12 63 -20 72 -72 78 -60 7
-137 49 -160 88 -10 16 -33 40 -53 53 -19 13 -58 46 -86 72 -29 27 -66 59 -83
72 -17 13 -31 29 -31 36 0 7 -31 34 -70 60 -38 27 -70 52 -70 56 0 4 -15 13
-32 20 -18 7 -48 24 -66 37 -18 13 -52 33 -76 44 -24 10 -49 25 -55 33 -7 8
-25 17 -40 21 -16 3 -52 22 -82 40 -29 19 -60 35 -69 36 -15 1 -21 2 -90 14
-19 4 -52 16 -74 27 -87 44 -275 92 -426 108 -58 6 -125 13 -150 17 -24 3 -56
7 -70 8 -88 12 -314 22 -390 18z"/>
</g>
</svg>
