<svg height="1365.333" viewBox="0 0 1024 1024" width="1365.333" xmlns="http://www.w3.org/2000/svg"><path d="m272 1.7c-57.8 1.4-102.5 8.8-133.7 22.2-60.3 25.8-107.8 80.2-124.2 142.1-6.5 24.6-10.3 51.8-12.1 87-1.3 26.1-1.3 493.8 0 520 1.8 34.5 5.4 61 12 86.5 18.3 70.6 78 131.2 148.8 150.9 19.5 5.4 41.4 9.1 69.7 11.8 20.3 1.9 539.4 1.9 560 0 53.7-5 86.1-13.7 117.2-31.8 29.6-17.2 55.8-42.1 74.8-71.1 24.1-37 34.9-77.5 38.5-143.8 1.6-29 .8-528.3-.8-543.5-6.2-57.1-14.5-87-33.2-118.3-18.5-31-45.4-58.2-76.1-76.5-38.4-23-79.2-32.4-153.4-35.2-22.2-.8-455-1.1-487.5-.3zm191 15.4c-32.6 4.4-44.3 6.5-65 11.6-27 6.5-47.6 13.5-86 29.2-19.4 8-47.3 23.3-69.5 38.1-8 5.4-11.9 7.2-19.5 9.4-54.9 15.7-101.9 62.2-117.5 116.4-1.9 6.8-3.5 13-3.5 13.8 0 .9-4 8.1-8.9 16.2-8.6 14.3-23.6 43.3-29.9 57.7-1.7 3.8-6 15.1-9.7 24.9-33.6 90.8-40 187.1-18.9 282.1 3.7 16.7 16.1 59.3 24 82.5 8.5 24.8 22.6 55.6 36.8 79.9 4.6 8 7.3 13.8 8.6 19.3 4.7 18.3 14 38.1 25.8 54.8 9.4 13.5 30.9 34.7 44.3 43.7 11.7 7.9 24.4 14.8 35.3 19 4.5 1.7 11.2 5.8 18.1 10.9 25.2 18.6 47.3 31.9 77 46.1 29.7 14.3 54 23.4 84 31.4 8.3 2.2 16.1 4.5 17.5 5 3.3 1.1-126.4.2-154.5-1.2-33.2-1.6-54.4-4.5-79-10.6-15.7-3.9-24.4-7.2-39-14.5-40.7-20.4-72.8-53.2-93-95-9.6-19.8-15.3-40.6-19.5-70.8-4.5-32.2-4.5-30.8-4.5-306 0-243.1.1-262.8 1.8-279.8 3.2-32.8 9.2-62.5 16.4-80.7 13.7-34.8 39-67.5 69.3-89.7 40-29.3 81.3-40.8 157.4-43.7 27.7-1.1 209.6-1.1 201.6 0zm298.5-.1c78 3.1 117.6 13.8 158.4 42.8 10.8 7.7 29.6 25.3 38.3 35.9 12.6 15.5 25.5 37.3 32.6 55.3 6.7 17.1 12.8 47.1 15.7 77.5 2.8 29.9 3.4 80.8 3.5 283.5 0 243.2-.7 274.7-7 314-2.7 16.6-8.3 38.4-12.7 49.5-19.4 49-58.7 89.8-107.5 111.7-26 11.6-61.1 18.3-108.8 20.7-21.2 1.1-152.8 2.6-152 1.8.3-.3 5.2-1.7 11-3.2 36.3-9.1 63.5-19.3 100.9-37.9 27.9-13.9 50.2-27.7 74.1-45.9 5.7-4.4 13.3-9.3 16.8-10.9 31.6-14.1 62.1-42.2 80.1-73.7 5.2-9 14.1-29.2 14.1-31.9 0-.8 3.5-7.1 7.9-14 17.9-28.9 32.3-58.8 43-89.1 7.3-20.4 19.6-61.2 23.9-79.1 13.5-55 17.2-117 10.6-174-8.7-75.3-36.5-152.8-76.2-212.3-5.3-7.8-7.4-12.1-9.2-18.5-2.8-10.2-12-29.4-19.6-41-21.5-32.9-54.7-58.9-90.3-70.7-6.2-2.1-11.9-5.1-21.5-11.6-60.4-40.2-137.2-68.5-210.6-77.4-7.4-.9-13.9-1.8-14.5-2-2.4-.8 176.3-.4 199 .5zm-207.8 16.1c153.2 12.6 289.8 97.5 369.5 229.7 3.8 6.4 7.3 12.1 7.6 12.7.3.5-5-4.7-11.9-11.6-17.1-17.4-32-28.9-50.9-39.3-17-9.5-38.6-17.9-57.7-22.5-9-2.3-9.3-2.4-19.4-11.2-63.8-55.7-139.3-89.3-226.4-100.6-20.2-2.6-78.9-2.6-99 0-31 4.1-57.9 10.2-84.5 19.2-57 19.4-106 48.5-151 89.7-9.7 8.9-12.8 11.1-20 14.2-41.3 18.1-79.3 52.5-108.7 98.4-14.6 22.8-30.5 58-37.7 83.2-10.4 37-14.2 69.7-13.3 116.4.7 35.9 3.8 60.9 11.2 89.8 5 19.4 15.9 48.2 25 65.8 1.8 3.6 6.9 13.9 11.3 23 21.5 44.2 55.9 83.9 93.8 108.6 10.5 6.8 19.4 17.7 19.4 23.8 0 2.3 1.3 3.2 10 7.6 22.4 11.2 48.1 19.2 73 22.5 5.8.8 12.6 1.5 15.1 1.5 3.7 0 7.4 1.5 20 8 83.4 42.9 173.1 55.8 264.6 37.9 37-7.2 70.1-18.9 107.1-37.9l17.3-8.8 14 1c19.9 1.4 21.4 1.1 28.6-6.5 3.2-3.4 7.4-8.1 9.3-10.3 3.4-4 3.9-4.2 17.5-7.4 19-4.4 31.4-8.8 48-16.9 30.5-15 57.2-37 80.1-66.1 9-11.4 19.5-30.3 24.4-43.7 4.3-12 2.2-18.4-16.9-51l-8.9-15.3 3-9.7c11.6-38.6 17.1-77 17.1-120.3 0-44.8-5.9-84.5-18.4-124.5l-4.1-13 9.7-20c12.7-26.2 18.6-40.7 19.5-47.5l.7-5.5 4.7 10c15.5 32.4 29 74.2 36 111.5 20.6 108.7 2.8 220.9-50.3 317.4-30.3 55.2-71.1 103.7-119.5 142.3-71.9 57.2-153.2 90.9-246.1 102-21.7 2.5-81.7 2.5-103 0-58.5-7.1-107.6-21.4-158-46.2-114.3-56-201.2-155.5-241.5-276.5-28.8-86.3-32.3-177.4-10.4-265.3 15.8-63 42.7-119 82.7-172.1 25.4-33.7 59-67.1 93.2-92.8 41.1-30.9 90.3-56.5 139.3-72.4 33.2-10.8 75.2-19 111.2-21.7 11.1-.9 62.1-.6 73.7.4zm-107.8 146c-.6 13.4-1.4 30.5-1.7 38l-.7 13.7-6.1-3.7-6.1-3.6.4-12.5c.2-6.9.8-19.5 1.3-28l.9-15.5 6.3-6.6c3.5-3.6 6.4-6.5 6.6-6.4.1.1-.3 11.2-.9 24.6zm157.1-20.9 7.4 2.4 3.7 28.9c2 16 4 31 4.3 33.5l.7 4.5-4.9 3.2-4.9 3.1-2.1-8.6-2.1-8.7.5 10 .5 10-6.3 4.8c-3.5 2.6-8 6.1-10.1 7.8l-3.7 3.1.6-9.8c.6-9.1.1-13-5.5-46.9l-6.2-37 2.3-1.9c2-1.5 3.5-1.8 10.3-1.3 4.4.2 11.3 1.5 15.5 2.9zm-236 25.5c0 6.5.3 12.9.7 14.2.6 2.2.4 2.3-2.8 1.6-1.9-.4-3.5-.9-3.7-1-.4-.4 1.7-23.4 2.3-25.3.3-.6 1.1-1.2 2-1.2 1.3 0 1.5 1.9 1.5 11.7zm332.5 5c5.7 3.1 10.2 6 10 6.4-.3.3-2.8.9-5.7 1.2-2.9.4-7.2.9-9.4 1.3-3.8.6-4.2.4-4.7-1.7-1.1-4.6-2-12.9-1.3-12.9.4 0 5.4 2.6 11.1 5.7zm-363.4 6.1c-2 .1-6-.1-9-.5l-5.3-.8 7.8-4.2 7.9-4.2 1.1 4.7 1 4.7zm-1.1 21.7c53.8 5.7 95.2 24.6 130.1 59.4 14.4 14.3 26.7 30.7 29.7 39.4 3.7 11 3.7 12.7-.4 22.4-10.4 25.2-44.4 90.3-48.5 92.8-.5.4-6.4-4.6-13.2-11-32.7-31.4-61.3-45.5-97.2-48.1-10.3-.7-26.3.9-37.1 3.6-30.9 7.9-57.4 30.9-74.7 64.8-13.2 25.8-19 52.1-19 86.2 0 24.2 2.7 44.6 8.8 64.5 5.7 18.6 28.2 42.8 50 53.9 16.3 8.3 31.6 11.7 52 11.7 38.9 0 69.6-13.8 105.4-47.4l9.4-8.8 5.7 8.8c19.6 30.5 47.5 79.4 56.3 98.7l5.9 13-2 4c-5 10.3-29.2 36.4-45.6 49.1-25 19.4-55.7 32.5-89.2 38.2-15.6 2.6-59.1 2.6-74.9 0-66.1-11-116.1-44.8-155.5-105.3-6.6-10.3-11.2-19-27.8-53.4-20.2-41.9-29.4-79.5-32.3-131.8-3.9-70.2 11.7-138.5 43.7-191.3 40.1-66.4 95.4-105.2 161.4-113.4 14.3-1.8 42.7-1.8 59 0zm445.5.9c41.9 6.3 76.2 20.7 105.6 44.4 9.8 7.9 30.4 29.2 32.8 34 1.9 3.6 1.9 3.9.2 8.7-4.6 12.8-43 91.3-51.9 106-1.7 2.7-5.1 8.5-7.6 12.7-2.6 4.3-4.9 7.8-5.3 7.8-.3 0-5.4-4.6-11.2-10.3-34.4-33.4-63.3-47.7-100.1-49.4-30.3-1.5-54.7 6.6-77 25.3-14.8 12.4-26.1 27.7-30.3 41-11.2 35.4-11.2 85.2-.1 122 12.2 40.6 36.8 72 67.9 86.5 27 12.7 62.4 13.5 93.5 2.3 20.2-7.2 37.7-18.7 60.2-39.5l9.6-8.9 7.5 11.7c21 33.3 46.7 78.4 46.7 82 0 4.1-13 28.2-20.8 38.6-15.3 20.4-39.9 42.4-61.9 55.4-51.8 30.4-126 35.5-187 12.7-75.6-28.2-133.4-103.5-151.2-196.6-8.7-45.5-8.7-101.9-.1-147.3 6.1-31.6 13.5-52 34.4-94.7 14-28.5 21.2-40.8 33.8-57.4 39.9-52.6 87.2-81.1 146.8-88.4 10.9-1.3 53.6-.4 65.5 1.4zm-40.8 180.3c-.3 1-.5.2-.5-1.7s.2-2.7.5-1.8c.2 1 .2 2.6 0 3.5zm-17.4 11c-.9 63.9-4.8 219.1-5.5 219.9-.3.2-1.2-.2-2.1-.9-1.4-1-2-7-4.1-39.2-7.7-116.3-11-187.5-8.9-188.8 1.4-.9 17.5-5.6 19.3-5.6 1.3-.1 1.5 2.1 1.3 14.6zm-390.3 12.5c0 5.1.5 26.3 1 47.2 1.1 42.8 0 103.9-2.5 140.6-.9 12.9-1.8 24.1-2 24.7-.3.8-2.2 1.3-4.9 1.3h-4.4l-.6-5.8c-.2-3.1-1-30.5-1.5-60.7-.6-30.3-1.5-72.3-2.1-93.5-.5-21.2-1-43.8-1-50.2 0-13.4-.9-12.4 11.3-12.7l6.7-.1zm108.9 68.2-.1 34.1-3.3-32c-1.8-17.6-3.6-34.1-3.9-36.7l-.5-4.8 3.9 2.7 4 2.6zm407.9-19.4c-.3 11-.8 14.6-2.6 19.3-1.7 4.4-2.5 9.7-3.4 21.8-1.2 16.8-1.1 18 3 33.4l1.9 7 .6-4c.4-2.2.9-22.8 1.3-45.8s.9-41.9 1.3-42.1c.3-.2 4.3 2.9 8.9 7 4.5 4.1 8.9 7.4 9.7 7.4s1.6 1.4 2 3.2c.8 5.4 8.6 78.1 9.9 93.5l1.2 14.1-3.4-3c-4.4-3.8-7.2-4.8-13.1-4.8-5.2 0-6.7.9-18 10.8-4 3.6-6.2 4.9-6.5 4-.2-.7-1.1-11.7-2-24.3-.9-12.7-2.6-28.4-3.7-35-3-18.1-3.5-31-1.6-37.1 1.9-5.7 6.2-28.9 7.2-38.7l.7-6.9 3.5 3.4 3.4 3.3zm-600.8-6c0 1.4-1.1 8.6-2.4 16-1.4 7.4-3.8 22.5-5.5 33.5-2.9 19.4-2.9 20.3-1.6 30 1.9 13.2 5.7 55.6 5.1 56.2-.2.2-2.2-2.2-4.5-5.5-4.5-6.6-8-17.6-10.8-33.7-1.4-7.7-1.8-15.5-1.7-34v-24l3.2-9.2c3.3-9.7 7-17.6 13-28 3.6-6.3 5.1-6.7 5.2-1.3z"/></svg>