<svg fill="none" height="82" viewBox="0 0 80 82" width="80" xmlns="http://www.w3.org/2000/svg" xmlns:xlink="http://www.w3.org/1999/xlink"><linearGradient id="a" gradientUnits="userSpaceOnUse" x1="40.4537" x2="40.4537" y1="-37.7912" y2="78.3786"><stop offset="0" stop-color="#2d585a"/><stop offset=".2" stop-color="#2d585a"/><stop offset=".75817" stop-color="#12393b"/><stop offset="1" stop-color="#12393b"/></linearGradient><linearGradient id="b" gradientUnits="userSpaceOnUse" x1="19.4515" x2="57.8647" y1="51.7635" y2="30.6794"><stop offset="0" stop-color="#d1b147"/><stop offset=".2" stop-color="#d1b147"/><stop offset=".903988" stop-color="#f7d047"/><stop offset="1" stop-color="#f7d047"/></linearGradient><ellipse cx="40" cy="40.7803" fill="url(#a)" rx="40" ry="40.4969"/><path d="m56.7816 24.8361 1.8993-1.6722c.2954-.2604.3965-.6663.2578-1.0346-.1394-.3686-.4836-.6067-.8773-.6067h-7.86v-.3377c0-.3598-.2916-.6515-.6514-.6515s-.6514.2917-.6514.6515v16.4687c-1.4888 0-2.391.984-2.391 2.2239v4.6019c-.2631-.2561-.5412-.3354-.9219-.3354h-5.6452c-1.3463 0-1.8319.6623-1.8319 2.3495v1.902c-.2584-.134-.5483-.1877-.8369-.1877-2.8047 0-4.1436 0-5.3702 0-1.2265 0-2.2242.9977-2.2242 2.2239v1.8804c-.2808-.1285-.5924-.2004-.921-.2004h-5.317c-1.2262 0-2.2239.9973-2.2239 2.2239v2.3331h-1.564c-.3598 0-.6514.2916-.6514.6514s.2916.6514.6514.6514h38.4093c.3598 0 .6514-.2916.6514-.6514s-.2916-.6514-.6514-.6514h-1.6942v-16.7912c0-1.2262-.9977-2.2239-2.2239-2.2239h-3.9412v-9.5037h7.8597c.394 0 .7382-.238.8772-.6063.1391-.3683.038-.7745-.2574-1.035zm-34.2633 29.4991c0-.5076.413-.9206.921-.9206h5.317c.508 0 .9213.413.9213.9206v2.3335h-7.1593zm8.4619 0v-3.9035c0-.508.4134-.921.9213-.921h5.317c.508 0 .921.413.921.921v6.237h-7.159v-2.3335zm24.0834-14.4577v16.7912h-7.159v-3.9059c0-.3598-.2916-.6515-.6514-.6515-.3602 0-.6518.2917-.6518.6515v3.9059h-7.159v-10.4308c0-.5076.413-.9207.921-.9207h5.317c.508 0 .921.4131.921.9207v3.2657c0 .3598.2916.6514.6514.6514.3602 0 .6515-.2916.6515-.6514v-9.6261c0-.508.4134-.921.9213-.921h.7176c.002 0 .0044.0003.0068.0003.002 0 .0044-.0003.0064-.0003h4.5859c.5079 0 .9213.4134.9213.921zm-15.6277-10.9319c2.5568.0163 4.0318.0256 4.4251.0278l.0821.0004c.0119.0001.0196.0001.023.0001.0958 0 .2031.0954.228.1824.0166.0579.0805 1.5502.1916 4.4768.0121.2409-.1549.3802-.3354.2988l-1.6872-1.5935c-.0565.057-.1147.1156-.1745.1758l-.1847.1854c-1.6457 1.6485-4.4795 4.3825-9.716 8.4515-3.7596 2.9214-8.0299 5.6319-12.8108 8.1315-.314 0-.4771-.1651-.4771-.4944 5.5934-3.301 10.1452-6.5257 13.6554-9.6741 4.2463-3.8085 5.8379-5.6865 7.2053-7.171l.1632-.1764c.1082-.1164.2157-.2307.3236-.3437l.1623-.1685c.1086-.1119.2183-.2228.3303-.3335l-1.6957-1.6117c-.1174-.1947 0-.3637.2915-.3637zm17.6573-6.1197-1.4843 1.3069c-.2021.178-.3181.4344-.3181.7037 0 .2692.116.5256.3181.7036l1.4843 1.307h-6.8918v-4.0212z" fill="url(#b)"/></svg>