<svg width="80" height="82" viewBox="0 0 80 82" fill="none" xmlns="http://www.w3.org/2000/svg">
<ellipse cx="40" cy="40.7803" rx="40" ry="40.4969" fill="url(#paint0_linear)"/>
<path d="M57.5854 24.5334H22.4148C21.0833 24.5334 20 25.6167 20 26.9482V51.2311C20 52.5625 21.0833 53.6458 22.4148 53.6458H34.4664V55.4029C34.4664 57.0136 33.1559 58.324 31.5452 58.324H28.8892C28.38 58.324 27.9671 58.7369 27.9671 59.2462C27.9671 59.7555 28.38 60.1683 28.8892 60.1683H51.1108C51.62 60.1683 52.0329 59.7555 52.0329 59.2462C52.0329 58.7369 51.62 58.324 51.1108 58.324H48.4547C46.844 58.324 45.5335 57.0136 45.5335 55.4029V53.6459H57.5851C58.9166 53.6459 60 52.5626 60 51.2311V26.9482C60 25.6167 58.9169 24.5334 57.5854 24.5334ZM35.3063 58.3242C35.9349 57.5167 36.3108 56.5033 36.3108 55.403V53.646H43.6895V55.403C43.6895 56.5033 44.0653 57.5168 44.6939 58.3242H35.3063ZM58.1559 51.2311C58.1559 51.5457 57.9 51.8018 57.5853 51.8018H22.4148C22.1002 51.8018 21.8441 51.5458 21.8441 51.2311V46.3848H58.1559V51.2311ZM58.156 44.5405H21.8442V26.9482C21.8442 26.6336 22.1002 26.3776 22.4149 26.3776H57.5853C57.8999 26.3776 58.156 26.6335 58.156 26.9482V44.5405Z" fill="url(#paint1_linear)"/>
<path d="M40.0003 50.0886C40.5499 50.0886 40.9954 49.6431 40.9954 49.0935C40.9954 48.5439 40.5499 48.0983 40.0003 48.0983C39.4507 48.0983 39.0051 48.5439 39.0051 49.0935C39.0051 49.6431 39.4507 50.0886 40.0003 50.0886Z" fill="url(#paint2_linear)"/>
<path d="M41.5812 30.8864C41.221 30.5263 40.6374 30.5263 40.277 30.8864L33.7603 37.4031C33.4002 37.7632 33.4002 38.3471 33.7603 38.7073C33.9405 38.8874 34.1763 38.9774 34.4124 38.9774C34.6485 38.9774 34.8844 38.8874 35.0644 38.7073L41.5812 32.1905C41.9413 31.8305 41.9413 31.2466 41.5812 30.8864Z" fill="url(#paint3_linear)"/>
<path d="M45.4437 34.6628C45.0837 34.3027 44.5 34.3027 44.1396 34.6627L41.5435 37.2586C41.1834 37.6188 41.1834 38.2027 41.5435 38.5628C41.7236 38.7429 41.9595 38.8329 42.1955 38.8329C42.4315 38.8329 42.6675 38.7429 42.8476 38.5628L45.4437 35.9668C45.8037 35.6068 45.8037 35.0228 45.4437 34.6628Z" fill="url(#paint4_linear)"/>
<defs>
<linearGradient id="paint0_linear" x1="40.4537" y1="-37.7912" x2="40.4537" y2="78.3786" gradientUnits="userSpaceOnUse">
<stop stop-color="#2D585A"/>
<stop offset="0.2" stop-color="#2D585A"/>
<stop offset="0.75817" stop-color="#12393B"/>
<stop offset="1" stop-color="#12393B"/>
</linearGradient>
<linearGradient id="paint1_linear" x1="20.4515" y1="53.1397" x2="58.2502" y2="33.3922" gradientUnits="userSpaceOnUse">
<stop stop-color="#D1B147"/>
<stop offset="0.2" stop-color="#D1B147"/>
<stop offset="0.903988" stop-color="#F7D047"/>
<stop offset="1" stop-color="#F7D047"/>
</linearGradient>
<linearGradient id="paint2_linear" x1="39.0276" y1="49.8528" x2="40.9954" y2="48.6987" gradientUnits="userSpaceOnUse">
<stop stop-color="#D1B147"/>
<stop offset="0.2" stop-color="#D1B147"/>
<stop offset="0.903988" stop-color="#F7D047"/>
<stop offset="1" stop-color="#F7D047"/>
</linearGradient>
<linearGradient id="paint3_linear" x1="33.5846" y1="37.9864" x2="41.8513" y2="33.1386" gradientUnits="userSpaceOnUse">
<stop stop-color="#D1B147"/>
<stop offset="0.2" stop-color="#D1B147"/>
<stop offset="0.903988" stop-color="#F7D047"/>
<stop offset="1" stop-color="#F7D047"/>
</linearGradient>
<linearGradient id="paint4_linear" x1="41.3236" y1="38.3065" x2="45.7137" y2="35.7321" gradientUnits="userSpaceOnUse">
<stop stop-color="#D1B147"/>
<stop offset="0.2" stop-color="#D1B147"/>
<stop offset="0.903988" stop-color="#F7D047"/>
<stop offset="1" stop-color="#F7D047"/>
</linearGradient>
</defs>
</svg>
