<svg width="80" height="82" viewBox="0 0 80 82" fill="none" xmlns="http://www.w3.org/2000/svg">
<ellipse cx="40" cy="41.2469" rx="40" ry="40.4969" fill="url(#paint0_linear)"/>
<path d="M61.0077 41.4941C60.379 40.9141 59.5237 40.5558 58.6611 40.511C57.6816 40.4604 56.7638 40.8096 56.0804 41.4934L51.4104 46.1144C51.3181 45.9545 51.2127 45.8036 51.0944 45.6636C50.5199 44.9814 49.6797 44.6058 48.729 44.6058H42.1915C40.9588 44.6058 39.7562 44.4459 38.6174 44.1309C35.6483 43.3097 32.8118 43.9095 30.414 45.8667C29.4389 46.6627 28.7275 47.5285 28.2777 48.1597L27.1055 47.0222C26.9514 46.8725 26.7425 46.7876 26.5275 46.7876C26.2993 46.7892 26.084 46.8818 25.9295 47.0421L20.2313 52.9576C20.0787 53.1159 19.9957 53.3286 20.0002 53.5484C20.0054 53.7686 20.0973 53.9775 20.2566 54.1291L29.8942 63.306C30.0541 63.4582 30.2592 63.5341 30.464 63.5341C30.679 63.5341 30.894 63.4505 31.0558 63.2845L36.7009 57.493C36.855 57.3347 36.9406 57.1184 36.9364 56.8973C36.9322 56.6794 36.8409 56.4692 36.6845 56.3173L36.193 55.8405L37.318 55.7139C37.9986 55.6348 38.6908 55.5947 39.3759 55.5947H49.3224C50.9387 55.5947 52.3114 55.2413 53.4028 54.544C53.4118 54.5383 53.4208 54.5322 53.4297 54.5261C53.8207 54.2544 54.1754 53.9323 54.4836 53.5693L61.1865 45.6837C62.3336 44.3344 62.2618 42.6505 61.0077 41.4941ZM30.4425 61.5465L21.9978 53.5055L26.547 48.7826L34.9423 56.9297L30.4425 61.5465ZM53.2247 52.4994C53.0119 52.7496 52.768 52.972 52.4992 53.1604C51.6798 53.6792 50.6112 53.9426 49.3224 53.9426H39.3755C38.6273 53.9426 37.8708 53.9865 37.1303 54.0727L34.6572 54.3502L29.479 49.3251C29.8388 48.7916 30.5005 47.9293 31.4589 47.1468C33.4514 45.5203 35.7117 45.0413 38.1768 45.7235C39.4592 46.0782 40.8098 46.2583 42.1915 46.2583H48.729C49.903 46.2583 50.2164 47.2753 50.2164 47.8761C50.2164 48.3151 50.0754 48.733 49.8297 49.0227C49.5631 49.3364 49.184 49.4953 48.703 49.4953H43.0121C42.5558 49.4953 42.1861 49.8654 42.1861 50.3217C42.1861 50.778 42.5558 51.1478 43.0121 51.1478H48.703C49.6637 51.1478 50.5109 50.7729 51.089 50.0923C51.5699 49.5264 51.8442 48.7823 51.8673 47.987L57.2458 42.6649C58.0145 41.8962 59.2155 42.0891 59.8874 42.7088C60.2348 43.0293 60.702 43.7025 59.9275 44.6135L53.2247 52.4994Z" fill="url(#paint1_linear)"/>
<path d="M40.4356 50.1016C40.3315 49.6571 39.887 49.3819 39.4426 49.4857C38.9985 49.5898 38.7226 50.0343 38.827 50.4787L38.8347 50.5124C38.9241 50.893 39.2635 51.15 39.6384 51.15C39.7009 51.15 39.7643 51.143 39.8277 51.1282C40.2722 51.0241 40.5478 50.5793 40.4436 50.1352L40.4356 50.1016Z" fill="url(#paint2_linear)"/>
<path d="M49.8923 26.9894C49.7883 26.781 49.5351 26.6962 49.3268 26.8001C49.1184 26.904 49.0336 27.1571 49.1375 27.3655C49.6626 28.419 49.9289 29.6224 49.9289 30.9422C49.9289 32.8096 49.0711 35.2815 47.6903 37.3933C46.2755 39.5569 44.6307 40.8486 43.2902 40.8486C42.7317 40.8486 42.1325 40.7605 41.603 40.6005C40.7768 40.351 39.9033 40.351 39.0771 40.6005C38.5474 40.7606 37.9482 40.8486 37.3897 40.8486C36.0493 40.8486 34.4044 39.5569 32.9897 37.3933C31.6088 35.2815 30.751 32.8096 30.751 30.9422C30.751 29.178 31.2391 27.5923 32.1625 26.3565C32.9393 25.3168 34.0222 24.5553 35.1333 24.2671C35.9635 24.0519 37.0582 24.109 38.2993 24.4321C38.4349 24.4674 38.5737 24.4998 38.7116 24.5281C38.9396 24.5749 39.1626 24.428 39.2095 24.1999C39.2564 23.9718 39.1094 23.749 38.8813 23.7021C38.7577 23.6766 38.6334 23.6478 38.5118 23.6161C37.1123 23.2517 35.9045 23.1962 34.9217 23.4509C33.6093 23.7911 32.3895 24.6438 31.4869 25.8518C30.4538 27.2344 29.9077 28.9947 29.9077 30.9422C29.9077 32.9646 30.8182 35.6134 32.2839 37.8548C33.8783 40.2933 35.7393 41.6919 37.3897 41.6919C38.0377 41.6919 38.7055 41.5937 39.3208 41.4078C39.9874 41.2065 40.6923 41.2065 41.359 41.4078C41.9743 41.5937 42.6421 41.6919 43.2901 41.6919C44.9404 41.6919 46.8014 40.2933 48.3959 37.8548C49.8615 35.6133 50.7721 32.9646 50.7721 30.9422C50.7721 29.4907 50.4761 28.1607 49.8923 26.9894Z" fill="url(#paint3_linear)" stroke="url(#paint4_linear)" stroke-width="0.966614"/>
<path d="M48.7956 25.4696C47.9153 24.3869 46.9763 23.7667 45.7585 23.4509C44.7757 23.1961 43.5678 23.2517 42.1683 23.6161C41.8651 23.6951 41.5538 23.755 41.2429 23.794C41.0119 23.823 40.8481 24.0338 40.8771 24.2649C40.9061 24.496 41.1173 24.6599 41.348 24.6307C41.695 24.5872 42.0425 24.5204 42.3809 24.4322C43.6221 24.1091 44.7168 24.0521 45.5469 24.2672C46.5919 24.5382 47.3737 25.0574 48.1413 26.0016C48.2246 26.1041 48.3462 26.1572 48.4687 26.1572C48.5622 26.1572 48.6563 26.1263 48.7344 26.0628C48.9152 25.9158 48.9425 25.6502 48.7956 25.4696Z" fill="url(#paint5_linear)" stroke="url(#paint6_linear)" stroke-width="0.773291"/>
<path d="M51.859 17.3032C51.7197 17.2141 51.5412 17.2147 51.4024 17.3046C50.7969 17.6973 50.1167 17.5533 49.0869 17.3353C48.9974 17.3164 48.9062 17.2971 48.8132 17.2778C48.5852 17.2304 48.362 17.3769 48.3146 17.6049C48.2673 17.833 48.4137 18.0561 48.6418 18.1035C48.7337 18.1225 48.8239 18.1417 48.9123 18.1604C49.6858 18.3241 50.3853 18.4722 51.0444 18.3435C50.7274 19.4764 50.7835 20.8349 48.8469 21.5812C47.2093 22.2122 44.7806 22.071 43.544 21.3602C43.0479 21.075 42.6096 20.8231 42.2201 20.7136C42.6589 19.7824 43.7473 18.0026 45.7045 17.854C46.274 17.8107 46.2028 17.9008 46.7983 17.9729C47.0296 18.0007 47.2395 17.8361 47.2675 17.6049C47.2955 17.3737 47.1307 17.1636 46.8996 17.1357C46.2487 17.0569 46.2659 16.9656 45.6407 17.0131C44.3026 17.1147 43.1052 17.8453 42.1782 19.1257C41.5845 19.9457 41.2825 20.7387 41.2058 20.9567L40.096 22.6421C39.7836 21.6975 39.4738 21.1054 39.4489 21.0585C39.3396 20.8529 39.0844 20.7747 38.8787 20.8839C38.6731 20.9931 38.5949 21.2484 38.7041 21.454C38.7146 21.4736 39.6872 23.3313 39.8835 25.7654C39.5603 25.7291 39.2632 25.655 39.0317 25.5501C38.7523 25.4235 38.6655 25.2951 38.6655 25.2627C38.6655 25.0298 38.4768 24.8411 38.2439 24.8411C38.011 24.8411 37.8223 25.0298 37.8223 25.2627C37.8223 25.5111 37.9342 25.9786 38.6838 26.3182C39.1331 26.5218 39.7212 26.6339 40.3397 26.6339C40.9585 26.6339 41.5468 26.5218 41.9962 26.3182C42.7458 25.9787 42.8578 25.5112 42.8578 25.2627C42.8578 25.0299 42.669 24.8411 42.4362 24.8411C42.2033 24.8411 42.0145 25.0299 42.0145 25.2627C42.0145 25.2952 41.9277 25.4235 41.6483 25.5501C41.401 25.6621 41.0786 25.739 40.7296 25.7721C40.6743 25.0228 40.5514 24.3263 40.4019 23.7108L41.8575 21.5005C41.9071 21.5026 41.9969 21.5181 42.1481 21.5778C42.4139 21.683 42.7429 21.8721 43.1238 22.091C44.1129 22.6596 45.4863 22.9825 46.8996 22.8955C47.9235 22.8324 47.755 22.7837 48.9123 22.4898C52.0095 21.7032 52.0248 17.888 52.0492 17.718C52.0727 17.5546 51.9983 17.3922 51.859 17.3032Z" fill="url(#paint7_linear)" stroke="url(#paint8_linear)" stroke-width="0.579968"/>
<defs>
<linearGradient id="paint0_linear" x1="40.4537" y1="-37.3247" x2="40.4537" y2="78.8451" gradientUnits="userSpaceOnUse">
<stop stop-color="#2D585A"/>
<stop offset="0.2" stop-color="#2D585A"/>
<stop offset="0.75817" stop-color="#12393B"/>
<stop offset="1" stop-color="#12393B"/>
</linearGradient>
<linearGradient id="paint1_linear" x1="20.4741" y1="54.6609" x2="59.2788" y2="42.1839" gradientUnits="userSpaceOnUse">
<stop stop-color="#D1B147"/>
<stop offset="0.2" stop-color="#D1B147"/>
<stop offset="0.903988" stop-color="#F7D047"/>
<stop offset="1" stop-color="#F7D047"/>
</linearGradient>
<linearGradient id="paint2_linear" x1="38.8481" y1="50.9502" x2="40.4536" y2="49.9942" gradientUnits="userSpaceOnUse">
<stop stop-color="#D1B147"/>
<stop offset="0.2" stop-color="#D1B147"/>
<stop offset="0.903988" stop-color="#F7D047"/>
<stop offset="1" stop-color="#F7D047"/>
</linearGradient>
<linearGradient id="paint3_linear" x1="30.1432" y1="37.9501" x2="49.8039" y2="27.7833" gradientUnits="userSpaceOnUse">
<stop stop-color="#D1B147"/>
<stop offset="0.2" stop-color="#D1B147"/>
<stop offset="0.903988" stop-color="#F7D047"/>
<stop offset="1" stop-color="#F7D047"/>
</linearGradient>
<linearGradient id="paint4_linear" x1="30.1432" y1="37.9501" x2="49.8039" y2="27.7833" gradientUnits="userSpaceOnUse">
<stop stop-color="#D1B147"/>
<stop offset="0.2" stop-color="#D1B147"/>
<stop offset="0.903988" stop-color="#F7D047"/>
<stop offset="1" stop-color="#F7D047"/>
</linearGradient>
<linearGradient id="paint5_linear" x1="40.9643" y1="24.8649" x2="48.5995" y2="23.2656" gradientUnits="userSpaceOnUse">
<stop stop-color="#D1B147"/>
<stop offset="0.2" stop-color="#D1B147"/>
<stop offset="0.903988" stop-color="#F7D047"/>
<stop offset="1" stop-color="#F7D047"/>
</linearGradient>
<linearGradient id="paint6_linear" x1="40.9643" y1="24.8649" x2="48.5995" y2="23.2656" gradientUnits="userSpaceOnUse">
<stop stop-color="#D1B147"/>
<stop offset="0.2" stop-color="#D1B147"/>
<stop offset="0.903988" stop-color="#F7D047"/>
<stop offset="1" stop-color="#F7D047"/>
</linearGradient>
<linearGradient id="paint7_linear" x1="37.9829" y1="23.5011" x2="51.0157" y2="18.3272" gradientUnits="userSpaceOnUse">
<stop stop-color="#D1B147"/>
<stop offset="0.2" stop-color="#D1B147"/>
<stop offset="0.903988" stop-color="#F7D047"/>
<stop offset="1" stop-color="#F7D047"/>
</linearGradient>
<linearGradient id="paint8_linear" x1="37.9829" y1="23.5011" x2="51.0157" y2="18.3272" gradientUnits="userSpaceOnUse">
<stop stop-color="#D1B147"/>
<stop offset="0.2" stop-color="#D1B147"/>
<stop offset="0.903988" stop-color="#F7D047"/>
<stop offset="1" stop-color="#F7D047"/>
</linearGradient>
</defs>
</svg>
