<svg fill="none" height="82" viewBox="0 0 80 82" width="80" xmlns="http://www.w3.org/2000/svg" xmlns:xlink="http://www.w3.org/1999/xlink"><linearGradient id="a" gradientUnits="userSpaceOnUse" x1="40.4537" x2="40.4537" y1="-37.3247" y2="78.8451"><stop offset="0" stop-color="#2d585a"/><stop offset=".2" stop-color="#2d585a"/><stop offset=".75817" stop-color="#12393b"/><stop offset="1" stop-color="#12393b"/></linearGradient><linearGradient id="b"><stop offset="0" stop-color="#d1b147"/><stop offset=".2" stop-color="#d1b147"/><stop offset=".903988" stop-color="#f7d047"/><stop offset="1" stop-color="#f7d047"/></linearGradient><linearGradient id="c" gradientUnits="userSpaceOnUse" x1="20.4741" x2="59.2788" xlink:href="#b" y1="54.6609" y2="42.1839"/><linearGradient id="d" gradientUnits="userSpaceOnUse" x1="38.8481" x2="40.4536" xlink:href="#b" y1="50.9502" y2="49.9942"/><linearGradient id="e" gradientUnits="userSpaceOnUse" x1="30.1432" x2="49.8039" xlink:href="#b" y1="37.9501" y2="27.7833"/><linearGradient id="f" gradientUnits="userSpaceOnUse" x1="40.9643" x2="48.5995" xlink:href="#b" y1="24.8649" y2="23.2656"/><linearGradient id="g" gradientUnits="userSpaceOnUse" x1="37.9829" x2="51.0157" xlink:href="#b" y1="23.5011" y2="18.3272"/><ellipse cx="40" cy="41.2469" fill="url(#a)" rx="40" ry="40.4969"/><path d="m61.0077 41.4941c-.6287-.58-1.484-.9383-2.3466-.9831-.9795-.0506-1.8973.2986-2.5807.9824l-4.67 4.621c-.0923-.1599-.1977-.3108-.316-.4508-.5745-.6822-1.4147-1.0578-2.3654-1.0578h-6.5375c-1.2327 0-2.4353-.1599-3.5741-.4749-2.9691-.8212-5.8056-.2214-8.2034 1.7358-.9751.796-1.6865 1.6618-2.1363 2.293l-1.1722-1.1375c-.1541-.1497-.363-.2346-.578-.2346-.2282.0016-.4435.0942-.598.2545l-5.6982 5.9155c-.1526.1583-.2356.371-.2311.5908.0052.2202.0971.4291.2564.5807l9.6376 9.1769c.1599.1522.365.2281.5698.2281.215 0 .43-.0836.5918-.2496l5.6451-5.7915c.1541-.1583.2397-.3746.2355-.5957-.0042-.2179-.0955-.4281-.2519-.58l-.4915-.4768 1.125-.1266c.6806-.0791 1.3728-.1192 2.0579-.1192h9.9465c1.6163 0 2.989-.3534 4.0804-1.0507.009-.0057.018-.0118.0269-.0179.391-.2717.7457-.5938 1.0539-.9568l6.7029-7.8856c1.1471-1.3493 1.0753-3.0332-.1788-4.1896zm-30.5652 20.0524-8.4447-8.041 4.5492-4.7229 8.3953 8.1471zm22.7822-9.0471c-.2128.2502-.4567.4726-.7255.661-.8194.5188-1.888.7822-3.1768.7822h-9.9469c-.7482 0-1.5047.0439-2.2452.1301l-2.4731.2775-5.1782-5.0251c.3598-.5335 1.0215-1.3958 1.9799-2.1783 1.9925-1.6265 4.2528-2.1055 6.7179-1.4233 1.2824.3547 2.633.5348 4.0147.5348h6.5375c1.174 0 1.4874 1.017 1.4874 1.6178 0 .439-.141.8569-.3867 1.1466-.2666.3137-.6457.4726-1.1267.4726h-5.6909c-.4563 0-.826.3701-.826.8264s.3697.8261.826.8261h5.6909c.9607 0 1.8079-.3749 2.386-1.0555.4809-.5659.7552-1.31.7783-2.1053l5.3785-5.3221c.7687-.7687 1.9697-.5758 2.6416.0439.3474.3205.8146.9937.0401 1.9047z" fill="url(#c)"/><path d="m40.4356 50.1016c-.1041-.4445-.5486-.7197-.993-.6159-.4441.1041-.72.5486-.6156.993l.0077.0337c.0894.3806.4288.6376.8037.6376.0625 0 .1259-.007.1893-.0218.4445-.1041.7201-.5489.6159-.993z" fill="url(#d)"/><path d="m49.8923 26.9894c-.104-.2084-.3572-.2932-.5655-.1893-.2084.1039-.2932.357-.1893.5654.5251 1.0535.7914 2.2569.7914 3.5767 0 1.8674-.8578 4.3393-2.2386 6.4511-1.4148 2.1636-3.0596 3.4553-4.4001 3.4553-.5585 0-1.1577-.0881-1.6872-.2481-.8262-.2495-1.6997-.2495-2.5259 0-.5297.1601-1.1289.2481-1.6874.2481-1.3404 0-2.9853-1.2917-4.4-3.4553-1.3809-2.1118-2.2387-4.5837-2.2387-6.4511 0-1.7642.4881-3.3499 1.4115-4.5857.7768-1.0397 1.8597-1.8012 2.9708-2.0894.8302-.2152 1.9249-.1581 3.166.165.1356.0353.2744.0677.4123.096.228.0468.451-.1001.4979-.3282s-.1001-.4509-.3282-.4978c-.1236-.0255-.2479-.0543-.3695-.086-1.3995-.3644-2.6073-.4199-3.5901-.1652-1.3124.3402-2.5322 1.1929-3.4348 2.4009-1.0331 1.3826-1.5792 3.1429-1.5792 5.0904 0 2.0224.9105 4.6712 2.3762 6.9126 1.5944 2.4385 3.4554 3.8371 5.1058 3.8371.648 0 1.3158-.0982 1.9311-.2841.6666-.2013 1.3715-.2013 2.0382 0 .6153.1859 1.2831.2841 1.9311.2841 1.6503 0 3.5113-1.3986 5.1058-3.8371 1.4656-2.2415 2.3762-4.8902 2.3762-6.9126 0-1.4515-.296-2.7815-.8798-3.9528z" fill="url(#e)" stroke="url(#e)" stroke-width=".966614"/><path d="m48.7956 25.4696c-.8803-1.0827-1.8193-1.7029-3.0371-2.0187-.9828-.2548-2.1907-.1992-3.5902.1652-.3032.079-.6145.1389-.9254.1779-.231.029-.3948.2398-.3658.4709s.2402.395.4709.3658c.347-.0435.6945-.1103 1.0329-.1985 1.2412-.3231 2.3359-.3801 3.166-.165 1.045.271 1.8268.7902 2.5944 1.7344.0833.1025.2049.1556.3274.1556.0935 0 .1876-.0309.2657-.0944.1808-.147.2081-.4126.0612-.5932z" fill="url(#f)" stroke="url(#f)" stroke-width=".773291"/><path d="m51.859 17.3032c-.1393-.0891-.3178-.0885-.4566.0014-.6055.3927-1.2857.2487-2.3155.0307-.0895-.0189-.1807-.0382-.2737-.0575-.228-.0474-.4512.0991-.4986.3271-.0473.2281.0991.4512.3272.4986.0919.019.1821.0382.2705.0569.7735.1637 1.473.3118 2.1321.1831-.317 1.1329-.2609 2.4914-2.1975 3.2377-1.6376.631-4.0663.4898-5.3029-.221-.4961-.2852-.9344-.5371-1.3239-.6466.4388-.9312 1.5272-2.711 3.4844-2.8596.5695-.0433.4983.0468 1.0938.1189.2313.0278.4412-.1368.4692-.368s-.1368-.4413-.3679-.4692c-.6509-.0788-.6337-.1701-1.2589-.1226-1.3381.1016-2.5355.8322-3.4625 2.1126-.5937.82-.8957 1.613-.9724 1.831l-1.1098 1.6854c-.3124-.9446-.6222-1.5367-.6471-1.5836-.1093-.2056-.3645-.2838-.5702-.1746-.2056.1092-.2838.3645-.1746.5701.0105.0196.9831 1.8773 1.1794 4.3114-.3232-.0363-.6203-.1104-.8518-.2153-.2794-.1266-.3662-.255-.3662-.2874 0-.2329-.1887-.4216-.4216-.4216s-.4216.1887-.4216.4216c0 .2484.1119.7159.8615 1.0555.4493.2036 1.0374.3157 1.6559.3157.6188 0 1.2071-.1121 1.6565-.3157.7496-.3395.8616-.807.8616-1.0555 0-.2328-.1888-.4216-.4216-.4216-.2329 0-.4217.1888-.4217.4216 0 .0325-.0868.1608-.3662.2874-.2473.112-.5697.1889-.9187.222-.0553-.7493-.1782-1.4458-.3277-2.0613l1.4556-2.2103c.0496.0021.1394.0176.2906.0773.2658.1052.5948.2943.9757.5132.9891.5686 2.3625.8915 3.7758.8045 1.0239-.0631.8554-.1118 2.0127-.4057 3.0972-.7866 3.1125-4.6018 3.1369-4.7718.0235-.1634-.0509-.3258-.1902-.4148z" fill="url(#g)" stroke="url(#g)" stroke-width=".579968"/></svg>