<svg fill="none" height="82" viewBox="0 0 80 82" width="80" xmlns="http://www.w3.org/2000/svg" xmlns:xlink="http://www.w3.org/1999/xlink"><linearGradient id="a" gradientUnits="userSpaceOnUse" x1="40.4537" x2="40.4537" y1="-37.7912" y2="78.3786"><stop offset="0" stop-color="#2d585a"/><stop offset=".2" stop-color="#2d585a"/><stop offset=".75817" stop-color="#12393b"/><stop offset="1" stop-color="#12393b"/></linearGradient><linearGradient id="b"><stop offset="0" stop-color="#d1b147"/><stop offset=".2" stop-color="#d1b147"/><stop offset=".903988" stop-color="#f7d047"/><stop offset="1" stop-color="#f7d047"/></linearGradient><linearGradient id="c" gradientUnits="userSpaceOnUse" x1="20.4515" x2="58.2502" xlink:href="#b" y1="53.1397" y2="33.3922"/><linearGradient id="d" gradientUnits="userSpaceOnUse" x1="39.0276" x2="40.9954" xlink:href="#b" y1="49.8528" y2="48.6987"/><linearGradient id="e" gradientUnits="userSpaceOnUse" x1="33.5846" x2="41.8513" xlink:href="#b" y1="37.9864" y2="33.1386"/><linearGradient id="f" gradientUnits="userSpaceOnUse" x1="41.3236" x2="45.7137" xlink:href="#b" y1="38.3065" y2="35.7321"/><ellipse cx="40" cy="40.7803" fill="url(#a)" rx="40" ry="40.4969"/><path d="m57.5854 24.5334h-35.1706c-1.3315 0-2.4148 1.0833-2.4148 2.4148v24.2829c0 1.3314 1.0833 2.4147 2.4148 2.4147h12.0516v1.7571c0 1.6107-1.3105 2.9211-2.9212 2.9211h-2.656c-.5092 0-.9221.4129-.9221.9222s.4129.9221.9221.9221h22.2216c.5092 0 .9221-.4128.9221-.9221s-.4129-.9222-.9221-.9222h-2.6561c-1.6107 0-2.9212-1.3104-2.9212-2.9211v-1.757h12.0516c1.3315 0 2.4149-1.0833 2.4149-2.4148v-24.2829c0-1.3315-1.0831-2.4148-2.4146-2.4148zm-22.2791 33.7908c.6286-.8075 1.0045-1.8209 1.0045-2.9212v-1.757h7.3787v1.757c0 1.1003.3758 2.1138 1.0044 2.9212zm22.8496-7.0931c0 .3146-.2559.5707-.5706.5707h-35.1705c-.3146 0-.5707-.256-.5707-.5707v-4.8463h36.3118zm.0001-6.6906h-36.3118v-17.5923c0-.3146.256-.5706.5707-.5706h35.1704c.3146 0 .5707.2559.5707.5706z" fill="url(#c)"/><path d="m40.0003 50.0886c.5496 0 .9951-.4455.9951-.9951s-.4455-.9952-.9951-.9952-.9952.4456-.9952.9952.4456.9951.9952.9951z" fill="url(#d)"/><path d="m41.5812 30.8864c-.3602-.3601-.9438-.3601-1.3042 0l-6.5167 6.5167c-.3601.3601-.3601.944 0 1.3042.1802.1801.416.2701.6521.2701s.472-.09.652-.2701l6.5168-6.5168c.3601-.36.3601-.9439 0-1.3041z" fill="url(#e)"/><path d="m45.4437 34.6628c-.36-.3601-.9437-.3601-1.3041-.0001l-2.5961 2.5959c-.3601.3602-.3601.9441 0 1.3042.1801.1801.416.2701.652.2701s.472-.09.6521-.2701l2.5961-2.596c.36-.36.36-.944 0-1.304z" fill="url(#f)"/></svg>