<svg width="80" height="82" viewBox="0 0 80 82" fill="none" xmlns="http://www.w3.org/2000/svg">
<ellipse cx="40" cy="40.7803" rx="40" ry="40.4969" fill="url(#paint0_linear)"/>
<path d="M56.7816 24.8361L58.6809 23.1639C58.9763 22.9035 59.0774 22.4976 58.9387 22.1293C58.7993 21.7607 58.4551 21.5226 58.0614 21.5226H50.2014V21.1849C50.2014 20.8251 49.9098 20.5334 49.55 20.5334C49.1902 20.5334 48.8986 20.8251 48.8986 21.1849V37.6536C47.4098 37.6536 46.5076 38.6376 46.5076 39.8775C46.5076 39.8905 46.5076 41.4244 46.5076 44.4794C46.2445 44.2233 45.9664 44.144 45.5857 44.144H39.9405C38.5942 44.144 38.1086 44.8063 38.1086 46.4935V48.3955C37.8502 48.2615 37.5603 48.2078 37.2717 48.2078C34.467 48.2078 33.1281 48.2078 31.9015 48.2078C30.675 48.2078 29.6773 49.2055 29.6773 50.4317V52.3121C29.3965 52.1836 29.0849 52.1117 28.7563 52.1117H23.4393C22.2131 52.1117 21.2154 53.109 21.2154 54.3356V56.6687H19.6514C19.2916 56.6687 19 56.9603 19 57.3201C19 57.6799 19.2916 57.9715 19.6514 57.9715H58.0607C58.4205 57.9715 58.7121 57.6799 58.7121 57.3201C58.7121 56.9603 58.4205 56.6687 58.0607 56.6687H56.3665V39.8775C56.3665 38.6513 55.3688 37.6536 54.1426 37.6536H50.2014V28.1499H58.0611C58.4551 28.1499 58.7993 27.9119 58.9383 27.5436C59.0774 27.1753 58.9763 26.7691 58.6809 26.5086L56.7816 24.8361ZM22.5183 54.3352C22.5183 53.8276 22.9313 53.4146 23.4393 53.4146H28.7563C29.2643 53.4146 29.6776 53.8276 29.6776 54.3352V56.6687H22.5183V54.3352ZM30.9802 54.3352V50.4317C30.9802 49.9237 31.3936 49.5107 31.9015 49.5107H37.2185C37.7265 49.5107 38.1395 49.9237 38.1395 50.4317V56.6687H30.9805V54.3352H30.9802ZM55.0636 39.8775V56.6687H47.9046V52.7628C47.9046 52.403 47.613 52.1113 47.2532 52.1113C46.893 52.1113 46.6014 52.403 46.6014 52.7628V56.6687H39.4424V46.2379C39.4424 45.7303 39.8554 45.3172 40.3634 45.3172H45.6804C46.1884 45.3172 46.6014 45.7303 46.6014 46.2379V49.5036C46.6014 49.8634 46.893 50.155 47.2528 50.155C47.613 50.155 47.9043 49.8634 47.9043 49.5036V39.8775C47.9043 39.3695 48.3177 38.9565 48.8256 38.9565H49.5432C49.5452 38.9565 49.5476 38.9568 49.55 38.9568C49.552 38.9568 49.5544 38.9565 49.5564 38.9565H54.1423C54.6502 38.9565 55.0636 39.3699 55.0636 39.8775ZM39.4359 28.9456C41.9927 28.9619 43.4677 28.9712 43.861 28.9734L43.9431 28.9738C43.955 28.9739 43.9627 28.9739 43.9661 28.9739C44.0619 28.9739 44.1692 29.0693 44.1941 29.1563C44.2107 29.2142 44.2746 30.7065 44.3857 33.6331C44.3978 33.874 44.2308 34.0133 44.0503 33.9319L42.3631 32.3384C42.3066 32.3954 42.2484 32.454 42.1886 32.5142L42.0039 32.6996C40.3582 34.3481 37.5244 37.0821 32.2879 41.1511C28.5283 44.0725 24.258 46.783 19.4771 49.2826C19.1631 49.2826 19 49.1175 19 48.7882C24.5934 45.4872 29.1452 42.2625 32.6554 39.1141C36.9017 35.3056 38.4933 33.4276 39.8607 31.9431L40.0239 31.7667C40.1321 31.6503 40.2396 31.536 40.3475 31.423L40.5098 31.2545C40.6184 31.1426 40.7281 31.0317 40.8401 30.921L39.1444 29.3093C39.027 29.1146 39.1444 28.9456 39.4359 28.9456ZM57.0932 22.8259L55.6089 24.1328C55.4068 24.3108 55.2908 24.5672 55.2908 24.8365C55.2908 25.1057 55.4068 25.3621 55.6089 25.5401L57.0932 26.8471H50.2014V22.8259H57.0932Z" fill="url(#paint1_linear)"/>
<defs>
<linearGradient id="paint0_linear" x1="40.4537" y1="-37.7912" x2="40.4537" y2="78.3786" gradientUnits="userSpaceOnUse">
<stop stop-color="#2D585A"/>
<stop offset="0.2" stop-color="#2D585A"/>
<stop offset="0.75817" stop-color="#12393B"/>
<stop offset="1" stop-color="#12393B"/>
</linearGradient>
<linearGradient id="paint1_linear" x1="19.4515" y1="51.7635" x2="57.8647" y2="30.6794" gradientUnits="userSpaceOnUse">
<stop stop-color="#D1B147"/>
<stop offset="0.2" stop-color="#D1B147"/>
<stop offset="0.903988" stop-color="#F7D047"/>
<stop offset="1" stop-color="#F7D047"/>
</linearGradient>
</defs>
</svg>
