<svg xmlns="http://www.w3.org/2000/svg" width="120" height="60"><path d="M17.16 23.246c-1.202 0-1.543.533-1.543 1.707v1.94h3.196l-.314 3.14h-2.882v9.52h-3.824v-9.52H9.2v-3.14h2.58v-1.885c0-3.168 1.27-4.834 4.834-4.834.765 0 1.68.055 2.226.137v2.95m.22 10.352c0 3.537 1.68 6.186 5.176 6.186 1.912 0 3.114-.956 3.646-2.17v1.912h3.674v-12.65h-3.674v1.94c-.56-1.215-1.72-2.212-3.646-2.212-3.5 0-5.176 2.663-5.176 6.186m3.838-.055c0-1.885.696-3.14 2.472-3.14 1.57 0 2.363 1.147 2.363 2.95v1.27c0 1.803-.792 2.95-2.363 2.95-1.775 0-2.472-1.243-2.472-3.14zm16.634-6.132C35.05 26.62 33 29.036 33 32.915v.587c0 3.878 2.048 6.296 6.542 6.296 1.5 0 2.895-.314 3.674-.847l-.847-2.718a6.12 6.12 0 0 1-2.554.587c-2.076 0-2.977-1.202-2.977-3.237v-.737c0-2.048.9-3.237 2.977-3.237 1 0 1.967.287 2.554.587l.847-2.718c-.778-.546-2.185-.86-3.674-.86m4.165 7.074c0 3.715 1.803 6.132 6.637 6.132 1.83 0 3.906-.396 4.916-.93l-.696-2.636c-1.12.478-2.636.765-4.07.765-2.13 0-2.895-.765-2.977-2.5h8.057v-2.02c0-3.5-1.72-5.9-5.654-5.9-4.18 0-6.214 2.363-6.214 5.954V33.7m3.824-1.652c0-1.707.67-2.786 2.4-2.786 1.68 0 2.226 1.093 2.226 2.472v.314H47.53m22.247.765c0-3.537-1.707-6.186-5.203-6.186-1.775 0-3.004.9-3.564 2.02v-8.453l-3.824.34v19h3.62v-1.912c.533 1.215 1.857 2.185 3.77 2.185 3.5 0 5.203-2.663 5.203-6.186m-3.824.055c0 1.775-.696 3.114-2.526 3.114-1.57 0-2.417-1.12-2.417-2.923v-1.325c0-1.803.847-2.923 2.417-2.923 1.83 0 2.526 1.325 2.526 3.114zm5.108-.15c0 3.646 2.076 6.268 6.296 6.268s6.296-2.636 6.296-6.268v-.642c0-3.646-2.076-6.268-6.296-6.268s-6.296 2.636-6.296 6.268v.642m8.768.26c0 1.68-.696 3.004-2.472 3.004s-2.472-1.325-2.472-3.004v-1.174c0-1.68.696-3.004 2.472-3.004s2.472 1.325 2.472 3.004zm5.094-.26c0 3.646 2.076 6.268 6.296 6.268s6.296-2.636 6.296-6.268v-.642c0-3.646-2.076-6.268-6.296-6.268s-6.296 2.636-6.296 6.268v.642m8.78.26c0 1.68-.696 3.004-2.472 3.004s-2.473-1.3-2.473-3v-1.174c0-1.68.696-3.004 2.472-3.004s2.472 1.325 2.472 3.004zm9.082-13.602l-3.824.34V39.5h3.824v-6.186l3.933 6.186h4.07l-4.124-6.4 3.96-6.24h-4.07l-3.77 6.036" fill="#3c5a99"/></svg>