<svg fill="none" height="56" viewBox="0 0 273 56" width="273" xmlns="http://www.w3.org/2000/svg"><path d="m270.049 0h-267.09765c-1.62999 0-2.95135 1.2536-2.95135 2.8v50.4c0 1.5464 1.32136 2.8 2.95135 2.8h267.09765c1.63 0 2.951-1.2536 2.951-2.8v-50.4c0-1.5464-1.321-2.8-2.951-2.8z" fill="#4285f4"/><path d="m75.9893 22.7041c0-.5625-.1993-.9961-.5977-1.3008-.3926-.3047-1.1045-.6123-2.1357-.9228-1.0313-.3106-1.8516-.6563-2.461-1.0371-1.166-.7325-1.749-1.6875-1.749-2.8653 0-1.0312.4189-1.8808 1.2568-2.5488.8438-.668 1.9366-1.002 3.2784-1.002.8906 0 1.6845.1641 2.3818.4922.6973.3282 1.2451.7969 1.6435 1.4063.3985.6035.5977 1.2744.5977 2.0127h-2.2148c0-.668-.211-1.1895-.6329-1.5645-.416-.3808-1.0136-.5713-1.7929-.5713-.7266 0-1.292.1553-1.6963.4659-.3984.3105-.5977.7441-.5977 1.3007 0 .4688.2168.8614.6504 1.1778.4336.3105 1.1485.6152 2.1446.914.996.293 1.7959.6299 2.3994 1.0108.6035.375 1.0459.8086 1.3271 1.3008.2813.4863.4219 1.0576.4219 1.7138 0 1.0664-.4102 1.916-1.2305 2.5489-.8144.6269-1.9219.9404-3.3222.9404-.9258 0-1.7784-.1699-2.5577-.5098-.7734-.3457-1.3769-.8203-1.8105-1.4238-.4277-.6035-.6416-1.3067-.6416-2.1094h2.2236c0 .7266.2403 1.2891.7207 1.6875.4805.3985 1.169.5977 2.0655.5977.7734 0 1.3535-.1553 1.7402-.4659.3926-.3164.5889-.7324.5889-1.248zm6.2402 3.2959h-2.1357v-9.5098h2.1357zm-2.2676-11.9795c0-.3281.1026-.6006.3076-.8174.211-.2168.5098-.3252.8965-.3252s.6856.1084.8965.3252.3164.4893.3164.8174c0 .3223-.1055.5918-.3164.8086-.2109.2109-.5098.3164-.8965.3164s-.6855-.1055-.8965-.3164c-.205-.2168-.3076-.4863-.3076-.8086zm4.2276 7.1543c0-1.4766.3457-2.6543 1.0371-3.5332.6972-.8848 1.6201-1.3271 2.7685-1.3271 1.084 0 1.9365.3779 2.5576 1.1337l.0967-.958h1.9248v9.2198c0 1.248-.3896 2.2324-1.1689 2.9531-.7735.7207-1.8194 1.081-3.1377 1.081-.6973 0-1.3799-.1464-2.0479-.4394-.6621-.2871-1.166-.6651-1.5117-1.1338l1.0108-1.2832c.6562.7793 1.4648 1.1689 2.4257 1.1689.709 0 1.2686-.1933 1.6787-.58.4102-.3809.6153-.9434.6153-1.6875v-.6416c-.6153.6855-1.4356 1.0283-2.461 1.0283-1.1132 0-2.0244-.4424-2.7334-1.3272-.7031-.8847-1.0546-2.1093-1.0546-3.6738zm2.1269.1846c0 .9551.1934 1.708.5801 2.2588.3926.5449.9346.8173 1.626.8173.8613 0 1.5-.3691 1.916-1.1074v-4.1836c-.4043-.7207-1.0371-1.081-1.8985-1.081-.7031 0-1.2509.2783-1.6435.8349-.3867.5567-.5801 1.377-.5801 2.461zm10.4414-4.8692.0615 1.0987c.7032-.8496 1.626-1.2744 2.7686-1.2744 1.9801 0 2.9881 1.1337 3.0231 3.4013v6.2842h-2.135v-6.1611c0-.6035-.132-1.0489-.396-1.336-.2577-.2929-.6825-.4394-1.2743-.4394-.8614 0-1.503.3896-1.9248 1.1689v6.7676h-2.1358v-9.5098zm14.7922 9.5098h-2.136v-9.5098h2.136zm-2.268-11.9795c0-.3281.103-.6006.308-.8174.211-.2168.51-.3252.896-.3252.387 0 .686.1084.897.3252s.316.4893.316.8174c0 .3223-.105.5918-.316.8086-.211.2109-.51.3164-.897.3164-.386 0-.685-.1055-.896-.3164-.205-.2168-.308-.4863-.308-.8086zm6.583 2.4697.062 1.0987c.703-.8496 1.626-1.2744 2.768-1.2744 1.981 0 2.989 1.1337 3.024 3.4013v6.2842h-2.136v-6.1611c0-.6035-.132-1.0489-.395-1.336-.258-.2929-.683-.4394-1.275-.4394-.861 0-1.503.3896-1.925 1.1689v6.7676h-2.135v-9.5098zm20.874 6.5655 1.512-6.5655h2.083l-2.593 9.5098h-1.758l-2.039-6.5303-2.004 6.5303h-1.757l-2.602-9.5098h2.083l1.538 6.4952 1.951-6.4952h1.609zm7.295 2.9443h-2.136v-9.5098h2.136zm-2.267-11.9795c0-.3281.102-.6006.307-.8174.211-.2168.51-.3252.897-.3252.386 0 .685.1084.896.3252s.317.4893.317.8174c0 .3223-.106.5918-.317.8086-.211.2109-.51.3164-.896.3164-.387 0-.686-.1055-.897-.3164-.205-.2168-.307-.4863-.307-.8086zm7.277.1582v2.3115h1.679v1.5821h-1.679v5.3086c0 .3632.07.6269.211.791.146.1582.404.2373.773.2373.246 0 .495-.0293.747-.0879v1.6523c-.486.1348-.955.2022-1.406.2022-1.64 0-2.461-.9053-2.461-2.7158v-5.3877h-1.564v-1.5821h1.564v-2.3115zm5.423 3.3486c.697-.8085 1.579-1.2128 2.645-1.2128 2.028 0 3.056 1.1572 3.085 3.4716v6.2139h-2.135v-6.1348c0-.6562-.144-1.1191-.431-1.3886-.281-.2754-.697-.4131-1.248-.4131-.856 0-1.494.3808-1.916 1.1426v6.7939h-2.136v-13.5h2.136zm22.394 6.8116c-.463.6035-1.104 1.0605-1.924 1.3711-.821.3105-1.752.4658-2.795.4658-1.073 0-2.022-.2432-2.848-.7295s-1.465-1.1807-1.916-2.083c-.445-.9082-.677-1.9658-.694-3.1729v-1.0019c0-1.9336.462-3.4424 1.388-4.5264.926-1.0898 2.218-1.6348 3.876-1.6348 1.424 0 2.555.3516 3.393 1.0547.838.7032 1.342 1.7168 1.512 3.041h-2.18c-.246-1.541-1.14-2.3115-2.681-2.3115-.996 0-1.755.3604-2.276 1.0811-.516.7148-.782 1.7666-.8 3.1553v.9843c0 1.3828.29 2.458.87 3.2256.586.7617 1.398 1.1426 2.435 1.1426 1.136 0 1.945-.2578 2.425-.7734v-2.5049h-2.636v-1.6875h4.851zm1.837-3.1817c0-.9316.185-1.7695.554-2.5136.369-.75.888-1.3243 1.556-1.7227.668-.4043 1.435-.6064 2.302-.6064 1.284 0 2.324.413 3.12 1.2392.803.8262 1.237 1.9219 1.301 3.2871l.009.501c0 .9375-.182 1.7754-.545 2.5137-.357.7383-.873 1.3095-1.547 1.7138-.668.4043-1.441.6065-2.32.6065-1.342 0-2.417-.4453-3.226-1.336-.802-.8964-1.204-2.0888-1.204-3.5771zm2.136.1846c0 .9785.202 1.7461.606 2.3027.405.5508.967.8262 1.688.8262s1.28-.2812 1.679-.8437c.404-.5625.606-1.3858.606-2.4698 0-.9609-.208-1.7226-.624-2.2851-.41-.5625-.97-.8438-1.679-.8438-.697 0-1.251.2783-1.661.835-.41.5508-.615 1.3769-.615 2.4785zm8.112-.1846c0-.9316.185-1.7695.554-2.5136.369-.75.888-1.3243 1.556-1.7227.668-.4043 1.435-.6064 2.302-.6064 1.284 0 2.324.413 3.121 1.2392.802.8262 1.236 1.9219 1.3 3.2871l.009.501c0 .9375-.182 1.7754-.545 2.5137-.357.7383-.873 1.3095-1.547 1.7138-.668.4043-1.441.6065-2.32.6065-1.342 0-2.417-.4453-3.226-1.336-.802-.8964-1.204-2.0888-1.204-3.5771zm2.136.1846c0 .9785.202 1.7461.606 2.3027.405.5508.967.8262 1.688.8262s1.28-.2812 1.679-.8437c.404-.5625.606-1.3858.606-2.4698 0-.9609-.208-1.7226-.624-2.2851-.41-.5625-.97-.8438-1.679-.8438-.697 0-1.251.2783-1.661.835-.41.5508-.615 1.3769-.615 2.4785zm8.139-.167c0-1.4766.345-2.6543 1.037-3.5332.697-.8848 1.62-1.3271 2.768-1.3271 1.084 0 1.937.3779 2.558 1.1337l.097-.958h1.924v9.2198c0 1.248-.389 2.2324-1.168 2.9531-.774.7207-1.82 1.081-3.138 1.081-.697 0-1.38-.1464-2.048-.4394-.662-.2871-1.166-.6651-1.512-1.1338l1.011-1.2832c.656.7793 1.465 1.1689 2.426 1.1689.709 0 1.268-.1933 1.678-.58.411-.3809.616-.9434.616-1.6875v-.6416c-.616.6855-1.436 1.0283-2.461 1.0283-1.113 0-2.025-.4424-2.734-1.3272-.703-.8847-1.054-2.1093-1.054-3.6738zm2.127.1846c0 .9551.193 1.708.58 2.2588.392.5449.934.8173 1.626.8173.861 0 1.5-.3691 1.916-1.1074v-4.1836c-.405-.7207-1.037-1.081-1.899-1.081-.703 0-1.251.2783-1.643.8349-.387.5567-.58 1.377-.58 2.461zm10.731 4.6406h-2.136v-13.5h2.136zm6.522.1758c-1.354 0-2.453-.4248-3.296-1.2744-.838-.8555-1.257-1.9922-1.257-3.4102v-.2637c0-.9492.181-1.7959.545-2.54.369-.75.885-1.333 1.547-1.749s1.4-.624 2.214-.624c1.295 0 2.294.413 2.998 1.2392.709.8262 1.063 1.9951 1.063 3.5068v.8614h-6.214c.065.7851.325 1.4062.782 1.8633.463.457 1.043.6855 1.741.6855.978 0 1.775-.3955 2.39-1.1865l1.152 1.0986c-.381.5684-.891 1.0108-1.53 1.3272-.632.3105-1.344.4658-2.135.4658zm-.255-8.1475c-.586 0-1.061.2051-1.424.6153-.358.4101-.586.9814-.686 1.7138h4.07v-.1582c-.047-.7148-.238-1.2539-.572-1.6172-.334-.3691-.796-.5537-1.388-.5537z" fill="#fff"/><path d="m69.2305 43.3257v-5.2852h-.9668v-1.0547h.9668v-.58c0-.7032.1953-1.2461.5859-1.6289.3906-.3829.9375-.5743 1.6406-.5743.25 0 .5157.0352.7969.1055l-.0351 1.1133c-.1563-.0313-.3379-.0469-.545-.0469-.6797 0-1.0195.3496-1.0195 1.0488v.5625h1.2891v1.0547h-1.2891v5.2852zm3.4863-3.2285c0-.6211.123-1.1797.3691-1.6758.2461-.5.5918-.8828 1.0371-1.1485.4454-.2695.9571-.4042 1.5352-.4042.8555 0 1.5488.2753 2.0801.8261.5351.5508.8242 1.2813.8672 2.1914l.0058.334c0 .625-.1211 1.1836-.3633 1.6758-.2382.4922-.582.873-1.0312 1.1426-.4453.2695-.9609.4043-1.5469.4043-.8945 0-1.6113-.2969-2.1504-.8907-.5351-.5976-.8027-1.3925-.8027-2.3847zm1.4238.123c0 .6524.1348 1.1641.4043 1.5352.2696.3672.6446.5508 1.125.5508.4805 0 .8535-.1875 1.1192-.5625.2695-.375.4043-.9239.4043-1.6465 0-.6407-.1387-1.1485-.4161-1.5235-.2734-.375-.6464-.5625-1.1191-.5625-.4648 0-.834.1856-1.1074.5567-.2735.3672-.4102.9179-.4102 1.6523zm8.9942-1.9336c-.1875-.0312-.3809-.0469-.5801-.0469-.6524 0-1.0918.25-1.3184.75v4.336h-1.4238v-6.3399h1.3594l.0351.709c.3438-.5508.8203-.8261 1.4297-.8261.2031 0 .3711.0273.5039.082zm3.6211 1.8106c0-.6211.123-1.1797.3691-1.6758.2461-.5.5918-.8828 1.0371-1.1485.4453-.2695.957-.4042 1.5352-.4042.8554 0 1.5488.2753 2.08.8261.5352.5508.8243 1.2813.8672 2.1914l.0059.334c0 .625-.1211 1.1836-.3633 1.6758-.2383.4922-.582.873-1.0312 1.1426-.4454.2695-.961.4043-1.5469.4043-.8945 0-1.6113-.2969-2.1504-.8907-.5352-.5976-.8027-1.3925-.8027-2.3847zm1.4238.123c0 .6524.1348 1.1641.4043 1.5352.2695.3672.6445.5508 1.125.5508s.8535-.1875 1.1191-.5625c.2696-.375.4043-.9239.4043-1.6465 0-.6407-.1386-1.1485-.416-1.5235-.2734-.375-.6465-.5625-1.1191-.5625-.4649 0-.834.1856-1.1075.5567-.2734.3672-.4101.9179-.4101 1.6523zm11.2265 0c0 .9805-.2226 1.7637-.6679 2.3496-.4453.5821-1.043.8731-1.793.8731-.6953 0-1.2519-.2285-1.6699-.6856v3.0059h-1.4238v-8.7774h1.3125l.0586.6446c.4179-.5078.9863-.7617 1.705-.7617.7735 0 1.3789.289 1.8164.8671.4414.5743.6621 1.3731.6621 2.3965zm-1.4179-.123c0-.6328-.127-1.1348-.3809-1.5059-.25-.3711-.6094-.5566-1.0781-.5566-.582 0-1 .2402-1.2539.7207v2.8125c.2578.4922.6797.7383 1.2656.7383.4531 0 .8067-.1817 1.0606-.545.2578-.3672.3867-.9218.3867-1.664zm4.4117-4.6524v1.541h1.12v1.0547h-1.12v3.5391c0 .2422.047.418.141.5273.098.1055.27.1582.516.1582.164 0 .33-.0195.498-.0586v1.1016c-.325.0898-.637.1348-.938.1348-1.094 0-1.64-.6035-1.64-1.8106v-3.5918h-1.0434v-1.0547h1.0434v-1.541zm3.727 7.8809h-1.424v-6.3399h1.424zm-1.512-7.9863c0-.2188.069-.4004.205-.545.141-.1445.34-.2168.598-.2168s.457.0723.598.2168c.14.1446.211.3262.211.545 0 .2148-.071.3945-.211.539-.141.1406-.34.211-.598.211s-.457-.0704-.598-.211c-.136-.1445-.205-.3242-.205-.539zm2.801 4.7578c0-.6211.123-1.1797.369-1.6758.246-.5.592-.8828 1.037-1.1485.446-.2695.957-.4042 1.535-.4042.856 0 1.549.2753 2.081.8261.535.5508.824 1.2813.867 2.1914l.006.334c0 .625-.122 1.1836-.364 1.6758-.238.4922-.582.873-1.031 1.1426-.445.2695-.961.4043-1.547.4043-.894 0-1.611-.2969-2.15-.8907-.535-.5976-.803-1.3925-.803-2.3847zm1.424.123c0 .6524.135 1.1641.404 1.5352.27.3672.645.5508 1.125.5508.481 0 .854-.1875 1.119-.5625.27-.375.405-.9239.405-1.6465 0-.6407-.139-1.1485-.416-1.5235-.274-.375-.647-.5625-1.12-.5625-.464 0-.834.1856-1.107.5567-.273.3672-.41.9179-.41 1.6523zm6.996-3.2344.041.7325c.469-.5664 1.084-.8496 1.846-.8496 1.32 0 1.992.7558 2.015 2.2675v4.1895h-1.424v-4.1074c0-.4024-.087-.6993-.263-.8907-.172-.1953-.455-.2929-.85-.2929-.574 0-1.002.2597-1.283.7793v4.5117h-1.424v-6.3399zm10.131-1.541v1.541h1.119v1.0547h-1.119v3.5391c0 .2422.047.418.14.5273.098.1055.27.1582.516.1582.164 0 .33-.0195.498-.0586v1.1016c-.324.0898-.637.1348-.937.1348-1.094 0-1.641-.6035-1.641-1.8106v-3.5918h-1.043v-1.0547h1.043v-1.541zm1.769 4.6524c0-.6211.123-1.1797.369-1.6758.247-.5.592-.8828 1.038-1.1485.445-.2695.957-.4042 1.535-.4042.855 0 1.549.2753 2.08.8261.535.5508.824 1.2813.867 2.1914l.006.334c0 .625-.121 1.1836-.363 1.6758-.239.4922-.582.873-1.032 1.1426-.445.2695-.961.4043-1.547.4043-.894 0-1.611-.2969-2.15-.8907-.535-.5976-.803-1.3925-.803-2.3847zm1.424.123c0 .6524.135 1.1641.404 1.5352.27.3672.645.5508 1.125.5508.481 0 .854-.1875 1.12-.5625.269-.375.404-.9239.404-1.6465 0-.6407-.139-1.1485-.416-1.5235-.274-.375-.647-.5625-1.119-.5625-.465 0-.834.1856-1.108.5567-.273.3672-.41.9179-.41 1.6523zm10.178 3.1055h-1.424v-9h1.424zm3.07 0h-1.424v-6.3399h1.424zm-1.512-7.9863c0-.2188.069-.4004.206-.545.14-.1445.339-.2168.597-.2168s.457.0723.598.2168c.141.1446.211.3262.211.545 0 .2148-.07.3945-.211.539-.141.1406-.34.211-.598.211s-.457-.0704-.597-.211c-.137-.1445-.206-.3242-.206-.539zm4.389 1.6464.041.7325c.469-.5664 1.084-.8496 1.846-.8496 1.32 0 1.992.7558 2.016 2.2675v4.1895h-1.424v-4.1074c0-.4024-.088-.6993-.264-.8907-.172-.1953-.455-.2929-.85-.2929-.574 0-1.002.2597-1.283.7793v4.5117h-1.424v-6.3399zm7.418 3.6211-.633.6504v2.0684h-1.424v-9h1.424v5.1914l.446-.5567 1.752-1.9746h1.711l-2.356 2.6426 2.607 3.6973h-1.646zm13.875 1.6114c-.308.4023-.736.707-1.283.914-.547.2071-1.168.3106-1.863.3106-.715 0-1.348-.1621-1.899-.4864-.551-.3242-.976-.7871-1.277-1.3886-.297-.6055-.451-1.3106-.463-2.1153v-.6679c0-1.2891.309-2.295.926-3.0176.617-.7266 1.478-1.0899 2.584-1.0899.949 0 1.703.2344 2.261.7032.559.4687.895 1.1445 1.008 2.0273h-1.453c-.164-1.0273-.76-1.541-1.787-1.541-.664 0-1.17.2402-1.518.7207-.343.4766-.521 1.1777-.533 2.1035v.6563c0 .9218.194 1.6386.58 2.1504.391.5078.932.7617 1.623.7617.758 0 1.297-.1719 1.618-.5156v-1.67h-1.758v-1.125h3.234zm1.225-2.1211c0-.6211.123-1.1797.369-1.6758.246-.5.592-.8828 1.037-1.1485.445-.2695.957-.4042 1.535-.4042.856 0 1.549.2753 2.08.8261.535.5508.824 1.2813.867 2.1914l.006.334c0 .625-.121 1.1836-.363 1.6758-.238.4922-.582.873-1.031 1.1426-.446.2695-.961.4043-1.547.4043-.895 0-1.611-.2969-2.151-.8907-.535-.5976-.802-1.3925-.802-2.3847zm1.424.123c0 .6524.134 1.1641.404 1.5352.269.3672.644.5508 1.125.5508.48 0 .853-.1875 1.119-.5625.27-.375.404-.9239.404-1.6465 0-.6407-.138-1.1485-.416-1.5235-.273-.375-.646-.5625-1.119-.5625-.465 0-.834.1856-1.107.5567-.274.3672-.41.9179-.41 1.6523zm5.408-.123c0-.6211.123-1.1797.369-1.6758.246-.5.592-.8828 1.037-1.1485.445-.2695.957-.4042 1.535-.4042.856 0 1.549.2753 2.08.8261.535.5508.824 1.2813.867 2.1914l.006.334c0 .625-.121 1.1836-.363 1.6758-.238.4922-.582.873-1.031 1.1426-.446.2695-.961.4043-1.547.4043-.895 0-1.611-.2969-2.15-.8907-.536-.5976-.803-1.3925-.803-2.3847zm1.424.123c0 .6524.134 1.1641.404 1.5352.269.3672.644.5508 1.125.5508.48 0 .853-.1875 1.119-.5625.27-.375.404-.9239.404-1.6465 0-.6407-.138-1.1485-.416-1.5235-.273-.375-.646-.5625-1.119-.5625-.465 0-.834.1856-1.107.5567-.274.3672-.41.9179-.41 1.6523zm5.425-.1113c0-.9844.231-1.7695.692-2.3555.465-.5898 1.08-.8847 1.845-.8847.723 0 1.291.2519 1.706.7558l.064-.6387h1.283v6.1465c0 .8321-.26 1.4883-.779 1.9688-.516.4804-1.213.7207-2.092.7207-.465 0-.92-.0977-1.365-.293-.442-.1914-.777-.4434-1.008-.7559l.674-.8554c.437.5195.976.7793 1.617.7793.473 0 .846-.1289 1.119-.3867.274-.2539.41-.6289.41-1.125v-.4278c-.41.4571-.957.6856-1.64.6856-.742 0-1.35-.295-1.822-.8848-.469-.5898-.704-1.4062-.704-2.4492zm1.418.123c0 .6368.129 1.1387.387 1.5059.262.3633.623.5449 1.084.5449.574 0 1-.2461 1.277-.7383v-2.789c-.269-.4805-.691-.7207-1.265-.7207-.469 0-.834.1855-1.096.5566-.258.3711-.387.918-.387 1.6406zm7.155 3.0938h-1.424v-9h1.424zm4.347.1172c-.902 0-1.634-.2832-2.197-.8496-.559-.5704-.838-1.3282-.838-2.2735v-.1758c0-.6328.121-1.1972.363-1.6933.247-.5.59-.8887 1.032-1.166.441-.2774.933-.416 1.476-.416.864 0 1.53.2753 1.998.8261.473.5508.709 1.3301.709 2.3379v.5742h-4.142c.043.5235.216.9375.521 1.2422.309.3047.695.4571 1.16.4571.653 0 1.184-.2637 1.594-.7911l.768.7325c-.254.3789-.594.6738-1.02.8847-.422.2071-.896.3106-1.424.3106zm-.17-5.4317c-.39 0-.707.1367-.949.4102-.238.2734-.39.6543-.457 1.1426h2.713v-.1055c-.031-.4766-.158-.8359-.381-1.0781-.222-.2461-.531-.3692-.926-.3692zm13.459 2.5371c-.086.9102-.422 1.6211-1.007 2.1329-.586.5078-1.366.7617-2.338.7617-.68 0-1.28-.1602-1.799-.4805-.516-.3242-.914-.7832-1.195-1.377-.282-.5937-.428-1.2832-.44-2.0683v-.7969c0-.8047.143-1.5137.428-2.1269.285-.6133.693-1.086 1.224-1.418.536-.332 1.153-.4981 1.852-.4981.941 0 1.699.2559 2.273.7676.575.5117.909 1.2344 1.002 2.168h-1.476c-.071-.6133-.25-1.0547-.539-1.3242-.285-.2735-.705-.4102-1.26-.4102-.645 0-1.141.2363-1.488.709-.344.4688-.52 1.1582-.528 2.0684v.7558c0 .9219.164 1.625.493 2.1094.332.4844.816.7266 1.453.7266.582 0 1.019-.1309 1.312-.3926s.479-.6973.557-1.3067zm2.707 2.7774h-1.423v-9h1.423zm5.344 0c-.062-.1211-.117-.3184-.164-.5918-.453.4726-1.008.709-1.664.709-.637 0-1.156-.1817-1.559-.545-.402-.3632-.603-.8125-.603-1.3476 0-.6758.25-1.1934.75-1.5527.504-.3633 1.223-.545 2.156-.545h.873v-.416c0-.3281-.092-.5898-.275-.7851-.184-.1993-.463-.2989-.838-.2989-.324 0-.59.0821-.797.2461-.207.1602-.311.3653-.311.6153h-1.423c0-.3477.115-.6719.345-.9727.231-.3047.543-.543.938-.7148.398-.1719.842-.2578 1.33-.2578.742 0 1.334.1875 1.775.5625.442.371.668.8945.68 1.5703v2.8593c0 .5704.08 1.0254.24 1.3653v.0996zm-1.564-1.0254c.281 0 .545-.0684.791-.2051.25-.1367.437-.3203.562-.5508v-1.1953h-.767c-.528 0-.924.0918-1.19.2754-.265.1836-.398.4434-.398.7793 0 .2734.09.4922.269.6563.184.1601.428.2402.733.2402zm7.822-.6973c0-.2539-.106-.4472-.316-.5801-.207-.1328-.553-.25-1.038-.3515-.484-.1016-.888-.2305-1.212-.3867-.711-.3438-1.067-.8418-1.067-1.4942 0-.5468.231-1.0039.692-1.3711.46-.3672 1.046-.5507 1.757-.5507.758 0 1.37.1875 1.834.5625.469.375.703.8613.703 1.4589h-1.423c0-.2734-.102-.5-.305-.6797-.203-.1835-.473-.2753-.809-.2753-.312 0-.568.0722-.767.2168-.196.1445-.293.3378-.293.58 0 .2188.092.3887.275.5098.184.1211.555.2441 1.113.3691.559.1211.997.2676 1.313.4395.32.168.557.3711.709.6094.156.2382.234.5273.234.8672 0 .5703-.236 1.0332-.709 1.3886-.472.3516-1.091.5274-1.857.5274-.52 0-.982-.0938-1.389-.2813-.406-.1875-.722-.4453-.949-.7734s-.34-.6817-.34-1.0606h1.383c.02.336.147.5957.381.7793.234.1797.545.2696.932.2696.375 0 .66-.0703.855-.211.195-.1445.293-.332.293-.5625zm6.199 0c0-.2539-.105-.4472-.316-.5801-.207-.1328-.553-.25-1.037-.3515-.485-.1016-.889-.2305-1.213-.3867-.711-.3438-1.067-.8418-1.067-1.4942 0-.5468.231-1.0039.692-1.3711s1.047-.5507 1.758-.5507c.757 0 1.369.1875 1.834.5625.468.375.703.8613.703 1.4589h-1.424c0-.2734-.102-.5-.305-.6797-.203-.1835-.472-.2753-.808-.2753-.313 0-.569.0722-.768.2168-.195.1445-.293.3378-.293.58 0 .2188.092.3887.275.5098.184.1211.555.2441 1.114.3691.558.1211.996.2676 1.312.4395.321.168.557.3711.709.6094.156.2382.235.5273.235.8672 0 .5703-.237 1.0332-.709 1.3886-.473.3516-1.092.5274-1.858.5274-.519 0-.982-.0938-1.389-.2813-.406-.1875-.722-.4453-.949-.7734-.226-.3281-.34-.6817-.34-1.0606h1.383c.02.336.147.5957.381.7793.234.1797.545.2696.932.2696.375 0 .66-.0703.855-.211.196-.1445.293-.332.293-.5625zm5.965-3.3164c-.187-.0312-.381-.0469-.58-.0469-.652 0-1.092.25-1.318.75v4.336h-1.424v-6.3399h1.359l.035.709c.344-.5508.821-.8261 1.43-.8261.203 0 .371.0273.504.082zm.422 1.8106c0-.6211.123-1.1797.369-1.6758.246-.5.592-.8828 1.037-1.1485.445-.2695.957-.4042 1.535-.4042.856 0 1.549.2753 2.08.8261.536.5508.825 1.2813.868 2.1914l.005.334c0 .625-.121 1.1836-.363 1.6758-.238.4922-.582.873-1.031 1.1426-.445.2695-.961.4043-1.547.4043-.895 0-1.611-.2969-2.15-.8907-.536-.5976-.803-1.3925-.803-2.3847zm1.424.123c0 .6524.134 1.1641.404 1.5352.27.3672.645.5508 1.125.5508s.854-.1875 1.119-.5625c.27-.375.404-.9239.404-1.6465 0-.6407-.138-1.1485-.416-1.5235-.273-.375-.646-.5625-1.119-.5625-.465 0-.834.1856-1.107.5567-.274.3672-.41.9179-.41 1.6523zm5.408-.123c0-.6211.123-1.1797.369-1.6758.246-.5.592-.8828 1.037-1.1485.445-.2695.957-.4042 1.535-.4042.856 0 1.549.2753 2.08.8261.536.5508.825 1.2813.868 2.1914l.005.334c0 .625-.121 1.1836-.363 1.6758-.238.4922-.582.873-1.031 1.1426-.445.2695-.961.4043-1.547.4043-.894 0-1.611-.2969-2.15-.8907-.535-.5976-.803-1.3925-.803-2.3847zm1.424.123c0 .6524.135 1.1641.404 1.5352.27.3672.645.5508 1.125.5508.481 0 .854-.1875 1.119-.5625.27-.375.404-.9239.404-1.6465 0-.6407-.138-1.1485-.416-1.5235-.273-.375-.646-.5625-1.119-.5625-.465 0-.834.1856-1.107.5567-.274.3672-.41.9179-.41 1.6523zm7.013-3.2344.041.6621c.446-.5195 1.055-.7792 1.829-.7792.847 0 1.427.3242 1.74.9726.461-.6484 1.109-.9726 1.945-.9726.699 0 1.219.1933 1.559.58.343.3867.519.9571.527 1.711v4.166h-1.424v-4.125c0-.4024-.088-.6973-.263-.8848-.176-.1875-.467-.2812-.873-.2812-.325 0-.59.0879-.797.2636-.203.1719-.346.3985-.428.6797l.006 4.3477h-1.424v-4.1719c-.02-.7461-.4-1.1191-1.143-1.1191-.57 0-.974.2324-1.213.6972v4.5938h-1.423v-6.3399z" fill="#fff"/><path d="m53.0963 1.79077h-49.93505c-.76606 0-1.38708.62472-1.38708 1.39535v50.23258c0 .7706.62102 1.3953 1.38708 1.3953h49.93505c.766 0 1.387-.6247 1.387-1.3953v-50.23258c0-.77063-.621-1.39535-1.387-1.39535z" fill="#fff"/><g clip-rule="evenodd" fill-rule="evenodd"><path d="m40.1132 28.5878c0-.8905-.0795-1.7468-.227-2.5688h-11.7574v4.8578h6.7185c-.2894 1.5697-1.1689 2.8997-2.4911 3.7902v3.151h4.0346c2.3605-2.1863 3.7224-5.4057 3.7224-9.2302z" fill="#4285f4"/><path d="m28.1288 40.8603c3.3706 0 6.1965-1.1245 8.2619-3.0425l-4.0345-3.1509c-1.1178.7535-2.5478 1.1987-4.2274 1.1987-3.2515 0-6.0036-2.2091-6.9853-5.1774h-4.1707v3.2537c2.0542 4.1043 6.276 6.9184 11.156 6.9184z" fill="#34a853"/><path d="m21.1435 30.6884c-.2496-.7535-.3915-1.5584-.3915-2.3861s.1419-1.6325.3915-2.386v-3.2537h-4.1707c-.8455 1.6953-1.3278 3.6133-1.3278 5.6397 0 2.0265.4823 3.9444 1.3278 5.6398z" fill="#fbbc05"/><path d="m28.1288 20.7389c1.8328 0 3.4784.6336 4.7722 1.878l3.5805-3.6019c-2.1619-2.0265-4.9878-3.2709-8.3527-3.2709-4.88 0-9.1018 2.8142-11.156 6.9184l4.1707 3.2537c.9817-2.9683 3.7338-5.1773 6.9853-5.1773z" fill="#ea4335"/></g></svg>