<?xml version="1.0" encoding="utf-8"?>
<!-- Generator: Adobe Illustrator 21.0.0, SVG Export Plug-In . SVG Version: 6.00 Build 0)  -->
<svg version="1.1" id="Schoology_Logo" xmlns="http://www.w3.org/2000/svg" xmlns:xlink="http://www.w3.org/1999/xlink" x="0px"
	 y="0px" width="330px" height="66px" viewBox="0 0 330 66" style="enable-background:new 0 0 330 66;" xml:space="preserve">
<path id="Grey" style="fill:#333333;" d="M32,34.6c-4.6-1.1-10.3-2.4-10.3-8.4c0-5.2,4.4-8.5,11.1-8.5c5.5,0,11.3,2.6,12.3,9.4
	l-5.2,0.7c-0.1-1.8-0.2-3.2-2.1-4.6c-1.9-1.5-4.1-1.7-5.5-1.7c-3.8,0-5.7,2.3-5.7,4.2c0,2.7,3.1,3.6,6.9,4.5l2.7,0.7
	c3.4,0.8,9.6,2.3,9.6,8.3c0,4.7-4.1,9.1-12.1,9.1c-3.2,0-6.6-0.7-8.9-2.3c-0.9-0.7-3.7-3-4.3-7.8l5.5-0.9c-0.1,1.3-0.1,3.7,2.1,5.6
	c1.7,1.5,3.9,1.7,5.8,1.7c4.3,0,6.8-1.7,6.8-4.8c0-3.3-2.5-3.9-6-4.6L32,34.6z M90.9,38.8c3.4,0.7,5.8,1.2,5.8,4.4
	c0,3-2.4,4.6-6.6,4.6c-1.9,0-4-0.2-5.6-1.6c-2.1-1.8-2.1-4.2-2.1-5.4l-5.3,0.8c0.5,4.7,3.3,6.9,4.1,7.6c2.3,1.6,5.5,2.2,8.6,2.2
	c7.7,0,11.7-4.3,11.7-8.8c0-5.9-6-7.3-9.3-8l-2.7-0.7C86,33,83,32.2,83,29.5c0-1.9,1.8-4.1,5.5-4.1c1.4,0,3.5,0.2,5.4,1.7
	c1.8,1.4,2,2.8,2,4.5l5.1-0.7c-0.9-6.6-6.6-9.1-12-9.1c-6.5,0-10.8,3.2-10.8,8.3c0,5.8,5.5,7,10,8.1L90.9,38.8z M126.2,40
	c-0.3,2.2-1.1,7.8-7.9,7.8c-2.9,0-5.3-1.2-6.9-3.7c-1.2-1.9-1.8-4.5-1.8-7.5c0-2.5,0.4-11.3,8.5-11.3c6.3,0,7.3,5.3,7.5,6.4l5.2-0.5
	c-1.8-7.8-8.4-9.4-12.9-9.4c-9.3,0-13.5,7.2-13.5,15.1c0,6.9,3.7,14.5,13.9,14.5c5.2,0,9.1-1.9,11.4-6.2c1.1-2.1,1.4-3.6,1.6-4.7
	L126.2,40z M134.2,50.5h4.8V37c0-2.1,0-3.5,0.4-5.1c1-4.3,4.2-6,7.2-6c1.8,0,3.7,0.6,4.9,2.4c1.1,1.7,1.1,3.9,1.1,7.5v14.7h4.8V34.3
	c0-2.8,0-4.6-0.5-6.4c-0.8-2.7-3.3-6.2-9.4-6.2c-2.7,0-5.5,0.5-8.5,3.7V8.7h-4.8V50.5z M183.9,32.7c0.2,0.8,0.4,2.1,0.3,3.9
	c-0.1,2.8-0.7,11-8.5,11c-6.1,0-8.5-4.9-8.5-10.7c0-6.4,2.5-11.3,8.9-11.3C179.2,25.6,182.8,27.1,183.9,32.7 M175.7,51.4
	c8.5,0,13.5-6.3,13.6-14.8c0.1-7.6-4.2-14.8-13.4-14.8c-10.8,0-13.9,8.8-13.9,15C162,44.1,166.1,51.4,175.7,51.4 M214.5,32.7
	c0.2,0.8,0.4,2.1,0.3,3.9c-0.1,2.8-0.6,11-8.5,11c-6.1,0-8.5-4.9-8.5-10.7c0-6.4,2.5-11.3,8.9-11.3
	C209.8,25.6,213.4,27.1,214.5,32.7 M206.3,51.4c8.5,0,13.6-6.3,13.6-14.8c0.1-7.6-4.2-14.8-13.4-14.8c-10.8,0-13.9,8.8-13.9,15
	C192.6,44.1,196.7,51.4,206.3,51.4 M224.7,50.5h4.6V8.7h-4.6V50.5z"/>
<path id="Blue" style="fill:#47B0ED;" d="M33.1,9.5C20.2,9.5,9.7,20.1,9.7,33c0,12.9,10.5,23.5,23.5,23.5S56.6,45.9,56.6,33
	C56.6,20.1,46.1,9.5,33.1,9.5 M33.1,61.1C17.6,61.1,5,48.5,5,33C5,17.5,17.6,4.9,33.1,4.9S61.3,17.5,61.3,33
	C61.3,48.5,48.6,61.1,33.1,61.1 M286.2,38.9h-8v-3.2h13.1v14.9h-3.3v-3.4c0,0,0.5-0.6,0,0c-2.4,2.8-5.8,4-10,4
	c-10.2,0-13.9-7.6-13.9-14.5c0-7.9,4.2-15.1,13.5-15.1c4.5,0,11.1,1.6,12.9,9.4l-5.2,0.5c-0.2-1.1-1.2-6.4-7.5-6.4
	c-8.1,0-8.5,8.8-8.5,11.3c0,3,0.6,5.6,1.8,7.5c1.6,2.5,4,3.7,6.9,3.7c6.8,0,7.6-5.6,7.9-7.8L286.2,38.9z M255.9,32.7
	c-1.1-5.5-4.7-7.1-7.9-7.1c-6.3,0-8.9,4.9-8.9,11.3c0,5.9,2.4,10.7,8.5,10.7c7.9,0,8.5-8.2,8.5-11C256.3,34.8,256.1,33.5,255.9,32.7
	 M247.8,51.4c-9.6,0-13.7-7.2-13.7-14.6c0-6.2,3.1-15,13.9-15c9.2,0,13.5,7.2,13.4,14.8C261.3,45,256.3,51.4,247.8,51.4 M316.6,22.3
	l-10.2,15.3v12.9h-0.7h-3.1h-0.7V37.6l-10-15.3h0.7h3.8h0.7l7.1,11.4l7.2-11.4h0.7h3.8H316.6z M321.4,24.8h0.3
	c0.4,0,0.7-0.1,0.7-0.4c0-0.3-0.2-0.5-0.7-0.5c-0.2,0-0.3,0-0.4,0V24.8z M321.4,26.6h-0.7v-3.1c0.3,0,0.7-0.1,1.2-0.1
	c0.6,0,0.8,0.1,1,0.2c0.2,0.1,0.3,0.4,0.3,0.7c0,0.4-0.3,0.6-0.6,0.7v0c0.3,0.1,0.4,0.3,0.5,0.7c0.1,0.5,0.2,0.6,0.2,0.7h-0.7
	c-0.1-0.1-0.1-0.4-0.2-0.7c-0.1-0.3-0.2-0.5-0.6-0.5h-0.3V26.6z M319.5,25c0,1.4,1,2.4,2.4,2.4c1.3,0,2.3-1.1,2.3-2.4
	c0-1.4-1-2.5-2.4-2.5C320.5,22.5,319.5,23.6,319.5,25 M325,25c0,1.7-1.4,3.1-3.1,3.1c-1.7,0-3.1-1.4-3.1-3.1c0-1.7,1.4-3.1,3.2-3.1
	C323.6,21.9,325,23.3,325,25"/>
</svg>
