<svg width="247" height="132" viewBox="0 0 247 132" fill="none" xmlns="http://www.w3.org/2000/svg">
<mask id="path-1-inside-1_24_267" fill="white">
<path d="M-0.000976562 0H246.999V104H60.999L28.499 131.5L38.249 104H-0.000976562V0Z"/>
</mask>
<path d="M-0.000976562 0V-4.4H-4.40098V0H-0.000976562ZM246.999 0H251.399V-4.4H246.999V0ZM246.999 104V108.4H251.399V104H246.999ZM-0.000976562 104H-4.40098V108.4H-0.000976562V104ZM60.999 104V99.6H59.3873L58.1569 100.641L60.999 104ZM38.249 104L42.3961 105.47L44.4774 99.6H38.249V104ZM28.499 131.5L24.352 130.03L31.3412 134.859L28.499 131.5ZM-0.000976562 4.4H246.999V-4.4H-0.000976562V4.4ZM242.599 0V104H251.399V0H242.599ZM4.39902 104V0H-4.40098V104H4.39902ZM246.999 99.6H60.999V108.4H246.999V99.6ZM38.249 99.6H-0.000976562V108.4H38.249V99.6ZM58.1569 100.641L25.6569 128.141L31.3412 134.859L63.8412 107.359L58.1569 100.641ZM32.6461 132.97L42.3961 105.47L34.102 102.53L24.352 130.03L32.6461 132.97Z" fill="#72ECF8" mask="url(#path-1-inside-1_24_267)"/>
</svg>
