<svg width="1340" height="664" viewBox="0 0 1340 664" fill="none" xmlns="http://www.w3.org/2000/svg">
    <path d="M11.7662 164.255C16.3893 164.255 20.1561 167.904 20.1561 172.427C20.1561 176.951 16.3893 180.599 11.7662 180.599C7.143 180.599 3.37623 176.951 3.37623 172.427C3.37623 167.904 7.143 164.255 11.7662 164.255Z" fill="#79D5F9" stroke="#A5CBEA" stroke-width="0.798318"/>
    <path d="M17.6769 172.428C17.6769 169.26 15.0357 166.683 11.7659 166.683C8.49606 166.683 5.85485 169.26 5.85485 172.428C5.85485 175.595 8.49607 178.172 11.7659 178.172C15.0357 178.172 17.6769 175.595 17.6769 172.428Z" fill="#6AEDF9" stroke="#98C4E7" stroke-width="0.399159"/>
    <path d="M22.9182 172.427C22.9182 166.46 17.9408 161.595 11.7658 161.595C5.59077 161.595 0.613386 166.46 0.613387 172.427C0.613387 178.394 5.59077 183.259 11.7658 183.259C17.9408 183.259 22.9182 178.394 22.9182 172.427Z" stroke="#82BCEA" stroke-width="1.19748"/>
    <path d="M12.0103 4.25622C16.6335 4.25622 20.4002 7.90464 20.4002 12.4283C20.4002 16.9519 16.6335 20.6003 12.0103 20.6003C7.38714 20.6003 3.62037 16.9519 3.62037 12.4283C3.62037 7.90464 7.38714 4.25622 12.0103 4.25622Z" fill="#79D5F9" stroke="#A5CBEA" stroke-width="0.798318"/>
    <path d="M17.92 12.4281C17.92 9.26071 15.2788 6.68369 12.009 6.68369C8.73923 6.68369 6.09802 9.26071 6.09802 12.4281C6.09802 15.5955 8.73923 18.1725 12.009 18.1725C15.2788 18.1725 17.92 15.5955 17.92 12.4281Z" fill="#6AEDF9" stroke="#98C4E7" stroke-width="0.399159"/>
    <path d="M23.1623 12.4284C23.1623 6.46155 18.1849 1.59641 12.0099 1.59641C5.83491 1.59641 0.857527 6.46155 0.857527 12.4284C0.857527 18.3952 5.83491 23.2604 12.0099 23.2604C18.1849 23.2604 23.1623 18.3952 23.1623 12.4284Z" stroke="#82BCEA" stroke-width="1.19748"/>
    <path d="M11.794 172.425L11.7939 12.426" stroke="#72ECF8" stroke-width="3.64813"/>
    <path d="M842.326 492.105C842.326 496.629 838.559 500.277 833.936 500.277C829.313 500.277 825.546 496.629 825.546 492.105C825.546 487.582 829.313 483.933 833.936 483.933C838.559 483.933 842.326 487.582 842.326 492.105Z" fill="#79D5F9" stroke="#A5CBEA" stroke-width="0.798318"/>
    <path d="M833.935 497.85C837.205 497.85 839.846 495.273 839.846 492.106C839.846 488.938 837.205 486.361 833.935 486.361C830.665 486.361 828.024 488.938 828.024 492.106C828.024 495.273 830.665 497.85 833.935 497.85Z" fill="#6AEDF9" stroke="#98C4E7" stroke-width="0.399159"/>
    <path d="M833.936 502.938C840.111 502.938 845.088 498.072 845.088 492.106C845.088 486.139 840.111 481.274 833.936 481.274C827.761 481.274 822.783 486.139 822.783 492.106C822.783 498.072 827.761 502.938 833.936 502.938Z" stroke="#82BCEA" stroke-width="1.19748"/>
    <path d="M1006.81 492.343C1006.81 496.866 1003.04 500.515 998.42 500.515C993.797 500.515 990.031 496.866 990.031 492.343C990.031 487.819 993.797 484.171 998.42 484.171C1003.04 484.171 1006.81 487.819 1006.81 492.343Z" fill="#79D5F9" stroke="#A5CBEA" stroke-width="0.798318"/>
    <path d="M998.419 498.087C1001.69 498.087 1004.33 495.51 1004.33 492.343C1004.33 489.176 1001.69 486.599 998.419 486.599C995.149 486.599 992.508 489.176 992.508 492.343C992.508 495.51 995.149 498.087 998.419 498.087Z" fill="#6AEDF9" stroke="#98C4E7" stroke-width="0.399159"/>
    <path d="M998.42 503.175C1004.6 503.175 1009.57 498.31 1009.57 492.343C1009.57 486.376 1004.6 481.511 998.42 481.511C992.245 481.511 987.268 486.376 987.268 492.343C987.268 498.31 992.245 503.175 998.42 503.175Z" stroke="#82BCEA" stroke-width="1.19748"/>
    <path d="M833.939 492.133L998.423 492.133" stroke="#72ECF8" stroke-width="3.64813"/>
    <path d="M1171.17 652.329C1171.17 656.853 1167.4 660.501 1162.78 660.501C1158.16 660.501 1154.39 656.853 1154.39 652.329C1154.39 647.806 1158.16 644.157 1162.78 644.157C1167.4 644.157 1171.17 647.806 1171.17 652.329Z" fill="#79D5F9" stroke="#A5CBEA" stroke-width="0.798318"/>
    <path d="M1162.78 658.074C1166.05 658.074 1168.69 655.497 1168.69 652.329C1168.69 649.162 1166.05 646.585 1162.78 646.585C1159.51 646.585 1156.87 649.162 1156.87 652.329C1156.87 655.497 1159.51 658.074 1162.78 658.074Z" fill="#6AEDF9" stroke="#98C4E7" stroke-width="0.399159"/>
    <path d="M1162.78 663.162C1168.95 663.162 1173.93 658.296 1173.93 652.33C1173.93 646.363 1168.95 641.498 1162.78 641.498C1156.6 641.498 1151.63 646.363 1151.63 652.33C1151.63 658.296 1156.6 663.162 1162.78 663.162Z" stroke="#82BCEA" stroke-width="1.19748"/>
    <path d="M1335.65 652.567C1335.65 657.09 1331.89 660.739 1327.26 660.739C1322.64 660.739 1318.87 657.09 1318.87 652.567C1318.87 648.043 1322.64 644.395 1327.26 644.395C1331.89 644.395 1335.65 648.043 1335.65 652.567Z" fill="#79D5F9" stroke="#A5CBEA" stroke-width="0.798318"/>
    <path d="M1327.26 658.311C1330.53 658.311 1333.17 655.734 1333.17 652.567C1333.17 649.399 1330.53 646.822 1327.26 646.822C1323.99 646.822 1321.35 649.399 1321.35 652.567C1321.35 655.734 1323.99 658.311 1327.26 658.311Z" fill="#6AEDF9" stroke="#98C4E7" stroke-width="0.399159"/>
    <path d="M1327.26 663.399C1333.44 663.399 1338.42 658.534 1338.42 652.567C1338.42 646.6 1333.44 641.735 1327.26 641.735C1321.09 641.735 1316.11 646.6 1316.11 652.567C1316.11 658.534 1321.09 663.399 1327.26 663.399Z" stroke="#82BCEA" stroke-width="1.19748"/>
    <path d="M1162.78 652.357L1327.27 652.357" stroke="#72ECF8" stroke-width="3.64813"/>
    <path d="M998.171 643.524C1002.79 643.524 1006.56 647.172 1006.56 651.696C1006.56 656.219 1002.79 659.868 998.171 659.868C993.548 659.868 989.782 656.219 989.782 651.696C989.782 647.172 993.548 643.524 998.171 643.524Z" fill="#79D5F9" stroke="#A5CBEA" stroke-width="0.798318"/>
    <path d="M1004.08 651.696C1004.08 648.528 1001.44 645.951 998.17 645.951C994.9 645.951 992.259 648.528 992.259 651.696C992.259 654.863 994.9 657.44 998.17 657.44C1001.44 657.44 1004.08 654.863 1004.08 651.696Z" fill="#6AEDF9" stroke="#98C4E7" stroke-width="0.399159"/>
    <path d="M1009.32 651.696C1009.32 645.729 1004.35 640.864 998.171 640.864C991.996 640.864 987.019 645.729 987.019 651.696C987.019 657.662 991.996 662.528 998.171 662.528C1004.35 662.528 1009.32 657.662 1009.32 651.696Z" stroke="#82BCEA" stroke-width="1.19748"/>
    <path d="M998.415 483.525C1003.04 483.525 1006.8 487.173 1006.8 491.697C1006.8 496.22 1003.04 499.869 998.415 499.869C993.791 499.869 990.025 496.22 990.025 491.697C990.025 487.173 993.791 483.525 998.415 483.525Z" fill="#79D5F9" stroke="#A5CBEA" stroke-width="0.798318"/>
    <path d="M1004.32 491.696C1004.32 488.529 1001.68 485.952 998.413 485.952C995.144 485.952 992.502 488.529 992.502 491.696C992.502 494.864 995.144 497.441 998.413 497.441C1001.68 497.441 1004.32 494.864 1004.32 491.696Z" fill="#6AEDF9" stroke="#98C4E7" stroke-width="0.399159"/>
    <path d="M1009.57 491.696C1009.57 485.73 1004.59 480.864 998.414 480.864C992.239 480.864 987.262 485.73 987.262 491.696C987.262 497.663 992.239 502.528 998.414 502.528C1004.59 502.528 1009.57 497.663 1009.57 491.696Z" stroke="#82BCEA" stroke-width="1.19748"/>
    <path d="M998.2 651.693L998.2 491.694" stroke="#72ECF8" stroke-width="3.64813"/>
    <path d="M825.548 491.933C825.548 487.41 829.315 483.761 833.938 483.761C838.561 483.761 842.328 487.41 842.328 491.933C842.328 496.457 838.561 500.105 833.938 500.105C829.315 500.105 825.548 496.457 825.548 491.933Z" fill="#79D5F9" stroke="#A5CBEA" stroke-width="0.798318"/>
    <path d="M833.939 486.189C830.669 486.189 828.028 488.766 828.028 491.933C828.028 495.101 830.669 497.678 833.939 497.678C837.209 497.678 839.85 495.101 839.85 491.933C839.85 488.766 837.209 486.189 833.939 486.189Z" fill="#6AEDF9" stroke="#98C4E7" stroke-width="0.399159"/>
    <path d="M833.938 481.102C827.763 481.102 822.786 485.967 822.786 491.934C822.786 497.9 827.763 502.766 833.938 502.766C840.113 502.766 845.091 497.9 845.091 491.934C845.091 485.967 840.113 481.102 833.938 481.102Z" stroke="#82BCEA" stroke-width="1.19748"/>
    <path d="M661.067 491.696C661.067 487.173 664.833 483.524 669.456 483.524C674.08 483.524 677.846 487.173 677.846 491.696C677.846 496.22 674.08 499.868 669.456 499.868C664.833 499.868 661.067 496.22 661.067 491.696Z" fill="#79D5F9" stroke="#A5CBEA" stroke-width="0.798318"/>
    <path d="M669.458 485.952C666.188 485.952 663.547 488.529 663.547 491.696C663.547 494.864 666.188 497.441 669.458 497.441C672.728 497.441 675.369 494.864 675.369 491.696C675.369 488.529 672.728 485.952 669.458 485.952Z" fill="#6AEDF9" stroke="#98C4E7" stroke-width="0.399159"/>
    <path d="M669.457 480.864C663.282 480.864 658.304 485.73 658.304 491.696C658.304 497.663 663.282 502.528 669.457 502.528C675.632 502.528 680.609 497.663 680.609 491.696C680.609 485.73 675.632 480.864 669.457 480.864Z" stroke="#82BCEA" stroke-width="1.19748"/>
    <path d="M833.936 491.906L669.452 491.906" stroke="#72ECF8" stroke-width="3.64813"/>
    <path d="M1154.39 652.158C1154.39 647.634 1158.16 643.985 1162.78 643.985C1167.41 643.985 1171.17 647.634 1171.17 652.158C1171.17 656.681 1167.41 660.33 1162.78 660.33C1158.16 660.33 1154.39 656.681 1154.39 652.158Z" fill="#79D5F9" stroke="#A5CBEA" stroke-width="0.798318"/>
    <path d="M1162.78 646.413C1159.51 646.413 1156.87 648.99 1156.87 652.158C1156.87 655.325 1159.51 657.902 1162.78 657.902C1166.05 657.902 1168.69 655.325 1168.69 652.158C1168.69 648.99 1166.05 646.413 1162.78 646.413Z" fill="#6AEDF9" stroke="#98C4E7" stroke-width="0.399159"/>
    <path d="M1162.78 641.326C1156.61 641.326 1151.63 646.191 1151.63 652.158C1151.63 658.124 1156.61 662.99 1162.78 662.99C1168.96 662.99 1173.94 658.124 1173.94 652.158C1173.94 646.191 1168.96 641.326 1162.78 641.326Z" stroke="#82BCEA" stroke-width="1.19748"/>
    <path d="M989.91 651.92C989.91 647.397 993.677 643.748 998.3 643.748C1002.92 643.748 1006.69 647.397 1006.69 651.92C1006.69 656.444 1002.92 660.093 998.3 660.093C993.677 660.093 989.91 656.444 989.91 651.92Z" fill="#79D5F9" stroke="#A5CBEA" stroke-width="0.798318"/>
    <path d="M998.302 646.176C995.032 646.176 992.391 648.753 992.391 651.921C992.391 655.088 995.032 657.665 998.302 657.665C1001.57 657.665 1004.21 655.088 1004.21 651.921C1004.21 648.753 1001.57 646.176 998.302 646.176Z" fill="#6AEDF9" stroke="#98C4E7" stroke-width="0.399159"/>
    <path d="M998.301 641.088C992.126 641.088 987.148 645.954 987.148 651.92C987.148 657.887 992.126 662.752 998.301 662.752C1004.48 662.752 1009.45 657.887 1009.45 651.92C1009.45 645.954 1004.48 641.088 998.301 641.088Z" stroke="#82BCEA" stroke-width="1.19748"/>
    <path d="M1162.78 652.13L998.296 652.13" stroke="#72ECF8" stroke-width="3.64813"/>
    <path d="M513.779 332.31C513.779 336.834 510.012 340.483 505.389 340.483C500.766 340.483 496.999 336.834 496.999 332.31C496.999 327.787 500.766 324.138 505.389 324.138C510.012 324.138 513.779 327.787 513.779 332.31Z" fill="#79D5F9" stroke="#A5CBEA" stroke-width="0.798318"/>
    <path d="M505.388 338.055C508.658 338.055 511.299 335.478 511.299 332.31C511.299 329.143 508.658 326.566 505.388 326.566C502.118 326.566 499.477 329.143 499.477 332.31C499.477 335.478 502.118 338.055 505.388 338.055Z" fill="#6AEDF9" stroke="#98C4E7" stroke-width="0.399159"/>
    <path d="M505.389 343.143C511.564 343.143 516.541 338.277 516.541 332.311C516.541 326.344 511.564 321.479 505.389 321.479C499.214 321.479 494.236 326.344 494.236 332.311C494.236 338.277 499.214 343.143 505.389 343.143Z" stroke="#82BCEA" stroke-width="1.19748"/>
    <path d="M678.262 332.548C678.262 337.071 674.495 340.72 669.872 340.72C665.248 340.72 661.482 337.071 661.482 332.548C661.482 328.024 665.248 324.375 669.872 324.375C674.495 324.375 678.262 328.024 678.262 332.548Z" fill="#79D5F9" stroke="#A5CBEA" stroke-width="0.798318"/>
    <path d="M669.87 338.292C673.14 338.292 675.781 335.715 675.781 332.548C675.781 329.38 673.14 326.803 669.87 326.803C666.601 326.803 663.959 329.38 663.959 332.548C663.959 335.715 666.601 338.292 669.87 338.292Z" fill="#6AEDF9" stroke="#98C4E7" stroke-width="0.399159"/>
    <path d="M669.871 343.38C676.046 343.38 681.024 338.515 681.024 332.548C681.024 326.581 676.046 321.716 669.871 321.716C663.696 321.716 658.719 326.581 658.719 332.548C658.719 338.515 663.696 343.38 669.871 343.38Z" stroke="#82BCEA" stroke-width="1.19748"/>
    <path d="M505.393 332.338L669.876 332.338" stroke="#72ECF8" stroke-width="3.64813"/>
    <path d="M669.63 483.728C674.254 483.728 678.02 487.377 678.02 491.9C678.02 496.424 674.254 500.072 669.63 500.072C665.007 500.072 661.24 496.424 661.24 491.9C661.24 487.377 665.007 483.728 669.63 483.728Z" fill="#79D5F9" stroke="#A5CBEA" stroke-width="0.798318"/>
    <path d="M675.54 491.9C675.54 488.733 672.899 486.156 669.629 486.156C666.359 486.156 663.718 488.733 663.718 491.9C663.718 495.068 666.359 497.645 669.629 497.645C672.899 497.645 675.54 495.068 675.54 491.9Z" fill="#6AEDF9" stroke="#98C4E7" stroke-width="0.399159"/>
    <path d="M680.782 491.9C680.782 485.933 675.805 481.068 669.63 481.068C663.455 481.068 658.478 485.933 658.478 491.9C658.478 497.867 663.455 502.732 669.63 502.732C675.805 502.732 680.782 497.867 680.782 491.9Z" stroke="#82BCEA" stroke-width="1.19748"/>
    <path d="M669.875 323.73C674.498 323.73 678.264 327.378 678.264 331.902C678.264 336.425 674.498 340.074 669.875 340.074C665.251 340.074 661.485 336.425 661.485 331.902C661.485 327.378 665.251 323.73 669.875 323.73Z" fill="#79D5F9" stroke="#A5CBEA" stroke-width="0.798318"/>
    <path d="M675.784 331.901C675.784 328.734 673.143 326.157 669.873 326.157C666.603 326.157 663.962 328.734 663.962 331.901C663.962 335.069 666.603 337.646 669.873 337.646C673.143 337.646 675.784 335.069 675.784 331.901Z" fill="#6AEDF9" stroke="#98C4E7" stroke-width="0.399159"/>
    <path d="M681.027 331.902C681.027 325.935 676.049 321.07 669.874 321.07C663.699 321.07 658.722 325.935 658.722 331.902C658.722 337.868 663.699 342.734 669.874 342.734C676.049 342.734 681.027 337.868 681.027 331.902Z" stroke="#82BCEA" stroke-width="1.19748"/>
    <path d="M669.658 491.898L669.658 331.899" stroke="#72ECF8" stroke-width="3.64813"/>
    <path d="M497.003 332.139C497.003 327.615 500.77 323.967 505.393 323.967C510.016 323.967 513.783 327.615 513.783 332.139C513.783 336.663 510.016 340.311 505.393 340.311C500.77 340.311 497.003 336.663 497.003 332.139Z" fill="#79D5F9" stroke="#A5CBEA" stroke-width="0.798318"/>
    <path d="M505.394 326.394C502.124 326.394 499.483 328.971 499.483 332.139C499.483 335.306 502.124 337.883 505.394 337.883C508.664 337.883 511.305 335.306 511.305 332.139C511.305 328.971 508.664 326.394 505.394 326.394Z" fill="#6AEDF9" stroke="#98C4E7" stroke-width="0.399159"/>
    <path d="M505.393 321.307C499.218 321.307 494.241 326.172 494.241 332.139C494.241 338.106 499.218 342.971 505.393 342.971C511.568 342.971 516.546 338.106 516.546 332.139C516.546 326.172 511.568 321.307 505.393 321.307Z" stroke="#82BCEA" stroke-width="1.19748"/>
    <path d="M332.519 331.902C332.519 327.378 336.285 323.73 340.909 323.73C345.532 323.73 349.299 327.378 349.299 331.902C349.299 336.425 345.532 340.074 340.909 340.074C336.285 340.074 332.519 336.425 332.519 331.902Z" fill="#79D5F9" stroke="#A5CBEA" stroke-width="0.798318"/>
    <path d="M340.91 326.157C337.64 326.157 334.999 328.734 334.999 331.902C334.999 335.069 337.64 337.646 340.91 337.646C344.18 337.646 346.821 335.069 346.821 331.902C346.821 328.734 344.18 326.157 340.91 326.157Z" fill="#6AEDF9" stroke="#98C4E7" stroke-width="0.399159"/>
    <path d="M340.909 321.07C334.734 321.07 329.757 325.935 329.757 331.902C329.757 337.869 334.734 342.734 340.909 342.734C347.084 342.734 352.061 337.869 352.061 331.902C352.061 325.935 347.084 321.07 340.909 321.07Z" stroke="#82BCEA" stroke-width="1.19748"/>
    <path d="M505.39 332.111L340.906 332.111" stroke="#72ECF8" stroke-width="3.64813"/>
    <path d="M184.637 172.574C184.637 177.098 180.87 180.746 176.247 180.746C171.623 180.746 167.857 177.098 167.857 172.574C167.857 168.05 171.623 164.402 176.247 164.402C180.87 164.402 184.637 168.05 184.637 172.574Z" fill="#79D5F9" stroke="#A5CBEA" stroke-width="0.798318"/>
    <path d="M176.245 178.319C179.515 178.319 182.156 175.741 182.156 172.574C182.156 169.407 179.515 166.83 176.245 166.83C172.976 166.83 170.334 169.407 170.334 172.574C170.334 175.741 172.976 178.319 176.245 178.319Z" fill="#6AEDF9" stroke="#98C4E7" stroke-width="0.399159"/>
    <path d="M176.246 183.406C182.421 183.406 187.399 178.541 187.399 172.574C187.399 166.607 182.421 161.742 176.246 161.742C170.071 161.742 165.094 166.607 165.094 172.574C165.094 178.541 170.071 183.406 176.246 183.406Z" stroke="#82BCEA" stroke-width="1.19748"/>
    <path d="M349.119 172.811C349.119 177.335 345.352 180.983 340.729 180.983C336.106 180.983 332.339 177.335 332.339 172.811C332.339 168.288 336.106 164.639 340.729 164.639C345.352 164.639 349.119 168.288 349.119 172.811Z" fill="#79D5F9" stroke="#A5CBEA" stroke-width="0.798318"/>
    <path d="M340.728 178.556C343.998 178.556 346.639 175.979 346.639 172.811C346.639 169.644 343.998 167.067 340.728 167.067C337.458 167.067 334.817 169.644 334.817 172.811C334.817 175.979 337.458 178.556 340.728 178.556Z" fill="#6AEDF9" stroke="#98C4E7" stroke-width="0.399159"/>
    <path d="M340.729 183.643C346.904 183.643 351.881 178.778 351.881 172.811C351.881 166.844 346.904 161.979 340.729 161.979C334.554 161.979 329.576 166.844 329.576 172.811C329.576 178.778 334.554 183.643 340.729 183.643Z" stroke="#82BCEA" stroke-width="1.19748"/>
    <path d="M176.249 172.602L340.733 172.602" stroke="#72ECF8" stroke-width="3.64813"/>
    <path d="M340.487 323.992C345.11 323.992 348.877 327.64 348.877 332.164C348.877 336.688 345.11 340.336 340.487 340.336C335.864 340.336 332.097 336.688 332.097 332.164C332.097 327.64 335.864 323.992 340.487 323.992Z" fill="#79D5F9" stroke="#A5CBEA" stroke-width="0.798318"/>
    <path d="M346.397 332.163C346.397 328.996 343.755 326.419 340.486 326.419C337.216 326.419 334.575 328.996 334.575 332.163C334.575 335.331 337.216 337.908 340.486 337.908C343.755 337.908 346.397 335.331 346.397 332.163Z" fill="#6AEDF9" stroke="#98C4E7" stroke-width="0.399159"/>
    <path d="M351.639 332.164C351.639 326.197 346.661 321.332 340.486 321.332C334.311 321.332 329.334 326.197 329.334 332.164C329.334 338.131 334.311 342.996 340.486 342.996C346.661 342.996 351.639 338.131 351.639 332.164Z" stroke="#82BCEA" stroke-width="1.19748"/>
    <path d="M340.731 163.993C345.354 163.993 349.121 167.641 349.121 172.165C349.121 176.689 345.354 180.337 340.731 180.337C336.108 180.337 332.341 176.689 332.341 172.165C332.341 167.641 336.108 163.993 340.731 163.993Z" fill="#79D5F9" stroke="#A5CBEA" stroke-width="0.798318"/>
    <path d="M346.641 172.165C346.641 168.997 344 166.42 340.73 166.42C337.46 166.42 334.819 168.997 334.819 172.165C334.819 175.332 337.46 177.909 340.73 177.909C344 177.909 346.641 175.332 346.641 172.165Z" fill="#6AEDF9" stroke="#98C4E7" stroke-width="0.399159"/>
    <path d="M351.883 172.165C351.883 166.198 346.906 161.333 340.731 161.333C334.556 161.333 329.578 166.198 329.578 172.165C329.578 178.132 334.556 182.997 340.731 182.997C346.906 182.997 351.883 178.132 351.883 172.165Z" stroke="#82BCEA" stroke-width="1.19748"/>
    <path d="M340.517 332.162L340.517 172.163" stroke="#72ECF8" stroke-width="3.64813"/>
    <path d="M167.859 172.402C167.859 167.879 171.625 164.23 176.248 164.23C180.872 164.23 184.638 167.879 184.638 172.402C184.638 176.926 180.872 180.574 176.248 180.574C171.625 180.574 167.859 176.926 167.859 172.402Z" fill="#79D5F9" stroke="#A5CBEA" stroke-width="0.798318"/>
    <path d="M176.25 166.658C172.98 166.658 170.339 169.235 170.339 172.402C170.339 175.569 172.98 178.146 176.25 178.146C179.52 178.146 182.161 175.569 182.161 172.402C182.161 169.235 179.52 166.658 176.25 166.658Z" fill="#6AEDF9" stroke="#98C4E7" stroke-width="0.399159"/>
    <path d="M176.249 161.57C170.074 161.57 165.096 166.435 165.096 172.402C165.096 178.369 170.074 183.234 176.249 183.234C182.424 183.234 187.401 178.369 187.401 172.402C187.401 166.435 182.424 161.57 176.249 161.57Z" stroke="#82BCEA" stroke-width="1.19748"/>
    <path d="M3.37516 172.165C3.37516 167.641 7.14193 163.993 11.7651 163.993C16.3882 163.993 20.155 167.641 20.155 172.165C20.155 176.688 16.3882 180.337 11.7651 180.337C7.14193 180.337 3.37516 176.688 3.37516 172.165Z" fill="#79D5F9" stroke="#A5CBEA" stroke-width="0.798318"/>
    <path d="M11.7664 166.42C8.49657 166.42 5.85535 168.997 5.85535 172.165C5.85535 175.332 8.49657 177.909 11.7664 177.909C15.0362 177.909 17.6774 175.332 17.6774 172.165C17.6774 168.997 15.0362 166.42 11.7664 166.42Z" fill="#6AEDF9" stroke="#98C4E7" stroke-width="0.399159"/>
    <path d="M11.7655 161.333C5.59046 161.333 0.613072 166.198 0.613072 172.165C0.613073 178.132 5.59046 182.997 11.7655 182.997C17.9405 182.997 22.9179 178.132 22.9179 172.165C22.9179 166.198 17.9405 161.333 11.7655 161.333Z" stroke="#82BCEA" stroke-width="1.19748"/>
    <path d="M176.245 172.375L11.7613 172.375" stroke="#72ECF8" stroke-width="3.64813"/>
</svg>
