<svg width="202" height="40" viewBox="0 0 202 40" fill="none" xmlns="http://www.w3.org/2000/svg">
<rect width="40" height="40" rx="8" fill="url(#paint0_linear_783_3308)"/>
<path d="M6.43105 31L13.627 10.14H18.555L25.751 31H21.607L20.123 26.52H12.059L10.547 31H6.43105ZM13.151 23.16H19.031L15.559 12.772H16.623L13.151 23.16ZM28.0726 31V10.14H31.8806V31H28.0726Z" fill="#ECEAFF"/>
<path d="M54.4906 31.5V10.64H58.2986V19.74H67.1746V10.64H71.0106V31.5H67.1746V23.1H58.2986V31.5H54.4906ZM79.3378 31.836C78.2738 31.836 77.3498 31.6587 76.5658 31.304C75.7818 30.9493 75.1751 30.4453 74.7458 29.792C74.3164 29.12 74.1018 28.3453 74.1018 27.468C74.1018 26.628 74.2884 25.8813 74.6618 25.228C75.0351 24.556 75.6138 23.996 76.3978 23.548C77.1818 23.1 78.1711 22.7827 79.3658 22.596L84.3498 21.784V24.584L80.0658 25.312C79.3378 25.4427 78.7964 25.676 78.4418 26.012C78.0871 26.348 77.9098 26.7867 77.9098 27.328C77.9098 27.8507 78.1058 28.2707 78.4978 28.588C78.9084 28.8867 79.4124 29.036 80.0098 29.036C80.7751 29.036 81.4471 28.8773 82.0258 28.56C82.6231 28.224 83.0804 27.7667 83.3978 27.188C83.7338 26.6093 83.9018 25.9747 83.9018 25.284V21.364C83.9018 20.7107 83.6404 20.1693 83.1178 19.74C82.6138 19.292 81.9418 19.068 81.1018 19.068C80.3178 19.068 79.6178 19.2827 79.0018 19.712C78.4044 20.1227 77.9658 20.6733 77.6858 21.364L74.6898 19.908C74.9884 19.1053 75.4551 18.4147 76.0898 17.836C76.7431 17.2387 77.5084 16.772 78.3858 16.436C79.2631 16.1 80.2151 15.932 81.2418 15.932C82.4924 15.932 83.5938 16.1653 84.5458 16.632C85.4978 17.08 86.2351 17.7147 86.7578 18.536C87.2991 19.3387 87.5698 20.2813 87.5698 21.364V31.5H84.0978V28.896L84.8818 28.84C84.4898 29.4933 84.0231 30.044 83.4818 30.492C82.9404 30.9213 82.3244 31.2573 81.6338 31.5C80.9431 31.724 80.1778 31.836 79.3378 31.836ZM98.296 31.836C96.784 31.836 95.4213 31.4907 94.208 30.8C93.0133 30.0907 92.0706 29.1387 91.38 27.944C90.6893 26.7307 90.344 25.368 90.344 23.856C90.344 22.344 90.6893 20.9907 91.38 19.796C92.0706 18.6013 93.0133 17.6587 94.208 16.968C95.4213 16.2773 96.784 15.932 98.296 15.932C99.3786 15.932 100.387 16.128 101.32 16.52C102.253 16.8933 103.056 17.416 103.728 18.088C104.419 18.7413 104.913 19.5253 105.212 20.44L101.992 21.84C101.712 21.0747 101.236 20.4587 100.564 19.992C99.9106 19.5253 99.1546 19.292 98.296 19.292C97.4933 19.292 96.7746 19.488 96.14 19.88C95.524 20.272 95.0386 20.8133 94.684 21.504C94.3293 22.1947 94.152 22.988 94.152 23.884C94.152 24.78 94.3293 25.5733 94.684 26.264C95.0386 26.9547 95.524 27.496 96.14 27.888C96.7746 28.28 97.4933 28.476 98.296 28.476C99.1733 28.476 99.9386 28.2427 100.592 27.776C101.245 27.3093 101.712 26.684 101.992 25.9L105.212 27.356C104.913 28.2147 104.428 28.9893 103.756 29.68C103.084 30.352 102.281 30.884 101.348 31.276C100.415 31.6493 99.3973 31.836 98.296 31.836ZM107.995 31.5V10.304H111.663V24.192L110.263 23.772L117.431 16.268H121.995L116.367 22.4L122.107 31.5H117.907L112.923 23.604L115.107 23.156L110.515 28.084L111.663 25.844V31.5H107.995ZM131.911 31.836C130.586 31.836 129.354 31.5933 128.215 31.108C127.095 30.6227 126.125 29.9507 125.303 29.092C124.501 28.2147 123.913 27.1973 123.539 26.04L126.703 24.668C127.207 25.8627 127.935 26.8053 128.887 27.496C129.839 28.168 130.913 28.504 132.107 28.504C132.779 28.504 133.358 28.4013 133.843 28.196C134.347 27.972 134.73 27.6733 134.991 27.3C135.271 26.9267 135.411 26.4787 135.411 25.956C135.411 25.34 135.225 24.836 134.851 24.444C134.497 24.0333 133.955 23.716 133.227 23.492L129.223 22.204C127.599 21.7 126.377 20.944 125.555 19.936C124.734 18.928 124.323 17.7427 124.323 16.38C124.323 15.1853 124.613 14.1307 125.191 13.216C125.789 12.3013 126.61 11.592 127.655 11.088C128.719 10.5653 129.933 10.304 131.295 10.304C132.546 10.304 133.694 10.528 134.739 10.976C135.785 11.4053 136.681 12.012 137.427 12.796C138.193 13.5613 138.762 14.4667 139.135 15.512L135.999 16.912C135.589 15.8667 134.973 15.064 134.151 14.504C133.33 13.9253 132.378 13.636 131.295 13.636C130.661 13.636 130.101 13.748 129.615 13.972C129.13 14.1773 128.747 14.476 128.467 14.868C128.206 15.2413 128.075 15.6893 128.075 16.212C128.075 16.7907 128.262 17.304 128.635 17.752C129.009 18.1813 129.578 18.5173 130.343 18.76L134.179 19.964C135.841 20.5053 137.082 21.252 137.903 22.204C138.743 23.156 139.163 24.332 139.163 25.732C139.163 26.9267 138.855 27.9813 138.239 28.896C137.623 29.8107 136.774 30.5293 135.691 31.052C134.609 31.5747 133.349 31.836 131.911 31.836ZM149.228 31.668C147.511 31.668 146.176 31.2013 145.224 30.268C144.291 29.316 143.824 27.9813 143.824 26.264V19.544H141.192V16.268H141.472C142.219 16.268 142.798 16.072 143.208 15.68C143.619 15.288 143.824 14.7187 143.824 13.972V12.796H147.492V16.268H150.992V19.544H147.492V26.068C147.492 26.572 147.576 27.0013 147.744 27.356C147.931 27.7107 148.211 27.9813 148.584 28.168C148.976 28.3547 149.471 28.448 150.068 28.448C150.199 28.448 150.348 28.4387 150.516 28.42C150.703 28.4013 150.88 28.3827 151.048 28.364V31.5C150.787 31.5373 150.488 31.5747 150.152 31.612C149.816 31.6493 149.508 31.668 149.228 31.668ZM158.416 31.836C157.352 31.836 156.428 31.6587 155.644 31.304C154.86 30.9493 154.253 30.4453 153.824 29.792C153.395 29.12 153.18 28.3453 153.18 27.468C153.18 26.628 153.367 25.8813 153.74 25.228C154.113 24.556 154.692 23.996 155.476 23.548C156.26 23.1 157.249 22.7827 158.444 22.596L163.428 21.784V24.584L159.144 25.312C158.416 25.4427 157.875 25.676 157.52 26.012C157.165 26.348 156.988 26.7867 156.988 27.328C156.988 27.8507 157.184 28.2707 157.576 28.588C157.987 28.8867 158.491 29.036 159.088 29.036C159.853 29.036 160.525 28.8773 161.104 28.56C161.701 28.224 162.159 27.7667 162.476 27.188C162.812 26.6093 162.98 25.9747 162.98 25.284V21.364C162.98 20.7107 162.719 20.1693 162.196 19.74C161.692 19.292 161.02 19.068 160.18 19.068C159.396 19.068 158.696 19.2827 158.08 19.712C157.483 20.1227 157.044 20.6733 156.764 21.364L153.768 19.908C154.067 19.1053 154.533 18.4147 155.168 17.836C155.821 17.2387 156.587 16.772 157.464 16.436C158.341 16.1 159.293 15.932 160.32 15.932C161.571 15.932 162.672 16.1653 163.624 16.632C164.576 17.08 165.313 17.7147 165.836 18.536C166.377 19.3387 166.648 20.2813 166.648 21.364V31.5H163.176V28.896L163.96 28.84C163.568 29.4933 163.101 30.044 162.56 30.492C162.019 30.9213 161.403 31.2573 160.712 31.5C160.021 31.724 159.256 31.836 158.416 31.836ZM177.374 31.836C175.862 31.836 174.499 31.4907 173.286 30.8C172.091 30.0907 171.149 29.1387 170.458 27.944C169.767 26.7307 169.422 25.368 169.422 23.856C169.422 22.344 169.767 20.9907 170.458 19.796C171.149 18.6013 172.091 17.6587 173.286 16.968C174.499 16.2773 175.862 15.932 177.374 15.932C178.457 15.932 179.465 16.128 180.398 16.52C181.331 16.8933 182.134 17.416 182.806 18.088C183.497 18.7413 183.991 19.5253 184.29 20.44L181.07 21.84C180.79 21.0747 180.314 20.4587 179.642 19.992C178.989 19.5253 178.233 19.292 177.374 19.292C176.571 19.292 175.853 19.488 175.218 19.88C174.602 20.272 174.117 20.8133 173.762 21.504C173.407 22.1947 173.23 22.988 173.23 23.884C173.23 24.78 173.407 25.5733 173.762 26.264C174.117 26.9547 174.602 27.496 175.218 27.888C175.853 28.28 176.571 28.476 177.374 28.476C178.251 28.476 179.017 28.2427 179.67 27.776C180.323 27.3093 180.79 26.684 181.07 25.9L184.29 27.356C183.991 28.2147 183.506 28.9893 182.834 29.68C182.162 30.352 181.359 30.884 180.426 31.276C179.493 31.6493 178.475 31.836 177.374 31.836ZM187.073 31.5V10.304H190.741V24.192L189.341 23.772L196.509 16.268H201.073L195.445 22.4L201.185 31.5H196.985L192.001 23.604L194.185 23.156L189.593 28.084L190.741 25.844V31.5H187.073Z" fill="url(#paint1_linear_783_3308)"/>
<defs>
<linearGradient id="paint0_linear_783_3308" x1="20" y1="0" x2="39.7495" y2="8.81242" gradientUnits="userSpaceOnUse">
<stop stop-color="#4D3BEF"/>
<stop offset="1" stop-color="#5A48FF"/>
</linearGradient>
<linearGradient id="paint1_linear_783_3308" x1="105.947" y1="-12.8125" x2="134.531" y2="52.7847" gradientUnits="userSpaceOnUse">
<stop stop-color="#5A48FF"/>
<stop offset="1" stop-color="#ECEAFF"/>
</linearGradient>
</defs>
</svg>
