<svg width="16" height="15" viewBox="0 0 16 15" fill="none" xmlns="http://www.w3.org/2000/svg">
<path fill-rule="evenodd" clip-rule="evenodd" d="M1.75 0.75C0.765625 0.75 0 1.54297 0 2.5V10.375C0 11.3594 0.765625 12.125 1.75 12.125H6.5625L6.26172 13H4.375C3.88281 13 3.5 13.4102 3.5 13.875C3.5 14.3672 3.88281 14.75 4.375 14.75H11.375C11.8398 14.75 12.25 14.3672 12.25 13.875C12.25 13.4102 11.8398 13 11.375 13H9.46094L9.1875 12.125H14C14.957 12.125 15.75 11.3594 15.75 10.375V2.5C15.75 1.54297 14.957 0.75 14 0.75H1.75ZM6.80859 5.58984L5.96094 6.4375L6.80859 7.28516C7.05469 7.55859 7.05469 7.96875 6.80859 8.21484C6.53516 8.48828 6.125 8.48828 5.87891 8.21484L4.56641 6.90234C4.29297 6.65625 4.29297 6.24609 4.56641 5.97266L5.87891 4.66016C6.125 4.41406 6.53516 4.41406 6.80859 4.66016C7.05469 4.93359 7.05469 5.34375 6.80859 5.58984ZM9.87109 4.66016L11.1836 5.97266C11.4297 6.24609 11.4297 6.65625 11.1836 6.90234L9.87109 8.21484C9.59766 8.48828 9.1875 8.48828 8.94141 8.21484C8.66797 7.96875 8.66797 7.55859 8.94141 7.28516L9.78906 6.4375L8.94141 5.58984C8.66797 5.34375 8.66797 4.93359 8.94141 4.6875C9.1875 4.41406 9.59766 4.41406 9.87109 4.6875V4.66016Z" fill="#191D24"/>
</svg>
