<svg width="16" height="16" viewBox="0 0 16 16" fill="none" xmlns="http://www.w3.org/2000/svg">
<path d="M12.8299 0.321406C12.9083 0.183229 13.1074 0.183229 13.1858 0.321406L13.8551 1.50078C14.0114 1.77624 14.2394 2.00423 14.5149 2.16055L15.6943 2.82983C15.8324 2.90825 15.8324 3.10736 15.6943 3.18577L14.5149 3.85506C14.2394 4.01138 14.0114 4.23937 13.8551 4.51482L13.1858 5.6942C13.1074 5.83238 12.9083 5.83238 12.8299 5.6942L12.1606 4.51482C12.0043 4.23937 11.7763 4.01138 11.5008 3.85506L10.3215 3.18577C10.1833 3.10736 10.1833 2.90825 10.3215 2.82983L11.5008 2.16055C11.7763 2.00423 12.0043 1.77624 12.1606 1.50078L12.8299 0.321406Z" fill="#2F2B43"/>
<path d="M6.04143 2.92829C6.20908 2.63287 6.63477 2.63287 6.80243 2.9283L8.23338 5.44983C8.56759 6.03876 9.05504 6.5262 9.64397 6.86041L12.1655 8.29137C12.4609 8.45902 12.4609 8.88471 12.1655 9.05237L9.64397 10.4833C9.05504 10.8175 8.56759 11.305 8.23338 11.8939L6.80243 14.4154C6.63477 14.7109 6.20908 14.7109 6.04143 14.4154L4.61048 11.8939C4.27626 11.305 3.78882 10.8175 3.19989 10.4833L0.678356 9.05237C0.382931 8.88471 0.382931 8.45902 0.678356 8.29137L3.19989 6.86041C3.78882 6.5262 4.27626 6.03876 4.61048 5.44983L6.04143 2.92829Z" fill="#2F2B43"/>
<path d="M13.8913 11.743C13.8325 11.6394 13.6832 11.6394 13.6244 11.743L13.1224 12.6275C13.0052 12.8341 12.8342 13.0051 12.6276 13.1223L11.7431 13.6243C11.6394 13.6831 11.6394 13.8325 11.7431 13.8913L12.6276 14.3932C12.8342 14.5105 13.0052 14.6815 13.1224 14.8881L13.6244 15.7726C13.6832 15.8762 13.8325 15.8762 13.8913 15.7726L14.3933 14.8881C14.5105 14.6815 14.6815 14.5105 14.8881 14.3932L15.7727 13.8913C15.8763 13.8325 15.8763 13.6831 15.7727 13.6243L14.8881 13.1223C14.6815 13.0051 14.5105 12.8341 14.3933 12.6275L13.8913 11.743Z" fill="#2F2B43"/>
</svg>
