<svg width="62" height="64" viewBox="0 0 62 64" fill="none" xmlns="http://www.w3.org/2000/svg">
<path d="M49.8193 1.28562C50.133 0.732916 50.9294 0.732917 51.2431 1.28563L53.9202 6.00313C54.5455 7.10495 55.4575 8.01691 56.5593 8.64218L61.2768 11.3193C61.8295 11.633 61.8295 12.4294 61.2768 12.7431L56.5593 15.4202C55.4575 16.0455 54.5455 16.9575 53.9202 18.0593L51.2431 22.7768C50.9294 23.3295 50.133 23.3295 49.8193 22.7768L47.1422 18.0593C46.5169 16.9575 45.605 16.0455 44.5031 15.4202L39.7856 12.7431C39.2329 12.4294 39.2329 11.633 39.7856 11.3193L44.5031 8.64218C45.605 8.01691 46.5169 7.10495 47.1422 6.00313L49.8193 1.28562Z" fill="white"/>
<path d="M22.6655 11.7132C23.3361 10.5315 25.0389 10.5315 25.7095 11.7132L31.4333 21.7993C32.7701 24.155 34.7199 26.1048 37.0756 27.4417L47.1617 33.1655C48.3434 33.8361 48.3434 35.5389 47.1617 36.2095L37.0756 41.9333C34.7199 43.2701 32.7701 45.2199 31.4333 47.5756L25.7095 57.6617C25.0389 58.8434 23.3361 58.8434 22.6655 57.6617L16.9417 47.5756C15.6048 45.2199 13.655 43.2701 11.2993 41.9333L1.21318 36.2095C0.0314785 35.5389 0.0314794 33.8361 1.21318 33.1655L11.2993 27.4417C13.655 26.1048 15.6048 24.155 16.9417 21.7993L22.6655 11.7132Z" fill="white"/>
<path d="M54.0651 46.972C53.8299 46.5574 53.2326 46.5574 52.9973 46.972L50.9895 50.5101C50.5205 51.3365 49.8365 52.0204 49.0102 52.4894L45.472 54.4973C45.0575 54.7325 45.0575 55.3298 45.472 55.5651L49.0102 57.5729C49.8365 58.0419 50.5205 58.7258 50.9894 59.5522L52.9973 63.0903C53.2326 63.5049 53.8299 63.5049 54.0651 63.0903L56.073 59.5522C56.5419 58.7258 57.2259 58.0419 58.0523 57.5729L61.5904 55.5651C62.0049 55.3298 62.0049 54.7325 61.5904 54.4973L58.0523 52.4894C57.2259 52.0204 56.5419 51.3365 56.073 50.5101L54.0651 46.972Z" fill="white"/>
</svg>
