<svg width="64" height="56" viewBox="0 0 64 56" fill="none" xmlns="http://www.w3.org/2000/svg">
<path fill-rule="evenodd" clip-rule="evenodd" d="M7.5 0C3.5625 0 0.5 3.17188 0.5 7V38.5C0.5 42.4375 3.5625 45.5 7.5 45.5H26.75L25.5469 49H18C16.0312 49 14.5 50.6406 14.5 52.5C14.5 54.4688 16.0312 56 18 56H46C47.8594 56 49.5 54.4688 49.5 52.5C49.5 50.6406 47.8594 49 46 49H38.3438L37.25 45.5H56.5C60.3281 45.5 63.5 42.4375 63.5 38.5V7C63.5 3.17188 60.3281 0 56.5 0H7.5ZM27.7344 19.3594L24.3438 22.75L27.7344 26.1406C28.7188 27.2344 28.7188 28.875 27.7344 29.8594C26.6406 30.9531 25 30.9531 24.0156 29.8594L18.7656 24.6094C17.6719 23.625 17.6719 21.9844 18.7656 20.8906L24.0156 15.6406C25 14.6562 26.6406 14.6562 27.7344 15.6406C28.7188 16.7344 28.7188 18.375 27.7344 19.3594ZM39.9844 15.6406L45.2344 20.8906C46.2188 21.9844 46.2188 23.625 45.2344 24.6094L39.9844 29.8594C38.8906 30.9531 37.25 30.9531 36.2656 29.8594C35.1719 28.875 35.1719 27.2344 36.2656 26.1406L39.6562 22.75L36.2656 19.3594C35.1719 18.375 35.1719 16.7344 36.2656 15.75C37.25 14.6562 38.8906 14.6562 39.9844 15.75V15.6406Z" fill="white"/>
</svg>
