<svg width="70" height="72" viewBox="0 0 70 72" fill="none" xmlns="http://www.w3.org/2000/svg">
<g id="Vector">
<path d="M25.7194 55.0549C26.4262 54.3183 27.3768 53.7252 28.1513 53.0509C29.1208 52.2114 30.066 51.3448 30.9922 50.4592C32.1215 49.3814 33.2101 48.2656 34.3123 47.1607C34.9135 46.5568 35.5229 45.961 36.1268 45.3625C39.2276 42.286 42.3284 39.2123 45.4293 36.1358C51.639 29.9775 57.8732 23.8463 64.0558 17.6582C67.8202 13.8912 69.4884 8.82967 69.6211 3.57588C69.7077 0.0688381 65.8215 1.04648 63.6686 1.3877C59.8122 1.99703 56.2104 3.77899 53.5076 6.62254C48.2836 12.1174 43.3467 17.9209 38.2798 23.5592C32.7714 29.6878 27.1087 35.7161 21.7412 41.9692C20.2165 43.743 18.7622 45.5764 17.4163 47.4911C16.8123 48.3496 18.2206 49.162 18.8191 48.3116C21.5164 44.4742 24.7282 41.0674 27.8561 37.5847L36.1349 28.3716C42.0035 21.8396 47.8747 15.3075 53.7432 8.77551C54.6775 7.73829 55.6254 6.7444 56.7628 5.913C59.6253 3.81961 62.8236 3.1507 66.2332 2.62532C66.9481 2.51429 67.7037 2.29764 67.942 3.27257C68.0503 3.7167 67.9258 4.21229 67.8797 4.65914C67.7389 6.01591 67.6414 7.38623 67.3246 8.71593C66.6394 11.6055 65.1635 14.2324 63.0755 16.3393C57.4913 21.9804 51.8015 27.524 46.1659 33.1136C40.6196 38.6165 35.1817 44.2711 29.5 49.6359C28.6821 50.4077 27.8507 51.166 27.0004 51.9026C26.2258 52.5743 25.2726 53.17 24.5685 53.9067C23.8643 54.6433 24.9909 55.8105 25.7167 55.0549H25.7194Z" fill="#4799A9"/>
<path d="M18.3343 47.1173C14.7812 46.5459 11.2282 45.9772 7.67237 45.4058C7.27969 45.3435 6.9845 45.4573 6.75431 45.7795C5.84437 47.0496 4.93444 48.3171 4.0218 49.5872C3.77536 49.9338 3.95138 50.5106 4.31428 50.6975C8.3494 52.8044 12.3818 54.9141 16.417 57.021C17.3431 57.5058 18.1664 56.103 17.2375 55.6182C13.2051 53.5113 9.16997 51.4016 5.13484 49.2947L5.42732 50.405C6.33726 49.1349 7.24719 47.8675 8.15983 46.5974L7.24177 46.9711C10.7949 47.5425 14.3479 48.1112 17.9037 48.6827C18.9274 48.8479 19.3661 47.2825 18.337 47.1146L18.3343 47.1173Z" fill="#4799A9"/>
<path d="M24.5712 53.9039C24.1324 54.3589 24.4601 55.1605 24.5712 55.694L25.3538 59.3879C25.7763 61.3892 26.2015 63.3933 26.6239 65.3946L26.8325 64.6038C25.6111 65.576 24.387 66.5483 23.1656 67.5205L24.4412 67.6857C22.1365 63.7616 19.8319 59.8348 17.5273 55.9107C16.9992 55.0089 15.5937 55.8267 16.1245 56.7312C18.4291 60.658 20.7337 64.5821 23.0384 68.5062C23.3281 68.9991 23.9104 68.991 24.3139 68.6714C25.5353 67.6992 26.7593 66.727 27.9807 65.7548C28.2109 65.5733 28.2461 65.2267 28.1892 64.964C27.4337 61.3974 26.6808 57.8307 25.9252 54.2641L25.7167 55.0549C26.4425 54.2993 25.2942 53.1484 24.5685 53.9039H24.5712Z" fill="#4799A9"/>
<path d="M48.6357 12.4369C44.6168 12.4748 40.5952 12.5127 36.5763 12.5507L37.1505 13.9372C37.86 13.1925 38.5668 12.4477 39.2764 11.703C39.5743 11.3916 39.6013 10.8635 39.2764 10.5548C38.2852 9.61232 37.2967 8.66989 36.3055 7.72746C35.9941 7.42956 35.466 7.40248 35.1573 7.72746C33.6543 9.3063 31.9183 10.812 30.5832 12.5317C30.5589 12.5642 30.3124 12.7673 30.3232 12.8052C30.2853 12.6563 31.0517 12.7673 30.7078 12.6048C30.3639 12.4423 29.4539 12.6157 29.0558 12.6211C27.9238 12.6319 26.7918 12.6427 25.6571 12.6536L26.2313 14.0401C27.0004 13.2304 27.7722 12.4207 28.5413 11.6109C28.8392 11.2995 28.8663 10.7714 28.5413 10.4627C27.5501 9.52025 26.5616 8.57781 25.5705 7.63538C25.259 7.33749 24.7309 7.3104 24.4222 7.63538C22.9246 9.20881 21.427 10.7795 19.9321 12.353C19.9023 12.3855 19.3607 12.9 19.3769 12.9352C19.228 12.6373 20.4223 12.7754 19.4474 12.7104C18.4724 12.6454 17.3838 12.7294 16.3682 12.7402L8.40086 12.8161C7.88902 12.8215 7.28781 12.7348 6.78139 12.8323C6.05019 12.9704 5.64397 13.7666 5.19984 14.3137C3.66432 16.2094 2.12881 18.1078 0.593291 20.0035C0.235817 20.4449 0.300812 21.2167 0.950765 21.3602C5.45169 22.3568 9.94991 23.3561 14.4508 24.3527L22.0282 26.0318C22.3126 26.0941 22.5996 26.1753 22.8894 26.2213C22.9923 26.2376 23.4825 26.392 23.06 26.2213C23.8264 26.5274 24.5657 27.0527 25.2888 27.4508C27.6828 28.7724 30.0795 30.0913 32.4735 31.4128C33.3889 31.9193 34.2094 30.5165 33.2941 30.01C31.1844 28.8455 29.0748 27.6837 26.9652 26.5192C25.7194 25.8314 24.4764 24.9106 23.0736 24.5992C17.706 23.4103 12.3385 22.2187 6.97367 21.0298C5.11047 20.6182 3.24998 20.2039 1.38678 19.7922L1.74425 21.149C3.08749 19.4889 4.43073 17.8288 5.77667 16.1687C5.91749 15.9927 7.42322 14.3949 7.34197 14.2351C7.5153 14.5845 6.32101 14.3705 7.17407 14.4491C7.57487 14.487 8.00276 14.4409 8.40357 14.4382L16.3709 14.3624C17.5706 14.3516 19.7317 14.7822 20.6904 13.9101C22.4236 12.3367 23.9591 10.4762 25.5732 8.78092H24.4249C25.4161 9.72336 26.4046 10.6658 27.3957 11.6082V10.46C26.6266 11.2697 25.8548 12.0794 25.0857 12.8892C24.6091 13.3902 24.9422 14.2839 25.6598 14.2757C26.8352 14.2649 28.0105 14.2541 29.1858 14.2432C30.0281 14.2351 30.9136 14.4111 31.5744 13.8451C33.286 12.3855 34.7538 10.5033 36.3082 8.873H35.16C36.1512 9.81543 37.1396 10.7579 38.1308 11.7003V10.552C37.4213 11.2968 36.7145 12.0415 36.0049 12.7863C35.5283 13.2873 35.8614 14.181 36.579 14.1728C40.5979 14.1349 44.6195 14.097 48.6384 14.0591C49.6837 14.0483 49.6865 12.4234 48.6384 12.4342L48.6357 12.4369Z" fill="#4799A9"/>
<path d="M57.4696 22.4299C57.6294 26.4461 57.7919 30.465 57.9517 34.4812C57.9788 35.1609 58.8345 35.5861 59.3383 35.0553L61.4641 32.8211H60.3159C61.3071 33.7635 62.2955 34.7059 63.2867 35.6484V34.5001C61.7241 36.1413 59.9801 37.712 58.5529 39.4723C58.0086 40.1439 58.2063 40.9076 58.2415 41.7444L58.3877 45.3923C58.4148 46.072 59.2705 46.4972 59.7743 45.9664C60.5434 45.1567 61.3152 44.3469 62.0843 43.5372H60.9361C61.9272 44.4796 62.9157 45.4221 63.9069 46.3645V45.2162C62.4093 46.7897 60.9117 48.3604 59.4168 49.9338C59.0133 50.3563 58.6666 50.6379 58.6206 51.2446C58.561 52.0543 58.6883 52.9263 58.7208 53.7388C58.8291 56.4361 58.9375 59.1334 59.0431 61.8307C59.0647 62.3506 58.8562 63.6885 59.1351 64.138C59.3274 64.4467 59.2245 63.5855 59.3708 63.6857C59.3653 63.683 59.192 63.8455 59.192 63.8455C58.8372 64.0134 58.4744 64.4874 58.1846 64.7473C56.3674 66.3749 54.5476 68.0025 52.7304 69.6274L54.0872 69.9849C52.8441 65.4542 51.6038 60.9234 50.3608 56.3954C49.6892 53.9446 49.0175 51.4937 48.3459 49.0428C47.9939 47.7592 47.3954 46.8438 46.6885 45.6956C45.2316 43.3368 43.7746 40.9753 42.3176 38.6165C41.7678 37.7282 40.3623 38.5434 40.9148 39.4371C42.1578 41.4519 43.4009 43.4641 44.6439 45.4789C45.2397 46.443 45.8328 47.4125 46.4313 48.3739C46.6425 48.7124 46.48 48.4037 46.5017 48.4633C46.5775 48.6637 46.6181 48.8858 46.675 49.0943C48.1293 54.4022 49.5862 59.7102 51.0405 65.0182C51.5334 66.8191 52.029 68.62 52.5219 70.4209C52.6898 71.0356 53.4318 71.1792 53.8786 70.7784C55.471 69.3539 57.0607 67.9294 58.6531 66.5076C59.2353 65.9877 60.0342 65.4704 60.5082 64.8475C60.8656 64.379 60.7492 63.8672 60.7275 63.3066L60.2861 52.2059C60.278 51.9703 60.3538 51.4937 60.2482 51.2798C60.2401 51.2608 60.259 51.1173 60.2428 51.1091C60.4973 51.1985 59.647 51.8106 60.1751 51.4964C60.584 51.2554 60.9631 50.6677 61.2881 50.3265L62.8995 48.6339C63.6198 47.8783 64.3375 47.1228 65.0578 46.3672C65.3557 46.0558 65.3828 45.5277 65.0578 45.2189C64.0667 44.2765 63.0782 43.3341 62.087 42.3916C61.7756 42.0938 61.2475 42.0667 60.9388 42.3916C60.1697 43.2014 59.3978 44.0111 58.6287 44.8208L60.0153 45.395L59.8853 42.129C59.8663 41.6334 59.9774 40.8751 59.8176 40.4066C59.647 39.9083 59.8013 40.8426 59.5928 40.7451C59.6091 40.7532 59.8582 40.4635 59.8663 40.458C61.5075 39.0173 62.932 37.2353 64.4404 35.6538C64.7383 35.3424 64.7654 34.8143 64.4404 34.5055C63.4492 33.5631 62.4607 32.6207 61.4696 31.6782C61.1581 31.3804 60.63 31.3533 60.3213 31.6782L58.1954 33.9125L59.582 34.4866C59.4222 30.4704 59.2597 26.4515 59.0999 22.4354C59.0593 21.3927 57.4344 21.3873 57.4751 22.4354L57.4696 22.4299Z" fill="#4799A9"/>
<path d="M7.39614 30.8523C8.33857 29.8611 9.281 28.8726 10.2234 27.8814C10.9438 27.1232 9.79826 25.9722 9.07518 26.7332C8.13275 27.7244 7.19032 28.7128 6.24789 29.704C5.52752 30.4623 6.67306 31.6133 7.39614 30.8523Z" fill="#4799A9"/>
<path d="M11.8158 37.5766C14.023 35.2584 16.2301 32.9402 18.4372 30.6221C19.1576 29.8638 18.012 28.7128 17.289 29.4738C15.0818 31.792 12.8747 34.1102 10.6676 36.4283C9.9472 37.1866 11.0927 38.3376 11.8158 37.5766Z" fill="#4799A9"/>
<path d="M43.9073 65.6058C44.8497 64.6146 45.7921 63.6262 46.7346 62.635C47.4549 61.8767 46.3094 60.7258 45.5863 61.4867C44.6439 62.4779 43.7015 63.4664 42.759 64.4576C42.0387 65.2159 43.1842 66.3668 43.9073 65.6058Z" fill="#4799A9"/>
<path d="M36.9744 61.5247C39.1816 59.2065 41.3887 56.8883 43.5958 54.5701C44.3162 53.8119 43.1707 52.6609 42.4476 53.4219C40.2405 55.7401 38.0333 58.0582 35.8262 60.3764C35.1058 61.1347 36.2514 62.2856 36.9744 61.5247Z" fill="#4799A9"/>
<path d="M57.2313 9.86147C58.5258 11.0937 59.823 12.3286 61.1175 13.5608C61.8758 14.2812 63.0267 13.1356 62.2658 12.4125C60.9713 11.1803 59.6741 9.94542 58.3796 8.71322C57.6213 7.99286 56.4703 9.1384 57.2313 9.86147Z" fill="#4799A9"/>
<path d="M25.7167 55.0549C24.9909 55.8105 23.8643 54.6433 24.5685 53.9067C25.2726 53.17 26.2258 52.5743 27.0004 51.9026C27.8507 51.166 28.6821 50.4077 29.5 49.6359C35.1817 44.2711 40.6196 38.6165 46.1659 33.1136C51.8015 27.524 57.4913 21.9804 63.0755 16.3393C65.1635 14.2324 66.6394 11.6055 67.3246 8.71593C67.6414 7.38623 67.7389 6.01591 67.8797 4.65914C67.9258 4.21229 68.0503 3.7167 67.942 3.27257C67.7037 2.29764 66.9481 2.51429 66.2332 2.62532C62.8236 3.1507 59.6253 3.81961 56.7628 5.913C55.6254 6.7444 54.6775 7.73829 53.7432 8.77551C47.8747 15.3075 42.0035 21.8396 36.1349 28.3716L27.8561 37.5847C24.7282 41.0674 21.5164 44.4742 18.8191 48.3116C18.2206 49.162 16.8123 48.3496 17.4163 47.4911C18.7622 45.5764 20.2165 43.743 21.7412 41.9692C27.1087 35.7161 32.7714 29.6878 38.2798 23.5592C43.3467 17.9209 48.2836 12.1174 53.5076 6.62254C56.2104 3.77899 59.8122 1.99703 63.6686 1.3877C65.8215 1.04648 69.7077 0.0688381 69.6211 3.57588C69.4884 8.82967 67.8201 13.8912 64.0558 17.6582C57.8732 23.8463 51.639 29.9775 45.4293 36.1358C42.3284 39.2123 39.2276 42.286 36.1268 45.3625C35.5229 45.961 34.9135 46.5568 34.3123 47.1607C33.2101 48.2656 32.1215 49.3814 30.9922 50.4592C30.066 51.3448 29.1208 52.2114 28.1513 53.0509C27.3768 53.7252 26.4262 54.3183 25.7194 55.0549H25.7167ZM25.7167 55.0549L25.9252 54.2641C26.6808 57.8307 27.4337 61.3974 28.1892 64.964C28.2461 65.2267 28.2109 65.5733 27.9807 65.7548C26.7593 66.727 25.5353 67.6992 24.3139 68.6714C23.9104 68.991 23.3281 68.9991 23.0384 68.5062C20.7337 64.5821 18.4291 60.658 16.1245 56.7312C15.5937 55.8267 16.9992 55.0089 17.5273 55.9107C19.8319 59.8348 22.1365 63.7616 24.4412 67.6857L23.1656 67.5205C24.387 66.5483 25.6111 65.576 26.8325 64.6038L26.6239 65.3946C26.2015 63.3933 25.7763 61.3892 25.3538 59.3879L24.5712 55.694C24.4601 55.1605 24.1324 54.3589 24.5712 53.9039H24.5685C25.2942 53.1484 26.4425 54.2993 25.7167 55.0549ZM18.3343 47.1173C14.7812 46.5459 11.2282 45.9772 7.67237 45.4058C7.27969 45.3435 6.9845 45.4573 6.75431 45.7795C5.84437 47.0496 4.93444 48.3171 4.0218 49.5872C3.77536 49.9338 3.95138 50.5106 4.31428 50.6975C8.3494 52.8044 12.3818 54.9141 16.417 57.021C17.3431 57.5058 18.1664 56.103 17.2375 55.6182C13.2051 53.5113 9.16997 51.4016 5.13484 49.2947L5.42732 50.405C6.33725 49.1349 7.24719 47.8675 8.15983 46.5974L7.24177 46.9711C10.7949 47.5425 14.3479 48.1112 17.9037 48.6827C18.9274 48.8479 19.3661 47.2825 18.337 47.1146L18.3343 47.1173ZM48.6357 12.4369C44.6168 12.4748 40.5952 12.5127 36.5763 12.5507L37.1505 13.9372C37.86 13.1925 38.5668 12.4477 39.2764 11.703C39.5743 11.3916 39.6013 10.8635 39.2764 10.5548C38.2852 9.61232 37.2967 8.66989 36.3055 7.72746C35.9941 7.42956 35.466 7.40248 35.1573 7.72746C33.6543 9.3063 31.9183 10.812 30.5832 12.5317C30.5589 12.5642 30.3124 12.7673 30.3232 12.8052C30.2853 12.6563 31.0517 12.7673 30.7078 12.6048C30.3639 12.4423 29.4539 12.6156 29.0558 12.6211C27.9238 12.6319 26.7918 12.6427 25.6571 12.6536L26.2313 14.0401C27.0004 13.2304 27.7722 12.4207 28.5413 11.6109C28.8392 11.2995 28.8663 10.7714 28.5413 10.4627C27.5501 9.52025 26.5616 8.57781 25.5705 7.63538C25.259 7.33749 24.7309 7.3104 24.4222 7.63538C22.9246 9.20881 21.427 10.7795 19.9321 12.353C19.9023 12.3855 19.3607 12.9 19.3769 12.9352C19.228 12.6373 20.4223 12.7754 19.4474 12.7104C18.4724 12.6454 17.3838 12.7294 16.3682 12.7402L8.40086 12.8161C7.88902 12.8215 7.28781 12.7348 6.78139 12.8323C6.05019 12.9704 5.64397 13.7666 5.19984 14.3137C3.66432 16.2094 2.12881 18.1078 0.593291 20.0035C0.235817 20.4449 0.300812 21.2167 0.950765 21.3602C5.45169 22.3568 9.94991 23.3561 14.4508 24.3527L22.0282 26.0318C22.3126 26.0941 22.5996 26.1753 22.8894 26.2213C22.9923 26.2376 23.4825 26.392 23.06 26.2213C23.8264 26.5274 24.5657 27.0527 25.2888 27.4508C27.6828 28.7724 30.0795 30.0913 32.4735 31.4128C33.3889 31.9193 34.2094 30.5165 33.2941 30.01C31.1844 28.8455 29.0748 27.6837 26.9652 26.5192C25.7194 25.8314 24.4764 24.9106 23.0736 24.5992C17.706 23.4103 12.3385 22.2187 6.97367 21.0298C5.11047 20.6182 3.24998 20.2039 1.38678 19.7922L1.74425 21.149C3.08749 19.4889 4.43073 17.8288 5.77667 16.1687C5.91749 15.9927 7.42322 14.3949 7.34197 14.2351C7.5153 14.5845 6.32101 14.3705 7.17407 14.4491C7.57488 14.487 8.00276 14.4409 8.40357 14.4382L16.3709 14.3624C17.5706 14.3516 19.7317 14.7822 20.6904 13.9101C22.4236 12.3367 23.9591 10.4762 25.5732 8.78092H24.4249C25.4161 9.72336 26.4046 10.6658 27.3957 11.6082V10.46C26.6266 11.2697 25.8548 12.0794 25.0857 12.8892C24.6091 13.3902 24.9422 14.2839 25.6598 14.2757C26.8352 14.2649 28.0105 14.2541 29.1858 14.2432C30.0281 14.2351 30.9136 14.4111 31.5744 13.8451C33.286 12.3855 34.7538 10.5033 36.3082 8.873H35.16C36.1512 9.81543 37.1396 10.7579 38.1308 11.7003V10.552C37.4213 11.2968 36.7145 12.0415 36.0049 12.7863C35.5283 13.2873 35.8614 14.181 36.579 14.1728C40.5979 14.1349 44.6195 14.097 48.6384 14.0591C49.6837 14.0483 49.6865 12.4234 48.6384 12.4342L48.6357 12.4369ZM57.4696 22.4299C57.6294 26.4461 57.7919 30.465 57.9517 34.4812C57.9788 35.1609 58.8345 35.5861 59.3383 35.0553L61.4641 32.8211H60.3159C61.3071 33.7635 62.2955 34.7059 63.2867 35.6484V34.5001C61.7241 36.1413 59.9801 37.712 58.5529 39.4723C58.0086 40.1439 58.2063 40.9076 58.2415 41.7444L58.3877 45.3923C58.4148 46.072 59.2706 46.4972 59.7743 45.9664C60.5434 45.1567 61.3152 44.3469 62.0843 43.5372H60.9361C61.9272 44.4796 62.9157 45.4221 63.9069 46.3645V45.2162C62.4093 46.7897 60.9117 48.3604 59.4168 49.9338C59.0133 50.3563 58.6666 50.6379 58.6206 51.2446C58.561 52.0543 58.6883 52.9263 58.7208 53.7388C58.8291 56.4361 58.9375 59.1334 59.0431 61.8307C59.0647 62.3506 58.8562 63.6885 59.1351 64.138C59.3274 64.4467 59.2245 63.5855 59.3708 63.6857C59.3653 63.683 59.192 63.8455 59.192 63.8455C58.8372 64.0134 58.4744 64.4874 58.1846 64.7473C56.3674 66.3749 54.5476 68.0025 52.7304 69.6274L54.0872 69.9849C52.8441 65.4542 51.6038 60.9234 50.3608 56.3954C49.6892 53.9446 49.0175 51.4937 48.3459 49.0428C47.9939 47.7592 47.3954 46.8438 46.6885 45.6956C45.2316 43.3368 43.7746 40.9753 42.3176 38.6165C41.7678 37.7282 40.3623 38.5434 40.9148 39.4371C42.1578 41.4519 43.4009 43.4641 44.6439 45.4789C45.2397 46.443 45.8328 47.4125 46.4313 48.3739C46.6425 48.7124 46.48 48.4037 46.5017 48.4633C46.5775 48.6637 46.6181 48.8858 46.675 49.0943C48.1293 54.4022 49.5862 59.7102 51.0405 65.0182C51.5334 66.8191 52.029 68.62 52.5219 70.4209C52.6898 71.0356 53.4318 71.1792 53.8786 70.7784C55.471 69.3539 57.0607 67.9294 58.6531 66.5076C59.2353 65.9877 60.0342 65.4704 60.5082 64.8475C60.8656 64.379 60.7492 63.8672 60.7275 63.3066L60.2861 52.2059C60.278 51.9703 60.3538 51.4937 60.2482 51.2798C60.2401 51.2608 60.259 51.1173 60.2428 51.1091C60.4973 51.1985 59.647 51.8106 60.1751 51.4964C60.584 51.2554 60.9631 50.6677 61.2881 50.3265L62.8995 48.6339C63.6198 47.8783 64.3375 47.1228 65.0578 46.3672C65.3557 46.0558 65.3828 45.5277 65.0578 45.2189C64.0667 44.2765 63.0782 43.3341 62.087 42.3916C61.7756 42.0937 61.2475 42.0667 60.9388 42.3916C60.1697 43.2014 59.3978 44.0111 58.6287 44.8208L60.0153 45.395L59.8853 42.129C59.8663 41.6334 59.9774 40.8751 59.8176 40.4066C59.647 39.9083 59.8013 40.8426 59.5928 40.7451C59.6091 40.7532 59.8582 40.4635 59.8663 40.458C61.5075 39.0173 62.932 37.2353 64.4404 35.6538C64.7383 35.3424 64.7654 34.8143 64.4404 34.5055C63.4492 33.5631 62.4607 32.6207 61.4696 31.6782C61.1581 31.3804 60.63 31.3533 60.3213 31.6782L58.1954 33.9125L59.582 34.4866C59.4222 30.4704 59.2597 26.4515 59.0999 22.4354C59.0593 21.3927 57.4344 21.3873 57.4751 22.4354L57.4696 22.4299ZM7.39614 30.8523C8.33857 29.8611 9.281 28.8726 10.2234 27.8814C10.9438 27.1232 9.79826 25.9722 9.07518 26.7332C8.13275 27.7244 7.19032 28.7128 6.24789 29.704C5.52752 30.4623 6.67306 31.6133 7.39614 30.8523ZM11.8158 37.5766C14.023 35.2584 16.2301 32.9402 18.4372 30.6221C19.1576 29.8638 18.012 28.7128 17.289 29.4738C15.0818 31.792 12.8747 34.1102 10.6676 36.4283C9.9472 37.1866 11.0927 38.3376 11.8158 37.5766ZM43.9073 65.6058C44.8497 64.6146 45.7921 63.6262 46.7346 62.635C47.4549 61.8767 46.3094 60.7258 45.5863 61.4867C44.6439 62.4779 43.7015 63.4664 42.759 64.4576C42.0387 65.2159 43.1842 66.3668 43.9073 65.6058ZM36.9744 61.5247C39.1816 59.2065 41.3887 56.8883 43.5958 54.5701C44.3162 53.8119 43.1707 52.6609 42.4476 53.4219C40.2405 55.7401 38.0333 58.0582 35.8262 60.3764C35.1058 61.1347 36.2514 62.2856 36.9744 61.5247ZM57.2313 9.86147C58.5258 11.0937 59.823 12.3286 61.1175 13.5608C61.8758 14.2812 63.0267 13.1356 62.2658 12.4125C60.9713 11.1803 59.6741 9.94542 58.3796 8.71322C57.6213 7.99285 56.4703 9.1384 57.2313 9.86147Z" stroke="#4799A9" stroke-width="0.5"/>
</g>
</svg>
