<svg width="76" height="70" viewBox="0 0 76 70" fill="none" xmlns="http://www.w3.org/2000/svg">
<g id="Layer_1" clip-path="url(#clip0_86_1343)">
<path id="Vector" d="M75.069 39.6754L72.9944 36.4609L64.5897 23.5195C63.769 22.1061 62.7925 21.5779 60.9953 21.5779H46.667L40.827 14.4575L39.0526 12.2575V8.78087H47.3395C47.993 8.78087 48.525 8.24893 48.525 7.5954V2.35575C48.525 1.70222 47.993 1.17028 47.3395 1.17028H39.0526V0.957499C39.0526 0.429355 38.5852 0 38.0077 0C37.4301 0 36.9628 0.429355 36.9628 0.957499V12.1055L35.063 14.4613L31.1798 19.188L29.204 21.5855H14.2412C14.188 21.5855 14.1348 21.5855 14.0816 21.5931C13.1811 21.7375 12.3642 22.2011 11.6537 22.9648C11.6157 23.0066 11.5815 23.0522 11.5511 23.0978L2.90318 36.4609L0.919794 39.6944C0.748812 39.9718 0.741213 40.3213 0.900796 40.6063C1.06038 40.8913 1.36055 41.0699 1.68731 41.0699H4.79538L4.78779 68.1002H2.44723C1.86589 68.1002 1.39474 68.5258 1.39474 69.0501C1.39474 69.5744 1.86589 70 2.44723 70H73.2908C73.8721 70 74.3432 69.5744 74.3432 69.0501C74.3432 68.5258 73.8721 68.1002 73.2908 68.1002H71.0946L71.1022 41.0585L74.3052 41.0661C74.6358 41.0661 74.9398 40.8875 75.0994 40.5949C75.2589 40.3061 75.2437 39.9528 75.0652 39.6754H75.069ZM39.0526 3.54123H45.8804C46.0324 3.54123 46.154 3.66281 46.154 3.8148V6.13635C46.154 6.28834 46.0324 6.40992 45.8804 6.40992H39.0526V3.54123ZM30.4047 23.8501C30.4275 23.8311 30.4503 23.8083 30.4731 23.7855L35.8001 17.3072L37.9355 14.7158L45.2193 23.5537L45.4093 23.7855C45.4093 23.7855 45.4207 23.8007 45.4283 23.8045L57.7124 38.7103L18.151 38.6951L30.4047 23.8463V23.8501ZM4.29764 38.6951L4.92077 37.7072L13.4737 24.496C13.77 24.1958 14.0626 24.0211 14.3742 23.9489H21.4718H27.2776L15.1037 38.6989H6.70278H4.29384L4.29764 38.6951ZM43.5741 68.0964H32.3273V69.6445C32.3273 69.4925 32.4489 69.3709 32.6008 69.3709H43.2967C43.4487 69.3709 43.5703 69.4925 43.5703 69.6445V68.0964H43.5741ZM45.945 68.0964C45.3374 68.0964 45.4131 68.0964 44.7596 68.0964H31.1418C30.4883 68.0964 30.8374 68.0964 29.9563 68.0964H7.15874V41.0547L68.7426 41.0623L68.735 68.0926H45.9412L45.945 68.0964ZM69.9661 38.6951H60.7711L48.6048 23.9337L60.9953 23.9489C61.9072 23.9489 62.1389 24.0135 62.5455 24.7126L62.5645 24.7468C62.5645 24.7468 62.5721 24.762 62.5759 24.7658L71.0072 37.7452L71.6265 38.7065L69.9661 38.6913V38.6951Z" fill="#4799A9"/>
<path id="Vector_2" d="M37.9469 35.5908C39.5579 35.5908 41.0739 34.9639 42.2138 33.824C43.3537 32.6841 43.9806 31.1681 43.9806 29.5571C43.9806 27.946 43.3537 26.43 42.2138 25.2901C41.0739 24.1502 39.5579 23.5233 37.9469 23.5233C36.3358 23.5233 34.8198 24.1502 33.6799 25.2901C32.54 26.43 31.9131 27.946 31.9131 29.5571C31.9131 31.1681 32.54 32.6841 33.6799 33.824C34.8198 34.9639 36.3358 35.5908 37.9469 35.5908ZM35.0326 26.6428C35.8115 25.8639 36.845 25.4345 37.9469 25.4345C39.0487 25.4345 40.0822 25.8639 40.8611 26.6428C41.6401 27.4217 42.0694 28.4552 42.0694 29.5571C42.0694 30.659 41.6401 31.6925 40.8611 32.4714C40.0822 33.2503 39.0487 33.6796 37.9469 33.6796C36.845 33.6796 35.8115 33.2503 35.0326 32.4714C34.2536 31.6925 33.8243 30.659 33.8243 29.5571C33.8243 28.4552 34.2536 27.4217 35.0326 26.6428Z" fill="#4799A9"/>
<path id="Vector_3" d="M37.3994 30.9705H40.3821C40.9102 30.9705 41.1838 30.4804 41.1838 29.9978C41.1838 29.7622 41.1192 29.5419 41.0014 29.3747C40.857 29.1695 40.6366 29.0555 40.3821 29.0555H38.5165V27.1823C38.5165 26.9315 38.4025 26.7112 38.1897 26.5668C37.6767 26.2096 36.5977 26.3958 36.5977 27.1823V30.1232C36.5977 30.5336 36.8788 30.9705 37.3956 30.9705H37.3994Z" fill="#4799A9"/>
<path id="Vector_4" fill-rule="evenodd" clip-rule="evenodd" d="M39.7799 45.0273C40.2597 45.1488 40.5515 45.6414 40.4315 46.1274L35.9436 64.3126C35.8236 64.7987 35.3374 65.0942 34.8576 64.9727C34.3777 64.8512 34.086 64.3586 34.206 63.8726L38.6939 45.6874C38.8138 45.2013 39.3001 44.9058 39.7799 45.0273ZM30.1177 46.3845C30.477 46.7289 30.4926 47.3031 30.1527 47.667L23.9659 54.29L30.1527 60.9131C30.4926 61.2771 30.477 61.8512 30.1177 62.1956C29.7585 62.54 29.1917 62.5241 28.8517 62.1602L22.0825 54.9136C21.7557 54.5638 21.7557 54.0163 22.0825 53.6665L28.8517 46.4199C29.1917 46.056 29.7585 46.0402 30.1177 46.3845ZM44.5571 46.3845C44.9163 46.0402 45.4831 46.056 45.8231 46.4199L52.5923 53.6665C52.9191 54.0163 52.9191 54.5638 52.5923 54.9136L45.8231 62.1602C45.4831 62.5241 44.9163 62.54 44.5571 62.1956C44.1978 61.8512 44.1822 61.2771 44.5221 60.9131L50.7089 54.29L44.5221 47.667C44.1822 47.3031 44.1978 46.7289 44.5571 46.3845Z" fill="#4799A9"/>
</g>
<defs>
<clipPath id="clip0_86_1343">
<rect width="74.4265" height="70" fill="white" transform="translate(0.786621)"/>
</clipPath>
</defs>
</svg>
