<svg width="88" height="70" viewBox="0 0 88 70" fill="none" xmlns="http://www.w3.org/2000/svg">
<g id="Layer_1" clip-path="url(#clip0_86_1306)">
<path id="Vector" d="M49.4056 70C48.8477 70 48.3974 69.5497 48.3974 68.9918V14.1075L25.8112 7.00336V12.1315C25.8112 12.6894 25.3609 13.1397 24.8031 13.1397C24.2452 13.1397 23.7949 12.6894 23.7949 12.1315V5.6289C23.7949 5.30629 23.9495 5.0072 24.2083 4.81565C24.467 4.62746 24.7997 4.57033 25.1055 4.66779L49.708 12.4037C50.1281 12.5348 50.4137 12.9246 50.4137 13.3649V68.9885C50.4137 69.5463 49.9634 69.9966 49.4056 69.9966V70Z" fill="#4799A9"/>
<path id="Vector_2" d="M40.8128 31.7941C40.255 31.7941 39.8047 31.3437 39.8047 30.7859V24.505C39.8047 23.9472 40.255 23.4969 40.8128 23.4969H49.4057C49.9636 23.4969 50.4139 23.9472 50.4139 24.505C50.4139 25.0629 49.9636 25.5132 49.4057 25.5132H41.821V30.7859C41.821 31.3437 41.3707 31.7941 40.8128 31.7941Z" fill="#4799A9"/>
<path id="Vector_3" d="M39.4223 45.5081C38.8644 45.5081 38.6201 45.0578 38.6201 44.5V40.7633C38.6201 40.2055 38.8644 39.7552 39.4223 39.7552H48.3771C48.9349 39.7552 49.3852 40.2055 49.3852 40.7633C49.3852 41.3212 48.9349 41.7715 48.3771 41.7715H40.4304V44.5C40.4304 45.0578 39.9801 45.5081 39.4223 45.5081Z" fill="#4799A9"/>
<path id="Vector_4" d="M48.7464 61.975H39.0956C38.447 61.975 37.9194 61.4474 37.9194 60.7988C37.9194 60.1503 38.447 59.6227 39.0956 59.6227H48.7464C49.395 59.6227 49.9226 60.1503 49.9226 60.7988C49.9226 61.4474 49.395 61.975 48.7464 61.975Z" fill="#4799A9"/>
<path id="Vector_5" d="M85.4641 70H1.43052C0.872675 70 0.422363 69.5497 0.422363 68.9918C0.422363 68.434 0.872675 67.9837 1.43052 67.9837H85.4641C86.022 67.9837 86.4723 68.434 86.4723 68.9918C86.4723 69.5497 86.022 70 85.4641 70Z" fill="#4799A9"/>
<g id="Group">
<path id="Vector_6" d="M65.0689 8.08209V12.9515C65.0689 13.5833 65.583 14.0974 66.2148 14.0974C66.8466 14.0974 67.3608 13.5833 67.3608 12.9515V8.08881C69.1082 7.60153 70.3483 5.97839 70.3483 4.12673C70.3483 2.9035 69.814 1.75755 68.8764 0.974549C67.9085 0.16802 66.6214 -0.161313 65.331 0.0739248C63.7079 0.399897 62.404 1.76764 62.1587 3.40086C61.7991 5.49447 63.0626 7.50071 65.0689 8.08209ZM64.9949 2.90686C65.4116 2.49015 65.993 2.30532 66.6282 2.41622C67.2801 2.52376 67.8312 3.08161 67.9925 3.78396C68.1001 4.39894 67.922 4.99375 67.5019 5.41382C67.0818 5.83389 66.487 6.01199 65.862 5.90446C65.1899 5.80028 64.6186 5.22563 64.5043 4.53672C64.3968 3.92174 64.5749 3.32693 64.9949 2.90686Z" fill="#4799A9"/>
<path id="Vector_7" d="M86.6369 41.9227C85.8371 40.9683 84.6811 40.4373 83.431 40.4844C81.6163 40.4844 80.0268 41.7009 79.4857 43.4719H74.8247C74.1929 43.4719 73.6787 43.9861 73.6787 44.6179C73.6787 45.1992 74.203 45.6899 74.8247 45.6899H79.4824C80.01 47.4441 81.6398 48.6438 83.5419 48.6438C83.7435 48.6438 83.9452 48.6303 84.1501 48.6001C85.7901 48.3548 87.1612 47.0475 87.4872 45.4311C87.756 44.1675 87.4468 42.8872 86.6369 41.9193V41.9227ZM84.6509 45.7638C84.2543 46.1603 83.7032 46.3418 83.1218 46.2712L83.1017 46.2511H82.9908C82.3153 46.1267 81.7541 45.5588 81.6499 44.8867C81.5424 44.2717 81.7205 43.6769 82.1405 43.2568C82.5606 42.8368 83.1319 42.6553 83.7805 42.7662C84.4526 42.8704 85.0239 43.445 85.1381 44.1339C85.2457 44.7489 85.0676 45.3437 84.6475 45.7638H84.6509Z" fill="#4799A9"/>
<path id="Vector_8" d="M78.0945 33.3096H81.865C82.8261 33.3096 83.5789 32.5569 83.5789 31.5958V17.1992C85.3667 16.7086 86.6403 15.0821 86.6403 13.2371C86.6403 12.0139 86.106 10.868 85.1684 10.085C84.2006 9.27843 82.9135 8.9491 81.623 9.18434C79.9999 9.51031 78.696 10.878 78.4507 12.5113C78.0911 14.5881 79.358 16.5943 81.3609 17.1891V30.8833C81.3609 31.0312 81.2299 31.1623 81.082 31.1623H78.0945C77.4224 31.1623 77.0225 31.7067 77.0225 32.2343C77.0225 32.9064 77.5669 33.3063 78.0945 33.3063V33.3096ZM81.2164 12.0173C81.6331 11.6006 82.2078 11.4157 82.8564 11.5266C83.5587 11.6342 84.1065 12.1819 84.214 12.8944C84.3215 13.5093 84.1434 14.1042 83.7234 14.5242C83.3033 14.9443 82.7085 15.1224 82.0834 15.0149C81.418 14.9141 80.8535 14.3528 80.7291 13.6774V13.6034L80.7123 13.5799C80.6283 12.9885 80.8098 12.4205 81.2131 12.0173H81.2164Z" fill="#4799A9"/>
<path id="Vector_9" d="M56.0358 53.0931C57.2221 53.0931 58.2437 52.2563 58.526 51.0398L59.0368 48.1767C59.0737 48.1699 59.1073 48.1598 59.1443 48.1498C60.0315 47.8742 60.9052 47.518 61.8159 47.0643L61.8294 47.0576L64.2994 48.8118C64.8471 49.1781 65.4789 49.3327 66.0838 49.2453C66.6349 49.1546 67.1491 48.8824 67.5658 48.4657L70.056 45.9755C70.9297 45.1018 71.0406 43.7508 70.3248 42.7662L68.6479 40.3802C69.1016 39.5972 69.4746 38.7167 69.8241 37.591L72.7612 37.0802C73.9811 36.9054 74.8313 35.8804 74.8313 34.59V30.9606C74.8313 29.7743 73.9979 28.7527 72.778 28.4705L69.9148 27.9597C69.9081 27.926 69.898 27.8891 69.8879 27.8555C69.5788 26.8608 69.2125 25.9366 68.7991 25.1099L68.7924 25.0965L70.5365 22.6433C71.2557 21.6519 71.1448 20.301 70.271 19.4273L67.7103 16.8665C67.2466 16.4028 66.6148 16.1507 65.9292 16.1507C65.4083 16.1507 64.8707 16.3221 64.4943 16.6044L62.1083 18.3452C61.3387 17.8982 60.4314 17.5151 59.3258 17.1757L58.815 14.2386C58.6402 13.0187 57.6153 12.1685 56.3214 12.1685H54.2514C53.6196 12.1685 53.1054 12.6826 53.1054 13.3144C53.1054 13.9462 53.6196 14.4604 54.2514 14.4604H56.2509C56.3719 14.4604 56.5164 14.578 56.5365 14.6855L57.1817 18.3384L57.1952 18.3855C57.3296 18.7921 57.6052 19.0912 57.9647 19.2088C59.3325 19.5886 60.5221 20.0893 61.5 20.6975C61.7118 20.8656 61.9705 20.8656 62.0848 20.8656C62.3637 20.8656 62.6157 20.7412 62.7569 20.6135L65.61 18.5233C65.6772 18.4897 65.7578 18.4493 65.7847 18.446C65.8553 18.446 65.8889 18.4661 65.9864 18.5233C66.0065 18.5367 66.0267 18.5468 66.0468 18.5602L68.5572 21.0739C68.6714 21.1882 68.6311 21.3428 68.574 21.42L66.4299 24.421C66.1745 24.8041 66.1745 25.2376 66.4098 25.5871C67.1222 26.854 67.6095 28.0571 67.8548 29.1661L67.8649 29.1997C67.9691 29.5156 68.2379 29.8147 68.5504 29.9625C68.658 30.0129 68.7588 30.0331 68.8394 30.0466L72.3008 30.601C72.4487 30.6313 72.536 30.7355 72.536 30.89V34.5194C72.536 34.6404 72.4184 34.7849 72.3109 34.8051L68.658 35.4503L68.6109 35.4637C68.2043 35.5982 67.9052 35.8737 67.7876 36.2333C67.4045 37.6145 66.8971 38.8142 66.2888 39.7887C66.0233 40.1887 66.0368 40.723 66.3123 41.0221L68.4395 43.9995C68.4967 44.0768 68.4631 44.2515 68.3959 44.3591L65.8553 46.8996C65.8251 46.9299 65.7444 46.9669 65.6469 46.9669C65.6167 46.9635 65.5461 46.9299 65.4856 46.8996L62.5586 44.8128C62.4141 44.6783 62.1654 44.5439 61.8697 44.5439C61.7017 44.5439 61.4933 44.5439 61.2917 44.7052C60.2062 45.3101 59.0368 45.7907 57.7967 46.1334C57.4304 46.2544 57.0406 46.6174 57.0272 47.0542L56.466 50.5694C56.4357 50.7206 56.3315 50.8046 56.1769 50.8046H54.248C53.6162 50.8046 53.1021 51.3188 53.1021 51.9505C53.1021 52.5823 53.6162 53.0965 54.248 53.0965H56.0324L56.0358 53.0931Z" fill="#4799A9"/>
<path id="Vector_10" d="M74.2534 57.5626C72.4085 57.5626 70.782 58.8329 70.2913 60.6241H56.0359C55.8881 60.6241 55.757 60.493 55.757 60.3452V57.4988C55.757 56.9376 55.2529 56.4973 54.6111 56.4973C53.9692 56.4973 53.5391 57.0418 53.5391 57.5694V60.7719C53.5391 61.8944 54.4867 62.842 55.6092 62.842H70.3014C70.829 64.5962 72.4589 65.796 74.361 65.796C74.5592 65.796 74.7642 65.7825 74.9692 65.7523C76.6092 65.5069 77.9803 64.1997 78.3062 62.5833C78.5717 61.3399 78.2726 60.0696 77.4863 59.0984C76.6965 58.1205 75.517 57.5626 74.2568 57.5626H74.2534ZM75.4699 62.9126C75.0734 63.3092 74.5223 63.4906 73.9409 63.4201L73.9207 63.3999H73.8098C73.168 63.2823 72.6303 62.7278 72.469 62.0355C72.3614 61.4205 72.5395 60.8257 72.9596 60.4057C73.3763 59.9889 73.951 59.8041 74.5996 59.915C75.2717 60.0192 75.843 60.5938 75.9572 61.2828C76.0648 61.8977 75.8866 62.4925 75.4666 62.9126H75.4699Z" fill="#4799A9"/>
<path id="Vector_11" d="M54.342 39.157C54.3084 39.157 54.2748 39.157 54.2379 39.157H54.2177C53.9085 39.1704 53.6296 39.2847 53.4313 39.4829C53.2196 39.6913 53.102 39.9736 53.102 40.2727C53.102 40.8809 53.596 41.3816 54.2042 41.3917H54.3555C54.8461 41.3917 55.3435 41.3514 55.8308 41.2741C59.4534 40.6692 62.404 37.7187 63.0055 34.096C63.4289 31.4815 62.6997 28.8468 60.9993 26.8675C59.2955 24.8848 56.8187 23.7623 54.211 23.7926C53.5994 23.7993 53.0986 24.3 53.0986 24.9116C53.0986 25.2141 53.2163 25.4964 53.4313 25.7047C53.6397 25.9097 53.9253 26.024 54.2412 26.0273C54.6411 26.0206 55.0477 26.0475 55.4443 26.1114C58.1361 26.5718 60.3372 28.7729 60.7943 31.458C61.1102 33.4071 60.5624 35.373 59.2921 36.8516C58.0319 38.3168 56.2307 39.1536 54.3319 39.1536L54.342 39.157Z" fill="#4799A9"/>
</g>
<g id="Vector_12">
<path d="M25.4224 55.6244C19.5161 55.6244 14.7113 50.7665 14.7113 44.795V27.8293C14.7113 21.8578 19.5161 17 25.4224 17C31.3287 17 36.1335 21.8578 36.1335 27.8293V44.795C36.1335 50.7665 31.3287 55.6244 25.4224 55.6244ZM25.4224 18.8991C20.5523 18.8991 16.5911 22.904 16.5911 27.8278V44.7935C16.5911 49.7173 20.5523 53.7238 25.4224 53.7238C30.2924 53.7238 34.2537 49.7188 34.2537 44.7935V27.8278C34.2537 22.904 30.2924 18.8991 25.4224 18.8991Z" fill="#4799A9"/>
<path d="M25.4224 59.8422C17.4094 59.8422 10.8434 53.4555 10.4416 45.453C10.4298 45.3901 10.4224 45.3256 10.4224 45.2597V44.6766C10.4224 44.152 10.8434 43.7263 11.3623 43.7263C11.8812 43.7263 12.3022 44.152 12.3022 44.6766C12.3022 51.9911 18.1877 57.9416 25.4224 57.9416C32.657 57.9416 38.6312 51.9911 38.6312 44.6766C38.6312 44.152 38.9636 43.7263 39.4825 43.7263C40.0013 43.7263 40.4224 44.152 40.4224 44.6766V45.2597C40.4224 45.3256 40.4149 45.3901 40.4031 45.453C40.0028 53.4555 33.4368 59.8422 25.4224 59.8422Z" fill="#4799A9"/>
<path d="M25.4224 70C24.9035 70 24.4825 69.5743 24.4825 69.0497V58.8904C24.4825 58.3658 24.9035 57.9401 25.4224 57.9401C25.9412 57.9401 26.3623 58.3658 26.3623 58.8904V69.0497C26.3623 69.5743 25.9412 70 25.4224 70Z" fill="#4799A9"/>
<path d="M28.3948 37.2617H22.4485C21.9296 37.2617 21.5085 36.836 21.5085 36.3114C21.5085 35.7868 21.9296 35.3611 22.4485 35.3611H28.3948C28.9137 35.3611 29.3347 35.7868 29.3347 36.3114C29.3347 36.836 28.9137 37.2617 28.3948 37.2617Z" fill="#4799A9"/>
<path d="M28.3948 42.1046H22.4485C21.9296 42.1046 21.5085 41.6789 21.5085 41.1543C21.5085 40.6297 21.9296 40.204 22.4485 40.204H28.3948C28.9137 40.204 29.3347 40.6297 29.3347 41.1543C29.3347 41.6789 28.9137 42.1046 28.3948 42.1046Z" fill="#4799A9"/>
<path d="M28.3948 32.4189H22.4485C21.9296 32.4189 21.5085 31.9932 21.5085 31.4686C21.5085 30.944 21.9296 30.5183 22.4485 30.5183H28.3948C28.9137 30.5183 29.3347 30.944 29.3347 31.4686C29.3347 31.9932 28.9137 32.4189 28.3948 32.4189Z" fill="#4799A9"/>
</g>
</g>
<defs>
<clipPath id="clip0_86_1306">
<rect width="87.1555" height="70" fill="white" transform="translate(0.422363)"/>
</clipPath>
</defs>
</svg>
