<svg width="110" height="70" viewBox="0 0 110 70" fill="none" xmlns="http://www.w3.org/2000/svg">
<g id="Layer_1" clip-path="url(#clip0_86_1331)">
<path id="Vector" d="M108.507 33.3208H102.676V30.1698L102.891 30.219C104.73 30.6305 106.618 30.8415 108.507 30.8415C108.964 30.8415 109.333 30.4722 109.333 30.0151C109.333 29.5579 108.964 29.1886 108.507 29.1886C95.2839 29.1886 84.5263 18.431 84.5263 5.20824C84.5263 4.75107 84.1571 4.38181 83.6999 4.38181H82.5816V0.826425C82.5816 0.369254 82.2123 0 81.7552 0C81.298 0 80.9287 0.369254 80.9287 0.826425V4.3783H79.8104C79.3568 4.3783 78.984 4.74755 78.984 5.20472C78.984 18.4275 68.2264 29.1851 55.0036 29.1851C41.7808 29.1851 31.0197 18.4275 31.0197 5.20472C31.0197 4.74755 30.6504 4.3783 30.1932 4.3783H29.0749V0.826425C29.0749 0.369254 28.7057 0 28.2485 0C27.7913 0 27.4221 0.369254 27.4221 0.826425V4.3783H26.3038C25.8466 4.3783 25.4773 4.74755 25.4773 5.20472C25.4773 18.4275 14.7197 29.1851 1.49693 29.1851C1.03976 29.1851 0.670509 29.5544 0.670509 30.0116C0.670509 30.4687 1.03976 30.838 1.49693 30.838C3.38892 30.838 5.27739 30.627 7.11663 30.2155L7.33115 30.1663V33.3208H1.49342C1.03625 33.3208 0.666992 33.69 0.666992 34.1472C0.666992 34.6044 1.03625 34.9736 1.49342 34.9736H25.4738V37.4564H1.49342C1.03625 37.4564 0.666992 37.8257 0.666992 38.2828C0.666992 38.74 1.03625 39.1093 1.49342 39.1093H25.4738V52.536H24.5982C24.141 52.536 23.7717 52.9053 23.7717 53.3625V60.7159H23.5994C22.6042 60.744 21.6547 60.3818 20.9338 59.7066C18.8519 57.7548 15.5884 57.7548 13.5065 59.7066C12.0576 61.064 9.78932 61.064 8.34044 59.7066C8.00987 59.3936 7.48588 59.4112 7.17289 59.7453C6.85991 60.0794 6.87749 60.6034 7.21158 60.9128C9.29347 62.8611 12.557 62.8646 14.6389 60.9128C16.0877 59.5554 18.356 59.5554 19.8049 60.9128C21.8868 62.8646 25.1503 62.8646 27.2322 60.9128C28.6811 59.5554 30.9493 59.5554 32.3982 60.9128C34.4801 62.8646 37.7436 62.8611 39.8255 60.9128C41.2744 59.5554 43.5426 59.5554 44.9915 60.9128C47.0734 62.8646 50.3369 62.8646 52.4188 60.9128C53.8677 59.5554 56.136 59.5554 57.5849 60.9128C59.6667 62.8611 62.9302 62.8611 65.0121 60.9128C65.7366 60.2341 66.665 59.8965 67.5934 59.8965C68.5218 59.8965 69.4537 60.2341 70.1782 60.9128C72.2601 62.8611 75.5236 62.8646 77.6054 60.9128C79.0543 59.5554 81.3226 59.5554 82.7715 60.9128C84.8534 62.8611 88.1169 62.8611 90.1988 60.9128C91.6476 59.5554 93.9159 59.5554 95.3648 60.9128C96.3706 61.8553 97.6893 62.3758 99.0784 62.3758C100.468 62.3758 101.786 61.8553 102.792 60.9128C103.126 60.5998 103.14 60.0759 102.831 59.7453C102.521 59.4147 101.994 59.3971 101.663 59.7066C100.214 61.064 97.9461 61.064 96.4972 59.7066C94.4153 57.7548 91.1518 57.7548 89.0699 59.7066C88.349 60.3818 87.3995 60.7475 86.4042 60.7194H86.2319V53.3625C86.2319 52.9053 85.8627 52.536 85.4055 52.536H84.5298V39.1093H108.51C108.967 39.1093 109.337 38.74 109.337 38.2828C109.337 37.8257 108.967 37.4564 108.51 37.4564H84.5298V34.9736H108.51C108.967 34.9736 109.337 34.6044 109.337 34.1472C109.337 33.69 108.967 33.3208 108.51 33.3208H108.507ZM80.6333 6.03115H82.8735V52.536H80.6333V6.03115ZM75.8084 20.1577L75.8401 20.112C76.9584 18.5541 77.9008 16.8696 78.6429 15.1078L78.9805 14.306V33.3243H75.8084V20.1613V20.1577ZM69.1478 26.5722L69.2251 26.5195C70.9132 25.3906 72.4711 24.0578 73.8496 22.5561L74.1556 22.2256V33.3208H69.1478V26.5687V26.5722ZM62.4871 29.7232L62.6102 29.6845C64.2068 29.1886 65.7612 28.5275 67.2347 27.7257L67.4949 27.585V33.3243H62.4871V29.7267V29.7232ZM55.8265 30.8239L55.9953 30.8169C57.5567 30.7571 59.1111 30.5531 60.6198 30.2155L60.8343 30.1663V33.3208H55.8265V30.8239ZM49.1694 30.1698L49.3839 30.219C50.8926 30.5566 52.4469 30.7606 54.0084 30.8204L54.1772 30.8274V33.3243H49.1694V30.1698ZM42.5087 27.585L42.769 27.7257C44.2425 28.5275 45.7969 29.1886 47.3934 29.6845L47.5165 29.7232V33.3208H42.5087V27.5815V27.585ZM35.8481 22.2256L36.1541 22.5561C37.5361 24.0543 39.0905 25.3906 40.7785 26.5195L40.8559 26.5722V33.3208H35.8481V22.2256ZM31.0232 14.3024L31.3608 15.1078C32.0993 16.8696 33.0453 18.5541 34.1636 20.112L34.1952 20.1577V33.3208H31.0232V14.3024ZM31.0232 34.9736H78.9875V37.4529H31.0197V34.9736H31.0232ZM27.1302 6.03115H29.3703V52.536H27.1302V6.03115ZM13.9918 33.3208H8.984V29.7232L9.10708 29.6845C10.7037 29.1886 12.258 28.5275 13.7315 27.7257L13.9918 27.585V33.3243V33.3208ZM20.6524 33.3208H15.6446V26.5687L15.722 26.5159C17.41 25.3836 18.9679 24.0507 20.3465 22.5526L20.6524 22.2221V33.3208ZM22.3053 33.3208V20.1542L22.3369 20.1085C23.4552 18.5506 24.3977 16.8661 25.1397 15.1042L25.4773 14.2989V33.3173H22.3053V33.3208ZM31.0724 58.3843L30.8614 58.3421C29.1488 58.0116 27.3693 58.518 26.1033 59.7031C25.9908 59.8086 25.8607 59.9106 25.7024 60.0231L25.4246 60.22V54.1854H31.0654V58.3843H31.0724ZM77.2854 53.359V59.0806L77.2045 59.1334C76.9302 59.3127 76.6911 59.4991 76.4766 59.7031C75.7521 60.3818 74.8237 60.7194 73.8953 60.7194C72.9669 60.7194 72.035 60.3818 71.3105 59.7031C69.2287 57.7513 65.9687 57.7513 63.8833 59.7031C62.4344 61.0605 60.1661 61.0605 58.7172 59.7031C56.6353 57.7513 53.3754 57.7513 51.2899 59.7031C49.8411 61.0605 47.5728 61.0605 46.1239 59.7031C44.042 57.7513 40.782 57.7513 38.6966 59.7031C37.2477 61.0605 34.9795 61.0605 33.5306 59.7031C33.3161 59.5026 33.0769 59.3162 32.8026 59.1334L32.7218 59.0806V53.3554C32.7218 52.8983 32.3525 52.529 31.8953 52.529H31.0197V39.1022H78.984V52.529H78.1083C77.6512 52.529 77.2819 52.8983 77.2819 53.3554L77.2854 53.359ZM84.5791 54.1854V60.22L84.3013 60.0231C84.1395 59.9071 84.0129 59.8086 83.9039 59.7031C82.6414 58.518 80.8619 58.0116 79.1493 58.3421L78.9383 58.3843V54.1854H84.5791ZM87.7054 33.3173H84.5298V14.2989L84.8674 15.1042C85.6095 16.8661 86.5519 18.5506 87.6702 20.112L87.7019 20.1577V33.3208L87.7054 33.3173ZM94.3661 33.3173H89.3583V22.2221L89.6642 22.5526C91.0463 24.0507 92.6007 25.3836 94.2887 26.5159L94.3661 26.5687V33.3173ZM101.027 33.3173H96.0189V27.5815L96.2791 27.7222C97.7526 28.5275 99.3105 29.1851 100.904 29.681L101.027 29.7197V33.3173Z" fill="#4799A9"/>
<path id="Vector_2" d="M102.824 67.3695C102.514 67.0389 101.99 67.0214 101.656 67.3308C100.207 68.6883 97.9388 68.6883 96.4899 67.3308C94.4081 65.3791 91.1481 65.3791 89.0627 67.3308C87.6138 68.6883 85.3455 68.6883 83.8966 67.3308C81.8147 65.3791 78.5547 65.3791 76.4693 67.3308C75.0205 68.6883 72.7522 68.6883 71.3033 67.3308C69.2214 65.3791 65.9579 65.3791 63.876 67.3308C62.4271 68.6883 60.1589 68.6883 58.71 67.3308C56.6281 65.3791 53.3681 65.3791 51.2827 67.3308C49.8338 68.6883 47.5656 68.6883 46.1167 67.3308C44.0348 65.3791 40.7748 65.3791 38.6894 67.3308C37.2405 68.6883 34.9722 68.6883 33.5234 67.3308C31.4415 65.3826 28.1815 65.3791 26.0961 67.3308C24.6472 68.6883 22.3789 68.6883 20.93 67.3308C18.8481 65.3826 15.5882 65.3791 13.5028 67.3308C12.0539 68.6883 9.7856 68.6883 8.33672 67.3308C8.00263 67.0178 7.47864 67.0354 7.16917 67.3695C6.8597 67.7036 6.87377 68.2241 7.20786 68.5371C9.28975 70.4853 12.5532 70.4888 14.6351 68.5371C16.084 67.1796 18.3523 67.1796 19.8012 68.5371C21.8831 70.4888 25.1466 70.4888 27.2285 68.5371C28.6773 67.1796 30.9456 67.1796 32.3945 68.5371C34.4764 70.4853 37.7399 70.4888 39.8218 68.5371C41.2707 67.1796 43.5389 67.1796 44.9878 68.5371C47.0697 70.4888 50.3332 70.4888 52.4151 68.5371C53.864 67.1796 56.1322 67.1796 57.5811 68.5371C59.663 70.4853 62.9265 70.4853 65.0084 68.5371C65.7328 67.8583 66.6613 67.5207 67.5932 67.5207C68.5251 67.5207 69.4535 67.8583 70.178 68.5371C72.2598 70.4888 75.5198 70.4888 77.6052 68.5371C79.0541 67.1796 81.3224 67.1796 82.7713 68.5371C84.8532 70.4853 88.1132 70.4888 90.1986 68.5371C91.6474 67.1796 93.9157 67.1796 95.3646 68.5371C96.3704 69.4795 97.6891 70 99.0782 70C100.467 70 101.786 69.4795 102.792 68.5371C103.126 68.2276 103.14 67.7001 102.831 67.3695H102.824Z" fill="#4799A9"/>
</g>
<defs>
<clipPath id="clip0_86_1331">
<rect width="108.666" height="70" fill="white" transform="translate(0.666992)"/>
</clipPath>
</defs>
</svg>
